<svg xmlns="http://www.w3.org/2000/svg" viewBox="0 0 64.91 65.1"><defs><style>.cls-1{fill:#494c4e;}</style></defs><title>icon_logo</title><g id="圖層_2" data-name="圖層 2"><g id="icon_logo"><path class="cls-1" d="M32.46,0A32.55,32.55,0,1,0,64.91,32.55,32.54,32.54,0,0,0,32.46,0Zm0,60.45A27.88,27.88,0,0,1,5.26,38.39a6.91,6.91,0,0,0,6.32,1.14c4-1.39,5.74-6.69,3.94-11.83-1.46-4.18-4.82-7-8.17-7.11A27.78,27.78,0,0,1,60.15,30H20.89a9.2,9.2,0,0,1,.93,4,8.92,8.92,0,0,1-.08,1.16h.07a9.14,9.14,0,0,1-7,8,20.2,20.2,0,0,0,38.36-8h7A27.88,27.88,0,0,1,32.46,60.45Zm1.91-21.23a3.9,3.9,0,1,1-3.9-3.9A3.91,3.91,0,0,1,34.37,39.22Z"/></g></g></svg>