<svg xmlns="http://www.w3.org/2000/svg" viewBox="0 0 373.13 65.1"><defs><style>.cls-1{fill:#494c4e;}</style></defs><title>logo</title><g id="圖層_2" data-name="圖層 2"><g id="logo"><path class="cls-1" d="M32.46,0A32.55,32.55,0,1,0,64.91,32.55,32.54,32.54,0,0,0,32.46,0Zm0,60.45A27.88,27.88,0,0,1,5.26,38.39a6.91,6.91,0,0,0,6.32,1.14c4-1.39,5.74-6.69,3.94-11.83-1.46-4.18-4.82-7-8.17-7.11A27.78,27.78,0,0,1,60.15,30H20.89a9.2,9.2,0,0,1,.93,4,8.92,8.92,0,0,1-.08,1.16h.07a9.14,9.14,0,0,1-7,8,20.2,20.2,0,0,0,38.36-8h7A27.88,27.88,0,0,1,32.46,60.45Zm1.91-21.23a3.9,3.9,0,1,1-3.9-3.9A3.91,3.91,0,0,1,34.37,39.22Z"/><path class="cls-1" d="M132.91,21.24V40.41L115.8,21.24h-.25v-.1h-4.63V40.48a9.85,9.85,0,0,1-.54,3.3,8,8,0,0,1-1.53,2.69,7.19,7.19,0,0,1-2.43,1.82,8.16,8.16,0,0,1-6.43,0,7.19,7.19,0,0,1-2.43-1.82A8,8,0,0,1,96,43.78a9.85,9.85,0,0,1-.54-3.3V21.14H88.13V40.43A11.51,11.51,0,0,0,89,44.89a10.1,10.1,0,0,0,2.58,3.66A12.41,12.41,0,0,0,95.8,51a17.09,17.09,0,0,0,5.84.91A19.37,19.37,0,0,0,108,51a11.94,11.94,0,0,0,4.31-2.47,9.57,9.57,0,0,0,2.48-3.65,12.28,12.28,0,0,0,.79-4.42V29.86l18.8,22h3.2V21.24Z"/><path class="cls-1" d="M151.29,36.17a14.23,14.23,0,0,0,.88,5.18,11.2,11.2,0,0,0,2.35,3.76,9.74,9.74,0,0,0,3.36,2.3,10.09,10.09,0,0,0,4,.79,7.74,7.74,0,0,0,2.95-.55,10,10,0,0,0,2.54-1.47A14.48,14.48,0,0,0,169.54,44c.7-.82,1.36-1.68,2-2.58l3.07,2.27a17.44,17.44,0,0,1-2.38,3.1,17.82,17.82,0,0,1-3.16,2.62,15.56,15.56,0,0,1-3.81,1.82,13.87,13.87,0,0,1-4.36.67,21.45,21.45,0,0,1-7.13-1.13,16.8,16.8,0,0,1-5.63-3.2,14.42,14.42,0,0,1-3.69-5,15.23,15.23,0,0,1-1.33-6.46,15.69,15.69,0,0,1,1.26-6.33,14.89,14.89,0,0,1,3.55-5,16.21,16.21,0,0,1,5.48-3.27,20.44,20.44,0,0,1,7.07-1.17,17.37,17.37,0,0,1,4.76.61,15.74,15.74,0,0,1,3.92,1.69,15.06,15.06,0,0,1,3.15,2.58,18.91,18.91,0,0,1,2.43,3.29l-3.13,2.19a24,24,0,0,0-2.06-2.56,16,16,0,0,0-2.36-2.11,11.05,11.05,0,0,0-2.66-1.43,8.2,8.2,0,0,0-2.91-.53,10.22,10.22,0,0,0-4,.79,9.34,9.34,0,0,0-3.28,2.3A11.22,11.22,0,0,0,152.12,31,15.11,15.11,0,0,0,151.29,36.17Z"/><path class="cls-1" d="M189.4,37.26V51.6h-7.34V21.47h7.34v13.2h12.08V21.47h7.31V51.6h-7.31V37.26Z"/><path class="cls-1" d="M225.08,43l-4,8.24h-5l14.65-30.8H234L248,51.26h-7.54Zm1.36-2.81h9.05l-4.44-9.74Z"/><path class="cls-1" d="M255.35,21.47h11.26a19.4,19.4,0,0,1,5.11.61,11,11,0,0,1,3.64,1.71,7.15,7.15,0,0,1,2.2,2.6,7.5,7.5,0,0,1,.73,3.27,6.11,6.11,0,0,1-.5,2.43,7.3,7.3,0,0,1-1.4,2.12,10,10,0,0,1-2.18,1.72,13.35,13.35,0,0,1-2.82,1.23L282.08,51.6h-8L264,38h-1.31V51.6h-7.34Zm7.34,13.87h1.61a8,8,0,0,0,2.49-.37,5.77,5.77,0,0,0,2-1.09,5.11,5.11,0,0,0,1.33-1.74,5.45,5.45,0,0,0,.48-2.33,6,6,0,0,0-.37-2.16,5.34,5.34,0,0,0-1-1.72,4.66,4.66,0,0,0-3.52-1.54h-3Z"/><path class="cls-1" d="M309,21.14v2.54H298.61V51.26h-7.34V23.68H280.88V21.14Z"/><path class="cls-1" d="M343.1,21.14H354a28.45,28.45,0,0,1,7.71,1A18.12,18.12,0,0,1,367.76,25a13.26,13.26,0,0,1,4,4.64,13.58,13.58,0,0,1,1.41,6.29,14.94,14.94,0,0,1-1.19,6,13.81,13.81,0,0,1-3.48,4.87,16.77,16.77,0,0,1-5.64,3.28,22.45,22.45,0,0,1-7.67,1.21h-12Zm7.34,27h3.92a10.37,10.37,0,0,0,4.09-.81A9.61,9.61,0,0,0,361.8,45a11.17,11.17,0,0,0,2.27-3.82A15.29,15.29,0,0,0,364.9,36a13.75,13.75,0,0,0-.78-4.7,11.29,11.29,0,0,0-2.18-3.73,10.2,10.2,0,0,0-3.34-2.47,9.92,9.92,0,0,0-4.24-.9h-3.92Z"/><polygon class="cls-1" points="122.95 51.83 114.17 51.83 118.56 45.59 122.95 51.83"/><path class="cls-1" d="M337,21.14v2.57H322v9.93h12.5v2.58H322v12h15v3.09H314.6V21.14Z"/></g></g></svg>