<svg xmlns="http://www.w3.org/2000/svg" viewBox="0 0 250 146"><defs><style>.cls-1{fill:#c1bd31;opacity:0.8;}.cls-2{fill:#fff;}</style></defs><title>food_detail</title><g id="圖層_2" data-name="圖層 2"><g id="food_detail"><path class="cls-1" d="M215,0H35A35.1,35.1,0,0,0,0,35V88a35.1,35.1,0,0,0,35,35h72.39A95,95,0,0,0,125,146a95,95,0,0,0,17.61-23H215a35.1,35.1,0,0,0,35-35V35A35.1,35.1,0,0,0,215,0Z"/><path class="cls-2" d="M64.34,81.19a8.47,8.47,0,0,1,2.08,1.24l-.48.65a7.87,7.87,0,0,0-2-1.3Zm-.15,7.12a32.88,32.88,0,0,0,1.92-3.93l.64.45A34.35,34.35,0,0,1,65,88.53a.32.32,0,0,1,.07.19.24.24,0,0,1,0,.12Zm2.32-8.41a9,9,0,0,0-2-1.4l.47-.58a8.38,8.38,0,0,1,2,1.35Zm8.55,4.65H74c0,.78-.07,1.42-.12,1.94H75v.72H73.8c-.22,1.68-.62,1.73-1.77,1.73-.29,0-.63,0-1,0a1.92,1.92,0,0,0-.22-.69c.66,0,1.25,0,1.53,0s.52-.31.63-1.05H68.46l-.09.6-.77-.07c.14-.84.31-2,.47-3.19H66.82V83.8h1.33c.11-.89.21-1.77.27-2.54h5.27l.43,0c0,.08,0,.18,0,.26L74,83.8h1ZM75,80.08H68.84a9.62,9.62,0,0,1-1.37,2.28,7.61,7.61,0,0,0-.61-.48,11.06,11.06,0,0,0,2-4.09l1,.27c0,.08-.11.13-.27.13-.12.38-.25.77-.39,1.15H75Zm-4.58,6.41c.06-.57.12-1.24.19-1.94H68.81c-.08.68-.17,1.34-.25,1.94Zm.25-2.69c0-.62.08-1.25.12-1.82H69.1c-.06.59-.13,1.2-.2,1.82Zm.63.75c-.06.7-.12,1.39-.18,1.94h2c0-.51.08-1.14.12-1.94Zm.2-2.57c0,.57-.09,1.2-.14,1.82h1.92c0-.54,0-1.15.06-1.82Z"/><path class="cls-2" d="M77.68,81.19A9.64,9.64,0,0,1,80,82.43l-.46.68a9.6,9.6,0,0,0-2.24-1.32Zm-.05,7a44.21,44.21,0,0,0,2.19-3.93l.6.51c-.6,1.27-1.41,2.78-2,3.72a.41.41,0,0,1,0,.17.43.43,0,0,1,0,.14Zm2.45-8.34a9.52,9.52,0,0,0-2.19-1.41l.45-.58a9,9,0,0,1,2.22,1.35Zm8.32,5.43v.76H84.9V89h-.81V86.09H80.68v-.76h3.41v-1.9H81.36v-.76h2.73V80.85H81v-.77h1.76a8.66,8.66,0,0,0-1.09-1.93l.7-.33a9,9,0,0,1,1.19,2l-.52.26h2.64l-.37-.16a13,13,0,0,0,1.17-2.14l1,.4c0,.08-.14.11-.27.11a15.59,15.59,0,0,1-1.09,1.79h2v.77H84.9v1.82h2.83v.76H84.9v1.9Z"/><path class="cls-2" d="M96.55,79.87h4.78V82.5h-.77v-2h-4v3.25h-.79V80.53H91.82v2h-.73V79.87h4.67V79h-4v-.68h8.85V79H96.55ZM92.25,85v-.66h7.83V89h-.79v-.49H92V87.8h7.29V86.7H92.52v-.64h6.77V85Zm-.06-1.65v-.6h2.93v.6Zm.26-2H95.1V82H92.45Zm4.76,0h2.73V82H97.21Zm0,2v-.6h3v.6Z"/><path class="cls-2" d="M137.1,81.06c0,.09-.1.14-.26.14a13.51,13.51,0,0,1-2.17,5.11,5.13,5.13,0,0,0-.76-.43,11.46,11.46,0,0,0,2.09-5ZM139.2,78l1.11.05c0,.1-.09.16-.26.17v9.57c0,.63-.16.88-.57,1a9,9,0,0,1-2.3.16,3.63,3.63,0,0,0-.35-.85l1.44,0c.84,0,.93,0,.93-.33Zm5.28,8.52a19.83,19.83,0,0,0-2.35-5.45l.77-.3a19.6,19.6,0,0,1,2.43,5.39Z"/><path class="cls-2" d="M151.23,81.6h-1.67a4,4,0,0,1-1.71,2.83,2.75,2.75,0,0,0-.56-.57,3.3,3.3,0,0,0,1.51-2.26h-1.33v-.74h1.41V79h-1.13v-.72h5.37V79H152v1.83h1.31v.74H152v2.65h-.76Zm2.08,6.21h5.14v.77h-11v-.77h5.08V86.13H148.7v-.75h3.79V83.85l1,.07c0,.09-.07.15-.23.17v1.29h3.84v.75h-3.84ZM149.62,79v1.83h1.61V79Zm5.46-.55c0,.08-.07.13-.24.15v4h-.76V78.41Zm3-.58c0,.09-.07.14-.22.17v5.36c0,.86-.5.91-2.14.91a3.47,3.47,0,0,0-.26-.72h.75c.87,0,.87,0,.87-.2V77.84Z"/><path class="cls-2" d="M161.54,78.62h9v7.17h-.82v-.62h-3.31V89h-.83V85.17h-3.25v.67h-.79Zm4,.78h-3.25v2.12h3.25Zm-3.25,5h3.25v-2.1h-3.25Zm7.39-2.87V79.4h-3.31v2.12Zm-3.31,2.87h3.31v-2.1h-3.31Z"/><path class="cls-2" d="M178.07,87l1.13-.36.09.64-2.2.78a.23.23,0,0,1-.13.18l-.38-.82.76-.2v-2H175.5V86a3.28,3.28,0,0,1-1.28,2.83,3,3,0,0,0-.55-.52,2.6,2.6,0,0,0,1.1-2.32V84.55h3.3Zm-2-6.63v-.94h-2.31V78.8h2.31v-1l1,.06c0,.08-.07.14-.23.16v.77H179v.62h-2.23v.94h1.88V81h-4.54v-.61Zm-2.28,1.38H179v1.74h-.7V82.36h-3.87v1.12h-.67Zm4.22,2h-3.18v-.61H178Zm5.88-.58.48.21a.34.34,0,0,1-.09.12,7.76,7.76,0,0,1-1.87,3.39A6.78,6.78,0,0,0,185,88.29a3.5,3.5,0,0,0-.52.68,7.32,7.32,0,0,1-2.59-1.57A8.36,8.36,0,0,1,179.08,89a3.12,3.12,0,0,0-.43-.66,7.57,7.57,0,0,0,2.66-1.44,8.33,8.33,0,0,1-1.52-2.69l.7-.19a7.13,7.13,0,0,0,1.38,2.36,6.89,6.89,0,0,0,1.48-2.42h-3.94v-.73h4.32Zm-3.12-4v.94a3.4,3.4,0,0,1-1.2,2.86,3,3,0,0,0-.54-.53,2.69,2.69,0,0,0,1-2.34V78.41h3.46v3c0,.47,0,.47.22.47.51,0,.57,0,.6-.31,0-.16,0-.54.05-1a1.84,1.84,0,0,0,.59.31c-.06,1.23-.08,1.65-.91,1.65h-.49c-.8,0-.8-.54-.8-1.19V79.14Z"/><path class="cls-2" d="M189.29,83.31V81.42a7.08,7.08,0,0,1-1.91,1.88,3,3,0,0,0-.47-.54,6.46,6.46,0,0,0,2.11-2h-1.94v-.68h2.21V77.82l1,.06c0,.07-.07.13-.23.15v2h2.18v.68H190v.16c.49.29,1.91,1.21,2.24,1.48l-.44.59c-.34-.3-1.19-1-1.8-1.39v1.71Zm.7,2.09a3.88,3.88,0,0,1-.09.58c.75.52,1.65,1.22,2.14,1.65l-.54.55a18.25,18.25,0,0,0-1.82-1.5,4.36,4.36,0,0,1-2.32,2,3,3,0,0,0-.44-.61c1.76-.79,2.22-1.79,2.32-2.72h-2.17v-.72h2.2V83.57l1,.06c0,.09-.07.15-.23.17v.88h2.23v.72Zm-2.05-7.21a4.92,4.92,0,0,1,.73,1.39l-.61.26a5.42,5.42,0,0,0-.71-1.43Zm2.67,1.44a10.19,10.19,0,0,0,.72-1.49l.83.31c0,.08-.12.1-.24.1a11.89,11.89,0,0,1-.77,1.32Zm4,7.7a.26.26,0,0,1-.21.09A7.42,7.42,0,0,1,192,89a3.07,3.07,0,0,0-.54-.54,7.1,7.1,0,0,0,2.39-1.5Zm-1.9-7h1.63c.11-.39.21-.84.3-1.24h-2.35v-.72h5.82v.72h-2.64c-.09.36-.22.83-.36,1.24h2.56v6.31h-5Zm4.2,1.89V81h-3.46v1.24Zm0,1.87V82.87h-3.46v1.24Zm0,1.9V84.74h-3.46V86Zm-.68,1a14.13,14.13,0,0,1,2.1,1.55l-.63.44a14.08,14.08,0,0,0-2.07-1.58Z"/><path class="cls-2" d="M151.41,47.67c.84-.83,2.34,1.9,4.68,2.34s5.91.15,6.5.51-1.47,1.17-2,2A26.5,26.5,0,0,0,159.37,56c-.22.51-7.37,1.39-8.62,0S150.32,48.77,151.41,47.67Z"/><path class="cls-2" d="M162.57,62.08c-.83.74-3.82,2.19-5.85.9s-4.31-2.79-4.24-3.76c.14-1.77,1.52-.45,2.63-.59s4.4-1.32,4.9-1.08.15,1.32.58,1.92S163.4,61.34,162.57,62.08Z"/><path class="cls-2" d="M170,66.47a7,7,0,0,1-6.65-2.79c-.3-.56,1.07-1.39,2.06-1.7s3.25-.38,4.52-.74,3.08-1.44,3.66-.19A4.29,4.29,0,0,1,170,66.47Z"/><path class="cls-2" d="M168,55.5c.18.35.43,1.13-.15,1s-3.15-1.39-3.42-2.36.19-3,1.12-2.89c.58.09,0,1.82-.06,2.36S167.79,55.15,168,55.5Z"/><path class="cls-2" d="M172,52.12c.28.28.75.94.15,1s-3.41-.4-4-1.25-.7-3,.23-3.09c.58-.09.52,1.74.63,2.27S171.72,51.83,172,52.12Z"/><path class="cls-2" d="M170,46.12c.43-.16.69,1.24.86,1.63s2.18.17,2.44.34.72.6.27.73-2.67.25-3.22-.3S169.3,46.38,170,46.12Z"/><path class="cls-2" d="M180.53,44.35c-3.4,1.1-9.09-1-10.95,0s-1.65,4.06-4,4.28-12.92.33-13.14-3.84,7.77-8.21,7.77-8.21c6.25-1.65,8.44.54,9.86,2.3a9.53,9.53,0,0,0,4.28,2.95c1,.29,3.51,2.06,5.42.44s3.23-6.79-2.47-9.2S163.11,30,162.67,29s13.09,2.46,14.52,3,3.89,1.32,5.31,3.34C183.76,37.16,183.93,43.26,180.53,44.35Z"/><path class="cls-2" d="M171.47,37.82a1,1,0,1,1,1,1A1,1,0,0,1,171.47,37.82Z"/><path class="cls-2" d="M66.89,49.88c-3.22,4.08,0,3.91,0,3.91s2.68-2.26,2-3.91S66.89,49.88,66.89,49.88Z"/><path class="cls-2" d="M70.79,33.17C66,35.4,69,36.66,69,36.66s3.44-.84,3.57-2.62S70.79,33.17,70.79,33.17Z"/><path class="cls-2" d="M80,36.9c1.34,1.1.2,1.23.2,1.23s-1.06-.56-.89-1.12S80,36.9,80,36.9Z"/><path class="cls-2" d="M78.65,42.28c-1,1,0,1,0,1s.81-.57.6-1S78.65,42.28,78.65,42.28Z"/><path class="cls-2" d="M73.33,45.33c2.16,2,2.24.22,2.24.22S74.42,44,73.44,44.27,73.33,45.33,73.33,45.33Z"/><path class="cls-2" d="M74.81,40a.54.54,0,0,1-1.07,0,.54.54,0,0,1,1.07,0Z"/><path class="cls-2" d="M83.12,42.66c3.49,3.86,3.95.77,3.95.77s-1.76-3-3.56-2.64S83.12,42.66,83.12,42.66Z"/><path class="cls-2" d="M76.22,35.36c.82-.09.45.74.31.86s-.44-.22-.42-.43A1.37,1.37,0,0,1,76.22,35.36Z"/><path class="cls-2" d="M86.93,38.56c.82-.06.46.59.32.68s-.44-.17-.43-.34A1.13,1.13,0,0,1,86.93,38.56Z"/><path class="cls-2" d="M67.51,40.26c2.24-.15,1.25,1.42.87,1.67s-1.21-.44-1.16-.84A2.36,2.36,0,0,1,67.51,40.26Z"/><path class="cls-2" d="M69.79,44.36c.82-.08.46.74.32.86s-.44-.22-.43-.43A1.77,1.77,0,0,1,69.79,44.36Z"/><path class="cls-2" d="M84.94,34.35c.82-.08.46.74.32.87s-.44-.23-.43-.44A1.77,1.77,0,0,1,84.94,34.35Z"/><path class="cls-2" d="M96.33,39.09c-.41-5.11-2.69-2.9-2.69-2.9s-.44,3.42,1.23,4.18S96.33,39.09,96.33,39.09Z"/><path class="cls-2" d="M100.9,54.26c2-4.75-1.05-3.77-1.05-3.77s-2,2.85-.85,4.26S100.9,54.26,100.9,54.26Z"/><path class="cls-2" d="M91.48,57.44c-1.75.05-1-.78-1-.78s1.18-.26,1.43.26S91.48,57.44,91.48,57.44Z"/><path class="cls-2" d="M88.78,52.57c0-1.4-.67-.73-.67-.73s-.22.95.23,1.12S88.78,52.57,88.78,52.57Z"/><path class="cls-2" d="M90.64,46.85c-3-.06-1.82,1.29-1.82,1.29s1.94.43,2.47-.43S90.64,46.85,90.64,46.85Z"/><path class="cls-2" d="M93.19,51.76a.51.51,0,0,1,0-.74.56.56,0,0,1,.76,0,.51.51,0,0,1,0,.74A.56.56,0,0,1,93.19,51.76Z"/><path class="cls-2" d="M85.38,54c-5.25-.61-3.46,2-3.46,2s3.36,1.09,4.46-.34S85.38,54,85.38,54Z"/><path class="cls-2" d="M97.06,60.67c-.55.59-.84-.26-.83-.44s.49-.12.62.05A1.5,1.5,0,0,1,97.06,60.67Z"/><path class="cls-2" d="M87.85,58.38c-.57.58-.74-.14-.71-.3s.45-.16.56,0A1,1,0,0,1,87.85,58.38Z"/><path class="cls-2" d="M98.46,46.86c-1.56,1.57-1.9-.25-1.79-.68s1.2-.46,1.44-.13A2.59,2.59,0,0,1,98.46,46.86Z"/><path class="cls-2" d="M93.94,45.28c-.55.6-.85-.25-.83-.43s.48-.12.62,0A1.52,1.52,0,0,1,93.94,45.28Z"/><path class="cls-2" d="M89.55,62.55c-.55.59-.84-.26-.83-.44s.49-.12.62,0A1.69,1.69,0,0,1,89.55,62.55Z"/><path class="cls-2" d="M80.87,49.78c-1.56,1.57-1.91-.25-1.79-.68s1.2-.46,1.44-.13A2.59,2.59,0,0,1,80.87,49.78Z"/><path class="cls-2" d="M75.22,51.07c-.87.37,1.42,2.26,1.83,2.49s-.18-.9-.71-1.44S75.22,51.07,75.22,51.07Z"/><path class="cls-2" d="M100.34,33.29c-1.18.46-.93-.6-.78-.81s.74.05.79.29A1.47,1.47,0,0,1,100.34,33.29Z"/><path class="cls-2" d="M74.2,59.82c-.07-1.7.79-1,.79-1s.29,1.14-.25,1.39S74.2,59.82,74.2,59.82Z"/><path class="cls-2" d="M76.88,63c-.61-.53.26-.82.45-.81s.12.47,0,.6A1.66,1.66,0,0,1,76.88,63Z"/><path class="cls-2" d="M74.53,55.69c-.6-.55.14-.72.31-.69s.16.44,0,.54A1.17,1.17,0,0,1,74.53,55.69Z"/><path class="cls-2" d="M67,59.91c-.61-.54.26-.83.45-.81s.13.47,0,.6A1.66,1.66,0,0,1,67,59.91Z"/><path class="cls-2" d="M82.53,61.52c-1.56,1.57-1.91-.25-1.79-.67s1.2-.47,1.44-.13A2.58,2.58,0,0,1,82.53,61.52Z"/></g></g></svg>