<svg xmlns="http://www.w3.org/2000/svg" viewBox="0 0 250 146"><defs><style>.cls-1{fill:#c1bd31;opacity:0.8;}.cls-2{fill:#fff;}</style></defs><title>height_detail</title><g id="圖層_2" data-name="圖層 2"><g id="height_detail"><path class="cls-1" d="M215,0H35A35.1,35.1,0,0,0,0,35V88a35.1,35.1,0,0,0,35,35h72.39A95,95,0,0,0,125,146a95,95,0,0,0,17.61-23H215a35.1,35.1,0,0,0,35-35V35A35.1,35.1,0,0,0,215,0Z"/><path class="cls-2" d="M121.34,99.28A1.73,1.73,0,0,1,122.8,101a2,2,0,0,1-2.28,2,3,3,0,0,1-1.6-.44l.23-.57a2.69,2.69,0,0,0,1.38.4A1.37,1.37,0,0,0,122,101c0-1-.84-1.44-1.72-1.44h-.44V99h.44a1.38,1.38,0,0,0,1.49-1.25,1,1,0,0,0-1.17-1.09,2.2,2.2,0,0,0-1.23.44l-.22-.55a2.81,2.81,0,0,1,1.6-.5,1.59,1.59,0,0,1,1.78,1.59,1.69,1.69,0,0,1-1.22,1.59Z"/><path class="cls-2" d="M124.85,99.58c0-2.36.91-3.5,2.17-3.5s2.07,1.2,2.07,3.41-.82,3.55-2.16,3.55S124.85,101.83,124.85,99.58Zm3.48-.06c0-1.68-.41-2.84-1.35-2.84s-1.37,1.07-1.37,2.84.5,2.9,1.34,2.9C128,102.42,128.33,101.13,128.33,99.52Z"/><line class="cls-2" x1="84.5" y1="85" x2="84.5" y2="97"/><path class="cls-2" d="M83.75,85V97a.75.75,0,0,0,1.5,0V85a.75.75,0,0,0-1.5,0Z"/><line class="cls-2" x1="167.5" y1="85" x2="167.5" y2="97"/><path class="cls-2" d="M166.75,85V97a.75.75,0,0,0,1.5,0V85a.75.75,0,0,0-1.5,0Z"/><line class="cls-2" x1="53" y1="91" x2="199" y2="91"/><path class="cls-2" d="M53,91.75H199a.75.75,0,0,0,0-1.5H53a.75.75,0,0,0,0,1.5Z"/><path class="cls-2" d="M217.46,93.15a3.86,3.86,0,0,1-1.63.34A2.79,2.79,0,0,1,213,90.43a3,3,0,0,1,3.07-3.2,3.31,3.31,0,0,1,1.44.32l-.23.73A2.46,2.46,0,0,0,216,88a2.15,2.15,0,0,0-2.11,2.39A2.12,2.12,0,0,0,216,92.74a2.92,2.92,0,0,0,1.3-.3Z"/><path class="cls-2" d="M228.14,93.37h-.9V89.9c0-1.16-.42-1.91-1.32-1.91a1.52,1.52,0,0,0-1.41,1.6v3.78h-.9v-3.7c0-1-.41-1.68-1.26-1.68a1.63,1.63,0,0,0-1.47,1.7v3.68H220V88.91c0-.61,0-1,0-1.55h.81l0,1h0a2,2,0,0,1,1.82-1.1,1.71,1.71,0,0,1,1.64,1.2h0a2.1,2.1,0,0,1,1.93-1.2c.74,0,1.9.47,1.9,2.53Z"/><circle class="cls-2" cx="31" cy="91" r="2"/><path class="cls-2" d="M164,49.75c-.53-1.32-5.21-6.71-7-6.78s-3.44-3.28-5-5.67a64.66,64.66,0,0,0-6.35-6.94c-2.12-2.12-1.77-3.18-9.54-6.36s-16.6.59-20,2.59-7,2.83-9.07,3.89-3.31,3.28-4.35,4.94a8.06,8.06,0,0,1-5.77,4.24c-3.77.59-6.24,5.41-7,7.49S88.81,52,86.45,54.73s-2,3.53-1.18,6.59,1.65,1.3,2.24,2.35.82.71,7.53,3.42,13.9,1.65,17,1.76,6.82,1,10.53,1,9.36,1.06,14.54,1.64S146,69,148.26,67s.23-2.24.23-2.24a58.35,58.35,0,0,0,10-2.7c4.94-1.89,5.53-5,5.53-6.6C165.88,54.76,164.56,51.08,164,49.75Z"/></g></g></svg>