<svg xmlns="http://www.w3.org/2000/svg" viewBox="0 0 372.42 99.5"><defs><style>.cls-1{fill:#b4b039;}.cls-2{fill:#eee9cc;}</style></defs><title>detail_02</title><g id="圖層_2" data-name="圖層 2"><g id="detail_02"><path class="cls-1" d="M3.65.53H8c.74,0,1.11.34,1.11,1V2.71A1,1,0,0,1,8,3.81H8v1H9c.21,0,.32.15.32.44s-.11.57-.32.57H8v.94H9.59q.33,0,.33.45t-.33.54H2.71c-.19,0-.29-.18-.29-.54s.1-.45.29-.45H4.06V5.78H3.2q-.33,0-.33-.57c0-.29.11-.44.33-.44h.86v-1H2.58v1a7.25,7.25,0,0,1-.35,2.27,6,6,0,0,1-.75,1.62c-.18.27-.36.41-.54.41-.5,0-.76-.26-.78-.7A.76.76,0,0,1,.29,8a4.9,4.9,0,0,0,.84-1.78,5.8,5.8,0,0,0,.18-1.41V1.64C1.31.9,1.71.53,2.5.53Zm.73,7.59a.47.47,0,0,1,.54.53.52.52,0,0,1-.25.41,10.81,10.81,0,0,1-2.42,1,1,1,0,0,1-.24.06c-.35,0-.53-.24-.53-.72,0-.17.11-.3.32-.38A12.63,12.63,0,0,0,4.06,8.2,1,1,0,0,1,4.38,8.12ZM7.25,8a.53.53,0,0,1,.33.17,7,7,0,0,0,1.23.69c.27.12.41.28.41.49a.51.51,0,0,1-.29.54h6.44c.9,0,1.35.39,1.35,1.16v5.64q0,1.56-2.13,1.56a10.82,10.82,0,0,1-2.42-.33.64.64,0,0,1-.45-.6c0-.52.17-.79.53-.79a2.59,2.59,0,0,1,.52.06,7.87,7.87,0,0,0,1.66.26.7.7,0,0,0,.78-.8v-.55H3.81v2.19q0,.72-.78.72t-.69-.72V11c0-.77.47-1.16,1.39-1.16H8.36a3.91,3.91,0,0,1-.65-.35A4.74,4.74,0,0,1,6.93,9a.88.88,0,0,1-.21-.48C6.72,8.13,6.89,8,7.25,8ZM2.58,2.64h5c.19,0,.29-.13.29-.37V2a.26.26,0,0,0-.29-.29H3.11c-.36,0-.53.18-.53.55Zm1.23,9.45h11.4v-.37c0-.43-.18-.65-.54-.65H4.3c-.33,0-.49.22-.49.65Zm0,2.21h11.4v-1H3.81ZM6.72,4.77v-1H5.29v1Zm0,2V5.78H5.29v.94Zm5-6.43h3a.91.91,0,0,1,1,1V2.64a.5.5,0,0,0,.08.27,1,1,0,0,0,.37,0,1.36,1.36,0,0,0,.63-.1A.3.3,0,0,0,17,2.56l0-.7q0-.45.57-.45a.65.65,0,0,1,.7.68,3.19,3.19,0,0,1-.21,1.33A1.27,1.27,0,0,1,17.5,4a2.44,2.44,0,0,1-1,.19h-.87a1.1,1.1,0,0,1-1.23-1.27V1.56c0-.05-.17-.08-.49-.08H12.5c-.27,0-.41,0-.41.08v.71a1.76,1.76,0,0,1-.32,1.07,3.36,3.36,0,0,1-1,.84,1.72,1.72,0,0,1-.62.18c-.46,0-.7-.24-.73-.63a.74.74,0,0,1,.24-.53,2.89,2.89,0,0,0,.86-.52A.87.87,0,0,0,10.76,2v-.7C10.76.63,11.08.29,11.7.29Zm-.84,4.07h5.53c.63,0,.95.3.95.92a1.46,1.46,0,0,1-.5.85A8.38,8.38,0,0,1,15,7.62a6,6,0,0,0,.72.31,10.7,10.7,0,0,0,1.66.51,1.58,1.58,0,0,1,.8.27.5.5,0,0,1,.16.41.57.57,0,0,1-.65.63,6,6,0,0,1-1.26-.32,13.47,13.47,0,0,1-2-.78l-.66-.35a14.92,14.92,0,0,1-3,1.07,3.19,3.19,0,0,1-.64.12c-.43,0-.65-.23-.65-.7,0-.25.16-.45.49-.61,1-.23,1.87-.47,2.56-.7a4.2,4.2,0,0,1-.7-.7,5,5,0,0,1-.67-1.1h-.33c-.43,0-.65-.23-.65-.69A.57.57,0,0,1,10.86,4.36ZM12.4,5.68a2.47,2.47,0,0,0,.41.51,3.82,3.82,0,0,0,1,.78,8.86,8.86,0,0,0,1.76-1c.14-.11.21-.19.21-.26Z"/><path class="cls-1" d="M23.28,1.41h2.09q1.11,0,1.11.93c0,.07-.34.88-1,2.43h.7q1.35,0,1.35,1.17v5.92q0,1.26-1.35,1.26h-3.9A1.1,1.1,0,0,1,21,11.86V5.94a1.54,1.54,0,0,1,.07-.53.59.59,0,0,1-.23,0c-.43,0-.65-.18-.65-.53a.92.92,0,0,1,.16-.49A20.11,20.11,0,0,0,22.25.53a.52.52,0,0,1,.46-.32c.49,0,.73.22.73.65A1.14,1.14,0,0,1,23.28,1.41Zm-1.56,12.4c.42,0,.62.23.62.7a6.94,6.94,0,0,1-.7,3.07.71.71,0,0,1-.78.62.5.5,0,0,1-.57-.56.78.78,0,0,1,.16-.47,6.22,6.22,0,0,0,.7-2.81A.51.51,0,0,1,21.72,13.81Zm.53-9h1.83c.61-1.28.92-1.94.92-2s-.14-.21-.41-.21H22.71A17.89,17.89,0,0,1,21.56,4.9,1.67,1.67,0,0,1,22.25,4.77Zm.09,3.51h1.23V5.94h-1c-.16,0-.24.1-.24.29Zm1.23,3.65V9.43H22.34v2.13c0,.25.08.37.24.37Zm-.37,1.88a.54.54,0,0,1,.53.33c.12.56.23,1.47.35,2.72a4.63,4.63,0,0,1,.06.56c0,.35-.21.53-.62.53a.51.51,0,0,1-.57-.53c-.08-1.13-.17-2.09-.27-2.89l0-.23C22.66,14,22.84,13.81,23.2,13.81Zm1.88-.08q.23,0,.45.33a14,14,0,0,1,.62,2.5,1.07,1.07,0,0,1,.08.37c0,.38-.23.57-.7.57-.21,0-.36-.14-.45-.41a19.17,19.17,0,0,0-.57-2.5,1,1,0,0,1-.08-.29C24.43,13.92,24.65,13.73,25.08,13.73Zm-.24-7.79V8.28h1.33v-2a.26.26,0,0,0-.29-.29Zm1,6c.19,0,.29-.12.29-.37V9.43H24.84v2.5Zm1,1.64c.15,0,.31.11.46.34a12.36,12.36,0,0,1,.77,2.16,1.09,1.09,0,0,1,.09.41c0,.36-.23.53-.7.53a.52.52,0,0,1-.49-.37,11.14,11.14,0,0,0-.7-2.21.75.75,0,0,1-.08-.29C26.23,13.76,26.45,13.57,26.88,13.57Zm8-11.85c.36,0,.53.18.53.55a.61.61,0,0,1,0,.15c.37-.39.74-.81,1.13-1.27a.57.57,0,0,1,.45-.21.72.72,0,0,1,.45.15.65.65,0,0,1,.2.47.67.67,0,0,1-.16.45c-.69.81-1.29,1.47-1.81,2H37.5a.47.47,0,0,1,.53.53c0,.42-.18.63-.53.63H34.3a14.64,14.64,0,0,1-1.9,1.32c-.53.3-1.07.6-1.62.88V7.6c.68-.09,1.36-.2,2-.33A15.24,15.24,0,0,0,36,6.15c.41,0,.62.24.62.71a.66.66,0,0,1-.41.56,18.33,18.33,0,0,1-2.5.82,24.49,24.49,0,0,1-2.95.39v.73c0,.32.2.48.61.48H33.2a8.89,8.89,0,0,0,2.89-.19c.2-.09.33-.48.39-1.15,0-.32.22-.47.61-.47a.58.58,0,0,1,.62.62,4.06,4.06,0,0,1-.46,1.88,1.32,1.32,0,0,1-.73.39C36,11,34.91,11,33.28,11s-2.45,0-2.75-.06a1.19,1.19,0,0,1-1-1.27V7.93c-.27.13-.53.25-.78.35a.8.8,0,0,1-.45.16.5.5,0,0,1-.41-.22.91.91,0,0,1-.16-.51c0-.16.13-.31.4-.44a27.18,27.18,0,0,0,3.51-1.78l.55-.35h-4q-.54,0-.54-.63A.47.47,0,0,1,28.2,4h3.34V2.79H29.12c-.38,0-.57-.17-.57-.52s.19-.55.57-.55h2.42V.86c0-.43.21-.65.62-.65s.71.22.71.65v.86Zm-4.76,10h6.15c.85,0,1.27.38,1.27,1.15V16.8A1.1,1.1,0,0,1,36.23,18H30.08a1.1,1.1,0,0,1-1.27-1.23V12.87C28.81,12.1,29.23,11.72,30.08,11.72Zm0,2.58h6.15v-.94c0-.33-.15-.49-.45-.49H30.53c-.3,0-.45.16-.45.49Zm5.7,2.56c.3,0,.45-.19.45-.55v-.86H30.08v.86c0,.36.15.55.45.55ZM33.71,4l.41-.35c.27-.24.57-.53.9-.86a.69.69,0,0,1-.18,0h-2V4Z"/><path class="cls-1" d="M48.2,1.72c.41,0,.61.21.61.63s-.2.7-.61.7H45.86V5.62h2.5a.61.61,0,0,1,.7.69.62.62,0,0,1-.7.7h-2.5v3.28H48.2a.62.62,0,0,1,.69.71q0,.72-.69.72H45.86v3.75a10.85,10.85,0,0,0,1.91.49q1.93.45,10.26.45a.68.68,0,0,1,.7.76A.75.75,0,0,1,58,18q-8.58,0-11.07-.61a12.8,12.8,0,0,1-3.34-1.21,5.27,5.27,0,0,1-1.35-1,12.81,12.81,0,0,1-1,2.85.77.77,0,0,1-.62.33.69.69,0,0,1-.78-.78,1.59,1.59,0,0,1,.17-.49,13.3,13.3,0,0,0,1.23-4.1,29.36,29.36,0,0,0,.24-3.85c0-.41.23-.62.7-.62a.62.62,0,0,1,.7.7,33.24,33.24,0,0,1-.25,4.24,5.6,5.6,0,0,0,1.8,1.44l.09.06V7H41.15a.62.62,0,0,1-.7-.7.61.61,0,0,1,.7-.69h3.28V3.05H41.56c-.41,0-.62-.23-.62-.7a.55.55,0,0,1,.62-.63h2.87V.7c0-.47.24-.7.73-.7a.62.62,0,0,1,.7.7v1Zm1.64,5V2.17Q49.84,1,51.07,1h5q1.23,0,1.23,1.17V7.52A1.09,1.09,0,0,1,56,8.75H51.23v4.14a.66.66,0,0,0,.53.66,10.4,10.4,0,0,0,2.62.2,4.91,4.91,0,0,0,2-.23.79.79,0,0,0,.41-.69V11.25c0-.5.24-.75.7-.78s.68.34.7,1a6,6,0,0,1-.31,2.65,1.32,1.32,0,0,1-.88.74,7.8,7.8,0,0,1-2.63.28,9.42,9.42,0,0,1-3.74-.47,1.51,1.51,0,0,1-.8-1.49Zm1.39.69h4.14c.33,0,.49-.19.49-.57V2.78c0-.31-.16-.46-.49-.46H51.8c-.38,0-.57.18-.57.53Z"/><path class="cls-1" d="M61.88,14a1.06,1.06,0,0,1,.54.16.45.45,0,0,1,.24.37,1.34,1.34,0,0,1-.08.41A23.11,23.11,0,0,1,61.48,18a.59.59,0,0,1-.46.33q-.81,0-.81-.57a.42.42,0,0,1,.08-.29,27.92,27.92,0,0,0,1-3.2A.56.56,0,0,1,61.88,14ZM61.78.7h7c.79,0,1.19.37,1.19,1.1V6.41c0,.73-.4,1.09-1.19,1.09H66V9.06h3a.54.54,0,0,1,.61.61.54.54,0,0,1-.61.62H66v1.57c1-.11,2-.23,3-.38a.54.54,0,0,1,.61.61.62.62,0,0,1-.45.62q-1.23.24-3,.45c-.86.09-1.82.17-2.87.24l-2.13.1a.69.69,0,0,1-.78-.79q0-.48.57-.54c1.53-.05,2.78-.12,3.73-.2V10.29H61.5a.55.55,0,0,1-.62-.62.54.54,0,0,1,.62-.61h3.19V7.5h-2.9a1,1,0,0,1-1.11-1.09V1.8A1,1,0,0,1,61.78.7Zm2.91,5.53V1.93H62.5c-.32,0-.49.19-.49.57V5.7c0,.35.17.53.49.53ZM62.87,2.5a.57.57,0,0,1,.41.21,13.12,13.12,0,0,1,.86,2.13,1.07,1.07,0,0,1,.08.37c0,.33-.22.49-.65.49-.19,0-.35-.13-.46-.41a12.43,12.43,0,0,0-.69-2A1,1,0,0,1,62.34,3C62.34,2.65,62.52,2.5,62.87,2.5Zm1,11.56a.69.69,0,0,1,.7.53,13.64,13.64,0,0,1,.33,3.05.63.63,0,0,1-.7.72.58.58,0,0,1-.65-.65,14.57,14.57,0,0,0-.13-2.53,4.34,4.34,0,0,1-.08-.67C63.36,14.21,63.54,14.06,63.89,14.06Zm2.42-.15a.64.64,0,0,1,.49.31,14.56,14.56,0,0,1,.91,2.64,1.38,1.38,0,0,1,.08.48c0,.36-.26.53-.78.53q-.29,0-.45-.45a18.91,18.91,0,0,0-.78-2.65,1.22,1.22,0,0,1-.08-.34C65.7,14.08,65.91,13.91,66.31,13.91ZM68,6.23c.37,0,.55-.18.55-.53V2.5c0-.38-.18-.57-.55-.57H66v4.3Zm-.46-3.65c.42,0,.62.15.62.45a1.44,1.44,0,0,1-.09.47,8.92,8.92,0,0,1-.61,1.87.6.6,0,0,1-.57.33.49.49,0,0,1-.54-.56.64.64,0,0,1,.09-.3A9,9,0,0,0,67,3,.51.51,0,0,1,67.58,2.58Zm.94,11.07c.13,0,.25.09.37.26A10.68,10.68,0,0,1,70,16.07a1.29,1.29,0,0,1,.08.41c0,.36-.24.53-.7.53a.53.53,0,0,1-.49-.37A10.29,10.29,0,0,0,68,14.43a.75.75,0,0,1-.08-.29C68,13.82,68.14,13.65,68.52,13.65ZM73.59.21c.47,0,.71.22.71.65V3.44h3.49c.43,0,.65.21.65.62s-.22.71-.65.71H74.3V8.91h2.09q1.32,0,1.32,1.23v6.58q0,1.23-1.32,1.23H71.66a1.1,1.1,0,0,1-1.27-1.23V10.14a1.1,1.1,0,0,1,1.27-1.23H73v-8C73,.43,73.17.21,73.59.21Zm2.19,16.51c.4,0,.61-.22.61-.65V10.78c0-.43-.21-.64-.61-.64H72.25c-.36,0-.53.21-.53.64v5.29c0,.43.17.65.53.65Z"/><path class="cls-1" d="M96.56,11.41a.6.6,0,0,1,.69.68.61.61,0,0,1-.69.7H90v3.62h7.66a.61.61,0,0,1,.7.68.62.62,0,0,1-.7.7H81.07a.62.62,0,0,1-.7-.7.61.61,0,0,1,.7-.68h7.45V12.79H82.09a.62.62,0,0,1-.7-.7c0-.46.23-.68.7-.68h6.43V9.36a.62.62,0,0,1,.7-.71c.52,0,.78.24.78.71v2.05ZM97.5.86a.62.62,0,0,1,.7.7.62.62,0,0,1-.7.71H88.26L85.21,6.7l8.48-.51c-.61-.64-1.27-1.29-2-2a.85.85,0,0,1-.24-.57.61.61,0,0,1,.69-.7,1.1,1.1,0,0,1,.49.17c.78.76,1.49,1.49,2.14,2.19a22,22,0,0,1,2.78,3.5.82.82,0,0,1,.21.41c0,.47-.2.7-.62.7a1,1,0,0,1-.69-.25c-.62-.82-1.17-1.53-1.64-2.11a1.11,1.11,0,0,1-.41.08l-13.28.8c-.47,0-.7-.27-.7-.8a.62.62,0,0,1,.7-.71l2.37-.13,3.1-4.53H81.31a.62.62,0,0,1-.7-.71.62.62,0,0,1,.7-.7Z"/><path class="cls-1" d="M102.66,5.45V8.57a34.22,34.22,0,0,1-.39,5.69,20.65,20.65,0,0,1-.69,3.45.66.66,0,0,1-.62.41c-.46,0-.7-.23-.73-.62a4.34,4.34,0,0,1,.2-.84l.27-1.13c.13-.67.25-1.35.35-2a39.87,39.87,0,0,0,.28-4.91V2.17c0-.87.47-1.31,1.4-1.31h13.76c.72,0,1.09.31,1.09.94V4.43c0,.68-.37,1-1.1,1ZM111.16,2h-7.8c-.47,0-.7.26-.7.78V4.3h13.22c.25,0,.37-.17.37-.49V2.42c0-.27-.12-.41-.37-.41Zm5.32,3.85c.41,0,.61.26.61.78,0,.33-.26.53-.78.63q-2.2.29-6,.5l-.19,0V9.55l6.8-.33a.55.55,0,0,1,.62.62c0,.46-.21.69-.62.69l-6.8.35v1.76l7.5-.37c.42,0,.62.2.62.6s-.2.7-.62.7l-7.5.41v1.47c0,.56.17.9.53,1a10.48,10.48,0,0,0,2.75.24c1.39,0,2.39,0,3-.1a1.07,1.07,0,0,0,.7-.27q.27-.2.27-1.35a.64.64,0,0,1,.69-.7c.44,0,.67.29.7.84a5.52,5.52,0,0,1-.16,1.34,1.59,1.59,0,0,1-1,1.29,11.37,11.37,0,0,1-3.77.35,12.73,12.73,0,0,1-4.12-.41,2.06,2.06,0,0,1-1-2V14.06l-4.59.24c-.41,0-.62-.24-.62-.73a.55.55,0,0,1,.62-.62l4.59-.24V10.94l-4.27.21c-.43,0-.65-.23-.65-.7s.22-.61.65-.61l4.27-.23V7.87c-2,.11-3.36.16-4.22.16q-.78,0-.78-.69c0-.41.22-.62.65-.62q3.18,0,5.9-.22C112.43,6.37,114.53,6.16,116.48,5.86Z"/><path class="cls-1" d="M125.61,4.06a.63.63,0,0,1,.7.71.61.61,0,0,1-.7.68h-1.18v.7l2.17,4a1.45,1.45,0,0,1,.2.66c0,.47-.24.7-.73.7-.2,0-.37-.15-.48-.44L124.43,8.3v9.41c0,.49-.23.73-.7.73s-.7-.24-.7-.73V9.22a24,24,0,0,1-.67,2.34,13.75,13.75,0,0,1-.72,2c-.17.33-.38.49-.62.49-.49,0-.73-.23-.73-.7a1.18,1.18,0,0,1,.16-.57,31.11,31.11,0,0,0,1.6-4.43,21.15,21.15,0,0,0,.66-2.91h-1.48a.61.61,0,0,1-.7-.68.62.62,0,0,1,.7-.71H123V.78a.7.7,0,0,1,1.4,0V4.06ZM137.79.78a.57.57,0,0,1,.65.64c0,.46-.22.69-.65.69h-5V4.06h3.6c.88,0,1.32.42,1.32,1.25V16.25c0,1.37-.75,2.05-2.26,2.05a8.43,8.43,0,0,1-2.58-.49.62.62,0,0,1-.45-.62c0-.51.18-.76.53-.76a2.35,2.35,0,0,1,.59.09,6.17,6.17,0,0,0,1.75.35q1,0,1-.78V6c0-.42-.18-.63-.53-.63H133a24.74,24.74,0,0,0,3,7.05.77.77,0,0,1,.13.45c0,.22,0,.36-.11.41a.59.59,0,0,1-.51.22.87.87,0,0,1-.61-.3,26.14,26.14,0,0,1-2.3-5.06,10.54,10.54,0,0,1-.59,2.05,9.14,9.14,0,0,1-1.82,2.93.69.69,0,0,1-.54.38c-.5,0-.76-.27-.78-.71a.61.61,0,0,1,.17-.37,9.51,9.51,0,0,0,2.42-6.35v-.7h-2.42q-.54,0-.54.63V17.6c0,.47-.25.7-.73.7a.62.62,0,0,1-.7-.7V5.31c0-.83.47-1.25,1.42-1.25h3V2.11h-4.39c-.4,0-.61-.23-.61-.69s.21-.64.61-.64Z"/><path class="cls-1" d="M155.78,8.36c.47,0,.7.29.7.86,0,.38-.32.61-.95.7-1.37.22-3.16.42-5.37.59v2.36h6.93a.62.62,0,0,1,.7.7c0,.49-.23.73-.7.73h-6.93v2.18H158a.61.61,0,0,1,.7.69c0,.52-.23.78-.7.78H140.7c-.47,0-.7-.26-.7-.78a.61.61,0,0,1,.7-.69h8V14.3H141.8a.65.65,0,0,1-.73-.73.64.64,0,0,1,.73-.7h6.85V10.62c-2.6.21-4.42.32-5.45.32-.57,0-.86-.27-.86-.8a.62.62,0,0,1,.69-.71q3.33,0,6.17-.23A61,61,0,0,0,155.78,8.36ZM143.52.86h11.77c1,0,1.43.44,1.43,1.31V5.86c0,.87-.48,1.31-1.43,1.31H143.52a1.18,1.18,0,0,1-1.35-1.31V2.17A1.18,1.18,0,0,1,143.52.86Zm11.15,4.92q.54,0,.54-.57V2.79c0-.35-.18-.52-.54-.52H144.14c-.32,0-.49.17-.49.52V5.21c0,.38.17.57.49.57Z"/><path class="cls-1" d="M165.86.78a.62.62,0,0,1,.7.7.61.61,0,0,1-.7.69h-1.72V7.09h1.56a.61.61,0,0,1,.69.7.62.62,0,0,1-.69.71h-1.56V14c.59-.32,1.28-.73,2.09-1.24l.33-.07c.46,0,.69.26.69.8a.9.9,0,0,1-.37.58,14.77,14.77,0,0,1-2.35,1.41,24.26,24.26,0,0,1-3.46,1.41,1.34,1.34,0,0,1-.46.09q-.69,0-.69-.78a.76.76,0,0,1,.53-.78,19.15,19.15,0,0,0,2.26-.8V8.5h-1.64a.63.63,0,0,1-.7-.71.62.62,0,0,1,.7-.7h1.64V2.17h-1.77c-.48,0-.73-.23-.73-.69a.64.64,0,0,1,.73-.7ZM173,11.41h-2a10,10,0,0,1-.2,1.48,8.39,8.39,0,0,1-.61,2.07,5.87,5.87,0,0,1-1.4,1.9,8.37,8.37,0,0,1-2.11,1.32.72.72,0,0,1-.31.1c-.58,0-.86-.26-.86-.78a.67.67,0,0,1,.41-.64,7.94,7.94,0,0,0,1.93-1.22A5,5,0,0,0,169,14.1a8.54,8.54,0,0,0,.57-2.69h-1a1.12,1.12,0,0,1-1.27-1.27V1.8c0-.78.42-1.18,1.27-1.18H176c.82,0,1.23.4,1.23,1.18v8.34A1.11,1.11,0,0,1,176,11.41h-1.59V15.7a1,1,0,0,0,.24.73,2.47,2.47,0,0,0,1.27.21c.47,0,.75-.06.84-.19a1.05,1.05,0,0,0,.15-.57V14.59c0-.5.27-.76.73-.78s.67.34.7,1a7.33,7.33,0,0,1-.2,2.36,1,1,0,0,1-.54.66,3.93,3.93,0,0,1-1.68.24,4.06,4.06,0,0,1-2.39-.47,2.06,2.06,0,0,1-.52-1.62Zm-4.38-7.68h7.21V2.51a.5.5,0,0,0-.57-.56h-6.07a.5.5,0,0,0-.57.56Zm0,3.13h7.21V5h-7.21Zm6.64,3.22c.38,0,.57-.22.57-.65V8.12h-7.21V9.43c0,.43.19.65.57.65Z"/><path class="cls-1" d="M197.25,6.31a.62.62,0,0,1,.7.7c0,.52-.24.78-.7.78h-7v4H198a.62.62,0,0,1,.7.7c0,.52-.23.78-.7.78h-7.66v4.36q0,.72-.78.72a.63.63,0,0,1-.7-.72V13.28h-7.95c-.47,0-.7-.26-.7-.78a.62.62,0,0,1,.7-.7h7.95v-4h-7.25c-.47,0-.7-.26-.7-.78a.62.62,0,0,1,.7-.7h7.25V.94c0-.48.23-.73.7-.73s.78.25.78.73V6.31ZM182.79.94a1.19,1.19,0,0,1,.49.13c.48.42.92.82,1.31,1.22a12,12,0,0,1,1.72,1.93.79.79,0,0,1,.25.45.62.62,0,0,1-.7.7,1,1,0,0,1-.65-.23,23,23,0,0,0-1.62-1.82c-.37-.38-.79-.76-1.25-1.15a.79.79,0,0,1-.25-.53A.62.62,0,0,1,182.79.94ZM196,.7a.63.63,0,0,1,.7.71,1.55,1.55,0,0,1-.33.86,17.89,17.89,0,0,1-3,3,.89.89,0,0,1-.49.16c-.47,0-.7-.2-.7-.61a.8.8,0,0,1,.17-.48,17.16,17.16,0,0,0,3.11-3.29A.65.65,0,0,1,196,.7Z"/><path class="cls-1" d="M201.56,9.22h2.09c.73,0,1.1.33,1.1,1V14.3a1.73,1.73,0,0,0,1,1.48,6.19,6.19,0,0,0,3.19.7h9c.47,0,.7.27.7.79a.61.61,0,0,1-.7.68h-8.44a11.22,11.22,0,0,1-2.81-.33,5.84,5.84,0,0,1-2.15-1l-.25-.14a.52.52,0,0,0-.31.16,7.64,7.64,0,0,1-2,1.27,2.37,2.37,0,0,1-.84.29c-.51,0-.78-.26-.81-.7a.69.69,0,0,1,.57-.7,8.88,8.88,0,0,0,1.88-.88,1.89,1.89,0,0,0,.62-1.62V10.94a.29.29,0,0,0-.33-.32h-1.39a.62.62,0,0,1-.7-.7A.62.62,0,0,1,201.56,9.22Zm-.17-4.79a1.2,1.2,0,0,1,.49.16l1.11.66a11.61,11.61,0,0,1,1.44,1.06.78.78,0,0,1,.24.41c0,.47-.2.7-.61.7a1,1,0,0,1-.7-.25c-.55-.38-1-.69-1.39-.92s-.64-.36-1-.55a.88.88,0,0,1-.24-.56A.62.62,0,0,1,201.39,4.43Zm.62-4a1.1,1.1,0,0,1,.49.17c.39.23.75.44,1.07.65A9.35,9.35,0,0,1,205,2.34a.79.79,0,0,1,.21.37c0,.49-.2.73-.62.73a1.1,1.1,0,0,1-.7-.24c-.52-.39-1-.69-1.31-.91a9.74,9.74,0,0,0-1-.57.82.82,0,0,1-.25-.57A.62.62,0,0,1,202,.45ZM216.56.29c.41,0,.61.24.61.71s-.26.55-.78.64c-.95.11-2.18.2-3.68.29V3.5h5.08a.57.57,0,0,1,.65.64.57.57,0,0,1-.65.63h-4.74a14.13,14.13,0,0,0,1.89,1A25.13,25.13,0,0,0,218,6.93a.75.75,0,0,1,.49.71.86.86,0,0,1-.18.52.62.62,0,0,1-.55.28,1.39,1.39,0,0,1-.54-.12c-.84-.39-1.64-.8-2.41-1.23a18.47,18.47,0,0,1-2.13-1.39V7.34c0,.41-.23.61-.7.61a.54.54,0,0,1-.62-.61V5.8a15.54,15.54,0,0,1-1.57,1.09,18.76,18.76,0,0,1-2.69,1.35,3.67,3.67,0,0,1-1.35.41c-.47,0-.7-.21-.7-.62a.83.83,0,0,1,.37-.69,31.81,31.81,0,0,0,4.35-1.81,9.36,9.36,0,0,0,1.29-.76h-4.61a.55.55,0,0,1-.62-.63.56.56,0,0,1,.62-.64h4.91V2c-1.94.11-3.29.16-4,.16a.62.62,0,0,1-.7-.69c0-.36.2-.54.61-.54,1.62,0,3.13-.07,4.51-.16A44.68,44.68,0,0,0,216.56.29ZM209,9.59h-1a.54.54,0,0,1-.61-.61.54.54,0,0,1,.61-.62H214a1,1,0,0,1,1.1,1.07l-.16.86c0,.11.08.16.24.16h1q1.35,0,1.35,1.41a11.54,11.54,0,0,1-.18,2.38,1.3,1.3,0,0,1-.56.92,2.82,2.82,0,0,1-1.55.37,22,22,0,0,1-3.65-.45.78.78,0,0,1-.41-.65.72.72,0,0,1,.73-.78,20.66,20.66,0,0,0,3.33.49.78.78,0,0,0,.53-.16.72.72,0,0,0,.26-.48,9.21,9.21,0,0,0,.07-1.33.4.4,0,0,0-.46-.45H214.3a.69.69,0,0,1-.78-.78l.13-1c0-.22-.12-.33-.37-.33h-3a1.26,1.26,0,0,1-.08.41,9.28,9.28,0,0,1-.74,2.13,9.35,9.35,0,0,1-1,1.8,6.49,6.49,0,0,1-1.19,1.21.81.81,0,0,1-.45.15.69.69,0,0,1-.51-.21.89.89,0,0,1-.22-.57.57.57,0,0,1,.24-.45A7.59,7.59,0,0,0,207.4,13a13.77,13.77,0,0,0,1-1.58A9.15,9.15,0,0,0,209,9.59Z"/><path class="cls-1" d="M222,1.41h3.6c.88,0,1.32.41,1.32,1.22V13.56a1.18,1.18,0,0,1-1.32,1.34H222a1.17,1.17,0,0,1-1.31-1.34V2.63C220.7,1.82,221.14,1.41,222,1.41Zm.08,5.76h3.44V3.22c0-.32-.15-.49-.45-.49h-2.5a.43.43,0,0,0-.49.49Zm3,6.4q.45,0,.45-.54V8.5h-3.44V13c0,.36.16.54.49.54Zm4.9-1.71c-.08.56-.17,1.09-.27,1.6a22.69,22.69,0,0,1-1.14,4.18.83.83,0,0,1-.91.64c-.52,0-.78-.23-.78-.7a2.86,2.86,0,0,1,.13-.43A22.5,22.5,0,0,0,228.2,13a24.2,24.2,0,0,0,.53-5.24V1.86A1.11,1.11,0,0,1,230,.62h6.64a1.09,1.09,0,0,1,1.23,1.24v15c0,.78-.7,1.17-2.09,1.17a8.48,8.48,0,0,1-2.58-.39.73.73,0,0,1-.54-.78c0-.53.2-.79.62-.79l2.33.41c.52,0,.78-.13.78-.41V11.86Zm.23-5.16V7.78c0,1,0,1.88-.09,2.75h6.27V6.7Zm6.18-1.33V2.65c0-.46-.15-.7-.45-.7h-5.41c-.21,0-.32.24-.32.7V5.37Z"/><path class="cls-2" d="M250.78,8.18a4.21,4.21,0,0,1-1.17,2.58c-.36.46-.68.69-.94.69s-.37-.13-.37-.4a2.54,2.54,0,0,1,.41-.68,1.6,1.6,0,0,0,.43-.72c0-.12-.18-.3-.53-.55a1.15,1.15,0,0,1-.54-.92,1.12,1.12,0,0,1,.39-.91,1.37,1.37,0,0,1,1-.38,1.24,1.24,0,0,1,.92.4A1.15,1.15,0,0,1,250.78,8.18Z"/><path class="cls-2" d="M261.31.62c.17,0,.38.15.64.43a11.5,11.5,0,0,1,1.19,1.78.21.21,0,0,0,0-.06,9.48,9.48,0,0,0,1-2.07.65.65,0,0,1,.7-.49.6.6,0,0,1,.41.16.6.6,0,0,1,.2.49,1.37,1.37,0,0,1-.08.37,9.25,9.25,0,0,1-1,2.32,8.34,8.34,0,0,1-.53.79,16,16,0,0,1,.7,2.34,26,26,0,0,1,.55,5.33,11.9,11.9,0,0,1-.51,3.44,4.63,4.63,0,0,1-1.11,2.17,2,2,0,0,1-1.53.66,2.57,2.57,0,0,1-1.15-.33c-.4-.14-.61-.37-.62-.68,0-.5.22-.76.62-.79a4.39,4.39,0,0,0,1.1.38,1.08,1.08,0,0,0,.78-.49,4.17,4.17,0,0,0,.72-1.78,11.17,11.17,0,0,0,.27-2.58q0-1.15-.06-2.13c-.19.3-.38.57-.56.8a10.77,10.77,0,0,1-1.45,1.49c-.34.31-.58.47-.72.47q-.78,0-.78-.63a1,1,0,0,1,.37-.78A13.72,13.72,0,0,0,262.75,9a5.15,5.15,0,0,0,.67-.91l-.12-.75a17.34,17.34,0,0,0-.49-1.83,7.42,7.42,0,0,1-1.58,1.29.81.81,0,0,1-.45.13.73.73,0,0,1-.51-.21.91.91,0,0,1-.19-.57.6.6,0,0,1,.21-.45,9.68,9.68,0,0,0,1.55-1.21,5.22,5.22,0,0,0,.39-.43.14.14,0,0,0,0-.06,8.07,8.07,0,0,0-1.41-2.11.86.86,0,0,1-.27-.58Q260.56.65,261.31.62Zm16.27,2a.55.55,0,0,1,.62.63c0,.46-.2.69-.62.69H272.5v6.1a5.85,5.85,0,0,0,.72,2.44,9.38,9.38,0,0,0,1.72,2.3,13.91,13.91,0,0,0,2.93,2.11.81.81,0,0,1,.41.65.67.67,0,0,1-.7.7,1.51,1.51,0,0,1-.78-.25A11.49,11.49,0,0,1,274,15.84a10.39,10.39,0,0,1-2.18-3.52A11.13,11.13,0,0,1,270.29,15a13.24,13.24,0,0,1-3.65,3,1.57,1.57,0,0,1-.78.25.75.75,0,0,1-.78-.78.87.87,0,0,1,.29-.57,15,15,0,0,0,2.58-1.7,8,8,0,0,0,2.25-2.48,5.15,5.15,0,0,0,.82-2.67V4h-4.71c-.4,0-.61-.23-.61-.69a.55.55,0,0,1,.61-.63H271V.86c0-.52.23-.78.7-.78a.69.69,0,0,1,.78.78V2.64Zm-9.63,2c.47,0,.7.21.7.62a21.69,21.69,0,0,1-.25,2.5c.26.52.48.93.66,1.21a15.51,15.51,0,0,0,1.15,1.7.83.83,0,0,1,.32.71.67.67,0,0,1-.61.52,1,1,0,0,1-.7-.37,7.8,7.8,0,0,1-.68-1.13,9.63,9.63,0,0,1-.51-1,10.6,10.6,0,0,1-1,2.39,1.07,1.07,0,0,1-.7.37q-.78,0-.78-.69c0-.09.08-.22.25-.41a8.55,8.55,0,0,0,1.13-2.65,17.25,17.25,0,0,0,.43-3.13A.55.55,0,0,1,268,4.67Zm7.26,0c.49,0,.73.21.73.62a19.07,19.07,0,0,1-.14,2.33,10.1,10.1,0,0,0,.84,1.31A13.73,13.73,0,0,0,278,10.7a.81.81,0,0,1,.33.71.69.69,0,0,1-.65.52,1.12,1.12,0,0,1-.7-.37c-.26-.32-.55-.72-.86-1.19-.21-.3-.43-.67-.68-1.11a9.48,9.48,0,0,1-1.09,2.46.76.76,0,0,1-.57.29.69.69,0,0,1-.78-.78,1.65,1.65,0,0,1,.17-.37A7.62,7.62,0,0,0,274.38,8a16.26,16.26,0,0,0,.21-2.7A.55.55,0,0,1,275.21,4.67Z"/><path class="cls-2" d="M286.15,6.15a.76.76,0,0,1,.49.16.58.58,0,0,1,.24.49,2.38,2.38,0,0,1-.08.47l-.24.6h11.23a.64.64,0,0,1,.73.7.65.65,0,0,1-.73.73h-8.65v1.85h7.79a.57.57,0,0,1,.65.64c0,.46-.22.69-.65.69h-7.79v1.95h7.79a.57.57,0,0,1,.65.64c0,.46-.22.69-.65.69h-7.79v2.09c0,.47-.26.7-.78.7a.62.62,0,0,1-.7-.7V9.3h-1.84c-.09.15-.2.3-.31.45a11.42,11.42,0,0,1-1.78,2,8.82,8.82,0,0,1-2,1.42.84.84,0,0,1-.49.16.66.66,0,0,1-.49-.24.82.82,0,0,1-.21-.54.75.75,0,0,1,.25-.57,9.93,9.93,0,0,0,1.86-1.27,12.21,12.21,0,0,0,1.66-1.87,9.16,9.16,0,0,0,1.15-2.23A.67.67,0,0,1,286.15,6.15ZM289.38,0a.69.69,0,0,1,.78.78v.7h6.4a1.43,1.43,0,0,1,1.21.53,2,2,0,0,1,.34,1.27A9.16,9.16,0,0,1,298,4.36a.81.81,0,0,1-.86.56.61.61,0,0,1-.69-.7,5.63,5.63,0,0,0,.16-.86c0-.48-.21-.72-.62-.72h-3.93v2.2c0,.3.14.45.41.45h5c.52,0,.78.22.78.65s-.26.62-.78.62H292a1.14,1.14,0,0,1-1.31-1.27V2.64h-8a.56.56,0,0,0-.62.64v.86a.7.7,0,1,1-1.39,0V2.87a1.23,1.23,0,0,1,1.39-1.39h6.48V.78Q288.57,0,289.38,0Zm-2.45,3.28a.79.79,0,0,1,.51.18.52.52,0,0,1,.22.45.89.89,0,0,1-.16.52,11.35,11.35,0,0,1-1.31,1.19,9.69,9.69,0,0,1-1.37.88q-.92.44-1.95.84a1.07,1.07,0,0,1-.53.16.58.58,0,0,1-.46-.23,1,1,0,0,1-.16-.55.79.79,0,0,1,.45-.65A12.28,12.28,0,0,0,284,5.33a7.08,7.08,0,0,0,1.27-.78,10.24,10.24,0,0,0,1.23-1A.55.55,0,0,1,286.93,3.28Z"/><path class="cls-2" d="M303.57.08a1.17,1.17,0,0,1,.61.15.58.58,0,0,1,.25.47,1.8,1.8,0,0,1-.05.37,19.27,19.27,0,0,1-2,3.44.18.18,0,0,1-.06.08,10.17,10.17,0,0,1,1.23,1.15,38.26,38.26,0,0,0,1.86-3.4.73.73,0,0,1,.62-.33.64.64,0,0,1,.45.18.66.66,0,0,1,.2.45.79.79,0,0,1-.16.48,35.56,35.56,0,0,1-2.17,3.77,20.13,20.13,0,0,1-1.52,2,1,1,0,0,0,.24,0c1.1-.08,2.06-.18,2.87-.3a9.91,9.91,0,0,0-.45-1.15.8.8,0,0,1-.16-.41c0-.35.24-.53.7-.53a.64.64,0,0,1,.49.32,16.56,16.56,0,0,1,.94,2.79,1.24,1.24,0,0,1,.08.41c0,.35-.24.53-.7.53a.54.54,0,0,1-.49-.39c0-.16-.07-.3-.1-.41q-.71.15-1.62.27v7.79a.62.62,0,0,1-.69.71.63.63,0,0,1-.7-.71V10.18c-.79.1-1.71.19-2.75.27a.61.61,0,0,1-.61-.68.63.63,0,0,1,.53-.71l.76,0a23.17,23.17,0,0,0,1.66-2.16.21.21,0,0,0-.08-.06,15.14,15.14,0,0,0-1.4-1.31c-.32-.26-.68-.54-1.1-.82a.88.88,0,0,1-.21-.53.56.56,0,0,1,.62-.64,1,1,0,0,1,.45.15l.2.14A24,24,0,0,0,303,.45.52.52,0,0,1,303.57.08Zm-1.85,11.23c.47,0,.7.18.7.55a2.14,2.14,0,0,1-.08.56,37,37,0,0,1-.86,4.51.66.66,0,0,1-.62.41c-.47,0-.7-.2-.7-.62a1,1,0,0,1,.13-.49,30.67,30.67,0,0,0,.78-4.43A.6.6,0,0,1,301.72,11.31Zm4.43-.31a.66.66,0,0,1,.65.41,33.72,33.72,0,0,1,.54,3.51,4.17,4.17,0,0,1,.08.7c0,.36-.21.53-.62.53s-.62-.17-.65-.53a31.68,31.68,0,0,0-.49-3.82l-.05-.32Q305.61,11,306.15,11ZM309.43.94h7.29c.77,0,1.15.36,1.15,1.07V16.82A1,1,0,0,1,316.72,18h-7.29a1,1,0,0,1-1.15-1.15V2C308.28,1.3,308.66.94,309.43.94Zm.24,7.42h2.67V2.27h-2.13c-.36,0-.54.17-.54.52Zm2.67,8.28v-7h-2.67V16c0,.43.18.64.54.64Zm1.39-14.37V8.36h2.75V2.79c0-.35-.18-.52-.54-.52Zm2.21,14.37c.36,0,.54-.21.54-.64V9.69h-2.75v7Z"/><path class="cls-2" d="M336.88.53a.55.55,0,0,1,.62.62c0,.47-.21.71-.62.71H324.67c-.41,0-.61.21-.61.64v.94h12.33a.55.55,0,0,1,.62.62.54.54,0,0,1-.62.61H324.06V6.15h12.33c.41,0,.62.22.62.65a.55.55,0,0,1-.62.62H324.06V9h14a.55.55,0,0,1,.62.62c0,.48-.21.71-.62.71H329.2a11,11,0,0,0,1.87,3,4.15,4.15,0,0,0,.51.43,31.19,31.19,0,0,0,4.12-2.38.86.86,0,0,1,.53-.31.63.63,0,0,1,.7.72.84.84,0,0,1-.29.62,30.33,30.33,0,0,1-4.06,2.13,10.68,10.68,0,0,0,1.83,1.06A17.42,17.42,0,0,0,338,16.74q.78.14.78.78c0,.47-.26.7-.78.7a20.47,20.47,0,0,1-4.38-1.48,11.53,11.53,0,0,1-4-3.07,9.81,9.81,0,0,1-1.86-3.36h-3.65v5.8l.37-.07a30.76,30.76,0,0,0,4-1.1,1.12,1.12,0,0,1,.37-.08.58.58,0,0,1,.62.61.77.77,0,0,1-.45.7,20.89,20.89,0,0,1-3.79,1.19,40.3,40.3,0,0,1-4.33.86.73.73,0,0,1-.73-.78.71.71,0,0,1,.65-.78c.7-.08,1.32-.17,1.85-.27l0-6.08h-2.11c-.4,0-.6-.23-.6-.71a.54.54,0,0,1,.6-.62h2.11V1.72A1,1,0,0,1,323.89.53Z"/><path class="cls-2" d="M352.42,9.26a3,3,0,0,1-.88,2.17,3.13,3.13,0,0,1-4.33,0,3,3,0,0,1-.88-2.17,3,3,0,1,1,6.09,0Zm-1.05,0a2,2,0,1,0-.59,1.4A1.93,1.93,0,0,0,351.37,9.26Z"/><path class="cls-2" d="M9.38,27.08a.62.62,0,0,1,.7.7v.53h6.15c.43,0,.65.21.65.62a.58.58,0,0,1-.65.65H10.08v1.23H18.2a.54.54,0,0,1,.61.62c0,.47-.2.71-.61.71H.61c-.41,0-.61-.24-.61-.71a.54.54,0,0,1,.61-.62H3V28.56a.62.62,0,0,1,.7-.7c.48,0,.73.23.73.7v2.25H8.65v-3C8.65,27.31,8.89,27.08,9.38,27.08ZM1.64,33.23a.62.62,0,0,1,.7.7v3.69H16.48V33.93a.61.61,0,0,1,.69-.7.62.62,0,0,1,.7.7v9.81a1.16,1.16,0,0,1-1.31,1.31H2.25A1.16,1.16,0,0,1,.94,43.74V33.93A.62.62,0,0,1,1.64,33.23Zm14.84,5.63H2.34v4.37c0,.33.13.49.37.49H16.07c.28,0,.41-.16.41-.49Zm-10-6.33a.54.54,0,0,1,.38.15.51.51,0,0,1,.15.39.94.94,0,0,1-.08.34,5.54,5.54,0,0,1-.41,1l.12,0c.27.18.53.37.78.55a8.05,8.05,0,0,1,1,.94.74.74,0,0,1,.21.39.55.55,0,0,1-.62.62.82.82,0,0,1-.61-.25c-.36-.31-.67-.57-.94-.76l-.66-.45L5.29,36a5,5,0,0,1-1.07.82.84.84,0,0,1-.49.16.57.57,0,0,1-.43-.21.76.76,0,0,1-.19-.49.61.61,0,0,1,.25-.49,5.86,5.86,0,0,0,1-.69,5.58,5.58,0,0,0,.85-1,5.38,5.38,0,0,0,.65-1.19A.58.58,0,0,1,6.48,32.53Zm-.09,6.74a.59.59,0,0,1,.39.13.5.5,0,0,1,.15.39,1.76,1.76,0,0,1,0,.33A6.72,6.72,0,0,1,6.5,41a.07.07,0,0,0,.06,0l.78.49a9.89,9.89,0,0,1,1,.82.86.86,0,0,1,.21.41.54.54,0,0,1-.62.61.85.85,0,0,1-.61-.24q-.54-.41-.93-.66c-.23-.14-.45-.27-.69-.39-.11.12-.24.23-.37.35a3.89,3.89,0,0,1-1,.7.84.84,0,0,1-.49.16A.53.53,0,0,1,3.46,43a.71.71,0,0,1-.18-.49.53.53,0,0,1,.24-.45,4.47,4.47,0,0,0,.87-.61,4.19,4.19,0,0,0,.81-.82,4.19,4.19,0,0,0,.58-1A.57.57,0,0,1,6.39,39.27Zm5.86.15a.6.6,0,0,1,.39.14.47.47,0,0,1,.15.39.78.78,0,0,1-.08.33,2.3,2.3,0,0,1-.07.26l.15,0q.63.36,1.14.69a8.27,8.27,0,0,1,1.44,1c.16.19.24.32.24.41a.54.54,0,0,1-.61.61.84.84,0,0,1-.62-.24c-.55-.39-1-.69-1.39-.91l-.92-.51a5,5,0,0,1-.62.82,3.74,3.74,0,0,1-.84.68.75.75,0,0,1-.45.16.63.63,0,0,1-.47-.22.66.66,0,0,1-.18-.47.6.6,0,0,1,.24-.48,3.15,3.15,0,0,0,.74-.57,3.39,3.39,0,0,0,.66-.8,3.89,3.89,0,0,0,.49-1A.58.58,0,0,1,12.25,39.42Zm.25-6.8a.52.52,0,0,1,.35.14.46.46,0,0,1,.18.39,1.1,1.1,0,0,1-.08.33c-.08.24-.15.45-.22.63l.22.06,1.11.7A7.7,7.7,0,0,1,15.45,36c.17.17.25.3.25.38,0,.43-.2.64-.62.64a1,1,0,0,1-.65-.23,15.58,15.58,0,0,0-1.32-1,7.26,7.26,0,0,0-1-.57,7.82,7.82,0,0,1-.53.69,4.76,4.76,0,0,1-.9.76.77.77,0,0,1-.49.17.58.58,0,0,1-.44-.23.71.71,0,0,1-.18-.47.6.6,0,0,1,.25-.49,4.16,4.16,0,0,0,.8-.62,5.53,5.53,0,0,0,.71-.92A4.77,4.77,0,0,0,11.88,33C12,32.75,12.16,32.62,12.5,32.62Z"/><path class="cls-2" d="M24.14,31.14a.88.88,0,0,1,.51.16.53.53,0,0,1,.27.47,1.07,1.07,0,0,1-.08.37,31.29,31.29,0,0,1-1.36,5.19,26.46,26.46,0,0,1-1.76,3.89,1.15,1.15,0,0,1-.57.29c-.57,0-.86-.23-.86-.7a.67.67,0,0,1,.16-.45,21,21,0,0,0,1.8-3.75,26.64,26.64,0,0,0,1.4-5C23.72,31.29,23.88,31.14,24.14,31.14Zm5.29-3.52q.78,0,.78.69v15c0,1.31-.75,2-2.26,2a12.36,12.36,0,0,1-3.52-.7.72.72,0,0,1-.54-.72c0-.5.23-.76.62-.79a2.84,2.84,0,0,1,.57.1,12.34,12.34,0,0,0,2.71.63c.63,0,.94-.34.94-1V28.31A.61.61,0,0,1,29.43,27.62Zm5.16,3.6a.76.76,0,0,1,.57.29,51.6,51.6,0,0,1,3,8.69,2.62,2.62,0,0,1,.08.61c0,.47-.31.7-.94.7-.28,0-.49-.17-.62-.53a50.92,50.92,0,0,0-2.66-8.77,1,1,0,0,1-.17-.44C33.89,31.4,34.12,31.22,34.59,31.22Z"/><path class="cls-2" d="M49.75,37.62a.62.62,0,0,1,.7.69c0,.52-.24.78-.7.78H46.56v3.28c1.42-.22,2.67-.45,3.73-.7a.83.83,0,0,1,.32-.08c.44,0,.67.23.7.62a.89.89,0,0,1-.45.79,32.38,32.38,0,0,1-4.55,1c-1.42.26-3.17.49-5.24.69-.44,0-.67-.29-.7-.78A.75.75,0,0,1,41,43c1.69-.12,3-.25,4.06-.39V39.09H41.72c-.47,0-.7-.26-.7-.78a.61.61,0,0,1,.7-.69h3.36v-2c0-.41.23-.62.7-.62s.78.21.78.62v2Zm.62-9.84a.62.62,0,0,1,.7.7.61.61,0,0,1-.7.69H45.74l-2.07,4.26a35.34,35.34,0,0,0,4.83-.71c-.32-.57-.62-1.07-.92-1.5a.83.83,0,0,1-.16-.41c0-.35.23-.53.69-.53a.6.6,0,0,1,.46.29A19.57,19.57,0,0,1,51,35a2.81,2.81,0,0,1,0,.49c0,.41-.26.62-.78.62-.23,0-.41-.16-.54-.49-.21-.57-.42-1.1-.63-1.6a.66.66,0,0,1-.23,0,75.72,75.72,0,0,1-7.74,1.19c-.47,0-.7-.31-.7-.93a.64.64,0,0,1,.7-.71l.84,0,2.11-4.35H41.56a.61.61,0,0,1-.7-.69.62.62,0,0,1,.7-.7ZM57,27.37c.52,0,.78.24.78.7V43.41c0,1.25-.73,1.87-2.18,1.87a10.37,10.37,0,0,1-2.9-.57.68.68,0,0,1-.54-.7c0-.49.23-.75.62-.78a2.27,2.27,0,0,1,.47.08,11.73,11.73,0,0,0,2.27.49c.52,0,.78-.29.78-.86V28.07A.62.62,0,0,1,57,27.37ZM53.2,28.48a.61.61,0,0,1,.69.69V40.5q0,.72-.69.72a.63.63,0,0,1-.7-.72V29.17A.61.61,0,0,1,53.2,28.48Z"/><path class="cls-2" d="M65.21,31.06c.43,0,.65.21.65.62s-.22.71-.65.71H64v1.33l1.86,2.65a1,1,0,0,1,.18.49c0,.46-.25.69-.73.69a.51.51,0,0,1-.45-.32L64,35.63v9.1c0,.43-.23.65-.7.65s-.62-.22-.62-.65V36.36c-.2,1-.39,1.78-.57,2.38a12.21,12.21,0,0,1-.61,2.09.72.72,0,0,1-.62.41c-.47,0-.7-.22-.7-.65a1.25,1.25,0,0,1,.13-.54,40.4,40.4,0,0,0,1.47-4.57c.22-.88.42-1.9.6-3.09H61.07c-.41,0-.62-.24-.62-.71a.55.55,0,0,1,.62-.62h1.59V27.78c0-.43.2-.64.62-.64s.7.21.7.64v3.28Zm12.5,12.42c.49,0,.73.23.73.69s-.24.7-.73.7H66.07a.7.7,0,1,1,0-1.39Zm-.46-15.54a.55.55,0,0,1,.62.62c0,.47-.21.71-.62.71H70.43l-.33,1.17c0,.19,0,.29.13.29h1c.83,0,1.25.49,1.25,1.47v8.51c0,1.32-.75,2-2.27,2a6.26,6.26,0,0,1-1.52-.19c-.49-.16-.74-.41-.74-.74a.59.59,0,0,1,.62-.63,15.2,15.2,0,0,0,1.64.22c.63,0,.94-.24.94-.71V32.51a.4.4,0,0,0-.45-.45H69.39a.75.75,0,0,1-.85-.85l.58-1.94h-3c-.41,0-.62-.24-.62-.71a.55.55,0,0,1,.62-.62ZM67.17,32.86h1.89c.68,0,1,.31,1,.94V39a.9.9,0,0,1-1,1H67.17a.9.9,0,0,1-1-1V33.8C66.15,33.17,66.49,32.86,67.17,32.86Zm1.4,6q.24,0,.24-.3V34.27c0-.17-.08-.26-.24-.26h-.91c-.16,0-.24.09-.24.26v4.29q0,.3.24.3Zm5-8.29h3c.73,0,1.1.4,1.1,1.2a18.09,18.09,0,0,1-.31,3.39,14.86,14.86,0,0,1-.79,3.09,20.25,20.25,0,0,0,1.63,3,.66.66,0,0,1,.33.55c0,.24,0,.4-.14.46a.65.65,0,0,1-.59.3,1.13,1.13,0,0,1-.7-.32,11.58,11.58,0,0,1-1.31-2.28,10.77,10.77,0,0,1-1.89,2.44.85.85,0,0,1-.45.16.68.68,0,0,1-.78-.76.6.6,0,0,1,.21-.41,11.14,11.14,0,0,0,2.11-2.82,2.29,2.29,0,0,0,.1-.23c-.34-.85-.67-1.8-1-2.85a20.77,20.77,0,0,1-.8-3.67.58.58,0,0,1-.33-.57A.58.58,0,0,1,73.52,30.57Zm1,1.27a32.36,32.36,0,0,0,1.23,4.52A13.3,13.3,0,0,0,76,34.91a18.71,18.71,0,0,0,.21-2.62c0-.3-.12-.45-.37-.45Z"/><path class="cls-2" d="M84.14,31.14a.88.88,0,0,1,.51.16.53.53,0,0,1,.27.47,1.07,1.07,0,0,1-.08.37,31.29,31.29,0,0,1-1.36,5.19,26.46,26.46,0,0,1-1.76,3.89,1.15,1.15,0,0,1-.57.29c-.57,0-.86-.23-.86-.7a.67.67,0,0,1,.16-.45,21,21,0,0,0,1.8-3.75,26.64,26.64,0,0,0,1.4-5C83.72,31.29,83.88,31.14,84.14,31.14Zm5.29-3.52q.78,0,.78.69v15c0,1.31-.75,2-2.26,2a12.36,12.36,0,0,1-3.52-.7.72.72,0,0,1-.54-.72c0-.5.23-.76.62-.79a2.84,2.84,0,0,1,.57.1,12.34,12.34,0,0,0,2.71.63c.63,0,.94-.34.94-1V28.31A.61.61,0,0,1,89.43,27.62Zm5.16,3.6a.76.76,0,0,1,.57.29,51.6,51.6,0,0,1,3,8.69,2.62,2.62,0,0,1,.08.61c0,.47-.31.7-.94.7-.28,0-.49-.17-.62-.53a50.92,50.92,0,0,0-2.66-8.77,1,1,0,0,1-.17-.44C93.89,31.4,94.12,31.22,94.59,31.22Z"/><path class="cls-2" d="M110.78,35.18a4.21,4.21,0,0,1-1.17,2.58c-.36.46-.68.69-.94.69s-.37-.13-.37-.4a2.54,2.54,0,0,1,.41-.68,1.6,1.6,0,0,0,.43-.72c0-.12-.18-.3-.53-.55a1.15,1.15,0,0,1-.54-.92,1.12,1.12,0,0,1,.39-.91,1.37,1.37,0,0,1,1-.38,1.24,1.24,0,0,1,.92.4A1.15,1.15,0,0,1,110.78,35.18Z"/><path class="cls-2" d="M123.51,28.41h2.28c.72,0,1.09.31,1.09.93,0,.07-.4.88-1.21,2.43h.9c.87,0,1.3.39,1.3,1.17v5.92a1.13,1.13,0,0,1-1.3,1.26h-4.21a1.12,1.12,0,0,1-1.27-1.26V32.94a1.65,1.65,0,0,1,.1-.59.62.62,0,0,1-.31.1c-.43,0-.65-.18-.65-.53a.92.92,0,0,1,.16-.49,20.27,20.27,0,0,0,2.13-3.9.48.48,0,0,1,.44-.32c.47,0,.7.22.7.65A1.23,1.23,0,0,1,123.51,28.41Zm-1.71,12.4c.41,0,.62.23.62.7a6.94,6.94,0,0,1-.7,3.07.71.71,0,0,1-.78.62.5.5,0,0,1-.57-.56.78.78,0,0,1,.16-.47,6.35,6.35,0,0,0,.7-2.81A.5.5,0,0,1,121.8,40.81Zm.54-9h1.94c.73-1.28,1.09-1.94,1.09-2s-.12-.21-.37-.21h-2.09a19,19,0,0,1-1.35,2.36A1.55,1.55,0,0,1,122.34,31.77Zm.08,3.51h1.31V32.94h-1.07c-.16,0-.24.1-.24.29Zm1.31,3.65v-2.5h-1.31v2.13c0,.25.08.37.24.37Zm-.21,1.88a.57.57,0,0,1,.54.33c.11.56.22,1.47.33,2.72a5.59,5.59,0,0,1,0,.56c0,.35-.2.53-.62.53a.48.48,0,0,1-.53-.53c-.08-1.13-.17-2.09-.29-2.89l0-.23C123,41,123.14,40.81,123.52,40.81Zm1.77-.08a.64.64,0,0,1,.49.33,18.71,18.71,0,0,1,.61,2.5.91.91,0,0,1,.09.37c0,.38-.23.57-.7.57-.22,0-.38-.14-.49-.41a19.88,19.88,0,0,0-.54-2.5.74.74,0,0,1-.08-.29C124.67,40.92,124.88,40.73,125.29,40.73ZM125,32.94v2.34h1.54V33.23c0-.19-.11-.29-.33-.29Zm1.21,6c.22,0,.33-.12.33-.37V36.43H125v2.5Zm.88,1.64c.17,0,.33.11.49.34a7.36,7.36,0,0,1,.53,1.38,1.09,1.09,0,0,1,.09.41c0,.35-.23.53-.7.53a.52.52,0,0,1-.49-.37,8.14,8.14,0,0,0-.45-1.43.75.75,0,0,1-.08-.29C126.48,40.76,126.69,40.57,127.09,40.57Zm2.29-2.34c.41,0,.62.23.62.7a20.92,20.92,0,0,1-.57,5,.71.71,0,0,1-.78.65q-.54,0-.54-.57a.71.71,0,0,1,.17-.45,22.49,22.49,0,0,0,.53-4.76A.51.51,0,0,1,129.38,38.23Zm.83-10.16h5.86c.9,0,1.35.43,1.35,1.27v6.1a1.19,1.19,0,0,1-1.35,1.33h-5.86a1.17,1.17,0,0,1-1.32-1.33v-6.1A1.15,1.15,0,0,1,130.21,28.07Zm-.05,3.6h2.42v-2.4h-2a.39.39,0,0,0-.45.44Zm2.42,3.9V32.86h-2.42V35q0,.54.45.54Zm-1.1,2.21c.41,0,.61.21.61.63v4.66a.82.82,0,0,0,.25.69,2.88,2.88,0,0,0,1.23.17,3.59,3.59,0,0,0,1.39-.15.55.55,0,0,0,.25-.47v-1.1a.66.66,0,0,1,.65-.7c.38,0,.59.31.62.86a4.81,4.81,0,0,1-.23,2.05,1,1,0,0,1-.66.57,6.09,6.09,0,0,1-2,.21,3.75,3.75,0,0,1-2.24-.45,1.77,1.77,0,0,1-.47-1.44v-4.9A.55.55,0,0,1,131.48,37.78Zm2-.41a.57.57,0,0,1,.54.33,14.27,14.27,0,0,1,.61,2.41,3.09,3.09,0,0,1,.08.46c0,.38-.2.57-.61.57s-.53-.19-.54-.57a17.46,17.46,0,0,0-.59-2.52l-.06-.19C132.87,37.53,133.06,37.37,133.44,37.37Zm.37-8.1v2.4h2.34v-2a.39.39,0,0,0-.45-.44Zm1.89,6.3q.45,0,.45-.54V32.86h-2.34v2.71Zm1,2.74c.16,0,.3.11.45.33a28.85,28.85,0,0,1,1.48,4.67,1.73,1.73,0,0,1,.08.49q0,.54-.78.54-.3,0-.45-.48a28.43,28.43,0,0,0-1.35-4.69,1,1,0,0,1-.08-.31C136.07,38.49,136.29,38.31,136.72,38.31Z"/><path class="cls-2" d="M147,27.62a.7.7,0,0,1,.78.79.66.66,0,0,1-.45.6,12.85,12.85,0,0,1-2.34.78V32h2.17a.55.55,0,0,1,.62.62.54.54,0,0,1-.62.61H145v1.89h2.66a.55.55,0,0,1,.62.62c0,.48-.21.71-.62.71H145v.26l3,3.71a1,1,0,0,1,.25.58q0,.69-.78.69a.72.72,0,0,1-.66-.37L145,38.48v6.18a.63.63,0,0,1-.7.72.64.64,0,0,1-.73-.72V39l0,.1a21.92,21.92,0,0,1-1,2.09,8.23,8.23,0,0,1-.92,1.52,1,1,0,0,1-.7.3c-.52,0-.78-.24-.78-.71a.85.85,0,0,1,.21-.52,20.19,20.19,0,0,0,2.09-3.21,14.49,14.49,0,0,0,.86-2.13h-2.54c-.42,0-.62-.23-.62-.71a.55.55,0,0,1,.62-.62h2.79V33.23h-2.34a.54.54,0,0,1-.62-.61.55.55,0,0,1,.62-.62h2.34V30.11a24.52,24.52,0,0,1-2.63.33.65.65,0,0,1-.73-.73.52.52,0,0,1,.57-.54c.87-.11,1.77-.24,2.68-.39a.28.28,0,0,1,.11,0V27.62a.64.64,0,0,1,.73-.7.62.62,0,0,1,.7.7v.75A18.74,18.74,0,0,0,147,27.62Zm4.55.38h5.08A1.17,1.17,0,0,1,158,29.34v7.25a1.18,1.18,0,0,1-1.31,1.35h-6.27v4.43c0,.56.17.91.51,1a9.75,9.75,0,0,0,2.56.23,15.09,15.09,0,0,0,2.89-.19.83.83,0,0,0,.68-.53,8.07,8.07,0,0,0,.24-2.72.64.64,0,0,1,.7-.7c.44,0,.68.31.7.86a16.4,16.4,0,0,1-.13,2.09,2.84,2.84,0,0,1-1,2c-.46.35-1.67.53-3.65.53a12.3,12.3,0,0,1-3.93-.39,2.12,2.12,0,0,1-1-2V29.34A1.17,1.17,0,0,1,150.29,28Zm-1.19,4.53v4h2.42V29.42h-1.85c-.38,0-.57.18-.57.53Zm3.85-3.11v7.09H156a.47.47,0,0,0,.54-.53V30a.47.47,0,0,0-.54-.53Z"/><path class="cls-2" d="M176.88,27.53a.55.55,0,0,1,.62.62c0,.47-.21.71-.62.71H164.67c-.41,0-.61.21-.61.64v.94h12.33a.55.55,0,0,1,.62.62.54.54,0,0,1-.62.61H164.06v1.48h12.33c.41,0,.62.22.62.65a.55.55,0,0,1-.62.62H164.06V36h14a.55.55,0,0,1,.62.62c0,.48-.21.71-.62.71H169.2a11,11,0,0,0,1.87,3,4.15,4.15,0,0,0,.51.43,31.19,31.19,0,0,0,4.12-2.38.86.86,0,0,1,.53-.31.63.63,0,0,1,.7.72.84.84,0,0,1-.29.62,30.33,30.33,0,0,1-4.06,2.13,10.68,10.68,0,0,0,1.83,1.06A17.42,17.42,0,0,0,178,43.74q.78.13.78.78c0,.47-.26.7-.78.7a20.47,20.47,0,0,1-4.38-1.48,11.53,11.53,0,0,1-4-3.07,9.81,9.81,0,0,1-1.86-3.36h-3.65v5.8l.37-.07a30.76,30.76,0,0,0,4-1.1,1.12,1.12,0,0,1,.37-.08.58.58,0,0,1,.62.61.77.77,0,0,1-.45.7,20.89,20.89,0,0,1-3.79,1.19,40.3,40.3,0,0,1-4.33.86.73.73,0,0,1-.73-.78.71.71,0,0,1,.65-.78c.7-.08,1.32-.17,1.85-.27l0-6.08h-2.11c-.4,0-.6-.23-.6-.71a.54.54,0,0,1,.6-.62h2.11V28.72a1,1,0,0,1,1.16-1.19Z"/><path class="cls-2" d="M197.79,43.31c.48,0,.73.23.73.7s-.25.78-.73.78H181.15c-.47,0-.7-.26-.7-.78a.62.62,0,0,1,.7-.7h2V29.09c0-.82.44-1.23,1.31-1.23h9.79c.87,0,1.31.41,1.31,1.23V43.31Zm-3.73-10.45V29.71c0-.29-.13-.44-.41-.44h-8.49c-.28,0-.41.15-.41.44v3.15Zm-9.31,1.41V38h9.31V34.27Zm0,5.15v3.89h9.31V39.42Z"/><path class="cls-2" d="M207.27,29.85a7.81,7.81,0,0,1-1,.69,17.86,17.86,0,0,1-3.91,1.6,1.7,1.7,0,0,1-.44.07c-.49,0-.73-.26-.73-.78,0-.19.14-.37.41-.52a15.7,15.7,0,0,0,4-1.61,9.05,9.05,0,0,0,2.16-1.77.74.74,0,0,1,.57-.32c.52,0,.78.25.78.73a.9.9,0,0,1-.17.47,2.39,2.39,0,0,0-.22.23h6.7c.63,0,.94.29.94.86s-.44,1.16-1.33,1.95a16.27,16.27,0,0,1-4.41,3,24.87,24.87,0,0,1-5.92,2,16.33,16.33,0,0,1-3.79.57.69.69,0,0,1-.78-.78.65.65,0,0,1,.62-.72c1.73-.12,3-.26,3.89-.41a27.77,27.77,0,0,0,3.14-.92c-.4-.44-.73-.79-1-1l-.88-.76a.73.73,0,0,1-.25-.53.55.55,0,0,1,.62-.62,1.12,1.12,0,0,1,.49.14c.35.28.68.56,1,.82a9.28,9.28,0,0,1,1.28,1.3l.16.18a8.08,8.08,0,0,0,.8-.35,21,21,0,0,0,3.2-2.05c.82-.6,1.24-1,1.24-1.14s-.11-.25-.32-.25h-6.64Zm2.83,7.68a15.14,15.14,0,0,1-1.49.92,23.49,23.49,0,0,1-4.84,1.81,1.9,1.9,0,0,1-.57.1c-.47,0-.7-.26-.7-.78a.7.7,0,0,1,.37-.57A21.26,21.26,0,0,0,208,37.16a12.64,12.64,0,0,0,2.79-2,.66.66,0,0,1,.53-.33c.52,0,.78.24.78.71a.86.86,0,0,1-.16.48l-.31.32h4.77c.93,0,1.4.38,1.4,1.15a4.7,4.7,0,0,1-.62,2.21,7.12,7.12,0,0,1-2.52,2.63,14.91,14.91,0,0,1-4.34,1.9,33.64,33.64,0,0,1-7.11,1c-.69,0-1-.26-1-.78a.63.63,0,0,1,.7-.7,40.32,40.32,0,0,0,5.22-.43,17.58,17.58,0,0,0,2.77-.67c-.51-.53-.93-.95-1.27-1.26s-.74-.61-1.15-.92a.87.87,0,0,1-.24-.57.54.54,0,0,1,.61-.6,1.16,1.16,0,0,1,.49.15c.44.34.84.68,1.21,1a11.23,11.23,0,0,1,1.58,1.64l0,0a8.24,8.24,0,0,0,3.22-2.42,3,3,0,0,0,.88-1.84c0-.22-.1-.33-.29-.33Z"/><path class="cls-2" d="M232.42,36.26a3,3,0,0,1-.88,2.17,3.13,3.13,0,0,1-4.33,0,3,3,0,0,1-.88-2.17,3,3,0,1,1,6.09,0Zm-1,0a2,2,0,1,0-.59,1.4A1.93,1.93,0,0,0,231.37,36.26Z"/><path class="cls-2" d="M3.65,54.53H8c.74,0,1.11.34,1.11,1v1.15A1,1,0,0,1,8,57.81H8v1H9c.21,0,.32.15.32.44s-.11.57-.32.57H8v.94H9.59q.33,0,.33.45t-.33.54H2.71c-.19,0-.29-.18-.29-.54s.1-.45.29-.45H4.06v-.94H3.2q-.33,0-.33-.57c0-.29.11-.44.33-.44h.86v-1H2.58v1a7.25,7.25,0,0,1-.35,2.27,6,6,0,0,1-.75,1.62c-.18.27-.36.41-.54.41-.5,0-.76-.26-.78-.7A.76.76,0,0,1,.29,62a4.9,4.9,0,0,0,.84-1.78,5.8,5.8,0,0,0,.18-1.41v-3.2c0-.74.4-1.11,1.19-1.11Zm.73,7.59a.47.47,0,0,1,.54.53.52.52,0,0,1-.25.41,10.81,10.81,0,0,1-2.42,1,1,1,0,0,1-.24.06c-.35,0-.53-.24-.53-.72,0-.17.11-.3.32-.38a12.63,12.63,0,0,0,2.26-.78A1,1,0,0,1,4.38,62.12ZM7.25,62a.53.53,0,0,1,.33.17,7,7,0,0,0,1.23.69c.27.12.41.28.41.49a.51.51,0,0,1-.29.54h6.44c.9,0,1.35.39,1.35,1.16v5.64q0,1.56-2.13,1.56a10.82,10.82,0,0,1-2.42-.33.64.64,0,0,1-.45-.6c0-.52.17-.79.53-.79a2.59,2.59,0,0,1,.52.06,7.87,7.87,0,0,0,1.66.26.7.7,0,0,0,.78-.8v-.55H3.81v2.19q0,.72-.78.72t-.69-.72V65c0-.77.47-1.16,1.39-1.16H8.36a3.91,3.91,0,0,1-.65-.35A4.74,4.74,0,0,1,6.93,63a.88.88,0,0,1-.21-.48C6.72,62.13,6.89,62,7.25,62ZM2.58,56.64h5c.19,0,.29-.13.29-.37V56a.26.26,0,0,0-.29-.29H3.11c-.36,0-.53.18-.53.55Zm1.23,9.45h11.4v-.37c0-.43-.18-.65-.54-.65H4.3c-.33,0-.49.22-.49.65Zm0,2.21h11.4v-1H3.81Zm2.91-9.53v-1H5.29v1Zm0,1.95v-.94H5.29v.94Zm5-6.43h3a.91.91,0,0,1,1,1v1.33a.5.5,0,0,0,.08.27,1,1,0,0,0,.37,0,1.36,1.36,0,0,0,.63-.1.3.3,0,0,0,.19-.29l0-.7q0-.45.57-.45a.65.65,0,0,1,.7.68,3.19,3.19,0,0,1-.21,1.33,1.27,1.27,0,0,1-.57.53,2.44,2.44,0,0,1-1,.19h-.87a1.1,1.1,0,0,1-1.23-1.27V55.56c0-.05-.17-.08-.49-.08H12.5c-.27,0-.41,0-.41.08v.71a1.76,1.76,0,0,1-.32,1.07,3.36,3.36,0,0,1-1,.84,1.72,1.72,0,0,1-.62.18c-.46,0-.7-.24-.73-.63a.74.74,0,0,1,.24-.53,2.89,2.89,0,0,0,.86-.52.87.87,0,0,0,.25-.67v-.7C10.76,54.63,11.08,54.29,11.7,54.29Zm-.84,4.07h5.53c.63,0,.95.3.95.92a1.46,1.46,0,0,1-.5.85A8.38,8.38,0,0,1,15,61.62a6,6,0,0,0,.72.31,10.7,10.7,0,0,0,1.66.51,1.58,1.58,0,0,1,.8.27.5.5,0,0,1,.16.41.57.57,0,0,1-.65.63,6,6,0,0,1-1.26-.32,13.47,13.47,0,0,1-2-.78l-.66-.35a14.92,14.92,0,0,1-3,1.07,3.19,3.19,0,0,1-.64.12c-.43,0-.65-.23-.65-.7,0-.25.16-.45.49-.61,1-.23,1.87-.47,2.56-.7a4.2,4.2,0,0,1-.7-.7,5,5,0,0,1-.67-1.1h-.33c-.43,0-.65-.23-.65-.69A.57.57,0,0,1,10.86,58.36Zm1.54,1.32a2.47,2.47,0,0,0,.41.51,3.82,3.82,0,0,0,1,.78,8.86,8.86,0,0,0,1.76-1c.14-.11.21-.19.21-.26Z"/><path class="cls-2" d="M28.28,57.44a1,1,0,0,1,.53.13.5.5,0,0,1,.25.41,1,1,0,0,1-.08.38,24.22,24.22,0,0,1-1.23,3.35h2.33a.56.56,0,0,1,.62.64c0,.46-.2.69-.62.69H21.15c-.41,0-.62-.23-.62-.69a.56.56,0,0,1,.62-.64h5.24a.29.29,0,0,1,.09-.21,31.63,31.63,0,0,0,1.23-3.77A.59.59,0,0,1,28.28,57.44ZM25.53,54a.69.69,0,0,1,.78.78v.78h3.36a.54.54,0,0,1,.62.61.55.55,0,0,1-.62.62H21.48a.55.55,0,0,1-.62-.62.54.54,0,0,1,.62-.61h3.27v-.78A.69.69,0,0,1,25.53,54ZM22.71,64.53h5.73c.77,0,1.15.37,1.15,1.11v4.77c0,.73-.38,1.09-1.15,1.09H22.71c-.76,0-1.15-.36-1.15-1.09V65.64A1,1,0,0,1,22.71,64.53Zm0-7a.66.66,0,0,1,.65.41A14,14,0,0,1,23.91,60a2,2,0,0,1,.07.44c0,.41-.23.61-.7.61a.56.56,0,0,1-.62-.61,12.24,12.24,0,0,0-.51-2.22l-.06-.2C22.09,57.68,22.3,57.5,22.71,57.5Zm5.08,12.73c.28,0,.41-.15.41-.45V66.27c0-.32-.13-.47-.41-.47H23.36c-.27,0-.41.15-.41.47v3.51c0,.3.14.45.41.45Zm6.1-15.29H37c.68,0,1,.3,1,.92a3.1,3.1,0,0,1-.18.87l-1.37,4.32a2.5,2.5,0,0,0-.09.66,1.23,1.23,0,0,0,.31.77A13.87,13.87,0,0,1,38.2,65,6.1,6.1,0,0,1,38.52,67,4.79,4.79,0,0,1,38,69.37a1.91,1.91,0,0,1-1.8,1.19,8.36,8.36,0,0,1-2.5-.49.65.65,0,0,1-.45-.62c0-.48.22-.74.61-.78a.81.81,0,0,1,.31.1,9.87,9.87,0,0,0,1.9.37c.33,0,.6-.24.8-.71a4.18,4.18,0,0,0,.27-1.56,5.17,5.17,0,0,0-.23-1.42,10.35,10.35,0,0,0-1.65-2.78A1.32,1.32,0,0,1,35,62a4.28,4.28,0,0,1,.08-.84l1.4-4.61c0-.16-.11-.23-.33-.23H33a.32.32,0,0,0-.37.37V71.79a.64.64,0,0,1-.73.71.62.62,0,0,1-.7-.71V56.34c0-.93.5-1.4,1.48-1.4Z"/><path class="cls-2" d="M43.57,54.53H55.21c1,0,1.43.44,1.43,1.33V66H58a.62.62,0,0,1,.7.7c0,.53-.23.79-.7.79H40.86c-.47,0-.7-.26-.7-.79a.62.62,0,0,1,.7-.7h1.39V55.86A1.17,1.17,0,0,1,43.57,54.53Zm2.29,13.28a.62.62,0,0,1,.7.7.74.74,0,0,1-.33.63,15.86,15.86,0,0,1-4.75,3,1.62,1.62,0,0,1-.46.14.75.75,0,0,1-.86-.86.65.65,0,0,1,.37-.62A17.84,17.84,0,0,0,45.37,68,1.28,1.28,0,0,1,45.86,67.81ZM43.73,57.44H55.16V56.5a.5.5,0,0,0-.57-.57H44.22c-.33,0-.49.19-.49.57Zm0,2.71H55.16V58.67H43.73Zm0,2.91H55.16V61.42H43.73Zm0,3H55.16V64.29H43.73ZM53,67.91a.71.71,0,0,1,.49.23,20,20,0,0,0,4.35,2.58c.38.13.57.34.57.62,0,.63-.29.94-.86.94A10.88,10.88,0,0,1,54.9,71a15.37,15.37,0,0,1-2.32-1.64,1.09,1.09,0,0,1-.41-.7A.68.68,0,0,1,53,67.91Z"/><path class="cls-2" d="M77.79,55.64a.57.57,0,0,1,.65.64c0,.46-.22.69-.65.69H67.91a13.57,13.57,0,0,1-2,2.34l-.06.06H75.7a1.28,1.28,0,0,1,1.47,1.43v9.43c0,1.26-1,1.89-2.87,1.89a12.18,12.18,0,0,1-2.91-.41.62.62,0,0,1-.45-.62c0-.57.18-.86.54-.86a2.38,2.38,0,0,1,.63.1,9.26,9.26,0,0,0,2,.31c1,0,1.56-.29,1.56-.86V67.5H65.16v4.08c0,.47-.26.7-.78.7s-.73-.23-.73-.7V61.08a19.38,19.38,0,0,1-2.26,1.29,1.48,1.48,0,0,1-.53.13c-.47,0-.7-.25-.7-.77a.69.69,0,0,1,.37-.55,15.76,15.76,0,0,0,4.7-3.2,6.64,6.64,0,0,0,.88-1h-5c-.41,0-.62-.23-.62-.69a.56.56,0,0,1,.62-.64h6c.26-.4.51-.83.74-1.27a.76.76,0,0,1,.57-.29c.52,0,.78.23.78.7a.8.8,0,0,1-.16.45c-.07.14-.15.28-.23.41ZM65.16,62.91H75.7V61.25c0-.37-.13-.55-.41-.55H65.45c-.2,0-.29.18-.29.55Zm0,3.36H75.7V64.14H65.16Z"/><path class="cls-1" d="M83.44,54.45h4.84c.39,0,.65.12.76.37a.62.62,0,0,1,.63-.37.71.71,0,0,1,.41.17,14.92,14.92,0,0,0,1.76,1.86,17.91,17.91,0,0,0,2.22-2c.17-.21.32-.31.45-.31.47,0,.7.21.7.64a.88.88,0,0,1-.29.63,15,15,0,0,1-2.17,1.81c.42.3.86.59,1.31.86a15.57,15.57,0,0,0,2.09-1.91.74.74,0,0,1,.49-.31c.47,0,.7.21.7.64a.82.82,0,0,1-.33.62,15.6,15.6,0,0,1-1.81,1.55,2.28,2.28,0,0,0,.41.21,22.6,22.6,0,0,0,2.67.9.65.65,0,0,1,.61.7.76.76,0,0,1-.86.86,17.54,17.54,0,0,1-2.56-.89l-.65-.32a.69.69,0,0,1,0,.18v2a.45.45,0,0,0,.12.31,1.62,1.62,0,0,0,.57.06,2.1,2.1,0,0,0,.68-.08.25.25,0,0,0,.22-.23l0-.55a.46.46,0,0,1,.53-.45.64.64,0,0,1,.7.7,2.76,2.76,0,0,1-.19,1.2,1.32,1.32,0,0,1-.61.5,2.89,2.89,0,0,1-1,.18h-1a1.24,1.24,0,0,1-1.38-1.43V60.72c0-.11-.17-.16-.49-.16H91.56c-.27,0-.41,0-.41.16v.92a2.7,2.7,0,0,1-.39,1.5,4.66,4.66,0,0,1-1.31,1.13,2.08,2.08,0,0,1-.82.26c-.44,0-.67-.23-.7-.61a.72.72,0,0,1,.25-.56,4.4,4.4,0,0,0,1.27-.84,1.58,1.58,0,0,0,.37-1.1V60.31c0-.68.32-1,.94-1h2.46a5.77,5.77,0,0,1-1-.7,14.79,14.79,0,0,1-2.93-2.79,2.8,2.8,0,0,1-.19-.28,2.76,2.76,0,0,1-.58,1,16.77,16.77,0,0,1-2.85,2.56l-.72.5h1.94c.76,0,1.15.37,1.15,1.1v2a1,1,0,0,1-1.15,1.11H83.65q-.45,0-.45,1.8c0,.14.11.22.32.22h3.57c.62,0,.94.42.94,1.26a14,14,0,0,1-.2,2,6.74,6.74,0,0,1-.68,2.3c-.27.55-.89.82-1.86.82a26.69,26.69,0,0,1-3.73-.41.62.62,0,0,1-.54-.7.61.61,0,0,1,.7-.69,21,21,0,0,0,3.57.38c.5,0,.8-.32.92-1a12.79,12.79,0,0,0,.27-2.33c0-.3-.13-.45-.41-.45H82.71q-1,0-1-1.11a16.12,16.12,0,0,1,.17-2.24q.23-1.2.9-1.2h3.36c.33,0,.49-.18.49-.54v-.61c0-.38-.16-.56-.49-.56h-3l-.26,0-1.23.58a1.65,1.65,0,0,1-.76.22c-.52,0-.78-.24-.78-.71a.77.77,0,0,1,.37-.7,26.29,26.29,0,0,0,3.28-1.46c-.55-.4-1-.71-1.39-.94a11.5,11.5,0,0,0-1.11-.55,1,1,0,0,1-.21-.57.55.55,0,0,1,.62-.62.87.87,0,0,1,.45.18c.43.22.82.43,1.17.64A9.39,9.39,0,0,1,84.75,58a.4.4,0,0,1,.11.12,13.13,13.13,0,0,0,1.7-1.25c.63-.51.94-.84.94-1s-.08-.14-.25-.14H83.44a.58.58,0,0,1-.65-.65C82.79,54.66,83,54.45,83.44,54.45Zm5.7,10.41H96q.78,0,.78.87a3.41,3.41,0,0,1-.55,1.69,8.48,8.48,0,0,1-1.89,2.07,4.25,4.25,0,0,0,.6.31,19.41,19.41,0,0,0,2.91,1.07.71.71,0,0,1,.41.57c0,.57-.26.86-.78.86a2.87,2.87,0,0,1-.72-.16A14.73,14.73,0,0,1,93.93,71c-.32-.15-.62-.32-.92-.49a13.68,13.68,0,0,1-2.74,1.35,5.08,5.08,0,0,1-1.54.49.69.69,0,0,1-.78-.78.6.6,0,0,1,.62-.65,14.15,14.15,0,0,0,3.23-1.32l-.51-.43a8.85,8.85,0,0,1-1.74-2.93h-.41c-.42,0-.62-.23-.62-.7A.55.55,0,0,1,89.14,64.86Zm2,1.33a7.4,7.4,0,0,0,1.49,2.09,5.54,5.54,0,0,0,.45.37,10.07,10.07,0,0,0,1.87-1.8,1.13,1.13,0,0,0,.27-.56c0-.07,0-.1-.13-.1Z"/><path class="cls-1" d="M109.3,54.08c.52,0,.78.23.78.7v6.64h7.42a.62.62,0,0,1,.7.7c0,.53-.23.79-.7.79h-5.57v6.62a.78.78,0,0,0,.49.78,6.93,6.93,0,0,0,2.42.25c.9,0,1.44-.1,1.61-.31a1.21,1.21,0,0,0,.35-.88v-2c0-.55.24-.83.7-.86s.74.36.78,1a10.63,10.63,0,0,1-.27,3.3,1.45,1.45,0,0,1-.8.91,5.7,5.7,0,0,1-2.37.32,8.48,8.48,0,0,1-3.61-.49,1.79,1.79,0,0,1-.78-1.68v-7h-3v2a7.65,7.65,0,0,1-.49,2.77,6.28,6.28,0,0,1-1.85,2.48,11.66,11.66,0,0,1-3.48,2.07,2.88,2.88,0,0,1-.58.18.76.76,0,0,1-.86-.86q0-.63.45-.78a12.08,12.08,0,0,0,3.34-1.8A5.17,5.17,0,0,0,105.51,67a5.7,5.7,0,0,0,.43-2.13v-2h-4.63c-.47,0-.7-.26-.7-.79a.62.62,0,0,1,.7-.7h7.26V54.78C108.57,54.31,108.82,54.08,109.3,54.08Zm-5.41,1.15a.66.66,0,0,1,.54.41,17.2,17.2,0,0,1,1.8,3.73,2.51,2.51,0,0,1,.08.57c0,.47-.29.7-.86.7-.27,0-.48-.19-.61-.57a16.93,16.93,0,0,0-1.64-3.65,1.18,1.18,0,0,1-.17-.49C103,55.46,103.31,55.23,103.89,55.23Zm12.18,0c.49,0,.73.23.73.7a1.51,1.51,0,0,1-.32.86,19.35,19.35,0,0,1-2.5,3.69.83.83,0,0,1-.46.16c-.54,0-.81-.23-.81-.7a1,1,0,0,1,.16-.49,19.59,19.59,0,0,0,2.66-3.81A.63.63,0,0,1,116.07,55.23Z"/><path class="cls-1" d="M137.5,61.27c.47,0,.7.22.7.68a.62.62,0,0,1-.7.7H132a5.49,5.49,0,0,0,1,1,9,9,0,0,0,2.27,1.07,16.63,16.63,0,0,0,2.43.55c.49.1.73.34.73.7a.69.69,0,0,1-.78.78l-.61-.11a1.05,1.05,0,0,1,.12.52V71c0,.63-.34.94-1,.94h-4.91a.83.83,0,0,1-.94-.94V67.2a.83.83,0,0,1,.94-.93h4.18c-.31-.11-.61-.21-.88-.32a7.85,7.85,0,0,1-2.83-1.72,5.14,5.14,0,0,1-1.19-1.58h-1.46c-.15.22-.29.42-.42.59A8.17,8.17,0,0,1,126,65.6a11.42,11.42,0,0,1-1.68.74h3.45c.68,0,1,.32,1,.94V71c0,.63-.34.94-1,.94H123a.83.83,0,0,1-.93-.94V67.28a1.18,1.18,0,0,1,.06-.41,7.56,7.56,0,0,1-1,.08c-.52,0-.78-.24-.78-.68a.57.57,0,0,1,.57-.63,13,13,0,0,0,3.94-1,7.71,7.71,0,0,0,2.48-2l0,0h-5.82a.62.62,0,0,1-.7-.7c0-.46.23-.68.7-.68h6.67a16.2,16.2,0,0,0,.75-1.74c.2-.21.35-.32.44-.32.52,0,.78.22.78.65a2.9,2.9,0,0,1-.19.88c-.07.18-.14.36-.22.53H134l-.43-.26a5.72,5.72,0,0,0-.78-.37.75.75,0,0,1-.22-.49.55.55,0,0,1,.63-.62,1.54,1.54,0,0,1,.45.09c.32.15.61.29.85.43a5.93,5.93,0,0,1,1.1.75.85.85,0,0,1,.17.37s0,.08,0,.1Zm-14.63-6.49h4.79c.66,0,1,.31,1,.94v2.87c0,.69-.33,1-1,1h-4.79c-.66,0-1-.34-1-1V55.72C121.88,55.09,122.21,54.78,122.87,54.78Zm4,3.52c.24,0,.37-.16.37-.49V56.52c0-.27-.13-.41-.37-.41h-3.23c-.24,0-.37.14-.37.41v1.29c0,.33.13.49.37.49ZM127,70.72a.43.43,0,0,0,.49-.49V68.06a.43.43,0,0,0-.49-.49h-3.18c-.25,0-.37.17-.37.49v2.17c0,.33.12.49.37.49Zm4.24-16h4.84c.68,0,1,.32,1,.94v2.73a.9.9,0,0,1-1,1h-4.84a.9.9,0,0,1-1-1V55.64C130.21,55,130.55,54.7,131.23,54.7Zm4.06,3.36c.28,0,.41-.16.41-.48V56.44a.36.36,0,0,0-.41-.41H132c-.25,0-.37.14-.37.41v1.14c0,.32.12.48.37.48Zm.06,12.66a.43.43,0,0,0,.49-.49V68a.43.43,0,0,0-.49-.48H132c-.25,0-.37.16-.37.48v2.25c0,.33.12.49.37.49Z"/><path class="cls-2" d="M152.42,63.26a3,3,0,0,1-.88,2.17,3.13,3.13,0,0,1-4.33,0,3,3,0,0,1-.88-2.17,3,3,0,1,1,6.09,0Zm-1,0a2,2,0,1,0-.59,1.4A1.93,1.93,0,0,0,151.37,63.26Z"/><path class="cls-2" d="M2,82.41h3.6c.88,0,1.32.41,1.32,1.22V94.56A1.18,1.18,0,0,1,5.61,95.9H2A1.17,1.17,0,0,1,.7,94.56V83.63C.7,82.82,1.14,82.41,2,82.41Zm.08,5.76H5.53v-4c0-.32-.15-.49-.45-.49H2.58a.43.43,0,0,0-.49.49Zm3,6.4q.45,0,.45-.54V89.5H2.09V94c0,.36.16.54.49.54ZM10,92.86c-.08.56-.17,1.09-.27,1.6a22.69,22.69,0,0,1-1.14,4.18.83.83,0,0,1-.91.64c-.52,0-.78-.23-.78-.7A2.86,2.86,0,0,1,7,98.15,22.5,22.5,0,0,0,8.2,94a24.2,24.2,0,0,0,.53-5.24V82.86A1.11,1.11,0,0,1,10,81.62h6.64a1.09,1.09,0,0,1,1.23,1.24v15c0,.78-.7,1.17-2.09,1.17a8.48,8.48,0,0,1-2.58-.39.73.73,0,0,1-.54-.78c0-.53.2-.79.62-.79l2.33.41c.52,0,.78-.13.78-.41V92.86Zm.23-5.16v1.08c0,1,0,1.88-.09,2.75h6.27V87.7Zm6.18-1.33V83.65c0-.46-.15-.7-.45-.7H10.53c-.21,0-.32.24-.32.7v2.72Z"/><path class="cls-2" d="M22.34,87.48a.47.47,0,0,1,.53.53,1.18,1.18,0,0,1-.21.63,11.69,11.69,0,0,1-1.12,1.72l.06,0a7.21,7.21,0,0,1,.8.86c.37-.71.74-1.48,1.12-2.3a.34.34,0,0,1,.37-.24.77.77,0,0,1,.45.14.44.44,0,0,1,.17.35.43.43,0,0,1-.08.24.59.59,0,0,1,0,.08.52.52,0,0,1,.28-.08,1.7,1.7,0,0,1,.35,0,8.49,8.49,0,0,0,1.13-1.76.44.44,0,0,1,.41-.31.46.46,0,0,1,.53.52,1.3,1.3,0,0,1-.21.65,12.26,12.26,0,0,1-1.06,1.58l.1.08a8.91,8.91,0,0,1,.88.86c.41-.68.82-1.42,1.23-2.23,0-.16.19-.23.41-.23a.75.75,0,0,1,.43.13.41.41,0,0,1,.19.35.43.43,0,0,1-.08.24,22.79,22.79,0,0,1-2.42,3.91l2-.34c-.07-.19-.13-.37-.18-.52a1.22,1.22,0,0,1-.08-.34c0-.3.18-.45.53-.45a.55.55,0,0,1,.41.24,13.12,13.12,0,0,1,.7,2.09,1.24,1.24,0,0,1,.08.41c0,.3-.21.45-.62.45a.54.54,0,0,1-.49-.37c0-.16-.06-.31-.1-.45a.93.93,0,0,1-.22,0l-3.37.52a1.36,1.36,0,0,1,0,.18c0,.33-.2.49-.62.49-.2,0-.34-.14-.45-.41s-.08-.27-.12-.37a.79.79,0,0,1-.29.06l-3,.48a.48.48,0,0,1-.54-.54q0-.57.54-.57l.18,0c.32-.49.66-1,1-1.62a.79.79,0,0,1-.16-.08c-.37-.43-.66-.77-.88-1l-.68-.63a.57.57,0,0,1-.16-.37c0-.32.15-.49.45-.49a1.47,1.47,0,0,1,.27,0,10.08,10.08,0,0,0,1.21-1.89A.45.45,0,0,1,22.34,87.48Zm-.7,8.11c.4,0,.61.16.61.49a1.86,1.86,0,0,1-.08.45,10,10,0,0,1-.78,2.34.65.65,0,0,1-.61.41c-.47,0-.7-.21-.7-.64a1,1,0,0,1,.13-.47A8.7,8.7,0,0,0,21.07,96,.52.52,0,0,1,21.64,95.59Zm.08-13.73H28c.74,0,1.11.33,1.11,1V86c0,.72-.37,1.07-1.11,1.07H21.72c-.74,0-1.11-.35-1.11-1.07V82.86C20.61,82.19,21,81.86,21.72,81.86Zm.16,2h5.91V83.5c0-.33-.15-.49-.45-.49h-5c-.31,0-.46.16-.46.49Zm5.46,2c.3,0,.45-.19.45-.56v-.45H21.88v.45c0,.37.15.56.46.56Zm-2.5,7.62a.61.61,0,0,1,.24,0l.12,0s0,0,0-.06a16.09,16.09,0,0,0,1-1.35h0c-.4-.46-.73-.83-1-1.09s-.5-.46-.78-.68a.6.6,0,0,1-.16-.39,27.4,27.4,0,0,1-2,3.75l1.44-.22c0-.09-.08-.18-.11-.27a.78.78,0,0,1-.08-.31q0-.45.54-.45a.53.53,0,0,1,.4.23C24.53,92.91,24.69,93.21,24.84,93.54Zm-1,2a.59.59,0,0,1,.62.49,7.33,7.33,0,0,1,.41,2.5.62.62,0,0,1-.7.7c-.42,0-.62-.21-.62-.64a8.86,8.86,0,0,0-.16-2.11,3,3,0,0,1-.08-.53C23.28,95.73,23.46,95.59,23.81,95.59Zm2.34-.29a.55.55,0,0,1,.41.21,11.83,11.83,0,0,1,1.1,2.13,1.82,1.82,0,0,1,.05.45c0,.36-.26.55-.78.55-.19,0-.34-.16-.45-.47a13.41,13.41,0,0,0-.78-2.09.83.83,0,0,1-.09-.31C25.61,95.45,25.79,95.3,26.15,95.3Zm2.13-.49c.13,0,.26.11.37.33a5.92,5.92,0,0,1,.94,1.48,1.08,1.08,0,0,1,.08.38c0,.32-.2.48-.61.48-.22,0-.38-.13-.49-.41a5.21,5.21,0,0,0-.78-1.4.82.82,0,0,1-.13-.37C27.66,95,27.86,94.81,28.28,94.81Zm9.38-12.87a.55.55,0,0,1,.62.62c0,.47-.21.71-.62.71H34.83l-.45,1.64h2c.79,0,1.19.36,1.19,1.09v8.5c0,.73-.4,1.09-1.19,1.09H36a.74.74,0,0,1,.21.33,5.18,5.18,0,0,0,1.88,2.25.59.59,0,0,1,.33.47.61.61,0,0,1-.12.45.56.56,0,0,1-.53.27.93.93,0,0,1-.62-.33,6,6,0,0,1-1.71-2A3.36,3.36,0,0,1,35,96a.49.49,0,0,1,.13-.41H33a.75.75,0,0,1,.21.55.67.67,0,0,1-.33.56,9.61,9.61,0,0,1-2.82,2.46.78.78,0,0,1-.29.12A.69.69,0,0,1,29,98.5a.61.61,0,0,1,.39-.57,9.48,9.48,0,0,0,2.71-2.34h-.6a1,1,0,0,1-1.11-1.09V86a1,1,0,0,1,1.11-1.09H33l.45-1.64H30.23c-.41,0-.62-.24-.62-.71a.55.55,0,0,1,.62-.62Zm-5.94,6h4.53V86.62q0-.48-.45-.48H32.09c-.25,0-.37.16-.37.48Zm0,3.15h4.53V89.2H31.72Zm4.08,3.28c.3,0,.45-.16.45-.49V92.31H31.72v1.56c0,.33.12.49.37.49Z"/><path class="cls-2" d="M44.75,81a.72.72,0,0,1,.7.7.94.94,0,0,1-.16.53,10.5,10.5,0,0,1-.76,1.45,4.3,4.3,0,0,1-.35.52H46.8c.87,0,1.31.41,1.31,1.24V97.5a1.16,1.16,0,0,1-1.31,1.31H42A1.16,1.16,0,0,1,40.7,97.5V85.44c0-.83.44-1.24,1.31-1.24h.51a8.19,8.19,0,0,0,.59-.91,22.14,22.14,0,0,0,1-2A.72.72,0,0,1,44.75,81Zm-2.66,9.43h4.63V86.1a.5.5,0,0,0-.57-.57H42.66a.5.5,0,0,0-.57.57Zm4.06,7c.38,0,.57-.2.57-.62v-5.1H42.09v5.1c0,.42.19.62.57.62Zm4.92-16.4c.49,0,.73.21.73.62,0,.72-.11,1.36-.2,1.94h5.2c.93,0,1.4.52,1.4,1.56,0,3.1-.09,5.93-.29,8.5-.18,2.26-.57,3.75-1.17,4.45A3.45,3.45,0,0,1,54,99.26a9,9,0,0,1-3.61-.86.8.8,0,0,1-.53-.7c0-.57.26-.86.77-.86a9.21,9.21,0,0,0,3.28.94,1.91,1.91,0,0,0,1.85-1,9.77,9.77,0,0,0,.76-3.73c.15-2,.22-4.47.22-7.3,0-.52-.24-.79-.7-.79H51.35a9.78,9.78,0,0,1-1.14,2.74,1,1,0,0,1-.7.37c-.57,0-.86-.26-.86-.78,0-.08.08-.2.24-.37A8.43,8.43,0,0,0,50,84.48a13.74,13.74,0,0,0,.39-2.78C50.37,81.29,50.61,81.08,51.07,81.08Zm.65,6.78a.7.7,0,0,1,.53.31,30.87,30.87,0,0,1,1.4,4.76,2.51,2.51,0,0,1,.08.57c0,.47-.29.7-.86.7-.27,0-.48-.19-.62-.56a34.17,34.17,0,0,0-1.1-4.77,1,1,0,0,1-.13-.45C51,88,51.25,87.86,51.72,87.86Z"/><path class="cls-1" d="M76.23,81.37c.47,0,.7.26.7.78s-.28.63-.86.71q-2.26.23-5.91.44v2h6.93a.7.7,0,0,1,0,1.4H75v2.8h2.71a.64.64,0,0,1,.73.72c0,.47-.24.7-.73.7H75v3h1.8a.62.62,0,0,1,.7.7.62.62,0,0,1-.7.71H70.16v2H77.5c.47,0,.7.22.7.68a.62.62,0,0,1-.7.7H61.23a.62.62,0,0,1-.7-.7c0-.46.23-.68.7-.68h7.5v-2H61.88a.64.64,0,0,1-.73-.71c0-.47.24-.7.73-.7h2v-3H61.07a.62.62,0,0,1-.7-.7.63.63,0,0,1,.7-.72h2.82V86.7H61.72a.7.7,0,1,1,0-1.4h7V83.36q-4.41.23-6.15.22c-.58,0-.86-.26-.86-.78s.23-.65.7-.65q3.61,0,6.68-.17Q72.93,81.8,76.23,81.37Zm-7.5,8.13V86.7H65.29v2.8ZM65.29,94h3.44v-3H65.29Zm8.28-4.45V86.7H70.16v2.8Zm-3.41,1.42v3h3.41v-3Z"/><path class="cls-1" d="M84.06,85.92h4a1.55,1.55,0,0,1,.15-.49c.11-.4.21-.78.32-1.15H81.23a.62.62,0,0,1-.7-.7.63.63,0,0,1,.7-.72h7.64c.11-.46.21-.87.27-1.24a.65.65,0,0,1,.61-.48c.57,0,.86.24.86.72a.94.94,0,0,1-.16.45c0,.18-.06.36-.1.55h7.23a.63.63,0,0,1,.7.72.62.62,0,0,1-.7.7H90c-.13.54-.29,1.08-.47,1.64h5.1q1.35,0,1.35,1.23V97.31h2a.7.7,0,0,1,0,1.4H80.86a.7.7,0,1,1,0-1.4h1.93V87.15A1.11,1.11,0,0,1,84.06,85.92Zm.24,3H94.51V87.8c0-.33-.15-.49-.45-.49H84.67c-.25,0-.37.16-.37.49Zm0,2.75H94.51V90.14H84.3Zm0,2.74H94.51V92.86H84.3Zm0,2.87H94.51V95.59H84.3Z"/><path class="cls-1" d="M101.56,90.22h2.09c.73,0,1.1.33,1.1,1V95.3a1.73,1.73,0,0,0,1,1.48,6.19,6.19,0,0,0,3.19.7h9c.47,0,.7.27.7.79a.61.61,0,0,1-.7.68h-8.44a11.22,11.22,0,0,1-2.81-.33,5.84,5.84,0,0,1-2.15-1l-.25-.14a.52.52,0,0,0-.31.16,7.64,7.64,0,0,1-2,1.27,2.37,2.37,0,0,1-.84.29c-.51,0-.78-.26-.81-.7a.69.69,0,0,1,.57-.7,8.88,8.88,0,0,0,1.88-.88,1.89,1.89,0,0,0,.62-1.62V91.94a.29.29,0,0,0-.33-.32h-1.39a.7.7,0,0,1,0-1.4Zm-.17-4.79a1.2,1.2,0,0,1,.49.16l1.11.66a11.61,11.61,0,0,1,1.44,1.06.78.78,0,0,1,.24.41c0,.47-.2.7-.61.7a1,1,0,0,1-.7-.25c-.55-.38-1-.69-1.39-.92s-.64-.36-1-.55a.88.88,0,0,1-.24-.56A.62.62,0,0,1,101.39,85.43Zm.62-4a1.1,1.1,0,0,1,.49.17c.39.23.75.44,1.07.65A9.35,9.35,0,0,1,105,83.34a.79.79,0,0,1,.21.37c0,.49-.2.73-.62.73a1.1,1.1,0,0,1-.7-.24c-.52-.39-1-.69-1.31-.91a9.74,9.74,0,0,0-1-.57.82.82,0,0,1-.25-.57A.62.62,0,0,1,102,81.45Zm5.86.55H116a1.5,1.5,0,0,1,1.69,1.71V94.12A1.5,1.5,0,0,1,116,95.84h-8.15a1.52,1.52,0,0,1-1.72-1.72V83.71A1.52,1.52,0,0,1,107.87,82Zm7.74,12.44c.46,0,.7-.24.7-.73V84.12a.62.62,0,0,0-.7-.7h-7.33a.62.62,0,0,0-.7.7v9.59c0,.49.23.73.7.73Zm-5.1-9.38h2.84c.88,0,1.32.41,1.32,1.24v5.34A1.16,1.16,0,0,1,113.35,93h-2.84c-.82,0-1.23-.43-1.23-1.31V86.3A1.09,1.09,0,0,1,110.51,85.06Zm2.34,6.56a.43.43,0,0,0,.49-.48V86.8c0-.27-.16-.41-.49-.41H111a.36.36,0,0,0-.4.41v4.34c0,.32.13.48.4.48Z"/><path class="cls-1" d="M121.23,86.62a.79.79,0,0,1,.49.24,16,16,0,0,1,1.8,1.93,1.23,1.23,0,0,1,.13.49c0,.47-.26.7-.78.7a.54.54,0,0,1-.37-.17,23.91,23.91,0,0,0-1.89-2,1.12,1.12,0,0,1-.16-.39A.7.7,0,0,1,121.23,86.62Zm1.8,5c.47,0,.7.27.7.79a19.74,19.74,0,0,1-.59,3.1A17.66,17.66,0,0,1,122,98.58a.74.74,0,0,1-.7.45c-.47,0-.7-.2-.7-.61a1.17,1.17,0,0,1,.09-.33,18.14,18.14,0,0,0,1.1-2.77,32.16,32.16,0,0,0,.7-3.25A.49.49,0,0,1,123,91.62Zm-1.15-10a.78.78,0,0,1,.46.24,12.71,12.71,0,0,1,1.47,1.72A.79.79,0,0,1,124,84c0,.47-.26.7-.78.7a.63.63,0,0,1-.41-.16,21.47,21.47,0,0,0-1.56-1.77,1.38,1.38,0,0,1-.16-.39A.71.71,0,0,1,121.88,81.62Zm5.37-.33c.52,0,.78.24.78.71v1.42h2a.55.55,0,0,1,.61.62c0,.47-.21.71-.61.71h-3.07v2.66h2.13c.87,0,1.31.41,1.31,1.25a67.7,67.7,0,0,1-.31,7.4,4.52,4.52,0,0,1-.78,2.42,2.2,2.2,0,0,1-1.7.66,3.33,3.33,0,0,1-1.1-.25.66.66,0,0,1-.46-.7c0-.46.2-.69.62-.69a3.75,3.75,0,0,0,.94.24.92.92,0,0,0,.86-.49,5.77,5.77,0,0,0,.39-1.74,58.83,58.83,0,0,0,.23-6.37c0-.27-.16-.41-.49-.41h-1.66a32.06,32.06,0,0,1-.58,5.45,20.45,20.45,0,0,1-1.41,4.71c-.18.27-.36.41-.54.41-.51,0-.78-.26-.81-.7a.73.73,0,0,1,.16-.41,24.23,24.23,0,0,0,1.62-5.94,31.73,31.73,0,0,0,.35-4.75V84.75h-.78c-.42,0-.62-.24-.62-.71a.55.55,0,0,1,.62-.62h1.64V82A.62.62,0,0,1,127.25,81.29Zm5.62-.15a.86.86,0,0,1,.53.17.7.7,0,0,1,.25.55,1.07,1.07,0,0,1-.08.37,8.06,8.06,0,0,1-.25.86h4.55c.43,0,.65.2.65.62s-.22.71-.65.71h-5.1l-.21.43a11.69,11.69,0,0,1-1.33,2,1,1,0,0,1-.53.29c-.52,0-.78-.23-.78-.7a.49.49,0,0,1,.16-.37,9.68,9.68,0,0,0,1.25-1.91,11.6,11.6,0,0,0,1-2.53A.52.52,0,0,1,132.87,81.14ZM138,92.48a.62.62,0,1,1,0,1.23h-1.86a10.37,10.37,0,0,1,.31,2.5,3.71,3.71,0,0,1-.41,1.68A2.12,2.12,0,0,1,135.2,99a2.2,2.2,0,0,1-1.22.33,4.63,4.63,0,0,1-1.73-.41.78.78,0,0,1-.61-.7c0-.48.22-.74.61-.76a7.75,7.75,0,0,0,1.64.45.9.9,0,0,0,.5-.16,1.29,1.29,0,0,0,.49-.61,1.93,1.93,0,0,0,.2-.88,9.63,9.63,0,0,0-.28-2.5h-3.08c-.43,0-.65-.2-.65-.62s.22-.61.65-.61h2.6a3.59,3.59,0,0,0-.41-.7,4.89,4.89,0,0,0-1.14-1.17.47.47,0,0,1-.19-.31c0-.46.28-.7.78-.73a1.12,1.12,0,0,1,.53.26,1.35,1.35,0,0,1,.17.17.8.8,0,0,1,.24-.19,5.25,5.25,0,0,0,.93-.67,4,4,0,0,0,.81-.84,1.23,1.23,0,0,0,.27-.44c0-.1-.08-.14-.24-.14H132.5c-.42,0-.62-.22-.62-.65a.55.55,0,0,1,.62-.62h4.59c.57,0,.86.26.86.78a1.78,1.78,0,0,1-.25.8,7.62,7.62,0,0,1-1.14,1.56A8.56,8.56,0,0,1,134.94,91a.21.21,0,0,1,.06.08,7.24,7.24,0,0,1,.8,1.42Z"/><path class="cls-2" d="M150.78,89.18a4.21,4.21,0,0,1-1.17,2.58c-.36.46-.68.69-.94.69s-.37-.13-.37-.4a2.54,2.54,0,0,1,.41-.68,1.6,1.6,0,0,0,.43-.72c0-.12-.18-.3-.53-.55a1.15,1.15,0,0,1-.54-.92,1.12,1.12,0,0,1,.39-.91,1.37,1.37,0,0,1,1-.38,1.24,1.24,0,0,1,.92.4A1.15,1.15,0,0,1,150.78,89.18Z"/><path class="cls-2" d="M164.75,81.29a.78.78,0,0,1,.52.18.7.7,0,0,1,.26.53,1.61,1.61,0,0,1-.08.41,23.64,23.64,0,0,1-1,3.2v13.1c0,.49-.23.73-.7.73s-.7-.24-.7-.73V88.46a16.31,16.31,0,0,1-1.47,2.21A1.06,1.06,0,0,1,161,91c-.54,0-.81-.23-.81-.7a.57.57,0,0,1,.16-.39,19.86,19.86,0,0,0,2.17-3.48,24.13,24.13,0,0,0,1.68-4.65A.52.52,0,0,1,164.75,81.29Zm13,15.94c.48,0,.73.23.73.7s-.25.78-.73.78H166.23c-.47,0-.7-.26-.7-.78a.62.62,0,0,1,.7-.7Zm-9.22-15.08h7c1,0,1.56.5,1.56,1.49v9.78c0,1-.52,1.49-1.56,1.49h-7a1.32,1.32,0,0,1-1.48-1.49V83.64A1.32,1.32,0,0,1,168.57,82.15Zm0,5.41h7V84.12a.47.47,0,0,0-.53-.54h-6c-.32,0-.49.18-.49.54Zm6.51,5.94c.35,0,.53-.19.53-.57V89h-7v4c0,.38.17.57.49.57Z"/><path class="cls-2" d="M185.7,92.07a.74.74,0,0,1,.47.16.59.59,0,0,1,.22.49,2.13,2.13,0,0,1-.08.45,10.28,10.28,0,0,1-1.13,2.56,12.69,12.69,0,0,1-1.64,2.09,9.79,9.79,0,0,1-1.82,1.46.84.84,0,0,1-.49.16.66.66,0,0,1-.49-.24.87.87,0,0,1-.21-.56.6.6,0,0,1,.25-.47,10,10,0,0,0,1.68-1.33,11.86,11.86,0,0,0,1.47-1.93A11.38,11.38,0,0,0,185,92.56.65.65,0,0,1,185.7,92.07Zm-2.59-9.92h12.34c1,0,1.43.45,1.43,1.35v6.41a1.24,1.24,0,0,1-1.43,1.38H183.11c-.88,0-1.31-.46-1.31-1.38V83.5A1.17,1.17,0,0,1,183.11,82.15Zm11.73,7.66a.47.47,0,0,0,.53-.53V84.12c0-.32-.17-.48-.53-.48H183.73q-.45,0-.45.48v5.16c0,.35.15.53.45.53ZM193,92.23a.75.75,0,0,1,.78.57A11.36,11.36,0,0,0,198,97.86a.69.69,0,0,1,.33.56c0,.28-.06.45-.17.53a.63.63,0,0,1-.61.33,1.08,1.08,0,0,1-.78-.41A12.2,12.2,0,0,1,193.2,95a6.37,6.37,0,0,1-.95-2.16C192.25,92.48,192.48,92.27,193,92.23Z"/><path class="cls-2" d="M217.79,82.64a.57.57,0,0,1,.65.64c0,.46-.22.69-.65.69h-9.88a13.57,13.57,0,0,1-2,2.34l-.06.06h9.86a1.28,1.28,0,0,1,1.47,1.43v9.43c0,1.26-1,1.89-2.87,1.89a12.18,12.18,0,0,1-2.91-.41.62.62,0,0,1-.45-.62c0-.57.18-.86.54-.86a2.38,2.38,0,0,1,.63.1,9.26,9.26,0,0,0,2,.31c1,0,1.56-.29,1.56-.86V94.5H205.16v4.08c0,.47-.26.7-.78.7s-.73-.23-.73-.7V88.08a19.38,19.38,0,0,1-2.26,1.29,1.53,1.53,0,0,1-.53.13c-.47,0-.7-.25-.7-.77a.69.69,0,0,1,.37-.55,15.76,15.76,0,0,0,4.7-3.2,6.64,6.64,0,0,0,.88-1h-5c-.41,0-.62-.23-.62-.69a.56.56,0,0,1,.62-.64h6c.26-.4.51-.83.74-1.27a.76.76,0,0,1,.57-.29c.52,0,.78.23.78.7a.8.8,0,0,1-.16.45c-.07.14-.15.28-.23.41Zm-12.63,7.27H215.7V88.25c0-.37-.13-.55-.41-.55h-9.84c-.2,0-.29.18-.29.55Zm0,3.36H215.7V91.14H205.16Z"/><path class="cls-2" d="M226.93,82.86a.57.57,0,0,1,.65.64c0,.42-.22.62-.65.62h-2.18v1.65h1.48q1.11,0,1.11.93V93q0,1-1.11,1h-1.48v1.56h2.42a.54.54,0,0,1,.62.62c0,.47-.2.71-.62.71h-2.42V98.7c0,.42-.24.64-.7.64a.56.56,0,0,1-.63-.64V96.92H221c-.43,0-.65-.24-.65-.71s.22-.62.65-.62h2.42V94h-1.56a.9.9,0,0,1-1-1V86.7q0-.93,1-.93h1.56V84.12h-2.29a.55.55,0,0,1-.62-.62.56.56,0,0,1,.62-.64h2.29v-1a.57.57,0,0,1,.63-.65c.46,0,.7.22.7.65v1Zm-4.76,6.34h1.25V86.94h-.92c-.22,0-.33.12-.33.37Zm1.25,3.66V90.3h-1.25v2.11q0,.45.33.45Zm1.33-5.92V89.2H226V87.31c0-.25-.14-.37-.41-.37Zm.86,5.92c.27,0,.41-.15.41-.45V90.3h-1.27v2.56Zm11.27-.63a.62.62,0,0,1,.7.7.63.63,0,0,1-.7.71h-3.6v3.92h4.38a.63.63,0,0,1,.7.71.61.61,0,0,1-.7.68H228a.61.61,0,0,1-.7-.68.62.62,0,0,1,.7-.71h3.93V93.64h-3.15a.62.62,0,0,1-.7-.71.62.62,0,0,1,.7-.7Zm-7.13-8a.62.62,0,0,1,.7.63.84.84,0,0,1-.12.45c-.26.58-.58,1.24-1,2a.9.9,0,0,0-.14.47,1.17,1.17,0,0,0,.12.52,19.15,19.15,0,0,1,.95,1.94.84.84,0,0,1,.08.33.67.67,0,0,1-.7.7.85.85,0,0,1-.69-.45A16,16,0,0,0,228,88.6a1.69,1.69,0,0,1-.24-.8,1,1,0,0,1,.12-.47c.53-1.19.92-2.08,1.15-2.68A.72.72,0,0,1,229.75,84.28ZM236.88,82a.63.63,0,0,1,.7.72.62.62,0,0,1-.7.7h-8.07a.62.62,0,0,1-.7-.7.63.63,0,0,1,.7-.72Zm-3.36,2.2c.44,0,.67.22.7.61a.8.8,0,0,1-.16.49c-.32.6-.72,1.27-1.19,2a1,1,0,0,0-.16.49,1,1,0,0,0,.16.5c.44.66.83,1.28,1.17,1.88a.65.65,0,0,1,.1.33.67.67,0,0,1-.7.7.89.89,0,0,1-.73-.44,13.91,13.91,0,0,0-1.11-2.19,1.43,1.43,0,0,1-.29-.78.94.94,0,0,1,.14-.49c.63-1.21,1.08-2.12,1.34-2.74A.8.8,0,0,1,233.52,84.2Zm3.57,0c.44,0,.68.22.7.61a.92.92,0,0,1-.13.49c-.36.57-.77,1.22-1.25,2a.73.73,0,0,0,0,1,22.6,22.6,0,0,1,1.42,1.87.71.71,0,0,1,.1.33.66.66,0,0,1-.7.71.87.87,0,0,1-.69-.47,14,14,0,0,0-1.38-2.17,1.22,1.22,0,0,1-.34-.78.94.94,0,0,1,.14-.47c.66-1.18,1.13-2.08,1.41-2.68A.75.75,0,0,1,237.09,84.2Z"/><path class="cls-2" d="M244.06,86.62a.6.6,0,0,1,.41.16.56.56,0,0,1,.2.45,1.78,1.78,0,0,1-.08.41,8.27,8.27,0,0,1-.84,2.07,8.08,8.08,0,0,1-.47.8v8.13a.7.7,0,1,1-1.4,0V92.15a4.43,4.43,0,0,1-.65.49.71.71,0,0,1-.45.16.68.68,0,0,1-.51-.24.9.9,0,0,1-.19-.56.66.66,0,0,1,.21-.47,6.71,6.71,0,0,0,1.23-1.06,9.68,9.68,0,0,0,1.08-1.54,10.24,10.24,0,0,0,.76-1.86A.64.64,0,0,1,244.06,86.62Zm-.25-5.33a.67.67,0,0,1,.45.16.65.65,0,0,1,.17.49,2.24,2.24,0,0,1-.05.37,8.16,8.16,0,0,1-.77,1.93,7.67,7.67,0,0,1-1,1.58,6.34,6.34,0,0,1-1.19,1.12.86.86,0,0,1-.45.13.69.69,0,0,1-.51-.21.89.89,0,0,1-.22-.57.57.57,0,0,1,.24-.45,7.84,7.84,0,0,0,1.07-1,7.53,7.53,0,0,0,.94-1.39,8.94,8.94,0,0,0,.65-1.68A.66.66,0,0,1,243.81,81.29Zm2.92,9.79c.46,0,.69.21.69.62v1.88a7.94,7.94,0,0,1-.56,3,6.34,6.34,0,0,1-1.31,2.12c-.17.28-.35.41-.53.41-.5,0-.76-.26-.78-.7a.74.74,0,0,1,.15-.41,6.44,6.44,0,0,0,1.41-2.46,6.76,6.76,0,0,0,.29-2V91.7A.56.56,0,0,1,246.73,91.08Zm4.29-2a.55.55,0,0,1,.62.61.55.55,0,0,1-.62.63h-5.81a.55.55,0,0,1-.62-.63.55.55,0,0,1,.62-.61ZM245.78,82c.4,0,.61.21.61.64v3c0,.33.13.49.41.49h1V81.62c0-.41.22-.62.65-.62a.55.55,0,0,1,.62.62v4.46H250c.25,0,.37-.16.37-.49v-3A.57.57,0,0,1,251,82a.56.56,0,0,1,.62.64v3.5a1,1,0,0,1-1.11,1.09h-4.3a1,1,0,0,1-1.07-1.09v-3.5C245.16,82.21,245.36,82,245.78,82Zm3.88,9.14c.47,0,.71.21.71.64v3.71a6.88,6.88,0,0,0,1.35-.84.67.67,0,0,1,.29-.08.59.59,0,0,1,.65.57.8.8,0,0,1-.49.7,6.51,6.51,0,0,1-1.6,1,10.49,10.49,0,0,1-1.86.76c-.39,0-.6-.3-.62-.78a.63.63,0,0,1,.54-.72L249,96V91.78A.56.56,0,0,1,249.66,91.14Zm4-10.22c.48,0,.73.2.73.61,0,.64,0,1.24-.08,1.81h3.49c.43,0,.65.21.65.61s-.22.62-.65.62h-.45a30.24,30.24,0,0,1-.76,7,18.31,18.31,0,0,1-.74,2.2c.21.47.44.94.68,1.41a17.82,17.82,0,0,0,1.62,2.56,1.15,1.15,0,0,1,.3.8.69.69,0,0,1-.73.78c-.26,0-.55-.25-.87-.76a23.11,23.11,0,0,1-1.74-3.16A18.75,18.75,0,0,1,252.58,99a.72.72,0,0,1-.57.33.69.69,0,0,1-.78-.78,1.42,1.42,0,0,1,.16-.41,16,16,0,0,0,3-4.43c-.13-.36-.24-.69-.33-1a27.11,27.11,0,0,1-.94-5.21c-.16.26-.33.5-.48.74a.72.72,0,0,1-.57.33.62.62,0,0,1-.7-.7,1.33,1.33,0,0,1,.17-.39,8.14,8.14,0,0,0,1.23-3,16.27,16.27,0,0,0,.24-2.85A.54.54,0,0,1,253.65,80.92Zm.35,4.26a27.75,27.75,0,0,0,.84,5.72c.08.31.17.64.28,1a7.67,7.67,0,0,0,.23-.78,28.66,28.66,0,0,0,.72-6.53h-1.95a.9.9,0,0,1,0,.18A2.47,2.47,0,0,1,254,85.18Z"/><path class="cls-2" d="M264.75,81a.72.72,0,0,1,.7.7.94.94,0,0,1-.16.53,10.5,10.5,0,0,1-.76,1.45,4.3,4.3,0,0,1-.35.52h2.62c.87,0,1.31.41,1.31,1.24V97.5a1.16,1.16,0,0,1-1.31,1.31H262a1.16,1.16,0,0,1-1.31-1.31V85.44c0-.83.44-1.24,1.31-1.24h.51a8.19,8.19,0,0,0,.59-.91,22.14,22.14,0,0,0,1-2A.72.72,0,0,1,264.75,81Zm-2.66,9.43h4.63V86.1a.5.5,0,0,0-.57-.57h-3.49a.5.5,0,0,0-.57.57Zm4.06,7c.38,0,.57-.2.57-.62v-5.1h-4.63v5.1c0,.42.19.62.57.62Zm4.92-16.4c.49,0,.73.21.73.62,0,.72-.11,1.36-.2,1.94h5.2c.93,0,1.4.52,1.4,1.56,0,3.1-.09,5.93-.29,8.5-.18,2.26-.57,3.75-1.17,4.45A3.45,3.45,0,0,1,274,99.26a9,9,0,0,1-3.61-.86.8.8,0,0,1-.53-.7c0-.57.26-.86.77-.86a9.21,9.21,0,0,0,3.28.94,1.91,1.91,0,0,0,1.85-1,9.77,9.77,0,0,0,.76-3.73c.15-2,.22-4.47.22-7.3,0-.52-.24-.79-.7-.79h-4.67a9.78,9.78,0,0,1-1.14,2.74,1,1,0,0,1-.7.37c-.57,0-.86-.26-.86-.78,0-.08.08-.2.24-.37A8.43,8.43,0,0,0,270,84.48a13.74,13.74,0,0,0,.39-2.78C270.37,81.29,270.61,81.08,271.07,81.08Zm.65,6.78a.7.7,0,0,1,.53.31,30.87,30.87,0,0,1,1.4,4.76,2.51,2.51,0,0,1,.08.57c0,.47-.29.7-.86.7-.27,0-.48-.19-.62-.56a34.17,34.17,0,0,0-1.1-4.77,1,1,0,0,1-.13-.45C271,88,271.25,87.86,271.72,87.86Z"/><path class="cls-2" d="M281.31,84.73h5.25c.58,0,.86.4.86,1.19a6.54,6.54,0,0,1-.27,1.58A17.86,17.86,0,0,1,286,90.69a15.4,15.4,0,0,1-1.74,2.89,12.2,12.2,0,0,1-3,2.93.88.88,0,0,1-.37.19c-.57,0-.86-.31-.86-.93a.82.82,0,0,1,.53-.71,13.41,13.41,0,0,0,2.5-2.34,15.27,15.27,0,0,0,1.7-2.77,14.37,14.37,0,0,0,.95-2.76,3.6,3.6,0,0,0,.18-.82c0-.16,0-.23-.08-.23h-4.47a.62.62,0,0,1-.7-.71A.62.62,0,0,1,281.31,84.73Zm8.2-3.59a.7.7,0,0,1,.78.8v2.34a35.18,35.18,0,0,0,1.19,3.34,26,26,0,0,0,4.75-3.75.67.67,0,0,1,1.27.33,1.58,1.58,0,0,1-.33.86,26.87,26.87,0,0,1-5,3.81.16.16,0,0,1-.1,0,24.42,24.42,0,0,0,2.31,3.57,19.41,19.41,0,0,0,3.82,3.73.84.84,0,0,1-.41,1.59,1.77,1.77,0,0,1-.86-.32,21.92,21.92,0,0,1-4.25-4.78,15.8,15.8,0,0,1-2-3.87c-.14-.32-.27-.67-.39-1v9.61c0,1.3-.75,2-2.26,2a9.62,9.62,0,0,1-3.11-.72.69.69,0,0,1-.54-.71c0-.49.22-.75.62-.78a1.62,1.62,0,0,1,.49.1,11.91,11.91,0,0,0,2.54.61c.52,0,.78-.29.78-.86V81.94C288.81,81.4,289,81.14,289.51,81.14Z"/><path class="cls-2" d="M316.56,81.94a.7.7,0,0,1,0,1.4h-6.4v8h7.63a.72.72,0,1,1,0,1.43h-7.63v6a.69.69,0,0,1-.78.79.71.71,0,0,1-.81-.79v-6H301a.72.72,0,1,1,0-1.43h7.55v-8h-6.64a.7.7,0,1,1,0-1.4Zm-14.14,2.5a.75.75,0,0,1,.45.21A29.11,29.11,0,0,1,305.7,89a1,1,0,0,1,.16.49c0,.47-.26.7-.78.7a.89.89,0,0,1-.49-.16q-1.3-2.27-2.79-4.39a.94.94,0,0,1-.16-.37A.69.69,0,0,1,302.42,84.44Zm14.06,0a.69.69,0,0,1,.77.78,1.67,1.67,0,0,1-.32.86,20.25,20.25,0,0,1-3.2,3.73.73.73,0,0,1-.53.25c-.52,0-.78-.23-.78-.7a1.18,1.18,0,0,1,.16-.57,21.43,21.43,0,0,0,3.36-4A.56.56,0,0,1,316.48,84.44Z"/><path class="cls-2" d="M326.07,81.21c.49,0,.73.27.73.79s-.29.63-.86.72a9.83,9.83,0,0,1-1.43.37v3.2h1.56a.72.72,0,1,1,0,1.43h-1.56V88l2.38,3.46a1.16,1.16,0,0,1,.2.55c0,.43-.23.64-.7.64a.56.56,0,0,1-.53-.37L324.51,90v8.79a.7.7,0,1,1-1.4,0V90.9a15.17,15.17,0,0,1-.86,2.13,9.09,9.09,0,0,1-.94,1.78.7.7,0,0,1-.61.41c-.47,0-.7-.22-.7-.65a1.1,1.1,0,0,1,.16-.54,25.24,25.24,0,0,0,2-3.89,21,21,0,0,0,.78-2.42h-1.88a.72.72,0,0,1,0-1.43h2V83.36a11.88,11.88,0,0,1-1.8.22c-.57,0-.86-.26-.86-.78s.23-.65.7-.65a14.66,14.66,0,0,0,2.39-.21A10.61,10.61,0,0,0,326.07,81.21Zm5.08,12.72a1,1,0,0,1,.49.18c.42.19.81.39,1.17.58a10.15,10.15,0,0,1,1.57,1,.88.88,0,0,1,.07.12,6.78,6.78,0,0,0,1.82-2,3.39,3.39,0,0,0,.66-1.79c0-.15-.09-.22-.29-.22h-4l-.2,0a8,8,0,0,1-1,.78,13.5,13.5,0,0,1-3.43,1.72,1,1,0,0,1-.39.1.64.64,0,0,1-.73-.72.83.83,0,0,1,.41-.63,13,13,0,0,0,3.48-1.73,8.49,8.49,0,0,0,1.89-1.9.72.72,0,0,1,.57-.33c.47,0,.7.21.7.62a1,1,0,0,1-.17.57.91.91,0,0,1-.18.21h3.46c1,0,1.43.4,1.43,1.18a5.28,5.28,0,0,1-.51,2.14,6.18,6.18,0,0,1-1.94,2.58,10,10,0,0,1-3.34,1.84,20.52,20.52,0,0,1-5.48,1q-1,0-1-.78a.63.63,0,0,1,.7-.7,23.28,23.28,0,0,0,3.93-.43,9.22,9.22,0,0,0,2.36-.8c-.54-.35-1-.63-1.34-.82s-.71-.36-1.1-.53a.85.85,0,0,1-.25-.57A.55.55,0,0,1,331.15,93.93ZM330,85.06a.91.91,0,0,1,.45.16,7.13,7.13,0,0,1,1,.57,6.11,6.11,0,0,1,1.26.91.53.53,0,0,1,.1.12,2,2,0,0,0,.3-.2,11.42,11.42,0,0,0,2.28-2.36,1.67,1.67,0,0,0,.31-.55c0-.09-.08-.13-.25-.13h-4.92l-.1,0a5.55,5.55,0,0,1-.66.78,7.68,7.68,0,0,1-2.06,1.43.35.35,0,0,1-.21.07.62.62,0,0,1-.7-.7.77.77,0,0,1,.37-.64A6.15,6.15,0,0,0,329,83.09a7.46,7.46,0,0,0,1-1.56.66.66,0,0,1,.53-.32c.46,0,.7.22.7.65a1,1,0,0,1-.12.45h5.2c.79,0,1.19.34,1.19,1a2.36,2.36,0,0,1-.49,1.08,14.17,14.17,0,0,1-2.27,2.6,13.83,13.83,0,0,1-2.61,1.81,19,19,0,0,1-3.64,1.53,4.06,4.06,0,0,1-.91.23c-.58,0-.86-.26-.86-.78,0-.33.2-.53.62-.61a17.87,17.87,0,0,0,2.78-1c.52-.23,1-.45,1.44-.69a11,11,0,0,0-1.15-.82c-.26-.17-.56-.34-.9-.53a.82.82,0,0,1-.21-.54A.54.54,0,0,1,330,85.06Z"/><path class="cls-2" d="M349.06,81.21c.41,0,.61.27.61.79,0,.33-.26.55-.78.64s-1.44.18-2.41.27V84.2h3.44a.62.62,0,0,1,0,1.23h-3.44v1.19h2.58c.77,0,1.15.37,1.15,1.1v4.06c0,.72-.38,1.08-1.15,1.08h-2.58v1.42h3a.57.57,0,0,1,.65.63c0,.4-.22.6-.65.6h-3v1.66c1.07-.12,2.08-.27,3-.47.43,0,.65.21.65.61s-.25.68-.73.7q-4.37.76-8.36,1.11c-.46,0-.7-.28-.7-.85a.64.64,0,0,1,.7-.71c1.41,0,2.75-.1,4-.23V95.51h-3.44c-.42,0-.62-.2-.62-.6a.55.55,0,0,1,.62-.63h3.44V92.86h-2.82a1,1,0,0,1-1.09-1.08V87.72a1,1,0,0,1,1.09-1.1h2.82V85.43h-4a.62.62,0,1,1,0-1.23h4V83c-1.5.11-2.55.16-3.15.16s-.78-.23-.78-.69.22-.62.65-.62c1.25,0,2.41-.07,3.49-.16A27.6,27.6,0,0,0,349.06,81.21Zm-6.56,7.91h2.58V87.86h-2.21c-.25,0-.37.16-.37.48Zm2.58,2.5V90.3H342.5v.84c0,.32.12.48.37.48Zm1.4-3.76v1.26h2.41v-.78q0-.48-.45-.48Zm2,3.76q.45,0,.45-.48V90.3h-2.41v1.32Zm3.12-6.81h1.8c.05-1,.08-2,.08-3,0-.43.23-.64.7-.64a.63.63,0,0,1,.7.72c0,1,0,2-.09,3h2.13q1.32,0,1.32,1.56c0,2.85-.07,5.46-.21,7.81a10.3,10.3,0,0,1-.8,4.09,2.11,2.11,0,0,1-1.9,1,5,5,0,0,1-1.85-.41c-.33-.16-.49-.36-.49-.6,0-.58.23-.86.7-.86a4.3,4.3,0,0,0,1.56.45c.5,0,.84-.3,1-.9a13.81,13.81,0,0,0,.43-3.36q.12-2.77.12-6.66c0-.48-.22-.73-.65-.73h-1.46q-.13,2-.39,3.93A27.78,27.78,0,0,1,351.39,99a.81.81,0,0,1-.61.33.69.69,0,0,1-.78-.78,1.76,1.76,0,0,1,.16-.49,26.48,26.48,0,0,0,2.75-8.38c.17-1.1.29-2.24.37-3.42h-1.72a.7.7,0,1,1,0-1.4Z"/><path class="cls-2" d="M372.42,90.26a3,3,0,0,1-.88,2.17,3.13,3.13,0,0,1-4.33,0,3,3,0,0,1-.88-2.17,3,3,0,1,1,6.09,0Zm-1.05,0a2,2,0,1,0-.59,1.4A1.93,1.93,0,0,0,371.37,90.26Z"/></g></g></svg>