<svg xmlns="http://www.w3.org/2000/svg" viewBox="0 0 250 146"><defs><style>.cls-1{fill:#c1bd31;opacity:0.8;}.cls-2{fill:#fff;}</style></defs><title>food_detail</title><g id="圖層_2" data-name="圖層 2"><g id="food_detail"><path class="cls-1" d="M215,0H35A35.1,35.1,0,0,0,0,35V88a35.1,35.1,0,0,0,35,35h72.39A95,95,0,0,0,125,146a95,95,0,0,0,17.61-23H215a35.1,35.1,0,0,0,35-35V35A35.1,35.1,0,0,0,215,0Z"/><path class="cls-2" d="M73.69,81.06c0,.09-.11.14-.26.14a13.51,13.51,0,0,1-2.17,5.11,5.7,5.7,0,0,0-.76-.43,11.58,11.58,0,0,0,2.09-5ZM75.79,78l1.1.05c0,.1-.08.16-.25.17v9.57c0,.63-.17.88-.57,1a9.12,9.12,0,0,1-2.31.16,3.6,3.6,0,0,0-.34-.85l1.43,0c.84,0,.94,0,.94-.33Zm5.28,8.52a20.14,20.14,0,0,0-2.35-5.45l.76-.3a19.65,19.65,0,0,1,2.44,5.39Z"/><path class="cls-2" d="M86.44,86.42A6.25,6.25,0,0,1,84.66,89L84,88.56a5.47,5.47,0,0,0,1.73-2.36Zm-1-.72V81.44c-.28.23-.58.47-.89.68a3.41,3.41,0,0,0-.6-.6,11,11,0,0,0,3.53-3.76l1,.18c0,.1-.09.17-.26.17L88,78.6H90.9l.13,0,.63.4a.24.24,0,0,1-.15.1,10.15,10.15,0,0,1-1.06,1.54H93.7v5.1Zm3.61-4.41H86.27v1.52H89.1Zm-2.83,2.18V85H89.1V83.47Zm3.2-2.87a8.08,8.08,0,0,0,1-1.32H87.51a14.31,14.31,0,0,1-1.12,1.32Zm-1.54,8.22a13.73,13.73,0,0,0-.25-2.31l.77-.06a12.91,12.91,0,0,1,.31,2.26Zm5-6V81.29h-3v1.52Zm0,2.19V83.47h-3V85ZM91,88.82a12.12,12.12,0,0,0-.84-2.3l.74-.15a13.11,13.11,0,0,1,.88,2.25Zm3.41.14a12,12,0,0,0-1.85-2.53l.72-.31a11.46,11.46,0,0,1,1.89,2.47Z"/><path class="cls-2" d="M149.67,82.21c.33.44,1.22,1.78,1.43,2.11l-.45.61c-.17-.4-.62-1.19-1-1.8v5.79h-.75V83.14a13,13,0,0,1-1.48,3.48,4.92,4.92,0,0,0-.42-.71,14.31,14.31,0,0,0,1.82-4.69h-1.58v-.75h1.66V77.79l1,.08c0,.07-.09.13-.24.15v2.45H151v.75h-1.37Zm6.4,5.61c0,.25.05.29.33.29h1c.25,0,.3-.11.33-1a1.63,1.63,0,0,0,.67.3c-.07,1.16-.28,1.44-.91,1.44H156.3c-.8,0-1-.21-1-1V86H154c-.19,1.53-.73,2.51-2.88,3a2.22,2.22,0,0,0-.44-.64c1.82-.38,2.39-1.06,2.55-2.37h-2.09v-.7h7.12V86h-2.21Zm-1.51-4.17,0,.54c-1.07.22-2.13.45-2.84.58a.2.2,0,0,1-.15.17l-.29-.77,1.38-.21V82.9h-1.15v-.61h1.15v-.92l.91.06c0,.07-.07.13-.23.15v.71h1.07v.61h-1.07v.95Zm3.64-3.09v.69h-6.88v-.69h3v-1H152v-.65h2.38V77.81l1,.06c0,.08-.09.14-.24.16v.84h2.49v.65h-2.49v1Zm-3.5,3.37h1.35v-1h-1.14v-.61h1.14v-.92l.92.06c0,.08-.07.13-.23.15v.71H158v.61h-1.24v1h1.42v.63H154.7Z"/><path class="cls-2" d="M163.68,84.53a10.51,10.51,0,0,0,2-3.79l.88.14c0,.07-.08.12-.21.14a14.5,14.5,0,0,1,1.89,3l-.58.45-.08-.19v4.41h-.7v-.54h-1.62v.73h-.67V84.46a5.33,5.33,0,0,1-.46.58,2,2,0,0,0-.48-.48v3.5c0,.84-.44.88-1.52.88a3.91,3.91,0,0,0-.23-.71h.55c.46,0,.51,0,.51-.18V84.82h-1.27A15.09,15.09,0,0,1,161,89a2.62,2.62,0,0,0-.6-.37,18.93,18.93,0,0,0,.7-6V78.26h2.59Zm-1.9-2c0,.47,0,1,0,1.52H163V81.88h-1.21ZM163,79h-1.21v2.16H163Zm3-.73c0,.08-.1.12-.24.11a9.48,9.48,0,0,1-1.31,2.73,5,5,0,0,0-.52-.38,8.67,8.67,0,0,0,1.23-2.7Zm1.6,5.85a17.42,17.42,0,0,0-1.46-2.38,12.29,12.29,0,0,1-1.23,2.38Zm-2.26,3.31h1.62v-2.6h-1.62ZM166.91,78a11.35,11.35,0,0,1,1.18,2.55l-.63.29a12.05,12.05,0,0,0-1.13-2.61Zm4.37.27v7.58c0,.78-.41.88-1.52.88a2.19,2.19,0,0,0-.26-.74c.22,0,.41,0,.56,0,.45,0,.5,0,.5-.17V79h-1.44V89h-.71V78.26Z"/><path class="cls-2" d="M176.18,83.31v-1.9a7,7,0,0,1-1.91,1.89,3,3,0,0,0-.48-.54,6.46,6.46,0,0,0,2.11-2H174v-.68h2.21V77.82l.94.06c0,.07-.07.13-.22.15v2h2.18v.68H176.9v.16c.49.29,1.9,1.21,2.24,1.48l-.44.59c-.34-.3-1.19-1-1.8-1.39v1.71Zm.69,2.09a5.77,5.77,0,0,1-.08.58c.74.52,1.64,1.22,2.13,1.65l-.54.55a17.16,17.16,0,0,0-1.82-1.5,4.37,4.37,0,0,1-2.31,2,3,3,0,0,0-.45-.61c1.76-.79,2.22-1.79,2.33-2.72H174v-.72h2.19V83.57l1,.06c0,.09-.07.15-.22.17v.88h2.23v.72Zm-2.05-7.21a4.68,4.68,0,0,1,.73,1.39l-.61.26a5.42,5.42,0,0,0-.71-1.43Zm2.68,1.44a9.2,9.2,0,0,0,.71-1.49l.83.31c0,.08-.12.1-.24.1a11.79,11.79,0,0,1-.76,1.32Zm4,7.7a.3.3,0,0,1-.22.09A7.42,7.42,0,0,1,178.86,89a3.07,3.07,0,0,0-.54-.54,7.1,7.1,0,0,0,2.39-1.5Zm-1.91-7h1.63c.11-.39.22-.84.3-1.24h-2.35v-.72H185v.72h-2.64a12.71,12.71,0,0,1-.36,1.24h2.57v6.31h-5Zm4.2,1.89V81h-3.45v1.24Zm0,1.87V82.87h-3.45v1.24Zm0,1.9V84.74h-3.45V86Zm-.67,1a14.13,14.13,0,0,1,2.1,1.55,6.55,6.55,0,0,0-.64.44,14,14,0,0,0-2.06-1.58Z"/><path class="cls-2" d="M100.21,33.64c-6.08-8.3-11.49.5-11.49.5,5.84,8.7,10.37,2.51,11.55.54,2.35,4.8,3-.55,3-.55C102.6,28.87,100.82,32.28,100.21,33.64Zm-8.6.73a1,1,0,1,1,.74-.94A.86.86,0,0,1,91.61,34.37Z"/><path class="cls-2" d="M97.1,57.27c-9.73-13.26-18.38.79-18.38.79,9.35,13.92,16.58,4,18.47.88,3.76,7.66,4.79-.89,4.79-.89C100.91,49.65,98.07,55.09,97.1,57.27ZM84,58.79a1.85,1.85,0,0,1-1.61-1l-.07-.12s0-.07,0-.11a2.09,2.09,0,0,1-.08-.23s0-.06,0-.09a2,2,0,0,1,0-.35,1.87,1.87,0,0,1,0-.34s0-.06,0-.09a1.55,1.55,0,0,1,.08-.23.56.56,0,0,1,0-.12L82.4,56A1.85,1.85,0,1,1,84,58.79Z"/><path class="cls-2" d="M63.77,42.21s.83,6.83,3.84.7c1.51,2.52,7.29,10.44,14.77-.7,0,0-6.93-11.24-14.71-.63C66.9,39.84,64.63,35.48,63.77,42.21Zm13.64-.9a1.27,1.27,0,1,1,1.27,1.27A1.27,1.27,0,0,1,77.41,41.31Z"/><path class="cls-2" d="M170.84,45.81c-.35-.4-1.13.94,0,1s2.06-1.6,2.06-1.6C171.7,45.55,171.2,46.22,170.84,45.81Z"/><path class="cls-2" d="M182,44.5c.09-4.23-1.81-5.14-2.67-5.34a4,4,0,0,0-.92-2.56,3.16,3.16,0,0,0-2-.85c-.17-.89-1-2.77-5.14-3-5.46-.27-6.9,1.3-8.14,1.38s-6.06.41-6.31.32-.74.26-.28.38,6.78.75,8.75.14,3.64-1.33,5.92-.86a4.3,4.3,0,0,1,3.05,1.9A21.48,21.48,0,0,0,169,38.6c-4.8,3-5.5,10.64-5.63,11.72s-5,4.87-6.06,5.3-3.74.13-3.74.3,2.75.22,2.68.37-4.71,1.48-4.6,1.52,3.42-.8,3.42-.65-4,2.26-3.63,2.22,5.06-2.65,5.18-2.52-3.49,3.06-3.28,3,2.58-2.07,3-2.46,2.24-1.76,2.68-1.37-3.63,3.54-4,3.91-.94,1.07-.69.87a31.14,31.14,0,0,1,3.17-2.47c.11.13-2.85,4.38-2.59,4.25s2.82-3.82,2.82-3.82-.28,1.11-.44,1.56a5.37,5.37,0,0,0-.26,1.35c.07-.2,1-2.58,1.14-3s.41-.73.41-.28a14.7,14.7,0,0,0,.23,2.52c.1-.11,0-1,0-2.17s.51-1.41,1.34-2.32a43.59,43.59,0,0,1,6.1-4.56c1-.48,2.31-.09,4-.7s6.47-4.43,7.76-6.12a8.12,8.12,0,0,0,1.17-3.54,4.7,4.7,0,0,1,1.38,2.94c.31,2.31-.53,3.92-1.27,5.84s-.54,8.27-.46,8.74.47,0,.4-.25.58-5,.75-6.28S181.89,50,182,44.5Zm-17,4.19c.67-2.87.77-4.69,2.06-6.08s3.41-3.74,3.78-3.3-3.22,3.82-3.78,5.47A21.82,21.82,0,0,1,165,48.69Zm10.28-3.91C174,45,174,46,172.9,47.3s-4.52,2.78-5.28,2.69-.08-.87.54-1.3.86-1.13,1.05-3.48,1.27-1.57,1.69-2.69a1.55,1.55,0,0,1,.18-.33c.57,1.37,1,2.62,1.78,2.06s1.66-1.86,2.49-2.06,1.71-2.53.72-2.2c-.76.25-2.1.36-3.22.57a10.34,10.34,0,0,1,3.47-1.78c1.11-.08,1.3,1.57,1.39,2.44S176.6,44.52,175.31,44.78Z"/></g></g></svg>