<svg xmlns="http://www.w3.org/2000/svg" viewBox="0 0 250 146"><defs><style>.cls-1{fill:#c1bd31;opacity:0.8;}.cls-2,.cls-3{fill:#fff;}.cls-3{opacity:0.6;}</style></defs><title>height_detail</title><g id="圖層_2" data-name="圖層 2"><g id="height_detail"><path class="cls-1" d="M215,0H35A35.1,35.1,0,0,0,0,35V88a35.1,35.1,0,0,0,35,35h72.39A95,95,0,0,0,125,146a95,95,0,0,0,17.61-23H215a35.1,35.1,0,0,0,35-35V35A35.1,35.1,0,0,0,215,0Z"/><path class="cls-2" d="M121.34,99.28A1.73,1.73,0,0,1,122.8,101a2,2,0,0,1-2.28,2,3,3,0,0,1-1.6-.44l.23-.57a2.69,2.69,0,0,0,1.38.4A1.37,1.37,0,0,0,122,101c0-1-.84-1.44-1.72-1.44h-.44V99h.44a1.38,1.38,0,0,0,1.49-1.25,1,1,0,0,0-1.17-1.09,2.2,2.2,0,0,0-1.23.44l-.22-.55a2.81,2.81,0,0,1,1.6-.5,1.59,1.59,0,0,1,1.78,1.59,1.69,1.69,0,0,1-1.22,1.59Z"/><path class="cls-2" d="M125,102.47a.54.54,0,1,1,1.07,0,.54.54,0,1,1-1.07,0Z"/><path class="cls-2" d="M129.16,99.35a1.69,1.69,0,0,1-1.06-1.52A1.77,1.77,0,0,1,130,96.08a1.65,1.65,0,0,1,1.81,1.63,1.76,1.76,0,0,1-1.11,1.6v0a1.94,1.94,0,0,1,1.35,1.77,2,2,0,0,1-2.13,1.93,1.88,1.88,0,0,1-2.08-1.8,2,2,0,0,1,1.31-1.85Zm2.13,1.84c0-.85-.57-1.28-1.46-1.57a1.59,1.59,0,0,0-1.21,1.51,1.28,1.28,0,0,0,1.32,1.35A1.26,1.26,0,0,0,131.29,101.19Zm-2.47-3.43c0,.72.5,1.12,1.25,1.34a1.43,1.43,0,0,0,1-1.32,1.05,1.05,0,0,0-1.1-1.15A1.09,1.09,0,0,0,128.82,97.76Z"/><line class="cls-2" x1="84.5" y1="85" x2="84.5" y2="97"/><path class="cls-2" d="M83.75,85V97a.75.75,0,0,0,1.5,0V85a.75.75,0,0,0-1.5,0Z"/><line class="cls-2" x1="167.5" y1="85" x2="167.5" y2="97"/><path class="cls-2" d="M166.75,85V97a.75.75,0,0,0,1.5,0V85a.75.75,0,0,0-1.5,0Z"/><line class="cls-2" x1="53" y1="91" x2="199" y2="91"/><path class="cls-2" d="M53,91.75H199a.75.75,0,0,0,0-1.5H53a.75.75,0,0,0,0,1.5Z"/><path class="cls-2" d="M217.46,93.15a3.86,3.86,0,0,1-1.63.34A2.79,2.79,0,0,1,213,90.43a3,3,0,0,1,3.07-3.2,3.31,3.31,0,0,1,1.44.32l-.23.73A2.46,2.46,0,0,0,216,88a2.15,2.15,0,0,0-2.11,2.4A2.11,2.11,0,0,0,216,92.74a2.84,2.84,0,0,0,1.29-.3Z"/><path class="cls-2" d="M228.14,93.37h-.9V89.9c0-1.16-.42-1.91-1.32-1.91a1.52,1.52,0,0,0-1.41,1.6v3.78h-.9v-3.7c0-1-.41-1.68-1.25-1.68a1.63,1.63,0,0,0-1.48,1.7v3.68H220V88.91c0-.61,0-1,0-1.55h.81l0,1h0a2,2,0,0,1,1.82-1.1,1.71,1.71,0,0,1,1.64,1.2h0a2.1,2.1,0,0,1,1.93-1.2c.74,0,1.9.47,1.9,2.53Z"/><circle class="cls-2" cx="31" cy="91" r="2"/><path class="cls-3" d="M167.59,30.38a.09.09,0,0,1,0-.05v0l0-.17a9.81,9.81,0,0,0-.35-1.42,4.51,4.51,0,0,0-.65-1.32,2.09,2.09,0,0,0-.24-.28l-.06-.07,0,0,0,0-.14-.12a2.23,2.23,0,0,0-.65-.37,2.56,2.56,0,0,0-.73-.15c-.24,0-.48,0-.72,0a1.21,1.21,0,0,1-.34-.05l-.09,0h0l0,0-.15-.1a5.8,5.8,0,0,1-.52-.48,6.05,6.05,0,0,0-1.12-.95,2.2,2.2,0,0,0-1.42-.3c-.25,0-.48.11-.71.15a1.7,1.7,0,0,1-.71,0c-.46-.11-.87-.38-1.34-.53a4.13,4.13,0,0,0-1.43-.24,3.32,3.32,0,0,0-1.43.28l-.17.08-.16.07a1,1,0,0,1-.34.07,1.51,1.51,0,0,0-.37.07,1.15,1.15,0,0,0-.17.06l-.17.07a6.41,6.41,0,0,0-.61.4l-.59.43c-.69.53-1.37,1.07-2.05,1.62l-.22.18h0c.77-.81,1.54-1.64,2.28-2.48l.56-.63.27-.33.25-.33.13-.18.11-.18c0-.07.06-.13.08-.2a1.6,1.6,0,0,0,.05-.21,2.16,2.16,0,0,0-.09-.85,1.49,1.49,0,0,1,0-.81l.06-.19.09-.19.18-.38c.12-.26.23-.52.36-.77l.37-.75c.5-1,1-2,1.51-3V15.5a5.45,5.45,0,0,0-.77-2.32,7.7,7.7,0,0,0-1.59-1.87A8.58,8.58,0,0,0,151.54,10a3.88,3.88,0,0,0-1.2-.34,1,1,0,0,0-.34,0,.36.36,0,0,0-.18.08.27.27,0,0,0-.08.07l0,.07a4.31,4.31,0,0,0-.3.55c-.35.74-.65,1.5-1,2.25s-.59,1.51-.88,2.27-.56,1.51-.84,2.28l-.8,2.25a2.18,2.18,0,0,0-.31.22,1.09,1.09,0,0,0-.28.36,3,3,0,0,0-.14.39c0,.12-.1.24-.16.36l-.1.18-.1.17c-.08.11-.15.22-.24.33l-.12.16a1.77,1.77,0,0,0-.12.17c0,.06-.08.11-.11.17l-.09.2a1.19,1.19,0,0,0-.08.2l-.06.2A2.7,2.7,0,0,0,144,23c0,.07,0,.14,0,.21v.21a1.36,1.36,0,0,0,0,.2l0,.21a2.83,2.83,0,0,0,.08.4c0,.14.08.27.12.4s.09.25.14.38.11.25.18.37h0c-.34.73-.92,1-2.19,2-1.43,1.11-7.1,5.07-10.05,5.81l-.25.06-.08,0-.24.07-.15,0-.12,0-1,.28h0a6.88,6.88,0,0,0-.84-1l-.47-.47-.49-.44-.51-.43-.51-.41-.54-.4-.54-.38c-.18-.13-.37-.24-.55-.36s-.38-.23-.57-.35l-.58-.32c-.19-.11-.4-.2-.6-.3l-.61-.26-.31-.11-.32-.1-.33-.07-.33-.06-.65-.1L121,28l-.34,0h-.33c-.11,0-.23,0-.34,0l-.17,0-.16.05a1.87,1.87,0,0,0-.31.17,1.79,1.79,0,0,0-.25.23c-.31.31-.61.64-.91,1s-.62.63-.94.93a10,10,0,0,1-1,.86l-.54.39-.27.19-.25.22-.26.21-.24.23-.47.47c-.29.33-.57.66-.83,1h0l.21-.25c-.14.17-.21.27-.21.27h0l-.77-.09c-2.84-.2-5.81.14-7.26.9s-2.35,1-3.11,1.94-5.81,5.94-6.43,6.57.07.62-.42,1.31a21.73,21.73,0,0,1-2.24,2.06,3.65,3.65,0,0,0-1.42.32,3.25,3.25,0,0,0-2,2.58l-.09.09c-.62.62-2.07,1.31-2.07,1.93s-1.11,1.25-1,1.8a1.42,1.42,0,0,1-.35,1.38,13,13,0,0,1-1.59,1.32L86,61.81a8.13,8.13,0,0,1-1.3-.65,2.62,2.62,0,0,0-2.27-.24c-.55.2-.53.89-.17,1.58a9.3,9.3,0,0,1,2.42,3.11c.42.9-.2,1.17,1.11,2.07a3.9,3.9,0,0,0,2.28,1,13.58,13.58,0,0,1,3.94,2.56c1,1,2.42,1.17,2.7,1.73s2.9,1,4.22,1.24,3.59,3.11,3.59,3.11,3-2.35,5.67-2.56,10-3,12.24-4.56,3.59-1.52,5.39-2.49a9.43,9.43,0,0,1,3.73-1,17.18,17.18,0,0,1-3.38-3.18,3.49,3.49,0,0,1-.27-1h.78c.13,0,.27,0,.39-.05l.2,0,.19,0,.38-.11.36-.15a3,3,0,0,0,.36-.16l.36-.17.68-.38.67-.42.32-.22.32-.23.31-.25a3.71,3.71,0,0,0,.29-.27h0a3.6,3.6,0,0,0,.06-.73,3.71,3.71,0,0,0-.07-.74,3,3,0,0,0-.21-.7,2.53,2.53,0,0,0-.16-.33c-.06-.11-.13-.21-.2-.32l-.24-.28-.26-.26a3.2,3.2,0,0,0-.61-.43,8.88,8.88,0,0,0-1.39-.5l-.33-.13-.08,0-.08,0-.13-.11a2.66,2.66,0,0,1-.44-.55,12.19,12.19,0,0,1-.68-1.29c-.2-.44-.39-.89-.59-1.34a1.73,1.73,0,0,0-.17-.33.16.16,0,0,0-.07-.07l-.1,0-.18,0a2.92,2.92,0,0,0-.73.08.38.38,0,0,1,0-.1,2.25,2.25,0,0,1,1.25-2.21.7.7,0,0,0,.06-.23l.06.24a4.68,4.68,0,0,0,.28.67c.14.28.34.61.57,1s.51.78.83,1.21.67.9,1.06,1.38l.63.71.17.18.1.08.11.08a4.81,4.81,0,0,1,.41.27c.55.38,1.11.79,1.7,1.18a4.34,4.34,0,0,0,.46.28,1.09,1.09,0,0,0,.25.1h.08l.06,0,.11-.08a6.91,6.91,0,0,0,.76-.77c.47-.54.92-1.11,1.34-1.67l.61-.86c.09-.15.19-.29.27-.44l.13-.23a.61.61,0,0,0,.05-.12.3.3,0,0,0,0-.15.94.94,0,0,0-.06-.27,1.6,1.6,0,0,0-.1-.23l-.24-.44c-.17-.28-.35-.54-.52-.79s-.36-.5-.54-.73l-.53-.65c-.66-.85-1.22-1.55-1.61-2l-.62-.77.24-.14.15-.1.36-.23.12-.08.27-.19.12-.08.35-.26.29-.21.11-.09.15-.12.13-.1.12-.09.13-.1.1-.09.12-.09a.39.39,0,0,1,.1-.08l.11-.09.08-.07.11-.1.07,0,.11-.1,0,0c.13-.12.25-.22.35-.33l0,0,.08-.08,0,0,.07-.07,0,0,.06-.07,0,0,.06-.07,0,0,.05-.07,0,0,.06-.07h0l0-.08h0a2.36,2.36,0,0,0,.35-1.12c.14-.92-.23-1.48,1.57-2.72,1.53-1.06,5.16-3.82,7.11-5.53l.09-.07.2-.18.09-.08.21-.19.07-.07.2-.2c1.48-1.47,2.58-2.9,3-2.9l1.12.23,1.12.21c.19,0,.38.07.55.12a3.06,3.06,0,0,1,.51.26c.32.19.64.41,1,.6a4.64,4.64,0,0,0,1,.49l.28.07.29,0,.28,0,.29,0c.38,0,.76,0,1.14.05h1.14c.38,0,.76,0,1.14,0l.57,0,.57,0c.38,0,.76-.06,1.14-.08l1.13-.07q.57,0,1.14-.06l1.14-.06.63,0,1.65,0,0,0h0l0,0a2.8,2.8,0,0,0,.32-.62,1.17,1.17,0,0,0,.05-.38A.27.27,0,0,0,167.59,30.38ZM146,19.56l0,0,.72-1.93Zm4.3-9.81.25.05a1.28,1.28,0,0,0-.55,0l0,0A1.14,1.14,0,0,1,150.33,9.75ZM125.58,59.89c0-.1,0-.21,0-.32,0,.11,0,.22,0,.32Zm-.22-2.13h0s0-.07,0-.11S125.36,57.72,125.36,57.76Zm0-.31s0-.07,0-.1S125.33,57.42,125.33,57.45Zm0,.36a.41.41,0,0,1,0,.11.41.41,0,0,0,0-.11Zm0,.27c0,.07,0,.15,0,.22S125.4,58.15,125.39,58.08Zm0,.39a2.11,2.11,0,0,1,0,.25A2.11,2.11,0,0,0,125.43,58.47Zm0,.36c0,.11,0,.22,0,.33C125.49,59.05,125.48,58.94,125.46,58.83Zm.05.39,0,.35Zm.08.75h0c0,.37.08.73.13,1.06h0C125.67,60.7,125.63,60.34,125.59,60Zm-.68-8v0Zm0,.23a.45.45,0,0,0,0,.11A.45.45,0,0,1,124.92,52.21Zm0,.27v0Zm3.38-4.15h0Zm1.62-.79h0Zm-1.21.6h0Zm-13-13.64h0Zm.27.08-.06,0Zm.25.07,0,0Zm.24.07h0Zm1,.32Zm.2.07,0,0Zm1.58.72,0,0Zm.16.09,0,0Zm.26.17h0Zm-.12-.09h0Zm-4.06-1.57h0Zm2.67.88,0,0Zm-.22-.09,0,0Zm.43.17h0Zm2,.94-.15,0Zm1.2-.26-.2,0Zm-.38.09-.19,0Zm-.48.1-.16,0Zm1.39-.31-.29.07Zm.4-.1-.22,0Zm.57-.14-.34.08Zm1-.27-.38.1Zm-.6.16-.23.06Zm1-.28-.23.07Zm1.06-.28-.21.06Zm-.48.13-.3.08Zm1.5-.41-.11,0Zm-.51.14-.14,0Zm-12.27-.81.1,0Zm.28,0,.08,0Zm.27,0h0Zm17.66,12.18Zm-18.37-12.3-.11,0Zm12,27h0c.07.54.15,1,.22,1.41h0C125.87,62.08,125.79,61.6,125.72,61.06Zm-.82-9.24v0Z"/><path class="cls-3" d="M113.39,34h0v0Z"/><polygon class="cls-3" points="113.4 33.97 113.4 33.97 113.4 33.97 113.4 33.97"/><path class="cls-3" d="M167.59,30.38a.09.09,0,0,1,0-.05v0l0-.17a9.81,9.81,0,0,0-.35-1.42,4.51,4.51,0,0,0-.65-1.32,2.09,2.09,0,0,0-.24-.28l-.06-.07,0,0,0,0-.14-.12a2.23,2.23,0,0,0-.65-.37,2.56,2.56,0,0,0-.73-.15c-.24,0-.48,0-.72,0a1.21,1.21,0,0,1-.34-.05l-.09,0h0l0,0-.15-.1a5.8,5.8,0,0,1-.52-.48,6.05,6.05,0,0,0-1.12-.95,2.2,2.2,0,0,0-1.42-.3c-.25,0-.48.11-.71.15a1.7,1.7,0,0,1-.71,0c-.46-.11-.87-.38-1.34-.53a4.13,4.13,0,0,0-1.43-.24,3.32,3.32,0,0,0-1.43.28l-.17.08-.16.07a1,1,0,0,1-.34.07,1.51,1.51,0,0,0-.37.07,1.15,1.15,0,0,0-.17.06l-.17.07a6.41,6.41,0,0,0-.61.4l-.59.43c-.69.53-1.37,1.07-2.05,1.62l-.22.18h0c.77-.81,1.54-1.64,2.28-2.48l.56-.63.27-.33.25-.33.13-.18.11-.18c0-.07.06-.13.08-.2a1.6,1.6,0,0,0,.05-.21,2.16,2.16,0,0,0-.09-.85,1.49,1.49,0,0,1,0-.81l.06-.19.09-.19.18-.38c.12-.26.23-.52.36-.77l.37-.75c.5-1,1-2,1.51-3V15.5a5.45,5.45,0,0,0-.77-2.32,7.7,7.7,0,0,0-1.59-1.87A8.58,8.58,0,0,0,151.54,10a3.88,3.88,0,0,0-1.2-.34,1,1,0,0,0-.34,0,.36.36,0,0,0-.18.08.27.27,0,0,0-.08.07l0,.07a4.31,4.31,0,0,0-.3.55c-.35.74-.65,1.5-1,2.25s-.59,1.51-.88,2.27-.56,1.51-.84,2.28l-.8,2.25a2.18,2.18,0,0,0-.31.22,1.09,1.09,0,0,0-.28.36,3,3,0,0,0-.14.39c0,.12-.1.24-.16.36l-.1.18-.1.17c-.08.11-.15.22-.24.33l-.12.16a1.77,1.77,0,0,0-.12.17c0,.06-.08.11-.11.17l-.09.2a1.19,1.19,0,0,0-.08.2l-.06.2A2.7,2.7,0,0,0,144,23c0,.07,0,.14,0,.21v.21a1.36,1.36,0,0,0,0,.2l0,.21a2.83,2.83,0,0,0,.08.4c0,.14.08.27.12.4s.09.25.14.38.11.25.18.37h0c-.34.73-.92,1-2.19,2-1.43,1.11-7.1,5.07-10.05,5.81l-.25.06-.08,0-.24.07-.15,0-.12,0-1,.28h0a6.88,6.88,0,0,0-.84-1l-.47-.47-.49-.44-.51-.43-.51-.41-.54-.4-.54-.38c-.18-.13-.37-.24-.55-.36s-.38-.23-.57-.35l-.58-.32c-.19-.11-.4-.2-.6-.3l-.61-.26-.31-.11-.32-.1-.33-.07-.33-.06-.65-.1L121,28l-.34,0h-.33c-.11,0-.23,0-.34,0l-.17,0-.16.05a1.87,1.87,0,0,0-.31.17,1.79,1.79,0,0,0-.25.23c-.31.31-.61.64-.91,1s-.62.63-.94.93a10,10,0,0,1-1,.86l-.54.39-.27.19-.25.22-.26.21-.24.23-.47.47c-.29.33-.57.66-.83,1h0l.21-.25c-.14.17-.21.27-.21.27h0l-.77-.09c-2.84-.2-5.81.14-7.26.9s-2.35,1-3.11,1.94-5.81,5.94-6.43,6.57.07.62-.42,1.31a21.73,21.73,0,0,1-2.24,2.06,3.65,3.65,0,0,0-1.42.32,3.25,3.25,0,0,0-2,2.58l-.09.09c-.62.62-2.07,1.31-2.07,1.93s-1.11,1.25-1,1.8a1.42,1.42,0,0,1-.35,1.38,13,13,0,0,1-1.59,1.32L86,61.81a8.13,8.13,0,0,1-1.3-.65,2.62,2.62,0,0,0-2.27-.24c-.55.2-.53.89-.17,1.58a9.3,9.3,0,0,1,2.42,3.11c.42.9-.2,1.17,1.11,2.07a3.9,3.9,0,0,0,2.28,1,13.58,13.58,0,0,1,3.94,2.56c1,1,2.42,1.17,2.7,1.73s2.9,1,4.22,1.24,3.59,3.11,3.59,3.11,3-2.35,5.67-2.56,10-3,12.24-4.56,3.59-1.52,5.39-2.49a9.43,9.43,0,0,1,3.73-1,17.18,17.18,0,0,1-3.38-3.18,3.49,3.49,0,0,1-.27-1h.78c.13,0,.27,0,.39-.05l.2,0,.19,0,.38-.11.36-.15a3,3,0,0,0,.36-.16l.36-.17.68-.38.67-.42.32-.22.32-.23.31-.25a3.71,3.71,0,0,0,.29-.27h0a3.6,3.6,0,0,0,.06-.73,3.71,3.71,0,0,0-.07-.74,3,3,0,0,0-.21-.7,2.53,2.53,0,0,0-.16-.33c-.06-.11-.13-.21-.2-.32l-.24-.28-.26-.26a3.2,3.2,0,0,0-.61-.43,8.88,8.88,0,0,0-1.39-.5l-.33-.13-.08,0-.08,0-.13-.11a2.66,2.66,0,0,1-.44-.55,12.19,12.19,0,0,1-.68-1.29c-.2-.44-.39-.89-.59-1.34a1.73,1.73,0,0,0-.17-.33.16.16,0,0,0-.07-.07l-.1,0-.18,0a2.92,2.92,0,0,0-.73.08.38.38,0,0,1,0-.1,2.25,2.25,0,0,1,1.25-2.21.7.7,0,0,0,.06-.23l.06.24a4.68,4.68,0,0,0,.28.67c.14.28.34.61.57,1s.51.78.83,1.21.67.9,1.06,1.38l.63.71.17.18.1.08.11.08a4.81,4.81,0,0,1,.41.27c.55.38,1.11.79,1.7,1.18a4.34,4.34,0,0,0,.46.28,1.09,1.09,0,0,0,.25.1h.08l.06,0,.11-.08a6.91,6.91,0,0,0,.76-.77c.47-.54.92-1.11,1.34-1.67l.61-.86c.09-.15.19-.29.27-.44l.13-.23a.61.61,0,0,0,.05-.12.3.3,0,0,0,0-.15.94.94,0,0,0-.06-.27,1.6,1.6,0,0,0-.1-.23l-.24-.44c-.17-.28-.35-.54-.52-.79s-.36-.5-.54-.73l-.53-.65c-.66-.85-1.22-1.55-1.61-2l-.62-.77.24-.14.15-.1.36-.23.12-.08.27-.19.12-.08.35-.26.29-.21.11-.09.15-.12.13-.1.12-.09.13-.1.1-.09.12-.09a.39.39,0,0,1,.1-.08l.11-.09.08-.07.11-.1.07,0,.11-.1,0,0c.13-.12.25-.22.35-.33l0,0,.08-.08,0,0,.07-.07,0,0,.06-.07,0,0,.06-.07,0,0,.05-.07,0,0,.06-.07h0l0-.08h0a2.36,2.36,0,0,0,.35-1.12c.14-.92-.23-1.48,1.57-2.72,1.53-1.06,5.16-3.82,7.11-5.53l.09-.07.2-.18.09-.08.21-.19.07-.07.2-.2c1.48-1.47,2.58-2.9,3-2.9l1.12.23,1.12.21c.19,0,.38.07.55.12a3.06,3.06,0,0,1,.51.26c.32.19.64.41,1,.6a4.64,4.64,0,0,0,1,.49l.28.07.29,0,.28,0,.29,0c.38,0,.76,0,1.14.05h1.14c.38,0,.76,0,1.14,0l.57,0,.57,0c.38,0,.76-.06,1.14-.08l1.13-.07q.57,0,1.14-.06l1.14-.06.63,0,1.65,0,0,0h0l0,0a2.8,2.8,0,0,0,.32-.62,1.17,1.17,0,0,0,.05-.38A.27.27,0,0,0,167.59,30.38ZM146,19.56l0,0,.72-1.93Zm4.3-9.81.25.05a1.28,1.28,0,0,0-.55,0l0,0A1.14,1.14,0,0,1,150.33,9.75ZM125.58,59.89c0-.1,0-.21,0-.32,0,.11,0,.22,0,.32Zm-.22-2.13h0s0-.07,0-.11S125.36,57.72,125.36,57.76Zm0-.31s0-.07,0-.1S125.33,57.42,125.33,57.45Zm0,.36a.41.41,0,0,1,0,.11.41.41,0,0,0,0-.11Zm0,.27c0,.07,0,.15,0,.22S125.4,58.15,125.39,58.08Zm0,.39a2.11,2.11,0,0,1,0,.25A2.11,2.11,0,0,0,125.43,58.47Zm0,.36c0,.11,0,.22,0,.33C125.49,59.05,125.48,58.94,125.46,58.83Zm.05.39,0,.35Zm.08.75h0c0,.37.08.73.13,1.06h0C125.67,60.7,125.63,60.34,125.59,60Zm-.68-8v0Zm0,.23a.45.45,0,0,0,0,.11A.45.45,0,0,1,124.92,52.21Zm0,.27v0Zm3.38-4.15h0Zm1.62-.79h0Zm-1.21.6h0Zm-13-13.64h0Zm.27.08-.06,0Zm.25.07,0,0Zm.24.07h0Zm1,.32Zm.2.07,0,0Zm1.58.72,0,0Zm.16.09,0,0Zm.26.17h0Zm-.12-.09h0Zm-4.06-1.57h0Zm2.67.88,0,0Zm-.22-.09,0,0Zm.43.17h0Zm2,.94-.15,0Zm1.2-.26-.2,0Zm-.38.09-.19,0Zm-.48.1-.16,0Zm1.39-.31-.29.07Zm.4-.1-.22,0Zm.57-.14-.34.08Zm1-.27-.38.1Zm-.6.16-.23.06Zm1-.28-.23.07Zm1.06-.28-.21.06Zm-.48.13-.3.08Zm1.5-.41-.11,0Zm-.51.14-.14,0Zm-12.27-.81.1,0Zm.28,0,.08,0Zm.27,0h0Zm17.66,12.18Zm-18.37-12.3-.11,0Zm12,27h0c.07.54.15,1,.22,1.41h0C125.87,62.08,125.79,61.6,125.72,61.06Zm-.82-9.24v0Z"/><path class="cls-3" d="M113.39,34h0v0Z"/><polygon class="cls-3" points="113.4 33.97 113.4 33.97 113.4 33.97 113.4 33.97"/><path class="cls-3" d="M167.59,30.38a.09.09,0,0,1,0-.05v0l0-.17a9.81,9.81,0,0,0-.35-1.42,4.51,4.51,0,0,0-.65-1.32,2.09,2.09,0,0,0-.24-.28l-.06-.07,0,0,0,0-.14-.12a2.23,2.23,0,0,0-.65-.37,2.56,2.56,0,0,0-.73-.15c-.24,0-.48,0-.72,0a1.21,1.21,0,0,1-.34-.05l-.09,0h0l0,0-.15-.1a5.8,5.8,0,0,1-.52-.48,6.05,6.05,0,0,0-1.12-.95,2.2,2.2,0,0,0-1.42-.3c-.25,0-.48.11-.71.15a1.7,1.7,0,0,1-.71,0c-.46-.11-.87-.38-1.34-.53a4.13,4.13,0,0,0-1.43-.24,3.32,3.32,0,0,0-1.43.28l-.17.08-.16.07a1,1,0,0,1-.34.07,1.51,1.51,0,0,0-.37.07,1.15,1.15,0,0,0-.17.06l-.17.07a6.41,6.41,0,0,0-.61.4l-.59.43c-.69.53-1.37,1.07-2.05,1.62l-.22.18h0c.77-.81,1.54-1.64,2.28-2.48l.56-.63.27-.33.25-.33.13-.18.11-.18c0-.07.06-.13.08-.2a1.6,1.6,0,0,0,.05-.21,2.16,2.16,0,0,0-.09-.85,1.49,1.49,0,0,1,0-.81l.06-.19.09-.19.18-.38c.12-.26.23-.52.36-.77l.37-.75c.5-1,1-2,1.51-3V15.5a5.45,5.45,0,0,0-.77-2.32,7.7,7.7,0,0,0-1.59-1.87A8.58,8.58,0,0,0,151.54,10a3.88,3.88,0,0,0-1.2-.34,1,1,0,0,0-.34,0,.36.36,0,0,0-.18.08.27.27,0,0,0-.08.07l0,.07a4.31,4.31,0,0,0-.3.55c-.35.74-.65,1.5-1,2.25s-.59,1.51-.88,2.27-.56,1.51-.84,2.28l-.8,2.25a2.18,2.18,0,0,0-.31.22,1.09,1.09,0,0,0-.28.36,3,3,0,0,0-.14.39c0,.12-.1.24-.16.36l-.1.18-.1.17c-.08.11-.15.22-.24.33l-.12.16a1.77,1.77,0,0,0-.12.17c0,.06-.08.11-.11.17l-.09.2a1.19,1.19,0,0,0-.08.2l-.06.2A2.7,2.7,0,0,0,144,23c0,.07,0,.14,0,.21v.21a1.36,1.36,0,0,0,0,.2l0,.21a2.83,2.83,0,0,0,.08.4c0,.14.08.27.12.4s.09.25.14.38.11.25.18.37h0c-.34.73-.92,1-2.19,2-1.43,1.11-7.1,5.07-10.05,5.81l-.25.06-.08,0-.24.07-.15,0-.12,0-1,.28h0a6.88,6.88,0,0,0-.84-1l-.47-.47-.49-.44-.51-.43-.51-.41-.54-.4-.54-.38c-.18-.13-.37-.24-.55-.36s-.38-.23-.57-.35l-.58-.32c-.19-.11-.4-.2-.6-.3l-.61-.26-.31-.11-.32-.1-.33-.07-.33-.06-.65-.1L121,28l-.34,0h-.33c-.11,0-.23,0-.34,0l-.17,0-.16.05a1.87,1.87,0,0,0-.31.17,1.79,1.79,0,0,0-.25.23c-.31.31-.61.64-.91,1s-.62.63-.94.93a10,10,0,0,1-1,.86l-.54.39-.27.19-.25.22-.26.21-.24.23-.47.47c-.29.33-.57.66-.83,1h0l.21-.25c-.14.17-.21.27-.21.27h0l-.77-.09c-2.84-.2-5.81.14-7.26.9s-2.35,1-3.11,1.94-5.81,5.94-6.43,6.57.07.62-.42,1.31a21.73,21.73,0,0,1-2.24,2.06,3.65,3.65,0,0,0-1.42.32,3.25,3.25,0,0,0-2,2.58l-.09.09c-.62.62-2.07,1.31-2.07,1.93s-1.11,1.25-1,1.8a1.42,1.42,0,0,1-.35,1.38,13,13,0,0,1-1.59,1.32L86,61.81a8.13,8.13,0,0,1-1.3-.65,2.62,2.62,0,0,0-2.27-.24c-.55.2-.53.89-.17,1.58a9.3,9.3,0,0,1,2.42,3.11c.42.9-.2,1.17,1.11,2.07a3.9,3.9,0,0,0,2.28,1,13.58,13.58,0,0,1,3.94,2.56c1,1,2.42,1.17,2.7,1.73s2.9,1,4.22,1.24,3.59,3.11,3.59,3.11,3-2.35,5.67-2.56,10-3,12.24-4.56,3.59-1.52,5.39-2.49a9.43,9.43,0,0,1,3.73-1,17.18,17.18,0,0,1-3.38-3.18,3.49,3.49,0,0,1-.27-1h.78c.13,0,.27,0,.39-.05l.2,0,.19,0,.38-.11.36-.15a3,3,0,0,0,.36-.16l.36-.17.68-.38.67-.42.32-.22.32-.23.31-.25a3.71,3.71,0,0,0,.29-.27h0a3.6,3.6,0,0,0,.06-.73,3.71,3.71,0,0,0-.07-.74,3,3,0,0,0-.21-.7,2.53,2.53,0,0,0-.16-.33c-.06-.11-.13-.21-.2-.32l-.24-.28-.26-.26a3.2,3.2,0,0,0-.61-.43,8.88,8.88,0,0,0-1.39-.5l-.33-.13-.08,0-.08,0-.13-.11a2.66,2.66,0,0,1-.44-.55,12.19,12.19,0,0,1-.68-1.29c-.2-.44-.39-.89-.59-1.34a1.73,1.73,0,0,0-.17-.33.16.16,0,0,0-.07-.07l-.1,0-.18,0a2.92,2.92,0,0,0-.73.08.38.38,0,0,1,0-.1,2.25,2.25,0,0,1,1.25-2.21.7.7,0,0,0,.06-.23l.06.24a4.68,4.68,0,0,0,.28.67c.14.28.34.61.57,1s.51.78.83,1.21.67.9,1.06,1.38l.63.71.17.18.1.08.11.08a4.81,4.81,0,0,1,.41.27c.55.38,1.11.79,1.7,1.18a4.34,4.34,0,0,0,.46.28,1.09,1.09,0,0,0,.25.1h.08l.06,0,.11-.08a6.91,6.91,0,0,0,.76-.77c.47-.54.92-1.11,1.34-1.67l.61-.86c.09-.15.19-.29.27-.44l.13-.23a.61.61,0,0,0,.05-.12.3.3,0,0,0,0-.15.94.94,0,0,0-.06-.27,1.6,1.6,0,0,0-.1-.23l-.24-.44c-.17-.28-.35-.54-.52-.79s-.36-.5-.54-.73l-.53-.65c-.66-.85-1.22-1.55-1.61-2l-.62-.77.24-.14.15-.1.36-.23.12-.08.27-.19.12-.08.35-.26.29-.21.11-.09.15-.12.13-.1.12-.09.13-.1.1-.09.12-.09a.39.39,0,0,1,.1-.08l.11-.09.08-.07.11-.1.07,0,.11-.1,0,0c.13-.12.25-.22.35-.33l0,0,.08-.08,0,0,.07-.07,0,0,.06-.07,0,0,.06-.07,0,0,.05-.07,0,0,.06-.07h0l0-.08h0a2.36,2.36,0,0,0,.35-1.12c.14-.92-.23-1.48,1.57-2.72,1.53-1.06,5.16-3.82,7.11-5.53l.09-.07.2-.18.09-.08.21-.19.07-.07.2-.2c1.48-1.47,2.58-2.9,3-2.9l1.12.23,1.12.21c.19,0,.38.07.55.12a3.06,3.06,0,0,1,.51.26c.32.19.64.41,1,.6a4.64,4.64,0,0,0,1,.49l.28.07.29,0,.28,0,.29,0c.38,0,.76,0,1.14.05h1.14c.38,0,.76,0,1.14,0l.57,0,.57,0c.38,0,.76-.06,1.14-.08l1.13-.07q.57,0,1.14-.06l1.14-.06.63,0,1.65,0,0,0h0l0,0a2.8,2.8,0,0,0,.32-.62,1.17,1.17,0,0,0,.05-.38A.27.27,0,0,0,167.59,30.38ZM146,19.56l0,0,.72-1.93Zm4.3-9.81.25.05a1.28,1.28,0,0,0-.55,0l0,0A1.14,1.14,0,0,1,150.33,9.75ZM125.58,59.89c0-.1,0-.21,0-.32,0,.11,0,.22,0,.32Zm-.22-2.13h0s0-.07,0-.11S125.36,57.72,125.36,57.76Zm0-.31s0-.07,0-.1S125.33,57.42,125.33,57.45Zm0,.36a.41.41,0,0,1,0,.11.41.41,0,0,0,0-.11Zm0,.27c0,.07,0,.15,0,.22S125.4,58.15,125.39,58.08Zm0,.39a2.11,2.11,0,0,1,0,.25A2.11,2.11,0,0,0,125.43,58.47Zm0,.36c0,.11,0,.22,0,.33C125.49,59.05,125.48,58.94,125.46,58.83Zm.05.39,0,.35Zm.08.75h0c0,.37.08.73.13,1.06h0C125.67,60.7,125.63,60.34,125.59,60Zm-.68-8v0Zm0,.23a.45.45,0,0,0,0,.11A.45.45,0,0,1,124.92,52.21Zm0,.27v0Zm3.38-4.15h0Zm1.62-.79h0Zm-1.21.6h0Zm-13-13.64h0Zm.27.08-.06,0Zm.25.07,0,0Zm.24.07h0Zm1,.32Zm.2.07,0,0Zm1.58.72,0,0Zm.16.09,0,0Zm.26.17h0Zm-.12-.09h0Zm-4.06-1.57h0Zm2.67.88,0,0Zm-.22-.09,0,0Zm.43.17h0Zm2,.94-.15,0Zm1.2-.26-.2,0Zm-.38.09-.19,0Zm-.48.1-.16,0Zm1.39-.31-.29.07Zm.4-.1-.22,0Zm.57-.14-.34.08Zm1-.27-.38.1Zm-.6.16-.23.06Zm1-.28-.23.07Zm1.06-.28-.21.06Zm-.48.13-.3.08Zm1.5-.41-.11,0Zm-.51.14-.14,0Zm-12.27-.81.1,0Zm.28,0,.08,0Zm.27,0h0Zm17.66,12.18Zm-18.37-12.3-.11,0Zm12,27h0c.07.54.15,1,.22,1.41h0C125.87,62.08,125.79,61.6,125.72,61.06Zm-.82-9.24v0Z"/><path class="cls-3" d="M113.39,34h0v0Z"/><polygon class="cls-3" points="113.4 33.97 113.4 33.97 113.4 33.97 113.4 33.97"/><path class="cls-3" d="M167.59,30.38a.09.09,0,0,1,0-.05v0l0-.17a9.81,9.81,0,0,0-.35-1.42,4.51,4.51,0,0,0-.65-1.32,2.09,2.09,0,0,0-.24-.28l-.06-.07,0,0,0,0-.14-.12a2.23,2.23,0,0,0-.65-.37,2.56,2.56,0,0,0-.73-.15c-.24,0-.48,0-.72,0a1.21,1.21,0,0,1-.34-.05l-.09,0h0l0,0-.15-.1a5.8,5.8,0,0,1-.52-.48,6.05,6.05,0,0,0-1.12-.95,2.2,2.2,0,0,0-1.42-.3c-.25,0-.48.11-.71.15a1.7,1.7,0,0,1-.71,0c-.46-.11-.87-.38-1.34-.53a4.13,4.13,0,0,0-1.43-.24,3.32,3.32,0,0,0-1.43.28l-.17.08-.16.07a1,1,0,0,1-.34.07,1.51,1.51,0,0,0-.37.07,1.15,1.15,0,0,0-.17.06l-.17.07a6.41,6.41,0,0,0-.61.4l-.59.43c-.69.53-1.37,1.07-2.05,1.62l-.22.18h0c.77-.81,1.54-1.64,2.28-2.48l.56-.63.27-.33.25-.33.13-.18.11-.18c0-.07.06-.13.08-.2a1.6,1.6,0,0,0,.05-.21,2.16,2.16,0,0,0-.09-.85,1.49,1.49,0,0,1,0-.81l.06-.19.09-.19.18-.38c.12-.26.23-.52.36-.77l.37-.75c.5-1,1-2,1.51-3V15.5a5.45,5.45,0,0,0-.77-2.32,7.7,7.7,0,0,0-1.59-1.87A8.58,8.58,0,0,0,151.54,10a3.88,3.88,0,0,0-1.2-.34,1,1,0,0,0-.34,0,.36.36,0,0,0-.18.08.27.27,0,0,0-.08.07l0,.07a4.31,4.31,0,0,0-.3.55c-.35.74-.65,1.5-1,2.25s-.59,1.51-.88,2.27-.56,1.51-.84,2.28l-.8,2.25a2.18,2.18,0,0,0-.31.22,1.09,1.09,0,0,0-.28.36,3,3,0,0,0-.14.39c0,.12-.1.24-.16.36l-.1.18-.1.17c-.08.11-.15.22-.24.33l-.12.16a1.77,1.77,0,0,0-.12.17c0,.06-.08.11-.11.17l-.09.2a1.19,1.19,0,0,0-.08.2l-.06.2A2.7,2.7,0,0,0,144,23c0,.07,0,.14,0,.21v.21a1.36,1.36,0,0,0,0,.2l0,.21a2.83,2.83,0,0,0,.08.4c0,.14.08.27.12.4s.09.25.14.38.11.25.18.37h0c-.34.73-.92,1-2.19,2-1.43,1.11-7.1,5.07-10.05,5.81l-.25.06-.08,0-.24.07-.15,0-.12,0-1,.28h0a6.88,6.88,0,0,0-.84-1l-.47-.47-.49-.44-.51-.43-.51-.41-.54-.4-.54-.38c-.18-.13-.37-.24-.55-.36s-.38-.23-.57-.35l-.58-.32c-.19-.11-.4-.2-.6-.3l-.61-.26-.31-.11-.32-.1-.33-.07-.33-.06-.65-.1L121,28l-.34,0h-.33c-.11,0-.23,0-.34,0l-.17,0-.16.05a1.87,1.87,0,0,0-.31.17,1.79,1.79,0,0,0-.25.23c-.31.31-.61.64-.91,1s-.62.63-.94.93a10,10,0,0,1-1,.86l-.54.39-.27.19-.25.22-.26.21-.24.23-.47.47c-.29.33-.57.66-.83,1h0l.21-.25c-.14.17-.21.27-.21.27h0l-.77-.09c-2.84-.2-5.81.14-7.26.9s-2.35,1-3.11,1.94-5.81,5.94-6.43,6.57.07.62-.42,1.31a21.73,21.73,0,0,1-2.24,2.06,3.65,3.65,0,0,0-1.42.32,3.25,3.25,0,0,0-2,2.58l-.09.09c-.62.62-2.07,1.31-2.07,1.93s-1.11,1.25-1,1.8a1.42,1.42,0,0,1-.35,1.38,13,13,0,0,1-1.59,1.32L86,61.81a8.13,8.13,0,0,1-1.3-.65,2.62,2.62,0,0,0-2.27-.24c-.55.2-.53.89-.17,1.58a9.3,9.3,0,0,1,2.42,3.11c.42.9-.2,1.17,1.11,2.07a3.9,3.9,0,0,0,2.28,1,13.58,13.58,0,0,1,3.94,2.56c1,1,2.42,1.17,2.7,1.73s2.9,1,4.22,1.24,3.59,3.11,3.59,3.11,3-2.35,5.67-2.56,10-3,12.24-4.56,3.59-1.52,5.39-2.49a9.43,9.43,0,0,1,3.73-1,17.18,17.18,0,0,1-3.38-3.18,3.49,3.49,0,0,1-.27-1h.78c.13,0,.27,0,.39-.05l.2,0,.19,0,.38-.11.36-.15a3,3,0,0,0,.36-.16l.36-.17.68-.38.67-.42.32-.22.32-.23.31-.25a3.71,3.71,0,0,0,.29-.27h0a3.6,3.6,0,0,0,.06-.73,3.71,3.71,0,0,0-.07-.74,3,3,0,0,0-.21-.7,2.53,2.53,0,0,0-.16-.33c-.06-.11-.13-.21-.2-.32l-.24-.28-.26-.26a3.2,3.2,0,0,0-.61-.43,8.88,8.88,0,0,0-1.39-.5l-.33-.13-.08,0-.08,0-.13-.11a2.66,2.66,0,0,1-.44-.55,12.19,12.19,0,0,1-.68-1.29c-.2-.44-.39-.89-.59-1.34a1.73,1.73,0,0,0-.17-.33.16.16,0,0,0-.07-.07l-.1,0-.18,0a2.92,2.92,0,0,0-.73.08.38.38,0,0,1,0-.1,2.25,2.25,0,0,1,1.25-2.21.7.7,0,0,0,.06-.23l.06.24a4.68,4.68,0,0,0,.28.67c.14.28.34.61.57,1s.51.78.83,1.21.67.9,1.06,1.38l.63.71.17.18.1.08.11.08a4.81,4.81,0,0,1,.41.27c.55.38,1.11.79,1.7,1.18a4.34,4.34,0,0,0,.46.28,1.09,1.09,0,0,0,.25.1h.08l.06,0,.11-.08a6.91,6.91,0,0,0,.76-.77c.47-.54.92-1.11,1.34-1.67l.61-.86c.09-.15.19-.29.27-.44l.13-.23a.61.61,0,0,0,.05-.12.3.3,0,0,0,0-.15.94.94,0,0,0-.06-.27,1.6,1.6,0,0,0-.1-.23l-.24-.44c-.17-.28-.35-.54-.52-.79s-.36-.5-.54-.73l-.53-.65c-.66-.85-1.22-1.55-1.61-2l-.62-.77.24-.14.15-.1.36-.23.12-.08.27-.19.12-.08.35-.26.29-.21.11-.09.15-.12.13-.1.12-.09.13-.1.1-.09.12-.09a.39.39,0,0,1,.1-.08l.11-.09.08-.07.11-.1.07,0,.11-.1,0,0c.13-.12.25-.22.35-.33l0,0,.08-.08,0,0,.07-.07,0,0,.06-.07,0,0,.06-.07,0,0,.05-.07,0,0,.06-.07h0l0-.08h0a2.36,2.36,0,0,0,.35-1.12c.14-.92-.23-1.48,1.57-2.72,1.53-1.06,5.16-3.82,7.11-5.53l.09-.07.2-.18.09-.08.21-.19.07-.07.2-.2c1.48-1.47,2.58-2.9,3-2.9l1.12.23,1.12.21c.19,0,.38.07.55.12a3.06,3.06,0,0,1,.51.26c.32.19.64.41,1,.6a4.64,4.64,0,0,0,1,.49l.28.07.29,0,.28,0,.29,0c.38,0,.76,0,1.14.05h1.14c.38,0,.76,0,1.14,0l.57,0,.57,0c.38,0,.76-.06,1.14-.08l1.13-.07q.57,0,1.14-.06l1.14-.06.63,0,1.65,0,0,0h0l0,0a2.8,2.8,0,0,0,.32-.62,1.17,1.17,0,0,0,.05-.38A.27.27,0,0,0,167.59,30.38ZM146,19.56l0,0,.72-1.93Zm4.3-9.81.25.05a1.28,1.28,0,0,0-.55,0l0,0A1.14,1.14,0,0,1,150.33,9.75ZM125.58,59.89c0-.1,0-.21,0-.32,0,.11,0,.22,0,.32Zm-.22-2.13h0s0-.07,0-.11S125.36,57.72,125.36,57.76Zm0-.31s0-.07,0-.1S125.33,57.42,125.33,57.45Zm0,.36a.41.41,0,0,1,0,.11.41.41,0,0,0,0-.11Zm0,.27c0,.07,0,.15,0,.22S125.4,58.15,125.39,58.08Zm0,.39a2.11,2.11,0,0,1,0,.25A2.11,2.11,0,0,0,125.43,58.47Zm0,.36c0,.11,0,.22,0,.33C125.49,59.05,125.48,58.94,125.46,58.83Zm.05.39,0,.35Zm.08.75h0c0,.37.08.73.13,1.06h0C125.67,60.7,125.63,60.34,125.59,60Zm-.68-8v0Zm0,.23a.45.45,0,0,0,0,.11A.45.45,0,0,1,124.92,52.21Zm0,.27v0Zm3.38-4.15h0Zm1.62-.79h0Zm-1.21.6h0Zm-13-13.64h0Zm.27.08-.06,0Zm.25.07,0,0Zm.24.07h0Zm1,.32Zm.2.07,0,0Zm1.58.72,0,0Zm.16.09,0,0Zm.26.17h0Zm-.12-.09h0Zm-4.06-1.57h0Zm2.67.88,0,0Zm-.22-.09,0,0Zm.43.17h0Zm2,.94-.15,0Zm1.2-.26-.2,0Zm-.38.09-.19,0Zm-.48.1-.16,0Zm1.39-.31-.29.07Zm.4-.1-.22,0Zm.57-.14-.34.08Zm1-.27-.38.1Zm-.6.16-.23.06Zm1-.28-.23.07Zm1.06-.28-.21.06Zm-.48.13-.3.08Zm1.5-.41-.11,0Zm-.51.14-.14,0Zm-12.27-.81.1,0Zm.28,0,.08,0Zm.27,0h0Zm17.66,12.18Zm-18.37-12.3-.11,0Zm12,27h0c.07.54.15,1,.22,1.41h0C125.87,62.08,125.79,61.6,125.72,61.06Zm-.82-9.24v0Z"/><path class="cls-3" d="M113.39,34h0v0Z"/><polygon class="cls-3" points="113.4 33.97 113.4 33.97 113.4 33.97 113.4 33.97"/></g></g></svg>