<svg xmlns="http://www.w3.org/2000/svg" viewBox="0 0 148.83 22.19"><defs><style>.cls-1{fill:#f1ecce;}</style></defs><title>detail_01</title><g id="圖層_2" data-name="圖層 2"><g id="detail_01"><path class="cls-1" d="M1.59,4.38H8c.7,0,1,.48,1,1.45a8,8,0,0,1-.33,1.92A20.81,20.81,0,0,1,7.3,11.63a18.88,18.88,0,0,1-2.11,3.52A14.87,14.87,0,0,1,1.5,18.72a1.07,1.07,0,0,1-.45.24q-1,0-1-1.14A1,1,0,0,1,.64,17a16.19,16.19,0,0,0,3.05-2.85,18.47,18.47,0,0,0,2.07-3.38A18.4,18.4,0,0,0,6.92,7.37a4.7,4.7,0,0,0,.22-1c0-.19,0-.28-.1-.28H1.59a.76.76,0,0,1-.85-.86A.75.75,0,0,1,1.59,4.38ZM11.58,0a.85.85,0,0,1,1,1V3.83A39.35,39.35,0,0,0,14,7.9a31.84,31.84,0,0,0,5.78-4.57.74.74,0,0,1,.69-.45.75.75,0,0,1,.85.85,1.9,1.9,0,0,1-.4,1.05,32.81,32.81,0,0,1-6.09,4.64.28.28,0,0,1-.12.05,30.62,30.62,0,0,0,2.81,4.35,24,24,0,0,0,4.66,4.54c.36.26.55.52.55.79a1,1,0,0,1-1,1.14,2.17,2.17,0,0,1-1.05-.38,26.76,26.76,0,0,1-5.18-5.83A19.49,19.49,0,0,1,13,9.37a13.23,13.23,0,0,1-.47-1.26v11.7c0,1.59-.92,2.38-2.76,2.38A11.62,11.62,0,0,1,6,21.31a.84.84,0,0,1-.66-.85c0-.61.27-.92.76-.95a2,2,0,0,1,.59.11,13.69,13.69,0,0,0,3.1.74c.63,0,1-.35,1-1.05V1C10.73.32,11,0,11.58,0Z"/><path class="cls-1" d="M25.76,6.87a1,1,0,0,1,.6.27,16.93,16.93,0,0,1,2.28,2.28,1.54,1.54,0,0,1,.17.59c0,.57-.32.86-1,.86a.72.72,0,0,1-.45-.19A27.18,27.18,0,0,0,25,8.28a1.14,1.14,0,0,1-.19-.45A.85.85,0,0,1,25.76,6.87ZM28,12.77c.58,0,.86.32.86,1a24.63,24.63,0,0,1-.71,3.79,22.57,22.57,0,0,1-1.38,3.73.92.92,0,0,1-.86.55c-.57,0-.85-.25-.85-.74a1.14,1.14,0,0,1,.11-.4,22,22,0,0,0,1.34-3.38,39.11,39.11,0,0,0,.85-3.95A.6.6,0,0,1,28,12.77ZM26.9.88a1,1,0,0,1,.6.26,18.24,18.24,0,0,1,2.09,2.19,1.54,1.54,0,0,1,.17.59c0,.58-.32.86-1,.86a.73.73,0,0,1-.46-.19C27.66,3.8,26.93,3,26.17,2.28A1.06,1.06,0,0,1,26,1.83.84.84,0,0,1,26.9.88ZM45.48,11.32c.49,0,.74.26.74.78s-.25.84-.74.84H39.11a18.74,18.74,0,0,0,3,3,31.76,31.76,0,0,0,4.28,2.93.84.84,0,0,1,.57.83,1.08,1.08,0,0,1-.19.62.78.78,0,0,1-.67.33,1.58,1.58,0,0,1-.76-.23A41.53,41.53,0,0,1,42,17.89a30,30,0,0,1-3-3v6.38c0,.59-.32.88-1,.88a.77.77,0,0,1-.86-.88V14.87a24.17,24.17,0,0,1-2.07,2.26,24.34,24.34,0,0,1-4.31,3.23,2.1,2.1,0,0,1-.45.17c-.57,0-.85-.32-.85-1a.86.86,0,0,1,.54-.86,23.66,23.66,0,0,0,4.57-3.31,13.67,13.67,0,0,0,2.16-2.47H31.3c-.5,0-.76-.28-.76-.84a.68.68,0,0,1,.76-.78h5.88V9.42A.76.76,0,0,1,38,8.56c.63,0,1,.29,1,.86v1.9ZM32,.78H44.31a1.82,1.82,0,0,1,1.53.68,2.88,2.88,0,0,1,.38,1.61c0,.73,0,1.55-.1,2.47a1,1,0,0,1-1,.67.76.76,0,0,1-.86-.86q.21-1.71.21-2.19a.67.67,0,0,0-.76-.76H41.39V7.33c0,.39.16.59.47.59h3c.57,0,.86.26.86.77a.76.76,0,0,1-.86.85H41.39a1.5,1.5,0,0,1-1.71-1.69V2.4H36.25a.73.73,0,0,1,.38.67A9,9,0,0,1,35.2,7.33a10.18,10.18,0,0,1-2.85,2.52,1.24,1.24,0,0,1-.67.19c-.52,0-.78-.3-.78-.88a.62.62,0,0,1,.28-.45,11.35,11.35,0,0,0,2.67-2.24A7,7,0,0,0,35.09,2.9a.51.51,0,0,1,.3-.5H32.8a.67.67,0,0,0-.76.76V5.45a.75.75,0,0,1-.86.85.74.74,0,0,1-.83-.85V2.5A1.51,1.51,0,0,1,32,.78Z"/><path class="cls-1" d="M61.8,6.18a1.57,1.57,0,0,1-.5,1.17,1.57,1.57,0,0,1-1.17.5A1.55,1.55,0,0,1,59,7.35a1.54,1.54,0,0,1-.5-1.17A1.52,1.52,0,0,1,59,5a1.55,1.55,0,0,1,1.16-.5A1.57,1.57,0,0,1,61.3,5,1.55,1.55,0,0,1,61.8,6.18Zm0,8.92A1.65,1.65,0,0,1,59,16.27a1.61,1.61,0,0,1,0-2.33,1.55,1.55,0,0,1,1.16-.5,1.57,1.57,0,0,1,1.17.5A1.55,1.55,0,0,1,61.8,15.1Z"/><path class="cls-1" d="M85.44,10.87a14.73,14.73,0,0,1-1,6,5,5,0,0,1-9.16,0,14.55,14.55,0,0,1-1-6,14.45,14.45,0,0,1,1-6,5,5,0,0,1,9.16,0A14.7,14.7,0,0,1,85.44,10.87Zm-1.71,0q0-7.51-3.93-7.52t-3.9,7.52c0,5,1.3,7.49,3.9,7.49S83.73,15.87,83.73,10.87Z"/><path class="cls-1" d="M100,10.09a2,2,0,0,1-.38,1,3.69,3.69,0,0,1-3,1.93A6.13,6.13,0,0,1,94,12a7.85,7.85,0,0,0-2.24-1,2.09,2.09,0,0,0-1.57,1c-.51.67-.89,1-1.14,1-.48,0-.71-.26-.71-.78a1.78,1.78,0,0,1,.31-.84A4.76,4.76,0,0,1,90,10.06a3.17,3.17,0,0,1,1.76-.66,3.3,3.3,0,0,1,1.55.45,18.91,18.91,0,0,0,3.3,1.57,2.18,2.18,0,0,0,1.57-1c.53-.68.89-1,1.1-1C99.73,9.4,100,9.63,100,10.09Z"/><path class="cls-1" d="M113.91,13.42A6.84,6.84,0,0,1,112.42,18a5.63,5.63,0,0,1-8.07.43A3.63,3.63,0,0,1,103,16.15a.77.77,0,0,1,.85-.88c.3,0,.55.21.74.62a3.85,3.85,0,0,0,6.59.93,5.57,5.57,0,0,0,1-3.4,5.15,5.15,0,0,0-.79-2.93,2.89,2.89,0,0,0-2.54-1.36,4.61,4.61,0,0,0-3.57,1.62l-.57.69a1.09,1.09,0,0,1-.71.45c-.5,0-.74-.38-.74-1.14V2.94c0-.55.26-.82.78-.82h8.35c.67,0,1,.27,1,.82s-.33.79-1,.79h-6.78c-.42,0-.64.2-.64.6V9.21a4.81,4.81,0,0,1,3.88-1.69,4.56,4.56,0,0,1,3.8,1.78A6.5,6.5,0,0,1,113.91,13.42Z"/><path class="cls-1" d="M129.09,10.87a14.55,14.55,0,0,1-1.05,6,4.94,4.94,0,0,1-9.15,0,14.55,14.55,0,0,1-1-6,14.45,14.45,0,0,1,1-6,5,5,0,0,1,9.15,0A14.52,14.52,0,0,1,129.09,10.87Zm-1.71,0q0-7.51-3.93-7.52t-3.9,7.52c0,5,1.3,7.49,3.9,7.49S127.38,15.87,127.38,10.87Z"/><path class="cls-1" d="M148.83,18.89c0,.69-.28,1-.85,1s-.88-.35-.88-1V11.2a1.92,1.92,0,0,0-.74-1.52A2.48,2.48,0,0,0,144.72,9a3.33,3.33,0,0,0-2.17.71,2.62,2.62,0,0,0-1.16,1.79v7.35c0,.69-.3,1-.88,1s-.83-.35-.83-1V11.54a2.39,2.39,0,0,0-.88-1.69A2.65,2.65,0,0,0,137,9a3.12,3.12,0,0,0-2.26,1,2.94,2.94,0,0,0-1.07,1.88v7c0,.69-.28,1-.83,1s-.9-.35-.9-1V8.35c0-.7.28-1,.85-1a.79.79,0,0,1,.83.69,7,7,0,0,1,.05,1.22,3.89,3.89,0,0,1,5.38-1.34,3.46,3.46,0,0,1,1.45,1.53,4.87,4.87,0,0,1,4.21-2.1,4.14,4.14,0,0,1,2.85,1.14,3.6,3.6,0,0,1,1.26,2.76Z"/></g></g></svg>