<svg xmlns="http://www.w3.org/2000/svg" viewBox="0 0 250 146"><defs><style>.cls-1{fill:#cac529;opacity:0.8;}.cls-2,.cls-3{fill:#fff;}.cls-3{font-size:12px;font-family:TsukuBRdGothic-Bold-83pv-RKSJ-H, Tsukushi B Round Gothic;font-weight:700;letter-spacing:0.11em;}</style></defs><title>food_detail</title><g id="圖層_2" data-name="圖層 2"><g id="food_detail"><path class="cls-1" d="M215,0H35A35.1,35.1,0,0,0,0,35V88a35.1,35.1,0,0,0,35,35h72.39A95,95,0,0,0,125,146a95,95,0,0,0,17.61-23H215a35.1,35.1,0,0,0,35-35V35A35.1,35.1,0,0,0,215,0Z"/><path class="cls-2" d="M68,46.42a1.64,1.64,0,0,0-.6-.42C66,48.17,63,52.94,62,53.85h0a1.84,1.84,0,0,0-.85-.63c3.12-3.6,6-6.95,6.89-8.31,2.43-3.5-1.09-8.83-6.06-7a5.28,5.28,0,0,0-1.65,1.14,4,4,0,0,0-5.23-2.65c-1.3.39-2.06,2.08-2.5,4.17a1.4,1.4,0,0,0-.42-.35c-2.75-1.49-2.59-1.91-4.21.88a7.68,7.68,0,0,0-.63,2.06,8.37,8.37,0,0,0-1.89.4,1,1,0,0,0-.37.17c0-1.66-.34-3.09-1.27-3.65-2-1.24-3.67-.34-4.33.9a4.66,4.66,0,0,0-1.07-1.2c-3.47-2.41-6.91.87-5.6,4,.51,1.21,2.15,4.33,4,7.69a1.32,1.32,0,0,0-.74.29h0a58.31,58.31,0,0,1-2.88-7,1.18,1.18,0,0,0-.52.19c-3.62,2.4-3.3,1.9-3,4.51s8.22,9.84,8.22,9.84L39,59.1c.82,1.26,1.49,2.25,1.49,2.25l1.66-.16c.55,1,.89,1.6.89,1.6l2.23.14-.58,1.13,5.88,1.24,1.52-1.71,2,.78s1.09-1,2.44-2.32l1.39.65s11.86-6.47,12.78-9.54S72,50.7,68,46.42ZM61.7,39.85a1.53,1.53,0,0,1,.87-.77.37.37,0,0,1,.21-.37c.83-.5,3.44,1.47,3.44,1.47A6.71,6.71,0,0,1,67,41.31a3.22,3.22,0,0,1,.45,1.57,1.41,1.41,0,0,1-.13.69s0,.07,0,.11c-.56,1.15-2.26,1.22-3.81.16S61.14,41,61.7,39.85Zm-25.44,3.3c-1,.89-2.11,1.19-2.43.67a.93.93,0,0,1,0-.69.19.19,0,0,1-.11,0c-.28-.16-.3-1.41,1.22-2.5,0,0,2.26-.94,2.81-.4.21.21.12.41-.1.62A3.26,3.26,0,0,1,36.26,43.15Zm.44,9.27c1.42-1,1.14.09.41.81S35.25,53.46,36.7,52.42ZM32.11,48.5c-1.21,1.07-1.45,1.22-1.76.76s.77-1.94.77-1.94c.88-1.16,2.14-1.49,2.26-1.21S33.32,47.42,32.11,48.5Zm5.17,8.77c-.65-.58-1.22-2.57-1.46-3.52,0,.16.11.32.17.48a37.19,37.19,0,0,0,2,3.32C37.81,57.6,37.59,57.55,37.28,57.27ZM42.6,40.64a3.53,3.53,0,0,1,1.36.42c.31.29-.68.69-1.32.71s-2-.18-2.11-.46S41.37,40.37,42.6,40.64ZM39.3,43.3c.28,2.07.9,5.5.9,5.51C38.92,46.88,39.3,43.3,39.3,43.3Zm3.27,14.18c-1-1.34-1.86-5.6-2.2-7.61a54.14,54.14,0,0,0,3.15,8.24C43.29,58.16,43,58,42.57,57.48Zm.5-7.28a1.68,1.68,0,0,1-2.23-1,1.36,1.36,0,0,1,.08-.77c-.14-.48.76-1.51,2.16-1.66,0,0,1.19,0,1.52.78a.34.34,0,0,1,0,.28,1.6,1.6,0,0,1,.1.31A2,2,0,0,1,43.07,50.2ZM44.15,46a2.71,2.71,0,0,0-.73-.19c.09-.75,1.41-1.87,1.63-2A3.65,3.65,0,0,0,44.15,46Zm1.25-1.64c.15-.54.74-.48,1.51-.38a1,1,0,0,1,.28.07c0,.31-.09.63-.13,1C46.44,45.16,45.26,44.88,45.4,44.38Zm1.79,14.7c-.43,0-.77-2.47-.77-5.51s.34-5.51.77-5.51.78,2.46.78,5.51S47.62,59.08,47.19,59.08ZM61,54.42c1.57,1.82,0,2-.71.88S59.51,52.65,61,54.42ZM54.2,43.79a3.5,3.5,0,0,0-1,0,5,5,0,0,0-.57-3.13C52.89,40.94,54.27,42.81,54.2,43.79ZM52.63,40.6Zm-.4,5.17a.36.36,0,0,1,.07-.26c.61-.84,2.1-.46,2.1-.46,2.16.84,3,3.15,1.9,3v0c-.3.81-1.47,1-2.61.4S51.83,46.78,52.13,46A.63.63,0,0,1,52.23,45.77Zm-2.61-4.36c-.62-.47-.28-1.28.64-1.14s1.76.27,1.81,1S50.25,41.88,49.62,41.41ZM52.4,58.76c-.66.53-1.08.61-1.35.46a62.39,62.39,0,0,0,6-9.28C56.12,52.35,54,57.43,52.4,58.76Zm4-17.31a2.17,2.17,0,0,1-1.68-2.3,1.34,1.34,0,0,1,.44-.73c-.45-.32-.74-.68-.47-.83a4.4,4.4,0,0,1,1.82-.06c1.62.09,2.66,1.24,2.44,1.56-.05.08-.18.12-.36.14a1.67,1.67,0,0,1,.22,1.2A1.76,1.76,0,0,1,56.41,41.45Zm1.11,7.2S59.15,44.54,60,42C60,42,59.62,46.68,57.52,48.65Zm1.6,11.69c-.46.24-.75.22-.93.11a39.86,39.86,0,0,0,3.3-3.5,4.93,4.93,0,0,0,.34-.54C61.29,57.52,60.08,59.83,59.12,60.34Zm10.71-7.69c-.52.47-.78.2-2-1.57s-1.22-3.13-1-3.45,1.72.55,2.55,2.31C69.33,49.94,70.34,52.18,69.83,52.65Z"/><path class="cls-2" d="M115.79,35c-1.54-.13-1.47.47-2,2.55s-4.64,5.07-4.64,5.07.92-2.58,1-3.14.83-1.34-.26-1.6a1.83,1.83,0,0,0-2.27.73c-.49.78-1,8.18-1.31,9.24a2,2,0,0,1-.23.41l-2.75.62c.36-1.29.71-2.57.78-2.85a29.76,29.76,0,0,0,.82-8.45c-.37-3.38-1.84-3.38-2.87-3.45s-1,.56-.53,1.4a21.59,21.59,0,0,1,.74,8,35.65,35.65,0,0,1-1.23,5.75l-.47.07a3.39,3.39,0,0,1-.45,0c-.27-.77-.58-1.72-.75-2.35-.33-1.24.54-5.5.76-6s1.62-2,.22-2.3-1.78.44-2,.95a10.74,10.74,0,0,0-.8,3c-.29,1.6.84,5.53,1.15,6.58l-.11,0A47.53,47.53,0,0,1,95,43c-.55-1.65.08-4.83.48-6.55s1.71-4.61-.19-5-1.83.22-2.26,1.15a57.67,57.67,0,0,0-1.25,6.24L90.49,36c-.28-.6-.39-2.38-1.6-2.57s-.92,1.24-.56,2.4A85,85,0,0,0,96,48.34c-2.33-1-4.39-2.14-5.06-1-1.38,2.4,1.37,4,2.06,7.13s-.69,4.57-.92,8.27,13.76,3.15,16.28,2.32.92-3.53.69-5.15,3-2.94,4.63-5.44-1-5.8-2.34-6.67a5.15,5.15,0,0,0-3,0,4.86,4.86,0,0,0,.77-1.43A6.71,6.71,0,0,1,111.83,43a37.82,37.82,0,0,0,4.42-4.11C116.86,38.06,117.33,35.14,115.79,35ZM95.48,63.68c-2.37-.56-1.94-2.5-1.81-3.69s1-2.94,1.06-4.25a9.72,9.72,0,0,1-.12,3.19c-.38.94.18,2.31.43,3.37s4.44,1.38,4.5,1.69S97.86,64.24,95.48,63.68ZM100,52.8c-1.85,0-4.74-1.64-3.4-1.5a35.16,35.16,0,0,0,7.57,0c.92-.08,2.17-.5,2,0S101.81,52.78,100,52.8Zm9.78-2.06c.13-1,2.06,1.38,2.44,2.38s-2.06,2.87-2.44,3.17-1-.11,0-1.24S109.51,52.49,109.73,50.74Z"/><path class="cls-2" d="M138.2,43.55c1.05-1,3.92,3.67,4.42,4a2.21,2.21,0,0,0,2.6-2.18c-.17-1.75-.17-3.35,1-3.61s3.56,4.18,3.3,5.67S148,50,147.92,50.71s2.63,2.48,3.56,1.59,1.52-3.89,1.1-6.28-2.88-8.84-2-10.34,3.56-2.92,4.82-2.83a1.42,1.42,0,0,1,.93,2.38c-.76.71-2.19,1.33-1.69,3.45s.32,3.78,1,3.52,2.56-3.34,3.06-4a1.45,1.45,0,0,1,2.29-.09c.59.89.34,3.45-2.2,6s-2.79,5.21-2.54,6.19a1.75,1.75,0,0,0,2.54,1.32c1.61-.53,3.81-2.12,3.72-3.36s-.93-4.42,1.44-6.54,3.64-2.57,5.16-.36,1.44,2.92.42,3.45-1.61-1.06-2.28-1a2.1,2.1,0,0,0-1.52,1.15c-.26.53.42,2.21,1,2.21s3-.79,3.54-.26,1.28,1.5,1,2.12-4.23,1.68-5.84,1.41-3,2.79-2.71,3.14,3.3.14,3.73.84,1.27,1.6.76,2.3-4,.27-5.67,0a3.21,3.21,0,0,0-3.26,1c-.44.61,1.57,5.73,1.48,6.35s-2.11.62-3.13.62-6.26.71-6-2.21,1.27-5.28-.09-5.64-7.53-3-8.88-4.88S135.07,46.64,138.2,43.55Z"/><path class="cls-2" d="M217.4,38.21a8.85,8.85,0,0,0-2,7.92c.34,2.06.52,3.35-1.07,4.75-2,1.7-1.64,2.42-1.92,4.82-.19,1.58-1.18,1.46-2.3,2.33-1.39,1.1-.45,1.72-.7,3.12C209.24,62.3,208,63,207.2,63.9A29.78,29.78,0,0,1,205,66.3c.66-.59,1.36-.9,2.1-1.48a26.47,26.47,0,0,0,2.61-1.46,4.72,4.72,0,0,0,1.4-2.61c.41-1.29.38-1,1.63-1.65,2.24-1.17,1.38-2.45,1.45-4.46,0-2.26,2.65-2.46,3.61-4.19,1.19-2.22-.44-4.76-.78-6.91a12.93,12.93,0,0,1,.39-5.33"/><path class="cls-2" d="M207,39.07c-2.94,3.62-3.85,10-3.39,14.24.67,4.3,3.21,9.61.9,14.25,2.8-5.71,3.17-9.72,1.81-15.83A24.07,24.07,0,0,1,207,39.07"/><path class="cls-2" d="M194.57,29.92A7.34,7.34,0,0,1,199,36.76c.1,1.66-.55,3.51-.15,5.3s1.82,2.61,2.66,4.22c1.88,3.67-.25,6.06-.34,9.69s3.9,4.6,4.54,8c.22,1.2-.46,2.23-1.27,3.55.74-1.85-.52-3.14-1.64-4.28s-3-1.5-4.1-2.94c-2.44-3-1-6.14-.08-9.21,1.13-4-2.22-4.55-3.19-8.12-1.09-3.26,1.93-5.85,1.14-9.13a12.5,12.5,0,0,0-2-4"/><path class="cls-2" d="M207.89,32c1.64,5.15,6,12,4.54,19-.74,3.29-3.67,4.61-4.56,7.59s0,4.87-3.39,9c2.2-3.59.74-6,.91-9.48.15-3.25,2.94-5.11,4.05-8s.31-6.81-.26-9.66c-.51-2.64-.5-5.93-1.29-8.35"/><path class="cls-2" d="M190.81,50.35c.56,1.6,1.33,2.19,1.56,3.38.3,1.75-.52,4.28.95,5.64s3.53.37,4.55,2.67c1,2,1.51,2.33,3.82,2.6,1.23.09,3,.78,3.13,2.3-.08-1.28-.83-3.31-2.34-3.77-1.77-.51-2.6,0-3-2.23s-1.13-2.53-3.4-3.14c-2-.56-2.76-1.36-3.42-3.38-.37-1-1-3.21-1.89-4.07"/><path class="cls-2" d="M204.63,67.35a4.09,4.09,0,0,1,1.13-2.27,8.94,8.94,0,0,1,4.64-2c3.24-.76,6.52-4,9.68-3.7-1.92.09-2.56,2-3.65,3a10.41,10.41,0,0,1-4.49,2.31c-2,.51-4.29.28-5.89,1.18a3.37,3.37,0,0,0-1.42,1.49"/><text class="cls-3" transform="translate(37.51 87.93)">海綿</text><text class="cls-3" transform="translate(82.51 87.93)">珊瑚蟲</text><text class="cls-3" transform="translate(142.51 87.93)">海葵</text><text class="cls-3" transform="translate(192.51 87.93)">藻類</text></g></g></svg>