<svg xmlns="http://www.w3.org/2000/svg" viewBox="0 0 250 146"><defs><style>.cls-1{fill:#cac529;opacity:0.8;}.cls-2{font-size:9px;letter-spacing:0.11em;}.cls-2,.cls-3,.cls-4{fill:#fff;}.cls-2,.cls-4{font-family:TsukuBRdGothic-Bold-83pv-RKSJ-H, Tsukushi B Round Gothic;font-weight:700;}.cls-4{font-size:11px;letter-spacing:0.11em;}</style></defs><title>height_detail</title><g id="圖層_2" data-name="圖層 2"><g id="height_detail"><path class="cls-1" d="M215,0H35A35.1,35.1,0,0,0,0,35V88a35.1,35.1,0,0,0,35,35h72.39A95,95,0,0,0,125,146a95,95,0,0,0,17.61-23H215a35.1,35.1,0,0,0,35-35V35A35.1,35.1,0,0,0,215,0Z"/><text class="cls-2" transform="translate(118.51 102.93)">60</text><path class="cls-3" d="M164.23,47.42h0a18.81,18.81,0,0,0-1.12-1.72h0a.18.18,0,0,0-.05-.07l-.07-.09h0l-.09-.1-.2-.19h0c-.14-.19-.35-.55-.64-1h0c0-.05-.07-.11-.11-.17h0l-.1-.17,0,0-.24-.38,0,0-.11-.18,0,0-.14-.2,0,0-.12-.17,0,0-.15-.22,0,0-.13-.19,0-.06-.16-.21h0c0-.08-.11-.15-.17-.23l-.05-.06-.15-.19,0,0-.18-.23,0-.06-.16-.18-.05-.06-.21-.23,0-.05-.18-.18,0,0h0c-.25-.27-.52-.53-.81-.79a7.53,7.53,0,0,0,.76-2.62c.1-2,.55-2.07.55-2.07s3.88-2.6,3.49-5.65-1.57-4.29-1.57-5.47a19,19,0,0,1-.05-2.31c.09-.84,0-.89-.89.44a19.11,19.11,0,0,0-2,7.48c-.05,2.27,0,3.94-.59,4.68A37.38,37.38,0,0,0,156,37.86c-.12-.08-.26-.15-.39-.22l-.06,0-.5-.25-.06,0-.52-.22,0,0h0l-.33-.13H154l-.18-.07-.13-.05-.19-.06-.13,0-.22-.07-.11,0-.33-.09-.38-.09-.11,0-.25,0V30.83a1.68,1.68,0,0,1,.31-1.41c.53-.59,1.12-4.79-1.44-7.22s-3.4-2.25-3.74-3.87-.64-1.62-.74-.74a12.53,12.53,0,0,0,.54,4.14c.39,1,1.72,3.39,2.22,5.07a11.89,11.89,0,0,1,.42,4.72l-.95,4.94-.26.06-.09,0-.26.07-.11,0-.25.08-.1,0-.34.12h0l-.31.12-.1,0-.25.1-.06,0h0a21.75,21.75,0,0,0-5.85,4.1h0l0,0-.06.06-.1.09c-.49.46-1,.93-1.45,1.41-1.47,1.46-3,3-3,3a11.15,11.15,0,0,1-1.41,1.19,5.29,5.29,0,0,1-.62.39l0,0-.29.16-.05,0-.29.14,0,0-.3.11h0l-.3.1h0l-.3.08h0l-.29.06H132l-.29,0h0l-.31,0h-1l-.3,0h0l-.3,0h0l-.3-.05h0l-.29-.06h0l-.3-.08h0l-.31-.09h0l-.31-.1h0l-.3-.1,0,0-.3-.11h0l-.64-.26h0l-.31-.13,0,0L126,47l0,0-.32-.14h0l-.33-.15h0l-.34-.15,0,0-.33-.16h0l-.36-.17L123.9,46l-.26-.12-.07,0-.24-.1h0A14.63,14.63,0,0,0,120.8,45c1.09-2.32,1.55-6.21-.44-8.19s-3.48-2.76-4.14-3.68-.13,1.55.53,2a2,2,0,0,1,.65,1.47,8.6,8.6,0,0,0-2.23-1.7,8.22,8.22,0,0,1-3-2c-.85-1,.89,2.42,2.3,3.39.92.63,2.79,3.4,2.79,4.91a10.05,10.05,0,0,1-.23,2.36s-1.41-1.12-1.31-1.84c.13-.92-.2-2.95-.76-3.12-.28-.08.15,1-.23,1.55a7.5,7.5,0,0,0-.65,1.31s-.82-.26-.76-1.64A7.09,7.09,0,0,0,112,36.08c-.33-.34,0,2.92-.43,3.38a6,6,0,0,0-.78,2.95A9.18,9.18,0,0,0,108.41,39c-1-.82-1.47-.69-1.8-1.15s.44,1.24,1.48,2.2a14.15,14.15,0,0,1,.72,3.44,6.6,6.6,0,0,0,1.12,2.8c-1.37,1.15-3.08,2.52-4.73,2.16a11.6,11.6,0,0,0-4.55.08l-.54-.41h0a11.86,11.86,0,0,0-2-1.15,6.07,6.07,0,0,0-2.45.84h0l-.27.17-.06,0-.27.17,0,0-.24.18,0,0-.25.21-.06,0-.26.21,0,0-.23.2,0,.05-.24.22,0,0-.23.23h0l-.23.24,0,0-.22.23,0,0c-.06.08-.13.15-.19.22l0,0-.21.24,0,0-.2.24,0,0a1.84,1.84,0,0,0-.17.22l0,0-.18.24,0,.05-.18.23h0a2,2,0,0,1-.17.23l0,0-.16.22,0,0c-.05.07-.09.14-.14.2l0,0c0,.07-.09.14-.14.21l0,0-.13.2,0,0a1.74,1.74,0,0,1-.11.18l0,0c0,.06-.07.12-.11.17l0,0a1.4,1.4,0,0,0-.1.16h0a1.3,1.3,0,0,0-.1.15v0L90,54l0,0-.06.11h0l0,.1v0l0,.07h0l0,0h0l0,0h0s-.43.76.39.4a.17.17,0,0,1,.1,0h.41a9.24,9.24,0,0,1,1.68.46h0c.51.18,1.47.58,1.47.58h0c.67.28,1.19.52,1.31.58h0l-.07.07-.24.19-.09.07-.23.2-.1.08-.22.19-.11.09-.2.18,0,0h0c-1.92,1.68-3.41,3.22-3.41,3.22l-.3.11-.1,0-.19.09-.12,0-.17.09-.12.07-.16.08-.12.08-.15.09-.13.07-.15.1-.12.08-.14.1-.12.08-.14.11-.1.07h0c-.19.14-.37.29-.54.43h0l-.16.13,0,0-.18.16,0,0-.18.17,0,0-.16.16,0,0-.17.17,0,0-.15.15h0l-.15.17,0,0c-.1.1-.19.21-.28.31l0,0-.24.29,0,0-.11.13h0l-.09.11,0,0a.76.76,0,0,0-.08.11h0l-.07.09h0l-.06.08v0l-.05.06h0l0,.06h0l0,0h0l0,0h0s-1.34,1.6,5.69-.07,17.08,1.77,22,5.61,6.59,6.2,17,6.5,14-10.14,14.56-12.9,3.94-6.59,6.89-7.54,3.74-2.1,4.43-4c6.89,1.47,8.07-3.94,8.07-3.94l1.09-.59S164.53,47.94,164.23,47.42Zm-65.42,6.5.12-.06Zm-.26.14-.21.11,0,0-.27.16,0,0-.28.17,0,0-.29.18,0,0L97,55h0l-.29.21,0,0-.28.21-.06,0-.27.2-.07.06-.27.2-.07.05-.23.19A15.85,15.85,0,0,1,98.55,54.06Z"/><line class="cls-3" x1="84.5" y1="85" x2="84.5" y2="97"/><path class="cls-3" d="M83.75,85V97a.75.75,0,0,0,1.5,0V85a.75.75,0,0,0-1.5,0Z"/><line class="cls-3" x1="167.5" y1="85" x2="167.5" y2="97"/><path class="cls-3" d="M166.75,85V97a.75.75,0,0,0,1.5,0V85a.75.75,0,0,0-1.5,0Z"/><line class="cls-3" x1="53" y1="91" x2="199" y2="91"/><path class="cls-3" d="M53,91.75H199a.75.75,0,0,0,0-1.5H53a.75.75,0,0,0,0,1.5Z"/><text class="cls-4" transform="translate(212.51 93.37)">cm</text><circle class="cls-3" cx="31" cy="91" r="2"/></g></g></svg>