<svg xmlns="http://www.w3.org/2000/svg" viewBox="0 0 41.51 37.72"><defs><style>.cls-1{fill:#efe9cd;}</style></defs><title>heart</title><g id="圖層_2" data-name="圖層 2"><g id="heart"><path class="cls-1" d="M33.9.67c-6.46-2.3-11.76,2.88-14.37,8.4h2.16C19.93,5.36,16.75,1.29,12.6.25,6.89-1.18,1.38,3.68.28,9.07c-2.45,12,11.53,21.66,19.44,28.31a1.31,1.31,0,0,0,1.77,0c8.57-7.2,31.74-27,12.71-36.59C32.77.07,31.5,2.23,32.94,3c16.79,8.43-5.79,26.42-13.22,32.66h1.77C15,30.12,5.65,23.67,3,15.18,1.27,9.47,5.18.64,12.4,2.78c3.26,1,5.74,4.62,7.13,7.55a1.26,1.26,0,0,0,2.16,0c2.1-4.45,6.16-9.17,11.55-7.25C34.76,3.62,35.41,1.21,33.9.67Z"/></g></g></svg>