<svg xmlns="http://www.w3.org/2000/svg" viewBox="0 0 42.5 42.5"><defs><style>.cls-1,.cls-2{fill:#efe9cd;}.cls-1{stroke:#efe9cd;stroke-miterlimit:10;}</style></defs><title>i_00</title><g id="圖層_2" data-name="圖層 2"><g id="i_00"><path class="cls-1" d="M22.68,12.31a1.39,1.39,0,0,1-.43,1,1.37,1.37,0,0,1-1,.4,1.4,1.4,0,0,1-1-.4,1.45,1.45,0,0,1-.41-1,1.38,1.38,0,0,1,.41-1,1.35,1.35,0,0,1,1-.43,1.47,1.47,0,0,1,1.44,1.44Zm-.5,17.17c0,.74-.31,1.11-.92,1.11s-.93-.37-.93-1.11V18.26q0-1.11.93-1.11c.61,0,.92.37.92,1.11Z"/><path class="cls-2" d="M40,21.25C39.66,31.39,31.72,40.08,21.25,40A19,19,0,0,1,2.5,21.25,18.94,18.94,0,0,1,20.57,2.52C31.29,2.11,39.65,10.8,40,21.25c.06,1.6,2.56,1.61,2.5,0C42.11,9.68,33.12,0,21.25,0A21.47,21.47,0,0,0,0,21.25,21.47,21.47,0,0,0,21.25,42.5c11.87,0,20.86-9.68,21.25-21.25C42.56,19.64,40.06,19.64,40,21.25Z"/></g></g></svg>