<svg xmlns="http://www.w3.org/2000/svg" viewBox="0 0 42.5 42.5"><defs><style>.cls-1{fill:#efe9cd;}</style></defs><title>i_01</title><g id="圖層_2" data-name="圖層 2"><g id="i_01"><path class="cls-1" d="M42.48,21C41.94,9.52,33,0,21.25,0A21.47,21.47,0,0,0,0,21.25,21.47,21.47,0,0,0,21.25,42.5C33,42.5,41.94,33,42.48,21.55a2.26,2.26,0,0,0,0-.6Zm-19.8,8.53c0,1-.53,1.61-1.42,1.61s-1.43-.6-1.43-1.61V18.26c0-1,.53-1.61,1.43-1.61s1.42.6,1.42,1.61Zm-.07-15.8a2,2,0,0,1-2.73,0,1.94,1.94,0,0,1-.56-1.38A1.86,1.86,0,0,1,19.87,11a1.91,1.91,0,0,1,2.74,0,1.8,1.8,0,0,1,.57,1.36A1.87,1.87,0,0,1,22.61,13.68Z"/></g></g></svg>