<svg xmlns="http://www.w3.org/2000/svg" viewBox="0 0 50.1 45.94"><defs><style>.cls-1{fill:#efe9cd;}</style></defs><title>return-key</title><g id="圖層_2" data-name="圖層 2"><g id="return-key"><path class="cls-1" d="M47,.05C45-.21,43.32,1,39.34.23s-5.85.5-4.47,4.21c.8,2.15,3.17,4.2,5,5.53V33.48H21.36V23.22A65,65,0,0,0,9,27.77C2.14,31.05-3.69,34.33,2.87,38.62s18.49,7.32,18.49,7.32V38.48h23V10.06c2-1.51,4.78-3.91,5.41-6.05C50.8.6,49.1.3,47,.05ZM14.49,33.62a2.72,2.72,0,1,1,2.72-2.72A2.71,2.71,0,0,1,14.49,33.62Z"/></g></g></svg>