<svg xmlns="http://www.w3.org/2000/svg" viewBox="0 0 410.7 126.65"><defs><style>.cls-1{fill:#eee9cc;}</style></defs><title>detail_02</title><g id="圖層_2" data-name="圖層 2"><g id="detail_02"><path class="cls-1" d="M7.64,6.23c.53,0,.8.4.8,1.09A5.52,5.52,0,0,1,8.2,8.81a.63.63,0,0,1-.7.49.56.56,0,0,1-.21,0,1.53,1.53,0,0,1,.13.66v6.54q0,2-1.56,2a4.26,4.26,0,0,1-1.5-.33c-.3-.11-.45-.28-.45-.53,0-.52.17-.78.52-.78a1,1,0,0,1,.32.06,3,3,0,0,0,1,.23q.45,0,.45-.78V14.92H2.71v2.87c0,.43-.2.65-.62.65s-.61-.22-.61-.65V9.92c0-.79.44-1.19,1.31-1.19H6.23A1.23,1.23,0,0,1,7,9a1,1,0,0,1,0-.15,9.81,9.81,0,0,0,.16-1.08c0-.2-.13-.31-.37-.31H1.93A.46.46,0,0,0,1.41,8V9a.56.56,0,0,1-.63.63A.56.56,0,0,1,.14,9V7.5c0-.77.34-1.18,1-1.25v-4a1,1,0,0,1,1.12-1.1H6.56a1,1,0,0,1,1.08,1.1ZM6.56,3.59V2.87a.55.55,0,0,0-.62-.62H2.87c-.4,0-.6.2-.6.62V6.23H3.81V4.75c0-.77.42-1.16,1.27-1.16ZM2.71,11.23H6.15v-.94c0-.24-.05-.37-.15-.37H2.87c-.1,0-.16.13-.16.37Zm0,2.58H6.15V12.32H2.71ZM4.92,6.23H6.56V4.51h-1c-.41,0-.61.24-.61.72Zm6,8.36a.59.59,0,0,1,.37.23,13.32,13.32,0,0,1,1.19,1.64,1.22,1.22,0,0,1,.08.34h2.19a.4.4,0,0,1,.07-.24,11.27,11.27,0,0,0,1-1.64.52.52,0,0,1,.55-.33.87.87,0,0,1,.52.16.49.49,0,0,1,.24.41,1.24,1.24,0,0,1-.08.37,7.77,7.77,0,0,1-.84,1.27h1.54c.43,0,.65.2.65.62s-.22.61-.65.61H9A.62.62,0,1,1,9,16.8h2.21c-.26-.41-.53-.8-.82-1.19a1.16,1.16,0,0,1-.16-.38C10.21,14.8,10.46,14.59,10.94,14.59ZM17.87,8a.56.56,0,0,1,.63.64.56.56,0,0,1-.63.63H9.3a.57.57,0,0,1-.65-.63A.57.57,0,0,1,9.3,8ZM10,1.31h1.64V.78a.48.48,0,0,1,.53-.55c.41,0,.62.19.62.55v.53h1.35V.78a.48.48,0,0,1,.53-.55c.41,0,.62.19.62.55v.53H16.8c.66,0,1,.31,1,.94V6q0,.93-1,.93H10A.83.83,0,0,1,9.06,6V2.25A.83.83,0,0,1,10,1.31Zm.14,8.92H16.8a.81.81,0,0,1,.91.92v2.29a.82.82,0,0,1-.91.94H10.14a.82.82,0,0,1-.92-.94V11.15A.81.81,0,0,1,10.14,10.23Zm.07-6.64h1.43V2.42H10.7c-.32,0-.49.18-.49.53Zm1.43,2.27V4.59H10.21v.7c0,.38.17.57.49.57ZM16,13.11q.48,0,.48-.45V12a.43.43,0,0,0-.48-.49H10.94a.43.43,0,0,0-.49.49v.71c0,.3.16.45.49.45ZM12.79,2.42V3.59h1.35V2.42Zm1.35,3.44V4.59H12.79V5.86Zm1.15-3.44V3.59h1.35V3c0-.35-.19-.53-.57-.53Zm.78,3.44a.5.5,0,0,0,.57-.57v-.7H15.29V5.86Z"/><path class="cls-1" d="M21.8,12.73V6.8A1.5,1.5,0,0,1,22,6.05l-.54.34a1,1,0,0,1-.47.17.6.6,0,0,1-.47-.25.85.85,0,0,1-.18-.53.65.65,0,0,1,.41-.55,15.54,15.54,0,0,0,2-1.4A9.61,9.61,0,0,0,24.12,2.4,18,18,0,0,0,25.45.45.75.75,0,0,1,26,.23a.76.76,0,0,1,.5.2.67.67,0,0,1,.22.51.81.81,0,0,1-.16.52,6.75,6.75,0,0,1-.43.63h6.51c.9,0,1.34.36,1.34,1.09a25.35,25.35,0,0,1-1,2.35h3.44A1,1,0,0,1,37.5,6.64v4.82a1,1,0,0,1-1.09,1.12H23.2v2.95c0,.56.41.9,1.23,1a57.07,57.07,0,0,0,6.43.24c2.17,0,3.72-.05,4.65-.14a1.78,1.78,0,0,0,1.13-.35c.25-.16.37-.76.37-1.8a.67.67,0,0,1,.7-.7c.46,0,.7.31.73.86a5.36,5.36,0,0,1-.24,1.58,2.12,2.12,0,0,1-1.44,1.54,21.47,21.47,0,0,1-5.45.39,45.87,45.87,0,0,1-7.64-.39c-1.25-.36-1.87-1-1.87-2Zm9.63-7.2c.56-1.17.84-1.78.84-1.82s-.16-.29-.47-.29H25.14l0,0A11.12,11.12,0,0,1,23.55,5c-.26.19-.53.38-.82.57a1.46,1.46,0,0,1,.3,0ZM28.57,7H23.73a.48.48,0,0,0-.53.55v3.65h5.37Zm6,0H30v4.2h5.78a.25.25,0,0,0,.29-.29V7.25c0-.2-.09-.3-.29-.3Z"/><path class="cls-1" d="M55.7,8.52c.47,0,.71.28.71.86,0,.37-.32.61-1,.7-1.37.22-3.16.42-5.37.58V13H57a.62.62,0,0,1,.7.7.63.63,0,0,1-.7.72H50.08v2.19H58a.61.61,0,0,1,.7.68c0,.52-.23.79-.7.79H40.62c-.46,0-.7-.27-.7-.79a.61.61,0,0,1,.7-.68h8V14.45H41.72a.64.64,0,0,1-.72-.72.63.63,0,0,1,.72-.7h6.85V10.78c-2.6.21-4.42.31-5.45.31-.57,0-.85-.26-.85-.8s.22-.7.68-.7c2.23,0,4.28-.1,6.17-.23Q52.66,9.07,55.7,8.52ZM43.44,1H55.21c1,0,1.43.43,1.43,1.3V6c0,.87-.47,1.3-1.43,1.3H43.44c-.9,0-1.35-.43-1.35-1.3V2.32C42.09,1.45,42.54,1,43.44,1ZM54.59,5.94a.5.5,0,0,0,.55-.57V3a.48.48,0,0,0-.55-.53H44.06c-.32,0-.49.18-.49.53V5.37c0,.38.17.57.49.57Z"/><path class="cls-1" d="M63.12,14.22a.61.61,0,0,1,.69.7,1.71,1.71,0,0,1-.31.86,14.72,14.72,0,0,1-2.19,2.66.86.86,0,0,1-.45.15q-.78,0-.78-.72a.91.91,0,0,1,.13-.45,14.66,14.66,0,0,0,2.37-2.83A.57.57,0,0,1,63.12,14.22ZM62.5.78H75.86c.77,0,1.15.37,1.15,1.1V6.64a1,1,0,0,1-1.15,1.15H70V9.3h6.15c.43,0,.65.2.65.62s-.22.61-.65.61H70v1.72h7.64c.43,0,.64.2.64.61s-.21.71-.64.71H61.07c-.41,0-.62-.23-.62-.71a.54.54,0,0,1,.62-.61h7.5V10.53H62.42a.54.54,0,0,1-.62-.61.54.54,0,0,1,.62-.62h6.15V7.79H62.5a1,1,0,0,1-1.19-1.15V1.88C61.31,1.15,61.71.78,62.5.78Zm6.07,5.68V2.11H63.2a.43.43,0,0,0-.49.49V5.94c0,.35.17.52.49.52ZM65,2.66a.59.59,0,0,1,.37.21,15.37,15.37,0,0,1,1.43,2,1.24,1.24,0,0,1,.13.47c0,.43-.23.65-.7.65a.53.53,0,0,1-.37-.16c-.48-.71-1-1.4-1.5-2.05a1,1,0,0,1-.14-.37C64.22,2.89,64.48,2.66,65,2.66Zm1.72,11.79a.7.7,0,0,1,.7.55,13.37,13.37,0,0,1,.29,2.87.7.7,0,1,1-1.4,0,12.37,12.37,0,0,0-.14-2.36,3.1,3.1,0,0,1-.1-.59C66.07,14.61,66.29,14.45,66.72,14.45Zm8.42-8c.32,0,.48-.17.48-.52V2.6a.43.43,0,0,0-.48-.49H70V6.46Zm-4.07,7.92a.62.62,0,0,1,.49.29,12.91,12.91,0,0,1,1.56,2.75,1.8,1.8,0,0,1,.08.53c0,.43-.28.64-.86.64-.24,0-.43-.18-.54-.56a13.42,13.42,0,0,0-1.27-2.74.69.69,0,0,1-.16-.37C70.37,14.56,70.61,14.38,71.07,14.38ZM73.5,2.66c.48,0,.72.2.72.62a1.51,1.51,0,0,1-.31.78,13.18,13.18,0,0,1-1.64,1.8A1,1,0,0,1,71.8,6c-.43,0-.65-.19-.65-.57A.8.8,0,0,1,71.31,5,10.07,10.07,0,0,0,73,3,.51.51,0,0,1,73.5,2.66Zm2.12,11.56a.63.63,0,0,1,.53.37,12.44,12.44,0,0,1,2.13,2.83,2.2,2.2,0,0,1,.08.53c0,.47-.29.7-.86.7-.29,0-.5-.18-.64-.54A12,12,0,0,0,75,15.23a.86.86,0,0,1-.16-.41Q74.84,14.22,75.62,14.22Z"/><path class="cls-1" d="M82.87.53a.62.62,0,0,1,.7.7V3.59h.79a.63.63,0,0,1,.72.71,4.7,4.7,0,0,1-.33,1.58,16.79,16.79,0,0,1-1.47,2.89v.61l2,3a1,1,0,0,1,.16.49c0,.48-.23.72-.68.72-.17,0-.37-.2-.59-.6l-.9-1.78V18c0,.43-.23.64-.69.64A.57.57,0,0,1,82,18V10.66a7.51,7.51,0,0,1-.91,1c-.15.18-.28.27-.4.27-.57,0-.85-.26-.85-.8a.74.74,0,0,1,.37-.7,11.64,11.64,0,0,0,1.66-1.84A13.4,13.4,0,0,0,83.2,6.29a4.08,4.08,0,0,0,.45-1.21c0-.11-.05-.16-.15-.16H80.72c-.41,0-.62-.23-.62-.7a.55.55,0,0,1,.62-.63h1.45V1.23A.62.62,0,0,1,82.87.53Zm3,6.35a.48.48,0,0,1,.55.54,1.05,1.05,0,0,1-.26.61,7.27,7.27,0,0,1-1,1.48.38.38,0,0,1-.3.16q-.54,0-.54-.45a1.4,1.4,0,0,1,.06-.41,7.2,7.2,0,0,0,1.09-1.64A.45.45,0,0,1,85.86,6.88ZM87.62.94h8.61c.79,0,1.19.34,1.19,1V6c0,.71-.4,1.07-1.19,1.07h-6a1.28,1.28,0,0,1-.13.57q-.24.48-.51.93h7.36q1.35,0,1.35,1.41A47.06,47.06,0,0,1,98,15.1a4.14,4.14,0,0,1-1,2.67,3.63,3.63,0,0,1-2.36.67,8.85,8.85,0,0,1-2.5-.41.7.7,0,0,1-.45-.61c0-.57.23-.86.7-.86a7.76,7.76,0,0,0,2.17.45,1.74,1.74,0,0,0,1.48-.53,3.71,3.71,0,0,0,.63-2c.1-1.09.16-2.41.16-3.94q0-.78-.63-.78H93a1.57,1.57,0,0,1-.08.33,5.93,5.93,0,0,1-.55,1.21l.1,0a27,27,0,0,1,2.42,1.48.74.74,0,0,1,.3.57q0,.6-.63.6a.68.68,0,0,1-.45-.15,26.38,26.38,0,0,0-2.34-1.56l-.08-.06a6.75,6.75,0,0,1-.68.72,5.5,5.5,0,0,1-1.29.9.57.57,0,0,1-.37.15.66.66,0,0,1-.47-.21.67.67,0,0,1-.18-.47.54.54,0,0,1,.16-.41,5.21,5.21,0,0,0,1.15-.8,6.79,6.79,0,0,0,1-1.15,7.14,7.14,0,0,0,.64-1.17H89.06l-.27,0-.35.43a6.48,6.48,0,0,1-1,.93c.35,0,.53.2.53.47v2.33c0,.41.18.62.55.62h6.34c.52,0,.78.22.78.65s-.26.62-.78.62h-7a1.11,1.11,0,0,1-1.25-1.27V11.66L86,12a.71.71,0,0,1-.28.08.62.62,0,0,1-.7-.7.75.75,0,0,1,.37-.61,8.59,8.59,0,0,0,2.28-1.89,8.31,8.31,0,0,0,1.1-1.8H87.62A1,1,0,0,1,86.54,6V2C86.54,1.28,86.9.94,87.62.94Zm.25,2.5h8.22V2.58c0-.33-.15-.49-.45-.49H88.28c-.27,0-.41.16-.41.49Zm7.77,2.5q.45,0,.45-.57V4.59H87.87v.78c0,.38.14.57.41.57Z"/><path class="cls-1" d="M101.8,12.73V6.8a1.5,1.5,0,0,1,.15-.75l-.54.34a1,1,0,0,1-.47.17.6.6,0,0,1-.47-.25.85.85,0,0,1-.18-.53.65.65,0,0,1,.41-.55,15.54,15.54,0,0,0,2-1.4,9.61,9.61,0,0,0,1.42-1.43A18,18,0,0,0,105.45.45.75.75,0,0,1,106,.23a.76.76,0,0,1,.5.2.67.67,0,0,1,.22.51.81.81,0,0,1-.16.52,6.75,6.75,0,0,1-.43.63h6.51c.9,0,1.34.36,1.34,1.09a25.35,25.35,0,0,1-1,2.35h3.44a1,1,0,0,1,1.09,1.11v4.82a1,1,0,0,1-1.09,1.12H103.2v2.95c0,.56.41.9,1.23,1a57.07,57.07,0,0,0,6.43.24c2.17,0,3.72-.05,4.65-.14a1.78,1.78,0,0,0,1.13-.35c.25-.16.37-.76.37-1.8a.67.67,0,0,1,.7-.7c.46,0,.7.31.73.86a5.36,5.36,0,0,1-.24,1.58,2.12,2.12,0,0,1-1.44,1.54,21.47,21.47,0,0,1-5.45.39,45.87,45.87,0,0,1-7.64-.39c-1.25-.36-1.87-1-1.87-2Zm9.63-7.2c.56-1.17.84-1.78.84-1.82s-.16-.29-.47-.29h-6.66l0,0A11.12,11.12,0,0,1,103.55,5c-.26.19-.53.38-.82.57a1.46,1.46,0,0,1,.3,0ZM108.57,7h-4.84a.48.48,0,0,0-.53.55v3.65h5.37Zm6,0H110v4.2h5.78a.25.25,0,0,0,.29-.29V7.25c0-.2-.09-.3-.29-.3Z"/><path class="cls-1" d="M137.5,2.58a.62.62,0,0,1,.7.7c0,.46-.23.68-.7.68h-4.86a39.1,39.1,0,0,0,.52,5.12c.12.63.25,1.22.39,1.78.17-.3.34-.6.49-.9a19.83,19.83,0,0,0,1.49-4.28.62.62,0,0,1,.62-.39.8.8,0,0,1,.51.16.54.54,0,0,1,.2.41,2.53,2.53,0,0,1-.06.53,23.06,23.06,0,0,1-1.57,4.49,14.19,14.19,0,0,1-1.09,1.89c.09.25.19.5.29.75a14.41,14.41,0,0,0,1.47,2.59c.28.46.53.69.74.69s.12-.2.16-.59a20.94,20.94,0,0,0,.13-2.4c0-.47.28-.7.71-.7a.87.87,0,0,1,.72,1,12.71,12.71,0,0,1-.45,3.36q-.37,1.17-1.11,1.17a2.61,2.61,0,0,1-1.86-1.11,14.76,14.76,0,0,1-1.83-3.32,20.22,20.22,0,0,1-2,1.89,16.18,16.18,0,0,1-3.51,2.06,2,2,0,0,1-.57.17.78.78,0,0,1-.55-.23.71.71,0,0,1,.18-1.17,15.89,15.89,0,0,0,3.4-2,16.3,16.3,0,0,0,2.15-2.07,4.22,4.22,0,0,0,.29-.37,31.48,31.48,0,0,1-1-4.45c-.18-1.26-.3-2.61-.37-4h-10c-.47,0-.7-.22-.7-.68a.62.62,0,0,1,.7-.7h9.94c0-.51,0-1,0-1.56s.25-.86.73-.86.78.28.78.86,0,1.06,0,1.56h2.79c-.35-.44-.72-.87-1.09-1.27a.94.94,0,0,1-.16-.37c0-.43.24-.65.7-.65a.52.52,0,0,1,.37.24,14.17,14.17,0,0,1,1.51,1.72.74.74,0,0,1,.12.33Zm-8.77,10.29c.44,0,.68.24.7.65a.93.93,0,0,1-.45.78,19.7,19.7,0,0,1-3.65,1.27,32.06,32.06,0,0,1-4.18.89c-.44,0-.67-.28-.7-.78a.77.77,0,0,1,.62-.86,25.82,25.82,0,0,0,3.54-.64A24.39,24.39,0,0,0,128.44,13,.67.67,0,0,1,128.73,12.87Zm-5.78-7h5.62c.85,0,1.27.38,1.27,1.15v3.66a1.12,1.12,0,0,1-1.27,1.26H123a1.1,1.1,0,0,1-1.23-1.26V7C121.72,6.24,122.13,5.86,123,5.86Zm5,4.75c.32,0,.49-.18.49-.53V7.67a.43.43,0,0,0-.49-.48h-4.38q-.45,0-.45.48v2.41c0,.35.15.53.45.53Z"/><path class="cls-1" d="M143.12,14.22a.61.61,0,0,1,.69.7,1.71,1.71,0,0,1-.31.86,14.72,14.72,0,0,1-2.19,2.66.86.86,0,0,1-.45.15q-.78,0-.78-.72a.91.91,0,0,1,.13-.45,14.66,14.66,0,0,0,2.37-2.83A.57.57,0,0,1,143.12,14.22ZM142.5.78h13.36c.77,0,1.15.37,1.15,1.1V6.64a1,1,0,0,1-1.15,1.15H150V9.3h6.15c.43,0,.65.2.65.62s-.22.61-.65.61H150v1.72h7.64c.43,0,.64.2.64.61s-.21.71-.64.71H141.07c-.41,0-.62-.23-.62-.71a.54.54,0,0,1,.62-.61h7.5V10.53h-6.15a.54.54,0,0,1-.62-.61.54.54,0,0,1,.62-.62h6.15V7.79H142.5a1,1,0,0,1-1.19-1.15V1.88C141.31,1.15,141.71.78,142.5.78Zm6.07,5.68V2.11H143.2a.43.43,0,0,0-.49.49V5.94c0,.35.17.52.49.52ZM145,2.66a.59.59,0,0,1,.37.21,15.37,15.37,0,0,1,1.43,2,1.24,1.24,0,0,1,.13.47c0,.43-.23.65-.7.65a.53.53,0,0,1-.37-.16c-.48-.71-1-1.4-1.5-2.05a1,1,0,0,1-.14-.37C144.22,2.89,144.48,2.66,145,2.66Zm1.72,11.79a.7.7,0,0,1,.7.55,13.37,13.37,0,0,1,.29,2.87.7.7,0,1,1-1.4,0,12.37,12.37,0,0,0-.14-2.36,3.1,3.1,0,0,1-.1-.59C146.07,14.61,146.29,14.45,146.72,14.45Zm8.42-8c.32,0,.48-.17.48-.52V2.6a.43.43,0,0,0-.48-.49H150V6.46Zm-4.07,7.92a.62.62,0,0,1,.49.29,12.91,12.91,0,0,1,1.56,2.75,1.8,1.8,0,0,1,.08.53c0,.43-.28.64-.86.64-.24,0-.43-.18-.54-.56a13.42,13.42,0,0,0-1.27-2.74.69.69,0,0,1-.16-.37C150.37,14.56,150.61,14.38,151.07,14.38ZM153.5,2.66c.48,0,.72.2.72.62a1.51,1.51,0,0,1-.31.78,13.18,13.18,0,0,1-1.64,1.8,1,1,0,0,1-.47.16c-.43,0-.65-.19-.65-.57a.8.8,0,0,1,.16-.45A10.07,10.07,0,0,0,153,3,.51.51,0,0,1,153.5,2.66Zm2.12,11.56a.63.63,0,0,1,.53.37,12.44,12.44,0,0,1,2.13,2.83,2.2,2.2,0,0,1,.08.53c0,.47-.29.7-.86.7-.29,0-.5-.18-.64-.54A12,12,0,0,0,155,15.23a.86.86,0,0,1-.16-.41Q154.84,14.22,155.62,14.22Z"/><path class="cls-1" d="M161.8,12.73V6.8a1.5,1.5,0,0,1,.15-.75l-.54.34a1,1,0,0,1-.47.17.6.6,0,0,1-.47-.25.85.85,0,0,1-.18-.53.65.65,0,0,1,.41-.55,15.54,15.54,0,0,0,2-1.4,9.61,9.61,0,0,0,1.42-1.43A18,18,0,0,0,165.45.45.75.75,0,0,1,166,.23a.76.76,0,0,1,.5.2.67.67,0,0,1,.22.51.81.81,0,0,1-.16.52,6.75,6.75,0,0,1-.43.63h6.51c.9,0,1.34.36,1.34,1.09a25.35,25.35,0,0,1-1,2.35h3.44a1,1,0,0,1,1.09,1.11v4.82a1,1,0,0,1-1.09,1.12H163.2v2.95c0,.56.41.9,1.23,1a57.07,57.07,0,0,0,6.43.24c2.17,0,3.72-.05,4.65-.14a1.78,1.78,0,0,0,1.13-.35c.25-.16.37-.76.37-1.8a.67.67,0,0,1,.7-.7c.46,0,.7.31.73.86a5.36,5.36,0,0,1-.24,1.58,2.12,2.12,0,0,1-1.44,1.54,21.47,21.47,0,0,1-5.45.39,45.87,45.87,0,0,1-7.64-.39c-1.25-.36-1.87-1-1.87-2Zm9.63-7.2c.56-1.17.84-1.78.84-1.82s-.16-.29-.47-.29h-6.66l0,0A11.12,11.12,0,0,1,163.55,5c-.26.19-.53.38-.82.57a1.46,1.46,0,0,1,.3,0ZM168.57,7h-4.84a.48.48,0,0,0-.53.55v3.65h5.37Zm6,0H170v4.2h5.78a.25.25,0,0,0,.29-.29V7.25c0-.2-.09-.3-.29-.3Z"/><path class="cls-1" d="M190.7,8.34a4.21,4.21,0,0,1-1.17,2.58c-.36.45-.68.68-.94.68s-.37-.13-.37-.39a2.39,2.39,0,0,1,.41-.68,1.61,1.61,0,0,0,.43-.73c0-.11-.17-.3-.52-.54a1.14,1.14,0,0,1-.16-1.84,1.37,1.37,0,0,1,1-.37,1.24,1.24,0,0,1,.91.39A1.16,1.16,0,0,1,190.7,8.34Z"/><path class="cls-1" d="M207.64,6.23c.53,0,.8.4.8,1.09a5.52,5.52,0,0,1-.24,1.49.63.63,0,0,1-.7.49.56.56,0,0,1-.21,0,1.53,1.53,0,0,1,.13.66v6.54q0,2-1.56,2a4.26,4.26,0,0,1-1.5-.33c-.3-.11-.45-.28-.45-.53,0-.52.17-.78.52-.78a1,1,0,0,1,.32.06,3,3,0,0,0,.95.23q.45,0,.45-.78V14.92h-3.44v2.87c0,.43-.2.65-.62.65s-.61-.22-.61-.65V9.92c0-.79.44-1.19,1.31-1.19h3.44A1.23,1.23,0,0,1,207,9a1,1,0,0,1,0-.15,9.81,9.81,0,0,0,.16-1.08c0-.2-.13-.31-.37-.31h-4.87a.46.46,0,0,0-.52.53V9a.64.64,0,0,1-1.27,0V7.5c0-.77.34-1.18,1-1.25v-4a1,1,0,0,1,1.12-1.1h4.29a1,1,0,0,1,1.08,1.1Zm-1.08-2.64V2.87a.55.55,0,0,0-.62-.62h-3.07c-.4,0-.6.2-.6.62V6.23h1.54V4.75c0-.77.42-1.16,1.27-1.16Zm-3.85,7.64h3.44v-.94c0-.24-.05-.37-.15-.37h-3.13c-.1,0-.16.13-.16.37Zm0,2.58h3.44V12.32h-3.44Zm2.21-7.58h1.64V4.51h-1c-.41,0-.61.24-.61.72Zm6,8.36a.59.59,0,0,1,.37.23,13.32,13.32,0,0,1,1.19,1.64,1.22,1.22,0,0,1,.08.34h2.19a.4.4,0,0,1,.07-.24,11.27,11.27,0,0,0,1-1.64.52.52,0,0,1,.55-.33.87.87,0,0,1,.52.16.49.49,0,0,1,.24.41,1.24,1.24,0,0,1-.08.37,7.77,7.77,0,0,1-.84,1.27h1.54c.43,0,.65.2.65.62s-.22.61-.65.61H209a.62.62,0,1,1,0-1.23h2.21c-.26-.41-.53-.8-.82-1.19a1.16,1.16,0,0,1-.16-.38C210.21,14.8,210.46,14.59,210.94,14.59ZM217.87,8a.56.56,0,0,1,.63.64.56.56,0,0,1-.63.63H209.3a.57.57,0,0,1-.65-.63A.57.57,0,0,1,209.3,8ZM210,1.31h1.64V.78a.48.48,0,0,1,.53-.55c.41,0,.62.19.62.55v.53h1.35V.78a.48.48,0,0,1,.53-.55c.41,0,.62.19.62.55v.53h1.51c.66,0,1,.31,1,.94V6q0,.93-1,.93H210a.83.83,0,0,1-.94-.93V2.25A.83.83,0,0,1,210,1.31Zm.14,8.92h6.66a.81.81,0,0,1,.91.92v2.29a.82.82,0,0,1-.91.94h-6.66a.82.82,0,0,1-.92-.94V11.15A.81.81,0,0,1,210.14,10.23Zm.07-6.64h1.43V2.42h-.94c-.32,0-.49.18-.49.53Zm1.43,2.27V4.59h-1.43v.7c0,.38.17.57.49.57ZM216,13.11q.48,0,.48-.45V12a.43.43,0,0,0-.48-.49h-5.06a.43.43,0,0,0-.49.49v.71c0,.3.16.45.49.45ZM212.79,2.42V3.59h1.35V2.42Zm1.35,3.44V4.59h-1.35V5.86Zm1.15-3.44V3.59h1.35V3c0-.35-.19-.53-.57-.53Zm.78,3.44a.5.5,0,0,0,.57-.57v-.7h-1.35V5.86Z"/><path class="cls-1" d="M237.09,1.46a.55.55,0,0,1,.62.63c0,.47-.2.7-.62.7h-7V4.45h6.15a.56.56,0,0,1,.63.63c0,.47-.21.7-.63.7h-6.15V7.66h7.79a.56.56,0,0,1,.63.63q0,.69-.63.69h-7.64A15.54,15.54,0,0,0,232,12.56a28.38,28.38,0,0,0,3.67-2.38c.17-.23.32-.34.45-.34.52,0,.79.24.79.71a1,1,0,0,1-.3.7,24.54,24.54,0,0,1-3.77,2.34,10.46,10.46,0,0,0,2,1.74,18.1,18.1,0,0,0,3.43,1.86c.3.17.45.36.45.56a.75.75,0,0,1-.86.86,2.8,2.8,0,0,1-.8-.23,15.35,15.35,0,0,1-3.2-1.88,12,12,0,0,1-3-2.93,15.71,15.71,0,0,1-2-4.59h-.3a.87.87,0,0,1-.05.34,11.09,11.09,0,0,1-2.88,2.75v4.06a28,28,0,0,0,3.6-1,.67.67,0,0,1,.29-.08c.44,0,.68.21.7.6a.88.88,0,0,1-.44.79,20.71,20.71,0,0,1-3.66,1.19,38.69,38.69,0,0,1-4.18.86.72.72,0,0,1-.7-.78c0-.5.21-.79.63-.86.92-.12,1.71-.24,2.36-.37V12.93a23.09,23.09,0,0,1-2.79,1.21,1.51,1.51,0,0,1-.49.1.7.7,0,0,1-.8-.78c0-.25.16-.46.48-.65a16.26,16.26,0,0,0,4.4-2.05A10.65,10.65,0,0,0,227,9h-6.17c-.43,0-.64-.23-.64-.69a.56.56,0,0,1,.64-.63h7.79V5.78h-6.48c-.4,0-.61-.23-.61-.7a.55.55,0,0,1,.61-.63h6.48V2.79h-7.16c-.42,0-.63-.23-.63-.7a.56.56,0,0,1,.63-.63h7.16V.68c0-.45.25-.68.73-.68s.78.23.78.68v.78Z"/><path class="cls-1" d="M243.67.16a1,1,0,0,1,.53.13.6.6,0,0,1,.25.49,1.3,1.3,0,0,1-.08.37c-.09.25-.19.49-.29.73h12.56a.56.56,0,0,1,.63.63q0,.69-.63.69h-1.27V6.64h2.34c.43,0,.65.21.65.61s-.22.72-.65.72h-2.34v3.59h1.9a.54.54,0,0,1,.6.62c0,.47-.2.71-.6.71h-16c-.4,0-.61-.24-.61-.71a.55.55,0,0,1,.61-.62h1.48V8H241q-.63,0-.63-.72a.55.55,0,0,1,.63-.61h1.71V3.85a9.66,9.66,0,0,1-.91.9,1.07,1.07,0,0,1-.57.33c-.52,0-.78-.24-.78-.7a.64.64,0,0,1,.17-.42,7.13,7.13,0,0,0,1.43-1.42A7.48,7.48,0,0,0,243.22.61Q243.33.16,243.67.16Zm-.23,13.36a1.11,1.11,0,0,1,.58.15.56.56,0,0,1,.28.47,1.12,1.12,0,0,1-.08.37,20.6,20.6,0,0,1-1.95,3.67.71.71,0,0,1-.55.34q-.78,0-.78-.57a.77.77,0,0,1,.06-.37,27.22,27.22,0,0,0,1.87-3.69A.54.54,0,0,1,243.44,13.52Zm3-6.88V3.2h-2.4V6.64Zm-2.4,4.92h2.4V8h-2.4Zm2.66,2.25a.76.76,0,0,1,.7.41,23.28,23.28,0,0,1,.69,3,3.87,3.87,0,0,1,.09.6c0,.43-.23.65-.7.65a.59.59,0,0,1-.64-.65,20.1,20.1,0,0,0-.71-3.22l-.08-.27C246.07,14,246.29,13.81,246.72,13.81Zm3.51-7.17V3.2h-2.44V6.64Zm-2.44,4.92h2.44V8h-2.44Zm3.15,2a.74.74,0,0,1,.7.37,26.71,26.71,0,0,1,.68,3.34,3.33,3.33,0,0,1,.1.64c0,.43-.23.65-.7.65a.64.64,0,0,1-.72-.65,22.81,22.81,0,0,0-.65-3.49l-.06-.32C250.29,13.7,250.51,13.52,250.94,13.52ZM254,6.64V3.2h-2.48V6.64Zm-2.48,4.92H254V8h-2.48Zm3.65,2a.62.62,0,0,1,.49.29,14.73,14.73,0,0,1,2,3.44,1.91,1.91,0,0,1,.08.54c0,.43-.28.65-.86.65-.23,0-.41-.19-.52-.57a14.62,14.62,0,0,0-1.74-3.42.81.81,0,0,1-.16-.39C254.51,13.7,254.75,13.52,255.21,13.52Z"/><path class="cls-1" d="M263.12,1.56h2.09c.73,0,1.1.32,1.1.94,0,.07-.32.87-1,2.42H266c.89,0,1.34.39,1.34,1.17V12c0,.85-.45,1.27-1.34,1.27h-3.83A1.1,1.1,0,0,1,260.94,12V6.09a1.26,1.26,0,0,1,.08-.52,1,1,0,0,1-.24,0c-.43,0-.64-.18-.64-.53a.91.91,0,0,1,.15-.49,21.26,21.26,0,0,0,1.8-3.91.56.56,0,0,1,.49-.31c.47,0,.7.22.7.65A1.1,1.1,0,0,1,263.12,1.56ZM261.64,14c.42,0,.63.24.63.71a6.87,6.87,0,0,1-.71,3.06.72.72,0,0,1-.78.63.5.5,0,0,1-.57-.57.91.91,0,0,1,.16-.47,6.22,6.22,0,0,0,.7-2.81A.52.52,0,0,1,261.64,14Zm.53-9H264c.58-1.27.86-1.93.86-2s-.13-.22-.41-.22H262.6a19.08,19.08,0,0,1-1.12,2.33A1.57,1.57,0,0,1,262.17,4.92Zm.1,3.52h1.23V6.09h-1c-.16,0-.23.1-.23.3Zm1.23,3.65V9.59h-1.23v2.13c0,.25.07.37.23.37ZM263.2,14a.55.55,0,0,1,.53.34,27.19,27.19,0,0,1,.35,2.71,4.73,4.73,0,0,1,.06.57c0,.35-.21.53-.64.53a.5.5,0,0,1-.55-.53c-.08-1.13-.17-2.1-.27-2.89l0-.24C262.64,14.13,262.83,14,263.2,14Zm1.8-.07q.24,0,.45.33a14,14,0,0,1,.62,2.5.85.85,0,0,1,.08.37c0,.38-.23.57-.7.57-.21,0-.36-.14-.45-.41a18.79,18.79,0,0,0-.57-2.5.88.88,0,0,1-.07-.3C264.36,14.08,264.57,13.89,265,13.89Zm-.23-7.8V8.44H266v-2a.27.27,0,0,0-.3-.3Zm1,6c.2,0,.3-.12.3-.37V9.59h-1.25v2.5Zm1,1.64c.16,0,.3.11.45.33a6.58,6.58,0,0,1,.62,1.62,1.29,1.29,0,0,1,.08.41c0,.37-.23.55-.7.55-.21,0-.36-.14-.45-.41a9.56,9.56,0,0,0-.57-1.64.8.8,0,0,1-.08-.29C266.07,13.92,266.29,13.73,266.72,13.73Zm1.95-.25-.1.17c-.19.21-.34.31-.45.31q-.78,0-.78-.6a.84.84,0,0,1,.16-.49,11,11,0,0,0,.61-1.41,10,10,0,0,0,.46-1.87c.07-.3.23-.45.49-.45a.86.86,0,0,1,.51.16.51.51,0,0,1,.27.45.52.52,0,0,1,0,.17h1.33c.74,0,1.12.39,1.12,1.17a10.51,10.51,0,0,1-.24,2.29,10.15,10.15,0,0,1-.8,2.48,8.45,8.45,0,0,1-1.93,2.42,1,1,0,0,1-.49.16.69.69,0,0,1-.78-.78.56.56,0,0,1,.25-.41,7.68,7.68,0,0,0,1.62-1.76c.11-.16.2-.33.3-.51a.17.17,0,0,1-.12-.06c-.39-.45-.72-.81-1-1.07Zm8.6-9.75c.35,0,.52.19.52.57s-.17.62-.52.62h-3.5A10.62,10.62,0,0,0,275.21,6a17.05,17.05,0,0,0,2.43,1.27.64.64,0,0,1,.39.62.81.81,0,0,1-.16.47.48.48,0,0,1-.45.25,1.06,1.06,0,0,1-.45-.11c-.65-.39-1.27-.8-1.87-1.23A15.81,15.81,0,0,1,273.57,6V9.06c0,.41-.23.61-.71.61a.54.54,0,0,1-.61-.61V6.15a7.85,7.85,0,0,1-1.06.86,13.71,13.71,0,0,1-2.52,1.51,1.23,1.23,0,0,1-.25.07c-.43,0-.65-.24-.65-.72a.63.63,0,0,1,.49-.62,16.37,16.37,0,0,0,2.64-1.39,7.42,7.42,0,0,0,1.15-.94h-3.57c-.37,0-.55-.21-.55-.62s.18-.57.55-.57h3.77V.94c0-.43.2-.65.61-.65s.71.22.71.65V3.73ZM269.51.94A1.81,1.81,0,0,1,270,1c.2.16.38.33.57.5a6.84,6.84,0,0,1,.74.9.74.74,0,0,1,.17.37q0,.57-.54.57a1,1,0,0,1-.57-.18c-.25-.31-.46-.56-.64-.76L269.22,2a.68.68,0,0,1-.24-.49A.46.46,0,0,1,269.51.94Zm0,10.21a6.24,6.24,0,0,1-.29,1q-.06.18-.12.33c.26.22.5.44.72.64a10,10,0,0,1,.75.81c.06-.23.11-.45.15-.67a8.09,8.09,0,0,0,.2-1.62c0-.32-.14-.49-.41-.49Zm8.18,3.67a.64.64,0,1,1,0,1.27h-1v1.78a.58.58,0,0,1-.65.65c-.41,0-.62-.22-.62-.65V16.09H272.5a.56.56,0,0,1-.64-.64.56.56,0,0,1,.64-.63h.62V11.64H273c-.35,0-.53-.21-.53-.62s.18-.65.53-.65h2.42V9.22a.55.55,0,0,1,.62-.63.57.57,0,0,1,.65.63v1.15h.78c.3,0,.45.22.45.65s-.15.62-.45.62h-.78v3.18Zm-2.26-3.18h-1.09v3.18h1.09Zm.7-10.7c.43,0,.65.17.65.52a1.35,1.35,0,0,1-.08.42A10.54,10.54,0,0,1,275.86,3a.71.71,0,0,1-.57.41c-.41,0-.62-.16-.62-.49a.76.76,0,0,1,.17-.37,9.83,9.83,0,0,0,.78-1.19A.55.55,0,0,1,276.15.94Z"/><path class="cls-1" d="M284.14,10.78a20.05,20.05,0,0,1-.6,3.48,14.24,14.24,0,0,1-1.61,3.85.77.77,0,0,1-.62.41c-.55,0-.83-.3-.86-.79a.93.93,0,0,1,.25-.48,16.48,16.48,0,0,0,1.68-4.67,21.91,21.91,0,0,0,.33-3.77V1.56c0-.47.25-.7.73-.7s.78.23.78.7V5h6.31V1.39a.78.78,0,0,1,1.56,0V5h5.08a.61.61,0,0,1,.7.68.62.62,0,0,1-.7.71H284.22V8.81c0,.19,0,.38,0,.57h9.61c1.09,0,1.64.52,1.64,1.56v6.85c0,.48-.26.73-.78.73s-.69-.25-.69-.73V11.56a.69.69,0,0,0-.78-.78Z"/><path class="cls-1" d="M312.34,9.41a3,3,0,0,1-.88,2.17,3.1,3.1,0,0,1-4.33,0,3,3,0,0,1-.88-2.17,3,3,0,1,1,6.09,0Zm-1,0a2,2,0,1,0-2,2,2,2,0,0,0,2-2Z"/><path class="cls-1" d="M3,28.72H15.7a1.45,1.45,0,0,1,1.64,1.64V42.53a1.45,1.45,0,0,1-1.64,1.64H3a1.45,1.45,0,0,1-1.64-1.64V30.36A1.45,1.45,0,0,1,3,28.72ZM15.14,42.61c.43,0,.64-.21.64-.61V30.89c0-.41-.21-.61-.64-.61H3.5c-.42,0-.63.2-.63.61V42a.55.55,0,0,0,.63.61Z"/><path class="cls-1" d="M25.14,31.22c.43,0,.64.2.64.61s-.21.72-.64.72H23.91v1.33l1.85,2.65a.93.93,0,0,1,.18.49c0,.46-.24.68-.73.68a.47.47,0,0,1-.44-.31l-.86-1.6v9.1c0,.43-.24.65-.71.65s-.62-.22-.62-.65V36.51c-.2,1-.39,1.79-.57,2.38a12.79,12.79,0,0,1-.6,2.09.72.72,0,0,1-.63.41c-.47,0-.7-.21-.7-.64a1.33,1.33,0,0,1,.13-.55,37.88,37.88,0,0,0,1.47-4.57c.22-.87.42-1.9.61-3.08H21q-.63,0-.63-.72c0-.41.21-.61.63-.61h1.58V27.94c0-.43.21-.65.62-.65s.71.22.71.65v3.28Zm12.5,12.42c.48,0,.72.23.72.68a.63.63,0,0,1-.72.71H26a.63.63,0,0,1-.71-.71.62.62,0,0,1,.71-.68Zm-.47-15.55a.55.55,0,0,1,.62.63c0,.47-.21.7-.62.7H30.35L30,30.59c0,.2.05.3.14.3h1c.83,0,1.25.49,1.25,1.46v8.52c0,1.31-.75,2-2.26,2a6.3,6.3,0,0,1-1.53-.2c-.49-.15-.74-.4-.74-.74a.59.59,0,0,1,.63-.62,13.92,13.92,0,0,0,1.64.21c.62,0,.93-.23.93-.7V32.66a.4.4,0,0,0-.45-.45H29.32a.75.75,0,0,1-.86-.85L29,29.42H26c-.42,0-.63-.23-.63-.7a.56.56,0,0,1,.63-.63ZM27.09,33H29q1,0,1,.93v5.22a.9.9,0,0,1-1,1H27.09a.9.9,0,0,1-1-1V34Q26.07,33,27.09,33Zm1.41,6c.15,0,.23-.1.23-.29v-4.3c0-.17-.08-.25-.23-.25h-.92c-.16,0-.24.08-.24.25v4.3c0,.19.08.29.24.29Zm4.94-8.28h3c.73,0,1.09.4,1.09,1.19a17.4,17.4,0,0,1-.31,3.4,15.52,15.52,0,0,1-.78,3.09,21.18,21.18,0,0,0,1.62,3,.65.65,0,0,1,.33.54c0,.25,0,.41-.14.47a.64.64,0,0,1-.58.29,1.13,1.13,0,0,1-.71-.31,11.58,11.58,0,0,1-1.31-2.28,11,11,0,0,1-1.89,2.44.92.92,0,0,1-.45.15.68.68,0,0,1-.78-.76.62.62,0,0,1,.21-.41,10.93,10.93,0,0,0,2.11-2.81,1.22,1.22,0,0,0,.1-.24q-.51-1.26-1-2.85a21,21,0,0,1-.81-3.67.56.56,0,0,1-.33-.56A.58.58,0,0,1,33.44,30.73Zm1,1.27a32.22,32.22,0,0,0,1.23,4.51,13.66,13.66,0,0,0,.32-1.44,18.71,18.71,0,0,0,.21-2.62c0-.3-.12-.45-.37-.45Z"/><path class="cls-1" d="M57.34,32.16a.61.61,0,0,1,.69.7q0,.78-.69.78H50.18a11.26,11.26,0,0,0,.35,1.52,11.63,11.63,0,0,0,1.66,3.3A17.2,17.2,0,0,0,55,41.53,25.89,25.89,0,0,0,58.2,44a.93.93,0,0,1,.3.65.76.76,0,0,1-.79.78,1.3,1.3,0,0,1-.7-.33A27.36,27.36,0,0,1,53.18,42,19.1,19.1,0,0,1,50.82,39,13.69,13.69,0,0,1,49.3,36a14.33,14.33,0,0,1-1.53,3,19.1,19.1,0,0,1-2.42,3,23.9,23.9,0,0,1-3.79,3.22,1,1,0,0,1-.56.26.85.85,0,0,1-.86-.94c0-.17.16-.35.48-.55A23.55,23.55,0,0,0,44,41.16a17.84,17.84,0,0,0,2.76-3.22A12.62,12.62,0,0,0,48.11,35c.13-.5.22-.95.29-1.37H41.31q-.69,0-.69-.78a.61.61,0,0,1,.69-.7H48.5V28.23a.79.79,0,0,1,1.58,0v3.93Z"/><path class="cls-1" d="M77.71,43.46a.64.64,0,0,1,.73.71c0,.52-.24.78-.73.78H61.07c-.46,0-.7-.26-.7-.78a.63.63,0,0,1,.7-.71h2V29.25c0-.82.44-1.23,1.31-1.23h9.79c.87,0,1.31.41,1.31,1.23V43.46ZM74,33V29.87c0-.3-.13-.45-.41-.45H65.08c-.28,0-.41.15-.41.45V33Zm-9.31,1.4v3.73H74V34.42Zm0,5.16v3.88H74V39.58Z"/><path class="cls-1" d="M97.71,28.31c.49,0,.73.23.73.7s-.24.78-.73.78h-1.3V43.15c0,1.53-.84,2.29-2.5,2.29a25.86,25.86,0,0,1-5-.65.77.77,0,0,1-.63-.78.7.7,0,0,1,.7-.78,6,6,0,0,1,.79.08,26.92,26.92,0,0,0,3.88.57c.8,0,1.19-.45,1.19-1.35V29.79H80.78c-.47,0-.7-.26-.7-.78a.62.62,0,0,1,.7-.7ZM83.2,32.16h7.5c.88,0,1.31.41,1.31,1.23V39a1.17,1.17,0,0,1-1.31,1.35H83.2c-.84,0-1.27-.45-1.27-1.35V33.39A1.11,1.11,0,0,1,83.2,32.16ZM90,38.88c.35,0,.53-.19.53-.57V34.09c0-.3-.18-.45-.53-.45H83.91c-.32,0-.47.15-.47.45v4.22c0,.38.15.57.47.57Z"/><path class="cls-1" d="M104.51,31.22a.7.7,0,1,1,0,1.39h-.86v3.2l.78-.53.24-.1c.47,0,.7.26.7.78a.74.74,0,0,1-.23.47,9.14,9.14,0,0,1-1.49,1v6.43c0,1-.6,1.56-1.81,1.56a4.91,4.91,0,0,1-1.08-.16c-.38-.12-.56-.32-.56-.62,0-.46.2-.69.56-.71h.16a5.42,5.42,0,0,0,.86.14q.54,0,.54-.63V38.17l-1.11.47a.8.8,0,0,1-.29.08.63.63,0,0,1-.72-.7.73.73,0,0,1,.56-.79,13.58,13.58,0,0,0,1.56-.66v-4h-1.19a.7.7,0,1,1,0-1.39h1.19V27.94c0-.43.21-.65.62-.65s.71.22.71.65v3.28Zm6.9-4.22a.68.68,0,0,1,.76.78v.78h5.17c.41,0,.61.18.61.53s-.2.64-.61.64H115.7v1h1.64c.3,0,.45.16.45.49s-.15.53-.45.53H115.7v1c0,.63-.34.94-1,.94h-4.14c-.68,0-1-.31-1-.94v-1h-1.39c-.32,0-.48-.18-.48-.53a.43.43,0,0,1,.48-.49h1.39v-1h-1.87c-.32,0-.47.19-.47.55v7a17.5,17.5,0,0,1-.52,4.67,12,12,0,0,1-1,2.83.7.7,0,0,1-.63.39c-.46,0-.69-.22-.7-.6a2.21,2.21,0,0,1,.25-.69c.13-.27.26-.57.39-.91.18-.55.35-1.11.49-1.68a17.74,17.74,0,0,0,.43-4V29.73c0-.78.41-1.17,1.24-1.17h3.54v-.78A.7.7,0,0,1,111.41,27Zm-2.27,9.45h6.93c.73,0,1.1.34,1.1,1v3.77c0,.68-.37,1-1.1,1h-1.48a14.17,14.17,0,0,0,3.12,1.86c.33.12.49.31.49.57a.69.69,0,0,1-.78.78,7.42,7.42,0,0,1-1.85-1,9.75,9.75,0,0,1-1.66-1.25.83.83,0,0,1-.34-.55.65.65,0,0,1,.16-.45h-2.25a.64.64,0,0,1,.16.45.63.63,0,0,1-.33.55,11.73,11.73,0,0,1-3.42,2,1,1,0,0,1-.31.1.69.69,0,0,1-.41-1.27,12.76,12.76,0,0,0,3.45-1.86h-1.48c-.74,0-1.11-.33-1.11-1V37.45C108,36.79,108.4,36.45,109.14,36.45Zm8.2-2a.47.47,0,0,1,.53.53c0,.43-.17.64-.53.64H108.2c-.37,0-.56-.21-.56-.64s.19-.53.56-.53Zm-8,4.3H112V37.53h-2.18c-.32,0-.47.19-.47.56ZM112,41.14V39.79H109.3v.8c0,.37.15.55.47.55Zm-1.17-11.41v1h3.65v-1Zm0,2v.41c0,.35.13.52.37.52h2.91c.25,0,.37-.17.37-.52v-.41Zm2.5,5.78v1.19h2.66v-.63c0-.37-.17-.56-.49-.56Zm2.17,3.61c.32,0,.49-.18.49-.55v-.8h-2.66v1.35Z"/><path class="cls-1" d="M121.23,27.94h3.91c1,0,1.42.43,1.42,1.31v3.12c0,.9-.47,1.35-1.42,1.35h-2.43c-.29,0-.44,1-.44,3,0,.22.1.33.31.33h3.36c.61,0,.92.46.92,1.39a20.48,20.48,0,0,1-.26,2.81,9.4,9.4,0,0,1-.88,3.12c-.35.75-1.14,1.12-2.36,1.12a8.27,8.27,0,0,1-2-.41.63.63,0,0,1-.53-.71.61.61,0,0,1,.7-.68,6,6,0,0,0,1.88.37c.81,0,1.31-.5,1.52-1.5a18.91,18.91,0,0,0,.41-3.56c0-.37-.12-.56-.37-.56H121.8q-1,0-1-1.23A29.88,29.88,0,0,1,121,34c.14-1.1.44-1.66.9-1.66h2.81c.27,0,.41-.12.41-.37V29.73a.37.37,0,0,0-.41-.41h-3.44c-.47,0-.7-.22-.7-.68A.62.62,0,0,1,121.23,27.94Zm16.11-.33c.46,0,.69.2.69.61s-.23.71-.69.71h-7.13a.34.34,0,0,0-.37.38v1.05h6.88a.54.54,0,0,1,.62.61c0,.48-.2.72-.62.72h-6.88v1.46h6.8a.56.56,0,0,1,.63.64q0,.69-.63.69h-6.8v1.58H138a.61.61,0,0,1,.7.69.62.62,0,0,1-.7.7h-5.49a9.06,9.06,0,0,0,1,2.36,5,5,0,0,0,.52.74,19.06,19.06,0,0,0,2.48-2.16.88.88,0,0,1,.53-.3.62.62,0,0,1,.7.71.84.84,0,0,1-.29.62,19.79,19.79,0,0,1-2.58,2.07l.1.1A18.14,18.14,0,0,0,138.28,44c.3.21.45.42.45.65a.62.62,0,0,1-.7.7,1.49,1.49,0,0,1-.69-.25,14.56,14.56,0,0,1-3-2.21,10.06,10.06,0,0,1-2-2.56,13.28,13.28,0,0,1-1.07-2.89h-1.41v6a15.42,15.42,0,0,0,2.33-.85.78.78,0,0,1,.33-.08.55.55,0,0,1,.62.56.82.82,0,0,1-.48.71,12.49,12.49,0,0,1-2.44,1,23.72,23.72,0,0,1-2.78.73c-.4,0-.61-.3-.62-.79a.64.64,0,0,1,.54-.72l1.12-.17a.79.79,0,0,1,0-.2V37.45h-.94a.62.62,0,0,1-.7-.7.61.61,0,0,1,.7-.69h.94V29c0-.9.47-1.34,1.4-1.34Z"/><path class="cls-1" d="M152.34,36.41a3,3,0,0,1-.88,2.17,3.1,3.1,0,0,1-4.33,0,3,3,0,0,1-.88-2.17,3,3,0,1,1,6.09,0Zm-1.05,0a2,2,0,1,0-.59,1.41A1.92,1.92,0,0,0,151.29,36.41Z"/><path class="cls-1" d="M164,27.16a.8.8,0,0,1,.79.78.72.72,0,0,1-.18.45,19.66,19.66,0,0,1-1.19,2.22,7.29,7.29,0,0,1-.57.8,30.89,30.89,0,0,0,4.42-.54,14.56,14.56,0,0,0-.77-1.45.83.83,0,0,1-.17-.41c0-.36.23-.55.7-.55.17,0,.33.12.49.34a17.36,17.36,0,0,1,1.86,3.65,1.61,1.61,0,0,1,.07.49c0,.41-.26.62-.78.62-.23,0-.41-.15-.53-.47s-.25-.67-.37-1a.93.93,0,0,1-.25,0q-3.63.65-6.88.93c-.46,0-.7-.28-.7-.86a.64.64,0,0,1,.7-.72l.55,0a12.45,12.45,0,0,0,.82-1.27,29.72,29.72,0,0,0,1.37-2.77A.7.7,0,0,1,164,27.16ZM162.09,34h5.41c.77,0,1.15.34,1.15,1v9c0,1-.6,1.43-1.79,1.43a7.47,7.47,0,0,1-2-.33c-.32-.11-.48-.28-.48-.53,0-.52.18-.78.56-.78a1.62,1.62,0,0,1,.41.06,6.07,6.07,0,0,0,1.39.23c.36,0,.55-.26.55-.78V41.45h-5v3.42a.63.63,0,0,1-.71.72.63.63,0,0,1-.7-.72V35Q160.86,34,162.09,34Zm.18,3.07h5V35.79c0-.3-.09-.45-.26-.45H162.5c-.16,0-.23.15-.23.45Zm0,3.1h5V38.31h-5Zm8.51-12.57a.62.62,0,0,1,.7.7v1.76a14,14,0,0,0,2.72-.67A12.25,12.25,0,0,0,176.8,28a.69.69,0,0,1,.78.78.83.83,0,0,1-.57.78,11.19,11.19,0,0,1-2,1,12.55,12.55,0,0,1-2,.59,14.31,14.31,0,0,1-1.45.27v2.27c0,.51.11.83.32,1a5.12,5.12,0,0,0,1.7.19,21.52,21.52,0,0,0,2.54-.1.74.74,0,0,0,.62-.27,3,3,0,0,0,.2-1.48.68.68,0,0,1,.72-.73c.44,0,.67.32.7.86a6.49,6.49,0,0,1-.14,1.39,1.75,1.75,0,0,1-.87,1.31,8.64,8.64,0,0,1-3.29.37,8,8,0,0,1-3.14-.39,2.1,2.1,0,0,1-.76-1.88V28.31A.62.62,0,0,1,170.78,27.61Zm0,9.31a.61.61,0,0,1,.7.69v1.93a15.22,15.22,0,0,0,2.72-.7,12.65,12.65,0,0,0,2.6-1.47.75.75,0,0,1,.84.86A.81.81,0,0,1,177,39a10.56,10.56,0,0,1-2,1,12.58,12.58,0,0,1-2,.58c-.85.17-1.33.26-1.45.26v2c0,.51.1.82.3,1a3.87,3.87,0,0,0,1.5.2A24.21,24.21,0,0,0,176,44a.85.85,0,0,0,.66-.29,3.06,3.06,0,0,0,.22-1.54.66.66,0,0,1,.72-.71c.44,0,.67.3.7.84a6,6,0,0,1-.16,1.41,1.72,1.72,0,0,1-.93,1.37,9.33,9.33,0,0,1-3.46.37,7,7,0,0,1-2.93-.39,2.18,2.18,0,0,1-.72-1.9V37.61A.61.61,0,0,1,170.78,36.92Z"/><path class="cls-1" d="M185.37,27.29c.47,0,.7.24.7.73V44.87a.7.7,0,1,1-1.4,0V37.78h-2v2.5a12.32,12.32,0,0,1-.29,2.77,7.82,7.82,0,0,1-.72,2c-.18.27-.37.41-.57.41-.49,0-.75-.26-.78-.71a.69.69,0,0,1,.16-.41,8,8,0,0,0,.7-2.24,9.16,9.16,0,0,0,.18-1.8v-2.5h-.63c-.43,0-.64-.23-.64-.7a.56.56,0,0,1,.64-.63h3.91V33.8h-2.4a1.06,1.06,0,0,1-1.2-1.19V28.39c0-.41.22-.61.65-.61a.54.54,0,0,1,.62.61v3.69a.4.4,0,0,0,.45.45h1.88V28C184.67,27.53,184.9,27.29,185.37,27.29Zm12.75,9.79a.61.61,0,0,1,.69.7.6.6,0,0,1-.69.68h-1.19V43.8c0,1.14-.64,1.72-1.93,1.72a14,14,0,0,1-3.44-.57.69.69,0,0,1-.56-.7c0-.5.24-.76.64-.79a3.51,3.51,0,0,1,.53.06,14.43,14.43,0,0,0,2.67.49c.41,0,.61-.23.61-.7V38.46h-8c-.47,0-.7-.22-.7-.68a.62.62,0,0,1,.7-.7h8V34.87a.62.62,0,0,1,.7-.7c.52,0,.78.23.78.7v2.21Zm-6.64-7.21a2.24,2.24,0,0,1,.43.08,23,23,0,0,1,2.68,1.19l.06,0A15.33,15.33,0,0,0,195.78,30a1.49,1.49,0,0,0,.37-.74c0-.06-.05-.08-.15-.08h-4.81a6.21,6.21,0,0,1-.41.54,7.33,7.33,0,0,1-1.13,1.16A15,15,0,0,1,188,32a1.22,1.22,0,0,1-.53.16.62.62,0,0,1-.47-.24.91.91,0,0,1-.17-.54.77.77,0,0,1,.48-.65,9.48,9.48,0,0,0,1.47-1,7.44,7.44,0,0,0,1.05-1.05c.26-.34.6-.81,1-1.43a.51.51,0,0,1,.45-.23.71.71,0,0,1,.49.18.53.53,0,0,1,.21.43.81.81,0,0,1-.06.33h5c.58,0,.86.26.86.78a3.67,3.67,0,0,1-.68,2,11.27,11.27,0,0,1-2.79,2.72,19.56,19.56,0,0,1-4.81,2.42,7.37,7.37,0,0,1-1.93.57.7.7,0,0,1-.78-.79c0-.34.18-.52.54-.56a19.32,19.32,0,0,0,3.7-1.35c-.59-.31-1.17-.59-1.74-.82a.55.55,0,0,1-.39-.57q0-.54.6-.54a1.77,1.77,0,0,1,.39.07A19.09,19.09,0,0,1,192.25,33l.05,0q.73-.49,1.35-1a22.9,22.9,0,0,0-2.42-1,.51.51,0,0,1-.37-.52C190.86,30.06,191.07,29.87,191.48,29.87Zm-2,9.22a.64.64,0,0,1,.41.23,16.08,16.08,0,0,1,2,2.06.91.91,0,0,1,.13.44c0,.47-.26.71-.78.71a.53.53,0,0,1-.37-.16c-.61-.74-1.27-1.47-2-2.19a.89.89,0,0,1-.16-.39C188.65,39.32,188.91,39.09,189.43,39.09Z"/><path class="cls-1" d="M201.39,28.46H204c.58,0,.86.27.86.79V42.94c0,.52-.28.78-.86.78h-2.59a.69.69,0,0,1-.78-.78V29.25A.7.7,0,0,1,201.39,28.46Zm1.65,14q.48,0,.48-.45V30.18q0-.45-.48-.45h-.69q-.42,0-.42.45V42q0,.45.42.45Zm6.18-15.16c.42,0,.62.22.62.65v.86h1.8a.46.46,0,0,1,.53.52c0,.42-.18.63-.53.63h-1.8v1.7a13.93,13.93,0,0,0,1.57-.43.79.79,0,0,1,.31-.08.51.51,0,0,1,.55.53.64.64,0,0,1-.41.56,14.45,14.45,0,0,1-1.59.55.71.71,0,0,1,.1.37,1.39,1.39,0,0,1-.25.73h4.72c.88,0,1.31.3,1.31.91a14.34,14.34,0,0,1-.64,1.43h1.05c.87,0,1.31.41,1.31,1.23v6.19c0,1.2-.7,1.8-2.11,1.8A10.3,10.3,0,0,1,213,45a.68.68,0,0,1-.61-.71c0-.45.2-.68.61-.68a13.74,13.74,0,0,0,2.75.37c.52,0,.78-.36.78-1.07v-.65h-8.73a13.4,13.4,0,0,1-.41,1.53,8.4,8.4,0,0,1-.54,1.21.71.71,0,0,1-.63.49.68.68,0,0,1-.7-.73,1,1,0,0,1,.09-.27,6.24,6.24,0,0,0,.49-1.19,8.4,8.4,0,0,0,.49-1.84,15,15,0,0,0,.2-2.54V37.57l-.24.21a.89.89,0,0,1-.49.16c-.46,0-.7-.22-.7-.65a.88.88,0,0,1,.16-.47A20.84,20.84,0,0,0,209,33.09h0c-.88.23-2,.43-3.24.63a.64.64,0,0,1-.64-.7.6.6,0,0,1,.56-.65l.61-.06V29a.55.55,0,0,1,.62-.62c.43,0,.65.2.65.62v3.13a8.45,8.45,0,0,0,.86-.18l.13,0v-4A.58.58,0,0,1,209.22,27.29ZM208,41.06h3.73V39.87h-3.61A10.89,10.89,0,0,1,208,41.06Zm6.09-4.84c.3-.61.45-.93.45-.94,0-.17-.15-.25-.45-.25h-4.63a.41.41,0,0,1-.19,0c-.34.38-.71.79-1.12,1.23Zm-5.94,2.5h3.58V37.45h-3.21c-.24,0-.37.16-.37.49Zm5.33-11.43c.46,0,.69.22.69.65v1.25c.36-.08.74-.17,1.11-.28a6.7,6.7,0,0,0,1.84-1c.47,0,.7.26.7.78,0,.22-.15.4-.45.53a8,8,0,0,1-1.5.72,11.41,11.41,0,0,1-1.7.37v1.11c0,.2.18.3.53.3h1.56c.63,0,.94-.39.94-1.16a.57.57,0,0,1,.62-.48c.43,0,.65.2.65.62a2.5,2.5,0,0,1-.43,1.64,1.47,1.47,0,0,1-1.25.65h-2.54c-.94,0-1.41-.43-1.41-1.27V27.94A.57.57,0,0,1,213.45,27.29ZM213,37.45v1.27h3.51V38c0-.38-.13-.57-.41-.57Zm0,3.61h3.51V39.87H213Z"/><path class="cls-1" d="M221.23,27.94h3.91c1,0,1.42.43,1.42,1.31v3.12c0,.9-.47,1.35-1.42,1.35h-2.43c-.29,0-.44,1-.44,3,0,.22.1.33.31.33h3.36c.61,0,.92.46.92,1.39a20.48,20.48,0,0,1-.26,2.81,9.4,9.4,0,0,1-.88,3.12c-.35.75-1.14,1.12-2.36,1.12a8.27,8.27,0,0,1-2.05-.41.63.63,0,0,1-.53-.71.61.61,0,0,1,.7-.68,6,6,0,0,0,1.88.37c.81,0,1.31-.5,1.52-1.5a18.91,18.91,0,0,0,.41-3.56c0-.37-.12-.56-.37-.56H221.8q-1,0-1-1.23A29.88,29.88,0,0,1,221,34c.14-1.1.44-1.66.9-1.66h2.81c.27,0,.41-.12.41-.37V29.73a.37.37,0,0,0-.41-.41h-3.44c-.47,0-.7-.22-.7-.68A.62.62,0,0,1,221.23,27.94Zm16.11-.33c.46,0,.69.2.69.61s-.23.71-.69.71h-7.13a.34.34,0,0,0-.37.38v1.05h6.88a.54.54,0,0,1,.62.61c0,.48-.2.72-.62.72h-6.88v1.46h6.8a.56.56,0,0,1,.63.64q0,.69-.63.69h-6.8v1.58H238a.61.61,0,0,1,.7.69.62.62,0,0,1-.7.7h-5.49a9.06,9.06,0,0,0,1,2.36,5,5,0,0,0,.52.74,19.06,19.06,0,0,0,2.48-2.16.88.88,0,0,1,.53-.3.62.62,0,0,1,.7.71.84.84,0,0,1-.29.62,19.79,19.79,0,0,1-2.58,2.07l.1.1A18.14,18.14,0,0,0,238.28,44c.3.21.45.42.45.65a.62.62,0,0,1-.7.7,1.49,1.49,0,0,1-.69-.25,14.56,14.56,0,0,1-3-2.21,10.06,10.06,0,0,1-2-2.56,13.28,13.28,0,0,1-1.07-2.89h-1.41v6a15.42,15.42,0,0,0,2.33-.85.78.78,0,0,1,.33-.08.55.55,0,0,1,.62.56.82.82,0,0,1-.48.71,12.49,12.49,0,0,1-2.44,1,23.72,23.72,0,0,1-2.78.73c-.4,0-.61-.3-.62-.79a.64.64,0,0,1,.54-.72l1.12-.17a.79.79,0,0,1,0-.2V37.45h-.94a.62.62,0,0,1-.7-.7.61.61,0,0,1,.7-.69h.94V29c0-.9.47-1.34,1.4-1.34Z"/><path class="cls-1" d="M242.17,34.42V45.28c0,.3-.23.45-.7.45s-.63-.15-.63-.45V29.5a1.59,1.59,0,0,1,1.78-1.82h4c1,0,1.48.47,1.48,1.41v3.85a1.31,1.31,0,0,1-1.48,1.48ZM245.7,29h-2.91c-.41,0-.62.22-.62.65v.86h4.55v-1.1a.37.37,0,0,0-.41-.41Zm1,2.66h-4.55v1.42h4.14c.27,0,.41-.16.41-.48Zm-.63,5h-1.64a.54.54,0,0,1-.62-.61.55.55,0,0,1,.62-.62H254a.54.54,0,0,1,.61.62.54.54,0,0,1-.61.61h-2V39h2.66a.55.55,0,0,1,.62.63.54.54,0,0,1-.62.6H252v4.4c0,.4-.24.6-.71.6a.54.54,0,0,1-.62-.6v-4.4h-3.25a7,7,0,0,1-.27,1.66,4.57,4.57,0,0,1-1,1.78,6.81,6.81,0,0,1-1.85,1.45,1.43,1.43,0,0,1-.32.11c-.46,0-.7-.25-.7-.76a.58.58,0,0,1,.37-.62,5.86,5.86,0,0,0,1.53-1.21,3.71,3.71,0,0,0,.72-1.27,6.41,6.41,0,0,0,.17-1.14h-2.16q-.63,0-.63-.6a.56.56,0,0,1,.63-.63h2.16ZM250.68,39V36.67h-3.26V39Zm1.9-11.27h3.36a1.63,1.63,0,0,1,1.85,1.83V43.66c0,1.3-.62,2-1.85,2a12.59,12.59,0,0,1-2.44-.31.71.71,0,0,1-.55-.7c0-.46.19-.69.55-.71l.37,0a14.32,14.32,0,0,0,1.91.26q.63,0,.63-1.08V34.34H251.8a1.31,1.31,0,0,1-1.51-1.46V29.09c0-.94.5-1.41,1.51-1.41Zm-.86,2.84h4.69v-.86a.57.57,0,0,0-.63-.65h-3.61c-.3,0-.45.16-.45.49Zm4.69,2.5V31.67h-4.69v.78q0,.57.45.57Z"/><path class="cls-1" d="M277.64,28.46a.63.63,0,0,1,.72.71.63.63,0,0,1-.72.7h-7.27v4.38h5.78a.7.7,0,1,1,0,1.4h-5.78v7.5h7.5c.47,0,.7.24.7.73a.62.62,0,0,1-.7.7H260.7a.62.62,0,0,1-.7-.7c0-.49.23-.73.7-.73h2.17V33.72a.78.78,0,1,1,1.56,0v9.43h4.3V29.87H261a.62.62,0,0,1-.71-.7.63.63,0,0,1,.71-.71Z"/><path class="cls-1" d="M289.3,27.16c.52,0,.78.23.78.7v2.42h2.28c.24-.23.45-.45.65-.66a17.71,17.71,0,0,0,1.42-1.84.75.75,0,0,1,.65-.33.74.74,0,0,1,.49.21.7.7,0,0,1,.21.49,1.07,1.07,0,0,1-.16.57A13.15,13.15,0,0,1,294.41,30l-.29.27h2.74a1.48,1.48,0,0,1,1.25.57,2.38,2.38,0,0,1,.33,1.38,11,11,0,0,1-.16,1.78.8.8,0,0,1-.86.57.62.62,0,0,1-.7-.7,13.59,13.59,0,0,0,.21-1.59.55.55,0,0,0-.62-.62H282.42a.55.55,0,0,0-.62.62v1.43c0,.47-.24.7-.73.7a.62.62,0,0,1-.7-.7V31.51a1.1,1.1,0,0,1,1.27-1.23h3a18.45,18.45,0,0,0-1.43-1.64,1.05,1.05,0,0,1-.17-.41.69.69,0,0,1,.78-.78.86.86,0,0,1,.49.23,13.45,13.45,0,0,1,1.48,1.9.85.85,0,0,1,.16.45,1,1,0,0,1,0,.25h2.67V27.86C288.57,27.39,288.82,27.16,289.3,27.16Zm-4.63,6h9.69q1.26,0,1.26,1.17v1.82c0,.77-.42,1.15-1.26,1.15H290a.61.61,0,0,1,0,.24v1.11h6A1.18,1.18,0,0,1,297.42,40V43q0,1.71-1.8,1.71a6.7,6.7,0,0,1-2.12-.41.63.63,0,0,1-.47-.6c0-.57.18-.86.54-.86a1.84,1.84,0,0,1,.47.08,5.28,5.28,0,0,0,1.41.29c.36,0,.55-.29.55-.86V40.65c0-.41-.19-.62-.55-.62h-5.37V45c0,.47-.26.7-.78.7s-.73-.23-.73-.7V40h-4.84c-.35,0-.53.21-.53.62v3.44a.7.7,0,0,1-1.4,0V40c0-.87.49-1.31,1.48-1.31h5.29V37.53a1.25,1.25,0,0,1,0-.24h-3.92c-.82,0-1.23-.38-1.23-1.15V34.32Q283.44,33.15,284.67,33.15Zm9.14,2.91c.27,0,.41-.15.41-.47v-.72c0-.3-.14-.45-.41-.45h-8.6c-.24,0-.37.15-.37.45v.72c0,.32.13.47.37.47Z"/><path class="cls-1" d="M317.34,32.16a.61.61,0,0,1,.69.7q0,.78-.69.78h-7.16a11.26,11.26,0,0,0,.35,1.52,11.63,11.63,0,0,0,1.66,3.3A17.2,17.2,0,0,0,315,41.53,25.89,25.89,0,0,0,318.2,44a.93.93,0,0,1,.3.65.76.76,0,0,1-.79.78,1.3,1.3,0,0,1-.7-.33A27.36,27.36,0,0,1,313.18,42,19.1,19.1,0,0,1,310.82,39,13.69,13.69,0,0,1,309.3,36a14.33,14.33,0,0,1-1.53,3,19.1,19.1,0,0,1-2.42,3,23.9,23.9,0,0,1-3.79,3.22,1,1,0,0,1-.56.26.85.85,0,0,1-.86-.94c0-.17.16-.35.48-.55A23.55,23.55,0,0,0,304,41.16a17.84,17.84,0,0,0,2.76-3.22A12.62,12.62,0,0,0,308.11,35c.13-.5.22-.95.29-1.37h-7.09q-.69,0-.69-.78a.61.61,0,0,1,.69-.7h7.19V28.23a.79.79,0,0,1,1.58,0v3.93Z"/><path class="cls-1" d="M324.06,31.3a.92.92,0,0,1,.51.15.55.55,0,0,1,.27.47,1.23,1.23,0,0,1-.07.37,31.11,31.11,0,0,1-1.37,5.2,26.46,26.46,0,0,1-1.76,3.89,1.15,1.15,0,0,1-.57.29c-.57,0-.86-.24-.86-.71a.72.72,0,0,1,.16-.44,21,21,0,0,0,1.8-3.75,26.86,26.86,0,0,0,1.4-5C323.64,31.45,323.8,31.3,324.06,31.3Zm5.3-3.52c.52,0,.78.23.78.68v15c0,1.32-.76,2-2.27,2a12.32,12.32,0,0,1-3.51-.71.72.72,0,0,1-.55-.72c0-.49.23-.75.62-.78a2.26,2.26,0,0,1,.57.1,12.21,12.21,0,0,0,2.71.62c.63,0,.94-.34.94-1V28.46A.62.62,0,0,1,329.36,27.78Zm5.15,3.6a.73.73,0,0,1,.57.29,50.43,50.43,0,0,1,3,8.69,2.16,2.16,0,0,1,.08.6c0,.47-.31.71-.93.71-.29,0-.5-.18-.63-.53A50.64,50.64,0,0,0,334,32.37a.94.94,0,0,1-.17-.45C333.81,31.56,334,31.38,334.51,31.38Z"/><path class="cls-1" d="M344.67,27.16a.67.67,0,0,1,.49.19.71.71,0,0,1,.21.51,1,1,0,0,1-.16.53,10.38,10.38,0,0,1-.76,1.44,4.41,4.41,0,0,1-.35.53h2.62c.87,0,1.31.41,1.31,1.23V43.66A1.16,1.16,0,0,1,346.72,45h-4.79a1.16,1.16,0,0,1-1.31-1.31V31.59c0-.82.44-1.23,1.31-1.23h.51a6.43,6.43,0,0,0,.59-.92,19.67,19.67,0,0,0,1-2A.71.71,0,0,1,344.67,27.16ZM342,36.59h4.63V32.25a.5.5,0,0,0-.57-.56h-3.49a.5.5,0,0,0-.57.56Zm4.06,7q.57,0,.57-.63V37.92H342V43q0,.63.57.63ZM351,27.23q.72,0,.72.63a19.2,19.2,0,0,1-.2,1.93h5.2c.94,0,1.4.52,1.4,1.57,0,3.09-.09,5.93-.29,8.49-.18,2.27-.57,3.75-1.17,4.45a3.42,3.42,0,0,1-2.75,1.12,9.21,9.21,0,0,1-3.62-.86.8.8,0,0,1-.52-.7c0-.58.25-.86.76-.86a9.15,9.15,0,0,0,3.28.93,1.92,1.92,0,0,0,1.85-1,9.77,9.77,0,0,0,.77-3.73q.21-3,.21-7.31c0-.52-.23-.78-.7-.78h-4.67a10,10,0,0,1-1.13,2.74,1.07,1.07,0,0,1-.71.37c-.57,0-.86-.26-.86-.78a.73.73,0,0,1,.24-.38,8.23,8.23,0,0,0,1.09-2.43,13.85,13.85,0,0,0,.39-2.78C350.29,27.44,350.53,27.23,351,27.23Zm.64,6.78a.73.73,0,0,1,.53.31,29.63,29.63,0,0,1,1.4,4.77,2.05,2.05,0,0,1,.08.57c0,.46-.28.7-.86.7-.27,0-.48-.19-.62-.57a34,34,0,0,0-1.1-4.76,1.08,1.08,0,0,1-.13-.45C350.94,34.2,351.17,34,351.64,34Z"/><path class="cls-1" d="M377.34,42.94a.61.61,0,0,1,.69.7q0,.78-.69.78h-16q-.69,0-.69-.78a.61.61,0,0,1,.69-.7Zm-.7-14.48a.62.62,0,0,1,.7.71.62.62,0,0,1-.7.7H361.86a.62.62,0,0,1-.71-.7.63.63,0,0,1,.71-.71Zm-1,7.06a.61.61,0,0,1,.69.7q0,.78-.69.78H362.71c-.46,0-.7-.26-.7-.78a.62.62,0,0,1,.7-.7Z"/><path class="cls-1" d="M384.22,27.45a.89.89,0,0,1,.51.17.71.71,0,0,1,.27.53,1.53,1.53,0,0,1-.08.41,24.64,24.64,0,0,1-1.11,3.62V45a.61.61,0,0,1-.69.7.62.62,0,0,1-.7-.7V35.09c-.34.56-.67,1.08-1,1.58-.21.22-.37.33-.47.33-.54,0-.8-.21-.8-.62a.81.81,0,0,1,.15-.49,20.2,20.2,0,0,0,1.9-3.4,22.33,22.33,0,0,0,1.46-4.55A.55.55,0,0,1,384.22,27.45Zm7.26,0a.7.7,0,0,1,.79.78v1.09h4.82a.55.55,0,0,1,.62.63c0,.47-.2.7-.62.7h-1.76a1.38,1.38,0,0,1,.24.14.69.69,0,0,1,.21.51.91.91,0,0,1-.16.52,23.32,23.32,0,0,1-1,2.13,6.47,6.47,0,0,1-.63,1h3.73a.57.57,0,0,1,.65.63c0,.47-.22.7-.65.7H385.45c-.4,0-.61-.23-.61-.7a.55.55,0,0,1,.61-.63h6.89c.32-.46.61-.92.88-1.39.43-.86.84-1.75,1.21-2.67a.82.82,0,0,1,.34-.24h-8.54c-.4,0-.61-.23-.61-.7a.55.55,0,0,1,.61-.63h4.47V28.23A.69.69,0,0,1,391.48,27.45ZM387.42,38h8.28c.82,0,1.23.38,1.23,1.15v4.57A1.09,1.09,0,0,1,395.7,45h-8.28a1.11,1.11,0,0,1-1.27-1.23V39.17C386.15,38.4,386.58,38,387.42,38Zm.29-7.13a.6.6,0,0,1,.41.25,15.65,15.65,0,0,1,1.47,2.32,1,1,0,0,1,.18.49c0,.47-.27.71-.79.71a.68.68,0,0,1-.41-.16c-.46-.87-1-1.71-1.48-2.5a1.23,1.23,0,0,1-.16-.41C386.93,31.12,387.19,30.89,387.71,30.89ZM395,43.64c.35,0,.53-.21.53-.62V39.89a.48.48,0,0,0-.53-.55h-6.88a.48.48,0,0,0-.54.55V43c0,.41.18.62.54.62Z"/><path class="cls-1" d="M410.7,35.34a4.21,4.21,0,0,1-1.17,2.58c-.36.45-.68.68-.94.68s-.37-.13-.37-.39a2.39,2.39,0,0,1,.41-.68,1.61,1.61,0,0,0,.43-.73c0-.11-.17-.3-.52-.54a1.14,1.14,0,0,1-.16-1.84,1.37,1.37,0,0,1,1-.37,1.24,1.24,0,0,1,.91.39A1.16,1.16,0,0,1,410.7,35.34Z"/><path class="cls-1" d="M16.64,55.31a.62.62,0,0,1,.7.7.63.63,0,0,1-.7.72H10.12l0,.06a14.36,14.36,0,0,1-1.21,2.89h8.84a.64.64,0,0,1,.73.71c0,.47-.24.7-.73.7H12.23a15.17,15.17,0,0,0,2,1.52,21.75,21.75,0,0,0,3.88,1.76.69.69,0,0,1,.38.57c0,.57-.26.86-.79.86a1.59,1.59,0,0,1-.78-.24,19.6,19.6,0,0,1-4.55-2.5,15.09,15.09,0,0,1-2-2H7.93A12.62,12.62,0,0,1,6.17,63a22.36,22.36,0,0,1-2.58,1.8l.32,0H14.59c.94,0,1.41.44,1.41,1.31V70.8a1.23,1.23,0,0,1-1.41,1.38H3.91c-.89,0-1.33-.46-1.33-1.38V66.09a1.49,1.49,0,0,1,.21-.84,14,14,0,0,1-1.48.7A3.15,3.15,0,0,1,.78,66a.66.66,0,0,1-.51-.25,1,1,0,0,1-.19-.61.66.66,0,0,1,.62-.7,19.21,19.21,0,0,0,4.57-2.79,3.68,3.68,0,0,0,.61-.57h-5a.63.63,0,0,1-.72-.7.63.63,0,0,1,.72-.71H7a4.59,4.59,0,0,0,.51-.76,12.52,12.52,0,0,0,1-2.19H1.64A.63.63,0,0,1,.94,56a.62.62,0,0,1,.7-.7ZM14,70.72c.36,0,.53-.19.53-.57V66.73c0-.32-.17-.48-.53-.48H4.51q-.45,0-.45.48v3.42q0,.57.45.57Z"/><path class="cls-1" d="M37.64,55a.7.7,0,1,1,0,1.4H28.81v2.85l.33.1c1.28.86,2.44,1.69,3.48,2.48a27.16,27.16,0,0,1,4.47,3.95,1.06,1.06,0,0,1,.25.52.7.7,0,0,1-.78.79,1,1,0,0,1-.7-.24c-1.72-1.67-3.17-3-4.36-3.92-.83-.66-1.73-1.32-2.69-2V71.73a.7.7,0,0,1-.78.79c-.51,0-.76-.27-.76-.79V56.42H21A.7.7,0,1,1,21,55Z"/><path class="cls-1" d="M43,54.37q.78,0,.78.72v4.85H48.2a.62.62,0,0,1,.71.7c0,.46-.24.68-.71.68H43.81v8.95a4.93,4.93,0,0,0,.6-.16,23.49,23.49,0,0,0,3.46-1A1,1,0,0,1,48.2,69a.63.63,0,0,1,.71.61.88.88,0,0,1-.47.78,20.9,20.9,0,0,1-3.32,1.15c-1,.29-2.31.56-3.81.82a.71.71,0,0,1-.69-.78c0-.5.21-.78.61-.86l1.11-.16V55.09Q42.34,54.37,43,54.37Zm7.67,0q.78,0,.78.72v5.22a13.87,13.87,0,0,0,1.88-.84,10.22,10.22,0,0,0,1.6-1A14.33,14.33,0,0,0,56.48,57a.54.54,0,0,1,.45-.24.76.76,0,0,1,.51.18.63.63,0,0,1,.2.47.94.94,0,0,1-.14.52,11.8,11.8,0,0,1-1.62,1.49,10.08,10.08,0,0,1-1.68,1.13q-1.11.57-2.4,1.08a1.21,1.21,0,0,1-.32.11v8.17a.76.76,0,0,0,.38.72,5.39,5.39,0,0,0,2,.22,4.59,4.59,0,0,0,2.48-.38,1.28,1.28,0,0,0,.51-1V67c0-.55.24-.84.7-.86s.74.38.78,1a10.46,10.46,0,0,1-.35,3.7,1.69,1.69,0,0,1-1,1,8.24,8.24,0,0,1-3.1.37,6.26,6.26,0,0,1-3.13-.49A1.82,1.82,0,0,1,50,70.15V55.09A.63.63,0,0,1,50.7,54.37Z"/><path class="cls-1" d="M69.06,54.08a.77.77,0,0,1,.53.21.75.75,0,0,1,.25.57.63.63,0,0,1-.17.45,5.64,5.64,0,0,1-.59.86h6.54A1.21,1.21,0,0,1,77,57.52V70.88c0,.87-.46,1.3-1.39,1.3H63a1.15,1.15,0,0,1-1.31-1.3V57.52A1.18,1.18,0,0,1,63,56.17h4.47l.24-.33q.42-.71.78-1.47A.73.73,0,0,1,69.06,54.08ZM63.12,61H75.53V58.14a.48.48,0,0,0-.53-.55H63.57c-.3,0-.45.19-.45.55Zm0,4.85H75.53V62.36H63.12ZM75,70.8c.35,0,.53-.19.53-.57v-3H63.12v3q0,.57.45.57Z"/><path class="cls-1" d="M81.93,55.15h13a1.36,1.36,0,0,1,1.56,1.51v4.92c0,1-.52,1.48-1.56,1.48H83.65c-.41,0-.62.23-.62.69V69c0,.61.4,1,1.21,1.13a48.59,48.59,0,0,0,6.13.26,28.54,28.54,0,0,0,4.32-.22,1.2,1.2,0,0,0,1-.6c.24-.29.35-1.34.35-3.15a.75.75,0,0,1,.79-.78c.49,0,.75.36.78,1a14.7,14.7,0,0,1-.2,2.38,3,3,0,0,1-1.39,2.3c-.63.41-2.34.61-5.11.61a43,43,0,0,1-7.58-.41,2.32,2.32,0,0,1-1.88-2.25V63.38c0-1.15.6-1.72,1.8-1.72H94.14c.52,0,.78-.29.78-.86V57.44c0-.58-.26-.86-.78-.86H81.93a.62.62,0,0,1-.7-.7C81.23,55.39,81.46,55.15,81.93,55.15Z"/><path class="cls-1" d="M101.48,63.38h2.09c.73,0,1.1.33,1.1,1v4.08a1.75,1.75,0,0,0,1,1.49,6.21,6.21,0,0,0,3.19.7h9c.47,0,.71.26.71.78a.62.62,0,0,1-.71.69h-8.43a10.79,10.79,0,0,1-2.82-.34,5.83,5.83,0,0,1-2.15-1l-.25-.14a.49.49,0,0,0-.31.16,7.73,7.73,0,0,1-2,1.27,2.61,2.61,0,0,1-.84.29c-.51,0-.78-.26-.8-.7a.7.7,0,0,1,.56-.71,8.4,8.4,0,0,0,1.88-.88,1.86,1.86,0,0,0,.62-1.62V65.09c0-.2-.11-.31-.33-.31h-1.39a.7.7,0,0,1,0-1.4Zm-.17-4.79a1.06,1.06,0,0,1,.49.16l1.11.66a11.37,11.37,0,0,1,1.45,1.05.84.84,0,0,1,.23.42c0,.46-.2.7-.61.7a1,1,0,0,1-.7-.26c-.55-.37-1-.68-1.39-.91a8.86,8.86,0,0,0-1-.55.91.91,0,0,1-.24-.57A.61.61,0,0,1,101.31,58.59Zm.62-4a1,1,0,0,1,.49.17c.39.22.75.44,1.08.65a9.78,9.78,0,0,1,1.42,1.07.71.71,0,0,1,.22.37q0,.72-.63.72a1.11,1.11,0,0,1-.7-.23c-.52-.39-1-.7-1.31-.92s-.65-.38-1-.56a.9.9,0,0,1-.25-.57A.62.62,0,0,1,101.93,54.61Zm5.55,6.71H116c.68,0,1,.29,1,.86v2c0,.62-.34.93-1,.93h-3.34a5.91,5.91,0,0,0,1,1.66L114,67a9,9,0,0,0,2.35-1.51,1,1,0,0,1,.41-.15c.42,0,.62.21.62.64a.68.68,0,0,1-.33.55,8.87,8.87,0,0,1-2,1.25l.37.21a9.79,9.79,0,0,0,2.11.86.7.7,0,0,1,.37.55.69.69,0,0,1-.78.78,2.46,2.46,0,0,1-.51-.11,11.15,11.15,0,0,1-2.07-1,7.84,7.84,0,0,1-1.91-1.54,7.58,7.58,0,0,1-1.29-2.45h-1.1a1.79,1.79,0,0,1-.13.22,5.79,5.79,0,0,1-.72.68v2.29a16.39,16.39,0,0,0,2-.55,1,1,0,0,1,.33-.08c.34,0,.52.2.53.57a.69.69,0,0,1-.37.6,11.06,11.06,0,0,1-2.23.75,22.86,22.86,0,0,1-2.56.52q-.58,0-.6-.72a.61.61,0,0,1,.52-.7c.46,0,.86-.11,1.19-.16V66.93l0,0A12.76,12.76,0,0,1,106,68.12a.45.45,0,0,1-.26.1c-.47,0-.7-.26-.7-.78,0-.19.12-.35.37-.49a17.49,17.49,0,0,0,2.06-1.06,6.35,6.35,0,0,0,1.05-.8h-1.05a.83.83,0,0,1-.95-.93v-2C106.54,61.61,106.86,61.32,107.48,61.32Zm10.23-2a.58.58,0,0,1,.65.65c0,.41-.22.62-.65.62H105.86c-.43,0-.65-.21-.65-.62a.58.58,0,0,1,.65-.65Zm-10.6-4.51h9.3c.67,0,1,.29,1,.86v1.88c0,.62-.34.93-1,.93h-9.3a.83.83,0,0,1-.94-.93V55.64C106.17,55.07,106.48,54.78,107.11,54.78Zm2.4,2.5V56h-1.64c-.25,0-.37.16-.37.47v.31c0,.37.12.55.37.55Zm5.69,6.64q.48,0,.48-.54V63c0-.3-.16-.44-.48-.44h-6.92c-.27,0-.41.14-.41.44v.42c0,.36.14.54.41.54Zm-2.56-6.64V56h-1.86v1.33Zm3,0c.3,0,.45-.18.45-.55v-.31c0-.31-.15-.47-.45-.47h-1.73v1.33Z"/><path class="cls-1" d="M137.58,54.86a.54.54,0,0,1,.62.61c0,.48-.2.72-.62.72H132.5v1.46h3.57c.85,0,1.27.39,1.27,1.18v2.76a1.11,1.11,0,0,1-1.27,1.24h-6.58a2.53,2.53,0,0,1-.19.44,7.63,7.63,0,0,1-.8,1.18H138a.62.62,0,0,1,.7.7c0,.48-.23.73-.7.73h-3.36a1.82,1.82,0,0,1-.31.8,10.35,10.35,0,0,1-2,2.28c-.23.18-.46.35-.68.49q2.66.6,6.15,1.43a.77.77,0,0,1,.65.7c0,.58-.31.9-.8.94a2.82,2.82,0,0,1-.53-.1q-3.68-1.08-7.21-2a13,13,0,0,1-1.62.64,20.23,20.23,0,0,1-4,.94,21,21,0,0,1-3.36.33c-.54,0-.8-.29-.8-.78s.21-.6.64-.63a30.42,30.42,0,0,0,6.17-.86l.67-.19c-1.16-.3-2.3-.57-3.42-.82-.89-.22-1.33-.59-1.33-1.12,0-.33.24-.67.72-1s1.13-.74,1.59-1.09h-4.56a.64.64,0,0,1-.7-.73.62.62,0,0,1,.7-.7h6.18a10.2,10.2,0,0,0,1.29-1.62h-5.45a1.09,1.09,0,0,1-1.23-1.24V58.83c0-.79.41-1.18,1.23-1.18h3.59V56.19h-5.16c-.41,0-.62-.24-.62-.72a.54.54,0,0,1,.62-.61ZM126.23,61.5V59h-3c-.27,0-.41.13-.41.37V61c0,.33.14.49.41.49ZM129.67,69c.41-.22.81-.46,1.17-.7a10.34,10.34,0,0,0,2.27-2.44h-5.92a20.83,20.83,0,0,1-2.07,1.66c-.13.09-.2.18-.2.27s.09.16.28.21ZM131,57.65V56.19h-3.29v1.46Zm0,3.85V59h-3.29V61.5Zm4.53,0c.27,0,.41-.16.41-.49V59.35c0-.24-.14-.37-.41-.37h-3V61.5Z"/><path class="cls-1" d="M157.34,59.16a.61.61,0,0,1,.69.7q0,.78-.69.78h-7.16a11.26,11.26,0,0,0,.35,1.52,11.63,11.63,0,0,0,1.66,3.3A17.2,17.2,0,0,0,155,68.53,25.89,25.89,0,0,0,158.2,71a.93.93,0,0,1,.3.65.76.76,0,0,1-.79.78,1.3,1.3,0,0,1-.7-.33A27.36,27.36,0,0,1,153.18,69a19.1,19.1,0,0,1-2.36-3A13.69,13.69,0,0,1,149.3,63a14.33,14.33,0,0,1-1.53,3,19.1,19.1,0,0,1-2.42,3,23.9,23.9,0,0,1-3.79,3.22,1,1,0,0,1-.56.26.85.85,0,0,1-.86-.94c0-.17.16-.35.48-.55A23.55,23.55,0,0,0,144,68.16a17.84,17.84,0,0,0,2.76-3.22A12.62,12.62,0,0,0,148.11,62c.13-.5.22-.95.29-1.37h-7.09q-.69,0-.69-.78a.61.61,0,0,1,.69-.7h7.19V55.23a.79.79,0,0,1,1.58,0v3.93Z"/><path class="cls-1" d="M164.67,54.16a.67.67,0,0,1,.49.19.71.71,0,0,1,.21.51,1,1,0,0,1-.16.53,10.38,10.38,0,0,1-.76,1.44,4.41,4.41,0,0,1-.35.53h2.62c.87,0,1.31.41,1.31,1.23V70.66A1.16,1.16,0,0,1,166.72,72h-4.79a1.16,1.16,0,0,1-1.31-1.31V58.59c0-.82.44-1.23,1.31-1.23h.51a6.43,6.43,0,0,0,.59-.92,19.67,19.67,0,0,0,1-2A.71.71,0,0,1,164.67,54.16ZM162,63.59h4.63V59.25a.5.5,0,0,0-.57-.56h-3.49a.5.5,0,0,0-.57.56Zm4.06,7q.57,0,.57-.63V64.92H162V70q0,.63.57.63ZM171,54.23q.72,0,.72.63a19.2,19.2,0,0,1-.2,1.93h5.2c.94,0,1.4.52,1.4,1.57,0,3.09-.09,5.93-.29,8.49-.18,2.27-.57,3.75-1.17,4.45a3.42,3.42,0,0,1-2.75,1.12,9.21,9.21,0,0,1-3.62-.86.8.8,0,0,1-.52-.7c0-.58.25-.86.76-.86a9.15,9.15,0,0,0,3.28.93,1.92,1.92,0,0,0,1.85-1,9.77,9.77,0,0,0,.77-3.73q.21-3,.21-7.31c0-.52-.23-.78-.7-.78h-4.67a10,10,0,0,1-1.13,2.74,1.07,1.07,0,0,1-.71.37c-.57,0-.86-.26-.86-.78a.73.73,0,0,1,.24-.38,8.23,8.23,0,0,0,1.09-2.43,13.85,13.85,0,0,0,.39-2.78C170.29,54.44,170.53,54.23,171,54.23Zm.64,6.78a.73.73,0,0,1,.53.31,29.63,29.63,0,0,1,1.4,4.77,2.05,2.05,0,0,1,.08.57c0,.46-.28.7-.86.7-.27,0-.48-.19-.62-.57a34,34,0,0,0-1.1-4.76,1.08,1.08,0,0,1-.13-.45C170.94,61.2,171.17,61,171.64,61Z"/><path class="cls-1" d="M181.15,54.86c.15,0,.35.14.61.43a10,10,0,0,1,1.21,2l0,0a12.28,12.28,0,0,0,.92-2.34.63.63,0,0,1,.68-.49.67.67,0,0,1,.45.16.63.63,0,0,1,.17.48,1.23,1.23,0,0,1-.07.37,10.44,10.44,0,0,1-1,2.54,6.65,6.65,0,0,1-.53.9,13.56,13.56,0,0,1,.55,2,29.42,29.42,0,0,1,.49,5.29,13.43,13.43,0,0,1-.45,3.44,4.83,4.83,0,0,1-1,2.16,1.73,1.73,0,0,1-1.38.67,2.65,2.65,0,0,1-1.18-.33.76.76,0,0,1-.54-.69c0-.45.19-.69.54-.7a4.31,4.31,0,0,0,1.1.37,1,1,0,0,0,.72-.49,4.91,4.91,0,0,0,.65-1.81,11.6,11.6,0,0,0,.27-2.62c0-.63,0-1.23,0-1.8-.2.29-.37.54-.53.74a9.36,9.36,0,0,1-1.33,1.41c-.32.29-.55.43-.68.43-.47,0-.7-.21-.7-.63a.85.85,0,0,1,.37-.68,15.87,15.87,0,0,0,2.17-2.07,8,8,0,0,0,.58-.82c0-.43-.11-.83-.19-1.21s-.2-.94-.31-1.37a7.39,7.39,0,0,1-1.55,1.41.76.76,0,0,1-.45.15.62.62,0,0,1-.47-.21,1,1,0,0,1-.15-.51.6.6,0,0,1,.21-.45,8.92,8.92,0,0,0,1.45-1.35c.15-.19.3-.39.43-.58l-.18-.41a7.49,7.49,0,0,0-1.29-2.09.87.87,0,0,1-.25-.57A.66.66,0,0,1,181.15,54.86Zm5.33,9.67a.54.54,0,0,1,.61.62v.49h2a.47.47,0,0,1,.53.53c0,.38-.18.56-.53.56h-2v1.08h2c.35,0,.53.19.53.57a.47.47,0,0,1-.53.54h-2v1.76a9.83,9.83,0,0,0,1.72-.74,1,1,0,0,1,.33-.08.42.42,0,0,1,.45.45.7.7,0,0,1-.29.57,10.31,10.31,0,0,1-1.9.89,16.61,16.61,0,0,1-2.19.67c-.35,0-.53-.24-.54-.65a.55.55,0,0,1,.47-.62c.26,0,.5-.09.72-.14V65.15A.55.55,0,0,1,186.48,64.53Zm.14-5.61h9.61c.69,0,1,.29,1,.86v3.36c0,.57-.35.86-1,.86h-9.61c-.62,0-.94-.29-.94-.86V59.78C185.68,59.21,186,58.92,186.62,58.92Zm1.09-4.69a.68.68,0,0,1,.73.71.67.67,0,0,1-.18.39,6.14,6.14,0,0,0-1,1.17.33.33,0,0,0,.15.27l.88.77a.62.62,0,0,1-.43,1.13,1.06,1.06,0,0,1-.57-.24l-1.15-1.13a1.14,1.14,0,0,1-.37-.8,1,1,0,0,1,.27-.62l1.22-1.43A.92.92,0,0,1,187.71,54.23Zm.36,8.66a.41.41,0,0,1-.12-.3.46.46,0,0,1,.33-.48,10.43,10.43,0,0,0,1.6-.86A14.44,14.44,0,0,0,191.46,60h-4c-.27,0-.41.18-.41.54v1.8c0,.35.14.53.41.53Zm5.86,0c-.82-.48-1.72-1-2.68-1.43-.18.14-.37.28-.57.41a13.57,13.57,0,0,1-1.81,1Zm-3,1.64a.55.55,0,0,1,.62.62v.49h2.17c.38,0,.57.18.57.53a.5.5,0,0,1-.57.56h-2.17v1.08h2.17a.5.5,0,0,1,.57.57q0,.54-.57.54h-2.17v1.86l.39-.08c1-.2,1.75-.4,2.41-.61a.76.76,0,0,1,.31-.07.43.43,0,0,1,.47.44.62.62,0,0,1-.3.55,11.35,11.35,0,0,1-2.32.74c-.73.19-1.62.36-2.68.53a.54.54,0,0,1-.54-.62.57.57,0,0,1,.47-.65,4.35,4.35,0,0,0,.52-.06v-5.8C190.29,64.74,190.51,64.53,190.94,64.53Zm.78-10.3a.66.66,0,0,1,.7.71.71.71,0,0,1-.17.39,6.18,6.18,0,0,0-1,1.17.33.33,0,0,0,.2.27l.91.77c.2.16.3.31.3.42a.67.67,0,0,1-.71.71,1.23,1.23,0,0,1-.6-.24l-1.17-1.13a1.09,1.09,0,0,1-.39-.8,1,1,0,0,1,.27-.62l1.19-1.43A1,1,0,0,1,191.72,54.23Zm3.73,8.66c.32,0,.49-.18.49-.53v-1.8c0-.36-.17-.54-.49-.54h-3.28a.44.44,0,0,1,.1.29.73.73,0,0,1-.22.45c1,.49,1.86,1,2.62,1.42a.5.5,0,0,1,.25.41.61.61,0,0,1-.06.3Zm.55-8.66a.72.72,0,0,1,.8.71.57.57,0,0,1-.2.37,5.89,5.89,0,0,0-1.07,1.11c0,.11.07.2.21.29l1,.79c.21.19.31.35.31.46a.66.66,0,0,1-.68.71,1.33,1.33,0,0,1-.67-.24l-1.27-1.19a1.09,1.09,0,0,1-.41-.82.89.89,0,0,1,.28-.6l1.19-1.37A1,1,0,0,1,196,54.23Zm-.55,10.38c.47,0,.7.2.7.62,0,1,0,1.69.06,2.23s.09,1.06.16,1.48a5.6,5.6,0,0,0,.33,1.17c.08.19.13.28.16.28s.17-.22.21-.65l.1-1.15c.05-.35.23-.53.54-.53.49,0,.73.23.73.69a10.13,10.13,0,0,1-.08,1,9.34,9.34,0,0,1-.39,2c-.18.41-.42.61-.7.61a.81.81,0,0,1-.57-.28,4,4,0,0,1-.92-1.21,7,7,0,0,1-.6-1.68,14.84,14.84,0,0,1-.32-2.57c0-.62,0-1.11,0-1.47A.54.54,0,0,1,195.45,64.61Z"/><path class="cls-1" d="M201.48,55.23q.69,0,.69.78c0,.83,0,1.62-.1,2.37h1.58V55a.72.72,0,1,1,1.43,0v3.36h1.23a.55.55,0,0,1,.62.63c0,.46-.2.69-.62.69h-1.23v4.55a10.56,10.56,0,0,0,1.07-.72l.33-.06q.69,0,.69.78a.91.91,0,0,1-.35.61,16.18,16.18,0,0,1-1.74,1.19v5.76a.72.72,0,1,1-1.43,0v-5a18,18,0,0,1-2.36,1,1.37,1.37,0,0,1-.43.1c-.48,0-.72-.26-.72-.79a.76.76,0,0,1,.56-.78,16.91,16.91,0,0,0,2.62-1.07l.33-.16V59.7h-1.72a20.22,20.22,0,0,1-.7,3.28.77.77,0,0,1-.86.63.47.47,0,0,1-.53-.53,1.71,1.71,0,0,1,.08-.54,25.53,25.53,0,0,0,.94-6.66C200.87,55.45,201.08,55.23,201.48,55.23Zm7.74-1c.47,0,.7.21.7.63a17.13,17.13,0,0,1-.25,2.09h7.05c1,0,1.48.42,1.48,1.25a79.46,79.46,0,0,1-.49,10,5.63,5.63,0,0,1-1.13,3.28,3.17,3.17,0,0,1-2.44.9,7.5,7.5,0,0,1-2.21-.49.74.74,0,0,1-.52-.78c0-.52.22-.78.68-.78a9.16,9.16,0,0,0,2,.49,1.68,1.68,0,0,0,1.5-.69,6.28,6.28,0,0,0,.67-2.44,64.33,64.33,0,0,0,.41-8.93c0-.35-.19-.52-.57-.52h-.62c0,.28,0,.56-.08.84a23.08,23.08,0,0,1-1.27,5.19,17.46,17.46,0,0,1-2,3.93,19.92,19.92,0,0,1-3.24,3.53.9.9,0,0,1-.55.16.68.68,0,0,1-.51-.22.83.83,0,0,1-.21-.56.64.64,0,0,1,.23-.53A21.14,21.14,0,0,0,211,67.34a15.36,15.36,0,0,0,1.93-3.65,21.43,21.43,0,0,0,1.27-5.41h-1.7a1.15,1.15,0,0,1-.06.21,22,22,0,0,1-1.25,4,17.83,17.83,0,0,1-1.74,3.3,10.48,10.48,0,0,1-1.93,2.3.84.84,0,0,1-.49.16.66.66,0,0,1-.49-.24.84.84,0,0,1-.21-.54.61.61,0,0,1,.25-.49,12.79,12.79,0,0,0,1.84-2.15A21,21,0,0,0,210,61.73a17.39,17.39,0,0,0,1-3.45h-1.66c0,.17-.07.32-.11.47a10.87,10.87,0,0,1-1.66,3.34,1,1,0,0,1-.71.41c-.57,0-.86-.26-.86-.79,0-.09.08-.22.24-.41a8.94,8.94,0,0,0,1.6-3,14.66,14.66,0,0,0,.59-3.46Q208.5,54.23,209.22,54.23Z"/><path class="cls-1" d="M232.34,63.41a3,3,0,0,1-.88,2.17,3.1,3.1,0,0,1-4.33,0,3,3,0,0,1-.88-2.17,3,3,0,1,1,6.09,0Zm-1.05,0a2,2,0,1,0-.59,1.41A1.92,1.92,0,0,0,231.29,63.41Z"/><path class="cls-1" d="M5.86,95.14a.61.61,0,0,1,.7.68.74.74,0,0,1-.33.63,16.87,16.87,0,0,1-4.9,2.77,2.26,2.26,0,0,1-.47.14c-.52,0-.78-.29-.78-.86A.58.58,0,0,1,.45,98,18.42,18.42,0,0,0,5.37,95.3,1.22,1.22,0,0,1,5.86,95.14ZM17.27,83c.45,0,.68.24.68.72a.62.62,0,0,1-.68.71H15.14v8.73h2.57c.49,0,.73.23.73.7a.64.64,0,0,1-.73.72H.86a.64.64,0,0,1-.72-.72.63.63,0,0,1,.72-.7H3.65V84.44H1.41a.72.72,0,0,1,0-1.43H3.65V81.86a.62.62,0,0,1,.71-.7c.52,0,.78.23.78.7V83h8.51V81.78a.62.62,0,0,1,.71-.7c.52,0,.78.23.78.7V83ZM5.14,86.29h8.51V84.44H5.14Zm0,3.44h8.51v-2H5.14Zm0,3.44h8.51v-2H5.14Zm7.89,2a.69.69,0,0,1,.41.16A22.37,22.37,0,0,0,18,97.8c.36.13.55.34.55.62,0,.63-.29.94-.86.94A12.46,12.46,0,0,1,15,98.13a16.23,16.23,0,0,1-2.38-1.6,1.09,1.09,0,0,1-.3-.61A.61.61,0,0,1,13,95.22Z"/><path class="cls-1" d="M22.09,81.53h3.05a1.12,1.12,0,0,1,1.27,1.27V98.11c0,1-.61,1.43-1.82,1.43a5.8,5.8,0,0,1-1.31-.16.76.76,0,0,1-.57-.78c0-.47.22-.71.65-.71l1.07.14c.38,0,.57-.1.57-.29v-4.4H22.25c0,1-.08,2-.18,2.84s-.21,1.93-.35,2.79a.82.82,0,0,1-.86.64q-.78,0-.78-.72s0-.1,0-.27a22.38,22.38,0,0,0,.5-2.76,22.64,22.64,0,0,0,.24-3.46V82.8A1.1,1.1,0,0,1,22.09,81.53Zm.18,5.15H25V83.42c0-.31-.11-.47-.33-.47H22.5c-.16,0-.23.16-.23.47Zm0,5.34H25V88H22.27Zm14.59-5.73a.64.64,0,0,1,.72.73q0,.78-.72.78H33.44v9.66h4.14a.62.62,0,0,1,.7.71c0,.52-.23.78-.7.78h-10q-.72,0-.72-.78a.63.63,0,0,1,.72-.71h4.28V87.8h-3.5q-.72,0-.72-.78a.64.64,0,0,1,.72-.73h3.5V82.15a.69.69,0,0,1,.78-.78.7.7,0,0,1,.8.78v4.14Z"/><path class="cls-1" d="M42.27,81.37h2.5a1,1,0,0,1,1.09,1.1V98.19c0,.84-.6,1.27-1.8,1.27A3.68,3.68,0,0,1,43,99.3a.76.76,0,0,1-.53-.78c0-.47.2-.7.61-.7l.88.15c.35,0,.52-.1.52-.31V93.11H42.54c0,1-.11,1.84-.22,2.68A31.06,31.06,0,0,1,41.8,99a.82.82,0,0,1-.86.64c-.54,0-.8-.24-.8-.72a3,3,0,0,1,.07-.31,18.78,18.78,0,0,0,.65-3.13,25.46,25.46,0,0,0,.29-4v-9A1,1,0,0,1,42.27,81.37Zm.31,5.24h1.85V83.23c0-.35-.07-.53-.21-.53H42.64s-.06.18-.06.53Zm0,5.17h1.85V87.93H42.58Zm6.33-10.55a.68.68,0,0,1,.41.14.63.63,0,0,1,.19.49,1.07,1.07,0,0,1-.08.37.24.24,0,0,0,0,.08h7.86c.4,0,.6.21.6.64s-.2.63-.6.63H48.81a6.93,6.93,0,0,1-.72.92,4.45,4.45,0,0,1-.92.72.58.58,0,0,1-.37.16.67.67,0,0,1-.47-.22.84.84,0,0,1-.18-.51.5.5,0,0,1,.16-.37,3.33,3.33,0,0,0,.74-.62,5.77,5.77,0,0,0,.66-.88,5.6,5.6,0,0,0,.49-1.1A.65.65,0,0,1,48.91,81.23Zm-.26,3.66h7.58c.79,0,1.19.34,1.19,1v3.67c0,.72-.4,1.08-1.19,1.08H51.07A1.79,1.79,0,0,1,51,91c-.11.29-.21.55-.32.78h5.88c.77,0,1.15.34,1.15,1a2,2,0,0,1-.46,1,14,14,0,0,1-2.37,2.37l-.56.41a6.74,6.74,0,0,0,.89.45c.63.24,1.49.52,2.58.82a.66.66,0,0,1,.65.7.76.76,0,0,1-.86.86,16.49,16.49,0,0,1-2.5-.84,17,17,0,0,1-2.25-1.09l-.64.33a18.92,18.92,0,0,1-3.73,1.38,4.51,4.51,0,0,1-1,.22.76.76,0,0,1-.86-.86.67.67,0,0,1,.63-.7,23.63,23.63,0,0,0,2.89-.8,14,14,0,0,0,1.32-.51,14.88,14.88,0,0,1-2.42-2.31c0-.05-.06-.08-.08-.09l-.23.23a7.68,7.68,0,0,1-1.48,1.06,1,1,0,0,1-.47.13.67.67,0,0,1-.47-.19.79.79,0,0,1-.18-.51.57.57,0,0,1,.26-.45,8.07,8.07,0,0,0,1.34-.94A8.21,8.21,0,0,0,49,92.07a7.27,7.27,0,0,0,.77-1.4h-1.1c-.77,0-1.15-.36-1.15-1.08V85.92C47.5,85.23,47.88,84.89,48.65,84.89Zm.26,2.26H56v-.62c0-.3-.13-.45-.38-.45H49.3q-.39,0-.39.45Zm6.71,2.37c.25,0,.38-.19.38-.57v-.7H48.91V89q0,.57.39.57Zm-5.74,3.53a14,14,0,0,0,2.41,2.29,7.14,7.14,0,0,0,.64.43l.29-.16a11.22,11.22,0,0,0,2.4-2,1.42,1.42,0,0,0,.32-.47c0-.11-.08-.16-.24-.16H50.08l-.14,0A.09.09,0,0,1,49.88,93.05Z"/><path class="cls-1" d="M75.86,84c.77,0,1.15.42,1.15,1.27v6.21a2.87,2.87,0,0,1-.7,2.3,2.15,2.15,0,0,1-1.54.55A10,10,0,0,1,72,93.66a.73.73,0,0,1-.6-.71c0-.57.2-.86.6-.86a13.91,13.91,0,0,0,2.66.63.62.62,0,0,0,.62-.39,2.24,2.24,0,0,0,.24-1.1v-5c0-.37-.15-.56-.45-.56l-4.71,1.44v7.78a.7.7,0,1,1-1.39,0V87.56l-4.55,1.37v7.44c0,.59.35.95,1,1.09a36.5,36.5,0,0,0,5.31.26,45.32,45.32,0,0,0,4.65-.16,1.7,1.7,0,0,0,1.13-.39c.25-.18.37-.86.37-2a.65.65,0,0,1,.71-.7c.49,0,.76.34.8.94a6.3,6.3,0,0,1-.24,1.71,2.22,2.22,0,0,1-1.44,1.66c-.68.29-2.5.43-5.45.43a35.34,35.34,0,0,1-6.7-.39A2.14,2.14,0,0,1,63,96.68V89.4L61.07,90q-.78,0-.78-.93c0-.26.17-.44.49-.53L63,87.84V83.58c0-.52.23-.78.7-.78a.69.69,0,0,1,.78.78v3.81L69,86V82.15a.7.7,0,1,1,1.39,0v3.46Z"/><path class="cls-1" d="M83.5,81.68H95.14c1,0,1.42.45,1.42,1.33V93.17h1.31a.62.62,0,0,1,.7.7c0,.52-.23.78-.7.78H80.78c-.47,0-.7-.26-.7-.78a.62.62,0,0,1,.7-.7h1.39V83A1.18,1.18,0,0,1,83.5,81.68ZM85.78,95a.62.62,0,0,1,.7.71.71.71,0,0,1-.33.62,15.94,15.94,0,0,1-4.74,3,2.26,2.26,0,0,1-.47.14.76.76,0,0,1-.86-.86.66.66,0,0,1,.37-.63,17.93,17.93,0,0,0,4.84-2.81A1.23,1.23,0,0,1,85.78,95ZM83.65,84.59H95.08v-.93a.5.5,0,0,0-.57-.57H84.14c-.32,0-.49.19-.49.57Zm0,2.72H95.08V85.82H83.65Zm0,2.91H95.08V88.58H83.65Zm0,3H95.08V91.45H83.65Zm9.22,1.89a.73.73,0,0,1,.49.24,20,20,0,0,0,4.35,2.58c.38.12.57.33.57.62,0,.62-.28.94-.86.94a11.35,11.35,0,0,1-2.6-1.27,15.89,15.89,0,0,1-2.32-1.64,1.15,1.15,0,0,1-.41-.71A.68.68,0,0,1,92.87,95.06Z"/><path class="cls-1" d="M117.71,82.8a.57.57,0,0,1,.65.63c0,.46-.22.69-.65.69h-9.88a13.28,13.28,0,0,1-2,2.35s0,0-.06.06h9.86c1,0,1.47.47,1.47,1.42v9.44c0,1.26-1,1.89-2.87,1.89a12.72,12.72,0,0,1-2.91-.41.63.63,0,0,1-.45-.62c0-.58.18-.86.55-.86a2.71,2.71,0,0,1,.62.09,9.4,9.4,0,0,0,2,.32c1,0,1.56-.29,1.56-.86V94.65H105.08v4.08c0,.47-.26.71-.78.71a.64.64,0,0,1-.73-.71V88.24a22.76,22.76,0,0,1-2.26,1.29,1.48,1.48,0,0,1-.53.13c-.47,0-.7-.26-.7-.78a.67.67,0,0,1,.37-.54,16,16,0,0,0,4.71-3.2,8.08,8.08,0,0,0,.88-1h-5q-.63,0-.63-.69a.56.56,0,0,1,.63-.63h6c.26-.41.51-.83.74-1.27a.74.74,0,0,1,.57-.3c.52,0,.78.24.78.71a.86.86,0,0,1-.15.45l-.24.41Zm-12.63,7.26h10.54V88.41c0-.37-.13-.55-.41-.55h-9.84c-.19,0-.29.18-.29.55Zm0,3.36h10.54V91.29H105.08Z"/><path class="cls-1" d="M121,81.94h3.92c.93,0,1.39.43,1.39,1.31v3.12a1.21,1.21,0,0,1-1.39,1.35H122.5c-.33,0-.49,1-.49,3a.29.29,0,0,0,.33.33h3.36c.63,0,.94.46.94,1.39a19.24,19.24,0,0,1-.27,2.81,9.4,9.4,0,0,1-.88,3.12c-.35.75-1.14,1.12-2.37,1.12a8.36,8.36,0,0,1-2.05-.41.63.63,0,0,1-.54-.71.61.61,0,0,1,.7-.68,6.06,6.06,0,0,0,1.89.37c.81,0,1.31-.5,1.51-1.5a17.83,17.83,0,0,0,.45-3.56c0-.37-.14-.56-.41-.56h-3.11c-.69,0-1-.41-1-1.23a25.66,25.66,0,0,1,.21-3.21c.13-1.1.43-1.66.9-1.66h2.79c.28,0,.41-.12.41-.37V83.73a.36.36,0,0,0-.41-.41H121c-.47,0-.71-.22-.71-.68A.62.62,0,0,1,121,81.94Zm7.2,5.29h8.28c.73,0,1.1.34,1.1,1V93c0,.67-.37,1-1.1,1H133v1.64h4.55a.55.55,0,0,1,.62.63c0,.47-.2.7-.62.7H133v2a.61.61,0,0,1-.69.7.62.62,0,0,1-.7-.7v-2h-4.47c-.41,0-.61-.23-.61-.7s.2-.63.61-.63h4.47V94H128.2c-.74,0-1.11-.33-1.11-1v-4.7Q127.09,87.23,128.2,87.23ZM128,81.86h2.83c.62,0,.94.29.94.86v2.5a.84.84,0,0,1-.94.94H128a.83.83,0,0,1-.94-.94v-2.5C127.09,82.15,127.4,81.86,128,81.86Zm2.05,3.1c.3,0,.45-.17.45-.52V83.5c0-.33-.15-.49-.45-.49h-1.27c-.3,0-.45.16-.45.49v.94c0,.35.15.52.45.52Zm-1.58,5.1h3.14V88.5h-2.73c-.28,0-.41.15-.41.45Zm3.14,2.66V91.16H128.5v1.07c0,.33.13.49.41.49Zm2-10.86h2.91c.63,0,.94.29.94.86v2.5a.83.83,0,0,1-.94.94h-2.91a.84.84,0,0,1-.94-.94v-2.5C132.71,82.15,133,81.86,133.65,81.86ZM133,88.5v1.56h3.12V89c0-.3-.12-.45-.37-.45Zm2.75,4.22c.25,0,.37-.16.37-.49V91.16H133v1.56Zm0-7.76c.3,0,.45-.17.45-.52V83.5c0-.33-.15-.49-.45-.49h-1.35c-.3,0-.45.16-.45.49v.94c0,.35.15.52.45.52Z"/><path class="cls-1" d="M141.31,85.3c.47,0,.7.26.7.78a38.85,38.85,0,0,1-.53,6.64.78.78,0,0,1-.86.6c-.36,0-.54-.17-.54-.52a2.49,2.49,0,0,1,.06-.57,38.57,38.57,0,0,0,.56-6.31C140.72,85.5,140.92,85.3,141.31,85.3Zm2.5-3.93a.63.63,0,0,1,.7.72v16.7c0,.48-.23.73-.7.73s-.69-.25-.69-.73V82.09Q143.12,81.37,143.81,81.37Zm5.33.65a.62.62,0,0,1,.7.7q0,1.05-.09,2h2.34V82c0-.49.23-.73.7-.73s.78.24.78.73v2.71h3.52a.72.72,0,0,1,0,1.43h-3.52v4.66h3.07a.62.62,0,0,1,.7.71.62.62,0,0,1-.7.7h-3.07v5.41h4.07c.48,0,.72.23.72.68a.63.63,0,0,1-.72.71h-10.3a.63.63,0,0,1-.7-.71.61.61,0,0,1,.7-.68h4.75V92.23H148.5a.62.62,0,0,1-.71-.7.63.63,0,0,1,.71-.71h3.59V86.16h-2.58a9,9,0,0,1-.94,2.5A.68.68,0,0,1,148,89a.74.74,0,0,1-.55-.18c0,.08,0,.14,0,.18,0,.43-.23.64-.7.64a.64.64,0,0,1-.73-.64,24.11,24.11,0,0,0-.64-3.65l-.06-.34c0-.35.21-.52.63-.52a.76.76,0,0,1,.72.37,26.63,26.63,0,0,1,.62,3.12.57.57,0,0,0,.08-.13,8.67,8.67,0,0,0,.84-2.68,16.34,16.34,0,0,0,.18-2.48C148.44,82.22,148.67,82,149.14,82Z"/><path class="cls-1" d="M177.71,97.46a.64.64,0,0,1,.73.71c0,.52-.24.78-.73.78H161.07c-.46,0-.7-.26-.7-.78a.63.63,0,0,1,.7-.71h2.05V83.25c0-.82.44-1.23,1.31-1.23h9.79c.87,0,1.31.41,1.31,1.23V97.46ZM174,87V83.87c0-.3-.13-.45-.41-.45h-8.49c-.28,0-.41.15-.41.45V87Zm-9.31,1.4v3.73H174V88.42Zm0,5.16v3.88H174V93.58Z"/><path class="cls-1" d="M196.15,94.11a.7.7,0,1,1,0,1.4H190v2.13h7.58a.61.61,0,0,1,.7.68.62.62,0,0,1-.7.71H180.86a.63.63,0,0,1-.72-.71c0-.45.24-.68.72-.68h7.71V95.51h-6.3a.7.7,0,1,1,0-1.4h6.3v-1c0-.47.25-.7.73-.7a.62.62,0,0,1,.7.7v1Zm-10-5.08v1.79h2.29a.64.64,0,0,1,0,1.27h-6.33A1,1,0,0,1,181,91V83a1,1,0,0,1,1.09-1.07h6.25a.55.55,0,0,1,.62.62.54.54,0,0,1-.62.61h-2.21V85H188a1,1,0,0,1,1.11,1.12V88A1,1,0,0,1,188,89ZM184.82,85V83.17h-2.11c-.24,0-.37.16-.37.49V85Zm-2.48,1.12V88h5.24c.3,0,.45-.16.45-.49v-.93a.4.4,0,0,0-.45-.45Zm0,3v1.35c0,.29.13.44.37.44h2.11V89Zm8.11-7h6.41a.82.82,0,0,1,.93.93,4.79,4.79,0,0,1-.52,1.86,15.24,15.24,0,0,1-2.15,3.49,5.34,5.34,0,0,1-.45.53,8.13,8.13,0,0,0,.72.72A11.81,11.81,0,0,0,198,91.29a.71.71,0,0,1,.41.57.69.69,0,0,1-.78.78,2,2,0,0,1-.65-.23,11.79,11.79,0,0,1-2.48-1.76,10.09,10.09,0,0,1-.82-.76,14,14,0,0,1-2.87,2,2,2,0,0,1-.68.23c-.43,0-.65-.23-.65-.7,0-.25.17-.46.49-.63a15.09,15.09,0,0,0,2.79-2.07l-.56-.84a17,17,0,0,1-1.53-4.41,1.29,1.29,0,0,1,0-.25h-.19a.62.62,0,0,1,0-1.23Zm1.44,1.23a.09.09,0,0,1,0,.07,15.84,15.84,0,0,0,1.43,3.75l.37.59a17.22,17.22,0,0,0,2.21-3.52,2.24,2.24,0,0,0,.21-.82s-.05-.07-.15-.07Z"/><path class="cls-1" d="M201.39,93.58h-.18q-.6,0-.6-.63c0-.43.2-.64.6-.64h3.71V91.23h-2.64a1,1,0,0,1-1.11-1.09v-2a1,1,0,0,1,1.11-1.08h5.44c.79,0,1.19.36,1.19,1.08v2c0,.73-.4,1.09-1.2,1.09h-1.4v1.08h2.13a.64.64,0,0,1,0,1.27h-2.13v2h2.5a.55.55,0,0,1,.62.63c0,.47-.2.7-.62.7h-2.5v1.93q0,.72-.69.72a.63.63,0,0,1-.7-.72V96.92h-4.08c-.43,0-.64-.23-.64-.7a.56.56,0,0,1,.64-.63h.55Zm.33-11.12h2.05c.13-.37.25-.76.37-1.17a.74.74,0,0,1,.63-.29.63.63,0,0,1,.46.2.64.64,0,0,1,.22.48.69.69,0,0,1-.16.47,3.19,3.19,0,0,0-.09.31h2.14a1,1,0,0,1,1.16,1.12V85h.56c.41,0,.61.21.61.63s-.2.64-.61.64h-7.91a.64.64,0,0,1,0-1.27h1.68a10.41,10.41,0,0,0,.49-1.13.7.7,0,0,0,.06-.17h-1.66c-.38,0-.57-.22-.57-.65A.5.5,0,0,1,201.72,82.46Zm5.55,7.5a.28.28,0,0,0,.31-.31v-1c0-.23-.11-.34-.31-.34h-4.56c-.14,0-.21.11-.21.34v1c0,.21.07.31.21.31Zm-2.35,5.63v-2h-2.21v2ZM204.26,85h3V84c0-.2-.11-.29-.34-.29H204.8a3.24,3.24,0,0,1-.19.52A7,7,0,0,1,204.26,85Zm6-2.94h6.21c.93,0,1.39.52,1.39,1.58,0,3.46-.07,6.63-.21,9.49-.13,2.54-.43,4.19-.88,5a2.34,2.34,0,0,1-2.11,1.25,9.29,9.29,0,0,1-2-.25.79.79,0,0,1-.55-.71c0-.57.26-.86.79-.86a6.54,6.54,0,0,0,1.73.34c.56,0,1-.38,1.19-1.14a19.08,19.08,0,0,0,.49-4.22q.14-3.46.14-8.34c0-.52-.24-.78-.71-.78h-1.89v5.18a17,17,0,0,1-1.13,6.21,13.89,13.89,0,0,1-2.62,4.39q-.27.42-.57.42c-.54,0-.83-.27-.86-.73a1,1,0,0,1,.26-.47,15,15,0,0,0,3.43-7.69.83.83,0,0,1-.25-.12c-.75-.85-1.56-1.68-2.42-2.5a.89.89,0,0,1-.16-.37.69.69,0,0,1,.78-.78.8.8,0,0,1,.49.23,14.19,14.19,0,0,1,1.7,1.68,2.45,2.45,0,0,0,0-.27V83.34h-2.21a.61.61,0,0,1-.7-.69C209.57,82.23,209.8,82,210.27,82Z"/><path class="cls-1" d="M230.7,89.34a4.21,4.21,0,0,1-1.17,2.58c-.36.45-.68.68-.94.68s-.37-.13-.37-.39a2.39,2.39,0,0,1,.41-.68,1.61,1.61,0,0,0,.43-.73c0-.11-.17-.3-.52-.54a1.14,1.14,0,0,1-.16-1.84,1.37,1.37,0,0,1,1-.37,1.24,1.24,0,0,1,.91.39A1.16,1.16,0,0,1,230.7,89.34Z"/><path class="cls-1" d="M244,81.16a.8.8,0,0,1,.79.78.72.72,0,0,1-.18.45,19.66,19.66,0,0,1-1.19,2.22,7.29,7.29,0,0,1-.57.8,30.89,30.89,0,0,0,4.42-.54,14.56,14.56,0,0,0-.77-1.45.83.83,0,0,1-.17-.41c0-.36.23-.55.7-.55.17,0,.33.12.49.34a17.36,17.36,0,0,1,1.86,3.65,1.61,1.61,0,0,1,.07.49c0,.41-.26.62-.78.62-.23,0-.41-.15-.53-.47s-.25-.67-.37-1a.93.93,0,0,1-.25,0q-3.63.65-6.88.93c-.46,0-.7-.28-.7-.86a.64.64,0,0,1,.7-.72l.55,0a12.45,12.45,0,0,0,.82-1.27,29.72,29.72,0,0,0,1.37-2.77A.7.7,0,0,1,244,81.16ZM242.09,88h5.41c.77,0,1.15.34,1.15,1v9c0,.95-.6,1.43-1.79,1.43a7.47,7.47,0,0,1-2-.33c-.32-.11-.48-.28-.48-.53,0-.52.18-.78.56-.78a1.62,1.62,0,0,1,.41.06,6.07,6.07,0,0,0,1.39.23c.36,0,.55-.26.55-.78V95.45h-5v3.42a.63.63,0,0,1-.71.72.63.63,0,0,1-.7-.72V89Q240.86,88,242.09,88Zm.18,3.07h5V89.79c0-.3-.09-.45-.26-.45H242.5c-.16,0-.23.15-.23.45Zm0,3.1h5V92.31h-5Zm8.51-12.57a.62.62,0,0,1,.7.7v1.76a14,14,0,0,0,2.72-.67A12.25,12.25,0,0,0,256.8,82a.69.69,0,0,1,.78.78.83.83,0,0,1-.57.78,11.19,11.19,0,0,1-2,1,12.55,12.55,0,0,1-2,.59,14.31,14.31,0,0,1-1.45.27v2.27c0,.51.11.83.32,1a5.12,5.12,0,0,0,1.7.19,21.52,21.52,0,0,0,2.54-.1.74.74,0,0,0,.62-.27,3,3,0,0,0,.2-1.48.68.68,0,0,1,.72-.73c.44,0,.67.32.7.86a6.49,6.49,0,0,1-.14,1.39,1.75,1.75,0,0,1-.87,1.31,8.64,8.64,0,0,1-3.29.37,8,8,0,0,1-3.14-.39,2.1,2.1,0,0,1-.76-1.88V82.31A.62.62,0,0,1,250.78,81.61Zm0,9.31a.61.61,0,0,1,.7.69v1.93a15.22,15.22,0,0,0,2.72-.7,12.65,12.65,0,0,0,2.6-1.47.75.75,0,0,1,.84.86A.81.81,0,0,1,257,93a10.56,10.56,0,0,1-2,1,12.58,12.58,0,0,1-2,.58c-.85.17-1.33.26-1.45.26v2c0,.51.1.82.3,1a3.87,3.87,0,0,0,1.5.2A24.21,24.21,0,0,0,256,98a.85.85,0,0,0,.66-.29,3.06,3.06,0,0,0,.22-1.54.66.66,0,0,1,.72-.71c.44,0,.67.3.7.84a6,6,0,0,1-.16,1.41,1.72,1.72,0,0,1-.93,1.37,9.33,9.33,0,0,1-3.46.37,7,7,0,0,1-2.93-.39,2.18,2.18,0,0,1-.72-1.9V91.61A.61.61,0,0,1,250.78,90.92Z"/><path class="cls-1" d="M269.3,89.89a.69.69,0,0,1,.78.78v.78h7.63c.49,0,.73.23.73.7a.65.65,0,0,1-.73.73h-6.6a5.83,5.83,0,0,0,.73,1.3,6.24,6.24,0,0,0,1,1.14,27,27,0,0,0,2.75-1.66c.17-.23.32-.34.45-.34.52,0,.79.24.79.71a.94.94,0,0,1-.3.7,21.17,21.17,0,0,1-2.5,1.48c.44.29.91.56,1.39.83a15.64,15.64,0,0,0,2.07.82,1.61,1.61,0,0,1,1,.46.75.75,0,0,1,.15.47.7.7,0,0,1-.78.8,6,6,0,0,1-1.56-.48,14.84,14.84,0,0,1-2.46-1.22,16.64,16.64,0,0,1-1.8-1.3A9,9,0,0,1,270.66,95a8.75,8.75,0,0,1-.91-2.08h-.94a5.25,5.25,0,0,1-1.15,1.38,8,8,0,0,1-1.35.92v2.38l.25-.06a25.73,25.73,0,0,0,3.73-1,.62.62,0,0,1,.71.7.68.68,0,0,1-.47.65,28.06,28.06,0,0,1-3,.85,27.52,27.52,0,0,1-2.95.45c-1.24.17-1.94.26-2.11.26-.57,0-.86-.26-.86-.78a.6.6,0,0,1,.63-.65c1-.08,1.88-.16,2.65-.25v-2a24.19,24.19,0,0,1-3.69,1.14,2.35,2.35,0,0,1-.53.08.64.64,0,0,1-.5-.28.93.93,0,0,1-.2-.58.66.66,0,0,1,.62-.71,31.59,31.59,0,0,0,4-1.09,8.45,8.45,0,0,0,2-1.07,3.6,3.6,0,0,0,.45-.41h-6a.64.64,0,0,1-.7-.73.62.62,0,0,1,.7-.7h7.43v-.78A.7.7,0,0,1,269.3,89.89Zm-2.66-8.66a.62.62,0,0,1,.7.71v8.12a.7.7,0,0,1-1.4,0V87.31h-2.46a.19.19,0,0,1,0,.08,6.4,6.4,0,0,1-.43,2.13,4.45,4.45,0,0,1-.9,1.23.74.74,0,0,1-.45.17c-.38,0-.57-.21-.57-.62a.51.51,0,0,1,.16-.34,3.37,3.37,0,0,0,.74-1,4.21,4.21,0,0,0,.37-1.6h-1c-.37,0-.55-.21-.55-.63s.18-.52.55-.52h4.53V84.89H263a1.16,1.16,0,0,1-1.31-1.31V82.09a.56.56,0,0,1,.63-.64c.47,0,.7.21.7.64v1.08c0,.38.13.56.41.56h2.5V81.94A.62.62,0,0,1,266.64,81.23Zm10.78,2.19a.61.61,0,0,1,.7.69.62.62,0,0,1-.7.7h-3.77V88h3.15a.72.72,0,0,1,0,1.43h-7.37a.72.72,0,0,1,0-1.43h2.74v-3.2h-3.36a.62.62,0,0,1-.69-.7.61.61,0,0,1,.69-.69h3.36V82c0-.49.23-.73.7-.73s.78.24.78.73v1.4Z"/><path class="cls-1" d="M297.64,82a.7.7,0,1,1,0,1.4h-8.83v2.85l.33.1c1.28.86,2.44,1.69,3.48,2.48a27.16,27.16,0,0,1,4.47,4,1.06,1.06,0,0,1,.25.52.7.7,0,0,1-.78.79,1,1,0,0,1-.7-.24c-1.72-1.67-3.17-3-4.36-3.92-.83-.66-1.73-1.32-2.69-2V98.73a.7.7,0,0,1-.78.79c-.51,0-.76-.27-.76-.79V83.42H281a.7.7,0,1,1,0-1.4Z"/><path class="cls-1" d="M309.59,81a.69.69,0,0,1,.78.78v.45h7.27c.43,0,.64.19.64.57a.56.56,0,0,1-.64.62h-5.32a.61.61,0,0,1,.18.45v.57h5.29c.33,0,.49.15.49.45s-.16.56-.49.56H312.5V86c0,.35.12.53.37.53h3.93c.77,0,1.15.34,1.15,1v1.72c0,.68-.38,1-1.15,1h-4c-.24,0-.37.17-.37.52v.47h4.3c.3,0,.45.17.45.49s-.15.53-.45.53h-4.3V93.5h4.3a.4.4,0,0,1,.45.45q0,.57-.45.57h-4.3v1.07h4.3c.3,0,.45.16.45.49s-.15.53-.45.53h-4.3v.54c0,.54.24.8.7.8h3.43c.51,0,.77-.26.77-.8v-.29a.55.55,0,0,1,.62-.63c.47,0,.71.21.71.63v.7q0,1.62-1.71,1.62h-4.21a1.44,1.44,0,0,1-1.64-1.62V90.22c0-.69.37-1,1.09-1h4c.32,0,.48-.17.48-.52v-.49c0-.35-.16-.53-.48-.53h-3.86c-.74,0-1.11-.34-1.11-1V83.87a.61.61,0,0,1,.16-.45h-4.26a.59.59,0,0,1,.2.45v.65h2.4a.54.54,0,1,1,0,1.07H309L308.4,88h1.74a.5.5,0,0,1,.56.57c0,.35-.19.53-.56.53h-7.27a.47.47,0,0,1-.53-.53c0-.38.18-.57.53-.57h1.6L304,85.59h-.59c-.38,0-.57-.18-.57-.53s.19-.54.57-.54h2.58v-.65a.64.64,0,0,1,.15-.45h-3.3c-.41,0-.62.23-.62.69v6.4a28.88,28.88,0,0,1-.38,5.14,15.08,15.08,0,0,1-.73,3.14.66.66,0,0,1-.63.39c-.44,0-.67-.22-.68-.6a3.22,3.22,0,0,1,.17-.76c.09-.3.18-.64.26-1,.13-.6.25-1.22.37-1.85a32.57,32.57,0,0,0,.29-4.44v-7a1.14,1.14,0,0,1,1.31-1.27h6.66v-.45A.69.69,0,0,1,309.59,81Zm-5.17,9.06h4.23c.74,0,1.12.29,1.12.86V98c0,.95-.58,1.43-1.74,1.43a5.18,5.18,0,0,1-1.47-.26.54.54,0,0,1-.41-.52c0-.47.17-.71.49-.71a1.81,1.81,0,0,1,.29,0,3.63,3.63,0,0,0,.94.18c.38,0,.57-.24.57-.71V96h-3.77v3c0,.43-.23.64-.7.64a.56.56,0,0,1-.63-.64v-8C303.34,90.35,303.7,90.06,304.42,90.06Zm.25,2.4h3.77v-.85c0-.36-.17-.53-.49-.53h-2.87c-.28,0-.41.17-.41.53Zm0,2.6h3.77V93.42h-3.77Zm1.07-7h1.39l.55-2.42H305.2Z"/><path class="cls-1" d="M337.34,86.16a.61.61,0,0,1,.69.7q0,.78-.69.78h-7.16a11.26,11.26,0,0,0,.35,1.52,11.63,11.63,0,0,0,1.66,3.3A17.2,17.2,0,0,0,335,95.53,25.89,25.89,0,0,0,338.2,98a.93.93,0,0,1,.3.65.76.76,0,0,1-.79.78,1.3,1.3,0,0,1-.7-.33A27.36,27.36,0,0,1,333.18,96a19.1,19.1,0,0,1-2.36-3A13.69,13.69,0,0,1,329.3,90a14.33,14.33,0,0,1-1.53,3,19.1,19.1,0,0,1-2.42,3,23.9,23.9,0,0,1-3.79,3.22,1,1,0,0,1-.56.26.85.85,0,0,1-.86-.94c0-.17.16-.35.48-.55A23.55,23.55,0,0,0,324,95.16a17.84,17.84,0,0,0,2.76-3.22A12.62,12.62,0,0,0,328.11,89c.13-.5.22-1,.29-1.37h-7.09q-.69,0-.69-.78a.61.61,0,0,1,.69-.7h7.19V82.23a.79.79,0,0,1,1.58,0v3.93Z"/><path class="cls-1" d="M344.67,81.16a.67.67,0,0,1,.49.19.71.71,0,0,1,.21.51,1,1,0,0,1-.16.53,10.38,10.38,0,0,1-.76,1.44,4.41,4.41,0,0,1-.35.53h2.62c.87,0,1.31.41,1.31,1.23V97.66A1.16,1.16,0,0,1,346.72,99h-4.79a1.16,1.16,0,0,1-1.31-1.31V85.59c0-.82.44-1.23,1.31-1.23h.51a6.43,6.43,0,0,0,.59-.92,19.67,19.67,0,0,0,1-2A.71.71,0,0,1,344.67,81.16ZM342,90.59h4.63V86.25a.5.5,0,0,0-.57-.56h-3.49a.5.5,0,0,0-.57.56Zm4.06,7q.57,0,.57-.63V91.92H342V97q0,.63.57.63ZM351,81.23q.72,0,.72.63a19.2,19.2,0,0,1-.2,1.93h5.2c.94,0,1.4.52,1.4,1.57,0,3.09-.09,5.93-.29,8.49-.18,2.27-.57,3.75-1.17,4.45a3.42,3.42,0,0,1-2.75,1.12,9.21,9.21,0,0,1-3.62-.86.8.8,0,0,1-.52-.7c0-.58.25-.86.76-.86a9.15,9.15,0,0,0,3.28.93,1.92,1.92,0,0,0,1.85-1,9.77,9.77,0,0,0,.77-3.73q.21-3,.21-7.31c0-.52-.23-.78-.7-.78h-4.67a10,10,0,0,1-1.13,2.74,1.07,1.07,0,0,1-.71.37c-.57,0-.86-.26-.86-.78a.73.73,0,0,1,.24-.38,8.23,8.23,0,0,0,1.09-2.43,13.85,13.85,0,0,0,.39-2.78C350.29,81.44,350.53,81.23,351,81.23Zm.64,6.78a.73.73,0,0,1,.53.31,29.63,29.63,0,0,1,1.4,4.77,2.05,2.05,0,0,1,.08.57c0,.46-.28.7-.86.7-.27,0-.48-.19-.62-.57a34,34,0,0,0-1.1-4.76,1.08,1.08,0,0,1-.13-.45C350.94,88.2,351.17,88,351.64,88Z"/><path class="cls-1" d="M364.22,81.68a.8.8,0,0,1,.51.2.63.63,0,0,1,.27.51,1.88,1.88,0,0,1-.08.41,18.53,18.53,0,0,1-.53,1.93h4.34V81.86a.62.62,0,0,1,.7-.7c.52,0,.78.23.78.7v2.87h6.72a.72.72,0,0,1,0,1.43h-6.72v4.66h6a.62.62,0,0,1,.7.71.62.62,0,0,1-.7.7h-6v5.16h7.43a.7.7,0,1,1,0,1.4H361.15a.7.7,0,1,1,0-1.4h7.58V92.23h-5.86a.62.62,0,0,1-.7-.7.62.62,0,0,1,.7-.71h5.86V86.16h-4.82l-.24.52a16.82,16.82,0,0,1-1.58,2.91,1,1,0,0,1-.53.3c-.52,0-.78-.24-.78-.71a.56.56,0,0,1,.16-.39A16.65,16.65,0,0,0,362.46,86a19.69,19.69,0,0,0,1.19-3.83A.55.55,0,0,1,364.22,81.68Z"/><path class="cls-1" d="M381.48,82.23q.69,0,.69.78c0,.83,0,1.62-.1,2.37h1.58V82a.72.72,0,1,1,1.43,0v3.36h1.23a.55.55,0,0,1,.62.63c0,.46-.2.69-.62.69h-1.23v4.55a10.56,10.56,0,0,0,1.07-.72l.33-.06q.69,0,.69.78a.91.91,0,0,1-.35.61,16.18,16.18,0,0,1-1.74,1.19v5.76a.72.72,0,1,1-1.43,0v-5a18,18,0,0,1-2.36,1,1.37,1.37,0,0,1-.43.1c-.48,0-.72-.26-.72-.79a.76.76,0,0,1,.56-.78,16.91,16.91,0,0,0,2.62-1.07l.33-.16V86.7h-1.72a20.22,20.22,0,0,1-.7,3.28.77.77,0,0,1-.86.63.47.47,0,0,1-.53-.53,1.71,1.71,0,0,1,.08-.54,25.53,25.53,0,0,0,.94-6.66C380.87,82.45,381.08,82.23,381.48,82.23Zm7.74-1c.47,0,.7.21.7.63a17.13,17.13,0,0,1-.25,2.09h7.05c1,0,1.48.42,1.48,1.25a79.46,79.46,0,0,1-.49,10,5.63,5.63,0,0,1-1.13,3.28,3.17,3.17,0,0,1-2.44.9,7.5,7.5,0,0,1-2.21-.49.74.74,0,0,1-.52-.78c0-.52.22-.78.68-.78a9.16,9.16,0,0,0,2.05.49,1.68,1.68,0,0,0,1.5-.69,6.28,6.28,0,0,0,.67-2.44,64.33,64.33,0,0,0,.41-8.93c0-.35-.19-.52-.57-.52h-.62c0,.28,0,.56-.08.84a23.08,23.08,0,0,1-1.27,5.19,17.46,17.46,0,0,1-2,3.93,19.92,19.92,0,0,1-3.24,3.53.9.9,0,0,1-.55.16.68.68,0,0,1-.51-.22.83.83,0,0,1-.21-.56.64.64,0,0,1,.23-.53A21.14,21.14,0,0,0,391,94.34a15.36,15.36,0,0,0,1.93-3.65,21.43,21.43,0,0,0,1.27-5.41h-1.7a1.15,1.15,0,0,1-.06.21,22,22,0,0,1-1.25,4,17.83,17.83,0,0,1-1.74,3.3,10.48,10.48,0,0,1-1.93,2.3.84.84,0,0,1-.49.16.66.66,0,0,1-.49-.24.84.84,0,0,1-.21-.54.61.61,0,0,1,.25-.49,12.79,12.79,0,0,0,1.84-2.15A21,21,0,0,0,390,88.73a17.39,17.39,0,0,0,1.05-3.45h-1.66c0,.17-.07.32-.11.47a10.87,10.87,0,0,1-1.66,3.34,1,1,0,0,1-.71.41c-.57,0-.86-.26-.86-.79,0-.09.08-.22.24-.41a8.94,8.94,0,0,0,1.6-3,14.66,14.66,0,0,0,.59-3.46Q388.5,81.23,389.22,81.23Z"/><path class="cls-1" d="M18,109.09a.62.62,0,0,1,.7.71.62.62,0,0,1-.7.7H9.79L8.5,113.23h7.81c.94,0,1.4.45,1.4,1.33V125c0,.95-.64,1.43-1.93,1.43a7.86,7.86,0,0,1-2-.33.65.65,0,0,1-.45-.61c0-.57.18-.86.53-.86a2,2,0,0,1,.45.06,5.06,5.06,0,0,0,1.36.25c.41,0,.61-.28.61-.86v-8.77c0-.5-.29-.76-.86-.76h-3v10.86a.61.61,0,0,1-.7.69.61.61,0,0,1-.7-.69V114.56H7.42v10.86a.61.61,0,0,1-.7.69q-.72,0-.72-.69V114.56H3.28a.68.68,0,0,0-.78.76v10.41c0,.47-.26.71-.78.71a.63.63,0,0,1-.72-.71V114.56c0-.88.5-1.33,1.5-1.33H6.93l1.29-2.73H.7a.62.62,0,0,1-.7-.7.62.62,0,0,1,.7-.71Z"/><path class="cls-1" d="M37.34,109.09a.62.62,0,0,1,.69.71q0,.78-.69.78H31.05a1,1,0,0,1-.11.37,24.38,24.38,0,0,1-1.86,3.36h.14c.52,0,.78.21.78.64v10.84c0,.43-.26.65-.78.65s-.78-.22-.78-.65V115.23a18.1,18.1,0,0,1-1.35,1.62,21.4,21.4,0,0,1-5.57,4.37,1.45,1.45,0,0,1-.66.22.69.69,0,0,1-.78-.78.77.77,0,0,1,.45-.65,20.66,20.66,0,0,0,6-4.72,23.72,23.72,0,0,0,2.95-4.71H21.23c-.47,0-.7-.26-.7-.78a.62.62,0,0,1,.7-.71Zm-5.93,5.22a1.23,1.23,0,0,1,.52.15c1,.84,1.89,1.65,2.68,2.43A23.73,23.73,0,0,1,38,120.73a.85.85,0,0,1,.25.45c0,.52-.23.78-.7.78a1.07,1.07,0,0,1-.72-.23q-2-2.4-3.34-3.77c-.77-.78-1.63-1.57-2.58-2.38a.93.93,0,0,1-.24-.57A.62.62,0,0,1,31.41,114.31Z"/><path class="cls-1" d="M46.72,109.31a.55.55,0,0,1,.62.63c0,.47-.2.7-.62.7H44.23a1,1,0,0,1-.08.29,25.49,25.49,0,0,1-.72,3.28c0,.12-.07.23-.1.35h2.12c.8,0,1.19.37,1.19,1.1v8.2c0,.73-.39,1.09-1.19,1.09H43.22a1,1,0,0,1-1.11-1.09v-6.4a6.74,6.74,0,0,1-.86,1.31.71.71,0,0,1-.45.16.67.67,0,0,1-.51-.26.78.78,0,0,1-.19-.52.67.67,0,0,1,.21-.49,9.54,9.54,0,0,0,1-1.74,21.58,21.58,0,0,0,.91-2.51,19.21,19.21,0,0,0,.59-2.77h-1.6c-.4,0-.61-.23-.61-.7a.55.55,0,0,1,.61-.63Zm-1.86,14.37a.4.4,0,0,0,.45-.45v-7c0-.32-.15-.49-.45-.49h-1c-.25,0-.37.17-.37.49v7c0,.3.12.45.37.45ZM51,110.42h1.18v-1.56a.7.7,0,0,1,1.4,0v1.56h3.15c.94,0,1.4.44,1.4,1.33a3.07,3.07,0,0,1-.11.76,13.19,13.19,0,0,1-.43,1.66.87.87,0,0,1-.65.31q-.78,0-.78-.6a1,1,0,0,1,.08-.33,6.74,6.74,0,0,0,.35-1.08,1.1,1.1,0,0,0,.06-.31c0-.27-.16-.41-.49-.41H53.57v3.42h3.07c.63,0,.94.37.94,1.11a5.53,5.53,0,0,1-.31,1.49,16.13,16.13,0,0,1-1.35,3,14.47,14.47,0,0,1-1.29,1.82c.19.21.37.38.53.53A12.91,12.91,0,0,0,58,125a.71.71,0,0,1,.41.57c0,.57-.26.86-.78.86a2.08,2.08,0,0,1-.69-.26,11.83,11.83,0,0,1-2.65-1.93q-.33-.27-.63-.57a12.64,12.64,0,0,1-3.26,2.5,1.12,1.12,0,0,1-.43.18.69.69,0,0,1-.78-.78.71.71,0,0,1,.45-.63,14.38,14.38,0,0,0,3-2.22l.1-.1a9.73,9.73,0,0,1-1-1.41,17.3,17.3,0,0,1-1.64-4.78h-.67v.86a29.55,29.55,0,0,1-.25,3.94,16.56,16.56,0,0,1-.66,2.87,12.18,12.18,0,0,1-.67,1.68c-.15.33-.36.49-.6.49a.66.66,0,0,1-.71-.7,2.2,2.2,0,0,1,.1-.41q.38-.89.63-1.68a15.24,15.24,0,0,0,.58-2.58,23.36,23.36,0,0,0,.26-3.61v-5.65a1.09,1.09,0,0,1,1.23-1.23Zm-1.56,4.75h2.74v-3.42H49.92a.43.43,0,0,0-.49.49Zm2,1.27a15.94,15.94,0,0,0,1.47,3.88,10.83,10.83,0,0,0,.76,1.18,10.34,10.34,0,0,0,1-1.41,11.7,11.7,0,0,0,1.15-2.6,3.1,3.1,0,0,0,.2-.76c0-.19,0-.29-.14-.29Z"/><path class="cls-1" d="M70.08,108.78a.54.54,0,0,1,.62.61c0,.47-.2.7-.62.7l-4.44,0a6.35,6.35,0,0,1-.66,1.23h3.93c.62,0,.93.23.93.7a2.36,2.36,0,0,1-.58,1.39,9.67,9.67,0,0,1-2.4,2,18,18,0,0,1-4.11,1.74,7.24,7.24,0,0,1-1.68.37.69.69,0,0,1-.78-.78c0-.32.19-.51.57-.55a16.51,16.51,0,0,0,3.71-1.13c-.59-.25-1.18-.47-1.78-.66a.46.46,0,0,1-.37-.45c0-.38.18-.57.53-.57a2.05,2.05,0,0,1,.39.06c.69.22,1.48.51,2.36.88a.3.3,0,0,1,.14.08,9.76,9.76,0,0,0,1.87-1.33c.21-.21.32-.37.32-.47s-.08-.08-.24-.08H64.14a.49.49,0,0,1-.27-.06l-.28.22A12.36,12.36,0,0,1,61,113.94a1.92,1.92,0,0,1-.47.08.51.51,0,0,1-.43-.24.93.93,0,0,1-.18-.55.6.6,0,0,1,.53-.64,10.28,10.28,0,0,0,2.32-1,5.18,5.18,0,0,0,1.14-1l.23-.35-3.2,0c-.43,0-.65-.24-.65-.71s.22-.6.65-.6Zm-.86,7.5a.69.69,0,0,1,.78.78v1.17h7.71a.64.64,0,0,1,.73.71c0,.47-.24.7-.73.7h-7.3a6.35,6.35,0,0,0,.8,1.41,5.88,5.88,0,0,0,1,1,14.33,14.33,0,0,0,3.51-1.6.83.83,0,0,1,.37-.18.64.64,0,0,1,.73.71.68.68,0,0,1-.32.56A14.16,14.16,0,0,1,73.4,123a17,17,0,0,0,1.76,1,13.18,13.18,0,0,0,2.26.87,1.71,1.71,0,0,1,1.08.51.68.68,0,0,1,.15.45.63.63,0,0,1-.7.72,6.8,6.8,0,0,1-1.68-.48,19.11,19.11,0,0,1-2.64-1.25,16,16,0,0,1-1.91-1.37,9.66,9.66,0,0,1-1.52-1.66,8.64,8.64,0,0,1-1-2.19h-.27a5.45,5.45,0,0,1-1.18,1.41,8.4,8.4,0,0,1-2,1.29V125l.37-.06a28,28,0,0,0,3.52-.74c.47,0,.7.24.7.73a.67.67,0,0,1-.45.62,27.83,27.83,0,0,1-2.83.62,26.9,26.9,0,0,1-2.75.38c-1.16.1-1.83.15-2,.15-.57,0-.86-.26-.86-.78s.21-.58.61-.62c.85,0,1.6-.09,2.27-.16v-2.15a28.11,28.11,0,0,1-3.36,1,1.92,1.92,0,0,1-.47.08.51.51,0,0,1-.43-.24.93.93,0,0,1-.18-.55.6.6,0,0,1,.53-.64,25.83,25.83,0,0,0,4.24-1.21,8.47,8.47,0,0,0,2.07-1.19l.58-.55H60.7a.62.62,0,0,1-.7-.7.62.62,0,0,1,.7-.71h7.74v-1.17A.69.69,0,0,1,69.22,116.28Zm3.28-7.42a.62.62,0,0,1,.7.7v4.59c0,.48-.23.73-.7.73s-.7-.25-.7-.73v-4.59A.62.62,0,0,1,72.5,108.86Zm4.51-.33a.62.62,0,0,1,.7.7v6.27c0,1.2-.69,1.8-2.09,1.8A11.16,11.16,0,0,1,73.2,117a.68.68,0,0,1-.56-.68c0-.45.2-.69.56-.7a2.31,2.31,0,0,1,.39,0,15.83,15.83,0,0,0,2,.25q.69,0,.69-.78v-5.86A.62.62,0,0,1,77,108.53Z"/><path class="cls-1" d="M92.34,117.41a3,3,0,0,1-.88,2.17,3.1,3.1,0,0,1-4.33,0,3,3,0,0,1-.88-2.17,3,3,0,1,1,6.09,0Zm-1,0a2,2,0,1,0-.59,1.41A1.92,1.92,0,0,0,91.29,117.41Z"/></g></g></svg>