<svg xmlns="http://www.w3.org/2000/svg" viewBox="0 0 250 146"><defs><style>.cls-1{fill:#c1bd31;opacity:0.8;}.cls-2{fill:#fff;}</style></defs><title>food_detail</title><g id="圖層_2" data-name="圖層 2"><g id="food_detail"><path class="cls-1" d="M215,0H35A35.1,35.1,0,0,0,0,35V88a35.1,35.1,0,0,0,35,35h72.39A95,95,0,0,0,125,146a95,95,0,0,0,17.61-23H215a35.1,35.1,0,0,0,35-35V35A35.1,35.1,0,0,0,215,0Z"/><path class="cls-2" d="M114.56,86.42A6.25,6.25,0,0,1,112.78,89l-.7-.42a5.54,5.54,0,0,0,1.72-2.36Zm-1-.72V81.44a10.41,10.41,0,0,1-.89.68,3.1,3.1,0,0,0-.6-.6,11,11,0,0,0,3.53-3.76l1.06.18c0,.11-.1.17-.27.17l-.31.49H119l.13,0,.64.4a.29.29,0,0,1-.16.1,10.82,10.82,0,0,1-1,1.54h3.25v5.1Zm3.61-4.4h-2.83v1.51h2.83Zm-2.83,2.17V85h2.83V83.47Zm3.2-2.87a7.52,7.52,0,0,0,1-1.32h-2.9a16.27,16.27,0,0,1-1.13,1.32Zm-1.53,8.22a14.86,14.86,0,0,0-.25-2.31l.76-.06a12.91,12.91,0,0,1,.31,2.26Zm5-6V81.3h-3v1.51ZM121,85V83.47h-3V85Zm-1.93,3.82a12.12,12.12,0,0,0-.84-2.3l.75-.15a12.24,12.24,0,0,1,.87,2.25Zm3.41.14a12,12,0,0,0-1.85-2.53l.72-.31a11.53,11.53,0,0,1,1.9,2.47Z"/><path class="cls-2" d="M127.77,83.31V81.42a7.08,7.08,0,0,1-1.91,1.88,2.7,2.7,0,0,0-.48-.54,6.27,6.27,0,0,0,2.11-2h-1.93v-.68h2.21V77.82l1,.06c0,.07-.07.13-.23.15v2h2.18v.68h-2.18v.16c.49.29,1.91,1.21,2.24,1.48l-.44.59c-.34-.3-1.19-1-1.8-1.39v1.71Zm.7,2.09a5.81,5.81,0,0,1-.09.58c.75.52,1.65,1.22,2.14,1.65l-.54.55a17.4,17.4,0,0,0-1.83-1.5,4.33,4.33,0,0,1-2.31,2,3.39,3.39,0,0,0-.44-.61c1.76-.79,2.22-1.79,2.32-2.72h-2.17v-.72h2.2V83.57l1,.06c0,.09-.07.15-.23.17v.88h2.23v.72Zm-2-7.21a4.92,4.92,0,0,1,.73,1.39l-.61.26a5.42,5.42,0,0,0-.71-1.43Zm2.67,1.44a10.19,10.19,0,0,0,.72-1.49l.83.31c0,.08-.12.1-.24.1a11.89,11.89,0,0,1-.77,1.32Zm4,7.7a.26.26,0,0,1-.21.09A7.42,7.42,0,0,1,130.46,89a3.07,3.07,0,0,0-.54-.54,7,7,0,0,0,2.38-1.5Zm-1.9-7h1.63c.11-.39.21-.84.3-1.24h-2.35v-.72h5.81v.72h-2.63c-.09.36-.22.83-.36,1.24h2.56v6.31h-5Zm4.2,1.89V81h-3.46v1.24Zm0,1.87V82.87h-3.46v1.24Zm0,1.9V84.74h-3.46V86Zm-.68,1a14.13,14.13,0,0,1,2.1,1.55l-.63.44a14.64,14.64,0,0,0-2.07-1.58Z"/><path class="cls-2" d="M141.69,33.64c-6.08-8.3-11.49.5-11.49.5,5.84,8.7,10.37,2.51,11.55.54,2.35,4.8,3-.55,3-.55C144.08,28.87,142.3,32.28,141.69,33.64Zm-8.6.73a1,1,0,1,1,.74-.94A.86.86,0,0,1,133.09,34.37Z"/><path class="cls-2" d="M138.58,57.27c-9.73-13.26-18.38.79-18.38.79,9.35,13.92,16.58,4,18.47.88,3.75,7.66,4.79-.89,4.79-.89C142.39,49.65,139.55,55.09,138.58,57.27Zm-13.09,1.52a1.86,1.86,0,0,1-1.61-.95l-.07-.13a.54.54,0,0,0,0-.11c0-.08-.05-.15-.07-.23s0-.06,0-.09a2,2,0,0,1,0-.35,1.87,1.87,0,0,1,0-.34s0-.06,0-.09,0-.16.07-.23l0-.12.07-.12a1.85,1.85,0,1,1,1.61,2.76Z"/><path class="cls-2" d="M105.25,42.21s.83,6.83,3.84.7c1.51,2.52,7.29,10.44,14.77-.7,0,0-6.93-11.24-14.71-.63C108.38,39.84,106.11,35.48,105.25,42.21Zm13.64-.9a1.27,1.27,0,1,1,1.27,1.27A1.27,1.27,0,0,1,118.89,41.31Z"/></g></g></svg>