<svg xmlns="http://www.w3.org/2000/svg" viewBox="0 0 250 146"><defs><style>.cls-1{fill:#c1bd31;}.cls-1,.cls-33{opacity:0.8;}.cls-10,.cls-11,.cls-12,.cls-13,.cls-14,.cls-15,.cls-16,.cls-17,.cls-18,.cls-19,.cls-2,.cls-20,.cls-21,.cls-22,.cls-23,.cls-24,.cls-25,.cls-26,.cls-27,.cls-28,.cls-29,.cls-3,.cls-30,.cls-31,.cls-32,.cls-33,.cls-34,.cls-4,.cls-5,.cls-6,.cls-7,.cls-8,.cls-9{fill:#fff;}.cls-3{opacity:0.1;}.cls-4{opacity:0.38;}.cls-5{opacity:0.39;}.cls-6{opacity:0.28;}.cls-7{opacity:0.31;}.cls-8{opacity:0.25;}.cls-9{opacity:0.27;}.cls-10{opacity:0.26;}.cls-11{opacity:0.37;}.cls-12{opacity:0.34;}.cls-13{opacity:0.3;}.cls-14{opacity:0.33;}.cls-15{opacity:0.4;}.cls-16{opacity:0.32;}.cls-17{opacity:0.21;}.cls-18{opacity:0.35;}.cls-19{opacity:0.15;}.cls-20{opacity:0.18;}.cls-21{opacity:0.17;}.cls-22{opacity:0.36;}.cls-23{opacity:0.12;}.cls-24{opacity:0.2;}.cls-25{opacity:0.19;}.cls-26{opacity:0.13;}.cls-27{opacity:0.14;}.cls-28{opacity:0.11;}.cls-29{opacity:0.06;}.cls-30{opacity:0.07;}.cls-31{opacity:0.09;}.cls-32{opacity:0.05;}.cls-34{opacity:0.5;}</style></defs><title>height_detail</title><g id="圖層_2" data-name="圖層 2"><g id="height_detail"><path class="cls-1" d="M215,0H35A35.1,35.1,0,0,0,0,35V88a35.1,35.1,0,0,0,35,35h72.39A95,95,0,0,0,125,146a95,95,0,0,0,17.61-23H215a35.1,35.1,0,0,0,35-35V35A35.1,35.1,0,0,0,215,0Z"/><path class="cls-2" d="M122.94,102.93h-4v-.46l.66-.69c1.6-1.62,2.41-2.61,2.41-3.7a1.22,1.22,0,0,0-1.29-1.39,2.28,2.28,0,0,0-1.35.56l-.25-.53a2.7,2.7,0,0,1,1.75-.65,1.8,1.8,0,0,1,1.9,1.92c0,1.26-.89,2.35-2.29,3.75l-.53.56v0h3Z"/><path class="cls-2" d="M124.85,99.58c0-2.36.91-3.5,2.17-3.5s2.07,1.2,2.07,3.41-.82,3.55-2.16,3.55S124.85,101.83,124.85,99.58Zm3.48-.06c0-1.68-.41-2.84-1.35-2.84s-1.37,1.07-1.37,2.84.5,2.9,1.34,2.9C128,102.42,128.33,101.13,128.33,99.52Z"/><line class="cls-2" x1="84.5" y1="85" x2="84.5" y2="97"/><path class="cls-2" d="M83.75,85V97a.75.75,0,0,0,1.5,0V85a.75.75,0,0,0-1.5,0Z"/><line class="cls-2" x1="167.5" y1="85" x2="167.5" y2="97"/><path class="cls-2" d="M166.75,85V97a.75.75,0,0,0,1.5,0V85a.75.75,0,0,0-1.5,0Z"/><line class="cls-2" x1="53" y1="91" x2="199" y2="91"/><path class="cls-2" d="M53,91.75H199a.75.75,0,0,0,0-1.5H53a.75.75,0,0,0,0,1.5Z"/><path class="cls-2" d="M217.46,93.15a3.86,3.86,0,0,1-1.63.34A2.79,2.79,0,0,1,213,90.43a3,3,0,0,1,3.07-3.2,3.31,3.31,0,0,1,1.44.32l-.23.73A2.46,2.46,0,0,0,216,88a2.15,2.15,0,0,0-2.11,2.4A2.11,2.11,0,0,0,216,92.74a2.92,2.92,0,0,0,1.3-.3Z"/><path class="cls-2" d="M228.14,93.37h-.9V89.9c0-1.16-.42-1.91-1.32-1.91a1.52,1.52,0,0,0-1.41,1.6v3.78h-.9v-3.7c0-1-.41-1.68-1.25-1.68a1.63,1.63,0,0,0-1.48,1.7v3.68H220V88.91c0-.61,0-1,0-1.55h.81l0,1h0a2,2,0,0,1,1.82-1.1,1.71,1.71,0,0,1,1.64,1.2h0a2.1,2.1,0,0,1,1.93-1.2c.74,0,1.9.47,1.9,2.53Z"/><circle class="cls-2" cx="31" cy="91" r="2"/><path class="cls-3" d="M147.32,29.94a15.66,15.66,0,0,1-4.09.53c-4.19.11-4.48-2.09-10.63-5.23s-12-1.51-15.51-.41c-3,1-6.23,2.73-9,3.43a11,11,0,0,1,1-2.3c.61-.92,1-1.77,1-1.77a7.43,7.43,0,0,1,2.35.15c1.16.29,1.71.61,3,.17a6,6,0,0,0,2.53-1.25c.49-.52,2.55-2.49,2.67-2.55a11.19,11.19,0,0,1,5.2-.9,12.17,12.17,0,0,1,7.34,2.55A41.7,41.7,0,0,1,139,27.53a6.09,6.09,0,0,0,3.89,2.18A28.7,28.7,0,0,0,147.32,29.94Z"/><path class="cls-3" d="M108.12,28.26l.18-.54.1-.27.11-.27.12-.26a2.06,2.06,0,0,1,.12-.26l.13-.26.14-.25.59-1,.14-.25c0-.08.11-.16.15-.24l.27-.5v0h0a7.28,7.28,0,0,1,1.32,0,3.16,3.16,0,0,1,.32,0l.33,0c.22.05.43.09.64.15a9.68,9.68,0,0,0,1.27.29,1.72,1.72,0,0,0,.32,0,1.67,1.67,0,0,0,.32,0l.32,0,.31-.08.62-.2.62-.23a5,5,0,0,0,1.15-.59l.13-.1.11-.1.24-.23.46-.47.95-.9c.32-.3.63-.6,1-.89l.13-.11.15-.08c.1,0,.2-.09.3-.12l.31-.11.31-.1.32-.09.32-.07.32-.07.32,0,.65-.11.65-.06.33,0,.33,0h1.31c.22,0,.44,0,.65,0a11.17,11.17,0,0,1,2.57.52l.32.1.3.12a6.5,6.5,0,0,1,.61.25,12.9,12.9,0,0,1,1.17.6c.38.22.75.46,1.1.71l.27.19.26.2.52.4c.34.27.69.55,1,.83l.5.42.5.43c.33.28.65.58,1,.87l.47.45.48.46.46.46.11.12.11.13.21.25.21.25.21.25c.07.08.15.15.23.23a1.7,1.7,0,0,0,.24.22,5.94,5.94,0,0,0,2.28,1.19,11.83,11.83,0,0,0,2.58.39c.87.05,1.74.07,2.62.06h0c-.88,0-1.75,0-2.62,0a11.47,11.47,0,0,1-2.6-.36,6.22,6.22,0,0,1-2.33-1.19l-.25-.22-.23-.24a1.64,1.64,0,0,1-.21-.25l-.22-.25-.21-.24-.11-.13-.11-.12-.46-.46c-.15-.16-.31-.3-.47-.45s-.31-.31-.48-.45c-.32-.29-.64-.59-1-.87l-.5-.43-.5-.42L134,23l-.52-.4-.26-.2-.26-.19c-.35-.25-.72-.49-1.09-.71s-.76-.42-1.16-.61c-.2-.08-.39-.18-.6-.25l-.3-.12-.31-.1a11.14,11.14,0,0,0-2.55-.54c-.22,0-.43,0-.65,0H126c-.11,0-.22,0-.33,0h-1l-.32,0-.65.06c-.22,0-.44.06-.65.09a3,3,0,0,0-.32.06l-.32.07-.32.07-.31.09-.32.1-.3.11-.3.13-.15.07-.12.1-1,.9-.94.92-.46.46c-.08.08-.15.16-.23.23l-.12.12-.13.1a5.92,5.92,0,0,1-1.17.61l-.62.23a6.4,6.4,0,0,1-.62.2c-.11,0-.21.07-.32.09l-.33.06h-.33a1.83,1.83,0,0,1-.33,0,9.16,9.16,0,0,1-1.28-.3,4.8,4.8,0,0,0-.63-.15l-.33-.05a3.16,3.16,0,0,0-.32,0,8.06,8.06,0,0,0-1.3,0l0,0-.28.5-.15.25-.15.24-.6,1a2,2,0,0,0-.14.25l-.14.25-.12.26-.12.26-.11.26-.11.27c-.07.17-.13.35-.19.53Z"/><path class="cls-3" d="M153.68,30a3.06,3.06,0,0,1,.12-1.8c.35-1.22.75-3,0-4.12-.6-.92-1.93,1.11-3,2.78a28.21,28.21,0,0,1,.33-4.49,22.11,22.11,0,0,1,3.42-5.84c.93-1.05,2.37-2.13,3-2.06s1.36,3,1.51,3.72,1.05,2.94,1.21,3.45-2.41,4.08-3.77,5.57C155.94,27.75,153.68,30,153.68,30Z"/><path class="cls-3" d="M155.42,33.66c1.8-.41,1.75-.52,2.15-1.34s-.06-1.39-1.57-1.51a4.2,4.2,0,0,1-2.32-.81s4-3.44,4.59-3.72,4.2-2.79,4.88-2.67.69.43,1.78.39,2-.71,2.48-.39-.12,2.25-.54,3.56-.66,2.17-1.79,2.83a20.07,20.07,0,0,1-3.71,2c-1.53.55-6,1.61-6,1.61"/><path class="cls-3" d="M141.39,62.53a24.54,24.54,0,0,0,.5-7c-.47-3.78-.47-7.38-2.15-10s-3.89-4.88-3.37-6.45c.3-.89,1.86-1.16,1.86-1.16a22.66,22.66,0,0,0,7.44-1.75,4.6,4.6,0,0,1-.7,2.06c-.52.51-.81.33-2.73,1s-3.66,1.22-3.08,3.14,3.19,4.47,4.3,5.8a10.28,10.28,0,0,1,2.21,6c-.06,2.14,0,2.13-1.22,3.94S141.39,62.53,141.39,62.53Z"/><path class="cls-4" d="M108.92,28.17a1.12,1.12,0,0,1,0-.26c0-.08,0-.17.07-.26l.06-.14.06-.15.06-.14a.57.57,0,0,1,.08-.13,2.3,2.3,0,0,1,.15-.23,1.18,1.18,0,0,1,.17-.2h0l-.12.24a2.42,2.42,0,0,0-.12.23c0,.09-.08.19-.13.28l-.12.28-.1.24-.1.24Z"/><path class="cls-5" d="M109.71,27.76a.08.08,0,0,1,0,0,.52.52,0,0,1,0-.11,1.24,1.24,0,0,1,0-.16,1,1,0,0,1,.06-.22c0-.07,0-.15.08-.24s.07-.18.11-.27a2.39,2.39,0,0,1,.13-.28c0-.1.09-.19.13-.29l.29-.55c.09-.18.19-.34.27-.48s.15-.24.2-.32l.08-.13h0l-.74,1.52c-.1.19-.19.38-.28.56L110,27l-.1.24c-.06.15-.1.27-.13.36l0,.14Z"/><path class="cls-6" d="M110.3,27.63v0a.28.28,0,0,0,0-.1s0-.09,0-.15l0-.19.06-.23c0-.08,0-.16.07-.25l0-.07,0-.06.06-.12.12-.26.27-.49a1,1,0,0,1,.13-.22l.12-.2c.07-.12.15-.21.19-.28l.08-.11h0s-.09.16-.22.42l-.22.43c-.09.15-.17.32-.25.49l-.13.25a1.87,1.87,0,0,0-.12.25l-.09.24c0,.08,0,.15-.07.22s-.07.25-.09.33l0,.13Z"/><path class="cls-5" d="M110.81,27.42a1.3,1.3,0,0,1,0-.28s0-.08,0-.13,0-.09,0-.14l0-.15a1,1,0,0,1,0-.16l.06-.14a.64.64,0,0,1,.08-.14l.08-.13.08-.1a1.82,1.82,0,0,1,.2-.19h0l-.14.22a2.36,2.36,0,0,0-.13.23.84.84,0,0,0-.06.14l-.06.15c0,.09-.07.2-.11.29s0,.18-.07.26l-.05.26Z"/><path class="cls-7" d="M111.72,27.07s0,0,0-.11,0-.17,0-.28.06-.25.1-.39a1.72,1.72,0,0,1,.07-.21,1.43,1.43,0,0,1,.08-.22,4.08,4.08,0,0,1,.18-.42,1.18,1.18,0,0,1,.11-.19c0-.06.07-.11.1-.16a.6.6,0,0,1,.09-.13l.09-.1.07-.08h0l-.06.09-.06.1a.64.64,0,0,0-.08.14l-.09.17c0,.06-.06.12-.08.19s-.12.27-.18.42a1.8,1.8,0,0,1-.08.21c0,.07,0,.15-.07.21l-.13.38c-.07.22-.11.37-.11.37Z"/><path class="cls-4" d="M112.26,26.86v-.28c0-.08,0-.18,0-.28a.83.83,0,0,1,0-.15c0-.06,0-.11.05-.16a2.71,2.71,0,0,1,.13-.3l.08-.13a1,1,0,0,1,.08-.11l.13-.16a.17.17,0,0,1,.05-.05h0l-.13.24a.67.67,0,0,0-.06.12l-.06.13a2.68,2.68,0,0,0-.12.3,1866041993184.26,1866041993184.26,0,0,0-.1.3c0,.1-.06.19-.08.27s-.06.27-.06.27Z"/><path class="cls-8" d="M113.63,26.31a.67.67,0,0,1,0-.2,1.5,1.5,0,0,1,0-.2l0-.11,0-.12a1.31,1.31,0,0,1,.08-.21,1.45,1.45,0,0,1,.1-.18l.05-.07s0,0,0,0l0,0h0l0,.05,0,0s0,.05,0,.07-.09.26-.13.41-.17.59-.17.59Z"/><path class="cls-4" d="M114,26.11a1,1,0,0,1,0-.19.68.68,0,0,1,0-.19s0-.07,0-.11a.42.42,0,0,0,0-.1,1.21,1.21,0,0,1,.09-.2l.1-.17.1-.1,0,0h0l0,.05a.44.44,0,0,0-.06.12,1.38,1.38,0,0,0-.08.17c0,.06-.05.13-.07.2-.1.27-.19.55-.19.55Z"/><path class="cls-9" d="M114.64,25.86a.52.52,0,0,1,0-.15v-.14s0-.06,0-.08a.19.19,0,0,1,0-.08.76.76,0,0,1,.06-.16l0-.07,0-.06a.34.34,0,0,1,.11-.1h0a.87.87,0,0,0-.06.13,1.12,1.12,0,0,1,0,.13l0,.16a2.16,2.16,0,0,0-.08.29,1.11,1.11,0,0,1,0,.13Z"/><path class="cls-10" d="M116.31,25.34a1.08,1.08,0,0,1,0-.16V25a.28.28,0,0,0,0-.09.22.22,0,0,0,0-.08c0-.06,0-.12,0-.17a.66.66,0,0,1,.05-.15.55.55,0,0,1,.09-.13h0l-.08.47-.1.46Z"/><path class="cls-11" d="M116.71,25.14a.43.43,0,0,1,0-.15.76.76,0,0,1,0-.15.28.28,0,0,0,0-.09s0-.05,0-.08a1,1,0,0,1,0-.17l.06-.13a.8.8,0,0,1,.08-.13h0l-.08.45c0,.22-.09.45-.09.45Z"/><path class="cls-5" d="M117.14,24.5a.4.4,0,0,1,0,.09.31.31,0,0,1,0,.1v.09a.3.3,0,0,1,0,.1.18.18,0,0,1,0,.07A.19.19,0,0,1,117,25h0s0-.13,0-.26l.08-.26Z"/><path class="cls-4" d="M117.62,24.76a.32.32,0,0,1,0-.09,1.89,1.89,0,0,1,.06-.21,2.66,2.66,0,0,1,.11-.28,3.18,3.18,0,0,1,.16-.32l.18-.29.19-.25.16-.15.06-.06h0l-.17.24-.16.26c0,.1-.12.2-.17.3s-.23.42-.31.58l-.13.26Z"/><path class="cls-9" d="M119.06,24.41l0-.05.07-.14.12-.2.16-.25.21-.29.12-.16.06-.09.07-.07.56-.66.58-.65.28-.29.26-.25c.15-.16.29-.28.39-.37a1.12,1.12,0,0,1,.15-.13h0l-.5.55c-.15.16-.33.35-.51.56l-.57.65-.58.65c-.09.1-.17.21-.25.31l-.22.28-.18.24-.14.19a1.05,1.05,0,0,1-.08.13l0,0Z"/><path class="cls-12" d="M118.39,24.61v0l0-.12a1.08,1.08,0,0,1,.07-.18,1,1,0,0,1,.11-.23c0-.09.09-.17.14-.26a2.75,2.75,0,0,1,.19-.28c.07-.1.15-.18.23-.28l.24-.27.5-.52.45-.43c.13-.13.25-.23.33-.3l.13-.11h0s-.67.71-1.33,1.43l-.25.26-.23.27a2.22,2.22,0,0,0-.19.27l-.17.24c-.09.16-.16.3-.2.39a1.37,1.37,0,0,0-.07.16Z"/><path class="cls-7" d="M122.37,23.76v-.05s0-.08,0-.13,0-.12.08-.2.08-.16.12-.25l.17-.28.1-.15a1.34,1.34,0,0,1,.11-.14l.49-.62.5-.59a3.27,3.27,0,0,1,.24-.27l.22-.24.34-.34.13-.13h0l-.42.51-.44.52c-.16.19-.33.4-.49.61l-.5.6-.12.14-.1.14-.18.27-.13.24a1.12,1.12,0,0,0-.1.18c0,.11-.07.17-.07.17Z"/><path class="cls-13" d="M123.85,22.85v0s0-.06,0-.1a1.9,1.9,0,0,1,.16-.33l.06-.11a.61.61,0,0,1,.07-.1,1.14,1.14,0,0,1,.15-.23l.17-.24.19-.24.38-.46.34-.38c.1-.11.2-.2.26-.26a.72.72,0,0,1,.1-.1h0l-1,1.26-.19.24a2,2,0,0,0-.18.23c-.06.07-.11.15-.16.22l-.08.1-.06.1-.12.17s0,.1-.08.14a1.07,1.07,0,0,0-.06.12Z"/><path class="cls-14" d="M120.42,24.1a1.52,1.52,0,0,1,.11-.25c0-.07.08-.15.14-.24l.08-.13a1.47,1.47,0,0,0,.1-.13c.07-.08.13-.17.2-.24l.2-.19.22-.17h0l-.17.21-.18.21-.19.24c-.06.09-.13.17-.19.25l-.16.22-.16.22Z"/><path class="cls-6" d="M119.87,24.1a.18.18,0,0,1,0-.05.46.46,0,0,1,0-.13l0-.09a.41.41,0,0,1,0-.09.41.41,0,0,1,0-.09l.07-.09.07-.09a.27.27,0,0,1,.08-.07.79.79,0,0,1,.15-.12l.16-.09h0l-.12.13-.13.14-.07.08-.06.08-.13.17L120,24a.88.88,0,0,0-.07.12l0,0Z"/><path class="cls-9" d="M128.42,22.85a1.57,1.57,0,0,1,.07-.2l.09-.19.06-.1.07-.1.15-.19a1.06,1.06,0,0,1,.15-.15,1.42,1.42,0,0,1,.17-.13h0l-.12.16-.13.17-.14.2-.25.36-.12.17Z"/><path class="cls-15" d="M128.55,23.43l0-.09a1.31,1.31,0,0,1,.12-.24,3.15,3.15,0,0,1,.2-.31l.12-.16c.05-.06.09-.12.14-.17a1.07,1.07,0,0,1,.14-.16l.15-.15.15-.13.13-.11.13-.08.1-.06.09-.05h0l-.07.06-.09.07-.11.1c-.08.07-.16.16-.26.26l-.13.15-.15.16-.26.33-.23.29-.21.29Z"/><path class="cls-16" d="M128.93,24l0-.1c0-.07,0-.16.09-.26a1.22,1.22,0,0,1,.07-.17l.09-.18a1.18,1.18,0,0,1,.11-.19l.13-.19.07-.09a.31.31,0,0,1,.07-.09,1.07,1.07,0,0,1,.14-.16,3.43,3.43,0,0,1,.28-.27l.12-.1.1-.07.06,0,0,0h0a.36.36,0,0,0-.07.07,1.92,1.92,0,0,0-.19.2,3.74,3.74,0,0,0-.25.28,2.09,2.09,0,0,1-.14.17l-.13.18-.12.18a.94.94,0,0,0-.12.18l-.1.17c0,.06-.07.11-.09.16l-.12.24-.05.09Z"/><path class="cls-4" d="M130.21,24.41l.06-.11c0-.07.09-.18.16-.29s.16-.25.25-.39l.16-.21a1.77,1.77,0,0,1,.16-.22l.17-.21.18-.19a1.45,1.45,0,0,1,.17-.18l.16-.15c.06,0,.1-.09.15-.12a.56.56,0,0,1,.13-.07l.11-.06h0l-.11.07a1.35,1.35,0,0,1-.11.09l-.13.13c-.19.19-.41.47-.64.75l-.17.22-.15.2-.28.37-.27.36Z"/><path class="cls-15" d="M131,24.68a.9.9,0,0,1,.08-.19l.12-.19a.61.61,0,0,1,.07-.1l.08-.1.16-.18.16-.15a1.13,1.13,0,0,1,.18-.12h0l-.42.52-.44.52Z"/><path class="cls-6" d="M131.82,25l.05-.09.14-.25c.06-.1.13-.22.21-.33a2.14,2.14,0,0,1,.13-.19l.14-.18.15-.18.16-.17.3-.25c.09-.08.18-.13.23-.17l.09-.06h0l-.28.27-.28.27a2.09,2.09,0,0,0-.14.17l-.15.18-.52.67-.23.31Z"/><path class="cls-15" d="M126.65,22.75a1.71,1.71,0,0,1,.11-.2,2.36,2.36,0,0,1,.3-.39l.19-.19.19-.14.2-.11h0l-.16.16-.16.16-.18.19c-.25.25-.49.52-.49.52Z"/><path class="cls-15" d="M125.84,23.19a.55.55,0,0,1,0-.1l.14-.24a3.77,3.77,0,0,1,.22-.33,1.92,1.92,0,0,1,.13-.17l.14-.18.31-.33.16-.13.14-.12.14-.09.1-.06.09-.05h0l-.08.06-.09.08-.12.1-.13.13-.14.14-.3.34a4.19,4.19,0,0,0-.28.34c-.09.11-.18.21-.24.3l-.23.3Z"/><path class="cls-6" d="M134.25,25.45a1,1,0,0,1,.05-.18.71.71,0,0,1,.07-.16l0-.09.06-.09.14-.16.14-.12.12-.07h.06l0,0-.09.09-.11.14-.12.16c-.17.22-.32.46-.32.46Z"/><path class="cls-15" d="M134.77,26.54a.42.42,0,0,1,0-.07s0-.11,0-.18,0-.16.07-.25,0-.09.05-.13l.07-.14.07-.14a.83.83,0,0,1,.08-.12.5.5,0,0,1,.08-.12l.08-.09.08-.07.07-.05.06-.05h0l0,.06-.05.06-.06.08a1.42,1.42,0,0,0-.13.22l-.07.12a.91.91,0,0,0-.07.14c-.09.18-.17.36-.23.5a1.69,1.69,0,0,1-.1.23Z"/><path class="cls-14" d="M135.9,27.41a1.13,1.13,0,0,1,.07-.2l.1-.2.06-.11a.61.61,0,0,0,.07-.1,1.56,1.56,0,0,1,.16-.2,1.1,1.1,0,0,1,.16-.15.5.5,0,0,1,.13-.1l0,0h0l0,0-.1.12-.27.37-.39.56Z"/><path class="cls-8" d="M136.45,27.7a.38.38,0,0,1,0-.14.65.65,0,0,1,0-.13.94.94,0,0,1,.06-.15l.09-.13.1-.1a.55.55,0,0,1,.13-.07h0l-.07.11a1.27,1.27,0,0,0-.07.12l-.08.13c0,.05,0,.09-.07.13l-.07.12a1.1,1.1,0,0,1-.06.12Z"/><path class="cls-5" d="M151.38,25.92v-.58c0-.18,0-.38,0-.6l.06-.68c0-.24.07-.47.11-.68s0-.22.06-.31,0-.2.07-.28a2.88,2.88,0,0,1,.13-.41l.06-.15h0s0,.05,0,.15-.06.24-.1.41c-.06.35-.13.81-.18,1.27-.12.92-.2,1.85-.2,1.85Z"/><path class="cls-17" d="M152,25v-.18c0-.11,0-.28,0-.47s0-.42.07-.67.06-.5.1-.76.09-.51.14-.75.1-.46.15-.65a2.89,2.89,0,0,1,.14-.46,1,1,0,0,1,.06-.17h0s0,.07,0,.18a4.28,4.28,0,0,0-.1.46q-.06.29-.12.66c0,.24-.09.49-.12.75-.09.52-.16,1-.22,1.42s-.09.64-.09.64Z"/><path class="cls-11" d="M153.5,24.08l.09-.42c0-.13.07-.29.11-.48s.09-.39.15-.62c.12-.45.25-1,.42-1.53l.27-.86c.1-.29.2-.59.31-.88l.18-.43.1-.22.1-.2.41-.8c.13-.26.28-.5.41-.73l.38-.66c.24-.4.45-.72.6-.95s.23-.36.23-.36h0l-.22.37c-.13.24-.33.57-.56,1l-.36.66c-.13.23-.27.47-.4.73l-.4.8-.11.21-.09.21c0,.15-.12.29-.18.43-.11.29-.21.58-.31.87s-.19.58-.27.86-.17.54-.25.8l-.2.72c-.07.23-.12.43-.17.61s-.1.35-.13.48l-.11.41Z"/><path class="cls-18" d="M153.27,24.08s0-.09,0-.24,0-.36.05-.61.06-.55.11-.87.09-.65.14-1,.13-.67.19-1,.14-.6.2-.85a2.58,2.58,0,0,1,.1-.33,2.56,2.56,0,0,1,.09-.26l.08-.22h0a1.71,1.71,0,0,0-.06.22l-.08.26c0,.1,0,.21-.07.34L154,20c0,.14,0,.29-.08.45s-.12.65-.17,1-.11.67-.16,1l-.14.86c-.07.5-.12.84-.12.84Z"/><path class="cls-3" d="M153.27,24.41s0-.12,0-.33.09-.52.17-.88.15-.79.26-1.24l.32-1.41.18-.71c.06-.24.13-.47.19-.69l.09-.33a2.83,2.83,0,0,1,.11-.31,2.49,2.49,0,0,1,.11-.29c0-.1.08-.18.11-.27.15-.34.28-.61.37-.81s.15-.31.15-.31h0s-.19.45-.46,1.14c0,.08-.07.17-.11.27a2.47,2.47,0,0,0-.1.29c0,.1-.07.2-.1.31s-.05.21-.08.33l-.18.68-.18.72c-.47,1.91-.9,3.83-.9,3.83Z"/><path class="cls-9" d="M152.38,24.69V24.6a1.72,1.72,0,0,1,0-.23c0-.09,0-.2,0-.31l0-.18,0-.18a3.59,3.59,0,0,1,.08-.35,1.79,1.79,0,0,1,.09-.3,1.27,1.27,0,0,1,.07-.21.22.22,0,0,1,0-.08h0l-.18,1c-.05.24-.09.48-.12.67l-.05.3Z"/><path class="cls-5" d="M152.92,24.17V24c0-.13,0-.32,0-.55s0-.51,0-.79.06-.6.09-.91.07-.61.11-.89.1-.56.14-.78,0-.22.06-.31a2.07,2.07,0,0,0,.06-.24l.06-.21h0s0,.07,0,.2,0,.15,0,.24a2.79,2.79,0,0,0,0,.32c0,.22-.07.49-.11.78s-.07.59-.1.9c-.13,1.22-.25,2.45-.25,2.45Z"/><path class="cls-19" d="M153.27,29.18l.3-.28c.19-.18.45-.44.78-.74l.52-.5.59-.55.62-.6.63-.62.31-.32.15-.16.14-.17.27-.33.25-.34.12-.17.12-.17.22-.32.41-.6.59-.9.21-.35h0l-.2.35c-.13.23-.32.55-.56.93-.12.19-.25.39-.38.61s-.29.44-.46.67l-.25.34c-.08.12-.18.23-.27.34s-.09.12-.14.17l-.15.17-.31.32-.63.62-.63.59-1.14,1-1.11,1Z"/><path class="cls-14" d="M153.5,27.94l.27-.26.68-.7c.15-.14.3-.3.46-.47s.32-.35.5-.53l.53-.58.51-.62.52-.62.48-.61c.15-.2.31-.39.46-.57l.4-.52c.25-.32.47-.58.61-.77l.23-.29h0s-.07.11-.21.3l-.58.79c-.13.17-.25.35-.4.53l-.44.58-.48.62-.51.63c-.18.2-.35.41-.52.62l-.54.57c-.18.18-.34.36-.51.52l-.47.46c-.14.15-.28.27-.4.38l-.31.29-.28.25Z"/><path class="cls-20" d="M153.5,28.29l.12-.11c.07-.07.17-.18.3-.3s.29-.26.45-.4.35-.29.52-.45l.53-.43a2.19,2.19,0,0,1,.25-.2l.21-.18.19-.15.14-.13.12-.1h0l-.11.12-.13.13-.17.17-.21.19-.23.21-.52.45-1,.82-.46.36Z"/><path class="cls-6" d="M153.68,26.87l.13-.17c.08-.1.2-.25.35-.42s.32-.38.51-.58l.61-.66.62-.64a2.65,2.65,0,0,1,.29-.29l.25-.27.39-.38.16-.15h0l-.51.57-.52.57-.61.66-.61.65-.54.56-.53.55Z"/><path class="cls-19" d="M153.75,25.84l.24-.27.64-.7.42-.46c.16-.17.31-.35.48-.52l.51-.56.26-.28.25-.3a3.58,3.58,0,0,0,.26-.29l.24-.29a6.38,6.38,0,0,0,.46-.6l.82-1.05c.24-.31.45-.56.6-.74l.22-.27h0l-.77,1c-.23.31-.5.68-.8,1.07-.14.2-.29.41-.45.6l-.24.31-.26.29-.26.29c-.09.1-.18.19-.26.29s-.35.37-.52.55l-.92,1-.92.93Z"/><path class="cls-21" d="M153.68,25.13h0a.07.07,0,0,0,0,0l.11-.12c.09-.11.22-.27.39-.45l.57-.63.65-.7.67-.7.59-.6.41-.43.15-.17h0l-.14.19c-.08.11-.22.27-.38.45-.33.37-.77.86-1.22,1.34l-1.26,1.3-.42.42-.12.11,0,0h0Z"/><path class="cls-20" d="M155.49,22.68l-1.68,1.94-.12-.09c.4-.63.81-1.25,1.21-1.87l.59-.94.31-.47c.09-.16.2-.31.29-.47l.59-.94.29-.48.3-.47.58-.95.3-.47.14-.24.08-.11,0-.06,0,0s0,0,0,0,0,0,0,0h0s0,0,0,0l0,0,0,.06-.07.13-.14.24-.28.48-.55,1-.29.48-.29.48-.57.95-.3.47-.3.47-.6.94c-.41.62-.81,1.24-1.23,1.86h0l.43-.48.43-.48.87-.94Z"/><path class="cls-22" d="M153.5,24.41l.15-.3.41-.76c.18-.32.37-.69.6-1.08s.46-.8.71-1.22.49-.82.73-1.21.46-.73.65-1l.48-.73.18-.27h0l-3.91,6.6Z"/><path class="cls-23" d="M153.27,24.68s0-.1.1-.29.15-.45.27-.76.25-.69.4-1.07l.5-1.22c.17-.41.35-.82.52-1.21s.35-.73.5-1,.14-.29.2-.41l.18-.31.15-.27h0l-.14.27-.15.32-.19.41c-.14.31-.3.67-.46,1.05s-.35.8-.52,1.21c-.35.83-.69,1.65-.94,2.27l-.42,1Z"/><path class="cls-6" d="M153.21,25l.17-.37c.1-.24.25-.58.44-1s.4-.88.64-1.38.5-1,.76-1.57.53-1.06.78-1.56.5-1,.71-1.36.38-.71.51-.94l.19-.36h0s-1,2.13-2.09,4.27S153.22,25,153.22,25Z"/><path class="cls-8" d="M153.75,30.45l.21-.19.54-.51c.23-.2.49-.44.78-.68l.92-.77,1-.72c.15-.12.3-.22.45-.32L158,27l.36-.22.29-.15.25-.11h0l-.25.13-.27.16-.35.24-.4.28-.44.33-.94.73c-.64.51-1.27,1-1.74,1.42l-.78.65Z"/><path class="cls-24" d="M155.75,31.08l.45-.35c.28-.22.69-.55,1.19-.92l.8-.6c.28-.22.59-.45.9-.67s.64-.47,1-.7l1-.72.52-.34.25-.17.27-.17.26-.15.13-.08.14-.07.53-.27.51-.25.5-.23.92-.42c.28-.13.55-.23.78-.33l.6-.26.53-.22h0l-.52.24-.59.27-.77.36-.91.43-.49.23-.52.26-.52.27-.14.07-.13.08-.25.16-.27.16-.25.17-.52.35-1,.71-1,.69-.91.66-.81.58-1.68,1.23Z"/><path class="cls-7" d="M155.48,30.93l.34-.3.88-.78c.38-.31.81-.69,1.28-1.07l.73-.59.77-.6c.25-.2.52-.39.79-.57s.54-.33.8-.49.52-.3.77-.43l.7-.37c.43-.23.8-.4,1.05-.53L164,25h0l-.39.21-1,.56-.69.38c-.24.14-.5.28-.75.44s-.54.32-.8.5-.53.37-.78.57l-.77.59-.74.59-1.29,1-1.26,1Z"/><path class="cls-25" d="M154.92,30.93a2.71,2.71,0,0,1,.23-.22l.64-.58.92-.78,1.06-.89,1.09-.85.51-.38c.16-.13.32-.24.47-.34l.39-.28.31-.2.28-.17h0l-.27.19c-.08.06-.19.12-.3.21l-.38.29-.46.35-.49.4c-.35.27-.72.57-1.08.87-1.47,1.18-2.93,2.38-2.93,2.38Z"/><path class="cls-6" d="M154.68,30.69l.28-.27c.19-.17.44-.42.76-.7l1.09-1,1.28-1.08c.22-.18.44-.36.67-.53l.65-.51.31-.24.3-.22.57-.4a2.2,2.2,0,0,1,.25-.17l.23-.15.39-.24.33-.2h0l-.33.22-.37.25-.23.16a1.88,1.88,0,0,0-.24.18l-.55.41-.3.23-.31.24-.65.52-.65.53c-.45.36-.89.72-1.29,1.07l-1.12.94-1.07.93Z"/><path class="cls-14" d="M157,32.78l.16-.05.44-.13.61-.18.7-.18.71-.17.33-.08.29-.08.24-.06.19-.06.16-.05h0l-.16.07-.42.16c-.36.12-.83.25-1.32.37-1,.24-1.94.45-1.94.45Z"/><path class="cls-24" d="M157.42,32.26l.25-.08.67-.21.45-.14.5-.15,1.09-.32.55-.16.54-.15.5-.15.45-.14.38-.11a2.52,2.52,0,0,1,.29-.1l.25-.09v0l-.24.1-.29.11-.17.07-.2.07L162,31l-.5.16-.53.17-.56.16-1.09.31-1,.25-.94.24Z"/><path class="cls-26" d="M157.26,31.74l.38-.12.45-.14.57-.18.67-.21.75-.24.81-.25.82-.28.83-.29.4-.14.38-.16.37-.15.35-.16.65-.28.55-.24.43-.17.38-.14h0l-.37.15-.42.2-.54.25-.64.3-.35.16-.37.16L163,30c-.13.06-.26.1-.4.15s-.54.21-.82.3l-.83.27-.81.25-.76.22-.68.19-1.41.39Z"/><path class="cls-27" d="M157.26,31.36l.21-.08.54-.19c.23-.07.5-.17.79-.25l.9-.27.9-.26.79-.2L162,30l.22,0h0l-2.45.73-.91.26-.79.22-.77.21Z"/><path class="cls-28" d="M157,31.08l.33-.15.86-.39c.36-.15.78-.34,1.23-.52l1.42-.58,1.42-.57c.46-.19.89-.34,1.25-.48l.89-.33.34-.12h0l-3.87,1.59-1.42.57-1.24.5-1.22.48Z"/><path class="cls-18" d="M156.39,31.08l.42-.31c.28-.2.66-.48,1.14-.81l.76-.54.85-.59,1.88-1.26,1-.6.48-.3.11-.07.13-.07.24-.12.24-.13.24-.11.47-.2.87-.34c.27-.11.52-.19.74-.27l.57-.19L167,25h0l-.5.18c-.15.05-.35.12-.56.21l-.74.28-.86.36-.46.21-.23.11-.24.12-.24.13-.13.07-.11.07-.48.3-1,.61-1.88,1.25c-.6.39-1.16.77-1.63,1.09l-1.6,1.08Z"/><path class="cls-6" d="M156.46,31.36l.38-.25,1-.65.69-.43.78-.46.85-.49.88-.49.89-.47.44-.22.44-.2.84-.35.76-.3.65-.23.51-.17.32-.1.12,0h0l-.11,0-.32.12-.5.18-.64.26c-.23.09-.49.19-.75.31l-.84.36a4.25,4.25,0,0,0-.43.21l-.44.22-.89.47-.88.48-.84.48-1.5.87-1.45.85Z"/><path class="cls-20" d="M141.71,60.55l.62-1.1q.15-.26.3-.54t.33-.6l.34-.64c0-.11.11-.22.16-.34a3.54,3.54,0,0,0,.16-.34l.16-.34c0-.12.09-.23.13-.34A2.35,2.35,0,0,0,144,56l.09-.35c.06-.23.12-.45.17-.66s.09-.41.14-.6.08-.35.11-.5.05-.28.07-.39.07-.34.07-.34h0s0,.12,0,.34,0,.25-.07.4,0,.32-.09.51-.07.39-.11.6-.11.43-.16.66l-.09.36c0,.12-.07.23-.1.35s-.09.24-.14.35l-.15.35a27.11,27.11,0,0,1-1.34,2.44c-.39.65-.67,1.07-.67,1.07Z"/><path class="cls-29" d="M141.48,55l.11-.16.28-.42c.06-.08.12-.18.18-.28s.13-.21.21-.32.28-.46.41-.7.15-.24.21-.36.13-.24.18-.35.12-.23.17-.34a2.58,2.58,0,0,0,.13-.31c0-.1.08-.18.12-.26l.07-.21.08-.18h0s0,.06,0,.18,0,.13-.07.21-.06.18-.09.28-.08.2-.12.31-.1.23-.16.35a3,3,0,0,1-.18.36c-.06.13-.13.25-.19.37s-.29.48-.44.7l-.41.58c-.26.34-.44.55-.44.55Z"/><path class="cls-20" d="M141.71,58.63l.08-.17c.05-.12.12-.28.22-.47l.14-.3.17-.35c.12-.23.23-.49.36-.74l.18-.37c.06-.13.12-.25.17-.37l.31-.65.2-.47a1.32,1.32,0,0,1,.09-.17h0l-.24.66c0,.1-.08.21-.13.32l-.15.35-.16.37-.18.38c-.13.25-.25.51-.37.74s-.24.45-.34.64l-.35.61Z"/><path class="cls-30" d="M140.72,51.6l.08-.14.09-.17c0-.07.07-.14.11-.22s.08-.17.12-.27.09-.19.14-.29.09-.21.14-.32a3.27,3.27,0,0,0,.14-.33l.14-.33c0-.11.08-.22.12-.32l.12-.3c0-.1.07-.19.1-.28l.15-.41.06-.16h0l-.15.58c0,.09-.05.18-.09.28s-.07.2-.1.31l-.12.33-.13.34c-.05.11-.09.22-.15.33l-.15.31c0,.11-.1.2-.15.29l-.14.26c-.1.16-.17.29-.23.37l-.1.14Z"/><path class="cls-30" d="M141.48,53.81l0-.09.11-.24a3.58,3.58,0,0,1,.18-.32c.07-.12.14-.24.22-.36l.11-.19.12-.17.2-.3.15-.22.06-.08h0l0,.09a2.63,2.63,0,0,1-.12.24c-.05.09-.11.21-.18.32l-.21.37c-.31.49-.64,1-.64,1Z"/><path class="cls-19" d="M141,49.31a.45.45,0,0,1,0-.08l0-.21a1.9,1.9,0,0,1,.09-.29l.06-.16.06-.16.15-.31.15-.26.11-.18.05-.06h0l-.36.86c-.19.42-.37.85-.37.85Z"/><path class="cls-20" d="M144.68,36.27a.51.51,0,0,1,0,.09c0,.06,0,.13,0,.23s0,.19-.08.31a1.54,1.54,0,0,1-.05.17,1.21,1.21,0,0,1,0,.18l-.13.34c0,.11-.1.2-.13.29s-.09.15-.11.2l-.05.07h0l.32-.94.32-.94Z"/><path class="cls-31" d="M144,36.27a1.83,1.83,0,0,1,0,.26c0,.08,0,.17,0,.26l0,.15,0,.14-.09.29q0,.14-.09.24a1.57,1.57,0,0,1-.12.23h0s.1-.39.19-.79.21-.78.21-.78Z"/><path class="cls-32" d="M138.47,37.55l.09.05.24.14.33.23.18.14.17.15c.12.11.23.21.33.32l.14.16a.79.79,0,0,1,.12.15.77.77,0,0,1,.09.13l.07.11a.39.39,0,0,0,0,.1h0l-.06-.09-.08-.09a.53.53,0,0,0-.1-.12,2.46,2.46,0,0,0-.28-.28l-.33-.31c-.46-.41-.95-.79-.95-.79Z"/><path class="cls-21" d="M137.13,37.84l.11,0a2.24,2.24,0,0,1,.3.09l.4.15c.14.07.29.14.44.23l.21.13.2.14.17.15.15.14.12.14.07.1.07.1h0l-.08-.08a.41.41,0,0,0-.09-.1l-.12-.11-.16-.13-.18-.13-.41-.26c-.29-.17-.59-.32-.81-.42l-.39-.16Z"/><path class="cls-24" d="M135.91,40.62h1.75a2.43,2.43,0,0,0,.27,0h.47l.34,0h.13v0l-.46,0-.48,0h-1.09l-.47,0-.34,0h-.12Z"/><path class="cls-30" d="M135.91,40.28l.15,0,.39,0c.17,0,.36,0,.56,0l.64,0,.63,0,.56,0,.21,0,.17,0,.1,0h.05l0,0-.1,0a1.85,1.85,0,0,1-.38.1c-.33.05-.76.09-1.2.11-.87,0-1.74,0-1.74,0Z"/><path class="cls-26" d="M136.31,38.62l.12.07.33.18L137,39l.25.12.26.11.29.1.14,0,.14,0,.28.07.27.06.13,0h.11l.21,0h.16l.14,0h-.63l-.13,0-.28,0-.29-.07-.14,0-.15,0-.29-.11-.27-.12-.25-.13-.21-.13c-.26-.17-.42-.3-.42-.3Z"/><path class="cls-20" d="M136.38,39l.08,0a1.81,1.81,0,0,1,.2.1l.27.16.16.09.15.1.31.19.26.17.11.06.09,0,.08,0h0L138,40l-.09,0-.12,0-.29-.14-.32-.18c-.42-.27-.81-.58-.81-.58Z"/><path class="cls-21" d="M140.72,48.06a.62.62,0,0,1,0-.09c0-.06,0-.15,0-.25s0-.23,0-.35.05-.27.07-.4a29102799472610.61,29102799472610.61,0,0,0,.06-.4,2.23,2.23,0,0,0,0-.34V46a.51.51,0,0,1,0-.09h0l0,.1s0,.06,0,.1a.68.68,0,0,1,0,.15v.16a1.21,1.21,0,0,1,0,.19A2,2,0,0,1,141,47a7.72,7.72,0,0,1-.27,1.08Z"/><path class="cls-2" d="M89,23.5a12.34,12.34,0,0,1,5-.7,9.32,9.32,0,0,1,5.52,2.61c2.32,2,4.53,3.49,7.49,3.08s6.62-2.55,10.11-3.66,9.35-2.73,15.51.41,6.44,5.34,10.63,5.23S148.8,29.59,150,28s3.08-5.11,3.84-4,.35,2.9,0,4.12a3.06,3.06,0,0,0-.12,1.8,4.2,4.2,0,0,0,2.32.81c1.51.12,2,.7,1.57,1.51s-.35.93-2.15,1.34-2.61-.23-5.69.81-6.56,3.14-11.5,3.37-10.8-.87-13.53-1.33a40.45,40.45,0,0,0-12.43.64c-4.18.87-12.2,1.34-15.57.72s-4.3-1.31-6.21-1.65a9.33,9.33,0,0,0-3.55-.29,11.37,11.37,0,0,1-4.29-.35c-.51-.31.46-.58,1-.58a14.86,14.86,0,0,0,3.49-.82c1.12-.42,3.21-1.51,4.33-2s1.28-.54,1.28-.77-.58-.59-1-.78-3.88-.85-5-1.7-3.57-2.44-4.21-2.44-.6-.51,0-1.13,2.08-.58,2.55-.58a8.81,8.81,0,0,0,2-.62Z"/><path class="cls-2" d="M91.31,27a1.39,1.39,0,1,1-1.39-1.39A1.4,1.4,0,0,1,91.31,27Z"/><path class="cls-2" d="M90.58,27.09a.68.68,0,1,1-1.36,0,.68.68,0,1,1,1.36,0Z"/><path class="cls-2" d="M83,26.6a1.35,1.35,0,0,0-.46-.12,2.05,2.05,0,0,0,.17.89c.21.44.73,1.38.73,1.38a4.52,4.52,0,0,1-.25-.76C83.1,27.66,83,26.6,83,26.6Z"/><path class="cls-2" d="M84.05,27.16c-.2-.12-.39-.23-.57-.32a1.69,1.69,0,0,0,.17.78,9.89,9.89,0,0,1,.55.87c.09.15.33.51.33.51a.81.81,0,0,0-.07-.51,9,9,0,0,1-.35-1.3"/><path class="cls-2" d="M85.4,28l-.8-.5a4,4,0,0,0,.22.67,7.91,7.91,0,0,1,.58.91l.14.42s.17-.23.1-.4A10.45,10.45,0,0,1,85.4,28Z"/><path class="cls-2" d="M86.71,28.92c-.2-.16-.45-.34-.72-.53a4.55,4.55,0,0,0,.26.53l.32.57s.16-.21.14-.31A2.1,2.1,0,0,1,86.71,28.92Z"/><path class="cls-2" d="M87.39,29.31l-.25-.13a.56.56,0,0,0,.13.36Z"/><path class="cls-2" d="M88,29.56l-.34-.13a2.25,2.25,0,0,0,.08.48.47.47,0,0,0,.18.22s0-.46.1-.56"/><path class="cls-2" d="M88.55,29.74l-.31-.1a2.33,2.33,0,0,0,.12.49.66.66,0,0,0,.24.26,1.12,1.12,0,0,1,0-.37A1.13,1.13,0,0,0,88.55,29.74Z"/><path class="cls-2" d="M89.22,30l-.36-.11a1.23,1.23,0,0,0,.11.41c.08.11.33.41.33.41s-.06-.33-.07-.41S89.22,30,89.22,30Z"/><path class="cls-2" d="M89.78,30.1c0-.1-.2-.05-.3-.08a2.38,2.38,0,0,0,.23.5S89.76,30.23,89.78,30.1Z"/><path class="cls-2" d="M85.66,34.63l-.42.1a4.82,4.82,0,0,1-.52-.84,2.7,2.7,0,0,1-.15-1.11,7.73,7.73,0,0,0,.36.83c.09.13.54.86.61.9A.4.4,0,0,1,85.66,34.63Z"/><path class="cls-2" d="M87,34.24l-.27.09a3.35,3.35,0,0,1-.69-.5,3.64,3.64,0,0,1-.21-.52s.52.45.63.51S87,34.24,87,34.24Z"/><path class="cls-2" d="M87.5,34c.14,0-.25.1-.36.14a1.69,1.69,0,0,1-.27-.52,1.48,1.48,0,0,1,0-.25S87.32,34,87.5,34Z"/><path class="cls-2" d="M88.17,33.74l-.27.12s-.36-.14-.37-.33a3,3,0,0,1,0-.33l.41.33Z"/><path class="cls-2" d="M88.91,33.4l-.29.13a1.53,1.53,0,0,1-.06-.29V33Z"/><path class="cls-2" d="M89.48,33.12l-.25.12a1.57,1.57,0,0,1-.06-.28C89.17,32.88,89.48,33.12,89.48,33.12Z"/><path class="cls-2" d="M89.89,32.92l-.25.13-.16-.26a1.51,1.51,0,0,1,0-.28l.35.27Z"/><path class="cls-2" d="M90.3,32.73l-.26.12a1.43,1.43,0,0,1-.11-.26.48.48,0,0,1,0-.18l.18.16Z"/><path class="cls-2" d="M84.41,34.9a5,5,0,0,1-.56.08,2.89,2.89,0,0,1-.35-.66,4,4,0,0,1,0-.62,3.56,3.56,0,0,0,.24.51Z"/><path class="cls-2" d="M83.3,35a2.13,2.13,0,0,0-.54.14l-.29-.63A4.79,4.79,0,0,1,82.28,33s.12.44.21.67a8.11,8.11,0,0,0,.29.76C82.89,34.57,83.3,35,83.3,35Z"/><path class="cls-2" d="M139.74,45.45c-1.68-2.67-3.89-4.88-3.37-6.45.3-.89,1.86-1.16,1.86-1.16,4.94-.23,8.42-2.32,11.5-3.37l-3.35,0c-.89,0-7.2,1-9.37,1.09a41.23,41.23,0,0,1-11.15-2.06,24.9,24.9,0,0,0-11-1c-2.17.39-3.76.93-7.28,1.9A8.35,8.35,0,0,1,101,33.09a4,4,0,0,1-1.55,2.49l-1.12.81a7.17,7.17,0,0,1-3.1-.17,28,28,0,0,0-5.49-1.43,16.49,16.49,0,0,0-2.51-.06,21.29,21.29,0,0,1-3.13.58l-1.49.27a11.37,11.37,0,0,0,4.29.35,9.33,9.33,0,0,1,3.55.29,9.59,9.59,0,0,1,2.76,1.53A3.5,3.5,0,0,1,94,41c-.27,1.12-2.52,4.22-4.22,6.54A54.69,54.69,0,0,0,85,56.87c-.74,1.9-.33,8,1.35,11.41s6.45,7,11.33,8.71,8.54,1.8,10.45,2.44,9.07.46,13.77-.29S137.3,73.8,139.1,70s3.25-10.75,2.79-14.52S141.42,48.12,139.74,45.45Z"/><path class="cls-2" d="M98.36,36.38l.87-.67.21-.17.21-.17.19-.19A1.71,1.71,0,0,0,100,35l.17-.21.15-.22.14-.23.12-.24a2.56,2.56,0,0,0,.11-.24,2.5,2.5,0,0,0,.09-.25,2.58,2.58,0,0,0,.08-.26,2.24,2.24,0,0,0,0-.24h0v0q.06-.34.09-.69c0-.23,0-.46.07-.69s0-.23,0-.35V31c0-.12,0-.23,0-.35s0-.23,0-.34l0-.33h0v-.15l0-.17a.85.85,0,0,0,0-.17l0-.16c0-.11-.06-.22-.09-.34s-.06-.22-.09-.33-.07-.22-.11-.33-.06-.23-.1-.34l-.12-.33h0a2.38,2.38,0,0,1,.18.3l.17.31c.06.11.11.21.16.32s.09.22.13.33a2,2,0,0,1,.12.34,3.58,3.58,0,0,1,.11.35l0,.17,0,.09v.08h0l0,.37v.36c0,.12,0,.24,0,.35l0,.36c0,.12,0,.23-.05.35s-.06.47-.1.7-.07.46-.12.7v0a2,2,0,0,1-.06.3q0,.15-.09.27a2,2,0,0,1-.11.26l-.12.26-.14.24a1.88,1.88,0,0,1-.16.23c0,.08-.11.15-.17.23s-.12.14-.18.21a1.8,1.8,0,0,1-.2.19,1.9,1.9,0,0,1-.21.19l-.22.16-.23.16-.9.61Z"/><path class="cls-2" d="M98.67,35.66l.09,0,.25-.16a3.58,3.58,0,0,0,.36-.28l.21-.2.21-.23c.07-.08.13-.18.2-.27l.2-.31c.06-.11.12-.22.19-.33s.11-.24.16-.37.09-.25.14-.39l.09-.41c0-.14,0-.28,0-.42a.41.41,0,0,0,0-.11v-.32a1.55,1.55,0,0,0,0-.22l0-.21c0-.15,0-.29,0-.43s-.06-.28-.1-.41-.07-.27-.11-.4l-.12-.38c-.05-.12-.09-.24-.13-.36s-.18-.45-.27-.65-.16-.39-.24-.55-.14-.3-.2-.42-.18-.36-.18-.36h0l.23.33a4.1,4.1,0,0,1,.25.4c.09.16.19.33.29.53a6.58,6.58,0,0,1,.31.65,7.31,7.31,0,0,1,.27.75,6,6,0,0,1,.19.84c0,.15,0,.3,0,.45l0,.22c0,.07,0,.15,0,.22v.34s0,.07,0,.11,0,.3-.07.44-.06.29-.1.43l-.15.4c-.06.12-.12.25-.19.36a3.79,3.79,0,0,1-.2.34q-.11.16-.21.3a3,3,0,0,1-.22.28l-.22.22-.22.19c-.14.11-.27.2-.38.27l-.25.16-.1,0Z"/><path class="cls-2" d="M124.7,36.51a40.45,40.45,0,0,0-12.43.64c-4.18.87-12.2,1.34-15.57.72S94.3,39.88,94,41s-2.52,4.22-4.22,6.54A54.69,54.69,0,0,0,85,56.87c-.74,1.9-.33,8,1.35,11.41s6.45,7,11.33,8.71,8.54,1.8,10.45,2.44,9.07.46,13.77-.29S137.3,73.8,139.1,70s3.25-10.75,2.79-14.52-.47-7.38-2.15-10-3.89-4.88-3.37-6.45C136.67,38.11,127.43,37,124.7,36.51Z"/><path class="cls-2" d="M112.69,73.29a8.2,8.2,0,0,0,4-1.2,21,21,0,0,1,4.73-2.25c.89-.26,2.71-.23,4.29-1s9-4.18,9.84-4.88,2.11-3.64,2.2-3.64.34,0,0,2a23.22,23.22,0,0,1-1.45,5.34c-.52,1.09-5.44,5.5-8.88,6.74s-7.54,2.76-9.58,3-3.78.73-5.52-.2-2.86-1.43-2.34-1.93S112.69,73.29,112.69,73.29Z"/><path class="cls-33" d="M112.09,73.68l.19,0,.48.09.33,0,.36,0h.38a2.33,2.33,0,0,0,.38-.08c.13,0,.27-.07.39-.12l.37-.14.34-.13.31-.12a1.83,1.83,0,0,1,.26-.11l.2-.08.17-.07h0l-.61.31-.64.29-.37.14-.39.13a2.7,2.7,0,0,1-.41.08h-.39a4.43,4.43,0,0,1-.7-.09,4.27,4.27,0,0,1-.66-.2Z"/><path class="cls-33" d="M112.31,74.22l.16,0c.1,0,.26,0,.46.07a5,5,0,0,0,.72,0l.44,0,.24,0,.25,0a10.16,10.16,0,0,0,1.08-.24l.57-.2c.19-.08.4-.14.59-.24l1.21-.55,1.25-.58,2.47-1.12,1.14-.51,1-.43c.63-.28,1.17-.49,1.54-.65l.59-.24h0l-2.1.94-1,.45-1.13.52-2.46,1.13c-.84.39-1.68.78-2.47,1.13l-.3.12-.29.11-.59.19a9.68,9.68,0,0,1-1.09.23,8.34,8.34,0,0,1-.94.07,4.88,4.88,0,0,1-.73-.06,2.66,2.66,0,0,1-.46-.09l-.16,0Z"/><path class="cls-33" d="M111.84,74.41l.27.08.76.18a10.07,10.07,0,0,0,1.2.16,5.27,5.27,0,0,0,1.55-.12l.42-.14.43-.15.9-.35,1.92-.8,2-.88,2.1-.94c1.4-.63,2.8-1.28,4.11-1.89l1.88-.9c.59-.29,1.15-.57,1.66-.86l.18-.1.18-.11.33-.23.62-.42,1-.65.67-.41.24-.14h0l-.23.14-.67.42-1,.67-.61.43a4,4,0,0,1-.34.23l-.17.12-.19.1c-.5.29-1.06.58-1.65.87l-1.88.92c-1.3.62-2.7,1.27-4.11,1.91q-1,.48-2.1.93l-2,.88-1,.4-.95.38-.9.34-.44.15a3.38,3.38,0,0,1-.42.13,4.8,4.8,0,0,1-1.57.11,9.86,9.86,0,0,1-1.21-.18c-.33-.07-.58-.15-.76-.2l-.26-.08Z"/><path class="cls-33" d="M117.76,74.56l2.53-.79,1.22-.38,1.37-.43,1.45-.48c.5-.16,1-.36,1.47-.56l1.47-.58,1.43-.54c.93-.35,1.81-.66,2.55-.93s1.38-.48,1.82-.63l.69-.24h0l-2.48.92-2.54,1-1.43.55-1.46.59c-.5.19-1,.39-1.49.55s-1,.32-1.45.47l-1.37.42-1.23.37-1.84.54-.7.2Z"/><path class="cls-33" d="M124.66,72l.52-.26,1.36-.7c.29-.14.6-.29.91-.46l1-.54.52-.31.52-.33,1.06-.68,1.06-.69,1-.68,1.81-1.2.19-.13.09-.06a.27.27,0,0,0,.08-.07,1.09,1.09,0,0,0,.17-.13l.14-.14.24-.26.19-.24c.22-.29.33-.47.33-.47h0a4.38,4.38,0,0,1-.32.49l-.18.24-.24.28a3.77,3.77,0,0,1-.66.55l-1.79,1.23-1,.68-1.06.69c-.35.23-.71.47-1.06.68-.18.11-.35.23-.53.33l-.52.31-1,.52c-.32.17-.63.31-.92.46l-1.38.66-.53.24Z"/><path class="cls-33" d="M111.26,75.1h.14l.37,0,.24,0,.28,0,.58.08.59.08.51.08.37,0,.13,0h-.13a2.45,2.45,0,0,1-.37,0l-.52,0-.59-.07c-.4-.06-.8-.12-1.1-.18l-.5-.09Z"/><path class="cls-15" d="M110,72.13a13.28,13.28,0,0,1,2-4.43c1.51-2.21,4-3.08,7.43-4.24s8.71-2.54,10.46-2.38,5.05-.82,7.2.75c0,0-11.79,4.88-15.51,6.39s-4.24,1.22-5.31,2.79-2.58,3.19-4.06,3.39S110,72.13,110,72.13Z"/><path class="cls-33" d="M111.84,70.69l.19-.32c.12-.2.29-.5.51-.84.11-.18.24-.36.37-.56s.27-.4.42-.6l.47-.64a3.92,3.92,0,0,0,.25-.32l.27-.31a8,8,0,0,1,.56-.6c.09-.1.2-.19.29-.28l.31-.24.58-.45c.19-.15.38-.27.54-.39l.47-.31.37-.22.24-.14.08,0h0l-.08,0-.24.15-.35.24c-.14.09-.29.21-.46.33s-.34.24-.52.39l-.58.47-.3.24-.29.28c-.19.19-.37.39-.55.59a27.17,27.17,0,0,0-1.8,2.4c-.46.67-.75,1.13-.75,1.13Z"/><path class="cls-33" d="M111.26,72.09l.35-.43.42-.48c.17-.19.34-.4.55-.62l.67-.72c.24-.25.5-.52.77-.78l.41-.41.44-.4c.3-.28.61-.53.93-.78s.65-.49,1-.72.65-.45,1-.66l.92-.6.84-.52c.51-.32,1-.56,1.26-.74l.49-.27h0s-.69.41-1.71,1.06c-.52.33-1.11.72-1.74,1.14l-1,.67c-.32.23-.65.47-1,.72s-.64.5-.93.77l-.44.4-.41.4c-.28.26-.54.52-.78.77s-.47.48-.68.7l-.57.61-.43.47-.37.42Z"/><path class="cls-33" d="M112.3,72.09l.53-.56q.26-.27.63-.63c.24-.24.52-.51.83-.79l1-.89q.56-.47,1.2-.93c.22-.15.43-.31.66-.46l.35-.22.35-.21c.24-.15.48-.28.73-.42l.74-.39c.5-.26,1-.51,1.5-.74s1-.47,1.48-.68l.7-.32.68-.29L125,64c.78-.32,1.44-.56,1.9-.73.23-.08.41-.15.54-.18l.19-.07v0l-.19.06-.53.2c-.46.17-1.11.44-1.88.76l-1.25.54-1.38.62-1.47.68-1.5.75-.74.39-.72.41c-.48.27-.93.58-1.36.88s-.83.61-1.21.92-.72.6-1,.87l-.85.77-.64.62c-.35.34-.54.55-.54.55Z"/><path class="cls-33" d="M114.64,69.84l.24-.26.67-.66.45-.43.52-.47.57-.48c.2-.16.39-.33.6-.49l1.2-.91,1.07-.78.76-.54.29-.21h0l-3.26,2.52-.6.48-.58.48-1,.87-.69.63-.25.25Z"/><path class="cls-33" d="M112.88,72.28l.57-.46c.36-.3.87-.73,1.49-1.23s1.36-1.08,2.15-1.69l.6-.47.32-.22a2.7,2.7,0,0,1,.33-.22l.33-.21.35-.2c.22-.14.46-.27.69-.4l.71-.38.35-.18.35-.18.36-.17.35-.17.69-.31.35-.15.34-.13.66-.24,1.21-.45,1-.37.79-.26.7-.24v0l-.69.24-.79.29-1,.39-1.2.46-.66.25-.34.13-.34.15-.69.32-.35.16-.35.18-.35.17-.35.19c-.24.12-.47.25-.7.38l-.7.39-.34.2-.33.21c-.23.14-.44.29-.65.44l-.6.46L115,70.65l-2.1,1.64Z"/><path class="cls-33" d="M120.05,68.12l.49-.28,1.3-.71c.54-.29,1.17-.64,1.85-1l.52-.27.27-.14.13-.07.14-.07.55-.26.57-.24.57-.23.57-.21,1.11-.42,1-.37.94-.33c.58-.2,1.07-.35,1.41-.46l.4-.12.14,0h0l-.14,0-.4.13-1.4.5-.93.34-1,.38-1.1.43-.57.22-.57.23c-.19.08-.38.15-.56.24l-.56.25c-.36.17-.71.36-1.05.54l-1.87,1-1.82.94Z"/><path class="cls-15" d="M104.6,60.63a5.29,5.29,0,0,0,1.47,1.59,6.94,6.94,0,0,0,3.9.42c1.56-.23,1.56.39,1.87.74s2.2.68,2.63,1.24a6.94,6.94,0,0,1,1,3c0,.82-.12,1.25-1.47,1.55a16,16,0,0,0-3.58,1.48,3.92,3.92,0,0,1-4.09-.86c-1.35-1.39-3.79-5.8-3.87-7.43S104.6,60.63,104.6,60.63Z"/><path class="cls-33" d="M109.44,62.91h.3l.29,0,.17,0,.17,0,.33.07.29.09.2.07.07,0h0l-.91-.17-.91-.18Z"/><path class="cls-2" d="M109.44,63.26l.21.06.54.18.76.27c.28.11.57.22.87.32l.86.34.4.15.35.13.3.11.24.08.2.06h0l-.21,0-.24-.06-.31-.09-.76-.26-.87-.32c-1.18-.45-2.34-.93-2.34-.93Z"/><path class="cls-2" d="M106.35,62.64l.26.16c.16.11.4.25.68.42l.47.27.52.29.28.14.29.14.3.14a2.85,2.85,0,0,0,.31.12l.61.23.62.17.58.14c.18,0,.36.09.52.11.33.07.6.12.79.14l.31,0v0l-.31,0-.35,0-.45-.07-.53-.09-.59-.13-.62-.17c-.21-.06-.42-.15-.63-.22s-.2-.09-.3-.13l-.3-.14a1.59,1.59,0,0,1-.29-.15l-.29-.15c-.18-.09-.35-.2-.52-.3l-.45-.28-.38-.25-.29-.2-.25-.18Z"/><path class="cls-2" d="M105,62l.33.3.87.78.58.52.66.56.71.59c.26.19.51.38.78.56.53.35,1.08.69,1.61,1,.26.15.52.28.77.4a7.15,7.15,0,0,0,.71.32c.22.09.42.17.61.23s.18.05.26.08l.12,0,.11,0,.18,0h0l-.19,0-.11,0-.12,0-.26-.07-.63-.21c-.22-.09-.47-.19-.72-.31s-.51-.24-.78-.39a17.32,17.32,0,0,1-1.62-1c-.27-.17-.53-.37-.78-.56l-.72-.6-.65-.58c-.2-.19-.4-.36-.57-.53C105.48,62.45,105,62,105,62Z"/><path class="cls-2" d="M113.35,65.8l-.29,0-.33,0h-.43l-.51,0-.28,0-.28,0c-.2,0-.4-.07-.61-.11l-.07,0h-.08l-.15,0-.3-.09-.59-.22-.56-.23c-.18-.09-.36-.16-.52-.25l-.44-.24a3,3,0,0,1-.37-.23l-.27-.19-.22-.19h0l.23.17.27.18.38.21.45.22.52.24.56.22c.19.08.39.14.58.21l.3.1.3.08a4.41,4.41,0,0,0,.59.12l.29,0,.27,0,.51,0,.42,0h.62Z"/><path class="cls-2" d="M104.17,62.18l.25.39c.16.25.41.59.71,1,.15.2.32.42.5.64s.39.45.6.69l.34.34a3.81,3.81,0,0,0,.36.33c.12.1.25.22.38.31l.21.14.21.14c.56.38,1.11.77,1.65,1.11.27.17.52.33.78.47s.49.27.72.38.44.2.63.27a3.62,3.62,0,0,0,.51.16l.33.08.12,0h0l-.12,0a2.23,2.23,0,0,1-.34-.06l-.51-.14-.32-.11-.33-.14-.74-.37-.79-.46c-.53-.34-1.09-.72-1.66-1.1a9.53,9.53,0,0,1-.81-.61l-.36-.34c-.11-.11-.23-.23-.33-.35a9.14,9.14,0,0,1-.59-.7c-.18-.22-.35-.45-.5-.65-.29-.42-.52-.77-.67-1s-.24-.4-.24-.4Z"/><path class="cls-2" d="M110.21,66.76l.12.07.32.19.45.27.52.3c.17.11.35.21.52.3l.24.12.22.11.2.08.15,0,.13,0h0l-.14,0a.53.53,0,0,1-.16,0l-.2-.06c-.15-.05-.31-.12-.49-.2l-.53-.29a13.3,13.3,0,0,1-1.36-.92Z"/><path class="cls-2" d="M104.17,63.26a4.15,4.15,0,0,0,.19.39,4,4,0,0,0,.24.44c.09.17.21.35.33.55l.21.31c.07.11.15.21.23.32s.34.44.53.67.4.45.62.66l.16.17.18.15.17.16.18.15.18.15.09.07.1.08.37.28.38.26.38.24.38.22.36.2.35.17.34.16.6.23.48.15a3.44,3.44,0,0,0,.42.09h0a3.1,3.1,0,0,1-.43-.07l-.48-.13-.3-.1-.32-.12-.34-.15-.36-.16-.37-.2-.38-.21-.39-.24-.38-.27c-.25-.18-.51-.37-.75-.57l-.18-.15-.18-.17-.17-.15c-.06-.06-.11-.12-.17-.17-.22-.22-.43-.45-.62-.68s-.36-.46-.52-.68l-.23-.33c-.07-.1-.13-.21-.19-.31s-.12-.2-.18-.29-.1-.19-.15-.27l-.22-.45a3.84,3.84,0,0,1-.17-.4Z"/><path class="cls-2" d="M103.5,63.26l.09.13.22.35c.08.14.19.31.29.5l.32.57c.1.2.21.4.31.58s.1.19.14.27l.13.24a2,2,0,0,0,.11.21,1,1,0,0,0,.09.15.73.73,0,0,1,.07.14h0l-.09-.12-.1-.15-.13-.19c-.09-.14-.19-.31-.3-.5l-.32-.57c-.21-.4-.42-.8-.57-1.1l-.26-.5Z"/><path class="cls-2" d="M103.24,63.74l.17.24.45.63c.18.27.4.57.63.9s.47.68.72,1l.37.51.19.24.2.21.22.19.23.16a1.37,1.37,0,0,0,.21.15l.21.13.38.23.29.16.26.14h0l-.26-.12c-.17-.08-.41-.2-.69-.36l-.22-.12-.22-.14-.24-.17-.23-.18a4.4,4.4,0,0,1-.4-.46l-.38-.51c-.25-.35-.5-.7-.72-1l-.6-.91-.57-.9Z"/><path class="cls-2" d="M103.79,65.41l.64,1c.19.3.42.64.67,1s.51.76.8,1.13c.14.19.28.37.43.55a4.17,4.17,0,0,0,.47.47l.13.1.06,0,.07,0,.28.13.52.23.44.2.34.15.3.14h0l-.3-.12-.35-.13-.45-.19L107.3,70l-.29-.13-.07,0-.07,0-.13-.1a5.52,5.52,0,0,1-.49-.48c-.15-.17-.3-.36-.45-.55-.56-.76-1.06-1.56-1.43-2.17s-.59-1-.59-1Z"/><path class="cls-2" d="M136.47,47.83c-1-2.15-1.24-6.85-2.12-7.54s-7.66-3.34-13.41-3.9-13.73-.86-19.54.67S91.5,47.6,91.5,47.6c-1.72,1.45-7.13,7.38-5.87,13.88.65,3.36,1.19,7.81,5.13,11.1,3.7,3.08,10.78,5.09,12.49,5.34,3.54.52,7.26-2.15,8.54-3.14s2.55-3,.75-3.08-4.41,1.34-5.63,1.11-3.72-3.2-4.53-6.62,3-6,5.4-6.57,4.76,1.28,6.89,1.92a32.61,32.61,0,0,0,12,1,19.21,19.21,0,0,0,8.48-3.14,1.88,1.88,0,0,0,.87-1.92,1.23,1.23,0,0,0-.87-.85,6.73,6.73,0,0,0-3.16-.21c-1.8.14-3.48.23-4.33.25s-2.6-.13-3.49-.21a14.54,14.54,0,0,1-2.8-.84l.4.09a13.41,13.41,0,0,0,2.83.42,30.91,30.91,0,0,0,4.57-.29c1.41-.2,3-.91,4.41-1.11a4,4,0,0,1,2.4.1,13.82,13.82,0,0,1,1.36,1.23C138.48,54.05,137.46,50,136.47,47.83Zm-15.28,7.71Z"/><path class="cls-15" d="M114.4,49.25s-2.71,4.29-3.6,4.72-2.39.7-3,1.28-3.37,2.86-3.39,3.37-.28.27-.88.19a15.08,15.08,0,0,1-4.09-.58c-1.51-.58-3-1.2-3-1.43a8.43,8.43,0,0,1,1.09-3c.73-1.17,4.26-4.42,7.12-5.23a16.86,16.86,0,0,1,5.37-.78C111.07,47.77,114.05,47.85,114.4,49.25Z"/><path class="cls-2" d="M111.64,52.58h-.3l-.21,0-.24,0-.26.07-.28.09-.14,0-.14.06-.28.11-.27.13-.24.11-.23.12-.33.17-.13.06h0l.11-.08.32-.2.21-.13.25-.13.27-.14.28-.12.14,0,.15-.05a1.57,1.57,0,0,1,.29-.08l.27-.06.25,0h.37l.14,0Z"/><path class="cls-2" d="M112.47,51.38l-.36.08-.19,0-.23.07a5.19,5.19,0,0,0-.52.17l-.15,0-.15.06-.31.13c-.11,0-.21.1-.32.15l-.33.17-.33.2-.17.1,0,0,0,0-.08.06-.33.23-.31.25c-.21.17-.41.35-.61.53l-.57.54-.52.51-.46.47c-.29.29-.53.53-.69.71l-.26.27h0s.34-.42.9-1q.19-.22.45-.48l.51-.52c.18-.18.37-.37.57-.55s.4-.36.61-.54l.32-.25a3.88,3.88,0,0,1,.33-.23,2.3,2.3,0,0,1,.33-.21l.34-.2.34-.16.33-.15.31-.12.16-.06.15,0a4.88,4.88,0,0,1,.53-.15l.23-.06.19,0,.27,0h.1Z"/><path class="cls-2" d="M113.14,50.6l-.15,0-.17,0h-.24a2.71,2.71,0,0,0-.63.1,3.06,3.06,0,0,0-.38.1l-.21.06a1,1,0,0,1-.21.08l-.44.18-.46.2c-.17.07-.33.16-.49.24a4.66,4.66,0,0,0-.5.25l-.26.13-.25.15-.51.31c-.17.1-.34.22-.5.33l-.51.35-.49.35-.49.37-.47.36-.45.37c-.3.24-.58.48-.84.71l-.38.35-.35.33c-.11.1-.21.21-.31.31l-.27.28-.23.26-.19.23a2.49,2.49,0,0,0-.24.34.91.91,0,0,0-.08.12h0l.08-.12c.06-.08.13-.2.24-.35l.18-.23.22-.27a3.58,3.58,0,0,1,.27-.29,3,3,0,0,1,.3-.32l.34-.34.38-.35c.26-.24.54-.48.83-.73l.45-.37.47-.37.49-.37.5-.36.5-.34c.17-.11.34-.23.51-.33a5.48,5.48,0,0,1,.52-.31l.25-.15.26-.13.51-.25.49-.23.47-.2.45-.16.21-.08.21-.06.39-.09a3.28,3.28,0,0,1,.64-.08h.24l.17,0,.15,0Z"/><path class="cls-2" d="M113.14,49.78l-.47.1-.53.13-.68.19-.19.06-.19.07a2.17,2.17,0,0,0-.4.15l-.42.18-.42.22-.87.48-.89.53-.89.53c-.29.17-.57.35-.85.53l-.78.5-.7.47-.3.21-.27.2c-.17.12-.31.24-.43.34s-.2.17-.27.23l-.09.08h0l.09-.08a2.2,2.2,0,0,1,.26-.24c.12-.1.25-.23.42-.36l.26-.2.3-.23.69-.48.78-.52.85-.54.88-.53c.6-.35,1.2-.7,1.78-1l.42-.22c.14-.07.29-.11.43-.17s.27-.1.41-.15l.19-.06.19,0c.25-.08.49-.13.69-.18l.54-.11.47-.08Z"/><path class="cls-2" d="M113.86,49.15l-.11,0-.13,0h-.4l-.26,0-.14,0-.15,0-.32.07-.35.09-.37.11-.38.13-.2.06-.2.08a2.83,2.83,0,0,0-.4.17,3,3,0,0,0-.4.2c-.14.06-.27.14-.41.21l-.4.23c-.54.3-1.07.61-1.56.91s-1,.58-1.35.83l-1.32.81h0l1.29-.86,1.34-.85c.49-.31,1-.63,1.56-.93.13-.08.26-.16.4-.23L110,50l.41-.2.4-.17.21-.07.2-.06c.13,0,.26-.09.39-.12l.37-.1.36-.09.32-.06.15,0,.15,0,.26,0a1.76,1.76,0,0,1,.23,0l.18,0,.13,0,.11,0Z"/><path class="cls-2" d="M112,48.48l-.13,0-.16,0-.21.07-.25.08-.3.11c-.21.07-.44.18-.7.28l-.2.08-.2.09-.42.2-.43.22c-.15.08-.3.15-.45.24l-.45.26c-.16.09-.3.2-.45.3l-.22.16-.22.16-.44.34c-.6.45-1.18.9-1.72,1.34s-1,.84-1.47,1.21l-.29.26-.27.24-.42.41c-.11.12-.19.21-.25.29l-.08.1h0l.08-.1a3.08,3.08,0,0,1,.24-.3c.11-.12.24-.26.41-.42l.55-.52c.82-.75,2-1.69,3.16-2.59l.44-.34.22-.16.23-.16.45-.3c.16-.08.31-.17.46-.26s.31-.16.46-.24.29-.15.44-.21l.42-.19.21-.09.2-.07.37-.15.34-.12.3-.1.26-.07.21-.06.15,0,.13,0Z"/><path class="cls-2" d="M107.62,49.78l-.42.18-.48.22-.62.3-.72.37c-.25.14-.51.28-.77.45s-.53.35-.8.54l-.8.59-.8.59c-.26.2-.52.4-.76.6l-.7.58c-.21.18-.42.36-.6.53l-.49.47c-.15.14-.27.28-.37.38s-.16.21-.21.26l-.08.1h0l.07-.09a2.57,2.57,0,0,1,.21-.27l.35-.4.48-.49c.18-.17.38-.36.6-.55s.44-.39.69-.59l.75-.6c.26-.21.53-.41.8-.61l.81-.58c.27-.19.53-.38.8-.54s.54-.3.79-.44.5-.25.73-.35c.46-.21.85-.37,1.12-.48l.43-.17Z"/><path class="cls-2" d="M104.34,52.38l-.21.21c-.13.12-.32.32-.56.53s-.24.24-.37.36l-.41.41c-.15.13-.29.28-.44.43l-.23.22a2.39,2.39,0,0,1-.22.23c-.14.16-.3.31-.43.47l-.2.23,0,.06,0,.06-.09.12c-.24.32-.47.61-.67.86l-.28.34a2.37,2.37,0,0,1-.2.27l-.17.24h0l.16-.24.18-.28.26-.36.65-.88a5.84,5.84,0,0,1,.39-.48,6.42,6.42,0,0,1,.43-.48l.22-.23.23-.22.45-.43.81-.74.81-.7Z"/><path class="cls-2" d="M109,48.22l-.22,0-.56.1c-.24,0-.51.1-.8.14l-.91.17-.46.08-.45.1-.42.09c-.13,0-.25.06-.37.09l-.31.08-.23.08-.21.07h0l.2-.09.23-.09.3-.11.79-.21.44-.1.47-.09c1.24-.23,2.51-.36,2.51-.36Z"/><path class="cls-2" d="M107,48.74l-.44.13-.51.16-.66.21-.77.27c-.27.09-.56.2-.85.32a9.65,9.65,0,0,0-.89.39c-.15.06-.29.15-.44.22l-.43.25c-.14.1-.28.18-.41.28l-.4.31c-.27.2-.52.4-.77.6l-.7.58c-.22.18-.42.37-.61.54l-.26.25-.24.22-.36.39-.29.36h0l.28-.38.35-.4c.14-.15.3-.32.48-.49s.38-.37.6-.56l.7-.59.76-.61.4-.31c.13-.1.28-.19.42-.29l.43-.25c.16-.07.3-.16.45-.22l.9-.39c.59-.22,1.16-.41,1.64-.56,1-.29,1.63-.44,1.63-.44Z"/><path class="cls-2" d="M109.13,48.88l-.15.06-.39.15-.26.09a2.65,2.65,0,0,1-.3.11l-.64.22-.32.1-.32.11-.56.19-.39.14-.15.05h0l.15-.07L106,50l.22-.1.55-.23.31-.11.33-.11.64-.21.57-.17.56-.15Z"/><path class="cls-2" d="M106.08,49.26l-.39.19-.44.23-.58.3-.68.36-.37.2-.18.11-.19.11-.39.23-.38.26a4.56,4.56,0,0,0-.39.27l-.37.29-.75.57c-.25.19-.48.39-.71.58l-.33.29-.32.27-.56.53a2.72,2.72,0,0,0-.24.24l-.21.22-.19.19-.15.18-.28.33h0l.27-.35.14-.18.18-.21.21-.22A2.73,2.73,0,0,1,99,54c.17-.17.35-.36.55-.54s.41-.38.64-.57.46-.4.71-.59.49-.39.75-.59.25-.19.38-.28.25-.19.38-.27l.39-.26.4-.23.19-.11.19-.1.37-.2.69-.34,1-.49.4-.18Z"/><path class="cls-2" d="M102.43,51.48l-.19.19c-.12.12-.29.29-.51.49s-.22.21-.34.33l-.38.37-.4.4c-.13.14-.27.27-.39.42s-.13.14-.18.21l-.18.24c-.11.15-.23.3-.33.46s-.2.29-.29.43-.19.27-.27.39l-.22.33-.18.26-.15.22h0l.14-.23c.08-.15.21-.36.36-.6s.16-.27.26-.41l.28-.44c.1-.16.22-.31.33-.46l.17-.24c0-.08.12-.15.18-.23s.27-.28.41-.42.27-.27.4-.39l.39-.36.36-.32.74-.64Z"/><path class="cls-34" d="M137.34,56.05a4,4,0,0,0,.47-1.54,5,5,0,0,0-.68-.64,3.44,3.44,0,0,0-2.42-.46c-1.05.23-3.31,1.33-4.69,1.51s-2.33.46-3.83.6-1.82.33-2.64.35a13.27,13.27,0,0,1-2.51-.39,13.58,13.58,0,0,0,3.56.64,30.73,30.73,0,0,0,4.57-.29c1.41-.2,3-.91,4.41-1.11a4,4,0,0,1,2.4.1A13.82,13.82,0,0,1,137.34,56.05Z"/><path class="cls-34" d="M135.15,59.39a1.88,1.88,0,0,0,.87-1.92,1.2,1.2,0,0,0-.87-.85,6.66,6.66,0,0,0-3.15-.21c-1.8.14-3.49.23-4.34.25s-2.59-.13-3.49-.21a17.43,17.43,0,0,1-3.13-1c-.21-.08-2-1.23-2-1.23s2.79,3,4.39,3.4a17.91,17.91,0,0,0,4.76.7c1.66,0,3.69-.64,4.44,0s1.25,1.42,1.57,1.33S135.15,59.39,135.15,59.39Z"/><path class="cls-2" d="M136,54.82a4,4,0,0,0-2.4-.1c-1.39.2-3,.91-4.41,1.11a30.73,30.73,0,0,1-4.57.29,13.21,13.21,0,0,1-2.82-.42l-.41-.09a15,15,0,0,0,2.8.84c.9.08,2.64.23,3.49.21s2.54-.11,4.34-.25a6.66,6.66,0,0,1,3.15.21,1.2,1.2,0,0,1,.87.85s.18.59,1.32-1.42A13.82,13.82,0,0,0,136,54.82Z"/><path class="cls-34" d="M122.08,40.63l-.29.17c-.19.11-.46.3-.79.54a13.31,13.31,0,0,0-1.13,1,15.36,15.36,0,0,0-1.29,1.41c-.22.28-.44.58-.65.88s-.22.32-.32.48l-.3.51a15.15,15.15,0,0,0-1,2.31,15.66,15.66,0,0,0-.63,2.62,12.46,12.46,0,0,0-.13,1.37,5.48,5.48,0,0,0,.1,1.35v0h0v0l0,.09,0,.17c0,.11.07.23.1.34l.12.31a1,1,0,0,0,.06.16l.07.15c.19.41.46.78.7,1.21a3.18,3.18,0,0,0,.16.32,3.42,3.42,0,0,0,.13.34l.06.17,0,.16a2.85,2.85,0,0,0,.12.31,2.46,2.46,0,0,0,.69,1,1.63,1.63,0,0,0,.51.3,3.4,3.4,0,0,0,.59.14l.62.09.61.08.59.06.58.05.56,0,.53,0h1l.47,0,.45,0h.81l.68,0,.3,0,.26,0,.4,0,.34,0-.34,0h-1l-.68,0-.38,0-.42,0-.44.05-.47,0a4.26,4.26,0,0,1-.51,0,4.47,4.47,0,0,1-.52,0c-.71,0-1.48,0-2.3-.1l-.62-.06c-.21,0-.42,0-.63-.08l-.33,0a2.14,2.14,0,0,1-.34-.09,2.3,2.3,0,0,1-.63-.35,3,3,0,0,1-.83-1.17c0-.11-.09-.23-.14-.34l0-.16-.06-.16-.12-.3-.15-.3c-.21-.39-.5-.78-.71-1.22l-.08-.17a.87.87,0,0,1-.07-.17L115.4,54c0-.12-.07-.23-.1-.34l0-.17,0-.09v0h0v0a5.56,5.56,0,0,1-.1-1.46,13.33,13.33,0,0,1,.13-1.43,15.48,15.48,0,0,1,.69-2.68A14.1,14.1,0,0,1,117,45.42l.33-.52.33-.48c.24-.31.47-.6.71-.87a13.62,13.62,0,0,1,1.38-1.37,11.54,11.54,0,0,1,1.19-.91,7.44,7.44,0,0,1,.83-.49Z"/><path class="cls-34" d="M115.33,52.38l-.07-.07a2.11,2.11,0,0,1-.18-.2,3.36,3.36,0,0,1-.22-.36c0-.07-.07-.15-.11-.23s-.07-.18-.11-.27l-.09-.3c0-.1,0-.21-.08-.32s0-.23,0-.35,0-.25,0-.37a6.59,6.59,0,0,1,0-.77v-.2l0-.2,0-.2,0-.09v-.11c0-.25.11-.51.16-.76s.06-.25.09-.38l.12-.36a4.55,4.55,0,0,1,.25-.68,2.71,2.71,0,0,1,.13-.3l.14-.27a2.8,2.8,0,0,1,.14-.25l.14-.22a4,4,0,0,1,.25-.33,1.31,1.31,0,0,1,.18-.2l.07-.07,0,.08a1,1,0,0,0-.14.23,2.36,2.36,0,0,0-.19.36,3.63,3.63,0,0,0-.21.48,4,4,0,0,0-.22.59,6.36,6.36,0,0,0-.2.66l-.09.35c0,.13-.06.24-.08.37s-.1.51-.14.77v.07h0v.11l0,.19,0,.19c0,.06,0,.13,0,.19,0,.25,0,.5,0,.74s0,.23,0,.35l0,.34c0,.1,0,.21,0,.31s0,.2,0,.3,0,.18.08.26a2.17,2.17,0,0,0,.07.24c.06.14.11.27.16.37s.1.18.13.23Z"/><path class="cls-2" d="M132.33,48.73l-.08.12-.1.13-.06.07s0,0,0,0l0,0-.88.47-.88.47,0,0-.05,0h-.39l.08-.12.09-.13.06-.07s0,0,0,0l.05,0,.88-.47.87-.47,0,0a.05.05,0,0,1,0,0h.4Z"/><path class="cls-2" d="M130,48.06l.14,0,.15.07.09,0s0,0,0,0l0,0,.7.75.69.75,0,0s0,0,0,0l0,.09a1.31,1.31,0,0,0,.05.15l0,.14-.13,0-.15-.06-.09,0,0,0s0,0,0,0l-.69-.75-.69-.76,0,0,0,0,0-.09a1.42,1.42,0,0,1,0-.16A.83.83,0,0,1,130,48.06Z"/><path class="cls-2" d="M124.7,36.51a40.45,40.45,0,0,0-12.43.64c-4.18.87-12.2,1.34-15.57.72S94.3,39.88,94,41s-2.52,4.22-4.22,6.54A54.69,54.69,0,0,0,85,56.87c-.74,1.9-.33,8,1.35,11.41s6.45,7,11.33,8.71,8.54,1.8,10.45,2.44,9.07.46,13.77-.29S137.3,73.8,139.1,70s3.25-10.75,2.79-14.52-.47-7.38-2.15-10-3.89-4.88-3.37-6.45C136.67,38.11,127.43,37,124.7,36.51Z"/><path class="cls-2" d="M97,25.75c0,.16-.19.29-.42.29s-.43-.13-.43-.29.19-.29.43-.29S97,25.59,97,25.75Z"/><ellipse class="cls-2" cx="96.97" cy="26.99" rx="0.54" ry="0.21"/><path class="cls-2" d="M98.68,28.55c0,.14-.26.25-.59.25s-.58-.11-.58-.25.26-.25.58-.25S98.68,28.41,98.68,28.55Z"/><path class="cls-2" d="M99.06,30c0,.13-.21.24-.48.24s-.49-.11-.49-.24.22-.25.49-.25S99.06,29.89,99.06,30Z"/><path class="cls-2" d="M99.59,31.48c0,.1-.13.25-.37.33s-.46.08-.49,0,.13-.25.37-.34S99.56,31.38,99.59,31.48Z"/><path class="cls-2" d="M100.48,32.57c0,.15-.09.28-.21.28s-.2-.13-.2-.28.09-.28.2-.28S100.48,32.41,100.48,32.57Z"/><path class="cls-2" d="M103.31,34c0,.1-.21.18-.46.18s-.46-.08-.46-.18.21-.18.46-.18S103.31,33.94,103.31,34Z"/><path class="cls-2" d="M106.58,34.51c0,.16-.27.29-.61.29s-.59-.13-.59-.29.26-.29.59-.29S106.58,34.35,106.58,34.51Z"/><path class="cls-2" d="M109.71,33.8c0,.18-.22.38-.55.42s-.62-.07-.64-.26.22-.38.55-.43S109.68,33.61,109.71,33.8Z"/><path class="cls-2" d="M112.2,33.55c0,.17-.24.31-.53.31s-.54-.14-.54-.31.24-.31.54-.31S112.2,33.38,112.2,33.55Z"/><path class="cls-2" d="M115,32.41c0,.17-.27.4-.69.51s-.81.06-.85-.11.26-.39.69-.5S115,32.24,115,32.41Z"/><path class="cls-2" d="M117.46,32.32c0,.17-.24.31-.53.31s-.52-.14-.52-.31.23-.31.52-.31S117.46,32.15,117.46,32.32Z"/><path class="cls-2" d="M119.88,32.32c0,.17-.19.31-.41.31s-.41-.14-.41-.31.19-.31.41-.31S119.88,32.15,119.88,32.32Z"/><path class="cls-2" d="M122.79,32.75c0,.17-.32.26-.62.19s-.52-.26-.48-.42.31-.26.61-.19S122.82,32.58,122.79,32.75Z"/><path class="cls-2" d="M125.17,33.05c0,.15-.21.27-.47.27s-.47-.12-.47-.27.21-.26.47-.26S125.17,32.91,125.17,33.05Z"/><path class="cls-2" d="M126.65,33.54a.25.25,0,0,1-.28.22.23.23,0,1,1,0-.44A.25.25,0,0,1,126.65,33.54Z"/><path class="cls-2" d="M128.14,34a.24.24,0,0,1-.25.23.24.24,0,0,1-.25-.23.25.25,0,0,1,.25-.24A.25.25,0,0,1,128.14,34Z"/><path class="cls-2" d="M129.63,34.54a.33.33,0,0,1-.35.3.31.31,0,1,1,0-.61A.33.33,0,0,1,129.63,34.54Z"/><path class="cls-2" d="M132.07,34.9a.42.42,0,0,1-.46.37.43.43,0,0,1-.47-.37.43.43,0,0,1,.47-.36A.41.41,0,0,1,132.07,34.9Z"/><path class="cls-2" d="M134.77,35.38c0,.15-.16.27-.37.27s-.37-.12-.37-.27.17-.27.37-.27S134.77,35.23,134.77,35.38Z"/><path class="cls-2" d="M136.37,35.6a.23.23,0,1,1-.23-.22A.22.22,0,0,1,136.37,35.6Z"/><path class="cls-2" d="M138.25,35.6a.22.22,0,0,1-.21.21.21.21,0,0,1-.2-.21.21.21,0,0,1,.2-.22A.22.22,0,0,1,138.25,35.6Z"/><path class="cls-2" d="M140.26,35.46c0,.11-.14.19-.31.19s-.31-.08-.31-.19.14-.19.31-.19S140.26,35.35,140.26,35.46Z"/><path class="cls-2" d="M142,35.14a.28.28,0,0,1-.56,0,.28.28,0,0,1,.56,0Z"/><path class="cls-2" d="M144,34.82a.35.35,0,1,1-.34-.28A.32.32,0,0,1,144,34.82Z"/><path class="cls-2" d="M146,34.53a.27.27,0,1,1-.54,0,.27.27,0,1,1,.54,0Z"/><path class="cls-2" d="M100.48,36.39a4.77,4.77,0,0,1,1-1.17,5.19,5.19,0,0,1,1.13-.66s1.46.84,2.56,1.42,3.92,2.56,4.3,3.46a6.1,6.1,0,0,1,0,3.08c-.15.43-1.1-.12-1.6-.23s-3-.09-3.89-1.43S100.48,36.39,100.48,36.39Z"/><path class="cls-34" d="M102.85,35l.14.07.37.18.52.26.28.15.3.17.57.33a2.2,2.2,0,0,1,.25.17l.23.15.34.23.12.09-.13-.07c-.09-.05-.22-.11-.36-.2l-1.08-.6-.57-.33-.5-.3-.35-.21Z"/><path class="cls-34" d="M103.52,35.67l.27.16.71.43,1,.63,1.13.75.56.39.53.39c.17.14.34.27.48.41s.25.29.37.41l.3.37c.09.1.16.2.22.28a2.52,2.52,0,0,1,.19.26l-.2-.24-.24-.28-.32-.34-.39-.4a4.87,4.87,0,0,0-.47-.39l-.54-.38-.56-.39L105.44,37l-1-.66-.68-.47Z"/><path class="cls-34" d="M104.25,36.39l.17.1c.1.06.25.14.42.26s.38.23.6.38l.67.46.33.24.32.24c.2.16.39.31.54.45l.21.19.15.16.09.11,0,0,0,0a.46.46,0,0,0-.1-.1,1.22,1.22,0,0,0-.16-.14,2.13,2.13,0,0,0-.22-.18l-.56-.42-.66-.47-.66-.47-.57-.41-.41-.3Z"/><path class="cls-34" d="M103.67,36.08l.25.19.66.52c.27.22.59.46.92.74l1.06.85.52.45.26.21.13.11.12.11a2.39,2.39,0,0,1,.23.22c.07.08.15.15.21.23a4.64,4.64,0,0,1,.37.42c.23.26.4.49.52.65a2.52,2.52,0,0,1,.19.26l-.2-.24c-.13-.16-.33-.37-.56-.63s-.24-.26-.38-.41l-.21-.21a.57.57,0,0,1-.11-.11l-.12-.1-.13-.11-.12-.11-.26-.21-.54-.44-1-.86-.9-.77-.63-.55Z"/><path class="cls-34" d="M102.85,35.67s.32.28.77.71l.37.35.4.4.42.43c.15.15.29.3.43.46s.28.31.41.47.26.32.38.48l.34.44.31.41.25.34.21.26.17.23-.19-.21-.22-.25-.28-.33c-.19-.25-.42-.53-.67-.84-.12-.15-.24-.31-.38-.46l-.41-.47-.43-.45c-.13-.15-.28-.3-.41-.44l-.74-.77Z"/><path class="cls-34" d="M105.38,37.91l.16.16.44.41.6.6.68.71.65.72c.21.23.39.46.55.65l.21.27.15.22a1.15,1.15,0,0,1,.08.15l0,.05,0-.05s-.05-.08-.1-.14l-.17-.2c-.06-.08-.14-.16-.22-.25s-.36-.4-.57-.63l-.67-.71-.66-.72-.58-.62-.4-.45Z"/><path class="cls-34" d="M103.31,36.55l.13.15.33.41.45.59.51.69.49.7c.16.23.3.44.41.63s.21.34.28.45l.1.17-.12-.16-.31-.43-.21-.28-.23-.32-.5-.69-.5-.7-.43-.61-.29-.44Z"/><path class="cls-34" d="M102.12,35.88l.14.15.34.38.47.56c.18.2.35.43.53.65s.35.45.51.66l.42.6.17.24.11.2.1.17-.12-.16-.13-.18-.18-.23-.21-.27-.24-.3-.52-.66L103,37l-.45-.58Z"/><path class="cls-34" d="M102.39,36.78l.13.13.32.35.45.51.49.6.24.31.23.31c.07.1.13.2.2.29l.17.27c.06.09.1.17.14.24l.09.18c0,.06,0,.1.05.13v0l0,0-.06-.12-.11-.17c0-.07-.1-.14-.15-.22l-.19-.26-.22-.28-.47-.61-.48-.61-.42-.53-.29-.38Z"/><path class="cls-34" d="M102.12,36.78l.08.08.2.22c.16.18.36.43.56.69l.28.39c.09.12.16.24.23.35l.14.25a.2.2,0,0,1,0,.08v0l0-.06-.18-.24c-.15-.19-.35-.44-.54-.7s-.39-.52-.52-.72l-.17-.25Z"/><path class="cls-34" d="M101.81,36.78l.06.06L102,37c.11.15.25.35.38.56s.25.42.34.59l.1.2,0,.07,0-.06-.14-.18c-.11-.15-.25-.35-.38-.56s-.25-.42-.33-.58l-.1-.2Z"/></g></g></svg>