<svg xmlns="http://www.w3.org/2000/svg" viewBox="0 0 85.54 12.76"><defs><style>.cls-1{fill:#f1ecce;}</style></defs><title>detail_01</title><g id="圖層_2" data-name="圖層 2"><g id="detail_01"><path class="cls-1" d="M.92,2.52H4.59c.41,0,.61.27.61.83A4.66,4.66,0,0,1,5,4.46a12,12,0,0,1-.8,2.23A10.55,10.55,0,0,1,3,8.71a8.59,8.59,0,0,1-2.12,2,.65.65,0,0,1-.26.14q-.6,0-.6-.66a.56.56,0,0,1,.37-.49A9.43,9.43,0,0,0,2.12,8.11,10.53,10.53,0,0,0,3.31,6.17,11.11,11.11,0,0,0,4,4.24a2.64,2.64,0,0,0,.12-.58c0-.11,0-.16,0-.16H.92A.44.44,0,0,1,.42,3,.44.44,0,0,1,.92,2.52ZM6.66,0a.49.49,0,0,1,.55.56V2.2A21.55,21.55,0,0,0,8,4.54a18.07,18.07,0,0,0,3.32-2.63.43.43,0,0,1,.4-.26.44.44,0,0,1,.49.5,1.16,1.16,0,0,1-.23.6,18.85,18.85,0,0,1-3.5,2.66l-.07,0a16.94,16.94,0,0,0,1.61,2.5,13.62,13.62,0,0,0,2.68,2.61c.21.15.32.3.32.46a.6.6,0,0,1-.6.65,1.2,1.2,0,0,1-.61-.22,15.39,15.39,0,0,1-3-3.35,11.33,11.33,0,0,1-1.39-2.7,6.93,6.93,0,0,1-.27-.73v6.73c0,.91-.53,1.37-1.59,1.37a6.63,6.63,0,0,1-2.17-.51.49.49,0,0,1-.39-.49c0-.35.16-.53.44-.55a1.07,1.07,0,0,1,.34.07,8.2,8.2,0,0,0,1.78.42c.36,0,.55-.2.55-.6V.56C6.17.19,6.33,0,6.66,0Z"/><path class="cls-1" d="M14.81,4a.58.58,0,0,1,.34.15,10.13,10.13,0,0,1,1.31,1.31.94.94,0,0,1,.1.35c0,.32-.19.49-.55.49a.45.45,0,0,1-.26-.11,18,18,0,0,0-1.38-1.38.83.83,0,0,1-.11-.26A.48.48,0,0,1,14.81,4Zm1.31,3.39c.33,0,.49.18.49.55a13.87,13.87,0,0,1-.41,2.17,12.58,12.58,0,0,1-.79,2.15.53.53,0,0,1-.49.31c-.33,0-.5-.14-.5-.42a.89.89,0,0,1,.07-.23,13.55,13.55,0,0,0,.77-1.94c.18-.65.34-1.41.49-2.27A.35.35,0,0,1,16.12,7.34ZM15.46.51a.56.56,0,0,1,.34.15A10.3,10.3,0,0,1,17,1.91a.9.9,0,0,1,.09.35c0,.32-.18.49-.54.49a.42.42,0,0,1-.26-.11c-.4-.46-.82-.9-1.26-1.33a.65.65,0,0,1-.12-.26A.48.48,0,0,1,15.46.51Zm10.68,6c.28,0,.42.15.42.44s-.14.49-.42.49H22.48a11.14,11.14,0,0,0,1.73,1.71,19.09,19.09,0,0,0,2.46,1.68.48.48,0,0,1,.33.48.58.58,0,0,1-.11.35.44.44,0,0,1-.38.19.88.88,0,0,1-.44-.13c-.67-.45-1.32-.93-1.94-1.44a17.32,17.32,0,0,1-1.72-1.71v3.67c0,.33-.18.5-.55.5a.44.44,0,0,1-.49-.5V8.54a12.68,12.68,0,0,1-1.19,1.3,13.34,13.34,0,0,1-2.47,1.86,1.18,1.18,0,0,1-.26.1c-.33,0-.5-.18-.5-.55a.49.49,0,0,1,.32-.49,13.8,13.8,0,0,0,2.62-1.9,8,8,0,0,0,1.25-1.42H18c-.29,0-.44-.16-.44-.49A.39.39,0,0,1,18,6.51h3.38V5.41a.43.43,0,0,1,.49-.49c.37,0,.55.17.55.49v1.1ZM18.42.45h7a1.05,1.05,0,0,1,.88.39,1.67,1.67,0,0,1,.21.92c0,.42,0,.9,0,1.43a.56.56,0,0,1-.6.38.43.43,0,0,1-.49-.49q.12-1,.12-1.26a.39.39,0,0,0-.44-.44H23.79V4.21c0,.23.09.34.27.34h1.75c.33,0,.49.15.49.45a.43.43,0,0,1-.49.48h-2a.86.86,0,0,1-1-1V1.38h-2a.41.41,0,0,1,.21.38,5,5,0,0,1-.82,2.45,5.73,5.73,0,0,1-1.64,1.45.7.7,0,0,1-.38.11q-.45,0-.45-.51A.36.36,0,0,1,17.92,5a6.16,6.16,0,0,0,1.54-1.28,4.08,4.08,0,0,0,.71-2.05.29.29,0,0,1,.17-.29H18.85a.38.38,0,0,0-.43.44V3.13a.44.44,0,0,1-.5.49c-.32,0-.47-.16-.47-.49V1.44A.86.86,0,0,1,18.42.45Z"/><path class="cls-1" d="M35.52,3.55a.88.88,0,0,1-.29.67.85.85,0,0,1-.67.29.88.88,0,0,1-.67-.29.88.88,0,0,1-.28-.67,1,1,0,0,1,1-.95.88.88,0,0,1,.67.28A.92.92,0,0,1,35.52,3.55Zm0,5.13a1,1,0,0,1-1,1,.92.92,0,0,1-.67-.29.88.88,0,0,1-.28-.67A.89.89,0,0,1,33.89,8a.92.92,0,0,1,.67-.29.88.88,0,0,1,.67.29A.9.9,0,0,1,35.52,8.68Z"/><path class="cls-1" d="M46.62,10.91c0,.36-.17.55-.5.55s-.47-.19-.47-.55V2.61a3,3,0,0,1-1.52.63c-.33,0-.49-.15-.49-.44s.16-.36.47-.43a3.16,3.16,0,0,0,1.58-1c.23-.23.38-.35.44-.35a.44.44,0,0,1,.49.5Z"/><path class="cls-1" d="M57.46,5.8a1.11,1.11,0,0,1-.22.57,2.12,2.12,0,0,1-1.73,1.11A3.53,3.53,0,0,1,54,6.9a4.43,4.43,0,0,0-1.28-.57,1.18,1.18,0,0,0-.9.57c-.3.39-.51.58-.66.58s-.41-.15-.41-.45a1,1,0,0,1,.18-.48,2.73,2.73,0,0,1,.78-.77,1.82,1.82,0,0,1,1-.38,1.94,1.94,0,0,1,.89.26,10.37,10.37,0,0,0,1.9.9,1.25,1.25,0,0,0,.9-.57c.3-.39.51-.59.63-.59C57.32,5.4,57.46,5.53,57.46,5.8Z"/><path class="cls-1" d="M63.08,10.91c0,.36-.17.55-.5.55s-.47-.19-.47-.55V2.61a3,3,0,0,1-1.52.63c-.32,0-.49-.15-.49-.44s.16-.36.47-.43a3.16,3.16,0,0,0,1.58-1c.23-.23.38-.35.44-.35a.44.44,0,0,1,.49.5Z"/><path class="cls-1" d="M74.1,7.71a4,4,0,0,1-.86,2.63,3,3,0,0,1-2.47,1.1,3,3,0,0,1-2.16-.86,2.07,2.07,0,0,1-.78-1.3.44.44,0,0,1,.49-.5c.17,0,.31.12.42.35a2.22,2.22,0,0,0,3.79.54,3.23,3.23,0,0,0,.57-2A3,3,0,0,0,72.65,6a1.65,1.65,0,0,0-1.46-.78,2.64,2.64,0,0,0-2,.93l-.33.4a.62.62,0,0,1-.41.26q-.42,0-.42-.66V1.69c0-.32.15-.47.45-.47h4.8c.38,0,.57.15.57.47s-.19.46-.57.46h-3.9c-.25,0-.37.11-.37.34v2.8a2.76,2.76,0,0,1,2.23-1,2.63,2.63,0,0,1,2.19,1A3.75,3.75,0,0,1,74.1,7.71Z"/><path class="cls-1" d="M85.54,10.86c0,.4-.16.6-.49.6s-.5-.2-.5-.6V6.44a1.09,1.09,0,0,0-.43-.88,1.44,1.44,0,0,0-.94-.36,1.82,1.82,0,0,0-1.24.41,1.47,1.47,0,0,0-.67,1v4.23q0,.6-.51.6t-.48-.6V6.63a1.38,1.38,0,0,0-.5-1,1.52,1.52,0,0,0-1-.46,1.8,1.8,0,0,0-1.3.54,1.68,1.68,0,0,0-.61,1.08v4q0,.6-.48.6c-.35,0-.52-.2-.52-.6V4.8c0-.4.16-.6.49-.6a.46.46,0,0,1,.48.39,4.39,4.39,0,0,1,0,.7,2.24,2.24,0,0,1,3.09-.76,2,2,0,0,1,.83.87,2.8,2.8,0,0,1,2.42-1.2,2.4,2.4,0,0,1,1.64.65,2.08,2.08,0,0,1,.72,1.59Z"/></g></g></svg>