<svg xmlns="http://www.w3.org/2000/svg" viewBox="0 0 250 146"><defs><style>.cls-1{fill:#c9c600;opacity:0.8;}.cls-2{font-size:12px;font-family:TsukuBRdGothic-Bold-83pv-RKSJ-H, Tsukushi B Round Gothic;font-weight:700;letter-spacing:0.11em;}.cls-2,.cls-3{fill:#fff;}</style></defs><title>food_detail</title><g id="圖層_2" data-name="圖層 2"><g id="food_detail"><path class="cls-1" d="M215,0H35A35.1,35.1,0,0,0,0,35V88a35.1,35.1,0,0,0,35,35h72.39A95,95,0,0,0,125,146a95,95,0,0,0,17.61-23H215a35.1,35.1,0,0,0,35-35V35A35.1,35.1,0,0,0,215,0Z"/><text class="cls-2" transform="translate(143.51 87.93)">小魚</text><path class="cls-3" d="M170.12,34.79c-6.08-8.3-11.5.5-11.5.5,5.85,8.7,10.37,2.51,11.55.54,2.36,4.8,3-.55,3-.55C172.51,30,170.73,33.42,170.12,34.79Zm-8.61.73a1,1,0,1,1,.75-.94A.86.86,0,0,1,161.51,35.52Z"/><path class="cls-3" d="M167,57.42c-9.73-13.27-18.38.79-18.38.79,9.35,13.92,16.57,4,18.46.88,3.76,7.66,4.8-.89,4.8-.89C170.82,49.79,168,55.24,167,57.42Zm-13.09,1.52a1.83,1.83,0,0,1-1.61-1,.75.75,0,0,1-.07-.12l-.05-.11a1.68,1.68,0,0,1-.07-.24.19.19,0,0,1,0-.08,2,2,0,0,1,0-.35,2.09,2.09,0,0,1,0-.35.24.24,0,0,1,0-.08,2.17,2.17,0,0,1,.07-.24,1.17,1.17,0,0,0,.05-.11.75.75,0,0,1,.07-.12,1.82,1.82,0,0,1,1.61-1,1.86,1.86,0,0,1,0,3.71Z"/><path class="cls-3" d="M133.68,42.35s.83,6.84,3.83.71c1.51,2.52,7.29,10.44,14.77-.7,0,0-6.92-11.24-14.7-.63C136.81,40,134.53,35.63,133.68,42.35Zm13.63-.89a1.28,1.28,0,1,1,1.27,1.27A1.27,1.27,0,0,1,147.31,41.46Z"/><text class="cls-2" transform="translate(78.51 87.93)">小蝦</text><path class="cls-3" d="M78.1,51.78c.83-.83,2.33,1.9,4.67,2.34s5.92.15,6.5.51-1.46,1.17-2,2a26.5,26.5,0,0,0-1.24,3.51c-.22.51-7.38,1.39-8.62,0S77,52.88,78.1,51.78Z"/><path class="cls-3" d="M89.25,66.19c-.83.74-3.82,2.19-5.84.9s-4.31-2.79-4.24-3.76c.13-1.77,1.51-.45,2.62-.59s4.4-1.32,4.91-1.08.15,1.32.57,1.92S90.08,65.45,89.25,66.19Z"/><path class="cls-3" d="M96.65,70.58A7,7,0,0,1,90,67.79c-.3-.57,1.06-1.39,2.06-1.7s3.24-.39,4.51-.74,3.09-1.44,3.67-.19A4.29,4.29,0,0,1,96.65,70.58Z"/><path class="cls-3" d="M94.65,59.61c.18.35.44,1.13-.14,1s-3.15-1.39-3.42-2.36.19-3,1.11-2.89c.58.09,0,1.82-.06,2.35S94.47,59.26,94.65,59.61Z"/><path class="cls-3" d="M98.68,56.23c.27.28.75.94.15,1s-3.42-.4-4-1.25-.7-3,.22-3.09c.59-.09.52,1.74.63,2.27S98.4,55.94,98.68,56.23Z"/><path class="cls-3" d="M96.67,50.23c.43-.16.68,1.24.85,1.63s2.18.17,2.44.34.73.6.28.72-2.67.26-3.23-.29S96,50.49,96.67,50.23Z"/><path class="cls-3" d="M107.21,48.46c-3.39,1.1-9.09-1-10.95,0s-1.64,4.06-3.94,4.28-12.93.32-13.15-3.84S87,40.69,87,40.69c6.24-1.65,8.43.54,9.86,2.3a9.52,9.52,0,0,0,4.27,2.95c1,.29,3.52,2.06,5.42.44s3.23-6.79-2.46-9.2-14.24-3.07-14.68-4,13.09,2.46,14.51,3,3.89,1.31,5.32,3.34C110.44,41.27,110.61,47.37,107.21,48.46Z"/><circle class="cls-3" cx="99.12" cy="41.93" r="0.96"/></g></g></svg>