<svg xmlns="http://www.w3.org/2000/svg" viewBox="0 0 250 146"><defs><style>.cls-1{fill:#c9c600;opacity:0.8;}.cls-2{font-size:9px;letter-spacing:0.11em;}.cls-2,.cls-3,.cls-4{fill:#fff;}.cls-2,.cls-4{font-family:TsukuBRdGothic-Bold-83pv-RKSJ-H, Tsukushi B Round Gothic;font-weight:700;}.cls-4{font-size:11px;letter-spacing:0.11em;}</style></defs><title>height_detail</title><g id="圖層_2" data-name="圖層 2"><g id="height_detail"><path class="cls-1" d="M215,0H35A35.1,35.1,0,0,0,0,35V88a35.1,35.1,0,0,0,35,35h72.39A95,95,0,0,0,125,146a95,95,0,0,0,17.61-23H215a35.1,35.1,0,0,0,35-35V35A35.1,35.1,0,0,0,215,0Z"/><text class="cls-2" transform="translate(120.51 102.93)">15</text><line class="cls-3" x1="84.5" y1="85" x2="84.5" y2="97"/><path class="cls-3" d="M83.75,85V97a.75.75,0,0,0,1.5,0V85a.75.75,0,0,0-1.5,0Z"/><line class="cls-3" x1="167.5" y1="85" x2="167.5" y2="97"/><path class="cls-3" d="M166.75,85V97a.75.75,0,0,0,1.5,0V85a.75.75,0,0,0-1.5,0Z"/><line class="cls-3" x1="53" y1="91" x2="199" y2="91"/><path class="cls-3" d="M53,91.75H199a.75.75,0,0,0,0-1.5H53a.75.75,0,0,0,0,1.5Z"/><text class="cls-4" transform="translate(212.51 93.37)">cm</text><circle class="cls-3" cx="31" cy="91" r="2"/><path class="cls-3" d="M167.92,50.74c-.52-5.63-5.58-10.17-7.41-11.16s-5.47-2-7.71-.78c-.89.49-2.12,2.39-3.29,4.51h0l-.05.09-.08.15-.07.14-.08.15-.08.13-.09.17-.07.14-.13.24-.07.13-.08.15-.07.14-.07.15-.07.14-.08.15-.07.13-.09.17-.09.19-.09.18-.06.12-.07.15-.06.13-.08.15-.06.12-.07.15,0,.11-.12.23,0,.09-.09.18,0,.1-.07.15,0,.1-.07.14,0,.1-.07.15,0,.07-.1.22,0,.06-.07.15,0,.07-.06.12,0,.09,0,.11,0,.07-.06.13,0,0-.07.16,0,0,0,.11,0,0,0,.08,0,.05,0,.08,0,0-.08.18,0,0v.06l0,0h0l0,0s.42.32-2.87,1.25-4.26,0-5.21-.62-.47-1.46,1.25-2.19l.18-.08.05,0,.14,0,.06,0,.15-.06h0l.23-.09.06,0,.13,0,.11,0,.14-.06.13,0,.09,0,.11-.05h0a3.32,3.32,0,0,0,2.27-3.94c-.47-3.39-1.67-5.53-3.86-6.26s-2.35-1.87-4.12-5.79-6.78-5-7.87-5-1.67-2.24-2.56-2.35-2.55,1-3.49,2.52-2.09,6.87-2.71,8.07-2.4,1.87-3.08.88-1.62-.15-2.09-.47-1.4-1.09-1.3-1.77a14.22,14.22,0,0,0,.06-1.79h0v-.41a1.09,1.09,0,0,1,0-.18v-.3c0-.07,0-.13,0-.19V31a.66.66,0,0,0,0-.14v-.08c0-.06,0-.13,0-.19v-.08c0-.05,0-.1,0-.15v-.07c0-.06,0-.13,0-.19v-.07l0-.16v-.06l0-.19V29.6a1.29,1.29,0,0,0,0-.19v0l0-.16,0-.06c0-.06,0-.12,0-.18l0,0a.57.57,0,0,0,0-.14v-.05l-.06-.16,0,0a.78.78,0,0,0,0-.14v0l-.07-.14,0,0a1.55,1.55,0,0,0-.26-.39h0a1.41,1.41,0,0,0-1.13-.51,5.17,5.17,0,0,0-2.62,1.39c-1.1.89-3,3.44-3,4.28h0a5.54,5.54,0,0,1-1.36,3.28h0a22.22,22.22,0,0,1-2.4,1.93l-.88-1.35a29.31,29.31,0,0,0-.26-3.44c-.1-.75-.46-1-.92-1a4.61,4.61,0,0,0-2.27,1,21.2,21.2,0,0,0-3.28,4.22,13.21,13.21,0,0,0-1.2,3.6s-.06,0,0,0A1.69,1.69,0,0,0,90,42.92a1,1,0,0,0,1,1.09v.37s0,0-.82.26S89.73,48,89.73,48h0v0l-.12,0c-1.26-.56-2.26.47-2.56,2.45a29.86,29.86,0,0,0,.63,8.22c.41,1.62,1.77,4.07,3.23,4.8a9.36,9.36,0,0,1,2.71,2.4,3,3,0,0,0-1.84.25h0l0,0a.1.1,0,0,0,0,0l-.05,0,0,0,0,0-.05,0s0,0,0,0a.08.08,0,0,0,0,0,.12.12,0,0,0,0,0l0,0,0,.06,0,0-.06.08,0,0-.06.12c-.68,1.3,2.29,2.71,2.29,2.71s-2-.21-2.87-.21-.31.83.79,1.41l.09,0a3.12,3.12,0,0,0,.32.1h0a40.77,40.77,0,0,0,8,.07c1.46-.16,7.93-3.24,7.93-3.24,1,.11,3,.16,3,.16-.15.94-2.6,5.27-4,5.79s-1.67.83-1,1.67,5.12.3,6.8.21h.19c1.51-.06,1.14-.27,2.39.2a12.76,12.76,0,0,0,3.49.3h3.29c1.41,0,.94-1-.78-1.45s-.83-2.19-.21-2.92a2.18,2.18,0,0,0,.73-2.08c-.15-.89.42-.47,1-1.25s-.37-1.78-.84-2-.68-.31-.47-.47a5.34,5.34,0,0,1,1.22-.12h1.82l.1,0h.15l.08,0h0l.08,0h0l.06,0h0l.06,0h0l0,0h0s0,0,0,0h0s0,0,0,0c.1.53,1.14.63,2.45.89S136.11,73,136.11,73s.88-.06,2.13-.22h.09l.25,0h.11l.33,0h.07l.37-.06h0l.83-.15h.05l.4-.08h.06l.4-.09h.05l.42-.09c2.71-.63,5.37-3.6,5.63-5.74s-2-4.06-2-4.06h0l-.3,0h0l-.27,0h0c-.46,0-1.14.13-1.83.19h0c-1.36.13-2.75.22-2.59.06.31-.31,3.44-1,5.42-1.56s3.39.46,4.28.88l.06,0h0l0,0h0l.07,0h0l.09,0h0l.07,0,0,0,.1,0h0l.12.07h0l.12.08h0c1,.62,2.74,1.72,4,2.52h0l1.48,1a25.13,25.13,0,0,0,6.31-2.92C166.41,60.6,168.44,56.37,167.92,50.74Z"/></g></g></svg>