<svg xmlns="http://www.w3.org/2000/svg" viewBox="0 0 134.53 18.22"><defs><style>.cls-1{fill:#eee9cc;}</style></defs><title>detail_01</title><g id="圖層_2" data-name="圖層 2"><g id="detail_01"><path class="cls-1" d="M1.31,3.59H6.56c.58,0,.86.4.86,1.2a6.7,6.7,0,0,1-.27,1.58A17.47,17.47,0,0,1,6,9.55a15.08,15.08,0,0,1-1.74,2.89,12.2,12.2,0,0,1-3,2.93,1,1,0,0,1-.37.2c-.57,0-.86-.32-.86-.94a.8.8,0,0,1,.53-.7A13.42,13.42,0,0,0,3,11.58a14.93,14.93,0,0,0,1.7-2.77,14.37,14.37,0,0,0,.95-2.76,3.49,3.49,0,0,0,.18-.82c0-.15,0-.23-.08-.23H1.31a.62.62,0,0,1-.7-.7A.62.62,0,0,1,1.31,3.59ZM9.51,0a.7.7,0,0,1,.78.8V3.14a34.21,34.21,0,0,0,1.19,3.34,25.21,25.21,0,0,0,4.75-3.75.67.67,0,0,1,1.27.34,1.64,1.64,0,0,1-.33.86,27.22,27.22,0,0,1-5,3.8.16.16,0,0,1-.1,0,24,24,0,0,0,2.31,3.58,19.69,19.69,0,0,0,3.82,3.73c.3.21.45.42.45.64a.85.85,0,0,1-.86.94,1.73,1.73,0,0,1-.86-.31,22,22,0,0,1-4.25-4.79,15.92,15.92,0,0,1-2-3.86c-.14-.33-.27-.68-.39-1v9.61c0,1.3-.75,1.95-2.26,1.95a9.62,9.62,0,0,1-3.11-.72.69.69,0,0,1-.54-.7c0-.5.22-.76.62-.78a1.9,1.9,0,0,1,.49.09A11.29,11.29,0,0,0,8,16.72c.52,0,.78-.29.78-.86V.8C8.81.27,9,0,9.51,0Z"/><path class="cls-1" d="M21.15,5.64a.84.84,0,0,1,.49.22,15.08,15.08,0,0,1,1.88,1.87,1.23,1.23,0,0,1,.13.49c0,.47-.26.71-.78.71a.63.63,0,0,1-.37-.16,22.89,22.89,0,0,0-2-2,1,1,0,0,1-.16-.37A.7.7,0,0,1,21.15,5.64ZM23,10.49c.47,0,.7.26.7.78a19.53,19.53,0,0,1-.59,3.1A17.66,17.66,0,0,1,22,17.44a.74.74,0,0,1-.7.45c-.47,0-.7-.2-.7-.6A1.13,1.13,0,0,1,20.7,17a17.74,17.74,0,0,0,1.1-2.77,31.91,31.91,0,0,0,.7-3.24A.49.49,0,0,1,23,10.49ZM22.09.72a.81.81,0,0,1,.49.22A14.69,14.69,0,0,1,24.3,2.73a1.23,1.23,0,0,1,.13.49c0,.47-.26.71-.78.71a.65.65,0,0,1-.37-.16c-.57-.65-1.17-1.28-1.8-1.9a1,1,0,0,1-.17-.37A.69.69,0,0,1,22.09.72ZM37.34,9.3c.41,0,.61.21.61.63s-.2.69-.61.69H32.11a15.46,15.46,0,0,0,2.48,2.45,26.42,26.42,0,0,0,3.52,2.4.69.69,0,0,1,.46.68,1,1,0,0,1-.15.51.63.63,0,0,1-.55.27,1.23,1.23,0,0,1-.62-.19,33.19,33.19,0,0,1-2.78-2A28.24,28.24,0,0,1,32,12.25v5.23q0,.72-.78.72a.63.63,0,0,1-.7-.72V12.21a19.33,19.33,0,0,1-1.7,1.85,19.71,19.71,0,0,1-3.54,2.66,1.89,1.89,0,0,1-.37.14c-.47,0-.7-.27-.7-.79a.71.71,0,0,1,.45-.7,19.4,19.4,0,0,0,3.75-2.71,11.9,11.9,0,0,0,1.78-2H25.7c-.41,0-.62-.23-.62-.69a.55.55,0,0,1,.62-.63h4.83V7.73a.62.62,0,0,1,.7-.7c.52,0,.78.24.78.7V9.3ZM26.31.64H36.39a1.5,1.5,0,0,1,1.25.56A2.38,2.38,0,0,1,38,2.52c0,.6,0,1.28-.08,2A.79.79,0,0,1,37,5.1a.62.62,0,0,1-.7-.71,17.68,17.68,0,0,0,.17-1.79A.55.55,0,0,0,35.86,2H34V6c0,.32.13.48.4.48h2.5c.46,0,.7.22.7.64a.62.62,0,0,1-.7.69H34a1.23,1.23,0,0,1-1.4-1.38V2H29.77a.6.6,0,0,1,.31.55A7.53,7.53,0,0,1,28.91,6a8.52,8.52,0,0,1-2.35,2.07,1,1,0,0,1-.54.15c-.43,0-.65-.24-.65-.72a.52.52,0,0,1,.24-.37,9.21,9.21,0,0,0,2.18-1.84,5.72,5.72,0,0,0,1-2.93A.43.43,0,0,1,29.06,2H26.93a.55.55,0,0,0-.62.63V4.47a.63.63,0,0,1-.7.71.62.62,0,0,1-.69-.71V2.05A1.24,1.24,0,0,1,26.31.64Z"/><path class="cls-1" d="M50.74,5.08a1.26,1.26,0,0,1-.41,1,1.32,1.32,0,0,1-1.91,0,1.26,1.26,0,0,1-.41-1,1.25,1.25,0,0,1,.41-1,1.32,1.32,0,0,1,1.91,0A1.25,1.25,0,0,1,50.74,5.08Zm0,7.32a1.25,1.25,0,0,1-.41,1,1.32,1.32,0,0,1-1.91,0,1.25,1.25,0,0,1-.41-1,1.23,1.23,0,0,1,.41-1,1.32,1.32,0,0,1,1.91,0A1.23,1.23,0,0,1,50.74,12.4Z"/><path class="cls-1" d="M70.16,8.93a12,12,0,0,1-.86,4.94,4.07,4.07,0,0,1-7.52,0,11.87,11.87,0,0,1-.86-4.94A11.82,11.82,0,0,1,61.78,4,4.07,4.07,0,0,1,69.3,4,12.06,12.06,0,0,1,70.16,8.93Zm-1.41,0q0-6.18-3.22-6.18T62.32,8.93q0,6.15,3.21,6.15T68.75,8.93Z"/><path class="cls-1" d="M82.09,8.28a1.59,1.59,0,0,1-.31.82,3,3,0,0,1-2.48,1.58,5,5,0,0,1-2.15-.82A6.42,6.42,0,0,0,75.31,9,1.73,1.73,0,0,0,74,9.86c-.41.55-.73.82-.93.82-.39,0-.59-.21-.59-.64a1.42,1.42,0,0,1,.25-.68,3.92,3.92,0,0,1,1.12-1.1,2.61,2.61,0,0,1,1.44-.55,2.66,2.66,0,0,1,1.27.38A14.46,14.46,0,0,0,79.3,9.37a1.8,1.8,0,0,0,1.29-.82c.43-.55.73-.84.89-.84C81.89,7.71,82.09,7.9,82.09,8.28Z"/><path class="cls-1" d="M93.65,8.63q0,5.17-2.13,6.94a4.91,4.91,0,0,1-5.31,0,2.85,2.85,0,0,1-1.42-2.13c0-.52.23-.78.7-.78q.39,0,.72.78a2.61,2.61,0,0,0,2.64,1.58,2.84,2.84,0,0,0,2.81-2,11.51,11.51,0,0,0,.59-3.68,5.64,5.64,0,0,1-3.6,1.7,4,4,0,0,1-3.08-1.25,4.66,4.66,0,0,1-1.12-3.22,5.69,5.69,0,0,1,1.12-3.73,4.32,4.32,0,0,1,3.51-1.47,4.18,4.18,0,0,1,3.38,1.65Q93.65,4.53,93.65,8.63Zm-1.4-1.09c0-1.82-.33-3-.86-3.67a3.09,3.09,0,0,0-4.81.06,4.64,4.64,0,0,0-.7,2.73,3.61,3.61,0,0,0,.68,2.25,2.53,2.53,0,0,0,2.09.93C89.84,9.84,91,9.08,92.25,7.54Z"/><path class="cls-1" d="M102.44,15.59q0,.78-.72.78c-.44,0-.67-.26-.67-.78V3.73a4.3,4.3,0,0,1-2.16.9c-.47,0-.71-.21-.71-.63s.23-.52.67-.62a4.47,4.47,0,0,0,2.26-1.45c.33-.33.54-.5.63-.5a.63.63,0,0,1,.7.72Z"/><path class="cls-1" d="M118.18,11A5.65,5.65,0,0,1,117,14.77a4.62,4.62,0,0,1-6.62.35,3,3,0,0,1-1.11-1.86.63.63,0,0,1,.7-.72c.25,0,.45.17.61.51a3.16,3.16,0,0,0,5.41.76,4.61,4.61,0,0,0,.82-2.79,4.29,4.29,0,0,0-.65-2.41A2.37,2.37,0,0,0,114,7.5a3.78,3.78,0,0,0-2.93,1.33l-.47.56c-.22.25-.41.38-.58.38-.4,0-.61-.32-.61-.94V2.41a.58.58,0,0,1,.65-.67h6.85c.55,0,.82.22.82.67s-.27.66-.82.66h-5.56c-.35,0-.53.16-.53.48v4A3.93,3.93,0,0,1,114,6.17a3.77,3.77,0,0,1,3.13,1.47A5.38,5.38,0,0,1,118.18,11Z"/><path class="cls-1" d="M134.53,15.51c0,.57-.23.86-.7.86s-.72-.29-.72-.86V9.2A1.58,1.58,0,0,0,132.5,8a2.08,2.08,0,0,0-1.35-.53,2.66,2.66,0,0,0-1.77.59,2.12,2.12,0,0,0-1,1.46v6c0,.57-.24.86-.72.86s-.69-.29-.69-.86v-6a1.92,1.92,0,0,0-.72-1.38,2.15,2.15,0,0,0-1.47-.67A2.53,2.53,0,0,0,123,8.2a2.4,2.4,0,0,0-.88,1.55v5.76c0,.57-.23.86-.68.86s-.75-.29-.75-.86V6.86c0-.58.24-.86.71-.86a.64.64,0,0,1,.68.56,6.19,6.19,0,0,1,0,1,3.21,3.21,0,0,1,4.41-1.1,2.89,2.89,0,0,1,1.2,1.25A4,4,0,0,1,131.15,6a3.43,3.43,0,0,1,2.35.93,3,3,0,0,1,1,2.27Z"/></g></g></svg>