<svg xmlns="http://www.w3.org/2000/svg" viewBox="0 0 250 146"><defs><style>.cls-1{fill:#c1bd31;opacity:0.8;}.cls-2{fill:#fff;}</style></defs><title>food_detail</title><g id="圖層_2" data-name="圖層 2"><g id="food_detail"><path class="cls-1" d="M215,0H35A35.1,35.1,0,0,0,0,35V88a35.1,35.1,0,0,0,35,35h72.39A95,95,0,0,0,125,146a95,95,0,0,0,17.61-23H215a35.1,35.1,0,0,0,35-35V35A35.1,35.1,0,0,0,215,0Z"/><path class="cls-2" d="M73.69,81.06c0,.09-.11.14-.26.14a13.51,13.51,0,0,1-2.17,5.11,5.7,5.7,0,0,0-.76-.43,11.58,11.58,0,0,0,2.09-5ZM75.79,78l1.1.05c0,.1-.08.16-.25.17v9.57c0,.63-.17.88-.57,1a9.12,9.12,0,0,1-2.31.16,3.25,3.25,0,0,0-.35-.85l1.44,0c.84,0,.94,0,.94-.33Zm5.28,8.52a20.14,20.14,0,0,0-2.35-5.45l.76-.3a19.65,19.65,0,0,1,2.44,5.39Z"/><path class="cls-2" d="M86.44,86.42A6.25,6.25,0,0,1,84.66,89L84,88.56a5.47,5.47,0,0,0,1.73-2.36Zm-1-.72V81.44c-.28.23-.58.47-.89.68a3.41,3.41,0,0,0-.6-.6,11,11,0,0,0,3.53-3.76l1,.18c0,.1-.09.17-.26.17L88,78.6H90.9l.13,0,.63.4a.24.24,0,0,1-.15.1,10.15,10.15,0,0,1-1.06,1.54H93.7v5.1Zm3.61-4.41H86.27v1.52H89.1Zm-2.83,2.18V85H89.1V83.47Zm3.2-2.87a8.08,8.08,0,0,0,1-1.32H87.51a14.31,14.31,0,0,1-1.12,1.32Zm-1.54,8.22a13.73,13.73,0,0,0-.25-2.31l.77-.06a12.91,12.91,0,0,1,.31,2.26Zm5-6V81.29h-3v1.52Zm0,2.19V83.47h-3V85ZM91,88.82a12.12,12.12,0,0,0-.84-2.3l.74-.15a13.11,13.11,0,0,1,.88,2.25Zm3.4.14a11.55,11.55,0,0,0-1.84-2.53l.72-.31a11.46,11.46,0,0,1,1.89,2.47Z"/><path class="cls-2" d="M155.84,86.13a4.7,4.7,0,0,1-1.36,2.67l-.65-.42a4.11,4.11,0,0,0,1.32-2.47Zm9-2.42h-8.54v1h7.65l.44.06,0,.25c-.15,2.37-.3,3.27-.6,3.6s-.52.31-1.29.31c-.27,0-.6,0-.93,0a2,2,0,0,0-.22-.7c.6.06,1.17.06,1.37.06s.32,0,.41-.12.33-.92.45-2.73h-8.06V79h3a9.83,9.83,0,0,0,.47-1.2l1,.23c0,.08-.11.12-.24.13-.12.24-.29.55-.46.84H163V82h-6.75v1h8.54Zm-2.58-4.09h-6v1.76h6Zm-5.17,8.82a8.72,8.72,0,0,0-.28-2.23l.66-.09a8,8,0,0,1,.34,2.22Zm2.32-.24a8.3,8.3,0,0,0-.62-2l.62-.16a7.06,7.06,0,0,1,.66,2Zm1.89-2.38a7.37,7.37,0,0,1,1,1.57l-.6.26a7.18,7.18,0,0,0-.93-1.61Z"/><path class="cls-2" d="M169.25,86.43a.25.25,0,0,1-.24.11,6.88,6.88,0,0,1-1.33,2.4,5.06,5.06,0,0,0-.58-.42,5.78,5.78,0,0,0,1.25-2.35Zm2-8.17v7.63h-3.56V78.26Zm-.73,2.33V78.94h-2.13v1.65Zm0,2.3V81.24h-2.13v1.65Zm0,2.32V83.54h-2.13v1.67Zm.4,3.16a10.46,10.46,0,0,0-1-1.92l.62-.27a9.59,9.59,0,0,1,1,1.86Zm4.73-7.53c.08,1.37.23,2.7.41,3.84a13.59,13.59,0,0,0,1.08-2.7l.94.25c0,.08-.12.13-.27.13a13.48,13.48,0,0,1-1.55,3.41c.3,1.45.7,2.41,1.12,2.41.24,0,.36-.64.42-2a1.83,1.83,0,0,0,.57.45c-.15,1.72-.38,2.29-1.08,2.29s-1.23-.93-1.62-2.37a9.39,9.39,0,0,1-2.74,2.36,3.09,3.09,0,0,0-.52-.57,8.92,8.92,0,0,0,3-2.72,36.55,36.55,0,0,1-.57-4.81h-3.29V80.1h3.26c0-.76,0-1.52-.06-2.27l1,.06c0,.1-.08.15-.24.18,0,.67,0,1.35,0,2h2.7v.74Zm-2.9,6.46V84.14h-1.15v-.7h1.15V81.56l.93.06c0,.08-.07.13-.23.16v1.66h1.17v.7h-1.17V87.3Zm4-9.39a7.58,7.58,0,0,1,1.51,1.37l-.57.42a7.93,7.93,0,0,0-1.5-1.41Z"/><path class="cls-2" d="M100.21,33.64c-6.08-8.3-11.49.5-11.49.5,5.84,8.7,10.37,2.51,11.55.54,2.35,4.8,3-.55,3-.55C102.6,28.87,100.82,32.28,100.21,33.64Zm-8.6.73a1,1,0,1,1,.74-.94A.86.86,0,0,1,91.61,34.37Z"/><path class="cls-2" d="M97.1,57.27c-9.73-13.26-18.38.79-18.38.79,9.35,13.92,16.58,4,18.47.88,3.76,7.66,4.79-.89,4.79-.89C100.91,49.65,98.07,55.09,97.1,57.27ZM84,58.79a1.85,1.85,0,0,1-1.61-1l-.07-.12s0-.07,0-.11a1,1,0,0,1-.08-.23.29.29,0,0,0,0-.09,2,2,0,0,1,0-.35,1.87,1.87,0,0,1,0-.34.29.29,0,0,0,0-.09.9.9,0,0,1,.08-.23.56.56,0,0,1,0-.12L82.4,56A1.85,1.85,0,1,1,84,58.79Z"/><path class="cls-2" d="M63.77,42.21s.83,6.83,3.84.7c1.51,2.52,7.29,10.44,14.77-.7,0,0-6.92-11.24-14.71-.63C66.9,39.84,64.63,35.48,63.77,42.21Zm13.64-.9a1.27,1.27,0,1,1,1.27,1.27A1.27,1.27,0,0,1,77.41,41.31Z"/><path class="cls-2" d="M167.12,48.24c3.09-.18,5.09.29,5.51-2.12s-.21-19.95-4.74-19.95-6.95,18-5.59,20.37S165.76,48.32,167.12,48.24Z"/><path class="cls-2" d="M162.48,30.85c-.1-1.17-3.61.42-4.14,1.84s1.7,6.45,2.16,5.68.41-4.41,1.16-5.28A3.06,3.06,0,0,0,162.48,30.85Z"/><path class="cls-2" d="M172,28c.18-1.41,4.34.72,4.89,2.47s-2.44,7.69-2.94,6.73-.24-5.35-1.09-6.44A3.72,3.72,0,0,1,172,28Z"/><path class="cls-2" d="M165.78,50.17a.82.82,0,1,1-.82-.81A.81.81,0,0,1,165.78,50.17Z"/><path class="cls-2" d="M170.89,50.09a.74.74,0,1,1-.74-.73A.73.73,0,0,1,170.89,50.09Z"/><path class="cls-2" d="M162.81,50.16c-.08-1.15-2.4-1.28-3.69-.9s-4.08-2-3.89-3.53.94-5.38-.64-6.89-6.5-4.79-7.2-3.82,1.05,4.93,2,5.28,3.15-1.26,3.78.05-.56,4.18-.45,5.36,2.1,6.72,5.75,6.86S162.94,51.87,162.81,50.16Z"/><path class="cls-2" d="M173,49.83c-.09-1.15,2.18-1.64,3.52-1.46s3.72-2.61,3.3-4.08-1.76-5.17-.42-6.9,5.69-5.73,6.53-4.88-.28,5-1.13,5.52-3.3-.77-3.72.62,1.2,4,1.27,5.23-1.06,7-4.64,7.66S173.14,51.54,173,49.83Z"/><path class="cls-2" d="M167.33,52.25c2.74,0,3.23.21,4.56,1.67s2.25,3.35,3.16,3.55.63,1.05-.56,1.05a9.17,9.17,0,0,1-3.6-1c-.54-.34-.47.49-.33,1.81s-1.2,5-2,6.34-.83,2.09-1.26,1.81.84-5.5.84-7.31-.91-3.27-1.27-2.86a8.55,8.55,0,0,0-.49,4.46c.35,1.26.32,2.72-.12,2.51s-2.19-3.48-1.77-5.57-.42-2.86-1-2.44-2.81,2.37-3.3,2.3,0-1.67,1.06-2.44,2.21-2.67,2.86-3.35S166.63,52.26,167.33,52.25Z"/></g></g></svg>