<svg xmlns="http://www.w3.org/2000/svg" viewBox="0 0 250 146"><defs><style>.cls-1{fill:#c1bd31;opacity:0.8;}.cls-2{fill:#fff;}</style></defs><title>height_detail</title><g id="圖層_2" data-name="圖層 2"><g id="height_detail"><path class="cls-1" d="M215,0H35A35.1,35.1,0,0,0,0,35V88a35.1,35.1,0,0,0,35,35h72.39A95,95,0,0,0,125,146a95,95,0,0,0,17.61-23H215a35.1,35.1,0,0,0,35-35V35A35.1,35.1,0,0,0,215,0Z"/><path class="cls-2" d="M122.94,102.93h-4v-.46l.66-.69c1.6-1.62,2.41-2.61,2.41-3.7a1.22,1.22,0,0,0-1.29-1.39,2.28,2.28,0,0,0-1.35.56l-.25-.53a2.68,2.68,0,0,1,1.75-.65,1.8,1.8,0,0,1,1.9,1.92c0,1.26-.89,2.34-2.29,3.75l-.53.56v0h3Z"/><path class="cls-2" d="M128.67,96.18v.63h-2.42l-.28,1.9c.14,0,.29,0,.52,0a2.07,2.07,0,0,1,2.27,2.07,2.24,2.24,0,0,1-2.32,2.29,3,3,0,0,1-1.55-.4l.22-.59a2.39,2.39,0,0,0,1.33.38,1.53,1.53,0,0,0,1.57-1.59c0-.93-.6-1.58-1.86-1.58a4.79,4.79,0,0,0-.86.07l.42-3.15Z"/><path class="cls-2" d="M130.82,99.58c0-2.36.92-3.5,2.18-3.5s2.06,1.2,2.06,3.41-.82,3.55-2.16,3.55S130.82,101.83,130.82,99.58Zm3.49-.06c0-1.68-.41-2.84-1.35-2.84s-1.37,1.07-1.37,2.84.49,2.9,1.34,2.9C133.93,102.42,134.31,101.13,134.31,99.52Z"/><line class="cls-2" x1="84.5" y1="85" x2="84.5" y2="97"/><path class="cls-2" d="M83.75,85V97a.75.75,0,0,0,1.5,0V85a.75.75,0,0,0-1.5,0Z"/><line class="cls-2" x1="167.5" y1="85" x2="167.5" y2="97"/><path class="cls-2" d="M166.75,85V97a.75.75,0,0,0,1.5,0V85a.75.75,0,0,0-1.5,0Z"/><line class="cls-2" x1="53" y1="91" x2="199" y2="91"/><path class="cls-2" d="M53,91.75H199a.75.75,0,0,0,0-1.5H53a.75.75,0,0,0,0,1.5Z"/><path class="cls-2" d="M217.46,93.15a3.86,3.86,0,0,1-1.63.34A2.79,2.79,0,0,1,213,90.43a3,3,0,0,1,3.07-3.2,3.31,3.31,0,0,1,1.44.32l-.23.73A2.46,2.46,0,0,0,216,88a2.15,2.15,0,0,0-2.11,2.39A2.12,2.12,0,0,0,216,92.74a2.84,2.84,0,0,0,1.29-.3Z"/><path class="cls-2" d="M228.14,93.37h-.9V89.9c0-1.16-.42-1.91-1.32-1.91a1.52,1.52,0,0,0-1.41,1.6v3.78h-.9v-3.7c0-1-.41-1.68-1.26-1.68a1.63,1.63,0,0,0-1.47,1.7v3.68H220V88.91c0-.61,0-1,0-1.55h.81l0,1h0a2,2,0,0,1,1.82-1.1,1.71,1.71,0,0,1,1.64,1.2h0a2.1,2.1,0,0,1,1.93-1.2c.74,0,1.9.47,1.9,2.53Z"/><circle class="cls-2" cx="31" cy="91" r="2"/><path class="cls-2" d="M166.46,67.22a23.84,23.84,0,0,0-2.61-6.68A17.11,17.11,0,0,0,161.16,58c-.35-.46-1.9-5-2.43-6.43a2.65,2.65,0,0,1,.21-2.72c.35-.53,1.48-3.43,2.26-5.26s1.31-3.86,1.09-4.07-.7,0-.7,0,3-6.54,3.21-7.21,0-.92.18-1.63,0-.67-.28-.49a6.65,6.65,0,0,0-1.77,1.38,44.44,44.44,0,0,0-5.83,8.3,39.11,39.11,0,0,0-2.19,6.79,25.36,25.36,0,0,0-.45,3c-.77.82-1.49,2-2.33,2.45a70.75,70.75,0,0,1-6.52,3.35v0a4.53,4.53,0,0,1,.52-.68L149,51.94l-1,.66c-.37.23-1.88,1.54-2.12,1.38s-.29-.14,0-.91-.29-.36-.29-.36a9,9,0,0,0-1.78,1.67,5.56,5.56,0,0,0-1.3,2.2h0c-.44.13-.88.25-1.34.36a30.15,30.15,0,0,1-5.24-.3c-3-.42-5.66-1.7-9.55-3.75s-6.5-7.35-7.28-9.54-.56-9.19-.56-9.19A19.4,19.4,0,0,0,115,35.45c-2.4,1.06-5,5.17-5,5.17l-.24-.37c-.9-1.43-2.65-1.59-3.87-1.8a10.29,10.29,0,0,0-2.7,0c-1.38-1.24-5-2.3-5-2.3L82,17l16,22.16s.42,1.09.67,1.62.49,1.7.85,2A2.14,2.14,0,0,1,100,44l-.11-.13-.09-.08.08.09a1.6,1.6,0,0,1,.13.21,1.35,1.35,0,0,1,0,.2,11.72,11.72,0,0,0-2.4-3.18,47.68,47.68,0,0,0-6-4.84c-1.17-.57-1.67-.39-1.67-.39,1.42.6,3.36,3.57,4.63,4.94a28.69,28.69,0,0,1,2.69,3.68s.64,1.87.92,2.61A48.43,48.43,0,0,0,101,52.41c.78,1.17,1.8,2.76,2.37,3.57s.6.39.6.39a18.25,18.25,0,0,0,2.46,4.07v0l-.57.83a35.74,35.74,0,0,0,.34,4.39c.08.46,1.22,6,1.49,6.9.21.75.89,2.59,1.13,3.25-.39-1.33-1.19-6.88-1.29-7.49s-.13-3-.13-3A31.59,31.59,0,0,0,108.64,69c.29.63,1.83,3.2,1.83,3.2s-.93-2.49-1.3-3.33-1.4-4.4-1.64-5.31a9.73,9.73,0,0,1-.24-2.09,20,20,0,0,0,3.19,2.85,29.09,29.09,0,0,0,2.3,4.34A25.43,25.43,0,0,0,116.35,72c.29.21,1,1,1.42,1.27s.56-.11.35-.18-.46-.81-1.24-1.83a47.42,47.42,0,0,1-2.58-4.46l0-.07a27,27,0,0,0,7.81,2.74,21.46,21.46,0,0,0,5.43.2l-.34,0a19.52,19.52,0,0,0,2,3,44.42,44.42,0,0,0,5.5,3.78c1.46.85,2,.92,2.13.81s0,0-.56-.77-1.41-2.55-1-3.57A17,17,0,0,1,137,69.23,28.7,28.7,0,0,1,140.07,66c.88-.67,2.12-1.82,2.12-1.82l2.07-1.31,0,0-.09.06,0,0s0,0,.38.49a2.92,2.92,0,0,0,1.85.6,13.1,13.1,0,0,1,1.38.15,1.19,1.19,0,0,0-.53-.65c-.48-.34.11-.79.29-.87s2.18-1.49,3.08-2.12a8.84,8.84,0,0,0,1.69-1.73s-1.4.9-2.17,1.36a5.66,5.66,0,0,1-1.86.58c-.68.18,0-.58,0-.58a75.89,75.89,0,0,0,6.82-5.91A18.25,18.25,0,0,1,157,58a19,19,0,0,0,3.29,5.33c1,1.06,1,.54,1.73,1.38a12.94,12.94,0,0,0,2.37,1.91c.31.43,3.18,4.17,3.18,4.17C167.56,70.35,166.46,67.22,166.46,67.22Zm-32,1,.39-.14Zm-.55.18.48-.16Zm-.49.15.39-.12Zm-4.6,1,.5-.07Zm4-.83.45-.13Zm-.55.15.51-.14Zm-.52.13.39-.1Zm-1.18.26,1-.23Zm-.55.1.41-.07Zm-.68.12.54-.09ZM106.83,61l0-.07Zm-.1-17.42-.19-.18Zm-.88-.67h0a5.38,5.38,0,0,1,.58.41A5.38,5.38,0,0,0,105.85,42.88ZM103.67,42a6,6,0,0,1,2.09.81h0a6,6,0,0,0-2.09-.81,3.56,3.56,0,0,1-1-.36h0A3.91,3.91,0,0,0,103.67,42ZM98.8,39.6c.56.32,1.39.79,2.2,1.23h0C100.19,40.39,99.36,39.92,98.8,39.6Zm7.82,21.1-.06-.07Zm.4.5,0,0Zm21.11,8.4-.55.05Zm.56-.07-.43,0ZM135,68l.37-.14Zm.89-.34-.43.17Zm1-.4.4-.18Zm-.86.37.34-.15Zm.45-.19.36-.16Zm2.42-1.19.31-.18Zm-1.52.79.29-.14Zm.4-.19.33-.17Zm.36-.18.34-.18Zm.42-.23.25-.14Zm2.95-1.78h0Zm-.74.46Zm14.53-11-.33-.5.35.48Z"/><path class="cls-2" d="M108.79,75.79a1.13,1.13,0,0,0,.09.25Z"/></g></g></svg>