<svg xmlns="http://www.w3.org/2000/svg" viewBox="0 0 339.21 92.3"><defs><style>.cls-1{fill:#f1ecce;}.cls-2{fill:#cac529;}</style></defs><title>detail_02</title><g id="圖層_2" data-name="圖層 2"><g id="detail_02"><path class="cls-1" d="M1.46,11.13q0,.6-.48.6c-.33,0-.5-.2-.5-.6V1.86c0-.39.17-.59.5-.59s.48.2.48.59Z"/><path class="cls-1" d="M11.74,8.07a3.3,3.3,0,0,1-1.25,2.77,4.8,4.8,0,0,1-3,.89q-4.22,0-4.21-3.54V1.86c0-.39.17-.59.49-.59s.51.2.51.59v6a2.75,2.75,0,0,0,.78,2.2,3.64,3.64,0,0,0,2.36.63,4.08,4.08,0,0,0,2.23-.56,2.08,2.08,0,0,0,1.1-1.88V1.86c0-.39.16-.59.49-.59s.5.2.5.59Z"/><path class="cls-1" d="M21.53,8.82a2.66,2.66,0,0,1-.65,1.23,4.14,4.14,0,0,1-3.42,1.67,3.88,3.88,0,0,1-3.23-1.53,5.38,5.38,0,0,1-1.09-3.44,6.1,6.1,0,0,1,1.17-3.82A4.16,4.16,0,0,1,17.8,1.26,3.62,3.62,0,0,1,21,2.68a2.22,2.22,0,0,1,.52,1.23.51.51,0,0,1-.59.57.37.37,0,0,1-.33-.24c0-.15-.09-.29-.13-.44a2.46,2.46,0,0,0-1-1.15,3.21,3.21,0,0,0-1.59-.42A3.14,3.14,0,0,0,15,3.64a5.5,5.5,0,0,0-.79,3.11A4.53,4.53,0,0,0,15,9.49a2.9,2.9,0,0,0,2.45,1.23,3.11,3.11,0,0,0,1.87-.6,3.28,3.28,0,0,0,1.23-1.56.39.39,0,0,1,.37-.3C21.33,8.26,21.53,8.44,21.53,8.82Z"/><path class="cls-1" d="M31,11.12q0,.6-.39.6c-.11,0-.26-.12-.43-.34L23.78,3.23v7.89c0,.4-.17.6-.5.6s-.49-.2-.49-.6V1.85c0-.4.15-.59.44-.59.09,0,.22.1.39.31L30,9.72V1.85c0-.4.17-.59.51-.59s.48.19.48.59Z"/><path class="cls-2" d="M36.85,6.67c.31,0,.47.18.47.55a.67.67,0,0,1-.26.46A9,9,0,0,1,35.42,8.8,16.6,16.6,0,0,1,33,9.93a.79.79,0,0,1-.32.08c-.32,0-.48-.18-.48-.55a.51.51,0,0,1,.37-.55,16.14,16.14,0,0,0,2-.84,14.72,14.72,0,0,0,2.09-1.36ZM35.7,2.06q.48,0,.48.51a.43.43,0,0,1-.48.49H32.91c-.34,0-.51-.16-.51-.49a.45.45,0,0,1,.51-.51Zm4.36,1c.36,0,.55.17.55.49V5.67a6.46,6.46,0,0,0,.32,2.14,6,6,0,0,0,1,1.83,9.63,9.63,0,0,0,1.56,1.45,12.87,12.87,0,0,0,1.75.93.55.55,0,0,1,.26.49c0,.35-.18.53-.48.56A1.41,1.41,0,0,1,44.5,13a9.07,9.07,0,0,1-2.19-1.39A7.89,7.89,0,0,1,40.88,10a6.31,6.31,0,0,1-.82-2,6,6,0,0,1-.94,2.26A8.51,8.51,0,0,1,37.31,12a14.57,14.57,0,0,1-1.61,1,1,1,0,0,1-.44.16.52.52,0,0,1-.55-.56A.57.57,0,0,1,35,12a9.56,9.56,0,0,0,2.6-1.53,6.4,6.4,0,0,0,2-4.82V3.55A.43.43,0,0,1,40.06,3.06Zm-1.78-.65c0,.18-.08.36-.12.54a11,11,0,0,1-.58,1.55,8.42,8.42,0,0,1-.91,1.41.46.46,0,0,1-.37.16.65.65,0,0,1-.47-.2.7.7,0,0,1-.19-.46.61.61,0,0,1,.22-.49,7.26,7.26,0,0,0,.77-1.17,5.6,5.6,0,0,0,.48-1.32A13.58,13.58,0,0,0,37.45.37c0-.25.19-.37.48-.37a.68.68,0,0,1,.42.14.42.42,0,0,1,.19.34,1.76,1.76,0,0,1,0,.42c0,.19,0,.36,0,.52H44c.73,0,1.09.35,1.09,1a4,4,0,0,1-.27,1.29A15.87,15.87,0,0,1,43.5,6.62a.64.64,0,0,1-.49.26q-.6,0-.6-.48a.68.68,0,0,1,.05-.23A14.65,14.65,0,0,0,43.75,3.5,2.07,2.07,0,0,0,44,2.72c0-.21-.12-.31-.35-.31Z"/><path class="cls-2" d="M48.86.22a.87.87,0,0,1,.4.09.38.38,0,0,1,.15.29,1,1,0,0,1,0,.26A12.77,12.77,0,0,1,48,3h0l0,0a6,6,0,0,1,1,1.08c.39-.58.75-1.15,1.07-1.72a.5.5,0,0,1,.43-.24.45.45,0,0,1,.32.14.42.42,0,0,1,.14.3.62.62,0,0,1-.11.34c-.45.76-.93,1.48-1.44,2.18a10,10,0,0,1-.81.93,9.05,9.05,0,0,0,1.94-.45c0-.13-.09-.25-.13-.36A.53.53,0,0,1,50.3,5c0-.21.14-.31.42-.31.1,0,.2.07.29.22a9.18,9.18,0,0,1,.75,1.9,1.06,1.06,0,0,1,.06.34c0,.25-.19.37-.55.37-.14,0-.24-.11-.31-.32s-.11-.48-.17-.68a.48.48,0,0,1-.18,0c-.37.11-.73.2-1.09.28v5.88c0,.33-.16.5-.48.5a.44.44,0,0,1-.49-.5V7c-.57.12-1.11.21-1.64.28q-.51,0-.51-.6c0-.32.17-.48.51-.49l.45,0a13.14,13.14,0,0,0,1.12-1.3.61.61,0,0,0,0-.06.63.63,0,0,1-.2-.13c-.38-.43-.69-.76-1-1s-.48-.42-.75-.63a.62.62,0,0,1-.16-.39c0-.3.15-.44.45-.44a.64.64,0,0,1,.31.12l.11.08a16.07,16.07,0,0,0,1.16-2A.37.37,0,0,1,48.86.22Zm-1.2,7.6c.33,0,.49.13.49.38a1.33,1.33,0,0,1,0,.32,28,28,0,0,1-.76,3.66.48.48,0,0,1-.44.29q-.51,0-.51-.45a.62.62,0,0,1,.11-.32,24.06,24.06,0,0,0,.78-3.62A.33.33,0,0,1,47.66,7.82Zm2.84,0a.5.5,0,0,1,.46.26,16,16,0,0,1,.38,1.78c0,.07,0,.13,0,.16a16.69,16.69,0,0,0,1-3.46,30.7,30.7,0,0,0,.38-4.92H51.39c-.29,0-.43-.16-.43-.48s.14-.45.43-.45h5.42c.61,0,.91.25.91.75q0,.15-.84,3.3H58a.71.71,0,0,1,.8.8,7.79,7.79,0,0,1-.27,1.56,10.57,10.57,0,0,1-.85,2.26,4.72,4.72,0,0,1-.71,1,1.29,1.29,0,0,0,.15.17,10,10,0,0,0,2,1.42.5.5,0,0,1,.26.39.48.48,0,0,1-.55.55,1.16,1.16,0,0,1-.46-.19,9.62,9.62,0,0,1-1.85-1.39,2.49,2.49,0,0,1-.23-.22l0,0a9.15,9.15,0,0,1-1.93,1.17,5.27,5.27,0,0,1-1.54.59c-.33,0-.5-.18-.5-.55a.45.45,0,0,1,.33-.45,11.07,11.07,0,0,0,2.86-1.42l.15-.12a10.38,10.38,0,0,1-.82-1.25,13.3,13.3,0,0,1-1.14-3.44h-.11c0,.39-.09.76-.15,1.12a15.51,15.51,0,0,1-2.17,5.62.45.45,0,0,1-.37.2.43.43,0,0,1-.49-.49.85.85,0,0,1,.11-.26,12.2,12.2,0,0,0,.71-1.34l-.16,0c-.29,0-.44-.13-.46-.4a11.48,11.48,0,0,0-.34-1.9l0-.16C50.12,7.93,50.25,7.82,50.5,7.82Zm3.09-3.06h2.19c.49-1.88.74-2.84.74-2.89s-.11-.23-.31-.23H53.74A31.07,31.07,0,0,1,53.59,4.76Zm.92,1a12.07,12.07,0,0,0,1,2.83,7.12,7.12,0,0,0,.75,1.15,3.09,3.09,0,0,0,.41-.56A8.49,8.49,0,0,0,57.56,7a6.19,6.19,0,0,0,.23-1.06.16.16,0,0,0-.18-.18Z"/><path class="cls-2" d="M63.31.37a.6.6,0,0,1,.36.12.47.47,0,0,1,.19.37,1.35,1.35,0,0,1,0,.29q-.29,1.11-.6,2v9.37a.5.5,0,1,1-1,0V5.39a11.93,11.93,0,0,1-1,1.54c-.16.16-.28.23-.37.23-.36,0-.54-.16-.54-.49a.44.44,0,0,1,.09-.27A13.46,13.46,0,0,0,61.82,4,14.89,14.89,0,0,0,62.92.71.37.37,0,0,1,63.31.37ZM65.5.71h5.8c.65,0,1,.29,1,.87V4.17c0,.61-.32.92-1,.92H69V6.51h3.5A.43.43,0,0,1,73,7a.43.43,0,0,1-.49.48H69.26A17.6,17.6,0,0,0,70.82,9.2a18,18,0,0,0,2.23,2,.76.76,0,0,1,.16.54.61.61,0,0,1-.56.48.79.79,0,0,1-.44-.16,15.83,15.83,0,0,1-1.51-1.48A18.91,18.91,0,0,1,69,8.46v4.1q0,.51-.54.51a.45.45,0,0,1-.5-.51V8.48A21.33,21.33,0,0,1,64.86,12a1,1,0,0,1-.51.29c-.43,0-.65-.18-.65-.55a.55.55,0,0,1,.16-.34,23.9,23.9,0,0,0,2.59-2.43,12.86,12.86,0,0,0,1.1-1.45H64.24A.43.43,0,0,1,63.75,7a.43.43,0,0,1,.49-.49H68V5.09H65.5a.82.82,0,0,1-.94-.92V1.58C64.56,1,64.87.71,65.5.71Zm5.36,3.45c.26,0,.38-.15.38-.44V2a.33.33,0,0,0-.38-.38H65.93c-.21,0-.32.13-.32.38v1.7c0,.29.11.44.32.44Z"/><path class="cls-2" d="M80.71.26a.49.49,0,0,1,.54.56v.55H86.5a.39.39,0,0,1,.43.44c0,.32-.15.49-.43.49H83.64l.11.07q.63.38,1.14.75a8.57,8.57,0,0,1,1.43,1.21.6.6,0,0,1,.18.33.43.43,0,0,1-.49.48A.67.67,0,0,1,85.56,5c-.29-.27-.55-.49-.78-.67a.58.58,0,0,1-.21.07q-4.78.38-9.11.56c-.31,0-.46-.2-.46-.61s.15-.44.46-.45h1.4L78.57,2.3H75c-.29,0-.43-.17-.43-.49A.38.38,0,0,1,75,1.37h5.16V.82A.49.49,0,0,1,80.71.26ZM76.32,5.47h8.86c.59,0,.88.23.88.7V12c0,.67-.55,1-1.65,1a9.1,9.1,0,0,1-2.12-.29.45.45,0,0,1-.33-.42c0-.36.13-.55.39-.55a2.23,2.23,0,0,1,.46.06,8.15,8.15,0,0,0,1.5.2c.47,0,.7-.18.7-.54V10.5H76.49v2.12c0,.33-.18.49-.54.49a.43.43,0,0,1-.49-.49V6.17C75.46,5.7,75.74,5.47,76.32,5.47Zm.17,2.06H85V6.71c0-.21-.05-.31-.15-.31H76.6c-.07,0-.11.1-.11.31Zm0,2.08H85V8.42H76.49Zm7.29-6a6.52,6.52,0,0,0-.67-.45.6.6,0,0,1-.16-.4.43.43,0,0,1,.22-.43H79.83L78.15,3.84C80.2,3.8,82.08,3.71,83.78,3.58Z"/><path class="cls-2" d="M94.36,8.75q.45,0,.45.42c0,.3-.15.44-.45.44h-2.1l1.67,1.82a.53.53,0,0,1,.17.33.43.43,0,0,1-.49.49.5.5,0,0,1-.44-.22l-1.33-1.79v0a3.74,3.74,0,0,1-1,1.42,6,6,0,0,1-1.75,1.16,1.25,1.25,0,0,1-.29.11c-.33,0-.49-.18-.49-.55a.44.44,0,0,1,.26-.45,5.6,5.6,0,0,0,1.58-1,2.65,2.65,0,0,0,.74-1.06c0-.1.07-.2.1-.29H89.1a.39.39,0,0,1-.44-.44c0-.28.15-.42.44-.42h2V7.53c0-.32.14-.48.43-.48s.5.16.5.48V8.75ZM94.16,3a.38.38,0,0,1,.44.43.38.38,0,0,1-.44.43H92.44L94.2,5.48a.49.49,0,0,1,.16.3c0,.3-.14.44-.43.44A.58.58,0,0,1,93.46,6l-1.34-1.5v1.8c0,.29-.16.44-.48.44a.39.39,0,0,1-.45-.44V4.91a1.25,1.25,0,0,1-.08.12,7.83,7.83,0,0,1-.89,1.07,5.07,5.07,0,0,1-.83.78.51.51,0,0,1-.4.17c-.29,0-.44-.12-.44-.38a.68.68,0,0,1,.11-.34,10.63,10.63,0,0,0,1.75-1.68A5.84,5.84,0,0,0,91,3.81H89.1a.38.38,0,0,1-.44-.43A.38.38,0,0,1,89.1,3h2.09V.71a.4.4,0,0,1,.45-.45q.48,0,.48.45V3ZM89.4.71a.38.38,0,0,1,.26.15,8.17,8.17,0,0,1,.83,1,.73.73,0,0,1,.06.26c0,.27-.15.4-.44.4a.63.63,0,0,1-.22,0A10.43,10.43,0,0,0,89,1.42a.88.88,0,0,1-.09-.27C88.91.86,89.07.71,89.4.71Zm4.53,0a.37.37,0,0,1,.43.42.82.82,0,0,1-.2.49,6.7,6.7,0,0,1-.71.84.53.53,0,0,1-.29.11c-.29,0-.44-.14-.44-.4a.38.38,0,0,1,.13-.26,5.38,5.38,0,0,0,.76-1A.33.33,0,0,1,93.93.66Zm-.77,6a.45.45,0,0,1,.23.09q.3.5.6,1.11a.73.73,0,0,1,.06.26c0,.23-.13.34-.4.34a.53.53,0,0,1-.2-.05c-.2-.39-.4-.75-.6-1.11A.59.59,0,0,1,92.72,7C92.72,6.75,92.87,6.62,93.16,6.62Zm7.4-5.8a.38.38,0,0,1,.43.44.37.37,0,0,1-.43.42h-2L98.19,3H100c.5,0,.75.24.75.71V9.72q0,.78-.75.78h-.67A7.66,7.66,0,0,0,100.93,12a.43.43,0,0,1,.32.4.48.48,0,0,1-.54.55,4.62,4.62,0,0,1-1.07-.8,6.5,6.5,0,0,1-.94-1,.67.67,0,0,1-.24-.38.45.45,0,0,1,.05-.22H97.12a.56.56,0,0,1,.09.31.52.52,0,0,1-.21.4,6.72,6.72,0,0,1-2,1.67.56.56,0,0,1-.18.08.44.44,0,0,1-.5-.49.43.43,0,0,1,.23-.4A7,7,0,0,0,96.4,10.5H96q-.75,0-.75-.78V3.66c0-.47.25-.71.75-.71h1.25l.35-1.27H95.2c-.29,0-.44-.14-.44-.42A.39.39,0,0,1,95.2.82ZM96.11,5.13h3.74v-1a.31.31,0,0,0-.35-.34h-3a.31.31,0,0,0-.35.34Zm0,2.24h3.74V6H96.11Zm3.39,2.3c.23,0,.35-.13.35-.39V8.2H96.11V9.28c0,.26.12.39.35.39Z"/><path class="cls-1" d="M108.6.31c.28,0,.42.19.42.55s-.18.39-.55.45-1,.13-1.68.19v.91h2.41a.37.37,0,0,1,.42.42c0,.29-.14.44-.42.44h-2.41V4.1h1.81a.7.7,0,0,1,.8.77V7.71c0,.5-.27.75-.8.75h-1.81v1h2.12a.39.39,0,0,1,.45.44q0,.42-.45.42h-2.12v1.16c.75-.08,1.46-.19,2.12-.32q.45,0,.45.42c0,.31-.17.47-.5.49q-3.08.54-5.86.78c-.32,0-.49-.2-.49-.6a.44.44,0,0,1,.49-.49c1,0,1.92-.08,2.81-.17V10.32H103.4c-.29,0-.44-.14-.44-.42a.39.39,0,0,1,.44-.44h2.41v-1h-2a.67.67,0,0,1-.76-.75V4.87a.68.68,0,0,1,.76-.77h2V3.27H103a.38.38,0,0,1-.43-.44.37.37,0,0,1,.43-.42h2.81V1.57c-1,.08-1.79.11-2.2.11s-.55-.16-.55-.48.15-.43.45-.43c.87,0,1.69-.05,2.45-.11A20.34,20.34,0,0,0,108.6.31ZM104,5.85h1.81V5h-1.55c-.17,0-.26.12-.26.34Zm1.81,1.75V6.67H104v.59c0,.23.09.34.26.34Zm1-2.64v.89h1.68V5.3c0-.22-.1-.34-.31-.34Zm1.37,2.64c.21,0,.31-.11.31-.34V6.67h-1.68V7.6Zm2.19-4.77h1.25c0-.69.06-1.4.06-2.12,0-.3.16-.45.49-.45s.49.17.49.51c0,.71,0,1.4-.07,2.06h1.49c.62,0,.93.36.93,1.09,0,2,0,3.82-.15,5.47a7,7,0,0,1-.56,2.86A1.47,1.47,0,0,1,113,13a3.34,3.34,0,0,1-1.3-.29c-.23-.11-.34-.25-.34-.42,0-.4.16-.6.49-.6a3,3,0,0,0,1.09.31c.35,0,.59-.21.73-.63a10.19,10.19,0,0,0,.3-2.35c0-1.29.08-2.85.08-4.66q0-.51-.45-.51h-1c-.06.95-.15,1.87-.27,2.75a19,19,0,0,1-2,6.17.56.56,0,0,1-.42.23.48.48,0,0,1-.55-.55,1.63,1.63,0,0,1,.11-.34,18.46,18.46,0,0,0,1.93-5.86c.12-.78.2-1.58.26-2.4h-1.2a.44.44,0,0,1-.5-.49A.44.44,0,0,1,110.35,2.83Z"/><path class="cls-1" d="M117.35.92c.31,0,.47.18.47.54,0,.59,0,1.14-.06,1.66h1.1V.77a.5.5,0,1,1,1,0V3.12h.86a.39.39,0,0,1,.44.44c0,.32-.15.49-.44.49h-.86V7.23a6.51,6.51,0,0,0,.75-.5l.24,0c.31,0,.47.18.47.54a.65.65,0,0,1-.24.43,12.13,12.13,0,0,1-1.22.83v4a.5.5,0,1,1-1,0V9a11.12,11.12,0,0,1-1.65.7.79.79,0,0,1-.3.07c-.34,0-.51-.18-.51-.55a.53.53,0,0,1,.4-.54,11.14,11.14,0,0,0,1.83-.76l.23-.11V4.05h-1.2a14.48,14.48,0,0,1-.49,2.29.54.54,0,0,1-.6.44.32.32,0,0,1-.37-.37,1.46,1.46,0,0,1,0-.38,18.15,18.15,0,0,0,.66-4.66C116.92,1.07,117.06.92,117.35.92Zm5.41-.7c.33,0,.49.14.49.44a10.22,10.22,0,0,1-.18,1.46H128c.69,0,1,.29,1,.88a57.67,57.67,0,0,1-.34,7,3.94,3.94,0,0,1-.8,2.3,2.21,2.21,0,0,1-1.7.63,5.32,5.32,0,0,1-1.55-.34.53.53,0,0,1-.37-.55c0-.37.16-.55.48-.55a6,6,0,0,0,1.44.34,1.2,1.2,0,0,0,1.05-.47,4.46,4.46,0,0,0,.46-1.71A44.81,44.81,0,0,0,128,3.42c0-.25-.13-.37-.4-.37h-.43a5.61,5.61,0,0,1-.06.59,16,16,0,0,1-.89,3.63A11.78,11.78,0,0,1,124.81,10a14,14,0,0,1-2.27,2.48.66.66,0,0,1-.38.11.49.49,0,0,1-.36-.15.62.62,0,0,1-.15-.4.45.45,0,0,1,.17-.37A14.79,14.79,0,0,0,124,9.39a10,10,0,0,0,1.35-2.55,14.78,14.78,0,0,0,.89-3.79H125s0,.09,0,.15A15.53,15.53,0,0,1,124.13,6a13.33,13.33,0,0,1-1.22,2.31,7.5,7.5,0,0,1-1.35,1.61.66.66,0,0,1-.35.11.47.47,0,0,1-.34-.17.55.55,0,0,1-.15-.38.43.43,0,0,1,.18-.34,9.57,9.57,0,0,0,1.29-1.5,16.11,16.11,0,0,0,1.13-2.19,12.37,12.37,0,0,0,.74-2.42H122.9q0,.18-.09.33a7.16,7.16,0,0,1-1.16,2.33.67.67,0,0,1-.49.29q-.6,0-.6-.54a.53.53,0,0,1,.16-.29,6.27,6.27,0,0,0,1.12-2.09,10.2,10.2,0,0,0,.41-2.42C122.25.36,122.42.22,122.76.22Z"/><path class="cls-1" d="M139,6.64a2.12,2.12,0,0,1-.62,1.52,2.16,2.16,0,0,1-3,0,2.12,2.12,0,0,1-.62-1.52,2.14,2.14,0,1,1,4.27,0Zm-.74,0a1.4,1.4,0,1,0-2.38,1,1.4,1.4,0,0,0,2.38-1Z"/><path class="cls-1" d="M12.35,23.46a.44.44,0,0,1,.5.5c0,.36-.17.54-.5.54H10.76v3.56c0,.76-.4,1.15-1.2,1.15H6.4a1,1,0,0,1-1.15-1.15V24.5H2.9v6q0,.81.75.81h8.26a.43.43,0,0,1,.49.49c0,.37-.16.55-.49.55H3.45a1.43,1.43,0,0,1-1.6-1.64V24.5H.64c-.33,0-.49-.18-.49-.54a.44.44,0,0,1,.49-.5H1.85V21.17a.44.44,0,0,1,.5-.51c.37,0,.55.17.55.51v2.29H5.25V20.62c0-.34.16-.51.49-.51s.55.17.55.51v2.84H9.73V20.62q0-.51.48-.51c.37,0,.55.17.55.51v2.84Zm-6.06,1v3.22c0,.33.14.5.42.5H9.24a.44.44,0,0,0,.49-.5V24.5Z"/><path class="cls-1" d="M16.3,20.46h8.46c.59,0,.89.26.89.8v3.5a.79.79,0,0,1-.89.89H22.6a8.8,8.8,0,0,0,1.31.93,16.27,16.27,0,0,0,2.72,1.19.48.48,0,0,1,.26.4q0,.6-.54.6a1.1,1.1,0,0,1-.55-.17,12.93,12.93,0,0,1-3.12-1.7,7.83,7.83,0,0,1-1.3-1.25h-2.2a.62.62,0,0,1-.09.32,7.16,7.16,0,0,1-1.73,1.61,10.73,10.73,0,0,1-2.53,1.17.88.88,0,0,1-.28.06.48.48,0,0,1-.55-.55.54.54,0,0,1,.31-.43,10.26,10.26,0,0,0,2.6-1.17,5.48,5.48,0,0,0,1.15-1H16.3a.78.78,0,0,1-.89-.89v-3.5C15.41,20.72,15.7,20.46,16.3,20.46Zm1.8,6.94c.37,0,.55.16.55.48v1.27a3.63,3.63,0,0,1-.25,1.37,3.19,3.19,0,0,1-.89,1.23,5.84,5.84,0,0,1-1.71,1,.82.82,0,0,1-.27.1.53.53,0,0,1-.6-.6c0-.29.1-.48.31-.55a5.54,5.54,0,0,0,1.49-.79,2.52,2.52,0,0,0,.69-.85,2.56,2.56,0,0,0,.18-.93V27.88C17.6,27.56,17.76,27.4,18.1,27.4Zm-1.71-4.88h3.67V21.39H16.68c-.19,0-.29.09-.29.28Zm3.67,2.2V23.41H16.39v1c0,.23.1.34.29.34Zm1-3.33v1.13h3.61v-.85c0-.19-.09-.28-.26-.28Zm3.35,3.33c.17,0,.26-.11.26-.34v-1H21v1.31ZM23,27.4c.36,0,.55.16.55.48v4.43c0,.34-.19.51-.55.51s-.48-.17-.48-.51V27.88A.42.42,0,0,1,23,27.4Z"/><path class="cls-2" d="M40.69,24.87a.38.38,0,0,1,.42.43c0,.34-.14.5-.42.5H34v6.55a.5.5,0,1,1-1,0V31.3c-.54.13-1.22.24-2,.35s-1.55.18-2.55.26c-.28,0-.43-.2-.43-.54a.42.42,0,0,1,.36-.48l.78,0V25.8h-.83c-.28,0-.42-.16-.42-.5a.38.38,0,0,1,.42-.43ZM30.3,20.4h8.3c.62,0,.94.27.94.82v2c0,.59-.32.89-.94.89H30.3c-.63,0-.95-.3-.95-.89v-2C29.35,20.67,29.67,20.4,30.3,20.4Zm-.24,6.33H33V25.8h-2.9Zm0,1.87H33v-1h-2.9Zm0,2.18.41,0c.92-.08,1.69-.18,2.33-.28l.16,0v-1h-2.9Zm.29-8.92h8.19v-.31c0-.22-.09-.33-.26-.33H30.61c-.17,0-.26.11-.26.33Zm7.93,1.44c.17,0,.26-.13.26-.38v-.34H30.35v.34c0,.25.09.38.26.38ZM35,26.51h4.36a.58.58,0,0,1,.65.66,2.62,2.62,0,0,1-.35,1.11,8.5,8.5,0,0,1-1.44,2.07v0l.13.11a11.22,11.22,0,0,0,2.17,1.34.53.53,0,0,1,.28.39.51.51,0,0,1-.49.55,1.14,1.14,0,0,1-.55-.18,13.1,13.1,0,0,1-2.25-1.49,9.55,9.55,0,0,1-2.16,1.4,1.15,1.15,0,0,1-.45.16c-.33,0-.5-.18-.5-.55a.55.55,0,0,1,.37-.49,10.46,10.46,0,0,0,2-1.23,5.85,5.85,0,0,1-.85-1.11A6.94,6.94,0,0,1,35,27.4h0c-.33,0-.5-.14-.5-.44S34.62,26.51,35,26.51Zm1,.89a10.23,10.23,0,0,0,1,1.66,6.05,6.05,0,0,0,.54.61A10.25,10.25,0,0,0,38.72,28a1,1,0,0,0,.16-.44c0-.07,0-.11-.12-.11Z"/><path class="cls-2" d="M54.09,23.46c.32,0,.47.17.47.5s-.15.54-.47.54h-5a10.58,10.58,0,0,0,.24,1.07,8.39,8.39,0,0,0,1.17,2.31,12.2,12.2,0,0,0,2,2.15,17.27,17.27,0,0,0,2.26,1.73.7.7,0,0,1,.2.45.53.53,0,0,1-.54.55.94.94,0,0,1-.5-.23,18.62,18.62,0,0,1-2.68-2.19,14,14,0,0,1-1.65-2.06,9.58,9.58,0,0,1-1.07-2.15,10,10,0,0,1-1.06,2.09,13.67,13.67,0,0,1-1.7,2.11A16.78,16.78,0,0,1,43,32.58a.72.72,0,0,1-.4.18.61.61,0,0,1-.6-.66c0-.11.12-.24.34-.38a17.32,17.32,0,0,0,2.37-1.95,12.85,12.85,0,0,0,1.93-2.26,8.61,8.61,0,0,0,.94-2.05,8.71,8.71,0,0,0,.2-1h-5q-.48,0-.48-.54c0-.33.16-.5.48-.5h5V20.72a.49.49,0,0,1,.56-.55.48.48,0,0,1,.55.55v2.74Z"/><path class="cls-2" d="M59.21,20a.46.46,0,0,1,.34.14.46.46,0,0,1,.16.36.75.75,0,0,1-.11.37,8.86,8.86,0,0,1-.54,1,3.87,3.87,0,0,1-.24.37h1.83c.61,0,.91.28.91.86v8.45a.8.8,0,0,1-.91.91H57.3a.81.81,0,0,1-.92-.91V23.07c0-.58.31-.86.92-.86h.35a3.66,3.66,0,0,0,.41-.65,13.08,13.08,0,0,0,.73-1.39A.49.49,0,0,1,59.21,20Zm-1.86,6.61h3.24v-3a.34.34,0,0,0-.39-.39H57.75a.35.35,0,0,0-.4.39ZM60.2,31.5c.26,0,.39-.14.39-.44V27.5H57.35v3.56c0,.3.14.44.4.44ZM63.64,20c.34,0,.51.14.51.44A12.23,12.23,0,0,1,64,21.81h3.64c.65,0,1,.36,1,1.09q0,3.26-.2,6A6,6,0,0,1,67.61,32a2.41,2.41,0,0,1-1.93.78,6.39,6.39,0,0,1-2.53-.6.57.57,0,0,1-.37-.5c0-.4.18-.6.53-.6a6.41,6.41,0,0,0,2.3.66,1.34,1.34,0,0,0,1.3-.7,6.9,6.9,0,0,0,.53-2.61c.1-1.42.15-3.13.15-5.11,0-.37-.16-.55-.49-.55H63.83A6.74,6.74,0,0,1,63,24.65a.7.7,0,0,1-.49.26q-.6,0-.6-.54a.45.45,0,0,1,.16-.26,5.93,5.93,0,0,0,.77-1.71,11.18,11.18,0,0,0,.27-1.94C63.15,20.16,63.31,20,63.64,20Zm.45,4.74a.51.51,0,0,1,.37.22,22.07,22.07,0,0,1,1,3.34,2,2,0,0,1,0,.39c0,.33-.2.5-.6.5-.19,0-.34-.14-.44-.4a23.66,23.66,0,0,0-.76-3.34.65.65,0,0,1-.1-.31C63.6,24.89,63.77,24.76,64.09,24.76Z"/><path class="cls-2" d="M72.61,20.88h1.7c.63,0,.94.24.94.72a18,18,0,0,1-.94,1.63H75q1,0,1,.93v4.06q0,.93-1,.93H71.59q-1,0-1-.93V24.16a1.87,1.87,0,0,1,0-.35l-.15,0c-.33,0-.49-.14-.49-.42a.61.61,0,0,1,.1-.34,13.24,13.24,0,0,0,1.69-2.67.43.43,0,0,1,.4-.29c.33,0,.49.17.49.51A.48.48,0,0,1,72.61,20.88Zm-1.46,8.75a.43.43,0,0,1,.49.49,7.44,7.44,0,0,1-.34,2.3.54.54,0,0,1-.6.45.35.35,0,0,1-.39-.4,1.21,1.21,0,0,1,.07-.37A6.41,6.41,0,0,0,70.75,30,.35.35,0,0,1,71.15,29.63Zm.44-6.4h1.7Q74.1,22,74.1,22c0-.13-.11-.2-.34-.2h-1.6a17.78,17.78,0,0,1-1,1.53A1.25,1.25,0,0,1,71.59,23.23Zm0,2.48h1.24V24.12h-1c-.14,0-.2.09-.2.26Zm1.24,2.55V26.57H71.59V28c0,.18.06.26.2.26Zm-.38,1.37a.47.47,0,0,1,.45.29c.08.38.18,1,.29,1.86,0,.18,0,.31,0,.38,0,.25-.14.37-.42.37s-.43-.12-.44-.37c-.07-.79-.16-1.47-.26-2l0-.17C72.06,29.74,72.19,29.63,72.45,29.63Zm1.49-.05c.11,0,.21.07.31.23a9.58,9.58,0,0,1,.55,1.69,1.25,1.25,0,0,1,0,.32q0,.39-.54.39c-.14,0-.24-.11-.32-.34a9.91,9.91,0,0,0-.45-1.64.57.57,0,0,1-.09-.26C73.45,29.71,73.61,29.58,73.94,29.58Zm-.18-5.46v1.59H75V24.38c0-.17-.07-.26-.22-.26Zm1,4.14c.15,0,.22-.08.22-.26V26.57h-1.2v1.69Zm.66,1.21c.11,0,.22.07.34.23a3.64,3.64,0,0,1,.37.82.73.73,0,0,1,.07.31c0,.26-.18.39-.55.39-.15,0-.27-.11-.34-.32a4.14,4.14,0,0,0-.26-.78.48.48,0,0,1-.12-.26C74.91,29.6,75.07,29.47,75.4,29.47Zm6.74-8.36q.42,0,.42.45t-.42.48H80v9.23h2.36a.39.39,0,0,1,.45.44c0,.33-.15.49-.45.49h-6c-.3,0-.45-.16-.45-.49a.39.39,0,0,1,.45-.44H79V22H76.89c-.29,0-.44-.16-.44-.48a.39.39,0,0,1,.44-.45Z"/><path class="cls-2" d="M88.7,20.88H93c.51,0,.77.2.77.6a1.34,1.34,0,0,1-.41.74,5,5,0,0,1-1.09.9.87.87,0,0,1-.18.11h3c.62,0,.93.3.93.89v4.24a.83.83,0,0,1-.93.94H86.3a.84.84,0,0,1-1-.94V24.12a.83.83,0,0,1,.13-.52l-.73.35a.58.58,0,0,1-.31.11.43.43,0,0,1-.33-.15.66.66,0,0,1-.11-.35.47.47,0,0,1,.26-.39,10.64,10.64,0,0,0,1.59-.83A6,6,0,0,0,87,21.45a9.44,9.44,0,0,0,1.08-1.17.34.34,0,0,1,.31-.17.5.5,0,0,1,.32.13.52.52,0,0,1,.12.33A.5.5,0,0,1,88.7,20.88Zm-2.64,8.87c.33,0,.5.16.5.48a1.09,1.09,0,0,1-.21.6,10.6,10.6,0,0,1-1.2,1.82.83.83,0,0,1-.4.11c-.33,0-.49-.15-.49-.45a.73.73,0,0,1,.12-.38A9.9,9.9,0,0,0,85.7,30,.39.39,0,0,1,86.06,29.75Zm.24-6.52h4.15a7.93,7.93,0,0,0,1-.48,4.43,4.43,0,0,0,.81-.57c.18-.15.27-.25.27-.32s-.06-.09-.18-.09H88.1l-.14,0-.38.39a6.85,6.85,0,0,1-1.16.91l-.31.2Zm0,2.53h3.76v-1.6H86.73c-.25,0-.38.13-.38.4Zm3.76,2.61V26.69H86.35V28c0,.28.13.42.38.42Zm-1.52,1.49c.13,0,.25.09.37.26a8.68,8.68,0,0,1,.84,1.7,2,2,0,0,1,0,.39c0,.3-.2.44-.6.44-.18,0-.31-.13-.4-.38a7.46,7.46,0,0,0-.71-1.71.61.61,0,0,1-.09-.26C88.05,30,88.23,29.86,88.59,29.86Zm2.51-5.7v1.6h4v-1.2a.35.35,0,0,0-.4-.4Zm3.55,4.21a.37.37,0,0,0,.4-.42V26.69h-4v1.68Zm-2.79,1.49a.46.46,0,0,1,.38.26,8.1,8.1,0,0,1,.82,1.81,1.14,1.14,0,0,1,.07.38q0,.45-.6.45c-.17,0-.3-.13-.38-.4a10.36,10.36,0,0,0-.71-1.8.56.56,0,0,1-.13-.26C91.31,30,91.5,29.86,91.86,29.86Zm3-.05a.52.52,0,0,1,.43.26A9,9,0,0,1,96.69,32a2,2,0,0,1,0,.38c0,.31-.2.46-.6.46-.17,0-.31-.14-.4-.4a7.72,7.72,0,0,0-1.29-1.86.64.64,0,0,1-.11-.33Q94.34,29.81,94.88,29.81Z"/><path class="cls-2" d="M99.15,26.2H103c.56,0,.84.25.84.77v4.76q0,.81-.84.81H99.15q-.84,0-.84-.81V27C98.31,26.45,98.59,26.2,99.15,26.2Zm3.28,5.41c.25,0,.37-.15.37-.45V27.52c0-.26-.12-.39-.37-.39H99.7a.35.35,0,0,0-.4.39v3.64c0,.3.13.45.4.45Zm-1.7-11.15h7.43c.63,0,.94.28.94.85v3a.83.83,0,0,1-.94.94h-7.43a.83.83,0,0,1-.94-.94v-3C99.79,20.74,100.11,20.46,100.73,20.46Zm6.88,3.81c.33,0,.49-.18.49-.54V21.88a.43.43,0,0,0-.49-.49h-6.33a.43.43,0,0,0-.49.49v1.85c0,.36.16.54.49.54ZM106,26.2h3.82c.55,0,.83.25.83.77v4.76a.73.73,0,0,1-.83.81H106a.73.73,0,0,1-.83-.81V27C105.15,26.45,105.43,26.2,106,26.2Zm3.27,5.41c.27,0,.4-.15.4-.45V27.52a.35.35,0,0,0-.4-.39h-2.72a.34.34,0,0,0-.38.39v3.64c0,.3.13.45.38.45Z"/><path class="cls-2" d="M115.76,20.06c.33,0,.49.19.49.56s-.2.43-.6.49a5.13,5.13,0,0,1-.81.22v2.34h1a.43.43,0,0,1,.48.49q0,.51-.48.51h-1v.43l1.62,2.49a.84.84,0,0,1,.13.41c0,.29-.16.43-.49.43a.4.4,0,0,1-.37-.26l-.89-1.74v5.88c0,.34-.16.51-.49.51a.44.44,0,0,1-.5-.51V27.05c-.17.52-.32.93-.46,1.25a4.89,4.89,0,0,1-.53,1.22.49.49,0,0,1-.42.29c-.33,0-.49-.15-.49-.44A1,1,0,0,1,112,29a16.89,16.89,0,0,0,1.2-2.66,12,12,0,0,0,.46-1.64h-1.26c-.33,0-.49-.17-.49-.51a.43.43,0,0,1,.49-.49h1.41V21.52a8.85,8.85,0,0,1-1.21.14c-.4,0-.6-.18-.6-.55s.17-.45.51-.45a9.63,9.63,0,0,0,1.56-.14A6.69,6.69,0,0,0,115.76,20.06Zm8,.11c.3,0,.46.16.46.49s-.19.39-.55.45c-.69.13-1.57.24-2.64.34v.92h3.45a.38.38,0,0,1,.43.44.37.37,0,0,1-.43.42H121v.89h2.3c.55,0,.83.23.83.7V28c0,.51-.28.77-.83.77H121v1.09h3.08c.28,0,.42.15.42.44a.37.37,0,0,1-.42.42H121v.89h3.73a.39.39,0,0,1,.44.44c0,.28-.15.42-.44.42h-8.43a.37.37,0,0,1-.43-.42.38.38,0,0,1,.43-.44H120v-.89H117a.37.37,0,0,1-.42-.42c0-.29.14-.44.42-.44H120V28.77h-2.25A.68.68,0,0,1,117,28V24.82c0-.47.25-.7.77-.7H120v-.89h-3.39q-.45,0-.45-.42a.39.39,0,0,1,.45-.44H120v-.82c-1.24.11-2.12.16-2.64.16a.43.43,0,0,1-.49-.49c0-.26.14-.39.44-.39,1.12,0,2.15-.06,3.1-.16A23,23,0,0,0,123.74,20.17ZM118,26H120V24.93h-1.81c-.19,0-.28.11-.28.34ZM120,28V26.8H118v.77c0,.25.09.38.28.38Zm1-3V26h2.2v-.75c0-.23-.1-.34-.32-.34Zm1.88,3c.22,0,.32-.13.32-.38V26.8H121V28Z"/><path class="cls-1" d="M133.44,25.69a3,3,0,0,1-.82,1.81q-.39.48-.66.48c-.17,0-.26-.1-.26-.28a1.84,1.84,0,0,1,.29-.48,1.12,1.12,0,0,0,.3-.5c0-.08-.12-.21-.37-.38a.81.81,0,0,1-.11-1.29,1,1,0,0,1,.7-.26.89.89,0,0,1,.64.27A.85.85,0,0,1,133.44,25.69Z"/><path class="cls-1" d="M142,23.61v2.64c0,.32,0,.63,0,.92h2.48V25.91h-1.54c-.3,0-.45-.16-.45-.49a.39.39,0,0,1,.45-.44h1.54v-.71a.38.38,0,0,1,.43-.44c.33,0,.5.15.5.44V25h3.17v-.71a.38.38,0,0,1,.43-.44c.33,0,.5.15.5.44V25h2.2a.39.39,0,0,1,.44.44c0,.33-.15.49-.44.49h-2.2v1.26h2.64c.28,0,.42.15.42.44s-.14.49-.42.49h-4.83a6.33,6.33,0,0,0,1,1.56,2.2,2.2,0,0,0,.34.28,12.89,12.89,0,0,0,2-1.53.61.61,0,0,1,.39-.2.43.43,0,0,1,.49.49.57.57,0,0,1-.23.44,12.18,12.18,0,0,1-1.8,1.39,7.32,7.32,0,0,0,.78.41,11.46,11.46,0,0,0,2.06.66c.37.06.56.24.56.55s-.19.49-.56.49a12.31,12.31,0,0,1-2.57-.88A6.39,6.39,0,0,1,147.36,30a5.22,5.22,0,0,1-1.07-1.87H144.8v3.42a11.69,11.69,0,0,0,2-.47c.32,0,.47.18.47.55s-.2.42-.6.49a14.47,14.47,0,0,1-2.1.38,16,16,0,0,1-2.05.22q-.6,0-.6-.54c0-.3.16-.44.49-.44.49,0,1,0,1.36-.08V28.1h-1.92a15.29,15.29,0,0,1-.23,1.93,12.58,12.58,0,0,1-.58,2.32.49.49,0,0,1-.45.29c-.31,0-.47-.17-.49-.44a2.43,2.43,0,0,1,.15-.56l.22-.75q.15-.69.27-1.38a21.08,21.08,0,0,0,.25-3.27V21.42c0-.6.32-.91,1-.91h9q.75,0,.75.66v1.75q0,.69-.75.69Zm5.48-2.29h-5c-.33,0-.49.18-.49.54v.95h8.58c.18,0,.27-.12.27-.34V21.6c0-.19-.09-.28-.27-.28Zm1.08,5.85V25.91h-3.17v1.26Z"/><path class="cls-1" d="M155.46,25.05v7.6c0,.21-.16.32-.48.32s-.45-.11-.45-.32v-11a1.12,1.12,0,0,1,1.25-1.27h2.81c.7,0,1,.33,1,1V24a.92.92,0,0,1-1,1Zm2.48-3.79h-2a.39.39,0,0,0-.44.45v.61h3.19v-.77a.26.26,0,0,0-.29-.29Zm.71,1.86h-3.19v1h2.9c.19,0,.29-.11.29-.34Zm-.44,3.5h-1.15c-.29,0-.44-.14-.44-.42a.39.39,0,0,1,.44-.44h6.67a.38.38,0,0,1,.43.44.37.37,0,0,1-.43.42h-1.38v1.6h1.86a.39.39,0,0,1,.44.44c0,.28-.15.42-.44.42h-1.86v3.08c0,.28-.16.42-.5.42a.38.38,0,0,1-.43-.42V29.08h-2.27a4.77,4.77,0,0,1-.19,1.17,3.33,3.33,0,0,1-.69,1.24,4.85,4.85,0,0,1-1.3,1,.64.64,0,0,1-.22.08c-.33,0-.49-.17-.49-.53a.41.41,0,0,1,.26-.44,3.74,3.74,0,0,0,1.06-.85,2.42,2.42,0,0,0,.51-.88,5.52,5.52,0,0,0,.12-.8h-1.52a.37.37,0,0,1-.43-.42.38.38,0,0,1,.43-.44h1.52Zm3.21,1.6v-1.6h-2.28v1.6Zm1.33-7.89h2.35a1.14,1.14,0,0,1,1.3,1.28v9.91c0,.91-.43,1.36-1.3,1.36a9.3,9.3,0,0,1-1.71-.21.52.52,0,0,1-.38-.5c0-.32.14-.48.38-.49l.26,0a9.85,9.85,0,0,0,1.34.18c.29,0,.44-.26.44-.76V25H162.2a.92.92,0,0,1-1-1V21.32q0-1,1-1Zm-.6,2h3.28v-.61a.39.39,0,0,0-.44-.45h-2.53c-.21,0-.31.12-.31.34Zm3.28,1.75v-.95h-3.28v.55c0,.26.1.4.31.4Z"/><path class="cls-1" d="M180.69,24.87a.38.38,0,0,1,.42.43c0,.34-.14.5-.42.5H174v6.55a.5.5,0,1,1-1,0V31.3c-.54.13-1.22.24-2,.35s-1.55.18-2.55.26c-.28,0-.43-.2-.43-.54a.42.42,0,0,1,.36-.48l.78,0V25.8h-.83c-.28,0-.42-.16-.42-.5a.38.38,0,0,1,.42-.43ZM170.3,20.4h8.3c.62,0,.94.27.94.82v2c0,.59-.32.89-.94.89h-8.3c-.63,0-1-.3-1-.89v-2C169.35,20.67,169.67,20.4,170.3,20.4Zm-.24,6.33H173V25.8h-2.9Zm0,1.87H173v-1h-2.9Zm0,2.18.41,0c.92-.08,1.69-.18,2.33-.28a.62.62,0,0,1,.16,0v-1h-2.9Zm.29-8.92h8.19v-.31c0-.22-.09-.33-.26-.33h-7.67c-.17,0-.26.11-.26.33Zm7.93,1.44c.17,0,.26-.13.26-.38v-.34h-8.19v.34c0,.25.09.38.26.38ZM175,26.51h4.36a.58.58,0,0,1,.65.66,2.62,2.62,0,0,1-.35,1.11,8.5,8.5,0,0,1-1.44,2.07v0l.13.11a11.22,11.22,0,0,0,2.17,1.34.53.53,0,0,1,.28.39.51.51,0,0,1-.49.55,1.14,1.14,0,0,1-.55-.18,13.1,13.1,0,0,1-2.25-1.49,9.55,9.55,0,0,1-2.16,1.4,1.15,1.15,0,0,1-.45.16c-.33,0-.5-.18-.5-.55a.55.55,0,0,1,.37-.49,10.46,10.46,0,0,0,2-1.23,5.85,5.85,0,0,1-.85-1.11A6.94,6.94,0,0,1,175,27.4H175c-.33,0-.5-.14-.5-.44S174.62,26.51,175,26.51Zm1,.89a10.23,10.23,0,0,0,1,1.66,6.05,6.05,0,0,0,.54.61A10.25,10.25,0,0,0,178.72,28a1,1,0,0,0,.16-.44c0-.07,0-.11-.12-.11Z"/><path class="cls-1" d="M194.09,23.46c.32,0,.47.17.47.5s-.15.54-.47.54h-5a10.58,10.58,0,0,0,.24,1.07,8.39,8.39,0,0,0,1.17,2.31,12.2,12.2,0,0,0,2,2.15,17.27,17.27,0,0,0,2.26,1.73.7.7,0,0,1,.2.45.53.53,0,0,1-.54.55.94.94,0,0,1-.5-.23,18.62,18.62,0,0,1-2.68-2.19,14,14,0,0,1-1.65-2.06,9.58,9.58,0,0,1-1.07-2.15,10,10,0,0,1-1.06,2.09,13.67,13.67,0,0,1-1.7,2.11A16.78,16.78,0,0,1,183,32.58a.72.72,0,0,1-.4.18.61.61,0,0,1-.6-.66c0-.11.12-.24.34-.38a17.32,17.32,0,0,0,2.37-1.95,12.85,12.85,0,0,0,1.93-2.26,8.61,8.61,0,0,0,.94-2.05,8.71,8.71,0,0,0,.2-1h-5q-.48,0-.48-.54c0-.33.16-.5.48-.5h5V20.72a.49.49,0,0,1,.56-.55.48.48,0,0,1,.55.55v2.74Z"/><path class="cls-1" d="M208.35,20.77a.44.44,0,0,1,.5.49c0,.37-.17.55-.5.55h-.92v9.35c0,1.07-.58,1.6-1.75,1.6a18.2,18.2,0,0,1-3.5-.45.54.54,0,0,1-.44-.55c0-.34.17-.53.49-.54a3.33,3.33,0,0,1,.55.05,18.36,18.36,0,0,0,2.72.4c.56,0,.84-.32.84-1V21.81h-9.85c-.33,0-.49-.18-.49-.55a.43.43,0,0,1,.49-.49Zm-10.16,2.69h5.25c.61,0,.91.29.91.87v3.93c0,.63-.3.95-.91.95h-5.25c-.6,0-.89-.32-.89-.95V24.33A.78.78,0,0,1,198.19,23.46ZM203,28.17c.24,0,.36-.13.36-.4V24.82c0-.21-.12-.32-.36-.32h-4.27a.29.29,0,0,0-.33.32v2.95c0,.27.11.4.33.4Z"/><path class="cls-1" d="M212.19,20.22a.44.44,0,0,1,.49.5V30l.57-.3a23.87,23.87,0,0,0,2.81-1.91l.23-.06c.28,0,.42.16.42.49a.88.88,0,0,1-.31.6,12.93,12.93,0,0,1-2.13,1.47,22,22,0,0,1-3.09,1.45,1.23,1.23,0,0,1-.43.09c-.29,0-.44-.16-.44-.49a.45.45,0,0,1,.33-.48c.39-.14.74-.28,1.06-.41V20.72A.44.44,0,0,1,212.19,20.22Zm2.51.89a.79.79,0,0,1,.33.11c.43.42.82.83,1.16,1.23a12.76,12.76,0,0,1,1.51,2,.63.63,0,0,1,.16.31c0,.37-.16.55-.48.55a.77.77,0,0,1-.49-.15c-.56-.83-1-1.48-1.42-2s-.7-.81-1.11-1.23a.52.52,0,0,1-.16-.37A.44.44,0,0,1,214.7,21.11Zm4.64,8.16q-.22.38-.48.72a10.06,10.06,0,0,1-2.76,2.54,1.48,1.48,0,0,1-.47.23.48.48,0,0,1-.54-.55c0-.26.08-.42.26-.49a9.75,9.75,0,0,0,2.72-2.53,8.4,8.4,0,0,0,1.27-2.7,13.47,13.47,0,0,0,.34-3v-2.8a.43.43,0,0,1,.48-.49c.36,0,.55.16.55.49v2.8a15.8,15.8,0,0,1-.37,3.45,10.71,10.71,0,0,1-.51,1.41l2.73,3.46a.86.86,0,0,1,.24.53.45.45,0,0,1-.51.51c-.23,0-.5-.2-.82-.61Z"/><path class="cls-1" d="M235.7,20.33a.39.39,0,0,1,.44.44c0,.33-.14.49-.44.49h-8.54a.39.39,0,0,0-.43.45v.66h8.63a.39.39,0,0,1,.44.44c0,.28-.15.42-.44.42h-8.63v1h8.63a.45.45,0,0,1,0,.89h-8.63v1.09h9.78a.39.39,0,0,1,.44.43c0,.34-.15.5-.44.5h-6.18a7.64,7.64,0,0,0,1.31,2.08,2.6,2.6,0,0,0,.36.3,21.53,21.53,0,0,0,2.88-1.67.64.64,0,0,1,.37-.22c.33,0,.49.17.49.51a.6.6,0,0,1-.2.44,22.44,22.44,0,0,1-2.84,1.49,6.63,6.63,0,0,0,1.28.74,11.7,11.7,0,0,0,2.53.83c.36.06.55.25.55.55s-.19.49-.55.49a14.46,14.46,0,0,1-3.06-1,8,8,0,0,1-2.81-2.15,6.84,6.84,0,0,1-1.29-2.35h-2.56v4.06l.26,0a19.61,19.61,0,0,0,2.8-.77,1,1,0,0,1,.26-.05.41.41,0,0,1,.44.42.54.54,0,0,1-.32.49,14.37,14.37,0,0,1-2.65.84,29,29,0,0,1-3,.6.52.52,0,0,1-.51-.55.48.48,0,0,1,.45-.54c.49-.06.93-.12,1.3-.2V27.18h-1.47c-.28,0-.43-.16-.43-.5a.39.39,0,0,1,.43-.43h1.47V21.17q0-.84.81-.84Z"/><path class="cls-1" d="M244.71,27.4c.33,0,.5.16.5.48s-.17.55-.5.55h-2.23v2.29c1-.15,1.87-.32,2.62-.49a.63.63,0,0,1,.21-.05c.31,0,.48.16.5.43a.61.61,0,0,1-.32.55,22.28,22.28,0,0,1-3.18.67c-1,.18-2.22.34-3.67.48-.31,0-.47-.2-.49-.55a.54.54,0,0,1,.45-.6c1.19-.08,2.13-.17,2.85-.27V28.43h-2.36c-.32,0-.49-.19-.49-.55a.43.43,0,0,1,.49-.48h2.36V26c0-.3.16-.44.49-.44s.54.14.54.44V27.4Zm.44-6.89a.49.49,0,1,1,0,1h-3.24l-1.45,3a24,24,0,0,0,3.38-.49,11.56,11.56,0,0,0-.64-1,.55.55,0,0,1-.11-.29c0-.25.16-.37.47-.37a.42.42,0,0,1,.33.21,13,13,0,0,1,1.71,3.06,1.37,1.37,0,0,1,0,.34c0,.29-.18.44-.54.44-.17,0-.3-.12-.39-.34-.14-.41-.29-.78-.43-1.13a.51.51,0,0,1-.17,0q-2.84.57-5.41.84c-.33,0-.49-.22-.49-.66a.44.44,0,0,1,.49-.49l.59,0,1.47-3.05H239a.49.49,0,1,1,0-1Zm4.65-.29c.36,0,.55.17.55.5V31.45c0,.87-.52,1.31-1.54,1.31a7.07,7.07,0,0,1-2-.4.48.48,0,0,1-.38-.49c0-.34.16-.53.44-.54a1.19,1.19,0,0,1,.32.05,7.71,7.71,0,0,0,1.59.34c.36,0,.55-.2.55-.6V20.72A.44.44,0,0,1,249.8,20.22Zm-2.67.78a.42.42,0,0,1,.48.48v7.93q0,.51-.48.51c-.33,0-.49-.17-.49-.51V21.48A.43.43,0,0,1,247.13,21Z"/><path class="cls-1" d="M255.71,20.06a.44.44,0,0,1,.49.51V32.36a.5.5,0,1,1-1,0v-5h-1.36v1.75a8.61,8.61,0,0,1-.21,1.94,5.74,5.74,0,0,1-.5,1.38c-.13.2-.26.29-.4.29-.35,0-.53-.18-.55-.49a.53.53,0,0,1,.11-.29,5.3,5.3,0,0,0,.49-1.57,6,6,0,0,0,.13-1.26V27.4h-.44c-.3,0-.45-.16-.45-.49a.39.39,0,0,1,.45-.44h2.73V24.61h-1.68a.74.74,0,0,1-.83-.83v-3c0-.29.15-.43.45-.43a.38.38,0,0,1,.44.43v2.58a.27.27,0,0,0,.31.31h1.31V20.57A.45.45,0,0,1,255.71,20.06Zm8.92,6.85a.49.49,0,0,1,0,1h-.83v3.73c0,.8-.45,1.21-1.35,1.21a10,10,0,0,1-2.41-.4.49.49,0,0,1-.4-.49c0-.35.17-.53.45-.55a2,2,0,0,1,.37,0,10.23,10.23,0,0,0,1.88.34c.28,0,.42-.16.42-.49V27.88h-5.62a.49.49,0,1,1,0-1h5.62V25.36a.43.43,0,0,1,.49-.49c.37,0,.55.17.55.49v1.55ZM260,21.86a1.43,1.43,0,0,1,.31.06,17.31,17.31,0,0,1,1.87.83l0,0c.29-.28.55-.55.79-.82a1.1,1.1,0,0,0,.26-.52s0-.06-.11-.06h-3.36c-.11.16-.21.28-.29.38a5.06,5.06,0,0,1-.79.81,9.57,9.57,0,0,1-1.14.79.7.7,0,0,1-.36.11.44.44,0,0,1-.33-.16.7.7,0,0,1-.13-.38c0-.18.12-.33.35-.45a7,7,0,0,0,1-.72,5.1,5.1,0,0,0,.74-.73c.18-.24.41-.57.7-1a.34.34,0,0,1,.31-.17.49.49,0,0,1,.34.13.37.37,0,0,1,.15.3.53.53,0,0,1,0,.23h3.49c.4,0,.6.18.6.55a2.58,2.58,0,0,1-.48,1.36A7.84,7.84,0,0,1,262,24.33,13.47,13.47,0,0,1,258.6,26a5,5,0,0,1-1.35.4.49.49,0,0,1-.55-.55c0-.24.13-.37.39-.4a12.91,12.91,0,0,0,2.58-.94,12.06,12.06,0,0,0-1.22-.57.39.39,0,0,1-.27-.4c0-.26.14-.38.42-.38l.28.05a14.69,14.69,0,0,1,1.64.82l0,0c.34-.22.65-.45.94-.67a15.29,15.29,0,0,0-1.69-.72.36.36,0,0,1-.26-.37C259.55,22,259.69,21.86,260,21.86Zm-1.43,6.46a.45.45,0,0,1,.29.16,11,11,0,0,1,1.36,1.44.62.62,0,0,1,.1.31c0,.33-.18.49-.55.49a.36.36,0,0,1-.26-.11q-.64-.78-1.38-1.53a.7.7,0,0,1-.11-.27C258,28.48,258.18,28.32,258.55,28.32Z"/><path class="cls-1" d="M266.64,26.47h1.86a.62.62,0,0,1,.71.7v2.58a1.41,1.41,0,0,0,.69,1.19,3.78,3.78,0,0,0,2.2.56h6.25c.33,0,.5.16.5.48a.44.44,0,0,1-.5.49h-5.84a6.45,6.45,0,0,1-2-.28,4,4,0,0,1-1.47-.85l-.18-.12c-.06,0-.12.05-.19.15a4.86,4.86,0,0,1-1.36,1.14,1.18,1.18,0,0,1-.54.25c-.35,0-.53-.18-.55-.49a.45.45,0,0,1,.34-.45,5.21,5.21,0,0,0,1.22-.71,1.8,1.8,0,0,0,.42-1.36V27.66c0-.14-.08-.2-.23-.2h-1.37a.5.5,0,0,1,0-1Zm.29-3.4a.73.73,0,0,1,.37.11,12.32,12.32,0,0,1,1.43,1,.55.55,0,0,1,.22.45.44.44,0,0,1-.5.49.71.71,0,0,1-.39-.11,14.61,14.61,0,0,0-1.36-1c-.21-.15-.32-.3-.32-.45C266.38,23.23,266.57,23.07,266.93,23.07Zm.92-2.85a.93.93,0,0,1,.39.11c.5.37.95.73,1.36,1.1a.59.59,0,0,1,.21.43c0,.34-.15.51-.47.51a.62.62,0,0,1-.39-.11,16.81,16.81,0,0,0-1.31-1.09c-.23-.15-.34-.3-.34-.45C267.3,20.39,267.48,20.22,267.85,20.22Zm9.69,0a.51.51,0,0,1,.55.5.51.51,0,0,1-.44.5,19.81,19.81,0,0,1-5.1.44c-.25,0-.37.14-.37.42v2.19h5.91c.32,0,.47.16.47.49s-.15.51-.47.51H276.5v5.29c0,.34-.18.51-.55.51a.45.45,0,0,1-.5-.51V25.27h-3.3a16.54,16.54,0,0,1-.34,3.17,9.86,9.86,0,0,1-.72,2.08.75.75,0,0,1-.5.2.49.49,0,0,1-.54-.49,1.13,1.13,0,0,1,.11-.33,6.59,6.59,0,0,0,.68-2,14.09,14.09,0,0,0,.36-3.39V21.6a.77.77,0,0,1,.86-.88A22.12,22.12,0,0,0,277.54,20.22Z"/><path class="cls-1" d="M287,26.1q0,3.63-1.49,4.86a3,3,0,0,1-1.95.56,2.91,2.91,0,0,1-1.77-.54,2,2,0,0,1-1-1.49c0-.36.16-.54.49-.54s.35.18.51.54a1.81,1.81,0,0,0,1.84,1.11,2,2,0,0,0,2-1.37,7.66,7.66,0,0,0,.41-2.57,3.92,3.92,0,0,1-2.51,1.19,2.78,2.78,0,0,1-2.16-.87,3.32,3.32,0,0,1-.78-2.26,4,4,0,0,1,.78-2.61,3,3,0,0,1,2.46-1,2.93,2.93,0,0,1,2.36,1.14Q287,23.24,287,26.1Zm-1-.76a4.33,4.33,0,0,0-.6-2.57,2.16,2.16,0,0,0-3.36,0,3.23,3.23,0,0,0-.5,1.91,2.47,2.47,0,0,0,.48,1.57,1.77,1.77,0,0,0,1.47.66A3.43,3.43,0,0,0,286,25.34Z"/><path class="cls-1" d="M291.84,21.81a.53.53,0,0,1,.34.11.42.42,0,0,1,.15.34,1.57,1.57,0,0,1-.05.32,8.43,8.43,0,0,1-.7,1.84,8,8,0,0,1-1,1.53A5.54,5.54,0,0,1,289.43,27a.59.59,0,0,1-.31.09.49.49,0,0,1-.36-.15.61.61,0,0,1-.13-.39.5.5,0,0,1,.15-.37,6.76,6.76,0,0,0,1-1,7.69,7.69,0,0,0,.92-1.4,9,9,0,0,0,.64-1.68A.44.44,0,0,1,291.84,21.81Zm2.42,3.12a.76.76,0,0,1,.45.15.42.42,0,0,1,.21.34.88.88,0,0,1-.06.29A35.15,35.15,0,0,1,292,31.2q3.83-.14,7-.56c-.62-1-1.27-1.93-1.93-2.87a.75.75,0,0,1-.11-.26.49.49,0,0,1,.55-.55.58.58,0,0,1,.34.15A35,35,0,0,1,301,32a.84.84,0,0,1,.11.33c0,.34-.19.51-.55.51a.53.53,0,0,1-.31-.11c-.22-.38-.44-.74-.66-1.1-3.54.4-6.91.69-10.13.86-.37,0-.55-.22-.55-.65s.18-.53.55-.55l1.3,0a.31.31,0,0,0,0-.08,42.3,42.3,0,0,0,3-5.95A.41.41,0,0,1,294.26,24.93Zm-1-4.53h3.87a1.14,1.14,0,0,1,1.15.82,10,10,0,0,0,1.09,2.38,8.77,8.77,0,0,0,1,1.27,12.67,12.67,0,0,0,1.08.95.66.66,0,0,1,.15.43.53.53,0,0,1-.54.55.76.76,0,0,1-.44-.18,9.71,9.71,0,0,1-1.2-1.06,9,9,0,0,1-1.23-1.63,10.07,10.07,0,0,1-.89-2.16c-.07-.27-.21-.4-.44-.4h-3.61a.49.49,0,1,1,0-1Z"/><path class="cls-1" d="M306.22,20.57h7.11c.59,0,.89.27.89.8v3.86a.78.78,0,0,1-.89.86H309.7a10.82,10.82,0,0,0,1.13,2.77,7.49,7.49,0,0,0,1.94,2,7.39,7.39,0,0,0,2.11,1c.33.07.49.24.49.49a.53.53,0,0,1-.6.6,9.67,9.67,0,0,1-2.6-1.27,8.23,8.23,0,0,1-2.37-2.64,10.74,10.74,0,0,1-1.12-3h-3.61a14.81,14.81,0,0,1-.43,3.92,9.77,9.77,0,0,1-.86,2.42.5.5,0,0,1-.46.34.49.49,0,0,1-.54-.49,1.84,1.84,0,0,1,.23-.59,8.21,8.21,0,0,0,.31-.77,15,15,0,0,0,.43-1.45,16.31,16.31,0,0,0,.34-3.44V21.48c0-.61.33-.91,1-.91Zm-1.15,4.59h7.84c.21,0,.31-.13.31-.4V21.82c0-.22-.1-.32-.31-.32h-7.38c-.31,0-.46.14-.46.43Z"/><path class="cls-1" d="M324.28,29.7h-2.74a3.33,3.33,0,0,1-.48,1.39,2.62,2.62,0,0,1-1,.91,5.48,5.48,0,0,1-1.44.5,6.19,6.19,0,0,1-1.37.15c-.36,0-.55-.16-.55-.49s.17-.48.51-.49a6,6,0,0,0,1.94-.33,2.26,2.26,0,0,0,1-.68,2,2,0,0,0,.42-1h-1.48a.65.65,0,0,1-.75-.73v-3.5c0-.47.25-.71.75-.71h7.71c.56,0,.83.24.83.71V29c0,.49-.27.73-.83.73h-1.63v1.75c0,.24.71.37,2.12.37.71,0,1.08-.14,1.11-.43l.1-.78a.41.41,0,0,1,.43-.43.48.48,0,0,1,.51.49c0,1-.17,1.61-.52,1.75a3.19,3.19,0,0,1-1.63.29,7.77,7.77,0,0,1-2.44-.25c-.4-.15-.61-.38-.61-.7Zm-1.2-9.59c.36,0,.55.17.55.51v.55h4.59a1,1,0,0,1,.85.37,1.33,1.33,0,0,1,.24.87,6.33,6.33,0,0,1-.12,1.15.56.56,0,0,1-.6.4c-.32,0-.48-.17-.48-.5a7.22,7.22,0,0,0,.17-1c0-.33-.16-.5-.46-.5h-9.44a.39.39,0,0,0-.45.44v1.15a.5.5,0,1,1-1,0V22.15a.87.87,0,0,1,1-1h4.64v-.55A.45.45,0,0,1,323.08,20.11ZM327.17,23a.34.34,0,0,1,.39.38c0,.25-.13.37-.39.37h-1.7V24c0,.28-.16.42-.5.42a.38.38,0,0,1-.43-.42v-.24h-3V24c0,.28-.16.42-.49.42s-.44-.14-.44-.42v-.24h-1.8c-.27,0-.4-.12-.4-.37s.13-.38.4-.38h1.8V22.7a.39.39,0,0,1,.44-.44c.33,0,.49.15.49.44V23h3V22.7a.39.39,0,0,1,.43-.44c.34,0,.5.15.5.44V23Zm-7.86,3.23h7.43v-.29c0-.25-.1-.38-.31-.38h-6.85c-.18,0-.27.13-.27.38Zm0,1.37h7.43v-.66h-7.43Zm7.12,1.35c.21,0,.31-.12.31-.37v-.29h-7.43v.29c0,.25.09.37.27.37Zm.19,1a.48.48,0,0,1,.29.15,6.16,6.16,0,0,1,.65.76.5.5,0,0,1,.11.29c0,.29-.17.44-.5.44a.33.33,0,0,1-.21-.11c-.22-.28-.47-.56-.72-.84a.55.55,0,0,1-.11-.26C326.13,30.06,326.29,29.92,326.62,29.92Z"/><path class="cls-1" d="M339.21,26.44a2.13,2.13,0,1,1-4.26,0,2.08,2.08,0,0,1,.61-1.51,2.17,2.17,0,0,1,3,0A2.08,2.08,0,0,1,339.21,26.44Zm-.74,0a1.31,1.31,0,0,0-.41-1,1.38,1.38,0,0,0-2,0,1.39,1.39,0,0,0,0,2,1.38,1.38,0,0,0,2,0A1.31,1.31,0,0,0,338.47,26.44Z"/><path class="cls-1" d="M1.75,43.58v2.19a24.26,24.26,0,0,1-.27,4A15.84,15.84,0,0,1,1,52.17a.47.47,0,0,1-.44.28c-.32,0-.49-.16-.51-.44a3.21,3.21,0,0,1,.14-.58c.06-.24.12-.5.19-.8.09-.46.18-.94.25-1.43a28.48,28.48,0,0,0,.19-3.43V41.28c0-.61.33-.91,1-.91h9.63c.51,0,.77.22.77.65v1.85c0,.47-.26.71-.77.71Zm6-2.41H2.24c-.33,0-.49.19-.49.55v1.05H11c.17,0,.26-.11.26-.34v-1c0-.19-.09-.29-.26-.29Zm3.72,2.7q.42,0,.42.54c0,.23-.18.38-.54.44q-1.55.21-4.23.36H7v1.23l4.75-.23a.38.38,0,0,1,.44.44c0,.31-.14.47-.44.47L7,47.38v1.23l5.25-.26a.37.37,0,0,1,.43.42c0,.33-.14.5-.43.5L7,49.55v1q0,.59.36.72a7.51,7.51,0,0,0,1.93.17,21,21,0,0,0,2.11-.07.75.75,0,0,0,.49-.19c.13-.09.19-.41.19-1a.45.45,0,0,1,.48-.49c.31,0,.47.21.49.59a3.72,3.72,0,0,1-.11.94,1.15,1.15,0,0,1-.69.91,8.26,8.26,0,0,1-2.64.24,9.23,9.23,0,0,1-2.89-.28A1.46,1.46,0,0,1,6,50.76V49.61l-3.22.16c-.29,0-.43-.17-.43-.5s.14-.44.43-.44L6,48.67V47.42l-3,.15c-.3,0-.45-.16-.45-.49s.15-.42.45-.42l3-.17V45.27c-1.37.08-2.35.11-3,.11-.36,0-.54-.16-.54-.47s.15-.44.45-.44c1.48,0,2.86-.07,4.13-.15C8.59,44.23,10.06,44.08,11.43,43.87Z"/><path class="cls-1" d="M16.39,39.82a.83.83,0,0,1,.43.11.42.42,0,0,1,.17.33.92.92,0,0,1,0,.26,13.59,13.59,0,0,1-1.36,2.4l-.05.06a6.49,6.49,0,0,1,.87.8c.46-.76.89-1.55,1.3-2.37a.49.49,0,0,1,.43-.24.44.44,0,0,1,.32.13.45.45,0,0,1,.13.31.55.55,0,0,1-.11.34A28.26,28.26,0,0,1,17,44.59,15.4,15.4,0,0,1,15.9,46a.41.41,0,0,0,.16,0c.78,0,1.45-.12,2-.2a5.54,5.54,0,0,0-.31-.81.62.62,0,0,1-.11-.29c0-.24.16-.37.49-.37a.45.45,0,0,1,.34.22,11.53,11.53,0,0,1,.66,2,.74.74,0,0,1,.06.28c0,.25-.17.37-.5.37a.38.38,0,0,1-.34-.27c0-.11-.05-.2-.07-.29a9.45,9.45,0,0,1-1.13.19v5.46a.49.49,0,1,1-1,0V46.89c-.56.07-1.2.13-1.93.19a.42.42,0,0,1-.42-.48.43.43,0,0,1,.37-.49l.53,0a16.6,16.6,0,0,0,1.16-1.52l-.05,0c-.39-.39-.72-.69-1-.91A8.81,8.81,0,0,0,14.1,43a.61.61,0,0,1-.15-.37c0-.3.14-.45.43-.45a.76.76,0,0,1,.32.11l.13.1A15.83,15.83,0,0,0,16,40.08.37.37,0,0,1,16.39,39.82Zm-1.3,7.86c.33,0,.5.13.5.38a1.68,1.68,0,0,1-.06.4,25.78,25.78,0,0,1-.6,3.16.48.48,0,0,1-.44.29c-.33,0-.49-.15-.49-.44a.63.63,0,0,1,.1-.34A23.65,23.65,0,0,0,14.64,48,.42.42,0,0,1,15.09,47.68Zm3.11-.22a.47.47,0,0,1,.45.29c.12.5.24,1.32.38,2.46a3.26,3.26,0,0,1,.06.49c0,.25-.15.37-.44.37s-.43-.12-.45-.37A24.53,24.53,0,0,0,17.86,48l-.05-.22C17.81,47.58,17.94,47.46,18.2,47.46Zm2.29-7h5.1q.81,0,.81.75V51.54a.71.71,0,0,1-.81.8h-5.1a.71.71,0,0,1-.8-.8V41.17C19.69,40.67,20,40.42,20.49,40.42Zm.17,5.2h1.87V41.35H21a.33.33,0,0,0-.38.37Zm1.87,5.79V46.55H20.66V51c0,.3.13.45.38.45Zm1-10.06v4.27h1.93v-3.9a.33.33,0,0,0-.38-.37Zm1.55,10.06c.25,0,.38-.15.38-.45V46.55H23.5v4.86Z"/><path class="cls-1" d="M40.56,40.42a.5.5,0,1,1,0,1H34.79l-.9,1.91h5.47q1,0,1,.93v7.31c0,.67-.46,1-1.36,1a5.61,5.61,0,0,1-1.43-.23.45.45,0,0,1-.32-.42c0-.41.13-.61.37-.61a2.14,2.14,0,0,1,.32,0,3.55,3.55,0,0,0,1,.18c.28,0,.43-.2.43-.6V44.78c0-.35-.2-.53-.6-.53H36.59v7.6c0,.32-.17.48-.5.48a.43.43,0,0,1-.49-.48v-7.6H33.14v7.6a.43.43,0,0,1-.49.48q-.51,0-.51-.48v-7.6h-1.9a.47.47,0,0,0-.54.53v7.29c0,.33-.19.49-.55.49s-.51-.16-.51-.49V44.25c0-.62.35-.93,1.06-.93h3.1l.9-1.91H28.44a.5.5,0,0,1,0-1Z"/><path class="cls-1" d="M43.7,39.82a.63.63,0,0,1,.36.1.34.34,0,0,1,.18.28.91.91,0,0,1-.05.26c-.06.31-.12.61-.18.89h2.9a.49.49,0,1,1,0,1H45.65v2.75c0,.17,0,.34,0,.49H47.2a.44.44,0,0,1,.49.49.43.43,0,0,1-.49.48H45.57c0,.17,0,.32-.07.47a12.56,12.56,0,0,0,.79,1.28,15.35,15.35,0,0,0,1.22,1.53.69.69,0,0,1,.23.55.53.53,0,0,1-.45.45.9.9,0,0,1-.55-.29A9.8,9.8,0,0,1,46,49.44a9.62,9.62,0,0,1-.72-1.29c-.1.37-.22.73-.34,1.08a9.39,9.39,0,0,1-1.73,2.94.5.5,0,0,1-.39.28c-.35,0-.53-.18-.55-.49a.48.48,0,0,1,.12-.29A10,10,0,0,0,44.28,48a11.31,11.31,0,0,0,.28-1.48H42.64a.43.43,0,0,1-.49-.48.43.43,0,0,1,.49-.49h2a4.29,4.29,0,0,0,0-.49V42.32H43.8c-.17.8-.36,1.54-.56,2.2a.47.47,0,0,1-.38.21c-.36,0-.55-.13-.55-.37a.51.51,0,0,1,.07-.29c.29-1,.6-2.4.92-4A.4.4,0,0,1,43.7,39.82Zm9.73,7.86a.68.68,0,0,1,.41.14.37.37,0,0,1,.19.3.71.71,0,0,1-.07.29,20.47,20.47,0,0,1-1.25,2.84h1.64c.33,0,.5.16.5.48a.44.44,0,0,1-.5.49H47.89a.49.49,0,1,1,0-1h3.69a.15.15,0,0,1,0-.07A24.1,24.1,0,0,0,53.05,48,.36.36,0,0,1,53.43,47.68Zm.77-7.11a.44.44,0,0,1,.49.49.44.44,0,0,1-.49.51h-6a.44.44,0,0,1-.49-.51.44.44,0,0,1,.49-.49ZM49,42.81h4.27c.63,0,.94.3.94.89v2.57a.83.83,0,0,1-.94.93H49a.82.82,0,0,1-.93-.93V43.7C48.11,43.11,48.42,42.81,49,42.81Zm0,5a.57.57,0,0,1,.4.2A13,13,0,0,1,50.15,50a1.4,1.4,0,0,1,.05.34c0,.29-.18.44-.56.44-.16,0-.29-.12-.38-.34a8.72,8.72,0,0,0-.6-1.85.7.7,0,0,1-.11-.34C48.55,48,48.71,47.86,49,47.86Zm3.84-1.59c.25,0,.37-.15.37-.45V44.11a.33.33,0,0,0-.37-.37H49.49c-.26,0-.39.13-.39.37v1.71q0,.45.39.45Z"/><path class="cls-1" d="M63.44,45.49a3,3,0,0,1-.82,1.81q-.39.48-.66.48c-.17,0-.26-.09-.26-.28A1.84,1.84,0,0,1,62,47a1.12,1.12,0,0,0,.3-.5c0-.08-.12-.21-.37-.38a.81.81,0,0,1-.11-1.29,1,1,0,0,1,.7-.26.89.89,0,0,1,.64.27A.85.85,0,0,1,63.44,45.49Z"/><path class="cls-2" d="M72.51,39.76a.7.7,0,0,1,.37.1.42.42,0,0,1,.18.34,1.05,1.05,0,0,1,0,.26L72.8,41h8.79a.39.39,0,0,1,.44.44c0,.33-.14.49-.44.49h-.88v2.4h1.64a.39.39,0,0,1,.45.43c0,.34-.15.5-.45.5H80.71v2.52H82a.38.38,0,0,1,.43.43c0,.33-.15.5-.43.5H70.82c-.28,0-.42-.17-.42-.5a.37.37,0,0,1,.42-.43h1V45.23h-1.2c-.3,0-.44-.16-.44-.5a.38.38,0,0,1,.44-.43h1.2V42.35a6.33,6.33,0,0,1-.64.63.8.8,0,0,1-.4.23c-.36,0-.55-.16-.55-.49a.41.41,0,0,1,.13-.29,4.94,4.94,0,0,0,1-1,5.26,5.26,0,0,0,.81-1.35C72.25,39.87,72.35,39.76,72.51,39.76Zm-.16,9.36a.7.7,0,0,1,.41.11.38.38,0,0,1,.19.32.91.91,0,0,1,0,.26,14,14,0,0,1-1.37,2.57.48.48,0,0,1-.38.24c-.37,0-.55-.14-.55-.4a.69.69,0,0,1,0-.26A18.46,18.46,0,0,0,72,49.38.36.36,0,0,1,72.35,49.12Zm2.12-4.82V41.9H72.79v2.4Zm-1.68,3.45h1.68V45.23H72.79Zm1.86,1.57a.53.53,0,0,1,.49.29,15.51,15.51,0,0,1,.48,2.13,3.22,3.22,0,0,1,.07.43c0,.3-.17.45-.49.45a.42.42,0,0,1-.46-.45,13.11,13.11,0,0,0-.49-2.26l0-.19C74.2,49.45,74.35,49.32,74.65,49.32Zm2.46-5V41.9H75.4v2.4ZM75.4,47.75h1.71V45.23H75.4Zm2.2,1.37a.51.51,0,0,1,.49.26,18.35,18.35,0,0,1,.48,2.33,2.31,2.31,0,0,1,.07.46c0,.3-.16.45-.49.45a.45.45,0,0,1-.51-.45,15.7,15.7,0,0,0-.45-2.45l0-.22C77.15,49.24,77.3,49.12,77.6,49.12Zm2.18-4.82V41.9H78v2.4ZM78,47.75h1.74V45.23H78Zm2.56,1.37a.45.45,0,0,1,.34.2,11.14,11.14,0,0,1,1.41,2.41,1.89,1.89,0,0,1,.05.38q0,.45-.6.45c-.17,0-.29-.13-.37-.39a9.7,9.7,0,0,0-1.22-2.4.65.65,0,0,1-.11-.27C80.1,49.24,80.27,49.12,80.6,49.12Z"/><path class="cls-2" d="M96,40.68a.34.34,0,0,1,.39.38q0,.45-.39.45H90.89v.7H95.2a.35.35,0,0,1,.39.4c0,.24-.13.37-.39.37H90.89v.83h5.67c.26,0,.39.12.39.37s-.13.44-.39.44H84.38c-.25,0-.38-.15-.38-.44a.33.33,0,0,1,.38-.37h5.47V43H85.46a.33.33,0,0,1-.37-.37c0-.27.13-.4.37-.4h4.39v-.7H84.93c-.26,0-.38-.15-.38-.45a.33.33,0,0,1,.38-.38h4.92v-.55c0-.32.17-.47.49-.47s.55.15.55.47v.55Zm-9.28,4.65H94.6a.68.68,0,0,1,.76.78,16.21,16.21,0,0,1-.22,1.69h1.32c.26,0,.39.13.39.37a.35.35,0,0,1-.39.4H95c-.08.55-.18,1.07-.3,1.59h1.42c.33,0,.49.14.49.42s-.16.44-.49.44H94.53a3.34,3.34,0,0,1-.66,1.6,1.6,1.6,0,0,1-1,.26,9.19,9.19,0,0,1-2.06-.21.54.54,0,0,1-.44-.56.43.43,0,0,1,.49-.49,11.47,11.47,0,0,0,1.9.29.52.52,0,0,0,.51-.43c0-.14.1-.3.15-.46H90.06c-.1.41-.19.79-.26,1.15s-.27.45-.51.45-.53-.17-.55-.45a1,1,0,0,1,.06-.26c.08-.32.16-.62.23-.89H85.46c-.47,0-.71-.19-.71-.55a.78.78,0,0,1,.07-.33c.23-.65.4-1.17.51-1.57h-.84a.35.35,0,0,1-.39-.4c0-.24.13-.37.39-.37h1a16.26,16.26,0,0,0,.26-1.64A.83.83,0,0,1,86.68,45.33Zm2.56,4.83c.07-.31.13-.6.17-.85s.09-.49.14-.74H86.32q-.15.69-.36,1.41c0,.12.07.18.23.18ZM86.5,47.8h3.2c.09-.53.17-1.06.23-1.58H87.16a.38.38,0,0,0-.43.38C86.66,47,86.58,47.4,86.5,47.8Zm7.21,2.36q.14-.54.24-1.14,0-.24.09-.45H90.56c-.09.55-.19,1.07-.3,1.59Zm-2.78-3.94c-.06.54-.14,1.07-.24,1.58h3.47q.12-.7.18-1.32c0-.18-.12-.26-.35-.26Z"/><path class="cls-2" d="M105.44,45.49a3,3,0,0,1-.82,1.81q-.39.48-.66.48c-.17,0-.26-.09-.26-.28A1.84,1.84,0,0,1,104,47a1.12,1.12,0,0,0,.3-.5c0-.08-.12-.21-.37-.38a.81.81,0,0,1-.11-1.29,1,1,0,0,1,.7-.26.89.89,0,0,1,.64.27A.85.85,0,0,1,105.44,45.49Z"/><path class="cls-2" d="M114.51,39.76a.7.7,0,0,1,.37.1.42.42,0,0,1,.18.34,1.05,1.05,0,0,1,0,.26l-.21.51h8.79a.39.39,0,0,1,.44.44c0,.33-.14.49-.44.49h-.88v2.4h1.64a.39.39,0,0,1,.45.43c0,.34-.15.5-.45.5h-1.64v2.52H124a.38.38,0,0,1,.43.43c0,.33-.15.5-.43.5H112.82c-.28,0-.42-.17-.42-.5a.37.37,0,0,1,.42-.43h1V45.23h-1.2c-.3,0-.44-.16-.44-.5a.38.38,0,0,1,.44-.43h1.2V42.35a6.33,6.33,0,0,1-.64.63.8.8,0,0,1-.4.23c-.36,0-.55-.16-.55-.49a.41.41,0,0,1,.13-.29,4.94,4.94,0,0,0,1-1,5.26,5.26,0,0,0,.81-1.35C114.25,39.87,114.35,39.76,114.51,39.76Zm-.16,9.36a.7.7,0,0,1,.41.11.38.38,0,0,1,.19.32.91.91,0,0,1,0,.26,14,14,0,0,1-1.37,2.57.48.48,0,0,1-.38.24c-.37,0-.55-.14-.55-.4a.69.69,0,0,1,0-.26A18.46,18.46,0,0,0,114,49.38.36.36,0,0,1,114.35,49.12Zm2.12-4.82V41.9h-1.68v2.4Zm-1.68,3.45h1.68V45.23h-1.68Zm1.86,1.57a.53.53,0,0,1,.49.29,15.51,15.51,0,0,1,.48,2.13,3.22,3.22,0,0,1,.07.43c0,.3-.17.45-.49.45a.42.42,0,0,1-.46-.45,13.11,13.11,0,0,0-.49-2.26l0-.19C116.2,49.45,116.35,49.32,116.65,49.32Zm2.46-5V41.9H117.4v2.4Zm-1.71,3.45h1.71V45.23H117.4Zm2.2,1.37a.51.51,0,0,1,.49.26,18.35,18.35,0,0,1,.48,2.33,2.31,2.31,0,0,1,.07.46c0,.3-.16.45-.49.45a.45.45,0,0,1-.51-.45,15.7,15.7,0,0,0-.45-2.45l0-.22C119.15,49.24,119.3,49.12,119.6,49.12Zm2.18-4.82V41.9H120v2.4ZM120,47.75h1.74V45.23H120Zm2.56,1.37a.45.45,0,0,1,.34.2,11.14,11.14,0,0,1,1.41,2.41,1.89,1.89,0,0,1,.05.38q0,.45-.6.45c-.17,0-.29-.13-.37-.39a9.7,9.7,0,0,0-1.22-2.4.65.65,0,0,1-.11-.27C122.1,49.24,122.27,49.12,122.6,49.12Z"/><path class="cls-2" d="M131.56,41.41c.3,0,.44.14.44.43s-.14.5-.44.5h-2v1H131c.56,0,.84.26.84.77V47.2c0,.44-.26.66-.77.66a1.14,1.14,0,0,1-.6-.11.36.36,0,0,1-.23-.33c0-.25.09-.39.28-.4l.22.06c.14,0,.21-.06.21-.16v-2.4c0-.23-.07-.34-.21-.34h-1.1v2.93l2,2.74a.93.93,0,0,1,.18.47.39.39,0,0,1-.45.44.56.56,0,0,1-.5-.32l-1.25-2v3.81c0,.3-.17.45-.5.45s-.43-.15-.43-.45V48.39a26.83,26.83,0,0,1-1.81,3.2c-.15.21-.26.32-.33.32-.4,0-.6-.17-.6-.5a.46.46,0,0,1,.15-.28,23.68,23.68,0,0,0,1.71-2.72,20.92,20.92,0,0,0,.88-2V44.18h-1.14c-.15,0-.23.11-.23.34v3a.39.39,0,0,1-.44.45q-.42,0-.42-.45V44.13c0-.51.28-.77.85-.77h1.38v-1h-2.14c-.3,0-.45-.17-.45-.5s.15-.43.45-.43h2.14v-1c0-.3.14-.45.43-.45s.5.15.5.45v1Zm6.64,0a.38.38,0,0,1,.43.43c0,.33-.14.5-.43.5h-2.3v1.08h1.53c.55,0,.82.25.82.76v3c0,.45-.27.67-.82.67a1.13,1.13,0,0,1-.62-.12.34.34,0,0,1-.21-.31c0-.26.09-.39.28-.4l.22.05c.17,0,.26-.05.26-.16v-2.3c0-.21-.07-.31-.22-.31H135.9v2.53a20.21,20.21,0,0,0,1.27,2,17.34,17.34,0,0,0,1.68,2.08.7.7,0,0,1,.15.49.59.59,0,0,1-.49.49.61.61,0,0,1-.37-.18A14.37,14.37,0,0,1,137,50.18a17.18,17.18,0,0,1-1.06-1.69v3.73c0,.3-.17.45-.5.45s-.43-.15-.43-.45v-4a22.13,22.13,0,0,1-2.37,3.36c-.18.2-.32.31-.41.31-.41,0-.61-.17-.61-.5,0-.08.06-.17.18-.28a22.5,22.5,0,0,0,2.1-2.67,16.05,16.05,0,0,0,1.11-2V44.25h-1.22c-.13,0-.2.1-.2.31v2.9a.4.4,0,0,1-.45.45c-.3,0-.44-.15-.44-.45V44.18c0-.51.3-.76.89-.76H135V42.34h-2c-.3,0-.45-.17-.45-.5s.15-.43.45-.43h2v-1c0-.3.14-.45.43-.45s.5.15.5.45v1Z"/><path class="cls-2" d="M147.7,41a.5.5,0,1,1,0,1h-2.9v1.41h2c.61,0,.91.29.91.88v2.62c0,.66-.36,1-1.09,1a1.79,1.79,0,0,1-.81-.23.45.45,0,0,1-.34-.42c0-.37.13-.55.38-.55a.41.41,0,0,1,.17,0,1.28,1.28,0,0,0,.49.17c.15,0,.23-.19.23-.55V44.78c0-.24-.09-.37-.29-.37H144.8v2.45l2.64,3.35a1.09,1.09,0,0,1,.2.55c0,.28-.16.42-.49.42a.69.69,0,0,1-.63-.35l-1.72-2.67v4a.5.5,0,1,1-1,0V48.28a10.53,10.53,0,0,1-.77,1.18,11.85,11.85,0,0,1-1.63,1.76c-.38.38-.64.56-.81.56-.37,0-.56-.16-.56-.48a.67.67,0,0,1,.27-.54,18.46,18.46,0,0,0,2.6-2.64,8.14,8.14,0,0,0,.9-1.38V44.41h-1.68c-.19,0-.28.13-.28.37v2.64a.5.5,0,0,1-1,0V44.3c0-.59.33-.88,1-.88h2V42h-3.17a.5.5,0,0,1,0-1h3.17v-.71a.5.5,0,0,1,1,0V41Zm4.21-1.1c.36,0,.55.16.55.5V51.25c0,.87-.53,1.31-1.58,1.31a7.69,7.69,0,0,1-2.09-.39.5.5,0,0,1-.38-.5c0-.34.16-.53.44-.54a1.43,1.43,0,0,1,.34,0,8,8,0,0,0,1.62.34.54.54,0,0,0,.62-.6V40.42C151.43,40.08,151.59,39.92,151.91,39.92Zm-2.56,1.36a.43.43,0,0,1,.49.49v7.4a.43.43,0,0,1-.49.49c-.34,0-.5-.16-.5-.49v-7.4A.44.44,0,0,1,149.35,41.28Z"/><path class="cls-1" d="M162.59,46.25a2.12,2.12,0,0,1-.62,1.51,2.09,2.09,0,0,1-1.52.62,2.07,2.07,0,0,1-1.51-.62,2.12,2.12,0,0,1-.62-1.51,2.09,2.09,0,0,1,.62-1.52,2.07,2.07,0,0,1,1.51-.62,2.12,2.12,0,0,1,2.14,2.14Zm-.74,0a1.35,1.35,0,0,0-.41-1,1.37,1.37,0,0,0-1-.41,1.4,1.4,0,0,0,0,2.79,1.37,1.37,0,0,0,1-.41A1.34,1.34,0,0,0,161.85,46.25Z"/><path class="cls-1" d="M.86,62.46c.33,0,.49.19.49.55A27.39,27.39,0,0,1,1,67.66a.54.54,0,0,1-.6.42A.33.33,0,0,1,0,67.71a1.56,1.56,0,0,1,0-.39,26.88,26.88,0,0,0,.4-4.42C.45,62.61.59,62.46.86,62.46Zm1.75-2.75c.33,0,.49.17.49.51V71.91c0,.34-.16.51-.49.51s-.48-.17-.48-.51V60.22Q2.13,59.71,2.61,59.71Zm3.73.46a.44.44,0,0,1,.5.49c0,.49,0,1-.07,1.41H8.41v-1.9c0-.34.16-.51.49-.51s.55.17.55.51v1.9h2.46a.44.44,0,0,1,.49.5.43.43,0,0,1-.49.49H9.45v3.27h2.14a.5.5,0,1,1,0,1H9.45V71.1h2.84q.51,0,.51.48c0,.33-.17.49-.51.49H5.09a.44.44,0,0,1-.5-.49c0-.32.17-.48.5-.48H8.41V67.32H5.89a.5.5,0,0,1,0-1H8.41V63.06H6.6A6.05,6.05,0,0,1,6,64.81a.49.49,0,0,1-.39.21.52.52,0,0,1-.38-.12.74.74,0,0,1,0,.12c0,.3-.17.45-.5.45A.44.44,0,0,1,4.2,65a17.62,17.62,0,0,0-.45-2.56l0-.23c0-.25.14-.37.43-.37a.55.55,0,0,1,.51.26,18.57,18.57,0,0,1,.44,2.19.93.93,0,0,1,0-.1,6.31,6.31,0,0,0,.59-1.87,12.09,12.09,0,0,0,.12-1.74C5.85,60.31,6,60.17,6.34,60.17Z"/><path class="cls-1" d="M14.81,62.46a.44.44,0,0,1,.49.5A33.9,33.9,0,0,1,15,67.71a.55.55,0,0,1-.6.44.34.34,0,0,1-.38-.38,1.75,1.75,0,0,1,0-.4,28.07,28.07,0,0,0,.4-4.54A.34.34,0,0,1,14.81,62.46Zm1.44-2.69q.48,0,.48.45V71.91q0,.45-.48.45a.4.4,0,0,1-.45-.45V60.22A.4.4,0,0,1,16.25,59.77ZM17.5,62a.49.49,0,0,1,.44.26,18.62,18.62,0,0,1,.33,2.15c0,.21,0,.35,0,.43,0,.25-.15.37-.43.37s-.42-.12-.43-.37a22.26,22.26,0,0,0-.32-2.31l0-.2C17.1,62.08,17.24,62,17.5,62ZM26,60.32a.45.45,0,0,1,0,.89H23V62h2.52c.29,0,.43.15.43.45a.38.38,0,0,1-.43.44H23v.92h3.39c.3,0,.45.14.45.44s-.15.49-.45.49H18.91c-.28,0-.43-.17-.43-.49a.38.38,0,0,1,.43-.44H22V62.9H19.63a.38.38,0,0,1-.43-.44c0-.3.14-.45.43-.45H22v-.8H19.29a.45.45,0,0,1,0-.89H22V60a.43.43,0,0,1,.48-.49A.44.44,0,0,1,23,60v.32Zm-6,5.36H25.2c.59,0,.89.27.89.83V71.1q0,1.32-1.44,1.32a5.07,5.07,0,0,1-1.41-.24.45.45,0,0,1-.34-.42c0-.36.13-.55.4-.55a1.86,1.86,0,0,1,.28,0,4,4,0,0,0,1,.17.49.49,0,0,0,.56-.55v-.81h-5v2a.44.44,0,0,1-.5.49c-.31,0-.47-.16-.47-.49V66.51C19.09,66,19.41,65.68,20.06,65.68Zm0,1.75h5V67c0-.26-.09-.39-.29-.39H20.34c-.19,0-.28.13-.28.39Zm0,1.75h5v-.87h-5Z"/><path class="cls-1" d="M28.7,63.67a.58.58,0,0,1,.34.15,11.32,11.32,0,0,1,1.52,1.43.64.64,0,0,1,.12.32c0,.33-.18.5-.55.5a.55.55,0,0,1-.34-.11,18,18,0,0,0-1.53-1.49.75.75,0,0,1-.11-.26A.48.48,0,0,1,28.7,63.67Zm1.54,3.5c.33,0,.49.18.49.54a14.1,14.1,0,0,1-.49,2.16A11.84,11.84,0,0,1,29.3,72a.53.53,0,0,1-.49.35c-.37,0-.55-.17-.55-.5a.54.54,0,0,1,.12-.23,9.93,9.93,0,0,0,.85-1.88,14.32,14.32,0,0,0,.56-2.22A.41.41,0,0,1,30.24,67.17Zm-.6-7.06a.54.54,0,0,1,.32.15,10.33,10.33,0,0,1,1.43,1.31.86.86,0,0,1,.11.35c0,.32-.18.49-.55.49a.68.68,0,0,1-.34-.11c-.46-.46-.95-.9-1.46-1.33a.88.88,0,0,1-.11-.31C29,60.29,29.24,60.11,29.64,60.11Zm3.16,6.51h6.25c.61,0,.91.29.91.86V71.1h.39c.33,0,.5.16.5.48a.44.44,0,0,1-.5.49h-9a.49.49,0,1,1,0-1h.55V67.48A.76.76,0,0,1,32.8,66.62Zm.38-6.36h5.36c.55,0,.82.26.82.77v3.84c0,.5-.27.75-.82.75H33.18a.67.67,0,0,1-.76-.75V61A.68.68,0,0,1,33.18,60.26ZM33,71.1H34.4V67.6H33.25c-.19,0-.29.11-.29.32Zm5.13-6.34a.3.3,0,0,0,.34-.34v-3c0-.21-.11-.31-.34-.31H33.63c-.19,0-.28.1-.28.31v3c0,.23.09.34.28.34Zm-2.16-3.45a.55.55,0,0,1,.31.1.44.44,0,0,1,.17.34.78.78,0,0,1-.06.26c-.07.15-.14.29-.22.43l.11,0a6.59,6.59,0,0,1,.77.44,4.54,4.54,0,0,1,1,.71.55.55,0,0,1,.11.26c0,.3-.12.45-.37.45a.73.73,0,0,1-.43-.11,10.74,10.74,0,0,0-.93-.64,6.8,6.8,0,0,0-.73-.41h0a.6.6,0,0,0-.11.12,7,7,0,0,1-1.07.94.59.59,0,0,1-.34.21c-.32,0-.48-.15-.48-.44a.36.36,0,0,1,.11-.26,6.64,6.64,0,0,0,1-.92,4.64,4.64,0,0,0,.82-1.23A.31.31,0,0,1,35.93,61.31Zm-.55,9.79h1.26V67.6H35.38Zm2.23,0h1.33V67.92a.3.3,0,0,0-.34-.32h-1Z"/><path class="cls-1" d="M47.85,59.77c.33,0,.49.2.49.6s-.22.44-.65.49-1,.2-1.64.3v2.22h2a.49.49,0,0,1,0,1h-2v.4l2.17,3.77a1.34,1.34,0,0,1,.18.59c0,.33-.18.49-.55.49a.53.53,0,0,1-.5-.39l-1.3-2.79V72c0,.33-.17.49-.51.49a.43.43,0,0,1-.49-.49V66.66a.15.15,0,0,1,0,.07,15.72,15.72,0,0,1-1,2,6.7,6.7,0,0,1-.91,1.46.68.68,0,0,1-.45.17c-.37,0-.55-.16-.55-.48a.63.63,0,0,1,.16-.38,18.69,18.69,0,0,0,1.93-3.12,12.46,12.46,0,0,0,.78-2H42.86a.49.49,0,0,1,0-1h2.19V61.27c-.88.09-1.49.14-1.85.14s-.6-.18-.6-.55a.44.44,0,0,1,.49-.49,20.15,20.15,0,0,0,2.3-.14A14,14,0,0,0,47.85,59.77Zm2.19.66h3.21a.87.87,0,0,1,1,1v9.41a.88.88,0,0,1-1,1H50a.88.88,0,0,1-1-1V61.41A.87.87,0,0,1,50,60.43Zm2.84,10.39c.25,0,.37-.13.37-.39V61.81c0-.27-.12-.4-.37-.4H50.41c-.25,0-.37.13-.37.4v8.62c0,.26.12.39.37.39Z"/><path class="cls-1" d="M63.44,65.29a3,3,0,0,1-.82,1.81q-.39.48-.66.48c-.17,0-.26-.09-.26-.28a1.84,1.84,0,0,1,.29-.48,1.12,1.12,0,0,0,.3-.5c0-.08-.12-.21-.37-.38a.81.81,0,0,1-.11-1.29,1,1,0,0,1,.7-.26.89.89,0,0,1,.64.27A.85.85,0,0,1,63.44,65.29Z"/><path class="cls-1" d="M70.64,61.92h1c0-.5,0-1.06,0-1.66a.49.49,0,1,1,1,0c0,.6,0,1.16,0,1.66h1.91c.52,0,.77.3.77.91a13,13,0,0,1-.33,3A11.32,11.32,0,0,1,73.81,69a.19.19,0,0,1,0,.09l.56.51c.58.47.88.85.88,1.12a.54.54,0,0,1-.13.36.56.56,0,0,1-.33.15.86.86,0,0,1-.62-.28c-.35-.32-.67-.63-1-.93a10,10,0,0,1-2,2.12.78.78,0,0,1-.39.13.49.49,0,0,1-.55-.55.56.56,0,0,1,.16-.34,10.72,10.72,0,0,0,2.08-2.07c-.56-.53-1.07-1-1.53-1.39a1.15,1.15,0,0,1-.27-1.33,10.25,10.25,0,0,0,.76-2.44,12.78,12.78,0,0,0,.19-1.29h-.9a.49.49,0,0,1,0-1Zm1.85,1q-.08.68-.18,1.2a21.06,21.06,0,0,1-.75,2.53,1.08,1.08,0,0,0-.1.37c0,.08.11.21.32.41l1.2,1a9.74,9.74,0,0,0,1-2.86,12.67,12.67,0,0,0,.26-2.37c0-.21-.07-.31-.2-.31Zm9.76,2.83a.49.49,0,0,1,0,1H80.8a8.58,8.58,0,0,1,.4,2.59,3.35,3.35,0,0,1-.43,1.61,2,2,0,0,1-1,1,2.43,2.43,0,0,1-1.29.33,5.07,5.07,0,0,1-2.3-.67c-.32-.11-.48-.29-.49-.53s.17-.59.49-.62a9,9,0,0,0,2.23.73,1.37,1.37,0,0,0,.73-.21,1.57,1.57,0,0,0,.67-.68,2,2,0,0,0,.24-1A7.9,7.9,0,0,0,79.8,67a1.58,1.58,0,0,0-.09-.26H76a.49.49,0,0,1,0-1H79.2l-.31-.41a5,5,0,0,0-1.19-1q-.21-.15-.21-.3c0-.34.22-.52.6-.55a.55.55,0,0,1,.29.11l.15-.11a6,6,0,0,0,1-.65,5.89,5.89,0,0,0,.89-.82c.19-.22.29-.37.29-.44s-.05-.11-.16-.11H76.18a.39.39,0,0,1-.44-.44c0-.28.15-.42.44-.42h5.25c.47,0,.71.18.71.53a1.32,1.32,0,0,1-.26.69,7.68,7.68,0,0,1-1.17,1.31,8.93,8.93,0,0,1-1.5,1.09,5.67,5.67,0,0,1,.52.58,4.87,4.87,0,0,1,.67,1Z"/><path class="cls-2" d="M96.2,61.41a.44.44,0,0,1,.49.51.44.44,0,0,1-.49.49H91.63A21.12,21.12,0,0,0,92,64.66a14.65,14.65,0,0,0,1,3.26,11.05,11.05,0,0,0,.58-1.08,15.76,15.76,0,0,0,.89-2.74.41.41,0,0,1,.43-.28.61.61,0,0,1,.37.12.43.43,0,0,1,.18.33,1.18,1.18,0,0,1-.07.38,14.44,14.44,0,0,1-.91,2.86,11,11,0,0,1-.89,1.57,8.94,8.94,0,0,0,1.1,1.52c.4.41.67.61.82.61s.21-.09.28-.28A9.11,9.11,0,0,0,96,69a.47.47,0,0,1,.5-.44.52.52,0,0,1,.54.55,11.81,11.81,0,0,1-.13,1.55,2.85,2.85,0,0,1-.52,1.46.92.92,0,0,1-.7.29,2.3,2.3,0,0,1-1.31-.63A9.06,9.06,0,0,1,92.85,70a12.11,12.11,0,0,1-.89.86,10,10,0,0,1-2.11,1.31,1.27,1.27,0,0,1-.39.12.53.53,0,0,1-.39-.16.44.44,0,0,1-.16-.33.45.45,0,0,1,.29-.49,8.54,8.54,0,0,0,2-1.27,11.62,11.62,0,0,0,1.11-1.11,14.77,14.77,0,0,1-1-2.61,27.28,27.28,0,0,1-.75-3.76s0-.08,0-.11H86.45a.48.48,0,0,0-.55.55v1.36h3a.87.87,0,0,1,1,1,20.49,20.49,0,0,1-.2,3.2,1.6,1.6,0,0,1-.55,1,2,2,0,0,1-1.15.27,4.37,4.37,0,0,1-1.38-.31.5.5,0,0,1-.37-.51c0-.36.17-.55.49-.55a4.87,4.87,0,0,0,1.26.35.75.75,0,0,0,.55-.19,1.45,1.45,0,0,0,.23-.65,13.31,13.31,0,0,0,.14-2.35.28.28,0,0,0-.32-.31H85.9v.76a14.69,14.69,0,0,1-.38,3.63,8.57,8.57,0,0,1-.77,2.21.46.46,0,0,1-.44.34.49.49,0,0,1-.53-.49,1.67,1.67,0,0,1,.19-.53c.09-.22.19-.46.28-.71.14-.45.26-.89.37-1.33a14.87,14.87,0,0,0,.31-3.12V62.41c0-.67.32-1,1-1h4.58c0-.57-.08-1-.08-1.35s.18-.5.55-.5a.47.47,0,0,1,.49.5c0,.48.06.93.09,1.35h2.52c-.11-.15-.21-.26-.29-.36l-.37-.34a.66.66,0,0,1-.15-.39.39.39,0,0,1,.44-.44A.61.61,0,0,1,94,60c.16.14.3.27.44.38A7.29,7.29,0,0,1,95,61a.58.58,0,0,1,.15.28v.1Z"/><path class="cls-2" d="M98.86,60.06h4c.63,0,.94.28.94.86v1.54h.38a.38.38,0,0,1,.43.44.37.37,0,0,1-.43.42h-.38v1.59c0,.59-.31.89-.94.89h-2.07a5.23,5.23,0,0,1-.68,1.57l0,.07h3.08c.61,0,.91.29.91.88v3c0,.57-.3.86-.91.86h-2.9c-.63,0-1-.29-1-.86V68.34a4.28,4.28,0,0,1-.63.55.69.69,0,0,1-.23.12.43.43,0,0,1-.49-.49.44.44,0,0,1,.26-.44,4.75,4.75,0,0,0,1.24-1.39,4,4,0,0,0,.4-.89h-1c-.32,0-.48-.15-.48-.44s.16-.45.48-.45h1.26a8.21,8.21,0,0,0,.12-1.41v-.18h-1.8c-.29,0-.44-.14-.44-.42a.39.39,0,0,1,.44-.44h1.8V60.92H98.86c-.32,0-.48-.15-.48-.44S98.54,60.06,98.86,60.06Zm4,11.21c.19,0,.29-.12.29-.34v-2.3c0-.21-.1-.32-.29-.32h-2.24c-.17,0-.26.11-.26.32v2.3c0,.22.09.34.26.34Zm-1.75-7.95v.18a10.45,10.45,0,0,1-.09,1.41h1.49c.28,0,.42-.15.42-.44V63.32Zm0-2.4v1.54h1.82V61.37q0-.45-.42-.45Zm8.38-1.26a.43.43,0,0,1,.33.15.49.49,0,0,1,.15.36.72.72,0,0,1-.11.38,9.75,9.75,0,0,1-.67,1.12,3.13,3.13,0,0,1-.28.4H110a.38.38,0,0,1,.43.44c0,.32-.15.49-.43.49h-2v2.18h1.69a.4.4,0,0,1,.46.44c0,.33-.16.49-.46.49h-1.69v2.46h2.35a.39.39,0,0,1,.45.43c0,.34-.15.5-.45.5h-2.35v2.4a.5.5,0,1,1-1,0V69.5h-2.22c-.3,0-.44-.16-.44-.5a.38.38,0,0,1,.44-.43h2.22V66.11h-1.62c-.29,0-.44-.16-.44-.49a.39.39,0,0,1,.44-.44h1.62V63h-1.75c-.28,0-.42-.17-.42-.49s.14-.44.42-.44h2.45c.17-.22.33-.45.47-.67.29-.49.56-1,.82-1.52A.48.48,0,0,1,109.48,59.66Zm-3.88.05a.42.42,0,0,1,.26.17,8.41,8.41,0,0,1,1,1.27.72.72,0,0,1,.11.31c0,.34-.18.51-.55.51a.42.42,0,0,1-.26-.11c-.33-.47-.69-.93-1-1.38a.75.75,0,0,1-.11-.26C105,59.88,105.23,59.71,105.6,59.71Z"/><path class="cls-1" d="M120.59,66a2.12,2.12,0,0,1-.62,1.52,2.09,2.09,0,0,1-1.52.62,2.07,2.07,0,0,1-1.51-.62,2.12,2.12,0,0,1-.62-1.52,2.14,2.14,0,1,1,4.27,0Zm-.74,0a1.34,1.34,0,0,0-.41-1,1.37,1.37,0,0,0-1-.41,1.4,1.4,0,0,0,0,2.79,1.37,1.37,0,0,0,1-.41A1.35,1.35,0,0,0,119.85,66Z"/><path class="cls-1" d="M2.9,79.73a.54.54,0,0,1,.35.14.45.45,0,0,1,.2.36,1.08,1.08,0,0,1-.06.28A14,14,0,0,1,3,81.87h3v-2a.44.44,0,0,1,.49-.5c.36,0,.55.17.55.5v2h4.7a.44.44,0,0,1,.49.5.43.43,0,0,1-.49.49H7.1v3.27h4.21a.5.5,0,0,1,0,1H7.1v3.61h5.19c.34,0,.51.16.51.49s-.17.49-.51.49H.75a.49.49,0,0,1,0-1H6.06V87.12H2a.5.5,0,1,1,0-1h4.1V82.86H2.68c-.06.14-.12.26-.16.37a12.41,12.41,0,0,1-1.11,2,.74.74,0,0,1-.37.21c-.37,0-.55-.17-.55-.5a.4.4,0,0,1,.11-.27,11.89,11.89,0,0,0,1.07-2,14.4,14.4,0,0,0,.83-2.68A.39.39,0,0,1,2.9,79.73Z"/><path class="cls-1" d="M14.7,83.23a.54.54,0,0,1,.34.18,11.15,11.15,0,0,1,1.52,1.41.73.73,0,0,1,.12.34c0,.33-.18.49-.55.49a.56.56,0,0,1-.34-.12,16.33,16.33,0,0,0-1.53-1.46.82.82,0,0,1-.11-.29A.49.49,0,0,1,14.7,83.23ZM16.39,87q.51,0,.51.54a11.32,11.32,0,0,1-.51,2.16,10.51,10.51,0,0,1-.93,2.09.55.55,0,0,1-.48.35c-.36,0-.54-.17-.54-.5a.48.48,0,0,1,.11-.23,11.19,11.19,0,0,0,.84-1.88A15.48,15.48,0,0,0,16,87.28.39.39,0,0,1,16.39,87Zm-.64-7.4a.47.47,0,0,1,.31.16,10,10,0,0,1,1.44,1.33.74.74,0,0,1,.1.31c0,.33-.19.5-.55.5a.7.7,0,0,1-.32-.1c-.47-.46-1-.89-1.49-1.31a1.29,1.29,0,0,1-.09-.34C15.15,79.75,15.35,79.57,15.75,79.57ZM26,79.62c.33,0,.5.19.5.55s-.21.44-.61.49c-.83.07-1.92.12-3.26.17V83h4a.45.45,0,0,1,.5.51.44.44,0,0,1-.5.49h-4v2.5h2.66a.84.84,0,0,1,.95.94v3.5a.83.83,0,0,1-.95.92H19.14a.82.82,0,0,1-.94-.92V87.4a.83.83,0,0,1,.94-.94H21.6V84H17.88a.43.43,0,0,1-.49-.49c0-.34.16-.51.49-.51H21.6V80.85c-1.43.07-2.43.1-3,.1-.4,0-.6-.18-.6-.55s.17-.43.49-.43q2,0,3.63-.09C23.48,79.83,24.77,79.74,26,79.62ZM24.71,90.85a.44.44,0,0,0,.49-.49V88a.43.43,0,0,0-.49-.49h-5a.43.43,0,0,0-.49.49v2.41a.43.43,0,0,0,.49.49Z"/><path class="cls-1" d="M31.1,79.36a.49.49,0,0,1,.55.55V81H33.4a.43.43,0,0,1,.49.48.44.44,0,0,1-.49.5H30.79c0,.73-.06,1.4-.1,2h1.9c.65,0,1,.29,1,.88a42.2,42.2,0,0,1-.23,5.1,3.06,3.06,0,0,1-.56,1.68,1.6,1.6,0,0,1-1.23.45,3.85,3.85,0,0,1-1.09-.23.48.48,0,0,1-.39-.49c0-.36.17-.54.5-.54a4.46,4.46,0,0,0,1,.22.67.67,0,0,0,.62-.33,3.74,3.74,0,0,0,.27-1.17,37.16,37.16,0,0,0,.16-4.3.3.3,0,0,0-.34-.34H30.61c-.06.87-.14,1.64-.23,2.33a24,24,0,0,1-1.08,4.56.72.72,0,0,1-.49.29c-.4,0-.6-.18-.6-.55a.48.48,0,0,1,.17-.28A21.74,21.74,0,0,0,29.45,87a46.71,46.71,0,0,0,.4-5h-1c-.32,0-.48-.17-.48-.5a.42.42,0,0,1,.48-.48h1.7V79.91A.48.48,0,0,1,31.1,79.36Zm5.75,0a.53.53,0,0,1,.47.29A15.36,15.36,0,0,0,39,81.92a9,9,0,0,0,1.54,1.38.5.5,0,0,1,.24.43.53.53,0,0,1-.55.54.59.59,0,0,1-.34-.11,11.33,11.33,0,0,1-1.25-1.09A16.47,16.47,0,0,1,37,80.88c0-.07-.09-.11-.12-.11s-.07,0-.11.13a12.72,12.72,0,0,1-2.34,3.26.69.69,0,0,1-.4.11.54.54,0,0,1-.54-.6c0-.1.07-.2.23-.31A11.31,11.31,0,0,0,35,81.93a14,14,0,0,0,1.38-2.26C36.5,79.43,36.65,79.31,36.85,79.31Zm-1.81,9a.74.74,0,0,1,.34.11A50.74,50.74,0,0,1,39.91,91a.59.59,0,0,1,.29.49c0,.32-.17.48-.5.48a.94.94,0,0,1-.45-.11,45.16,45.16,0,0,0-4.41-2.61c-.23-.14-.35-.27-.35-.4C34.49,88.48,34.68,88.32,35,88.32Zm.45-3.94a.76.76,0,0,1,.37.12,38.61,38.61,0,0,1,3.73,2,.6.6,0,0,1,.21.45.39.39,0,0,1-.44.44.55.55,0,0,1-.37-.12,39.35,39.35,0,0,0-3.73-2,.53.53,0,0,1-.26-.4C35,84.53,35.16,84.38,35.49,84.38Z"/><path class="cls-1" d="M54.09,82.86c.32,0,.47.17.47.5s-.15.54-.47.54h-5A10.58,10.58,0,0,0,49.31,85a8.39,8.39,0,0,0,1.17,2.31,12.2,12.2,0,0,0,2,2.15,17.27,17.27,0,0,0,2.26,1.73.7.7,0,0,1,.2.45.53.53,0,0,1-.54.55.94.94,0,0,1-.5-.23,18.62,18.62,0,0,1-2.68-2.19,14,14,0,0,1-1.65-2.06,9.58,9.58,0,0,1-1.07-2.15,10,10,0,0,1-1.06,2.09,13.67,13.67,0,0,1-1.7,2.11A16.78,16.78,0,0,1,43,92a.72.72,0,0,1-.4.18.6.6,0,0,1-.6-.66c0-.11.12-.24.34-.38a17.32,17.32,0,0,0,2.37-2,12.85,12.85,0,0,0,1.93-2.26,8.61,8.61,0,0,0,.94-2,8.26,8.26,0,0,0,.2-1h-5q-.48,0-.48-.54c0-.33.16-.5.48-.5h5V80.12a.49.49,0,0,1,.56-.55.48.48,0,0,1,.55.55v2.74Z"/><path class="cls-1" d="M56.7,83.36a.55.55,0,0,1,.34.16,11.62,11.62,0,0,1,1.52,1.3.73.73,0,0,1,.12.34c0,.33-.18.49-.55.49a.56.56,0,0,1-.34-.12,18.58,18.58,0,0,0-1.53-1.37.68.68,0,0,1-.11-.26A.48.48,0,0,1,56.7,83.36ZM58.45,87c.33,0,.5.18.5.55a12.1,12.1,0,0,1-.5,2.16,11.36,11.36,0,0,1-.92,2.09.56.56,0,0,1-.49.34c-.37,0-.55-.16-.55-.49a.48.48,0,0,1,.11-.22,11.84,11.84,0,0,0,.85-1.9,15.58,15.58,0,0,0,.56-2.2A.4.4,0,0,1,58.45,87ZM57.7,79.8A.51.51,0,0,1,58,80a10.12,10.12,0,0,1,1.44,1.35.9.9,0,0,1,.09.34c0,.33-.18.49-.55.49a.43.43,0,0,1-.26-.12c-.47-.49-1-1-1.49-1.41a.88.88,0,0,1-.09-.27A.48.48,0,0,1,57.7,79.8Zm9-.29a.72.72,0,0,1,.42.13.43.43,0,0,1,.18.33,1.05,1.05,0,0,1,0,.26A10.25,10.25,0,0,1,66.1,82L66,82.1h1.84c.3,0,.44.14.44.43s-.14.5-.44.5H64.64v2.24h2.84a.38.38,0,0,1,.43.44c0,.33-.14.49-.43.49H64.64v2.12h3.65a.39.39,0,0,1,.45.44c0,.33-.15.49-.45.49H64.64v2.56c0,.32-.18.49-.55.49a.44.44,0,0,1-.49-.49V89.25H60.2c-.29,0-.44-.16-.44-.49a.39.39,0,0,1,.44-.44h3.4V86.2H61c-.28,0-.42-.16-.42-.49s.14-.44.42-.44H63.6V83H60.7c-.3,0-.45-.17-.45-.5s.15-.43.45-.43h4.57a.45.45,0,0,1-.14-.33.52.52,0,0,1,.06-.29,10.66,10.66,0,0,0,1.09-1.68A.36.36,0,0,1,66.65,79.51Zm-4.8,0a.42.42,0,0,1,.26.17,9.57,9.57,0,0,1,1,1.38.65.65,0,0,1,.11.31c0,.3-.16.44-.48.44a.52.52,0,0,1-.29-.09,16.5,16.5,0,0,0-1.09-1.44.75.75,0,0,1-.11-.26C61.29,79.68,61.48,79.51,61.85,79.51Z"/><path class="cls-1" d="M70.81,82h3.67c.41,0,.61.27.61.83a4.66,4.66,0,0,1-.2,1.11,12,12,0,0,1-.8,2.23,10.55,10.55,0,0,1-1.22,2,8.59,8.59,0,0,1-2.12,2,.65.65,0,0,1-.26.14q-.6,0-.6-.66a.56.56,0,0,1,.37-.49A9.12,9.12,0,0,0,72,87.57a10.53,10.53,0,0,0,1.19-1.94,11.11,11.11,0,0,0,.67-1.93,2.64,2.64,0,0,0,.12-.58c0-.11,0-.16,0-.16H70.81a.49.49,0,1,1,0-1Zm5.74-2.52a.49.49,0,0,1,.55.56v1.64A21.55,21.55,0,0,0,77.93,84a18.07,18.07,0,0,0,3.32-2.63.47.47,0,0,1,.89.24,1.16,1.16,0,0,1-.23.6,18.52,18.52,0,0,1-3.5,2.66l-.07,0A17.8,17.8,0,0,0,80,87.4,13.62,13.62,0,0,0,82.63,90c.21.15.32.3.32.46a.6.6,0,0,1-.6.65,1.2,1.2,0,0,1-.61-.22,15.39,15.39,0,0,1-3-3.35,11.33,11.33,0,0,1-1.39-2.7,6.93,6.93,0,0,1-.27-.73v6.73c0,.91-.53,1.37-1.59,1.37a6.63,6.63,0,0,1-2.17-.51.49.49,0,0,1-.39-.49c0-.35.16-.53.44-.55a1.07,1.07,0,0,1,.34.07,8.2,8.2,0,0,0,1.78.42c.36,0,.55-.2.55-.6V80C76.06,79.65,76.22,79.46,76.55,79.46Z"/><path class="cls-1" d="M95.91,80.28a.39.39,0,0,1,.44.44c0,.33-.15.49-.44.49H91v1.16h4.31a.38.38,0,0,1,.43.44c0,.33-.14.49-.43.49H91v1.31h5.46c.29,0,.43.15.43.45s-.14.48-.43.48H91.11a10.69,10.69,0,0,0,1.2,2.51,20.63,20.63,0,0,0,2.57-1.67c.12-.16.23-.23.32-.23.36,0,.54.16.54.49a.66.66,0,0,1-.2.49,17.7,17.7,0,0,1-2.64,1.64A7.43,7.43,0,0,0,94.28,90a12.39,12.39,0,0,0,2.41,1.3c.21.11.31.25.31.39a.53.53,0,0,1-.6.6,2,2,0,0,1-.56-.16,10.75,10.75,0,0,1-2.24-1.31,8.42,8.42,0,0,1-2.08-2,11.14,11.14,0,0,1-1.38-3.22h-.21a.61.61,0,0,1,0,.24,7.51,7.51,0,0,1-2,1.92v2.85a19,19,0,0,0,2.52-.73.53.53,0,0,1,.2,0c.31,0,.48.15.5.42a.61.61,0,0,1-.32.55,13.76,13.76,0,0,1-2.56.83,25.88,25.88,0,0,1-2.92.6.5.5,0,0,1-.49-.54c0-.35.14-.55.43-.6.65-.09,1.2-.17,1.66-.26V88.31a15.8,15.8,0,0,1-2,.84,1,1,0,0,1-.34.07.49.49,0,0,1-.56-.55c0-.17.12-.32.34-.45a11.3,11.3,0,0,0,3.08-1.43,7.27,7.27,0,0,0,1.35-1.25H84.49q-.45,0-.45-.48a.4.4,0,0,1,.45-.45H90V83.3H85.41c-.28,0-.43-.16-.43-.49a.39.39,0,0,1,.43-.44H90V81.21h-5c-.29,0-.44-.16-.44-.49a.39.39,0,0,1,.44-.44h5v-.55c0-.32.17-.48.5-.48s.55.16.55.48v.55Z"/><path class="cls-1" d="M110.29,80.28c.34,0,.51.16.51.49s-.17.49-.51.49h-5.56l-.67,1.55h5.3q.84,0,.84.81V90.9q0,.81-.84.81H99.59q-.84,0-.84-.81V83.62q0-.81.84-.81H103l.7-1.55H98.6c-.34,0-.5-.16-.5-.49s.16-.49.5-.49Zm-8.64,10.45v-7H100c-.17,0-.26.1-.26.29v6.4a.23.23,0,0,0,.26.26Zm1-5.36h3.76V83.78h-3.76Zm0,2.63h3.76V86.3h-3.76Zm3.76,2.73v-1.8h-3.76v1.8Zm2.53,0a.23.23,0,0,0,.26-.26v-6.4c0-.19-.09-.29-.26-.29h-1.55v7Z"/><path class="cls-1" d="M117.25,79.25c.36,0,.55.16.55.48V80h4.8c.26,0,.39.12.39.38s-.13.42-.39.42h-4.8v.71h5.94a.79.79,0,0,1,.89.89,2.26,2.26,0,0,1-.07.52,11.37,11.37,0,0,1-.27,1.18.6.6,0,0,1-.44.2q-.54,0-.54-.42a.68.68,0,0,1,0-.23,6.16,6.16,0,0,0,.25-.71,1.43,1.43,0,0,0,0-.21c0-.25-.1-.38-.29-.38H114c-.21,0-.31.13-.31.38v3.21a17.94,17.94,0,0,1-.29,3.53,10.17,10.17,0,0,1-.55,2.17.45.45,0,0,1-.42.32c-.35,0-.53-.18-.55-.48a2.37,2.37,0,0,1,.14-.52c.06-.21.13-.44.19-.7.1-.42.19-.84.27-1.27a20.88,20.88,0,0,0,.21-3V82.37c0-.59.33-.89,1-.89h3V79.73Q116.74,79.25,117.25,79.25Zm-2.13,9.56c-.09.12-.19.23-.28.34a.57.57,0,0,1-.34.22q-.54,0-.54-.45a.48.48,0,0,1,.1-.31,6.84,6.84,0,0,0,.89-1.19,6,6,0,0,0,.7-1.6.33.33,0,0,1,.34-.29.47.47,0,0,1,.32.12.41.41,0,0,1,.17.32.83.83,0,0,1,0,.28,1.17,1.17,0,0,1-.08.21H118c.55,0,.83.24.83.71a4.48,4.48,0,0,1-.22,1.07,6.34,6.34,0,0,1-.59,1.53,3.76,3.76,0,0,1-.31.49,4.92,4.92,0,0,0,.94.4q1.11.47,5.86.46a.43.43,0,0,1,.43.49.48.48,0,0,1-.49.5c-3.28,0-5.4-.24-6.36-.62a5.33,5.33,0,0,1-1-.53l-.08.05a6.18,6.18,0,0,1-1.37.8,3.62,3.62,0,0,1-1.1.41c-.29,0-.44-.19-.44-.55a.4.4,0,0,1,.34-.4,8.1,8.1,0,0,0,1.87-.87l0,0-.11-.09A5,5,0,0,1,115.12,88.81ZM121.61,83c.26,0,.38.13.38.4s-.12.42-.38.42l-4.65.37v.3c0,.21.15.31.44.31h2.15a16.3,16.3,0,0,0,2.17-.06q.23-.06.27-.48c0-.21.16-.32.46-.32s.47.15.49.43a1.82,1.82,0,0,1-.37,1,1.25,1.25,0,0,1-.55.19c-.4,0-1.21.07-2.42.07-1.59,0-2.55,0-2.86-.07a.81.81,0,0,1-.71-.86v-.45l-1.54.11c-.25,0-.37-.14-.37-.43a.33.33,0,0,1,.37-.38L116,83.4v-.59c0-.23.15-.34.45-.34s.48.11.48.34v.52Zm-5.56,4.29a4.93,4.93,0,0,1-.33.65l-.07.13a4.86,4.86,0,0,0,1,1.45,3.19,3.19,0,0,0,.26.26,1.07,1.07,0,0,1,.15-.22,5.6,5.6,0,0,0,.59-1.35,3.48,3.48,0,0,0,.15-.66c0-.15-.06-.23-.17-.23H116.2A.28.28,0,0,1,116.05,87.25Zm4.53-1h1.86a.72.72,0,0,1,.81.81v2.2a.34.34,0,0,0,.07.22.79.79,0,0,0,.33,0,.29.29,0,0,0,.26-.11c.06,0,.1-.16.11-.35v-.8c0-.21.14-.31.37-.31a.45.45,0,0,1,.49.48,5,5,0,0,1-.11,1.28.91.91,0,0,1-.34.51.87.87,0,0,1-.59.19h-.61c-.61,0-.92-.33-.92-1V87.17c0-.07-.11-.11-.34-.11h-.85c-.19,0-.28,0-.28.11V88a3.59,3.59,0,0,1-.23,1.37,3.81,3.81,0,0,1-.7,1.07.91.91,0,0,1-.44.23c-.32,0-.48-.16-.49-.44a.51.51,0,0,1,.15-.37,3.39,3.39,0,0,0,.6-.88,3,3,0,0,0,.18-1.15v-.77Q119.92,86.25,120.58,86.25Z"/><path class="cls-1" d="M133.44,85.09a3,3,0,0,1-.82,1.81q-.39.48-.66.48c-.17,0-.26-.09-.26-.28a1.84,1.84,0,0,1,.29-.48,1.12,1.12,0,0,0,.3-.5c0-.08-.12-.21-.37-.38a.81.81,0,0,1-.11-1.29,1,1,0,0,1,.7-.26.89.89,0,0,1,.64.27A.85.85,0,0,1,133.44,85.09Z"/><path class="cls-1" d="M142.34,80.35h1.76c.5,0,.75.22.75.65a18.25,18.25,0,0,1-.83,1.7h.68c.62,0,.93.27.93.82v4.14c0,.6-.31.89-.93.89h-3.24c-.57,0-.86-.29-.86-.89V83.52a1,1,0,0,1,.07-.41.39.39,0,0,1-.23.07c-.29,0-.44-.12-.44-.37a.61.61,0,0,1,.1-.34,13.27,13.27,0,0,0,1.54-2.74.35.35,0,0,1,.32-.22c.32,0,.49.16.49.46A.89.89,0,0,1,142.34,80.35ZM141.09,89c.3,0,.44.16.44.49a4.84,4.84,0,0,1-.49,2.15.51.51,0,0,1-.55.44.35.35,0,0,1-.39-.4.54.54,0,0,1,.11-.33,4.46,4.46,0,0,0,.49-2A.35.35,0,0,1,141.09,89Zm.37-6.33h1.59c.51-.89.76-1.35.76-1.38s-.09-.15-.27-.15h-1.63a12.23,12.23,0,0,1-1,1.65A1,1,0,0,1,141.46,82.7Zm.07,2.46h1.15V83.52h-1c-.11,0-.17.07-.17.21Zm1.15,2.56V86h-1.15v1.49c0,.17.06.26.17.26ZM142.35,89a.41.41,0,0,1,.38.23c.08.39.15,1,.24,1.9a3.63,3.63,0,0,1,0,.4c0,.25-.14.37-.43.37s-.36-.12-.37-.37c-.06-.79-.13-1.47-.21-2l0-.17C142,89.14,142.09,89,142.35,89Zm1.46,0a.4.4,0,0,1,.33.23,11.38,11.38,0,0,1,.45,1.75.65.65,0,0,1,.06.26q0,.39-.51.39c-.13,0-.24-.09-.33-.28a14.93,14.93,0,0,0-.36-1.75.57.57,0,0,1-.06-.21Q143.39,89,143.81,89Zm-.27-5.46v1.64h1.16V83.73c0-.14-.07-.21-.22-.21Zm.94,4.2c.15,0,.22-.09.22-.26V86h-1.16v1.75Zm.77,1.15c.11,0,.21.07.31.23a7.89,7.89,0,0,1,.62,1.52.72.72,0,0,1,0,.28c0,.25-.16.37-.49.37a.35.35,0,0,1-.34-.26,7.07,7.07,0,0,0-.55-1.54.63.63,0,0,1,0-.21Q144.8,88.87,145.25,88.87ZM152.2,82a.38.38,0,0,1,.43.43c0,.33-.14.5-.43.5h-2.3v2.14H152a.43.43,0,1,1,0,.86H149.9v2.46h2.39a.39.39,0,0,1,.45.43c0,.34-.15.5-.45.5H149.9v2.4a.45.45,0,0,1-.51.5.44.44,0,0,1-.49-.5V89.3h-2.61c-.29,0-.44-.16-.44-.5a.39.39,0,0,1,.44-.43h2.61V85.91h-2.12a.43.43,0,1,1,0-.86h2.12V82.91h-2.3c-.28,0-.42-.17-.42-.5a.37.37,0,0,1,.42-.43Zm-4.76-2.36a.37.37,0,0,1,.26.18,7.13,7.13,0,0,1,.89,1.15.72.72,0,0,1,.11.31c0,.31-.17.46-.5.46a.45.45,0,0,1-.27-.11c-.29-.42-.6-.82-.93-1.21a.8.8,0,0,1-.11-.28C146.89,79.79,147.07,79.62,147.44,79.62Zm3.66-.11a.7.7,0,0,1,.38.11.35.35,0,0,1,.17.29.73.73,0,0,1-.06.26,8.41,8.41,0,0,1-.65,1.31.5.5,0,0,1-.4.24c-.36,0-.55-.14-.55-.4a.41.41,0,0,1,.06-.26,8.65,8.65,0,0,0,.66-1.33A.38.38,0,0,1,151.1,79.51Z"/><path class="cls-1" d="M157.34,81.26a.61.61,0,0,1,.35.13.47.47,0,0,1,.19.38.67.67,0,0,1-.07.26,11,11,0,0,1-1.27,2.83A11.89,11.89,0,0,1,154.93,87a.81.81,0,0,1-.38.2c-.37,0-.55-.16-.55-.49a.35.35,0,0,1,.1-.26,11.7,11.7,0,0,0,1.61-2.07A11.94,11.94,0,0,0,157,81.61.38.38,0,0,1,157.34,81.26Zm6.94,4.5c.36,0,.56.18.6.44a5.91,5.91,0,0,1-1.08,2.9,6.45,6.45,0,0,1-3,2,20.3,20.3,0,0,1-5.75,1h-.23c-.31,0-.48-.22-.5-.61a.51.51,0,0,1,.44-.49,20.73,20.73,0,0,0,5.29-.83,6.08,6.08,0,0,0,2.75-1.61,4.49,4.49,0,0,0,1-2.37A.43.43,0,0,1,164.28,85.76Zm-3.73-6.19c.36,0,.55.16.55.49v7.06c0,.91-.53,1.36-1.59,1.36a7.84,7.84,0,0,1-2.17-.42.5.5,0,0,1-.39-.49c0-.36.16-.54.44-.55a2.12,2.12,0,0,1,.37,0,8.84,8.84,0,0,0,1.87.4c.28,0,.43-.17.43-.49V80.06A.43.43,0,0,1,160.55,79.57Zm3.18,1.75a.47.47,0,0,1,.37.23,21.54,21.54,0,0,1,2.7,4.81,1.72,1.72,0,0,1,0,.37c0,.33-.2.5-.6.5-.2,0-.35-.13-.45-.37A20.73,20.73,0,0,0,163.35,82a.82.82,0,0,1-.11-.31C163.24,81.45,163.41,81.32,163.73,81.32Z"/><path class="cls-1" d="M168.7,83.23a.54.54,0,0,1,.34.18,11.15,11.15,0,0,1,1.52,1.41.73.73,0,0,1,.12.34c0,.33-.18.49-.55.49a.56.56,0,0,1-.34-.12,16.33,16.33,0,0,0-1.53-1.46.82.82,0,0,1-.11-.29A.49.49,0,0,1,168.7,83.23ZM170.39,87q.51,0,.51.54a11.32,11.32,0,0,1-.51,2.16,10.51,10.51,0,0,1-.93,2.09.55.55,0,0,1-.48.35c-.36,0-.54-.17-.54-.5a.48.48,0,0,1,.11-.23,11.19,11.19,0,0,0,.84-1.88,15.48,15.48,0,0,0,.57-2.22A.39.39,0,0,1,170.39,87Zm-.64-7.4a.47.47,0,0,1,.31.16,10,10,0,0,1,1.44,1.33.74.74,0,0,1,.1.31c0,.33-.19.5-.55.5a.7.7,0,0,1-.32-.1c-.47-.46-1-.89-1.49-1.31a1.29,1.29,0,0,1-.09-.34C169.15,79.75,169.35,79.57,169.75,79.57Zm10.21.05c.33,0,.5.19.5.55s-.21.44-.61.49c-.83.07-1.92.12-3.26.17V83h4a.45.45,0,0,1,.5.51.44.44,0,0,1-.5.49h-4v2.5h2.66a.84.84,0,0,1,.95.94v3.5a.83.83,0,0,1-.95.92h-6.11a.82.82,0,0,1-.94-.92V87.4a.83.83,0,0,1,.94-.94h2.46V84h-3.72a.43.43,0,0,1-.49-.49c0-.34.16-.51.49-.51h3.72V80.85c-1.43.07-2.43.1-3,.1-.4,0-.6-.18-.6-.55s.17-.43.49-.43q2,0,3.63-.09C177.48,79.83,178.77,79.74,180,79.62Zm-1.25,11.23a.44.44,0,0,0,.49-.49V88a.43.43,0,0,0-.49-.49h-5a.43.43,0,0,0-.49.49v2.41a.43.43,0,0,0,.49.49Z"/><path class="cls-1" d="M188.23,79.51c.29,0,.43.19.43.55s-.18.39-.55.45-1,.13-1.68.19v.91h2.41a.37.37,0,0,1,.42.42c0,.29-.14.44-.42.44h-2.41v.83h1.8c.54,0,.81.26.81.77v2.84q0,.75-.81.75h-1.8v1h2.12a.39.39,0,0,1,.45.44q0,.42-.45.42h-2.12v1.16c.75-.08,1.45-.19,2.12-.32q.45,0,.45.42c0,.31-.17.47-.51.49q-3.06.54-5.85.78c-.33,0-.49-.2-.49-.6a.44.44,0,0,1,.49-.49c1,0,1.92-.08,2.81-.17V89.52H183c-.29,0-.44-.14-.44-.42a.39.39,0,0,1,.44-.44h2.41v-1h-2a.67.67,0,0,1-.76-.75V84.07a.68.68,0,0,1,.76-.77h2v-.83h-2.81a.38.38,0,0,1-.43-.44.37.37,0,0,1,.43-.42h2.81v-.84c-1,.08-1.79.11-2.21.11s-.54-.16-.54-.48.15-.43.45-.43c.87,0,1.69,0,2.45-.11A20.18,20.18,0,0,0,188.23,79.51Zm-4.59,5.54h1.81v-.89H183.9c-.17,0-.26.12-.26.34Zm1.81,1.75v-.93h-1.81v.59c0,.23.09.34.26.34Zm1-2.64v.89h1.68V84.5c0-.22-.1-.34-.31-.34Zm1.37,2.64c.21,0,.31-.11.31-.34v-.59h-1.68v.93ZM190,82h1.26c0-.69.06-1.4.06-2.12,0-.3.16-.45.49-.45s.49.17.49.51c0,.71,0,1.4-.07,2.06h1.49c.62,0,.93.36.93,1.09,0,2,0,3.82-.15,5.47a7.16,7.16,0,0,1-.56,2.86,1.47,1.47,0,0,1-1.32.71,3.31,3.31,0,0,1-1.3-.29c-.23-.11-.34-.25-.34-.42,0-.4.16-.6.49-.6a3,3,0,0,0,1.09.31c.35,0,.59-.21.73-.63a10.19,10.19,0,0,0,.3-2.35c.05-1.29.08-2.85.08-4.66q0-.51-.45-.51h-1c-.06.95-.15,1.87-.27,2.75a19.24,19.24,0,0,1-2,6.17.56.56,0,0,1-.42.23.48.48,0,0,1-.55-.55,1.84,1.84,0,0,1,.11-.34,18.46,18.46,0,0,0,1.93-5.86c.12-.78.2-1.57.26-2.4H190a.49.49,0,1,1,0-1Z"/><path class="cls-1" d="M199.1,79.36a.49.49,0,0,1,.55.55V81h1.75a.43.43,0,0,1,.49.48.44.44,0,0,1-.49.5h-2.61c0,.73-.06,1.4-.1,2h1.9c.65,0,1,.29,1,.88a42.2,42.2,0,0,1-.23,5.1,3.06,3.06,0,0,1-.56,1.68,1.6,1.6,0,0,1-1.23.45,3.85,3.85,0,0,1-1.09-.23.48.48,0,0,1-.39-.49c0-.36.17-.54.5-.54a4.46,4.46,0,0,0,1,.22.67.67,0,0,0,.62-.33,3.74,3.74,0,0,0,.27-1.17,37.16,37.16,0,0,0,.16-4.3.3.3,0,0,0-.34-.34h-1.64c-.06.87-.14,1.64-.23,2.33a24,24,0,0,1-1.08,4.56.72.72,0,0,1-.49.29c-.4,0-.6-.18-.6-.55a.48.48,0,0,1,.17-.28A21.74,21.74,0,0,0,197.45,87a46.71,46.71,0,0,0,.4-5h-1c-.32,0-.48-.17-.48-.5a.42.42,0,0,1,.48-.48h1.7V79.91A.48.48,0,0,1,199.1,79.36Zm5.75,0a.53.53,0,0,1,.47.29,15.36,15.36,0,0,0,1.7,2.32,9,9,0,0,0,1.54,1.38.5.5,0,0,1,.24.43.53.53,0,0,1-.55.54.59.59,0,0,1-.34-.11,11.33,11.33,0,0,1-1.25-1.09A16.47,16.47,0,0,1,205,80.88c-.05-.07-.09-.11-.12-.11s-.07,0-.11.13a12.72,12.72,0,0,1-2.34,3.26.69.69,0,0,1-.4.11.54.54,0,0,1-.54-.6c0-.1.07-.2.23-.31A11.31,11.31,0,0,0,203,81.93a14,14,0,0,0,1.38-2.26C204.5,79.43,204.65,79.31,204.85,79.31Zm-1.81,9a.74.74,0,0,1,.34.11A50.74,50.74,0,0,1,207.91,91a.59.59,0,0,1,.29.49c0,.32-.17.48-.5.48a.94.94,0,0,1-.45-.11,45.16,45.16,0,0,0-4.41-2.61c-.23-.14-.35-.27-.35-.4C202.49,88.48,202.68,88.32,203,88.32Zm.45-3.94a.76.76,0,0,1,.37.12,38.61,38.61,0,0,1,3.73,2,.6.6,0,0,1,.21.45.39.39,0,0,1-.44.44.55.55,0,0,1-.37-.12,39.35,39.35,0,0,0-3.73-2,.53.53,0,0,1-.26-.4C203,84.53,203.16,84.38,203.49,84.38Z"/><path class="cls-1" d="M210.64,85.87h1.86a.62.62,0,0,1,.71.7v2.58a1.41,1.41,0,0,0,.69,1.19,3.78,3.78,0,0,0,2.2.56h6.25c.33,0,.5.16.5.48a.44.44,0,0,1-.5.49h-5.84a6.45,6.45,0,0,1-2-.28,4,4,0,0,1-1.47-.85l-.18-.12c-.06,0-.12,0-.19.15a5.08,5.08,0,0,1-1.36,1.15,1.24,1.24,0,0,1-.54.24c-.35,0-.53-.18-.55-.49a.45.45,0,0,1,.34-.45,5.21,5.21,0,0,0,1.22-.71,1.8,1.8,0,0,0,.42-1.36V87.06c0-.14-.08-.2-.23-.2h-1.37a.5.5,0,0,1,0-1Zm.29-3.4a.73.73,0,0,1,.37.11,12.32,12.32,0,0,1,1.43,1,.55.55,0,0,1,.22.45.44.44,0,0,1-.5.49.71.71,0,0,1-.39-.11,14.61,14.61,0,0,0-1.36-1c-.21-.15-.32-.3-.32-.45C210.38,82.63,210.57,82.47,210.93,82.47Zm.92-2.85a.93.93,0,0,1,.39.11c.5.37.95.73,1.36,1.1a.59.59,0,0,1,.21.43c0,.34-.15.51-.47.51a.62.62,0,0,1-.39-.11,16.81,16.81,0,0,0-1.31-1.09c-.23-.15-.34-.3-.34-.45C211.3,79.79,211.48,79.62,211.85,79.62Zm9.69,0a.51.51,0,0,1,.55.5.51.51,0,0,1-.44.5,19.81,19.81,0,0,1-5.1.44c-.25,0-.37.14-.37.42v2.19h5.91c.32,0,.47.17.47.49s-.15.51-.47.51H220.5V90c0,.34-.18.51-.55.51a.45.45,0,0,1-.5-.51V84.67h-3.3a16.54,16.54,0,0,1-.34,3.17,9.86,9.86,0,0,1-.72,2.08.7.7,0,0,1-.5.2.49.49,0,0,1-.54-.49,1.13,1.13,0,0,1,.11-.33,6.59,6.59,0,0,0,.68-2,14.09,14.09,0,0,0,.36-3.39V81a.77.77,0,0,1,.86-.88A22.12,22.12,0,0,0,221.54,79.62Z"/><path class="cls-1" d="M224.7,83.36a.55.55,0,0,1,.34.16,10.24,10.24,0,0,1,1.26,1.35.9.9,0,0,1,.09.35c0,.32-.18.49-.54.49a.42.42,0,0,1-.26-.11,18,18,0,0,0-1.33-1.44.68.68,0,0,1-.11-.26A.48.48,0,0,1,224.7,83.36ZM226,86.8c.33,0,.49.18.49.55a13.87,13.87,0,0,1-.41,2.17,12.58,12.58,0,0,1-.79,2.15.52.52,0,0,1-.49.31c-.33,0-.5-.14-.5-.42a.89.89,0,0,1,.07-.23,13.55,13.55,0,0,0,.77-1.94,21.48,21.48,0,0,0,.49-2.27A.35.35,0,0,1,226,86.8Zm-.66-7a.59.59,0,0,1,.35.17,10.28,10.28,0,0,1,1.14,1.29.67.67,0,0,1,.11.35c0,.32-.18.49-.56.49a.41.41,0,0,1-.26-.12,17.4,17.4,0,0,0-1.2-1.36.74.74,0,0,1-.12-.27A.48.48,0,0,1,225.35,79.8Zm3.94-.49a.58.58,0,0,1,.34.11.36.36,0,0,1,.17.31,1.16,1.16,0,0,1-.06.33c0,.1-.05.2-.08.29h6.63c.3,0,.45.14.45.43s-.15.5-.45.5h-7c0,.08-.07.15-.1.22a6.44,6.44,0,0,1-.8,1.16,4,4,0,0,1-.86.82.64.64,0,0,1-.33.1.44.44,0,0,1-.34-.16.62.62,0,0,1-.14-.39.41.41,0,0,1,.17-.32,4.34,4.34,0,0,0,.75-.73,5.42,5.42,0,0,0,.67-1.08,5.54,5.54,0,0,0,.48-1.28A.46.46,0,0,1,229.29,79.31Zm.4,3.27h5.51a.68.68,0,0,1,.76.78c0,.26-.07,1.07-.23,2.42v0h.83a.49.49,0,1,1,0,1h-.94c-.1.9-.23,1.76-.38,2.57h1c.34,0,.51.15.51.44s-.17.49-.51.49h-1.22a3.63,3.63,0,0,1-.5,1.56,1.12,1.12,0,0,1-.89.36,9.39,9.39,0,0,1-2.42-.29.53.53,0,0,1-.42-.55.42.42,0,0,1,.47-.48,14.55,14.55,0,0,0,2.25.32c.22,0,.37-.19.45-.58,0-.11.05-.22.08-.34H228c-.47,0-.71-.2-.71-.6a1.16,1.16,0,0,1,.1-.49c.35-1,.61-1.82.78-2.41h-.95a.49.49,0,0,1,0-1h1.19a21.94,21.94,0,0,0,.4-2.41A.83.83,0,0,1,229.69,82.58Zm4.59,6.79q.16-1,.3-2.1c0-.17,0-.32.06-.47h-5.5c-.19.8-.41,1.61-.66,2.41,0,.11.08.16.22.16Zm-4.92-3.55h5.39c.08-.72.14-1.4.19-2,0-.18-.12-.26-.34-.26h-4.42a.38.38,0,0,0-.44.38C229.64,84.52,229.51,85.17,229.36,85.82Zm1.68,1.3a.67.67,0,0,1,.34.11l.5.39a5.58,5.58,0,0,1,.65.64.6.6,0,0,1,.17.29c0,.28-.16.43-.46.43a.63.63,0,0,1-.43-.17,7.5,7.5,0,0,0-.59-.53,4.2,4.2,0,0,0-.44-.33.6.6,0,0,1-.18-.38A.39.39,0,0,1,231,87.12Zm.56-3.27a.7.7,0,0,1,.33.11l.52.3a4.56,4.56,0,0,1,.68.5.6.6,0,0,1,.17.29.39.39,0,0,1-.45.43.66.66,0,0,1-.44-.17c-.24-.16-.44-.29-.62-.39a2.66,2.66,0,0,0-.48-.25.66.66,0,0,1-.16-.4Q231.15,83.85,231.6,83.85Z"/><path class="cls-1" d="M243.25,79.25c.36,0,.55.16.55.48V80h4.8c.26,0,.39.12.39.38s-.13.42-.39.42h-4.8v.71h5.94a.79.79,0,0,1,.89.89,2.26,2.26,0,0,1-.07.52,11.37,11.37,0,0,1-.27,1.18.6.6,0,0,1-.44.2q-.54,0-.54-.42a.68.68,0,0,1,.05-.23,6.16,6.16,0,0,0,.25-.71,1.43,1.43,0,0,0,0-.21c0-.25-.1-.38-.29-.38H240c-.21,0-.31.13-.31.38v3.21a17.94,17.94,0,0,1-.29,3.53,10.17,10.17,0,0,1-.55,2.17.45.45,0,0,1-.42.32c-.35,0-.53-.18-.55-.48a2.37,2.37,0,0,1,.14-.52c.06-.21.13-.44.19-.7.1-.42.19-.84.27-1.27a20.88,20.88,0,0,0,.21-3V82.37c0-.59.33-.89,1-.89h3V79.73Q242.74,79.25,243.25,79.25Zm-2.13,9.56c-.09.12-.19.23-.28.34a.57.57,0,0,1-.34.22q-.54,0-.54-.45a.48.48,0,0,1,.1-.31,6.84,6.84,0,0,0,.89-1.19,6,6,0,0,0,.7-1.6.33.33,0,0,1,.34-.29.47.47,0,0,1,.32.12.41.41,0,0,1,.17.32.83.83,0,0,1,0,.28,1.17,1.17,0,0,1-.08.21H244c.55,0,.83.24.83.71a4.48,4.48,0,0,1-.22,1.07,6.34,6.34,0,0,1-.59,1.53,3.76,3.76,0,0,1-.31.49,4.92,4.92,0,0,0,.94.4q1.11.47,5.86.46a.43.43,0,0,1,.43.49.48.48,0,0,1-.49.5c-3.28,0-5.4-.24-6.36-.62a5.33,5.33,0,0,1-1-.53l-.08.05a6.18,6.18,0,0,1-1.37.8,3.62,3.62,0,0,1-1.1.41c-.29,0-.44-.19-.44-.55a.4.4,0,0,1,.34-.4,8.1,8.1,0,0,0,1.87-.87l0,0-.11-.09A5,5,0,0,1,241.12,88.81ZM247.61,83c.26,0,.38.13.38.4s-.12.42-.38.42l-4.65.37v.3c0,.21.15.31.44.31h2.15a16.3,16.3,0,0,0,2.17-.06q.22-.06.27-.48c0-.21.16-.32.46-.32s.47.15.49.43a1.82,1.82,0,0,1-.37,1,1.25,1.25,0,0,1-.55.19c-.4,0-1.21.07-2.42.07-1.59,0-2.55,0-2.86-.07a.81.81,0,0,1-.71-.86v-.45l-1.54.11c-.25,0-.37-.14-.37-.43a.33.33,0,0,1,.37-.38L242,83.4v-.59c0-.23.15-.34.45-.34s.48.11.48.34v.52Zm-5.56,4.29a4.93,4.93,0,0,1-.33.65l-.07.13a4.86,4.86,0,0,0,1,1.45,3.19,3.19,0,0,0,.26.26,1.07,1.07,0,0,1,.15-.22,5.6,5.6,0,0,0,.59-1.35,3.48,3.48,0,0,0,.15-.66c0-.15-.06-.23-.17-.23H242.2A.28.28,0,0,1,242.05,87.25Zm4.53-1h1.86a.72.72,0,0,1,.81.81v2.2a.34.34,0,0,0,.07.22.79.79,0,0,0,.33,0,.29.29,0,0,0,.26-.11c.06,0,.1-.16.11-.35v-.8c0-.21.14-.31.37-.31a.45.45,0,0,1,.49.48,5,5,0,0,1-.11,1.28.91.91,0,0,1-.34.51.87.87,0,0,1-.59.19h-.61c-.61,0-.92-.33-.92-1V87.17c0-.07-.11-.11-.34-.11h-.85c-.19,0-.28,0-.28.11V88a3.59,3.59,0,0,1-.23,1.37,3.81,3.81,0,0,1-.7,1.07.91.91,0,0,1-.44.23c-.32,0-.48-.16-.49-.44a.51.51,0,0,1,.15-.37,3.39,3.39,0,0,0,.6-.88,3,3,0,0,0,.18-1.15v-.77Q245.92,86.25,246.58,86.25Z"/><path class="cls-1" d="M260.59,85.84a2.12,2.12,0,0,1-.62,1.52,2.09,2.09,0,0,1-1.52.62,2.07,2.07,0,0,1-1.51-.62,2.12,2.12,0,0,1-.62-1.52,2.14,2.14,0,1,1,4.27,0Zm-.74,0a1.34,1.34,0,0,0-.41-1,1.37,1.37,0,0,0-1-.41,1.4,1.4,0,0,0,0,2.79,1.37,1.37,0,0,0,1-.41A1.35,1.35,0,0,0,259.85,85.84Z"/></g></g></svg>