<svg xmlns="http://www.w3.org/2000/svg" viewBox="0 0 250 146"><defs><style>.cls-1{fill:#cac529;opacity:0.8;}.cls-2{font-size:12px;font-family:TsukuBRdGothic-Bold-83pv-RKSJ-H, Tsukushi B Round Gothic;font-weight:700;letter-spacing:0.11em;}.cls-2,.cls-3{fill:#fff;}</style></defs><title>food_detail</title><g id="圖層_2" data-name="圖層 2"><g id="food_detail"><path class="cls-1" d="M215,0H35A35.1,35.1,0,0,0,0,35V88a35.1,35.1,0,0,0,35,35h72.39A95,95,0,0,0,125,146a95,95,0,0,0,17.61-23H215a35.1,35.1,0,0,0,35-35V35A35.1,35.1,0,0,0,215,0Z"/><text class="cls-2" transform="translate(65.51 87.93)">浮游動物</text><text class="cls-2" transform="translate(143.51 87.93)">小魚</text><polygon class="cls-3" points="89.42 39.22 88.93 39.32 87.89 35.89 86.85 33.21 87.33 33.11 87.93 35.17 89.42 39.22"/><polygon class="cls-3" points="89.1 39.24 88.77 39.59 86.29 36.87 84.16 34.87 84.49 34.52 85.96 36.17 89.1 39.24"/><polygon class="cls-3" points="88.86 39.42 88.78 39.93 85.52 38.65 82.88 37.86 82.97 37.35 84.92 38.15 88.86 39.42"/><polygon class="cls-3" points="88.77 39.72 88.95 40.25 85.78 40.75 83.34 41.39 83.16 40.86 85.08 40.59 88.77 39.72"/><polygon class="cls-3" points="88.84 40.06 89.24 40.47 87.02 42.62 85.43 44.51 85.03 44.1 86.39 42.84 88.84 40.06"/><polygon class="cls-3" points="89.06 40.34 89.57 40.52 88.89 43.74 88.58 46.38 88.07 46.2 88.51 44.28 89.06 40.34"/><polygon class="cls-3" points="89.38 40.49 89.86 40.4 90.9 43.82 91.94 46.5 91.46 46.6 90.86 44.54 89.38 40.49"/><polygon class="cls-3" points="89.69 40.48 90.02 40.13 92.5 42.84 94.63 44.85 94.3 45.2 92.83 43.54 89.69 40.48"/><polygon class="cls-3" points="89.93 40.29 90.02 39.78 93.28 41.06 95.91 41.85 95.83 42.36 93.87 41.56 89.93 40.29"/><polygon class="cls-3" points="90.02 39.99 89.84 39.46 93.01 38.96 95.45 38.32 95.63 38.85 93.72 39.12 90.02 39.99"/><polygon class="cls-3" points="89.95 39.65 89.55 39.24 91.77 37.1 93.36 35.2 93.76 35.61 92.4 36.88 89.95 39.65"/><polygon class="cls-3" points="89.73 39.37 89.22 39.19 89.9 35.98 90.22 33.33 90.72 33.51 90.28 35.43 89.73 39.37"/><path class="cls-3" d="M106.93,41.42c-.33.85.6,2.82-1.09,2.79s-5.14,2.25-7.44,4.44-3.3,4.63-3.09,4.69-.09.24,2.15-2.63,6.9-4.85,6.9-4.85c-1.06.92-2.45,4.89-2.23,5s.57-.65.76-1.19,2-3.7,3-2.19-2.34,3.76-2.6,3.87-.79.78,1,0A6.56,6.56,0,0,0,107,48.57c.47,4.52-6,10.78-5.9,10.88s1.13-.17,4.3-3.91a14.65,14.65,0,0,0,3.09-8.73c.27-.91.59-1.11,1.87-1.42a1.64,1.64,0,0,0,1.38-1.56c-.1,0-.55.41-1,.54s-1.12-.06-1.15-.44.39-1.24.11-1.5-.37-.25-.65-.16-.8.58-1.29,0,.56-1.84.4-1.88A1.53,1.53,0,0,0,106.93,41.42Zm.21,6c-.33-2-1.9-1.81-1.9-1.81C109.67,42.54,107.14,47.45,107.14,47.45Z"/><path class="cls-3" d="M98.87,31.18C99,31,100.66,32.39,101,33a6.23,6.23,0,0,1,.85,4.34c-.44,1.83-.89,1.74-.95,1.64a9.66,9.66,0,0,0,.16-2,15.1,15.1,0,0,0-1-3.67C99.6,32.65,98.87,31.18,98.87,31.18Z"/><path class="cls-3" d="M87.62,60.4c1.34.67,1.31.21,1.44-.27s.45-2.2-.58-2.29-2.11.65-1.87,1.26A4.53,4.53,0,0,0,87.62,60.4Z"/><path class="cls-3" d="M88.49,55.78c.46-1.56.09-1.57-.32-1.78s-1.86-.77-1.86.47.68,2.62,1.17,2.39A3.44,3.44,0,0,0,88.49,55.78Z"/><path class="cls-3" d="M91.3,59.72c1.35.67,1.32.21,1.45-.27s.45-2.2-.58-2.29-2.11.65-1.87,1.26A4.57,4.57,0,0,0,91.3,59.72Z"/><path class="cls-3" d="M84.84,59.21c-.83.94-1,.58-1.32.24s-1.32-1.56-.5-2,2-.16,2.1.39A3.25,3.25,0,0,1,84.84,59.21Z"/><path class="cls-3" d="M82.38,55.55c-1.26.24-1.2-.14-1.28-.58s-.23-2,.7-1.8,1.83,1.07,1.57,1.53A2.94,2.94,0,0,1,82.38,55.55Z"/><path class="cls-3" d="M80.54,59.35c-.84.94-1,.57-1.32.24s-1.32-1.57-.5-2,2-.15,2.09.4A3.36,3.36,0,0,1,80.54,59.35Z"/><path class="cls-3" d="M87.83,66.11c-.83.94-1,.58-1.32.24s-1.32-1.57-.5-1.95,2-.16,2.1.39A3.25,3.25,0,0,1,87.83,66.11Z"/><path class="cls-3" d="M85.56,62.85c-1.26.23-1.19-.15-1.27-.59s-.24-2,.69-1.8,1.84,1.07,1.58,1.53A3,3,0,0,1,85.56,62.85Z"/><path class="cls-3" d="M83.85,66.1c-.83.94-1,.58-1.32.24s-1.32-1.56-.5-2,2-.16,2.1.39A3.25,3.25,0,0,1,83.85,66.1Z"/><path class="cls-3" d="M80.17,42.6c-.2.24-1.51,2.06-1.41,1.47s1-2.84.8-2.85-.62.66-.66,1.06-.77,2.36-.56.46-.65-2.7-.57-2a7.31,7.31,0,0,1-.39,2.88,4.13,4.13,0,0,0-2.2,3.8,21.06,21.06,0,0,1-.89,2.12c-.17.19-.42.66.13.44s1.3-1.87,1.46-1.77a1.18,1.18,0,0,1,.05,1.25c-.28.61-.42,2.07-.2,1.77s.84-2.42,1-2.26-.24,1.14-.25,1.88.41,1.26.38.11a2.89,2.89,0,0,1,.54-1.84c1.8-.92,1.78-3.91,1.89-4.5s1.49-1.92,1.49-2.06S80.37,42.36,80.17,42.6Zm-4.46,5.07a.24.24,0,0,1-.22-.17c0-.08.08-.14.2-.13a.23.23,0,0,1,.22.16C75.92,47.62,75.83,47.68,75.71,47.67Zm.1-.84c.1-.88.49-1.9,1.07-2.06S75.81,46.83,75.81,46.83Zm2.35.84a1.5,1.5,0,0,1-1.1.71c-.38,0-.41-.32-.64-.69A1.23,1.23,0,0,1,77,48C77.34,48.24,78.31,47.3,78.16,47.67Zm.2-1.49c-.19.2-.2.44-.51.83s-.84,0-1.18-.1.46-.49.72-1.16.24-1,.4-1.16a1.81,1.81,0,0,1,.7.31C78.8,45.14,78.55,46,78.36,46.18Z"/><path class="cls-3" d="M78,45.13a4.23,4.23,0,0,1-.39,1.07c-.14.22-.31.41,0,.34s.57-.62.58-1.07S78,45.13,78,45.13Z"/><path class="cls-3" d="M74.56,40.68c.51,1,1.91,1.17,1.84.91s-.3-1.2-1.07-1.06Z"/><path class="cls-3" d="M72.12,41.68c0,.38.52,1,.85.71a.52.52,0,0,0,0-.88C72.71,41.28,72.08,41.25,72.12,41.68Z"/><ellipse class="cls-3" cx="73.39" cy="39.08" rx="0.21" ry="0.28" transform="translate(-8.91 27.24) rotate(-19.85)"/><path class="cls-3" d="M95.79,62.72c.32.12,1.06-.24,1.06.4a5.91,5.91,0,0,0,1.69,2.79,3.65,3.65,0,0,0,1.78,1.15c0-.07.09,0-1-.8a7.91,7.91,0,0,1-1.85-2.59,4.42,4.42,0,0,0,1.9.83c0-.08-.25-.21-.45-.28s-1.4-.74-.84-1.12,1.43.87,1.47,1,.3.3,0-.37a2.43,2.43,0,0,0-1.05-1c1.7-.19,4.08,2.22,4.12,2.19s-.07-.43-1.49-1.61a5.54,5.54,0,0,0-3.3-1.14c-.35-.1-.42-.22-.54-.7a.61.61,0,0,0-.6-.51s.16.2.21.37,0,.42-.16.44-.47-.15-.57,0a.2.2,0,0,0-.06.24c0,.11.23.3,0,.49s-.69-.2-.71-.15A.61.61,0,0,0,95.79,62.72Zm2.27-.1c-.74.13-.68.72-.68.72C96.2,61.68,98.06,62.62,98.06,62.62Z"/><path class="cls-3" d="M170.12,34.79c-6.08-8.3-11.5.5-11.5.5,5.85,8.7,10.37,2.51,11.55.54,2.36,4.8,3-.55,3-.55C172.51,30,170.73,33.42,170.12,34.79Zm-8.61.73a1,1,0,1,1,.75-.94A.86.86,0,0,1,161.51,35.52Z"/><path class="cls-3" d="M167,57.42c-9.73-13.27-18.38.79-18.38.79,9.35,13.92,16.57,4,18.46.88,3.76,7.66,4.8-.89,4.8-.89C170.82,49.79,168,55.24,167,57.42Zm-13.09,1.52a1.83,1.83,0,0,1-1.61-1,.75.75,0,0,1-.07-.12l-.05-.11a1.68,1.68,0,0,1-.07-.24.19.19,0,0,1,0-.08,2,2,0,0,1,0-.35,2.09,2.09,0,0,1,0-.35.24.24,0,0,1,0-.08,2.17,2.17,0,0,1,.07-.24,1.17,1.17,0,0,0,.05-.11.75.75,0,0,1,.07-.12,1.82,1.82,0,0,1,1.61-1,1.86,1.86,0,0,1,0,3.71Z"/><path class="cls-3" d="M133.68,42.35s.83,6.84,3.83.71c1.51,2.52,7.29,10.44,14.77-.7,0,0-6.92-11.24-14.7-.63C136.81,40,134.53,35.63,133.68,42.35Zm13.63-.89a1.28,1.28,0,1,1,1.27,1.27A1.27,1.27,0,0,1,147.31,41.46Z"/></g></g></svg>