<svg xmlns="http://www.w3.org/2000/svg" viewBox="0 0 250 146"><defs><style>.cls-1{fill:#cac529;opacity:0.8;}.cls-2{font-size:9px;letter-spacing:0.11em;}.cls-2,.cls-3,.cls-4{fill:#fff;}.cls-2,.cls-4{font-family:TsukuBRdGothic-Bold-83pv-RKSJ-H, Tsukushi B Round Gothic;font-weight:700;}.cls-4{font-size:11px;letter-spacing:0.11em;}</style></defs><title>height_detail</title><g id="圖層_2" data-name="圖層 2"><g id="height_detail"><path class="cls-1" d="M215,0H35A35.1,35.1,0,0,0,0,35V88a35.1,35.1,0,0,0,35,35h72.39A95,95,0,0,0,125,146a95,95,0,0,0,17.61-23H215a35.1,35.1,0,0,0,35-35V35A35.1,35.1,0,0,0,215,0Z"/><text class="cls-2" transform="translate(116.51 102.93)">910</text><line class="cls-3" x1="84.5" y1="85" x2="84.5" y2="97"/><path class="cls-3" d="M83.75,85V97a.75.75,0,0,0,1.5,0V85a.75.75,0,0,0-1.5,0Z"/><line class="cls-3" x1="167.5" y1="85" x2="167.5" y2="97"/><path class="cls-3" d="M166.75,85V97a.75.75,0,0,0,1.5,0V85a.75.75,0,0,0-1.5,0Z"/><line class="cls-3" x1="53" y1="91" x2="199" y2="91"/><path class="cls-3" d="M53,91.75H199a.75.75,0,0,0,0-1.5H53a.75.75,0,0,0,0,1.5Z"/><text class="cls-4" transform="translate(212.51 93.37)">cm</text><circle class="cls-3" cx="31" cy="91" r="2"/><path class="cls-3" d="M166.55,38.08h0c-.18-.18-.61-.16-1.31.09-1.39.5-4.44,3.4-5.45,3.71a5.28,5.28,0,0,1-3.22.24A11.81,11.81,0,0,1,154,40.66c-.52-.93-4.75-7.17-4.75-7.17a6.22,6.22,0,0,1,.44-4.36c1.13-1.83,4.94-3.92,6-4.73.86-.65.7-1-.1-1.19a5.69,5.69,0,0,0-.72-.1c-1.37-.13-3.66,1.84-5.29,2.74s-2.13-.26-3.11-.92-2.36.81-3.79,1.56a9.49,9.49,0,0,1-2.81.48h0A32.51,32.51,0,0,1,129,26c-.39-.13-.76-.27-1.1-.42-4.23-2-11.36-3.45-18.48-4.65A19.74,19.74,0,0,1,98.29,15c.61,1.82,3.2,3.67,4.22,4.33a22.68,22.68,0,0,1,4.28,4.72c1.73,2.29,2.2,7.65,2.26,9s0,8.17-.61,10.35-.27,10.2-.21,11.27.28,5.69-.38,6.62a8.15,8.15,0,0,0-.72,3.3L87.5,73.21c-1.06.45-.34.44-.34.44L107,65.75A40.93,40.93,0,0,0,111.08,67a14.44,14.44,0,0,1,4,1.24,45.84,45.84,0,0,0,5.16,2.44,105.09,105.09,0,0,0,11.85,3.68c2.09.45,7.87,2.34,9,4.4s-1.63,3.94-1.63,3.94c.77.09,4.66-2,7.56-5a27.21,27.21,0,0,0,5.61-9.07,26.26,26.26,0,0,0,1.12-5.88c.27-2.44.42-4.77.59-5.51a35.85,35.85,0,0,1,2-5A6.46,6.46,0,0,1,157,51a7.88,7.88,0,0,1,3-2.61,1.78,1.78,0,0,0,1.07-2.53c-.35-.53-.08-2-.08-2,.86-.59,4.63-3.5,5.29-4.62C166.65,38.66,166.73,38.27,166.55,38.08Z"/></g></g></svg>