<svg xmlns="http://www.w3.org/2000/svg" viewBox="0 0 418.26 570.3"><defs><style>.cls-1{fill:#9d9476;}.cls-2{fill:#e5dcb8;}.cls-3{fill:#cfb38e;}.cls-4{fill:#877e69;}.cls-5{fill:#837c4b;}.cls-6{opacity:0.6;}.cls-7{fill:#d6a93a;}.cls-8{fill:#f3efdf;}.cls-9{fill:#bcb935;}</style></defs><title>03_bg01</title><g id="圖層_2" data-name="圖層 2"><g id="_03_bg01" data-name="03_bg01"><polygon class="cls-1" points="0 116.49 48.98 137.17 198.52 165.75 245.25 170.75 291.11 185.46 253.47 237.37 197.66 284.1 169.97 325.63 174.58 373.56 252.51 488.07 280.29 570.29 0 570.29 0 116.49"/><polygon class="cls-2" points="291.11 185.46 245.25 170.75 205.3 167.7 193.67 164.32 96.56 142.36 48.98 137.17 0 116.49 0 167.11 16.67 155.92 68.72 161.12 86.46 172.04 179.91 174.53 129.22 195.66 151.71 205.47 242.03 204.79 291.11 185.46"/><polygon class="cls-3" points="129.22 195.66 126.94 221.63 103.67 231.27 71.33 289.53 87.34 288.9 170.11 249.92 176.46 238.67 179.91 219.13 189.87 205.47 151.71 205.47 129.22 195.66"/><polygon class="cls-3" points="68.72 161.12 86.46 172.04 62.24 190.44 64.21 199.21 41.03 221.51 0 231.63 0 221.91 22.99 188.98 14.21 168.13 16.67 155.92 68.72 161.12"/><polygon class="cls-4" points="86.46 172.04 95.7 188.98 100.31 188.98 107.81 198.03 104.64 219.42 95.15 246.62 103.67 231.27 126.94 221.63 129.22 195.66 179.91 174.53 86.46 172.04"/><polygon class="cls-4" points="174.58 373.56 169.97 325.63 197.66 284.1 253.47 237.37 291.11 185.46 242.03 204.79 217.2 225.15 217.56 231.63 213.23 236.51 214.97 242.59 185.09 289.53 156.72 306.47 138.29 304.21 119.74 318.43 119.33 321.41 100.83 312.05 91.23 300.35 85.7 280.69 67.52 270.34 63.1 266.36 70.53 249.92 64.21 249.49 57.67 253.69 51.33 250.79 61.05 241 64.21 233.48 64.21 228 64.21 199.21 41.03 221.51 0 231.63 23.43 235.27 37.02 242.59 12.95 253.43 5.2 269 0 283.43 0 570.29 280.29 570.29 252.51 488.07 174.58 373.56"/><polygon class="cls-3" points="0 313.35 30.31 277.86 67.52 270.34 47.35 297.76 67.5 294.44 70.53 308.49 51.39 319.39 51.39 324.58 54.97 330.21 37.8 334.93 0 356.31 0 313.35"/><path class="cls-5" d="M105.47,0c-11.92,17.27-8,32.4-5.44,41.94,3,10.4,4.66,16.9-2.75,25.07-9.14,9.9-7,13.37-7.08,25.92,0,8.22-5.24,8.19-10.46,13.35-6.53,6.45-1.35,9.08-1.83,16.43-.47,6-6.55,10.34-10,15.52-3.06,5.17-6.5,8.88-10,13.61,3.05-3.44,6.48-5.42,10-8.86,3.92-3.43,9.12-5.13,12.61-9,3.92-4.3,4.81-8.62,5.71-14.24,1.34-6.91,1.33-5.62,7.41-9.47,10.86-7.29,5.7-13.38,4.9-23.77-1.23-11.69,12.2-14.2,16.15-23.7,4.84-12.08-5-24.26-8-35.09-2.1-9.1-2.91-18.62-1.13-27.7"/><g class="cls-6"><path class="cls-7" d="M67.39,42.85c-11.25,13.84-14.71,38.06-13,54.5,2.6,16.43,12.3,36.74,3.46,54.49C68.6,130,70,114.65,64.79,91.29a92.42,92.42,0,0,1,2.6-48.44"/></g><g class="cls-6"><path class="cls-7" d="M108.91,21.22c-6.06,19-7.79,41.52-8.65,63.15-.87,27.68-19.9,52.77-42.39,67.47,28.8-8.93,56.38-47.78,59.69-64.87,3.46-21.63-17.3-45-8.65-65.75"/></g><path class="cls-5" d="M20,7.86c10.69,5.16,17,14,17.1,26.16.37,6.34-2.11,13.42-.56,20.26s6.93,10,10.18,16.17c7.16,14-1,23.16-1.33,37.05C45,120.81,60.3,125.12,62.72,138.28c.84,4.57-1.76,8.51-4.85,13.56,2.82-7.08-2-12-6.29-16.39s-11.31-5.7-15.67-11.23c-9.33-11.59-3.66-23.47-.3-35.22,4.32-15.27-8.51-17.42-12.19-31.08C19.23,45.45,30.8,35.54,27.76,23,26.28,17.31,23.1,12.3,20,7.86"/><path class="cls-8" d="M70.91,16C77.17,35.67,94,61.94,88.3,88.52c-2.84,12.59-14,17.66-17.45,29.06-3.46,11.6.19,18.61-13,34.26,8.41-13.72,2.82-22.8,3.47-36.25.6-12.46,11.26-19.56,15.5-30.75s1.2-26-1-37C73.91,37.8,74,25.2,70.91,16"/><path class="cls-9" d="M15.46,86.61c1.3,5.93,3.75,8.36,4,12.69.28,6.34-3.75,15,.86,20.47,4.9,5.77,12.4,2.89,15,11.54,2.59,7.5,4.32,8.94,12.4,11,4.33.86,10.4,4.09,10.11,9.57.29-4.61-1.46-12.17-6.65-14.47-6.06-2.6-9.23-1.16-9.52-9.23-.28-8.37-2.88-9.52-10.67-12.69-6.92-2.89-9.23-6.06-10.67-13.56-.86-3.75-2-11.82-4.9-15.28"/><path class="cls-9" d="M60.92,152.58a15.63,15.63,0,0,1,4.34-8.67c4.15-4.21,10.66-6.38,17.75-7.79,12.37-2.9,24.93-15.43,37-14.16-7.33.32-9.79,7.7-14,11.59a40,40,0,0,1-17.17,8.85c-7.65,1.93-16.42,1-22.55,4.48a13,13,0,0,0-5.42,5.7"/><path class="cls-5" d="M178.51,94.3c9.52,12.12,10.38,23.8,7.35,39.81-1.73,7.79,2.6,13.41,2.6,21.2,0,8.22-5.19,14.28-8.65,20.77,1.29-6.93,3.89-14.28,2.59-21.21-1.3-7.78-6.49-14.27-5.19-22.49.87-7.79,5.19-14.71,4.33-22.93-.44-5.2-2.17-11.25-2.6-16.44"/><path class="cls-8" d="M202,116.16c-11.25,3.47-8.22,17.74-7.36,26.4.87,9.08-4.76,10.81-8.22,17.74-2.59,6.49-.42,9.39-6.49,16,7.79-6.69,8.66-12.54,13.41-16,6.06-4.76,10.39-4.76,10-14.28-.44-11.25-7.36-19.47-.44-30.72"/><path class="cls-9" d="M161.2,135c-1.3,3,13.41,12.12,16,16.44,3,5.63,4.33,18.18,2.6,24.67,0-12.12-2.17-15.15-10.39-22.5-5.62-5.19-6.92-12.55-8.22-19.47"/><path class="cls-5" d="M98,349.83c-5.28,1-7.65,10.11-8.84,15.81-3.47,15.25-2.86,25.62-13.86,37.29-8.69,9.41-7.87,16.09-6.57,27.69S65,449.12,58.38,457.67c-5.15,6.45-12.16,15.08-13.38,23.06,11-16.67,37.05-18.46,41.63-39.85C88.75,430.45,85,420.23,89,410.34c4.39-10.41,9.9-17.39,8.6-29-1.64-13.36-6-21.66,3.2-33.43"/><path class="cls-5" d="M75.13,291.69c6.39,31.37,1,55.15-11.68,83.69-6.63,14.54-11.6,29.7-9.25,45.65,2.44,12.55.74,21.62,1.5,34.12.26,10.21-3,20.15-11,25.58,15.4-25.05-2.67-43.49-3.82-66.9-1.33-27.37.31-48.19,16.16-69.26C69.35,328.49,69,309.08,74.55,292.24"/><g class="cls-6"><path class="cls-7" d="M44,281.53c-1.12,72.19,60.19,133.23.84,199.2,6.7-41,4.48-64.44-6.06-104.93C30,343.1,45,317.58,44.12,286.23"/></g><path class="cls-8" d="M45.23,480.73C21,445.85,61.68,432.34,83.71,416.33c21-15.25,51.42-46.4,52.46-74.28h0c4.48,20.48-16.87,58.28-32.69,75.13C88.67,433.26,63.81,429.92,50,445.23c-4.39,5.74-9.95,27.8-4.78,35.5Z"/><path class="cls-9" d="M3.62,366.35c13.83,8,21.87,31,23.39,39,2.89,15.17.64,20.73,1.21,30.88.38,9.15-.94,16.58,2.35,24.85,3,6.61,6.62,18.56,15,19.69-12.57-1.36-21.73-22.52-26.12-33-5.88-12.9-5.3-26-4.91-40.09a124.27,124.27,0,0,0-1.84-22.22c-1.39-7.25-6.21-12.83-9.12-19.11"/><polygon class="cls-1" points="0 505.12 64.9 467.77 101.01 462.58 111.39 437.2 171.96 375.48 213.49 355.29 260.21 303.38 281.55 319.53 286.74 333.37 283.28 343.32 304.05 395.67 330.31 459.55 418.26 570.29 0 570.29 0 505.12"/><polygon class="cls-2" points="243.72 333.37 230.22 373.98 234.83 399.13 196.18 425.08 157.54 444.7 101.01 462.58 111.39 437.2 171.96 375.48 213.49 355.29 260.21 303.38 243.72 333.37"/><polygon class="cls-4" points="101.01 462.58 157.54 444.7 196.18 425.08 234.83 399.13 213.93 428.4 235.47 428.07 170.8 491.42 0 552.56 0 517.74 47.24 512.01 49.1 504.69 77.36 507.57 80.79 497.7 109.22 478.59 129.95 467.17 101.01 462.58"/><polygon class="cls-3" points="240.6 425.08 240.6 425.08 215.66 535.27 162.61 570.3 0 570.29 0 552.56 31.79 530.64 77.36 515.64 101.01 493.15 128.12 486.8 137.35 468.35 169.65 456.88 209.65 443.11 240.6 425.08"/><polygon class="cls-4" points="418.26 570.3 330.31 459.56 283.28 343.33 286.77 440.62 295.35 458.29 303.21 499.41 317.91 518.44 286.77 514.13 259.95 500.27 248.7 486.23 248.7 478.15 233.67 468.92 240.6 425.08 230.79 442.39 209.65 462.58 215.23 479.88 186.98 497.13 186.98 511.03 157.43 524.49 168.5 549.1 163.04 570.3 418.26 570.3"/><polygon class="cls-3" points="260.21 303.38 260.21 335.1 270.02 343.18 234.83 399.13 230.22 373.98 243.72 333.37 260.21 303.38"/><polygon class="cls-2" points="64.9 467.77 64.41 468.81 47.06 491.42 0 505.12 64.9 467.77"/></g></g></svg>