<svg xmlns="http://www.w3.org/2000/svg" viewBox="0 0 333.92 347.69"><defs><style>.cls-1{fill:#9d9476;}.cls-2{fill:#877e69;}.cls-3{fill:#e5dcb8;}.cls-4{fill:#cfb38e;}.cls-5{fill:#e5cda8;}.cls-6{fill:#837c4b;}.cls-7{fill:#bcb935;}.cls-8{fill:#855738;}.cls-9{fill:#7a4d2f;}.cls-10{fill:#d2907d;}.cls-11{fill:#cc8464;}.cls-12{fill:#d18064;}.cls-13{fill:#c77154;}</style></defs><title>03_bg02</title><g id="圖層_2" data-name="圖層 2"><g id="_03_bg02" data-name="03_bg02"><polygon class="cls-1" points="333.92 108.73 275.49 121.06 246.99 144.29 161.5 160.12 97.71 213.95 39.05 247.73 69.67 284.67 39.79 314.8 17.94 324.78 0 347.69 333.92 347.67 333.92 108.73"/><polygon class="cls-2" points="97.71 269.56 101.56 290.24 155 347.25 136.41 301.07 142.3 279.42 167.83 238.59 97.71 269.56"/><polygon class="cls-3" points="39.05 247.73 97.71 213.95 161.5 160.12 246.99 144.29 275.49 121.06 333.92 108.73 333.92 217.04 253.51 268.15 215.5 268.15 177.49 279.42 142.3 279.42 167.83 238.59 97.71 269.56 39.05 247.73"/><polygon class="cls-4" points="327.7 189.69 272.63 220.75 237.51 268.15 245.88 288.98 333.92 280.24 333.92 187.06 327.7 189.69"/><polygon class="cls-5" points="246.99 144.29 306.39 136.89 333.92 143.58 333.92 108.73 275.49 121.06 246.99 144.29"/><polygon class="cls-4" points="39.79 314.8 17.94 324.78 0 347.69 66.69 323.43 69.67 284.67 39.79 314.8"/><polygon class="cls-2" points="66.69 323.43 0 347.69 94.79 347.69 66.69 323.43"/><path class="cls-6" d="M242.29,48.2c4.22,0,7.39,6.69,9.15,10.91,4.92,11.26,6,19.36,16.18,26.75,8.1,6,8.45,11.26,9.15,20.41s5.63,13.72,12,19.35c4.93,4.23,11.61,9.86,13.72,15.84-10.91-11.26-31.32-8.8-38-24.63-3.17-7.75-1.76-16.19-6.34-23.23-4.92-7.39-10.2-12-10.91-21.12-.7-10.55,1.41-17.59-7.39-25.33"/><path class="cls-6" d="M251.14,0c-.32,25.16,7.34,42.72,21.34,62.89,7.26,10.25,13.32,21.22,13.86,33.88,0,10,2.61,16.8,3.87,26.56,1.3,7.92,5.24,15.12,12.25,18.13-15.57-17.08-4.34-34-6.9-52.21-3-21.33-7.33-37.15-22.67-51.09C261,27.56,258.45,12.52,251.67.34"/><path class="cls-7" d="M302.3,142.52c13.57-30.5-19.82-34.94-39.19-44.06-18.47-8.67-46.52-28.25-51.43-49.61h0c-.44,16.47,21.61,42.5,36.3,53.18,13.8,10.23,32.5,4,45.41,13.78,4.23,3.78,11.77,20,8.91,26.71Z"/><path class="cls-7" d="M315.66,48c-9.5,8.18-12.32,27.16-12.32,33.52,0,12.14,2.55,16.1,3.61,24,1.06,7.12,3.17,12.66,1.85,19.53-1.32,5.54-2.38,15.3-8.71,17.42,9.5-2.91,13.46-20.59,15.31-29.3,2.63-10.82.26-20.85-2.12-31.67a98.15,98.15,0,0,1-1.84-17.42c0-5.81,2.9-10.82,4.22-16.1"/><path class="cls-8" d="M93.72,201.12C91.6,204.29,72.6,214.21,69.08,216c-5.28,2.11-7.74-1.05-12.67-1.05-1.41,0-10.55.7-11.61,1.4-5.28,3.17-.35,7.39,4.22,7.39-3.87,6.34-12,0-13-4.92-2.11-8.45,5.28-6.69,10.91-8.45,7.39-2.46,12-6,19.71-5,4.22.71,15.48-8.11,19.35-10.22Z"/><path class="cls-9" d="M122.36,158.24a5.42,5.42,0,1,1-5.41-5.42A5.42,5.42,0,0,1,122.36,158.24Z"/><path class="cls-10" d="M200.91,183.93c1.84,1.1,8.69,2.19,16.61.87s16.32-7.11,21.13-5.36c5.81,2.11,6.08,9-4.54,11.09,0,0,5.13-6.32,1.75-6.69s-10.21,4.47-16.47,5.9c-7.39,1.68-20.59,2.58-25.61,1S200.91,183.93,200.91,183.93Z"/><path class="cls-11" d="M119.48,151.15s-9-13.2,6.34-27.45,41.16-12.62,48-11.09c14.25,3.17,39.59,18,40.65,41.18S204,182.3,200.25,184.41,195,208.69,204.48,215s15.84,7.39,20.06,5.81,4.75-6.87-3.17-5.81,4.22-6.34,10-4.75,9.5,7.92-5.28,15.84-40.12,4.22-42.76,4.22a22.07,22.07,0,0,1-13.72.86c-7.92-1.92-16.37-5.61-15.31-9.31s-20.59,10.56-19.54,14.78,6.34-2.11,11.09,0,15.84,7.92,18,6.34,3.23-8.49-4.31-6-1.4-3.52,1.41-4.22,11.61,0,9.15,8.44-4.22,9.5-9.5,10.21-9.85-5.28-14.78-4.58-18.65,8.21-23.93,4.64-4.22-11.68-7.39-16.6-12.67-12-18.65-10.91S73,225.76,62.75,234.2s-20.77,19-30.62,16.19-9.5-17.24,0-17.95,7,1.06,5.28,1.76-6-.35-6.34,3.17.71,7.74,5.64,7.39,8.44-5.28,12-8.09,16.89-21.12,20.76-22.88,10.21-12,15.84-11.26-6.33-6-16.19-1.05S43.74,190.75,40.22,182s-2.11-33,8.1-45.32,17.59-9.5,21.11-6.68,4.93,16.54-5.28,16.89c0,0,6.34-7.39,3.88-10.56s-2.82-4.57-6-2.81-16.18,13-15.83,27.8,10.91,22.87,16.89,23.22,27.45-3.51,33.78-7.74S114.28,167.34,119.48,151.15Z"/><path class="cls-9" d="M166.34,164.75a5.41,5.41,0,1,1-5.41-5.41A5.41,5.41,0,0,1,166.34,164.75Z"/><path class="cls-9" d="M153.54,159.34s-3.69,3.25-3,6.94a6.64,6.64,0,0,0,5,5.46,8.65,8.65,0,0,1-2.53-4.49C152.5,165,152.57,162.85,153.54,159.34Z"/><path class="cls-12" d="M192.54,130.45c1.64.39,13.39,10.68,14.64,23.78.93,9.73-2.37,16.89-3.69,18.21s-3.23,3.27-2.78,0c1.19-8.62-.72-16.06-3-24.05C196.47,144,186.94,129.11,192.54,130.45Z"/><path class="cls-10" d="M194.4,220.23a88.66,88.66,0,0,0,5.48-11s2.43,4.39,4.75,5.86,8.67,4.94,10.88,5.5,5.54,1.16,7.28.68,5-1.8,4.72-4.36-8-2.43-8.47-2-.73-1.53,3-2.94,8.65-3.06,11.1-1.1,4.78,3.17,2.06,8.11-14.18,9.35-16.33,9.89-14.19,2.31-18.65,2.26-18.32-1-18.32-1S191.58,225,194.4,220.23Z"/><path class="cls-13" d="M154.07,222.07c-1.39-6.58,7.27-10,12.73-9.15a27.72,27.72,0,0,0,22-6.89c2.07-1.89,4.51-6.19,5.52-8,2.17-3.87,1.59-11.73-1.64-11-4.48,1.06-1.63,8.61-2.46,8-8.51-6-1.92-15.61,1.78-16,1.58-.18,7,1.89,7.9,3.47,0,0,4.1,6.1,3.4,11.5s-4,15.18-4,15.18a55.29,55.29,0,0,1-5,10.95,24.58,24.58,0,0,1-13,10s-4.2,1.56-6.43,1.34-8.7-.76-13.19-3S154.77,225.42,154.07,222.07Z"/><polygon class="cls-9" points="89.02 181.69 86.43 183.6 88.81 187.86 93.72 185.58 93.72 182.04 89.02 181.69"/><polygon class="cls-9" points="79.78 185.09 79.01 187.55 85.53 187.97 82.8 184.25 79.78 185.09"/><polygon class="cls-9" points="76.1 186.11 72.25 186.11 73.86 189.19 76.1 186.11"/><polygon class="cls-9" points="65.05 186.82 69.67 186.55 68.48 189.17 65.05 186.82"/><polygon class="cls-8" points="207.34 226.37 204.63 227.96 207.34 229.01 210.42 227.69 207.34 226.37"/><polygon class="cls-8" points="214.38 225.32 212.53 226.37 213.46 227.69 215.96 227.69 214.38 225.32"/><polygon class="cls-8" points="217.61 225.32 219.92 224 221.24 225.32 219.42 226.5 217.61 225.32"/><polygon class="cls-9" points="124.38 245.37 127.81 246.43 127.81 249.86 124.38 249.86 122.36 247.62 124.38 245.37"/><polygon class="cls-8" points="134.94 245.37 137.31 245.37 138.9 246.43 134.94 247.62 131.77 247.62 134.94 245.37"/><polygon class="cls-8" points="141.54 242.21 144.18 243.26 142.86 245.37 140.48 245.37 138.9 243.79 141.54 242.21"/><polygon class="cls-8" points="148.13 242.21 150.46 243.79 150.46 245.37 148.13 245.37 146.29 243.79 148.13 242.21"/><polygon class="cls-8" points="152.99 245.37 153.92 247.62 156.84 247.62 152.99 245.37"/><polygon class="cls-8" points="160.93 247.62 159.48 249.86 161.86 249.86 162.91 247.62 160.93 247.62"/></g></g></svg>