<svg xmlns="http://www.w3.org/2000/svg" viewBox="0 0 104.85 43.02"><defs><style>.cls-1{fill:#f1ecce;}</style></defs><title>chiasmodon_name</title><g id="圖層_2" data-name="圖層 2"><g id="chiasmodon_name"><path class="cls-1" d="M86.24.68C84,4.11,81.62,7.52,79.3,10.93c-1.09,1.6,1.51,3.1,2.59,1.51C84.21,9,86.54,5.63,88.83,2.2,89.9.59,87.31-.92,86.24.68Z"/><path class="cls-1" d="M83.9,8.56a67.67,67.67,0,0,1,7.93-.33l-1.45-1.1c.46,2.05-1.08,4.6-2.58,5.89s.66,3.38,2.12,2.13c2.35-2,4-5.71,3.36-8.82a1.51,1.51,0,0,0-1.45-1.1,67.67,67.67,0,0,0-7.93.33c-1.9.22-1.92,3.22,0,3Z"/><path class="cls-1" d="M81.74,14.66A52.94,52.94,0,0,1,80.47,26.5l2.89.79c.07-.48.22-.86.33-1.32.47-1.87-2.42-2.67-2.89-.8a11.74,11.74,0,0,0-.33,1.33c-.29,1.85,2.43,2.72,2.89.79a56.44,56.44,0,0,0,1.38-12.63,1.5,1.5,0,0,0-3,0Z"/><path class="cls-1" d="M84.46,16.62c2.63-.91,6.6-2,9.22-.52,1.43.78,1.61,2,1.58,3.54,0,.64-.1,3.36-.55,3.64-1.63,1-.13,3.62,1.51,2.59,2.86-1.77,2.67-8.53.8-10.87-3-3.77-9.43-2.63-13.36-1.28-1.81.63-1,3.53.8,2.9Z"/><path class="cls-1" d="M85.29,22.06l7.93-1.32c1.9-.32,1.1-3.21-.8-2.9l-7.93,1.33c-1.9.31-1.09,3.2.8,2.89Z"/><path class="cls-1" d="M88.68,16c-.25,2.52-.54,5-.94,7.54-.3,1.89,2.59,2.7,2.89.8.44-2.77.77-5.55,1.05-8.34.19-1.91-2.81-1.9-3,0Z"/><path class="cls-1" d="M82.64,28.34C87.07,27.66,91.5,27,95.87,26c1.88-.43,1.08-3.32-.8-2.9-4.37,1-8.8,1.64-13.22,2.32-1.91.29-1.1,3.18.79,2.89Z"/><path class="cls-1" d="M82.93,27.13c-2.39,4.91-6,9-9.35,13.25-1.17,1.51.94,3.64,2.12,2.12C79.18,38,83,33.78,85.52,28.64c.85-1.73-1.74-3.25-2.59-1.51Z"/><path class="cls-1" d="M85.1,29a31.27,31.27,0,0,1,.66,11.76c-.28,1.89,2.61,2.71,2.89.8A35.16,35.16,0,0,0,88,28.15c-.45-1.88-3.34-1.08-2.89.8Z"/><path class="cls-1" d="M91.71,28.28A32.73,32.73,0,0,1,93,39a1.5,1.5,0,0,0,3,0V37.8a1.5,1.5,0,0,0-3,0V39a1.5,1.5,0,0,0,3,0c0-3.91-.12-7.76-1.38-11.49-.61-1.82-3.51-1-2.89.79Z"/><path class="cls-1" d="M97.71,27.29c2.47,2.69,5.4,9.76,3.74,13.39-.8,1.75,1.78,3.27,2.59,1.52,2.3-5-.68-13.18-4.21-17-1.3-1.42-3.42.7-2.12,2.12Z"/><path class="cls-1" d="M5.8,11.93c2.75-.56,6.83-1.81,9.61-.83,4.29,1.53,1.06,6.31-.5,8.92C11,26.59,5.74,32.51.43,38c-1.34,1.39.77,3.51,2.12,2.12a130.08,130.08,0,0,0,11.6-13.65c2.55-3.46,6-7.84,6.42-12.28C21.43,5.76,9.89,8,5,9c-1.89.39-1.09,3.28.8,2.89Z"/><path class="cls-1" d="M9.43,17.42A41,41,0,0,1,12.32,21c1.08,1.59,3.68.09,2.6-1.51a48.67,48.67,0,0,0-3.37-4.22,1.52,1.52,0,0,0-2.12,0,1.54,1.54,0,0,0,0,2.13Z"/><path class="cls-1" d="M2.69,23.13c8.94,4,16.63,10.53,23.56,17.37,1.38,1.36,3.5-.76,2.13-2.12-7.09-7-15-13.72-24.18-17.84-1.74-.79-3.27,1.79-1.51,2.59Z"/><path class="cls-1" d="M49.72,1.55v9a1.5,1.5,0,0,0,3,0v-9a1.5,1.5,0,0,0-3,0Z"/><path class="cls-1" d="M51.94,7a55.17,55.17,0,0,0,6.9-.77c1.91-.27,1.1-3.17-.79-2.9A48.37,48.37,0,0,1,51.94,4c-1.93,0-1.94,3,0,3Z"/><path class="cls-1" d="M44,3c-.74,3.37-1.43,6.74-1.86,10.16-.1.84.78,1.47,1.5,1.5,5.68.28,11.32-.3,17-.36a1.5,1.5,0,0,0,0-3c-5.67.06-11.31.64-17,.36l1.5,1.5c.4-3.15,1.07-6.25,1.76-9.36C47.29,1.87,44.4,1.07,44,3Z"/><path class="cls-1" d="M46.31,14.16c-.76,1.26-1.55,2.49-2.35,3.7-.4.61-.8,1.21-1.22,1.79a7.17,7.17,0,0,0-.45.63c-.2.39-.67.36.21.06-1.82.62-1,3.51.8,2.9,1.23-.42,2-2,2.71-3q1.5-2.22,2.89-4.51a1.5,1.5,0,0,0-2.59-1.52Z"/><path class="cls-1" d="M46.48,20.56a27.53,27.53,0,0,1,4,2.52,1.5,1.5,0,0,0,2-.53A1.54,1.54,0,0,0,52,20.49,27.81,27.81,0,0,0,48,18c-1.72-.87-3.24,1.72-1.52,2.6Z"/><path class="cls-1" d="M56.28,14.88c-.74,2-2.26,3.67-3.47,5.43-1.09,1.6,1.51,3.1,2.59,1.51,1.38-2,2.93-3.82,3.77-6.14.65-1.82-2.24-2.6-2.89-.8Z"/><path class="cls-1" d="M57,19.47a30,30,0,0,1,4,2.66c1.4,1.33,3.52-.79,2.12-2.12a31.7,31.7,0,0,0-4.64-3.13c-1.62-1.07-3.12,1.53-1.52,2.59Z"/><path class="cls-1" d="M43.59,27.57c5.83.91,11.92.4,17.75-.3,1.89-.23,1.91-3.24,0-3-5.53.66-11.43,1.27-17,.41-1.88-.29-2.7,2.6-.79,2.89Z"/><path class="cls-1" d="M45.94,27.18c-1.17,2.37-2.21,4.8-3.25,7.23-.75,1.75,1.83,3.28,2.59,1.51,1-2.42,2.08-4.86,3.25-7.23.86-1.72-1.73-3.24-2.59-1.51Z"/><path class="cls-1" d="M46.84,32.48a18.55,18.55,0,0,1,4.76,4.11,1.5,1.5,0,0,0,2.12-2.12,21,21,0,0,0-5.36-4.58c-1.65-1-3.16,1.59-1.52,2.59Z"/><path class="cls-1" d="M56.28,27.9c-.53,2.28-2,4.49-3.11,6.51a1.5,1.5,0,0,0,2.59,1.51c1.28-2.24,2.83-4.69,3.41-7.23.43-1.87-2.46-2.68-2.89-.79Z"/><path class="cls-1" d="M57,32.25c1.68,1.34,3.79,2.83,4.83,4.76.92,1.7,3.51.18,2.59-1.52-1.17-2.18-3.4-3.84-5.3-5.36a1.55,1.55,0,0,0-2.12,0,1.51,1.51,0,0,0,0,2.12Z"/><path class="cls-1" d="M38.92,17.78c-.94,6.29-5.26,20.91,3.07,24,4.27,1.56,9.79,1.26,14.21,1,3.12-.2,7.76-.23,10.06-2.69,1.32-1.4-.8-3.53-2.12-2.12-1.84,2-6.65,1.76-9,1.86a39.42,39.42,0,0,1-10.9-.57C37,37.44,41,23.79,41.82,18.57c.28-1.88-2.61-2.7-2.9-.79Z"/><path class="cls-1" d="M63.27,18.82c1.11,6.63.47,13.47.43,20.15a1.5,1.5,0,0,0,3,0c0-7,.62-14-.53-20.95-.32-1.9-3.21-1.09-2.9.8Z"/></g></g></svg>