<svg xmlns="http://www.w3.org/2000/svg" xmlns:xlink="http://www.w3.org/1999/xlink" viewBox="0 0 747.13 570.69"><defs><style>.cls-1,.cls-35,.cls-41{fill:#fff;}.cls-1,.cls-2{opacity:0.1;}.cls-10,.cls-11,.cls-12,.cls-13,.cls-14,.cls-15,.cls-16,.cls-17,.cls-18,.cls-19,.cls-2,.cls-20,.cls-21,.cls-22,.cls-23,.cls-24,.cls-25,.cls-26,.cls-27,.cls-28,.cls-29,.cls-3,.cls-30,.cls-31,.cls-4,.cls-49,.cls-5,.cls-6,.cls-7,.cls-8,.cls-9{fill:#282824;}.cls-3{opacity:0.38;}.cls-4{opacity:0.39;}.cls-5{opacity:0.28;}.cls-6{opacity:0.31;}.cls-7{opacity:0.25;}.cls-8{opacity:0.27;}.cls-9{opacity:0.26;}.cls-10{opacity:0.37;}.cls-11{opacity:0.34;}.cls-12{opacity:0.3;}.cls-13{opacity:0.33;}.cls-14,.cls-41{opacity:0.4;}.cls-15{opacity:0.32;}.cls-16{opacity:0.21;}.cls-17{opacity:0.35;}.cls-18{opacity:0.15;}.cls-19{opacity:0.18;}.cls-20{opacity:0.17;}.cls-21{opacity:0.36;}.cls-22{opacity:0.12;}.cls-23{opacity:0.2;}.cls-24{opacity:0.19;}.cls-25{opacity:0.13;}.cls-26{opacity:0.14;}.cls-27{opacity:0.11;}.cls-28{opacity:0.06;}.cls-29{opacity:0.07;}.cls-30{opacity:0.09;}.cls-31{opacity:0.05;}.cls-32{fill:#a58d6e;}.cls-33{fill:#a8b8b7;}.cls-34{fill:#2b351b;}.cls-36{fill:#292925;}.cls-37{fill:#584a3e;}.cls-38{fill:url(#radial-gradient);}.cls-39{fill:url(#radial-gradient-2);}.cls-40,.cls-42{fill:#cec4bb;}.cls-40{opacity:0.8;}.cls-43{fill:url(#radial-gradient-3);}.cls-44{fill:#a28273;}.cls-44,.cls-49{opacity:0.5;}.cls-45{fill:#231815;}.cls-46{fill:#67473b;}.cls-47{fill:url(#radial-gradient-4);}.cls-48{fill:url(#radial-gradient-5);}</style><radialGradient id="radial-gradient" cx="294.1" cy="223.19" r="430.85" gradientTransform="translate(636.42 -70.9) rotate(90) scale(1 1.53)" gradientUnits="userSpaceOnUse"><stop offset="0.23" stop-color="#282824"/><stop offset="0.27" stop-color="#2e2c28"/><stop offset="1" stop-color="#a38c6d" stop-opacity="0.9"/></radialGradient><radialGradient id="radial-gradient-2" cx="288.9" cy="473.38" r="69.07" gradientTransform="matrix(0.26, 0.97, -3.18, 0.84, 1720.05, -202.82)" gradientUnits="userSpaceOnUse"><stop offset="0.8" stop-color="#fff" stop-opacity="0.4"/><stop offset="1" stop-color="#282824" stop-opacity="0"/></radialGradient><radialGradient id="radial-gradient-3" cx="291.09" cy="389.84" r="253.39" gradientTransform="matrix(-1, -0.05, 0.04, -0.75, 566.93, 695.85)" gradientUnits="userSpaceOnUse"><stop offset="0.8" stop-color="#cfc6bb"/><stop offset="1" stop-color="#282824" stop-opacity="0"/></radialGradient><radialGradient id="radial-gradient-4" cx="269.07" cy="413.91" r="200.29" gradientTransform="translate(797.89 144.83) rotate(90) scale(1 1.28)" gradientUnits="userSpaceOnUse"><stop offset="0.64" stop-color="#a38c6d" stop-opacity="0"/><stop offset="1" stop-color="#2e2c28"/></radialGradient><radialGradient id="radial-gradient-5" cx="171.58" cy="181.15" r="88.26" gradientTransform="matrix(0.73, 0.68, -1.26, 1.34, 275.36, -179.76)" gradientUnits="userSpaceOnUse"><stop offset="0.05" stop-color="#282824"/><stop offset="1" stop-color="#fff" stop-opacity="0.3"/></radialGradient></defs><title>chiasmodon</title><g id="圖層_2" data-name="圖層 2"><g id="chiasmodon"><path class="cls-1" d="M570.05,135.05c-8.51,2.69-19.81,4.19-35.74,4.64-36.51,1-39-18.26-92.82-45.65s-105-13.19-135.42-3.55c-26.63,8.43-54.42,23.85-78.29,30,0,0,3.72-12,9.05-20.06S246,84.91,246,84.91a64,64,0,0,1,20.54,1.27c10.15,2.53,15,5.32,26.12,1.52s17.76-6.34,22.07-10.91S337,55,338,54.47s15.22-8.11,45.4-7.86S434.14,59,447.58,68.93s41.59,34,50.22,45.14,20.54,16.49,34,19S570.05,135.05,570.05,135.05Z"/><path class="cls-2" d="M227.73,120.43c.5-1.59,1.05-3.17,1.62-4.74l.88-2.35.94-2.32c.3-.78.66-1.53,1-2.3s.66-1.53,1-2.28l1.14-2.24c.35-.75.8-1.46,1.22-2.19l5.17-8.57L242,91.29c.43-.71.88-1.42,1.28-2.14l2.38-4.39.08-.15h.15a66.82,66.82,0,0,1,11.49-.16c.95.06,1.91.12,2.86.27s1.91.22,2.85.39c1.88.38,3.78.74,5.61,1.26,3.7.94,7.34,2.14,11.07,2.57a26.43,26.43,0,0,0,2.8.16c.93,0,1.87-.06,2.81-.15l2.77-.48c.92-.16,1.82-.49,2.73-.72,1.82-.48,3.61-1.17,5.42-1.77s3.59-1.25,5.35-2a43.37,43.37,0,0,0,10.06-5.13c.37-.29.77-.55,1.12-.86l1-1c.69-.62,1.35-1.35,2-2,1.34-1.36,2.72-2.69,4.07-4q4.11-4,8.26-7.92c2.78-2.61,5.54-5.24,8.39-7.78.37-.32.77-.63,1.15-.94a10.94,10.94,0,0,1,1.27-.66c.89-.36,1.76-.78,2.66-1.1l2.7-1c.9-.32,1.83-.55,2.74-.82s1.84-.54,2.76-.79l2.8-.61,2.8-.62c.92-.22,1.88-.32,2.82-.48,1.88-.29,3.77-.62,5.66-.88l5.7-.52,2.85-.26c.95-.07,1.91-.07,2.86-.1l5.72-.15c1,0,1.91-.08,2.87,0l2.86.08c1.9,0,3.81.2,5.72.35A100.56,100.56,0,0,1,415,51.32l2.73.9,2.68,1c1.81.65,3.54,1.46,5.31,2.19,3.48,1.61,6.9,3.32,10.2,5.26s6.52,4,9.64,6.22l2.34,1.68,2.28,1.73c1.51,1.17,3.05,2.28,4.53,3.49,3,2.39,6,4.76,8.89,7.23,1.46,1.22,2.94,2.43,4.39,3.67l4.32,3.75c2.91,2.48,5.7,5.09,8.54,7.63,1.43,1.27,2.79,2.62,4.18,3.92s2.79,2.61,4.13,4l4,4.1c.33.35.67.68,1,1l.94,1.09,1.88,2.19c.63.74,1.24,1.44,1.83,2.19s1.2,1.48,1.84,2.16,1.28,1.37,2,2,1.38,1.29,2.09,1.92a52.63,52.63,0,0,0,20,10.4c7.3,2.16,14.93,2.9,22.51,3.36s15.23.62,22.85.56v.1c-7.62.18-15.25.17-22.88-.18s-15.28-1.07-22.66-3.18a53.45,53.45,0,0,1-20.38-10.38c-.72-.64-1.47-1.25-2.14-1.93s-1.38-1.34-2-2.07-1.29-1.43-1.89-2.17-1.24-1.47-1.85-2.18l-1.86-2.15-.93-1.07c-.32-.35-.66-.68-1-1l-4-4.08c-1.33-1.35-2.75-2.63-4.11-4s-2.75-2.64-4.18-3.89c-2.84-2.54-5.63-5.14-8.53-7.6l-4.32-3.74-4.37-3.68c-2.9-2.47-5.87-4.85-8.83-7.23-1.47-1.21-3-2.34-4.51-3.51l-2.27-1.74L445,67.68q-4.65-3.3-9.55-6.22c-3.27-1.93-6.65-3.67-10.08-5.29-1.75-.74-3.46-1.57-5.25-2.22l-2.66-1L414.8,52a99.16,99.16,0,0,0-22.28-4.66c-1.89-.16-3.78-.35-5.69-.38L384,46.87c-.94,0-1.9,0-2.85,0l-5.71.11c-.95,0-1.91,0-2.86.08l-2.84.24-5.69.49c-1.89.25-3.77.56-5.65.84-.94.16-1.89.25-2.82.46l-2.78.63-2.78.64c-.92.25-1.83.53-2.74.8s-1.83.51-2.73.84l-2.67,1c-.89.32-1.75.75-2.62,1.11a8.73,8.73,0,0,0-1.25.66l-1.05.89c-2.82,2.56-5.57,5.21-8.32,7.84s-5.47,5.3-8.19,8c-1.35,1.34-2.71,2.67-4,4-.68.68-1.3,1.37-2,2l-1.06,1c-.36.32-.76.59-1.15.89A43.82,43.82,0,0,1,302,84.76c-1.77.72-3.58,1.35-5.37,2s-3.57,1.31-5.44,1.81c-.93.25-1.84.59-2.79.76l-2.86.5c-1,.09-1.94.09-2.91.14s-1.93-.13-2.9-.19c-3.86-.48-7.49-1.71-11.17-2.67-1.83-.54-3.68-.9-5.54-1.29-.92-.18-1.87-.27-2.8-.41s-1.89-.22-2.83-.28a67.32,67.32,0,0,0-11.36.07l.23-.16-2.42,4.4c-.41.73-.87,1.42-1.3,2.14l-1.31,2.13L236,102.26c-.43.71-.89,1.4-1.26,2.14l-1.17,2.21c-.39.73-.72,1.5-1.08,2.25s-.72,1.5-1,2.27l-1,2.3-.92,2.33q-.9,2.33-1.7,4.7Z"/><path class="cls-1" d="M625.61,135.63s-2-5.07,1-15.72,6.59-25.87,0-36c-5.23-8-16.84,9.74-26.47,24.28,0,0-.07-27,2.8-39.15S624.77,27.09,632.88,18,653.51-.64,658.92,0s11.84,26.38,13.19,32.47,9.13,25.69,10.48,30.09-21,35.65-32.91,48.71C645.39,116,625.61,135.63,625.61,135.63Z"/><path class="cls-1" d="M640.83,167.58c15.72-3.55,15.22-4.56,18.77-11.66s-.51-12.17-13.7-13.19-20.29-7.1-20.29-7.1,35.34-30.09,40.08-32.46,36.7-24.39,42.6-23.33,6.09,3.72,15.56,3.38,17.24-6.16,21.64-3.42-1,19.65-4.74,31.15S735,129.88,725.2,135.63s-19.13,13.14-32.46,17.92-51.91,14-51.91,14"/><path class="cls-1" d="M518.28,419.71c4.36-22.79,6.34-45.39,4.37-61.41-4.06-33-4.06-64.42-18.76-87.75s-34-42.61-29.43-56.3c2.61-7.82,16.24-10.14,16.24-10.14,25.45-1.2,46.48-8.06,65-15.35,0,0-1.57,13.65-6.14,18.05s-7.1,2.87-23.84,8.45-32,10.65-26.88,27.39,27.9,39.06,37.54,50.72,19.88,34,19.32,52.75,0,18.63-10.7,34.42S518.28,419.71,518.28,419.71Z"/><path class="cls-3" d="M234.76,119.63a11.17,11.17,0,0,1,.34-2.29c.15-.67.36-1.45.63-2.27.15-.4.28-.82.46-1.23s.36-.84.53-1.26l.58-1.23a11.61,11.61,0,0,1,.64-1.16c.45-.74.9-1.41,1.31-2a14.49,14.49,0,0,1,1.47-1.79l.09,0-1,2c-.31.6-.66,1.31-1,2.07s-.73,1.59-1.1,2.42-.75,1.64-1.1,2.42l-.88,2.14c-.52,1.25-.82,2.11-.82,2.11Z"/><path class="cls-4" d="M241.63,116.08a2.88,2.88,0,0,0,.06-.33c.05-.21.09-.53.19-.92s.21-.88.35-1.43a17.76,17.76,0,0,1,.52-1.85c.22-.66.46-1.39.7-2.15s.6-1.56,1-2.36.72-1.6,1.11-2.44.78-1.67,1.18-2.5l2.5-4.83c.8-1.54,1.66-2.93,2.34-4.14s1.34-2.17,1.76-2.87.71-1.06.71-1.06l.09,0-6.5,13.31c-.82,1.67-1.66,3.31-2.41,4.88-.36.79-.72,1.54-1.06,2.26s-.58,1.44-.83,2.08c-.54,1.28-.89,2.39-1.18,3.14l-.41,1.21Z"/><path class="cls-5" d="M246.8,115s0-.1,0-.3,0-.49.07-.85.11-.8.17-1.3a15.38,15.38,0,0,1,.29-1.69c.14-.62.29-1.28.44-2s.41-1.44.68-2.19c.08-.2.12-.36.22-.59l.26-.54c.17-.36.35-.72.52-1.09.36-.74.71-1.48,1.07-2.23l2.31-4.27c.35-.7.77-1.33,1.15-1.94l1.08-1.71c.65-1.06,1.29-1.9,1.69-2.5s.69-.93.69-.93l.09,0-1.94,3.65c-.57,1.1-1.27,2.37-2,3.76s-1.44,2.86-2.18,4.33l-1.13,2.2a19.22,19.22,0,0,0-1,2.15c-.27.72-.54,1.42-.78,2.08s-.4,1.33-.58,1.92c-.36,1.18-.58,2.2-.77,2.89L246.9,115Z"/><path class="cls-4" d="M251.24,113.05a9.76,9.76,0,0,1-.06-2.38,8,8,0,0,1,.14-1.14,12.49,12.49,0,0,1,.23-1.26c.11-.42.21-.87.36-1.32a13.08,13.08,0,0,1,.46-1.33c.19-.44.39-.87.57-1.29a7.83,7.83,0,0,1,.67-1.21c.22-.39.46-.74.69-1.08a5.09,5.09,0,0,1,.7-.91,15.42,15.42,0,0,1,1.7-1.67l.08.06-1.26,1.93c-.4.56-.7,1.31-1.12,2.07a11,11,0,0,0-.57,1.2l-.51,1.27c-.38.84-.63,1.73-.92,2.54s-.47,1.6-.62,2.28c-.32,1.34-.44,2.26-.44,2.26Z"/><path class="cls-6" d="M259.23,110s0-.35.09-.94.2-1.45.42-2.44.48-2.17.85-3.39c.19-.61.33-1.26.58-1.88l.69-1.92c.47-1.27,1.07-2.51,1.63-3.67a12.59,12.59,0,0,1,.91-1.62l.87-1.42a6.53,6.53,0,0,1,.85-1.13l.72-.83c.4-.45.64-.69.64-.69l.08.07-.5.78-.57.9A9.15,9.15,0,0,0,265.8,93c-.23.45-.47.94-.73,1.46s-.54,1.06-.77,1.65c-.47,1.18-1.05,2.4-1.5,3.68-.24.63-.48,1.26-.71,1.88s-.45,1.24-.66,1.84c-.42,1.19-.8,2.32-1.11,3.28-.62,1.93-1,3.23-1,3.23Z"/><path class="cls-3" d="M263.92,108.23a4.69,4.69,0,0,1,0-.67,15.28,15.28,0,0,1,.07-1.78,18.34,18.34,0,0,1,.38-2.46c.11-.44.22-.9.36-1.36s.27-.92.44-1.38A24,24,0,0,1,266.3,98c.21-.41.46-.78.67-1.13a10,10,0,0,1,.66-1c.43-.6.88-1,1.15-1.36s.47-.48.47-.48l.09,0s-.48.83-1.18,2.07c-.19.3-.33.67-.51,1s-.35.77-.54,1.17c-.39.81-.67,1.72-1,2.6-.19.44-.31.9-.47,1.34s-.3.88-.43,1.31c-.24.86-.49,1.65-.65,2.35-.36,1.38-.52,2.32-.52,2.32Z"/><path class="cls-7" d="M275.84,103.41a8.89,8.89,0,0,1-.06-1.77,13.56,13.56,0,0,1,.21-1.75c.06-.32.11-.65.2-1l.27-1a13.7,13.7,0,0,1,.72-1.89,9.34,9.34,0,0,1,.87-1.58,3.94,3.94,0,0,1,.44-.59,5.25,5.25,0,0,1,.41-.41,3.82,3.82,0,0,1,.37-.32l.08,0-.21.41c-.08.13-.16.29-.26.47a4.81,4.81,0,0,0-.26.63,32.64,32.64,0,0,0-1.19,3.52c-.82,2.59-1.49,5.21-1.5,5.21Z"/><path class="cls-3" d="M279.26,101.63a7.6,7.6,0,0,1,0-1.68,9.87,9.87,0,0,1,.26-1.64c.08-.3.12-.61.22-.91s.21-.61.31-.92a13.86,13.86,0,0,1,.78-1.75,10.27,10.27,0,0,1,.92-1.42,5.42,5.42,0,0,1,.84-.9,4.43,4.43,0,0,1,.36-.3l.08,0-.21.39c-.12.25-.34.58-.52,1s-.43.94-.64,1.5-.46,1.15-.66,1.76c-.9,2.38-1.64,4.83-1.64,4.83Z"/><path class="cls-8" d="M284.71,99.48a4.55,4.55,0,0,1-.21-1.29,7.15,7.15,0,0,1,.05-1.28,3.4,3.4,0,0,1,.11-.7l.18-.72a12.62,12.62,0,0,1,.52-1.35,4,4,0,0,1,.36-.6c.11-.18.25-.35.37-.51a4.76,4.76,0,0,1,.91-.92l.09,0-.44,1.12c-.13.33-.3.72-.45,1.14s-.25.9-.38,1.36c-.31.91-.53,1.85-.72,2.55s-.29,1.17-.29,1.17Z"/><path class="cls-9" d="M299.29,94.92a6.68,6.68,0,0,1-.24-1.37,7.43,7.43,0,0,1,0-1.34,6.32,6.32,0,0,1,.06-.75c0-.25.07-.51.11-.76a15,15,0,0,1,.38-1.47A8.75,8.75,0,0,1,300.1,88a5.77,5.77,0,0,1,.72-1.18l.1,0s-.36,2-.71,4.07-.81,4-.81,4Z"/><path class="cls-10" d="M302.72,93.16a5.86,5.86,0,0,1-.25-1.33,9.43,9.43,0,0,1,0-1.31c0-.24,0-.48.06-.73s.08-.49.11-.74a14.71,14.71,0,0,1,.39-1.42,7.73,7.73,0,0,1,.5-1.22,5.84,5.84,0,0,1,.72-1.13l.1,0s-.35,2-.71,4-.81,3.93-.81,3.93Z"/><path class="cls-4" d="M306.5,87.58a2.91,2.91,0,0,1,.3.84,3.32,3.32,0,0,1,.07.79,3.11,3.11,0,0,1,0,.43l-.08.43a4.22,4.22,0,0,1-.31.82,2.92,2.92,0,0,1-.44.66,2.82,2.82,0,0,1-.66.6l-.09,0,.52-2.29.62-2.27Z"/><path class="cls-3" d="M310.71,89.83s0-.27.15-.71.27-1.1.54-1.84a25.2,25.2,0,0,1,1-2.5c.38-.9.88-1.82,1.36-2.74s1.08-1.8,1.63-2.61,1.19-1.49,1.68-2.11,1-1,1.37-1.35.55-.48.55-.48l.08.07-1.5,2.09c-.42.66-.9,1.43-1.42,2.24s-1,1.74-1.5,2.64c-1,1.81-2,3.63-2.68,5s-1.13,2.32-1.13,2.32Z"/><path class="cls-8" d="M323.27,86.79l.18-.43c.13-.27.32-.68.6-1.18s.64-1.08,1.06-1.76.87-1.45,1.44-2.23l1.83-2.55,1-1.39c.18-.24.33-.47.55-.72l.59-.69,4.91-5.76,5.09-5.61c.8-.91,1.62-1.74,2.42-2.52l2.23-2.21c1.37-1.37,2.59-2.44,3.41-3.22s1.33-1.19,1.33-1.19l.07.07-4.36,4.74c-1.3,1.44-2.86,3.06-4.44,4.9l-5,5.7-5,5.68c-.82.89-1.51,1.83-2.2,2.69l-2,2.44c-.6.76-1.1,1.49-1.57,2.12s-.89,1.18-1.18,1.66l-.7,1.1c-.15.26-.22.4-.22.4Z"/><path class="cls-11" d="M317.43,88.57l.09-.38c.08-.24.15-.61.33-1s.35-1,.61-1.59a19.31,19.31,0,0,1,.94-2c.36-.73.83-1.47,1.3-2.28a26,26,0,0,1,1.64-2.43c.6-.82,1.31-1.6,2-2.43s1.41-1.58,2.13-2.39l4.37-4.48c1.39-1.44,2.78-2.69,3.93-3.81s2.18-2,2.87-2.6,1.12-1,1.12-1l.08.07L327.19,74.72c-.73.78-1.48,1.53-2.17,2.32s-1.38,1.55-2,2.35-1.22,1.54-1.72,2.31-1,1.46-1.4,2.16a31.27,31.27,0,0,0-1.82,3.4,13.88,13.88,0,0,0-.57,1.34Z"/><path class="cls-6" d="M352.18,81.08s0-.14.1-.4a9.47,9.47,0,0,1,.37-1.13,13.88,13.88,0,0,1,.7-1.72c.3-.66.64-1.39,1-2.18l1.5-2.42.83-1.35c.31-.43.65-.84,1-1.27l4.23-5.35,4.4-5.21c.69-.85,1.44-1.6,2.12-2.34l1.93-2.06c1.18-1.28,2.26-2.28,3-3s1.16-1.12,1.16-1.12l.08.07L370.84,56c-1.12,1.34-2.43,2.88-3.82,4.56l-4.3,5.3-4.33,5.27-1,1.24-.87,1.26L354.91,76,353.73,78a14,14,0,0,0-.83,1.63,15,15,0,0,0-.63,1.46Z"/><path class="cls-12" d="M365.11,73.22s0-.11.1-.31a7.21,7.21,0,0,1,.32-.84,23.61,23.61,0,0,1,1.41-2.92c.16-.3.33-.6.51-.92l.6-.94c.41-.64.84-1.33,1.33-2s1-1.37,1.53-2.06,1.06-1.39,1.6-2.09l3.32-4c1.06-1.27,2.15-2.38,3-3.37s1.71-1.74,2.25-2.3.88-.84.88-.84l.08.06L373.3,61.76l-1.65,2.05c-.54.68-1.09,1.33-1.57,2l-1.42,1.92-.65.89c-.2.29-.39.58-.56.86l-1,1.51c-.28.45-.5.87-.69,1.2-.39.67-.57,1.07-.57,1.07Z"/><path class="cls-13" d="M335.19,84.12a12.77,12.77,0,0,1,.93-2.19c.32-.64.72-1.36,1.18-2.11.25-.37.49-.76.77-1.13l.83-1.13a26.47,26.47,0,0,1,1.77-2.1c.63-.64,1.23-1.2,1.77-1.67a16.54,16.54,0,0,1,1.88-1.45l.08.07-1.5,1.78L341.37,76c-.57.66-1.1,1.43-1.67,2.16s-1.15,1.47-1.67,2.17-1,1.36-1.41,1.93c-.83,1.12-1.35,1.9-1.35,1.9Z"/><path class="cls-5" d="M330.37,84.12a4.6,4.6,0,0,1,.06-.46,6.19,6.19,0,0,1,.34-1.15,5,5,0,0,1,.3-.74,5.36,5.36,0,0,1,.39-.8c.16-.26.31-.54.5-.8l.57-.79.61-.75a4.71,4.71,0,0,1,.68-.66,11.76,11.76,0,0,1,1.33-1,7.78,7.78,0,0,1,1.44-.82l.07.08-1.07,1.16-1.1,1.19a8.17,8.17,0,0,0-.6.7l-.56.76-1.14,1.47c-.34.48-.64,1-.9,1.34s-.48.73-.61,1l-.22.38Z"/><path class="cls-8" d="M405.06,73.21a9.78,9.78,0,0,1,.58-1.75,16.6,16.6,0,0,1,.81-1.66c.16-.29.32-.6.51-.89l.6-.89c.43-.57.85-1.15,1.29-1.65a11,11,0,0,1,1.33-1.32,10,10,0,0,1,1.48-1.1l.08.07s-.44.56-1.08,1.41c-.32.42-.72.9-1.08,1.46s-.79,1.13-1.19,1.71c-.84,1.15-1.63,2.33-2.24,3.2l-1,1.47Z"/><path class="cls-14" d="M406.2,78.23a8.69,8.69,0,0,1,.36-.8c.26-.49.58-1.22,1.07-2a31.55,31.55,0,0,1,1.74-2.72c.34-.48.68-1,1.08-1.46l1.18-1.47c.4-.49.85-.93,1.27-1.4s.86-.88,1.27-1.3.89-.77,1.31-1.12l1.19-1a8.2,8.2,0,0,1,1.1-.72l.87-.52c.47-.27.76-.41.76-.41l.06.08-.66.55-.75.63c-.29.25-.63.51-1,.83-.66.66-1.44,1.42-2.26,2.26L413.63,69c-.41.46-.84.91-1.23,1.4-.79,1-1.62,1.9-2.33,2.83s-1.4,1.77-1.95,2.53c-1.13,1.49-1.83,2.52-1.83,2.52Z"/><path class="cls-15" d="M409.49,83.11s.07-.33.23-.88.42-1.34.78-2.26a13,13,0,0,1,.65-1.47c.24-.51.5-1,.79-1.6a11.56,11.56,0,0,1,1-1.64c.36-.55.73-1.1,1.1-1.65l.58-.81c.23-.31.42-.51.63-.77.41-.49.85-1,1.25-1.41a30.73,30.73,0,0,1,2.44-2.35,9.43,9.43,0,0,1,1-.86l.84-.62a4.35,4.35,0,0,1,.56-.37l.2-.13.07.08s-.24.22-.64.62-1,1-1.64,1.69-1.44,1.54-2.18,2.51L416,72.65a14.94,14.94,0,0,0-1.15,1.56l-1.11,1.59a16.8,16.8,0,0,0-1,1.57l-.88,1.51c-.28.49-.56.93-.77,1.37L410,82.35c-.25.51-.38.8-.38.8Z"/><path class="cls-3" d="M420.66,86.78s.17-.37.5-1,.79-1.49,1.4-2.5,1.39-2.17,2.24-3.4c.43-.6.86-1.25,1.33-1.87s.93-1.27,1.43-1.88l1.51-1.8c.49-.6,1-1.16,1.52-1.71s1-1.07,1.51-1.54.95-.93,1.42-1.32a12,12,0,0,1,1.3-1c.42-.27.76-.52,1.07-.69.65-.31,1-.45,1-.45l0,.09-.9.58c-.28.2-.58.49-.95.8s-.73.71-1.15,1.11c-1.65,1.69-3.63,4.14-5.61,6.6-.51.6-1,1.23-1.45,1.84s-.94,1.22-1.38,1.81c-.9,1.17-1.75,2.25-2.45,3.2l-2.32,3.19Z"/><path class="cls-14" d="M427.25,89.19a10.83,10.83,0,0,1,.78-1.73c.27-.49.61-1,1-1.62.2-.28.39-.58.62-.86l.67-.87c.48-.55,1-1.11,1.46-1.59a14.5,14.5,0,0,1,1.4-1.29,11.24,11.24,0,0,1,1.56-1.11l.07.06-3.7,4.57-3.78,4.5Z"/><path class="cls-5" d="M434.74,91.72s.13-.31.41-.84.66-1.29,1.2-2.15,1.14-1.89,1.86-2.93c.37-.51.73-1.06,1.14-1.59l1.21-1.62c.41-.53.89-1,1.33-1.56s.88-1,1.36-1.49c.94-.83,1.89-1.55,2.67-2.19s1.51-1.11,2-1.47.79-.52.79-.52l.07.07-2.42,2.35-2.47,2.4c-.41.48-.82,1-1.25,1.49s-.86,1-1.27,1.55c-1.65,2.12-3.31,4.25-4.51,5.87l-2,2.69Z"/><path class="cls-14" d="M389.59,72.34a10.69,10.69,0,0,1,.93-1.79,18,18,0,0,1,1.15-1.66c.44-.6,1-1.17,1.5-1.76s1.11-1.12,1.67-1.6a16.45,16.45,0,0,1,1.64-1.22,12.31,12.31,0,0,1,1.74-1l.07.08-1.39,1.36-1.43,1.4-1.56,1.68c-2.17,2.24-4.24,4.58-4.24,4.58Z"/><path class="cls-14" d="M382.49,76.13s.13-.32.4-.84.65-1.27,1.18-2.12,1.15-1.84,1.89-2.85c.37-.5.73-1,1.16-1.53l1.26-1.55c.88-1,1.81-2,2.7-2.85.44-.44.94-.81,1.38-1.19l1.25-1a9.22,9.22,0,0,1,1.15-.77l.91-.56c.51-.3.8-.45.8-.45l.06.09-.69.58-.8.67c-.3.26-.67.53-1,.88L393,63.74c-.39.4-.83.81-1.25,1.27-.82.92-1.73,1.88-2.58,2.9s-1.73,2-2.49,3-1.51,1.87-2.1,2.66c-1.22,1.57-2,2.65-2,2.65Z"/><path class="cls-5" d="M455.91,95.91a7.26,7.26,0,0,1,.42-1.56A10,10,0,0,1,457,92.9a8.85,8.85,0,0,1,.46-.78l.52-.77a12.6,12.6,0,0,1,1.2-1.4,8.24,8.24,0,0,1,1.24-1,4.77,4.77,0,0,1,1-.58l.42-.16.06.08-.3.29a8.07,8.07,0,0,0-.78.78c-.29.36-.66.74-1,1.2s-.73.94-1.08,1.44c-1.46,2-2.79,4-2.79,4Z"/><path class="cls-14" d="M460.47,105.43s0-.23.1-.62.18-.94.33-1.57a22.67,22.67,0,0,1,.64-2.18c.15-.38.28-.8.46-1.19s.36-.81.54-1.22.39-.8.63-1.18.46-.74.69-1.1a7.23,7.23,0,0,1,.73-1c.24-.31.49-.58.72-.83a4.38,4.38,0,0,1,.69-.63c.21-.19.41-.33.56-.45.32-.24.51-.36.51-.36l.08.07-.38.47-.43.54a6.55,6.55,0,0,0-.53.71c-.35.56-.8,1.17-1.18,1.9l-.6,1.11c-.22.37-.38.78-.58,1.17-.79,1.56-1.46,3.17-2,4.38s-.91,2-.91,2Z"/><path class="cls-13" d="M470.36,113a10.09,10.09,0,0,1,.61-1.81,14.33,14.33,0,0,1,.85-1.72c.18-.3.34-.63.54-.93s.41-.61.62-.92a21.8,21.8,0,0,1,1.37-1.71,12.55,12.55,0,0,1,1.39-1.36,6.34,6.34,0,0,1,1.14-.81,4.35,4.35,0,0,1,.47-.26l.06.07-.33.38a12.36,12.36,0,0,0-.87,1c-.69.86-1.56,2-2.4,3.27-1.73,2.39-3.36,4.85-3.36,4.85Z"/><path class="cls-7" d="M475.18,115.57a4.21,4.21,0,0,1,.05-1.25,7.15,7.15,0,0,1,.31-1.18,8.36,8.36,0,0,1,.58-1.26,10.39,10.39,0,0,1,.78-1.14,7.74,7.74,0,0,1,.91-.85,4.67,4.67,0,0,1,1.05-.67l.08.07-.63.95-.65,1c-.22.37-.43.78-.66,1.18s-.47.78-.67,1.16-.39.74-.54,1c-.33.61-.52,1-.52,1Z"/><path class="cls-4" d="M605.57,100s0-.51,0-1.4,0-2.18,0-3.71.11-3.32.29-5.22.36-3.94.58-6,.6-4,.92-5.93c.15-.94.35-1.85.55-2.71s.38-1.67.57-2.41a32.82,32.82,0,0,1,1.13-3.56c.36-.84.58-1.29.58-1.29l.1,0s-.16.49-.42,1.33-.52,2.1-.8,3.6c-.57,3-1.14,7-1.62,11.07-1,8.07-1.77,16.18-1.77,16.18Z"/><path class="cls-16" d="M611.27,92.07s0-.58,0-1.58.09-2.43.26-4.13.28-3.7.58-5.82.57-4.38.9-6.63.8-4.49,1.2-6.59.92-4,1.31-5.71.91-3,1.2-4,.52-1.48.52-1.48l.1,0L617,57.7c-.21,1-.58,2.35-.87,4s-.7,3.63-1,5.74-.74,4.35-1.08,6.6c-.73,4.49-1.38,9-1.87,12.38l-.8,5.63Z"/><path class="cls-10" d="M624.05,83.9s.28-1.33.79-3.65c.27-1.15.58-2.56.95-4.17s.77-3.44,1.3-5.4c1-4,2.21-8.55,3.66-13.43l2.35-7.5c.89-2.53,1.76-5.11,2.7-7.67l1.62-3.77.82-1.89c.31-.6.62-1.19.92-1.79,1.23-2.36,2.44-4.7,3.6-7s2.44-4.38,3.59-6.41l3.3-5.69c2.08-3.51,3.94-6.34,5.19-8.36l2-3.15.09.06-1.89,3.21-4.87,8.53c-1,1.78-2,3.71-3.17,5.76s-2.34,4.17-3.46,6.45-2.34,4.61-3.54,7l-.91,1.79-.79,1.86c-.52,1.24-1,2.49-1.57,3.74-1,2.53-1.84,5.1-2.74,7.6l-2.41,7.46-2.11,7-1.81,6.31c-.56,2-1,3.75-1.47,5.35s-.81,3-1.11,4.13c-.61,2.29-1,3.6-1,3.6Z"/><path class="cls-17" d="M622,83.91s0-.75.12-2,.21-3.16.46-5.37.48-4.81.89-7.56.81-5.7,1.28-8.63,1.08-5.85,1.63-8.58,1.23-5.26,1.77-7.42c.28-1.09.51-2.08.83-2.94l.78-2.23c.43-1.23.7-1.92.7-1.92l.1,0s-.2.71-.54,2c-.17.63-.38,1.38-.62,2.26s-.42,1.87-.67,3-.47,2.26-.74,3.51-.48,2.57-.74,3.94c-.51,2.74-1,5.66-1.5,8.59s-1,5.85-1.41,8.6-.82,5.31-1.16,7.51c-.65,4.4-1.08,7.34-1.08,7.34Z"/><path class="cls-2" d="M622,86.8s.17-1.07.49-2.92.79-4.51,1.44-7.67,1.35-6.86,2.25-10.79L629,53.1c.54-2.09,1.08-4.17,1.62-6.22s1.08-4.07,1.62-6c.27-1,.52-1.94.81-2.87s.62-1.84.92-2.73.57-1.77.95-2.56.68-1.56,1-2.3c1.29-3,2.46-5.38,3.24-7.1s1.27-2.67,1.27-2.67l.09,0s-1.62,4-4,10c-.31.75-.62,1.52-1,2.33s-.56,1.67-.86,2.54-.58,1.78-.83,2.72-.5,1.89-.76,2.87c-.52,1.94-1.06,3.95-1.56,6s-1,4.14-1.54,6.23c-4.08,16.7-7.89,33.48-7.89,33.48Z"/><path class="cls-8" d="M614.27,89.21s0-.28,0-.75-.05-1.16,0-2,.08-1.75.18-2.75c.06-.49.09-1,.19-1.53l.27-1.58c.22-1.06.43-2.11.69-3.09s.55-1.87.77-2.65.52-1.39.67-1.84.3-.69.3-.69l.1,0s-.77,4.2-1.53,8.41c-.43,2.09-.77,4.21-1,5.79s-.44,2.64-.44,2.64Z"/><path class="cls-4" d="M619,84.68s0-.68,0-1.86,0-2.87.15-4.88.18-4.38.42-6.89.47-5.19.72-7.88.67-5.34,1-7.84.81-4.83,1.16-6.82c.19-1,.36-1.9.57-2.7s.39-1.5.53-2.07c.31-1.15.51-1.79.51-1.79l.09,0-.33,1.82c-.1.58-.23,1.28-.37,2.09s-.25,1.72-.4,2.72c-.28,2-.61,4.33-.89,6.84s-.61,5.17-.88,7.84c-1.21,10.7-2.2,21.41-2.2,21.41Z"/><path class="cls-18" d="M622,128.49l2.6-2.47c1.66-1.55,4-3.85,6.82-6.51l4.59-4.32c1.61-1.55,3.31-3.19,5.1-4.84l5.44-5.18c1.83-1.77,3.65-3.63,5.49-5.45.92-.91,1.79-1.86,2.68-2.79l1.32-1.39c.4-.42.82-1,1.22-1.45.81-1,1.63-2,2.4-3l2.17-3c.36-.48.71-1,1.06-1.45l1-1.45c.67-1,1.33-1.9,2-2.81l3.5-5.23c2.13-3.26,3.9-6,5.15-7.89l1.9-3,.09,0s-.65,1.12-1.78,3.1-2.81,4.77-4.85,8.09l-3.38,5.32c-1.27,1.85-2.51,3.86-4,5.82l-2.18,3c-.76,1-1.58,2-2.38,3-.4.5-.79,1-1.22,1.5l-1.33,1.41c-.89,1-1.77,1.91-2.68,2.84-1.86,1.82-3.7,3.66-5.56,5.43L641.74,111c-3.59,3.3-7,6.36-9.88,9-5.83,5.2-9.76,8.61-9.76,8.61Z"/><path class="cls-13" d="M624.06,117.67l2.3-2.3c1.45-1.48,3.56-3.55,6-6.11l4-4.11c1.44-1.43,2.81-3.06,4.34-4.67l4.63-5,4.46-5.43,4.54-5.4,4.2-5.37c1.35-1.75,2.71-3.4,4-5S665,71.19,666,69.79c2.17-2.81,4.08-5.07,5.34-6.71s2-2.54,2-2.54l.09.06-1.91,2.64c-1.2,1.68-3,4.05-5.07,6.91-1.06,1.42-2.18,3-3.42,4.6l-3.89,5.08-4.16,5.43c-1.49,1.79-3,3.62-4.5,5.44s-3,3.63-4.53,5.42l-4.69,5c-1.54,1.6-3,3.2-4.45,4.6l-4.1,4c-1.25,1.25-2.44,2.36-3.51,3.33l-2.73,2.54c-1.53,1.4-2.42,2.18-2.42,2.18Z"/><path class="cls-19" d="M624.06,120.71l1-1c.65-.62,1.55-1.54,2.69-2.57s2.44-2.26,3.9-3.51,3-2.56,4.54-3.91,3.17-2.58,4.63-3.82c.71-.63,1.46-1.18,2.15-1.73s1.3-1.09,1.89-1.57,1.15-.92,1.62-1.32l1.19-1.08c.66-.59,1.07-.92,1.07-.92l.08.06-1,1-1.08,1.2c-.44.45-1,.92-1.52,1.45s-1.16,1.1-1.8,1.7l-2.07,1.83c-1.43,1.28-3,2.61-4.55,3.93-3.14,2.63-6.32,5.2-8.72,7.12l-4,3.18Z"/><path class="cls-5" d="M625.58,108.27s.4-.53,1.14-1.44,1.78-2.2,3.09-3.69,2.8-3.29,4.49-5.11l5.26-5.74,5.4-5.61c.85-.91,1.72-1.74,2.53-2.54s1.55-1.58,2.24-2.29c1.37-1.43,2.6-2.56,3.42-3.39s1.34-1.26,1.34-1.26l.08.07-4.39,5c-1.3,1.5-2.87,3.21-4.57,5L640.3,93l-5.36,5.66c-1.72,1.79-3.32,3.48-4.7,4.91l-4.59,4.79Z"/><path class="cls-18" d="M626.25,99.27l2.09-2.34c1.35-1.46,3.22-3.61,5.55-6.1l3.72-4.06c1.33-1.44,2.69-3,4.15-4.54s3-3.18,4.44-4.84l2.27-2.5,2.23-2.56L653,69.8l2.12-2.58c1.43-1.68,2.71-3.51,4-5.19,2.57-3.41,5.07-6.51,7.16-9.21s3.93-4.88,5.17-6.44,2-2.41,2-2.41l.09.06-6.77,9.15-6.94,9.37c-1.29,1.7-2.53,3.52-4,5.25l-2.12,2.64L651.46,73l-2.26,2.55L646.9,78c-1.52,1.64-3,3.26-4.5,4.8-2.93,3.1-5.7,6-8.08,8.41-4.77,4.88-8,8.09-8,8.09Z"/><path class="cls-20" d="M625.62,93.12s0,0,.06-.08l.26-.28c.22-.25.55-.62,1-1.1.85-.93,2-2.32,3.44-3.91s3.09-3.5,4.94-5.46L641,76.11,646.85,70c1.85-2,3.65-3.71,5.12-5.27S654.74,62,655.56,61s1.29-1.49,1.29-1.49l.09,0s-.39.62-1.17,1.61-1.93,2.36-3.34,4c-2.84,3.24-6.74,7.46-10.68,11.64s-8,8.29-11,11.36l-3.68,3.69c-.45.43-.8.78-1.05,1l-.28.26a.3.3,0,0,1-.16.08Z"/><path class="cls-19" d="M641.44,71.69l-14.65,17-1-.82c3.47-5.46,7-10.89,10.52-16.33,1.73-2.74,3.43-5.49,5.19-8.22l2.63-4.07c.87-1.36,1.77-2.72,2.62-4.09l5.09-8.27,2.59-4.11c.85-1.37,1.75-2.72,2.57-4.11,1.69-2.77,3.35-5.56,5.08-8.29l2.58-4.13,1.28-2.06.64-1,.31-.52.16-.26s0-.12.07-.08.1,0,.08,0v0l0,0,0,.06-.09-.06,0-.06,0,0v0s0-.07.1,0,0,.11-.07.18l-.15.26-.3.53-.6,1.06-1.21,2.11-2.43,4.2L657.54,39c-.8,1.4-1.67,2.77-2.5,4.17l-2.51,4.15-5,8.32c-.84,1.38-1.73,2.74-2.59,4.11l-2.61,4.1L637.06,72c-3.57,5.41-7.09,10.85-10.71,16.23l-.12-.09L630,84c1.25-1.38,2.49-2.78,3.77-4.15l7.61-8.22Z"/><path class="cls-21" d="M624.05,86.78s.46-.94,1.32-2.56,2-4,3.58-6.71,3.25-6,5.22-9.38,4.06-7,6.16-10.67l6.41-10.55c2-3.36,4-6.43,5.71-9.1s3.16-4.81,4.15-6.35,1.6-2.38,1.6-2.37l.09.05L624.14,86.83Z"/><path class="cls-22" d="M622,89.2s.29-.94.84-2.55,1.33-3.94,2.37-6.68,2.18-6,3.55-9.36,2.82-7,4.31-10.64,3.1-7.18,4.6-10.52,3-6.42,4.3-9.06c.64-1.31,1.23-2.52,1.81-3.56l1.52-2.71c.84-1.49,1.34-2.32,1.34-2.32l.09,0-1.19,2.41c-.38.77-.84,1.69-1.36,2.76s-1.05,2.3-1.67,3.63c-1.21,2.67-2.6,5.79-4,9.16s-3,7-4.48,10.56c-3,7.19-6,14.42-8.23,19.83l-3.68,9Z"/><path class="cls-5" d="M621.51,91.73s.53-1.18,1.45-3.26,2.19-5.06,3.85-8.58,3.51-7.66,5.63-12l6.64-13.72c2.33-4.64,4.65-9.28,6.84-13.63s4.32-8.35,6.11-11.81,3.4-6.29,4.46-8.29l1.71-3.14.09,0L640,54.56,621.6,91.78Z"/><path class="cls-7" d="M626.26,139.55l1.76-1.69c1.15-1.05,2.73-2.62,4.73-4.39s4.29-3.88,6.85-6,5.29-4.42,8.06-6.66,5.64-4.34,8.32-6.33c1.33-1,2.68-1.9,3.94-2.77l3.6-2.38c1.14-.71,2.19-1.35,3.14-1.88l2.49-1.33c1.44-.63,2.26-1,2.26-1l0,.09-2.17,1.11-2.39,1.45-3,2-3.5,2.5-3.85,2.86c-2.65,2-5.45,4.2-8.23,6.42-5.56,4.41-11,8.93-15.14,12.34l-6.82,5.7Z"/><path class="cls-23" d="M643.68,145.06,647.6,142c2.5-1.94,6-4.77,10.39-8l7-5.27c2.49-1.88,5.11-3.85,7.88-5.82s5.58-4.07,8.49-6.12,5.85-4.19,8.85-6.23l4.52-3L697,106l2.32-1.41,2.3-1.39,1.13-.7c.43-.23.8-.4,1.2-.6l4.62-2.31L713,97.35c1.48-.71,3-1.35,4.37-2l8-3.62c2.48-1.13,4.78-2.08,6.81-2.94l5.27-2.24,4.6-1.91,0,.09-4.54,2-5.19,2.39-6.73,3.1c-2.45,1.17-5.12,2.42-7.93,3.75-1.4.68-2.85,1.34-4.32,2.07s-2.94,1.5-4.46,2.26l-4.61,2.34c-.39.2-.78.39-1.16.6l-1.13.69c-.74.47-1.5.93-2.26,1.4l-2.28,1.41-2.24,1.51-4.49,3c-3,2-5.94,4.14-8.87,6.17s-5.76,4.1-8.53,6.06l-7.95,5.72-7.1,5.14-14.6,10.71Z"/><path class="cls-6" d="M641.37,143.7l2.92-2.59c1.86-1.64,4.49-4,7.73-6.79s7-6,11.15-9.36l6.39-5.16c2.17-1.76,4.41-3.51,6.67-5.24s4.6-3.37,6.9-5,4.76-2.88,7-4.27,4.56-2.6,6.71-3.75L703,98.3c3.78-2,7-3.47,9.22-4.58L715.71,92l0,.09-3.45,1.82-9.06,4.89-6,3.36c-2.13,1.2-4.39,2.43-6.64,3.85s-4.63,2.8-7,4.31-4.59,3.26-6.82,5-4.51,3.45-6.69,5.19-4.35,3.44-6.43,5.1c-4.16,3.32-8,6.45-11.31,9.13-6.59,5.4-11,9-11,9Z"/><path class="cls-24" d="M636.4,143.7s.75-.71,2.08-1.92,3.22-3,5.56-5,5-4.42,8-6.88,6.15-5.08,9.32-7.7,6.46-5.11,9.52-7.47c1.52-1.19,3-2.29,4.44-3.35s2.79-2,4-2.94,2.42-1.71,3.45-2.42,2-1.28,2.75-1.77c1.53-1,2.42-1.47,2.42-1.47l0,.08-2.32,1.62c-.73.53-1.65,1.11-2.64,1.88l-3.34,2.56c-1.22.95-2.57,1.94-3.94,3l-4.36,3.46c-3,2.38-6.23,5-9.43,7.56-12.83,10.31-25.53,20.79-25.53,20.79Z"/><path class="cls-5" d="M634.35,141.68l2.48-2.36c1.6-1.48,3.8-3.68,6.6-6.15s6-5.44,9.54-8.46,7.34-6.24,11.17-9.42c1.93-1.57,3.86-3.14,5.8-4.64l5.67-4.42c.92-.72,1.81-1.44,2.72-2.1l2.68-1.92,4.91-3.5c.77-.54,1.48-1.08,2.19-1.55l2.06-1.27,3.35-2.07L696.43,92l.05.09L693.66,94l-3.25,2.2-2,1.36-2.15,1.6-4.8,3.62-2.63,2-2.69,2.13-5.62,4.47c-1.92,1.51-3.83,3.1-5.75,4.68-3.85,3.15-7.69,6.3-11.24,9.32s-6.89,5.81-9.72,8.24c-5.67,4.84-9.4,8.12-9.4,8.12Z"/><path class="cls-13" d="M654.52,159.93s.51-.19,1.42-.48,2.2-.72,3.78-1.16,3.38-1,5.36-1.5l6.15-1.61c2.11-.49,4.22-1,6.18-1.51,1-.28,1.94-.48,2.84-.69s1.76-.43,2.54-.65,1.51-.39,2.14-.56l1.64-.48c.88-.32,1.41-.49,1.41-.49l0,.09-1.35.65c-.88.36-2.15.85-3.7,1.36-3.1,1-7.28,2.19-11.5,3.26-8.43,2.1-16.94,3.87-16.94,3.87Z"/><path class="cls-23" d="M658.24,155.36l2.21-.73c1.41-.44,3.42-1.12,5.85-1.84l3.92-1.19c1.39-.42,2.84-.89,4.37-1.31,3-.86,6.29-1.82,9.52-2.79,1.63-.46,3.27-.88,4.85-1.37l4.68-1.37c1.52-.46,3-.85,4.38-1.29l3.91-1.18c1.21-.36,2.33-.69,3.29-1l2.52-.85c1.41-.47,2.22-.72,2.22-.72l0,.09-2.16.88-2.47,1-1.53.62-1.72.59-3.88,1.32c-1.37.49-2.83.95-4.35,1.41L689.23,147c-1.58.51-3.21,1-4.84,1.43-3.25.94-6.5,1.85-9.56,2.67s-5.92,1.59-8.38,2.23l-8.19,2.09Z"/><path class="cls-25" d="M656.88,150.8l3.36-1.05,3.84-1.22c1.48-.48,3.15-1,5-1.57l5.9-1.85,6.58-2.08,7-2.21,7.21-2.43c2.44-.75,4.81-1.67,7.17-2.49,1.18-.43,2.37-.8,3.5-1.26l3.34-1.39c1.1-.46,2.17-.92,3.24-1.34l3.1-1.35,5.67-2.48c1.75-.78,3.37-1.45,4.81-2s2.68-1.15,3.74-1.53l3.3-1.23,0,.09-3.23,1.37c-1,.42-2.25,1-3.66,1.68L722,128.63l-5.6,2.61-3.06,1.43-3.25,1.38-3.35,1.44c-1.14.47-2.33.86-3.5,1.3-2.37.84-4.75,1.79-7.19,2.56l-7.24,2.37-7.06,2.16c-2.29.71-4.51,1.35-6.62,2l-5.95,1.7c-7.37,2.07-12.31,3.36-12.31,3.36Z"/><path class="cls-26" d="M656.88,147.52s.65-.27,1.8-.69,2.79-1,4.79-1.69,4.3-1.46,6.82-2.2,5.19-1.54,7.85-2.38l7.89-2.21c2.52-.71,4.91-1.25,6.94-1.77s3.76-.86,4.95-1.13,1.9-.39,1.9-.39l0,.1-21.44,6.37c-2.68.8-5.37,1.54-7.89,2.26l-6.9,1.93-6.72,1.9Z"/><path class="cls-27" d="M654.51,145.05s1-.49,2.85-1.32,4.41-2,7.55-3.36,6.8-3,10.76-4.58,8.18-3.33,12.38-5.11l12.43-5c4-1.59,7.72-3,10.91-4.18s5.9-2.15,7.78-2.84,3-1,3-1l0,.1-33.75,13.86c-4.22,1.74-8.47,3.4-12.43,5l-10.86,4.32-10.59,4.21Z"/><path class="cls-17" d="M649.26,145.06l3.73-2.72c2.38-1.72,5.75-4.23,9.88-7.1l6.65-4.67c2.37-1.66,4.85-3.41,7.48-5.15l16.38-11,8.53-5.3,4.18-2.59,1-.64c.39-.23.72-.38,1.09-.58l2.11-1.09c.7-.36,1.38-.74,2.08-1.06l2.12-1c1.4-.61,2.75-1.26,4.1-1.79,2.68-1.08,5.21-2.12,7.57-3s4.54-1.67,6.47-2.33,3.64-1.21,5-1.68l4.4-1.41,0,.1-4.34,1.54c-1.38.51-3.06,1.11-5,1.84s-4.06,1.55-6.39,2.5-4.85,2-7.5,3.12c-1.33.56-2.66,1.22-4,1.84l-2.08,1c-.7.33-1.38.72-2.08,1.08l-2.1,1.1c-.35.19-.72.37-1.06.57l-1,.65-4.16,2.61-8.46,5.34-16.44,10.87c-5.26,3.46-10.1,6.79-14.28,9.59l-13.89,9.4Z"/><path class="cls-5" d="M649.85,147.52l3.4-2.19c2.17-1.38,5.24-3.41,9-5.71l6.09-3.71c2.16-1.32,4.43-2.71,6.83-4.08s4.84-2.83,7.37-4.24,5.07-2.9,7.65-4.31,5.21-2.77,7.79-4.09l3.9-1.88c1.27-.62,2.56-1.27,3.83-1.78,2.53-1.1,5-2.1,7.34-3.06s4.58-1.79,6.65-2.57,4-1.49,5.67-2.06l4.41-1.46c1.22-.41,2.19-.71,2.85-.92l1-.31,0,.09-1,.36c-.64.23-1.6.56-2.8,1l-4.35,1.62c-1.67.63-3.54,1.4-5.59,2.21s-4.28,1.67-6.58,2.71l-7.29,3.18c-1.27.52-2.52,1.16-3.79,1.79s-2.56,1.26-3.85,1.91c-2.57,1.33-5.15,2.74-7.74,4.13s-5.14,2.84-7.68,4.24-5,2.83-7.39,4.19c-4.8,2.72-9.24,5.32-13.05,7.53l-12.66,7.48Z"/><path class="cls-19" d="M521.09,402.37l5.44-9.61c.82-1.44,1.7-3,2.61-4.67s1.86-3.41,2.84-5.23,2-3.7,3-5.62c.48-1,1-1.95,1.45-2.93l1.38-3,1.35-3,1.19-3c.31-1,.71-2,.94-3s.52-2.05.77-3.06c.49-2,1-3.94,1.52-5.77s.79-3.59,1.14-5.2.72-3.08,1-4.41.5-2.47.69-3.41c.37-1.9.59-3,.59-3h.1s-.13,1.1-.42,3c-.15,1-.34,2.11-.54,3.44s-.49,2.83-.8,4.46-.65,3.39-1,5.26l-1.39,5.8c-.25,1-.49,2-.74,3.07s-.62,2.06-.93,3.1-.79,2-1.19,3.07l-1.32,3a234.85,234.85,0,0,1-11.67,21.31c-3.45,5.66-5.88,9.36-5.88,9.36Z"/><path class="cls-28" d="M519.06,353.7l1-1.39c.63-.87,1.44-2.17,2.47-3.68.51-.76,1.06-1.58,1.62-2.47s1.12-1.82,1.76-2.77c1.23-1.91,2.48-4,3.64-6.12.61-1,1.24-2.08,1.79-3.14s1.12-2.08,1.6-3.11,1-2,1.43-2.95.89-1.82,1.21-2.68.68-1.61,1-2.28.49-1.3.68-1.8c.39-1,.63-1.57.63-1.57l.1,0-.46,1.62c-.15.52-.32,1.14-.54,1.86s-.52,1.49-.82,2.36-.7,1.78-1.08,2.76-.85,2-1.33,3-1,2.1-1.57,3.18-1.15,2.13-1.73,3.21c-1.22,2.12-2.52,4.19-3.8,6.1s-2.52,3.65-3.63,5.11c-2.19,2.94-3.82,4.78-3.82,4.78Z"/><path class="cls-19" d="M521.08,385.66s.26-.56.7-1.55,1.08-2.38,1.89-4c.4-.82.85-1.72,1.28-2.68s.91-2,1.44-3c1-2.05,2.06-4.28,3.13-6.48.53-1.1,1.07-2.2,1.59-3.29s1.06-2.14,1.52-3.19c.91-2.1,1.91-4,2.66-5.68s1.37-3.08,1.8-4.07.73-1.53.73-1.53l.1,0s-.83,2.31-2.07,5.79c-.33.86-.74,1.77-1.14,2.75l-1.27,3.06c-.44,1.07-1,2.14-1.47,3.24s-1,2.22-1.54,3.33c-1.11,2.2-2.18,4.41-3.26,6.44s-2.07,3.95-3,5.55c-1.77,3.24-3,5.35-3,5.35Z"/><path class="cls-29" d="M512.47,324.28s.25-.47.67-1.29c.21-.41.49-.89.76-1.48s.59-1.24,1-1.93.71-1.48,1.1-2.3.78-1.68,1.19-2.57l1.26-2.75c.45-.93.78-1.93,1.18-2.89l1.25-2.87c.38-1,.71-1.92,1-2.84s.7-1.8,1-2.64.59-1.66.86-2.4c.49-1.5,1-2.72,1.31-3.6s.54-1.36.54-1.36l.1,0-1.38,5.1c-.22.76-.39,1.61-.71,2.46s-.6,1.76-.92,2.7-.65,1.91-1,2.89-.8,1.94-1.2,2.92-.78,2-1.26,2.89l-1.33,2.76c-.41.9-.88,1.73-1.32,2.53s-.83,1.56-1.23,2.24c-.83,1.36-1.5,2.5-2,3.26s-.82,1.2-.82,1.2Z"/><path class="cls-29" d="M519.06,343.56s.11-.3.35-.81.56-1.23,1-2.07,1-1.81,1.55-2.84,1.25-2.09,1.9-3.16c.34-.53.68-1.05,1-1.58s.67-1,1-1.51l1.8-2.66,1.28-1.89c.32-.46.52-.71.52-.71l.09,0-.36.79c-.25.49-.53,1.23-1,2.06s-.95,1.81-1.56,2.83-1.23,2.11-1.9,3.18c-2.69,4.27-5.58,8.4-5.58,8.4Z"/><path class="cls-18" d="M514.69,304.22s0-.27.12-.71.21-1.09.43-1.82.46-1.6.78-2.49c.16-.45.31-.92.51-1.38s.37-.93.57-1.4c.41-.93.82-1.86,1.27-2.7s.9-1.61,1.27-2.28.77-1.19,1-1.57.43-.57.43-.57l.1,0s-1.58,3.74-3.15,7.48l-3.24,7.44Z"/><path class="cls-19" d="M547,190.41a7.47,7.47,0,0,1-.08.75c-.08.48-.15,1.17-.32,2s-.37,1.73-.64,2.71c-.14.49-.27,1-.44,1.51l-.49,1.54c-.36,1-.73,2-1.12,3s-.82,1.8-1.16,2.55-.71,1.33-.93,1.75a4.66,4.66,0,0,1-.4.65l-.09,0,2.74-8.22,2.84-8.2Z"/><path class="cls-30" d="M541.47,190.4a16.72,16.72,0,0,1-.08,2.27c-.06.67-.16,1.44-.31,2.26-.09.41-.14.84-.25,1.26s-.2.85-.31,1.29c-.23.85-.47,1.7-.75,2.49s-.55,1.51-.82,2.13a16,16,0,0,1-1,2l-.1,0,1.72-6.87c.92-3.42,1.83-6.84,1.83-6.84Z"/><path class="cls-31" d="M492.76,201.53s.31.14.83.44,1.27.71,2.12,1.28,1.83,1.23,2.85,2c.5.39,1,.78,1.54,1.22l1.54,1.3c1,.92,2,1.85,2.88,2.79a16.86,16.86,0,0,1,1.22,1.39c.38.46.74.88,1,1.3a9.8,9.8,0,0,1,.8,1.17c.21.37.41.68.54,1,.25.56.37.88.37.88l-.08.05-.51-.77c-.16-.24-.41-.51-.66-.84s-.57-.66-.9-1c-.68-.75-1.52-1.59-2.43-2.46s-1.92-1.77-2.94-2.67c-4-3.59-8.28-6.92-8.28-6.92Z"/><path class="cls-20" d="M481.08,204.06s.36.05,1,.21,1.52.38,2.56.73,2.24.81,3.5,1.37a41.13,41.13,0,0,1,3.84,2c.64.37,1.25.78,1.87,1.16s1.17.85,1.73,1.24,1.06.88,1.54,1.3l1.29,1.25a13.38,13.38,0,0,1,1,1.15,9.55,9.55,0,0,1,.69.95c.36.54.55.85.55.85l-.08.07-.67-.74c-.22-.23-.46-.53-.79-.82l-1.09-1-1.35-1.11-1.59-1.15c-1.12-.77-2.34-1.55-3.6-2.27a78.5,78.5,0,0,0-7.08-3.65c-2-.89-3.34-1.41-3.34-1.41Z"/><path class="cls-23" d="M470.41,228.4s.41-.05,1.12-.1l1.28-.08c.5,0,1.06-.09,1.67-.1,1.21,0,2.62-.13,4.13-.1s3.12-.05,4.73-.08l2.41.08c.79,0,1.57.06,2.32,0,1.51,0,2.92.06,4.14.07s2.22.14,2.94.18,1.12.11,1.12.11v.1l-4,.21-4.15.21c-.75.06-1.54,0-2.33,0h-2.42c-1.62,0-3.24,0-4.75-.06l-4.15-.18c-1.21,0-2.22-.1-2.93-.15l-1.11-.07Z"/><path class="cls-29" d="M470.41,225.36s.47-.07,1.31-.15,2-.23,3.45-.31,3.08-.25,4.86-.31,3.67-.17,5.56-.29,3.79-.13,5.56-.25,3.42-.16,4.82-.32l1.92-.22a14.73,14.73,0,0,0,1.45-.27,7.76,7.76,0,0,0,.9-.28l.32-.13.06.08-.3.18a4.88,4.88,0,0,1-.89.4,18.57,18.57,0,0,1-3.36.83,92.92,92.92,0,0,1-10.43,1c-7.61.32-15.23.15-15.23.15Z"/><path class="cls-25" d="M473.92,210.87l1.08.63c.66.42,1.67.93,2.84,1.57.58.32,1.23.64,1.92,1s1.43.63,2.16,1,1.53.7,2.35,1,1.63.63,2.47.89l1.24.45,1.25.38c.82.27,1.65.46,2.46.64s1.58.36,2.32.5l1.09.23,1,.13c.66.06,1.27.18,1.81.25l1.4.11c.79.07,1.24.14,1.24.14v.1l-1.24,0-1.42,0c-.55,0-1.17-.05-1.84-.08l-1.06-.06-1.11-.15a21.74,21.74,0,0,1-2.4-.39,24.42,24.42,0,0,1-2.54-.59l-1.29-.35-1.28-.44c-.86-.27-1.69-.63-2.51-1s-1.6-.73-2.37-1.08-1.48-.75-2.15-1.15-1.3-.76-1.86-1.13a31.73,31.73,0,0,1-3.66-2.62Z"/><path class="cls-19" d="M474.5,214.21s.26.11.69.32,1.06.51,1.77.9,1.55.86,2.41,1.38c.43.27.9.52,1.34.81l1.36.85,2.65,1.68c.85.53,1.62,1.08,2.32,1.44.35.19.66.4.95.54a5.3,5.3,0,0,0,.75.38c.43.18.69.31.69.31v.1l-.74-.14a7,7,0,0,1-.83-.24,9.23,9.23,0,0,1-1-.39c-.76-.31-1.62-.73-2.52-1.21s-1.83-1.05-2.76-1.62c-3.67-2.34-7.1-5-7.1-5Z"/><path class="cls-20" d="M512.45,293.36s0-.31.1-.85.15-1.29.29-2.19.3-1.94.5-3.05.42-2.28.59-3.46c.11-.59.22-1.17.29-1.75s.19-1.15.25-1.7a28.25,28.25,0,0,0,.31-3c0-.44,0-.84,0-1.2a4.51,4.51,0,0,0,0-.94c-.06-.52-.08-.84-.08-.84l.1,0,.24.81a4.72,4.72,0,0,1,.21.94,8.67,8.67,0,0,1,.14,1.24,13.67,13.67,0,0,1,0,1.47c0,.52,0,1.07-.07,1.64-.07,1.14-.24,2.35-.43,3.55a72.11,72.11,0,0,1-2.37,9.41Z"/><path class="cls-32" d="M60.57,78.82c11.16-4.06,29.42-7.61,43.62-6.08s27.9,5.57,48.19,22.82,39.56,30.43,65.43,26.88,57.83-22.32,88.26-31.95S387.73,66.65,441.49,94s56.31,46.66,92.82,45.65,48.7-7.61,58.84-21.31S620,73.75,626.63,83.89s3,25.36,0,36-1,15.72-1,15.72,7.1,6.09,20.29,7.1,17.25,6.09,13.7,13.19-3.05,8.11-18.77,11.66-22.82-2-49.71,7.11-57.31,27.38-100.42,29.42-94.35-7.62-118.18-11.67-72-2-108.55,5.58S157.45,209.73,128,204.38,90.5,193,73.76,189.9s-15.38-3.55-30.94-2.53S9.68,187,5.29,184.32s4.05-5.07,8.79-5.07,20.63-3.38,30.43-7.1S72.58,159,82.38,154.56s11.16-4.73,11.16-6.76-5.07-5.07-9.13-6.76S50.6,133.6,40.79,126.16s-31.2-21.3-36.73-21.3-5.29-4.4,0-9.81S22.19,90,26.25,90s10.48-3,17.59-5.41S60.57,78.82,60.57,78.82Z"/><path class="cls-33" d="M81,109.62A12.18,12.18,0,1,1,68.82,97.45,12.18,12.18,0,0,1,81,109.62Z"/><path class="cls-34" d="M74.58,110.18c0,3.63-2.65,6.58-5.92,6.58s-5.93-3-5.93-6.58,2.66-6.58,5.93-6.58S74.58,106.55,74.58,110.18Z"/><path class="cls-35" d="M8,105.91a11.85,11.85,0,0,0-3.93-1,17.56,17.56,0,0,0,1.48,7.82c1.77,3.8,6.34,12,6.34,12A37.85,37.85,0,0,1,9.73,118C9.22,115.21,8,105.91,8,105.91Z"/><path class="cls-35" d="M17.53,110.78c-1.74-1-3.42-1.94-5-2.74,0,0,0,4.94,1.53,6.75a86.93,86.93,0,0,1,4.78,7.65c.76,1.27,2.91,4.44,2.91,4.44a7.11,7.11,0,0,0-.63-4.44c-1.14-2-3-11.33-3-11.33"/><path class="cls-35" d="M29.31,118.1c-2.27-1.5-4.62-3-6.95-4.44a29.57,29.57,0,0,0,1.95,5.87c1,1.77,4.18,5.7,5,8s1.21,3.68,1.21,3.68,1.52-2,.89-3.55S29.31,118.1,29.31,118.1Z"/><path class="cls-35" d="M40.79,126.16c-1.78-1.35-3.94-2.91-6.32-4.57,0,0,1.37,3.09,2.26,4.57s2.79,5,2.79,5,1.4-1.87,1.27-2.71A12.81,12.81,0,0,1,40.79,126.16Z"/><path class="cls-35" d="M46.76,129.55c-.77-.35-1.51-.71-2.2-1.07a5.09,5.09,0,0,0,1.1,3.16Z"/><path class="cls-35" d="M52.3,131.81c-1-.38-2-.77-3-1.16a18.14,18.14,0,0,0,.75,4.22,3.86,3.86,0,0,0,1.52,1.9s-.09-4,.94-4.89"/><path class="cls-35" d="M56.84,133.37c-.9-.29-1.79-.59-2.66-.89a23,23,0,0,0,1,4.29,6.72,6.72,0,0,0,2.1,2.28,10.07,10.07,0,0,1-.44-3.28A9.16,9.16,0,0,0,56.84,133.37Z"/><path class="cls-35" d="M62.72,135.18c-1.06-.31-2.13-.63-3.19-1a10.64,10.64,0,0,0,1,3.56c.69,1,2.85,3.62,2.85,3.62s-.51-2.87-.57-3.59S62.72,135.18,62.72,135.18Z"/><path class="cls-35" d="M67.59,136.54c.12-.88-1.71-.47-2.58-.71a19.76,19.76,0,0,0,2,4.36S67.44,137.64,67.59,136.54Z"/><path class="cls-35" d="M31.61,176.08c-1.22.31-2.44.61-3.63.88a44.43,44.43,0,0,1-4.6-7.35c-1.69-3.63-1.27-9.72-1.27-9.72a78.21,78.21,0,0,0,3.13,7.27c.76,1.1,4.73,7.52,5.33,7.86A3.77,3.77,0,0,1,31.61,176.08Z"/><path class="cls-35" d="M43.18,172.64c-.79.28-1.6.56-2.44.83,0,0-5.11-3-6-4.37a27.56,27.56,0,0,1-1.86-4.56s4.56,3.94,5.5,4.46S43.18,172.64,43.18,172.64Z"/><path class="cls-35" d="M47.72,170.86c1.2.33-2.22.91-3.21,1.29,0,0-2.16-3-2.3-4.57a7.51,7.51,0,0,1,0-2.19S46.12,170.41,47.72,170.86Z"/><path class="cls-35" d="M53.57,168.28l-2.38,1.07s-3.13-1.25-3.21-2.9a26.08,26.08,0,0,1,0-2.93l3.55,2.92Z"/><path class="cls-35" d="M60,165.28l-2.45,1.17a13.67,13.67,0,0,1-.55-2.52v-1.8Z"/><path class="cls-35" d="M65,162.86l-2.24,1.07a13.06,13.06,0,0,1-.55-2.43C62.22,160.8,65,162.86,65,162.86Z"/><path class="cls-35" d="M68.54,161.14l-2.2,1.07s-1-1.6-1.33-2.23a11.58,11.58,0,0,1-.51-2.45l3.1,2.35Z"/><path class="cls-35" d="M72.09,159.43l-2.22,1.07a15.57,15.57,0,0,1-1-2.3,5.38,5.38,0,0,1,0-1.52l1.58,1.39Z"/><path class="cls-35" d="M20.71,178.45c-1.89.33-3.56.57-4.87.7,0,0-2.86-4.13-3.11-5.82a35.52,35.52,0,0,1,0-5.41,33,33,0,0,0,2.11,4.48C15.43,173.08,20.71,178.45,20.71,178.45Z"/><path class="cls-35" d="M11,179.5a20.39,20.39,0,0,0-4.76,1.27s-1.9-4.23-2.5-5.5-2.2-9.46-1.69-13.69c0,0,1.1,3.81,1.87,5.83A51.47,51.47,0,0,0,6.5,174,60.08,60.08,0,0,0,11,179.5Z"/><path class="cls-36" d="M503.89,270.55c-14.72-23.33-34-42.61-29.43-56.3,2.61-7.82,16.24-10.14,16.24-10.14,43.11-2,73.54-20.3,100.42-29.42,0,0-21.47.16-29.25.16S499,184,480,184.32s-57.14-5.41-97.38-17.92-76.76-12.17-95.7-8.79-32.8,8.12-63.57,16.57-57.49-11.53-57.49-11.53c0,2.74-3.71,14.57-13.52,21.67l-9.8,7.1s-16.24,2.71-27.06-1.52S81.63,179.15,67.6,177.46a144.52,144.52,0,0,0-21.94-.5c-6.73,2.8-22.45,4-27.35,5s-13,2.36-13,2.36c4.39,2.71,22,4.06,37.53,3.05s14.2-.51,30.94,2.53c0,0,17.08,6.26,24.18,13.36s9.13,18.6,6.76,28.4-22,36.86-36.86,57.15-35.5,64.92-41.93,81.49S23,440.47,37.75,469.89s56.3,61.37,98.91,76.08,74.56,15.72,91.3,21.3,79.12,4.06,120.21-2.53S482.58,518.07,498.3,485.1s28.41-93.83,24.35-126.8S518.59,293.88,503.89,270.55Z"/><path class="cls-37" d="M142.49,191.3l7.59-5.83L152,184l1.83-1.51c.56-.54,1.13-1.06,1.67-1.62s1.08-1.14,1.56-1.75,1-1.21,1.44-1.86.92-1.26,1.33-1.93.82-1.33,1.21-2,.73-1.38,1.08-2.08.66-1.41.94-2.13.56-1.45.82-2.18.45-1.47.63-2.21a10.91,10.91,0,0,0,.31-2.09v-.08l0-.12c.29-2,.54-4,.78-6s.43-4,.55-6.06c.06-1,.15-2,.19-3l.13-3c.07-1,.05-2,.05-3s.08-2,0-3l-.16-2.92v-.09c0,.13,0,0,0,.05h0v-.07l0-.19,0-.38-.12-.76-.24-1.51c-.07-.52-.19-1-.3-1.46l-.32-1.44c-.18-1-.47-1.92-.74-2.89s-.51-2-.83-2.92-.57-1.94-.9-2.9-.61-2-.95-2.91l-1-2.9.27-.14c.57.87,1.09,1.75,1.59,2.65s1,1.8,1.47,2.73.91,1.85,1.33,2.79.83,1.9,1.21,2.87.76,1.93,1,3,.69,2.05.9,3l.33,1.5.17.75.08.37,0,.19,0,.16v.1l.3,3.19a10.51,10.51,0,0,1,0,1.58v1.57c0,1,0,2.1-.15,3.12l-.25,3.1c-.1,1-.26,2.05-.38,3.07-.24,2.05-.56,4.08-.87,6.12s-.66,4.05-1,6.08v-.18a11.66,11.66,0,0,1-.48,2.61c-.23.81-.49,1.59-.78,2.36s-.6,1.53-1,2.27-.71,1.47-1.08,2.19-.79,1.43-1.22,2.12-.86,1.39-1.35,2a23.13,23.13,0,0,1-1.47,1.95c-.49.65-1.06,1.24-1.6,1.84s-1.15,1.15-1.72,1.73-1.24,1.08-1.86,1.61l-1.94,1.43-2,1.35-7.91,5.4Z"/><path class="cls-37" d="M145.23,185.08s.29-.15.8-.46,1.26-.76,2.18-1.41,2-1.47,3.16-2.47l1.81-1.69,1.83-2c.59-.74,1.16-1.56,1.77-2.37s1.13-1.78,1.72-2.7,1.07-1.93,1.63-2.93,1-2.09,1.45-3.17.77-2.25,1.17-3.4.52-2.38.79-3.59.27-2.47.41-3.71c0-.31.07-.62.08-.94l0-.94,0-1.89c0-.62,0-1.25,0-1.88l-.24-1.88c-.18-1.23-.28-2.51-.5-3.69s-.5-2.47-.82-3.62-.64-2.31-1-3.45-.71-2.24-1-3.33-.78-2.12-1.15-3.15c-.78-2-1.54-3.95-2.3-5.71s-1.45-3.36-2.12-4.77L153,116.26c-1-2-1.58-3.15-1.58-3.15l.17-.11s.79,1,2,2.91c.62.94,1.35,2.1,2.14,3.46s1.69,2.89,2.56,4.62,1.78,3.63,2.66,5.68a68.29,68.29,0,0,1,2.39,6.59,53.44,53.44,0,0,1,1.66,7.33c.2,1.31.25,2.58.39,3.88l.17,1.94c0,.65,0,1.31,0,2l0,2,0,1c0,.32-.07.64-.11,1-.18,1.29-.29,2.58-.53,3.84s-.61,2.5-.94,3.71-.86,2.35-1.31,3.49-1,2.18-1.6,3.22-1.17,2-1.77,2.94-1.2,1.79-1.84,2.65-1.27,1.63-1.91,2.36l-2,2-1.9,1.64a40.21,40.21,0,0,1-3.31,2.38c-.94.61-1.71,1.05-2.24,1.33l-.82.43Z"/><path class="cls-38" d="M372.52,192.44c-23.85-4.06-72-2-108.55,5.58S157.45,209.73,128,204.38s-21,17.48-23.33,27.28-22,36.86-36.86,57.15-35.5,64.92-41.93,81.49S23,440.47,37.75,469.89s56.3,61.37,98.91,76.08,74.56,15.72,91.3,21.3,79.12,4.06,120.21-2.53S482.58,518.07,498.3,485.1s28.41-93.83,24.35-126.8-4.06-64.42-18.76-87.75-34-42.61-29.43-56.3C477.07,206.43,396.35,196.49,372.52,192.44Z"/><path class="cls-39" d="M267.69,513.68s18.6,0,34.83-10.49S336,485.9,343.77,483.56s23.67-2,37.54-8.77,78.11-36.53,85.88-42.61,18.44-31.78,19.19-31.78,3-.34,0,17.59-8,37-12.6,46.57-47.5,48.09-77.6,58.92-65.82,24-83.63,25.71-33,6.42-48.25-1.69-25-12.52-20.42-16.91S267.69,513.68,267.69,513.68Z"/><path class="cls-40" d="M262.46,517.09s.59.15,1.61.38,2.49.5,4.24.8c.88.14,1.83.27,2.84.37s2.07.13,3.16.19c.54,0,1.1,0,1.66,0s1.12-.06,1.68-.13A16.66,16.66,0,0,0,281,518c1.14-.33,2.32-.63,3.39-1s2.16-.75,3.19-1.18,2.05-.78,3-1.17,1.85-.73,2.68-1.08,1.59-.65,2.26-.93l1.75-.72,1.53-.62.05.09s-2.1,1.15-5.34,2.72c-1.61.78-3.51,1.66-5.6,2.52-1,.45-2.12.85-3.22,1.26s-2.26.76-3.4,1.12a17.18,17.18,0,0,1-3.53.67c-.58.06-1.17.07-1.75.1s-1.15,0-1.72,0a38.56,38.56,0,0,1-6.08-.85,41.54,41.54,0,0,1-5.75-1.67Z"/><path class="cls-40" d="M264.32,521.78s.48.17,1.39.39a29.68,29.68,0,0,0,4,.7,48.9,48.9,0,0,0,6.32.29c1.21-.09,2.51-.07,3.87-.25l2.09-.2c.72-.09,1.44-.22,2.18-.32a73.45,73.45,0,0,0,9.43-2.14c1.62-.55,3.31-1.07,5-1.7s3.42-1.26,5.12-2.06c3.4-1.52,7-3.19,10.56-4.86l10.9-5.06,21.57-9.76c3.44-1.57,6.78-3,10-4.43l9-3.82c5.56-2.38,10.24-4.25,13.49-5.62l5.13-2.11,0,.09L366,489.1l-8.92,4-9.9,4.53-21.51,9.89c-7.34,3.34-14.64,6.74-21.55,9.81-.85.4-1.73.73-2.6,1.06l-2.58,1c-1.71.61-3.43,1.11-5.08,1.64a73.89,73.89,0,0,1-9.55,2,58.07,58.07,0,0,1-8.23.6,49.46,49.46,0,0,1-6.34-.46,31.59,31.59,0,0,1-4-.81,11.19,11.19,0,0,1-1.38-.44Z"/><path class="cls-40" d="M260.27,523.43s.8.26,2.31.69,3.76,1,6.64,1.58a80.41,80.41,0,0,0,10.5,1.38A43.2,43.2,0,0,0,293.25,526a33.27,33.27,0,0,0,3.64-1.17l3.78-1.33,7.83-3c5.36-2.18,11-4.52,16.81-7s11.8-5,17.88-7.67,12.19-5.42,18.31-8.24c12.27-5.54,24.5-11.17,35.92-16.56,5.69-2.72,11.22-5.3,16.41-7.85s10.08-5,14.47-7.45l1.62-.91,1.52-1c1-.63,2-1.33,2.94-2l5.41-3.66c3.45-2.25,6.49-4.15,9-5.72l5.83-3.57,2.09-1.24.05.08-2.06,1.28-5.78,3.66c-2.46,1.61-5.46,3.56-8.86,5.85l-5.36,3.75c-.94.66-1.9,1.35-2.92,2l-1.54,1-1.62.93c-4.38,2.52-9.26,5-14.43,7.61s-10.68,5.24-16.37,8c-11.4,5.43-23.62,11.09-35.88,16.68-6.12,2.8-12.27,5.56-18.36,8.19s-12.09,5.18-17.91,7.61l-8.6,3.55-8.27,3.3-7.89,3-3.8,1.3a34.88,34.88,0,0,1-3.7,1.14,42.34,42.34,0,0,1-13.71.9,77.28,77.28,0,0,1-10.51-1.56c-2.88-.62-5.11-1.24-6.63-1.69s-2.31-.72-2.31-.72Z"/><path class="cls-40" d="M312,524.79,334,517.88l10.68-3.34,11.9-3.79c4.13-1.32,8.39-2.68,12.67-4.19s8.54-3.11,12.87-4.83L395,496.65c4.23-1.69,8.46-3.2,12.52-4.74,8.12-3.06,15.74-5.79,22.28-8.12s12-4.2,15.83-5.52l6-2.07,0,.1L430,484.35c-6.51,2.41-14.07,5.29-22.17,8.38-4,1.56-8.25,3.08-12.47,4.79l-12.81,5.15c-4.3,1.68-8.6,3.41-12.94,4.79s-8.58,2.83-12.71,4.13-8.15,2.51-11.95,3.67l-10.73,3.2-16.1,4.68L312,524.88Z"/><path class="cls-40" d="M372.16,502.15l4.54-2.28,11.93-6.09c2.47-1.27,5.18-2.58,8-4.09l8.78-4.7,4.54-2.68c1.53-.92,3-1.91,4.56-2.87,3.07-1.92,6.15-4,9.24-6s6.2-4,9.25-6,6-4,8.91-5.9c5.76-3.84,11.19-7.36,15.78-10.47l1.67-1.14c.28-.19.55-.37.81-.56l.73-.58c.48-.4,1-.75,1.42-1.16l1.22-1.19c.79-.78,1.46-1.59,2.11-2.31s1.18-1.44,1.67-2.08c2-2.57,2.91-4.15,2.91-4.15l.09,0s-.92,1.61-2.8,4.24c-.47.66-1,1.37-1.61,2.15s-1.29,1.57-2.07,2.39a30.4,30.4,0,0,1-5.81,4.83c-4.54,3.18-9.89,6.83-15.63,10.71l-8.88,6c-3,2-6.1,4.07-9.22,6.07s-6.19,4-9.29,5.95c-1.55.95-3.07,1.94-4.6,2.85l-4.56,2.66c-3.06,1.63-6.06,3.13-8.88,4.6s-5.55,2.73-8,4c-5,2.45-9.17,4.39-12.09,5.78l-4.61,2.15Z"/><path class="cls-40" d="M255.19,529.45s.44,0,1.22.06,1.89.11,3.21.26l2.13.22c.76.08,1.56.14,2.38.27,1.64.24,3.39.44,5.14.65s3.48.51,5.12.75l4.46.65c1.31.19,2.4.31,3.17.41s1.22.18,1.22.18v.1H282c-.78,0-1.89,0-3.21-.08s-2.88-.18-4.52-.37-3.42-.36-5.17-.62c-3.51-.5-7-1.08-9.61-1.56s-4.35-.81-4.35-.81Z"/><path class="cls-41" d="M243.88,503.52a116.94,116.94,0,0,1,17-38.71c13.2-19.27,34.49-26.88,64.93-37s76-22.2,91.3-20.8,44.13-7.1,62.89,6.59c0,0-103,42.61-135.43,55.8s-37,10.65-46.4,24.35-22.48,27.84-35.46,29.64S243.88,503.52,243.88,503.52Z"/><path class="cls-40" d="M260.21,491l1.65-2.83c1.07-1.78,2.56-4.37,4.52-7.36,1-1.5,2-3.12,3.18-4.83s2.35-3.49,3.68-5.29,2.71-3.66,4.13-5.53l2.2-2.8,2.28-2.76c1.58-1.81,3.21-3.57,4.9-5.24.84-.84,1.75-1.61,2.6-2.4l2.68-2.14c1.73-1.4,3.45-2.7,5.08-3.95s3.27-2.31,4.72-3.35,2.83-2,4.08-2.71l3.21-1.95c.89-.56,1.61-1,2.09-1.23l.75-.42.05.08-.72.46c-.48.29-1.17.73-2,1.31s-1.91,1.29-3.12,2.1-2.5,1.8-3.95,2.85-3,2.14-4.61,3.44l-5,4.05L290,452.64c-.83.79-1.71,1.54-2.53,2.38-1.65,1.66-3.25,3.42-4.8,5.23a257.64,257.64,0,0,0-15.75,20.89c-4,5.88-6.58,9.91-6.58,9.91Z"/><path class="cls-40" d="M255.14,503.16s1.13-1.36,3.12-3.72l3.64-4.24c1.44-1.61,3-3.47,4.81-5.41s3.73-4.09,5.85-6.27,4.32-4.52,6.7-6.84c1.19-1.16,2.38-2.36,3.63-3.52l3.83-3.51c2.57-2.42,5.29-4.61,8.1-6.84s5.68-4.26,8.53-6.27,5.69-3.94,8.45-5.78,5.44-3.6,8-5.2l7.28-4.52c4.51-2.79,8.38-5,11.05-6.5l4.23-2.4.05.09s-6.06,3.63-15,9.34c-4.46,2.85-9.65,6.22-15.14,9.94-2.74,1.85-5.56,3.8-8.39,5.81s-5.68,4.12-8.48,6.27-5.56,4.37-8.1,6.74l-3.83,3.48c-1.26,1.15-2.44,2.34-3.64,3.48-2.41,2.29-4.66,4.57-6.79,6.73s-4.1,4.25-5.94,6.16-3.46,3.71-4.93,5.29l-3.76,4.12-3.23,3.64Z"/><path class="cls-40" d="M264.27,503.16s1.64-1.82,4.64-4.89c1.49-1.54,3.32-3.38,5.46-5.47s4.56-4.43,7.29-6.88,5.73-5.09,9-7.77,6.75-5.44,10.47-8.17c1.89-1.31,3.77-2.71,5.78-4,1-.65,2-1.32,3-2L313,462.2c2.05-1.26,4.22-2.41,6.35-3.63l6.48-3.46c4.35-2.27,8.77-4.39,13.13-6.47s8.67-4,12.85-5.93L358,440l6-2.54c3.88-1.63,7.55-3.16,11-4.54,6.79-2.8,12.55-4.89,16.58-6.36,2-.7,3.6-1.28,4.7-1.61l1.68-.54,0,.1-1.66.57c-1.09.36-2.66,1-4.66,1.72-4,1.54-9.67,3.83-16.43,6.68-3.39,1.43-7,3-10.89,4.69s-7.9,3.5-12.08,5.4-8.47,3.91-12.81,6-8.72,4.27-13.08,6.49l-6.48,3.42c-2.12,1.2-4.27,2.33-6.34,3.57-4.17,2.4-8.1,5.06-11.86,7.69s-7.25,5.36-10.5,8-6.29,5.23-9.06,7.64-5.23,4.7-7.4,6.74-4.05,3.85-5.57,5.35c-3.05,3-4.73,4.79-4.73,4.79Z"/><path class="cls-40" d="M284.67,483.52s.77-.83,2.14-2.25,3.35-3.42,5.78-5.77l4-3.73c1.42-1.32,2.91-2.73,4.48-4.13l5-4.19c1.71-1.41,3.42-2.91,5.21-4.27l10.55-8c3.37-2.55,6.58-4.82,9.3-6.83s5.06-3.58,6.66-4.72,2.56-1.76,2.56-1.76l.06.08-28.51,22c-1.81,1.35-3.51,2.82-5.24,4.21l-5,4.12L293,476l-6,5.52-2.25,2.13Z"/><path class="cls-40" d="M269.34,504.84l4.94-4.06c3.16-2.57,7.61-6.32,13.05-10.69s11.83-9.42,18.73-14.78l5.24-4.08c.95-.69,1.86-1.3,2.8-2S316,468,317,467.39l2.94-1.86,3-1.78c2-1.2,4-2.35,6.06-3.48s4.1-2.22,6.17-3.29l3.08-1.6,3.1-1.53,3.07-1.52,3.08-1.44c2-.95,4.05-1.89,6.07-2.73l3-1.28c1-.44,2-.77,3-1.14l5.78-2.13,10.56-3.9c3.28-1.21,6.27-2.33,9-3.21l7-2.34,6.07-2,0,.09-6,2.17L385,436.89c-2.67.95-5.64,2.14-8.9,3.38l-10.51,4-5.74,2.21c-1,.38-2,.73-3,1.16l-3,1.29c-2,.85-4,1.79-6.05,2.75l-3.06,1.44-3,1.53-3.08,1.55-3.07,1.61c-2.05,1.07-4.11,2.16-6.13,3.31s-4.07,2.25-6.05,3.44l-3,1.76-2.92,1.82c-2,1.18-3.8,2.52-5.65,3.78L306.58,476,287.7,490.56l-18.29,14.36Z"/><path class="cls-40" d="M331.91,468.49l4.31-2.39c2.74-1.5,6.63-3.73,11.36-6.25s10.22-5.55,16.16-8.65l4.53-2.37c.76-.41,1.53-.81,2.31-1.21l1.16-.61,1.22-.57,4.81-2.26c1.63-.72,3.31-1.39,5-2.09s3.33-1.37,5-2l5-1.9c3.29-1.28,6.54-2.49,9.7-3.64s6.2-2.25,9.11-3.25l8.19-2.83c5.08-1.74,9.36-3,12.34-4l3.48-1.07,1.23-.38,0,.1-1.22.41-3.44,1.18c-3,1-7.17,2.52-12.21,4.34l-8.15,3c-2.88,1-5.92,2.19-9.06,3.37s-6.38,2.39-9.66,3.69l-5,1.93c-1.66.65-3.3,1.35-4.95,2s-3.32,1.34-4.95,2.05l-4.83,2.22c-3.18,1.51-6.22,3.18-9.21,4.69l-16.29,8.4-15.9,8.2Z"/><path class="cls-41" d="M197,403.1s6.08,10.15,12.85,13.87,20.35,5.75,34,3.72,13.66,3.38,16.37,6.42,19.21,5.93,23,10.82,8.45,19.45,8.45,26.63-1.06,10.95-12.86,13.59S253.2,488,247.59,491s-23.86,4.69-35.7-7.46-33.13-50.7-33.81-64.9S197,403.1,197,403.1Z"/><path class="cls-40" d="M239.29,423l.72,0c.45,0,1.1,0,1.86,0s1.65.11,2.59.23c.47.07,1,.11,1.45.2l1.49.26c1,.21,2,.41,2.9.66s1.77.54,2.49.76,1.32.5,1.74.65.66.3.66.3l0,.1-8-1.48-7.94-1.57Z"/><path class="cls-42" d="M239.3,426.05s.67.19,1.81.56,2.8.89,4.74,1.59,4.23,1.45,6.63,2.36l7.57,2.8c2.54,1,5.11,2,7.52,2.9,1.21.43,2.36.9,3.45,1.33l3.11,1.17c1,.32,1.85.67,2.63,1l2.05.69,1.82.51,0,.1-1.86-.34-2.1-.55-2.7-.8c-2-.62-4.25-1.39-6.68-2.24s-5-1.81-7.58-2.78c-10.28-3.92-20.43-8.17-20.43-8.17Z"/><path class="cls-42" d="M212.26,420.64l2.26,1.43c1.44.92,3.51,2.18,6,3.66,1.25.75,2.59,1.56,4.06,2.35s3,1.68,4.59,2.5l2.44,1.27c.82.43,1.66.87,2.53,1.24l2.61,1.16c.89.37,1.74.83,2.66,1.11,1.79.64,3.58,1.38,5.36,1.93s3.64,1.09,5.4,1.52,3.43.91,5.06,1.25,3.15.74,4.58,1c2.84.55,5.23,1,6.91,1.22s2.65.36,2.65.36v.1s-1,0-2.67-.19c-.85-.07-1.88-.18-3-.33s-2.5-.34-3.94-.56-3-.54-4.63-.84-3.36-.75-5.14-1.14-3.57-1-5.42-1.45-3.65-1.28-5.49-1.91a27.52,27.52,0,0,1-2.67-1.15l-2.63-1.21c-.88-.38-1.72-.83-2.54-1.28l-2.45-1.31c-1.62-.83-3.1-1.79-4.55-2.62s-2.77-1.7-4-2.49-2.35-1.52-3.32-2.2-1.84-1.24-2.52-1.74c-1.39-1-2.17-1.57-2.17-1.57Z"/><path class="cls-42" d="M200.77,414.9l2.86,2.61,7.6,6.81c1.55,1.42,3.28,2.91,5.09,4.51s3.78,3.21,5.74,5,4.1,3.43,6.25,5.14,4.41,3.33,6.79,4.84c4.63,3.12,9.44,6,14.05,8.53,2.3,1.25,4.55,2.44,6.71,3.5s4.23,2,6.17,2.79,3.74,1.46,5.36,2c.8.29,1.58.46,2.29.67l1,.28.95.18c.6.12,1.14.23,1.61.31l1.2.11,1,.1v.1l-1-.06-1.21-.07c-.48-.05-1-.15-1.63-.24l-1-.15-1-.24c-.72-.18-1.51-.32-2.32-.59-1.66-.46-3.5-1.08-5.47-1.83s-4.08-1.64-6.27-2.67-4.49-2.15-6.81-3.4c-4.66-2.48-9.5-5.36-14.2-8.47-2.36-1.53-4.59-3.26-6.8-4.93s-4.25-3.49-6.25-5.22-3.9-3.42-5.67-5.07-3.47-3.17-5-4.63C204.67,419,200.7,415,200.7,415Z"/><path class="cls-42" d="M273.44,448.21s-.91.11-2.51.22c-.8,0-1.78.11-2.9.13s-2.38.09-3.75,0-2.88-.07-4.45-.21l-2.44-.18c-.82-.09-1.66-.24-2.52-.36-1.72-.2-3.47-.64-5.25-1l-.67-.15-.17,0-.19-.06-.32-.09L247,446.1l-2.63-.77c-1.73-.65-3.49-1.26-5.17-1.93s-3.33-1.34-4.89-2.07-3.09-1.4-4.48-2.16-2.73-1.4-3.91-2.13-2.29-1.31-3.2-2-1.73-1.19-2.37-1.67l-1.91-1.67.07-.08,2,1.52c.66.45,1.5.94,2.44,1.53s2.07,1.15,3.26,1.82,2.56,1.28,4,2,2.94,1.32,4.49,2,3.23,1.31,4.89,2,3.41,1.22,5.13,1.85l2.61.8c.88.25,1.73.56,2.61.73,1.75.4,3.46.85,5.16,1.07l2.49.4,2.4.26c1.56.19,3,.27,4.41.36s2.62.11,3.73.15,2.09,0,2.89,0c1.59,0,2.5-.06,2.5-.06Z"/><path class="cls-42" d="M193.26,416.6s.76,1.27,2.19,3.42,3.58,5.17,6.2,8.73c1.31,1.78,2.78,3.67,4.39,5.62s3.37,3.95,5.22,6c.93,1,1.93,2,2.91,3s2.05,2,3.15,2.89,2.19,1.88,3.39,2.68l1.77,1.26,1.85,1.23c4.9,3.33,9.75,6.7,14.41,9.67,2.34,1.45,4.59,2.89,6.79,4.14s4.31,2.36,6.29,3.31,3.86,1.71,5.54,2.35,3.17,1.09,4.42,1.39,2.25.51,2.93.65l1,.2v.1l-1.05-.16a28.89,28.89,0,0,1-3-.55c-1.27-.25-2.79-.7-4.51-1.23-.84-.31-1.76-.61-2.7-1s-1.93-.77-2.94-1.23c-2-.91-4.19-2-6.41-3.2s-4.54-2.6-6.9-4.06c-4.7-2.94-9.59-6.28-14.5-9.57a62.94,62.94,0,0,1-7.07-5.3c-1.11-.94-2.12-2-3.18-2.95s-2-2-2.91-3.06c-1.86-2.06-3.59-4.11-5.16-6.11s-3-3.93-4.29-5.74c-2.57-3.62-4.56-6.74-5.92-9s-2.07-3.5-2.07-3.5Z"/><path class="cls-42" d="M246,456.66s.4.21,1.08.6,1.68.94,2.82,1.64,2.52,1.46,3.94,2.35,2.95,1.79,4.51,2.65,3.05,1.82,4.53,2.57l2.12,1.1c.67.37,1.33.64,1.93.91s1.17.5,1.67.7a8.94,8.94,0,0,0,1.32.47l1.18.36v.11l-1.22-.2a8.81,8.81,0,0,1-1.38-.32,17.24,17.24,0,0,1-1.76-.55,38.49,38.49,0,0,1-4.24-1.79c-1.52-.73-3.1-1.59-4.65-2.49a128.13,128.13,0,0,1-11.91-8Z"/><path class="cls-42" d="M193.26,426.08s.52,1.28,1.62,3.44c.55,1.07,1.26,2.36,2.09,3.82s1.85,3.07,2.95,4.82l1.79,2.68c.63.91,1.32,1.83,2,2.79,1.42,1.89,3,3.83,4.64,5.8s3.46,3.94,5.4,5.82c.48.47.94,1,1.44,1.43l1.52,1.37,1.52,1.38c.51.45,1.06.86,1.59,1.3l1.58,1.32.77.65.83.62c1.1.82,2.2,1.68,3.29,2.46l3.3,2.28,3.32,2.1,3.27,1.92c1.07.61,2.15,1.17,3.18,1.74s2.09,1,3.09,1.54l2.93,1.32c1.91.78,3.67,1.49,5.25,2.05s3,1,4.16,1.29a31.4,31.4,0,0,0,3.71.81v.1a32.46,32.46,0,0,1-3.76-.67c-1.18-.26-2.6-.64-4.22-1.13-.81-.25-1.66-.55-2.56-.84l-2.79-1.05-3-1.27c-1-.47-2.07-.94-3.14-1.47s-2.16-1.09-3.25-1.69l-3.33-1.9-3.36-2.09-3.35-2.28c-2.22-1.59-4.46-3.23-6.57-5-.53-.45-1.08-.87-1.6-1.33l-1.52-1.41-1.52-1.39c-.5-.48-1-1-1.45-1.46-1.94-1.92-3.73-3.93-5.41-5.92s-3.18-4-4.57-5.93c-.68-1-1.35-1.92-2-2.86l-1.74-2.74-1.52-2.57c-.45-.83-.88-1.62-1.29-2.36-.79-1.5-1.44-2.82-1.95-3.92-1-2.2-1.49-3.51-1.49-3.51Z"/><path class="cls-42" d="M187.43,426.07s.28.41.75,1.14,1.16,1.75,1.9,3,1.67,2.73,2.56,4.35,1.84,3.33,2.82,5,1.82,3.48,2.71,5.09c.45.8.82,1.62,1.22,2.36s.77,1.44,1.12,2.08.63,1.27.93,1.78.57,1,.78,1.33c.43.75.67,1.19.67,1.19l-.08.07-.8-1.09c-.26-.35-.57-.77-.92-1.26s-.69-1.07-1.09-1.7c-.79-1.25-1.7-2.71-2.6-4.32s-1.89-3.31-2.83-5c-1.88-3.46-3.68-7-5-9.6l-2.22-4.39Z"/><path class="cls-42" d="M185.14,430.3s.56.75,1.51,2.07,2.33,3.21,3.91,5.51,3.51,4.94,5.47,7.82,4.1,5.92,6.29,8.92c1.07,1.52,2.15,3,3.26,4.46.55.72,1.1,1.43,1.68,2.1A24.08,24.08,0,0,0,209,463c.67.56,1.34,1.09,2,1.64s1.3,1,1.93,1.43,1.27.89,1.9,1.29,1.22.81,1.82,1.16c1.21.69,2.28,1.38,3.27,1.94s1.85,1,2.56,1.43l2.26,1.22,0,.09s-.86-.36-2.33-1.06-3.56-1.74-6-3.09c-.62-.34-1.23-.73-1.88-1.11s-1.32-.78-2-1.25-1.36-.88-2-1.4l-2-1.6a36.8,36.8,0,0,1-3.56-4.06c-1.14-1.44-2.25-2.94-3.33-4.45-2.18-3-4.28-6.11-6.21-9s-3.73-5.64-5.24-8c-3-4.7-5-7.86-5-7.86Z"/><path class="cls-42" d="M190,444.88l5.58,8.71c1.65,2.62,3.68,5.61,5.81,8.84s4.49,6.6,7,9.85c1.22,1.65,2.49,3.26,3.8,4.78a36.57,36.57,0,0,0,4.11,4.14,11.94,11.94,0,0,0,1.09.82l.55.38.56.32c.74.39,1.66.75,2.44,1.12l4.57,2.05c1.43.62,2.72,1.23,3.86,1.76s2.16,1,3,1.32c1.65.72,2.59,1.16,2.59,1.16l0,.09-2.66-1c-.85-.33-1.88-.69-3-1.17l-3.91-1.61-4.64-1.9c-.81-.36-1.67-.66-2.51-1.08l-.63-.33-.6-.39a12,12,0,0,1-1.16-.86,35.94,35.94,0,0,1-4.27-4.2c-1.34-1.53-2.65-3.14-3.9-4.79a222.6,222.6,0,0,1-12.51-19c-3.18-5.33-5.15-9-5.15-9Z"/><path class="cls-43" d="M475.36,291.35c-8.63-18.77-10.91-59.83-18.51-65.91s-67-29.16-117.17-34S219.77,183.89,169,197.25,82.6,289.32,82.6,289.32c-15,12.68-62.22,64.41-51.23,121.22,5.67,29.31,10.39,68.21,44.81,96.88,32.29,26.9,94.07,44.45,109,46.67,30.94,4.56,63.4-18.77,74.56-27.4s22.32-25.86,6.59-26.88-38.54,11.67-49.2,9.64-32.46-27.9-39.56-57.82,26.37-52.75,47.17-57.32,41.59,11.16,60.15,16.74,66.15,14.2,104.7,8.66,63.91-19.82,74.05-27.43,7.61-16.74,7.61-16.74-.84-5.07-7.61-7.44-11.83-3-27.55-1.86-30.44,2-37.88,2.2-22.66-1.18-30.43-1.86c-6.18-.53-18.65-5.13-24.45-7.33a31.39,31.39,0,0,0,3.5.78c6.37,1.59,16.22,3.58,24.67,3.68a265.41,265.41,0,0,0,39.9-2.54c12.34-1.69,26.38-7.94,38.55-9.64s17.92-1,21,.85,11.88,10.77,11.88,10.77C492.86,345.68,484,310.11,475.36,291.35ZM341.9,358.68Z"/><path class="cls-41" d="M282.57,303.69s-23.67,37.53-31.45,41.25-20.8,6.09-26.46,11.16-29.42,25-29.55,29.42-2.49,2.37-7.73,1.69-22.49,0-35.68-5.07-26.37-10.48-26.37-12.51,3-16.23,9.47-26.38S172,304.7,197,297.6s37.25-6.76,46.86-6.76S279.52,291.52,282.57,303.69Z"/><path class="cls-42" d="M258.49,332.82a12,12,0,0,0-1.23,0,12.69,12.69,0,0,0-1.4.08c-.54.08-1.14.14-1.79.25a20.2,20.2,0,0,0-2.09.41c-.74.19-1.51.39-2.3.61s-1.62.45-2.43.76l-1.23.44-1.22.51c-.84.29-1.65.63-2.45,1s-1.59.69-2.33,1.07-1.5.68-2.17,1l-1.94,1L233,341.41c-.71.35-1.13.53-1.13.53l-.05-.08,1-.68c.67-.42,1.58-1.09,2.75-1.77l1.87-1.11c.66-.41,1.4-.75,2.15-1.16s1.53-.79,2.34-1.15,1.62-.75,2.46-1.07l1.26-.49L247,334c.83-.3,1.69-.5,2.5-.72s1.63-.36,2.39-.5,1.49-.23,2.17-.26a17.44,17.44,0,0,1,1.84-.08c.55,0,1,0,1.43.07a8.73,8.73,0,0,1,1.23.2Z"/><path class="cls-42" d="M265.75,322.34s-1.18.18-3.19.66l-1.67.39-1.95.56c-1.39.36-2.91.93-4.59,1.49-.41.14-.85.27-1.28.44l-1.29.53-2.73,1.13c-.93.39-1.84.91-2.79,1.37s-1.94.91-2.9,1.45l-2.88,1.71-1.46.87-.37.22a4.1,4.1,0,0,0-.34.23l-.72.5c-1,.67-1.93,1.35-2.82,2.08s-1.83,1.43-2.73,2.2c-1.83,1.47-3.61,3-5.33,4.59s-3.39,3.14-5,4.69l-4.57,4.48c-1.44,1.44-2.79,2.81-4,4.09-2.47,2.56-4.56,4.67-6,6.2l-2.25,2.37-.08-.07s3-3.65,7.85-8.9c1.2-1.32,2.52-2.73,3.93-4.21s2.92-3,4.49-4.59,3.23-3.17,4.95-4.75,3.5-3.18,5.34-4.68c.9-.77,1.84-1.5,2.79-2.22s1.9-1.4,2.86-2.06,2-1.24,3-1.82l2.94-1.71c1-.53,2-1,3-1.43s1.91-.94,2.86-1.31l2.78-1.06,1.33-.51c.43-.15.87-.27,1.3-.41,1.7-.52,3.26-1,4.67-1.33l2-.48,1.69-.32c1-.22,1.83-.3,2.38-.39s.85-.1.85-.1Z"/><path class="cls-42" d="M271.57,315.49l-1.28-.15a13.4,13.4,0,0,0-1.53-.15h-2.07a30.12,30.12,0,0,0-5.52.82,26.94,26.94,0,0,0-3.31.93l-1.78.54c-.6.2-1.21.45-1.83.68-1.24.49-2.56.92-3.87,1.52l-4.08,1.8c-1.4.61-2.79,1.35-4.23,2s-2.92,1.36-4.39,2.18l-2.24,1.19-2.2,1.28c-1.48.84-3,1.76-4.43,2.71s-2.95,1.91-4.42,2.9-2.92,2-4.38,3-2.91,2.05-4.35,3.09-2.85,2.1-4.24,3.17-2.78,2.12-4.11,3.2-2.68,2.12-4,3.2c-2.57,2.13-5,4.22-7.34,6.23l-3.3,3-3,2.88c-1,.91-1.84,1.85-2.7,2.72s-1.69,1.67-2.4,2.49l-2,2.26-1.62,2a31.79,31.79,0,0,0-2.13,2.93l-.71,1.06L178,375l.69-1.09a32.51,32.51,0,0,1,2-3l1.56-2.07,2-2.32c.69-.85,1.49-1.69,2.32-2.58s1.69-1.85,2.66-2.78l3-2.95,3.27-3.06c2.28-2.06,4.7-4.21,7.28-6.36,1.27-1.09,2.6-2.15,4-3.24s2.7-2.17,4.11-3.23,2.79-2.16,4.23-3.21S218,337,219.43,336s2.92-2.06,4.42-3,3-2,4.46-2.89,3-1.85,4.48-2.7L235,326.1l2.25-1.18c1.47-.8,3-1.46,4.44-2.16s2.87-1.39,4.29-2l4.13-1.74c1.33-.57,2.67-1,3.92-1.46.63-.22,1.24-.46,1.86-.65l1.81-.51a28.56,28.56,0,0,1,3.37-.84,30.88,30.88,0,0,1,5.6-.65l2.09.08a12.22,12.22,0,0,1,1.53.19l1.27.19Z"/><path class="cls-42" d="M271.58,308.39s-1.49.25-4.07.84c-1.29.28-2.85.68-4.63,1.12s-3.79,1-5.94,1.68l-1.66.5-1.69.59c-1.14.42-2.35.77-3.51,1.32s-2.41,1-3.6,1.61-2.45,1.25-3.69,1.9c-2.49,1.33-5,2.76-7.62,4.24s-5.18,3-7.78,4.56-5.21,3.07-7.74,4.62-5,3.09-7.41,4.62l-6.87,4.42c-2.15,1.43-4.21,2.78-6.05,4.1l-2.66,1.87-2.36,1.72c-1.51,1.07-2.72,2.11-3.77,2.92s-1.77,1.56-2.31,2l-.8.73-.08-.07.79-.76c.52-.48,1.23-1.25,2.24-2.1s2.2-1.95,3.66-3.07c.73-.56,1.5-1.17,2.31-1.81L199,344c1.81-1.36,3.84-2.75,6-4.23s4.43-3,6.81-4.53,4.86-3.12,7.39-4.69,5.13-3.13,7.72-4.69c5.22-3.07,10.48-6.07,15.51-8.71,1.26-.65,2.5-1.3,3.73-1.88s2.5-1,3.69-1.56,2.43-.85,3.58-1.25l1.72-.56,1.68-.46c2.17-.64,4.21-1.09,6-1.52s3.38-.73,4.68-.95c2.61-.5,4.11-.7,4.11-.7Z"/><path class="cls-42" d="M277.9,302.81l-.95-.19c-.31-.05-.69-.16-1.15-.2l-1.55-.09a16.65,16.65,0,0,0-1.93.08,17.73,17.73,0,0,0-2.26.27l-1.25.19-1.3.29c-.9.21-1.84.36-2.81.64s-2,.51-3,.81l-3.22,1c-1.11.33-2.24.72-3.39,1.09l-1.75.56c-.52.17-1.15.43-1.73.64-1.21.42-2.34,1-3.49,1.5s-2.33,1.15-3.5,1.74-2.35,1.24-3.52,1.88-2.35,1.3-3.51,2c-4.7,2.61-9.34,5.36-13.65,8s-8.37,5-11.8,7.2l-11.51,7.07-.06-.09s4.46-3.05,11.24-7.48c3.39-2.22,7.37-4.77,11.67-7.45s8.91-5.49,13.61-8.15q1.75-1,3.54-1.95c1.19-.64,2.36-1.29,3.56-1.87s2.35-1.21,3.56-1.72a37.35,37.35,0,0,1,3.56-1.49c.59-.22,1.17-.45,1.77-.64l1.77-.54c1.16-.34,2.3-.71,3.42-1l3.26-.89c1.06-.28,2.09-.5,3.07-.74s1.95-.4,2.85-.58l1.33-.24,1.27-.14a19.14,19.14,0,0,1,2.3-.18,18.11,18.11,0,0,1,2,0l1.58.15a11.63,11.63,0,0,1,1.14.24l.94.23Z"/><path class="cls-42" d="M261.7,297l-1.14.26-1.37.31c-.54.13-1.13.35-1.81.55l-2.21.72-2.59,1c-1.85.67-3.89,1.55-6.14,2.46l-1.71.71-1.75.81-3.67,1.69c-1.25.59-2.49,1.28-3.79,1.94s-2.64,1.3-3.92,2.09-2.63,1.53-4,2.3-2.58,1.74-3.89,2.62l-1.95,1.34-1.92,1.46-3.85,3c-5.16,3.91-10.27,7.88-15,11.69s-9.13,7.36-12.78,10.56c-.92.79-1.77,1.58-2.6,2.31s-1.61,1.43-2.33,2.1c-1.47,1.32-2.67,2.55-3.65,3.56a30.53,30.53,0,0,0-2.16,2.47l-.72.91-.09-.05.7-.95a31.85,31.85,0,0,1,2.08-2.55c.95-1,2.12-2.32,3.54-3.69s3-2.92,4.83-4.55c7.2-6.54,17.28-14.72,27.56-22.62q2-1.46,3.88-2.93L221.2,315l2-1.35c1.33-.88,2.61-1.82,4-2.62l4-2.29c1.3-.79,2.67-1.4,4-2.06s2.58-1.31,3.85-1.88l3.72-1.64,1.77-.77,1.73-.68,3.25-1.26c1-.41,2-.71,3-1l2.62-.89,2.27-.64c.69-.19,1.29-.39,1.83-.5l1.37-.26,1.15-.22Z"/><path class="cls-42" d="M223.41,308.38s-1.36.55-3.7,1.59c-1.17.52-2.59,1.14-4.19,1.91l-5.39,2.57c-2,.93-4.07,2.05-6.28,3.2s-4.5,2.5-6.77,4-4.63,3.05-7,4.69-4.69,3.38-7,5.13-4.7,3.46-7,5.22-4.49,3.49-6.61,5.22-4.16,3.4-6.07,5-3.67,3.2-5.29,4.67-3.07,2.85-4.3,4.13-2.31,2.39-3.17,3.33-1.45,1.75-1.9,2.28l-.66.81-.08-.06.63-.84c.42-.53,1-1.38,1.82-2.35s1.81-2.17,3.05-3.46,2.64-2.72,4.2-4.27,3.32-3.14,5.21-4.8,3.89-3.39,6-5.14,4.32-3.52,6.6-5.29,4.59-3.54,6.94-5.28,4.73-3.44,7.09-5.1,4.68-3.27,7.05-4.66,4.67-2.69,6.88-3.89,4.37-2.2,6.37-3.09c4-1.83,7.38-3.22,9.75-4.17s3.75-1.44,3.75-1.44Z"/><path class="cls-42" d="M194.76,331.07l-1.83,1.8c-1.2,1.11-2.84,2.79-4.89,4.7l-3.26,3.13c-1.15,1.11-2.33,2.32-3.61,3.51s-2.54,2.48-3.84,3.77l-2,2-1.9,2c-1.3,1.33-2.62,2.64-3.78,4l-1.77,2-.44.5-.39.52c-.26.36-.53.71-.79,1.06-2.11,2.8-4.17,5.34-5.89,7.55-.86,1.11-1.68,2.1-2.4,3L156.26,373c-1,1.3-1.55,2-1.55,2l-.09-.05,1.41-2.15,1.63-2.46,2.26-3.08c1.66-2.26,3.59-4.9,5.67-7.72,1-1.44,2.2-2.81,3.38-4.21s2.48-2.77,3.76-4.12l1.94-2,2-1.94c1.32-1.28,2.61-2.56,3.9-3.74,2.56-2.4,5-4.59,7.08-6.45,4.2-3.72,7.06-6.12,7.06-6.12Z"/><path class="cls-42" d="M235.31,294.69l-1.87.37c-1.19.2-2.88.57-4.92.91s-4.42.83-7,1.24-5.26.91-8,1.45c-1.36.24-2.72.47-4.05.74s-2.63.52-3.88.8L202,301c-1.17.24-2.24.53-3.24.79s-1.9.52-2.7.75a20.87,20.87,0,0,0-2.08.66c-1.13.41-1.79.63-1.79.63l0-.09,1.73-.79a21.07,21.07,0,0,1,2-.81c.79-.29,1.68-.63,2.68-.92,2-.63,4.32-1.27,6.84-1.87,1.26-.3,2.57-.6,3.9-.87s2.69-.55,4.05-.8c10.89-2,21.91-3.08,21.91-3.08Z"/><path class="cls-42" d="M218.08,299.26s-1.43.38-3.9,1.12l-4.44,1.38L204,303.62c-2.1.7-4.37,1.47-6.74,2.33s-4.86,1.82-7.42,2.83-5.17,2.13-7.76,3.38c-1.32.58-2.58,1.31-3.88,2s-2.5,1.46-3.75,2.19-2.42,1.56-3.57,2.46l-3.5,2.65c-2.3,1.76-4.53,3.52-6.68,5.24s-4.22,3.41-6.13,5.07-3.7,3.22-5.33,4.71c-.83.73-1.57,1.48-2.29,2.18l-2.05,2c-1.24,1.29-2.28,2.46-3.16,3.4l-2.52,3.17-.08-.06,2.4-3.27c.85-1,1.85-2.18,3-3.52s2.62-2.8,4.24-4.31,3.33-3.18,5.24-4.84,3.95-3.41,6.07-5.19,4.37-3.53,6.66-5.32L170.3,318c1.14-.92,2.41-1.69,3.62-2.55s2.53-1.52,3.83-2.2,2.6-1.37,3.93-1.95c2.63-1.24,5.27-2.34,7.85-3.34,5.16-2,10.06-3.62,14.29-4.91,8.48-2.57,14.23-3.89,14.23-3.89Z"/><path class="cls-42" d="M236.59,300.53l-1.3.51c-.83.3-2,.79-3.43,1.29l-2.3.81c-.81.31-1.67.63-2.57.91-1.8.56-3.69,1.26-5.59,1.91-1,.28-1.91.63-2.85.93l-2.75.92c-1.76.66-3.45,1.17-4.88,1.67s-2.59.94-3.42,1.25-1.33.44-1.33.44l0-.09,1.25-.59,1.44-.69c.56-.26,1.18-.57,1.88-.87l4.8-1.94,2.74-1c.94-.33,1.88-.7,2.85-1,1.92-.61,3.83-1.27,5.65-1.79s3.5-1.06,5-1.46c2.92-.83,4.87-1.33,4.87-1.33Z"/><path class="cls-42" d="M210,303.82l-3.42,1.68-3.91,2c-1.49.79-3.18,1.68-5,2.61s-3.84,2-5.92,3.15L188.49,315l-1.65.91-1.66,1-3.38,2-3.34,2.23c-1.14.73-2.22,1.56-3.33,2.39s-2.23,1.65-3.31,2.5c-2.21,1.66-4.41,3.32-6.53,5s-4.2,3.4-6.18,5.07c-1,.81-2,1.67-2.9,2.49s-1.86,1.62-2.75,2.4c-1.79,1.55-3.37,3.15-4.89,4.57-.77.69-1.45,1.42-2.1,2.1l-1.87,1.92c-.58.61-1.15,1.16-1.64,1.71l-1.28,1.54-2.45,2.92-.08-.06,2.33-3c.37-.48.79-1,1.23-1.59s1-1.14,1.57-1.77l1.8-2c.64-.71,1.3-1.45,2.06-2.16,1.49-1.45,3-3.1,4.8-4.7s3.59-3.35,5.59-5,4-3.45,6.16-5.13,4.32-3.43,6.53-5.11c1.09-.85,2.22-1.66,3.33-2.48s2.21-1.65,3.37-2.38l3.4-2.23,3.43-2,1.67-1c.57-.29,1.12-.59,1.67-.89l3.24-1.72c2.12-1.1,4.15-2.09,6-3,3.74-1.81,6.89-3.27,9.1-4.27l3.49-1.54Z"/><path class="cls-42" d="M178.09,323.21s-.6.61-1.67,1.66-2.59,2.55-4.45,4.31c-.92.89-1.94,1.83-3,2.86s-2.15,2.11-3.3,3.22-2.34,2.25-3.5,3.45-2.37,2.4-3.41,3.69c-.53.63-1.15,1.25-1.62,1.88l-1.51,2.05c-1,1.36-2,2.66-2.88,4s-1.76,2.58-2.6,3.77-1.58,2.37-2.3,3.43-1.37,2-2,2.89l-1.51,2.23c-.85,1.24-1.35,1.93-1.35,1.93l-.09-.05,1.21-2c.76-1.28,1.86-3.11,3.2-5.3.68-1.08,1.37-2.29,2.18-3.51l2.52-3.88c.83-1.37,1.86-2.67,2.83-4.05.48-.68,1-1.37,1.48-2.06s1.1-1.31,1.65-2c1.08-1.33,2.34-2.48,3.5-3.7s2.41-2.32,3.57-3.43,2.32-2.13,3.39-3.12,2.14-1.91,3.09-2.76c3.84-3.4,6.46-5.6,6.46-5.6Z"/><path class="cls-44" d="M483,363.15a35.14,35.14,0,0,0,4-13.45,40,40,0,0,0-5.93-5.6c-2.46-1.91-12-6.09-21.13-4.06S431,351.64,419,353.23c-12.6,1.67-20.33,4-33.48,5.24-14,1.32-15.89,2.87-23,3s-19.44-2.87-22-3.38,16.4,5.41,31.11,5.58a265.41,265.41,0,0,0,39.9-2.54c12.34-1.69,26.38-7.94,38.55-9.64s17.92-1,21,.85S483,363.15,483,363.15Z"/><path class="cls-44" d="M463.81,392.28c10.15-7.6,7.61-16.74,7.61-16.74s-.84-5.07-7.61-7.44-11.83-3-27.56-1.86-30.43,2-37.87,2.2-22.65-1.18-30.43-1.86-25.53-7.78-27.39-8.45-17-10.74-17-10.74,24.34,26.12,38.29,29.67,27.14,6.35,41.59,6.09,32.21-5.58,38.8,0,10.91,12.43,13.7,11.67S463.81,392.28,463.81,392.28Z"/><path class="cls-45" d="M471.08,352.38c-3-1.86-8.79-2.54-21-.85s-26.21,8-38.55,9.64a265.41,265.41,0,0,1-39.9,2.54c-8.46-.1-18.3-2.09-24.66-3.68a31.1,31.1,0,0,1-3.51-.78c5.79,2.2,18.27,6.8,24.45,7.33,7.78.68,23,2,30.43,1.86s22.15-1,37.87-2.2,20.8-.5,27.56,1.86,7.61,7.44,7.61,7.44,1.52,5.08,11.54-12.39C483,363.15,474.13,354.24,471.08,352.38Z"/><path class="cls-44" d="M349.69,228.45s-.93.46-2.57,1.48-4,2.59-6.88,4.74a104.17,104.17,0,0,0-9.84,8.42,139.49,139.49,0,0,0-11.3,12.38c-1.93,2.36-3.85,5-5.71,7.62q-1.38,2.1-2.8,4.25L308,271.79A126,126,0,0,0,299.34,292a140.4,140.4,0,0,0-5.51,22.83,104.18,104.18,0,0,0-1.09,12,49.16,49.16,0,0,0,.84,11.81l.06.35,0,.1c0,.1,0,0,0,0l0,.19.2.74.42,1.49c.28,1,.54,2,.83,3l1,2.71c.18.45.32.92.54,1.36l.64,1.32c1.64,3.57,4,6.8,6.06,10.56.48,1,.94,1.91,1.41,2.86s.76,2,1.13,3c.17.48.39,1.05.51,1.45l.47,1.43c.34.91.63,1.78,1,2.65a22.74,22.74,0,0,0,6.06,8.94,15,15,0,0,0,4.44,2.58,29,29,0,0,0,5.19,1.23c1.83.34,3.6.55,5.38.83l5.31.65c1.75.23,3.49.36,5.19.54s3.39.31,5,.44,3.29.28,4.88.37l4.7.23c1.54.1,3,.06,4.51.09s2.92.08,4.3,0l4.07-.18,3.9-.22c1.25-.1,2.48-.12,3.67-.13s2.33-.05,3.42,0c2.19.06,4.19.07,6,.19l2.56.13,2.26.19c1.4.11,2.59.26,3.55.35,1.93.22,2.95.37,2.95.37s-1-.07-3-.15-4.77-.14-8.38-.1c-1.8,0-3.79.08-6,.15-1.08,0-2.2.14-3.36.21s-2.36.16-3.62.33l-3.84.44-4.16.41c-1.42.19-2.88.15-4.37.22s-3,.13-4.58.09c-6.23,0-13-.31-20.07-.89l-5.41-.51c-1.82-.24-3.72-.41-5.56-.7-.94-.15-1.78-.26-2.82-.45a22.54,22.54,0,0,1-3-.81,18.76,18.76,0,0,1-5.52-3.07,26.37,26.37,0,0,1-7.27-10.22c-.43-.93-.8-2-1.16-2.92l-.5-1.42c-.19-.55-.35-.92-.52-1.39-.35-.89-.67-1.79-1-2.68L300,362.23c-1.85-3.37-4.37-6.78-6.21-10.67l-.71-1.45c-.24-.48-.4-1-.61-1.51l-1.16-3.06c-.32-1-.58-2-.86-3l-.42-1.49-.21-.74-.06-.19,0-.18,0-.1-.07-.41a51.86,51.86,0,0,1-.86-12.79A106.29,106.29,0,0,1,290,314.21a134.35,134.35,0,0,1,6-23.4,117.74,117.74,0,0,1,9.44-20.52c.95-1.55,1.87-3.08,2.81-4.56l2.93-4.16c2.1-2.73,4.1-5.24,6.18-7.59a118,118,0,0,1,12.05-12,106.18,106.18,0,0,1,10.4-7.95,74.7,74.7,0,0,1,7.23-4.29C348.73,228.84,349.69,228.45,349.69,228.45Z"/><path class="cls-44" d="M290.68,331s-.22-.18-.6-.56a15.34,15.34,0,0,1-1.51-1.79,24.42,24.42,0,0,1-1.95-3.11c-.34-.62-.64-1.32-1-2s-.6-1.52-.92-2.33-.53-1.71-.82-2.61l-.65-2.85c-.16-1-.33-2-.5-3.06s-.18-2.12-.28-3.21a60.5,60.5,0,0,1,0-6.73c0-.58.07-1.15.1-1.73l.2-1.72.2-1.73.1-.86v-.11l0-.17,0-.21.08-.42c.44-2.24.89-4.47,1.33-6.67a25.55,25.55,0,0,1,.86-3.28c.33-1.08.65-2.14,1-3.19a47.45,47.45,0,0,1,2.2-5.87c.4-.91.69-1.84,1.15-2.66s.87-1.63,1.27-2.4.75-1.52,1.21-2.17.85-1.29,1.23-1.88a31.11,31.11,0,0,1,2.17-2.93,21.69,21.69,0,0,1,1.56-1.73c.39-.39.6-.58.6-.58s-.18.23-.47.68-.73,1.1-1.19,2-1.1,1.9-1.66,3.17-1.28,2.62-1.87,4.22-1.33,3.25-1.88,5.11-1.29,3.75-1.74,5.8q-.39,1.51-.78,3.09c-.25,1-.56,2.07-.74,3.19-.4,2.21-.82,4.46-1.23,6.7l-.08.42,0,.21v.05c0,.06,0-.06,0,0v.12L286,298l-.21,1.66-.22,1.65-.12,1.65c-.19,2.19-.27,4.35-.28,6.44,0,1,.07,2.07.1,3.07s.16,2,.24,2.94.27,1.87.4,2.76.35,1.74.51,2.56.42,1.58.62,2.32.43,1.43.68,2.07a30.8,30.8,0,0,0,1.4,3.26,20.05,20.05,0,0,0,1.13,2A8.08,8.08,0,0,0,290.68,331Z"/><path class="cls-46" d="M439.13,299.21s-.24.4-.68,1c-.23.32-.5.7-.83,1.11l-.51.66a.63.63,0,0,1-.36.21,2.81,2.81,0,0,0-.39.19l-7.68,4.1-7.67,4.1c-.12.07-.26.13-.37.21a.55.55,0,0,1-.39.16l-.83.07c-.53.05-1,.06-1.38.07-.77,0-1.23,0-1.23,0s.24-.39.69-1c.22-.31.49-.7.82-1.11.17-.2.34-.42.52-.65a.6.6,0,0,1,.35-.24,2,2,0,0,0,.39-.19c2.1-1.11,4.88-2.6,7.67-4.1l7.67-4.09a2.36,2.36,0,0,0,.38-.22.62.62,0,0,1,.38-.18l.83-.06c.53,0,1-.06,1.38-.07C438.67,299.18,439.13,299.21,439.13,299.21Z"/><path class="cls-46" d="M419.18,293.37s.45.13,1.19.42c.37.15.81.32,1.3.55l.78.35a.69.69,0,0,1,.31.3,2.79,2.79,0,0,0,.28.34l6,6.56,6,6.57a3.22,3.22,0,0,0,.32.32.58.58,0,0,1,.25.34c.11.29.2.56.29.81.19.5.32,1,.44,1.34.23.76.33,1.21.33,1.21s-.44-.14-1.18-.43c-.36-.15-.81-.32-1.3-.55l-.78-.35a.64.64,0,0,1-.32-.29,4.38,4.38,0,0,0-.29-.34l-6-6.56-6.05-6.57a2.34,2.34,0,0,0-.31-.32.59.59,0,0,1-.27-.33l-.29-.8c-.18-.51-.32-1-.43-1.34C419.27,293.84,419.18,293.37,419.18,293.37Z"/><path class="cls-47" d="M372.52,192.44c-23.85-4.06-72-2-108.55,5.58S157.45,209.73,128,204.38s-21,17.48-23.33,27.28-22,36.86-36.86,57.15-35.5,64.92-41.93,81.49S23,440.47,37.75,469.89s56.3,61.37,98.91,76.08,74.56,15.72,91.3,21.3,79.12,4.06,120.21-2.53S482.58,518.07,498.3,485.1s28.41-93.83,24.35-126.8-4.06-64.42-18.76-87.75-34-42.61-29.43-56.3C477.07,206.43,396.35,196.49,372.52,192.44Z"/><path class="cls-35" d="M130.74,98.51c0,1.42-1.67,2.57-3.72,2.57s-3.72-1.15-3.72-2.57S125,95.94,127,95.94,130.74,97.09,130.74,98.51Z"/><path class="cls-35" d="M135.13,109.34c0,1-2.12,1.85-4.73,1.85s-4.73-.83-4.73-1.85,2.12-1.86,4.73-1.86S135.13,108.31,135.13,109.34Z"/><path class="cls-35" d="M145.28,123c0,1.21-2.27,2.19-5.08,2.19s-5.07-1-5.07-2.19,2.28-2.19,5.07-2.19S145.28,121.75,145.28,123Z"/><path class="cls-35" d="M148.66,135.86c0,1.19-1.89,2.15-4.23,2.15s-4.23-1-4.23-2.15,1.9-2.15,4.23-2.15S148.66,134.67,148.66,135.86Z"/><path class="cls-35" d="M153.27,148.54c.31.87-1.13,2.18-3.21,2.92s-4,.62-4.34-.25,1.13-2.17,3.22-2.91S153,147.67,153.27,148.54Z"/><path class="cls-35" d="M161,158.05c0,1.35-.79,2.45-1.77,2.45s-1.78-1.1-1.78-2.45.8-2.45,1.78-2.45S161,156.7,161,158.05Z"/><path class="cls-35" d="M185.74,170.93c0,.87-1.79,1.58-4,1.58s-4-.71-4-1.58,1.79-1.58,4-1.58S185.74,170.06,185.74,170.93Z"/><path class="cls-35" d="M214.26,175c0,1.4-2.35,2.53-5.24,2.53s-5.24-1.13-5.24-2.53,2.34-2.52,5.24-2.52S214.26,173.64,214.26,175Z"/><path class="cls-35" d="M241.63,168.76c.23,1.66-1.92,3.32-4.79,3.72s-5.39-.63-5.62-2.29,1.92-3.32,4.79-3.72S241.4,167.1,241.63,168.76Z"/><ellipse class="cls-35" cx="258.74" cy="166.64" rx="4.66" ry="2.71"/><path class="cls-35" d="M287.84,156.7c.38,1.48-2.33,3.46-6,4.41s-7,.54-7.42-.94,2.32-3.46,6-4.42S287.46,155.22,287.84,156.7Z"/><path class="cls-35" d="M309.28,155.89c0,1.49-2,2.7-4.59,2.7s-4.58-1.21-4.58-2.7,2.05-2.7,4.58-2.7S309.28,154.4,309.28,155.89Z"/><path class="cls-35" d="M330.41,155.89c0,1.49-1.59,2.7-3.55,2.7s-3.55-1.21-3.55-2.7,1.59-2.7,3.55-2.7S330.41,154.4,330.41,155.89Z"/><path class="cls-35" d="M355.83,159.66c-.32,1.48-2.72,2.2-5.37,1.63s-4.53-2.24-4.21-3.71,2.73-2.2,5.37-1.63S356.16,158.19,355.83,159.66Z"/><path class="cls-35" d="M376.6,162.29c0,1.28-1.82,2.32-4.08,2.32s-4.06-1-4.06-2.32,1.82-2.31,4.06-2.31S376.6,161,376.6,162.29Z"/><path class="cls-35" d="M389.57,166.55a2.5,2.5,0,1,1-2.44-1.94A2.23,2.23,0,0,1,389.57,166.55Z"/><path class="cls-35" d="M402.61,170.52a2.19,2.19,0,1,1-2.18-2A2.12,2.12,0,0,1,402.61,170.52Z"/><path class="cls-35" d="M415.56,175.23a3,3,0,1,1-3-2.66A2.85,2.85,0,0,1,415.56,175.23Z"/><path class="cls-35" d="M436.93,178.42c0,1.77-1.82,3.2-4.06,3.2s-4.06-1.43-4.06-3.2,1.82-3.19,4.06-3.19S436.93,176.66,436.93,178.42Z"/><path class="cls-35" d="M460.52,182.63c0,1.31-1.46,2.37-3.26,2.37s-3.25-1.06-3.25-2.37,1.45-2.37,3.25-2.37S460.52,181.32,460.52,182.63Z"/><path class="cls-35" d="M474.46,184.49a2,2,0,1,1-2-1.86A1.94,1.94,0,0,1,474.46,184.49Z"/><path class="cls-35" d="M490.82,184.49a1.79,1.79,0,1,1-1.79-1.86A1.82,1.82,0,0,1,490.82,184.49Z"/><path class="cls-35" d="M508.45,183.31c0,.93-1.21,1.69-2.71,1.69s-2.7-.76-2.7-1.69,1.21-1.69,2.7-1.69S508.45,182.37,508.45,183.31Z"/><path class="cls-35" d="M523.41,180.53a2.43,2.43,0,1,1-2.41-2.11A2.27,2.27,0,0,1,523.41,180.53Z"/><path class="cls-35" d="M541.42,177.75a3,3,0,1,1-3-2.52A2.76,2.76,0,0,1,541.42,177.75Z"/><path class="cls-35" d="M558.5,175.16a2.38,2.38,0,1,1-2.37-2.59A2.49,2.49,0,0,1,558.5,175.16Z"/><path class="cls-48" d="M161,191.42a41.85,41.85,0,0,1,9.13-10.22,46.73,46.73,0,0,1,9.89-5.75s12.68,7.35,22.32,12.42,34.24,22.32,37.54,30.18,1.27,23.08,0,26.89-9.64-1-13.95-2-26.38-.76-34-12.43S161,191.42,161,191.42Z"/><path class="cls-49" d="M181.74,179.15l1.23.56c.78.37,1.91.87,3.22,1.55s2.86,1.43,4.49,2.3c.81.44,1.66.86,2.5,1.34l2.56,1.44c1.71,1,3.41,2,5,2.92.8.46,1.54,1,2.25,1.43l2,1.32c1.24.8,2.23,1.53,2.95,2l1.1.79-1.21-.62c-.75-.42-1.86-1-3.14-1.7l-9.43-5.26-5-2.89c-1.6-.92-3.06-1.83-4.33-2.58s-2.3-1.43-3-1.88Z"/><path class="cls-49" d="M187.55,185.17l2.37,1.39c1.5.91,3.66,2.18,6.21,3.77s5.53,3.42,8.68,5.47,6.49,4.25,9.81,6.5c1.65,1.13,3.29,2.3,4.9,3.44s3.17,2.29,4.66,3.44a36.49,36.49,0,0,1,4.14,3.58l3.27,3.58c1,1.12,1.85,2.22,2.63,3.16s1.41,1.8,1.94,2.5c1.07,1.39,1.62,2.23,1.62,2.23s-.62-.78-1.77-2.11c-.57-.66-1.25-1.48-2.08-2.37s-1.72-1.93-2.75-3l-3.4-3.46a45.93,45.93,0,0,0-4.13-3.39c-1.49-1.12-3.07-2.24-4.68-3.37l-4.92-3.37c-3.29-2.28-6.61-4.52-9.73-6.6l-8.5-5.73-6-4.08Z"/><path class="cls-49" d="M194,191.42l1.44.83c.89.55,2.2,1.3,3.73,2.27s3.31,2.08,5.19,3.34,3.86,2.62,5.83,4l2.91,2.11c1,.69,1.87,1.43,2.78,2.11,1.79,1.38,3.39,2.75,4.77,3.93.68.6,1.27,1.18,1.81,1.69s.95,1,1.31,1.38.57.76.75,1l.25.35-.29-.32c-.21-.2-.47-.51-.85-.87s-.86-.78-1.43-1.24l-1.92-1.53c-1.42-1.1-3.12-2.33-4.94-3.66l-5.74-4.11-5.75-4.09-5-3.61c-1.47-1-2.67-2-3.52-2.58Z"/><path class="cls-49" d="M188.9,188.72l2.2,1.69c1.38,1.09,3.39,2.61,5.75,4.5s5.14,4.06,8.06,6.45l9.18,7.48,4.61,3.85,2.27,1.89,1.12.94,1,1a26.43,26.43,0,0,1,2,1.94c.63.67,1.27,1.31,1.85,2,1.15,1.3,2.24,2.52,3.21,3.69,2,2.3,3.47,4.32,4.56,5.71s1.65,2.22,1.65,2.22l-1.8-2.1c-1.15-1.33-2.82-3.22-4.85-5.46-1-1.13-2.13-2.3-3.31-3.55-.6-.63-1.24-1.23-1.88-1.86l-1-1-1.05-.93-1.07-.95-1.1-.91-2.29-1.86-4.66-3.8L204.36,202c-2.91-2.42-5.57-4.74-7.87-6.69s-4.18-3.64-5.52-4.79Z"/><path class="cls-49" d="M181.74,185.17s2.75,2.4,6.74,6.17l3.19,3.07c1.13,1.09,2.32,2.24,3.51,3.47s2.46,2.47,3.69,3.78l3.76,4c1.2,1.38,2.4,2.76,3.59,4.11s2.23,2.82,3.29,4.17,2,2.67,3,3.93l2.65,3.53c.83,1.09,1.56,2.12,2.25,3l1.77,2.28,1.52,2L219,226.75l-1.91-2.16c-.76-.83-1.55-1.8-2.41-2.87-1.72-2.14-3.75-4.59-5.89-7.29-1.07-1.32-2.13-2.72-3.3-4.07l-3.62-4.05-3.7-4c-1.21-1.32-2.45-2.57-3.63-3.81l-6.48-6.75C184.28,187.8,181.74,185.17,181.74,185.17Z"/><path class="cls-49" d="M203.78,204.7l1.46,1.35c.92.88,2.26,2.11,3.8,3.64s3.38,3.3,5.27,5.25l5.9,6.15c2,2.13,3.92,4.28,5.73,6.32s3.41,4,4.79,5.69c.69.84,1.28,1.65,1.81,2.36s.94,1.37,1.3,1.89a8.15,8.15,0,0,1,.73,1.29l.23.47s-.09-.16-.28-.44a9.84,9.84,0,0,0-.84-1.2c-.4-.5-.85-1.12-1.44-1.77s-1.22-1.43-2-2.23c-1.43-1.63-3.18-3.47-5-5.47s-3.82-4.12-5.81-6.22l-5.8-6.23-5-5.46c-1.48-1.6-2.68-3-3.54-3.9Z"/><path class="cls-49" d="M185.74,192.78l1.11,1.35c.7.87,1.72,2.09,2.89,3.6s2.54,3.26,4,5.17,3,3.95,4.44,6,2.95,4.15,4.3,6.11,2.56,3.85,3.58,5.46,1.84,3,2.43,3.93l.9,1.5-1.07-1.4c-.65-.9-1.63-2.16-2.73-3.71-.55-.78-1.15-1.62-1.79-2.5s-1.35-1.8-2.05-2.76c-1.42-1.91-2.91-4-4.4-6L193,203.43c-1.38-2-2.62-3.79-3.71-5.36l-2.58-3.83C186.08,193.31,185.74,192.78,185.74,192.78Z"/><path class="cls-49" d="M175.37,187s.43.45,1.17,1.26,1.79,1.95,3,3.37,2.66,3,4.14,4.86,3.06,3.73,4.61,5.68,3.07,3.93,4.45,5.82,2.63,3.67,3.7,5.21c.53.77,1,1.46,1.41,2.13l1,1.69.86,1.48-1-1.38-1.15-1.58c-.44-.62-1-1.26-1.57-2l-1.84-2.38-2.1-2.62-4.53-5.73L183,197,179.1,192C176.84,189,175.37,187,175.37,187Z"/><path class="cls-49" d="M177.75,194.81l1.1,1.14c.68.74,1.68,1.78,2.82,3.07s2.5,2.8,3.88,4.45,2.85,3.44,4.29,5.24l2.1,2.73c.7.89,1.33,1.81,2,2.68s1.21,1.75,1.77,2.56,1.05,1.63,1.53,2.35.83,1.44,1.19,2.05.58,1.19.8,1.64a6.64,6.64,0,0,1,.38,1.11c.09.26.13.4.13.4l-.17-.38a11,11,0,0,0-.52-1c-.27-.43-.56-1-.95-1.54l-1.34-1.92c-.51-.69-1.05-1.46-1.65-2.24l-1.89-2.46L189,209.34l-4.18-5.3c-1.32-1.71-2.56-3.29-3.62-4.65s-1.92-2.52-2.54-3.32Z"/><path class="cls-49" d="M175.37,194.81s.26.25.68.7,1,1.11,1.73,1.91c1.4,1.6,3.2,3.79,4.91,6.05.85,1.14,1.69,2.28,2.44,3.38s1.44,2.13,2,3,1,1.71,1.25,2.27a4.25,4.25,0,0,1,.28.67c0,.16.08.24.08.24s0-.08-.13-.22-.22-.35-.4-.59c-.35-.51-.91-1.2-1.56-2-1.31-1.67-3-3.89-4.76-6.15s-3.36-4.55-4.56-6.3c-.61-.88-1.08-1.63-1.42-2.15Z"/><path class="cls-49" d="M172.67,194.81s.18.2.47.57.72.89,1.19,1.55c1,1.29,2.17,3.06,3.3,4.88s2.2,3.68,2.94,5.11c.38.71.65,1.33.86,1.75s.31.68.31.68-.18-.21-.47-.58-.72-.89-1.19-1.54c-1-1.29-2.17-3.07-3.3-4.88s-2.2-3.68-2.94-5.12c-.38-.71-.65-1.33-.86-1.75S172.67,194.81,172.67,194.81Z"/></g></g></svg>