<svg xmlns="http://www.w3.org/2000/svg" viewBox="0 0 885.92 609.02"><defs><style>.cls-1{fill:none;stroke:#fff;stroke-miterlimit:10;}</style></defs><title>frilledshark-line</title><g id="圖層_2" data-name="圖層 2"><g id="frilledshark-line"><path class="cls-1" d="M260.5,454.6c-18,18.5-26.5,16.5-26.5,16.5l-11.5,5c-11.5,5-41,5-62,0s-15.5-7.5-32-10.5-22-1-49.5-4-32-15.5-32.5-19a5.42,5.42,0,0,0-.8-2c1,10.59,2.9,30,4.3,41.53,2,16.5,5.5,32,6.5,41.5s4,17.5,12.5,25,39,21,64,20.5,31.5-6.5,46-17,37-38,44.5-48.5,32-35.28,43.5-46.89c8-8.09,18.72-22.23,24.48-30.08A318,318,0,0,0,260.5,454.6Z"/><path class="cls-1" d="M59.5,453.85s-1.5,20,0,33.25,9.25,35.5,16.25,45.5,32.5,22,52.5,22.5,33.25-4.25,43.25-12.5,16-9.75,22.5-17.5,37-43,39.25-46,3.09-10.34,3.09-10.34Z"/><polygon class="cls-1" points="146 560.1 149 560.1 147.31 554.72 150 553.35 150 546.1 146.88 551.22 144.75 547.35 150.44 540.35 144.84 543.97 143.86 540.35 147.18 534.6 142 537.22 140.62 532.6 145.56 527.72 139.37 528.72 135.08 522.93 135.5 530.85 131 529.35 136.38 534.1 138 538.1 133.63 534.72 136 539.97 132.25 537.6 135.5 543.35 138.25 544.35 139.5 548.35 134.5 545.35 139.75 552.35 138.13 552.97 144.38 555.22 146 560.1"/><polygon class="cls-1" points="165.2 553.22 170.1 549.97 168.64 548.6 170.03 546.1 173.63 543.1 169 543.1 170.25 540.47 175.13 539.47 170.16 537.28 172 529.13 166.13 535.49 162.38 526.85 161.13 531.48 159.63 527.6 162.38 521.22 158 524.35 157.25 522.93 159.88 518.1 155.13 520.22 149.88 515.97 151.38 523.85 144.88 522.93 150.44 528.6 147.25 529.35 157.25 530.35 158 533.35 150.44 532.1 159.38 536.47 160 538.1 153.63 537.35 162 541.51 162.63 544.35 155.75 540.85 160.75 546.47 158.63 546.35 163.5 552.35 165.2 553.22"/><polygon class="cls-1" points="179.88 538.97 187.81 526.91 183 529.1 183 519.1 179.38 522.93 181.25 512.6 178.38 515.97 176.94 512.6 178.97 506.85 175.11 509.6 168.24 503.35 171.75 512.35 171.5 515.97 164.37 514.35 174 519.35 175.13 522.35 168.38 519.6 175.13 524.6 177.75 527.85 172.63 525.1 178 530.22 180.13 531.47 181 532.97 177.63 534.6 179.88 538.97"/><polygon class="cls-1" points="195.03 524.35 199.58 521.35 198.73 516.07 200.05 508.39 196.15 512 195.51 510.98 197.32 507.35 195.75 500.72 194.88 507.47 193 508.22 193 503.1 192 504.85 192 501.1 190 502.1 190 496.1 188.22 501.1 187 499.22 187 493.1 185.63 497.35 181.88 493.72 183.38 498.6 179.06 499.47 184.72 501.35 180.49 502.72 187.25 504.35 188.37 507.22 182.62 506.35 189.56 510.47 190.63 512.85 185.13 512.47 190.5 516.1 186 516.1 191.38 518.72 195 519.85 195.03 524.35"/><polygon class="cls-1" points="207.55 506.91 210 505.99 210 503.11 215.17 502.1 210.03 502.1 209.83 499.52 212.5 497.73 215.17 490.77 209.21 496.02 208.19 494.94 208.76 490.61 204 494.49 204 490.79 200.51 492.02 196 487.1 197.83 493.1 195.25 493.1 200.09 496.46 196.48 496.76 201.18 498.55 197.79 500.91 203.34 501.28 205.21 502.19 200.79 503.19 206.71 504.65 207.55 506.91"/><polygon class="cls-1" points="102.17 560.59 103.5 553.22 107.1 554.3 112.17 547.85 106.25 550.23 107.38 547.66 113.15 542.3 107.82 543.28 108.83 540.44 115.16 538.98 110 537.43 110 535.1 118.83 534.6 111.92 532.77 120.54 529.6 114.77 528.77 116.14 522.93 110.65 528.27 107.66 523.6 108.16 530.1 105.17 527.43 106.5 532.27 102.33 529.1 104 536.1 103.17 538.97 101.17 536.6 99 541.51 96 538.97 96 545.1 93.67 543.27 96.88 549.22 96.21 554.27 102.17 560.59"/><polygon class="cls-1" points="124 562.1 127 562.1 127 557.1 131.75 553.1 127 553.1 126.88 550.97 131.81 544.85 128 547.47 128 545.1 132.63 542.1 128 542.1 129.5 539.1 127 539.1 128.31 535.97 132.63 532.22 127.63 531.6 125.75 526.35 124.88 530.6 120.73 531.22 124 533.1 124 535.1 119.13 532.85 123.25 537.47 122.25 538.97 118 537.26 122 542.1 118 542.1 120.54 543.6 121.5 547.1 115.75 545.6 120.54 550.72 119.88 554.22 114.88 551.22 119.5 557.35 120.54 561.47 124 562.1"/><polygon class="cls-1" points="77.09 546.5 79.22 547.68 81.76 545.73 89.62 543.63 84.54 539.94 86.17 537.63 92.79 539.29 90.72 536.1 94.1 533.37 97.39 532.81 94.33 529.01 96.59 528.12 100 528.05 97.65 524.65 102.95 523.75 99.34 522.68 103.22 518.63 100.14 519.15 96.42 515.22 96.08 519.9 91.54 518.33 93.26 522.73 91.17 523.85 88.82 520.44 88.54 528.48 85.48 525.45 85.55 531.02 83.83 532.13 81.1 529.49 81.08 536.09 80.08 537.65 77.03 533.86 77.79 539.06 74.67 536.42 76.63 542.68 77.09 546.5"/><polygon class="cls-1" points="67.5 530.05 69.88 531.55 72.81 528.15 81.09 527.25 76.73 524.98 78.37 521.98 85.12 523.72 81.5 519.72 83.5 518.47 87.5 519.97 85.5 517.1 86.38 515.22 93.13 516.72 88.94 512.85 95.63 511.1 92.5 508.1 97 501.85 90.25 505.85 88.25 500.6 86.88 507.35 84.81 508.22 82 502.72 82 510.1 79.75 507.1 78.75 510.6 77 513.1 76 507.47 73 516.05 69.88 513.1 69.38 519.6 68.06 522.35 66 517.97 66 523.1 67.5 530.05"/><polygon class="cls-1" points="60.94 504.1 62.03 505.72 66.08 503.91 70.54 506.81 69.13 502.1 71 502.1 77.63 503.1 73.38 499.72 74.67 498.22 80.25 500.6 77.5 498.22 78.63 496.35 85.13 498.85 81.5 494.6 83.38 493.6 91.63 495.22 86 492.1 89.63 489.97 96 484.72 88.94 486.47 88 480.6 84.88 486.35 82.5 482.35 79.75 488.97 78.31 489.6 77.5 485.6 76.25 489.85 74 486.1 74 491.1 71 489.6 71.44 493.71 69 492.1 69 496.1 68 496.85 65.25 493.71 65 497.85 62.63 500.6 60.94 504.1"/><polygon class="cls-1" points="65 478.1 66 473.85 67.5 474.72 69.63 469.6 71.25 472.22 72.63 471.6 71.75 467.85 74.67 470.35 73.88 465.1 79 469.47 81.5 465.1 82.5 468.47 88.13 466.1 84.13 472.22 88.13 475.35 81.5 474.35 79.38 475.22 82.63 478.1 75.75 477.1 74.67 478.47 77.88 481.22 71.5 479.72 72.25 482.85 67 481.35 69.56 484.22 65.56 483.53 65.31 485.78 62.38 484.72 60.13 486.28 59.31 481.41 61.88 480.03 62.44 478.41 63.75 478.78 63.94 474.66 65 478.1"/><polygon class="cls-1" points="61 463.85 62.16 459.72 64.38 463.47 65 459.72 66.03 462.59 70.5 461.47 69.75 464.34 71.13 466.58 68.13 465.69 69.01 469.03 66.02 467.1 65.31 468.03 66.06 470.16 62.5 468.97 63.13 471.16 60.94 469.6 58.56 470.6 58 468.1 60.25 467.1 60 463.35 61 463.85"/><polygon class="cls-1" points="223.34 493.6 224.55 489.44 223.65 487.22 224.2 482.66 222.22 484.13 219.49 482.61 222.12 479.1 217.5 481.1 213 481.1 215.17 483.1 210 484.85 216.5 486.22 211.84 487.1 217 488.35 217 492.1 221.25 489.6 223.34 493.6"/><path class="cls-1" d="M754,463.1c21,9,56.5,18.5,55,19s-28.5,7.5-51.5,6.5-57.5-11.5-61.5-13-3,3.5,0,12,2.5,7.5,0,13.5-30.5,18.5-42,23.5-2.5-4.5-13-4-13,16.5-16,19.5-18,17.5-18.5,12-6.5-18.5-8-13.5-9,20.5-16,17-26.5-27-26.5-27-.07-.69-.18-1.94c-2.9,1.78-4.93,3.08-5.82,3.77-8.67,6.66-12,11.33-4.67,16s19.34,8,23.2,17.33,24.8,10,36.8,8.67,22.67,6,22.67,6,37.33-11.33,30-6.67-2.67,11.34,3.33,17.34,35.34-1.34,49.34-6.67,19.33-6.67,28-14,15.33-16.67,18-16.67,4.66,11.34,6.74,26S764,597.1,774,590.43s12.67,2,6,7.33-9.33,8-.67,10,43.34-.71,52-3.38,4.67,4,20,3.33,28.67-5.33,30-11.33,4.67-2.67,4-6.67c0,0-13.33-50.66-16.33-60.66s-9-28.5-10-35-.5-8.5-19.5-12.5-71.34-11.82-85.5-18.5"/><path class="cls-1" d="M645.25,287.18c2,8,4.49,14.68,7.25,19.42,7,12,11,19.5,13.5,50.5s13.5,56,23,66.5,44,30.5,65,39.5l2.29,1c16.79,6.46,65.11,13.73,83.21,17.54,19,4,18.5,6,19.5,12.5s7,25,10,35,16.33,60.66,16.33,60.66c-.66-4-24-110.66-26-132.66s-19.33-27.34-36-38-26.66-36.67-28-48-12.66-10.67-40-12.67-40.66-12-68.66-34.77-45.25-56.12-45.26-56.15h0Z"/><path class="cls-1" d="M645.25,287.18c2,8,4.49,14.68,7.25,19.42,7,12,11,19.5,13.5,50.5s13.5,56,23,66.5,44,30.5,65,39.5l2.29,1c16.79,6.46,65.11,13.73,83.21,17.54,9.42,2,14,3.47,16.44,5.26,0,0-9.94-21.43-19.94-32.76s-14.67-12.34-30.67-20S747.67,401.43,735,390.43s-44-52.33-50-59.67-25-30.27-29.67-35.13a66.89,66.89,0,0,0-10.08-8.45"/><path class="cls-1" d="M18.67,347.76s-4,20,0,30.67,4,19.33,4.66,27.33,6.21,16.35,10.67,16,6.5,3.34,6.5,8.84,5.5,8.5,6,12,5,16,32.5,19,33,1,49.5,4,11,5.5,32,10.5,50.5,5,62,0l11.5-5s8.5,2,26.5-16.5,36-32.5,44.5-37.5,30.5-12.5,52-38.5,32-34,29.5-80.5c0,0,8-2.5,24.5-2.5s36,1,53.5,5.5S523,328.6,523,328.6a420.48,420.48,0,0,1,13,41c5,20,11,30.5,20,42.5s14.5,20,10.5,36.5-12.5,43-12,56.5,1.5,23.5,1.5,23.5,19.5,23.5,26.5,27,14.5-12,16-17,7.5,8,8,13.5,15.5-9,18.5-12,5.5-19,16-19.5,1.5,9,13,4,39.5-17.5,42-23.5,3-5,0-13.5-4-13.5,0-12,38.5,12,61.5,13,50-6,51.5-6.5-34-10-55-19-55.5-29-65-39.5-20.5-35.5-23-66.5-6.5-38.5-13.5-50.5-12-36.5-13.5-63.5-11-90-22.5-113-33-57-67-80.5S480,11.6,429,4.6,338,.1,301.5,8.1s-64,27-92.5,49-57.5,77-61,85.5-11,22-20,26-33,7.5-47,12.5-32,17.5-47.5,30-26,26-30,52-4,47,0,60.5S18.67,347.76,18.67,347.76Z"/><path class="cls-1" d="M667.33,407.47c11.34,21.71,32.67,31,27.34,28.47s-38.67-.18-42,0-26-1.5-32-.17S598,430.43,595.33,421,584,393.1,572,377.1s-49-48.5-49-48.5-41-23-58.5-27.5-37-5.5-53.5-5.5-24.5,2.5-24.5,2.5S399,283.76,417,277.43s39-12.67,68-8.67,55,14.67,70.67,28,30.66,49,40.33,64.33,21,36.67,32.33,44,22.34,11.67,29.67,9S667.33,407.47,667.33,407.47Z"/><path class="cls-1" d="M370.15,242.8c12.66,18,12.35,24.8,12.35,24.8l28.5,28,39.37-26.92s-31.08,3.84-47.18-4.63c-2.74-1.43-13.86-9-18.19-14.29A18.62,18.62,0,0,0,370.15,242.8Z"/><path class="cls-1" d="M386.77,316.07c.18-5.3.09-11.23-.27-18,0,0-2.5-23.5-4-30.5a43.65,43.65,0,0,0,28.5,10c17-.5,61-3.5,81,.5s65.5,24.5,74,31.5-6.5,9-14.5,10.5-48.5,4-59.5,3.5-35.5-2-54.5-3S386.77,316.07,386.77,316.07Z"/><path class="cls-1" d="M809,482.1c-12.33.33-22.33-3.34-32.33-6.34s-21.67-8.33-39-15-42.16-24.42-42.16-24.42h0l-.82-.39c-5.34-2.48-38.67-.18-42,0s-26-1.5-32-.17S598,430.43,595.33,421,584,393.1,572,377.1s-49-48.5-49-48.5a420.48,420.48,0,0,1,13,41c5,20,11,30.5,20,42.5s14.5,20,10.5,36.5-12.5,43-12,56.5,1.5,23.5,1.5,23.5,19.5,23.5,26.5,27,14.5-12,16-17,7.5,8,8,13.5,15.5-9,18.5-12,5.5-19,16-19.5,1.5,9,13,4,39.5-17.5,42-23.5,3-5,0-13.5-4-13.5,0-12,38.5,12,61.5,13S810.58,482.05,809,482.1Z"/><path class="cls-1" d="M566,309.6c8.5,7-6.5,9-14.5,10.5s-48.5,4-59.5,3.5-35.5-2-54.5-3-50.73-4.53-50.73-4.53c.18-5.3,27.92-9.25,42.73-5.47,15.67,4,25.15,6.25,48.15,1.75s43.18-.25,54.68,1.75S566,309.6,566,309.6Z"/><path class="cls-1" d="M161.28,117.68A261.18,261.18,0,0,0,148,142.6c-3.5,8.5-11,22-20,26s-33,7.5-47,12.5-32,17.5-47.5,30-26,26-30,52-4,47,0,60.5,15.17,24.16,15.17,24.16S14,328.6,12.25,315.6s-.25-34.5,5-44.5,17.39-32.6,28-42.6c5.68-5.36,24.53-19.12,47.75-28.24,24.76-9.72,54.77-21.41,55.93-29.93,2.25-16.5,3.32-19,6.07-28.23S161.28,117.68,161.28,117.68Z"/><path class="cls-1" d="M227.33,468.76s2.34-7.33,7.34-10.66,11,0,10.66,3-4.43,7-9,3.33C236.34,464.43,234.67,462.43,227.33,468.76Z"/><path class="cls-1" d="M40.5,430.6c0-5.5-2.17-9.17-6.5-8.84,0,0-2.25-.41-2.5-3.91s.5-6.5,4.5-6.5,6,4.25,6.5,6.5a26.75,26.75,0,0,1,0,10C41.75,431.1,40.5,430.6,40.5,430.6Z"/><path class="cls-1" d="M280.75,427.6s0-5,2.5-18.5S292,387.35,292,387.35a13,13,0,0,0,2,7c2.25,3.75-.75,19.75-5.5,25.5S280.75,427.6,280.75,427.6Z"/><path class="cls-1" d="M281.05,423.55c.3-2.93.93-7.6,2.2-14.45a60.57,60.57,0,0,1,5.22-15.76s3.72.26,6.22,7.26-.69,15.75-4.44,19.25S281.05,423.55,281.05,423.55Z"/><path class="cls-1" d="M281.64,418.85c.36-2.58.88-5.8,1.61-9.75a60.61,60.61,0,0,1,2.29-8.71A8.06,8.06,0,0,1,289,402.6c1.5,1.66,2.17,5.66,1.33,9.5s-2.33,6-4.16,6.75A8.44,8.44,0,0,1,281.64,418.85Z"/></g></g></svg>