<svg xmlns="http://www.w3.org/2000/svg" viewBox="0 0 884.92 608.02"><defs><style>.cls-1{fill:#4f3d38;}.cls-2{fill:#2d211e;}.cls-3{fill:#f2f2f2;}.cls-4{fill:#3a2e29;}.cls-5{fill:#9e8174;}.cls-6{fill:#826259;}.cls-7{fill:#917266;}.cls-8{fill:#9cadaf;}.cls-9{fill:#020101;}</style></defs><title>frilledshark</title><g id="圖層_2" data-name="圖層 2"><g id="frilledshark"><path class="cls-1" d="M260,454.1c-18,18.5-26.5,16.5-26.5,16.5l-11.5,5c-11.5,5-41,5-62,0s-15.5-7.5-32-10.5-22-1-49.5-4-32-15.5-32.5-19a5.42,5.42,0,0,0-.8-2c1,10.59,2.9,30,4.3,41.53,2,16.5,5.5,32,6.5,41.5s4,17.5,12.5,25,39,21,64,20.5,31.5-6.5,46-17,37-38,44.5-48.5,32-35.28,43.5-46.89c8-8.09,18.72-22.23,24.48-30.08A318,318,0,0,0,260,454.1Z"/><path class="cls-2" d="M59,453.35s-1.5,20,0,33.25,9.25,35.5,16.25,45.5,32.5,22,52.5,22.5S161,550.35,171,542.1s16-9.75,22.5-17.5,37-43,39.25-46,3.09-10.34,3.09-10.34Z"/><polygon class="cls-3" points="145.5 559.6 148.5 559.6 146.81 554.22 149.5 552.85 149.5 545.6 146.38 550.72 144.25 546.85 149.94 539.85 144.34 543.47 143.36 539.85 146.68 534.1 141.5 536.72 140.12 532.1 145.06 527.22 138.87 528.22 134.58 522.43 135 530.35 130.5 528.85 135.88 533.6 137.5 537.6 133.13 534.22 135.5 539.47 131.75 537.1 135 542.85 137.75 543.85 139 547.85 134 544.85 139.25 551.85 137.63 552.47 143.88 554.72 145.5 559.6"/><polygon class="cls-3" points="164.7 552.72 169.6 549.47 168.14 548.1 169.53 545.6 173.13 542.6 168.5 542.6 169.75 539.97 174.63 538.97 169.66 536.78 171.5 528.63 165.63 534.99 161.88 526.35 160.63 530.98 159.13 527.1 161.88 520.72 157.5 523.85 156.75 522.43 159.38 517.6 154.63 519.72 149.38 515.47 150.88 523.35 144.38 522.43 149.94 528.1 146.75 528.85 156.75 529.85 157.5 532.85 149.94 531.6 158.88 535.97 159.5 537.6 153.13 536.85 161.5 541.01 162.13 543.85 155.25 540.35 160.25 545.97 158.13 545.85 163 551.85 164.7 552.72"/><polygon class="cls-3" points="179.38 538.47 187.31 526.41 182.5 528.6 182.5 518.6 178.88 522.43 180.75 512.1 177.88 515.47 176.44 512.1 178.47 506.35 174.61 509.1 167.74 502.85 171.25 511.85 171 515.47 163.87 513.85 173.5 518.85 174.63 521.85 167.88 519.1 174.63 524.1 177.25 527.35 172.13 524.6 177.5 529.72 179.63 530.97 180.5 532.47 177.13 534.1 179.38 538.47"/><polygon class="cls-3" points="194.53 523.85 199.08 520.85 198.23 515.57 199.55 507.89 195.65 511.5 195.01 510.48 196.82 506.85 195.25 500.22 194.38 506.97 192.5 507.72 192.5 502.6 191.5 504.35 191.5 500.6 189.5 501.6 189.5 495.6 187.72 500.6 186.5 498.72 186.5 492.6 185.13 496.85 181.38 493.22 182.88 498.1 178.56 498.97 184.22 500.85 179.99 502.22 186.75 503.85 187.87 506.72 182.12 505.85 189.06 509.97 190.13 512.35 184.63 511.97 190 515.6 185.5 515.6 190.88 518.22 194.5 519.35 194.53 523.85"/><polygon class="cls-3" points="207.05 506.41 209.5 505.49 209.5 502.61 214.67 501.6 209.53 501.6 209.33 499.02 212 497.23 214.67 490.27 208.71 495.52 207.69 494.44 208.26 490.11 203.5 493.99 203.5 490.29 200.01 491.52 195.5 486.6 197.33 492.6 194.75 492.6 199.59 495.96 195.98 496.26 200.68 498.05 197.29 500.41 202.84 500.78 204.71 501.69 200.29 502.69 206.21 504.15 207.05 506.41"/><polygon class="cls-3" points="101.67 560.09 103 552.72 106.6 553.8 111.67 547.35 105.75 549.73 106.88 547.16 112.65 541.8 107.32 542.78 108.33 539.94 114.66 538.48 109.5 536.93 109.5 534.6 118.33 534.1 111.42 532.27 120.04 529.1 114.27 528.27 115.64 522.43 110.15 527.77 107.16 523.1 107.66 529.6 104.67 526.93 106 531.77 101.83 528.6 103.5 535.6 102.67 538.47 100.67 536.1 98.5 541.01 95.5 538.47 95.5 544.6 93.17 542.77 96.38 548.72 95.71 553.77 101.67 560.09"/><polygon class="cls-3" points="123.5 561.6 126.5 561.6 126.5 556.6 131.25 552.6 126.5 552.6 126.38 550.47 131.31 544.35 127.5 546.97 127.5 544.6 132.13 541.6 127.5 541.6 129 538.6 126.5 538.6 127.81 535.47 132.13 531.72 127.13 531.1 125.25 525.85 124.38 530.1 120.23 530.72 123.5 532.6 123.5 534.6 118.63 532.35 122.75 536.97 121.75 538.47 117.5 536.76 121.5 541.6 117.5 541.6 120.04 543.1 121 546.6 115.25 545.1 120.04 550.22 119.38 553.72 114.38 550.72 119 556.85 120.04 560.97 123.5 561.6"/><polygon class="cls-3" points="76.59 546 78.72 547.18 81.26 545.23 89.12 543.13 84.04 539.44 85.67 537.13 92.29 538.79 90.22 535.6 93.6 532.87 96.89 532.31 93.83 528.51 96.09 527.62 99.5 527.55 97.15 524.15 102.45 523.25 98.84 522.18 102.72 518.13 99.64 518.65 95.92 514.72 95.58 519.4 91.04 517.83 92.76 522.23 90.67 523.35 88.32 519.94 88.04 527.98 84.98 524.95 85.05 530.52 83.33 531.63 80.6 528.99 80.58 535.59 79.58 537.15 76.53 533.36 77.29 538.56 74.17 535.92 76.13 542.18 76.59 546"/><polygon class="cls-3" points="67 529.55 69.38 531.05 72.31 527.65 80.59 526.75 76.23 524.48 77.87 521.48 84.62 523.22 81 519.22 83 517.97 87 519.47 85 516.6 85.88 514.72 92.63 516.22 88.44 512.35 95.13 510.6 92 507.6 96.5 501.35 89.75 505.35 87.75 500.1 86.38 506.85 84.31 507.72 81.5 502.22 81.5 509.6 79.25 506.6 78.25 510.1 76.5 512.6 75.5 506.97 72.5 515.55 69.38 512.6 68.88 519.1 67.56 521.85 65.5 517.47 65.5 522.6 67 529.55"/><polygon class="cls-3" points="60.44 503.6 61.53 505.22 65.58 503.41 70.04 506.31 68.63 501.6 70.5 501.6 77.13 502.6 72.88 499.22 74.17 497.72 79.75 500.1 77 497.72 78.13 495.85 84.63 498.35 81 494.1 82.88 493.1 91.13 494.72 85.5 491.6 89.13 489.47 95.5 484.22 88.44 485.97 87.5 480.1 84.38 485.85 82 481.85 79.25 488.47 77.81 489.1 77 485.1 75.75 489.35 73.5 485.6 73.5 490.6 70.5 489.1 70.94 493.21 68.5 491.6 68.5 495.6 67.5 496.35 64.75 493.21 64.5 497.35 62.13 500.1 60.44 503.6"/><polygon class="cls-3" points="64.5 477.6 65.5 473.35 67 474.22 69.13 469.1 70.75 471.72 72.13 471.1 71.25 467.35 74.17 469.85 73.38 464.6 78.5 468.97 81 464.6 82 467.97 87.63 465.6 83.63 471.72 87.63 474.85 81 473.85 78.88 474.72 82.13 477.6 75.25 476.6 74.17 477.97 77.38 480.72 71 479.22 71.75 482.35 66.5 480.85 69.06 483.72 65.06 483.03 64.81 485.28 61.88 484.22 59.63 485.78 58.81 480.91 61.38 479.53 61.94 477.91 63.25 478.28 63.44 474.16 64.5 477.6"/><polygon class="cls-3" points="60.5 463.35 61.66 459.22 63.88 462.97 64.5 459.22 65.53 462.09 70 460.97 69.25 463.84 70.63 466.08 67.63 465.19 68.51 468.53 65.52 466.6 64.81 467.53 65.56 469.66 62 468.47 62.63 470.66 60.44 469.1 58.06 470.1 57.5 467.6 59.75 466.6 59.5 462.85 60.5 463.35"/><polygon class="cls-3" points="222.84 493.1 224.05 488.94 223.15 486.72 223.7 482.16 221.72 483.63 218.99 482.11 221.62 478.6 217 480.6 212.5 480.6 214.67 482.6 209.5 484.35 216 485.72 211.34 486.6 216.5 487.85 216.5 491.6 220.75 489.1 222.84 493.1"/><path class="cls-4" d="M753.5,462.6c21,9,56.5,18.5,55,19s-28.5,7.5-51.5,6.5-57.5-11.5-61.5-13-3,3.5,0,12,2.5,7.5,0,13.5-30.5,18.5-42,23.5-2.5-4.5-13-4-13,16.5-16,19.5-18,17.5-18.5,12-6.5-18.5-8-13.5-9,20.5-16,17-26.5-27-26.5-27-.07-.69-.18-1.94c-2.9,1.78-4.93,3.08-5.82,3.77-8.67,6.66-12,11.33-4.67,16s19.34,8,23.2,17.33,24.8,10,36.8,8.67,22.67,6,22.67,6,37.33-11.33,30-6.67-2.67,11.34,3.33,17.34,35.34-1.34,49.34-6.67,19.33-6.67,28-14,15.33-16.67,18-16.67,4.66,11.34,6.74,26,.59,19.34,10.59,12.67,12.67,2,6,7.33-9.33,8-.67,10,43.34-.71,52-3.38,4.67,4,20,3.33,28.67-5.33,30-11.33,4.67-2.67,4-6.67c0,0-13.33-50.66-16.33-60.66s-9-28.5-10-35-.5-8.5-19.5-12.5-71.34-11.82-85.5-18.5"/><path class="cls-5" d="M644.75,286.68c2,8,4.49,14.68,7.25,19.42,7,12,11,19.5,13.5,50.5s13.5,56,23,66.5,44,30.5,65,39.5l2.29,1C772.58,470,820.9,477.29,839,481.1c19,4,18.5,6,19.5,12.5s7,25,10,35,16.33,60.66,16.33,60.66c-.66-4-24-110.66-26-132.66s-19.33-27.34-36-38-26.66-36.67-28-48-12.66-10.67-40-12.67-40.66-12-68.66-34.77S640.92,267,640.91,267h0Z"/><path class="cls-6" d="M644.75,286.68c2,8,4.49,14.68,7.25,19.42,7,12,11,19.5,13.5,50.5s13.5,56,23,66.5,44,30.5,65,39.5l2.29,1C772.58,470,820.9,477.29,839,481.1c9.42,2,14,3.47,16.44,5.26,0,0-9.94-21.43-19.94-32.76s-14.67-12.34-30.67-20-57.66-32.67-70.33-43.67-44-52.33-50-59.67-25-30.27-29.67-35.13a66.89,66.89,0,0,0-10.08-8.45"/><path class="cls-5" d="M18.17,347.26s-4,20,0,30.67,4,19.33,4.66,27.33,6.21,16.35,10.67,16S40,424.6,40,430.1s5.5,8.5,6,12,5,16,32.5,19,33,1,49.5,4,11,5.5,32,10.5,50.5,5,62,0l11.5-5s8.5,2,26.5-16.5,36-32.5,44.5-37.5,30.5-12.5,52-38.5,32-34,29.5-80.5c0,0,8-2.5,24.5-2.5s36,1,53.5,5.5,58.5,27.5,58.5,27.5a420.48,420.48,0,0,1,13,41c5,20,11,30.5,20,42.5s14.5,20,10.5,36.5-12.5,43-12,56.5,1.5,23.5,1.5,23.5,19.5,23.5,26.5,27,14.5-12,16-17,7.5,8,8,13.5,15.5-9,18.5-12,5.5-19,16-19.5,1.5,9,13,4,39.5-17.5,42-23.5,3-5,0-13.5-4-13.5,0-12,38.5,12,61.5,13,50-6,51.5-6.5-34-10-55-19-55.5-29-65-39.5-20.5-35.5-23-66.5S659,318.1,652,306.1s-12-36.5-13.5-63.5-11-90-22.5-113-33-57-67-80.5-69.5-38-120.5-45S337.5-.4,301,7.6s-64,27-92.5,49-57.5,77-61,85.5-11,22-20,26-33,7.5-47,12.5-32,17.5-47.5,30-26,26-30,52-4,47,0,60.5S18.17,347.26,18.17,347.26Z"/><path class="cls-1" d="M666.83,407c11.34,21.71,32.67,31,27.34,28.47s-38.67-.18-42,0-26-1.5-32-.17-22.67-5.33-25.34-14.78S583.5,392.6,571.5,376.6s-49-48.5-49-48.5-41-23-58.5-27.5-37-5.5-53.5-5.5-24.5,2.5-24.5,2.5,12.5-14.34,30.5-20.67,39-12.67,68-8.67,55,14.67,70.67,28,30.66,49,40.33,64.33,21,36.67,32.33,44,22.34,11.67,29.67,9S666.83,407,666.83,407Z"/><path class="cls-1" d="M369.65,242.3c12.66,18,12.35,24.8,12.35,24.8l28.5,28,39.37-26.92s-31.08,3.84-47.18-4.63c-2.74-1.43-13.86-9-18.19-14.29A18.62,18.62,0,0,0,369.65,242.3Z"/><path class="cls-5" d="M386.27,315.57c.18-5.3.09-11.23-.27-18,0,0-2.5-23.5-4-30.5a43.65,43.65,0,0,0,28.5,10c17-.5,61-3.5,81,.5s65.5,24.5,74,31.5-6.5,9-14.5,10.5-48.5,4-59.5,3.5-35.5-2-54.5-3S386.27,315.57,386.27,315.57Z"/><path class="cls-1" d="M808.5,481.6c-12.33.33-22.33-3.34-32.33-6.34s-21.67-8.33-39-15S695,435.84,695,435.84h0l-.82-.39c-5.34-2.48-38.67-.18-42,0s-26-1.5-32-.17-22.67-5.33-25.34-14.78S583.5,392.6,571.5,376.6s-49-48.5-49-48.5a420.48,420.48,0,0,1,13,41c5,20,11,30.5,20,42.5s14.5,20,10.5,36.5-12.5,43-12,56.5,1.5,23.5,1.5,23.5,19.5,23.5,26.5,27,14.5-12,16-17,7.5,8,8,13.5,15.5-9,18.5-12,5.5-19,16-19.5,1.5,9,13,4,39.5-17.5,42-23.5,3-5,0-13.5-4-13.5,0-12,38.5,12,61.5,13S810.08,481.55,808.5,481.6Z"/><path class="cls-7" d="M565.5,309.1c8.5,7-6.5,9-14.5,10.5s-48.5,4-59.5,3.5-35.5-2-54.5-3-50.73-4.53-50.73-4.53c.18-5.3,27.92-9.25,42.73-5.47,15.67,4,25.15,6.25,48.15,1.75s43.18-.25,54.68,1.75S565.5,309.1,565.5,309.1Z"/><path class="cls-7" d="M160.78,117.18A261.18,261.18,0,0,0,147.5,142.1c-3.5,8.5-11,22-20,26s-33,7.5-47,12.5-32,17.5-47.5,30-26,26-30,52-4,47,0,60.5,15.17,24.16,15.17,24.16S13.5,328.1,11.75,315.1s-.25-34.5,5-44.5,17.39-32.6,28-42.6c5.68-5.36,24.53-19.12,47.75-28.24,24.76-9.72,54.77-21.41,55.93-29.93,2.25-16.5,3.32-19,6.07-28.23S160.78,117.18,160.78,117.18Z"/><path class="cls-2" d="M226.83,468.26s2.34-7.33,7.34-10.66,11,0,10.66,3-4.43,7-9,3.33C235.84,463.93,234.17,461.93,226.83,468.26Z"/><path class="cls-2" d="M40,430.1c0-5.5-2.17-9.17-6.5-8.84,0,0-2.25-.41-2.5-3.91s.5-6.5,4.5-6.5,6,4.25,6.5,6.5a26.75,26.75,0,0,1,0,10C41.25,430.6,40,430.1,40,430.1Z"/><path class="cls-2" d="M280.25,427.1s0-5,2.5-18.5,8.75-21.75,8.75-21.75a13,13,0,0,0,2,7c2.25,3.75-.75,19.75-5.5,25.5S280.25,427.1,280.25,427.1Z"/><path class="cls-8" d="M280.55,423.05c.3-2.93.93-7.6,2.2-14.45A60.57,60.57,0,0,1,288,392.84s3.72.26,6.22,7.26-.69,15.75-4.44,19.25S280.55,423.05,280.55,423.05Z"/><path class="cls-9" d="M281.14,418.35c.36-2.58.88-5.8,1.61-9.75a60.61,60.61,0,0,1,2.29-8.71,8.06,8.06,0,0,1,3.46,2.21c1.5,1.66,2.17,5.66,1.33,9.5s-2.33,6-4.16,6.75A8.44,8.44,0,0,1,281.14,418.35Z"/></g></g></svg>