<svg xmlns="http://www.w3.org/2000/svg" viewBox="0 0 114.67 43.54"><defs><style>.cls-1{fill:#f1ecce;}</style></defs><title>frilledshark_name</title><g id="圖層_2" data-name="圖層 2"><g id="frilledshark_name"><path class="cls-1" d="M92,9a18.46,18.46,0,0,0,6.78-.91,1.51,1.51,0,0,0,.54-2,1.54,1.54,0,0,0-2.06-.54c.24-.1-.52.09-.69.12-.49.09-1,.14-1.47.19C94.07,5.92,93,6,92,6a1.5,1.5,0,0,0,0,3Z"/><path class="cls-1" d="M92.05,13.91a33.49,33.49,0,0,0,6-1.77c1.79-.67,1-3.57-.8-2.9a32.69,32.69,0,0,1-6,1.77c-1.9.31-1.09,3.2.8,2.9Z"/><path class="cls-1" d="M92.05,18.86c3.41-.88,6.91-2.18,9.51-4.63,1.41-1.33-.72-3.45-2.12-2.12-2.22,2.09-5.29,3.11-8.19,3.86-1.87.48-1.08,3.37.8,2.89Z"/><path class="cls-1" d="M104,1.88a30.94,30.94,0,0,1,.34,3.84c0,.74.2,2.28-.19,2.8-1.17,1.53,1.44,3,2.59,1.51.76-1,.63-2.75.61-3.93a38.08,38.08,0,0,0-.46-5c-.3-1.91-3.19-1.1-2.89.79Z"/><path class="cls-1" d="M103.33,3.61C102.1,4.86,101,6.25,99.79,7.5s.77,3.51,2.12,2.13,2.31-2.65,3.54-3.9a1.5,1.5,0,0,0-2.12-2.12Z"/><path class="cls-1" d="M106.16,8.12a28.92,28.92,0,0,1,4.56.12l-1-1.84a14.62,14.62,0,0,1-4.57,7.12c-1.46,1.27.67,3.38,2.12,2.12a17.44,17.44,0,0,0,5.34-8.45,1.5,1.5,0,0,0-1-1.84,32,32,0,0,0-5.36-.23,1.5,1.5,0,0,0,0,3Z"/><path class="cls-1" d="M102.09,13.52a80.91,80.91,0,0,0-4.83,6.68c-1.08,1.61,1.52,3.11,2.59,1.51a74,74,0,0,1,4.37-6.07c1.21-1.48-.9-3.61-2.13-2.12Z"/><path class="cls-1" d="M101.53,19.62h4.63l-1.44-1.9a8.6,8.6,0,0,1-2.85,4.2c-1.62,1-.12,3.63,1.51,2.59,2.16-1.39,3.3-3.68,4.23-6a1.51,1.51,0,0,0-1.45-1.9h-4.63a1.5,1.5,0,0,0,0,3Z"/><path class="cls-1" d="M96.88,23.43a46.22,46.22,0,0,1-1,9.16c-.4,1.88,2.49,2.69,2.89.8a49.84,49.84,0,0,0,1.12-10,1.5,1.5,0,0,0-3,0Z"/><path class="cls-1" d="M99.9,25.27A8.93,8.93,0,0,1,105.06,24c2,.25,4.12,3.11,1.82,4.56-1.63,1-.13,3.63,1.51,2.59,3.29-2.08,3-6.95-.11-9.08s-7-.94-9.9.62c-1.7.91-.19,3.5,1.52,2.59Z"/><path class="cls-1" d="M100.9,29.48a33.42,33.42,0,0,0,5.31-1.77,1.55,1.55,0,0,0,1.05-1.85,1.52,1.52,0,0,0-1.85-1,34.1,34.1,0,0,1-5.31,1.77c-1.89.4-1.09,3.29.8,2.89Z"/><path class="cls-1" d="M101.48,25.2a26.83,26.83,0,0,1-.3,4.91c-.35,1.89,2.54,2.7,2.89.8a31.17,31.17,0,0,0,.41-5.71,1.5,1.5,0,0,0-3,0Z"/><path class="cls-1" d="M98,34.49a31.36,31.36,0,0,0,10-3c1.74-.85.22-3.43-1.51-2.59A27.06,27.06,0,0,1,98,31.49c-1.89.23-1.91,3.24,0,3Z"/><path class="cls-1" d="M98.14,32.23c-1.66,2.55-2.91,5.66-5.07,7.84a1.5,1.5,0,0,0,2.12,2.12c2.36-2.37,3.74-5.67,5.54-8.44,1.06-1.63-1.54-3.13-2.59-1.52Z"/><path class="cls-1" d="M99.56,33.75a15.53,15.53,0,0,1,1.68,3.93,8.38,8.38,0,0,1,.65,3.41c-.34,1.88,2.55,2.69,2.89.79.54-3.07-1-7.09-2.63-9.65-1-1.63-3.62-.12-2.59,1.52Z"/><path class="cls-1" d="M104.16,33.39a11.22,11.22,0,0,1,2.27,6c.07,1.93,3.07,1.94,3,0a14,14,0,0,0-2.68-7.48c-1.15-1.52-3.76,0-2.59,1.51Z"/><path class="cls-1" d="M108.64,32.63c2,2.13,3.65,5.1,2.8,8.1a1.51,1.51,0,0,0,2.9.8c1.15-4.05-.8-8.11-3.58-11-1.33-1.39-3.45.73-2.12,2.12Z"/><path class="cls-1" d="M7,15.32a6.16,6.16,0,0,1-.34-.68c-.42-1-1.69-.84-2.35-.31-1.26,1-1.45,4.06-1.86,5.53-.67,2.43-1.39,4.86-2.19,7.26l2.21-.89-.23-.15.54,2.05.26-.34c1.32-1.41-.8-3.54-2.12-2.13a4.78,4.78,0,0,0-.73,1,1.52,1.52,0,0,0,.54,2.05l.22.15a1.52,1.52,0,0,0,2.21-.9c.65-2,1.26-4,1.83-6l.71-2.57c.13-.5.38-2.64.73-2.92l-2.36-.3a5.52,5.52,0,0,0,.34.69C5.31,18.55,7.91,17,7,15.32Z"/><path class="cls-1" d="M7,2.07A32.72,32.72,0,0,1,1.94,16.28c-1.08,1.61,1.52,3.11,2.59,1.51A35.85,35.85,0,0,0,10,2.07c.23-1.91-2.77-1.9-3,0Z"/><path class="cls-1" d="M8.38,10c2.45-.75,6.79-3.57,9.33-2s1.18,6.93.9,9.32l1.5-1.5a22.31,22.31,0,0,1-3.56-.2c-1.89-.3-2.7,2.59-.8,2.89a27.63,27.63,0,0,0,4.36.31,1.54,1.54,0,0,0,1.5-1.5c.44-3.69,1.58-8.95-1.9-11.56-3.74-2.8-8.36.2-12.13,1.34-1.84.56-1.06,3.46.8,2.9Z"/><path class="cls-1" d="M8.64,10.7a14.42,14.42,0,0,0-1.11,4.79,1.52,1.52,0,0,0,1.9,1.44,44.08,44.08,0,0,0,7.88-2.19c1.82-.61,1-3.51-.79-2.89A46.32,46.32,0,0,1,8.64,14l1.89,1.45a12,12,0,0,1,1-4c.71-1.8-2.19-2.57-2.9-.8Z"/><path class="cls-1" d="M15.5,10.47a3.18,3.18,0,0,1,.1.82c0,.41,0,.82,0,1.23s-.07,1-.13,1.42a1.5,1.5,0,1,0,3,0,11.15,11.15,0,0,0-.05-4.27,1.5,1.5,0,0,0-2.89.8Z"/><path class="cls-1" d="M12,10.07c-.3,3-.6,6.52-1.91,9.31-.81,1.73,1.77,3.26,2.59,1.51,1.56-3.31,2-7.22,2.32-10.82.18-1.92-2.82-1.91-3,0Z"/><path class="cls-1" d="M6.27,26.74c2.85-.93,7.9-3.2,10.74-1.29s1.68,8.12.86,10.8l1.45-1.1a8.31,8.31,0,0,1-3.73-1.09c-1.7-.9-3.22,1.69-1.51,2.59a12.37,12.37,0,0,0,5.24,1.5,1.52,1.52,0,0,0,1.44-1.1c1.2-3.9,2-10.63-1.48-13.63-3.73-3.23-9.79-.89-13.81.43-1.82.6-1,3.5.8,2.89Z"/><path class="cls-1" d="M6.27,28a26.57,26.57,0,0,0-.58,4.79,1.5,1.5,0,0,0,1.5,1.5A14.64,14.64,0,0,0,15.37,31c1.43-1.31-.7-3.42-2.12-2.12a11.18,11.18,0,0,1-6.06,2.4l1.5,1.5a22.29,22.29,0,0,1,.47-4c.38-1.89-2.51-2.69-2.89-.8Z"/><path class="cls-1" d="M13.28,28.89A5.57,5.57,0,0,1,14.39,32c0,1.93,3.05,1.94,3,0a8.3,8.3,0,0,0-1.52-4.62,1.55,1.55,0,0,0-2.06-.54,1.51,1.51,0,0,0-.53,2.05Z"/><path class="cls-1" d="M9.91,27.1A87.07,87.07,0,0,1,7.32,41.67c-.45,1.88,2.45,2.68,2.9.8A92.27,92.27,0,0,0,12.91,27.1c.12-1.93-2.88-1.92-3,0Z"/><path class="cls-1" d="M24.73,15.9c1.82-.43,3.58-1.11,5.41-1.52a8.81,8.81,0,0,1,2.93-.33c2.06.28.82,2.21-.7,2.57-1.88.44-1.09,3.34.79,2.89,3.82-.89,6.1-6.67,1.48-8.19-3.47-1.15-7.39.9-10.71,1.69-1.88.45-1.08,3.34.8,2.89Z"/><path class="cls-1" d="M23.88,15.75c0,5.93-.06,11.83-1.26,17.66l2.89.8a10.91,10.91,0,0,1,.26-1.29c.45-1.88-2.44-2.68-2.89-.8a11.79,11.79,0,0,0-.26,1.29c-.33,1.88,2.5,2.71,2.89.8,1.26-6.1,1.37-12.26,1.37-18.46a1.5,1.5,0,0,0-3,0Z"/><path class="cls-1" d="M28.1,9a38.81,38.81,0,0,1-1,13.53,1.52,1.52,0,0,0,1.84,1.85c2.54-.73,7.2-2.78,4.24,1.66-1.43,2.13-4.1,4-6.18,5.4l1.82.24L28.26,31a1.5,1.5,0,0,0-2.59,1.51,6,6,0,0,0,1,1.34,1.51,1.51,0,0,0,1.82.23c3.12-2,9.76-6.57,9.19-11-.61-4.76-6.76-2.31-9.55-1.51L30,23.37A41.42,41.42,0,0,0,31.1,9c-.18-1.91-3.18-1.93-3,0Z"/><path class="cls-1" d="M26.47,25.3a108.3,108.3,0,0,1,11,9.83c1.39,1.35,3.51-.77,2.13-2.12A116,116,0,0,0,28,22.71c-1.55-1.15-3,1.45-1.52,2.59Z"/><path class="cls-1" d="M54.26,4.28c-1.21,2.86-2.73,5.61-4.15,8.38-.87,1.72,1.71,3.24,2.59,1.52,1.42-2.77,2.94-5.52,4.15-8.39C57.59,4,55,2.5,54.26,4.28Z"/><path class="cls-1" d="M54.45,10.05c2.12,0,4.23-.25,6.35-.27l-1.45-1.1c.31,1.78-1.5,4.25-3.09,4.91-1.76.73-1,3.64.8,2.9,3.23-1.35,5.8-5,5.19-8.61a1.52,1.52,0,0,0-1.45-1.1c-2.12,0-4.23.25-6.35.27a1.5,1.5,0,0,0,0,3Z"/><path class="cls-1" d="M51.57,16.12a39.33,39.33,0,0,1-1.33,11c-.55,1.85,2.35,2.64,2.89.79a41.92,41.92,0,0,0,1.44-11.75,1.5,1.5,0,0,0-3,0Z"/><path class="cls-1" d="M53.74,18.38c1.62-.57,5.14-2.2,6.77-.86s1.27,5.15,1.28,7a1.5,1.5,0,0,0,3,0c0-3,.15-7.26-2.46-9.34s-6.62-.65-9.39.33c-1.81.63-1,3.53.8,2.89Z"/><path class="cls-1" d="M54.57,23.24l6.35-1.62c1.87-.47,1.08-3.37-.79-2.89l-6.36,1.62c-1.87.48-1.07,3.37.8,2.89Z"/><path class="cls-1" d="M56,17.6a19.09,19.09,0,0,1,.24,6.5c-.41,1.88,2.48,2.69,2.9.8.58-2.61.15-5.48-.25-8.1-.29-1.9-3.18-1.09-2.89.8Z"/><path class="cls-1" d="M54,27.84C57,27.26,60,26.73,62.86,26a1.5,1.5,0,0,0-.8-2.89c-2.91.78-5.89,1.31-8.84,1.89-1.89.37-1.09,3.26.8,2.89Z"/><path class="cls-1" d="M51.77,27.26C50.13,31,46.85,34.88,46.59,39.1c-.11,1.93,2.89,1.92,3,0s1.48-3.93,2.31-5.55,1.75-3.14,2.46-4.78-1.82-3.28-2.59-1.51Z"/><path class="cls-1" d="M53,29a35.7,35.7,0,0,1,1.33,9.6c.05,1.93,3.05,1.93,3,0a39.19,39.19,0,0,0-1.44-10.4c-.57-1.84-3.47-1.05-2.89.8Z"/><path class="cls-1" d="M57.42,28.41a28.86,28.86,0,0,1,1.16,4.66,17,17,0,0,1,.5,3.74c-.42,1.88,2.47,2.69,2.89.8a12.18,12.18,0,0,0-.34-4.45,31,31,0,0,0-1.32-5.54c-.65-1.8-3.55-1-2.89.79Z"/><path class="cls-1" d="M61,28.14a34.59,34.59,0,0,1,3,10c.18,1.91,3.18,1.92,3,0A36.72,36.72,0,0,0,63.9,27.35c-.72-1.76-3.63-1-2.89.79Z"/><path class="cls-1" d="M65.65,9.63c0,4.33.26,8.65.28,13a1.5,1.5,0,0,0,3,0v-.27a1.5,1.5,0,0,0-3,0v.27h3c0-4.33-.26-8.65-.28-13a1.5,1.5,0,0,0-3,0Z"/><path class="cls-1" d="M68.1,12.43c2.09-.7,5.44-1.83,7.22.14,1.64,1.82,1.44,5.08,1.38,7.33,0,1.94,3,1.93,3,0,.09-3.21,0-7.28-2.49-9.68-2.68-2.57-6.75-1.74-9.9-.68-1.83.61-1,3.5.79,2.89Z"/><path class="cls-1" d="M70,18.65c1.93-.48,4.38-.94,5.91-2.28s-.68-3.39-2.12-2.12c.27-.24-.22.11-.3.15s-.37.16-.56.24c-.54.2-1.09.37-1.63.54-.7.21-1.4.4-2.1.58-1.87.46-1.08,3.35.8,2.89Z"/><path class="cls-1" d="M70.9,12.61a23,23,0,0,1,0,7.17c-.38,1.88,2.51,2.69,2.9.79a25.6,25.6,0,0,0,.05-8c-.21-1.9-3.21-1.92-3,0Z"/><path class="cls-1" d="M69.64,23.3a22.11,22.11,0,0,0,8.87-2.1c1.75-.82.23-3.4-1.51-2.59a18.54,18.54,0,0,1-7.36,1.69c-1.93,0-1.94,3,0,3Z"/><path class="cls-1" d="M67.64,23.56a64.91,64.91,0,0,1-2.89,7.21c-.76,1.76,1.82,3.28,2.59,1.52a72.13,72.13,0,0,0,3.19-7.93c.57-1.85-2.33-2.64-2.89-.8Z"/><path class="cls-1" d="M68.69,24.77c.23,3.22-.15,6.42.61,9.59a1.52,1.52,0,0,0,2.2.9c2.34-1.47,3.72-3.82,5-6.22l-2.74-.35c.33,2.18.38,4.42.5,6.63.1,1.92,3.1,1.93,3,0a73.67,73.67,0,0,0-.61-7.43,1.51,1.51,0,0,0-2.74-.36c-1,1.9-2,4-3.88,5.14l2.2.89c-.69-2.88-.29-5.85-.5-8.79-.13-1.91-3.14-1.93-3,0Z"/><path class="cls-1" d="M77.69,27.18c1.69,1.86,2.79,6.68,1.7,9-.81,1.74,1.78,3.26,2.59,1.51,1.7-3.64.52-9.67-2.16-12.63-1.31-1.43-3.42.7-2.13,2.12Z"/></g></g></svg>