<svg xmlns="http://www.w3.org/2000/svg" viewBox="0 0 884.92 608.02"><defs><style>.cls-1{fill:#494c4e;}</style></defs><title>frilledshark-shadow</title><g id="圖層_2" data-name="圖層 2"><g id="frilledshark-shadow"><path class="cls-1" d="M884.83,589.26c-.66-4-24-110.66-26-132.66s-19.33-27.34-36-38-26.66-36.67-28-48-12.66-10.67-40-12.67-40.66-12-68.66-34.77S640.92,267,640.91,267h0c-1.12-7.69-1.94-15.93-2.41-24.42-1.5-27-11-90-22.5-113s-33-57-67-80.5-69.5-38-120.5-45S337.5-.4,301,7.6s-64,27-92.5,49c-17.83,13.76-35.86,40.45-47.72,60.58h0s-.05.08-.07.13l-1.07,1.82-.3.53-1.09,1.87-.12.22c-.32.56-.63,1.1-.93,1.64l-.31.55-1,1.72-.11.21c-.29.52-.57,1-.84,1.52-.1.17-.19.34-.28.51-.29.52-.57,1-.84,1.55,0,.08-.09.16-.13.24l-.74,1.37c-.08.15-.16.29-.23.44-.26.47-.5.94-.74,1.39l-.11.21-.64,1.23c-.07.13-.13.26-.2.38l-.64,1.26,0,.09c-.2.38-.38.75-.56,1.11-.06.1-.11.21-.16.31-.19.37-.36.73-.53,1.07h0c-.17.34-.32.66-.47,1l-.11.22-.39.85v0l-.32.71a1.22,1.22,0,0,0-.07.17c-.1.22-.19.42-.26.6-3.5,8.5-11,22-20,26s-33,7.5-47,12.5-32,17.5-47.5,30-26,26-30,52-4,47,0,60.5,15.17,24.16,15.17,24.16-4,20,0,30.67,4,19.33,4.66,27.33,6.21,16.35,10.67,16S40,424.6,40,430.1c0,4.59,3.82,7.44,5.38,10.29-.06-.11-.11-.21-.18-.32,1,10.59,2.9,30,4.3,41.53,2,16.5,5.5,32,6.5,41.5s4,17.5,12.5,25,39,21,64,20.5,31.5-6.5,46-17,37-38,44.5-48.5,32-35.28,43.5-46.89c8-8.09,18.72-22.23,24.48-30.08l-.09.07a135.49,135.49,0,0,1,13.61-9.6c8.5-5,30.5-12.5,52-38.5,18.8-22.73,29.18-31.71,29.83-64.68,0,.73,0,1.45-.06,2.15,0,0,31.73,3.53,50.73,4.53s43.5,2.5,54.5,3c4,.18,12.05,0,21-.47,6,3.22,10,5.47,10,5.47a420.48,420.48,0,0,1,13,41c5,20,11,30.5,20,42.5s14.5,20,10.5,36.5-12.5,43-12,56.5c.37,10.09,1,18.23,1.33,21.69v-.13c-2.9,1.78-4.93,3.08-5.82,3.77-8.67,6.66-12,11.33-4.67,16s19.34,8,23.2,17.33,24.8,10,36.8,8.67,22.67,6,22.67,6,37.33-11.33,30-6.67-2.67,11.34,3.33,17.34,35.34-1.34,49.34-6.67,19.33-6.67,28-14,15.33-16.67,18-16.67,4.66,11.34,6.74,26,.59,19.34,10.59,12.67,12.67,2,6,7.33-9.33,8-.67,10,43.34-.71,52-3.38,4.67,4,20,3.33,28.67-5.33,30-11.33S885.5,593.26,884.83,589.26Zm-601.37-157-1.08.91Zm-19.82,18.17L263,451Zm16.42-15.27-.88.77Zm-3,2.61-.7.61Zm-3.36,3-.77.71Zm-3.56,3.3-.43.41ZM267.1,447l-.56.53ZM45.52,440.66a2.39,2.39,0,0,1,.13.28A2.39,2.39,0,0,0,45.52,440.66Zm.27.63a1.42,1.42,0,0,1,.07.22A1.42,1.42,0,0,0,45.79,441.29ZM288,428.53l1.23-1Zm-2.91,2.38,1.61-1.32Zm101.3-121.34c0-1.09,0-2.22,0-3.36C386.34,307.35,386.36,308.48,386.36,309.57ZM652,306.1c-.31-.53-.61-1.1-.91-1.67C651.39,305,651.69,305.57,652,306.1Zm-1.11-2.05q-.43-.87-.87-1.8Q650.45,303.18,650.89,304.05Zm-1-2c-.27-.61-.55-1.24-.82-1.89C649.37,300.8,649.65,301.43,649.92,302Zm-.93-2.16c-.29-.7-.57-1.43-.85-2.18C648.42,298.45,648.7,299.18,649,299.88Zm-.94-2.41q-.87-2.36-1.67-5Q647.17,295.12,648.05,297.47Zm-1.72-5.13c-.55-1.79-1.07-3.67-1.57-5.62C645.26,288.67,645.78,290.55,646.33,292.34ZM755.79,463.56l-2.29-1,2.29,1c13.43,5.16,47,10.85,69.19,14.87C802.8,474.41,769.22,468.72,755.79,463.56Zm-111-176.89A190.26,190.26,0,0,1,640.91,267C641,267.26,642.43,274.78,644.74,286.67Zm-258.56,14.8q-.07-1.89-.18-3.87Q386.11,299.58,386.18,301.47Zm.13,4.1c0-1.15-.06-2.32-.11-3.52C386.25,303.25,386.28,304.42,386.31,305.57Zm.05,4.42q0,1.59,0,3.12Q386.36,311.58,386.36,310ZM555.5,528.05v0Zm275.13-48.59,1.4.26Zm-5.25-1,2,.36Zm2.71.49,1.63.3Zm4.89.91,1.28.25Zm3.47.68-1.29-.26Zm.72.14,1.83.38Z"/></g></g></svg>