<svg xmlns="http://www.w3.org/2000/svg" viewBox="0 0 818.84 649.09"><defs><style>.cls-1{fill:none;stroke:#fff;stroke-miterlimit:10;}.cls-2{fill:#fff;}</style></defs><title>viperfish-line</title><g id="圖層_2" data-name="圖層 2"><g id="viperfish-line"><path class="cls-1" d="M743.06,457.25a5.9,5.9,0,0,1-.67-.19A5.9,5.9,0,0,0,743.06,457.25Z"/><path class="cls-1" d="M743.85,457.4a5.33,5.33,0,0,1-.6-.11A5.33,5.33,0,0,0,743.85,457.4Z"/><path class="cls-1" d="M744.9,457.49h0Z"/><path class="cls-1" d="M747.61,454l0,.05Z"/><path class="cls-1" d="M733.45,440.49c-4.58-3.86-11.18-9.44-12.4-10.44s-5.35-2.61-7.27-3.3q3.09,3.18,6.27,6.47c13.47,14,25.67,24.22,25.6,24.28a24,24,0,0,0,2.93-.25s-1-1.53-2.36-3.36a11.57,11.57,0,0,0-4.64-3.34c-.3,0-5-5.16-5.86-5.83S733.45,440.5,733.45,440.49Z"/><path class="cls-1" d="M749.62,457.08l-.17,0Z"/><path class="cls-1" d="M749.38,457.12l-.26.05Z"/><path class="cls-1" d="M749.72,457.06h0Z"/><path class="cls-1" d="M744.75,457.48c-.26,0-.51,0-.76-.06C744.24,457.45,744.49,457.47,744.75,457.48Z"/><path class="cls-1" d="M749,457.18l-.38.06Z"/><path class="cls-1" d="M663.26,230.66l.74.38Z"/><path class="cls-1" d="M656.2,227.34l.89.39Z"/><path class="cls-1" d="M658.49,228.35l.91.42Z"/><path class="cls-1" d="M653.92,226.4l.85.35Z"/><path class="cls-1" d="M660.83,229.45l.87.42Z"/><path class="cls-1" d="M748.72,455.85l-.08-.11Z"/><path class="cls-1" d="M651.66,225.53l.74.28Z"/><path class="cls-1" d="M747.88,454.58l.07.13Z"/><path class="cls-1" d="M748.22,455.14a.36.36,0,0,0,.07.1A.36.36,0,0,1,748.22,455.14Z"/><path class="cls-1" d="M737.89,444.22l-2.1-1.75s5.43,6.75,6.43,6.92,5.26,4.16,5.26,4.16,0,0,0,.06c-.09-.52.11-.89.89-.89l-4.84-3.67C742.72,448.72,738.72,444.89,737.89,444.22Z"/><path class="cls-1" d="M649.42,224.71l.35.13Z"/><path class="cls-1" d="M757.72,454.1l-.11-.11Z"/><path class="cls-1" d="M759.17,455.61l-.09-.09Z"/><path class="cls-1" d="M760.7,457.15l-.06-.06Z"/><path class="cls-1" d="M760.9,457.35l0,0Z"/><path class="cls-1" d="M760.08,456.54l-.14-.15Z"/><path class="cls-1" d="M759.7,456.16a.93.93,0,0,0-.14-.14A.93.93,0,0,1,759.7,456.16Z"/><path class="cls-1" d="M761.05,457.5l-.08-.08Z"/><path class="cls-1" d="M739,429.9c-9.42-7.66-20.58-18.46-28.42-26,.1.48.67,9,4.67,13.62,2.89,3.35,39.38,33,39.38,33l.06.08c-1.27-1.62-1.95-2.89-1-2.89,2.71,0,12.37,9.78,12.37,9.78l7.68-1.07S755.88,443.64,739,429.9Z"/><path class="cls-1" d="M755,451l.1.13Z"/><path class="cls-1" d="M789.72,451.72s-30.67-23.67-43-35.33-38.67-38.67-45.67-48.33-23.66-42.67-28.66-60c-1.46-5.07-2.84-10.51-4.06-16.07l-3.54-19.35h0v0a163.68,163.68,0,0,1-1.74-19.12c-.33-15.46-.1-16.62-.1-16.62s-7.06-8.18-7.73-3-.33,3.68-.33,3.68-1.25,16-1.5,25.17-1,37.83,3.25,51.58a264.61,264.61,0,0,0,19.75,46.5c8.71,15.81,24.25,29.75,36.75,42.25C725.2,415.12,739,426,748.73,435c9,8.28,27.66,21.06,27.66,21.06s-5.34-5-2.67-5,5,6.44,5,6.44l11-3.27s-6.16-3.51-6.58-5.51S789.72,451.72,789.72,451.72Z"/><path class="cls-1" d="M755.49,451.62l0,.05Z"/><path class="cls-1" d="M757.13,453.47l-.13-.14Z"/><path class="cls-1" d="M760.3,456.75l.08.09Z"/><path class="cls-1" d="M754.05,452.72l-12.5-10.83s-19.73-15.88-22.5-18.5c-3.88-3.69-11.25-9.58-10.91-12.83a14.61,14.61,0,0,0-1.31-7.94h0c-4.19-4.15-15.28-14.56-17.7-17.57-15-18.67-26.75-42.42-32.75-59.75s-7.33-50.65-6.67-66.59c.67-16.13.67-31.41.67-31.41l-1.25-.63c-2,1.75-4.75,19.38-4.75,19.38-2.45,10.42-1.58,40.66-.25,57,2.26,27.92,27.77,74,39.08,89.31,8.12,11,17,20.39,26.49,30.2v0c1.13-.6,7.53,3.77,9.5,4.67,1.54.7,12.83,11,17.17,14.17s10.66,8.5,13,9.83,6.33,6.28,6.33,6.28h2.83A30.82,30.82,0,0,0,754.05,452.72Z"/><path class="cls-1" d="M749.65,457l0,0Z"/><path class="cls-1" d="M749.43,456.72a.1.1,0,0,1,0-.05Z"/><path class="cls-1" d="M758.27,454.68l-.17-.18Z"/><path class="cls-1" d="M756.12,452.35l-.12-.14Z"/><path class="cls-1" d="M749.09,456.32l-.08-.1Z"/><path class="cls-1" d="M758.73,455.16l-.16-.17Z"/><path class="cls-1" d="M756.64,452.93l-.15-.17Z"/><path class="cls-1" d="M701.05,368.06c7,9.66,33.34,36.66,45.67,48.33s43,35.33,43,35.33l8.33-1.33s-24.79-17.67-38.16-29.33c-11.73-10.24-42-40-53.5-54.5-15.44-19.48-35.5-67-38.5-99-1.84-19.57-1.59-35.28-1.59-35.28a108,108,0,0,0-17-7.59c-.75-.26-1.5-.52-2.25-.76s-5.27,13.35-7.37,23.63c-3.58,17.57-2,50.83,1.67,68.49s18.39,50.83,32,71c14.5,21.5,54.66,58,58,61.66,0,0,8.33,7.34,11,8.34a9.43,9.43,0,0,0,3.26.44c.14,0-12.1-10.28-25.6-24.28q-3.18-3.3-6.27-6.47c1.92.69,5.9,2.18,7.27,3.3s7.82,6.58,12.4,10.44c0,0,1.44,3.56,2.27,4.23s5.56,5.83,5.86,5.83a11.57,11.57,0,0,1,4.64,3.34c1.33,1.83,2.36,3.36,2.36,3.36.7-.1,1.14-.19,1.14-.19s-2.08-2.26-2.24-3.51c0,0-4.26-4-5.26-4.16s-6.41-6.9-6.43-6.92l2.1,1.75c.83.67,4.83,4.5,5.66,4.83l4.84,3.45c2.66,0,5.29,4.56,5.29,4.56h2s-4-4.73-6.33-6.06-8.67-6.56-13-9.72-15.63-13.41-17.17-14.12c-2-.9-8.37-5.24-9.5-4.63,0,0,0,0,0,0-9.52-9.8-18.37-19.19-26.49-30.18-11.31-15.32-36.82-61.39-39.08-89.32-1.33-16.34-2.2-46.57.25-57,0,0,2.75-17.62,4.75-19.37l1.25.62s0,15.29-.67,31.42c-.66,15.94.67,49.25,6.67,66.59s17.75,41.08,32.75,59.75c2.42,3,13.51,13.42,17.7,17.57h0a14.61,14.61,0,0,1,1.31,7.94c-.34,3.25,7,9.14,10.91,12.83,2.77,2.62,22.5,18.5,22.5,18.5l12.5,10.61a32.71,32.71,0,0,1,4.5,4.56h2.5a71.91,71.91,0,0,1-6.45-6.75s-36.49-29.55-39.38-32.9c-4-4.62-4.57-13.08-4.67-13.57,7.84,7.55,19,18.38,28.42,26,16.92,13.75,34.77,26.54,34.77,26.54l2.65-.36s-18.7-12.77-27.66-21.06c-9.77-9-23.53-19.87-35.59-31.94-12.5-12.5-28-26.43-36.75-42.25a264.57,264.57,0,0,1-19.75-46.49c-4.25-13.76-3.5-42.37-3.25-51.58s1.5-25.17,1.5-25.17-.34,1.49.33-3.68,7.73,3,7.73,3-.23,1.16.1,16.62a163.64,163.64,0,0,0,1.74,19.13v0L668.33,292c1.22,5.56,2.6,11,4.06,16.07C677.39,325.39,694.05,358.39,701.05,368.06Z"/><path class="cls-1" d="M656.24,275.8c1.75,5.75.19,10.59,2.58,27.26,2.7,18.76,22,52,24.29,56.5S697.79,375.2,701,379.39s27.09,29.17,31.09,32.67,20.5,18.25,24.5,21,15.09,11.41,17.59,13.16,9.67,9.74,9.67,9.74l5.83-1.73a33.74,33.74,0,0,1-5.37-3.8S766,437.8,760.71,432.8c0,0-23.41-17.66-28.66-24.41s-41.16-41.83-45.41-49.33c-1.74-3.07-8.46-13.95-12-22.75-4-10-11.75-25-13.5-34.5-1.46-7.91-.59-20.06-3.38-27.25-1.19-3.08-6.37-20-6.37-20v7S654.49,270.05,656.24,275.8Z"/><path class="cls-1" d="M331.3,408.39c-2.91-2.67-15.58-8.67-23.25-10.67s-47-9.33-57.5-9-29.5,1-32.5,1.67-9.66,2.33,0,5.33c5.73,1.78,16.25,5.31,24.71,8.45l1.63-.11c20.49-1.41,56.44,3.81,92.08,10.25A54,54,0,0,0,331.3,408.39Z"/><path class="cls-1" d="M316.64,404.24c-7.22-1.8-15.75-4.2-21.75-5.45s-26.38-5.48-31.25-6.11a170.2,170.2,0,0,0-21.25-1.06c-5.25.25-12.63.44-16.25.94s-6.25.54-5.83,1.89c.5,1.62,5.45.36,10.08,0s16.87-.69,21.75-.5a207.67,207.67,0,0,1,21.51,2.78c3.77.82,16.47,3.16,23.24,4.8,6.58,1.6,18,4.59,21,5.8,3.37,1.37,10.47,5.56,10.47,5.56l.46.08,4.22.74.36.07S324.64,406.24,316.64,404.24Z"/><path class="cls-1" d="M304.14,406.68c-4.24-1.05-22.22-4.75-28.71-5.7-6.2-.91-17.46-2.75-22.21-2.75s-12.83.08-14.33.95-.88,1.63.87,1.63c0,0,8.26-.66,13.29-.66,3.75,0,14.95,1.56,20.67,2.51,3.77.63,16.33,3,19.17,3.57,3.24.61,10.55,2.18,13.88,3.07q5.16.79,10.43,1.67h0S309.59,408,304.14,406.68Z"/><path class="cls-1" d="M246.1,403.84c-.08,0-.13.09-.2.13a188,188,0,0,1,25.1.82,93.25,93.25,0,0,0-10.54-1.4C255.71,403.22,247.63,403,246.1,403.84Z"/><path class="cls-1" d="M279.39,462.56C261.07,455.05,241.67,453,225,453c-3.41,4-10.06,11.74-13.84,15.49a52.05,52.05,0,0,1-12.69,8.69c-3.57.52,5.71,3.73,5.71,3.73a17.47,17.47,0,0,0,4.5-.32c1.71-.48,0,2.45,0,2.45l9.06,4.84,4-.08,2.79,5.08s.53-3.93,2.85.05,2,4.1,2,4.1l0,1.78s1.17-.47,6.1-.12,6.46,3.45,3.35,4.41,5.42,3.34,5.42,3.34,4-2.32,5.85-.12,10.4.81,10.4.81,2.37,5.77,5.05,5.72,7.53-3.73,8.95-.18,1,6.24-1.64,7.63,6.78,3.44,6.78,3.44.5-3.14,2.3-2.73a18.28,18.28,0,0,0,1.91.41l.09,4.47s5.52,2.12,9.05-.18c0,0,.82-9.67,3-14.17s11.59-15.25,19.59-22.93A21.7,21.7,0,0,1,327.09,483C312.34,476.1,297.66,470,279.39,462.56Z"/><path class="cls-1" d="M256.3,500.89c1.11-1.95,4.89-6.9,6.06-8.81s9.78-8.75,11.36-9.79a47.43,47.43,0,0,1,6.42-2.8l4.7-6.33-4,2.81c-1.08.74-7.16,3.17-9.5,5.34s-6.16,4.41-9.58,7.95-11.54,17.08-11.54,17.08a4,4,0,0,0,2.4,1.06S255.24,502.76,256.3,500.89Z"/><path class="cls-1" d="M232.39,459.06c-2,1.47-5.5,6.79-7.25,9.13s-7.92,7.45-9.09,9.11-4.16,7.48-4.16,7.48l-3.22-1.72a29.45,29.45,0,0,1,4.81-7.09c1.3-1.34,7-5.55,9.26-9a80.5,80.5,0,0,1,7.73-9.71c2.42-2.5,2.56-4.1,2.56-4.1,1.25,0,2.51.11,3.78.19C236.81,453.35,234.05,457.81,232.39,459.06Z"/><path class="cls-1" d="M238.29,458.74c-.83,1.12-4.28,5.07-5.24,7.88s-6.16,7.25-7.41,9.19-3.82,4.62-4.63,6.68a32.78,32.78,0,0,1-3.28,5.41l4-.08s.5-4,7.68-11.85c2.91-3.18,7.65-10.53,9.71-13.41a87.12,87.12,0,0,1,6.79-8.39c-1.4-.17-2.79-.31-4.17-.44C241.76,453.73,239.4,457.25,238.29,458.74Z"/><path class="cls-1" d="M256.72,461.32c-.58,1.5-5.58,6.08-7.74,8.83a57.3,57.3,0,0,0-5.76,9.75c-1,2.25-4.92,5.25-6.5,7.42s-2.33,5.33-3.67,8.17-.76,3.09-.76,3.09a9.15,9.15,0,0,0-2.83.25l0-1.78a43.65,43.65,0,0,1,4.12-9.31c2.5-3.92,3.92-4.75,6.42-8.25s2.58-4.34,5.58-9.09,6.5-7.34,7.75-9.55,3-5.08,3-5.08c1.13.22,2.26.45,3.39.7Z"/><path class="cls-1" d="M274.61,460.85c2.72.95,4.78,1.71,4.78,1.71s-4.9,1.67-10.34,7.4c-6.86,7.23-15,19.44-19.58,26.42-3.59,5.43-8.14,9.45-8.71,9.17-1.9-.94-3.35-2-1.85-2.43,0,0,6.56-5.41,7.31-7.25s4.67-7,6.42-10.09,6.08-8.57,7.58-10.66,6.92-7.75,8.83-9.92A28.81,28.81,0,0,1,274.61,460.85Z"/><path class="cls-1" d="M297.44,470l-4.36-1.81a66.44,66.44,0,0,0-7.82,4.62c-4.62,3.81-10.5,10.62-15,17.1s-9.68,17.24-9.68,17.24a19.42,19.42,0,0,0,1.73,3.19s3.16-7,4.58-8.95,4.5-8.92,7.66-12.13,9.25-10.37,10.42-11.79,9-5.58,10-6.17Z"/><path class="cls-1" d="M314.27,479.24a78.66,78.66,0,0,0-7.55,4.41c-5,3.3-9.93,7-13.42,11.33-9.16,11.34-11.51,16.27-13.41,22.08-.58,1.75-3.5,5.84-3.5,5.84-2.41-.72-5-1.76-3.45-2.58,2.66-1.39,2-1.64,3.95-5,2.1-3.65,3.38-6.43,5.58-11.19,1.83-4,8-10.56,10.25-13.21,2.13-2.48,8.46-8.28,12.17-10.32,3.43-1.88,5.85-5,6.67-4.65l4.33,1.89,3.67,1.64q3.78,1.7,7.53,3.44a21.7,21.7,0,0,0-11.45,5.66c-8,7.68-17.42,18.43-19.59,22.93s-3,14.17-3,14.17a8.73,8.73,0,0,1-5.93.94s.87-4.82,1.75-8.94a41.05,41.05,0,0,1,7.16-15.5c3.31-4.62,14.63-16.43,16-17.34.83-.54,3.37-2.36,5.26-3.73C317.31,481.16,314.67,479,314.27,479.24Z"/><path class="cls-1" d="M229.27,453.05q-2.18,0-4.29,0c-3.41,4-10.06,11.74-13.84,15.49a52.05,52.05,0,0,1-12.69,8.69c-1.65.24-.36,1.26,1.52,2.29,0,0,7.29-4.68,9.42-6.5s9.93-9.81,11.43-12.06,6.44-6.41,6.69-6.67A18.52,18.52,0,0,1,229.27,453.05Z"/><path class="cls-1" d="M150.39,436.06c-15.5,0-39.5,12.83-51,18.91s-50,41.92-62.5,60-28.5,47.59-33.5,64.59-2.5,31.5,0,32,26.5-17,36-25.5,27-11.5,40,0,25,31.5,29,39.5,11.5,15.5,14,20.5,8,2.5,11-6.5,5.56-24.47,8.66-40.17c3-15.22,3-44.46,3.34-54,.42-11.08,1-37.83,9-48.33s9-33.47,6.5-40S150.39,436.06,150.39,436.06Z"/><path class="cls-1" d="M126,456.47c-17.52,3.09-29.8,17.43-40.89,25.59-10.49,7.7-26.5,29.16-39,47.25s-19.75,28.75-24.75,45.75-3.24,27.56-3.24,27.56l1.07-.77a68.78,68.78,0,0,1,1-17.17,102.71,102.71,0,0,1,8.5-25.37c4.5-9,16.38-26.63,19.88-31.38s17.62-24,21.5-28.62,10.81-12.38,16-16.25,17.47-15,21.09-17.38,13.25-7.62,16.5-7.62S126,456.47,126,456.47Z"/><path class="cls-1" d="M119.64,467.06a43.87,43.87,0,0,0-7.09,3.76c-1.5,1.09-12.52,12.94-15.85,17.61s-13.1,16.78-17.19,20.78-13.67,21.34-18,30-3.92,10.55-11.58,21.22-10.5,25.63-10.5,25.63c.44-.4.89-.78,1.37-1.15,0,0,1.31-4.85,2.25-7.67a94.4,94.4,0,0,1,6.69-13.87c1.62-2.31,5-6.81,6.31-9.38s3.56-7.06,4.25-8.75,3.5-7.18,4.38-9,7.68-13.87,8.75-15.81,5.48-8.22,7-10.25S90.7,498.37,92,496.62s4.81-6.31,5.44-7.5,6.18-7.31,7.43-8.75a89.7,89.7,0,0,1,6.81-7c1.57-1.25,3.26-3.19,4.82-3.81A10.79,10.79,0,0,0,119.64,467.06Z"/><path class="cls-1" d="M123.46,479.81c-1.42,5.75-9.82,25.5-11.83,30.75s-6.74,24.5-9,31.76-6.75,27.24-9.25,35-8.56,14.08-8.56,14.08c.41.45.83.9,1.24,1.36a89.12,89.12,0,0,0,5.82-8.28,46.08,46.08,0,0,0,4-11.34c.83-3.83,6.75-27.43,7.5-29.84s7.24-26.75,8.24-30.17,7.09-18,8-20.25S124.55,479,124.55,479Z"/><path class="cls-1" d="M149.39,470.82c.25,3.5-3.5,12.84-5.75,19.09s-5.63,11.15-7.25,24.15c-.87,6.94-2.5,23.5-3.5,28.26s-1.71,32.31-2.25,40c-.63,8.89-3.5,23.25-7.18,35.25s-9.54,16.68-9.54,16.68l1.35,1.81a26.88,26.88,0,0,0,5.49-7.37,96.44,96.44,0,0,0,5.41-14.75c1.34-4.5,4.34-17,5-22.25s1.5-12.37,1.5-15,.87-25.5,1.25-30,4.12-31.5,4-33.5,2.21-12.25,4.35-16.87,9.77-22.75,9.15-24.88S149.39,470.82,149.39,470.82Z"/><path class="cls-1" d="M153.82,442.45c-1.92-3.64-3.43-6.39-3.43-6.39-15.5,0-39.5,12.83-51,18.91s-50,41.92-62.5,60-28.5,47.59-33.5,64.59-2.5,31.5,0,32c.73.14,3.29-1.25,6.78-3.5a35.67,35.67,0,0,1-.53-20.25c3-11,15.25-37,21-47s21-32.5,34-44.5,23.5-24.5,37.25-33,39.25-18.25,43-19.5A35.91,35.91,0,0,1,153.82,442.45Z"/><path class="cls-1" d="M160.89,457.07c2.5,6.52,1.5,29.49-6.5,40s-8.58,37.25-9,48.33c-.37,9.54-.33,38.78-3.34,54-3.1,15.7-5.66,31.17-8.66,40.17s-8.5,11.5-11,6.5c0,0,6.93-19.58,8.33-27.34,1.94-10.74,4.77-27.32,5.3-35.42.43-6.5,1.12-30.48,1.37-41s3.25-36,9.25-45.76S160.89,457.07,160.89,457.07Z"/><path class="cls-1" d="M146.72,473.16c-1.67,5.89-9.12,15.65-13,30.24-3.53,13.27-6.85,75.59-13.33,102.32-2.75,11.34-12,19.84-12,19.84-.75-1.5-1.78-3.43-3-5.64,0,0,10-7.44,11.55-19.69,1-8,4.94-31.14,6.5-45.34,1.36-12.43,3.72-32.84,4-44.51.28-11.85,14.85-39.56,14.85-39.56Z"/><path class="cls-1" d="M131.89,478.06c-.5,2-9.88,21-11.63,31.5-1.69,10.15-10.62,49.37-11.87,57.37-.7,4.48-4.74,16.94-7.88,25.63a44.64,44.64,0,0,1-5.73,11.05c-1.1-1.51-2.23-3-3.4-4.51a35.06,35.06,0,0,0,5.38-9c2.23-5.47,6.21-19.88,7.13-23.88,1.83-8,4.16-24.29,5.5-30.13s5.91-20.37,7-27.37S126,479.43,126,479.43Z"/><path class="cls-1" d="M122.39,478.06s-10.34,24.33-12.67,29.34-13.67,35.66-16.33,48-14,30.67-14,30.67a31.55,31.55,0,0,0-5.06-3.66S85,570.5,88.22,557.72c3.65-14.5,9.43-32,11.67-37.34s11.33-24.33,13.66-30,6.34-13.83,6.34-13.83l3.16,1.51"/><path class="cls-1" d="M116.89,473.81h2.75s-21,38-24.25,45.25-14,30-15.25,35.25-11.38,25.62-11.38,25.62a29.54,29.54,0,0,0-6.41-1.3s11.75-19.14,12.7-22.9c2.11-8.33,13.58-30.92,16.33-37.92S116.89,473.81,116.89,473.81Z"/><path class="cls-1" d="M116.22,470s-8.67,7.5-12.33,12.34-13.67,19-20.5,28.5S72.72,530.21,71.72,534s-8,15.34-11.5,22.51-7.77,22.82-7.77,22.82a31.38,31.38,0,0,1,5.15-.79s5.29-20,10.79-28.52,8.75-19,12-26.25,20-30.5,25-37.75,14.55-15.24,14.55-15.24Z"/><path class="cls-1" d="M32.72,581.73a115.12,115.12,0,0,1,6-18.67c1.83-4.17,10.17-13,15-23.67s15.5-22.35,18-25.85,19.5-22,22.67-24.5,15.5-17.83,18.5-20a99.77,99.77,0,0,1,10.16-5.66l4-5.32c-8.77,4.5-19,9.35-23.62,14.65-12,13.76-27.17,27.5-39.17,41.83s-15.67,27.68-27.33,43.34S25,597.63,26.36,596.58c1.76-1.34,3.49-2.68,5.13-4A70.84,70.84,0,0,1,32.72,581.73Z"/><path class="cls-1" d="M245.39,47.56s-1,16,7.5,28.5,19.5,33,25,50.5,24,81,34,85.5c0,0-22.5-1-40.5,7s-52,7-62.5,13.5-30,15.5-34.5,19-6,13,0,9,30.5-16,46-18.5,49-11.5,67-10,37.5-2.5,51-2,18.5,5,33,5,69,3,105-1.5,90.5-14,116-15,60.5-2,96,29.5,42.5,53.5,43.5,71c0,0-15.5,37-42.5,54s-77,46-129,53-103,12-148.5,3-131-27.5-167.5-25-62,6-90,23-38.5,40-39.5,46.5,6.5,16,21.5,7.5,41-23.5,60-26,52.5-5,83,7.5,51,21,78.5,36,88,35,126,38,96-8.5,139.5-25,94.5-41.5,128-79.5,64-89,66-126.5,4-78.5-29.5-121.5-65.5-64-99-74.5-79.5-12-118-4-81,19.5-99,13.5-25-8-32.5-4.5-29,2-39.5-1.5a131.55,131.55,0,0,1-15.5-6s-3-5-10.5-8.5-19-8-19-8-.5-2.5-10-10-20.5-15-28.5-16.5-30.5-8.5-34.5-10-11-5.5-19.5-6.5A83,83,0,0,0,245.39,47.56Z"/><path class="cls-1" d="M196.39,455.06c-19,2.5-45,17.5-60,26s-22.5-1-21.5-7.5c.8-5.24,7.77-21.17,25.07-36.05,0,0-12.2,13.17-14.7,21.05-.76,2.38-2.47,10.5-.71,12.26,2.31,2.28,7.43,2.13,14,.55,4.58-1.11,31.62-10.12,37.89-12.19C189.28,454.91,196.39,455.06,196.39,455.06Z"/><ellipse class="cls-1" cx="291.03" cy="73.2" rx="20.14" ry="21.14"/><circle class="cls-1" cx="281.01" cy="74.72" r="6.13"/><path class="cls-1" d="M285.33,74.72a4.09,4.09,0,1,1-4.09-4.09A4.09,4.09,0,0,1,285.33,74.72Z"/><path class="cls-1" d="M247.72,205.72c-.06,3.16,4.67,9,5.78,10.33s6.89,6.53,6.89,6.53a63.46,63.46,0,0,0,11-3.52c18-8,40.5-7,40.5-7-10-4.5-28.5-68-34-85.5s-16.5-38-25-50.5-7.5-28.5-7.5-28.5S234.05,65.67,233.72,73.2a45.34,45.34,0,0,0,5.33,22.52c3.67,7,6.34,28.67,3,38s-6.12,17.87-5.33,21.67C238.73,165.07,248,194.39,247.72,205.72Z"/><path class="cls-1" d="M247.72,205.72c.79,4.31,4.67,9,5.78,10.33s6.89,6.53,6.89,6.53a63.46,63.46,0,0,0,11-3.52c18-8,40.5-7,40.5-7-10-4.5-28.5-68-34-85.5s-16.5-38-25-50.5-7.5-28.5-7.5-28.5S234.05,65.67,233.72,73.2a45.34,45.34,0,0,0,5.33,22.52c3.67,7,6.34,28.67,3,38s-6,16.21-5.33,21.67C238.17,166.59,245.88,195.71,247.72,205.72Z"/><path class="cls-1" d="M238.5,81.81c1,4.33,10.39,27.25,10.2,37-.16,8.13-6.44,28.16-6.44,35.87,0,7.25,8.2,39.06,9.59,48.54,1.14,7.76,11.69,18.56,11.69,18.56a56.73,56.73,0,0,0,7.85-2.72c18-8,40.5-7,40.5-7-10-4.5-28.5-68-34-85.5s-16.5-38-25-50.5c-5.32-7.82-6.92-17-7.37-22.79C245.52,53.27,237.38,77.05,238.5,81.81Z"/><path class="cls-1" d="M744.41,249.72c-.3-5.3-2.1-45.75-15.61-65.66-9.54-14.07-14.25-19.17-28.75-26.17,0,0,7.86,16.48,8.09,35.17.12,9.91-2.84,22.66-13.5,24.5s-6.25,30.5-6.25,30.5c35.5,31.5,42.5,53.5,43.5,71,0,0,7.25-16.75,8.75-22s3.25-23,3.25-23S744.82,257.06,744.41,249.72Z"/><path class="cls-1" d="M731.89,319.06c-1-17.5-8-39.5-43.5-71s-70.5-30.5-96-29.5-80,10.5-116,15-90.5,1.5-105,1.5c-9.41,0-14.82-1.9-21.15-3.37,0,0,9.65.12,13.15-1.88s23.25-18.25,27.5-22.75a67.34,67.34,0,0,1,11-8.75s72.39,2.25,93.19,0,93.81-11.25,114.31-10.25,65.5,11.5,84,25.5,31,26.92,38.5,40,12,20.54,12,20.54-1.75,17.75-3.25,23S731.89,319.06,731.89,319.06Z"/><path class="cls-1" d="M196.39,455.06c19-2.5,52.5-5,83,7.5s51,21,78.5,36,88,35,126,38,96-8.5,139.5-25,94.5-41.5,128-79.5a363.17,363.17,0,0,0,40-54.94s-15,19.94-28,31.94-46.46,40.59-57,48c-20.34,14.32-79,33.49-91.5,36.49s-87,16-102,16-62.5-1.5-85-8-62.8-19.5-77.65-25.5c0,0-53.35-22-68.35-25.5,0,0-24.5-6-34.5-6a116.64,116.64,0,0,0-22.5.5c-11,1.5-21,4-24.5,5.5A6.52,6.52,0,0,0,196.39,455.06Z"/><path class="cls-2" d="M354.89,90.56c1.77,1.86,3.44,3.81,5.13,5.74.85,1,1.68,1.93,2.54,2.86.43.47.87.94,1.31,1.38l.66.66a10,10,0,0,1,.71.75,21.81,21.81,0,0,1,3.58,7.1c.41,1.25.81,2.41,1.12,3.78a13.52,13.52,0,0,1,.23,4.1,55,55,0,0,0-.55,7.53,17,17,0,0,0,1.84,7,11.64,11.64,0,0,1,.75,4,34,34,0,0,1-.1,3.91c-.11,1.29-.26,2.57-.47,3.85a20.75,20.75,0,0,1-.92,3.75,28.55,28.55,0,0,0,.35-3.81c.05-1.28.07-2.55,0-3.82a36.35,36.35,0,0,0-.23-3.78,10.85,10.85,0,0,0-.84-3.44,17.85,17.85,0,0,1-2.33-7.64,50.47,50.47,0,0,1,.48-7.79,11.38,11.38,0,0,0-.15-3.55c-.24-1.13-.64-2.41-1-3.61a22.87,22.87,0,0,0-3-6.73c-.17-.25-.37-.45-.56-.68s-.45-.49-.66-.74c-.43-.5-.83-1-1.23-1.51-.8-1-1.58-2-2.32-3.09C357.81,94.77,356.36,92.66,354.89,90.56Z"/><path class="cls-2" d="M328.39,230.39a60.34,60.34,0,0,0,9.8-2.73c1.6-.57,3.18-1.17,4.73-1.85a21.11,21.11,0,0,0,4.34-2.32,60.92,60.92,0,0,0,7.16-7c2.27-2.5,4.49-5.08,6.67-7.69l3.3-3.89,1.66-2A18.35,18.35,0,0,0,367.5,201c1.75-2.7,2.58-6,3.37-9.27.4-1.65.75-3.33,1.26-5a19.28,19.28,0,0,1,.9-2.47c.35-.81.68-1.53,1-2.32a11.89,11.89,0,0,0,.69-4.88,30,30,0,0,0-.95-5A23.77,23.77,0,0,1,375.2,177a13,13,0,0,1-.28,5.22,25.54,25.54,0,0,1-.83,2.47,21,21,0,0,0-.7,2.38c-.38,1.63-.68,3.3-1,5a29.21,29.21,0,0,1-3.3,9.94,16,16,0,0,1-1.58,2.18l-1.63,2-3.27,3.93c-2.23,2.6-4.46,5.19-6.81,7.68-1.19,1.24-2.38,2.48-3.64,3.67a32,32,0,0,1-4,3.36A21.34,21.34,0,0,1,343.4,227q-2.43.87-4.92,1.56t-5,1.15A31.11,31.11,0,0,1,328.39,230.39Z"/><path class="cls-2" d="M245.39,47.56c1.69,2.35,3.27,4.76,4.83,7.18s3.08,4.87,4.69,7.22c.39.58.8,1.19,1.21,1.68.18.22.49.57.73.88a9.43,9.43,0,0,1,.61,1,24.73,24.73,0,0,1,1.66,4.11c.9,2.77,1.54,5.56,2.41,8.32A66.29,66.29,0,0,1,258,70a30.32,30.32,0,0,0-1.8-3.81c-.17-.29-.35-.56-.54-.83s-.38-.45-.66-.78a21,21,0,0,1-1.35-1.79c-1.63-2.43-3.08-4.93-4.46-7.47S246.54,50.22,245.39,47.56Z"/><path class="cls-2" d="M322.39,214.39c-3-4.52-5.86-9.12-8.45-13.9-.64-1.2-1.28-2.4-1.86-3.64a26.3,26.3,0,0,1-1.51-3.87c-.8-2.64-1.33-5.3-1.92-7.94s-1.09-5.29-1.78-7.87a29.12,29.12,0,0,0-1.22-3.77c-.26-.58-.55-1.14-.88-1.79s-.57-1.26-.82-1.9a108.05,108.05,0,0,1-4.48-15.65c.88,2.56,1.71,5.13,2.64,7.67s1.84,5.08,2.92,7.52c.27.62.56,1.21.87,1.79s.64,1.19,1,1.83a30.53,30.53,0,0,1,1.39,3.92c.74,2.64,1.31,5.29,1.88,7.94s1.09,5.3,1.81,7.85A44.2,44.2,0,0,0,315,200C317.38,204.79,319.89,209.58,322.39,214.39Z"/><path class="cls-2" d="M384.39,107.06a16.82,16.82,0,0,1,3.16,12.38l-.11.82a3.4,3.4,0,0,0,0,.63c0,.49.11,1,.2,1.51.17,1,.4,2.06.64,3.08.48,2,1,4.09,1.71,6.09a36.73,36.73,0,0,0,2.38,5.78,23.71,23.71,0,0,1,2.3,6.12,29.76,29.76,0,0,1,.73,6.43c0,1.07,0,2.15-.09,3.21s-.2,2.13-.18,3.2a28.71,28.71,0,0,1-.17-3.2c0-1.06-.09-2.12-.21-3.18a34.79,34.79,0,0,0-1.13-6.19,24.75,24.75,0,0,0-2.41-5.73,33.47,33.47,0,0,1-2.59-6q-1-3.06-1.79-6.2-.39-1.58-.66-3.18c-.09-.54-.16-1.09-.2-1.66a4.44,4.44,0,0,1,0-1l.11-.77a22,22,0,0,0,0-6.17A19.94,19.94,0,0,0,384.39,107.06Z"/><path class="cls-2" d="M350.24,231.69a72.66,72.66,0,0,0,7.83-.86,25.15,25.15,0,0,0,3.73-1,6.45,6.45,0,0,0,1.63-.84c.52-.33,1-.76,1.55-1.14,2.07-1.59,4.09-3.29,6.11-5s4-3.36,6.05-5.06,4-3.39,6-5.11,4-3.43,5.87-5.2c.48-.45.9-.89,1.39-1.36s1-.94,1.46-1.4c1-.9,2-1.75,3.09-2.57a72.29,72.29,0,0,1,6.58-4.52l-.26.3a19.09,19.09,0,0,0,1.55-5,6.35,6.35,0,0,0-.85-4.85,11.53,11.53,0,0,1-1.88-5.23c-.13-.91-.22-1.81-.28-2.72,0-.45-.06-.9-.11-1.35a3.44,3.44,0,0,0-.3-1.31,3.85,3.85,0,0,1,.43,1.29c.09.44.16.89.23,1.34.15.9.28,1.79.48,2.67a11.1,11.1,0,0,0,2.09,4.79,5.49,5.49,0,0,1,1.23,2.65,10.17,10.17,0,0,1,.08,2.86,20.15,20.15,0,0,1-1.42,5.43l-.07.17-.19.13c-2.15,1.45-4.23,3.05-6.24,4.69q-1.5,1.24-2.91,2.58c-.46.44-.91.9-1.35,1.36s-.93,1-1.41,1.44c-3.86,3.68-7.89,7-12,10.4S370.13,226,365.79,229c-.57.37-1.1.75-1.71,1.1a7.51,7.51,0,0,1-1.93.83,19.64,19.64,0,0,1-4,.69A52.51,52.51,0,0,1,350.24,231.69Z"/><path class="cls-1" d="M734.57,277.06a93.48,93.48,0,0,0,2.74-14.17c4.19,7.19,6.58,11.17,6.58,11.17s-1.75,17.75-3.25,23-8.75,22-8.75,22a67.92,67.92,0,0,0-6.11-24.82S732,285.5,734.57,277.06Z"/><path class="cls-1" d="M744.41,249.72c-.3-5.3-2.1-45.75-15.61-65.66-9.54-14.07-14.25-19.17-28.75-26.17,0,0,9,6,12,8.56a81.59,81.59,0,0,1,13.43,16.46c5.08,8.17,9.94,21.79,10.91,35,.55,7.47,1.73,32.08.92,45,4.19,7.18,6.58,11.17,6.58,11.17S744.82,257.06,744.41,249.72Z"/><polygon class="cls-1" points="516.39 167.06 516.39 170.06 522.39 170.06 525.2 165.68 529.26 164.43 523.76 163.7 522.05 167.59 516.39 167.06"/><polygon class="cls-1" points="527.39 144.06 534.39 144.06 537.07 139.93 540.39 126.68 540.39 139.06 535.39 146.06 528.39 146.06 527.39 144.06"/><polygon class="cls-1" points="540.01 143.93 541.39 152.06 538.01 156.56 534.14 159.1 536.64 155.43 539.89 152.06 540.01 143.93"/><polygon class="cls-1" points="535.39 149.56 537.95 156.56 540.86 157.43 541.37 158.31 536.67 157.39 535.39 154.22 535.39 149.56"/><polygon class="cls-1" points="545.53 131.4 551.39 132.43 551.39 131.06 563.64 119.06 554.77 131.4 555.51 137.06 553.39 137.06 546.28 133.56 545.53 131.4"/><polygon class="cls-1" points="557.95 133.18 558.79 136.06 561.39 138.68 561.39 143.06 557.7 147.31 554.71 145.06 557.7 145.15 560.23 142.24 560.62 139.31 558.35 136.56 557.95 133.18"/><polygon class="cls-1" points="581.39 111.24 579.95 117.4 570.39 126.68 570.39 129.06 581.39 118.31 581.39 111.24"/><polygon class="cls-1" points="598.51 104.68 597.26 116.43 592.14 122.87 587.01 123.43 588.01 126.68 592.76 124.56 599.51 117.31 598.51 104.68"/><polygon class="cls-1" points="591.39 124.93 594.87 126.68 596.38 129.06 594.15 127.81 592.96 129.06 591.39 126.68 591.39 124.93"/><polyline class="cls-1" points="583.39 122.56 585.39 122.56 585.39 124.18 583.39 122.87"/><polygon class="cls-1" points="583.39 124.06 583.39 127.06 581.14 129.81 575.39 130.18 575.39 129.06 580.64 128.43 583.01 126.18 583.39 124.06"/><polygon class="cls-1" points="626.14 107.72 637.3 113.56 652.4 114.56 635.89 117.17 626.14 107.72"/><polygon class="cls-1" points="622.14 103.31 624.05 107.72 615.3 111.92 612.05 112.45 606.64 106.06 612.05 109.81 621.89 107.72 622.14 103.31"/><polygon class="cls-1" points="616.72 111.24 619.14 114.46 616.72 115.68 613.64 117.17 616.39 114.21 616.72 111.24"/><polygon class="cls-1" points="657.89 106.56 653.72 112.45 657.89 122.87 655.8 114.21 657.89 106.56"/><polygon class="cls-1" points="662.8 111.24 659.05 117.17 660.93 122.56 660.14 117.17 662.8 111.24"/><polygon class="cls-1" points="547.06 115.68 549.39 120.15 545.53 129.06 540.39 128.06 544.76 127.12 548.14 120.15 547.06 115.68"/><polygon class="cls-1" points="558.3 114.21 562.64 116.9 570.39 115.55 575.39 109.31 569.14 114.21 562.39 115.68 558.3 114.21"/><polygon class="cls-1" points="504.39 122.87 508.8 128.06 505.39 133.18 506.8 129.06 504.39 122.87"/><polygon class="cls-1" points="528.39 119.06 536.39 119.06 538.38 121.89 537.99 122.51 535.39 126.68 535.39 120.06 528.39 119.06"/><polygon class="cls-1" points="553.71 150.9 556.49 157.03 553.09 167.91 547.34 170.22 551.97 167.34 555.22 158.47 553.71 150.9"/><polygon class="cls-1" points="537.6 169.68 540.28 174.93 539.04 180.05 532.05 178.06 537.39 178.06 538.38 174.87 537.6 169.68"/><polyline class="cls-1" points="402.64 116.31 406.39 133.31 398.3 141.81 404.8 133.31 402.35 117.17"/><polygon class="cls-1" points="437.39 125.81 439.26 134.06 427.3 149.06 437.39 134.06 437.39 125.81"/><polygon class="cls-1" points="452.39 126.06 452.39 144.06 448.05 150.06 447.39 147.35 449.89 144.06 452.39 126.06"/><polygon class="cls-1" points="406.39 123.06 414.89 138.56 410.64 145.06 412.8 139.56 406.39 123.06"/><polyline class="cls-1" points="412.8 119.06 413.27 119.77 419.3 129.06 413.6 136.21 416.05 129.06"/><polygon class="cls-1" points="419.3 147.06 430.3 158.06 432.14 171.06 420.89 181.56 430.3 170.56 428.64 158.81 419.3 147.06"/><polygon class="cls-1" points="416.39 150.06 417.8 159.31 413.05 170.56 416.39 160.31 416.39 150.06"/><polygon class="cls-1" points="427.05 160.31 425.72 172.06 423.8 170.56 425.43 162.06 427.05 160.31"/><polygon class="cls-1" points="427.6 190.18 439.39 185.81 439.39 164.06 433.49 160.31 437.05 164.31 435.39 184.22 427.6 190.18"/><polygon class="cls-1" points="439.42 141.68 448.39 148.06 448.39 156.06 446.64 161.56 445.4 160.31 446.89 156.31 446.64 150.06 439.42 141.68"/><polygon class="cls-1" points="444.05 158.05 448.61 164.3 439.39 175.24 439.39 172.06 446.39 164.31 444.05 158.05"/><polygon class="cls-1" points="446.72 173.14 450.39 177.06 450.39 185.06 448.11 193.06 446.14 196.39 445.27 194.89 446.95 191.89 449.39 184.64 449.39 178.06 446.72 173.14"/><polygon class="cls-1" points="449.96 187.98 453.22 184.76 459.05 187.22 465.89 197.72 464.39 199.3 462.39 199.31 463.33 197.56 457.93 189.22 452.39 186.89 449.96 187.98"/><polygon class="cls-1" points="463.33 170.56 468.28 175.24 466.89 190.18 465.89 193.89 464.3 195.28 463.11 193.45 464.05 192.03 465.89 177.06 463.33 170.56"/><polygon class="cls-1" points="458.01 143.56 462.43 153.89 460.18 164.56 458.72 171.06 457.39 171.06 457.93 164.56 460.89 154.01 458.01 143.56"/><polygon class="cls-1" points="469.39 121.89 470.6 129.06 463.1 141.06 461.86 140.39 469.39 128.39 469.39 121.89"/><polygon class="cls-1" points="466.3 136.21 471.05 142.72 463.33 151.62 463.11 150.06 469.05 142.89 466.3 136.21"/><polygon class="cls-1" points="472.22 145.06 478.39 153.39 477.55 166.18 472.22 173.14 471.05 172.06 475.39 166.18 476.39 154.22 472.22 145.06"/><polygon class="cls-1" points="523.97 122.87 523.18 136.12 515.45 143.87 510.39 139.06 510.39 137.06 508.8 140.22 513.26 145.06 516.45 146.22 523.94 140.06 525.2 136.21 523.97 122.87"/><polygon class="cls-1" points="516.39 152.06 516.39 164.06 509.8 168.39 514.35 163.39 516.39 152.06"/><polygon class="cls-1" points="503.39 153.72 504.22 158.05 503.39 164.31 503.39 153.72"/><polygon class="cls-1" points="503.39 166.81 504.72 169.06 505.39 169.06 505.39 172.06 504.39 172.06 503.39 170.56 503.39 166.81"/><polygon class="cls-1" points="493.72 143.14 496.55 146.22 505.39 145.06 507.84 142.24 508.56 143.07 505.89 146.73 498.3 148.06 495.39 148.06 492.72 145.31 493.72 143.14"/><polygon class="cls-1" points="497.97 154.22 500.48 158.3 499.39 164.93 491.8 173.06 488.39 173.06 488.39 171.06 491.55 170.56 497.26 163.39 498.24 158.05 497.97 154.22"/><polygon class="cls-1" points="482.02 129.72 485.39 134.06 485.39 139.06 480.22 145.06 483.39 139.22 483.39 135.06 482.02 129.72"/><polygon class="cls-1" points="481.89 165.94 488.89 173.94 488.25 184.7 483.3 193.54 479.39 192.06 482.39 192.06 486.05 185.01 487.3 175.37 481.89 165.94"/><polygon class="cls-1" points="503.89 177.56 501.22 187.98 494.68 190.18 492.72 189.56 499.55 187.06 503.89 177.56"/><polygon class="cls-1" points="509.72 491.83 500.05 486.45 486.72 496.86 498.22 484.06 502.39 484.06 509.72 491.83"/><polygon class="cls-1" points="478.72 494.97 484.72 490.46 488.89 499.73 481.23 508.51 486.72 499.49 483.8 493.23 478.72 494.97"/><polygon class="cls-1" points="437.39 475.06 438.26 474.52 454.05 464.89 461.05 471.56 462.05 476.72 458.89 471.89 454.55 468.39 441.89 475.22 437.39 475.06"/><polygon class="cls-1" points="417.39 495.06 429.39 495.06 432.22 499.72 428.55 497.23 417.39 495.06"/><polygon class="cls-1" points="665.89 435.39 661.05 447.39 659.89 452.39 665.64 465.89 662.39 452.55 662.39 448.06 667.3 437.72 669.76 439.05 673.49 448.05 672.36 438.55 667.54 434.22 665.89 435.39"/><polygon class="cls-1" points="674.4 448.18 677.41 442.7 683.39 447.22 683.39 460.06 684.8 447.3 679.69 441.06 676.39 441.06 673.55 445.97 674.4 448.18"/><polygon class="cls-1" points="678.85 422.46 676.39 425.22 676.39 430.06 677.39 433.05 677.39 427.06 680.05 424.06 690.39 424.06 678.85 422.46"/><polygon class="cls-1" points="707.39 420.06 713.39 420.06 714.55 418.06 706.39 418.06 698.22 425.72 699.55 434.34 700.72 428.09 707.39 420.06"/><path class="cls-1" d="M697.39,434.39l5.16,6.25s.17,6.78,0,6.28-1.33-5.43-1.33-5.43l-4.08-3.11-4.75,3.09v7.59l-1.59-9.19Z"/><polygon class="cls-1" points="720.39 428.06 729.39 428.06 720.39 425.72 710.39 433.18 711.72 443.68 713.8 435.65 720.39 428.06"/><polygon class="cls-1" points="758.05 386.87 759.39 392.04 762.39 392.87 756.94 394.37 758.05 386.87"/><polygon class="cls-1" points="780.39 369.06 780.39 380.06 782.97 370.86 789.51 366.2 780.39 369.06"/><polygon class="cls-1" points="777.66 352.21 771.69 359.8 775.72 372.06 780.39 372.06 776.39 370.44 773.66 359.98 777.66 352.21"/><polygon class="cls-1" points="739.01 406.06 732.32 413.77 735.39 422.21 735.39 414.06 740.8 407.52 744.22 406.06 739.01 406.06"/><polygon class="cls-1" points="724.55 395.36 722.89 408.53 727.39 413.59 725.14 407.86 724.55 395.36"/><polygon class="cls-1" points="736.39 396.86 735.72 400.53 738.4 401.53 736.39 396.86"/><polygon class="cls-1" points="732.57 381.19 729.39 383.19 730.98 385.19 732.57 381.19"/><polygon class="cls-1" points="757.69 399.19 754.87 403.52 756.94 411.47 756.28 404.48 757.69 399.19"/><polygon class="cls-1" points="745.39 384.06 745.39 389.06 748.64 393.02 743.85 388.54 745.39 384.06"/><polygon class="cls-1" points="768.62 378.37 762.39 380.02 762.39 383.06 763.35 380.71 768.62 378.37"/><polygon class="cls-1" points="488.51 483.07 492.39 484.06 492.39 488.06 490.39 489.39 490.39 486.06 490.45 485.23 488.51 483.07"/><polygon class="cls-1" points="475.89 469.73 492.89 460.56 498.22 465.14 495.05 470.81 495.39 465.68 492.89 463.06 475.89 469.73"/><polygon class="cls-1" points="473.72 467.89 481.8 478.22 472.22 487.06 464.39 487.06 471.72 484.31 480.39 478.02 473.72 467.89"/><polygon class="cls-1" points="414.89 438.06 421.89 438.89 427.72 444.23 421.3 440.06 414.89 438.06"/><polygon class="cls-1" points="395.3 434.35 400.39 438.06 400.39 441.06 398.85 438.06 395.3 434.35"/><polygon class="cls-1" points="413.68 443.81 412.62 448.51 414.89 451.06 419.39 451.06 413.89 452.14 410.05 447.98 413.68 443.81"/><polygon class="cls-1" points="390.22 434.35 387.8 438.06 380.55 439.23 386.72 436.79 390.22 434.35"/><polygon class="cls-1" points="390.22 441.55 391.05 444.97 395.55 447.06 389.39 447.06 390.22 441.55"/><polygon class="cls-1" points="375.55 427.56 376.22 430.72 373.22 431.72 375.55 427.56"/><polygon class="cls-1" points="383.39 429.06 387.39 429.06 388.55 431.39 383.39 429.06"/><polygon class="cls-1" points="436.22 436.79 439.05 439.23 432.22 441.06 435.64 438.92 436.22 436.79"/><polygon class="cls-1" points="541.39 484.06 549.39 476.72 558.22 477.47 564.05 484.06 558.05 479.39 550.89 478.56 541.39 484.06"/><polyline class="cls-1" points="558.47 477.47 567.39 467.06 568.39 467.06 577.89 475.14 576.8 481.18 580.05 474.95 569.18 465.06 565.39 465.06 558.22 477.85"/><polygon class="cls-1" points="571.22 490.95 580.14 481.79 588.05 484.06 581.39 484.06 571.22 490.95"/><polygon class="cls-1" points="534.68 490.5 541.95 493.49 545.04 499.98 542.39 506.06 542.39 500.06 541.14 494.89 534.55 492.39 529.66 496.05 534.68 490.5"/><polygon class="cls-1" points="609.39 477.06 609.39 482.06 608.14 475.84 614.89 471.06 619.39 471.06 620.89 473.05 619.3 478.63 618.55 473.06 614.39 473.06 609.39 477.06"/><polygon class="cls-1" points="592.97 481.42 597.55 471.06 606.39 471.06 596.05 469.76 592.97 481.42"/><polygon class="cls-1" points="635.55 469.22 625.05 475.19 623.39 484.21 623.39 489.06 621.64 483.88 623.76 473.55 635.55 469.22"/><polygon class="cls-1" points="653.05 462.14 649.39 459.06 642.39 459.06 637.39 463.02 636.55 473.84 642.22 479.53 650.05 475.31 650.89 470.57 648.72 474.39 642.72 477.88 638.55 472.81 639.55 464.56 642.72 461.22 649.22 460.6 653.05 462.14"/><polygon class="cls-1" points="655.05 465.5 658.39 460.68 659.89 460.16 661.39 464.56 661.39 468.06 662.97 464.33 660.89 459.06 657.39 459.06 655.05 465.5"/><polygon class="cls-1" points="673.55 458.56 678.55 463.31 680.8 462.77 679.18 462.05 673.55 458.56"/><polygon class="cls-1" points="637.3 455.8 640.01 450.01 652.7 442.69 657.39 441.73 657.39 446.06 659.64 441.06 652.93 440.55 639.49 448.17 637.3 455.8"/><polygon class="cls-1" points="688.89 452.04 689.72 460.06 692.55 461.88 696.72 460.93 692.8 460.47 690.39 459.21 688.89 452.04"/><polygon class="cls-1" points="630.89 455.8 630.05 462.77 632.39 457.07 634.55 456.96 630.89 455.8"/><polygon class="cls-1" points="602.72 464.56 605.05 455.8 614.64 452.04 606.39 456.38 603.72 464.56 605.72 467.21 602.72 464.56"/><polygon class="cls-1" points="543.64 432.81 540.39 434.39 540.39 440.06 552.72 438.06 540.05 441.73 538.72 433.05 543.64 432.81"/><polygon class="cls-1" points="579.39 425.06 584.39 425.06 586.22 428 581.39 441.68 583.3 427.87 579.39 425.06"/><polygon class="cls-1" points="566.04 434.22 571.22 439.23 559.8 447.06 567.72 438.92 566.04 434.22"/><polygon class="cls-1" points="602.65 422.54 604.94 424.6 602.49 437.14 591.72 435.06 599.39 435.06 602.44 426.45 602.65 422.54"/><polygon class="cls-1" points="619.3 415.39 625.05 418.06 612.8 427.56 621.64 418.06 619.3 415.39"/><polygon class="cls-1" points="637.34 413.72 641.74 418.31 637.3 425.06 632.39 425.06 636.55 422.71 639.05 418.18 637.34 413.72"/><polygon class="cls-1" points="628.39 427.06 630.39 427.06 625.05 428.06 617.39 428.06 625.05 426.7 628.39 427.06"/><polygon class="cls-1" points="612.8 436.79 617.72 436.89 619.3 434.39 612.8 436.79"/><polygon class="cls-1" points="525.89 435.39 530.39 434.7 530.39 440.06 525.89 435.39"/><polygon class="cls-1" points="635.8 407.06 640.14 405.06 633.8 410.56 635.8 407.06"/><polygon class="cls-1" points="516.39 476.52 512.05 487.01 516.39 473.06 532.39 473.06 538.72 480.03 533.05 475.59 516.39 476.52"/><polygon class="cls-1" points="521.04 489.39 512.05 493.23 517.8 503.47 514.39 493.47 521.04 489.39"/><polygon class="cls-1" points="552.72 432.81 558.22 435.64 564.05 429.84 558.22 433.37 552.72 432.81"/><polygon class="cls-1" points="754.13 225.81 759.7 231.47 754.05 240.06 746.39 240.06 755.05 242.58 762.39 230.47 754.13 225.81"/><polyline class="cls-1" points="750.39 280.06 757.39 280.06 760.22 273.06 756.94 263.1 758.72 272.99 756.94 278.23 749.72 279.98"/><polygon class="cls-1" points="761.89 285.72 765.05 293.51 758.22 300.22 750.89 295.05 759.05 301.22 766.89 293.47 762.8 283.05 761.89 285.72"/><polygon class="cls-1" points="748.05 316.47 750.72 320.88 760.89 318.68 749.69 322.56 744.89 312.88 748.05 316.47"/><polygon class="cls-1" points="777.55 238.22 782.89 239.88 787.05 233.51 782.89 241.22 773.72 238.38 777.55 238.22"/><polygon class="cls-1" points="763.72 242.58 771.69 248.72 763.72 255.38 768.62 248.72 763.72 242.58"/><polygon class="cls-1" points="746.39 249.72 752.72 253.52 756.94 251.62 751.66 257.38 746.39 249.72"/><polygon class="cls-1" points="775.72 281.06 785.39 278.89 787.51 287.13 778.39 302.43 774.04 296.74 778.39 298.98 786.05 285.64 784.39 281.06 775.72 281.06"/><polygon class="cls-1" points="769.89 258.56 776.04 261.72 769.89 276.39 760.22 275.06 769.22 275.22 774.39 262.56 769.89 258.56"/><polygon class="cls-1" points="768.84 300.18 773.83 306.37 766.89 315.06 757.39 315.06 766.89 313.44 771.69 306.31 768.84 300.18"/><polygon class="cls-1" points="750.82 300.97 749.72 304.06 744.39 304.06 750.82 300.97"/><polygon class="cls-1" points="796.14 354.06 789.51 358.06 791.39 363.81 796.14 354.06"/><polygon class="cls-1" points="796.26 343.31 791.39 346.06 796.39 346.06 796.26 343.31"/><polygon class="cls-1" points="802.39 335.06 802.39 339.06 806.89 335.06 802.39 335.06"/><polygon class="cls-1" points="783.39 349.06 789.39 349.06 787.51 350.06 783.39 350.06 783.39 349.06"/><polygon class="cls-1" points="776.39 387.06 773.39 387.06 773.39 391.06 774.39 391.06 776.39 387.06"/><polygon class="cls-1" points="770.14 319.06 776.04 321.31 780.39 316.81 775.26 319.06 770.14 319.06"/><polygon class="cls-1" points="784.95 310.06 779.14 312.48 782.04 310.06 784.95 310.06"/><polygon class="cls-1" points="766.89 329.06 762.39 326.68 766.89 330.37 774.04 329.06 766.89 329.06"/><polygon class="cls-1" points="782.2 242.72 785.07 248.1 781.15 254.62 778.27 256.34 776.39 255.06 778.39 255.06 779.39 253.38 783.39 247.97 782.2 242.72"/><polygon class="cls-1" points="767.39 224.56 765.86 228.47 761.01 229.63 765.92 230.47 767.39 228.47 767.39 224.56"/><polygon class="cls-1" points="771.69 224.56 779.14 228.47 776.39 234.19 770.14 238.47 771.32 234.85 771.69 236.56 774.64 234.19 776.39 229.31 771.69 224.56"/><polygon class="cls-1" points="760.22 217.9 762.39 220.31 762.39 219.06 761.01 217.87 760.22 217.9"/><polygon class="cls-1" points="749.39 222.06 754.39 222.06 754.39 219.06 749.39 222.06"/><polygon class="cls-1" points="751.66 209.97 754.97 212.47 749.39 214.06 751.66 209.97"/><polygon class="cls-1" points="763.72 212.47 768.13 214.06 765.92 215.72 763.72 212.47"/><polygon class="cls-1" points="741.06 205.56 742.31 208.56 744.89 206.72 741.06 205.56"/><polygon class="cls-1" points="744.74 322.41 742.24 328.29 728.05 330.06 734.39 330.06 742.39 330.06 744.89 328.52 744.74 322.41"/><polygon class="cls-1" points="743.97 332.81 746.12 339.06 754.81 333.81 756.25 326.68 757.67 334.06 747.61 340.06 743.39 340.06 743.97 332.81"/><polygon class="cls-1" points="759.66 340.06 764.8 339.06 762.39 341.06 759.66 340.06"/><polygon class="cls-1" points="731.3 338.06 735.72 339.06 732.57 341.06 731.3 338.06"/><polygon class="cls-1" points="672.51 387.81 676.39 390.06 681.39 390.06 685.76 381.68 682.39 390.47 679.89 391.68 676.01 391.06 672.51 387.81"/><polygon class="cls-1" points="685.27 387.28 692.61 389.6 699.26 382.12 692.27 391.41 685.27 387.28"/><polygon class="cls-1" points="695.64 371.43 692.89 373.68 695.01 375.68 695.64 371.43"/><polygon class="cls-1" points="705.1 365.46 699.21 369.52 701.09 376.06 702.87 376.06 702.15 374.88 700.76 370.15 705.1 365.46"/><polygon class="cls-1" points="713.89 352.35 717.43 359.06 727.06 359.06 731.36 355.8 726.55 362.64 715.66 360.12 713.89 352.35"/><polygon class="cls-1" points="727.04 340.6 729.4 344.7 727.04 352.65 728.22 346.63 727.04 340.6"/><polygon class="cls-1" points="716.12 373.8 721.36 367.96 716.56 375.74 706.56 374.51 716.12 373.8"/><polygon class="cls-1" points="653.41 398.17 656.41 402.43 664.9 400.33 669.42 398.39 665.93 401.31 656.95 404.58 653.41 398.17"/><polygon class="cls-1" points="703.89 382.06 707.64 384.24 706.56 385.48 702.15 382.06 703.89 382.06"/><polygon class="cls-1" points="710.39 381.06 710.39 382.06 717.88 378.81 710.39 381.06"/><polygon class="cls-1" points="674.39 398.06 674.39 400.06 678.26 395.36 674.39 398.06"/><polygon class="cls-1" points="683.64 395.36 687.01 394.06 685.76 395.74 683.64 395.36"/><polygon class="cls-1" points="680.39 401.06 681.39 401.06 683.39 402.76 682.89 404.06 680.39 404.06 680.39 401.06"/><polygon class="cls-1" points="736.39 246.17 740.14 245.47 742.97 250.43 742.26 257.38 742.14 250.81 739.68 246.47 736.39 246.17"/><polygon class="cls-1" points="719.05 228.35 725.78 227.34 730.8 229.66 732.05 235.68 729.89 230.47 725.78 228.77 719.05 228.35"/><polygon class="cls-1" points="728.8 225.53 734.83 222.06 732.64 209.97 730.8 208.56 733.26 209.97 735.89 222.06 728.8 225.53"/><polygon class="cls-1" points="714.53 210.96 712.85 212.78 718.58 214.18 721.95 215.81 722.74 222.28 718.14 227.14 713.62 227.29 717.56 225.83 719.42 222.72 721.11 221.03 720.3 215.76 716.93 214.3 711.06 212.86 714.53 210.96"/><path class="cls-1" d="M675.14,198.06l10.5-7.38,9.25,1.38,3.5,2.31s-3.88-1.69-4.25-1.69-8.13-.87-8.13-.87Z"/><polygon class="cls-1" points="686.76 205.93 688.76 201.06 695.39 201.06 698.39 203.6 695.01 202.06 689.39 202.06 686.76 205.93"/><path class="cls-1" d="M699.39,198.87s1.24-4,1.31-4.53,3.7-1.42,5.13-1.79l.56-.14,3-1v1.63l-1.75-.13-6.13,2.22Z"/><polyline class="cls-1" points="711.39 200.06 711.39 201.06 709.39 201.68 711.39 198.87"/><path class="cls-1" d="M709.39,204.43l6.59-1.37,2.41,2.5s-2.88-1-3.25-1.25S709.39,204.43,709.39,204.43Z"/><polygon class="cls-1" points="725.55 192.39 717.88 197.47 722.74 205.93 720.55 198.06 725.55 192.39"/><polygon class="cls-1" points="630.89 186.89 629.22 190.06 632.39 190.06 630.89 186.89"/><polygon class="cls-1" points="636.22 184.31 639.27 179.03 637.3 170.2 630.8 163.69 623.39 170.22 623.39 173.06 624.05 170.91 630.8 165.91 635.22 171.39 636.55 178.68 636.22 184.31"/><polygon class="cls-1" points="643.89 184.31 650.89 185.07 657.05 196.47 650.1 186.89 643.89 184.31"/><polygon class="cls-1" points="655.39 173.06 661.39 175.82 661.39 184.06 659.89 177.28 652.93 173.06 655.39 173.06"/><polygon class="cls-1" points="662.3 190.06 664.22 188.86 675.14 190.06 675.89 194.47 674.22 191.43 662.3 190.06"/><polygon class="cls-1" points="674.39 184.31 675.39 179.57 681.39 174.82 681.39 173.06 674.39 178.68 674.39 184.31"/><polygon class="cls-1" points="692.57 188.47 695.05 183.06 701.05 182.91 704.39 186.89 701.89 182.91 694.72 181.57 692.57 188.47"/><polygon class="cls-1" points="647.44 167.22 650.1 174 644.78 180.22 648.22 173.06 647.44 167.22"/><polygon class="cls-1" points="662.7 159.17 660.01 162.31 658.01 168.43 663.51 160.81 670.55 161.56 672.14 162.56 675.14 166.06 673.22 162.56 672.49 160.55 662.7 159.17"/><polygon class="cls-1" points="713.39 188.06 717.39 188.06 717.88 190.39 715.98 188.86 713.39 188.06"/><polygon class="cls-1" points="664.47 175.31 666.39 177.47 673.05 175.31 665.89 178.56 664.47 175.31"/><polygon class="cls-1" points="686.05 177.89 688.18 181.93 686.66 185.78 682.39 188.47 682.39 189.06 686.76 186.56 688.89 181.97 686.05 177.89"/><path class="cls-1" d="M706.38,224.07h0l1.25-1.36-1.25-2.66v3l-1.36-.14Z"/><path class="cls-1" d="M694.49,214.4l1.52-.34-1.25-2.84-1.1,2.54Z"/><path class="cls-1" d="M609.39,188.06l1,.06,2-4.06,8.16-5.5,2.84,1.66,2.75,7.76-2.11-9.4-4.2-1.82-9.38,6L608.11,188Z"/><path class="cls-1" d="M739,265.81l.37-2.34,2.92-3.41-5,2.83C737.92,263.92,738.49,264.91,739,265.81Z"/><path class="cls-1" d="M731.89,253.52l1.66,2.89-1.16-5.35h-2C730.92,251.88,731.41,252.7,731.89,253.52Z"/><path class="cls-1" d="M704.81,209.62c.16-.31.32-.63.47-1l-1.14-1.95-7.34,1.21,7.21.63Z"/><path class="cls-1" d="M704.81,209.62l4.58,6.1-4.11-7.05C705.13,209,705,209.31,704.81,209.62Z"/><path class="cls-1" d="M737.21,233.91l-.09-2.28,0,0L733,226.39l3,6Z"/><path class="cls-1" d="M737.48,243.08l-5.09,1H730.8l1.25,2.11,5.45-2.31C737.49,243.6,737.49,243.34,737.48,243.08Z"/><path class="cls-1" d="M737.12,231.63l.09,2.28-1.16-1.51,2.34,3-.34,7.52-.57.11c0,.26,0,.52,0,.78l1.89-.8v-8.29Z"/><polygon class="cls-1" points="738.64 139.64 735.93 145.43 742.97 152.06 751.39 152.06 742.05 153.23 733.39 144.73 738.22 137.23 738.64 139.64"/><polygon class="cls-1" points="750.55 160.89 760.22 165.22 764.72 159.17 760.22 167.22 750.55 160.89"/><polygon class="cls-1" points="737.21 158.06 743.89 161.14 744.89 159.21 744.51 162.16 735.1 158.06 737.21 158.06"/><polygon class="cls-1" points="767.39 168.43 771.69 169.22 769.54 171.39 767.39 168.43"/><polyline class="cls-1" points="720.55 135.06 721.72 135.72 729.89 140.39 732.35 139.22 727.55 142.06 723.72 138.56"/><polygon class="cls-1" points="713.39 125.72 719.72 126.72 716.55 131.56 713.39 125.72"/><polygon class="cls-1" points="707.39 121.06 711.39 121.06 710.39 122.87 703.72 121.06 707.39 121.06"/><polygon class="cls-1" points="711.39 133.72 713.39 134.56 712.39 135.89 709.39 135.06 711.39 133.72"/><polygon class="cls-1" points="717.88 137.23 716.55 138.56 717.22 139.56 718.55 138.39 717.88 137.23"/><polygon class="cls-1" points="726.39 147.06 730.39 147.06 728.39 149.56 726.39 147.06"/><polygon class="cls-1" points="718.39 150.06 724.39 150.06 722.28 150.89 718.39 150.06"/><polygon class="cls-1" points="699.89 117.51 699.39 119.06 701.39 119.06 699.89 117.51"/><path class="cls-1" d="M584.39,499.36v-2.3l1.83-3.12-2.92,2.2.92,3.25Z"/><path class="cls-1" d="M596.39,497.21v-3.15l2.58-6-4.79,5.49,1.41,3.8Z"/><path class="cls-1" d="M662.27,477.84l-2.38-.79-.94,2Z"/><path class="cls-1" d="M468.16,495.06l3.27,5-4.29,7.42.3,0,5.95-6.49v-2.67l-4.71-5.08-8.88-1.59,2.22,3Z"/><path class="cls-1" d="M454.05,493.23l-13.17,11.16,2.71.44,12.46-10.77,1.17-3.6-9.67-9.73,7,9.73Z"/><polygon class="cls-1" points="143.46 439.11 142.65 442.99 145.74 444.36 150.41 441.73 145.1 445.85 141.24 443.4 143.46 439.11"/><polygon class="cls-1" points="166.85 427.57 165.58 429.56 167.62 434 161.18 442.48 155.44 440.74 153.52 442.48 160.57 443.81 169.61 434.31 167.31 430.02 166.85 427.57"/><polygon class="cls-1" points="150.41 431.7 151.66 436.03 153.52 437 150.41 431.7"/><polygon class="cls-1" points="158.69 449.35 160.57 454.43 171.75 451.89 173.29 451.01 175.28 450.24 172.52 453.2 159.96 456.02 155.44 450.39 158.69 449.35"/><polygon class="cls-1" points="175.65 438.5 180.21 441.38 178.44 444.74 175.32 447.8 176.59 445.85 178.39 443.81 178.39 442.58 175.65 438.5"/><polygon class="cls-1" points="175.28 420.39 173.55 425.06 184.72 417.72 175.28 420.39"/><polygon class="cls-1" points="199.22 414.31 197.63 417.72 197.69 419.72 190.89 426.56 199.22 420.43 198.39 417.72 199.22 414.31"/><polygon class="cls-1" points="180.21 431.06 184.72 435.18 191.55 429.22 184.72 438.5 180.21 431.06"/><polygon class="cls-1" points="142.24 448.56 141.24 450.72 145.82 455.18 137.39 450.72 142.24 448.56"/><polygon class="cls-1" points="147.39 460.06 153.39 460.06 150.41 463.18 147.39 460.06"/><polygon class="cls-1" points="134.96 457.87 138.34 462.83 136.84 463.57 132.16 455.36 134.96 457.87"/><polygon class="cls-1" points="136.64 469.06 140.64 466.3 143.76 467.68 142.24 469.06 136.64 469.06"/><polygon class="cls-1" points="127.72 463.18 130.39 464.39 129.72 467.06 126.17 463.57 127.72 463.18"/><polygon class="cls-1" points="207.39 411.06 211.39 411.06 208.67 414.31 204.22 411.06 207.39 411.06"/><polygon class="cls-1" points="202.39 426.56 206.39 425.72 205.05 427.57 201.39 429.22 202.39 426.56"/><polygon class="cls-1" points="220.26 412.68 222.74 410.97 227.64 409.81 220.26 412.68"/><polygon class="cls-1" points="235.39 408.06 235.39 413.06 239.64 409.81 235.39 408.06"/><polygon class="cls-1" points="248.05 409.81 250.18 406.81 252.39 408.06 248.05 409.81"/><polygon class="cls-1" points="254.39 413.06 254.39 414.06 256.39 412.68 256.39 411.06 254.39 413.06"/><polygon class="cls-1" points="262.39 407.06 264.39 407.06 263.39 409.81 260.58 408.06 262.39 407.06"/><polygon class="cls-1" points="271.39 410.06 272.39 410.06 271.89 411.24 269.05 410.56 271.39 410.06"/><polygon class="cls-1" points="283.5 414.56 280.85 417.59 277.12 413.09 282.47 409.24 280.13 412.51 280.99 415.98 283.5 414.56"/><polygon class="cls-1" points="289.14 420.49 293.35 421.5 294.39 420.43 294.39 418.06 293.55 419.78 289.14 420.49"/><polygon class="cls-1" points="308.12 459.56 309.74 451.17 303.64 448.37 312.5 449.22 308.12 459.56"/><polygon class="cls-1" points="324.46 451.17 319.05 442.04 324.26 446.08 324.46 451.17"/><path class="cls-1" d="M337.72,462.39l-3.58,3.33,1.65,4.48.93.37-.29-4.32,3.87-4.63-15.66-6.26-5.25,4.1,5.41-2.39Z"/><circle class="cls-1" cx="408.05" cy="206.72" r="3.25"/><circle class="cls-1" cx="395.05" cy="219.72" r="3.25"/><circle class="cls-1" cx="380.05" cy="230.72" r="3.25"/><circle class="cls-1" cx="416.05" cy="220.72" r="3.25"/><circle class="cls-1" cx="437.05" cy="221.72" r="3.25"/><circle class="cls-1" cx="460.05" cy="221.72" r="3.25"/><circle class="cls-1" cx="484.05" cy="220.72" r="3.25"/><circle class="cls-1" cx="510.05" cy="218.72" r="3.25"/><circle class="cls-1" cx="532.05" cy="215.72" r="3.25"/><circle class="cls-1" cx="555.05" cy="213.72" r="3.25"/><circle class="cls-1" cx="576.05" cy="211.72" r="3.25"/><circle class="cls-1" cx="600.05" cy="209.72" r="3.25"/><circle class="cls-1" cx="624.05" cy="211.72" r="3.25"/><circle class="cls-1" cx="646.05" cy="215.72" r="3.25"/><circle class="cls-1" cx="666.05" cy="222.72" r="3.25"/><circle class="cls-1" cx="684.05" cy="233.72" r="3.25"/><circle class="cls-1" cx="700.05" cy="248.72" r="3.25"/><circle class="cls-1" cx="715.05" cy="266.72" r="3.25"/><circle class="cls-1" cx="728.05" cy="284.72" r="3.25"/><circle class="cls-1" cx="427.05" cy="207.72" r="3.25"/><circle class="cls-1" cx="448.05" cy="208.72" r="3.25"/><circle class="cls-1" cx="471.05" cy="208.72" r="3.25"/><circle class="cls-1" cx="495.05" cy="206.72" r="3.25"/><circle class="cls-1" cx="519.05" cy="204.72" r="3.25"/><circle class="cls-1" cx="541.05" cy="201.72" r="3.25"/><circle class="cls-1" cx="564.05" cy="199.72" r="3.25"/><circle class="cls-1" cx="586.05" cy="197.72" r="3.25"/><circle class="cls-1" cx="612.05" cy="197.72" r="3.25"/><circle class="cls-1" cx="634.05" cy="200.72" r="3.25"/><circle class="cls-1" cx="659.05" cy="206.72" r="3.25"/><circle class="cls-1" cx="681.05" cy="215.72" r="3.25"/><circle class="cls-1" cx="702.05" cy="231.72" r="3.25"/><circle class="cls-1" cx="719.05" cy="249.72" r="3.25"/><circle class="cls-1" cx="732.05" cy="268.72" r="3.25"/><path class="cls-1" d="M497.57,230.69a3.23,3.23,0,0,0-5.51.77Z"/><path class="cls-1" d="M734.28,313.44c.75-1.79,1.6-3.84,2.44-5.9a3.71,3.71,0,0,0-.67-.07,3.25,3.25,0,0,0-1.77,6Z"/><path class="cls-1" d="M741.4,293.51c.31-1.76.62-3.82.91-5.94a3.23,3.23,0,0,0-.91,5.94Z"/><path class="cls-1" d="M403.53,235.81a3.26,3.26,0,1,0-5-.11Z"/><path class="cls-1" d="M425,236a3.17,3.17,0,0,0,.28-1.31,3.25,3.25,0,1,0-6.5,0,3.16,3.16,0,0,0,.28,1.3C421,236,423,236,425,236Z"/><path class="cls-1" d="M445.3,235.74v0a3.25,3.25,0,1,0-6.5,0c0,.06,0,.12,0,.18C441,235.86,443.15,235.8,445.3,235.74Z"/><path class="cls-1" d="M469.94,234.26a3.22,3.22,0,0,0-6,.52C466,234.62,468,234.45,469.94,234.26Z"/><circle class="cls-1" cx="650.05" cy="496.72" r="3.25"/><circle class="cls-1" cx="616.05" cy="506.72" r="3.25"/><circle class="cls-1" cx="580.05" cy="514.72" r="3.25"/><circle class="cls-1" cx="540.05" cy="520.72" r="3.25"/><circle class="cls-1" cx="500.05" cy="522.72" r="3.25"/><circle class="cls-1" cx="461.05" cy="519.72" r="3.25"/><circle class="cls-1" cx="423.05" cy="511.72" r="3.25"/><circle class="cls-1" cx="391.05" cy="502.72" r="3.25"/><circle class="cls-1" cx="357.05" cy="491.72" r="3.25"/><path class="cls-1" d="M328.93,483.84a3.25,3.25,0,1,0-4.13-3.12,3.31,3.31,0,0,0,.29,1.33C326.37,482.64,327.65,483.23,328.93,483.84Z"/><path class="cls-1" d="M604.83,518a3.19,3.19,0,0,0-1.78-.54,3.26,3.26,0,0,0-3,2Q602.45,518.77,604.83,518Z"/><path class="cls-1" d="M681.85,485.1c1.8-1,3.6-2,5.39-3a3.25,3.25,0,1,0-5.39,3Z"/><path class="cls-1" d="M719.25,461.34a3.21,3.21,0,0,0-2.2-.87,3.23,3.23,0,0,0-2.94,4.61C715.84,463.85,717.55,462.61,719.25,461.34Z"/><path class="cls-1" d="M742.23,441.7a3.3,3.3,0,0,0-1.18-.23,3.2,3.2,0,0,0-3.06,4.29C739.43,444.43,740.84,443.07,742.23,441.7Z"/><path class="cls-1" d="M756.94,425.61a3.31,3.31,0,0,0-.89-.14,3.23,3.23,0,0,0-2.94,4.61C754.39,428.6,755.67,427.12,756.94,425.61Z"/><path class="cls-1" d="M768.22,411.49l-.17,0a3.21,3.21,0,0,0-3.08,4.24Q766.62,413.61,768.22,411.49Z"/><path class="cls-1" d="M439,528.33a3.23,3.23,0,0,0-4.79-1.27Q436.59,527.72,439,528.33Z"/><path class="cls-1" d="M483.06,536.48a3.24,3.24,0,0,0-5.69-.58Q480.28,536.25,483.06,536.48Z"/><path class="cls-1" d="M524.27,535.41a3.24,3.24,0,0,0-6.47.31c0,.11,0,.21,0,.32C520,535.85,522.1,535.65,524.27,535.41Z"/><path class="cls-1" d="M566,528.43a3.25,3.25,0,0,0-6.24,1.29s0,0,0,0Q562.92,529.12,566,528.43Z"/><path class="cls-1" d="M271.1,459.54a2.75,2.75,0,1,0-4.8-1.82,2.85,2.85,0,0,0,0,.41C267.93,458.57,269.52,459,271.1,459.54Z"/><path class="cls-1" d="M250.32,454.76a2.43,2.43,0,0,0,.23-1,2.5,2.5,0,0,0-5,0,1.84,1.84,0,0,0,0,.41C247.16,454.32,248.74,454.52,250.32,454.76Z"/><path class="cls-1" d="M235.23,453.26a2.35,2.35,0,0,0,.07-.54,2.25,2.25,0,0,0-4.5,0,2,2,0,0,0,0,.36C232.29,453.12,233.75,453.19,235.23,453.26Z"/><path class="cls-1" d="M220,453.1a2.34,2.34,0,0,0,0-.38,2,2,0,0,0-4,0,2.26,2.26,0,0,0,.08.53C217.41,453.19,218.7,453.14,220,453.1Z"/><path class="cls-1" d="M207,453.87c0-.05,0-.1,0-.15a2,2,0,0,0-4,0,2.43,2.43,0,0,0,.08.54C204.4,454.12,205.7,454,207,453.87Z"/><path class="cls-1" d="M300.56,471.3a3,3,0,1,0-4.51-2.58,3.09,3.09,0,0,0,.11.75Z"/><path class="cls-1" d="M248.07,66.17a54.68,54.68,0,0,1-2.68-18.61s-10.25,10.75-15,17.25-11.25,18-15,24.25-12.25,25.25-13.25,31.25,1.41,3.58,2.25,2.41,7.83-12,12.16-17.83,21.84-29.67,25.17-33A82.36,82.36,0,0,1,248.07,66.17Z"/><path class="cls-1" d="M255.8,80.5c-1-1.57-2-3.06-2.91-4.44-.35-.52-.69-1-1-1.57,0,0-9.89,12.37-12.49,15.9-2.5,3.38-13.3,18.92-14.4,22s-1,5.38,0,4.13,5.15-7.38,7.52-10.5,9.7-12,13.38-16C248.94,86.75,255.8,80.5,255.8,80.5Z"/><path class="cls-1" d="M262.52,91.89q-1.39-2.52-2.79-4.91s-9,11.2-9.47,13.58-1.37,5.87-3.37,8.5-8.75,12.37-8.75,12.37-1.13,2.79-.38,2.77,4.75-4.89,4.75-4.89,7.1-8.29,7.5-8.63c1.5-1.25,3.82-9.56,4.25-10.12C255.6,98.78,262.52,91.89,262.52,91.89Z"/><path class="cls-1" d="M267.71,101.83q-.93-1.89-1.89-3.75s-5.52,6-7.6,8.64-3.08,7.91-2.83,8.5.08,1.33.91,0a79.31,79.31,0,0,1,5.23-7.59C263.23,105.8,267.71,101.83,267.71,101.83Z"/><path class="cls-1" d="M273,113.49q-1.05-2.52-2.19-5s-5.8,6.42-7.55,8.92-7.67,10.17-7.5,12.5.25,2.25,1.09,1.17,4.43-5.63,5.63-6.86,5.25-6.12,6.7-7.29C270.39,116,273,113.49,273,113.49Z"/><path class="cls-1" d="M183.88,246.05c-2.49,1.32-4.72,2.52-6.47,3.55,0,0-5.07-7.19-7-10.38-3.63-5.91-7.67-17.17-8.84-21.67s-.79-13.62-.29-15,3.13-5.75,4.25-6-2.12,5.87-1.75,8.75a70.21,70.21,0,0,0,2.88,12.75c1.75,5,6,12.35,7.87,15.5C177.14,237.93,183.88,246.05,183.88,246.05Z"/><path class="cls-1" d="M203.21,235.86c-3,1.66-6.24,3.38-9.48,5.06,0,0-4.51-7.53-6-11.86s-6.17-14.42-7.17-17-1.16-8.63,0-13.63,1.67-13.67,1.17-17.33-1.33-18,1-20.34c0,0,.17,8.67.33,10.5s1.17,10.84,1.67,12.34a46.11,46.11,0,0,1,1.33,10c0,2.38-1.66,8.5.5,13.5a168.87,168.87,0,0,0,8.17,15.23C196.72,225.72,203.21,235.86,203.21,235.86Z"/><path class="cls-1" d="M213.37,230.59a20.44,20.44,0,0,0-4.48,2s-3.25-6.09-3.75-7.59-.25-7.91-1.25-9.75-1.92-7.66-1.92-7.66,3.5,7.16,4.17,7.66,1.5,8,2.58,8.75S213.37,230.59,213.37,230.59Z"/><path class="cls-1" d="M226.88,227.77c-1.87.28-3.68.57-5.39.88a91,91,0,0,1-3-11.09c-.5-3.63-1-11,0-15.38a43,43,0,0,1,3.9-9.5s1.6-2.87,1.23,0-3.38,9.38-2.63,12.38,2.88,14.75,3.88,16.37S226.88,227.77,226.88,227.77Z"/><path class="cls-1" d="M235.62,226.59l-5.34.7a5.86,5.86,0,0,1-1-4.22c.5-2.14.75-3.64,1.75-3.76s2,3.4,2.38,3.76S235.62,226.59,235.62,226.59Z"/><path class="cls-1" d="M253.5,224c-2,.35-4,.67-6,1a71.45,71.45,0,0,1-4.4-5.91c-1-1.75-2.25-6.88-2.25-10.38s.12-12.37-.63-15.62-.12-11,0-11.5.88,1.12,1.5,4.87,2.25,6.49,2.63,10.12,1.12,11.13,2.31,14.63,3.69,8.75,4.94,10A9.22,9.22,0,0,1,253.5,224Z"/><path class="cls-1" d="M279.75,216a68,68,0,0,0-8.36,3.05s-7.13-6.5-9.25-10.25-4.75-7.88-5.25-12.5-1-12.13,0-13.38,1.12-1.5,1.87,2.5,2.5,11.31,5.13,15.16,5.75,8.41,8.37,9.44S279.75,216,279.75,216Z"/><path class="cls-1" d="M482,68.93c-4,3.88-11.5,9.88-18.5,17.63s-17,22.76-17.75,24a4.35,4.35,0,0,0-.27,2.34h-.09c5.92-.53,13.21,1.72,26.49,6.15,0,0,2-2.18,3.16-3.51a184.54,184.54,0,0,1,15.17-13.33c4.17-3,13.17-5.84,13.17-5.84s1.5-1.66,0-2-6,1.34-4.34,0,13.5-5.66,13.5-5.66a20.38,20.38,0,0,1-3.5-1c-1-.5,1.67-3.5,1.34-4.67s-2.5-.17-2.5-.17-2.34,2-4.34,1.51-.33-2.5,1.34-3.67,8.5-3.83,8.5-3.83l-.17-3.17a1,1,0,0,1-1.5,0c-.83-.83,1.5-2.33,1.5-2.33a2.15,2.15,0,0,1-2-1.17,15.88,15.88,0,0,1-6,2.33c-3,.34-.33-3,1.83-4.66s10.84-5.66,10.84-5.66l-.34-1.68a8.26,8.26,0,0,0-1.83.67c-1,.5-1.17-1.44-1.17-1.44l1-2.06a11.15,11.15,0,0,1-4.33,2.06c-2.83.72.42-3.22,2.17-4.47s24-16,26.75-17.5,4.62-5.13,4.62-5.13c-6.12,2.75-28.87,15.25-35.75,19.88S486,65.06,482,68.93Z"/><path class="cls-1" d="M445.76,110.56c.71-1.24,13.77-17.13,20.84-24.81,6.64-7.22,11.48-11.93,16.66-15.82,4.33-3.25,18.88-12.75,25.75-17.37s29.63-17.13,35.75-19.88,40.63-14.79,48.63-17.29,32.16-9.16,39-10.83a95.78,95.78,0,0,1,16.16-2.5c5.34-.5,5.17-.67,5.17-.67s-1.33-2-18.33,0-68,17.67-94.34,28.33-57,31.67-67.33,40.34-29.67,32-32.67,36.66-1.66,7.84-1.66,7.84a17.38,17.38,0,0,1,6.1-1.66A4.35,4.35,0,0,1,445.76,110.56Z"/><path class="cls-1" d="M471.51,116.31c1.59-1.34,6.26-6.43,9.63-9.13a96.92,96.92,0,0,1,9.62-7,44.14,44.14,0,0,1,8-3,31.77,31.77,0,0,1,4.63-.8s-9,2.84-13.17,5.84a184.54,184.54,0,0,0-15.17,13.33c-1.16,1.33-3.16,3.51-3.16,3.51l-3.61-1.2A20.3,20.3,0,0,0,471.51,116.31Z"/><path class="cls-1" d="M517.55,60.55a8.26,8.26,0,0,0-1.83.67s-9.33,5.87-11.08,6.67a18.57,18.57,0,0,1-4,1.15h0l.34-.24c4.13-2.93,7.41-4.81,13.58-9l1-2.06s-1.31.87-4.75,2.92c0,0-18.65,11.52-25,16.58a113.4,113.4,0,0,0-15.4,15.22c-4.22,4.84-13.71,16.12-14.54,18l-1.67,3.34c.94.21,1.92.45,3,.73a29.87,29.87,0,0,1,3-5.83c2.16-2.92,10.21-12,12.58-15.33a122.14,122.14,0,0,1,13-13.59c.8-.7,1.6-1.37,2.38-2a42,42,0,0,1,6.3-3.64c3-1.13,8.13-2.57,9.5-3.75s3-2.42,3-2.42c2.17-1.67,10.84-5.66,10.84-5.66Z"/><path class="cls-1" d="M513.22,73.72l-2.71,2.15c-1.37.94-5.58,2.92-9.12,5.19-2.84,1.81-9,5.55-13.14,8.79-2.09,1.63-5,4.06-7.61,6.41A45.63,45.63,0,0,1,485,89.81a35.37,35.37,0,0,1,7.88-6.13c2.5-1.37,9.87-6.66,11.62-7.81,2.38-1.56,8.71-4.48,8.71-4.48a2.15,2.15,0,0,1-2-1.17,17.57,17.57,0,0,1-3.13,1.59s-8.08,4.12-10.58,6.5-8.12,5-10.5,7.12a63.13,63.13,0,0,0-7.37,8.88c-1.25,1.87-5.41,8-5.41,8h0c-.18.2-.35.38-.47.53-1.75,2.12-10.65,13.38-10.65,13.38l3.07,1s5.06-6.56,11.21-14c5.62-6.8,12.26-11.5,15.87-14.5,3.13-2.59,11.63-8,11.63-8,1.66-1.17,8.5-3.83,8.5-3.83Z"/><path class="cls-1" d="M508.92,89.06c-2.05.71-6.53,2.33-10.28,4.08-2.48,1.16-4.07,1.12-6.26,1.78,0,0-.08-.14.9-1s.86-.5,2-1.5a48.39,48.39,0,0,1,5.88-3.79,39.61,39.61,0,0,0,5.12-3.25,9.9,9.9,0,0,1,2.63-2.09,3,3,0,0,1,1.46-.29c-.34-1.17-2.5-.17-2.5-.17a43.91,43.91,0,0,1-3.59,2.59c-1.16.67-6.41,3.83-8.16,5a29.58,29.58,0,0,0-4.25,3.23c-.5.6-3.14,3.06-3.14,3.06l.06,0c-2.32,1.51-4.83,3.59-6.09,4.58-1.89,1.49-9.05,6.41-9.05,6.41l-3.37,4.2s7.17-5,10.34-7.19c1.67-1.15,3.78-3.19,7.61-6.11a16.22,16.22,0,0,1,6.32-2.94,19.22,19.22,0,0,0,4.48-1.3c1.67-1.33,13.5-5.66,13.5-5.66A7.12,7.12,0,0,0,508.92,89.06Z"/><path class="cls-1" d="M402.64,204.8a110.56,110.56,0,0,1,12.25-2.5,142.85,142.85,0,0,1,29.5,0c11,1.25,32.25,5.75,38,8s24,9.25,28.75,12.5,12.5,9.43,14.5,12.47,2,5.29,1.75,11-.5,8-1.75,9.75c0,0-2,2.25-3.5,2.25s-8,2.25-10.25,2.25-6.25,3.75-9.5,6.75-3.75,5.75-7,5.76-10.75-1.26-15-4.76-20.25-8.75-22.5-9-18.5-16-25.75-18.25-9-7.5-11-11.5-9-13.75-13.25-16.5S402.64,204.8,402.64,204.8Z"/><path class="cls-1" d="M512.37,236.64c-6.13-4-16.62-10.48-20.74-12.49s-20.51-7.07-26.4-8.48-18-3.18-24.16-4.13-18.74-.59-23-.12-10.2,1.63-10.2,1.63c.24.16.5.35.76.56-.26-.21-.52-.4-.76-.56a11.34,11.34,0,0,1-3.72-4.15c.11,0,11.72-3.49,19.46-3.72s19.56-.24,24.51.94,22.51,2.95,28.4,4.83,20.28,7.31,25.11,9.31a85.3,85.3,0,0,1,14,7.9c3.18,2.24,10,7.11,10,7.11-2-3-9.75-9.22-14.5-12.47s-23-10.25-28.75-12.5-27-6.75-38-8a142.85,142.85,0,0,0-29.5,0,110.56,110.56,0,0,0-12.25,2.5v.08a.32.32,0,0,1,0-.07s-4.49,2.61-2.92,7.42c1.25,3.84,9,11,11,15s14.17,11.58,21.42,13.83,23.5,18,25.75,18.25h.1l.16,0,.21,0,.14,0,.3.07.11,0,.41.11h0c4.62,1.22,17.34,5.62,21.06,8.69.31.25.65.5,1,.73l.25.16c.32.21.65.41,1,.6l.07,0h0A30.38,30.38,0,0,0,494.28,273a30.38,30.38,0,0,1-11.59-3.17,36.43,36.43,0,0,0-3.79-5.26c-1.94-2.13-4.51-4.69-6.06-6.06s-17.45-13-22.4-15.51-14.5-6.54-18.3-7.87a40.87,40.87,0,0,0-9.05-1.65c-.31-.56-.6-1.13-.87-1.69,0,0,7.63.16,11,1s16.08,4.42,20.94,6.63,9.91,3.7,14.46,6.23,16.48,9.15,19.48,11.27,8.14,6.54,9.55,7.78a39.78,39.78,0,0,1,3.49,3.84l.22-.24c-1.78,1.93-2.64,3.61-4.17,4.33,1.54-.72,2.4-2.42,4.19-4.36l.21-.21a10.23,10.23,0,0,1,.81-.8c2.61-2.42,5.71-5.31,8-6.35a6.23,6.23,0,0,1,.7-.27l.16,0a3,3,0,0,1,.64-.09h0c2.25,0,8.75-2.25,10.25-2.25a1.89,1.89,0,0,0,.55-.1h0a3.4,3.4,0,0,0,.53-.23l.09-.05a4.48,4.48,0,0,0,.47-.28l.17-.12.34-.26.3-.24h0c.58-.51,1-1,1-1s-10.5-10.62-14.71-11.83-3.27-3.8-14.59-5.45-17-1.1-17.69-1.38h0c-6.9-2.78-14.78-5.57-20.76-7.46-10.08-3.19-19.1-4.6-26.7-6a56.08,56.08,0,0,0-14.05-.71l0,0a65.58,65.58,0,0,0-6.46-7.82l.17.17a49.79,49.79,0,0,1,11.6-1.22c5.42.24,13.91-.6,20.83.66,6.49,1.18,17.12,2.05,26.43,5s17.68,4.77,25.54,8.92A169.19,169.19,0,0,1,515,241.37c2.45,2,12,10.07,12,10.07.08-.76.15-1.64.2-2.64C527.31,248.05,512.37,236.64,512.37,236.64ZM402.7,205.1c0-.08,0-.14,0-.19S402.68,205,402.7,205.1Zm1.39,3.65c-.09-.17-.17-.32-.24-.48Q404,208.51,404.09,208.75Zm-.37-.74c-.08-.18-.16-.35-.23-.52C403.56,207.66,403.64,207.83,403.72,208Zm-.3-.69c-.09-.23-.18-.44-.25-.65C403.24,206.87,403.33,207.09,403.42,207.32Zm-.28-.74c-.06-.18-.12-.34-.16-.49C403,206.24,403.08,206.4,403.14,206.58Zm-.21-.65c0-.12-.07-.23-.1-.34C402.86,205.7,402.89,205.81,402.93,205.93Zm-.14-.48-.07-.25C402.74,205.27,402.76,205.36,402.79,205.45Zm22.46,31.23.21.23Zm.66.71a3.45,3.45,0,0,0,.28.26A3.45,3.45,0,0,1,425.91,237.39Zm.73.68.32.27Zm.81.66.36.25Zm.91.61.39.24Zm1,.58.39.21Zm1.17.55.35.15Zm27.61,18.88.14,0Zm.36.07.22.05Zm.42.1.33.09Zm22.7,9.69c.31.2.63.39,1,.58C482.27,269.6,482,269.41,481.64,269.21Zm-49.3-32.14c3.16,1.25,13.15,5.05,16,6.82s12.2,7.25,15.29,9.81,6.09,4.15,8.08,6,8.7,8.64,8.7,8.64c.31.26.64.5,1,.74-.35-.24-.68-.48-1-.74-3.7-3-16.32-7.42-21-8.66l.27.07a13.09,13.09,0,0,0-2.59-4.24c-1.68-1.68-5-4.15-8.78-7.13a67.47,67.47,0,0,0-14.35-8.63,45.87,45.87,0,0,0-8.74-3.1,15.41,15.41,0,0,1-1-1.32A38.6,38.6,0,0,1,432.34,237.07Zm-8.74-2.69c-.18-.29-.34-.58-.5-.87C423.26,233.8,423.42,234.09,423.6,234.38Zm.55.85c-.16-.23-.31-.47-.46-.71C423.84,234.76,424,235,424.15,235.23Zm86.94,25.46.14,0Zm11.65-2.49a3.85,3.85,0,0,0,.52-.22A3.85,3.85,0,0,1,522.74,258.2Zm.63-.28c.15-.08.31-.18.46-.28C523.68,257.74,523.52,257.84,523.37,257.92Zm.64-.41.33-.24Zm-28.17-17.06c3.09.67,5.62.64,11.23,3.38s10.58,7.52,12.3,9.24,2.77,5.23,2.77,5.23a1.75,1.75,0,0,0,.54-.09,1.75,1.75,0,0,1-.54.09c-1.5,0-8,2.25-10.25,2.25a46,46,0,0,0-3.73-4.9c-2.3-2.65-10.61-9-17.68-12.91-1.68-.92-3.84-2-6.28-3C487.13,239.77,493.49,239.93,495.84,240.45Zm-77.28-15.16s9.61-.49,15.18,1,17.37,3.62,23.51,5.84c5.79,2.09,21.12,5.92,24.66,8.22s12.9,6.54,17.67,10.43,8.16,6.51,9.55,8.3l1.21,1.88h0c-2.29,1-5.38,3.93-8,6.34-.29.27-.55.53-.8.79.25-.26.51-.52.8-.79,0,0-8.6-9-12.84-11.58s-18.42-10.82-26.66-14.83c-7.6-3.71-21.67-8.2-27.67-9.7a77.47,77.47,0,0,0-14.08-1.64,44.94,44.94,0,0,0-2.71-4.45C418.47,225.16,418.52,225.22,418.56,225.29Zm3.49,6.16c-.13-.29-.27-.57-.41-.86C421.78,230.88,421.92,231.16,422.05,231.45ZM409.8,214.58l.53.5Zm-.87-.75c.18.14.35.29.54.45C409.28,214.12,409.11,214,408.93,213.83Z"/><path class="cls-1" d="M527.39,246.3c0,.45,0,.86-.06,1.26,0-.4,0-.81.06-1.25.06-1.44.11-2.66.11-3.73C527.5,243.65,527.45,244.87,527.39,246.3Z"/></g></g></svg>