<svg xmlns="http://www.w3.org/2000/svg" viewBox="0 0 817.84 648.09"><defs><style>.cls-1{fill:#494c4e;}</style></defs><title>viperfish-shadow</title><g id="圖層_2" data-name="圖層 2"><g id="viperfish-shadow"><path class="cls-1" d="M787.39,183.56c-33.5-43-65.5-64-99-74.5s-79.5-12-118-4-81,19.5-99,13.5c0,0,2-2.18,3.16-3.51a184.54,184.54,0,0,1,15.17-13.33c4.17-3,13.17-5.84,13.17-5.84s1.5-1.66,0-2-6,1.34-4.34,0,13.5-5.66,13.5-5.66a20.38,20.38,0,0,1-3.5-1c-1-.5,1.67-3.5,1.34-4.67s-2.5-.17-2.5-.17l-.27.22c-.67.5-2.47,1.68-4.07,1.29-2-.5-.33-2.5,1.34-3.67s8.5-3.83,8.5-3.83l-.17-3.17-.32.25a.91.91,0,0,1-1.18-.25c-.83-.83,1.5-2.33,1.5-2.33a2.15,2.15,0,0,1-2-1.17l0,0,0,0-.12.08,0,0-.61.35-.09,0-.33.18-.11.06-.5.25h0l-.52.24-.16.07-.43.18a11.75,11.75,0,0,1-3,.79c-3,.34-.33-3,1.83-4.66s10.84-5.66,10.84-5.66l-.34-1.68a8.26,8.26,0,0,0-1.83.67c-1,.5-1.17-1.44-1.17-1.44l1-2.06s-.51.34-1.73,1.1a13.15,13.15,0,0,1-2.6,1c-2.83.72.42-3.22,2.17-4.47s24-16,26.75-17.5,4.62-5.13,4.62-5.13c6.13-2.75,40.63-14.79,48.63-17.29s32.16-9.16,39-10.83a95.78,95.78,0,0,1,16.16-2.5c5.34-.5,5.17-.67,5.17-.67s-1.33-2-18.33,0-68,17.67-94.34,28.33-57,31.67-67.33,40.34-29.67,32-32.67,36.66-1.66,7.84-1.66,7.84c-7.5,3.5-29,2-39.5-1.5a131.55,131.55,0,0,1-15.5-6s-3-5-10.5-8.5-19-8-19-8-.5-2.5-10-10-20.5-15-28.5-16.5c-2-.38-4.94-1.11-8.26-2a19.93,19.93,0,0,0-17.1-10,19.33,19.33,0,0,0-8.78,2.13l-.36-.13c-4-1.5-11-5.5-19.5-6.5a83,83,0,0,0-17,0s-10.25,10.75-15,17.25-11.25,18-15,24.25-12.25,25.25-13.25,31.25,1.41,3.58,2.25,2.41,7.83-12,12.16-17.83c2.82-3.8,11.23-15.23,17.67-23.66a46.72,46.72,0,0,0,3.43,11.57c-3.93,5.57-11.74,17-12.66,19.63-1.1,3.13-1,5.38,0,4.13s5.15-7.38,7.52-10.5c1.34-1.77,4.26-5.37,7.21-8.89,1.57,3.88,2.88,10.34,3.49,17-2.46,3.49-5.07,7.26-5.07,7.26s-1.13,2.79-.38,2.77,4.75-4.89,4.75-4.89l1-1.14c.28,6-.09,11.79-1.44,15.55-2.91,8.17-5.35,14.46-5.44,19.56a8.67,8.67,0,0,0,.11,2.11c1.45,11.2,9.16,40.32,11,50.33-.05,2.23,2.3,5.79,4.07,8.17.73,1,1.36,1.74,1.71,2.16,1.11,1.33,6.85,6.49,6.89,6.53-2.22.53-4.53,1-6.89,1.42a9.31,9.31,0,0,0-1.86-2.82c-1.25-1.25-3.75-6.5-4.94-10s-1.94-11-2.31-14.63-2-6.37-2.63-10.12-1.37-5.37-1.5-4.87-.75,8.25,0,11.5.63,12.12.63,15.62,1.25,8.63,2.25,10.38a70.29,70.29,0,0,0,4.39,5.91c-4.12.62-8.3,1.15-12.34,1.67l.43,0s-1.86-3.16-2.23-3.52-1.38-3.89-2.38-3.76-1.25,1.62-1.75,3.76a5.86,5.86,0,0,0,1,4.22l.29,0c-1.33.18-2.63.36-3.9.55l.21,0s-1-4.71-2-6.34-3.13-13.37-3.88-16.37,2.25-9.5,2.63-12.38-1.23,0-1.23,0a43,43,0,0,0-3.9,9.5c-1,4.38-.5,11.75,0,15.38a91,91,0,0,0,3,11.09l.42-.07a62.71,62.71,0,0,0-9.07,2.19l.53-.18s-3.57-5.87-4.65-6.62-1.92-8.25-2.58-8.75-4.17-7.66-4.17-7.66.92,5.83,1.92,7.66.75,8.25,1.25,9.75,3.75,7.59,3.75,7.59a10.68,10.68,0,0,1,1-.57,10.68,10.68,0,0,0-1,.57c-1.7,1-3.62,2.16-5.69,3.3,0,0-6.48-10.14-8.48-13.57a168.87,168.87,0,0,1-8.17-15.23c-2.16-5-.49-11.12-.5-13.5a46.11,46.11,0,0,0-1.33-10c-.5-1.5-1.5-10.5-1.67-12.34s-.33-10.5-.33-10.5c-2.33,2.34-1.5,16.67-1,20.34s0,12.33-1.17,17.33-1,11,0,13.63,5.67,12.7,7.17,17,6,11.86,6,11.86c-3.48,1.82-6.92,3.59-10,5.19l.11-.06s-6.74-8.12-9.37-12.49c-1.88-3.15-6.12-10.49-7.87-15.5a70.21,70.21,0,0,1-2.88-12.75c-.37-2.88,2.88-9,1.75-8.75s-3.75,4.62-4.25,6-.87,10.49.29,15,5.21,15.76,8.84,21.67c2,3.19,7,10.38,7,10.38l0,0a30,30,0,0,0-3.05,2c-4.5,3.5-6,13,0,9s30.5-16,46-18.5,49-11.5,67-10c14,1.16,28.81-1,41.08-1.77l-.08.1c.44,0,.95-.1,1.51-.19,3-.17,5.87-.24,8.49-.14a60.28,60.28,0,0,1,12.39,1.76l.33.08,1.62.4.13,0,1.76.44,1.55.38.33.08,1.37.31.37.09,1.64.34.37.07,1.54.26.3.06,1.83.25.45,0q.88.1,1.83.18l.21,0c.68.06,1.39.1,2.12.13l.52,0c.76,0,1.53.05,2.34.05,5,0,14.88.36,27.1.64h.16l2,.05h.47l2.26.05H403c4.92.1,10.15.18,15.55.21H421a54.64,54.64,0,0,0,10.68,5c7.25,2.25,23.5,18,25.75,18.25h.1l.16,0,.21,0,.14,0,.3.07.11,0,.41.11h0l.72.2-.65-.18,1,.26h0l.87.26-.82-.24,1,.3-.21-.06.25.07h0l1,.32-.89-.28,1.16.36h0l1.09.35-1-.31,1.3.43-.06,0,1.14.38-1.06-.36,1.35.46-.29-.1.33.12h0l1.23.43-1.15-.41,1.38.49-.23-.08.25.09.09,0,1.22.44-1.12-.41,1.38.51-.26-.1.28.11.06,0,1.29.49-1.16-.44,1.46.55h0l1.35.53-1.28-.5,1.42.56-.14-.06.16.06.09,0,1.3.54-1.24-.52,1.35.57-.11-.05.11.05.17.07c.41.17.81.35,1.2.53-.37-.17-.75-.34-1.14-.5.44.18.87.37,1.29.56l-.15-.06.15.06.12.06,1.31.6-1.24-.57c.43.19.86.39,1.26.59h0c.42.2.81.4,1.2.6l.12.06q.54.28,1,.57l.15.08c.31.19.61.37.88.55l.09.07a8.12,8.12,0,0,1,.75.55h0c.32.26.66.51,1,.74l.22.14.07.05.8.48.13.07.07,0h0l.12.06c.43.23.88.45,1.33.66h0c.44.2.9.38,1.36.55l.27.1c.95.34,1.91.63,2.86.87l.25.07c1,.23,1.89.41,2.76.55l.15,0a25.51,25.51,0,0,0,3.56.32,4.08,4.08,0,0,0,1.79-.38h0a7.25,7.25,0,0,0,2.44-2.26l.82-1c-.29.34-.55.68-.8,1,.45-.57.95-1.21,1.55-1.88l.16-.17-.39.44.41-.47.21-.21h0c.25-.26.52-.53.81-.79,1.3-1.2,2.71-2.52,4.09-3.67l0,0c.67-.56,1.34-1.08,2-1.52l.05,0c.32-.22.63-.42.92-.6l0,0a7.39,7.39,0,0,1,.87-.46,6.23,6.23,0,0,1,.7-.27l.16,0a3,3,0,0,1,.64-.09h0c2.25,0,8.75-2.25,10.25-2.25a1.77,1.77,0,0,0,.54-.1,3.41,3.41,0,0,0,.85-.39l.3-.18h0l.16-.11h0l.1-.07a11.75,11.75,0,0,0,1.54-1.4,9.12,9.12,0,0,0,1.41-4.61h0v-.1c0-.3.07-.63.1-1a2.28,2.28,0,0,1,0-.26c0-.36.05-.76.07-1.17a.62.62,0,0,0,0-.13h0c0-.74.09-1.56.13-2.47h0c0-1.08.08-2,.1-2.9,0,.86-.06,1.82-.1,2.89.25-5.74.25-8-1.75-11-1.2-1.82-4.45-4.76-7.89-7.52,28.41-4.18,57.82-8.54,74.64-9.19,15.41-.61,34.31-1.2,54.68,5.38-.81,0-5.27,13.43-7.35,23.62-3.58,17.57-2,50.83,1.67,68.49,3.48,16.8,17,47.59,30,67.92-28.33,16.44-69,36.43-111,42.09-52,7-103,12-148.5,3-19.95-3.95-47.59-9.72-75.42-14.75a54,54,0,0,0-5.17-5.92c-2.91-2.67-15.58-8.67-23.25-10.67s-47-9.33-57.5-9-29.5,1-32.5,1.67-9.66,2.33,0,5.33c5.73,1.78,16.25,5.31,24.71,8.45-35.63,2.49-60.79,6.14-88.37,22.89A108,108,0,0,0,139.46,437h0c-14.39,3.53-31.42,12.63-40.56,17.46-11.5,6.09-50,41.92-62.5,60s-28.5,47.59-33.5,64.59-2.5,31.5,0,32a1.34,1.34,0,0,0,.33,0l.14,0,.34-.09.21-.08.41-.18.25-.11.52-.26.26-.13.68-.37.2-.11c.64-.37,1.36-.79,2.13-1.28l.23-.14,1-.61.12-.08h0c2.34-1.5,5.08-3.38,8-5.44h0l.26-.19.55-.39.26-.19h0c2.35-1.69,4.77-3.48,7.14-5.27h0L26,596c.8-.6,1.59-1.21,2.36-1.81l.3-.23c.74-.57,1.46-1.13,2.16-1.69l.16-.12h0c3.07-2.43,5.83-4.7,7.9-6.55.39-.36.8-.69,1.22-1a30.41,30.41,0,0,1,12-5.69c.74-.18,1.5-.32,2.26-.45l.29,0c.76-.12,1.54-.2,2.32-.26a30.61,30.61,0,0,1,5.24.07l1.1.13.53.08,1,.17.57.11.94.22.58.15,1,.28a29.45,29.45,0,0,1,6.47,2.89,31.29,31.29,0,0,1,4.57,3.36c1.92,1.7,3.82,3.59,5.67,5.59.25.26.48.52.72.79,2,2.18,3.91,4.49,5.75,6.85l1.49,2,.12.15c.51.67,1,1.35,1.49,2a186,186,0,0,1,10.71,16.51h0l.81,1.44c.06.11.12.22.19.33q.75,1.37,1.35,2.52l.15.28c.2.37.38.73.55,1.07a67.46,67.46,0,0,0,6.75,10.31l.13.18h0c2.94,3.85,5.76,7.3,7.12,10,2.5,5,8,2.5,11-6.5s5.56-24.47,8.66-40.17c3-15.22,3-44.46,3.34-54,.42-11.08,1-37.83,9-48.33,5.49-7.21,7.68-20.3,7.71-29.9,11.57-5.69,24-10.75,34.29-12.1,2.08-.28,4.34-.55,6.74-.8h0l1.92-.2h0l1.92-.18c2.89-.26,6-.48,9.16-.63,1.25-.06,2.52-.11,3.82-.15,1.64-.05,3.32-.07,5-.08-3.41,4-10.06,11.74-13.84,15.49A52.05,52.05,0,0,1,198,476.7c-.95.14-1,.47-.54.87a8.41,8.41,0,0,0,2.06,1.42l.21-.13c1.83.83,4,1.57,4,1.57a17.47,17.47,0,0,0,4.5-.32c1.11-.32.78.82.41,1.65-.26.49-.4.8-.4.8l9.06,4.84,4-.08L224,492.4s.53-3.93,2.85.05c1.91,3.28,2.05,3.94,2.05,4.06v0l0,1.78h0l.08,0h0l.16,0h.05l.21,0h.05l.34,0H230l.39,0h.08l.58,0h.69c.86,0,1.95,0,3.35.13,3.41.24,5.2,1.81,4.93,3.06-.92.8-1.58,1.35-1.58,1.35-.82.25-.82.6-.39,1a8,8,0,0,0,2.24,1.45c.07,0,.23,0,.43-.12,1.56.59,3.14,1,3.14,1s4-2.32,5.85-.12a3.45,3.45,0,0,0,1.92,1l.48.11h0a31.11,31.11,0,0,0,8-.25l0,.07,0,0,.07.16,0,.07c0,.07.07.15.11.24a1.34,1.34,0,0,1,.06.12l.13.27a1.19,1.19,0,0,0,.08.16l.15.3.11.19c.05.11.11.22.17.33a2.39,2.39,0,0,0,.13.21c.06.11.12.22.19.33l.15.24.2.31a1.3,1.3,0,0,0,.1.15h0c.9,1.32,2.07,2.55,3.32,2.53,2.68-.06,7.53-3.73,8.95-.18s1,6.24-1.64,7.63l-.23.15,0,0-.1.1,0,.06a.18.18,0,0,0,0,.09.13.13,0,0,0,0,.06.33.33,0,0,0,0,.1.13.13,0,0,1,0,.06l.06.11,0,0,.14.16h0l.17.15.08,0,.16.11.1.06.19.1.11.06.21.1.12,0,.26.11.1,0,.37.14.13.05.27.1.18.06.23.08.2.07.21.07.22.07.19.05.16,0h0c1.7.51,3.32.86,3.32.86s.5-3.14,2.3-2.73a18.28,18.28,0,0,0,1.91.41l.09,4.47a16,16,0,0,0,3.12.76h0l.35,0,.35,0,.41,0,.32,0h.76a3.88,3.88,0,0,0,.48,0l.29,0,.5-.08.26,0a4.77,4.77,0,0,0,.51-.13l.24-.07c.18-.06.35-.13.53-.21l.2-.08a5.76,5.76,0,0,0,.69-.38s.82-9.67,3-14.17,11.59-15.25,19.59-22.93a21.7,21.7,0,0,1,11.45-5.66l1.84.87h0c9.27,4.36,18.62,9.08,29,14.72,18,9.8,50,21.73,80.7,29.67l.39.1h0a303,303,0,0,0,38.39,7.57h0c2.22.27,4.39.49,6.48.66a209.12,209.12,0,0,0,34-.52h0q3.15-.27,6.36-.62h.07a391.6,391.6,0,0,0,41.72-7h0a420.14,420.14,0,0,0,57.35-16.87c36.17-13.72,77.51-33.33,109.68-61.39,2.58,2.19,7.4,6.17,9.32,6.89a9.43,9.43,0,0,0,3.26.44h0a24,24,0,0,0,2.93-.25c.7-.1,1.14-.19,1.14-.19s-2-2.18-2.22-3.45c-.09-.52.11-.89.89-.89l-4.84-3.67,4.84,3.45c2.66,0,5.29,4.56,5.29,4.56h1.67l.37.44h2.83a30.82,30.82,0,0,0-4.5-4.78l-12.23-10.61h0L753.55,452a32.71,32.71,0,0,1,4.5,4.56h2.5a71.91,71.91,0,0,1-6.45-6.75l-.42-.35c-.94-1.29-1.34-2.24-.5-2.24,2.71,0,12.37,9.78,12.37,9.78l7.68-1.07S760.76,447,746.79,436h0c14,11,26.44,19.89,26.44,19.89l2.64-.36h0l0,0c-.27-.25-5.23-5-2.64-5s5,6.44,5,6.44l11-3.27-.06,0h0l-.12-.08-.08,0-.64-.39-.09-.05-.35-.22-.11-.07-1-.66-.14-.09-.41-.29-.15-.1-1.07-.8-.15-.12-.37-.31-.14-.12c-.16-.13-.31-.27-.45-.4h0a4,4,0,0,1-1.21-1.71c-.42-2,6.58,3,6.58,3l8.33-1.33S773.34,432.63,759.86,421l1-1.23,1.72-2.15,1.17-1.47c.59-.74,1.17-1.49,1.76-2.25l1.08-1.4L767.7,411l0,0h0l.8-1.06.87-1.14q1.38-1.85,2.75-3.72c.12-.15.23-.31.34-.46.8-1.1,1.59-2.2,2.38-3.31l.88-1.26c.6-.85,1.2-1.69,1.79-2.55l1-1.45,1.63-2.4c.34-.5.68-1,1-1.51l1.59-2.4,1-1.49,1.61-2.52.87-1.38c.61-1,1.22-2,1.82-2.95l.58-.95q1.17-1.9,2.29-3.82h0c14.68-25,24.88-50.42,26-71.57C818.89,267.56,820.89,226.56,787.39,183.56ZM195.6,239.18l-2.26,1.19Zm7-3.75c-1.44.8-2.95,1.62-4.49,2.44C199.62,237.05,201.13,236.23,202.57,235.43Zm-4.52,2.46-2.32,1.23Zm-19.63,10.34-.21.12Zm3.18-1.73-.09,0Zm-1.66.89-.1.06ZM210.53,231c-.26.11-.51.23-.75.35C210,231.19,210.27,231.07,210.53,231Zm1.25-.49-.76.29Zm476.11,17.09c20.86,18.51,31.87,33.74,37.62,46.7l.33.77c.17.4.34.79.5,1.19.1.24.2.47.29.71.18.45.35.9.52,1.35l.19.51q.33.91.63,1.8l.18.53c.13.43.27.85.4,1.27l.2.68c.11.37.21.74.32,1.11l.18.69c.1.36.19.72.28,1.08s.11.44.16.66c.09.4.18.79.26,1.19,0,.17.08.34.11.51.12.55.23,1.11.33,1.66,0,.1,0,.2.05.3.08.45.15.9.22,1.35,0,.19.06.37.08.56.06.36.11.71.15,1.07,0,.2.05.4.08.6s.08.69.11,1,0,.38.06.58c0,.36.07.72.1,1.08,0,.16,0,.32,0,.48,0,.52.08,1,.11,1.54,0,0-10.34,24.66-28.83,43-14.85-21.57-32.38-64.72-35.17-94.46-1.82-19.37-1.59-34.95-1.59-35.26A123,123,0,0,1,687.89,247.56Zm-23.6,24.58h0c-.8-5.59-1.35-11-1.6-15.84.25,4.88.8,10.26,1.61,15.85l3.54,19.35Zm-5.67-44-.71-.32Zm6.5,3.27-.75-.4Zm-3.7-1.93.09,0Zm-6.57-3,.22.09Zm-2.07,39.9c0,.89,0,1.84,0,2.85,0,1.91-.05,4-.06,6.27,0-2.25,0-4.36.06-6.27,0-1,0-2,0-2.85Zm-.6-41-.66-.26Zm88,227.12a2.09,2.09,0,0,0-.22-.2A2.09,2.09,0,0,1,740.14,452.54Zm-.89-.81-.1-.09Zm1.46,1.31,0,0ZM460.45,115l.19.06Zm4,1.25.18.06h0l-.31-.1Zm-7.42-2.22-.09,0Zm-12.14-1.65h0Zm2.29-.07h0Zm-3.69.25-.17,0Zm-1.54.34-.14,0Zm-1.53.48-.09,0ZM268,219.7l-.8.29c.25-.08.48-.18.72-.26Zm-1.52.53-.53.17.14,0Zm-1.05.34.14,0-.33.1Zm-1,.3-1.23.36Zm-2,.57-2.16.55Zm-9.52,2.07c-1.88.34-3.78.64-5.7.93C249.14,224.15,251,223.85,252.92,223.51Zm-18.66,2.69-2.78.37Zm-10.47,1.48-.61.1Zm45.31-8.38c.61-.24,1.21-.49,1.79-.74C270.31,218.81,269.71,219.06,269.1,219.3Zm206.63,46.05,1.14.57ZM477,266l1,.54Zm1.17.65c.3.18.59.35.85.53C478.78,267,478.49,266.84,478.19,266.66Zm1,.61c.27.18.51.36.73.53C479.67,267.63,479.43,267.45,479.16,267.27Zm3,2.07h0l.11.06Zm2.87,1.29.23.08Zm3.13,1,.2,0Zm3,.62h0Zm10.69-5.42.84-.77ZM505,264l1-.84Zm-2,1.84.95-.87Zm1-.94,1-.86Zm2.09-1.82c.66-.55,1.31-1.06,1.94-1.49C507.36,262,506.71,262.53,506.05,263.08Zm2-1.54c.31-.22.61-.42.91-.6C508.67,261.12,508.37,261.32,508.06,261.54Zm.95-.62c.3-.18.59-.33.86-.46h0A9.26,9.26,0,0,0,509,260.92Zm139.7-36.78-.38-.13Zm-4.82,21.41s2.75-17.62,4.75-19.37l1.25.62h0l-1.25-.63c-2,1.75-4.75,19.38-4.75,19.38-1.15,4.88-1.57,14.12-1.55,24.24C642.32,259.68,642.74,250.44,643.89,245.55ZM319.06,479l-.26-.12-.38-.17,2.61,1.18-1.78-.8ZM241.87,453.3l-.61-.07h0l-.33,0c1.39.13,2.79.27,4.2.44h0l-.2,0C243.92,453.5,242.89,453.39,241.87,453.3Zm-11.53-.72h0l.31,0-1.89,0h0Zm6.73.32-.76,0h0Zm-1.63-.09-.83-.05h.1l1.57.09Zm2.29.14,2.73.21Zm68.54-44.15h.05l-.9-.14.85.13ZM295.66,469h0l.18.07-3.64-1.51Zm4.4,1.83h0l.78.34-1.43-.6Zm3.64,1.54-2.24-.94ZM257,403.43h0Zm13.53.86ZM293,406.87l1.19.17Zm-3-.39c.38,0,.75.1,1.13.15C290.81,406.58,290.44,406.52,290.06,406.48ZM277.55,405l1.15.12Zm2.87.31,1.06.12Zm3.21.38.68.08Zm3.51.43.95.12Zm15,2.08,1.15.17Zm-6.14-.89,1.2.17Zm3,.43,1.19.18ZM276,404.81l-1.17-.12Zm-2.7-.26-1.17-.11Zm-17.48,50.72h0l-.79-.16,2.4.47-.42-.08Zm2.47.5.69.15-.38-.08Zm.92.2q2.8.61,5.61,1.36c-1.87-.5-3.74-.94-5.61-1.35Zm6.73,1.67.8.23-1-.28Zm3.62,1.06,1.09.34h0l.68.23Zm2.95,1c.74.25,1.47.51,2.21.78C273.93,460.17,273.2,459.91,272.46,459.66Zm-27-6h0Zm4.4.58h0l.86.13-1.55-.22Zm4.13.68-2.32-.4Zm21.74,5.87c1.07.4,2.14.81,3.2,1.25l3,1.24-3-1.24C277.83,461.62,276.76,461.21,275.69,460.81Zm15.47,6.29-1.82-.75Zm-3.23-1.33-1.54-.64Zm-3-1.25-1.68-.69Zm19.41,8.08,2.5,1.06Zm2.72,1.15,4,1.75h0Zm9.57-63.3.09,0-.12,0Zm2.37.39,1,.17Zm3.19.54,1.05.18Zm3.24.56,1,.17Zm-77.12-8.58h0Zm-19.64,49.19h-.3c-1.29,0-2.57,0-3.83,0C225.86,452.51,227.24,452.52,228.63,452.55Zm87,25,2.42,1.07Zm-4.23-1.86-.34-.14,4.26,1.86Zm21.24-62.44h.13Zm-7.51,68.6c-1.37-.64-2.73-1.27-4.1-1.89l3.61,1.65ZM741.34,453.6l.32.29Zm.64.57c1.64,1.46,2.71,2.39,3,2.71C744.69,456.56,743.61,455.62,742,454.17Zm3.07,2.73.07.06Zm2.77-.54.21.31Z"/><path class="cls-1" d="M500.46,268.29c-.07.09-.16.18-.23.26C500.3,268.47,500.39,268.38,500.46,268.29Z"/><path class="cls-1" d="M475.68,265.33h0Z"/><path class="cls-1" d="M500.23,268.55l-.29.36Z"/><path class="cls-1" d="M463.56,260.57l-.28-.1Z"/><path class="cls-1" d="M469.71,262.78l-.26-.1Z"/><path class="cls-1" d="M459.81,259.39l-.26-.07Z"/><path class="cls-1" d="M462.19,260.12l-.26-.08Z"/></g></g></svg>