<svg xmlns="http://www.w3.org/2000/svg" viewBox="0 0 94.91 42.98"><defs><style>.cls-1{fill:#f1ecce;}</style></defs><title>viperfish_name</title><g id="圖層_2" data-name="圖層 2"><g id="viperfish_name"><path class="cls-1" d="M75.39,1.14a29.39,29.39,0,0,1-5,9.72c-1,1.37,1.2,3,2.36,1.82a4.42,4.42,0,0,0,1-1.64c.64-1.82-2.25-2.61-2.89-.8a2,2,0,0,1-.26.31l2.35,1.82A31.48,31.48,0,0,0,78.29,1.93a1.5,1.5,0,0,0-2.9-.79Z"/><path class="cls-1" d="M75.29,8.51a17.67,17.67,0,0,1,3.77-.31,4.67,4.67,0,0,1,1.12.17c.15.05.4.33.27.1.64,1.09-2.38,4.51-3.07,5.36-1.21,1.49.9,3.63,2.12,2.13,1.66-2,5.24-6,3.59-8.9C81.52,4.28,77,5.22,74.49,5.62c-1.9.3-1.09,3.19.8,2.89Z"/><path class="cls-1" d="M72.47,15.44a73.61,73.61,0,0,0-1.36,12.11,1.5,1.5,0,0,0,3,0,69.41,69.41,0,0,1,1.25-11.31c.34-1.89-2.55-2.7-2.89-.8Z"/><path class="cls-1" d="M74.31,17.85a19.05,19.05,0,0,1,7.78-1.63,4.56,4.56,0,0,1,3.65,1.72c1.31,1.86.31,3.92-.76,5.6s1.55,3.14,2.59,1.52c2.4-3.77,2.6-8.72-1.87-11-3.74-1.9-8.52-.5-12.19.88-1.79.67-1,3.58.8,2.89Z"/><path class="cls-1" d="M74.64,23.88c3.07-.62,6.68-1,9.46-2.52,1.7-.91.19-3.5-1.51-2.59a20.19,20.19,0,0,1-4.9,1.39c-1.28.29-2.56.57-3.85.83-1.89.38-1.09,3.27.8,2.89Z"/><path class="cls-1" d="M78.27,16.32c0,2.77.17,5.54.16,8.31a1.5,1.5,0,0,0,3,0c0-2.77-.15-5.54-.16-8.31a1.5,1.5,0,0,0-3,0Z"/><path class="cls-1" d="M73.34,29c4.58-.77,9.39-1.57,13.69-3.41,1.77-.75.24-3.34-1.52-2.59-4,1.73-8.68,2.38-13,3.1-1.9.32-1.1,3.21.8,2.9Z"/><path class="cls-1" d="M73.92,27.12c-3,4.34-6.28,8.53-9.52,12.7-1.17,1.51.93,3.65,2.12,2.12,3.4-4.37,6.82-8.76,10-13.31,1.11-1.58-1.49-3.08-2.59-1.51Z"/><path class="cls-1" d="M75.54,28.63c1.36,3.06,1.14,8,.37,11.21-.45,1.88,2.45,2.68,2.9.8,1-4.08,1-9.64-.68-13.52-.78-1.76-3.36-.24-2.59,1.51Z"/><path class="cls-1" d="M81.57,28a15.2,15.2,0,0,1,0,9c-.57,1.85,2.33,2.64,2.9.8a18.26,18.26,0,0,0,0-10.56c-.57-1.84-3.47-1-2.9.8Z"/><path class="cls-1" d="M89.85,26.68C91.92,30.58,92.61,37,91,41.14c-.69,1.8,2.21,2.58,2.9.79,1.88-4.9,1-12.2-1.46-16.76-.9-1.71-3.49-.19-2.59,1.51Z"/><path class="cls-1" d="M48.62,9.91,54.18,9c1.9-.32,1.1-3.21-.79-2.89L47.82,7c-1.9.31-1.1,3.2.8,2.89Z"/><path class="cls-1" d="M49.4,8.32c-.6,1.08-.65,2.35-1.24,3.41A1.51,1.51,0,0,0,49.45,14c1.45,0,2.89-.27,4.33-.31l-1.44-1.1c.45,1.62-.41,3-2.18,2.49a1.5,1.5,0,0,0-.8,2.89c4,1.09,6.94-2.35,5.87-6.17a1.53,1.53,0,0,0-1.45-1.11c-1.44,0-2.88.28-4.33.31l1.3,2.26c.6-1.07.65-2.35,1.24-3.4.94-1.69-1.65-3.2-2.59-1.52Z"/><path class="cls-1" d="M47.78,21.89c1.49,1.49,3.08,2.91,4.63,4.33s3.55-.81,2.13-2.12-3.14-2.84-4.64-4.33-3.5.76-2.12,2.12Z"/><path class="cls-1" d="M51.8,19.46c-2,1.77-3.26,4.19-4.57,6.49-.95,1.68,1.64,3.2,2.59,1.52,1.18-2.09,2.27-4.28,4.1-5.88,1.45-1.28-.68-3.39-2.12-2.13Z"/><path class="cls-1" d="M49.59,34.26a46.07,46.07,0,0,1,4.33-3.16l-2.05-.54c2,2.66,3.68,5.49,5.8,8,1.24,1.49,3.35-.64,2.12-2.12-1.95-2.34-3.52-5-5.33-7.42a1.52,1.52,0,0,0-2.05-.54,53.12,53.12,0,0,0-4.94,3.63c-1.51,1.21.62,3.32,2.12,2.12Z"/><path class="cls-1" d="M0,15.86v9.91a1.5,1.5,0,0,0,3,0V15.86a1.5,1.5,0,0,0-3,0Z"/><path class="cls-1" d="M1.9,18.29a21.64,21.64,0,0,1,8.29-1.18c.89.05,2.75.1,3.3,1,.73,1.16-.83,3.07-1.43,3.92-1.12,1.58,1.48,3.08,2.59,1.52,2.43-3.42,3-7.83-1.9-9.08a21.27,21.27,0,0,0-11.65,1c-1.8.65-1,3.55.8,2.89Z"/><path class="cls-1" d="M1.89,27.27a23.64,23.64,0,0,0,12.22-3.21c1.63-1,.13-3.62-1.52-2.59a20.53,20.53,0,0,1-10.7,2.8,1.5,1.5,0,0,0,0,3Z"/><path class="cls-1" d="M5.43,10.42c.45,7.74.49,15.47.5,23.21a1.51,1.51,0,0,0,2.25,1.3,19.88,19.88,0,0,0,6.73-5.67L12.4,28.6a97.87,97.87,0,0,1,.44,12.93,1.5,1.5,0,0,0,3,0,103.17,103.17,0,0,0-.55-13.73,1.51,1.51,0,0,0-2.51-.66,17.91,17.91,0,0,1-6.11,5.2l2.26,1.29c0-7.74,0-15.47-.5-23.21-.11-1.92-3.11-1.93-3,0Z"/><path class="cls-1" d="M18.69,9.4,35,6.93c1.91-.29,1.1-3.18-.79-2.89L17.89,6.51c-1.9.29-1.09,3.18.8,2.89Z"/><path class="cls-1" d="M26.38.78c-2.46,5.35-5.17,10.58-7.9,15.8-.9,1.71,1.69,3.23,2.59,1.51C23.8,12.88,26.51,7.64,29,2.29,29.77.55,27.18-1,26.38.78Z"/><path class="cls-1" d="M25.79,8.91c3.55.94,7.49,2.48,10.21,5,1.4,1.33,3.53-.79,2.12-2.12C35,8.92,30.65,7.09,26.59,6a1.51,1.51,0,0,0-.8,2.9Z"/><path class="cls-1" d="M21.75,19.83c4.29-.1,8.64-1.33,12.74-2.53a1.5,1.5,0,0,0-.8-2.89c-3.83,1.12-7.93,2.33-11.94,2.42-1.93,0-1.94,3,0,3Z"/><path class="cls-1" d="M26.17,13.39v9.87a1.5,1.5,0,0,0,3,0V13.39a1.5,1.5,0,0,0-3,0Z"/><path class="cls-1" d="M22.64,26.68c4.78-.95,9.55-1.95,14.32-3,1.89-.4,1.09-3.29-.8-2.89-4.77,1-9.54,2-14.32,3-1.89.38-1.09,3.27.8,2.89Z"/><path class="cls-1" d="M22.64,33.1a110.51,110.51,0,0,0,13.33-3,1.5,1.5,0,0,0-.79-2.89,113.06,113.06,0,0,1-13.34,3c-1.9.26-1.09,3.15.8,2.89Z"/><path class="cls-1" d="M28.15,26.23a45.31,45.31,0,0,1-.94,11.45c-.47,1.87,2.42,2.67,2.9.8a48.88,48.88,0,0,0,1-12.25,1.5,1.5,0,0,0-3,0Z"/><path class="cls-1" d="M20.25,41.54c7.27.26,14-2.46,21.24-3,1.91-.14,1.93-3.14,0-3-7.17.5-14,3.22-21.24,3-1.93-.07-1.93,2.93,0,3Z"/></g></g></svg>