<svg xmlns="http://www.w3.org/2000/svg" viewBox="0 0 817.84 648.09"><defs><style>.cls-1{fill:#eddbc3;}.cls-2{fill:#8b9183;}.cls-3{fill:#a7aea1;}.cls-4{fill:#7b8273;}.cls-5{fill:#f2f2f2;stroke:#a7aea1;stroke-miterlimit:10;}.cls-6{fill:#333;}.cls-7{fill:#4c4c4c;}.cls-8{fill:#e3eadc;}.cls-9{fill:#d6ddce;}.cls-10{fill:#84897e;}.cls-11{fill:#3a3f35;}.cls-12{fill:#31352c;}.cls-13{fill:#6f7566;}.cls-14{fill:#656b5d;}.cls-15{fill:#697061;}.cls-16{fill:#f2f2c2;}.cls-17{fill:#b7b99b;}.cls-18{fill:#747764;}.cls-19{fill:#fff;}</style></defs><title>viperfish</title><g id="圖層_2" data-name="圖層 2"><g id="viperfish"><path class="cls-1" d="M742.56,456.75a5.9,5.9,0,0,1-.67-.19A5.9,5.9,0,0,0,742.56,456.75Z"/><path class="cls-1" d="M743.35,456.9a5.33,5.33,0,0,1-.6-.11A5.33,5.33,0,0,0,743.35,456.9Z"/><path class="cls-1" d="M744.4,457h0Z"/><path class="cls-1" d="M747.11,453.52l0,.05Z"/><path class="cls-1" d="M733,440c-4.58-3.86-11.18-9.44-12.4-10.44s-5.35-2.61-7.27-3.3q3.09,3.18,6.27,6.47c13.47,14,25.67,24.22,25.6,24.28a24,24,0,0,0,2.93-.25s-1-1.53-2.36-3.36a11.57,11.57,0,0,0-4.64-3.34c-.3,0-5-5.16-5.86-5.83S733,440,733,440Z"/><path class="cls-1" d="M749.12,456.58l-.17,0Z"/><path class="cls-1" d="M748.88,456.62l-.26.05Z"/><path class="cls-1" d="M749.22,456.56h0Z"/><path class="cls-1" d="M744.25,457c-.26,0-.51,0-.76-.06C743.74,457,744,457,744.25,457Z"/><path class="cls-1" d="M748.53,456.68l-.38.06Z"/><path class="cls-1" d="M662.76,230.16l.74.38Z"/><path class="cls-1" d="M655.7,226.84l.89.39Z"/><path class="cls-1" d="M658,227.85l.91.42Z"/><path class="cls-1" d="M653.42,225.9l.85.35Z"/><path class="cls-1" d="M660.33,229l.87.42Z"/><path class="cls-1" d="M748.22,455.35l-.08-.11Z"/><path class="cls-1" d="M651.16,225l.74.28Z"/><path class="cls-1" d="M747.38,454.08l.07.13Z"/><path class="cls-1" d="M747.72,454.64a.36.36,0,0,0,.07.1A.36.36,0,0,1,747.72,454.64Z"/><path class="cls-1" d="M737.39,443.72l-2.1-1.75s5.43,6.75,6.43,6.92,5.26,4.16,5.26,4.16,0,0,0,.06c-.09-.52.11-.89.89-.89l-4.84-3.67C742.22,448.22,738.22,444.39,737.39,443.72Z"/><path class="cls-1" d="M648.92,224.21l.35.13Z"/><path class="cls-1" d="M757.22,453.6l-.11-.11Z"/><path class="cls-1" d="M758.67,455.11l-.09-.09Z"/><path class="cls-1" d="M760.2,456.65l-.06-.06Z"/><path class="cls-1" d="M760.4,456.85l0,0Z"/><path class="cls-1" d="M759.58,456l-.14-.15Z"/><path class="cls-1" d="M759.2,455.66a.93.93,0,0,0-.14-.14A.93.93,0,0,1,759.2,455.66Z"/><path class="cls-1" d="M760.55,457l-.08-.08Z"/><path class="cls-1" d="M738.47,429.4c-9.42-7.66-20.58-18.46-28.42-26,.1.48.67,9,4.67,13.62,2.89,3.35,39.38,33,39.38,33l.06.08c-1.27-1.62-1.95-2.89-1-2.89,2.71,0,12.37,9.78,12.37,9.78l7.68-1.07S755.38,443.14,738.47,429.4Z"/><path class="cls-1" d="M754.49,450.51l.1.13Z"/><path class="cls-1" d="M789.22,451.22s-30.67-23.67-43-35.33-38.67-38.67-45.67-48.33-23.66-42.67-28.66-60c-1.46-5.07-2.84-10.51-4.06-16.07l-3.54-19.35h0v0A163.68,163.68,0,0,1,662.55,253c-.33-15.46-.1-16.62-.1-16.62s-7.06-8.18-7.73-3-.33,3.68-.33,3.68-1.25,16-1.5,25.17-1,37.83,3.25,51.58a264.61,264.61,0,0,0,19.75,46.5c8.71,15.81,24.25,29.75,36.75,42.25,12.06,12.06,25.82,22.89,35.59,31.94,9,8.28,27.66,21.06,27.66,21.06s-5.34-5-2.67-5,5,6.44,5,6.44l11-3.27s-6.16-3.51-6.58-5.51S789.22,451.22,789.22,451.22Z"/><path class="cls-1" d="M755,451.12l0,.05Z"/><path class="cls-1" d="M756.63,453l-.13-.14Z"/><path class="cls-1" d="M759.8,456.25l.08.09Z"/><path class="cls-1" d="M753.55,452.22l-12.5-10.83s-19.73-15.88-22.5-18.5c-3.88-3.69-11.25-9.58-10.91-12.83a14.61,14.61,0,0,0-1.31-7.94h0c-4.19-4.15-15.28-14.56-17.7-17.57-15-18.67-26.75-42.42-32.75-59.75s-7.33-50.65-6.67-66.59c.67-16.13.67-31.41.67-31.41l-1.25-.63c-2,1.75-4.75,19.38-4.75,19.38-2.45,10.42-1.58,40.66-.25,57,2.26,27.92,27.77,74,39.08,89.31,8.12,11,17,20.39,26.49,30.2v0c1.13-.6,7.53,3.77,9.5,4.67,1.54.7,12.83,11,17.17,14.17s10.66,8.5,13,9.83,6.33,6.28,6.33,6.28h2.83A30.82,30.82,0,0,0,753.55,452.22Z"/><path class="cls-1" d="M749.15,456.48l0,0Z"/><path class="cls-1" d="M748.93,456.22a.1.1,0,0,1,0-.05Z"/><path class="cls-1" d="M757.77,454.18l-.17-.18Z"/><path class="cls-1" d="M755.62,451.85l-.12-.14Z"/><path class="cls-1" d="M748.59,455.82l-.08-.1Z"/><path class="cls-1" d="M758.23,454.66l-.16-.17Z"/><path class="cls-1" d="M756.14,452.43l-.15-.17Z"/><path class="cls-2" d="M700.55,367.56c7,9.66,33.34,36.66,45.67,48.33s43,35.33,43,35.33l8.33-1.33s-24.79-17.67-38.16-29.33c-11.73-10.24-42-40-53.5-54.5-15.44-19.48-35.5-67-38.5-99-1.84-19.57-1.59-35.28-1.59-35.28a108,108,0,0,0-17-7.59c-.75-.26-1.5-.52-2.25-.76s-5.27,13.35-7.37,23.63c-3.58,17.57-2,50.83,1.67,68.49s18.39,50.83,32,71c14.5,21.5,54.66,58,58,61.66,0,0,8.33,7.34,11,8.34a9.43,9.43,0,0,0,3.26.44c.14,0-12.1-10.28-25.6-24.28q-3.18-3.3-6.27-6.47c1.92.69,5.9,2.18,7.27,3.3s7.82,6.58,12.4,10.44c0,0,1.44,3.56,2.27,4.23s5.56,5.83,5.86,5.83a11.57,11.57,0,0,1,4.64,3.34c1.33,1.83,2.36,3.36,2.36,3.36.7-.1,1.14-.19,1.14-.19s-2.08-2.26-2.24-3.51c0,0-4.26-4-5.26-4.16s-6.41-6.9-6.43-6.92l2.1,1.75c.83.67,4.83,4.5,5.66,4.83l4.84,3.45c2.66,0,5.29,4.56,5.29,4.56h2s-4-4.73-6.33-6.06-8.67-6.56-13-9.72-15.63-13.41-17.17-14.12c-2-.9-8.37-5.24-9.5-4.63,0,0,0,0,0,0-9.52-9.8-18.37-19.19-26.49-30.18-11.31-15.32-36.82-61.39-39.08-89.32-1.33-16.34-2.2-46.57.25-57,0,0,2.75-17.62,4.75-19.37l1.25.62s0,15.29-.67,31.42c-.66,15.94.67,49.25,6.67,66.59s17.75,41.08,32.75,59.75c2.42,3,13.51,13.42,17.7,17.57h0a14.61,14.61,0,0,1,1.31,7.94c-.34,3.25,7,9.14,10.91,12.83,2.77,2.62,22.5,18.5,22.5,18.5L753.55,452a32.71,32.71,0,0,1,4.5,4.56h2.5a71.91,71.91,0,0,1-6.45-6.75s-36.49-29.55-39.38-32.9c-4-4.62-4.57-13.08-4.67-13.57,7.84,7.55,19,18.38,28.42,26,16.92,13.75,34.77,26.54,34.77,26.54l2.65-.36s-18.7-12.77-27.66-21.06c-9.77-9-23.53-19.87-35.59-31.94-12.5-12.5-28-26.43-36.75-42.25a264.57,264.57,0,0,1-19.75-46.49c-4.25-13.76-3.5-42.37-3.25-51.58s1.5-25.17,1.5-25.17-.34,1.49.33-3.68,7.73,3,7.73,3-.23,1.16.1,16.62a163.64,163.64,0,0,0,1.74,19.13v0l3.55,19.37c1.22,5.56,2.6,11,4.06,16.07C676.89,324.89,693.55,357.89,700.55,367.56Z"/><path class="cls-2" d="M655.74,275.3c1.75,5.75.19,10.59,2.58,27.26,2.7,18.76,22,52,24.29,56.5s14.68,15.64,17.93,19.83,27.09,29.17,31.09,32.67,20.5,18.25,24.5,21,15.09,11.41,17.59,13.16,9.67,9.74,9.67,9.74l5.83-1.73a33.74,33.74,0,0,1-5.37-3.8s-18.39-12.63-23.64-17.63c0,0-23.41-17.66-28.66-24.41s-41.16-41.83-45.41-49.33c-1.74-3.07-8.46-13.95-12-22.75-4-10-11.75-25-13.5-34.5-1.46-7.91-.59-20.06-3.38-27.25-1.19-3.08-6.37-20-6.37-20v7S654,269.55,655.74,275.3Z"/><path class="cls-1" d="M330.8,407.89c-2.91-2.67-15.58-8.67-23.25-10.67s-47-9.33-57.5-9-29.5,1-32.5,1.67-9.66,2.33,0,5.33c5.73,1.78,16.25,5.31,24.71,8.45l1.63-.11c20.49-1.41,56.44,3.81,92.08,10.25A54,54,0,0,0,330.8,407.89Z"/><path class="cls-3" d="M316.14,403.74c-7.22-1.8-15.75-4.2-21.75-5.45s-26.38-5.48-31.25-6.11a170.2,170.2,0,0,0-21.25-1.06c-5.25.25-12.63.44-16.25.94s-6.25.54-5.83,1.89c.5,1.62,5.45.36,10.08,0s16.87-.69,21.75-.5a207.67,207.67,0,0,1,21.51,2.78c3.77.82,16.47,3.16,23.24,4.8,6.58,1.6,18,4.59,21,5.8,3.37,1.37,10.47,5.56,10.47,5.56l.46.08,4.22.74.36.07S324.14,405.74,316.14,403.74Z"/><path class="cls-3" d="M303.64,406.18c-4.24-1.05-22.22-4.75-28.71-5.7-6.2-.91-17.46-2.75-22.21-2.75s-12.83.08-14.33.95-.88,1.63.87,1.63c0,0,8.26-.66,13.29-.66,3.75,0,14.95,1.56,20.67,2.51,3.77.63,16.33,3,19.17,3.57,3.24.61,10.55,2.18,13.88,3.07q5.16.79,10.43,1.67h0S309.09,407.53,303.64,406.18Z"/><path class="cls-3" d="M245.6,403.34c-.08,0-.13.09-.2.13a188,188,0,0,1,25.1.82,93.25,93.25,0,0,0-10.54-1.4C255.21,402.72,247.13,402.52,245.6,403.34Z"/><path class="cls-1" d="M278.89,462.06c-18.32-7.51-37.72-9.61-54.41-9.54-3.41,4-10.06,11.74-13.84,15.49A52.05,52.05,0,0,1,198,476.7c-3.57.52,5.71,3.73,5.71,3.73a17.47,17.47,0,0,0,4.5-.32c1.71-.48,0,2.45,0,2.45l9.06,4.84,4-.08L224,492.4s.53-3.93,2.85.05,2,4.1,2,4.1l0,1.78s1.17-.47,6.1-.12,6.46,3.45,3.35,4.41,5.42,3.34,5.42,3.34,4-2.32,5.85-.12,10.4.81,10.4.81,2.37,5.77,5.05,5.72,7.53-3.73,8.95-.18,1,6.24-1.64,7.63,6.78,3.44,6.78,3.44.5-3.14,2.3-2.73a18.28,18.28,0,0,0,1.91.41l.09,4.47s5.52,2.12,9.05-.18c0,0,.82-9.67,3-14.17s11.59-15.25,19.59-22.93a21.7,21.7,0,0,1,11.45-5.66C311.84,475.6,297.16,469.54,278.89,462.06Z"/><path class="cls-3" d="M255.8,500.39c1.11-1.95,4.89-6.9,6.06-8.81s9.78-8.75,11.36-9.79a47.43,47.43,0,0,1,6.42-2.8l4.7-6.33-4,2.81c-1.08.74-7.16,3.17-9.5,5.34s-6.16,4.41-9.58,7.95-11.54,17.08-11.54,17.08a4,4,0,0,0,2.4,1.06S254.74,502.26,255.8,500.39Z"/><path class="cls-3" d="M231.89,458.56c-2,1.47-5.5,6.79-7.25,9.13s-7.92,7.45-9.09,9.11-4.16,7.48-4.16,7.48l-3.22-1.72a29.45,29.45,0,0,1,4.81-7.09c1.3-1.34,7-5.55,9.26-9a80.5,80.5,0,0,1,7.73-9.71c2.42-2.5,2.56-4.1,2.56-4.1,1.25,0,2.51.11,3.78.19C236.31,452.85,233.55,457.31,231.89,458.56Z"/><path class="cls-3" d="M237.79,458.24c-.83,1.12-4.28,5.07-5.24,7.88s-6.16,7.25-7.41,9.19-3.82,4.62-4.63,6.68a32.78,32.78,0,0,1-3.28,5.41l4-.08s.5-4,7.68-11.85c2.91-3.18,7.65-10.53,9.71-13.41a87.12,87.12,0,0,1,6.79-8.39c-1.4-.17-2.79-.31-4.17-.44C241.26,453.23,238.9,456.75,237.79,458.24Z"/><path class="cls-3" d="M256.22,460.82c-.58,1.5-5.58,6.08-7.74,8.83a57.3,57.3,0,0,0-5.76,9.75c-1,2.25-4.92,5.25-6.5,7.42s-2.33,5.33-3.67,8.17-.76,3.09-.76,3.09a9.15,9.15,0,0,0-2.83.25l0-1.78a43.65,43.65,0,0,1,4.12-9.31c2.5-3.92,3.92-4.75,6.42-8.25s2.58-4.34,5.58-9.09,6.5-7.34,7.75-9.55,3-5.08,3-5.08c1.13.22,2.26.45,3.39.7Z"/><path class="cls-3" d="M274.11,460.35c2.72.95,4.78,1.71,4.78,1.71s-4.9,1.67-10.34,7.4c-6.86,7.23-15,19.44-19.58,26.42-3.59,5.43-8.14,9.45-8.71,9.17-1.9-.94-3.35-2-1.85-2.43,0,0,6.56-5.41,7.31-7.25s4.67-7,6.42-10.09,6.08-8.57,7.58-10.66,6.92-7.75,8.83-9.92A28.81,28.81,0,0,1,274.11,460.35Z"/><path class="cls-3" d="M296.94,469.5l-4.36-1.81a66.44,66.44,0,0,0-7.82,4.62c-4.62,3.81-10.5,10.62-15,17.1s-9.68,17.24-9.68,17.24a19.42,19.42,0,0,0,1.73,3.19s3.16-7,4.58-8.95,4.5-8.92,7.66-12.13,9.25-10.37,10.42-11.79,9-5.58,10-6.17Z"/><path class="cls-3" d="M313.77,478.74a78.66,78.66,0,0,0-7.55,4.41c-5,3.3-9.93,7-13.42,11.33-9.16,11.34-11.51,16.27-13.41,22.08-.58,1.75-3.5,5.84-3.5,5.84-2.41-.72-5-1.76-3.45-2.58,2.66-1.39,2-1.64,3.95-5,2.1-3.65,3.38-6.43,5.58-11.19,1.83-4,8-10.56,10.25-13.21,2.13-2.48,8.46-8.28,12.17-10.32,3.43-1.88,5.85-5,6.67-4.65l4.33,1.89,3.67,1.64q3.78,1.7,7.53,3.44a21.7,21.7,0,0,0-11.45,5.66c-8,7.68-17.42,18.43-19.59,22.93s-3,14.17-3,14.17a8.73,8.73,0,0,1-5.93.94s.87-4.82,1.75-8.94a41.05,41.05,0,0,1,7.16-15.5c3.31-4.62,14.63-16.43,16-17.34.83-.54,3.37-2.36,5.26-3.73C316.81,480.66,314.17,478.52,313.77,478.74Z"/><path class="cls-3" d="M228.77,452.55q-2.18,0-4.29,0c-3.41,4-10.06,11.74-13.84,15.49A52.05,52.05,0,0,1,198,476.7c-1.65.24-.36,1.26,1.52,2.29,0,0,7.29-4.68,9.42-6.5s9.93-9.81,11.43-12.06,6.44-6.41,6.69-6.67A18.52,18.52,0,0,1,228.77,452.55Z"/><path class="cls-1" d="M149.89,435.56c-15.5,0-39.5,12.83-51,18.91s-50,41.92-62.5,60-28.5,47.59-33.5,64.59-2.5,31.5,0,32,26.5-17,36-25.5,27-11.5,40,0,25,31.5,29,39.5,11.5,15.5,14,20.5,8,2.5,11-6.5,5.56-24.47,8.66-40.17c3-15.22,3-44.46,3.34-54,.42-11.08,1-37.83,9-48.33s9-33.47,6.5-40S149.89,435.56,149.89,435.56Z"/><path class="cls-3" d="M125.53,456c-17.52,3.09-29.8,17.43-40.89,25.59-10.49,7.7-26.5,29.16-39,47.25s-19.75,28.75-24.75,45.75-3.24,27.56-3.24,27.56l1.07-.77a68.78,68.78,0,0,1,1-17.17,102.71,102.71,0,0,1,8.5-25.37c4.5-9,16.38-26.63,19.88-31.38s17.62-24,21.5-28.62,10.81-12.38,16-16.25,17.47-15,21.09-17.38,13.25-7.62,16.5-7.62S125.53,456,125.53,456Z"/><path class="cls-3" d="M119.14,466.56a43.87,43.87,0,0,0-7.09,3.76c-1.5,1.09-12.52,12.94-15.85,17.61S83.1,504.71,79,508.71s-13.67,21.34-18,30-3.92,10.55-11.58,21.22-10.5,25.63-10.5,25.63c.44-.4.89-.78,1.37-1.15,0,0,1.31-4.85,2.25-7.67a94.4,94.4,0,0,1,6.69-13.87c1.62-2.31,5-6.81,6.31-9.38s3.56-7.06,4.25-8.75,3.5-7.18,4.38-9,7.68-13.87,8.75-15.81,5.48-8.22,7-10.25,10.31-11.81,11.56-13.56,4.81-6.31,5.44-7.5,6.18-7.31,7.43-8.75a89.7,89.7,0,0,1,6.81-7c1.57-1.25,3.26-3.19,4.82-3.81A10.79,10.79,0,0,0,119.14,466.56Z"/><path class="cls-3" d="M123,479.31c-1.42,5.75-9.82,25.5-11.83,30.75s-6.74,24.5-9,31.76-6.75,27.24-9.25,35-8.56,14.08-8.56,14.08c.41.45.83.9,1.24,1.36A89.12,89.12,0,0,0,91.39,584a46.08,46.08,0,0,0,4-11.34c.83-3.83,6.75-27.43,7.5-29.84s7.24-26.75,8.24-30.17,7.09-18,8-20.25,4.91-13.83,4.91-13.83Z"/><path class="cls-3" d="M148.89,470.32c.25,3.5-3.5,12.84-5.75,19.09s-5.63,11.15-7.25,24.15c-.87,6.94-2.5,23.5-3.5,28.26s-1.71,32.31-2.25,40c-.63,8.89-3.5,23.25-7.18,35.25s-9.54,16.68-9.54,16.68l1.35,1.81a26.88,26.88,0,0,0,5.49-7.37,96.44,96.44,0,0,0,5.41-14.75c1.34-4.5,4.34-17,5-22.25s1.5-12.37,1.5-15,.87-25.5,1.25-30,4.12-31.5,4-33.5,2.21-12.25,4.35-16.87,9.77-22.75,9.15-24.88S148.89,470.32,148.89,470.32Z"/><path class="cls-3" d="M153.32,442c-1.92-3.64-3.43-6.39-3.43-6.39-15.5,0-39.5,12.83-51,18.91s-50,41.92-62.5,60-28.5,47.59-33.5,64.59-2.5,31.5,0,32c.73.14,3.29-1.25,6.78-3.5a35.67,35.67,0,0,1-.53-20.25c3-11,15.25-37,21-47s21-32.5,34-44.5,23.5-24.5,37.25-33,39.25-18.25,43-19.5A35.91,35.91,0,0,1,153.32,442Z"/><path class="cls-3" d="M160.39,456.57c2.5,6.52,1.5,29.49-6.5,40s-8.58,37.25-9,48.33c-.37,9.54-.33,38.78-3.34,54-3.1,15.7-5.66,31.17-8.66,40.17s-8.5,11.5-11,6.5c0,0,6.93-19.58,8.33-27.34,1.94-10.74,4.77-27.32,5.3-35.42.43-6.5,1.12-30.48,1.37-41s3.25-36,9.25-45.76S160.39,456.57,160.39,456.57Z"/><path class="cls-3" d="M146.22,472.66c-1.67,5.89-9.12,15.65-13,30.24-3.53,13.27-6.85,75.59-13.33,102.32-2.75,11.34-12,19.84-12,19.84-.75-1.5-1.78-3.43-3-5.64,0,0,10-7.44,11.55-19.69,1-8,4.94-31.14,6.5-45.34,1.36-12.43,3.72-32.84,4-44.51.28-11.85,14.85-39.56,14.85-39.56Z"/><path class="cls-3" d="M131.39,477.56c-.5,2-9.88,21-11.63,31.5-1.69,10.15-10.62,49.37-11.87,57.37-.7,4.48-4.74,16.94-7.88,25.63a44.64,44.64,0,0,1-5.73,11.05c-1.1-1.51-2.23-3-3.4-4.51a35.06,35.06,0,0,0,5.38-9c2.23-5.47,6.21-19.88,7.13-23.88,1.83-8,4.16-24.29,5.5-30.13s5.91-20.37,7-27.37,9.64-29.25,9.64-29.25Z"/><path class="cls-3" d="M121.89,477.56s-10.34,24.33-12.67,29.34-13.67,35.66-16.33,48-14,30.67-14,30.67a31.55,31.55,0,0,0-5.06-3.66S84.5,570,87.72,557.22c3.65-14.5,9.43-32,11.67-37.34s11.33-24.33,13.66-30,6.34-13.83,6.34-13.83l3.16,1.51"/><path class="cls-3" d="M116.39,473.31h2.75s-21,38-24.25,45.25-14,30-15.25,35.25-11.38,25.62-11.38,25.62a29.54,29.54,0,0,0-6.41-1.3S73.6,559,74.55,555.23c2.11-8.33,13.58-30.92,16.33-37.92S116.39,473.31,116.39,473.31Z"/><path class="cls-3" d="M115.72,469.53s-8.67,7.5-12.33,12.34-13.67,19-20.5,28.5-10.67,19.34-11.67,23.17-8,15.34-11.5,22.51S52,578.87,52,578.87a31.38,31.38,0,0,1,5.15-.79s5.29-20,10.79-28.52,8.75-19,12-26.25,20-30.5,25-37.75,14.55-15.24,14.55-15.24Z"/><path class="cls-3" d="M32.22,581.23a115.12,115.12,0,0,1,6-18.67c1.83-4.17,10.17-13,15-23.67s15.5-22.35,18-25.85,19.5-22,22.67-24.5,15.5-17.83,18.5-20a99.77,99.77,0,0,1,10.16-5.66l4-5.32c-8.77,4.5-19,9.35-23.62,14.65C90.89,486,75.72,499.71,63.72,514s-15.67,27.68-27.33,43.34-11.92,39.75-10.53,38.7c1.76-1.34,3.49-2.68,5.13-4A70.84,70.84,0,0,1,32.22,581.23Z"/><path class="cls-3" d="M244.89,47.06s-1,16,7.5,28.5,19.5,33,25,50.5,24,81,34,85.5c0,0-22.5-1-40.5,7s-52,7-62.5,13.5-30,15.5-34.5,19-6,13,0,9,30.5-16,46-18.5,49-11.5,67-10,37.5-2.5,51-2,18.5,5,33,5,69,3,105-1.5,90.5-14,116-15,60.5-2,96,29.5,42.5,53.5,43.5,71c0,0-15.5,37-42.5,54s-77,46-129,53-103,12-148.5,3-131-27.5-167.5-25-62,6-90,23-38.5,40-39.5,46.5,6.5,16,21.5,7.5,41-23.5,60-26,52.5-5,83,7.5,51,21,78.5,36,88,35,126,38,96-8.5,139.5-25,94.5-41.5,128-79.5,64-89,66-126.5,4-78.5-29.5-121.5-65.5-64-99-74.5-79.5-12-118-4-81,19.5-99,13.5-25-8-32.5-4.5-29,2-39.5-1.5a131.55,131.55,0,0,1-15.5-6s-3-5-10.5-8.5-19-8-19-8-.5-2.5-10-10-20.5-15-28.5-16.5-30.5-8.5-34.5-10-11-5.5-19.5-6.5A83,83,0,0,0,244.89,47.06Z"/><path class="cls-4" d="M195.89,454.56c-19,2.5-45,17.5-60,26s-22.5-1-21.5-7.5c.8-5.24,7.77-21.17,25.07-36.05,0,0-12.2,13.17-14.7,21.05-.76,2.38-2.47,10.5-.71,12.26,2.31,2.28,7.43,2.13,14,.55,4.58-1.11,31.62-10.12,37.89-12.19C188.78,454.41,195.89,454.56,195.89,454.56Z"/><ellipse class="cls-5" cx="290.53" cy="72.7" rx="20.14" ry="21.14"/><circle class="cls-6" cx="280.51" cy="74.22" r="6.13"/><path class="cls-7" d="M284.83,74.22a4.09,4.09,0,1,1-4.09-4.09A4.09,4.09,0,0,1,284.83,74.22Z"/><path class="cls-8" d="M247.22,205.22c-.06,3.16,4.67,9,5.78,10.33s6.89,6.53,6.89,6.53a63.46,63.46,0,0,0,11-3.52c18-8,40.5-7,40.5-7-10-4.5-28.5-68-34-85.5s-16.5-38-25-50.5-7.5-28.5-7.5-28.5S233.55,65.17,233.22,72.7a45.34,45.34,0,0,0,5.33,22.52c3.67,7,6.34,28.67,3,38s-6.12,17.87-5.33,21.67C238.23,164.57,247.45,193.89,247.22,205.22Z"/><path class="cls-9" d="M247.22,205.22c.79,4.31,4.67,9,5.78,10.33s6.89,6.53,6.89,6.53a63.46,63.46,0,0,0,11-3.52c18-8,40.5-7,40.5-7-10-4.5-28.5-68-34-85.5s-16.5-38-25-50.5-7.5-28.5-7.5-28.5S233.55,65.17,233.22,72.7a45.34,45.34,0,0,0,5.33,22.52c3.67,7,6.34,28.67,3,38s-6,16.21-5.33,21.67C237.67,166.09,245.38,195.21,247.22,205.22Z"/><path class="cls-4" d="M238,81.31c1,4.33,10.39,27.25,10.2,37-.16,8.13-6.44,28.16-6.44,35.87,0,7.25,8.2,39.06,9.59,48.54,1.14,7.76,11.69,18.56,11.69,18.56a56.73,56.73,0,0,0,7.85-2.72c18-8,40.5-7,40.5-7-10-4.5-28.5-68-34-85.5s-16.5-38-25-50.5c-5.32-7.82-6.92-17-7.37-22.79C245,52.77,236.88,76.55,238,81.31Z"/><path class="cls-10" d="M743.91,249.22c-.3-5.3-2.1-45.75-15.61-65.66-9.54-14.07-14.25-19.17-28.75-26.17,0,0,7.86,16.48,8.09,35.17.12,9.91-2.84,22.66-13.5,24.5s-6.25,30.5-6.25,30.5c35.5,31.5,42.5,53.5,43.5,71,0,0,7.25-16.75,8.75-22s3.25-23,3.25-23S744.32,256.56,743.91,249.22Z"/><path class="cls-11" d="M731.39,318.56c-1-17.5-8-39.5-43.5-71s-70.5-30.5-96-29.5-80,10.5-116,15-90.5,1.5-105,1.5c-9.41,0-14.82-1.9-21.15-3.37,0,0,9.65.12,13.15-1.88s23.25-18.25,27.5-22.75a67.34,67.34,0,0,1,11-8.75s72.39,2.25,93.19,0,93.81-11.25,114.31-10.25,65.5,11.5,84,25.5,31,26.92,38.5,40,12,20.54,12,20.54-1.75,17.75-3.25,23S731.39,318.56,731.39,318.56Z"/><path class="cls-11" d="M195.89,454.56c19-2.5,52.5-5,83,7.5s51,21,78.5,36,88,35,126,38,96-8.5,139.5-25,94.5-41.5,128-79.5a363.17,363.17,0,0,0,40-54.94s-15,19.94-28,31.94-46.46,40.59-57,48c-20.34,14.32-79,33.49-91.5,36.49s-87,16-102,16-62.5-1.5-85-8-62.8-19.5-77.65-25.5c0,0-53.35-22-68.35-25.5,0,0-24.5-6-34.5-6a116.64,116.64,0,0,0-22.5.5c-11,1.5-21,4-24.5,5.5A6.52,6.52,0,0,0,195.89,454.56Z"/><path class="cls-4" d="M354.39,90.06s.66.69,1.79,1.94,2.71,3.08,4.61,5.24c.95,1.06,2,2.25,3.14,3.35a11.48,11.48,0,0,1,1.72,2.09,17.26,17.26,0,0,1,1.33,2.43,45.39,45.39,0,0,1,1.95,5.32l.2.68.19.73a10.24,10.24,0,0,1,.29,1.5,13.37,13.37,0,0,1,.06,3.09c-.17,2-.48,3.82-.54,5.68a18.35,18.35,0,0,0,.46,5.22c.11.41.25.81.36,1.21l.45,1.18c.17.38.34.76.5,1.14a7.07,7.07,0,0,1,.46,1.34,18.9,18.9,0,0,1,.35,4.8,41.36,41.36,0,0,1-.8,7,14.75,14.75,0,0,1-.69,2.56,6.3,6.3,0,0,0,.12-.68c.06-.44.11-1.1.17-1.94a61.44,61.44,0,0,0,0-6.91,21.08,21.08,0,0,0-.65-4.43,5.1,5.1,0,0,0-.41-1c-.2-.39-.41-.78-.61-1.18l-.54-1.26c-.15-.44-.32-.88-.45-1.34a18,18,0,0,1-.69-5.79c.05-1.93.32-3.9.5-5.74a12.43,12.43,0,0,0,0-2.66,10.5,10.5,0,0,0-.24-1.31l-.16-.65-.19-.68a46.24,46.24,0,0,0-1.68-5.18,13.34,13.34,0,0,0-2.49-4.21c-1.16-1.25-2.07-2.52-3-3.67-1.73-2.32-3.09-4.3-4.06-5.68Z"/><path class="cls-4" d="M327.89,229.89l.9-.17c.6-.08,1.45-.32,2.53-.58s2.38-.64,3.85-1.13c.74-.23,1.52-.49,2.34-.8s1.68-.59,2.56-.94a51,51,0,0,0,5.52-2.49,10.19,10.19,0,0,0,1.34-.92l.61-.48.63-.56c.84-.75,1.68-1.55,2.5-2.4,1.67-1.68,3.3-3.52,5-5.39s3.31-3.81,4.95-5.77l4.93-5.82c.36-.4.78-1,1.13-1.43a16.1,16.1,0,0,0,.9-1.45,20.16,20.16,0,0,0,1.4-3.2c.75-2.2,1.26-4.44,1.76-6.58a33.21,33.21,0,0,1,1.82-6c.35-.84.74-1.73,1-2.52q.16-.6.33-1.17a9.4,9.4,0,0,0,.2-1.14,12.06,12.06,0,0,0,.12-2.12c-.08-.66-.09-1.27-.21-1.81-.19-1.1-.41-2-.54-2.53s-.22-.9-.22-.9l.32.86c.19.57.54,1.38.82,2.48.17.54.24,1.17.38,1.85a13.42,13.42,0,0,1,.07,2.23,8.87,8.87,0,0,1-.1,1.24c-.09.43-.17.87-.26,1.32-.22.88-.54,1.7-.86,2.64-1.29,3.49-1.5,8-3,12.73a21.48,21.48,0,0,1-1.43,3.52,17.34,17.34,0,0,1-1,1.74c-.4.52-.72,1-1.18,1.52-1.61,1.94-3.25,3.9-4.89,5.86s-3.34,3.89-5,5.77-3.43,3.67-5.17,5.35c-.88.84-1.75,1.66-2.68,2.4l-.68.56-.75.53a14,14,0,0,1-1.45.9,42.37,42.37,0,0,1-5.9,2.28c-.92.31-1.81.57-2.66.79s-1.66.42-2.42.59c-1.52.37-2.87.61-4,.8a25.11,25.11,0,0,1-2.59.31Z"/><path class="cls-4" d="M244.89,47.06s1.28,1.76,3.06,4.47c.9,1.35,1.92,2.94,3,4.64l1.69,2.62c.56.9,1.16,1.78,1.76,2.66a12.5,12.5,0,0,0,.91,1.27l.45.6c.22.27.36.41.54.65a14.12,14.12,0,0,1,1.53,3c.75,1.93,1.27,3.76,1.71,5.32s.8,2.87,1.05,3.78.43,1.42.43,1.42-.07-.11-.19-.34-.31-.54-.52-1c-.42-.86-1-2.1-1.59-3.61s-1.29-3.27-2.11-5.08a15.8,15.8,0,0,0-1.42-2.54c-.14-.18-.37-.43-.49-.58l-.53-.67a11.18,11.18,0,0,1-1-1.35c-1.23-1.82-2.34-3.68-3.35-5.45s-1.89-3.44-2.63-4.89C245.73,49.06,244.89,47.06,244.89,47.06Z"/><path class="cls-4" d="M321.89,213.89s-.58-.84-1.54-2.34-2.33-3.63-3.88-6.26c-.78-1.31-1.62-2.73-2.45-4.27-.44-.76-.86-1.56-1.28-2.38s-.87-1.64-1.25-2.53l-.6-1.34a13.47,13.47,0,0,1-.51-1.41c-.16-.46-.31-.93-.47-1.4s-.25-1-.38-1.47c-.27-1-.5-2-.72-3l-.66-3c-.41-2-.82-4-1.29-5.89a37.18,37.18,0,0,0-1.65-5.5c-.18-.41-.35-.83-.53-1.24s-.41-.86-.6-1.28a25.66,25.66,0,0,1-1-2.52c-.66-1.67-1.11-3.24-1.57-4.71-.88-2.92-1.46-5.39-1.9-7.12s-.61-2.72-.61-2.72.32,1,.89,2.64,1.41,4.08,2.44,6.93c.25.72.55,1.45.84,2.21s.59,1.55.94,2.33a23.07,23.07,0,0,0,1.1,2.4c.2.4.41.8.61,1.21l.63,1.34a35.24,35.24,0,0,1,1.85,5.68c.49,2,.92,3.95,1.35,5.93l.63,3c.21,1,.43,2,.67,2.9.12.47.23.94.35,1.41s.29,1,.43,1.42a13.13,13.13,0,0,0,.45,1.34l.54,1.31c.34.86.78,1.69,1.15,2.52s.77,1.63,1.16,2.4c.78,1.56,1.52,3,2.22,4.38Z"/><path class="cls-4" d="M383.89,106.56a9.43,9.43,0,0,1,1.24,1.84,16,16,0,0,1,1.06,2.34A18.64,18.64,0,0,1,387,114a19.09,19.09,0,0,1,.16,4c0,.36-.08.72-.12,1.08a8.86,8.86,0,0,0-.1,1,14.82,14.82,0,0,0,.25,2,70.3,70.3,0,0,0,2.32,9,46.5,46.5,0,0,0,1.68,4.37c.16.35.32.69.5,1s.36.7.54,1a20.53,20.53,0,0,1,.95,2.13,28.15,28.15,0,0,1,1.2,4.25,32.55,32.55,0,0,1,.49,3.89c.08,1.22.06,2.33,0,3.3s-.08,1.83-.13,2.53-.11,1.25-.12,1.62a4.33,4.33,0,0,0,0,.58,3.39,3.39,0,0,1-.07-.58c0-.37-.06-.92-.07-1.62a49.6,49.6,0,0,0-.42-5.75,30,30,0,0,0-.73-3.74,25.1,25.1,0,0,0-1.33-4c-.31-.65-.58-1.31-1-2l-.55-1c-.2-.36-.39-.72-.56-1.08a38.78,38.78,0,0,1-1.81-4.5,64.18,64.18,0,0,1-2.41-9.18,14.44,14.44,0,0,1-.26-2.33,9,9,0,0,1,.13-1.15c0-.34.11-.67.12-1a21.61,21.61,0,0,0,.09-3.74,22.35,22.35,0,0,0-.44-3.15,23,23,0,0,0-.64-2.4A17,17,0,0,0,383.89,106.56Z"/><path class="cls-4" d="M349.74,231.19c1.32-.07,2.63-.2,3.93-.32s2.61-.3,3.89-.54a25,25,0,0,0,3.74-1,6.45,6.45,0,0,0,1.63-.84c.56-.36,1-.76,1.55-1.14,2.07-1.59,4.09-3.29,6.11-5s4-3.36,6.05-5.06,4-3.39,6-5.11,4-3.43,5.87-5.2l2.83-2.74c1-.88,2.06-1.78,3.11-2.58s2.14-1.6,3.23-2.35,2.21-1.47,3.35-2.18l-.26.3a21.09,21.09,0,0,0,.95-2.45,17.47,17.47,0,0,0,.6-2.55,9.17,9.17,0,0,0,.05-2.56,5.35,5.35,0,0,0-.29-1.21,4.38,4.38,0,0,0-.61-1.09,7.08,7.08,0,0,1-.74-1.22,12.21,12.21,0,0,1-.53-1.3,17,17,0,0,1-.61-2.7c-.13-.91-.22-1.81-.28-2.72,0-.45-.06-.9-.11-1.35a3.44,3.44,0,0,0-.3-1.31,3.85,3.85,0,0,1,.43,1.29c.09.44.16.89.23,1.34.15.9.28,1.79.48,2.67a15.77,15.77,0,0,0,.77,2.56,10.74,10.74,0,0,0,.58,1.18,7.4,7.4,0,0,0,.74,1.05,5.28,5.28,0,0,1,.8,1.24,5.89,5.89,0,0,1,.43,1.41,10.17,10.17,0,0,1,.08,2.86,18.16,18.16,0,0,1-.52,2.76,22.06,22.06,0,0,1-.9,2.67l-.07.17-.19.13c-1.06.72-2.13,1.49-3.17,2.28s-2.07,1.59-3.06,2.42-1.95,1.68-2.89,2.55-1.82,1.86-2.79,2.82c-1.93,1.84-3.91,3.59-5.9,5.33s-4,3.4-6.08,5.07-4.11,3.3-6.19,4.93-4.21,3.19-6.38,4.71c-.57.37-1.14.78-1.71,1.09a7.2,7.2,0,0,1-1.93.84,19.64,19.64,0,0,1-4,.69A52.51,52.51,0,0,1,349.74,231.19Z"/><path class="cls-12" d="M734.07,276.56a93.48,93.48,0,0,0,2.74-14.17c4.19,7.19,6.58,11.17,6.58,11.17s-1.75,17.75-3.25,23-8.75,22-8.75,22a67.92,67.92,0,0,0-6.11-24.82S731.54,285,734.07,276.56Z"/><path class="cls-13" d="M743.91,249.22c-.3-5.3-2.1-45.75-15.61-65.66-9.54-14.07-14.25-19.17-28.75-26.17,0,0,9,6,12,8.56A81.59,81.59,0,0,1,725,182.41c5.08,8.17,9.94,21.79,10.91,35,.55,7.47,1.73,32.08.92,45,4.19,7.18,6.58,11.17,6.58,11.17S744.32,256.56,743.91,249.22Z"/><polygon class="cls-4" points="515.89 166.56 515.89 169.56 521.89 169.56 524.7 165.18 528.76 163.93 523.26 163.2 521.55 167.09 515.89 166.56"/><polygon class="cls-4" points="526.89 143.56 533.89 143.56 536.57 139.43 539.89 126.18 539.89 138.56 534.89 145.56 527.89 145.56 526.89 143.56"/><polygon class="cls-4" points="539.51 143.43 540.89 151.56 537.51 156.06 533.64 158.6 536.14 154.93 539.39 151.56 539.51 143.43"/><polygon class="cls-4" points="534.89 149.06 537.45 156.06 540.36 156.93 540.87 157.81 536.17 156.89 534.89 153.72 534.89 149.06"/><polygon class="cls-4" points="545.03 130.9 550.89 131.93 550.89 130.56 563.14 118.56 554.27 130.9 555.01 136.56 552.89 136.56 545.78 133.06 545.03 130.9"/><polygon class="cls-4" points="557.45 132.68 558.29 135.56 560.89 138.18 560.89 142.56 557.2 146.81 554.21 144.56 557.2 144.65 559.73 141.74 560.12 138.81 557.85 136.06 557.45 132.68"/><polygon class="cls-4" points="580.89 110.74 579.45 116.9 569.89 126.18 569.89 128.56 580.89 117.81 580.89 110.74"/><polygon class="cls-4" points="598.01 104.18 596.76 115.93 591.64 122.37 586.51 122.93 587.51 126.18 592.26 124.06 599.01 116.81 598.01 104.18"/><polygon class="cls-4" points="590.89 124.43 594.37 126.18 595.88 128.56 593.65 127.31 592.46 128.56 590.89 126.18 590.89 124.43"/><polyline class="cls-4" points="582.89 122.06 584.89 122.06 584.89 123.68 582.89 122.37"/><polygon class="cls-4" points="582.89 123.56 582.89 126.56 580.64 129.31 574.89 129.68 574.89 128.56 580.14 127.93 582.51 125.68 582.89 123.56"/><polygon class="cls-4" points="625.64 107.22 636.8 113.06 651.9 114.06 635.39 116.67 625.64 107.22"/><polygon class="cls-4" points="621.64 102.81 623.55 107.22 614.8 111.42 611.55 111.95 606.14 105.56 611.55 109.31 621.39 107.22 621.64 102.81"/><polygon class="cls-4" points="616.22 110.74 618.64 113.96 616.22 115.18 613.14 116.67 615.89 113.71 616.22 110.74"/><polygon class="cls-4" points="657.39 106.06 653.22 111.95 657.39 122.37 655.3 113.71 657.39 106.06"/><polygon class="cls-4" points="662.3 110.74 658.55 116.67 660.43 122.06 659.64 116.67 662.3 110.74"/><polygon class="cls-4" points="546.56 115.18 548.89 119.65 545.03 128.56 539.89 127.56 544.26 126.62 547.64 119.65 546.56 115.18"/><polygon class="cls-4" points="557.8 113.71 562.14 116.4 569.89 115.05 574.89 108.81 568.64 113.71 561.89 115.18 557.8 113.71"/><polygon class="cls-4" points="503.89 122.37 508.3 127.56 504.89 132.68 506.3 128.56 503.89 122.37"/><polygon class="cls-4" points="527.89 118.56 535.89 118.56 537.88 121.39 537.49 122.01 534.89 126.18 534.89 119.56 527.89 118.56"/><polygon class="cls-4" points="553.21 150.4 555.99 156.53 552.59 167.41 546.84 169.72 551.47 166.84 554.72 157.97 553.21 150.4"/><polygon class="cls-4" points="537.1 169.18 539.78 174.43 538.54 179.55 531.55 177.56 536.89 177.56 537.88 174.37 537.1 169.18"/><polyline class="cls-4" points="402.14 115.81 405.89 132.81 397.8 141.31 404.3 132.81 401.85 116.67"/><polygon class="cls-4" points="436.89 125.31 438.76 133.56 426.8 148.56 436.89 133.56 436.89 125.31"/><polygon class="cls-4" points="451.89 125.56 451.89 143.56 447.55 149.56 446.89 146.85 449.39 143.56 451.89 125.56"/><polygon class="cls-4" points="405.89 122.56 414.39 138.06 410.14 144.56 412.3 139.06 405.89 122.56"/><polyline class="cls-4" points="412.3 118.56 412.77 119.27 418.8 128.56 413.1 135.71 415.55 128.56"/><polygon class="cls-4" points="418.8 146.56 429.8 157.56 431.64 170.56 420.39 181.06 429.8 170.06 428.14 158.31 418.8 146.56"/><polygon class="cls-4" points="415.89 149.56 417.3 158.81 412.55 170.06 415.89 159.81 415.89 149.56"/><polygon class="cls-4" points="426.55 159.81 425.22 171.56 423.3 170.06 424.93 161.56 426.55 159.81"/><polygon class="cls-4" points="427.1 189.68 438.89 185.31 438.89 163.56 432.99 159.81 436.55 163.81 434.89 183.72 427.1 189.68"/><polygon class="cls-4" points="438.92 141.18 447.89 147.56 447.89 155.56 446.14 161.06 444.9 159.81 446.39 155.81 446.14 149.56 438.92 141.18"/><polygon class="cls-4" points="443.55 157.55 448.11 163.8 438.89 174.74 438.89 171.56 445.89 163.81 443.55 157.55"/><polygon class="cls-4" points="446.22 172.64 449.89 176.56 449.89 184.56 447.61 192.56 445.64 195.89 444.77 194.39 446.45 191.39 448.89 184.14 448.89 177.56 446.22 172.64"/><polygon class="cls-4" points="449.46 187.48 452.72 184.26 458.55 186.72 465.39 197.22 463.89 198.8 461.89 198.81 462.83 197.06 457.43 188.72 451.89 186.39 449.46 187.48"/><polygon class="cls-4" points="462.83 170.06 467.78 174.74 466.39 189.68 465.39 193.39 463.8 194.78 462.61 192.95 463.55 191.53 465.39 176.56 462.83 170.06"/><polygon class="cls-4" points="457.51 143.06 461.93 153.39 459.68 164.06 458.22 170.56 456.89 170.56 457.43 164.06 460.39 153.51 457.51 143.06"/><polygon class="cls-4" points="468.89 121.39 470.1 128.56 462.6 140.56 461.36 139.89 468.89 127.89 468.89 121.39"/><polygon class="cls-4" points="465.8 135.71 470.55 142.22 462.83 151.12 462.61 149.56 468.55 142.39 465.8 135.71"/><polygon class="cls-4" points="471.72 144.56 477.89 152.89 477.05 165.68 471.72 172.64 470.55 171.56 474.89 165.68 475.89 153.72 471.72 144.56"/><polygon class="cls-4" points="523.47 122.37 522.68 135.62 514.95 143.37 509.89 138.56 509.89 136.56 508.3 139.72 512.76 144.56 515.95 145.72 523.44 139.56 524.7 135.71 523.47 122.37"/><polygon class="cls-4" points="515.89 151.56 515.89 163.56 509.3 167.89 513.85 162.89 515.89 151.56"/><polygon class="cls-4" points="502.89 153.22 503.72 157.55 502.89 163.81 502.89 153.22"/><polygon class="cls-4" points="502.89 166.31 504.22 168.56 504.89 168.56 504.89 171.56 503.89 171.56 502.89 170.06 502.89 166.31"/><polygon class="cls-4" points="493.22 142.64 496.05 145.72 504.89 144.56 507.34 141.74 508.06 142.57 505.39 146.23 497.8 147.56 494.89 147.56 492.22 144.81 493.22 142.64"/><polygon class="cls-4" points="497.47 153.72 499.98 157.8 498.89 164.43 491.3 172.56 487.89 172.56 487.89 170.56 491.05 170.06 496.76 162.89 497.74 157.55 497.47 153.72"/><polygon class="cls-4" points="481.52 129.22 484.89 133.56 484.89 138.56 479.72 144.56 482.89 138.72 482.89 134.56 481.52 129.22"/><polygon class="cls-4" points="481.39 165.44 488.39 173.44 487.75 184.2 482.8 193.04 478.89 191.56 481.89 191.56 485.55 184.51 486.8 174.87 481.39 165.44"/><polygon class="cls-4" points="503.39 177.06 500.72 187.48 494.18 189.68 492.22 189.06 499.05 186.56 503.39 177.06"/><polygon class="cls-4" points="509.22 491.33 499.55 485.95 486.22 496.36 497.72 483.56 501.89 483.56 509.22 491.33"/><polygon class="cls-4" points="478.22 494.47 484.22 489.96 488.39 499.23 480.73 508.01 486.22 498.99 483.3 492.73 478.22 494.47"/><polygon class="cls-4" points="436.89 474.56 437.76 474.02 453.55 464.39 460.55 471.06 461.55 476.22 458.39 471.39 454.05 467.89 441.39 474.72 436.89 474.56"/><polygon class="cls-4" points="416.89 494.56 428.89 494.56 431.72 499.22 428.05 496.73 416.89 494.56"/><polygon class="cls-4" points="665.39 434.89 660.55 446.89 659.39 451.89 665.14 465.39 661.89 452.05 661.89 447.56 666.8 437.22 669.26 438.55 672.99 447.55 671.86 438.05 667.04 433.72 665.39 434.89"/><polygon class="cls-4" points="673.9 447.68 676.91 442.2 682.89 446.72 682.89 459.56 684.3 446.8 679.19 440.56 675.89 440.56 673.05 445.47 673.9 447.68"/><polygon class="cls-4" points="678.35 421.96 675.89 424.72 675.89 429.56 676.89 432.55 676.89 426.56 679.55 423.56 689.89 423.56 678.35 421.96"/><polygon class="cls-4" points="706.89 419.56 712.89 419.56 714.05 417.56 705.89 417.56 697.72 425.22 699.05 433.84 700.22 427.59 706.89 419.56"/><path class="cls-4" d="M696.89,433.89l5.16,6.25s.17,6.78,0,6.28-1.33-5.43-1.33-5.43l-4.08-3.11L691.89,441v7.59l-1.59-9.19Z"/><polygon class="cls-4" points="719.89 427.56 728.89 427.56 719.89 425.22 709.89 432.68 711.22 443.18 713.3 435.15 719.89 427.56"/><polygon class="cls-4" points="757.55 386.37 758.89 391.54 761.89 392.37 756.44 393.87 757.55 386.37"/><polygon class="cls-4" points="779.89 368.56 779.89 379.56 782.47 370.36 789.01 365.7 779.89 368.56"/><polygon class="cls-4" points="777.16 351.71 771.19 359.3 775.22 371.56 779.89 371.56 775.89 369.94 773.16 359.48 777.16 351.71"/><polygon class="cls-4" points="738.51 405.56 731.82 413.27 734.89 421.71 734.89 413.56 740.3 407.02 743.72 405.56 738.51 405.56"/><polygon class="cls-4" points="724.05 394.86 722.39 408.03 726.89 413.09 724.64 407.36 724.05 394.86"/><polygon class="cls-4" points="735.89 396.36 735.22 400.03 737.9 401.03 735.89 396.36"/><polygon class="cls-4" points="732.07 380.69 728.89 382.69 730.48 384.69 732.07 380.69"/><polygon class="cls-4" points="757.19 398.69 754.37 403.02 756.44 410.97 755.78 403.98 757.19 398.69"/><polygon class="cls-4" points="744.89 383.56 744.89 388.56 748.14 392.52 743.35 388.04 744.89 383.56"/><polygon class="cls-4" points="768.12 377.87 761.89 379.52 761.89 382.56 762.85 380.21 768.12 377.87"/><polygon class="cls-4" points="488.01 482.57 491.89 483.56 491.89 487.56 489.89 488.89 489.89 485.56 489.95 484.73 488.01 482.57"/><polygon class="cls-4" points="475.39 469.23 492.39 460.06 497.72 464.64 494.55 470.31 494.89 465.18 492.39 462.56 475.39 469.23"/><polygon class="cls-4" points="473.22 467.39 481.3 477.72 471.72 486.56 463.89 486.56 471.22 483.81 479.89 477.52 473.22 467.39"/><polygon class="cls-4" points="414.39 437.56 421.39 438.39 427.22 443.73 420.8 439.56 414.39 437.56"/><polygon class="cls-4" points="394.8 433.85 399.89 437.56 399.89 440.56 398.35 437.56 394.8 433.85"/><polygon class="cls-4" points="413.18 443.31 412.12 448.01 414.39 450.56 418.89 450.56 413.39 451.64 409.55 447.48 413.18 443.31"/><polygon class="cls-4" points="389.72 433.85 387.3 437.56 380.05 438.73 386.22 436.29 389.72 433.85"/><polygon class="cls-4" points="389.72 441.05 390.55 444.47 395.05 446.56 388.89 446.56 389.72 441.05"/><polygon class="cls-4" points="375.05 427.06 375.72 430.22 372.72 431.22 375.05 427.06"/><polygon class="cls-4" points="382.89 428.56 386.89 428.56 388.05 430.89 382.89 428.56"/><polygon class="cls-4" points="435.72 436.29 438.55 438.73 431.72 440.56 435.14 438.42 435.72 436.29"/><polygon class="cls-4" points="540.89 483.56 548.89 476.22 557.72 476.97 563.55 483.56 557.55 478.89 550.39 478.06 540.89 483.56"/><polyline class="cls-4" points="557.97 476.97 566.89 466.56 567.89 466.56 577.39 474.64 576.3 480.68 579.55 474.45 568.68 464.56 564.89 464.56 557.72 477.35"/><polygon class="cls-4" points="570.72 490.45 579.64 481.29 587.55 483.56 580.89 483.56 570.72 490.45"/><polygon class="cls-4" points="534.18 490 541.45 492.99 544.54 499.48 541.89 505.56 541.89 499.56 540.64 494.39 534.05 491.89 529.16 495.55 534.18 490"/><polygon class="cls-4" points="608.89 476.56 608.89 481.56 607.64 475.34 614.39 470.56 618.89 470.56 620.39 472.55 618.8 478.13 618.05 472.56 613.89 472.56 608.89 476.56"/><polygon class="cls-4" points="592.47 480.92 597.05 470.56 605.89 470.56 595.55 469.26 592.47 480.92"/><polygon class="cls-4" points="635.05 468.72 624.55 474.69 622.89 483.71 622.89 488.56 621.14 483.38 623.26 473.05 635.05 468.72"/><polygon class="cls-4" points="652.55 461.64 648.89 458.56 641.89 458.56 636.89 462.52 636.05 473.34 641.72 479.03 649.55 474.81 650.39 470.07 648.22 473.89 642.22 477.38 638.05 472.31 639.05 464.06 642.22 460.72 648.72 460.1 652.55 461.64"/><polygon class="cls-4" points="654.55 465 657.89 460.18 659.39 459.66 660.89 464.06 660.89 467.56 662.47 463.83 660.39 458.56 656.89 458.56 654.55 465"/><polygon class="cls-4" points="673.05 458.06 678.05 462.81 680.3 462.27 678.68 461.55 673.05 458.06"/><polygon class="cls-4" points="636.8 455.3 639.51 449.51 652.2 442.19 656.89 441.23 656.89 445.56 659.14 440.56 652.43 440.05 638.99 447.67 636.8 455.3"/><polygon class="cls-4" points="688.39 451.54 689.22 459.56 692.05 461.38 696.22 460.43 692.3 459.97 689.89 458.71 688.39 451.54"/><polygon class="cls-4" points="630.39 455.3 629.55 462.27 631.89 456.57 634.05 456.46 630.39 455.3"/><polygon class="cls-4" points="602.22 464.06 604.55 455.3 614.14 451.54 605.89 455.88 603.22 464.06 605.22 466.71 602.22 464.06"/><polygon class="cls-4" points="543.14 432.31 539.89 433.89 539.89 439.56 552.22 437.56 539.55 441.23 538.22 432.55 543.14 432.31"/><polygon class="cls-4" points="578.89 424.56 583.89 424.56 585.72 427.5 580.89 441.18 582.8 427.37 578.89 424.56"/><polygon class="cls-4" points="565.54 433.72 570.72 438.73 559.3 446.56 567.22 438.42 565.54 433.72"/><polygon class="cls-4" points="602.15 422.04 604.44 424.1 601.99 436.64 591.22 434.56 598.89 434.56 601.94 425.95 602.15 422.04"/><polygon class="cls-4" points="618.8 414.89 624.55 417.56 612.3 427.06 621.14 417.56 618.8 414.89"/><polygon class="cls-4" points="636.84 413.22 641.24 417.81 636.8 424.56 631.89 424.56 636.05 422.21 638.55 417.68 636.84 413.22"/><polygon class="cls-4" points="627.89 426.56 629.89 426.56 624.55 427.56 616.89 427.56 624.55 426.2 627.89 426.56"/><polygon class="cls-4" points="612.3 436.29 617.22 436.39 618.8 433.89 612.3 436.29"/><polygon class="cls-4" points="525.39 434.89 529.89 434.2 529.89 439.56 525.39 434.89"/><polygon class="cls-4" points="635.3 406.56 639.64 404.56 633.3 410.06 635.3 406.56"/><polygon class="cls-4" points="515.89 476.02 511.55 486.51 515.89 472.56 531.89 472.56 538.22 479.53 532.55 475.09 515.89 476.02"/><polygon class="cls-4" points="520.54 488.89 511.55 492.73 517.3 502.97 513.89 492.97 520.54 488.89"/><polygon class="cls-4" points="552.22 432.31 557.72 435.14 563.55 429.34 557.72 432.87 552.22 432.31"/><polygon class="cls-4" points="753.63 225.31 759.2 230.97 753.55 239.56 745.89 239.56 754.55 242.08 761.89 229.97 753.63 225.31"/><polyline class="cls-4" points="749.89 279.56 756.89 279.56 759.72 272.56 756.44 262.6 758.22 272.49 756.44 277.73 749.22 279.48"/><polygon class="cls-4" points="761.39 285.22 764.55 293.01 757.72 299.72 750.39 294.55 758.55 300.72 766.39 292.97 762.3 282.55 761.39 285.22"/><polygon class="cls-4" points="747.55 315.97 750.22 320.38 760.39 318.18 749.19 322.06 744.39 312.38 747.55 315.97"/><polygon class="cls-4" points="777.05 237.72 782.39 239.38 786.55 233.01 782.39 240.72 773.22 237.88 777.05 237.72"/><polygon class="cls-4" points="763.22 242.08 771.19 248.22 763.22 254.88 768.12 248.22 763.22 242.08"/><polygon class="cls-4" points="745.89 249.22 752.22 253.02 756.44 251.12 751.16 256.88 745.89 249.22"/><polygon class="cls-4" points="775.22 280.56 784.89 278.39 787.01 286.63 777.89 301.93 773.54 296.24 777.89 298.48 785.55 285.14 783.89 280.56 775.22 280.56"/><polygon class="cls-4" points="769.39 258.06 775.54 261.22 769.39 275.89 759.72 274.56 768.72 274.72 773.89 262.06 769.39 258.06"/><polygon class="cls-4" points="768.34 299.68 773.33 305.87 766.39 314.56 756.89 314.56 766.39 312.94 771.19 305.81 768.34 299.68"/><polygon class="cls-4" points="750.32 300.47 749.22 303.56 743.89 303.56 750.32 300.47"/><polygon class="cls-4" points="795.64 353.56 789.01 357.56 790.89 363.31 795.64 353.56"/><polygon class="cls-4" points="795.76 342.81 790.89 345.56 795.89 345.56 795.76 342.81"/><polygon class="cls-4" points="801.89 334.56 801.89 338.56 806.39 334.56 801.89 334.56"/><polygon class="cls-4" points="782.89 348.56 788.89 348.56 787.01 349.56 782.89 349.56 782.89 348.56"/><polygon class="cls-4" points="775.89 386.56 772.89 386.56 772.89 390.56 773.89 390.56 775.89 386.56"/><polygon class="cls-4" points="769.64 318.56 775.54 320.81 779.89 316.31 774.76 318.56 769.64 318.56"/><polygon class="cls-4" points="784.45 309.56 778.64 311.98 781.54 309.56 784.45 309.56"/><polygon class="cls-4" points="766.39 328.56 761.89 326.18 766.39 329.87 773.54 328.56 766.39 328.56"/><polygon class="cls-4" points="781.7 242.22 784.57 247.6 780.65 254.12 777.77 255.84 775.89 254.56 777.89 254.56 778.89 252.88 782.89 247.47 781.7 242.22"/><polygon class="cls-4" points="766.89 224.06 765.36 227.97 760.51 229.13 765.42 229.97 766.89 227.97 766.89 224.06"/><polygon class="cls-4" points="771.19 224.06 778.64 227.97 775.89 233.69 769.64 237.97 770.82 234.35 771.19 236.06 774.14 233.69 775.89 228.81 771.19 224.06"/><polygon class="cls-4" points="759.72 217.4 761.89 219.81 761.89 218.56 760.51 217.37 759.72 217.4"/><polygon class="cls-4" points="748.89 221.56 753.89 221.56 753.89 218.56 748.89 221.56"/><polygon class="cls-4" points="751.16 209.47 754.47 211.97 748.89 213.56 751.16 209.47"/><polygon class="cls-4" points="763.22 211.97 767.63 213.56 765.42 215.22 763.22 211.97"/><polygon class="cls-4" points="740.56 205.06 741.81 208.06 744.39 206.22 740.56 205.06"/><polygon class="cls-4" points="744.24 321.91 741.74 327.79 727.55 329.56 733.89 329.56 741.89 329.56 744.39 328.02 744.24 321.91"/><polygon class="cls-4" points="743.47 332.31 745.62 338.56 754.31 333.31 755.75 326.18 757.17 333.56 747.11 339.56 742.89 339.56 743.47 332.31"/><polygon class="cls-4" points="759.16 339.56 764.3 338.56 761.89 340.56 759.16 339.56"/><polygon class="cls-4" points="730.8 337.56 735.22 338.56 732.07 340.56 730.8 337.56"/><polygon class="cls-4" points="672.01 387.31 675.89 389.56 680.89 389.56 685.26 381.18 681.89 389.97 679.39 391.18 675.51 390.56 672.01 387.31"/><polygon class="cls-4" points="684.77 386.78 692.11 389.1 698.76 381.62 691.77 390.91 684.77 386.78"/><polygon class="cls-4" points="695.14 370.93 692.39 373.18 694.51 375.18 695.14 370.93"/><polygon class="cls-4" points="704.6 364.96 698.71 369.02 700.59 375.56 702.37 375.56 701.65 374.38 700.26 369.65 704.6 364.96"/><polygon class="cls-4" points="713.39 351.85 716.93 358.56 726.56 358.56 730.86 355.3 726.05 362.14 715.16 359.62 713.39 351.85"/><polygon class="cls-4" points="726.54 340.1 728.9 344.2 726.54 352.15 727.72 346.13 726.54 340.1"/><polygon class="cls-4" points="715.62 373.3 720.86 367.46 716.06 375.24 706.06 374.01 715.62 373.3"/><polygon class="cls-4" points="652.91 397.67 655.91 401.93 664.4 399.83 668.92 397.89 665.43 400.81 656.45 404.08 652.91 397.67"/><polygon class="cls-4" points="703.39 381.56 707.14 383.74 706.06 384.98 701.65 381.56 703.39 381.56"/><polygon class="cls-4" points="709.89 380.56 709.89 381.56 717.38 378.31 709.89 380.56"/><polygon class="cls-4" points="673.89 397.56 673.89 399.56 677.76 394.86 673.89 397.56"/><polygon class="cls-4" points="683.14 394.86 686.51 393.56 685.26 395.24 683.14 394.86"/><polygon class="cls-4" points="679.89 400.56 680.89 400.56 682.89 402.26 682.39 403.56 679.89 403.56 679.89 400.56"/><polygon class="cls-14" points="735.89 245.67 739.64 244.97 742.47 249.93 741.76 256.88 741.64 250.31 739.18 245.97 735.89 245.67"/><polygon class="cls-15" points="718.55 227.85 725.28 226.84 730.3 229.16 731.55 235.18 729.39 229.97 725.28 228.27 718.55 227.85"/><polygon class="cls-15" points="728.3 225.03 734.33 221.56 732.14 209.47 730.3 208.06 732.76 209.47 735.39 221.56 728.3 225.03"/><polygon class="cls-15" points="714.03 210.46 712.35 212.28 718.08 213.68 721.45 215.31 722.24 221.78 717.64 226.64 713.12 226.79 717.06 225.33 718.92 222.22 720.61 220.53 719.8 215.26 716.43 213.8 710.56 212.36 714.03 210.46"/><path class="cls-4" d="M674.64,197.56l10.5-7.38,9.25,1.38,3.5,2.31s-3.88-1.69-4.25-1.69-8.13-.87-8.13-.87Z"/><polygon class="cls-4" points="686.26 205.43 688.26 200.56 694.89 200.56 697.89 203.1 694.51 201.56 688.89 201.56 686.26 205.43"/><path class="cls-4" d="M698.89,198.37s1.24-4,1.31-4.53,3.7-1.42,5.13-1.79l.56-.14,3-1v1.63l-1.75-.13L701,194.65Z"/><polyline class="cls-15" points="710.89 199.56 710.89 200.56 708.89 201.18 710.89 198.37"/><path class="cls-15" d="M708.89,203.93l6.59-1.37,2.41,2.5s-2.88-1-3.25-1.25S708.89,203.93,708.89,203.93Z"/><polygon class="cls-15" points="725.05 191.89 717.38 196.97 722.24 205.43 720.05 197.56 725.05 191.89"/><polygon class="cls-4" points="630.39 186.39 628.72 189.56 631.89 189.56 630.39 186.39"/><polygon class="cls-4" points="635.72 183.81 638.77 178.53 636.8 169.7 630.3 163.19 622.89 169.72 622.89 172.56 623.55 170.41 630.3 165.41 634.72 170.89 636.05 178.18 635.72 183.81"/><polygon class="cls-4" points="643.39 183.81 650.39 184.57 656.55 195.97 649.6 186.39 643.39 183.81"/><polygon class="cls-4" points="654.89 172.56 660.89 175.32 660.89 183.56 659.39 176.78 652.43 172.56 654.89 172.56"/><polygon class="cls-4" points="661.8 189.56 663.72 188.36 674.64 189.56 675.39 193.97 673.72 190.93 661.8 189.56"/><polygon class="cls-4" points="673.89 183.81 674.89 179.07 680.89 174.32 680.89 172.56 673.89 178.18 673.89 183.81"/><polygon class="cls-4" points="692.07 187.97 694.55 182.56 700.55 182.41 703.89 186.39 701.39 182.41 694.22 181.07 692.07 187.97"/><polygon class="cls-4" points="646.94 166.72 649.6 173.5 644.28 179.72 647.72 172.56 646.94 166.72"/><polygon class="cls-4" points="662.2 158.67 659.51 161.81 657.51 167.93 663.01 160.31 670.05 161.06 671.64 162.06 674.64 165.56 672.72 162.06 671.99 160.05 662.2 158.67"/><polygon class="cls-15" points="712.89 187.56 716.89 187.56 717.38 189.89 715.48 188.36 712.89 187.56"/><polygon class="cls-4" points="663.97 174.81 665.89 176.97 672.55 174.81 665.39 178.06 663.97 174.81"/><polygon class="cls-4" points="685.55 177.39 687.68 181.43 686.16 185.28 681.89 187.97 681.89 188.56 686.26 186.06 688.39 181.47 685.55 177.39"/><path class="cls-15" d="M705.88,223.57h0l1.25-1.36-1.25-2.66v3l-1.36-.14Z"/><path class="cls-4" d="M694,213.9l1.52-.34-1.25-2.84-1.1,2.54Z"/><path class="cls-4" d="M608.89,187.56l1,.06,2-4.06,8.16-5.5,2.84,1.66,2.75,7.76-2.11-9.4-4.2-1.82-9.38,6-2.34,5.23Z"/><path class="cls-14" d="M738.52,265.31l.37-2.34,2.92-3.41-5,2.83C737.42,263.42,738,264.41,738.52,265.31Z"/><path class="cls-15" d="M731.39,253l1.66,2.89-1.16-5.35h-2C730.42,251.38,730.91,252.2,731.39,253Z"/><path class="cls-4" d="M704.31,209.12c.16-.31.32-.63.47-1l-1.14-1.95-7.34,1.21,7.21.63Z"/><path class="cls-15" d="M704.31,209.12l4.58,6.1-4.11-7.05C704.63,208.49,704.47,208.81,704.31,209.12Z"/><path class="cls-15" d="M736.71,233.41l-.09-2.28,0,0-4.08-5.19,3,6Z"/><path class="cls-15" d="M737,242.58l-5.09,1H730.3l1.25,2.11,5.45-2.31C737,243.1,737,242.84,737,242.58Z"/><path class="cls-14" d="M736.62,231.13l.09,2.28-1.16-1.51,2.34,3-.34,7.52-.57.11c0,.26,0,.52,0,.78l1.89-.8v-8.29Z"/><polygon class="cls-4" points="738.14 139.14 735.43 144.93 742.47 151.56 750.89 151.56 741.55 152.73 732.89 144.23 737.72 136.73 738.14 139.14"/><polygon class="cls-4" points="750.05 160.39 759.72 164.72 764.22 158.67 759.72 166.72 750.05 160.39"/><polygon class="cls-4" points="736.71 157.56 743.39 160.64 744.39 158.71 744.01 161.66 734.6 157.56 736.71 157.56"/><polygon class="cls-4" points="766.89 167.93 771.19 168.72 769.04 170.89 766.89 167.93"/><polyline class="cls-4" points="720.05 134.56 721.22 135.22 729.39 139.89 731.85 138.72 727.05 141.56 723.22 138.06"/><polygon class="cls-4" points="712.89 125.22 719.22 126.22 716.05 131.06 712.89 125.22"/><polygon class="cls-4" points="706.89 120.56 710.89 120.56 709.89 122.37 703.22 120.56 706.89 120.56"/><polygon class="cls-4" points="710.89 133.22 712.89 134.06 711.89 135.39 708.89 134.56 710.89 133.22"/><polygon class="cls-4" points="717.38 136.73 716.05 138.06 716.72 139.06 718.05 137.89 717.38 136.73"/><polygon class="cls-4" points="725.89 146.56 729.89 146.56 727.89 149.06 725.89 146.56"/><polygon class="cls-4" points="717.89 149.56 723.89 149.56 721.78 150.39 717.89 149.56"/><polygon class="cls-4" points="699.39 117.01 698.89 118.56 700.89 118.56 699.39 117.01"/><path class="cls-4" d="M583.89,498.86v-2.3l1.83-3.12-2.92,2.2.92,3.25Z"/><path class="cls-4" d="M595.89,496.71v-3.15l2.58-6-4.79,5.49,1.41,3.8Z"/><path class="cls-4" d="M661.77,477.34l-2.38-.79-.94,2Z"/><path class="cls-4" d="M467.66,494.56l3.27,5L466.64,507l.3,0,5.95-6.49v-2.67l-4.71-5.08-8.88-1.59,2.22,3Z"/><path class="cls-4" d="M453.55,492.73l-13.17,11.16,2.71.44,12.46-10.77,1.17-3.6-9.67-9.73,7,9.73Z"/><polygon class="cls-4" points="142.96 438.61 142.15 442.49 145.24 443.86 149.91 441.23 144.6 445.35 140.74 442.9 142.96 438.61"/><polygon class="cls-4" points="166.35 427.07 165.08 429.06 167.12 433.5 160.68 441.98 154.94 440.24 153.02 441.98 160.07 443.31 169.11 433.81 166.81 429.52 166.35 427.07"/><polygon class="cls-4" points="149.91 431.2 151.16 435.53 153.02 436.5 149.91 431.2"/><polygon class="cls-4" points="158.19 448.85 160.07 453.93 171.25 451.39 172.79 450.51 174.78 449.74 172.02 452.7 159.46 455.52 154.94 449.89 158.19 448.85"/><polygon class="cls-4" points="175.15 438 179.71 440.88 177.94 444.24 174.82 447.3 176.09 445.35 177.89 443.31 177.89 442.08 175.15 438"/><polygon class="cls-4" points="174.78 419.89 173.05 424.56 184.22 417.22 174.78 419.89"/><polygon class="cls-4" points="198.72 413.81 197.13 417.22 197.19 419.22 190.39 426.06 198.72 419.93 197.89 417.22 198.72 413.81"/><polygon class="cls-4" points="179.71 430.56 184.22 434.68 191.05 428.72 184.22 438 179.71 430.56"/><polygon class="cls-4" points="141.74 448.06 140.74 450.22 145.32 454.68 136.89 450.22 141.74 448.06"/><polygon class="cls-4" points="146.89 459.56 152.89 459.56 149.91 462.68 146.89 459.56"/><polygon class="cls-4" points="134.46 457.37 137.84 462.33 136.34 463.07 131.66 454.86 134.46 457.37"/><polygon class="cls-4" points="136.14 468.56 140.14 465.8 143.26 467.18 141.74 468.56 136.14 468.56"/><polygon class="cls-4" points="127.22 462.68 129.89 463.89 129.22 466.56 125.67 463.07 127.22 462.68"/><polygon class="cls-4" points="206.89 410.56 210.89 410.56 208.17 413.81 203.72 410.56 206.89 410.56"/><polygon class="cls-4" points="201.89 426.06 205.89 425.22 204.55 427.07 200.89 428.72 201.89 426.06"/><polygon class="cls-4" points="219.76 412.18 222.24 410.47 227.14 409.31 219.76 412.18"/><polygon class="cls-4" points="234.89 407.56 234.89 412.56 239.14 409.31 234.89 407.56"/><polygon class="cls-4" points="247.55 409.31 249.68 406.31 251.89 407.56 247.55 409.31"/><polygon class="cls-4" points="253.89 412.56 253.89 413.56 255.89 412.18 255.89 410.56 253.89 412.56"/><polygon class="cls-4" points="261.89 406.56 263.89 406.56 262.89 409.31 260.08 407.56 261.89 406.56"/><polygon class="cls-4" points="270.89 409.56 271.89 409.56 271.39 410.74 268.55 410.06 270.89 409.56"/><polygon class="cls-4" points="283 414.06 280.35 417.09 276.62 412.59 281.97 408.74 279.63 412.01 280.49 415.48 283 414.06"/><polygon class="cls-4" points="288.64 419.99 292.85 421 293.89 419.93 293.89 417.56 293.05 419.28 288.64 419.99"/><polygon class="cls-4" points="307.62 459.06 309.24 450.67 303.14 447.87 312 448.72 307.62 459.06"/><polygon class="cls-4" points="323.96 450.67 318.55 441.54 323.76 445.58 323.96 450.67"/><path class="cls-4" d="M337.22,461.89l-3.58,3.33,1.65,4.48.93.37-.29-4.32,3.87-4.63-15.66-6.26-5.25,4.1,5.41-2.39Z"/><circle class="cls-16" cx="407.55" cy="206.22" r="3.25"/><circle class="cls-16" cx="394.55" cy="219.22" r="3.25"/><circle class="cls-16" cx="379.55" cy="230.22" r="3.25"/><circle class="cls-16" cx="415.55" cy="220.22" r="3.25"/><circle class="cls-16" cx="436.55" cy="221.22" r="3.25"/><circle class="cls-16" cx="459.55" cy="221.22" r="3.25"/><circle class="cls-16" cx="483.55" cy="220.22" r="3.25"/><circle class="cls-16" cx="509.55" cy="218.22" r="3.25"/><circle class="cls-16" cx="531.55" cy="215.22" r="3.25"/><circle class="cls-16" cx="554.55" cy="213.22" r="3.25"/><circle class="cls-16" cx="575.55" cy="211.22" r="3.25"/><circle class="cls-16" cx="599.55" cy="209.22" r="3.25"/><circle class="cls-16" cx="623.55" cy="211.22" r="3.25"/><circle class="cls-16" cx="645.55" cy="215.22" r="3.25"/><circle class="cls-16" cx="665.55" cy="222.22" r="3.25"/><circle class="cls-16" cx="683.55" cy="233.22" r="3.25"/><circle class="cls-17" cx="699.55" cy="248.22" r="3.25"/><circle class="cls-17" cx="714.55" cy="266.22" r="3.25"/><circle class="cls-17" cx="727.55" cy="284.22" r="3.25"/><circle class="cls-16" cx="426.55" cy="207.22" r="3.25"/><circle class="cls-16" cx="447.55" cy="208.22" r="3.25"/><circle class="cls-16" cx="470.55" cy="208.22" r="3.25"/><circle class="cls-16" cx="494.55" cy="206.22" r="3.25"/><circle class="cls-16" cx="518.55" cy="204.22" r="3.25"/><circle class="cls-16" cx="540.55" cy="201.22" r="3.25"/><circle class="cls-16" cx="563.55" cy="199.22" r="3.25"/><circle class="cls-16" cx="585.55" cy="197.22" r="3.25"/><circle class="cls-16" cx="611.55" cy="197.22" r="3.25"/><circle class="cls-16" cx="633.55" cy="200.22" r="3.25"/><circle class="cls-16" cx="658.55" cy="206.22" r="3.25"/><circle class="cls-16" cx="680.55" cy="215.22" r="3.25"/><circle class="cls-17" cx="701.55" cy="231.22" r="3.25"/><circle class="cls-17" cx="718.55" cy="249.22" r="3.25"/><circle class="cls-17" cx="731.55" cy="268.22" r="3.25"/><path class="cls-16" d="M497.07,230.19a3.23,3.23,0,0,0-5.51.77Z"/><path class="cls-18" d="M733.78,312.94c.75-1.79,1.6-3.84,2.44-5.9a3.71,3.71,0,0,0-.67-.07,3.25,3.25,0,0,0-1.77,6Z"/><path class="cls-18" d="M740.9,293c.31-1.76.62-3.82.91-5.94a3.23,3.23,0,0,0-.91,5.94Z"/><path class="cls-16" d="M403,235.31a3.26,3.26,0,1,0-5-.11Z"/><path class="cls-16" d="M424.52,235.53a3.17,3.17,0,0,0,.28-1.31,3.25,3.25,0,1,0-6.5,0,3.16,3.16,0,0,0,.28,1.3C420.54,235.53,422.52,235.54,424.52,235.53Z"/><path class="cls-16" d="M444.8,235.24v0a3.25,3.25,0,1,0-6.5,0c0,.06,0,.12,0,.18C440.49,235.36,442.65,235.3,444.8,235.24Z"/><path class="cls-16" d="M469.44,233.76a3.22,3.22,0,0,0-6,.52C465.49,234.12,467.49,234,469.44,233.76Z"/><circle class="cls-16" cx="649.55" cy="496.22" r="3.25"/><circle class="cls-16" cx="615.55" cy="506.22" r="3.25"/><circle class="cls-16" cx="579.55" cy="514.22" r="3.25"/><circle class="cls-16" cx="539.55" cy="520.22" r="3.25"/><circle class="cls-16" cx="499.55" cy="522.22" r="3.25"/><circle class="cls-16" cx="460.55" cy="519.22" r="3.25"/><circle class="cls-16" cx="422.55" cy="511.22" r="3.25"/><circle class="cls-16" cx="390.55" cy="502.22" r="3.25"/><circle class="cls-16" cx="356.55" cy="491.22" r="3.25"/><path class="cls-16" d="M328.43,483.34a3.25,3.25,0,1,0-4.13-3.12,3.31,3.31,0,0,0,.29,1.33C325.87,482.14,327.15,482.73,328.43,483.34Z"/><path class="cls-16" d="M604.33,517.51a3.19,3.19,0,0,0-1.78-.54,3.26,3.26,0,0,0-3,2Q602,518.27,604.33,517.51Z"/><path class="cls-16" d="M681.35,484.6c1.8-1,3.6-2,5.39-3a3.25,3.25,0,1,0-5.39,3Z"/><path class="cls-16" d="M718.75,460.84a3.21,3.21,0,0,0-2.2-.87,3.23,3.23,0,0,0-2.94,4.61C715.34,463.35,717.05,462.11,718.75,460.84Z"/><path class="cls-16" d="M741.73,441.2a3.3,3.3,0,0,0-1.18-.23,3.2,3.2,0,0,0-3.06,4.29C738.93,443.93,740.34,442.57,741.73,441.2Z"/><path class="cls-16" d="M756.44,425.11a3.31,3.31,0,0,0-.89-.14,3.23,3.23,0,0,0-2.94,4.61C753.89,428.1,755.17,426.62,756.44,425.11Z"/><path class="cls-16" d="M767.72,411l-.17,0a3.21,3.21,0,0,0-3.08,4.24Q766.12,413.11,767.72,411Z"/><path class="cls-16" d="M438.48,527.83a3.23,3.23,0,0,0-4.79-1.27Q436.09,527.22,438.48,527.83Z"/><path class="cls-16" d="M482.56,536a3.24,3.24,0,0,0-5.69-.58Q479.78,535.75,482.56,536Z"/><path class="cls-16" d="M523.77,534.91a3.24,3.24,0,0,0-6.47.31c0,.11,0,.21,0,.32C519.46,535.35,521.6,535.15,523.77,534.91Z"/><path class="cls-16" d="M565.54,527.93a3.25,3.25,0,0,0-6.24,1.29s0,0,0,0Q562.42,528.62,565.54,527.93Z"/><path class="cls-16" d="M270.6,459a2.75,2.75,0,1,0-4.8-1.82,2.85,2.85,0,0,0,0,.41C267.43,458.07,269,458.53,270.6,459Z"/><path class="cls-16" d="M249.82,454.26a2.43,2.43,0,0,0,.23-1,2.5,2.5,0,0,0-5,0,1.84,1.84,0,0,0,0,.41C246.66,453.82,248.24,454,249.82,454.26Z"/><path class="cls-16" d="M234.73,452.76a2.35,2.35,0,0,0,.07-.54,2.25,2.25,0,0,0-4.5,0,2,2,0,0,0,0,.36C231.79,452.62,233.25,452.69,234.73,452.76Z"/><path class="cls-16" d="M219.52,452.6a2.34,2.34,0,0,0,0-.38,2,2,0,0,0-4,0,2.26,2.26,0,0,0,.08.53C216.91,452.69,218.2,452.64,219.52,452.6Z"/><path class="cls-16" d="M206.54,453.37c0-.05,0-.1,0-.15a2,2,0,0,0-4,0,2.43,2.43,0,0,0,.08.54C203.9,453.62,205.2,453.49,206.54,453.37Z"/><path class="cls-16" d="M300.06,470.8a3,3,0,1,0-4.51-2.58,3.09,3.09,0,0,0,.11.75Z"/><path class="cls-19" d="M247.57,65.67a54.68,54.68,0,0,1-2.68-18.61s-10.25,10.75-15,17.25-11.25,18-15,24.25-12.25,25.25-13.25,31.25,1.41,3.58,2.25,2.41,7.83-12,12.16-17.83,21.84-29.67,25.17-33A82.36,82.36,0,0,1,247.57,65.67Z"/><path class="cls-19" d="M255.3,80c-1-1.57-2-3.06-2.91-4.44-.35-.52-.69-1-1-1.57,0,0-9.89,12.37-12.49,15.9-2.5,3.38-13.3,18.92-14.4,22s-1,5.38,0,4.13,5.15-7.38,7.52-10.5,9.7-12,13.38-16C248.44,86.25,255.3,80,255.3,80Z"/><path class="cls-19" d="M262,91.39q-1.39-2.52-2.79-4.91s-9,11.2-9.47,13.58-1.37,5.87-3.37,8.5-8.75,12.37-8.75,12.37-1.13,2.79-.38,2.77,4.75-4.89,4.75-4.89,7.1-8.29,7.5-8.63c1.5-1.25,3.82-9.56,4.25-10.12C255.1,98.28,262,91.39,262,91.39Z"/><path class="cls-19" d="M267.21,101.33q-.93-1.89-1.89-3.75s-5.52,6-7.6,8.64-3.08,7.91-2.83,8.5.08,1.33.91,0a79.31,79.31,0,0,1,5.23-7.59C262.73,105.3,267.21,101.33,267.21,101.33Z"/><path class="cls-19" d="M272.54,113q-1.05-2.52-2.19-5s-5.8,6.42-7.55,8.92-7.67,10.17-7.5,12.5.25,2.25,1.09,1.17,4.43-5.63,5.63-6.86,5.25-6.12,6.7-7.29C269.89,115.46,272.54,113,272.54,113Z"/><path class="cls-19" d="M183.38,245.55c-2.49,1.32-4.72,2.52-6.47,3.55,0,0-5.07-7.19-7-10.38-3.63-5.91-7.67-17.17-8.84-21.67s-.79-13.62-.29-15,3.13-5.75,4.25-6-2.12,5.87-1.75,8.75a70.21,70.21,0,0,0,2.88,12.75c1.75,5,6,12.35,7.87,15.5C176.64,237.43,183.38,245.55,183.38,245.55Z"/><path class="cls-19" d="M202.71,235.36c-3,1.66-6.24,3.38-9.48,5.06,0,0-4.51-7.53-6-11.86s-6.17-14.42-7.17-17-1.16-8.63,0-13.63,1.67-13.67,1.17-17.33-1.33-18,1-20.34c0,0,.17,8.67.33,10.5s1.17,10.84,1.67,12.34a46.11,46.11,0,0,1,1.33,10c0,2.38-1.66,8.5.5,13.5a168.87,168.87,0,0,0,8.17,15.23C196.22,225.22,202.71,235.36,202.71,235.36Z"/><path class="cls-19" d="M212.87,230.09a20.44,20.44,0,0,0-4.48,2s-3.25-6.09-3.75-7.59-.25-7.91-1.25-9.75-1.92-7.66-1.92-7.66,3.5,7.16,4.17,7.66,1.5,8,2.58,8.75S212.87,230.09,212.87,230.09Z"/><path class="cls-19" d="M226.38,227.27c-1.87.28-3.68.57-5.39.88a91,91,0,0,1-3-11.09c-.5-3.63-1-11,0-15.38a43,43,0,0,1,3.9-9.5s1.6-2.87,1.23,0-3.38,9.38-2.63,12.38,2.88,14.75,3.88,16.37S226.38,227.27,226.38,227.27Z"/><path class="cls-19" d="M235.12,226.09l-5.34.7a5.86,5.86,0,0,1-1-4.22c.5-2.14.75-3.64,1.75-3.76s2,3.4,2.38,3.76S235.12,226.09,235.12,226.09Z"/><path class="cls-19" d="M253,223.5c-2,.35-4,.67-6,1a71.45,71.45,0,0,1-4.4-5.91c-1-1.75-2.25-6.88-2.25-10.38s.12-12.37-.63-15.62-.12-11,0-11.5.88,1.12,1.5,4.87,2.25,6.49,2.63,10.12,1.12,11.13,2.31,14.63,3.69,8.75,4.94,10A9.22,9.22,0,0,1,253,223.5Z"/><path class="cls-19" d="M279.25,215.51a68,68,0,0,0-8.36,3.05s-7.13-6.5-9.25-10.25-4.75-7.88-5.25-12.5-1-12.13,0-13.38,1.12-1.5,1.87,2.5,2.5,11.31,5.13,15.16,5.75,8.41,8.37,9.44S279.25,215.51,279.25,215.51Z"/><path class="cls-1" d="M481.51,68.43c-4,3.88-11.5,9.88-18.5,17.63s-17,22.76-17.75,24a4.35,4.35,0,0,0-.27,2.34h-.09c5.92-.53,13.21,1.72,26.49,6.15,0,0,2-2.18,3.16-3.51a184.54,184.54,0,0,1,15.17-13.33c4.17-3,13.17-5.84,13.17-5.84s1.5-1.66,0-2-6,1.34-4.34,0,13.5-5.66,13.5-5.66a20.38,20.38,0,0,1-3.5-1c-1-.5,1.67-3.5,1.34-4.67s-2.5-.17-2.5-.17-2.34,2-4.34,1.51-.33-2.5,1.34-3.67,8.5-3.83,8.5-3.83l-.17-3.17a1,1,0,0,1-1.5,0c-.83-.83,1.5-2.33,1.5-2.33a2.15,2.15,0,0,1-2-1.17,15.88,15.88,0,0,1-6,2.33c-3,.34-.33-3,1.83-4.66s10.84-5.66,10.84-5.66l-.34-1.68a8.26,8.26,0,0,0-1.83.67c-1,.5-1.17-1.44-1.17-1.44l1-2.06a11.15,11.15,0,0,1-4.33,2.06c-2.83.72.42-3.22,2.17-4.47s24-16,26.75-17.5,4.62-5.13,4.62-5.13c-6.12,2.75-28.87,15.25-35.75,19.88S485.51,64.56,481.51,68.43Z"/><path class="cls-3" d="M445.26,110.06C446,108.82,459,92.93,466.1,85.25c6.64-7.22,11.48-11.93,16.66-15.82,4.33-3.25,18.88-12.75,25.75-17.37s29.63-17.13,35.75-19.88,40.63-14.79,48.63-17.29,32.16-9.16,39-10.83a95.78,95.78,0,0,1,16.16-2.5c5.34-.5,5.17-.67,5.17-.67s-1.33-2-18.33,0-68,17.67-94.34,28.33-57,31.67-67.33,40.34-29.67,32-32.67,36.66-1.66,7.84-1.66,7.84a17.38,17.38,0,0,1,6.1-1.66A4.35,4.35,0,0,1,445.26,110.06Z"/><path class="cls-3" d="M471,115.81c1.59-1.34,6.26-6.43,9.63-9.13a96.92,96.92,0,0,1,9.62-7,44.14,44.14,0,0,1,8-3,31.77,31.77,0,0,1,4.63-.8s-9,2.84-13.17,5.84a184.54,184.54,0,0,0-15.17,13.33c-1.16,1.33-3.16,3.51-3.16,3.51l-3.61-1.2A20.3,20.3,0,0,0,471,115.81Z"/><path class="cls-3" d="M517.05,60.05a8.26,8.26,0,0,0-1.83.67s-9.33,5.87-11.08,6.67a18.57,18.57,0,0,1-4,1.15h0l.34-.24c4.13-2.93,7.41-4.81,13.58-9l1-2.06s-1.31.87-4.75,2.92c0,0-18.65,11.52-25,16.58a113.4,113.4,0,0,0-15.4,15.22c-4.22,4.84-13.71,16.12-14.54,18l-1.67,3.34c.94.21,1.92.45,3,.73a29.87,29.87,0,0,1,3-5.83c2.16-2.92,10.21-12,12.58-15.33a122.14,122.14,0,0,1,13-13.59c.8-.7,1.6-1.37,2.38-2a42,42,0,0,1,6.3-3.64c3-1.13,8.13-2.57,9.5-3.75s3-2.42,3-2.42c2.17-1.67,10.84-5.66,10.84-5.66Z"/><path class="cls-3" d="M512.72,73.22,510,75.37c-1.37.94-5.58,2.92-9.12,5.19-2.84,1.81-9,5.55-13.14,8.79-2.09,1.63-5,4.06-7.61,6.41a45.63,45.63,0,0,1,4.37-6.45,35.37,35.37,0,0,1,7.88-6.13c2.5-1.37,9.87-6.66,11.62-7.81,2.38-1.56,8.71-4.48,8.71-4.48a2.15,2.15,0,0,1-2-1.17,17.57,17.57,0,0,1-3.13,1.59s-8.08,4.12-10.58,6.5-8.12,5-10.5,7.12a63.13,63.13,0,0,0-7.37,8.88c-1.25,1.87-5.41,8-5.41,8h0c-.18.2-.35.38-.47.53-1.75,2.12-10.65,13.38-10.65,13.38l3.07,1s5.06-6.56,11.21-14c5.62-6.8,12.26-11.5,15.87-14.5,3.13-2.59,11.63-8,11.63-8,1.66-1.17,8.5-3.83,8.5-3.83Z"/><path class="cls-3" d="M508.42,88.56c-2.05.71-6.53,2.33-10.28,4.08-2.48,1.16-4.07,1.12-6.26,1.78,0,0-.08-.14.9-1s.86-.5,2-1.5a48.39,48.39,0,0,1,5.88-3.79,39.61,39.61,0,0,0,5.12-3.25,9.9,9.9,0,0,1,2.63-2.09,3,3,0,0,1,1.46-.29c-.34-1.17-2.5-.17-2.5-.17A43.91,43.91,0,0,1,503.8,85c-1.16.67-6.41,3.83-8.16,5a29.58,29.58,0,0,0-4.25,3.23c-.5.6-3.14,3.06-3.14,3.06l.06,0c-2.32,1.51-4.83,3.59-6.09,4.58-1.89,1.49-9.05,6.41-9.05,6.41l-3.37,4.2s7.17-5,10.34-7.19c1.67-1.15,3.78-3.19,7.61-6.11a16.22,16.22,0,0,1,6.32-2.94,19.22,19.22,0,0,0,4.48-1.3c1.67-1.33,13.5-5.66,13.5-5.66A7.12,7.12,0,0,0,508.42,88.56Z"/><path class="cls-1" d="M402.14,204.3a110.56,110.56,0,0,1,12.25-2.5,142.85,142.85,0,0,1,29.5,0c11,1.25,32.25,5.75,38,8s24,9.25,28.75,12.5,12.5,9.43,14.5,12.47,2,5.29,1.75,11-.5,8-1.75,9.75c0,0-2,2.25-3.5,2.25s-8,2.25-10.25,2.25-6.25,3.75-9.5,6.75-3.75,5.75-7,5.76-10.75-1.26-15-4.76-20.25-8.75-22.5-9-18.5-16-25.75-18.25-9-7.5-11-11.5-9-13.75-13.25-16.5S402.14,204.3,402.14,204.3Z"/><path class="cls-3" d="M511.87,236.14c-6.13-4-16.62-10.48-20.74-12.49s-20.51-7.07-26.4-8.48-18-3.18-24.16-4.13-18.74-.59-23-.12-10.2,1.63-10.2,1.63c.24.16.5.35.76.56-.26-.21-.52-.4-.76-.56a11.34,11.34,0,0,1-3.72-4.15c.11,0,11.72-3.49,19.46-3.72s19.56-.24,24.51.94,22.51,2.95,28.4,4.83,20.28,7.31,25.11,9.31a85.3,85.3,0,0,1,14,7.9c3.18,2.24,10,7.11,10,7.11-2-3-9.75-9.22-14.5-12.47s-23-10.25-28.75-12.5-27-6.75-38-8a142.85,142.85,0,0,0-29.5,0,110.56,110.56,0,0,0-12.25,2.5v.08a.32.32,0,0,1,0-.07s-4.49,2.61-2.92,7.42c1.25,3.84,9,11,11,15s14.17,11.58,21.42,13.83,23.5,18,25.75,18.25h.1l.16,0,.21,0,.14,0,.3.07.11,0,.41.11h0c4.62,1.22,17.34,5.62,21.06,8.69.31.25.65.5,1,.73l.25.16c.32.21.65.41,1,.6l.07,0h0a30.38,30.38,0,0,0,11.59,3.17,30.38,30.38,0,0,1-11.59-3.17,36.43,36.43,0,0,0-3.79-5.26c-1.94-2.13-4.51-4.69-6.06-6.06s-17.45-13-22.4-15.51-14.5-6.54-18.3-7.87a40.87,40.87,0,0,0-9.05-1.65c-.31-.56-.6-1.13-.87-1.69,0,0,7.63.16,11,1s16.08,4.42,20.94,6.63,9.91,3.7,14.46,6.23,16.48,9.15,19.48,11.27,8.14,6.54,9.55,7.78a39.78,39.78,0,0,1,3.49,3.84l.22-.24c-1.78,1.93-2.64,3.61-4.17,4.33,1.54-.72,2.4-2.42,4.19-4.36l.21-.21a10.23,10.23,0,0,1,.81-.8c2.61-2.42,5.71-5.31,8-6.35a6.23,6.23,0,0,1,.7-.27l.16,0a3,3,0,0,1,.64-.09h0c2.25,0,8.75-2.25,10.25-2.25a1.89,1.89,0,0,0,.55-.1h0a3.4,3.4,0,0,0,.53-.23l.09-.05a4.48,4.48,0,0,0,.47-.28l.17-.12.34-.26.3-.24h0c.58-.51,1-1,1-1s-10.5-10.62-14.71-11.83-3.27-3.8-14.59-5.45-17-1.1-17.69-1.38h0c-6.9-2.78-14.78-5.57-20.76-7.46-10.08-3.19-19.1-4.6-26.7-6a56.08,56.08,0,0,0-14.05-.71l0,0a65.58,65.58,0,0,0-6.46-7.82l.17.17a49.79,49.79,0,0,1,11.6-1.22c5.42.24,13.91-.6,20.83.66,6.49,1.18,17.12,2.05,26.43,5s17.68,4.77,25.54,8.92a169.19,169.19,0,0,1,19.76,12.42c2.45,2,12,10.07,12,10.07.08-.76.15-1.64.2-2.64C526.81,247.55,511.87,236.14,511.87,236.14ZM402.2,204.6c0-.08,0-.14,0-.19S402.18,204.53,402.2,204.6Zm1.39,3.65c-.09-.17-.17-.32-.24-.48Q403.46,208,403.59,208.25Zm-.37-.74c-.08-.18-.16-.35-.23-.52C403.06,207.16,403.14,207.33,403.22,207.51Zm-.3-.69c-.09-.23-.18-.44-.25-.65C402.74,206.37,402.83,206.59,402.92,206.82Zm-.28-.74c-.06-.18-.12-.34-.16-.49C402.52,205.74,402.58,205.9,402.64,206.08Zm-.21-.65c0-.12-.07-.23-.1-.34C402.36,205.2,402.39,205.31,402.43,205.43Zm-.14-.48-.07-.25C402.24,204.77,402.26,204.86,402.29,205Zm22.46,31.23.21.23Zm.66.71a3.45,3.45,0,0,0,.28.26A3.45,3.45,0,0,1,425.41,236.89Zm.73.68.32.27Zm.81.66.36.25Zm.91.61.39.24Zm1,.58.39.21Zm1.17.55.35.15Zm27.61,18.88.14,0Zm.36.07.22.05Zm.42.1.33.09Zm22.7,9.69c.31.2.63.39,1,.58C481.77,269.1,481.45,268.91,481.14,268.71Zm-49.3-32.14c3.16,1.25,13.15,5.05,16,6.82s12.2,7.25,15.29,9.81,6.09,4.15,8.08,6,8.7,8.64,8.7,8.64c.31.26.64.5,1,.74-.35-.24-.68-.48-1-.74-3.7-3-16.32-7.42-21-8.66l.27.07a13.09,13.09,0,0,0-2.59-4.24c-1.68-1.68-5-4.15-8.78-7.13a67.47,67.47,0,0,0-14.35-8.63,45.87,45.87,0,0,0-8.74-3.1,15.41,15.41,0,0,1-1-1.32A38.6,38.6,0,0,1,431.84,236.57Zm-8.74-2.69c-.18-.29-.34-.58-.5-.87C422.76,233.3,422.92,233.59,423.1,233.88Zm.55.85c-.16-.23-.31-.47-.46-.71C423.34,234.26,423.49,234.5,423.65,234.73Zm86.94,25.46.14,0Zm11.65-2.49a3.85,3.85,0,0,0,.52-.22A3.85,3.85,0,0,1,522.24,257.7Zm.63-.28c.15-.08.31-.18.46-.28C523.18,257.24,523,257.34,522.87,257.42Zm.64-.41.33-.24ZM495.34,240c3.09.67,5.62.64,11.23,3.38s10.58,7.52,12.3,9.24,2.77,5.23,2.77,5.23a1.75,1.75,0,0,0,.54-.09,1.75,1.75,0,0,1-.54.09c-1.5,0-8,2.25-10.25,2.25a46,46,0,0,0-3.73-4.9c-2.3-2.65-10.61-9-17.68-12.91-1.68-.92-3.84-2-6.28-3C486.63,239.27,493,239.43,495.34,240Zm-77.28-15.16s9.61-.49,15.18,1,17.37,3.62,23.51,5.84c5.79,2.09,21.12,5.92,24.66,8.22s12.9,6.54,17.67,10.43,8.16,6.51,9.55,8.3l1.21,1.88h0c-2.29,1-5.38,3.93-8,6.34-.29.27-.55.53-.8.79.25-.26.51-.52.8-.79,0,0-8.6-9-12.84-11.58s-18.42-10.82-26.66-14.83c-7.6-3.71-21.67-8.2-27.67-9.7a77.47,77.47,0,0,0-14.08-1.64,44.94,44.94,0,0,0-2.71-4.45C418,224.66,418,224.72,418.06,224.79Zm3.49,6.16c-.13-.29-.27-.57-.41-.86C421.28,230.38,421.42,230.66,421.55,231ZM409.3,214.08l.53.5Zm-.87-.75c.18.14.35.29.54.45C408.78,213.62,408.61,213.47,408.43,213.33Z"/><path class="cls-3" d="M526.89,245.8c0,.45,0,.86-.06,1.26,0-.4,0-.81.06-1.25.06-1.44.11-2.66.11-3.73C527,243.15,527,244.37,526.89,245.8Z"/></g></g></svg>