<svg xmlns="http://www.w3.org/2000/svg" viewBox="0 0 109.92 42.92"><defs><style>.cls-1{fill:#f1ecce;}</style></defs><title>whaleshark_name</title><g id="圖層_2" data-name="圖層 2"><g id="whaleshark_name"><path class="cls-1" d="M1.45,17.65c7.62.34,15.4-1.32,22.77-3.13,1.87-.46,1.08-3.35-.8-2.89-7.13,1.75-14.59,3.35-22,3-1.93-.09-1.93,2.91,0,3Z"/><path class="cls-1" d="M12.28,8.29a79.59,79.59,0,0,1-10.81,29C.43,39,3,40.47,4.06,38.84A81.82,81.82,0,0,0,15.18,9.09c.33-1.89-2.56-2.7-2.9-.8Z"/><path class="cls-1" d="M12.1,17.88c5.1,3.78,9.19,9.81,11.83,15.64.8,1.75,3.39.23,2.59-1.52-2.88-6.35-7.25-12.52-12.91-16.71-1.55-1.15-3,1.46-1.51,2.59Z"/><path class="cls-1" d="M44.22,3.41C43,7,41,10.19,39.53,13.64c-.74,1.73,1.58,3.23,2.59,1.52.23-.4.37-.82.6-1.21a1.5,1.5,0,0,0-2.59-1.52c-.23.4-.37.82-.6,1.21l2.59,1.52c1.58-3.69,3.66-7.15,5-11,.64-1.82-2.25-2.61-2.89-.79Z"/><path class="cls-1" d="M45.76,9.79a31.44,31.44,0,0,1,4.75-.25L49,8a11.72,11.72,0,0,1-2.67,6.2c-1.18,1.53,1.43,3,2.59,1.52A14.27,14.27,0,0,0,52,8a1.52,1.52,0,0,0-1.5-1.5A36.57,36.57,0,0,0,45,6.9c-1.91.29-1.1,3.18.79,2.89Z"/><path class="cls-1" d="M40.3,18.44c.24,3.2,0,6.38-.07,9.58h3V25.9a1.5,1.5,0,0,0-3,0V28a1.5,1.5,0,0,0,3,0c0-3.2.31-6.38.07-9.58-.14-1.92-3.14-1.93-3,0Z"/><path class="cls-1" d="M43.4,19.33c1.89-1.13,5.84-4.13,7.46-1.27a7.34,7.34,0,0,1,.77,3,11.32,11.32,0,0,1,.06,1.84,4.13,4.13,0,0,0-.07.68c.15.76-.75,0,.5.25-1.89-.32-2.7,2.57-.8,2.9,4.43.76,3.59-6.33,2.76-8.81-.73-2.18-2.4-4.07-4.83-4.12-2.65-.05-5.18,1.62-7.37,2.92a1.5,1.5,0,0,0,1.52,2.59Z"/><path class="cls-1" d="M43.4,25.08c2.24-1.1,4.56-2,6.9-2.88,1.79-.67,1-3.57-.79-2.89-2.58,1-5.15,2-7.63,3.18-1.73.85-.21,3.44,1.52,2.59Z"/><path class="cls-1" d="M44.77,17.43V25.3a1.5,1.5,0,0,0,3,0V17.43a1.5,1.5,0,0,0-3,0Z"/><path class="cls-1" d="M44,29.92a79.3,79.3,0,0,1,8.42-3.48c1.78-.7,1-3.6-.79-2.89a84.86,84.86,0,0,0-9.14,3.78c-1.7.92-.19,3.51,1.51,2.59Z"/><path class="cls-1" d="M41.8,29.74q-1.14,2.91-2.48,5.73c-.35.74-.71,1.47-1.07,2.2-.13.27-1.54,2.58-.67,2.27l1.69,2.2.19-.34c1.18-1.51-.93-3.64-2.12-2.12a5.2,5.2,0,0,0-.66,1c-.53,1.07.37,2.69,1.69,2.2,1.7-.61,2.46-3.6,3.18-5.11,1.13-2.36,2.19-4.74,3.14-7.18.71-1.8-2.19-2.58-2.89-.8Z"/><path class="cls-1" d="M43.16,31.51c1.55,3.05,1.61,6.48,1.61,9.83a1.5,1.5,0,0,0,3,0c0-3.91-.22-7.79-2-11.35-.87-1.72-3.46-.21-2.59,1.52Z"/><path class="cls-1" d="M46.79,29.69A19.47,19.47,0,0,1,49,39.22a1.5,1.5,0,0,0,3,0,22.69,22.69,0,0,0-2.63-11,1.5,1.5,0,0,0-2.59,1.52Z"/><path class="cls-1" d="M51.64,27.87c1.57,3.69,3.26,7.9,2.82,12-.21,1.92,2.8,1.9,3,0C58,35.23,56,30.52,54.23,26.36c-.76-1.77-3.34-.25-2.59,1.51Z"/><path class="cls-1" d="M59.8,6.77c.7.27,1.42.51,2.11.8a5.55,5.55,0,0,1,1.23.63,1.54,1.54,0,0,0,2,.53,1.51,1.51,0,0,0,.54-2.05c-1.22-1.62-3.33-2.1-5.13-2.81a1.52,1.52,0,0,0-1.85,1,1.54,1.54,0,0,0,1,1.85Z"/><path class="cls-1" d="M58.17,13.12a53.67,53.67,0,0,1,9.69-2.42c1.9-.34,1.09-3.24-.8-2.89a53.77,53.77,0,0,0-9.68,2.42c-1.79.68-1,3.58.79,2.89Z"/><path class="cls-1" d="M59,15.61c0,1.24-.07,2.47-.13,3.71l-.09,2c0,.26,0,.51,0,.77s-.07.19,0,0h2.89c0,.36.05.44.05.25a1.5,1.5,0,0,0-3,0,3.43,3.43,0,0,0,.06.55c.26,1.64,2.41,1.19,2.89,0a11,11,0,0,0,.21-3.24c.06-1.32.13-2.64.14-4a1.5,1.5,0,0,0-3,0Z"/><path class="cls-1" d="M61.2,17.36c1.41-.37,3.16-.92,4.61-.62a.71.71,0,0,1,.33.13c0,.05-.45-.53-.23-.26-.11-.14.08-.23,0-.08s0,.17-.14.34c-1,2-3.64,3.47-5.64,4.26-1.78.69-1,3.6.8,2.89,2.91-1.14,7-3.4,7.87-6.69,1.31-4.87-6.06-3.47-8.37-2.86a1.5,1.5,0,0,0,.8,2.89Z"/><path class="cls-1" d="M63.24,21.36c0,3.32.53,6.7-.55,9.9l2.2-.9a10.62,10.62,0,0,1-3.63-3.09c-.76-.95-2.18-.3-2.51.66a24.45,24.45,0,0,1-3.85,7.81c-1.2,1.49.91,3.62,2.12,2.12a28.35,28.35,0,0,0,4.62-9.14l-2.5.67A12.45,12.45,0,0,0,63.38,33a1.52,1.52,0,0,0,2.2-.9c1.18-3.47.71-7.09.66-10.69,0-1.93-3-1.93-3,0Z"/><path class="cls-1" d="M66.46,28.26c4.41,1.1,7.2,6.05,7.68,10.36.21,1.9,3.21,1.92,3,0-.63-5.62-4.07-11.8-9.88-13.25-1.88-.47-2.68,2.42-.8,2.89Z"/><path class="cls-1" d="M84.11,8.68a66.53,66.53,0,0,1,7.57-.91c1.93,0,1.93-3,0-3a66.53,66.53,0,0,0-7.57.91c-1.89.24-1.91,3.24,0,3Z"/><path class="cls-1" d="M85.12,13.77c2.41-.7,4.8-1.59,7.26-2.12,1.89-.4,1.09-3.3-.8-2.89-2.46.53-4.84,1.42-7.26,2.12a1.5,1.5,0,0,0,.8,2.89Z"/><path class="cls-1" d="M85.42,18.61c3.11-.44,5.91-2.15,8.53-3.78,1.64-1,.13-3.62-1.51-2.59-2.43,1.51-4.93,3.07-7.82,3.48-1.9.27-1.09,3.16.8,2.89Z"/><path class="cls-1" d="M97.75,1.42A59.82,59.82,0,0,1,98.05,9a1.5,1.5,0,0,0,3,0,59.82,59.82,0,0,0-.3-7.57c-.25-1.88-3.25-1.91-3,0Z"/><path class="cls-1" d="M97,4.3A27.29,27.29,0,0,0,93,8.54a1.55,1.55,0,0,0,0,2.12,1.51,1.51,0,0,0,2.12,0A27.29,27.29,0,0,1,99.1,6.42,1.5,1.5,0,0,0,97,4.3Z"/><path class="cls-1" d="M100.76,7.77h4.84l-1.44-1.9a17.06,17.06,0,0,1-3.85,7.21c-1.34,1.4.78,3.52,2.12,2.12a20.21,20.21,0,0,0,4.62-8.53,1.52,1.52,0,0,0-1.45-1.9h-4.84a1.5,1.5,0,0,0,0,3Z"/><path class="cls-1" d="M94.77,12.83a26.66,26.66,0,0,1-2.36,4.68A1.5,1.5,0,0,0,95,19a30.46,30.46,0,0,0,2.67-5.4c.63-1.83-2.26-2.61-2.9-.8Z"/><path class="cls-1" d="M96.62,17.1a16.1,16.1,0,0,1,3.54-.25L98.71,15a11,11,0,0,1-2.87,5.18c-1.34,1.39.78,3.52,2.12,2.12a13.9,13.9,0,0,0,3.64-6.5,1.52,1.52,0,0,0-1.44-1.9,19.73,19.73,0,0,0-4.34.36c-1.88.41-1.09,3.31.8,2.89Z"/><path class="cls-1" d="M90.48,22.62a26.06,26.06,0,0,1-.85,7.47c-.61,1.83,2.29,2.62,2.89.8a20.65,20.65,0,0,0,.63-4.07c.15-1.39.31-2.8.33-4.2a1.5,1.5,0,0,0-3,0Z"/><path class="cls-1" d="M92.74,24.21c2-.92,4.8-2.54,7.1-2.11a2.27,2.27,0,0,1,2,2.49c0,.46-.13,2.77-.65,3.09-1.65,1-.14,3.6,1.51,2.59,3-1.83,2.77-7.8.35-9.9-3.4-2.95-8.46-.31-11.85,1.25-1.76.81-.23,3.4,1.51,2.59Z"/><path class="cls-1" d="M92.68,28.3c2.23-.49,4.45-1,6.66-1.51,1.88-.47,1.08-3.36-.79-2.9-2.21.55-4.44,1-6.66,1.52-1.89.42-1.09,3.31.79,2.89Z"/><path class="cls-1" d="M95.33,22.92a23.3,23.3,0,0,1-.25,6c-.48,1.87,2.41,2.67,2.89.79a25.87,25.87,0,0,0,.36-6.75,1.5,1.5,0,0,0-3,0Z"/><path class="cls-1" d="M94,32.69c2.52-1.12,5.2-2.41,8-2.22,1.93.14,1.92-2.86,0-3-3.36-.23-6.54,1.3-9.53,2.63-1.76.78-.24,3.37,1.51,2.59Z"/><path class="cls-1" d="M88.27,32.45c-1.68,2.75-3.36,5.5-5.15,8.18-1.08,1.61,1.52,3.11,2.59,1.51,1.79-2.67,3.47-5.42,5.15-8.17a1.5,1.5,0,0,0-2.59-1.52Z"/><path class="cls-1" d="M91.53,32.76c1.62,2.06,2,5.59,2.34,8.11.26,1.91,3.15,1.1,2.89-.79-.44-3.19-1.08-6.87-3.11-9.44-1.19-1.52-3.3.62-2.12,2.12Z"/><path class="cls-1" d="M97.35,31.85a18,18,0,0,1,1.91,8.93,1.5,1.5,0,0,0,3,0,21.12,21.12,0,0,0-2.32-10.45,1.5,1.5,0,0,0-2.59,1.52Z"/><path class="cls-1" d="M103.33,32.15c2.39,2.48,4,5.42,3.5,8.93-.25,1.91,2.75,1.89,3,0,.55-4.23-1.51-8.07-4.37-11-1.35-1.39-3.47.73-2.13,2.12Z"/></g></g></svg>