<svg xmlns="http://www.w3.org/2000/svg" viewBox="0 0 792.15 471"><defs><style>.cls-1{fill:none;stroke:#fff;stroke-miterlimit:10;}</style></defs><title>whalesharkark-line</title><g id="圖層_2" data-name="圖層 2"><g id="whalesharkark-line"><path class="cls-1" d="M787.27,273.78s-92.23-.61-114.91,10.28-139.42,58.07-162.1,78S486.07,403.89,448,403.21c-19.8-.35-43,23-65.63,14.82,0,0-30.84-21.65-47.17-34.17-6.44-11.91-11.8-28.43-11.8-28.43-5.44,4.84-42.52,25.75-55.79,36.9-15.12,12.7-28,21.47-44.31,28.73-20.74,9.22-56.85,39.61-56.85,39.61,18.14-4.54,58.06-28.12,81.65-36.29,19.65-6.8,78.31-34.42,80.66-35.53A123.79,123.79,0,0,0,351.5,418c24.49,23.59,160.58,60.79,241.32,50.81s112.5-36.29,150.6-76.21,31.76-85.28,31.76-85.28C797,298,792.72,278.62,787.27,273.78Z"/><path class="cls-1" d="M158.86,239.3s9.68,39.32,10.28,70.77.61,67.13-3.63,75.6S157,394.14,155.23,382,122,292.53,121.36,282.85s-10.89-27.82-26-48.39S14.91,126.2,7.05,119.55-5,100.8,14.91,112.9s65.93,44.15,78.63,52,36.29,24.8,47.17,24.8Z"/><path class="cls-1" d="M158.86,239.3c1.36-.9-2.94-8,6.35-8.09,13.72-.2,43.85-.13,60.48.94,17.13,1.1,31.11,10.31,33.27,11.69,5.67,3.63,21.32,14.06,21.32,14.06L308,287.84l5.9,6.81s-4.09-1.82-13.16,2.26S260.77,335.47,249,345.45s-90.73,62.6-102.52,73.49-26.31,23.59-20,35.38,21.77,10.89,39.92,6.35h0S205.25,433.6,226,424.38a197.92,197.92,0,0,0,47.18-29.63c13.27-11.15,44.76-30.25,50.2-35.08,0,0-2.1,17.09,5.44,29.14h0C345.15,401.33,382.34,418,382.34,418c22.68,8.17,41.9,13.26,61.69,13.61,38.11.68,56.25-28.13,78.93-48.09s132.46-68.94,155.14-79.83c17.67-8.48,76.55-13,100.71-18.45a25.62,25.62,0,0,0,11.6-6.49c-2.53-10.44-17.91-14.72-20.68-20.73-7.26-15.72-26-33.87-57.46-54.43s-94.95-45.36-126.4-54.43-32.66,4.84-70.16-18.75-82.87-26-116.74-37.5-72-10.89-72-10.89-10.87-11.64-18.74-18.3S291.32,42.74,281,30s-31.45-24.2-37.5-27.22S230.23-2,229,8.87a51,51,0,0,0,4.84,29c4.23,8.47,10.28,15.72,10.28,29.64s-3,40.2-3,40.2,1.21,4-3.62,6.37-16.33,14.51-20.57,15.72S172.16,131,163.7,131s-10.89,0-12.1,4.84-.6,50.2-.6,50.2.6,3.63-10.29,3.63c0,0-9.8,1.75-18.75,12.4-4,4.75-6.8,20.21,2.05,30,9.29,10.33,20.29,9.2,20.29,9.2Z"/><path class="cls-1" d="M158.86,239.3c5.66-3.27,94.43-.22,100.1,4.54,0,0-3.33-9.37-18.45-18.45s-44.15-7.25-60.48-4.83-47.78,9.07-51.41,13.3S147.37,246,158.86,239.3Z"/><path class="cls-1" d="M280.28,257.9S268.94,268.34,262.13,281s2.27,10.43,11.34,10.43S308,287.84,308,287.84s-7.62-12.28-13.16-17.27S280.28,257.9,280.28,257.9Z"/><path class="cls-1" d="M151,186.08s-.61-45.36.6-50.2,3.63-4.84,12.1-4.84,49,0,53.22-1.21c0,0-7.25,4.43-17.84,12.19S159.22,176.82,151,186.08Z"/><path class="cls-1" d="M750.91,315.29c-21.53,2.91-24.73-3.81-42.57-.48-57.93,10.8-136.4,58.38-144,63-18.29,11.19-27.13,28.38-32.81,34.78s-18.65,13.31-21.87,15.29c-2.92,1.15-13.06,7.7-13.06,7.7,1.82,3.49,43.1,16.47,71.22,18.29s65.78-9.39,100.71-23.14S743,374.84,743,374.84c25.95-36.13,32.21-67.49,32.21-67.49C764.89,310.67,764.29,313.47,750.91,315.29Z"/><path class="cls-1" d="M442.53,430.73a4.85,4.85,0,1,1-4.85-4.85A4.85,4.85,0,0,1,442.53,430.73Z"/><path class="cls-1" d="M787.31,283.68a4.85,4.85,0,1,1-4.84-4.84A4.85,4.85,0,0,1,787.31,283.68Z"/><path class="cls-1" d="M627.61,311.57c1,3.61-3.5,8-10,9.77S605,321.65,604,318s3.5-8,10-9.77S626.63,308,627.61,311.57Z"/><path class="cls-1" d="M577.43,272.55c1.26,3.52-2.87,8.24-9.23,10.53s-12.55,1.29-13.82-2.23,2.86-8.23,9.23-10.52S576.16,269,577.43,272.55Z"/><path class="cls-1" d="M668.44,280.73c1,3.61-3.5,8-10,9.77s-12.62.31-13.61-3.3,3.5-8,10-9.77S667.45,277.12,668.44,280.73Z"/><path class="cls-1" d="M720.15,280.73c1,3.61-3.5,8-10,9.77s-12.61.31-13.6-3.3,3.49-8,10-9.77S719.16,277.12,720.15,280.73Z"/><path class="cls-1" d="M677.94,207.32c-.15,3.74-5.74,6.56-12.5,6.3s-12.12-3.51-12-7.25,5.74-6.56,12.5-6.29S678.08,203.58,677.94,207.32Z"/><path class="cls-1" d="M628,261.3c.28,3.73-5,7.15-11.72,7.64s-12.43-2.13-12.71-5.86,5-7.16,11.73-7.65S627.74,257.56,628,261.3Z"/><path class="cls-1" d="M610.13,216.43c1.23,3.53-3,8.2-9.34,10.42S588.23,228,587,224.48s3-8.2,9.34-10.42S608.9,212.9,610.13,216.43Z"/><path class="cls-1" d="M752.33,253.59c.13,3.74-5.24,7-12,7.2s-12.34-2.6-12.48-6.34,5.24-7,12-7.2S752.2,249.85,752.33,253.59Z"/><path class="cls-1" d="M720.15,225.39c1,3.6-3.5,8-10,9.76s-12.61.31-13.6-3.3,3.49-8,10-9.76S719.16,221.78,720.15,225.39Z"/><path class="cls-1" d="M659.37,232.64c1,3.61-3.5,8-10,9.77s-12.61.31-13.6-3.3,3.5-8,10-9.77S658.38,229,659.37,232.64Z"/><path class="cls-1" d="M568.76,204.07c.85,3.64-3.81,7.84-10.4,9.37s-12.61-.17-13.46-3.82,3.81-7.84,10.39-9.37S567.91,200.43,568.76,204.07Z"/><path class="cls-1" d="M622.55,183c.35,3.73-4.83,7.25-11.56,7.88s-12.48-1.88-12.83-5.61,4.83-7.25,11.57-7.88S622.2,179.3,622.55,183Z"/><path class="cls-1" d="M515.47,167.15c.09,3-4.31,5.52-9.81,5.67s-10-2.14-10.1-5.12,4.31-5.52,9.81-5.67S515.39,164.17,515.47,167.15Z"/><path class="cls-1" d="M492.79,141.75c.09,3-4.31,5.52-9.81,5.67s-10-2.14-10.1-5.12,4.31-5.52,9.81-5.67S492.71,138.77,492.79,141.75Z"/><path class="cls-1" d="M534.4,148.72c.06,2.28-3.64,4.24-8.27,4.36s-8.45-1.62-8.51-3.91,3.65-4.24,8.28-4.36S534.34,146.43,534.4,148.72Z"/><path class="cls-1" d="M582.49,157.79c.06,2.28-3.65,4.24-8.28,4.37s-8.44-1.63-8.5-3.91,3.64-4.24,8.27-4.37S582.42,155.5,582.49,157.79Z"/><path class="cls-1" d="M495.79,224.52c1.25,3.53-2.9,8.22-9.27,10.48s-12.56,1.24-13.81-2.28,2.9-8.22,9.27-10.48S494.54,221,495.79,224.52Z"/><path class="cls-1" d="M535.71,247.21c1.25,3.52-2.9,8.21-9.27,10.48s-12.56,1.23-13.81-2.29,2.9-8.22,9.27-10.48S534.46,243.68,535.71,247.21Z"/><path class="cls-1" d="M518.45,303.25c1.87,3.25-1.37,8.61-7.23,12s-12.13,3.48-14,.23,1.37-8.6,7.23-12S516.59,300,518.45,303.25Z"/><path class="cls-1" d="M537.5,347.71c1.87,3.24-1.36,8.61-7.23,12s-12.13,3.48-14,.24,1.37-8.61,7.23-12S535.64,344.47,537.5,347.71Z"/><path class="cls-1" d="M481.23,376.12c2.61,2.68.8,8.68-4.05,13.4s-10.89,6.37-13.5,3.69-.8-8.68,4.05-13.4S478.62,373.44,481.23,376.12Z"/><path class="cls-1" d="M483.05,338.93c2.61,2.68,1.39,8.09-2.72,12.1s-9.56,5.07-12.17,2.39-1.39-8.1,2.72-12.1S480.44,336.25,483.05,338.93Z"/><path class="cls-1" d="M347.16,317.67c2,3.18.42,7.71-3.46,10.1s-8.63,1.76-10.59-1.42-.42-7.71,3.47-10.11S345.2,314.48,347.16,317.67Z"/><path class="cls-1" d="M422.21,387.82c2.62,2.68,2,7.48-1.3,10.72s-8.15,3.7-10.76,1-2-7.48,1.31-10.73S419.61,385.14,422.21,387.82Z"/><path class="cls-1" d="M577.55,317.38c1.16,3.56-3.12,8.14-9.56,10.22s-12.59.89-13.74-2.67,3.13-8.13,9.56-10.22S576.4,313.83,577.55,317.38Z"/><path class="cls-1" d="M454.06,217.27c1.25,3.52-2.9,8.21-9.28,10.48S432.23,229,431,225.46s2.9-8.22,9.27-10.48S452.81,213.74,454.06,217.27Z"/><path class="cls-1" d="M463.2,173.92c2.57,2.71.68,8.69-4.22,13.34s-11,6.23-13.55,3.52-.69-8.69,4.22-13.34S460.62,171.21,463.2,173.92Z"/><path class="cls-1" d="M439.61,141.26c2.57,2.71.68,8.69-4.22,13.34s-11,6.23-13.55,3.52-.69-8.69,4.22-13.35S437,138.55,439.61,141.26Z"/><path class="cls-1" d="M410.58,196.6c2.57,2.71.68,8.69-4.22,13.34s-11,6.24-13.55,3.52-.69-8.69,4.22-13.34S408,193.89,410.58,196.6Z"/><path class="cls-1" d="M465.92,271.9c2.57,2.72.68,8.69-4.22,13.35s-11,6.23-13.55,3.51-.69-8.68,4.22-13.34S463.34,269.19,465.92,271.9Z"/><path class="cls-1" d="M424.94,298.13c2.57,2.71,1.74,7.69-1.88,11.12s-8.62,4-11.2,1.29-1.74-7.7,1.88-11.12S422.36,295.41,424.94,298.13Z"/><path class="cls-1" d="M359.62,278.17c2.57,2.71,1.73,7.69-1.88,11.12s-8.62,4-11.2,1.29-1.74-7.7,1.88-11.12S357,275.45,359.62,278.17Z"/><path class="cls-1" d="M433.1,348c2.58,2.71,1.74,7.69-1.87,11.11s-8.63,4-11.21,1.29-1.73-7.69,1.88-11.12S430.53,345.31,433.1,348Z"/><path class="cls-1" d="M465.76,309c2.58,2.72,1.74,7.7-1.87,11.12s-8.63,4-11.2,1.29-1.74-7.69,1.87-11.12S463.19,306.3,465.76,309Z"/><path class="cls-1" d="M380.48,356.19c2.58,2.71,1.74,7.69-1.87,11.12s-8.63,4-11.2,1.29-1.74-7.69,1.87-11.12S377.91,353.48,380.48,356.19Z"/><path class="cls-1" d="M387.74,309c2.58,2.72,1.74,7.7-1.87,11.12s-8.63,4-11.21,1.29-1.73-7.69,1.88-11.12S385.17,306.3,387.74,309Z"/><path class="cls-1" d="M405.89,270c2.57,2.72,1.73,7.69-1.88,11.12s-8.63,4-11.2,1.29-1.74-7.69,1.87-11.12S403.31,267.29,405.89,270Z"/><path class="cls-1" d="M437.64,248.23c2.57,2.71,1.74,7.69-1.88,11.12s-8.62,4-11.2,1.29-1.73-7.69,1.88-11.12S435.06,245.51,437.64,248.23Z"/><path class="cls-1" d="M385.93,237.34c2.57,2.72,1.73,7.69-1.88,11.12s-8.62,4-11.2,1.29-1.74-7.69,1.87-11.12S383.35,234.63,385.93,237.34Z"/><path class="cls-1" d="M373.32,191.69c3.25,1.87,4,6.59,1.75,10.56s-6.76,5.67-10,3.8-4-6.59-1.74-10.56S370.08,189.83,373.32,191.69Z"/><path class="cls-1" d="M357.44,164.75c3.53,1.25,5.15,5.76,3.62,10.07s-5.61,6.8-9.14,5.55-5.15-5.75-3.63-10.07S353.91,163.51,357.44,164.75Z"/><path class="cls-1" d="M281.67,180c1.88.67,2.17,4.7.64,9s-4.28,7.27-6.17,6.6-2.17-4.7-.64-9S279.78,179.29,281.67,180Z"/><path class="cls-1" d="M254.28,184c2,0,3.67,3.65,3.74,8.23s-1.49,8.3-3.49,8.33-3.66-3.65-3.73-8.23S252.29,184.05,254.28,184Z"/><path class="cls-1" d="M229.79,192.18c2,0,3.67,3.66,3.74,8.23s-1.5,8.31-3.49,8.34-3.67-3.66-3.74-8.23S227.79,192.21,229.79,192.18Z"/><path class="cls-1" d="M202.57,192.18c2,0,3.67,3.66,3.74,8.23s-1.49,8.31-3.49,8.34-3.67-3.66-3.74-8.23S200.58,192.21,202.57,192.18Z"/><path class="cls-1" d="M229.79,155.89c2,0,3.67,3.66,3.74,8.23s-1.5,8.31-3.49,8.34-3.67-3.66-3.74-8.23S227.79,155.92,229.79,155.89Z"/><path class="cls-1" d="M209,158.39c1.47,0,2.71,2.7,2.76,6.08s-1.1,6.14-2.58,6.16-2.71-2.7-2.76-6.08S207.55,158.41,209,158.39Z"/><path class="cls-1" d="M186.35,172c1.47,0,2.71,2.7,2.76,6.08s-1.1,6.13-2.58,6.16-2.71-2.7-2.76-6.08S184.87,172,186.35,172Z"/><path class="cls-1" d="M186.35,173.81c1.47,0,2.71,2.7,2.76,6.08s-1.1,6.14-2.58,6.16-2.71-2.7-2.76-6.08S184.87,173.84,186.35,173.81Z"/><path class="cls-1" d="M240.31,127.67c1.45.31,2.06,3.23,1.36,6.54s-2.42,5.74-3.87,5.44-2.05-3.23-1.35-6.53S238.87,127.37,240.31,127.67Z"/><path class="cls-1" d="M284.19,208.82c1.35.6,1.32,3.59-.05,6.67s-3.59,5.11-4.93,4.51-1.33-3.59.05-6.68S282.85,208.22,284.19,208.82Z"/><path class="cls-1" d="M169.66,196.42c1.26,0,2.32,2.32,2.36,5.21s-.94,5.26-2.21,5.28-2.32-2.31-2.36-5.21S168.39,196.44,169.66,196.42Z"/><path class="cls-1" d="M259.11,151.43c2,.25,3.1,4.14,2.51,8.68s-2.67,8-4.65,7.74-3.1-4.14-2.51-8.68S257.13,151.17,259.11,151.43Z"/><path class="cls-1" d="M286.32,147.8c2,.25,3.25,3,2.84,6.17s-2.34,5.5-4.32,5.24-3.25-3-2.84-6.17S284.34,147.54,286.32,147.8Z"/><path class="cls-1" d="M312.63,147.8c2,.25,3.25,3,2.84,6.17s-2.34,5.5-4.32,5.24-3.25-3-2.84-6.17S310.65,147.54,312.63,147.8Z"/><path class="cls-1" d="M390.92,97.54c.54,1.92-1.52,4.16-4.58,5s-6,0-6.51-2,1.52-4.17,4.59-5S390.39,95.61,390.92,97.54Z"/><path class="cls-1" d="M420.86,113.87c.53,1.92-1.52,4.17-4.58,5s-6,0-6.51-1.95,1.52-4.17,4.58-5S420.33,111.94,420.86,113.87Z"/><path class="cls-1" d="M448.08,110.24c.53,1.92-1.52,4.17-4.58,5s-6,0-6.51-2,1.52-4.17,4.58-5S447.55,108.31,448.08,110.24Z"/><path class="cls-1" d="M459.87,129.29c.54,1.92-1.52,4.17-4.58,5s-6,0-6.51-1.94,1.52-4.17,4.58-5S459.34,127.37,459.87,129.29Z"/><path class="cls-1" d="M488.2,123.72c-.05,2-2.67,3.54-5.85,3.46s-5.7-1.77-5.65-3.77,2.67-3.54,5.85-3.46S488.26,121.72,488.2,123.72Z"/><path class="cls-1" d="M520.55,195.38c1.11,2.87-1.51,6.56-5.84,8.24s-8.75.71-9.87-2.17,1.51-6.56,5.84-8.24S519.44,192.51,520.55,195.38Z"/><path class="cls-1" d="M562.75,179c.48,3-2.86,6.1-7.45,6.82s-8.7-1.15-9.18-4.19,2.84-6.1,7.44-6.83S562.26,175.92,562.75,179Z"/><path class="cls-1" d="M308.05,174.06c2-.07,3.71,2.44,3.82,5.62s-1.4,5.81-3.39,5.88-3.71-2.44-3.83-5.61S306.06,174.14,308.05,174.06Z"/><path class="cls-1" d="M329.34,171.78c1.91.58,2.53,4.08,1.38,7.8s-3.62,6.26-5.53,5.68-2.52-4.08-1.38-7.81S327.44,171.19,329.34,171.78Z"/><path class="cls-1" d="M320,214.1c2,0,3.61,3.16,3.61,7.06s-1.62,7.05-3.61,7.05-3.62-3.16-3.61-7.06S318,214.1,320,214.1Z"/><path class="cls-1" d="M304.59,214.1c2,0,3.61,3.16,3.61,7.06s-1.62,7.05-3.62,7.05-3.61-3.16-3.61-7.06S302.59,214.1,304.59,214.1Z"/><path class="cls-1" d="M327.27,247.67c2,0,3.61,3.16,3.61,7.06s-1.62,7-3.62,7-3.61-3.16-3.61-7.06S325.27,247.67,327.27,247.67Z"/><path class="cls-1" d="M291.47,331.67c1.08,1.68-.71,4.75-4,6.84s-6.81,2.44-7.89.76.72-4.75,4-6.84S290.4,330,291.47,331.67Z"/><path class="cls-1" d="M289.66,354.35c1.08,1.68-.71,4.75-4,6.84s-6.82,2.44-7.89.76.71-4.74,4-6.84S288.58,352.67,289.66,354.35Z"/><path class="cls-1" d="M257,378.85c1.08,1.68-.71,4.74-4,6.84s-6.81,2.44-7.88.75.71-4.74,4-6.84S255.92,377.17,257,378.85Z"/><path class="cls-1" d="M212.54,395.18c1.08,1.68-.71,4.74-4,6.84s-6.81,2.44-7.89.75.72-4.74,4-6.84S211.47,393.5,212.54,395.18Z"/><path class="cls-1" d="M239.76,404.25c1.08,1.68-.71,4.74-4,6.84s-6.82,2.44-7.89.76.71-4.75,4-6.84S238.69,402.57,239.76,404.25Z"/><path class="cls-1" d="M276.05,380.66c1.08,1.68-.71,4.75-4,6.84s-6.82,2.44-7.89.76.71-4.75,4-6.84S275,379,276.05,380.66Z"/><path class="cls-1" d="M317.78,354.35c1.08,1.68-.71,4.75-4,6.84s-6.81,2.44-7.89.76.71-4.74,4-6.84S316.71,352.67,317.78,354.35Z"/><path class="cls-1" d="M310,304.26c1,1.72-.23,4.31-2.76,5.78s-5.39,1.26-6.39-.47.23-4.31,2.76-5.78S309,302.53,310,304.26Z"/><path class="cls-1" d="M183,405c1,1.72-.24,4.31-2.77,5.78s-5.39,1.26-6.39-.47.24-4.31,2.77-5.78S182,403.23,183,405Z"/><path class="cls-1" d="M187.48,434c1,1.72-.23,4.32-2.76,5.78s-5.39,1.26-6.39-.46.23-4.32,2.76-5.78S186.48,432.27,187.48,434Z"/><path class="cls-1" d="M165.71,425.83c1,1.72-.24,4.31-2.76,5.78s-5.39,1.26-6.4-.47.24-4.31,2.77-5.78S164.71,424.1,165.71,425.83Z"/><path class="cls-1" d="M316.31,332.38c1,1.72-.23,4.32-2.76,5.78s-5.39,1.26-6.39-.47.23-4.31,2.76-5.78S315.31,330.66,316.31,332.38Z"/><path class="cls-1" d="M264.38,350.93c1,1.72-.87,4.72-4.22,6.7s-6.9,2.2-7.91.48.87-4.72,4.23-6.7S263.37,349.21,264.38,350.93Z"/><path class="cls-1" d="M232.84,374.9c.91,1.77-1.16,4.65-4.63,6.43s-7,1.77-7.92,0,1.16-4.65,4.63-6.43S231.93,373.12,232.84,374.9Z"/><path class="cls-1" d="M204.59,416c1.34,1.48.07,4.79-2.83,7.4s-6.33,3.51-7.66,2-.07-4.79,2.83-7.4S203.26,414.55,204.59,416Z"/><path class="cls-1" d="M363.37,124.88c1.57,1.23.9,4.71-1.51,7.78s-5.62,4.56-7.19,3.32-.9-4.71,1.51-7.78S361.8,123.65,363.37,124.88Z"/><path class="cls-1" d="M357,105.83c1.57,1.23.9,4.71-1.51,7.78s-5.62,4.55-7.19,3.32-.9-4.71,1.51-7.78S355.45,104.6,357,105.83Z"/><path class="cls-1" d="M388.77,119.44c1.57,1.23.9,4.71-1.5,7.78s-5.62,4.55-7.2,3.32-.89-4.71,1.51-7.78S387.2,118.21,388.77,119.44Z"/><path class="cls-1" d="M383.33,142.12c1.57,1.23.89,4.71-1.51,7.78s-5.62,4.55-7.19,3.32-.9-4.71,1.51-7.78S381.76,140.89,383.33,142.12Z"/><path class="cls-1" d="M342.66,145.24c1.72,1,1.5,4.56-.49,7.91s-5,5.23-6.71,4.21-1.5-4.56.5-7.91S341,144.22,342.66,145.24Z"/><path class="cls-1" d="M408.73,134c1.57,1.23.9,4.72-1.5,7.78s-5.62,4.56-7.2,3.33-.89-4.72,1.51-7.78S407.16,132.72,408.73,134Z"/><path class="cls-1" d="M389.62,169.09c2,1.6,1.74,5.38-.66,8.45s-6,4.25-8,2.66-1.74-5.38.66-8.44S387.58,167.5,389.62,169.09Z"/><path class="cls-1" d="M425,172.72c2,1.6,1.75,5.38-.66,8.45s-6,4.25-8,2.66-1.75-5.38.65-8.45S423,171.13,425,172.72Z"/><path class="cls-1" d="M344,220.23c2.58.18,4.45,3.48,4.17,7.37s-2.59,6.88-5.17,6.7-4.45-3.48-4.18-7.37S341.46,220.05,344,220.23Z"/><path class="cls-1" d="M268.55,123.57c1.92.57,2.42,4.58,1.12,9s-3.9,7.48-5.81,6.92-2.42-4.58-1.12-9S266.64,123,268.55,123.57Z"/><path class="cls-1" d="M299.4,115.41c1.91.56,2.41,4.58,1.11,9s-3.89,7.49-5.81,6.92-2.41-4.58-1.12-9S297.48,114.84,299.4,115.41Z"/><path class="cls-1" d="M313.91,92.73c1.92.56,2.65,3.79,1.64,7.21s-3.38,5.73-5.3,5.17-2.64-3.8-1.63-7.22S312,92.16,313.91,92.73Z"/><path class="cls-1" d="M333,119c1.91.56,2.64,3.79,1.63,7.21s-3.38,5.73-5.3,5.17-2.64-3.8-1.63-7.22S331.05,118.47,333,119Z"/></g></g></svg>