<svg xmlns="http://www.w3.org/2000/svg" viewBox="0 0 791.15 470"><defs><style>.cls-1{fill:#f2f2f2;}.cls-2{fill:#334d56;}.cls-3{fill:#445e6a;}.cls-4{fill:#1a1a1a;}</style></defs><title>whaleshark</title><g id="圖層_2" data-name="圖層 2"><g id="whaleshark"><path class="cls-1" d="M786.77,273.28s-92.23-.61-114.91,10.28-139.42,58.07-162.1,78-24.19,41.81-62.29,41.13c-19.8-.35-43,23-65.63,14.82,0,0-30.84-21.65-47.17-34.17-6.44-11.91-11.8-28.43-11.8-28.43-5.44,4.84-42.52,25.75-55.79,36.9-15.12,12.7-28,21.47-44.31,28.73-20.74,9.22-56.85,39.61-56.85,39.61,18.14-4.54,58.06-28.12,81.65-36.29,19.65-6.8,78.31-34.42,80.66-35.53A123.79,123.79,0,0,0,351,417.53c24.49,23.59,160.58,60.79,241.32,50.81s112.5-36.29,150.6-76.21,31.76-85.28,31.76-85.28C796.45,297.47,792.22,278.12,786.77,273.28Z"/><path class="cls-2" d="M158.36,238.8s9.68,39.32,10.28,70.77.61,67.13-3.63,75.6-8.47,8.47-10.28-3.63S121.46,292,120.86,282.35,110,254.53,94.85,234,14.41,125.7,6.55,119.05s-12.1-18.75,7.86-6.65,65.93,44.15,78.63,52,36.29,24.8,47.17,24.8Z"/><path class="cls-3" d="M158.36,238.8c1.36-.9-2.94-8,6.35-8.09,13.72-.2,43.85-.13,60.48.94,17.13,1.1,31.11,10.31,33.27,11.69,5.67,3.63,21.32,14.06,21.32,14.06l27.67,29.94,5.9,6.81s-4.09-1.82-13.16,2.26S260.27,335,248.48,345,157.75,407.55,146,418.44,119.65,442,126,453.82s21.77,10.89,39.92,6.35h0s38.83-27.07,59.57-36.29a197.92,197.92,0,0,0,47.18-29.63c13.27-11.15,44.76-30.25,50.2-35.08,0,0-2.1,17.09,5.44,29.14h0c16.34,12.52,53.53,29.22,53.53,29.22,22.68,8.17,41.9,13.26,61.69,13.61,38.11.68,56.25-28.13,78.93-48.09s132.46-68.94,155.14-79.83c17.67-8.48,76.55-13,100.71-18.45a25.62,25.62,0,0,0,11.6-6.49c-2.53-10.44-17.91-14.72-20.68-20.73-7.26-15.72-26-33.87-57.46-54.43s-94.95-45.36-126.4-54.43-32.66,4.84-70.16-18.75-82.87-26-116.74-37.5-72-10.89-72-10.89-10.87-11.64-18.74-18.3-16.94-21-27.23-33.71S249.08,5.34,243,2.32s-13.3-4.84-14.51,6a51,51,0,0,0,4.84,29c4.23,8.47,10.28,15.72,10.28,29.64s-3,40.2-3,40.2,1.21,4-3.62,6.37-16.33,14.51-20.57,15.72-44.76,1.21-53.22,1.21-10.89,0-12.1,4.84-.6,50.2-.6,50.2.6,3.63-10.29,3.63c0,0-9.8,1.75-18.75,12.4-4,4.75-6.8,20.21,2.05,30,9.29,10.33,20.29,9.2,20.29,9.2Z"/><path class="cls-1" d="M158.36,238.8c5.66-3.27,94.43-.22,100.1,4.54,0,0-3.33-9.37-18.45-18.45s-44.15-7.25-60.48-4.83-47.78,9.07-51.41,13.3S146.87,245.46,158.36,238.8Z"/><path class="cls-2" d="M279.78,257.4s-11.34,10.44-18.15,23.14S263.9,291,273,291s34.48-3.63,34.48-3.63-7.62-12.28-13.16-17.27S279.78,257.4,279.78,257.4Z"/><path class="cls-2" d="M150.5,185.58s-.61-45.36.6-50.2,3.63-4.84,12.1-4.84,49,0,53.22-1.21c0,0-7.25,4.43-17.84,12.19S158.72,176.32,150.5,185.58Z"/><path class="cls-4" d="M750.41,314.79c-21.53,2.91-24.73-3.81-42.57-.48-57.93,10.8-136.4,58.38-144,63-18.29,11.19-27.13,28.38-32.81,34.78s-18.65,13.31-21.87,15.29c-2.92,1.15-13.06,7.7-13.06,7.7,1.82,3.49,43.1,16.47,71.22,18.29s65.78-9.39,100.71-23.14,74.39-55.89,74.39-55.89c25.95-36.13,32.21-67.49,32.21-67.49C764.39,310.17,763.79,313,750.41,314.79Z"/><path class="cls-4" d="M442,430.23a4.85,4.85,0,1,1-4.85-4.85A4.85,4.85,0,0,1,442,430.23Z"/><path class="cls-4" d="M786.81,283.18a4.85,4.85,0,1,1-4.84-4.84A4.85,4.85,0,0,1,786.81,283.18Z"/><path class="cls-1" d="M627.11,311.07c1,3.61-3.5,8-10,9.77s-12.61.31-13.6-3.3,3.5-8,10-9.77S626.13,307.46,627.11,311.07Z"/><path class="cls-1" d="M576.93,272.05c1.26,3.52-2.87,8.24-9.23,10.53s-12.55,1.29-13.82-2.23,2.86-8.23,9.23-10.52S575.66,268.53,576.93,272.05Z"/><path class="cls-1" d="M667.94,280.23c1,3.61-3.5,8-10,9.77s-12.62.31-13.61-3.3,3.5-8,10-9.77S667,276.62,667.94,280.23Z"/><path class="cls-1" d="M719.65,280.23c1,3.61-3.5,8-10,9.77s-12.61.31-13.6-3.3,3.49-8,10-9.77S718.66,276.62,719.65,280.23Z"/><path class="cls-1" d="M677.44,206.82c-.15,3.74-5.74,6.56-12.5,6.3s-12.12-3.51-12-7.25,5.74-6.56,12.5-6.29S677.58,203.08,677.44,206.82Z"/><path class="cls-1" d="M627.51,260.8c.28,3.73-5,7.15-11.72,7.64s-12.43-2.13-12.71-5.86,5-7.16,11.73-7.65S627.24,257.06,627.51,260.8Z"/><path class="cls-1" d="M609.63,215.93c1.23,3.53-3,8.2-9.34,10.42s-12.56,1.16-13.79-2.37,3-8.2,9.34-10.42S608.4,212.4,609.63,215.93Z"/><path class="cls-1" d="M751.83,253.09c.13,3.74-5.24,7-12,7.2s-12.34-2.6-12.48-6.34,5.24-7,12-7.2S751.7,249.35,751.83,253.09Z"/><path class="cls-1" d="M719.65,224.89c1,3.6-3.5,8-10,9.76S697,235,696,231.35s3.49-8,10-9.76S718.66,221.28,719.65,224.89Z"/><path class="cls-1" d="M658.87,232.14c1,3.61-3.5,8-10,9.77s-12.61.31-13.6-3.3,3.5-8,10-9.77S657.88,228.53,658.87,232.14Z"/><path class="cls-1" d="M568.26,203.57c.85,3.64-3.81,7.84-10.4,9.37s-12.61-.17-13.46-3.82,3.81-7.84,10.39-9.37S567.41,199.93,568.26,203.57Z"/><path class="cls-1" d="M622.05,182.53c.35,3.73-4.83,7.25-11.56,7.88s-12.48-1.88-12.83-5.61,4.83-7.25,11.57-7.88S621.7,178.8,622.05,182.53Z"/><path class="cls-1" d="M515,166.65c.09,3-4.31,5.52-9.81,5.67s-10-2.14-10.1-5.12,4.31-5.52,9.81-5.67S514.89,163.67,515,166.65Z"/><path class="cls-1" d="M492.29,141.25c.09,3-4.31,5.52-9.81,5.67s-10-2.14-10.1-5.12,4.31-5.52,9.81-5.67S492.21,138.27,492.29,141.25Z"/><path class="cls-1" d="M533.9,148.22c.06,2.28-3.64,4.24-8.27,4.36s-8.45-1.62-8.51-3.91,3.65-4.24,8.28-4.36S533.84,145.93,533.9,148.22Z"/><path class="cls-1" d="M582,157.29c.06,2.28-3.65,4.24-8.28,4.37s-8.44-1.63-8.5-3.91,3.64-4.24,8.27-4.37S581.92,155,582,157.29Z"/><path class="cls-1" d="M495.29,224c1.25,3.53-2.9,8.22-9.27,10.48s-12.56,1.24-13.81-2.28,2.9-8.22,9.27-10.48S494,220.5,495.29,224Z"/><path class="cls-1" d="M535.21,246.71c1.25,3.52-2.9,8.21-9.27,10.48s-12.56,1.23-13.81-2.29,2.9-8.22,9.27-10.48S534,243.18,535.21,246.71Z"/><path class="cls-1" d="M518,302.75c1.87,3.25-1.37,8.61-7.23,12s-12.13,3.48-14,.23,1.37-8.6,7.23-12S516.09,299.51,518,302.75Z"/><path class="cls-1" d="M537,347.21c1.87,3.24-1.36,8.61-7.23,12s-12.13,3.48-14,.24,1.37-8.61,7.23-12S535.14,344,537,347.21Z"/><path class="cls-1" d="M480.73,375.62c2.61,2.68.8,8.68-4.05,13.4s-10.89,6.37-13.5,3.69-.8-8.68,4.05-13.4S478.12,372.94,480.73,375.62Z"/><path class="cls-1" d="M482.55,338.43c2.61,2.68,1.39,8.09-2.72,12.1s-9.56,5.07-12.17,2.39-1.39-8.1,2.72-12.1S479.94,335.75,482.55,338.43Z"/><path class="cls-1" d="M346.66,317.17c2,3.18.42,7.71-3.46,10.1s-8.63,1.76-10.59-1.42-.42-7.71,3.47-10.11S344.7,314,346.66,317.17Z"/><path class="cls-1" d="M421.71,387.32c2.62,2.68,2,7.48-1.3,10.72s-8.15,3.7-10.76,1-2-7.48,1.31-10.73S419.11,384.64,421.71,387.32Z"/><path class="cls-1" d="M577.05,316.88c1.16,3.56-3.12,8.14-9.56,10.22s-12.59.89-13.74-2.67,3.13-8.13,9.56-10.22S575.9,313.33,577.05,316.88Z"/><path class="cls-1" d="M453.56,216.77c1.25,3.52-2.9,8.21-9.28,10.48s-12.55,1.23-13.8-2.29,2.9-8.22,9.27-10.48S452.31,213.24,453.56,216.77Z"/><path class="cls-1" d="M462.7,173.42c2.57,2.71.68,8.69-4.22,13.34s-11,6.23-13.55,3.52-.69-8.69,4.22-13.34S460.12,170.71,462.7,173.42Z"/><path class="cls-1" d="M439.11,140.76c2.57,2.71.68,8.69-4.22,13.34s-11,6.23-13.55,3.52-.69-8.69,4.22-13.35S436.53,138.05,439.11,140.76Z"/><path class="cls-1" d="M410.08,196.1c2.57,2.71.68,8.69-4.22,13.34s-11,6.24-13.55,3.52-.69-8.69,4.22-13.34S407.5,193.39,410.08,196.1Z"/><path class="cls-1" d="M465.42,271.4c2.57,2.72.68,8.69-4.22,13.35s-11,6.23-13.55,3.51-.69-8.68,4.22-13.34S462.84,268.69,465.42,271.4Z"/><path class="cls-1" d="M424.44,297.63c2.57,2.71,1.74,7.69-1.88,11.12s-8.62,4-11.2,1.29-1.74-7.7,1.88-11.12S421.86,294.91,424.44,297.63Z"/><path class="cls-1" d="M359.12,277.67c2.57,2.71,1.73,7.69-1.88,11.12s-8.62,4-11.2,1.29-1.74-7.7,1.88-11.12S356.54,275,359.12,277.67Z"/><path class="cls-1" d="M432.6,347.53c2.58,2.71,1.74,7.69-1.87,11.11s-8.63,4-11.21,1.29-1.73-7.69,1.88-11.12S430,344.81,432.6,347.53Z"/><path class="cls-1" d="M465.26,308.51c2.58,2.72,1.74,7.7-1.87,11.12s-8.63,4-11.2,1.29-1.74-7.69,1.87-11.12S462.69,305.8,465.26,308.51Z"/><path class="cls-1" d="M380,355.69c2.58,2.71,1.74,7.69-1.87,11.12s-8.63,4-11.2,1.29-1.74-7.69,1.87-11.12S377.41,353,380,355.69Z"/><path class="cls-1" d="M387.24,308.51c2.58,2.72,1.74,7.7-1.87,11.12s-8.63,4-11.21,1.29-1.73-7.69,1.88-11.12S384.67,305.8,387.24,308.51Z"/><path class="cls-1" d="M405.39,269.5c2.57,2.72,1.73,7.69-1.88,11.12s-8.63,4-11.2,1.29-1.74-7.69,1.87-11.12S402.81,266.79,405.39,269.5Z"/><path class="cls-1" d="M437.14,247.73c2.57,2.71,1.74,7.69-1.88,11.12s-8.62,4-11.2,1.29-1.73-7.69,1.88-11.12S434.56,245,437.14,247.73Z"/><path class="cls-1" d="M385.43,236.84c2.57,2.72,1.73,7.69-1.88,11.12s-8.62,4-11.2,1.29-1.74-7.69,1.87-11.12S382.85,234.13,385.43,236.84Z"/><path class="cls-1" d="M372.82,191.19c3.25,1.87,4,6.59,1.75,10.56s-6.76,5.67-10,3.8-4-6.59-1.74-10.56S369.58,189.33,372.82,191.19Z"/><path class="cls-1" d="M356.94,164.25c3.53,1.25,5.15,5.76,3.62,10.07s-5.61,6.8-9.14,5.55-5.15-5.75-3.63-10.07S353.41,163,356.94,164.25Z"/><path class="cls-1" d="M281.17,179.45c1.88.67,2.17,4.7.64,9s-4.28,7.27-6.17,6.6-2.17-4.7-.64-9S279.28,178.79,281.17,179.45Z"/><path class="cls-1" d="M253.78,183.52c2,0,3.67,3.65,3.74,8.23s-1.49,8.3-3.49,8.33-3.66-3.65-3.73-8.23S251.79,183.55,253.78,183.52Z"/><path class="cls-1" d="M229.29,191.68c2,0,3.67,3.66,3.74,8.23s-1.5,8.31-3.49,8.34-3.67-3.66-3.74-8.23S227.29,191.71,229.29,191.68Z"/><path class="cls-1" d="M202.07,191.68c2,0,3.67,3.66,3.74,8.23s-1.49,8.31-3.49,8.34-3.67-3.66-3.74-8.23S200.08,191.71,202.07,191.68Z"/><path class="cls-1" d="M229.29,155.39c2,0,3.67,3.66,3.74,8.23s-1.5,8.31-3.49,8.34-3.67-3.66-3.74-8.23S227.29,155.42,229.29,155.39Z"/><path class="cls-1" d="M208.53,157.89c1.47,0,2.71,2.7,2.76,6.08s-1.1,6.14-2.58,6.16-2.71-2.7-2.76-6.08S207.05,157.91,208.53,157.89Z"/><path class="cls-1" d="M185.85,171.5c1.47,0,2.71,2.7,2.76,6.08s-1.1,6.13-2.58,6.16-2.71-2.7-2.76-6.08S184.37,171.52,185.85,171.5Z"/><path class="cls-1" d="M185.85,173.31c1.47,0,2.71,2.7,2.76,6.08s-1.1,6.14-2.58,6.16-2.71-2.7-2.76-6.08S184.37,173.34,185.85,173.31Z"/><path class="cls-1" d="M239.81,127.17c1.45.31,2.06,3.23,1.36,6.54s-2.42,5.74-3.87,5.44-2.05-3.23-1.35-6.53S238.37,126.87,239.81,127.17Z"/><path class="cls-1" d="M283.69,208.32c1.35.6,1.32,3.59-.05,6.67s-3.59,5.11-4.93,4.51-1.33-3.59.05-6.68S282.35,207.72,283.69,208.32Z"/><path class="cls-1" d="M169.16,195.92c1.26,0,2.32,2.32,2.36,5.21s-.94,5.26-2.21,5.28S167,204.1,167,201.2,167.89,195.94,169.16,195.92Z"/><path class="cls-1" d="M258.61,150.93c2,.25,3.1,4.14,2.51,8.68s-2.67,8-4.65,7.74-3.1-4.14-2.51-8.68S256.63,150.67,258.61,150.93Z"/><path class="cls-1" d="M285.82,147.3c2,.25,3.25,3,2.84,6.17s-2.34,5.5-4.32,5.24-3.25-3-2.84-6.17S283.84,147,285.82,147.3Z"/><path class="cls-1" d="M312.13,147.3c2,.25,3.25,3,2.84,6.17s-2.34,5.5-4.32,5.24-3.25-3-2.84-6.17S310.15,147,312.13,147.3Z"/><path class="cls-1" d="M390.42,97c.54,1.92-1.52,4.16-4.58,5s-6,0-6.51-2,1.52-4.17,4.59-5S389.89,95.11,390.42,97Z"/><path class="cls-1" d="M420.36,113.37c.53,1.92-1.52,4.17-4.58,5s-6,0-6.51-1.95,1.52-4.17,4.58-5S419.83,111.44,420.36,113.37Z"/><path class="cls-1" d="M447.58,109.74c.53,1.92-1.52,4.17-4.58,5s-6,0-6.51-2,1.52-4.17,4.58-5S447.05,107.81,447.58,109.74Z"/><path class="cls-1" d="M459.37,128.79c.54,1.92-1.52,4.17-4.58,5s-6,0-6.51-1.94,1.52-4.17,4.58-5S458.84,126.87,459.37,128.79Z"/><path class="cls-1" d="M487.7,123.22c-.05,2-2.67,3.54-5.85,3.46s-5.7-1.77-5.65-3.77,2.67-3.54,5.85-3.46S487.76,121.22,487.7,123.22Z"/><path class="cls-1" d="M520.05,194.88c1.11,2.87-1.51,6.56-5.84,8.24s-8.75.71-9.87-2.17,1.51-6.56,5.84-8.24S518.94,192,520.05,194.88Z"/><path class="cls-1" d="M562.25,178.46c.48,3-2.86,6.1-7.45,6.82s-8.7-1.15-9.18-4.19,2.84-6.1,7.44-6.83S561.76,175.42,562.25,178.46Z"/><path class="cls-1" d="M307.55,173.56c2-.07,3.71,2.44,3.82,5.62S310,185,308,185.06s-3.71-2.44-3.83-5.61S305.56,173.64,307.55,173.56Z"/><path class="cls-1" d="M328.84,171.28c1.91.58,2.53,4.08,1.38,7.8s-3.62,6.26-5.53,5.68-2.52-4.08-1.38-7.81S326.94,170.69,328.84,171.28Z"/><path class="cls-1" d="M319.51,213.6c2,0,3.61,3.16,3.61,7.06s-1.62,7.05-3.61,7.05-3.62-3.16-3.61-7.06S317.52,213.6,319.51,213.6Z"/><path class="cls-1" d="M304.09,213.6c2,0,3.61,3.16,3.61,7.06s-1.62,7.05-3.62,7.05-3.61-3.16-3.61-7.06S302.09,213.6,304.09,213.6Z"/><path class="cls-1" d="M326.77,247.17c2,0,3.61,3.16,3.61,7.06s-1.62,7-3.62,7-3.61-3.16-3.61-7.06S324.77,247.17,326.77,247.17Z"/><path class="cls-1" d="M291,331.17c1.08,1.68-.71,4.75-4,6.84s-6.81,2.44-7.89.76.72-4.75,4-6.84S289.9,329.49,291,331.17Z"/><path class="cls-1" d="M289.16,353.85c1.08,1.68-.71,4.75-4,6.84s-6.82,2.44-7.89.76.71-4.74,4-6.84S288.08,352.17,289.16,353.85Z"/><path class="cls-1" d="M256.5,378.35c1.08,1.68-.71,4.74-4,6.84s-6.81,2.44-7.88.75.71-4.74,4-6.84S255.42,376.67,256.5,378.35Z"/><path class="cls-1" d="M212,394.68c1.08,1.68-.71,4.74-4,6.84s-6.81,2.44-7.89.75.72-4.74,4-6.84S211,393,212,394.68Z"/><path class="cls-1" d="M239.26,403.75c1.08,1.68-.71,4.74-4,6.84s-6.82,2.44-7.89.76.71-4.75,4-6.84S238.19,402.07,239.26,403.75Z"/><path class="cls-1" d="M275.55,380.16c1.08,1.68-.71,4.75-4,6.84s-6.82,2.44-7.89.76.71-4.75,4-6.84S274.48,378.48,275.55,380.16Z"/><path class="cls-1" d="M317.28,353.85c1.08,1.68-.71,4.75-4,6.84s-6.81,2.44-7.89.76.71-4.74,4-6.84S316.21,352.17,317.28,353.85Z"/><path class="cls-1" d="M309.46,303.76c1,1.72-.23,4.31-2.76,5.78s-5.39,1.26-6.39-.47.23-4.31,2.76-5.78S308.46,302,309.46,303.76Z"/><path class="cls-1" d="M182.45,404.46c1,1.72-.24,4.31-2.77,5.78s-5.39,1.26-6.39-.47.24-4.31,2.77-5.78S181.45,402.73,182.45,404.46Z"/><path class="cls-1" d="M187,433.49c1,1.72-.23,4.32-2.76,5.78s-5.39,1.26-6.39-.46.23-4.32,2.76-5.78S186,431.77,187,433.49Z"/><path class="cls-1" d="M165.21,425.33c1,1.72-.24,4.31-2.76,5.78s-5.39,1.26-6.4-.47.24-4.31,2.77-5.78S164.21,423.6,165.21,425.33Z"/><path class="cls-1" d="M315.81,331.88c1,1.72-.23,4.32-2.76,5.78s-5.39,1.26-6.39-.47.23-4.31,2.76-5.78S314.81,330.16,315.81,331.88Z"/><path class="cls-1" d="M263.88,350.43c1,1.72-.87,4.72-4.22,6.7s-6.9,2.2-7.91.48.87-4.72,4.23-6.7S262.87,348.71,263.88,350.43Z"/><path class="cls-1" d="M232.34,374.4c.91,1.77-1.16,4.65-4.63,6.43s-7,1.77-7.92,0,1.16-4.65,4.63-6.43S231.43,372.62,232.34,374.4Z"/><path class="cls-1" d="M204.09,415.54c1.34,1.48.07,4.79-2.83,7.4s-6.33,3.51-7.66,2-.07-4.79,2.83-7.4S202.76,414.05,204.09,415.54Z"/><path class="cls-1" d="M362.87,124.38c1.57,1.23.9,4.71-1.51,7.78s-5.62,4.56-7.19,3.32-.9-4.71,1.51-7.78S361.3,123.15,362.87,124.38Z"/><path class="cls-1" d="M356.52,105.33c1.57,1.23.9,4.71-1.51,7.78s-5.62,4.55-7.19,3.32-.9-4.71,1.51-7.78S355,104.1,356.52,105.33Z"/><path class="cls-1" d="M388.27,118.94c1.57,1.23.9,4.71-1.5,7.78s-5.62,4.55-7.2,3.32-.89-4.71,1.51-7.78S386.7,117.71,388.27,118.94Z"/><path class="cls-1" d="M382.83,141.62c1.57,1.23.89,4.71-1.51,7.78s-5.62,4.55-7.19,3.32-.9-4.71,1.51-7.78S381.26,140.39,382.83,141.62Z"/><path class="cls-1" d="M342.16,144.74c1.72,1,1.5,4.56-.49,7.91s-5,5.23-6.71,4.21-1.5-4.56.5-7.91S340.45,143.72,342.16,144.74Z"/><path class="cls-1" d="M408.23,133.45c1.57,1.23.9,4.72-1.5,7.78s-5.62,4.56-7.2,3.33-.89-4.72,1.51-7.78S406.66,132.22,408.23,133.45Z"/><path class="cls-1" d="M389.12,168.59c2,1.6,1.74,5.38-.66,8.45s-6,4.25-8,2.66-1.74-5.38.66-8.44S387.08,167,389.12,168.59Z"/><path class="cls-1" d="M424.5,172.22c2,1.6,1.75,5.38-.66,8.45s-6,4.25-8,2.66-1.75-5.38.65-8.45S422.46,170.63,424.5,172.22Z"/><path class="cls-1" d="M343.54,219.73c2.58.18,4.45,3.48,4.17,7.37s-2.59,6.88-5.17,6.7-4.45-3.48-4.18-7.37S341,219.55,343.54,219.73Z"/><path class="cls-1" d="M268.05,123.07c1.92.57,2.42,4.58,1.12,9s-3.9,7.48-5.81,6.92-2.42-4.58-1.12-9S266.14,122.51,268.05,123.07Z"/><path class="cls-1" d="M298.9,114.91c1.91.56,2.41,4.58,1.11,9s-3.89,7.49-5.81,6.92-2.41-4.58-1.12-9S297,114.34,298.9,114.91Z"/><path class="cls-1" d="M313.41,92.23c1.92.56,2.65,3.79,1.64,7.21s-3.38,5.73-5.3,5.17-2.64-3.8-1.63-7.22S311.5,91.66,313.41,92.23Z"/><path class="cls-1" d="M332.47,118.54c1.91.56,2.64,3.79,1.63,7.21s-3.38,5.73-5.3,5.17-2.64-3.8-1.63-7.22S330.55,118,332.47,118.54Z"/></g></g></svg>