<svg xmlns="http://www.w3.org/2000/svg" viewBox="0 0 791.15 470"><defs><style>.cls-1{fill:#494c4e;}</style></defs><title>whalesharkark-shadow</title><g id="圖層_2" data-name="圖層 2"><g id="whalesharkark-shadow"><path class="cls-1" d="M789.91,278.28h0c-2.53-10.44-17.91-14.72-20.68-20.73-7.26-15.72-26-33.87-57.46-54.43s-94.95-45.36-126.4-54.43-32.66,4.84-70.16-18.75-82.87-26-116.74-37.5-72-10.89-72-10.89-10.87-11.64-18.74-18.3-16.94-21-27.23-33.71S249.08,5.34,243,2.32s-13.3-4.84-14.51,6a51,51,0,0,0,4.84,29c4.23,8.47,10.28,15.72,10.28,29.64s-3,40.2-3,40.2,1.21,4-3.62,6.37-16.33,14.51-20.57,15.72-44.76,1.21-53.22,1.21-10.89,0-12.1,4.84-.6,50.2-.6,50.2.6,3.63-10.29,3.63S105.74,172.27,93,164.41s-58.67-39.92-78.63-52-15.73,0-7.86,6.65S79.73,213.4,94.85,234s25.4,38.71,26,48.39,32.06,87.1,33.87,99.19,6.05,12.1,10.28,3.63,4.24-44.15,3.63-75.6-10.28-70.77-10.28-70.77c5.55-3.21,91.12-.33,99.68,4.27l.42.27c5.67,3.63,21.32,14.06,21.32,14.06s-11.34,10.44-18.15,23.14S263.9,291,273,291s34.48-3.63,34.48-3.63l5.9,6.81s-4.09-1.82-13.16,2.26S260.27,335,248.48,345,157.75,407.55,146,418.44,119.65,442,126,453.82s21.77,10.89,39.92,6.35,58.06-28.12,81.65-36.29c19.65-6.8,78.31-34.42,80.66-35.53A123.79,123.79,0,0,0,351,417.53c24.49,23.59,160.58,60.79,241.32,50.81s112.5-36.29,150.6-76.21,31.76-85.28,31.76-85.28C791.69,299.52,792.82,286.11,789.91,278.28Z"/></g></g></svg>