<svg xmlns="http://www.w3.org/2000/svg" viewBox="0 0 250 146"><defs><style>.cls-1{fill:#c1bd31;opacity:0.8;}.cls-2{fill:#fff;}</style></defs><title>food_detail</title><g id="圖層_2" data-name="圖層 2"><g id="food_detail"><path class="cls-1" d="M215,0H35A35.1,35.1,0,0,0,0,35V88a35.1,35.1,0,0,0,35,35h72.39A95,95,0,0,0,125,146a95,95,0,0,0,17.61-23H215a35.1,35.1,0,0,0,35-35V35A35.1,35.1,0,0,0,215,0Z"/><path class="cls-2" d="M30.89,86.42A6.32,6.32,0,0,1,29.11,89l-.71-.42a5.47,5.47,0,0,0,1.73-2.36Zm-.95-.72V81.44c-.28.23-.58.47-.89.68a3.41,3.41,0,0,0-.6-.6A11,11,0,0,0,32,77.76l1.05.18c0,.11-.09.17-.26.17l-.31.49h2.89l.13,0,.64.4a.29.29,0,0,1-.16.1A10.15,10.15,0,0,1,34.9,80.6h3.25v5.1Zm3.61-4.4H30.72v1.51h2.83Zm-2.83,2.17V85h2.83V83.47Zm3.2-2.87a8.08,8.08,0,0,0,.95-1.32H32a16.27,16.27,0,0,1-1.13,1.32Zm-1.53,8.21a13.83,13.83,0,0,0-.26-2.3l.77-.06a12.91,12.91,0,0,1,.31,2.26Zm5-6V81.3h-3v1.51Zm0,2.19V83.47h-3V85Zm-1.93,3.81a12.3,12.3,0,0,0-.84-2.29l.74-.15a12.33,12.33,0,0,1,.88,2.25Zm3.41.15A12,12,0,0,0,37,86.43l.72-.31a11.15,11.15,0,0,1,1.89,2.47Z"/><path class="cls-2" d="M44.1,83.31v-1.9a7,7,0,0,1-1.91,1.89,3,3,0,0,0-.48-.54,6.36,6.36,0,0,0,2.11-2H41.89v-.68H44.1V77.82l.95.06c0,.07-.08.13-.23.15v2H47v.68H44.82v.16c.49.29,1.9,1.22,2.24,1.48l-.44.59c-.34-.3-1.19-1-1.8-1.39v1.71Zm.69,2.09a3.85,3.85,0,0,1-.08.58c.74.52,1.64,1.22,2.14,1.65l-.55.55a16.19,16.19,0,0,0-1.82-1.5,4.37,4.37,0,0,1-2.31,2,3,3,0,0,0-.45-.61c1.77-.79,2.22-1.79,2.33-2.72H41.88v-.72h2.19V83.57l1,.06c0,.09-.08.15-.23.17v.88h2.23v.72Zm-2-7.21a4.46,4.46,0,0,1,.73,1.39l-.61.26a5.26,5.26,0,0,0-.7-1.44Zm2.68,1.44a10.19,10.19,0,0,0,.72-1.49l.82.31c0,.08-.11.1-.24.1A11.79,11.79,0,0,1,46,79.87Zm4,7.7a.28.28,0,0,1-.21.09A7.53,7.53,0,0,1,46.79,89a3.07,3.07,0,0,0-.54-.54,7.15,7.15,0,0,0,2.38-1.5Zm-1.91-7h1.64c.1-.39.21-.84.3-1.24H47.08v-.72H52.9v.72H50.26a10.42,10.42,0,0,1-.36,1.24h2.57v6.31h-5Zm4.2,1.89V81H48.25v1.25Zm0,1.87V82.87H48.25v1.24Zm0,1.9V84.74H48.25V86ZM51,87a14.13,14.13,0,0,1,2.1,1.55l-.64.44a14,14,0,0,0-2.06-1.58Z"/><path class="cls-2" d="M73.49,81.19a9.24,9.24,0,0,1,2.24,1.23l-.46.67a10.84,10.84,0,0,0-2.22-1.29Zm-.12,7.07a38,38,0,0,0,2.14-4l.61.5a38,38,0,0,1-1.94,3.75.25.25,0,0,1,.06.17.31.31,0,0,1,0,.13Zm.76-10.35a9.4,9.4,0,0,1,2.19,1.32l-.47.66a9.23,9.23,0,0,0-2.17-1.39ZM84.18,85v.72H80.69V88c0,.93-.45,1-2.46,1a2.8,2.8,0,0,0-.26-.77h1c.8,0,.88,0,.88-.22V85.73H76.32V85h3.57V84l.48,0A12.17,12.17,0,0,0,82,82.88H77v-.72h5.85l.15,0,.64.4a.35.35,0,0,1-.18.1,12.83,12.83,0,0,1-2.81,1.87V85Zm-.61-6.53a.23.23,0,0,1-.13,0h-.11a34.73,34.73,0,0,1-6.59,1,3.32,3.32,0,0,0-.23-.67,32.7,32.7,0,0,0,6.39-1Zm-6,1.33a8.94,8.94,0,0,1,1,1.93l-.74.3a8.13,8.13,0,0,0-.93-2ZM80,79.4a8.38,8.38,0,0,1,.77,2.09l-.75.24a8.38,8.38,0,0,0-.72-2.11Zm3.85.4a.25.25,0,0,1-.25.09,18.82,18.82,0,0,1-1.49,2.23l-.61-.3a14.42,14.42,0,0,0,1.4-2.41Z"/><path class="cls-2" d="M86.85,81.2a8.61,8.61,0,0,1,2,1.14l-.47.66a8.41,8.41,0,0,0-2-1.2Zm-.23,7.16a36.63,36.63,0,0,0,1.55-3.91l.65.42c-.41,1.26-1,2.75-1.38,3.66a.27.27,0,0,1,.07.18.35.35,0,0,1,0,.13Zm.76-10.42a7.36,7.36,0,0,1,1.92,1.27l-.48.63a8.83,8.83,0,0,0-1.91-1.33Zm5.05,4.49.41,0a2.35,2.35,0,0,1,0,.26c-.08,4.1-.17,5.45-.46,5.84s-.59.39-1.12.39l-.8,0a2,2,0,0,0-.2-.73c.48,0,.93,0,1.1,0s.28,0,.36-.16.29-1.46.36-4.89H90.91c-.17,2.21-.59,4.36-1.78,5.76a2.25,2.25,0,0,0-.6-.5c1.49-1.71,1.68-4.85,1.74-7.8H89.13v-.77h1.68V77.79l1,.06c0,.09-.07.15-.23.17v1.85h1.68v.77H91c0,.58,0,1.18-.06,1.79Zm5.16,2.18v.73H95.68V88c0,.89-.39.93-2.07.93a3.91,3.91,0,0,0-.24-.76h.85c.63,0,.7,0,.7-.19V85.34H93.11v-.73h1.81V83.38h.37a6.9,6.9,0,0,0,.88-1H93.64v-.56c-.07.11-.13.22-.2.32a4.12,4.12,0,0,0-.64-.41,11.88,11.88,0,0,0,1.43-4l1,.24c0,.08-.1.11-.25.11a11,11,0,0,1-.35,1.34h3v.76H94.36a10.44,10.44,0,0,1-.62,1.42h3l.12,0,.59.37a.27.27,0,0,1-.18.1,9.23,9.23,0,0,1-1.63,1.82v.68Z"/><path class="cls-2" d="M105.76,87.76h5v.79H100v-.79h5V84.55h-3.66v-.78h3.66V81H102a9.46,9.46,0,0,1-1.44,2.22,5.78,5.78,0,0,0-.67-.49,11.63,11.63,0,0,0,2.32-4.7l1.05.29c0,.08-.12.13-.28.13a18.37,18.37,0,0,1-.62,1.76h2.58V77.81l1.07.06c0,.08-.08.14-.25.16V80.2h4.48V81h-4.48v2.78h4v.78h-4Z"/><path class="cls-2" d="M117.83,84.46l-1.69.37V89h-.79V85l-1.74.38a.2.2,0,0,1-.15.17l-.31-.92c.6-.09,1.36-.24,2.2-.41V81.14h-1.18a12.42,12.42,0,0,1-.45,1.88,3.84,3.84,0,0,0-.6-.33,19.62,19.62,0,0,0,.64-4.22l.93.2c0,.08-.11.12-.25.13,0,.51-.1,1-.15,1.56h1.06V77.82l1,.06c0,.08-.07.14-.23.17v2.31h1.53v.78h-1.53v3l1.62-.32Zm5.73-4.29.43,0a1.41,1.41,0,0,1,0,.28c-.22,5.61-.43,7.46-.88,8-.23.33-.48.46-1.28.46l-.86,0a1.83,1.83,0,0,0-.23-.81c.54,0,1,.05,1.24.05a.45.45,0,0,0,.43-.2c.35-.41.59-2.16.78-7h-.94c-.34,2.9-1.17,6.32-2.45,8a3.37,3.37,0,0,0-.7-.4c1.32-1.58,2.12-4.79,2.48-7.62h-1c-.45,2.45-1.38,5.37-2.58,6.86a3.12,3.12,0,0,0-.72-.4c1.21-1.37,2.14-4.07,2.59-6.46h-1a9.87,9.87,0,0,1-1.17,2.63,5.08,5.08,0,0,0-.61-.45,13.86,13.86,0,0,0,1.71-5.35l1,.21c0,.09-.11.14-.27.14-.12.69-.26,1.39-.44,2.06h4.49Z"/><path class="cls-2" d="M138.71,78.62h9v7.17h-.82v-.62h-3.31V89h-.83V85.17H139.5v.67h-.79Zm4,.78H139.5v2.12h3.25Zm-3.25,5h3.25v-2.1H139.5Zm7.39-2.87V79.4h-3.31v2.12Zm-3.31,2.87h3.31v-2.1h-3.31Z"/><path class="cls-2" d="M155.24,87l1.13-.36.09.64-2.2.78a.23.23,0,0,1-.13.18l-.38-.82.76-.2v-2h-1.84V86a3.28,3.28,0,0,1-1.28,2.83,3,3,0,0,0-.55-.52,2.6,2.6,0,0,0,1.1-2.32V84.55h3.3Zm-2-6.63v-.94h-2.31V78.8h2.31v-1l1,.06c0,.08-.07.14-.23.16v.77h2.23v.62H154v.94h1.89V81h-4.55v-.61ZM151,81.74h5.24v1.74h-.7V82.36h-3.87v1.12H151Zm4.22,2H152v-.61h3.18Zm5.88-.58.48.21a.34.34,0,0,1-.09.12,7.76,7.76,0,0,1-1.87,3.39,6.78,6.78,0,0,0,2.55,1.42,3.5,3.5,0,0,0-.52.68A7.32,7.32,0,0,1,159,87.4,8.36,8.36,0,0,1,156.25,89a3.12,3.12,0,0,0-.43-.66,7.57,7.57,0,0,0,2.66-1.44A8.33,8.33,0,0,1,157,84.16l.7-.19A7.13,7.13,0,0,0,159,86.33a6.89,6.89,0,0,0,1.48-2.42h-3.94v-.73h4.32Zm-3.12-4v.94a3.4,3.4,0,0,1-1.2,2.86,3,3,0,0,0-.54-.53,2.69,2.69,0,0,0,1-2.34V78.4h3.46v3c0,.47,0,.47.22.47.51,0,.57,0,.6-.31,0-.16,0-.54.05-1a1.84,1.84,0,0,0,.59.31c-.05,1.23-.08,1.65-.91,1.65h-.49c-.8,0-.8-.54-.8-1.18V79.14Z"/><path class="cls-2" d="M166.46,83.31v-1.9a7,7,0,0,1-1.91,1.89,3,3,0,0,0-.47-.54,6.46,6.46,0,0,0,2.11-2h-1.93v-.68h2.2V77.82l.95.06c0,.07-.07.13-.23.15v2h2.19v.68h-2.19v.16c.49.29,1.91,1.22,2.24,1.48L169,83c-.34-.3-1.19-1-1.8-1.39v1.71Zm.7,2.09a3.88,3.88,0,0,1-.09.58c.75.52,1.65,1.22,2.14,1.65l-.54.55a18.25,18.25,0,0,0-1.82-1.5,4.36,4.36,0,0,1-2.32,2,3,3,0,0,0-.44-.61c1.76-.79,2.22-1.79,2.32-2.72h-2.17v-.72h2.2V83.57l1,.06c0,.09-.07.15-.23.17v.88h2.23v.72Zm-2-7.21a4.92,4.92,0,0,1,.73,1.39l-.61.26a5.63,5.63,0,0,0-.71-1.44Zm2.67,1.44a9.26,9.26,0,0,0,.72-1.49l.83.31c0,.08-.12.1-.24.1a10.51,10.51,0,0,1-.77,1.32Zm4,7.7a.3.3,0,0,1-.22.09A7.42,7.42,0,0,1,169.15,89a3.07,3.07,0,0,0-.54-.54,7.1,7.1,0,0,0,2.39-1.5Zm-1.91-7h1.63c.11-.39.21-.84.3-1.24h-2.35v-.72h5.82v.72h-2.64c-.09.36-.22.83-.36,1.24h2.56v6.31h-5Zm4.2,1.89V81h-3.46v1.25Zm0,1.87V82.87h-3.46v1.24Zm0,1.9V84.74h-3.46V86Zm-.68,1a14.13,14.13,0,0,1,2.1,1.55l-.63.44a14.08,14.08,0,0,0-2.07-1.58Z"/><path class="cls-2" d="M188.74,87.48c1.24-.21,3.18-.62,5-1l.06.67c-1.68.4-3.47.8-4.58,1a.22.22,0,0,1-.16.18Zm4.95-9v.75h-4.77v-.75Zm-.3,2v3.25h-4.13V80.46Zm-3.16,3.74a7.24,7.24,0,0,1,.52,2.28l-.7.18a9.08,9.08,0,0,0-.48-2.31ZM192.65,83V81.14H190V83Zm.53,1.36a.27.27,0,0,1-.25.12,22.69,22.69,0,0,1-.64,2.28c-.13,0-.48-.2-.61-.23a20.56,20.56,0,0,0,.56-2.46Zm3.16,3a.27.27,0,0,1-.22.1A7.75,7.75,0,0,1,193.61,89a3.57,3.57,0,0,0-.55-.55,7,7,0,0,0,2.49-1.47Zm-1.92-7h1.68c.11-.39.21-.84.28-1.24H194v-.72h5.92v.72h-2.71c-.08.36-.2.82-.33,1.24h2.6v6.33h-5.08Zm4.3,1.89V81h-3.55v1.25Zm0,1.9V82.85h-3.55v1.29Zm0,1.89V84.75h-3.55V86Zm.75,2.93a14.25,14.25,0,0,0-2.07-1.56L198,87a15.8,15.8,0,0,1,2.11,1.52Z"/><path class="cls-2" d="M208.16,85.17v2.64c.9.18,1.32.18,5.15.18a3.07,3.07,0,0,0-.3.78H210.3c-2.63,0-4.5-.48-5.64-2.65A6.36,6.36,0,0,1,202.72,89a3.49,3.49,0,0,0-.59-.56c1.5-1.12,2.1-3.2,2.29-5l1.06.16c0,.08-.09.13-.24.14-.06.42-.15.88-.25,1.33a3.87,3.87,0,0,0,2.35,2.5V82.63h-3.65V78.4H212v4.23h-3.81V84.4h4.14v.77Zm-3.67-6v2.67h6.64V79.18Z"/><path class="cls-2" d="M217.83,83.31v-1.9a7,7,0,0,1-1.91,1.89,3,3,0,0,0-.48-.54,6.36,6.36,0,0,0,2.11-2h-1.93v-.68h2.21V77.82l.94.06c0,.07-.07.13-.22.15v2h2.18v.68h-2.18v.16c.49.29,1.9,1.22,2.24,1.48l-.44.59c-.34-.3-1.19-1-1.8-1.39v1.71Zm.69,2.09a5.77,5.77,0,0,1-.08.58c.74.52,1.64,1.22,2.13,1.65l-.54.55a17.16,17.16,0,0,0-1.82-1.5,4.37,4.37,0,0,1-2.31,2,3,3,0,0,0-.45-.61c1.76-.79,2.22-1.79,2.33-2.72h-2.17v-.72h2.19V83.57l1,.06c0,.09-.07.15-.22.17v.88h2.23v.72Zm-2.05-7.21a4.68,4.68,0,0,1,.73,1.39l-.61.26a5.32,5.32,0,0,0-.71-1.44Zm2.68,1.44a10.19,10.19,0,0,0,.72-1.49l.82.31c0,.08-.12.1-.24.1a11.79,11.79,0,0,1-.76,1.32Zm4,7.7a.3.3,0,0,1-.22.09A7.42,7.42,0,0,1,220.51,89a3.07,3.07,0,0,0-.54-.54,7.1,7.1,0,0,0,2.39-1.5Zm-1.91-7h1.63c.11-.39.22-.84.3-1.24h-2.35v-.72h5.82v.72H224a10.42,10.42,0,0,1-.36,1.24h2.57v6.31h-5Zm4.2,1.89V81H222v1.25Zm0,1.87V82.87H222v1.24Zm0,1.9V84.74H222V86Zm-.67,1a14.13,14.13,0,0,1,2.1,1.55c-.07,0-.15.09-.64.44a14,14,0,0,0-2.06-1.58Z"/><path class="cls-2" d="M141.94,48.73c.83-.83,2.34,1.9,4.67,2.34s5.92.14,6.5.51-1.46,1.17-2,2a25.54,25.54,0,0,0-1.24,3.51c-.22.51-7.38,1.38-8.62,0S140.84,49.83,141.94,48.73Z"/><path class="cls-2" d="M153.09,63.14c-.82.73-3.81,2.19-5.84.9s-4.31-2.8-4.24-3.77c.13-1.76,1.51-.44,2.62-.59s4.4-1.31,4.91-1.07.15,1.32.57,1.92S153.92,62.4,153.09,63.14Z"/><path class="cls-2" d="M160.49,67.53a7,7,0,0,1-6.65-2.79c-.3-.57,1.06-1.39,2.06-1.7s3.24-.39,4.51-.74,3.09-1.44,3.67-.2A4.29,4.29,0,0,1,160.49,67.53Z"/><path class="cls-2" d="M158.49,56.56c.18.35.44,1.12-.14,1s-3.15-1.38-3.42-2.35.19-3,1.11-2.89c.58.09,0,1.81-.06,2.35S158.31,56.21,158.49,56.56Z"/><path class="cls-2" d="M162.52,53.17c.27.29.75.95.15,1s-3.42-.41-4-1.25-.7-3,.22-3.09c.59-.09.52,1.73.63,2.26S162.24,52.89,162.52,53.17Z"/><path class="cls-2" d="M160.51,47.18c.43-.16.68,1.24.86,1.62s2.17.17,2.43.34.73.6.28.73-2.67.26-3.23-.3S159.82,47.43,160.51,47.18Z"/><path class="cls-2" d="M171.06,45.41c-3.4,1.1-9.1-1-11,0s-1.64,4.05-3.94,4.27S143.23,50,143,45.85s7.78-8.22,7.78-8.22c6.25-1.64,8.43.55,9.86,2.3a9.47,9.47,0,0,0,4.27,3c1,.28,3.52,2.06,5.42.44s3.24-6.79-2.46-9.2-14.24-3.07-14.68-4.06,13.09,2.47,14.51,3,3.89,1.31,5.32,3.34C174.28,38.21,174.45,44.31,171.06,45.41Z"/><path class="cls-2" d="M162,38.87a1,1,0,1,1,1,1A1,1,0,0,1,162,38.87Z"/><polygon class="cls-2" points="96.84 38.84 96.36 38.93 95.32 35.51 94.28 32.83 94.76 32.73 95.35 34.79 96.84 38.84"/><polygon class="cls-2" points="96.53 38.85 96.2 39.2 93.72 36.49 91.59 34.48 91.92 34.13 93.39 35.79 96.53 38.85"/><polygon class="cls-2" points="96.29 39.04 96.2 39.55 92.94 38.27 90.31 37.48 90.39 36.97 92.35 37.77 96.29 39.04"/><polygon class="cls-2" points="96.19 39.34 96.38 39.87 93.21 40.37 90.77 41.01 90.59 40.48 92.5 40.21 96.19 39.34"/><polygon class="cls-2" points="96.27 39.68 96.67 40.09 94.44 42.23 92.86 44.13 92.46 43.72 93.82 42.45 96.27 39.68"/><polygon class="cls-2" points="96.49 39.96 97 40.14 96.32 43.36 96 46 95.49 45.82 95.94 43.9 96.49 39.96"/><polygon class="cls-2" points="96.8 40.11 97.28 40.02 98.32 43.44 99.37 46.12 98.89 46.22 98.29 44.16 96.8 40.11"/><polygon class="cls-2" points="97.12 40.09 97.45 39.74 99.93 42.46 102.06 44.47 101.73 44.81 100.25 43.16 97.12 40.09"/><polygon class="cls-2" points="97.36 39.91 97.44 39.4 100.7 40.68 103.34 41.47 103.25 41.98 101.3 41.18 97.36 39.91"/><polygon class="cls-2" points="97.45 39.61 97.27 39.08 100.43 38.58 102.88 37.94 103.06 38.47 101.14 38.74 97.45 39.61"/><polygon class="cls-2" points="97.38 39.27 96.98 38.86 99.2 36.72 100.79 34.82 101.19 35.23 99.83 36.49 97.38 39.27"/><polygon class="cls-2" points="97.15 38.99 96.64 38.81 97.33 35.59 97.64 32.95 98.15 33.13 97.71 35.05 97.15 38.99"/><path class="cls-2" d="M114.36,41c-.33.84.6,2.81-1.09,2.79s-5.14,2.24-7.44,4.44-3.3,4.63-3.1,4.68-.09.25,2.16-2.62,6.9-4.85,6.9-4.85c-1.06.92-2.45,4.89-2.23,5s.57-.65.75-1.2,2-3.69,3-2.18S111,50.87,110.68,51s-.78.78,1,0a6.56,6.56,0,0,0,2.73-2.76c.47,4.51-6,10.78-5.91,10.88s1.14-.17,4.3-3.91a14.62,14.62,0,0,0,3.1-8.73c.27-.91.59-1.12,1.87-1.42a1.64,1.64,0,0,0,1.38-1.56c-.11,0-.55.41-1,.54s-1.11-.06-1.14-.44.39-1.25.11-1.5-.37-.25-.65-.16-.8.58-1.3,0,.56-1.84.41-1.88A1.53,1.53,0,0,0,114.36,41Zm.2,6c-.32-2-1.89-1.82-1.89-1.82C117.1,42.16,114.56,47.07,114.56,47.07Z"/><path class="cls-2" d="M106.3,30.8c.13-.15,1.78,1.21,2.16,1.83a6.34,6.34,0,0,1,.85,4.34c-.44,1.83-.89,1.73-1,1.64a10.47,10.47,0,0,0,.16-2,15.56,15.56,0,0,0-1-3.67C107,32.27,106.3,30.8,106.3,30.8Z"/><path class="cls-2" d="M95,60c1.35.68,1.32.22,1.45-.26s.44-2.2-.59-2.29-2.1.65-1.86,1.26A4.46,4.46,0,0,0,95,60Z"/><path class="cls-2" d="M95.91,55.4c.47-1.57.1-1.57-.32-1.78s-1.86-.77-1.86.47.68,2.62,1.17,2.39A3.44,3.44,0,0,0,95.91,55.4Z"/><path class="cls-2" d="M98.73,59.33c1.35.68,1.32.22,1.45-.26s.44-2.2-.59-2.29-2.1.65-1.86,1.26A4.46,4.46,0,0,0,98.73,59.33Z"/><path class="cls-2" d="M92.27,58.83c-.84.94-1,.58-1.32.24s-1.32-1.56-.5-2,2-.16,2.09.39A3.14,3.14,0,0,1,92.27,58.83Z"/><path class="cls-2" d="M89.8,55.17c-1.26.24-1.19-.14-1.27-.58s-.24-2,.69-1.8,1.84,1.07,1.58,1.53A2.94,2.94,0,0,1,89.8,55.17Z"/><path class="cls-2" d="M88,59c-.83.94-1,.58-1.32.25s-1.32-1.57-.5-2,2-.15,2.1.4A3.23,3.23,0,0,1,88,59Z"/><path class="cls-2" d="M95.26,65.73c-.84.94-1,.58-1.32.24s-1.32-1.57-.5-2,2-.16,2.09.39A3.14,3.14,0,0,1,95.26,65.73Z"/><path class="cls-2" d="M93,62.46c-1.26.24-1.2-.14-1.28-.58s-.23-2,.7-1.8,1.84,1.07,1.57,1.53A2.94,2.94,0,0,1,93,62.46Z"/><path class="cls-2" d="M91.28,65.72c-.83.94-1,.58-1.32.24s-1.32-1.57-.5-1.95,2-.16,2.09.39A3.14,3.14,0,0,1,91.28,65.72Z"/><path class="cls-2" d="M87.6,42.22c-.2.23-1.51,2.06-1.42,1.47A29,29,0,0,0,87,40.84c-.18,0-.62.66-.67,1.06s-.77,2.36-.55.46-.66-2.7-.58-2a7,7,0,0,1-.39,2.88,4.15,4.15,0,0,0-2.2,3.8,21.06,21.06,0,0,1-.89,2.12c-.17.19-.41.65.13.44s1.3-1.88,1.46-1.77a1.14,1.14,0,0,1,0,1.25c-.27.61-.41,2.07-.2,1.77s.84-2.42,1-2.26-.23,1.14-.24,1.88.41,1.26.38.11a2.89,2.89,0,0,1,.54-1.84c1.79-.92,1.77-3.91,1.88-4.5s1.5-1.92,1.5-2.06S87.8,42,87.6,42.22Zm-4.46,5.07c-.11,0-.21-.09-.22-.17s.08-.14.2-.14.21.09.22.17S83.26,47.29,83.14,47.29Zm.1-.84c.1-.88.48-1.9,1.06-2.06S83.24,46.45,83.24,46.45Zm2.35.84a1.5,1.5,0,0,1-1.11.71c-.37,0-.4-.32-.63-.69a1.23,1.23,0,0,1,.6.29C84.76,47.86,85.73,46.92,85.59,47.29Zm.2-1.49c-.19.2-.2.44-.52.83s-.84,0-1.17-.1.46-.49.71-1.17.25-1,.41-1.15a1.88,1.88,0,0,1,.7.31C86.23,44.76,86,45.61,85.79,45.8Z"/><path class="cls-2" d="M85.45,44.75a4.17,4.17,0,0,1-.39,1.06c-.15.22-.31.42,0,.35s.57-.63.58-1.07S85.45,44.75,85.45,44.75Z"/><path class="cls-2" d="M82,40.3c.51,1,1.91,1.17,1.85.91s-.31-1.2-1.08-1.06Z"/><path class="cls-2" d="M79.55,41.29c0,.39.51,1,.84.72a.53.53,0,0,0,0-.88C80.13,40.9,79.51,40.87,79.55,41.29Z"/><path class="cls-2" d="M81,38.66c0,.15,0,.28-.14.3a.27.27,0,0,1-.28-.23.23.23,0,0,1,.14-.3A.27.27,0,0,1,81,38.66Z"/><path class="cls-2" d="M103.22,62.34c.32.12,1.06-.24,1,.4a5.94,5.94,0,0,0,1.7,2.79,3.57,3.57,0,0,0,1.78,1.15c0-.07.09,0-1-.8a7.74,7.74,0,0,1-1.85-2.59,4.44,4.44,0,0,0,1.89.83c0-.09-.24-.22-.45-.28s-1.4-.74-.83-1.12,1.42.87,1.46,1,.3.29,0-.37a2.43,2.43,0,0,0-1-1c1.7-.2,4.08,2.22,4.12,2.19s-.07-.43-1.48-1.61a5.56,5.56,0,0,0-3.31-1.14c-.34-.1-.42-.22-.53-.7a.63.63,0,0,0-.6-.52s.16.21.21.38,0,.42-.17.43-.46-.14-.56,0a.18.18,0,0,0-.06.24c0,.11.22.3,0,.49s-.69-.2-.71-.15S102.89,62.21,103.22,62.34Zm2.27-.1c-.74.13-.68.72-.68.72C103.63,61.3,105.49,62.24,105.49,62.24Z"/><path class="cls-2" d="M58,34.69c-6.08-8.29-11.5.5-11.5.5,5.85,8.71,10.37,2.52,11.56.55,2.35,4.79,3-.56,3-.56C60.41,29.93,58.63,33.33,58,34.69Zm-8.6.73a1,1,0,0,1,0-1.87,1,1,0,0,1,0,1.87Z"/><path class="cls-2" d="M54.91,58.32c-9.73-13.26-18.38.8-18.38.8C45.88,73,53.1,63.14,55,60c3.75,7.67,4.79-.88,4.79-.88C58.72,50.7,55.88,56.14,54.91,58.32ZM41.82,59.84a1.83,1.83,0,0,1-1.61-1,.75.75,0,0,1-.07-.12,1.17,1.17,0,0,0,0-.11,2.17,2.17,0,0,1-.07-.24.29.29,0,0,1,0-.09A1.86,1.86,0,0,1,40,58a2,2,0,0,1,0-.35.29.29,0,0,1,0-.09,2,2,0,0,1,.07-.23l0-.11a.83.83,0,0,1,.07-.13,1.85,1.85,0,1,1,1.61,2.76Z"/><path class="cls-2" d="M21.58,43.26s.83,6.84,3.83.71c1.52,2.51,7.3,10.43,14.77-.7,0,0-6.92-11.24-14.7-.64C24.71,40.89,22.44,36.54,21.58,43.26Zm13.63-.89a1.28,1.28,0,1,1,1.28,1.27A1.28,1.28,0,0,1,35.21,42.37Z"/><path class="cls-2" d="M208.77,50.11c3.09-.18,5.09.29,5.51-2.11s-.21-19.95-4.74-19.95-7,18-5.59,20.37S207.41,50.19,208.77,50.11Z"/><path class="cls-2" d="M204.13,32.72c-.1-1.17-3.61.42-4.14,1.85s1.7,6.45,2.16,5.67.41-4.41,1.16-5.27A3.09,3.09,0,0,0,204.13,32.72Z"/><path class="cls-2" d="M213.68,29.85c.18-1.41,4.34.71,4.89,2.46S216.13,40,215.63,39s-.24-5.34-1.09-6.43A3.74,3.74,0,0,1,213.68,29.85Z"/><path class="cls-2" d="M207.43,52.05a.82.82,0,0,1-1.63,0,.82.82,0,0,1,1.63,0Z"/><path class="cls-2" d="M212.54,52a.74.74,0,0,1-1.47,0,.74.74,0,0,1,1.47,0Z"/><path class="cls-2" d="M204.46,52c-.08-1.16-2.4-1.28-3.7-.91s-4.07-2-3.88-3.52,1-5.39-.64-6.89-6.5-4.79-7.2-3.82,1.05,4.92,2,5.28,3.14-1.26,3.77,0-.56,4.17-.45,5.35,2.1,6.72,5.75,6.86S204.59,53.75,204.46,52Z"/><path class="cls-2" d="M214.65,51.71c-.09-1.16,2.18-1.64,3.52-1.47s3.72-2.61,3.3-4.07-1.76-5.18-.42-6.91,5.69-5.73,6.53-4.87-.28,5-1.13,5.51-3.3-.76-3.72.63,1.19,4,1.27,5.22-1.06,7-4.64,7.66S214.79,53.41,214.65,51.71Z"/><path class="cls-2" d="M209,54.13c2.74,0,3.23.21,4.56,1.67s2.25,3.34,3.16,3.55.63,1-.56,1a9.13,9.13,0,0,1-3.6-1c-.54-.35-.47.49-.33,1.81s-1.2,5-2,6.34-.83,2.09-1.26,1.81.84-5.5.84-7.31-.91-3.28-1.27-2.86a8.54,8.54,0,0,0-.49,4.46c.35,1.25.32,2.71-.12,2.51s-2.19-3.49-1.77-5.58-.42-2.85-1-2.43-2.81,2.36-3.3,2.29,0-1.67,1.06-2.43,2.21-2.67,2.86-3.36S208.28,54.14,209,54.13Z"/></g></g></svg>