<svg xmlns="http://www.w3.org/2000/svg" viewBox="0 0 250 146"><defs><style>.cls-1{fill:#c1bd31;opacity:0.8;}.cls-2{fill:#fff;}</style></defs><title>height_detail</title><g id="圖層_2" data-name="圖層 2"><g id="height_detail"><path class="cls-1" d="M215,0H35A35.1,35.1,0,0,0,0,35V88a35.1,35.1,0,0,0,35,35h72.39A95,95,0,0,0,125,146a95,95,0,0,0,17.61-23H215a35.1,35.1,0,0,0,35-35V35A35.1,35.1,0,0,0,215,0Z"/><path class="cls-2" d="M120.85,102.93v-6h0l-1.1.64-.18-.56,1.39-.79h.64v6.75Z"/><path class="cls-2" d="M124.85,99.58c0-2.36.91-3.5,2.18-3.5s2.06,1.2,2.06,3.41-.82,3.55-2.16,3.55S124.85,101.83,124.85,99.58Zm3.48-.06c0-1.68-.4-2.84-1.35-2.84-.8,0-1.37,1.07-1.37,2.84s.5,2.9,1.34,2.9C128,102.42,128.33,101.13,128.33,99.52Z"/><path class="cls-2" d="M130.82,99.58c0-2.36.92-3.5,2.18-3.5s2.06,1.2,2.06,3.41-.82,3.55-2.16,3.55S130.82,101.83,130.82,99.58Zm3.49-.06c0-1.68-.41-2.84-1.35-2.84s-1.37,1.07-1.37,2.84.49,2.9,1.34,2.9C133.93,102.42,134.31,101.13,134.31,99.52Z"/><line class="cls-2" x1="84.5" y1="85" x2="84.5" y2="97"/><path class="cls-2" d="M83.75,85V97a.75.75,0,0,0,1.5,0V85a.75.75,0,0,0-1.5,0Z"/><line class="cls-2" x1="167.5" y1="85" x2="167.5" y2="97"/><path class="cls-2" d="M166.75,85V97a.75.75,0,0,0,1.5,0V85a.75.75,0,0,0-1.5,0Z"/><line class="cls-2" x1="53" y1="91" x2="199" y2="91"/><path class="cls-2" d="M53,91.75H199a.75.75,0,0,0,0-1.5H53a.75.75,0,0,0,0,1.5Z"/><path class="cls-2" d="M217.46,93.15a3.86,3.86,0,0,1-1.63.34A2.79,2.79,0,0,1,213,90.43a3,3,0,0,1,3.07-3.2,3.31,3.31,0,0,1,1.44.32l-.23.73A2.46,2.46,0,0,0,216,88a2.15,2.15,0,0,0-2.11,2.4A2.11,2.11,0,0,0,216,92.74a3.07,3.07,0,0,0,1.3-.3Z"/><path class="cls-2" d="M228.14,93.37h-.9V89.9c0-1.17-.42-1.91-1.32-1.91a1.52,1.52,0,0,0-1.41,1.6v3.78h-.9v-3.7c0-1-.41-1.68-1.25-1.68a1.63,1.63,0,0,0-1.48,1.7v3.68H220V88.91c0-.61,0-1,0-1.55h.8l0,1h0a2,2,0,0,1,1.82-1.1,1.71,1.71,0,0,1,1.64,1.2h0a2.1,2.1,0,0,1,1.93-1.2c.74,0,1.9.47,1.9,2.53Z"/><circle class="cls-2" cx="31" cy="91" r="2"/><path class="cls-2" d="M167.52,61.14c-.38-4.85-5.45-7-8.82-7.69-2.87-.55-8.45.21-10.54.54,1.45-4,3.53-9.23,3.94-10.15a10.61,10.61,0,0,0,1.15-4.44c-.11-1.28.18-1,.43-2.22S153,35.6,151.8,35c-.81-.38-4.06-2-6-2a2.93,2.93,0,0,1-2.56-1c-1.25-3.65-8.94-8.71-8.94-8.71-1.09-2.29-5.17-3.65-10.84-5.18q-1.48-.41-3-.69c-.66-.93-1.14-1.57-1.14-1.57a8.2,8.2,0,0,0-1.63-.41c-.38,0,0,.25-1.09.41s-1.17.57-2.07.52-1.44-.52-2.62-.33a22.57,22.57,0,0,1-3.81.57,22.38,22.38,0,0,0-5.23.58c-1.39.4-6.16,1.19-7.41,1.85s-1.66,2.23-2.4,2.5A23.47,23.47,0,0,0,90,23.82a22.6,22.6,0,0,0-3.84,4A30.2,30.2,0,0,1,84.33,32a14.86,14.86,0,0,0-1.72,3.79c0,.46-.32,1.82-.35,2.69a24.14,24.14,0,0,0,.27,3l.11,1.37a.5.5,0,0,1,0-.12A41.12,41.12,0,0,0,82,49.53a20.49,20.49,0,0,0,5.89,13.24,15.58,15.58,0,0,0,7.69,4.14A57.89,57.89,0,0,1,103.69,69c1.34.49,1.42,0,2.16-.22s3.4,0,4.47-.49,3-.11,5.42-.85,3.77.08,5.06-.62A25.44,25.44,0,0,1,125,65.44a14.38,14.38,0,0,1,3.36-1.06l2,.09a72.56,72.56,0,0,0,7.41,6.67c3.3,2.4,5,1.09,5.33-.32.27-1.14,2-6.8,3.1-10.6,1.46-.53,3.1-1.08,4.57-1.5,3.74-1,3.37-.8,8.82-.51s5.92,5.09,5.92,6.47a14.26,14.26,0,0,1-2.72,7c-1.85,2.54-5.52,4.28-11.19,5.12a21.62,21.62,0,0,1-13-2.22c-2.72-1.41-7.19-4.54-9.44-5.19s-6.07-.91-8.32,1.09-1.12,3.83-1.12,3.83c-.33-1.25.38-2.45,2.18-3.87s6.15-.43,7.73.22,2.13,1.14,6.05,4.09,6.76,3.81,12.86,4,9.15-1.26,13.78-4.52S167.9,66,167.52,61.14Zm-40.13,1.6h0Zm-38-13.27v0Zm1.11-5.53a2.88,2.88,0,0,0-.13.31A2.88,2.88,0,0,1,90.45,43.94Zm-.17.42-.09.22Zm-.14.36a1.72,1.72,0,0,1-.07.21A1.72,1.72,0,0,0,90.14,44.72Zm-.12.37L90,45.3Zm-.11.38c0,.07,0,.14,0,.22C89.88,45.61,89.89,45.54,89.91,45.47Zm-.1.4c0,.07,0,.15,0,.22S89.79,45.94,89.81,45.87Zm-.09.41c0,.08,0,.15,0,.23C89.69,46.43,89.7,46.36,89.72,46.28Zm-.09.43a1.85,1.85,0,0,1,0,.23A1.85,1.85,0,0,0,89.63,46.71Zm-.07.44c0,.08,0,.16,0,.24C89.53,47.31,89.55,47.23,89.56,47.15Zm-.07.45,0,.24Zm0,.45,0,.26Zm0,.47c0,.09,0,.18,0,.27C89.38,48.7,89.39,48.61,89.39,48.52Zm0,.47c0,.1,0,.2,0,.31C89.35,49.19,89.36,49.09,89.36,49Zm0,1.15v0Zm0,.51v0Zm11.2,8.73a4.49,4.49,0,0,1-2.62,0s-.32.44-2.5.76c-.24,0-.48.06-.72.08a39.41,39.41,0,0,1-3.21-3.2A10,10,0,0,1,89.37,51a37.4,37.4,0,0,0,1.06-3.81c.25-1.37.57-1.48,1.53-3.25a11.42,11.42,0,0,1,3.24-3.65,21.29,21.29,0,0,0,2.45-1.66,15.67,15.67,0,0,1,3.91-1.69,2.47,2.47,0,0,0,1.89-.54c1.2-.76,1.31-.22,2.58-1.31a3.54,3.54,0,0,0,1.13-2.65c.07-.15.32-.58.32-.58s1.82,1.27,4,2.69a11,11,0,0,0,6,1.6c1.56,0,1.88.25,2.07,1.23a5.36,5.36,0,0,1-.77,3.41c-.58.8-5.81,2.84-8.06,4.11s-1.45,2.65-.4,4,2.62,1.64,4.79,2.51,2.91,1.74,5.05,3a20.1,20.1,0,0,1,3.63,3.25l-.67-.69a6.56,6.56,0,0,1-2.08.45,7.37,7.37,0,0,0-3.56,1.31c-1,.58-2.11.94-5.82,1.27a14.87,14.87,0,0,1-7-.76A5.36,5.36,0,0,0,100.55,59.38Zm18.57.26-.3.08Zm.32-.08-.24.06Zm3.45-.81c-1.06.27-2.12.49-3,.71C120.77,59.24,121.83,59,122.89,58.75Zm-3.09.72-.27.06Zm3.46-.82-.32.08Zm.49-1.06.67.71-.31.1.31-.1Zm.29.84-.31.09Zm-.39.11-.31.09Zm3.79,4.19.15,0-.15,0Zm.51-.16-.16,0Zm-.84.27-.17.06Zm-.39.14-.17.07Zm-.42.16-.16.06Zm1.83-.62.15-.05ZM85.89,32.32a1.28,1.28,0,0,1,.11-.2A1.28,1.28,0,0,0,85.89,32.32Zm.33-.58a1,1,0,0,0,.11-.17A1,1,0,0,1,86.22,31.74Zm-.54,1-.11.2Zm-.36.72,0,.09Zm-.32.72-.09.21Zm-.27.66a1.86,1.86,0,0,1-.1.25A1.86,1.86,0,0,0,84.73,34.81Zm-.26.7-.09.25ZM82.8,41.9c0,.08,0,.16,0,.24C82.77,42.06,82.79,42,82.8,41.9Zm1.4-5.6a.75.75,0,0,0,0,.16A.75.75,0,0,1,84.2,36.3Zm-.27.86a2,2,0,0,0-.07.23A2,2,0,0,1,83.93,37.16Zm-.22.73a2.68,2.68,0,0,1-.07.27A2.68,2.68,0,0,0,83.71,37.89Zm-.2.75-.06.27Zm-.2.83c0,.06,0,.12,0,.18S83.3,39.53,83.31,39.47Zm-.21.92c0,.06,0,.13,0,.19S83.09,40.45,83.1,40.39Zm-.15.75a2.21,2.21,0,0,0,0,.25A2.21,2.21,0,0,1,83,41.14Z"/></g></g></svg>