<svg xmlns="http://www.w3.org/2000/svg" viewBox="0 0 564.82 327.32"><defs><style>.cls-1{fill:#e8d6cb;}.cls-2{fill:#987559;}</style></defs><title>block</title><g id="圖層_2" data-name="圖層 2"><g id="block"><path class="cls-1" d="M8.85,171.29c-7-11.71-13.11-25.78-4.93-41.37,6.75-12.85,2.49-25.37.44-31.39C.84,88.19-.51,66.35,19.61,57.72c1.4-.6,2.72-1.14,4-1.63a125.07,125.07,0,0,1-2.74-19.43c-.46-5.79,2.1-9.09,4.32-10.83,6.57-5.15,19.21-3.77,28.14-1.9C55.61,17.3,59,12.11,63.53,8.43c7.26-5.93,17.32-8,29.92-6.17a208.52,208.52,0,0,1,22.23,4.67c12.8,3.24,20.54,5.2,32.53-.91C168.31-4.21,181.45,1.64,182,1.89l-2.61,5.64c-.42-.18-11.13-4.74-28.36,4C137,18.72,127.39,16.3,114.15,13A202.33,202.33,0,0,0,92.54,8.41c-10.79-1.58-19.23.05-25.08,4.83a27.47,27.47,0,0,0-8.1,12.16c2.21.61,3.64,1.08,3.89,1.16A12.47,12.47,0,0,1,71.82,39C71.7,44.37,68,51.72,57.94,54.59c-1.29.37-2.49.68-3.62.95-3,11.68-8.66,15.55-11.44,16.77a10.66,10.66,0,0,1-11.25-1.39A21.7,21.7,0,0,1,25.47,62c-1.08.43-2.21.89-3.41,1.41C2.15,72,10.16,96.28,10.24,96.53c2.33,6.84,7.17,21.07-.81,36.28-6.74,12.83-1.7,24.54,4.74,35.28ZM31.34,59.91a15.3,15.3,0,0,0,4.24,6.21,4.43,4.43,0,0,0,4.8.5c1.34-.59,4.76-2.74,7.13-9.82-1.08.16-2.12.28-3.15.41A61.52,61.52,0,0,0,31.34,59.91ZM38.8,28.42c-4.12,0-7.69.64-9.8,2.3-1,.76-2.23,2.14-2,5.45A122.68,122.68,0,0,0,29.49,54,67.33,67.33,0,0,1,43.61,51c1.73-.21,3.5-.43,5.48-.77a66.18,66.18,0,0,0,.75-7.12A79,79,0,0,1,51.6,29.9,65.68,65.68,0,0,0,38.8,28.42Zm18.84,2.93a73.15,73.15,0,0,0-1.59,12.14q-.16,2.84-.48,5.31l.66-.18c6.8-1.95,9.3-6.34,9.38-9.8a6.31,6.31,0,0,0-4.33-6.37C60.17,32.08,58.94,31.71,57.64,31.35Z"/><path class="cls-2" d="M7.55,114.6a32.93,32.93,0,0,1-1,8.46c1.81,2.13,3.52,4.09,4.78,5.45a37.51,37.51,0,0,0,2.26-9.26C11.89,118,9.62,116.24,7.55,114.6Z"/><path class="cls-2" d="M50.29,23.35a72.14,72.14,0,0,0-8.41-1l-4.07,6.1,1,0a51.24,51.24,0,0,1,6.05.39Z"/><path class="cls-2" d="M63.06,18.09a23.32,23.32,0,0,1,4.39-4.85c.21-.18.45-.32.67-.48.3-1.92.88-5.32,1.59-8.15a27.92,27.92,0,0,0-6.19,3.81c-.56.45-1.09.93-1.61,1.42A56.44,56.44,0,0,0,63.06,18.09Z"/><path class="cls-2" d="M5.83,125.44a31.67,31.67,0,0,1-1.92,4.47c-.57,1.09-1.05,2.16-1.49,3.23,1.41,1.33,3.33,3,5,4.34a28.82,28.82,0,0,1,2-4.68c.39-.73.71-1.46,1-2.18C9.47,129.61,8,128,5.83,125.44Z"/><path class="cls-2" d="M27.55,41.81a32.83,32.83,0,0,1-6.72-5.28.48.48,0,0,0,0,.12c.25,3.17.55,6.1.9,8.89a23,23,0,0,0,6.81,3.64C28.17,47,27.84,44.52,27.55,41.81Z"/><path class="cls-2" d="M10.78,74.12a20.06,20.06,0,0,1,4.17-6,55.68,55.68,0,0,1,.26-8.1,26.44,26.44,0,0,0-8,7.72C7.68,69.86,8.72,72.83,10.78,74.12Z"/><path class="cls-2" d="M27.29,39.25q-.13-1.5-.27-3.09a6.24,6.24,0,0,1,1.05-4.53,7.28,7.28,0,0,1-1.33-3.14,7.15,7.15,0,0,1,.67-4.06,12.56,12.56,0,0,0-2.26,1.39,11.28,11.28,0,0,0-4.26,7.83A44.05,44.05,0,0,0,27.29,39.25Z"/><path class="cls-2" d="M28.79,28.19a5,5,0,0,0,.85,2.08,13.66,13.66,0,0,1,5.56-1.66l4.24-6.36a32.48,32.48,0,0,0-8.76.95C29.23,24.94,28.56,26.62,28.79,28.19Z"/><path class="cls-2" d="M51,33l5.61,4.46q.41-3.24,1-6.12l.07,0-1.46-1.25A25.47,25.47,0,0,1,61,25.87l-1.67-.48a34.3,34.3,0,0,1,2.38-5.1c-.89-1.48-1.43-5.42-1.72-8.42a35.83,35.83,0,0,0-6.23,10.75l.08.09-.19.18-.39,1-.53-.1-5.34,5.33c1.41.22,2.8.46,4.18.74C51.36,30.9,51.15,31.93,51,33Z"/><path class="cls-2" d="M155.79,9.41a46.57,46.57,0,0,1,8.43-2.53,61,61,0,0,0,4.46-6.8,46.7,46.7,0,0,0-10.69,2C157.21,4.55,156.4,7.27,155.79,9.41Z"/><path class="cls-2" d="M121.62,14.75a61.34,61.34,0,0,0,8.52,1.34c1.28-1.57,3.36-4.14,5-6.19a36.29,36.29,0,0,1-8.58-.52C125.06,11.15,123.2,13.14,121.62,14.75Z"/><path class="cls-2" d="M132.73,16.19A35.05,35.05,0,0,0,142.07,15c1.33-2.7,2.65-5.49,3.72-7.87A33.37,33.37,0,0,1,138,9.57C136.63,11.36,134.4,14.14,132.73,16.19Z"/><path class="cls-2" d="M30.42,53.67c-2.43,3.28-4.57,6.72-5,8.38a22.76,22.76,0,0,0,5,7.72A14.68,14.68,0,0,0,35.7,66.2l-.13-.08a15.42,15.42,0,0,1-4.25-6.22c.77-.25,1.5-.47,2.21-.67a59.32,59.32,0,0,0,3.15-7.16A63.67,63.67,0,0,0,30.42,53.67Z"/><path class="cls-2" d="M171,0a44.1,44.1,0,0,1-3.91,6.41,32.54,32.54,0,0,1,6.54-.12c1.08-2.08,2.13-4.22,2.79-5.9A35.16,35.16,0,0,0,171,0Z"/><path class="cls-2" d="M56.3,39.89l-5.7-4.53q-.54,3.69-.77,7.78a1.64,1.64,0,0,0,0,.22l5.77,5.24c.2-1.6.35-3.3.45-5.12C56.1,42.25,56.19,41.06,56.3,39.89Z"/><path class="cls-2" d="M100.74,9.83c2.77.55,5.34,1.13,7.76,1.71,1.55-1.22,4.08-3.27,5.86-4.95-2.08-.52-4.25-1.06-6.56-1.6C105,5.77,102.47,8,100.74,9.83Z"/><path class="cls-2" d="M63.67,26.74a20.33,20.33,0,0,0-5.83,4.66c1.22.35,2.38.7,3.43,1.05a6.2,6.2,0,0,1,1.44.7v-.82a29,29,0,0,1,8.09,1.28A12.23,12.23,0,0,0,63.67,26.74Z"/><path class="cls-2" d="M80,1.89a35.17,35.17,0,0,0-7.88,1.78,72.46,72.46,0,0,0-1.63,7.54,24.48,24.48,0,0,1,5.85-2.33C77.73,6.06,79,3.72,80,1.89Z"/><path class="cls-2" d="M64.18,34.47a6.59,6.59,0,0,1,1.41,4.34,8.9,8.9,0,0,1-.11,1A15.46,15.46,0,0,1,69,47.21a15.17,15.17,0,0,0,2.86-8.27,13.83,13.83,0,0,0-.27-2.82A22.84,22.84,0,0,0,64.18,34.47Z"/><path class="cls-2" d="M64.71,42.24a11.91,11.91,0,0,1-6.53,5.67l-.41,2.93-2.05-.28L56,48.68l-.42.11v0l-1.32,1.45L49.6,46c-.14,1.52-.31,3-.53,4.29-2,.34-3.74.56-5.48.77-1.49.18-3,.37-4.53.61-.77,2.06-1.84,4.77-2.85,6.9,2-.47,3.84-.78,5.57-1l4.88-4.12.67.58a56.69,56.69,0,0,1,5.7,5.7,39.56,39.56,0,0,0,1.28-4.16c1.12-.27,2.32-.58,3.62-1a20.8,20.8,0,0,0,9-5A12,12,0,0,0,64.71,42.24Z"/><path class="cls-2" d="M45.57,57c.6-.07,1.18-.14,1.8-.23l-.73-.67Z"/><path class="cls-2" d="M92.72,2.18a54.92,54.92,0,0,0-10.25-.46c-1,1.79-2.31,4.19-3.54,6.6a38.78,38.78,0,0,1,8.2-.41A23.59,23.59,0,0,1,92.72,2.18Z"/><path class="cls-2" d="M155.58,2.83a60.61,60.61,0,0,0-6.93,3c-1.15,2.71-2.68,5.94-3.87,8.4A48.22,48.22,0,0,0,151,11.55c.79-.4,1.55-.75,2.31-1.09C153.88,8.54,154.72,5.65,155.58,2.83Z"/><path class="cls-2" d="M104.36,4.23C101.78,3.68,99,3.15,96,2.66a18.28,18.28,0,0,0-6.45,5.42c1,.09,1.93.18,2.94.33,2,.29,4,.62,5.82,1A25,25,0,0,1,104.36,4.23Z"/><path class="cls-2" d="M178.51.8a59.37,59.37,0,0,1-2.66,5.78,16.38,16.38,0,0,1,3.53,1L182,1.89A19.07,19.07,0,0,0,178.51.8Z"/><path class="cls-2" d="M47.46,56.9a22.18,22.18,0,0,1-3.12,6.22,29.42,29.42,0,0,1,1,7.72,21.71,21.71,0,0,0,6.77-8.94A39.52,39.52,0,0,0,47.46,56.9Z"/><path class="cls-2" d="M124.18,8.94c-2.33-.47-4.8-1.08-7.48-1.76a70.8,70.8,0,0,1-5.66,5l3.1.77c1.76.45,3.46.88,5.11,1.27C121,12.4,122.78,10.53,124.18,8.94Z"/><path class="cls-2" d="M6.87,139.63a61.11,61.11,0,0,1-5.23-4.38,31.61,31.61,0,0,0-1.58,8.24l6.28,4.2A25.71,25.71,0,0,1,6.87,139.63Z"/><path class="cls-2" d="M2.42,89.1l7,4.17a39.87,39.87,0,0,1-.81-6.83,47.34,47.34,0,0,1-6.1-5.11A40.47,40.47,0,0,0,2.42,89.1Z"/><path class="cls-2" d="M42.71,65a8.86,8.86,0,0,1-2.34,1.62A5.17,5.17,0,0,1,37.7,67a15.35,15.35,0,0,1-5.57,4.24,10.65,10.65,0,0,0,10.74,1l.42-.2A37.71,37.71,0,0,0,42.71,65Z"/><path class="cls-2" d="M9.07,158.24a37.72,37.72,0,0,1-2.36-7.81L0,146a36,36,0,0,0,1.22,8.5A42.18,42.18,0,0,0,9.07,158.24Z"/><path class="cls-2" d="M5.73,70.18a30.32,30.32,0,0,0-2.88,8.59A61.07,61.07,0,0,0,8.6,83.9,27.46,27.46,0,0,1,10,76.07C7.8,74.85,6.5,72.41,5.73,70.18Z"/><path class="cls-2" d="M10.23,96.52s-.06-.17-.13-.42L2.73,91.7a39.87,39.87,0,0,0,1.61,6.82c.18.54.39,1.14.59,1.77,2.06,1.2,5.15,2.95,7.66,4.25A79.82,79.82,0,0,0,10.23,96.52Z"/><path class="cls-2" d="M29.05,52c0-.2-.07-.4-.11-.59a23.7,23.7,0,0,1-6.84-3.08c.41,2.77.88,5.38,1.46,7.73-1.24.49-2.56,1-4,1.64-.75.32-1.47.67-2.16,1A71.83,71.83,0,0,0,17,66.36,24.1,24.1,0,0,1,22,63.43l1.32-.54C23.11,60.35,26.67,55.16,29.05,52Z"/><path class="cls-2" d="M13.12,107.12c-2.22-1.07-5.11-2.68-7.3-3.93a46.5,46.5,0,0,1,1.62,8.68c2.08,1.65,4.46,3.52,6.33,4.94A44.07,44.07,0,0,0,13.12,107.12Z"/><path class="cls-2" d="M2.1,157.35a72,72,0,0,0,6.73,13.93l5.33-3.2a82.48,82.48,0,0,1-4-7.33A38.28,38.28,0,0,1,2.1,157.35Z"/><path class="cls-1" d="M556,156c7,11.71,13.11,25.78,4.92,41.37-6.74,12.85-2.48,25.37-.43,31.39,3.52,10.34,4.86,32.18-15.25,40.8-1.4.61-2.72,1.15-4,1.64A124.71,124.71,0,0,1,544,290.66c.46,5.79-2.1,9.09-4.32,10.83-6.57,5.15-19.21,3.77-28.14,1.89q-3.47,10-10.23,15.5c-7.26,5.94-17.33,8-29.92,6.17a205.28,205.28,0,0,1-22.23-4.66c-12.81-3.24-20.54-5.2-32.53.91-20.1,10.23-33.24,4.38-33.79,4.12l2.61-5.64c.42.19,11.13,4.74,28.36-4,14.07-7.17,23.64-4.75,36.87-1.39a203.66,203.66,0,0,0,21.61,4.53c10.8,1.59,19.23,0,25.08-4.83a27.43,27.43,0,0,0,8.11-12.16c-2.21-.6-3.65-1.07-3.89-1.15A12.47,12.47,0,0,1,493,288.37c.11-5.43,3.82-12.77,13.88-15.65,1.29-.36,2.49-.68,3.61-.94,3-11.68,8.67-15.55,11.45-16.77a10.63,10.63,0,0,1,11.25,1.38,21.74,21.74,0,0,1,6.16,8.9c1.08-.43,2.21-.9,3.41-1.41,19.91-8.53,11.9-32.84,11.82-33.09-2.33-6.84-7.18-21.07.81-36.28,6.74-12.83,1.7-24.54-4.75-35.29ZM533.48,267.41a15.41,15.41,0,0,0-4.24-6.22,4.45,4.45,0,0,0-4.8-.49c-1.34.59-4.76,2.73-7.14,9.81,1.09-.15,2.13-.28,3.16-.4A62.28,62.28,0,0,0,533.48,267.41ZM526,298.9c4.13,0,7.69-.64,9.81-2.3,1-.76,2.22-2.15,2-5.45a122.85,122.85,0,0,0-2.45-17.8,67.57,67.57,0,0,1-14.12,2.93c-1.74.21-3.5.43-5.48.77a63.72,63.72,0,0,0-.75,7.12,80.08,80.08,0,0,1-1.76,13.25A65.58,65.58,0,0,0,526,298.9ZM507.18,296a73.15,73.15,0,0,0,1.59-12.14c.11-1.89.27-3.66.48-5.32l-.66.19c-6.8,1.94-9.3,6.34-9.38,9.8a6.3,6.3,0,0,0,4.32,6.36C504.65,295.23,505.88,295.61,507.18,296Z"/><path class="cls-2" d="M557.27,212.72a32.57,32.57,0,0,1,1-8.47c-1.81-2.12-3.53-4.08-4.78-5.44a37.55,37.55,0,0,0-2.26,9.25C552.93,209.31,555.2,211.08,557.27,212.72Z"/><path class="cls-2" d="M514.53,304a74.36,74.36,0,0,0,8.41,1l4.06-6.1-1,0a53.47,53.47,0,0,1-6-.39Z"/><path class="cls-2" d="M501.75,309.23a23,23,0,0,1-4.38,4.85c-.21.17-.45.31-.67.48-.3,1.92-.88,5.32-1.59,8.15a27.81,27.81,0,0,0,6.19-3.82c.55-.45,1.09-.92,1.6-1.42A53.84,53.84,0,0,0,501.75,309.23Z"/><path class="cls-2" d="M559,201.88a31.67,31.67,0,0,1,1.92-4.47c.57-1.09,1.05-2.17,1.49-3.23-1.42-1.33-3.33-3-5-4.34a29.74,29.74,0,0,1-2,4.68c-.39.73-.72,1.46-1,2.18C555.35,197.7,556.8,199.31,559,201.88Z"/><path class="cls-2" d="M537.27,285.5a33.22,33.22,0,0,1,6.72,5.29v-.13c-.25-3.16-.55-6.09-.9-8.89a23.24,23.24,0,0,0-6.81-3.63Q536.84,281.46,537.27,285.5Z"/><path class="cls-2" d="M554,253.19a19.77,19.77,0,0,1-4.16,6,55.72,55.72,0,0,1-.27,8.1,26.32,26.32,0,0,0,8-7.72C557.14,257.46,556.1,254.49,554,253.19Z"/><path class="cls-2" d="M537.53,288.06c.09,1,.18,2,.27,3.1a6.2,6.2,0,0,1-1,4.52,7.33,7.33,0,0,1,1.33,3.14,7.17,7.17,0,0,1-.67,4.07,12.56,12.56,0,0,0,2.26-1.39,11.33,11.33,0,0,0,4.26-7.84A45.21,45.21,0,0,0,537.53,288.06Z"/><path class="cls-2" d="M536,299.13a5.13,5.13,0,0,0-.85-2.09,13.66,13.66,0,0,1-5.57,1.67l-4.24,6.36a32.92,32.92,0,0,0,8.77-.95C535.59,302.38,536.26,300.7,536,299.13Z"/><path class="cls-2" d="M513.86,294.32l-5.61-4.46c-.28,2.15-.62,4.2-1.05,6.12l-.07,0,1.46,1.25a26.25,26.25,0,0,1-4.79,4.24c.49.15,1,.3,1.67.47a34.43,34.43,0,0,1-2.38,5.11c.89,1.47,1.43,5.42,1.72,8.42A36,36,0,0,0,511,304.69l-.08-.08.19-.19c.12-.34.26-.67.39-1l.53.11,5.33-5.34c-1.4-.21-2.8-.45-4.17-.73C513.46,296.42,513.67,295.38,513.86,294.32Z"/><path class="cls-2" d="M409,317.91a46.71,46.71,0,0,1-8.43,2.52,60.53,60.53,0,0,0-4.46,6.8,46.19,46.19,0,0,0,10.69-2C407.61,322.77,408.41,320.05,409,317.91Z"/><path class="cls-2" d="M443.2,312.56a62.82,62.82,0,0,0-8.52-1.33c-1.28,1.57-3.36,4.14-5,6.19a36.19,36.19,0,0,1,8.57.51C439.75,316.17,441.62,314.18,443.2,312.56Z"/><path class="cls-2" d="M432.09,311.13a34.65,34.65,0,0,0-9.34,1.17c-1.33,2.7-2.65,5.48-3.73,7.87a33.11,33.11,0,0,1,7.82-2.42C428.19,316,430.42,313.18,432.09,311.13Z"/><path class="cls-2" d="M534.4,273.65c2.43-3.29,4.56-6.73,5-8.39a22.87,22.87,0,0,0-5-7.71,14.55,14.55,0,0,0-5.28,3.57l.13.08a15.52,15.52,0,0,1,4.25,6.22c-.78.25-1.51.46-2.21.66a61,61,0,0,0-3.16,7.17A63.1,63.1,0,0,0,534.4,273.65Z"/><path class="cls-2" d="M393.79,327.31a43.58,43.58,0,0,1,3.91-6.41,32.54,32.54,0,0,1-6.54.12c-1.09,2.08-2.13,4.22-2.79,5.89A33.75,33.75,0,0,0,393.79,327.31Z"/><path class="cls-2" d="M508.51,287.43l5.71,4.53c.36-2.47.62-5,.77-7.78a1.8,1.8,0,0,0,0-.22l-5.77-5.25c-.2,1.61-.35,3.31-.45,5.13C508.72,285.07,508.63,286.26,508.51,287.43Z"/><path class="cls-2" d="M464.08,317.49c-2.77-.56-5.34-1.13-7.76-1.72-1.55,1.23-4.08,3.28-5.86,5,2.07.52,4.24,1.06,6.56,1.59C459.78,321.55,462.35,319.32,464.08,317.49Z"/><path class="cls-2" d="M501.14,300.58a20.27,20.27,0,0,0,5.84-4.67c-1.22-.34-2.38-.69-3.43-1a5.85,5.85,0,0,1-1.44-.71V295a29.22,29.22,0,0,1-8.09-1.27A12.27,12.27,0,0,0,501.14,300.58Z"/><path class="cls-2" d="M484.83,325.43a35.73,35.73,0,0,0,7.88-1.78c.61-2.1,1.2-5.08,1.63-7.55a23.67,23.67,0,0,1-5.85,2.33C487.09,321.26,485.86,323.6,484.83,325.43Z"/><path class="cls-2" d="M500.64,292.85a6.6,6.6,0,0,1-1.41-4.34,6.11,6.11,0,0,1,.11-1,15.41,15.41,0,0,1-3.47-7.39,15.14,15.14,0,0,0-2.86,8.27,13.76,13.76,0,0,0,.27,2.82A23.13,23.13,0,0,0,500.64,292.85Z"/><path class="cls-2" d="M500.11,285.07a11.86,11.86,0,0,1,6.53-5.66l.41-2.94,2.05.29-.26,1.88.42-.12v.06l1.32-1.45,4.64,4.22c.14-1.53.31-3,.52-4.29,2-.35,3.75-.56,5.49-.78,1.49-.18,3-.36,4.53-.61.77-2.05,1.84-4.76,2.85-6.9-2,.48-3.84.78-5.58,1l-4.87,4.11-.67-.57a57.47,57.47,0,0,1-5.71-5.7,41.92,41.92,0,0,0-1.27,4.15c-1.13.27-2.32.58-3.62,1a20.85,20.85,0,0,0-9,5A11.92,11.92,0,0,0,500.11,285.07Z"/><path class="cls-2" d="M519.25,270.27l-1.8.23c.27.26.53.49.73.67Z"/><path class="cls-2" d="M472.1,325.14a54.92,54.92,0,0,0,10.25.46c1-1.79,2.31-4.19,3.54-6.6a39.46,39.46,0,0,1-8.2.41A23.59,23.59,0,0,1,472.1,325.14Z"/><path class="cls-2" d="M409.24,324.49a62.45,62.45,0,0,0,6.93-3c1.15-2.71,2.68-5.95,3.87-8.4a48.22,48.22,0,0,0-6.24,2.65c-.79.4-1.55.74-2.31,1.09C410.94,318.77,410.1,321.67,409.24,324.49Z"/><path class="cls-2" d="M460.46,323.09c2.58.55,5.33,1.08,8.32,1.56a18.32,18.32,0,0,0,6.44-5.41c-1-.09-1.92-.18-2.93-.33-2-.3-4-.62-5.82-1A25,25,0,0,1,460.46,323.09Z"/><path class="cls-2" d="M386.31,326.52a59.37,59.37,0,0,1,2.66-5.78,16.38,16.38,0,0,1-3.53-.95l-2.61,5.64A20,20,0,0,0,386.31,326.52Z"/><path class="cls-2" d="M517.36,270.42a22.26,22.26,0,0,1,3.12-6.23,29.34,29.34,0,0,1-1-7.71,21.71,21.71,0,0,0-6.77,8.94A39.52,39.52,0,0,0,517.36,270.42Z"/><path class="cls-2" d="M440.64,318.37c2.33.48,4.8,1.09,7.47,1.77a70.77,70.77,0,0,1,5.67-5l-3.1-.78c-1.76-.44-3.46-.87-5.11-1.26C443.78,314.92,442,316.79,440.64,318.37Z"/><path class="cls-2" d="M558,187.69a62.69,62.69,0,0,1,5.23,4.38,31.61,31.61,0,0,0,1.58-8.24l-6.28-4.21A26.37,26.37,0,0,1,558,187.69Z"/><path class="cls-2" d="M562.39,238.21l-7-4.16a40.9,40.9,0,0,1,.81,6.83,46.41,46.41,0,0,1,6.1,5.11A39.76,39.76,0,0,0,562.39,238.21Z"/><path class="cls-2" d="M522.11,262.33a8.62,8.62,0,0,1,2.34-1.62,5,5,0,0,1,2.67-.43,15.34,15.34,0,0,1,5.56-4.25A10.65,10.65,0,0,0,522,255l-.43.2A38.58,38.58,0,0,0,522.11,262.33Z"/><path class="cls-2" d="M555.75,169.07a38,38,0,0,1,2.36,7.82l6.69,4.48a36,36,0,0,0-1.21-8.5A42.17,42.17,0,0,0,555.75,169.07Z"/><path class="cls-2" d="M559.08,257.14a30.1,30.1,0,0,0,2.89-8.6,63.69,63.69,0,0,0-5.75-5.12,27.81,27.81,0,0,1-1.4,7.83C557,252.47,558.32,254.91,559.08,257.14Z"/><path class="cls-2" d="M554.59,230.8s.06.17.13.42l7.37,4.4a39.65,39.65,0,0,0-1.61-6.82c-.19-.54-.39-1.14-.6-1.77-2-1.2-5.14-2.95-7.65-4.25A77.27,77.27,0,0,0,554.59,230.8Z"/><path class="cls-2" d="M535.77,275.3c0,.19.07.4.11.59a23.51,23.51,0,0,1,6.83,3.07c-.4-2.76-.87-5.37-1.45-7.72,1.24-.5,2.56-1,4-1.64.75-.32,1.47-.67,2.16-1a74.76,74.76,0,0,0,.46-7.61,24.1,24.1,0,0,1-5.07,2.93l-1.32.54C541.71,267,538.15,272.16,535.77,275.3Z"/><path class="cls-2" d="M551.7,220.2c2.22,1.07,5.1,2.67,7.3,3.93a46.5,46.5,0,0,1-1.62-8.68c-2.08-1.66-4.46-3.53-6.33-4.94A43.46,43.46,0,0,0,551.7,220.2Z"/><path class="cls-2" d="M562.72,170A72,72,0,0,0,556,156l-5.33,3.19c1.44,2.4,2.79,4.84,4,7.33A39.27,39.27,0,0,1,562.72,170Z"/><path class="cls-2" d="M219.82,72.83a62.07,62.07,0,0,1,11.08-2c2.36-.31,2.39-4.06,0-3.75-4,.51-8.22.9-12.08,2.15-2.28.74-1.31,4.36,1,3.61Z"/><path class="cls-2" d="M222.11,71.33c-.21,7.31-1.76,14.53-1.3,21.86.15,2.39,3.9,2.41,3.75,0-.46-7.33,1.09-14.55,1.3-21.86.07-2.41-3.68-2.41-3.75,0Z"/><path class="cls-2" d="M225.36,79.12c1.67-.3,4.8-.9,6.07.75.74,1,.56,2.51.38,3.61a19.57,19.57,0,0,1-2.17,6c-1.16,2.12,2.08,4,3.24,1.89a20.29,20.29,0,0,0,2.81-9.5c-.07-6.47-6.12-7.36-11.33-6.42-2.37.44-1.36,4,1,3.62Z"/><path class="cls-2" d="M225,86.64a40.4,40.4,0,0,1,7.69-1.74c2.38-.37,1.37-4-1-3.62A41.38,41.38,0,0,0,224,83c-2.25.82-1.27,4.44,1,3.61Z"/><path class="cls-2" d="M223.73,94.91c2.76-.89,6.71-.93,8.85-3.11,1.7-1.72-1-4.37-2.65-2.65-.6.61-2.4.93-3.39,1.18-1.27.33-2.56.56-3.8,1-2.29.74-1.31,4.36,1,3.61Z"/><path class="cls-2" d="M236.53,65.08a72.72,72.72,0,0,1-.41,7.52,1.9,1.9,0,0,0,2.37,1.81,55,55,0,0,0,5.49-1.8c3.21-1.1,3.33,1.46,3.55,4.34A55.37,55.37,0,0,1,246,94.77l2.76-1.12a20.2,20.2,0,0,1-5.69-3.81c-1.74-1.67-4.4,1-2.65,2.65a22.7,22.7,0,0,0,6.44,4.39,1.91,1.91,0,0,0,2.76-1.12,59.36,59.36,0,0,0,1.75-13.47c.07-3.5.35-8.1-1.29-11.34-2.66-5.24-8.57-1.09-12.59-.16l2.37,1.81a72.72,72.72,0,0,0,.41-7.52c-.06-2.41-3.81-2.42-3.75,0Z"/><path class="cls-2" d="M238.94,81.16c3.31-.15,6.71,1,10,1.52,2.37.33,3.39-3.28,1-3.62-3.59-.51-7.32-1.82-11-1.65-2.41.12-2.42,3.87,0,3.75Z"/><path class="cls-2" d="M303.7,76.33a80.53,80.53,0,0,0,9.85-2c2.35-.54,1.36-4.15-1-3.62a77.5,77.5,0,0,1-8.86,1.82c-2.37.24-2.4,4,0,3.75Z"/><path class="cls-2" d="M303.36,82.63c3.77-.4,7-2,10.62-3.12,2.29-.73,1.31-4.35-1-3.62-3.2,1-6.24,2.63-9.62,3-2.38.25-2.41,4,0,3.75Z"/><path class="cls-2" d="M305.44,90.76c3.6-2.09,7.16-4.25,10.72-6.42,2-1.26.17-4.51-1.9-3.24-3.55,2.17-7.11,4.34-10.72,6.42-2.08,1.21-.2,4.45,1.9,3.24Z"/><path class="cls-2" d="M317.84,62.62a52.63,52.63,0,0,1,2.42,8.74c.55,2.35,4.17,1.35,3.62-1a57.78,57.78,0,0,0-2.8-9.64c-.94-2.21-4.17-.3-3.24,1.9Z"/><path class="cls-2" d="M327,62.2c-1.26,2.16-2.3,4.4-4.05,6.23s1,4.4,2.65,2.65a35.52,35.52,0,0,0,4.64-7c1.21-2.09-2-4-3.24-1.89Z"/><path class="cls-2" d="M317.72,74.57a64.28,64.28,0,0,0,14.41-1.9c2.34-.57,1.35-4.19-1-3.62a59.5,59.5,0,0,1-13.41,1.77c-2.41,0-2.42,3.78,0,3.75Z"/><path class="cls-2" d="M319,81.56l11.74-1.47c2.36-.3,2.39-4,0-3.75L319,77.81c-2.36.29-2.39,4,0,3.75Z"/><path class="cls-2" d="M316,88.91l18.25-2.21c2.36-.29,2.39-4,0-3.75L316,85.16c-2.37.28-2.4,4,0,3.75Z"/><path class="cls-2" d="M324.54,73.8A156.83,156.83,0,0,0,324,90.59c0,2.92,0,5.83-.07,8.75,0,1-.05,2,0,3,0,.68-.42,2.17.09,1.37-1.3,2,1.94,3.93,3.23,1.9.65-1,.42-2.79.44-3.93.07-3,.06-5.91.08-8.87.05-6.31-.13-12.74.61-19,.28-2.39-3.47-2.37-3.75,0Z"/><path class="cls-2" d="M342.85,79.93c8.69-1.21,17.6-1,26.18-3,2.35-.54,1.36-4.15-1-3.62-8.56,2-17.5,1.75-26.18,3-2.38.33-1.37,4,1,3.62Z"/><path class="cls-2" d="M352.72,69.67c-.05,3.75-.62,7.49-.91,11.22-.13,1.73-1,6.31,1.94,6.28,2.41,0,2.42-3.77,0-3.75h-.07l1.61.93c.25.32.14-1.48.17-2,.08-1.5.23-3,.37-4.5.25-2.72.6-5.46.64-8.2,0-2.41-3.71-2.41-3.75,0Z"/><path class="cls-2" d="M360.74,70.09c0,4.55-.39,9.81-2.69,13.84-1.21,2.1,2,4,3.23,1.89,2.64-4.6,3.16-10.52,3.21-15.73,0-2.41-3.72-2.41-3.75,0Z"/><path class="cls-2" d="M353.75,87.17a28.65,28.65,0,0,0,6.41-.49c2.35-.53,1.36-4.15-1-3.61a24.59,24.59,0,0,1-5.42.35,1.88,1.88,0,0,0,0,3.75Z"/><path class="cls-2" d="M345.12,71.36c-.18,6.62-5.53,17.59.72,22.86,3.17,2.69,7.73,2.47,11.61,2.15,4.26-.36,9.15-.83,12.87-3.12,2.06-1.25.18-4.5-1.89-3.23-4.11,2.51-18.28,5.52-21.13.1-1.42-2.69-.29-6.57.25-9.36a58.44,58.44,0,0,0,1.32-9.4c.06-2.41-3.69-2.41-3.75,0Z"/><path class="cls-2" d="M151.5,55.23a23.7,23.7,0,0,0,5.78,1.27c1.18.19,2.36.36,3.53.56.42.07.88.2,1.3.23.89.05.72.7-.27-.61,1.44,1.9,4.7,0,3.24-1.89-1.1-1.45-3.52-1.39-5.17-1.65-2-.3-5-.51-6.51-1.15-2.2-1-4.11,2.28-1.9,3.24Z"/><path class="cls-2" d="M147.27,65.36l23.43-5c2.36-.5,1.36-4.12-1-3.62l-23.44,5c-2.36.5-1.36,4.12,1,3.62Z"/><path class="cls-2" d="M152.06,62.34c-2.45,12.18-5.15,24.29-8.62,36.22-.68,2.32,2.94,3.31,3.61,1,3.47-11.93,6.17-24,8.63-36.22.47-2.36-3.14-3.37-3.62-1Z"/><path class="cls-2" d="M156.14,69.94l20.6-4.26c2.36-.49,1.36-4.11-1-3.62l-20.59,4.26c-2.36.49-1.36,4.11,1,3.62Z"/><path class="cls-2" d="M159.94,62.1a85.19,85.19,0,0,0,0,11.41,1.9,1.9,0,0,0,2.37,1.81c2.8-.6,5.13-.72,6.92-3.2,1.41-2-1.84-3.84-3.24-1.9-.9,1.26-3.29,1.18-4.68,1.49l2.38,1.8a85.19,85.19,0,0,1,0-11.41c.12-2.42-3.63-2.41-3.75,0Z"/><path class="cls-2" d="M167,62.42c-.16,1.3-.32,2.61-.49,3.91-.12.88-.24,1.75-.38,2.63,0,.33-.12.66-.17,1s-.36.83,0,.28c-1.29,2,2,3.94,3.24,1.9.83-1.33.78-3.53,1-5s.4-3.12.59-4.68c.28-2.39-3.47-2.37-3.75,0Z"/><path class="cls-2" d="M155.79,79.88l21-2.84c2.38-.32,1.37-3.93-1-3.61l-21,2.84c-2.38.32-1.37,3.93,1,3.61Z"/><path class="cls-2" d="M157.32,80.17c-.1,4.34-1,8.72-1.71,13-.38,2.36,3.24,3.37,3.62,1,.73-4.59,1.73-9.33,1.84-14,.06-2.41-3.69-2.41-3.75,0Z"/><path class="cls-2" d="M159.34,85.53c2.73-1.14,7.37-3.68,10.39-2.5,1.72.67,1.5,2.46,1.29,4a15,15,0,0,1-.52,2.37c-.1.33-.21.65-.33,1-.39.58-.14.58.74,0-2.41,0-2.41,3.77,0,3.75,4.2,0,4.69-9.39,3.25-12-3.19-5.71-11.41-2.08-15.82-.24-2.19.92-1.23,4.55,1,3.62Z"/><path class="cls-2" d="M159.34,90.86c3.54-.78,7.52-1.27,10.75-3,2.11-1.16.22-4.4-1.9-3.24-2.89,1.58-6.67,2-9.85,2.65-2.35.52-1.36,4.14,1,3.62Z"/><path class="cls-2" d="M163.36,83.37c0,3,.06,5.91.11,8.87,0,2.41,3.79,2.42,3.75,0-.05-3-.11-5.91-.11-8.87,0-2.42-3.76-2.42-3.75,0Z"/><path class="cls-2" d="M158.31,95.54a77.63,77.63,0,0,0,13.81-2.91c2.31-.68,1.33-4.3-1-3.61a72.17,72.17,0,0,1-12.82,2.77c-2.38.25-2.4,4,0,3.75Z"/><path class="cls-2" d="M163.26,90.59a85.94,85.94,0,0,1-6.75,12.07c-1.3,2,2,3.93,3.24,1.89a85.94,85.94,0,0,0,6.75-12.07c.94-2.19-2.29-4.11-3.24-1.89Z"/><path class="cls-2" d="M166.06,94.22c3.44,1.81,6.15,4.78,8.85,7.52,1.7,1.71,4.36-.94,2.66-2.65-2.93-3-5.9-6.15-9.62-8.11-2.13-1.12-4,2.11-1.89,3.24Z"/><path class="cls-2" d="M189.35,78.51a69.62,69.62,0,0,0,19.35-2.93c2.3-.72,1.32-4.34-1-3.62a65.56,65.56,0,0,1-18.35,2.8c-2.41,0-2.42,3.79,0,3.75Z"/><path class="cls-2" d="M197.79,69.17c-1.54,8.93-6.27,16.67-10.47,24.55-1.13,2.13,2.1,4,3.24,1.9,4.34-8.16,9.26-16.22,10.84-25.45.41-2.36-3.2-3.37-3.61-1Z"/><path class="cls-2" d="M196.6,79.9c4.3,2.81,10.65,7.78,11.43,13.22.35,2.38,4,1.37,3.62-1-.93-6.41-8.1-12.15-13.16-15.46-2-1.33-3.9,1.92-1.89,3.24Z"/><path class="cls-2" d="M262.27,76.08l10.6-1.48c2.38-.33,1.36-3.94-1-3.61l-10.6,1.48c-2.38.33-1.37,3.94,1,3.61Z"/><path class="cls-2" d="M260.41,83.24c3.2-.86,6.38-1.8,9.56-2.74,2.31-.68,1.33-4.3-1-3.61-3.18.94-6.36,1.87-9.56,2.73-2.33.63-1.34,4.25,1,3.62Z"/><path class="cls-2" d="M259.58,91.66a112.17,112.17,0,0,0,11.77-5.07c2.18-1,.28-4.27-1.89-3.24A103.38,103.38,0,0,1,258.58,88c-2.27.78-1.29,4.4,1,3.62Z"/><path class="cls-2" d="M272.7,62.1a46.17,46.17,0,0,1-.7,6.42,1.9,1.9,0,0,0,1.81,2.37c4.9-.1,9.92-1.4,14.69-2.47,2.36-.52,1.36-4.14-1-3.61-4.45,1-9.13,2.24-13.7,2.33l1.81,2.38a53,53,0,0,0,.83-7.42c.06-2.42-3.69-2.42-3.75,0Z"/><path class="cls-2" d="M272.77,75.06c-1,5.56-1.91,11.38-1.62,17a1.91,1.91,0,0,0,1.38,1.81c6.57,1,13.71-1.25,19.85-3.46,2.25-.81,1.28-4.44-1-3.62-5.38,1.94-12.08,4.32-17.86,3.46l1.38,1.81c-.27-5.33.58-10.79,1.49-16,.4-2.37-3.21-3.38-3.62-1Z"/><path class="cls-2" d="M275.57,77.36c2.57-.7,8.58-2.66,10.94-1,2.06,1.46,1.29,8.09,1.27,10.48a65.73,65.73,0,0,1-1.17,12.83l1.81-1.38a3.84,3.84,0,0,1-2.51-.51c-2.13-1.14-4,2.1-1.9,3.24a8.2,8.2,0,0,0,4.41,1,1.91,1.91,0,0,0,1.81-1.37,74.81,74.81,0,0,0,1.27-16.9c-.07-2.94.57-7.85-2-10-3.64-3.09-10.86-1.11-14.95,0-2.33.63-1.34,4.25,1,3.61Z"/><path class="cls-2" d="M278.86,75.25c0,4.84-.21,9.69-.39,14.53-.09,2.42,3.66,2.41,3.75,0,.18-4.84.37-9.69.39-14.53a1.88,1.88,0,0,0-3.75,0Z"/><path class="cls-2" d="M270.35,87c8.06-.79,16.14-1.45,24.22-2.1,2.39-.2,2.41-4,0-3.75-8.08.65-16.16,1.31-24.22,2.1-2.38.24-2.41,4,0,3.75Z"/><path class="cls-2" d="M380.6,62.55V77.33a1.88,1.88,0,0,0,3.75,0V62.55a1.88,1.88,0,0,0-3.75,0Z"/><path class="cls-2" d="M384.44,65.09c3.05-1.13,9.3-3.87,11.73-.41,1,1.39.87,3.29.77,4.92a17.51,17.51,0,0,1-.34,2.69c-.11.5-.6,1.67-.35,1.62-2.36.47-1.36,4.09,1,3.62,4.37-.88,4-10.54,2.79-13.52-2.84-6.9-11.26-4.51-16.6-2.54-2.24.83-1.27,4.45,1,3.62Z"/><path class="cls-2" d="M384.44,73.28c4.46-1.18,9.23-1.58,13.8-2.16,2.36-.3,2.39-4.06,0-3.75-4.9.63-10,1-14.8,2.3-2.33.62-1.34,4.23,1,3.61Z"/><path class="cls-2" d="M388.65,62.55c0,4.39-.3,8.78-.54,13.17-.14,2.41,3.61,2.4,3.75,0,.24-4.38.52-8.78.54-13.17,0-2.42-3.73-2.42-3.75,0Z"/><path class="cls-2" d="M382.48,79.21c4.72-.54,9.5-1.52,14.27-1.62,2.41,0,2.42-3.8,0-3.75-4.77.1-9.55,1.08-14.27,1.62-2.37.27-2.4,4,0,3.75Z"/><path class="cls-2" d="M388.65,76.37,376.9,90.27c-1.55,1.84,1.09,4.5,2.65,2.66q5.88-7,11.76-13.91c1.55-1.83-1.09-4.5-2.66-2.65Z"/><path class="cls-2" d="M388.34,80.67c6.57,1.86,10.7,7.52,16.27,11.11,2,1.31,3.92-1.94,1.89-3.24-5.93-3.82-10.13-9.5-17.16-11.48-2.33-.66-3.32,3-1,3.61Z"/><path class="cls-2" d="M385.07,84.61c-.43,3.94-1.47,7.86-1.47,11.83a1.88,1.88,0,0,0,3.75,0v-.85a1.88,1.88,0,0,0-3.75,0v.85a1.88,1.88,0,0,0,3.75,0c0-4,1-7.89,1.47-11.83.26-2.39-3.5-2.38-3.75,0Z"/><path class="cls-2" d="M393.85,82.92q0,4.78-.07,9.56c0,2.31-.07,4.62-.15,6.93a22.35,22.35,0,0,0-.13,2.71c.16,1.81-1,1,1.05.29l1.82.48-.05-.07c-1.52-1.87-4.16.79-2.65,2.66l.05.06a1.81,1.81,0,0,0,1.82.48c2.88-1,1.89-8.1,1.94-10.34.09-4.25.12-8.5.12-12.76a1.88,1.88,0,0,0-3.75,0Z"/><path class="cls-2" d="M86,238.42c0,4.15-.25,8.31-.45,12.45-.12,2.42,3.63,2.41,3.75,0,.2-4.14.43-8.3.45-12.45,0-2.41-3.74-2.42-3.75,0Z"/><path class="cls-2" d="M93.13,234.11v30.57a1.88,1.88,0,0,0,3.75,0v-.87a1.88,1.88,0,0,0-3.75,0v.87a1.88,1.88,0,0,0,3.75,0V234.11a1.88,1.88,0,0,0-3.75,0Z"/><path class="cls-2" d="M90.09,248c3.46.06,6.83.89,10.28,1,2.41,0,2.42-3.71,0-3.75-3.45-.07-6.82-.9-10.28-1-2.41-.05-2.41,3.7,0,3.75Z"/><path class="cls-2" d="M106.23,239.27a28.54,28.54,0,0,1,7.55-.32c1.48.16,3.46.44,4.57,1.54,1.54,1.54.63,3.9-.15,5.6-1,2.18,2.23,4.09,3.24,1.9,2.49-5.43,1.55-10.79-4.8-12.34a28.11,28.11,0,0,0-11.41,0c-2.37.43-1.36,4,1,3.62Z"/><path class="cls-2" d="M107.07,251.31a52.73,52.73,0,0,0,16.14-3.42c2.26-.79,1.29-4.42-1-3.62-4.85,1.71-10,3.18-15.14,3.29-2.41.06-2.42,3.81,0,3.75Z"/><path class="cls-2" d="M112.41,231.21c-1.74,10.85-3.17,21.74-4.91,32.58-.38,2.36,3.23,3.38,3.61,1,1.74-10.85,3.18-21.74,4.92-32.58.38-2.36-3.24-3.38-3.62-1Z"/><path class="cls-2" d="M112.38,252.49c4.94,3.07,10.14,6.54,13.84,11.08,1.53,1.87,4.16-.79,2.65-2.65-3.88-4.77-9.41-8.45-14.6-11.67-2-1.27-3.94,2-1.89,3.24Z"/><path class="cls-2" d="M133.25,236.38l20.77-2.3c2.37-.26,2.4-4,0-3.75l-20.77,2.3c-2.38.26-2.4,4,0,3.75Z"/><path class="cls-2" d="M144.45,233.81c0,10.1,0,20.33-.89,30.4-.22,2.4,3.54,2.39,3.75,0,.89-10.07.87-20.3.89-30.4a1.88,1.88,0,0,0-3.75,0Z"/><path class="cls-2" d="M146.72,245.91c3.79.91,8.36,2.64,11.26,5.34,1.76,1.64,4.42-1,2.65-2.65-3.38-3.15-8.49-5.24-12.92-6.31-2.34-.56-3.34,3.05-1,3.62Z"/><path class="cls-2" d="M342.7,225.58l12.32,1.2c2.4.23,2.38-3.52,0-3.75l-12.32-1.2c-2.4-.23-2.39,3.52,0,3.75Z"/><path class="cls-2" d="M337.31,229.57l-5.56,18.28c-.7,2.31,2.91,3.3,3.62,1l5.56-18.28c.7-2.32-2.91-3.31-3.62-1Z"/><path class="cls-2" d="M339.62,236.08a46,46,0,0,1,10.61-.89c2.32,0,9.73-.27,6.64,3.49-1.52,1.85,1.12,4.52,2.65,2.65,4-4.88,1.32-8.63-4.37-9.53a45.31,45.31,0,0,0-16.53.66c-2.35.55-1.35,4.16,1,3.62Z"/><path class="cls-2" d="M342.81,235.23a46.87,46.87,0,0,1-1.52,9.84c-.55,2.35,3.06,3.35,3.61,1a51.79,51.79,0,0,0,1.66-10.84c0-2.41-3.71-2.41-3.75,0Z"/><path class="cls-2" d="M348.84,236.13l2,7.55c.62,2.33,4.23,1.34,3.62-1l-2-7.55c-.62-2.33-4.24-1.34-3.62,1Z"/><path class="cls-2" d="M341.93,255.72c3-.48,6-.6,8.93-1.06.5-.08,1.63-.54,2.12-.34-.67-.27-.41-.28-.17.48.45,1.46.46,3.19,1.08,4.58,2.6,5.74,9.95,1.12,11.6-3,.9-2.24-2.72-3.21-3.61-1s-3.54,3.64-4.73,1.5c-.56-1-.47-2.58-.91-3.71s-1-2.17-2.34-2.54c-1.8-.49-4.41.45-6.19.62-2.27.22-4.53.47-6.78.83s-1.37,4,1,3.62Z"/><path class="cls-2" d="M346,245.47q-2,10.44-4.69,20.74c-.62,2.34,3,3.33,3.61,1q2.72-10.29,4.7-20.75c.45-2.36-3.17-3.37-3.62-1Z"/><path class="cls-2" d="M379.38,224.58a27.18,27.18,0,0,1,8.86,1.38c2.27.83,3.25-2.79,1-3.62a30.77,30.77,0,0,0-9.86-1.51c-2.41,0-2.41,3.72,0,3.75Z"/><path class="cls-2" d="M375.2,232.08A118.59,118.59,0,0,1,391.26,230c2.39-.21,2.41-4,0-3.75a127,127,0,0,0-17.06,2.22c-2.35.53-1.36,4.15,1,3.62Z"/><path class="cls-2" d="M376.78,230.63c0,2.64.21,5.28.36,7.92.14,2.4,3.9,2.41,3.75,0-.15-2.64-.34-5.28-.36-7.92,0-2.41-3.76-2.42-3.75,0Z"/><path class="cls-2" d="M385.32,229.68c-1.14,2.68-2.27,5.67-4.5,7.65-1.81,1.6.85,4.24,2.65,2.65,2.49-2.2,3.81-5.42,5.09-8.4.94-2.2-2.29-4.11-3.24-1.9Z"/><path class="cls-2" d="M375.2,242.88c5.81-.83,11.57-2.22,17.28-3.6,2.34-.57,1.35-4.19-1-3.62-5.71,1.38-11.46,2.78-17.28,3.6-2.38.34-1.37,4,1,3.62Z"/><path class="cls-2" d="M377.14,245c-.33,3.85-.73,7.7-1.15,11.55-.27,2.39,3.49,2.37,3.75,0,.42-3.85.82-7.7,1.15-11.55.21-2.41-3.54-2.39-3.75,0Z"/><path class="cls-2" d="M379.52,249c2.3-.93,5-2.24,7.53-2.14,2.79.1,2.26,4,.38,5.19-2,1.29-.15,4.54,1.9,3.24,3.27-2.08,4.87-8.07,1.67-10.86-3.4-3-9-.46-12.48.95-2.21.89-1.25,4.52,1,3.62Z"/><path class="cls-2" d="M380.24,254l7.92-2.52c2.29-.73,1.31-4.35-1-3.62l-7.92,2.52c-2.29.73-1.31,4.35,1,3.62Z"/><path class="cls-2" d="M377.86,258.45c3.89.25,8-1.54,11.47-3.16,2.18-1,.28-4.26-1.9-3.24-2.86,1.34-6.35,2.85-9.57,2.65-2.41-.15-2.4,3.6,0,3.75Z"/><path class="cls-2" d="M381.36,256a46.49,46.49,0,0,1-6.91,10.42c-1.66,1.75,1,4.41,2.66,2.66a50.6,50.6,0,0,0,7.49-11.18c1.13-2.13-2.11-4-3.24-1.9Z"/><path class="cls-2" d="M383.69,256.33c.71,4.1,3.23,7.48,7.76,6.82,4.12-.61,7.83-3.69,10.49-6.72,1.6-1.8-1.05-4.46-2.65-2.65a18.69,18.69,0,0,1-6.7,5.17c-3.32,1.35-4.72-.34-5.28-3.62-.41-2.37-4-1.37-3.62,1Z"/><path class="cls-2" d="M461.07,231.21a110.42,110.42,0,0,1-1.54,15.5c-.36,2.36,3.25,3.38,3.62,1a117.22,117.22,0,0,0,1.67-16.5c0-2.41-3.73-2.42-3.75,0Z"/><path class="cls-2" d="M459.61,259.74a8.87,8.87,0,0,1,1.92,4c.61,2.33,4.23,1.34,3.62-1a12.88,12.88,0,0,0-2.88-5.63c-1.67-1.75-4.32.91-2.66,2.66Z"/><path class="cls-2" d="M170.72,240.72h8.82a1.88,1.88,0,0,0,0-3.75h-8.82a1.88,1.88,0,0,0,0,3.75Z"/><path class="cls-2" d="M169.52,248.11,180.38,245c2.31-.67,1.33-4.29-1-3.62l-10.85,3.14c-2.32.67-1.33,4.29,1,3.62Z"/><path class="cls-2" d="M170.65,258.51l10.17-7.45c1.93-1.42.06-4.67-1.89-3.24l-10.17,7.45c-1.93,1.42-.06,4.67,1.89,3.24Z"/><path class="cls-2" d="M185.38,228l.47,11.08c.1,2.4,3.86,2.41,3.75,0L189.13,228c-.1-2.4-3.85-2.42-3.75,0Z"/><path class="cls-2" d="M187.76,229.8a26.91,26.91,0,0,1,9-1.71c1.6,0,2.41-.13,2.42,1.23a19.81,19.81,0,0,1-1.11,6.88c-.82,2.27,2.8,3.25,3.61,1,1.33-3.69,3.16-11.09-2-12.54-4-1.13-9.18.17-13,1.52-2.25.81-1.28,4.44,1,3.62Z"/><path class="cls-2" d="M193,233.91l6.68-.78a1.94,1.94,0,0,0,1.87-1.88,1.88,1.88,0,0,0-1.87-1.87l-6.68.78a1.94,1.94,0,0,0-1.88,1.88,1.88,1.88,0,0,0,1.88,1.87Z"/><path class="cls-2" d="M191.15,232l.39,6.43c.15,2.39,3.9,2.41,3.75,0L194.9,232c-.15-2.4-3.9-2.41-3.75,0Z"/><path class="cls-2" d="M181.61,238.74c0,4.32-.39,8.65-.78,12.95-.22,2.4,3.53,2.39,3.75,0,.39-4.3.75-8.63.78-12.95,0-2.41-3.73-2.42-3.75,0Z"/><path class="cls-2" d="M185.09,243.3c2.62-.72,5.29-1.31,8-1.79a33.42,33.42,0,0,1,6.38-.71c.51,0,1.94-.15,2.34.25.74.73-.32,3.39-.55,4.26a1.87,1.87,0,0,0,3.61,1c.69-2.53,1.82-6.5-.85-8.32-1.73-1.18-4.38-1-6.33-.85a72.81,72.81,0,0,0-13.57,2.55c-2.33.63-1.34,4.25,1,3.62Z"/><path class="cls-2" d="M187.42,246.19c-.38,6.68-.76,13.38-1.57,20-.29,2.39,3.47,2.37,3.75,0,.81-6.64,1.19-13.34,1.57-20,.14-2.41-3.61-2.4-3.75,0Z"/><path class="cls-2" d="M190.64,249c1.41-.63,4.34-2.15,5.93-1.17,1.1.68,1.14,2.52,1.21,3.64.28,4.24-.52,8.58-.94,12.79l2.37-1.81a2.21,2.21,0,0,1-1.23-1.1c-1.29-2-4.54-.15-3.24,1.89a5.88,5.88,0,0,0,3.48,2.83,1.91,1.91,0,0,0,2.37-1.81c.51-5.16,2.38-12.16.06-17.11s-8-3.14-11.91-1.39c-2.19,1-.29,4.22,1.9,3.24Z"/><path class="cls-2" d="M189.8,255.46l7.45-1.18c2.38-.37,1.37-4-1-3.61l-7.46,1.18c-2.38.37-1.37,4,1,3.61Z"/><path class="cls-2" d="M189.8,261.35l8.24-3.14c2.23-.85,1.26-4.48-1-3.62l-8.24,3.14c-2.23.85-1.26,4.48,1,3.62Z"/><path class="cls-2" d="M254.46,247.55c6.67-.05,13.35-.55,20-.93,2.4-.14,2.42-3.89,0-3.75-6.65.38-13.33.88-20,.93-2.41,0-2.42,3.77,0,3.75Z"/><path class="cls-2" d="M308.92,241.45c.07,5.5.73,11.13-1.14,16.41l3.14-.83c-2.71-2.95-5.19-7.75-9.69-4.82s-5,9.76-7.34,14c-1.18,2.11,2.06,4,3.23,1.9a65.77,65.77,0,0,0,3.33-8.11c.56-1.4,1.71-5.27,4.12-4.69,1,.24,3,3.54,3.69,4.32a1.9,1.9,0,0,0,3.14-.82c2-5.61,1.34-11.57,1.27-17.41,0-2.41-3.78-2.41-3.75,0Z"/><path class="cls-2" d="M286.33,243.33l11.27-1.21c2.37-.25,2.4-4,0-3.75l-11.27,1.21c-2.37.25-2.4,4,0,3.75Z"/><path class="cls-2" d="M290.49,236.22c.82,8.32,1.5,16.63.4,25l2.38-1.8a13.47,13.47,0,0,1-5.21-4c-1.6-1.82-4.24.84-2.65,2.65a17.23,17.23,0,0,0,6.86,4.91c1.26.52,2.23-.75,2.37-1.81,1.1-8.32.42-16.63-.4-25-.23-2.37-4-2.4-3.75,0Z"/><path class="cls-2" d="M284.41,251.72a145.56,145.56,0,0,0,14.09-4.43c2.26-.79,1.29-4.41-1-3.62a145.37,145.37,0,0,1-14.08,4.43c-2.35.55-1.36,4.16,1,3.62Z"/><path class="cls-2" d="M300.15,227.37l1.21,10.87c.26,2.37,4,2.4,3.75,0l-1.21-10.87c-.27-2.37-4-2.4-3.75,0Z"/><path class="cls-2" d="M303.33,231.19c3.89-1.17,19.24-5.23,14.23,4.09-1.14,2.12,2.1,4,3.24,1.89,2.46-4.57,1.53-10.11-4-11.5-4.71-1.18-10,.55-14.46,1.9-2.31.7-1.32,4.32,1,3.62Z"/><path class="cls-2" d="M306.59,230.19c0,2.13.18,4.93-.34,6.74-.67,2.33,2.95,3.32,3.62,1s.46-5.26.47-7.74a1.88,1.88,0,0,0-3.75,0Z"/><path class="cls-2" d="M311.42,229.79l.4,8c.12,2.4,3.87,2.42,3.75,0l-.4-8c-.12-2.41-3.88-2.42-3.75,0Z"/><path class="cls-2" d="M305.34,246.89c4.11-.58,8.25-1,12.38-1.55,2.36-.28,2.39-4,0-3.75-4.46.54-8.93,1-13.38,1.68-2.38.33-1.37,3.95,1,3.62Z"/><path class="cls-2" d="M311.28,252.59c2.58.33,5.19,2.08,7.23,3.59,1.8,1.33,4.86,3.63,4.92,6.11s3.82,2.42,3.75,0c-.1-3.65-3.15-6.53-5.83-8.63-2.92-2.28-6.34-4.34-10.07-4.82-2.39-.31-2.37,3.44,0,3.75Z"/><path class="cls-2" d="M410.32,241.81a37.76,37.76,0,0,1-1.53,10.46c-.67,2.33,2.94,3.32,3.62,1a41.52,41.52,0,0,0,1.66-11.46c0-2.41-3.74-2.42-3.75,0Z"/><path class="cls-2" d="M412.69,244.62c2.28-.85,5.36-1.32,5,1.91-.31,2.62-2.65,4.9-5.37,4.47-2.36-.36-3.38,3.25-1,3.62a8.69,8.69,0,0,0,10.09-7.86,6,6,0,0,0-2.24-5.56c-2.22-1.55-5.08-1.08-7.46-.2s-1.27,4.47,1,3.62Z"/><path class="cls-2" d="M427.9,239.82a51.58,51.58,0,0,1,6.8-1.8c.75-.11,2.65-.51,3.26.06,1.09,1-.74,3.1-1.48,3.85a1.87,1.87,0,0,0,2.65,2.65c2.72-2.72,4.78-8.49-.18-10.12-3.83-1.26-8.39.67-12.05,1.74-2.31.68-1.32,4.3,1,3.62Z"/><path class="cls-2" d="M431.13,238.41a14.53,14.53,0,0,1-.85,5.71c-1,2.17,2.23,4.08,3.24,1.89a18.56,18.56,0,0,0,1.36-7.6c0-2.41-3.73-2.41-3.75,0Z"/><path class="cls-2" d="M428.3,247.46c3.26-.45,8.43-.22,10.83-2.88,1.61-1.79-1-4.45-2.65-2.65-.86.95-2.89,1.06-4.08,1.25-1.69.27-3.4.43-5.1.66-2.38.33-1.36,3.94,1,3.62Z"/><path class="cls-2" d="M425.93,239.61c-.42,6.3-6.47,18.72,3.52,20.48,7,1.25,19.75-.66,18.16-10.18-.4-2.37-4-1.36-3.62,1,.65,3.87-3.44,4.73-6.42,5.18-2.4.36-7.23,1.36-9.23-.33s-.66-5.29-.21-7.31a58.83,58.83,0,0,0,1.55-8.84c.16-2.41-3.59-2.4-3.75,0Z"/><path class="cls-2" d="M219.87,235.63l18.58-.86c2.4-.11,2.42-3.86,0-3.75l-18.58.86c-2.4.11-2.42,3.86,0,3.75Z"/><path class="cls-2" d="M222.57,232.81l-6.48,13c-1.08,2.15,2.16,4.05,3.24,1.89l6.48-13c1.08-2.15-2.16-4-3.24-1.89Z"/><path class="cls-2" d="M220.65,241c2.71,1.81,6.19,4.65,9.66,4.08,2.37-.39,1.36-4-1-3.61-.83.13-2.29-.92-3-1.3-1.3-.74-2.56-1.57-3.8-2.4-2-1.34-3.9,1.9-1.9,3.23Z"/><path class="cls-2" d="M236,234.54l-6.05,8.64c-1.39,2,1.86,3.86,3.24,1.9l6.05-8.65c1.38-2-1.87-3.86-3.24-1.89Z"/><path class="cls-2" d="M235,243c1.68.06,4.44,1.05,6.42,1.66,2.31.71,3.3-2.91,1-3.62s-4.93-1.7-7.42-1.79-2.41,3.66,0,3.75Z"/><path class="cls-2" d="M229.23,227.71c-.63,11.53-1.38,23-2.16,34.57l3.49-.95c-2.13-3.71-4.61-7.2-6.91-10.8a1.88,1.88,0,0,0-2.94-.38,59.12,59.12,0,0,0-8.08,11.61c-1.18,2.11,2.06,4,3.24,1.9a54.93,54.93,0,0,1,7.49-10.86l-3-.38c2.31,3.61,4.78,7.09,6.92,10.8a1.89,1.89,0,0,0,3.49-.94c.78-11.52,1.53-23,2.16-34.57.13-2.41-3.62-2.4-3.75,0Z"/><path class="cls-2" d="M230.61,251.55c5.25,1.19,11.54,4.71,13.92,9.72,1,2.18,4.26.28,3.24-1.89-2.77-5.84-10.05-10.06-16.17-11.44-2.35-.53-3.35,3.08-1,3.61Z"/><path class="cls-2" d="M424.77,152.06v8.12a1.89,1.89,0,0,0,1.88,1.87,21.59,21.59,0,0,0,6.12-1.4,16.77,16.77,0,0,0,4.42-1.8c1.9-1.44,0-4.7-1.9-3.24a12.87,12.87,0,0,1-3.52,1.42,17.89,17.89,0,0,1-5.12,1.27l1.87,1.88v-8.12a1.88,1.88,0,0,0-3.75,0Z"/><path class="cls-2" d="M430.68,153.17l-1.25,22.44c-.14,2.41,3.61,2.41,3.75,0l1.25-22.44c.13-2.41-3.62-2.41-3.75,0Z"/><path class="cls-2" d="M425.16,169.73,436,165.31c2.2-.9,1.24-4.53-1-3.62l-10.84,4.43c-2.2.9-1.24,4.53,1,3.61Z"/><path class="cls-2" d="M441.21,148.73,437,165.85c-.58,2.34,3,3.34,3.61,1l4.25-17.12c.58-2.34-3-3.34-3.61-1Z"/><path class="cls-2" d="M442.74,159.17a24.76,24.76,0,0,1,9.62-1.58c3.18.27,3.18,2.08,3.05,5a29.73,29.73,0,0,1-1.54,8l2.3-1.31a54.17,54.17,0,0,1-7.5-2.82c-2.15-1.09-4.05,2.14-1.89,3.24a60.79,60.79,0,0,0,8.4,3.2,1.91,1.91,0,0,0,2.3-1.31c1.64-4.85,4.26-15-2.27-17.3-4.14-1.44-9.43-.13-13.47,1.21-2.28.75-1.3,4.37,1,3.61Z"/><path class="cls-2" d="M445.07,157.29l-3.86,14.46c-.63,2.34,3,3.33,3.61,1l3.86-14.46c.63-2.33-3-3.33-3.61-1Z"/><path class="cls-2" d="M450.86,158.15,446,178.73c-.56,2.35,3.06,3.35,3.62,1l4.86-20.59c.55-2.34-3.06-3.34-3.62-1Z"/><path class="cls-2" d="M83,139.29a93.54,93.54,0,0,1,.73,10.58c0,2.41,3.8,2.42,3.75,0a93.54,93.54,0,0,0-.73-10.58c-.31-2.36-4.07-2.39-3.75,0Z"/><path class="cls-2" d="M78.81,148.39a94.62,94.62,0,0,1,10-1.71c2.69-.33,6-1.05,8.67-.48,2.36.51,3.36-3.11,1-3.61-3.1-.66-6.57,0-9.67.34a98.38,98.38,0,0,0-11,1.85c-2.34.56-1.35,4.17,1,3.61Z"/><path class="cls-2" d="M91.83,140.15c.62,3.33,1.36,8.29-.54,11.32-1.29,2.05,1.95,3.94,3.23,1.9,2.49-4,1.74-9.86.92-14.22-.44-2.37-4.06-1.36-3.61,1Z"/><path class="cls-2" d="M78.11,153.54a65.86,65.86,0,0,1-4.61,7.59A1.88,1.88,0,0,0,75.12,164a23.71,23.71,0,0,0,8.08-2l-2.12-2.75c-1.38,2.24-3.13,4.22-4.29,6.59-.57,1.19.1,2.92,1.62,2.82,4.25-.26,7.71-2.48,10.89-5.16l-3.2-1.33a75.76,75.76,0,0,1,.33,8.25,1.88,1.88,0,0,0,3.75,0,75.76,75.76,0,0,0-.33-8.25,1.9,1.9,0,0,0-3.2-1.32c-2.35,2-5.07,3.87-8.24,4.06L80,167.64c1.16-2.38,2.91-4.35,4.29-6.6.78-1.28-.56-3.4-2.12-2.75a21.1,21.1,0,0,1-7.08,1.91L76.73,163a64.43,64.43,0,0,0,4.62-7.58c1.1-2.14-2.13-4-3.24-1.9Z"/><path class="cls-2" d="M72.58,171c-.38,4.11-1.59,8.08-2,12.19-.22,2.41,3.53,2.39,3.75,0,.39-4.11,1.6-8.08,2-12.19.23-2.41-3.53-2.39-3.75,0Z"/><path class="cls-2" d="M76.6,171.14a44,44,0,0,1,.6,9.73,1.88,1.88,0,0,0,3.75,0,48.64,48.64,0,0,0-.73-10.72c-.53-2.35-4.15-1.36-3.62,1Z"/><path class="cls-2" d="M81.08,171.26c1.72,3.45,1.41,7.51,1.39,11.26,0,2.41,3.74,2.41,3.75,0,0-4.49.15-9-1.9-13.15-1.08-2.16-4.32-.26-3.24,1.89Z"/><path class="cls-2" d="M90.44,153.88a65.84,65.84,0,0,0,1.16,11.81c.51,2.36,4.13,1.36,3.62-1a60.16,60.16,0,0,1-1-10.81c-.06-2.41-3.81-2.42-3.75,0Z"/><path class="cls-2" d="M93.26,155.5c2.42-1.14,6.43-2.23,8.95-.86s1.39,6.19,0,8.14,1.83,3.84,3.23,1.9c2.44-3.37,3.19-10-.46-12.73s-9.68-1.54-13.59.31c-2.18,1-.28,4.27,1.89,3.24Z"/><path class="cls-2" d="M97.07,154.11a31.11,31.11,0,0,1-2.36,8.31c-1,2.17,2.2,4.07,3.24,1.89a34,34,0,0,0,2.74-9.2c.37-2.36-3.24-3.38-3.62-1Z"/><path class="cls-2" d="M98,160.07a7.92,7.92,0,0,1,3.92,1.7c1.75,1.66,4.41-1,2.65-2.65A11.54,11.54,0,0,0,99,156.45c-2.36-.5-3.36,3.12-1,3.62Z"/><path class="cls-2" d="M93.91,167l9.85-1.46c2.38-.35,1.37-4-1-3.62l-9.85,1.46c-2.38.35-1.37,4,1,3.62Z"/><path class="cls-2" d="M90.51,169.7a74.54,74.54,0,0,1,.66,10.45c.08,2.41,3.83,2.42,3.75,0a79.6,79.6,0,0,0-.8-11.44c-.41-2.38-4-1.37-3.61,1Z"/><path class="cls-2" d="M93.91,172.84a24.89,24.89,0,0,1,9.77-1.58c1.77.12,2.9.39,3,2.33.07,1.3-.22,3.75-1.45,4.54-2,1.3-.14,4.55,1.9,3.24,3.57-2.3,5-10,1.12-12.61-4-2.76-11.17-1-15.34.46-2.26.8-1.28,4.43,1,3.62Z"/><path class="cls-2" d="M96.64,171.39V180a1.88,1.88,0,0,0,3.75,0v-8.65a1.88,1.88,0,0,0-3.75,0Z"/><path class="cls-2" d="M100.72,171.56a8.64,8.64,0,0,1-1.27,5.82c-1.28,2.05,2,3.93,3.24,1.89a12.7,12.7,0,0,0,1.65-8.71,1.88,1.88,0,0,0-2.31-1.3,1.91,1.91,0,0,0-1.31,2.3Z"/><path class="cls-2" d="M91,183.78c6.35-1.1,12.74-2,19.17-2.49,2.39-.18,2.41-3.93,0-3.75-6.76.52-13.49,1.47-20.17,2.63-2.37.41-1.36,4,1,3.61Z"/><path class="cls-2" d="M235.72,162.47l19.58-2.18c2.37-.27,2.4-4,0-3.75l-19.58,2.18c-2.37.27-2.4,4,0,3.75Z"/><path class="cls-2" d="M237.93,169.47l8-.44c2.4-.13,2.42-3.88,0-3.75l-8,.44c-2.4.13-2.41,3.88,0,3.75Z"/><path class="cls-2" d="M240.2,168.53c.7,3.07.73,7.47-3.37,7.68-2.39.12-2.43,3.76,0,3.75,5.11,0,10.58-.28,15.28-2.45,2.19-1,.28-4.24-1.89-3.23-4.06,1.87-9,1.9-13.39,1.93V180c6.76-.35,8.28-6.76,7-12.43-.54-2.35-4.15-1.36-3.61,1Z"/><path class="cls-2" d="M247.22,152.29c.74,8.2,1.25,18.33,5.42,25.6,5.21,9.06,10.93-4.33,12.41-8.93.74-2.3-2.88-3.29-3.62-1-.54,1.68-2.43,8.67-4.46,9.05-1.45.27-2.79-5.51-3.16-6.92A111.59,111.59,0,0,1,251,152.29c-.21-2.38-4-2.4-3.75,0Z"/><path class="cls-2" d="M256.85,146.67c.85,2.36,1.83,4.66,2.8,7a20.32,20.32,0,0,0,2.26,4.75,1.88,1.88,0,0,0,2.94-.38v0c1-2.17-2.22-4.08-3.24-1.89v0l2.94-.38c.48.59-.29-.82-.42-1.11-.43-1-.84-1.92-1.25-2.88-.85-2-1.69-4-2.42-6.06-.81-2.26-4.43-1.29-3.62,1Z"/><path class="cls-2" d="M309,162.26c2.2-.23,4.41-.53,6.59-.91s5.45-.68,6.83-2.68-1.88-3.87-3.24-1.9c.43-.62.07-.1-.33,0s-1,.3-1.52.43c-1.21.3-2.45.51-3.69.71-1.54.25-3.09.46-4.64.62-2.38.25-2.4,4,0,3.75Z"/><path class="cls-2" d="M313.58,155.05c.26,6.82-1,13.76-2.21,20.44-.45,2.36,3.17,3.37,3.61,1,1.31-7,2.62-14.31,2.35-21.44-.09-2.4-3.84-2.41-3.75,0Z"/><path class="cls-2" d="M312.7,160.2c-3.15,4.3-6.44,8.49-8.76,13.32-1,2.17,2.2,4.07,3.24,1.89,2.32-4.83,5.61-9,8.76-13.32,1.42-2-1.83-3.82-3.24-1.89Z"/><path class="cls-2" d="M312.61,163.91a31.24,31.24,0,0,1,6.85,5c1.75,1.67,4.41-1,2.66-2.65a35.14,35.14,0,0,0-7.62-5.62c-2.14-1.11-4,2.12-1.89,3.24Z"/><path class="cls-2" d="M325.07,142.61a26.18,26.18,0,0,1,.7,7.5,1.88,1.88,0,0,0,3.75,0,29.92,29.92,0,0,0-.83-8.5c-.7-2.3-4.32-1.32-3.62,1Z"/><path class="cls-2" d="M330.72,141.73a11,11,0,0,1-2.12,6.67c-1.48,1.87,1.16,4.55,2.65,2.65a15.09,15.09,0,0,0,3.22-9.32c0-2.41-3.71-2.41-3.75,0Z"/><path class="cls-2" d="M325.47,153.82l9.14-1.53c2.37-.39,1.37-4-1-3.61l-9.13,1.52c-2.38.4-1.37,4,1,3.62Z"/><path class="cls-2" d="M325.09,159.15l9.14-1.91c2.36-.49,1.36-4.1-1-3.61l-9.13,1.9c-2.36.49-1.36,4.11,1,3.62Z"/><path class="cls-2" d="M327.29,153.15l-.42,8.37c-.12,2.42,3.63,2.41,3.75,0l.42-8.37c.12-2.41-3.63-2.41-3.75,0Z"/><path class="cls-2" d="M324.33,164.48l11.42-2.29c2.37-.47,1.37-4.09-1-3.62l-11.42,2.29c-2.37.47-1.37,4.09,1,3.62Z"/><path class="cls-2" d="M327.35,163.17a27.48,27.48,0,0,1,.77,3.84,1.87,1.87,0,1,0,3.61-1,27.45,27.45,0,0,0-.76-3.84,1.92,1.92,0,0,0-2.31-1.31,1.9,1.9,0,0,0-1.31,2.31Z"/><path class="cls-2" d="M325.05,169.18l6.47-.79-1.87-1.88a81.21,81.21,0,0,1-.41,9.09,22.24,22.24,0,0,1-1.19,6.05c-.69,1.68-.51,1.41-1.75-.1-1.53-1.86-4.17.8-2.65,2.65,1.36,1.66,3.43,3.16,5.58,2,2-1.11,2.66-3.89,3.09-5.93a65,65,0,0,0,1.08-13.72,1.88,1.88,0,0,0-1.88-1.87l-6.47.79c-2.36.3-2.39,4,0,3.75Z"/><path class="cls-2" d="M320,174.86c3.19-.06,6.32-.71,9.51-.76l-1.87-1.88c-.15,3.59-4.24,5.75-6.68,7.81-1.85,1.56.81,4.2,2.65,2.65,3.47-2.92,7.58-5.45,7.78-10.46a1.89,1.89,0,0,0-1.88-1.87c-3.19.05-6.32.7-9.51.76-2.41,0-2.42,3.79,0,3.75Z"/><path class="cls-2" d="M339.26,166c-2.81,2-5.57,4.08-8.38,6.09-1.15.83-1.31,3.15.45,3.43,4.55.73,9.15,1.17,13.7,1.9,2.36.38,3.38-3.23,1-3.61-4.55-.73-9.15-1.17-13.7-1.9l.44,3.42c2.81-2,5.57-4.08,8.38-6.09,1.94-1.39.07-4.65-1.89-3.24Z"/><path class="cls-2" d="M174.33,160.76l14.72-2.71c2.37-.43,1.36-4.05-1-3.61l-14.72,2.71c-2.37.43-1.36,4,1,3.61Z"/><path class="cls-2" d="M178.65,152.37v11a1.88,1.88,0,0,0,3.75,0v-11a1.88,1.88,0,0,0-3.75,0Z"/><path class="cls-2" d="M172.55,167.34l20.06-4.25c2.36-.5,1.36-4.12-1-3.62l-20.07,4.26c-2.36.5-1.36,4.11,1,3.61Z"/><path class="cls-2" d="M186.73,155.77l-20.37,23.29c-1.59,1.81,1.06,4.47,2.65,2.65l20.37-23.29c1.59-1.81-1.06-4.47-2.65-2.65Z"/><path class="cls-2" d="M174,142.73l.59,8.5c.17,2.4,3.92,2.41,3.75,0l-.59-8.5c-.17-2.39-3.92-2.41-3.75,0Z"/><path class="cls-2" d="M171.72,149.86c6.52-.82,13-1.72,19.53-2.61,2.38-.33,1.37-3.94-1-3.62-6.18.85-12.35,1.7-18.54,2.48-2.36.3-2.39,4,0,3.75Z"/><path class="cls-2" d="M183.35,143c.24,3.09.8,6.18-.15,9.2-.73,2.31,2.89,3.3,3.61,1,1.07-3.37.56-6.76.29-10.2-.19-2.39-3.94-2.41-3.75,0Z"/><path class="cls-2" d="M178.22,168.69a46.85,46.85,0,0,1-1.79,12.39c-.65,2.33,3,3.32,3.62,1A51,51,0,0,0,182,168.69c0-2.42-3.74-2.42-3.75,0Z"/><path class="cls-2" d="M180.14,171.73c2.16-.9,6.88-3,8.36,0,1.27,2.61.26,6.33-.41,9-.59,2.34,3,3.34,3.62,1,1-3.83,2-8.86-.32-12.42-2.75-4.21-8.43-2.71-12.24-1.11-2.2.92-1.23,4.55,1,3.61Z"/><path class="cls-2" d="M180.59,177.54a38.72,38.72,0,0,1,9.31-1.48c2.41-.05,2.42-3.81,0-3.75a43.36,43.36,0,0,0-10.31,1.61,1.88,1.88,0,0,0,1,3.62Z"/><path class="cls-2" d="M178.24,183.45A55.48,55.48,0,0,0,189.9,183c2.38-.26,2.4-4,0-3.75a55.48,55.48,0,0,1-11.66.42c-2.4-.25-2.38,3.5,0,3.75Z"/><path class="cls-2" d="M284.2,142.73c-2.55,5.13-5.53,10-8.56,14.89-1.29,2,2,3.94,3.23,1.89,3-4.86,6-9.76,8.57-14.89,1.07-2.15-2.16-4.06-3.24-1.89Z"/><path class="cls-2" d="M282.24,153.15a40.17,40.17,0,0,1,9.55.18l-1.88-1.88c-.28,4.56-6.41,8.78-9.66,11.27a86.55,86.55,0,0,1-8,5.51c-2.06,1.24-.18,4.49,1.89,3.24a91.85,91.85,0,0,0,10.32-7.29c3.85-3.14,8.91-7.37,9.24-12.73a1.9,1.9,0,0,0-1.87-1.87,44.33,44.33,0,0,0-10.55-.05c-2.38.35-1.37,4,1,3.62Z"/><path class="cls-2" d="M278.38,159.72c5.6,1.6,12.67,3.06,17.34,6.65,1.92,1.47,3.78-1.78,1.9-3.24-4.95-3.8-12.34-5.34-18.25-7-2.32-.66-3.31,3-1,3.62Z"/><path class="cls-2" d="M281.68,170A94.37,94.37,0,0,1,279,181.18c-.71,2.31,2.9,3.29,3.62,1A93.45,93.45,0,0,0,285.3,171c.42-2.36-3.19-3.37-3.62-1Z"/><path class="cls-2" d="M285.13,172c2.69-1.24,6.3-2.3,6.71,1.41a9.53,9.53,0,0,1-.44,3.86,6.22,6.22,0,0,1-.53,1.27c-.31.62-.13,0,.47.05-2.41-.2-2.39,3.55,0,3.75,3.87.32,4.5-7.13,4.18-9.56a6.35,6.35,0,0,0-3.29-5.13c-2.88-1.43-6.3-.13-9,1.11-2.19,1-.28,4.25,1.89,3.24Z"/><path class="cls-2" d="M281.93,182.74c3,0,6-.37,9-.4,2.42,0,2.42-3.77,0-3.75-3,0-6,.37-9,.4-2.41,0-2.42,3.78,0,3.75Z"/><path class="cls-2" d="M213.56,142.73c-2.56,5.13-5.54,10-8.57,14.89-1.28,2,2,3.94,3.24,1.89,3-4.86,6-9.76,8.56-14.89,1.08-2.15-2.16-4.06-3.23-1.89Z"/><path class="cls-2" d="M211.59,153.15a40.16,40.16,0,0,1,9.55.18l-1.88-1.88c-.27,4.56-6.4,8.78-9.66,11.27a86.55,86.55,0,0,1-8,5.51c-2.06,1.24-.18,4.49,1.9,3.24a91.73,91.73,0,0,0,10.31-7.29c3.86-3.14,8.92-7.37,9.24-12.73a1.89,1.89,0,0,0-1.87-1.87,44.33,44.33,0,0,0-10.55-.05c-2.37.35-1.36,4,1,3.62Z"/><path class="cls-2" d="M207.73,159.72c5.6,1.6,12.68,3.06,17.35,6.65,1.91,1.47,3.78-1.78,1.89-3.24-4.94-3.8-12.33-5.34-18.24-7-2.33-.66-3.32,3-1,3.62Z"/><path class="cls-2" d="M211,170a94.41,94.41,0,0,1-2.7,11.22c-.71,2.31,2.91,3.29,3.62,1A93.45,93.45,0,0,0,214.65,171c.43-2.36-3.19-3.37-3.61-1Z"/><path class="cls-2" d="M214.48,172c2.69-1.24,6.3-2.3,6.71,1.41a9.53,9.53,0,0,1-.44,3.86,6.84,6.84,0,0,1-.52,1.27c-.31.62-.14,0,.46.05-2.4-.2-2.39,3.55,0,3.75,3.87.32,4.5-7.13,4.18-9.56a6.35,6.35,0,0,0-3.29-5.13c-2.88-1.43-6.3-.13-9,1.11-2.19,1-.28,4.25,1.89,3.24Z"/><path class="cls-2" d="M211.28,182.74c3,0,6-.37,9-.4,2.41,0,2.41-3.77,0-3.75-3,0-6,.37-9,.4-2.41,0-2.42,3.78,0,3.75Z"/><path class="cls-2" d="M352.38,157a66.12,66.12,0,0,0,12.55-3c2.27-.76,1.3-4.38-1-3.62a60.63,60.63,0,0,1-11.55,2.88c-2.36.29-2.39,4.05,0,3.75Z"/><path class="cls-2" d="M355.64,156.81A73.62,73.62,0,0,1,354,174.15c-.47,2.35,3.15,3.36,3.62,1a78.76,78.76,0,0,0,1.81-18.33c-.09-2.41-3.84-2.42-3.75,0Z"/><path class="cls-2" d="M358.17,161.56c2.58-.39,6.93-2.19,8.08,1.11a6.76,6.76,0,0,1-.25,4.56c-.24.69-1.4,3.72-2.18,3.69-2.41-.12-2.4,3.63,0,3.75,5,.23,7.1-8.71,6.22-12.35-1.63-6.71-7.63-5.17-12.87-4.38-2.38.36-1.36,4,1,3.62Z"/><path class="cls-2" d="M357.6,168.36l7.13-.42c2.4-.15,2.42-3.9,0-3.75l-7.13.42c-2.4.14-2.41,3.89,0,3.75Z"/><path class="cls-2" d="M357.24,175.86a16,16,0,0,1,5.74-1.19c2.41,0,2.42-3.79,0-3.75a18.81,18.81,0,0,0-6.74,1.33,1.93,1.93,0,0,0-1.31,2.3,1.88,1.88,0,0,0,2.31,1.31Z"/><path class="cls-2" d="M372.05,167a27,27,0,0,1,8,.78c2.31.69,3.3-2.92,1-3.62a30.7,30.7,0,0,0-9-.91,1.88,1.88,0,0,0,0,3.75Z"/><path class="cls-2" d="M371.86,148.23c-.58,2.67-1.28,5.29-1.68,8-.19,1.24.81,2.87,2.3,2.3a87.81,87.81,0,0,1,10.34-3.36l-2.37-1.81c.32,5.13,1,10.23,1.09,15.38a30.17,30.17,0,0,1-.65,8.43c-.9,3.18-2.13,3-4.64,1.07-1.91-1.47-3.78,1.79-1.89,3.24,14.32,11,10.19-22.46,9.84-28.12a1.9,1.9,0,0,0-2.37-1.81,87.26,87.26,0,0,0-10.34,3.37l2.3,2.3c.41-2.7,1.1-5.33,1.69-8,.52-2.35-3.1-3.36-3.62-1Z"/><path class="cls-2" d="M393.88,178.3l21.88-1.37c2.39-.15,2.41-3.9,0-3.75l-21.88,1.37c-2.4.15-2.42,3.9,0,3.75Z"/><path class="cls-2" d="M393.67,148.54c.86,3.31-.22,6.67-.41,10a1.88,1.88,0,0,0,1.87,1.88l17.07-2.11c2.36-.29,2.39-4,0-3.75l-17.07,2.11,1.88,1.87c.22-3.76,1.24-7.27.27-11-.6-2.34-4.22-1.35-3.61,1Z"/><path class="cls-2" d="M397.55,168.76l14.15-1.68c2.37-.28,2.4-4,0-3.75L397.55,165c-2.37.28-2.4,4,0,3.75Z"/><path class="cls-2" d="M402.2,150.14c.61,7.61,1.68,16.33.52,23.9-.36,2.36,3.25,3.38,3.61,1,1.23-8,.26-16.9-.38-24.9-.19-2.39-3.94-2.41-3.75,0Z"/><path class="cls-2" d="M130.67,158.56c2.91-1.07,6.41-1.21,9.46-1.67,2.82-.43,5.64-.83,8.46-1.23,2.38-.33,1.36-3.94-1-3.61q-4.23.58-8.46,1.22c-3,.46-6.55.6-9.46,1.68-2.25.82-1.28,4.45,1,3.61Z"/><path class="cls-2" d="M128.29,156.75a68.12,68.12,0,0,1-3.51,25.42c-.82,2.28,2.8,3.26,3.61,1A71.34,71.34,0,0,0,132,156.75c-.14-2.39-3.89-2.41-3.75,0Z"/><path class="cls-2" d="M133.69,163l9.81-1.55c2.38-.38,1.37-4-1-3.62l-9.81,1.55c-2.37.38-1.36,4,1,3.62Z"/><path class="cls-2" d="M137.25,161.6l.17,3.9a1.92,1.92,0,0,0,1.88,1.88,1.89,1.89,0,0,0,1.87-1.88l-.17-3.9a1.92,1.92,0,0,0-1.88-1.88,1.89,1.89,0,0,0-1.87,1.88Z"/><path class="cls-2" d="M135.11,168.23a79,79,0,0,1,8.79-1.47l-1.81-1.37a3.26,3.26,0,0,1-.27,3.1c-1.15,2.12,2.09,4,3.24,1.89a6.86,6.86,0,0,0,.64-6,1.91,1.91,0,0,0-1.8-1.38,90,90,0,0,0-9.79,1.61c-2.36.5-1.36,4.11,1,3.61Z"/><path class="cls-2" d="M135,173.07l9-1.83c2.36-.48,1.36-4.09-1-3.61l-9,1.83c-2.36.48-1.36,4.09,1,3.61Z"/><path class="cls-2" d="M137.81,171.68l.09,4.55c0,2.41,3.8,2.42,3.75,0l-.09-4.55c-.05-2.41-3.8-2.42-3.75,0Z"/><path class="cls-2" d="M132.31,161.18c.2,5.41-.11,10.84-.3,16.25a1.91,1.91,0,0,0,1.38,1.81c2.11.38,4.41-.13,6.49-.44a24.35,24.35,0,0,0,6.12-1.29c2.21-1,.31-4.19-1.89-3.24a26.55,26.55,0,0,1-4.53.81c-1.54.24-3.62.83-5.19.54l1.37,1.81c.19-5.41.5-10.84.3-16.25-.08-2.41-3.83-2.42-3.75,0Z"/><path class="cls-2" d="M148.26,150.63a18.32,18.32,0,0,1,4,4.64c1.27,2,4.52.17,3.24-1.89a21.27,21.27,0,0,0-4.59-5.4,1.92,1.92,0,0,0-2.65,0,1.89,1.89,0,0,0,0,2.65Z"/><path class="cls-2" d="M129.74,140.72v9.86c0,2.41,3.74,2.41,3.75,0v-9.86c0-2.41-3.74-2.42-3.75,0Z"/><path class="cls-2" d="M127.87,148.57a85.52,85.52,0,0,1,16.21-3.75c2.37-.39,1.36-4-1-3.62A86.47,86.47,0,0,0,126.87,145c-2.25.83-1.28,4.45,1,3.62Z"/><path class="cls-2" d="M137.43,140.29c-.09,2.55.47,6.2-.84,8.5-1.2,2.1,2,4,3.23,1.89,1.72-3,1.25-7.07,1.36-10.39.08-2.42-3.67-2.41-3.75,0Z"/><path class="cls-2" d="M121.34,156.33l-.72,8.79A1.89,1.89,0,0,0,122.5,167a22.87,22.87,0,0,0,6.1-1.69c2.26-.79,1.29-4.42-1-3.62-1.71.6-3.27,1.44-5.1,1.56l1.87,1.87.72-8.79c.2-2.41-3.55-2.4-3.75,0Z"/><path class="cls-2" d="M122.12,172.11a54.81,54.81,0,0,0,5.74-1.85c2.3-.71,1.32-4.33-1-3.61a58.11,58.11,0,0,1-5.74,1.85c-2.37.47-1.37,4.09,1,3.61Z"/><path class="cls-2" d="M121.55,170.82c-.66,3-.69,6.1-1.83,8.93-.91,2.24,2.72,3.21,3.61,1,1.14-2.84,1.18-6,1.83-8.94.53-2.35-3.09-3.35-3.61-1Z"/><path class="cls-2" d="M140.38,151.83c3.48,5.92,6.07,12.48,10.71,17.65,1.62,1.81,4,3.89,6.61,3.25,3.31-.81,4.28-5.08,4.83-7.89.47-2.36-3.14-3.37-3.61-1-.31,1.57-.69,5.45-2.8,5.07s-4.13-4.28-5.09-5.74c-2.78-4.25-4.84-8.87-7.41-13.24-1.22-2.07-4.47-.19-3.24,1.9Z"/><path class="cls-2" d="M152.15,157.21c-2.85,9.09-8.8,18.32-9.76,27.85-.24,2.4,3.51,2.38,3.75,0,.41-4.09,2.63-8.35,4.12-12.12,1.93-4.87,3.94-9.72,5.51-14.73.72-2.31-2.9-3.29-3.62-1Z"/></g></g></svg>