<?xml version="1.0" encoding="utf-8"?>
<!-- Generator: Adobe Illustrator 16.0.0, SVG Export Plug-In . SVG Version: 6.00 Build 0)  -->
<!DOCTYPE svg PUBLIC "-//W3C//DTD SVG 1.1//EN" "http://www.w3.org/Graphics/SVG/1.1/DTD/svg11.dtd">
<svg version="1.1" id="city" xmlns="http://www.w3.org/2000/svg" xmlns:xlink="http://www.w3.org/1999/xlink" x="0px" y="0px"
	 width="1302px" height="658px" viewBox="0 0 1302 658" enable-background="new 0 0 1302 658" xml:space="preserve">
<g>
	<rect x="1211.207" y="357.992" fill="#F8F3EE" width="45.404" height="28.458"/>
	<rect x="873.065" y="357.992" fill="#F8F3EE" width="45.403" height="94.406"/>
	<rect x="892.086" y="292.295" fill="#F8F3EE" width="7.361" height="57.752"/>
	<rect x="746.914" y="488.719" fill="#F8F3EE" width="45.403" height="94.406"/>
	<rect x="762.194" y="465.153" fill="#F8F3EE" width="30.123" height="12.578"/>
	<rect x="1008.254" y="505.11" fill="#F8F3EE" width="46.67" height="59.237"/>
	<rect x="754.555" y="149.42" fill="#F8F3EE" width="45.403" height="28.458"/>
	<rect x="563.658" y="534.729" fill="#F8F3EE" width="58.333" height="48.396"/>
	<rect x="563.658" y="520.363" fill="#F8F3EE" width="38.889" height="20.341"/>
	<path fill="#F8F3EE" d="M471.973,394.067v189.058h68.802v-78.014h107.091v78.014h62.08V428.838h101.208v154.287h28.189h90.807
		h47.59V477.731h43.648v-25.333h42.512v25.333h21.539v105.394h34.963h22.836v-44.017h67.969v44.017h90.807V437.799h-38.879v-16.155
		h38.879v-20.936h-90.807v103.763h-47.445v-93.233h-43.359v-99.084H1100.9v-28.458h-45.402v28.458h-64.904v88.555H930.15v64.613
		h-90.807v-64.613h-24.6V177.877H688.586v222.831h-56.674V250.297H618.08v-46.8h-45.402v46.8h-39.876v241.619h-34.093v-97.849
		H471.973z M1264.092,500.62h11.367v61.024h-11.367V500.62z M1240.758,500.62h11.367v61.024h-11.367V500.62z M1008.254,344.026
		h31.07v61.169h-31.07V344.026z M925.467,497.628h14.357v37.102h-14.357V497.628z M901.535,497.628h14.359v37.102h-14.359V497.628z
		 M877.604,497.628h14.359v37.102h-14.359V497.628z M704.104,237.977h31.11v64.613h-31.11V237.977z M704.104,203.276h96.278v5.983
		h-96.278V203.276z M670.6,446.176h-70.595V434.81H670.6V446.176z M553.938,455.749H670.6v5.385H553.938V455.749z M540.775,336.317
		h22.136v11.368h-22.136V336.317z M540.775,314.307h22.136v11.367h-22.136V314.307z M540.775,292.295h22.136v11.368h-22.136V292.295
		z M540.775,270.284h22.136v11.367h-22.136V270.284z"/>
</g>
</svg>
