<svg xmlns="http://www.w3.org/2000/svg" viewBox="0 0 759.4 245.27"><defs><style>.cls-1{fill:#e9d1ab;}</style></defs><title>cloud</title><g id="圖層_2" data-name="圖層 2"><g id="cloud"><rect class="cls-1" x="222.07" width="34.29" height="4.53" rx="2.26" ry="2.26"/><rect class="cls-1" x="245.68" y="10.35" width="29.11" height="7.12" rx="3.56" ry="3.56"/><rect class="cls-1" x="234.69" y="22.97" width="18.76" height="6.15" rx="3.07" ry="3.07"/><rect class="cls-1" x="208.49" width="9.06" height="4.53" rx="2.26" ry="2.26"/><rect class="cls-1" x="276.9" y="80.5" width="16.98" height="6.79" rx="3.4" ry="3.4"/><circle class="cls-1" cx="269.14" cy="83.89" r="3.4"/><rect class="cls-1" x="421.47" y="145.51" width="11" height="7.12" rx="3.56" ry="3.56"/><rect class="cls-1" x="306.63" y="131.34" width="120.34" height="8.25" rx="4.12" ry="4.12"/><path class="cls-1" d="M411.29,145.51h-9.46a3,3,0,0,1,0-5.93H340.49a3,3,0,0,1,0,5.93H328.16a3.56,3.56,0,0,0,0,7.12h17.63a2.43,2.43,0,1,1,0,4.85h-2.91a3.4,3.4,0,1,0,0,6.79h45a3.4,3.4,0,0,0,0-6.79H376a2.43,2.43,0,0,1,0-4.85h35.26a3.56,3.56,0,0,0,0-7.12Z"/><rect class="cls-1" x="475.05" y="31.54" width="18.92" height="7.28" rx="3.64" ry="3.64"/><rect class="cls-1" x="426.28" y="14.56" width="32.03" height="11.16" rx="5.58" ry="5.58"/><rect class="cls-1" x="382.77" y="60.65" width="65.02" height="10.19" rx="5.09" ry="5.09"/><path class="cls-1" d="M484.5,42.7H375.33a4.37,4.37,0,1,0,0,8.73H484.5a4.37,4.37,0,1,0,0-8.73Z"/><path class="cls-1" d="M407.11,38.82h8.17a1.94,1.94,0,0,1,0,3.88H451.5a1.94,1.94,0,1,1,0-3.88h13.35a3.64,3.64,0,0,0,0-7.28H407.11a3.64,3.64,0,1,0,0,7.28Z"/><rect class="cls-1" x="5.16" y="133.76" width="28.94" height="4.7" rx="2.35" ry="2.35"/><path class="cls-1" d="M79,141.21H2.35A2.36,2.36,0,0,0,0,143.56H0a2.36,2.36,0,0,0,2.35,2.35H20.78a3.14,3.14,0,0,1,0,6.27H7.37a2.84,2.84,0,1,0,0,5.67H63.64a2.84,2.84,0,0,0,0-5.67H54a3.14,3.14,0,0,1,0-6.27H79a2.36,2.36,0,0,0,2.36-2.35h0A2.36,2.36,0,0,0,79,141.21Z"/><rect class="cls-1" x="104.38" y="82.59" width="66.47" height="7.25" rx="3.62" ry="3.62"/><rect class="cls-1" x="138.1" y="70.99" width="51.92" height="6.52" rx="3.26" ry="3.26"/><rect class="cls-1" x="116.67" y="61.95" width="18.76" height="6.15" rx="3.07" ry="3.07"/><path class="cls-1" d="M695.82,203.39H633.36a4.17,4.17,0,1,1,0-8.33h16.37a4.78,4.78,0,0,0,4.77-4.77h0a4.78,4.78,0,0,0-4.77-4.77H558.21a4.78,4.78,0,0,0-4.77,4.77h0a4.79,4.79,0,0,0,4.77,4.77h16.84a4.17,4.17,0,1,1,0,8.33H543.8a5.51,5.51,0,0,0-5.5,5.5h0a5.52,5.52,0,0,0,5.5,5.5h152a5.52,5.52,0,0,0,5.5-5.5h0A5.51,5.51,0,0,0,695.82,203.39Z"/><rect class="cls-1" x="568.88" y="170.07" width="29.11" height="7.12" rx="3.56" ry="3.56"/><rect class="cls-1" x="152.24" y="236.13" width="41.62" height="9.14" rx="4.57" ry="4.57" transform="translate(346.1 481.4) rotate(180)"/><rect class="cls-1" x="165.9" y="199.17" width="84.5" height="8.35" rx="4.17" ry="4.17" transform="translate(416.29 406.69) rotate(180)"/><rect class="cls-1" x="692.78" y="80.77" width="34.08" height="7.49" rx="3.74" ry="3.74"/><rect class="cls-1" x="646.48" y="111.69" width="69.2" height="6.83" rx="3.42" ry="3.42"/><path class="cls-1" d="M636.84,105.5H756.47a2.93,2.93,0,0,0,2.93-2.93h0a2.93,2.93,0,0,0-2.93-2.92H636.84a2.93,2.93,0,0,0-2.93,2.92h0A2.93,2.93,0,0,0,636.84,105.5Z"/><path class="cls-1" d="M671,97h10.13c1.14,0,2.07.59,2.07,1.3s-.93,1.31-2.07,1.31h38.55c-1.14,0-2.07-.59-2.07-1.31s.93-1.3,2.07-1.3h15.64a2.44,2.44,0,1,0,0-4.88H671A2.44,2.44,0,0,0,671,97Z"/></g></g></svg>