<svg xmlns="http://www.w3.org/2000/svg" viewBox="0 0 478.01 101.98"><defs><style>.cls-1{fill:#e9d1ab;}.cls-2{fill:#ddba8f;}.cls-3{fill:#d8b08c;}.cls-4{fill:#e8af63;}.cls-5{fill:#cf8759;}.cls-6{fill:#f8f3ee;}</style></defs><title>land2</title><g id="圖層_2" data-name="圖層 2"><g id="land2"><path class="cls-1" d="M0,102S110.29.09,245,0,478,102,478,102Z"/><polygon class="cls-2" points="219.72 39.56 215.89 47.11 225.49 51.98 219.72 39.56"/><path class="cls-2" d="M306.76,35.6l-2.68-2.51a3.67,3.67,0,0,1,6.36,2.51Z"/><circle class="cls-2" cx="345.15" cy="53.26" r="1.96"/><path class="cls-2" d="M309.81,48h0c-10.93,1.59-19.17-4.81-20.78-6.17a3.47,3.47,0,0,0-.29-.25h0a26,26,0,0,0-24.29-5.46c-14.25,4.1-22.61,19.41-18.67,34.21a27.82,27.82,0,0,0,1.74,4.79h83.35a21,21,0,0,0,.47-12.37A19.64,19.64,0,0,0,309.81,48Z"/><path class="cls-3" d="M272.12,35.12h0a26.05,26.05,0,0,0-7.67,1c-14.25,4.1-22.61,19.41-18.67,34.21a27.82,27.82,0,0,0,1.74,4.79h22.41C253.45,59.39,272.12,35.12,272.12,35.12Z"/><path class="cls-4" d="M345.15,76.93c0-1.82-11.14-3.29-24.87-3.29H261.47c-13.73,0-24.87,1.47-24.87,3.29s11.14,3.29,24.87,3.29h58.81C334,80.22,345.15,78.75,345.15,76.93Z"/><rect class="cls-2" x="362.99" y="58.28" width="20.19" height="8.9" rx="4.45" ry="4.45"/><polygon class="cls-4" points="256.09 16.81 248.4 16.81 248.4 24.49 256.09 16.81"/><path class="cls-4" d="M210.44,84.79c0-1-2.22-1.86-4.95-1.86h-11.7c-2.73,0-4.95.84-4.95,1.86s2.22,1.86,4.95,1.86h11.7C208.22,86.65,210.44,85.82,210.44,84.79Z"/><path class="cls-4" d="M210.09,30.24c0-1-2.87-1.86-6.42-1.86H188.5c-3.55,0-6.42.83-6.42,1.86S185,32.1,188.5,32.1h15.17C207.22,32.1,210.09,31.26,210.09,30.24Z"/><path class="cls-1" d="M150.9,89.88c0-22.4,18.48-40.56,41.29-40.56s41.3,18.16,41.3,40.56"/><path class="cls-2" d="M222,18.64l-2.68-2.51a3.68,3.68,0,0,1,6.36,2.51Z"/><path class="cls-5" d="M211.58,90.56s.19-2.44-2.85-4.91S197.12,72,196.4,70.55s-1.48-3.36-.2-3.53,2,2.26,2.43,3l2.23,3.42s-.85-7.68-.71-9.11-.13-2.3,1.91-2.41,1.64,4.36,1.77,6.89.5,7.17,1.58,9.27,5.92,7.66,5.92,7.66-3.16-6.36-3.41-9.06a22.16,22.16,0,0,1-.13-4.42c.06-.77.22-1.91,1.72-2s.56,2.5.5,3.27.4,7,1.12,8.6,2.39,4.65,2.39,4.65A76.79,76.79,0,0,0,213,76.19c-.67-4.56-2.58-9.89-3.28-10.9s-1-1.87.1-2.14,2.54-.8,4,3.75a57.67,57.67,0,0,1,1.84,12c0,.88.22,8.75.22,8.75s2.54-5.44,2.56-7-1.84-12-1.58-13.29a1.93,1.93,0,0,1,2.05-1.83c1.18,0,.72,1.3.76,2.13s-.06,4.73-.06,4.73,3.24-5.65,3.08-8.71-.43-3.87,1.17-4.24,2,3.85,1.68,5.18a58.72,58.72,0,0,1-3.16,7.3,11,11,0,0,0-1.63,5.7c.13,2.35-2.8,9.86-3.29,10.83A2.8,2.8,0,0,0,217,90.1Z"/><path class="cls-4" d="M228.51,92.06c0-1-2.87-1.86-6.42-1.86H206.92c-3.55,0-6.42.83-6.42,1.86s2.87,1.86,6.42,1.86h15.17C225.64,93.92,228.51,93.09,228.51,92.06Z"/><path class="cls-6" d="M191.26,86.23c0-1-1.88-1.86-4.21-1.86h-9.94c-2.33,0-4.21.83-4.21,1.86s1.88,1.86,4.21,1.86h9.94C189.38,88.09,191.26,87.25,191.26,86.23Z"/><circle class="cls-6" cx="238.59" cy="37.58" r="1.98"/><path class="cls-6" d="M393.82,55.11c0-1-1.88-1.86-4.21-1.86h-9.94c-2.33,0-4.21.84-4.21,1.86S377.34,57,379.67,57h9.94C391.94,57,393.82,56.14,393.82,55.11Z"/><polygon class="cls-2" points="186.25 71.79 186.85 66.62 180.27 65.85 186.25 71.79"/><circle class="cls-6" cx="166.84" cy="74.45" r="1.72"/><path class="cls-4" d="M374.34,61.18c-1.23.2-2.67-1.69-2.65-3.18s-.74-4.12-2.62-4.43-2.53,1.15-3.25,1.16-.93-.85-1.13-1.52-1.44-2.19-2.35-2.27-4.53-.59-3.52-3.07,4.73.65,5.31.88,4.26,1.61,4.77.59a2.38,2.38,0,0,0-1.49-2.86c-.92-.13-1.58.51-2.21.33a20.68,20.68,0,0,1-2.68-2c-.63-.42-2.14-1.65-3-1.63s-2.83.24-3.18-.29,0-2.35-.63-3.3a4.22,4.22,0,0,0-2.82-1.78,5.06,5.06,0,0,1-2.71-1.11,6.72,6.72,0,0,0-2-1.12,1,1,0,0,1,.79-1.84c1.49,0,.73-2.33.62-3.14s.59-1.65,1.38-.55,1.9,4.29,2.68,4.91,2.2,1.74,2.82,1.68a1.88,1.88,0,0,1,1.84.93c.55.81,1.33,1.61,1.51.65s.23-2.22,1.06-2.23,1.29,2,1.6,3.39a4.76,4.76,0,0,0,3,3.07c1.06.27,2.56.58,2.52-1.63s-1.37-7-2-9.06-.2-8.55.61-9.53,2.63-.91,2.23,1.31-.93,5-.58,5.59,1.43-.8,1.91-.85.83.66.52,2.15-.07,1.88.17,1.73a6,6,0,0,0,1.62-3.92c0-2.07,1.92-2.92,2.76-1.87s-.43,3.23-.8,3.95-3.19,4.82-3.22,6.12-.3,7.75.4,9.08,1.88,3.1,3.83,1.91,2.92-3.85,1.94-4.89S374,40,374,39.1s2-.9,2.63-.91,1.11-2.76,1.38-3.58,1.33-1.32,1.91-.85,0,2-.23,3.13-.43,5.59.64,6.44,1.78.4,2-.47a9.68,9.68,0,0,0,.26-4c-.31-1.34-.62-5.42.56-6.88s1.72-.75,1.64.35-.51,2.23.08,3.8,1.65,1.42,1.63.5-.84-4,1.29-3.62c0,0-.09-2.5.72-2.61a1.79,1.79,0,0,1,1.6.55c.29.28.75-1,1.41-1.62s1.63-.79,1.79.21a4.41,4.41,0,0,1-.68,2.37,1.8,1.8,0,0,1,.76,1.82c-.28,1.11-2.23,2.34-3.18,3.32s-2.18,2-2.34,3.65-.16,2.07-.16,2.07a4.52,4.52,0,0,0,2.69-.57c.9-.74,1.8-1.09,2.15-.62s-.77,2.81-2.79,3.18-.16,1.54.18,1.92a1.06,1.06,0,0,1-.35,1.69c-.86.35-2.28-.93-3.15-1.06a14.41,14.41,0,0,0-4.29-.07c-.76.3-4.69,3.54-5.61,6.21S376.26,60.86,374.34,61.18Z"/><circle class="cls-6" cx="291.99" cy="16.81" r="1.11"/><path class="cls-1" d="M119,92.07a24.12,24.12,0,0,1,48.24,0"/><path class="cls-1" d="M24,82.93s62.89-16.61,96.89,0l-6.15,6.95Z"/><polygon class="cls-4" points="148.14 86.19 146.33 90.45 150.59 92.27 148.14 86.19"/><path class="cls-6" d="M321,88.23c0-1-3.16-1.86-7.06-1.86H297.24c-3.9,0-7.06.84-7.06,1.86s3.16,1.86,7.06,1.86H314C317.85,90.09,321,89.26,321,88.23Z"/><path class="cls-4" d="M372.17,84.79c0-1-1.88-1.86-4.21-1.86H358c-2.32,0-4.2.84-4.2,1.86s1.88,1.86,4.2,1.86H368C370.29,86.65,372.17,85.82,372.17,84.79Z"/><path class="cls-2" d="M135.6,91.31c0-.83-1.46-1.5-3.25-1.5h-7.67c-1.79,0-3.24.67-3.24,1.5s1.45,1.49,3.24,1.49h7.67C134.14,92.8,135.6,92.13,135.6,91.31Z"/><rect class="cls-2" x="402.92" y="81.91" width="20.19" height="8.9" rx="4.45" ry="4.45"/><path class="cls-6" d="M405.86,69l-.24,15.38L414,72.53a2.31,2.31,0,0,0-.49-2.94h0a8.2,8.2,0,0,0-5.65-2.41h0A1.89,1.89,0,0,0,405.86,69Z"/><path class="cls-6" d="M414.18,76.05l-7.12,8.84,11.53-3.55a1.47,1.47,0,0,0,1-1.9h0a6.3,6.3,0,0,0-3.06-3.67h0A1.82,1.82,0,0,0,414.18,76.05Z"/><path class="cls-6" d="M416.37,83.74l-7.79,1.8L417,87.81a1.06,1.06,0,0,0,1.33-.59h0a3.21,3.21,0,0,0-.45-2.82h0A1.5,1.5,0,0,0,416.37,83.74Z"/><path class="cls-6" d="M403.94,71.67l.49,12.1-6.8-11.38a1.58,1.58,0,0,1,.32-2.18h0a5.05,5.05,0,0,1,4.38-.49h0A2.25,2.25,0,0,1,403.94,71.67Z"/><path class="cls-6" d="M398.4,76.38l4.93,7.24L395.64,79a1.34,1.34,0,0,1-.69-1.44h0a2.58,2.58,0,0,1,1.92-1.82h0A1.51,1.51,0,0,1,398.4,76.38Z"/><path class="cls-6" d="M405.19,85.62c2.65,1,3.71,1.08,4.27,1.37a2.55,2.55,0,0,1,1.17,2c-.05.68-3.18.51-6.11-.9s-4.82-2.85-4.06-3.56a1.56,1.56,0,0,1,2-.28Z"/><polygon class="cls-6" points="326.29 28.8 324.6 33.07 328.86 34.77 326.29 28.8"/><path class="cls-6" d="M67.89,93.92c0-1-3.16-1.86-7.06-1.86H44.12c-3.9,0-7.06.83-7.06,1.86s3.16,1.86,7.06,1.86H60.83C64.73,95.78,67.89,95,67.89,93.92Z"/><path class="cls-2" d="M51.89,93.62c1,.35,2.51-1.08,2.7-2.36s1.19-3.43,2.84-3.44,2,1.33,2.63,1.44.91-.6,1.17-1.15,1.52-1.68,2.32-1.63,4,.11,3.42-2.15-4.13-.09-4.66,0-3.86.81-4.16-.13A2.06,2.06,0,0,1,59.81,82c.8,0,1.28.65,1.84.58a17,17,0,0,0,2.56-1.33c.6-.28,2.06-1.12,2.76-1s2.39.59,2.76.19.31-2,1-2.75a3.66,3.66,0,0,1,2.65-1.14A4.41,4.41,0,0,0,75.84,76a5.92,5.92,0,0,1,1.9-.69.91.91,0,0,0-.42-1.68c-1.28-.18-.32-2.09-.11-2.77s-.29-1.49-1.11-.66-2.21,3.42-3,3.84S71,75.19,70.5,75.05a1.63,1.63,0,0,0-1.7.55c-.58.62-1.36,1.2-1.38.35s.1-1.93-.61-2S65.45,75.39,65,76.58a4.13,4.13,0,0,1-3,2.23c-.94.09-2.27.15-1.93-1.73A42,42,0,0,1,63,69.59c.81-1.68,1.33-7.3.77-8.24s-2.13-1.14-2.09.82.12,4.38-.26,4.86-1.11-.87-1.52-1-.8.46-.73,1.78-.2,1.61-.38,1.45a5.13,5.13,0,0,1-.86-3.57c.27-1.77-1.25-2.76-2.11-2s-.07,2.82.15,3.5,2.08,4.55,1.93,5.67-.79,6.67-1.56,7.72-2,2.39-3.54,1.11-2-3.69-1-4.45,3.22-1.72,3.36-2.5-1.6-1-2.13-1.13-.58-2.51-.7-3.25-1-1.31-1.52-1-.29,1.68-.22,2.71-.39,4.84-1.42,5.42-1.58.11-1.66-.67a8.49,8.49,0,0,1,.32-3.5c.45-1.1,1.27-4.56.45-6s-1.37-.87-1.45.09a6.33,6.33,0,0,1-.58,3.24c-.72,1.27-1.6,1-1.46.21s1.26-3.34-.61-3.28c0,0,.41-2.13-.27-2.34a1.59,1.59,0,0,0-1.44.26c-.29.2-.51-.94-1-1.57s-1.29-.9-1.56-.06a3.86,3.86,0,0,0,.26,2.12,1.57,1.57,0,0,0-.9,1.45c.1,1,1.6,2.31,2.28,3.27s1.59,2,1.51,3.44a18,18,0,0,1-.15,1.8,3.93,3.93,0,0,1-2.22-.86c-.67-.75-1.4-1.18-1.76-.82s.28,2.51,2,3.1-.07,1.34-.41,1.62a.91.91,0,0,0,.07,1.49c.69.42,2.08-.48,2.84-.47a12.26,12.26,0,0,1,3.68.51c.61.36,3.54,3.67,4,6.07S50.29,93.09,51.89,93.62Z"/><circle class="cls-4" cx="79.28" cy="85.08" r="1.11"/><path class="cls-2" d="M96.69,92.06,94,89.55a3.68,3.68,0,0,1,6.36,2.51Z"/></g></g></svg>