<?xml version="1.0" encoding="utf-8"?>
<!-- Generator: Adobe Illustrator 16.0.0, SVG Export Plug-In . SVG Version: 6.00 Build 0)  -->
<!DOCTYPE svg PUBLIC "-//W3C//DTD SVG 1.1//EN" "http://www.w3.org/Graphics/SVG/1.1/DTD/svg11.dtd">
<svg version="1.1" id="lighthouse" xmlns="http://www.w3.org/2000/svg" xmlns:xlink="http://www.w3.org/1999/xlink" x="0px" y="0px"
	 width="1302px" height="658px" viewBox="0 0 1302 658" enable-background="new 0 0 1302 658" xml:space="preserve">
<g>
	<rect x="115.699" y="194.696" fill="#C45C23" width="11.079" height="107.081"/>
	<rect x="213.969" y="189.036" fill="#C45C23" width="11.079" height="107.081"/>
	<polygon fill="#EFE9CC" points="122.131,301.673 63.72,611.28 299.022,611.28 217.438,301.673 	"/>
	<rect x="102.696" y="277.998" fill="#81392F" width="136.666" height="62.67"/>
	<polygon fill="#C45C23" points="103.196,178.506 171.03,119.986 238.862,178.506 	"/>
	<path fill="#C45C23" d="M60.642,632.65c0,0,10.797-256.666,42.055-291.982c0,0,112.851-21.116,136.666,0
		c23.815,21.118,63.26,291.982,63.26,291.982H60.642z"/>
	<path fill="#81392F" d="M171.713,130.388h-0.245c-2.849,0-5.178-2.331-5.178-5.178v-15.736c0-2.848,2.329-5.179,5.178-5.179h0.245
		c2.848,0,5.179,2.331,5.179,5.179v15.736C176.892,128.057,174.561,130.388,171.713,130.388z"/>
	<circle fill="#C45C23" cx="171.59" cy="104.294" r="8.715"/>
	<path fill="#81392F" d="M227.348,205.877H114.713c-8.695,0-15.811-7.114-15.811-15.811v-0.748c0-8.697,7.115-15.811,15.811-15.811
		h112.635c8.695,0,15.811,7.114,15.811,15.811v0.748C243.158,198.763,236.043,205.877,227.348,205.877z"/>
	
		<rect x="225.461" y="369.703" transform="matrix(0.9857 -0.1688 0.1688 0.9857 -61.904 45.0876)" fill="#81392F" width="17.696" height="34.074"/>
	<polygon fill="#81392F" points="278.103,486.029 259.839,516.199 219.508,516.199 239.362,486.029 	"/>
</g>
<path fill="#E9D1AB" d="M230.061,641.91c0-29.869,24.65-54.082,55.058-54.082s55.059,24.213,55.059,54.082"/>
</svg>
