<svg xmlns="http://www.w3.org/2000/svg" viewBox="0 0 279.53 533.73"><defs><style>.cls-1{fill:#c25b23;}.cls-2{fill:#80392f;}.cls-3{fill:#e8d0aa;}</style></defs><title>lighthouse</title><g id="圖層_2" data-name="圖層 2"><g id="lighthouse"><path class="cls-1" d="M242,524.47H0C18.1,296.85,49.58,190.3,49.58,190.3H192.4Z"/><rect class="cls-1" x="70.17" y="37.1" width="11.91" height="75.36"/><rect class="cls-1" x="159.9" y="37.1" width="11.91" height="75.36"/><polygon class="cls-2" points="193.65 190.58 48.33 190.58 31.14 179.47 210.84 179.47 193.65 190.58"/><path class="cls-2" d="M171.81,38.06C158.65,14.51,140.74,0,121,0S83.33,14.51,70.17,38.06Z"/><path class="cls-1" d="M192.4,190.3H49.58S18.1,296.85,0,524.47H242C223.88,296.85,192.4,190.3,192.4,190.3Z"/><path class="cls-2" d="M168.28,214.91c-6.16,0-11.16,15.22-11.16,34h22.33C179.45,230.13,174.45,214.91,168.28,214.91Z"/><path class="cls-2" d="M105.57,284.42a4.56,4.56,0,0,1-4.7,4.42H82.66a4.57,4.57,0,0,1-4.7-4.42h0a4.57,4.57,0,0,1,4.7-4.42h18.21a4.56,4.56,0,0,1,4.7,4.42Z"/><path class="cls-2" d="M79.8,299.66a4.55,4.55,0,0,1-4.69,4.41H56.89a4.55,4.55,0,0,1-4.69-4.41h0a4.56,4.56,0,0,1,4.69-4.42H75.11a4.56,4.56,0,0,1,4.69,4.42Z"/><path class="cls-2" d="M98.67,313.5a4.56,4.56,0,0,1-4.7,4.42H75.76a4.56,4.56,0,0,1-4.7-4.42h0a4.56,4.56,0,0,1,4.7-4.41H94a4.56,4.56,0,0,1,4.7,4.41Z"/><path class="cls-2" d="M195,360.25a4.56,4.56,0,0,1-4.7,4.41H172.06a4.56,4.56,0,0,1-4.7-4.41h0a4.56,4.56,0,0,1,4.7-4.42h18.21a4.56,4.56,0,0,1,4.7,4.42Z"/><path class="cls-2" d="M169.2,375.48a4.56,4.56,0,0,1-4.69,4.42H146.29a4.56,4.56,0,0,1-4.69-4.42h0a4.56,4.56,0,0,1,4.69-4.41h18.22a4.56,4.56,0,0,1,4.69,4.41Z"/><path class="cls-2" d="M188.07,389.33a4.57,4.57,0,0,1-4.7,4.42H165.16a4.56,4.56,0,0,1-4.7-4.42h0a4.56,4.56,0,0,1,4.7-4.42h18.21a4.57,4.57,0,0,1,4.7,4.42Z"/><path class="cls-1" d="M210.84,177.5c0,1.09-2.1,2-4.69,2H35.83c-2.59,0-4.69-.88-4.69-2v-7.18c0-1.09,2.1-2,4.69-2H206.15c2.59,0,4.69.88,4.69,2Z"/><rect class="cls-1" x="115.11" y="79.63" width="11.75" height="22.72"/><path class="cls-1" d="M126.87,79.63A5.88,5.88,0,1,1,121,73.75,5.88,5.88,0,0,1,126.87,79.63Z"/><path class="cls-2" d="M178.1,165.66a2.74,2.74,0,0,1-3,2.4H66.86a2.74,2.74,0,0,1-3-2.4V102.74a2.73,2.73,0,0,1,3-2.39H175.12a2.73,2.73,0,0,1,3,2.39Z"/><path class="cls-1" d="M40.67,170.32V126.57l-2.5,2.5H203.81l-2.5-2.5v43.75c0,3.22,5,3.23,5,0V126.57a2.54,2.54,0,0,0-2.5-2.5H38.17a2.53,2.53,0,0,0-2.5,2.5v43.75c0,3.22,5,3.23,5,0Z"/><rect class="cls-1" x="57.82" y="126.57" width="3.93" height="41.49"/><rect class="cls-1" x="87.65" y="126.57" width="3.93" height="41.49"/><rect class="cls-1" x="117.47" y="126.57" width="3.93" height="41.49"/><rect class="cls-1" x="147.3" y="126.57" width="3.93" height="41.49"/><rect class="cls-1" x="177.12" y="126.57" width="3.93" height="41.49"/><path class="cls-3" d="M169.42,533.73c0-29.87,24.65-54.08,55.06-54.08s55,24.21,55,54.08"/></g></g></svg>