<?xml version="1.0" encoding="utf-8"?>
<!-- Generator: Adobe Illustrator 16.0.0, SVG Export Plug-In . SVG Version: 6.00 Build 0)  -->
<!DOCTYPE svg PUBLIC "-//W3C//DTD SVG 1.1//EN" "http://www.w3.org/Graphics/SVG/1.1/DTD/svg11.dtd">
<svg version="1.1" id="submarine" xmlns="http://www.w3.org/2000/svg" xmlns:xlink="http://www.w3.org/1999/xlink" x="0px" y="0px"
	 width="1302px" height="658px" viewBox="0 0 1302 658" enable-background="new 0 0 1302 658" xml:space="preserve">
<path fill="#494C4E" d="M866.255,530.172c0,0-24.748,2.414-25.199,16.398c-0.451,13.985,37.293,23.157,37.293,23.157
	L866.255,530.172z"/>
<path fill="#494C4E" d="M1043.308,446.572c0,0,77.074,38.872,67.408,120.486l-50.297,62.066c0,0,122.435-32.78,130.254-94.134
	C1198.493,473.64,1043.308,446.572,1043.308,446.572z"/>
<path fill="#FDFEFF" d="M887.563,513.526c26.466-7.819,49.923,11.428,58.345,23.458c8.421,12.03,32.481,52.329,69.172,51.728
	s85.412-13.232,95.637-21.653c0,0-3.608,55.939-63.156,64.961c-59.547,9.022-118.494-9.021-134.735-19.248
	c-16.239-10.225-51.126-47.517-50.523-69.171C862.901,521.947,887.563,513.526,887.563,513.526z"/>
<g>
	<defs>
		<path id="SVGID_1_" d="M887.563,513.526c26.466-7.819,49.923,11.428,58.345,23.458c8.421,12.03,32.481,52.329,69.172,51.728
			s85.412-13.232,95.637-21.653c0,0-3.608,55.939-63.156,64.961c-59.547,9.022-118.494-9.021-134.735-19.248
			c-16.239-10.225-51.126-47.517-50.523-69.171C862.901,521.947,887.563,513.526,887.563,513.526z"/>
	</defs>
	<clipPath id="SVGID_2_">
		<use xlink:href="#SVGID_1_"  overflow="visible"/>
	</clipPath>
	<path clip-path="url(#SVGID_2_)" fill="#D8E6EC" d="M1131.102,544.615c0,0-36.065,105.262-200.296,77.036l170.822,51.083
		L1131.102,544.615z"/>
</g>
<path fill="#5F6D71" d="M844.105,544.834c-1.287,3.074,1.745,3.148,2.554,1.975s4.004-4.916,3.945-5.839
	C850.546,540.048,845.894,540.561,844.105,544.834z"/>
<path fill="#5F6D71" d="M852.56,537.247c-0.451,0.451-0.451,1.654,0.602,1.654c1.052,0,2.255-1.504,1.729-2.105
	C854.363,536.194,852.56,537.247,852.56,537.247z"/>
<path fill="#494C4E" d="M983.76,451.685c0,0,22.255-31.28,37.895-40.601c15.639-9.319,22.856-8.722,25.863-6.917
	c3.009,1.805,1.203,21.954,6.316,28.871c5.112,6.918,18.646,16.843,19.849,21.955S983.76,451.685,983.76,451.685z"/>
<path fill="#494C4E" d="M863.193,537.346c0,0-6.349-58.895,67.435-80.949c73.782-22.055,132.729-8.42,140.749-5.213
	c8.021,3.208,71.418,47.215,39.339,117.091c0,0-77.433,41.703-125.151,15.237c-47.718-26.466-24.461-44.904-67.367-63.554
	C875.291,501.308,863.193,537.346,863.193,537.346z"/>
<path fill="#F8FAFD" d="M1011.629,512.937c-0.703,24.608-22.055,24.061-33.684,17.243s-39.498-35.087-49.723-38.896
	c-9.885-3.684-6.417-8.823-3.609-10.026c2.807-1.202,40.5-8.421,58.946-3.608C1002.005,482.461,1012.03,498.902,1011.629,512.937z"
	/>
<g>
	<path fill="#3A3E40" d="M1045.714,512.135c0,0,0.544-0.097,1.572-0.216c1.028-0.106,2.542-0.286,4.478-0.36
		c3.866-0.178,9.446-0.22,16.132,0.991c3.335,0.623,6.948,1.605,10.641,3.295c1.829,0.89,3.688,1.921,5.443,3.303
		c1.749,1.378,3.416,3.049,4.763,5.079c1.333,2.037,2.287,4.39,2.816,6.846c0.177,1.227,0.413,2.477,0.394,3.711l0.021,0.932
		l0.006,0.467l-0.041,0.563l-0.066,0.809l-0.191,1.132c-0.298,1.44-0.73,2.723-1.38,3.964c-0.294,0.633-0.681,1.192-1.04,1.777
		c-0.402,0.539-0.794,1.103-1.242,1.586c-1.746,2.022-3.799,3.551-5.889,4.821c-4.225,2.494-8.652,3.976-13.006,5.092
		c-4.356,1.118-8.672,1.792-12.837,2.264c-8.337,0.93-16.1,0.977-22.722,0.736c-6.623-0.248-12.109-0.821-15.934-1.334
		c-1.913-0.234-3.41-0.501-4.43-0.662c-1.018-0.186-1.561-0.284-1.561-0.284s2.192-0.162,6.029-0.446
		c3.828-0.298,9.282-0.712,15.779-1.329c6.491-0.631,14.045-1.44,21.955-2.826c3.952-0.692,7.988-1.555,11.952-2.675
		c3.935-1.153,7.874-2.534,11.176-4.538c3.348-1.928,5.847-4.602,6.499-7.476c0.032-0.151,0.07-0.302,0.114-0.452l0.088-0.794
		l0.021-0.2l0.011-0.1l0.006-0.05c0.012-0.159-0.01,0.159-0.009,0.111l0.001-0.335l0.008-0.671c0.072-0.907-0.079-1.756-0.139-2.625
		c-0.296-1.688-0.848-3.272-1.646-4.744c-0.824-1.462-1.967-2.744-3.206-3.934c-1.249-1.189-2.727-2.146-4.185-3.069
		c-3.002-1.747-6.173-3.045-9.193-4.028c-3.025-0.987-5.899-1.7-8.473-2.26c-2.575-0.551-4.853-0.972-6.74-1.263
		c-1.888-0.278-3.382-0.508-4.404-0.622C1046.261,512.199,1045.714,512.135,1045.714,512.135z"/>
</g>
<path fill="#494C4E" d="M1202.558,523.564c0,0-40.594-70.073,0-70.314C1243.152,453.008,1202.558,523.564,1202.558,523.564z"/>
<path fill="#494C4E" d="M1202.558,530.874c0,0-43.917,69.229,1.207,69.59C1248.891,600.826,1202.558,530.874,1202.558,530.874z"/>
<g>
	<defs>
		<path id="SVGID_3_" d="M1202.558,523.564c0,0-40.594-70.073,0-70.314C1243.152,453.008,1202.558,523.564,1202.558,523.564z"/>
	</defs>
	<clipPath id="SVGID_4_">
		<use xlink:href="#SVGID_3_"  overflow="visible"/>
	</clipPath>
	<path clip-path="url(#SVGID_4_)" fill="#3A3E40" d="M1202.558,453.25c0,0,17.987,22.027,0,70.314l20.955,5.117l24.109-83.164
		L1202.558,453.25z"/>
</g>
<path fill="#5F6D71" d="M1189.688,466.358c0,0-2.899,5.799-1.27,13.048c1.631,7.249,3.263,0,3.263,0
	S1193.106,469.131,1189.688,466.358z"/>
<path fill="#5F6D71" d="M1191.294,459.411c1.208-1.449,3.745-2.054,4.47-0.967c0.726,1.087-1.449,3.263-3.141,3.504
	C1190.931,462.189,1191.294,459.411,1191.294,459.411z"/>
<g>
	<defs>
		<path id="SVGID_5_" d="M1202.558,530.874c0,0-43.917,69.229,1.207,69.59C1248.891,600.826,1202.558,530.874,1202.558,530.874z"/>
	</defs>
	<clipPath id="SVGID_6_">
		<use xlink:href="#SVGID_5_"  overflow="visible"/>
	</clipPath>
	<path clip-path="url(#SVGID_6_)" fill="#3A3E40" d="M1202.558,530.874c0,0-31.583,66.918,9.278,68.708
		c40.86,1.788-20.462,29.697-20.462,29.697l-23.129-42.407L1202.558,530.874z"/>
</g>
<path fill="#5F6D71" d="M1216.27,579.986c1.071-1.429,5.034,4.529,3.604,7.611c-1.429,3.08-4.147,1.993-4.511,0
	C1215.002,585.604,1214.639,582.161,1216.27,579.986z"/>
<path fill="#5F6D71" d="M1214.187,571.714c-1.457,1.311-0.891,3.896,0.868,3.805c1.76-0.09,2.03-1.631,1.94-2.355
	C1216.904,572.438,1215.093,570.897,1214.187,571.714z"/>
<path fill="#88BFC1" d="M1280.829,629.155v27.139h-417.36l-14.181-50.938c0,0,29.559-14.553,78.208-12.438
	s75.636,27.558,115.287,23.835c39.652-3.723,79.646-17.347,101.608-15.197c21.963,2.15,78.054,27.609,101.959,25.536
	C1246.351,627.092,1262.938,616.391,1280.829,629.155z"/>
</svg>
