<svg xmlns="http://www.w3.org/2000/svg" viewBox="0 0 39.63 35.9"><defs><style>.cls-1{fill:#fff;}</style></defs><title>food_07</title><g id="圖層_2" data-name="圖層 2"><g id="food_07"><polygon class="cls-1" points="17.3 8.05 16.82 8.14 15.78 4.72 14.73 2.04 15.21 1.94 15.81 4 17.3 8.05"/><polygon class="cls-1" points="16.98 8.06 16.65 8.41 14.17 5.7 12.04 3.69 12.37 3.35 13.85 5 16.98 8.06"/><polygon class="cls-1" points="16.75 8.25 16.66 8.76 13.4 7.48 10.76 6.69 10.85 6.18 12.8 6.98 16.75 8.25"/><polygon class="cls-1" points="16.65 8.55 16.83 9.08 13.67 9.58 11.22 10.22 11.04 9.69 12.96 9.42 16.65 8.55"/><polygon class="cls-1" points="16.73 8.89 17.12 9.3 14.9 11.44 13.31 13.34 12.91 12.93 14.27 11.66 16.73 8.89"/><polygon class="cls-1" points="16.95 9.17 17.46 9.35 16.77 12.57 16.46 15.21 15.95 15.03 16.39 13.11 16.95 9.17"/><polygon class="cls-1" points="17.26 9.32 17.74 9.22 18.78 12.65 19.83 15.33 19.34 15.43 18.75 13.37 17.26 9.32"/><polygon class="cls-1" points="17.57 9.3 17.9 8.96 20.39 11.67 22.51 13.68 22.18 14.02 20.71 12.37 17.57 9.3"/><polygon class="cls-1" points="17.81 9.12 17.9 8.61 21.16 9.89 23.79 10.68 23.71 11.19 21.75 10.39 17.81 9.12"/><polygon class="cls-1" points="17.91 8.82 17.73 8.29 20.89 7.79 23.33 7.15 23.51 7.68 21.6 7.95 17.91 8.82"/><polygon class="cls-1" points="17.83 8.48 17.43 8.07 19.66 5.92 21.25 4.03 21.64 4.44 20.29 5.71 17.83 8.48"/><polygon class="cls-1" points="17.61 8.2 17.1 8.02 17.78 4.8 18.1 2.16 18.61 2.34 18.17 4.26 17.61 8.2"/><path class="cls-1" d="M34.82,10.25c-.34.84.59,2.81-1.09,2.79s-5.15,2.24-7.45,4.44S23,22.11,23.19,22.16s-.09.25,2.15-2.62,6.9-4.85,6.9-4.85c-1.06.92-2.45,4.89-2.23,5s.57-.65.76-1.2,2-3.69,3-2.18-2.35,3.76-2.61,3.87-.79.78,1,0a6.49,6.49,0,0,0,2.73-2.76c.47,4.51-6,10.78-5.9,10.88s1.13-.17,4.3-3.91a14.57,14.57,0,0,0,3.09-8.73c.28-.91.6-1.12,1.87-1.42s1.49-1.52,1.38-1.56-.54.41-1,.54-1.11-.06-1.15-.44.4-1.25.12-1.5-.37-.25-.66-.17-.8.59-1.29,0,.56-1.84.41-1.88A1.5,1.5,0,0,0,34.82,10.25Zm.2,6c-.32-2-1.9-1.82-1.9-1.82C37.55,11.37,35,16.28,35,16.28Z"/><path class="cls-1" d="M26.75,0c.14-.15,1.79,1.21,2.16,1.83a6.28,6.28,0,0,1,.86,4.34c-.45,1.83-.89,1.73-.95,1.64a11.43,11.43,0,0,0,.16-2,15.13,15.13,0,0,0-1-3.67C27.48,1.48,26.75,0,26.75,0Z"/><path class="cls-1" d="M15.5,29.22c1.35.68,1.31.22,1.44-.26s.45-2.2-.58-2.29-2.11.65-1.87,1.26A4.43,4.43,0,0,0,15.5,29.22Z"/><path class="cls-1" d="M16.37,24.61c.47-1.57.09-1.57-.32-1.78s-1.86-.77-1.86.47.68,2.62,1.17,2.39A3.44,3.44,0,0,0,16.37,24.61Z"/><path class="cls-1" d="M19.19,28.54c1.35.68,1.31.22,1.44-.26s.45-2.2-.58-2.29-2.11.65-1.87,1.26A4.43,4.43,0,0,0,19.19,28.54Z"/><path class="cls-1" d="M12.72,28c-.83.94-1,.58-1.32.24s-1.32-1.56-.5-2,2-.16,2.1.39A3.25,3.25,0,0,1,12.72,28Z"/><path class="cls-1" d="M10.26,24.38C9,24.62,9.06,24.24,9,23.8s-.23-2,.7-1.8,1.84,1.07,1.58,1.53A2.94,2.94,0,0,1,10.26,24.38Z"/><path class="cls-1" d="M8.42,28.17c-.84.94-1,.58-1.32.25s-1.32-1.57-.5-2,2-.15,2.09.39A3.14,3.14,0,0,1,8.42,28.17Z"/><path class="cls-1" d="M15.71,34.94c-.83.94-1,.58-1.32.24s-1.32-1.57-.49-2,2-.16,2.09.39A3.25,3.25,0,0,1,15.71,34.94Z"/><path class="cls-1" d="M13.44,31.67c-1.25.24-1.19-.14-1.27-.58s-.24-2,.69-1.8,1.84,1.07,1.58,1.53A2.94,2.94,0,0,1,13.44,31.67Z"/><path class="cls-1" d="M11.73,34.93c-.83.94-1,.58-1.31.24s-1.32-1.57-.5-2,2-.16,2.09.39A3.25,3.25,0,0,1,11.73,34.93Z"/><path class="cls-1" d="M8.05,11.43c-.2.23-1.51,2.06-1.41,1.47a28.32,28.32,0,0,0,.8-2.85c-.17,0-.61.66-.66,1s-.77,2.37-.56.47-.65-2.7-.57-2a7.13,7.13,0,0,1-.39,2.88,4.11,4.11,0,0,0-2.2,3.8,21.06,21.06,0,0,1-.89,2.12c-.17.19-.41.65.13.44S3.6,17,3.76,17.08a1.16,1.16,0,0,1,.05,1.25c-.28.61-.42,2.07-.2,1.77s.84-2.42,1-2.26S4.38,19,4.37,19.72s.4,1.26.37.11A3,3,0,0,1,5.28,18c1.8-.92,1.78-3.91,1.89-4.5s1.49-1.92,1.49-2.06S8.25,11.19,8.05,11.43ZM3.6,16.49c-.12,0-.22-.08-.22-.16s.08-.15.19-.14.22.09.22.17S3.71,16.5,3.6,16.49Zm.09-.83c.1-.88.49-1.9,1.07-2.06S3.69,15.66,3.69,15.66Zm2.36.84a1.53,1.53,0,0,1-1.11.71c-.38,0-.41-.32-.64-.69a1.28,1.28,0,0,1,.61.29C5.22,17.07,6.19,16.13,6.05,16.5ZM6.24,15c-.18.2-.19.44-.51.83s-.84,0-1.17-.1.45-.49.71-1.17.24-1,.41-1.15a1.8,1.8,0,0,1,.69.31C6.68,14,6.43,14.82,6.24,15Z"/><path class="cls-1" d="M5.9,14A3.78,3.78,0,0,1,5.52,15c-.15.22-.31.42,0,.35a1.27,1.27,0,0,0,.57-1.07C6.06,13.86,5.9,14,5.9,14Z"/><path class="cls-1" d="M2.44,9.51c.51,1,1.91,1.17,1.84.91S4,9.22,3.21,9.36Z"/><path class="cls-1" d="M0,10.5c0,.39.52,1,.85.72a.53.53,0,0,0,.05-.88C.59,10.1,0,10.08,0,10.5Z"/><ellipse class="cls-1" cx="1.27" cy="7.91" rx="0.21" ry="0.28" transform="translate(-2.61 0.9) rotate(-19.85)"/><path class="cls-1" d="M23.67,31.55c.32.12,1.06-.24,1.06.4a5.91,5.91,0,0,0,1.69,2.79,3.65,3.65,0,0,0,1.78,1.15c0-.07.09,0-1-.8a7.74,7.74,0,0,1-1.85-2.59,4.39,4.39,0,0,0,1.89.83c.05-.09-.25-.22-.45-.28s-1.4-.75-.83-1.12,1.42.87,1.46,1,.3.29,0-.37a2.43,2.43,0,0,0-1.05-1c1.7-.2,4.08,2.22,4.12,2.19s-.07-.43-1.49-1.61A5.54,5.54,0,0,0,25.7,31c-.34-.1-.42-.22-.54-.7a.62.62,0,0,0-.59-.52s.15.21.2.38,0,.42-.16.43-.47-.14-.57,0-.09.14-.05.24.22.3,0,.49-.7-.2-.72-.15A.61.61,0,0,0,23.67,31.55Zm2.28-.1c-.75.13-.68.72-.68.72C24.09,30.51,26,31.45,26,31.45Z"/></g></g></svg>