<svg xmlns="http://www.w3.org/2000/svg" viewBox="0 0 29.27 37.64"><defs><style>.cls-1{fill:#fff;}</style></defs><title>food_04</title><g id="圖層_2" data-name="圖層 2"><g id="food_04"><path class="cls-1" d="M26.59,8.29a8.88,8.88,0,0,0-1.95,7.92c.34,2.06.53,3.34-1.07,4.75-2,1.7-1.63,2.41-1.92,4.82-.18,1.57-1.18,1.46-2.29,2.33-1.39,1.1-.46,1.71-.71,3.11-.22,1.15-1.48,1.85-2.26,2.76a31.57,31.57,0,0,1-2.21,2.4c.66-.6,1.36-.9,2.1-1.49a23.56,23.56,0,0,0,2.61-1.45,4.73,4.73,0,0,0,1.41-2.61c.4-1.3.37-1,1.62-1.66,2.24-1.16,1.39-2.44,1.46-4.45,0-2.27,2.64-2.46,3.61-4.19,1.18-2.22-.45-4.77-.78-6.91a12.76,12.76,0,0,1,.38-5.33"/><path class="cls-1" d="M16.16,9.15c-2.94,3.61-3.84,10-3.39,14.24.68,4.3,3.21,9.6.9,14.25,2.81-5.71,3.17-9.73,1.81-15.83a24.16,24.16,0,0,1,.68-12.66"/><path class="cls-1" d="M3.76,0A7.34,7.34,0,0,1,8.23,6.84c.1,1.66-.55,3.51-.14,5.29s1.81,2.62,2.66,4.23c1.87,3.67-.26,6.06-.35,9.69s3.91,4.6,4.54,8c.22,1.2-.46,2.23-1.27,3.55.74-1.86-.52-3.14-1.64-4.29s-3-1.49-4.1-2.93c-2.44-3-.95-6.14-.07-9.21,1.12-4-2.23-4.55-3.19-8.12C3.57,9.83,6.6,7.24,5.8,4a12.3,12.3,0,0,0-2-4"/><path class="cls-1" d="M17.08,2.12c1.64,5.15,6,12,4.55,19-.74,3.3-3.68,4.62-4.56,7.6s.05,4.86-3.4,9c2.2-3.59.74-6,.91-9.48.16-3.26,2.94-5.11,4-8s.32-6.8-.26-9.66c-.5-2.63-.49-5.93-1.29-8.34"/><path class="cls-1" d="M0,20.43c.57,1.6,1.33,2.19,1.56,3.38.3,1.74-.52,4.28.95,5.64s3.54.36,4.56,2.67c1,2,1.5,2.32,3.81,2.6,1.23.09,3,.77,3.13,2.3-.08-1.29-.82-3.32-2.34-3.78-1.77-.5-2.6,0-3-2.22s-1.13-2.54-3.39-3.14c-2-.56-2.77-1.36-3.43-3.39-.37-1-1-3.2-1.89-4.06"/><path class="cls-1" d="M13.82,37.42A4.07,4.07,0,0,1,15,35.16a8.87,8.87,0,0,1,4.64-2c3.23-.76,6.51-4,9.67-3.7-1.92.08-2.56,2-3.65,3a10.41,10.41,0,0,1-4.49,2.31c-2,.51-4.29.28-5.89,1.17a3.42,3.42,0,0,0-1.42,1.49"/></g></g></svg>