<svg xmlns="http://www.w3.org/2000/svg" viewBox="0 0 39 41.39"><defs><style>.cls-1{fill:#fff;}</style></defs><title>food_09</title><g id="圖層_2" data-name="圖層 2"><g id="food_09"><path class="cls-1" d="M19.9,22.07C23,21.88,25,22.35,25.4,20S25.19,0,20.66,0s-6.95,18-5.58,20.37S18.53,22.15,19.9,22.07Z"/><path class="cls-1" d="M15.25,4.68c-.09-1.18-3.61.41-4.14,1.84s1.7,6.45,2.16,5.67.42-4.4,1.16-5.27A3.07,3.07,0,0,0,15.25,4.68Z"/><path class="cls-1" d="M24.8,1.8c.19-1.41,4.34.72,4.89,2.47S27.25,12,26.75,11s-.24-5.34-1.09-6.43A3.72,3.72,0,0,1,24.8,1.8Z"/><ellipse class="cls-1" cx="17.74" cy="24" rx="0.82" ry="0.81"/><ellipse class="cls-1" cx="22.92" cy="23.92" rx="0.74" ry="0.73"/><path class="cls-1" d="M15.58,24c-.08-1.15-2.4-1.28-3.69-.91s-4.08-2-3.89-3.52.95-5.38-.64-6.89S.87,7.88.16,8.85s1.05,4.93,2,5.28,3.14-1.26,3.77,0-.56,4.18-.45,5.36,2.1,6.72,5.75,6.86S15.71,25.7,15.58,24Z"/><path class="cls-1" d="M25.77,23.66C25.68,22.5,28,22,29.29,22.2s3.72-2.61,3.3-4.08-1.76-5.17-.42-6.9,5.69-5.73,6.53-4.88-.28,5-1.12,5.52-3.31-.77-3.73.62,1.2,4,1.27,5.23-1.06,7-4.64,7.66S25.91,25.37,25.77,23.66Z"/><path class="cls-1" d="M20.1,26.08c2.74,0,3.23.21,4.56,1.67s2.25,3.34,3.16,3.55.64,1.05-.56,1.05a9.17,9.17,0,0,1-3.6-1c-.54-.35-.47.49-.33,1.81s-1.2,5-2,6.34-.83,2.09-1.26,1.81.84-5.5.84-7.31-.91-3.27-1.26-2.86a8.44,8.44,0,0,0-.5,4.46c.36,1.25.32,2.72-.12,2.51s-2.19-3.48-1.77-5.57-.42-2.86-1-2.44-2.8,2.37-3.3,2.3,0-1.67,1.06-2.44,2.21-2.67,2.86-3.35S19.4,26.09,20.1,26.08Z"/></g></g></svg>