<svg xmlns="http://www.w3.org/2000/svg" viewBox="0 0 44.37 34.17"><defs><style>.cls-1{fill:#fff;}</style></defs><title>food_05</title><g id="圖層_2" data-name="圖層 2"><g id="food_05"><path class="cls-1" d="M29.76,1.86C30.9,0,35.56-.69,39.53.85c2.23.86,5,7.24,3.8,8.76s-4,0-7.4,0-5.44-2.76-5.12-3,4.39-.07,4.39-.7S28.62,3.73,29.76,1.86Z"/><circle class="cls-1" cx="28.13" cy="11.61" r="1.03"/><circle class="cls-1" cx="16.91" cy="11.61" r="1.03"/><path class="cls-1" d="M4.84,1.15c4-1.53,8.64-.86,9.78,1S9.18,5.59,9.18,6.21s4.05.47,4.38.71-1.71,3-5.12,3-6.17,1.52-7.39,0S2.61,2,4.84,1.15Z"/><path class="cls-1" d="M.05,13.37c.65-2.45,4.52-1.2,5.08-.73a32.55,32.55,0,0,1,3.33,4.15c.21.49.84,2,0,2.08s-4.75-.33-6-1.25S-.29,14.62.05,13.37Z"/><path class="cls-1" d="M5.81,24.38c-.32.13-1,.31-.87-.2s1.45-2.7,2.33-2.88,2.68.38,2.49,1.19c-.12.51-1.61-.13-2.09-.21S6.14,24.24,5.81,24.38Z"/><path class="cls-1" d="M7.65,30c-1,.14-1.43-2-1.13-3s3-2.29,3.6-2.43.33.67.14,1-2.69,1.41-2.65,2S8.27,29.92,7.65,30Z"/><path class="cls-1" d="M12.45,33.85c-.73.65-2.32-.89-2.63-1.9s1.22-3.56,1.65-4,.65.37.69.78-1.46,2.67-1.11,3.11S12.91,33.44,12.45,33.85Z"/><path class="cls-1" d="M30.13,29.21c-2.25,1.37-3.62.12-4.75,1s-1,1.62-2.88,1.5-2.49-1.63-3.74-2-4,.62-4.75-.63-4.75-8.75-3.5-12.75c1-3.31,7.37-1.25,8.62-2.12S21,12,22.63,12s2.5,1.62,3.75,2.18,6.75.69,7.88,2.19S32.38,27.83,30.13,29.21Z"/><path class="cls-1" d="M35,32.12c-.32,1-1.9,2.54-2.63,1.89-.46-.41,1-1.58,1.39-2s-1.15-2.69-1.11-3.1.26-1.24.69-.78S35.35,31.11,35,32.12Z"/><path class="cls-1" d="M37.2,30.17c-.61-.09,0-1.9,0-2.46s-2.46-1.61-2.65-2-.47-1.18.14-1,3.31,1.42,3.61,2.43S38.17,30.31,37.2,30.17Z"/><path class="cls-1" d="M39,24.54c-.32-.13-1.39-2.18-1.86-2.1s-2,.73-2.09.21c-.18-.81,1.62-1.36,2.5-1.18s2.16,2.37,2.32,2.88S39.37,24.68,39,24.54Z"/><path class="cls-1" d="M41.91,17.32c-1.25.92-5.17,1.34-6,1.25s-.2-1.59,0-2.08a32,32,0,0,1,3.33-4.15c.57-.47,4.43-1.72,5.09.73C44.66,14.32,43.16,16.41,41.91,17.32Z"/></g></g></svg>