<svg xmlns="http://www.w3.org/2000/svg" viewBox="0 0 36.13 30.55"><defs><style>.cls-1{fill:#fff;}</style></defs><title>food_11</title><g id="圖層_2" data-name="圖層 2"><g id="food_11"><path class="cls-1" d="M1.43,17.47c-3.22,4.08,0,3.91,0,3.91s2.68-2.26,2-3.91S1.43,17.47,1.43,17.47Z"/><path class="cls-1" d="M5.34.76C.57,3,3.52,4.25,3.52,4.25S7,3.41,7.09,1.63,5.34.76,5.34.76Z"/><path class="cls-1" d="M14.54,4.49c1.34,1.1.2,1.23.2,1.23s-1.06-.56-.9-1.12S14.54,4.49,14.54,4.49Z"/><path class="cls-1" d="M13.19,9.87c-1,1,0,1,0,1s.82-.57.6-1S13.19,9.87,13.19,9.87Z"/><path class="cls-1" d="M7.87,12.92c2.17,2,2.24.22,2.24.22S9,11.57,8,11.86,7.87,12.92,7.87,12.92Z"/><ellipse class="cls-1" cx="8.81" cy="7.62" rx="0.54" ry="0.52"/><path class="cls-1" d="M17.67,10.25c3.48,3.86,3.94.77,3.94.77s-1.75-3-3.56-2.64S17.67,10.25,17.67,10.25Z"/><path class="cls-1" d="M10.76,3c.82-.09.45.74.32.86s-.45-.22-.43-.43A1.77,1.77,0,0,1,10.76,3Z"/><path class="cls-1" d="M21.47,6.15c.83-.06.46.58.32.68s-.44-.17-.42-.34A1,1,0,0,1,21.47,6.15Z"/><path class="cls-1" d="M2.05,7.85C4.3,7.7,3.3,9.27,2.93,9.52s-1.22-.44-1.17-.84A2.6,2.6,0,0,1,2.05,7.85Z"/><path class="cls-1" d="M4.34,12c.82-.08.45.74.32.86s-.45-.22-.43-.43A1.77,1.77,0,0,1,4.34,12Z"/><path class="cls-1" d="M19.48,1.94c.83-.08.46.74.32.87s-.44-.23-.42-.44A1.51,1.51,0,0,1,19.48,1.94Z"/><path class="cls-1" d="M30.87,6.68c-.41-5.12-2.68-2.9-2.68-2.9S27.75,7.2,29.41,8,30.87,6.68,30.87,6.68Z"/><path class="cls-1" d="M35.44,21.85c2-4.75-1-3.77-1-3.77s-2,2.85-.86,4.26S35.44,21.85,35.44,21.85Z"/><path class="cls-1" d="M26,25c-1.75,0-1-.78-1-.78s1.18-.27,1.44.25S26,25,26,25Z"/><path class="cls-1" d="M23.33,20.16c0-1.4-.68-.73-.68-.73s-.22.95.23,1.12S23.33,20.16,23.33,20.16Z"/><path class="cls-1" d="M25.18,14.44c-3-.06-1.81,1.29-1.81,1.29s1.93.43,2.46-.43S25.18,14.44,25.18,14.44Z"/><ellipse class="cls-1" cx="28.13" cy="19" rx="0.54" ry="0.52"/><path class="cls-1" d="M19.92,21.57c-5.25-.61-3.46,2-3.46,2s3.37,1.09,4.46-.34S19.92,21.57,19.92,21.57Z"/><path class="cls-1" d="M31.61,28.25c-.56.6-.85-.25-.84-.43s.49-.12.62.05A1.75,1.75,0,0,1,31.61,28.25Z"/><path class="cls-1" d="M22.39,26c-.56.58-.74-.14-.71-.3s.46-.16.56,0A1,1,0,0,1,22.39,26Z"/><path class="cls-1" d="M33,14.45c-1.56,1.57-1.9-.25-1.79-.68s1.2-.46,1.44-.13A2.35,2.35,0,0,1,33,14.45Z"/><path class="cls-1" d="M28.49,12.87c-.56.6-.85-.25-.84-.43s.49-.12.62,0A2,2,0,0,1,28.49,12.87Z"/><path class="cls-1" d="M24.1,30.14c-.56.59-.85-.26-.84-.44s.49-.12.62.05A2,2,0,0,1,24.1,30.14Z"/><path class="cls-1" d="M15.41,17.37c-1.56,1.57-1.9-.25-1.79-.68s1.2-.46,1.44-.13A2.35,2.35,0,0,1,15.41,17.37Z"/><path class="cls-1" d="M9.76,18.66c-.86.37,1.42,2.26,1.83,2.49s-.18-.9-.7-1.44S9.76,18.66,9.76,18.66Z"/><path class="cls-1" d="M34.89.88c-1.19.46-.94-.6-.78-.81s.73,0,.78.29A1.6,1.6,0,0,1,34.89.88Z"/><path class="cls-1" d="M8.74,27.41c-.06-1.7.8-1,.8-1s.28,1.14-.25,1.39S8.74,27.41,8.74,27.41Z"/><path class="cls-1" d="M11.42,30.55c-.61-.53.26-.82.45-.81s.13.47,0,.6A1.66,1.66,0,0,1,11.42,30.55Z"/><path class="cls-1" d="M9.07,23.28c-.6-.55.14-.72.31-.69s.16.44,0,.54A1.06,1.06,0,0,1,9.07,23.28Z"/><path class="cls-1" d="M1.59,27.5c-.62-.54.25-.83.44-.81s.13.47,0,.6A1.88,1.88,0,0,1,1.59,27.5Z"/><path class="cls-1" d="M17.07,29.11c-1.56,1.57-1.9-.25-1.79-.67s1.2-.47,1.44-.13A2.34,2.34,0,0,1,17.07,29.11Z"/></g></g></svg>