<svg xmlns="http://www.w3.org/2000/svg" viewBox="0 0 39 36.69"><defs><style>.cls-1{fill:#fff;}</style></defs><title>food_14</title><g id="圖層_2" data-name="圖層 2"><g id="food_14"><ellipse class="cls-1" cx="13.62" cy="18.34" rx="1.28" ry="1.46"/><path class="cls-1" d="M32,29.56a5.13,5.13,0,0,1-1.8,1.49c-1,.46,4.54,1.78,5.94.69s.53-1.55-.46-1.49A19.47,19.47,0,0,1,32,29.56Z"/><path class="cls-1" d="M38,21.9c-1.67-2-3.56-1.23-5.38.39s-4.44,2.63-5.66.61,1.78-2.16,5.3-5.08,1.73-8.21.8-12.23S30,.35,23.09,0s-7.58,4.57-8.81,7.92.38,4.62.77,5.83,2.37,5.12-.22,8.27-5.43.76-7-.69c-2.55-2.42-1.38-5.23-.49-6.7s0-2.69-1.25-2.43S3.79,15,3.44,17.52s1.86,6.13,5,8.25a7,7,0,0,0,1,.56A8.79,8.79,0,0,1,4.7,28.1c-3.07.07-5.27.54-4.57,1.29a5.84,5.84,0,0,0,5,1.06c1.58-.51,6.52-.94,8.14-1.71-.51,1-1.14,1.82-2,1.62C9.47,30,7.83,31.44,6.73,32.58a1.13,1.13,0,0,0,.66,2c.39-.16.91-1.71,2.61-1.77s1.83,1.54,3.28,1.56,2.45-1.87,3.39-5.08a4.09,4.09,0,0,1,1.18-1.9c1.7-.3,2.63,2.28,2.75,3.07a14.44,14.44,0,0,0,1.52,3.68c.36.41,1,2.31,2.4,2.51a3.83,3.83,0,0,0,3.59-1.9c.3-.92-.3-.95-1.4-.65a2.69,2.69,0,0,1-3.49-1.6c-.76-1.88-1.53-4.21-.39-4.78a1.73,1.73,0,0,1,.87-.15c1.24,1.37,2.55,3.16,3.47,3.35,1.53.32,4.5-3.7,4.86-4.82s3-3.25,4.12-2.88S37.58,26.6,38.28,26,39.61,23.87,38,21.9ZM14.56,26.35v0l0,0ZM21.84,20a1.1,1.1,0,0,1-1.73.18,1.66,1.66,0,0,1-.16-2,1.09,1.09,0,0,1,1.72-.19A1.68,1.68,0,0,1,21.84,20Zm10.9-5.78a4.83,4.83,0,0,1-2,2.69c-.59.2-1-.44,0-1s.33-1.58.81-2.25C31.55,13.6,32.74,13.44,32.74,14.19ZM24.15,3s.09-.92,1.92-1.08S30.4,4.6,31.15,5.19s.25,3.16,0,4.16-.25-.83-1.06-3S25.49,3.19,24.15,3Z"/></g></g></svg>