<svg xmlns="http://www.w3.org/2000/svg" viewBox="0 0 30.55 29.86"><defs><style>.cls-1{fill:#fff;}</style></defs><title>food_12</title><g id="圖層_2" data-name="圖層 2"><g id="food_12"><path class="cls-1" d="M19.39,13.06c-.35-.4-1.13.93,0,1s2.06-1.59,2.06-1.59C20.24,12.79,19.75,13.46,19.39,13.06Z"/><path class="cls-1" d="M30.55,11.75c.09-4.24-1.81-5.15-2.67-5.34A4,4,0,0,0,27,3.84,3.16,3.16,0,0,0,24.9,3c-.16-.9-1-2.77-5.13-3-5.46-.26-6.91,1.3-8.14,1.39s-6.07.4-6.31.32S4.58,2,5,2.11s6.78.76,8.75.15S17.42.93,19.7,1.39a4.3,4.3,0,0,1,3.06,1.9,21.48,21.48,0,0,0-5.18,2.55c-4.8,3-5.5,10.64-5.64,11.73s-5,4.86-6,5.29-3.74.13-3.74.31,2.75.22,2.68.37S.11,25,.23,25.06s3.42-.81,3.42-.65-4,2.25-3.63,2.21S5.08,24,5.2,24.1s-3.49,3.06-3.28,3S4.5,25.06,5,24.67s2.24-1.76,2.68-1.37-3.63,3.54-4,3.91-.95,1.06-.69.87A31,31,0,0,1,6.14,25.6c.12.13-2.84,4.39-2.58,4.26S6.38,26,6.38,26s-.28,1.11-.44,1.57a4.8,4.8,0,0,0-.26,1.34c.07-.19,1-2.58,1.13-3s.42-.74.42-.28a14.67,14.67,0,0,0,.23,2.51c.09-.1,0-1,0-2.17S8,24.6,8.8,23.69a45.22,45.22,0,0,1,6.1-4.56c1-.48,2.31-.09,4-.7s6.46-4.42,7.76-6.12a8.12,8.12,0,0,0,1.17-3.54,4.74,4.74,0,0,1,1.38,3c.3,2.3-.53,3.91-1.27,5.84s-.54,8.27-.46,8.74.47,0,.4-.25.58-5.06.75-6.28S30.44,17.21,30.55,11.75Zm-17,4.18c.67-2.87.78-4.69,2.07-6.08s3.41-3.73,3.78-3.3S16.2,10.37,15.64,12A22.3,22.3,0,0,1,13.57,15.93ZM23.86,12c-1.3.26-1.3,1.22-2.41,2.52a10.94,10.94,0,0,1-5.28,2.69c-.75-.08-.08-.87.54-1.3s.86-1.13,1.05-3.47,1.27-1.58,1.69-2.7a1.37,1.37,0,0,1,.18-.33c.57,1.37,1,2.63,1.78,2.06s1.65-1.86,2.49-2.06,1.71-2.52.72-2.2a31.65,31.65,0,0,1-3.22.57A10.27,10.27,0,0,1,24.87,6c1.11-.09,1.3,1.56,1.39,2.43S25.15,11.76,23.86,12Z"/></g></g></svg>