<svg xmlns="http://www.w3.org/2000/svg" viewBox="0 0 28.81 34.39"><defs><style>.cls-1{fill:#fff;}</style></defs><title>food_02</title><g id="圖層_2" data-name="圖層 2"><g id="food_02"><path class="cls-1" d="M27.78,3.68c-1.54-.13-1.47.47-2,2.55s-4.65,5.07-4.65,5.07.92-2.58,1-3.14.84-1.34-.25-1.6a1.83,1.83,0,0,0-2.27.73c-.5.78-1,8.18-1.32,9.24a2.44,2.44,0,0,1-.22.41l-2.75.62c.36-1.29.71-2.57.77-2.85A29.38,29.38,0,0,0,17,6.26c-.36-3.38-1.83-3.38-2.86-3.45s-1,.56-.54,1.4a21.37,21.37,0,0,1,.74,8.05A34.61,34.61,0,0,1,13.11,18l-.47.07a3.17,3.17,0,0,1-.44,0c-.27-.77-.59-1.72-.76-2.35-.33-1.24.54-5.5.76-6s1.63-2,.23-2.3-1.79.44-2,.94a11.84,11.84,0,0,0-.8,3c-.28,1.6.84,5.53,1.16,6.58l-.11,0A45.4,45.4,0,0,1,7,11.7c-.56-1.65.08-4.83.48-6.55s1.7-4.61-.19-5S5.48.35,5.06,1.28A55.32,55.32,0,0,0,3.81,7.52S2.75,5.3,2.48,4.7,2.09,2.32.87,2.13,0,3.37.31,4.53A86.43,86.43,0,0,0,8,17c-2.32-1-4.38-2.14-5.06-1-1.37,2.4,1.38,4,2.07,7.13s-.69,4.57-.92,8.27,13.76,3.15,16.28,2.32.92-3.53.69-5.15,3-2.94,4.62-5.44-1-5.8-2.33-6.67a5.18,5.18,0,0,0-3,0,4.94,4.94,0,0,0,.78-1.43,6.71,6.71,0,0,1,2.68-3.41,39.49,39.49,0,0,0,4.42-4.11C28.85,6.74,29.32,3.82,27.78,3.68ZM7.47,32.36c-2.38-.56-1.94-2.5-1.81-3.69s1-2.94,1.06-4.25a9.52,9.52,0,0,1-.13,3.19c-.37.94.19,2.31.44,3.37s4.44,1.38,4.5,1.69S9.84,32.92,7.47,32.36Zm4.47-10.88c-1.85,0-4.74-1.64-3.4-1.5a35.16,35.16,0,0,0,7.57,0c.91-.08,2.16-.5,2,0S13.79,21.46,11.94,21.48Zm9.78-2.06c.12-1,2.06,1.38,2.44,2.38S22.09,24.67,21.72,25s-1-.11,0-1.24S21.5,21.17,21.72,19.42Z"/></g></g></svg>