<svg xmlns="http://www.w3.org/2000/svg" viewBox="0 0 28.68 38.56"><defs><style>.cls-1{fill:#fff;}</style></defs><title>food_10</title><g id="圖層_2" data-name="圖層 2"><g id="food_10"><path class="cls-1" d="M14.33,0C5.7.23.34,7.77.57,13.93s9.56,2.29,13.76,2.4,14,5.37,14.34-2.17S21.32-.18,14.33,0ZM4.76,11.17c-.31.69-1.24,2.67-1.71,2.52s-.23-2.39.47-3.2C4.37,9.5,5.07,10.49,4.76,11.17ZM8.63,8.35c-.92-.16-1.22-4.85,6.12-5.07C19.69,3.13,21.59,7.7,21,8.47S18.5,5.36,14.63,5,9.55,8.51,8.63,8.35Zm16.42,7.81c-.59.54-6.18-.87-6.77-1.1a23,23,0,0,0-5.71-.45c-.7.25.7-1,2.57-1.38s5.94,1.37,8,1.38.23-2.41,0-3.55A2.56,2.56,0,0,1,26,12.43,2.9,2.9,0,0,1,25.05,16.16Z"/><path class="cls-1" d="M9.49,19.79c-.07-.55-.87-1.83-1.38,2.27-.58,4.65-6,6.7-6.95,6.91S-.59,30.89.58,30.78s7.32-2.32,8.2-5.67S9.67,21.22,9.49,19.79Z"/><path class="cls-1" d="M12.66,18.33c-1.07.72-1.09,7.38-1.51,9.32s-3.94,6-4.07,7.58-.06,3.9.61,3.2S8.3,35.51,9.45,34a31.54,31.54,0,0,0,3.76-7.79C13.6,24.29,14.29,17.24,12.66,18.33Z"/><path class="cls-1" d="M16.05,19.18c-.23,1-.72,10.59-.28,12.27s1.18,6.85,2,7.06,0-5.17-.44-8.33,0-10.15-.13-10.77C17,18.54,16.05,19.18,16.05,19.18Z"/><path class="cls-1" d="M19.54,19.46c-.64.13.07,3.18.53,4.22s3.86,4,3.39,5.49A38.32,38.32,0,0,0,22,33.81c0,.61,1.34.56,1.92-.72s1.71-4.67.05-6.64-3.09-3.95-3.2-4.8S21.05,19.15,19.54,19.46Z"/></g></g></svg>