<svg xmlns="http://www.w3.org/2000/svg" viewBox="0 0 25.91 39.43"><defs><style>.cls-1{fill:#fff;}</style></defs><title>food_13</title><g id="圖層_2" data-name="圖層 2"><g id="food_13"><path class="cls-1" d="M13.58,39.43c1.35,0,2.53-2,4.42-3.2s-.63-2-3.79-1.75-5.51-.15-5.87.4,1.53,2.25,2.35,2.6S12.13,39.38,13.58,39.43Z"/><path class="cls-1" d="M10.12,17.38c-.79.3-3.31,4.39-3,9.19s2.1,7.24,6.41,7,6.57-.53,6.41-8.08-1.36-8-2.05-8.1-1.57.9-2.47.8-1.06-.45-1.63-.45-1.31.55-2,.5A3.88,3.88,0,0,1,10.12,17.38Z"/><ellipse class="cls-1" cx="10.96" cy="12.82" rx="0.72" ry="0.53"/><ellipse class="cls-1" cx="16.47" cy="12.82" rx="0.72" ry="0.53"/><path class="cls-1" d="M24.08,9.92c.27-1.54,1.83-3.19,1.83-4.59S25.23.88,20.76.14s-5.62,1.79-5.83,2.94c-.14.82-.36,2.94-.47,4.08-.69-1.41-1.44-3.24-1.19-4.3.41-1.74-.12-1.54-.26-1.39a8.63,8.63,0,0,0-.54,2.91c0,.24.21.79.38,1.37h0a18.62,18.62,0,0,1-1.17-4.36C11.5-.56,7.36.1,6.27.5S-2.78,2.83,1,6.23s7,6.59,6,8.06-4.68,3-4.13,3.59,2.75.64,4.13-.81,2-3.12,1.29-4.25S5.08,8.09,3.46,6.89,1.2,4.76,1.92,4,6.44,1.32,8.07,1.38,10.6,1.43,11,2.7s.77,3.28.48,3.86a4.43,4.43,0,0,1-.94-2.22,7.47,7.47,0,0,0-.08-2.18,2.86,2.86,0,0,0-.91,2,7.41,7.41,0,0,0,1.81,4c.81.7,1.14,1.67.69,1.49s-1.68-1.66-2-1.69S7.54,7,7.42,6.36s-1-2.09-1.14-1.68A4.84,4.84,0,0,0,9.34,9.14c2.89,1.26,2.61,1.61,2.73,2.28s1.23,1.41.23,2.29-2.11,1.66-2,2,.38.91,1,.83c.9-.11,1.27-.27,2.41-.34a5.42,5.42,0,0,1,2.21.55c.2,0,2.84-.2,1.35-1.37s-2.36-1.4-2.27-2.5.86-2.92,2.06-3.44,6-4.36,4.34-6.18-.59-.08-.58.27.18,1.39-.59,2a27.9,27.9,0,0,0-2.8,2.08A35.92,35.92,0,0,0,19,4c.27-1-.68-1.8-.54-1.2s-2,2.8-2,2.55a11.06,11.06,0,0,1,.36-3.6c.41-.7,3.39-.9,4.92-.35s1.79,1.65,2.6,3-.81,3.8-1,4.21-.61,2.73-1.08,4.81.75,3.82,1.42,3.72.82-1.55.55-2.5A12.7,12.7,0,0,1,24.08,9.92Z"/></g></g></svg>