<svg xmlns="http://www.w3.org/2000/svg" viewBox="0 0 47.09 27.64"><defs><style>.cls-1{fill:#fff;}</style></defs><title>food_15</title><g id="圖層_2" data-name="圖層 2"><g id="food_15"><path class="cls-1" d="M47.09,6s0,0,0,0c-.82.76-9.41,8.78-10.57,8.78a17.82,17.82,0,0,1-3.22-1h0V12s0,0,0,0H29C25.62,10.46,22.43,8.8,22.23,8c-.38-1.46-.16-7.44-.14-8,0,0,0,0,0,0a55.69,55.69,0,0,0-6,8h0c-.1,0-12.42,4.31-16,8.72-.17.21.11.9.36,1a27.1,27.1,0,0,0,4.43.65.44.44,0,0,1-.08.86l-3.6.5s0,0,0,0c.75.42,10.33,5.68,14.21,4.58h0l6.19,3.27h4a0,0,0,0,0,0,0l-2.77-2.83s0,0,0,0c.25-.09,2.25-.8,4.65-1.69h0l2.81.37V22s0,0,0,0a51.37,51.37,0,0,0,6.08-2.61C38.51,18,40.93,26.1,42,26.29s0-8.16,0-8.26h0ZM7.91,16.93A1.13,1.13,0,1,1,9,15.81,1.12,1.12,0,0,1,7.91,16.93Zm5.67,3.3a5.81,5.81,0,0,1-2.33,1s1.91-1.33,1.91-2.25-1.58-2-1.58-2l1.67.71C14.91,18.35,14.08,19.64,13.58,20.23Zm4.08,0c-.5,1-3.41,1.83-2.91,1.58A5.52,5.52,0,0,0,17,19.08c.16-1.07-2.76-2.52-2.76-2.52a28,28,0,0,1,3.42,1.33C18.08,18.22,18.16,19.22,17.66,20.23Z"/></g></g></svg>