<svg xmlns="http://www.w3.org/2000/svg" viewBox="0 0 41.86 29.11"><defs><style>.cls-1{fill:#fff;}</style></defs><title>food_01</title><g id="圖層_2" data-name="圖層 2"><g id="food_01"><path class="cls-1" d="M38.52,10.23a1.47,1.47,0,0,0-.6-.41c-1.34,2.17-4.35,6.93-5.36,7.85h0a1.83,1.83,0,0,0-.85-.62c3.12-3.61,5.95-7,6.89-8.31,2.42-3.51-1.1-8.84-6.06-7a5.46,5.46,0,0,0-1.65,1.14A4,4,0,0,0,25.65.23c-1.31.38-2.07,2.08-2.5,4.16A1.57,1.57,0,0,0,22.73,4c-2.75-1.49-2.6-1.91-4.21.88A7.31,7.31,0,0,0,17.89,7,8.16,8.16,0,0,0,16,7.38a.85.85,0,0,0-.37.18c0-1.66-.34-3.1-1.27-3.66-2-1.24-3.67-.34-4.33.9A4.66,4.66,0,0,0,9,3.6c-3.47-2.41-6.91.88-5.6,4,.51,1.22,2.15,4.33,4,7.69a1.39,1.39,0,0,0-.73.29h0a59.12,59.12,0,0,1-2.89-7,1.18,1.18,0,0,0-.51.19c-3.62,2.4-3.3,1.91-3,4.51s8.22,9.84,8.22,9.84l1.15-.2c.82,1.26,1.49,2.25,1.49,2.25L12.65,25l.9,1.6,2.23.14-.58,1.13,5.88,1.24L22.6,27.4l2,.78s1.09-1,2.44-2.31l1.39.65S40.33,20,41.25,17,42.5,14.52,38.52,10.23ZM32.24,3.66a1.51,1.51,0,0,1,.86-.77.39.39,0,0,1,.22-.37C34.15,2,36.76,4,36.76,4a5.8,5.8,0,0,1,.78,1.14A3.17,3.17,0,0,1,38,6.69a1.41,1.41,0,0,1-.13.69.37.37,0,0,1,0,.11c-.55,1.15-2.26,1.22-3.8.16S31.68,4.81,32.24,3.66ZM6.79,7c-1,.88-2.1,1.18-2.42.66a.86.86,0,0,1,0-.68l-.11,0c-.28-.16-.3-1.41,1.22-2.5,0,0,2.26-.94,2.81-.4.2.21.12.41-.11.62A3.26,3.26,0,0,1,6.79,7Zm.45,9.26c1.41-1,1.14.09.41.81S5.79,17.27,7.24,16.23ZM2.65,12.31c-1.21,1.08-1.45,1.22-1.77.76s.78-1.93.78-1.93C2.54,10,3.8,9.64,3.92,9.93S3.85,11.24,2.65,12.31Zm5.16,8.77c-.64-.57-1.22-2.57-1.45-3.51a2.64,2.64,0,0,0,.17.47,33.62,33.62,0,0,0,2,3.32C8.34,21.41,8.12,21.36,7.81,21.08ZM13.14,4.45a3.53,3.53,0,0,1,1.36.42c.31.29-.69.7-1.32.71s-2-.17-2.11-.46S11.9,4.18,13.14,4.45ZM9.84,7.11c.28,2.07.9,5.51.9,5.51C9.46,10.7,9.84,7.11,9.84,7.11Zm3.27,14.18c-1-1.34-1.86-5.6-2.2-7.61a54.3,54.3,0,0,0,3.14,8.24C13.83,22,13.53,21.83,13.11,21.29Zm.5-7.28a1.67,1.67,0,0,1-2.23-1,1.46,1.46,0,0,1,.07-.77c-.13-.47.77-1.51,2.17-1.66,0,0,1.18,0,1.52.79a.31.31,0,0,1,0,.28,1,1,0,0,1,.1.3A2,2,0,0,1,13.61,14Zm1.08-4.18A2.71,2.71,0,0,0,14,9.64c.09-.75,1.41-1.87,1.62-2.05A3.65,3.65,0,0,0,14.69,9.83ZM15.94,8.2c.14-.55.74-.48,1.5-.39a.82.82,0,0,1,.29.08c-.05.3-.09.63-.13,1C17,9,15.8,8.7,15.94,8.2Zm1.79,14.69c-.43,0-.78-2.46-.78-5.51s.35-5.51.78-5.51.78,2.47.78,5.51S18.16,22.89,17.73,22.89Zm13.85-4.65c1.57,1.81,0,2-.72.87S30.05,16.47,31.58,18.24ZM24.74,7.6a3.5,3.5,0,0,0-1,0,5,5,0,0,0-.57-3.13C23.43,4.76,24.81,6.62,24.74,7.6ZM23.17,4.41Zm-.41,5.17a.42.42,0,0,1,.08-.26c.6-.84,2.1-.46,2.1-.46,2.16.84,3,3.15,1.89,3v0c-.3.81-1.47,1-2.62.4s-1.84-1.72-1.54-2.53A.72.72,0,0,1,22.76,9.58Zm-2.6-4.36c-.63-.47-.28-1.28.64-1.14s1.76.27,1.81,1S20.79,5.69,20.16,5.22Zm2.77,17.35c-.65.53-1.07.61-1.34.47a62.46,62.46,0,0,0,6-9.29C26.66,16.16,24.58,21.24,22.93,22.57Zm4-17.3A2.17,2.17,0,0,1,25.27,3a1.36,1.36,0,0,1,.43-.73c-.45-.32-.74-.68-.46-.83a4.48,4.48,0,0,1,1.81,0c1.62.08,2.67,1.23,2.44,1.56a.52.52,0,0,1-.35.13,1.67,1.67,0,0,1,.22,1.2A1.78,1.78,0,0,1,26.94,5.27Zm1.12,7.2s1.63-4.12,2.49-6.63C30.55,5.84,30.15,10.49,28.06,12.47Zm1.6,11.68c-.46.24-.75.22-.93.11a40,40,0,0,0,3.3-3.5,4.86,4.86,0,0,0,.33-.54C31.83,21.33,30.62,23.64,29.66,24.15Zm10.71-7.69c-.52.47-.78.21-2-1.57s-1.23-3.13-1-3.44S39,12,39.86,13.76C39.86,13.76,40.88,16,40.37,16.46Z"/></g></g></svg>