<svg xmlns="http://www.w3.org/2000/svg" viewBox="0 0 39.49 35.22"><defs><style>.cls-1{fill:#fff;}</style></defs><title>food_08</title><g id="圖層_2" data-name="圖層 2"><g id="food_08"><path class="cls-1" d="M36.44,3.56c-6.08-8.29-11.5.5-11.5.5,5.85,8.71,10.37,2.51,11.56.55,2.35,4.79,3-.56,3-.56C38.83-1.21,37.05,2.2,36.44,3.56Zm-8.6.73a.86.86,0,0,1-.75-.94.77.77,0,1,1,1.49,0A.86.86,0,0,1,27.84,4.29Z"/><path class="cls-1" d="M33.33,27.19C23.6,13.93,15,28,15,28c9.35,13.92,16.57,4,18.46.87,3.76,7.66,4.8-.88,4.8-.88C37.14,19.57,34.3,25,33.33,27.19ZM20.24,28.71a1.84,1.84,0,0,1-1.61-.95.54.54,0,0,1-.07-.13,1.17,1.17,0,0,1,0-.11,1.55,1.55,0,0,1-.07-.23.29.29,0,0,1,0-.09,1.86,1.86,0,0,1,0-.34,2,2,0,0,1,0-.35.29.29,0,0,1,0-.09,1.55,1.55,0,0,1,.07-.23,1.17,1.17,0,0,1,0-.11.54.54,0,0,1,.07-.13,1.85,1.85,0,1,1,1.61,2.76Z"/><path class="cls-1" d="M0,12.13s.83,6.84,3.83.71c1.52,2.51,7.3,10.43,14.77-.7,0,0-6.92-11.24-14.7-.64C3.13,9.76.85,5.41,0,12.13Zm13.63-.9a1.28,1.28,0,1,1,1.28,1.27A1.27,1.27,0,0,1,13.63,11.23Z"/></g></g></svg>