<svg xmlns="http://www.w3.org/2000/svg" viewBox="0 0 34.18 32.01"><defs><style>.cls-1{fill:#fff;}</style></defs><title>food_03</title><g id="圖層_2" data-name="圖層 2"><g id="food_03"><path class="cls-1" d="M1,10.71c1.06-1.05,3.92,3.67,4.43,4A2.21,2.21,0,0,0,8,12.55c-.17-1.76-.17-3.35,1-3.61s3.55,4.18,3.3,5.67-1.53,2.55-1.61,3.26,2.62,2.48,3.55,1.59,1.52-3.89,1.1-6.28S12.48,4.34,13.41,2.83A7,7,0,0,1,18.23,0a1.43,1.43,0,0,1,.93,2.39c-.76.71-2.2,1.33-1.69,3.45s.31,3.78,1,3.52S21,6,21.53,5.4a1.44,1.44,0,0,1,2.28-.09c.59.88.34,3.45-2.2,6s-2.79,5.22-2.54,6.2a1.75,1.75,0,0,0,2.54,1.32c1.61-.53,3.81-2.12,3.72-3.36s-.93-4.42,1.44-6.54,3.64-2.57,5.16-.36,1.44,2.92.43,3.45-1.61-1.06-2.29-1a2.12,2.12,0,0,0-1.52,1.15c-.25.53.42,2.21,1,2.21s3-.8,3.54-.27,1.29,1.51,1,2.13S29.9,18,28.3,17.69s-3,2.78-2.71,3.14,3.3.13,3.72.84,1.27,1.59.76,2.3-4,.27-5.67,0a3.18,3.18,0,0,0-3.25,1c-.45.61,1.56,5.73,1.48,6.35s-2.12.62-3.13.62-6.26.71-6-2.21,1.27-5.29-.08-5.64-7.53-3-8.89-4.88S-2.16,13.8,1,10.71Z"/></g></g></svg>