<svg xmlns="http://www.w3.org/2000/svg" viewBox="0 0 33.2 37.69"><defs><style>.cls-1{fill:#fff;}</style></defs><title>food_06</title><g id="圖層_2" data-name="圖層 2"><g id="food_06"><path class="cls-1" d="M1.28,18.83C2.12,18,3.62,20.73,6,21.17s5.91.14,6.5.51-1.46,1.17-2,2a26.19,26.19,0,0,0-1.25,3.51c-.21.51-7.37,1.38-8.61,0S.19,19.93,1.28,18.83Z"/><path class="cls-1" d="M12.44,33.24c-.83.73-3.82,2.19-5.85.9s-4.31-2.79-4.23-3.77c.13-1.76,1.51-.44,2.62-.58s4.4-1.32,4.91-1.08.14,1.32.57,1.92S13.27,32.5,12.44,33.24Z"/><path class="cls-1" d="M19.83,37.63a7,7,0,0,1-6.64-2.79c-.3-.57,1.06-1.39,2.05-1.7s3.25-.39,4.52-.74,3.09-1.44,3.67-.2A4.3,4.3,0,0,1,19.83,37.63Z"/><path class="cls-1" d="M17.84,26.66c.18.35.44,1.12-.15,1s-3.14-1.39-3.42-2.36.19-3,1.12-2.89c.58.09,0,1.82-.06,2.35S17.66,26.31,17.84,26.66Z"/><path class="cls-1" d="M21.87,23.27c.27.29.74.95.15,1s-3.42-.41-4-1.25-.71-3,.22-3.09c.58-.09.52,1.74.63,2.26S21.59,23,21.87,23.27Z"/><path class="cls-1" d="M19.86,17.28c.43-.16.68,1.24.85,1.62s2.18.17,2.44.35.73.59.28.72-2.68.26-3.23-.3S19.17,17.54,19.86,17.28Z"/><path class="cls-1" d="M30.4,15.51c-3.39,1.1-9.09-1-10.95,0s-1.65,4.06-3.95,4.27S2.58,20.11,2.36,16s7.78-8.22,7.78-8.22c6.24-1.64,8.43.55,9.86,2.3a9.47,9.47,0,0,0,4.27,3c1,.28,3.51,2.06,5.42.44s3.23-6.79-2.46-9.2S13,1.16,12.55.18s13.09,2.46,14.51,3S31,4.5,32.37,6.53C33.63,8.32,33.8,14.42,30.4,15.51Z"/><circle class="cls-1" cx="22.3" cy="8.98" r="0.96"/></g></g></svg>