<svg xmlns="http://www.w3.org/2000/svg" viewBox="0 0 250 146"><defs><style>.cls-1{fill:#c1bd31;opacity:0.8;}.cls-2{fill:#fff;}</style></defs><title>food_detail</title><g id="圖層_2" data-name="圖層 2"><g id="food_detail"><path class="cls-1" d="M215,0H35A35.1,35.1,0,0,0,0,35V88a35.1,35.1,0,0,0,35,35h72.39A95,95,0,0,0,125,146a95,95,0,0,0,17.61-23H215a35.1,35.1,0,0,0,35-35V35A35.1,35.1,0,0,0,215,0Z"/><path class="cls-2" d="M99.14,81.19a8.74,8.74,0,0,1,2.09,1.24l-.48.65a8.23,8.23,0,0,0-2-1.3ZM99,88.31a34.56,34.56,0,0,0,1.91-3.93l.64.45a34.35,34.35,0,0,1-1.74,3.7.32.32,0,0,1,.07.19.24.24,0,0,1,0,.12Zm2.31-8.41a8.77,8.77,0,0,0-2-1.4l.47-.58a8.38,8.38,0,0,1,2,1.35Zm8.55,4.65h-1.07c0,.78-.07,1.42-.12,1.94h1.12v.72H108.6c-.21,1.68-.62,1.73-1.77,1.73-.29,0-.63,0-1,0a1.74,1.74,0,0,0-.22-.69c.66,0,1.25,0,1.53,0s.52-.31.63-1.05h-4.55l-.1.6-.77-.07c.15-.84.31-2,.47-3.19h-1.25V83.8H103c.11-.89.21-1.77.27-2.54h5.27l.44,0a2.3,2.3,0,0,0,0,.26l-.07,2.26h1Zm-.07-4.47h-6.15a9.62,9.62,0,0,1-1.37,2.28,6.16,6.16,0,0,0-.61-.48,11.06,11.06,0,0,0,2-4.09l1,.27c0,.08-.11.13-.27.13-.12.38-.25.77-.39,1.15h5.84Zm-4.58,6.41c.06-.57.12-1.24.19-1.94h-1.79c-.08.68-.16,1.34-.25,1.94Zm.25-2.69c.05-.62.08-1.25.12-1.82H103.9c-.06.59-.13,1.2-.2,1.82Zm.64.75c-.06.7-.12,1.39-.18,1.94h2c0-.51.08-1.14.12-1.94Zm.19-2.57c-.05.57-.09,1.2-.13,1.82h1.91c0-.54,0-1.15.06-1.82Z"/><path class="cls-2" d="M112.48,81.19a9.64,9.64,0,0,1,2.27,1.24l-.46.68a9.39,9.39,0,0,0-2.24-1.32Zm0,7a44.34,44.34,0,0,0,2.18-3.93l.6.51c-.6,1.27-1.4,2.78-2,3.72a.41.41,0,0,1,.05.17.43.43,0,0,1,0,.14Zm2.44-8.34a9.31,9.31,0,0,0-2.19-1.41l.45-.58a9,9,0,0,1,2.22,1.35Zm8.33,5.43v.76H119.7V89h-.81V86.09h-3.41v-.76h3.41v-1.9h-2.72v-.76h2.72V80.85h-3.1v-.77h1.77a9.54,9.54,0,0,0-1.09-1.93l.69-.33a9,9,0,0,1,1.19,2l-.52.26h2.64l-.37-.16a12.33,12.33,0,0,0,1.17-2.14l1,.4c0,.08-.13.11-.27.11a15.59,15.59,0,0,1-1.09,1.79h2v.77H119.7v1.82h2.83v.76H119.7v1.9Z"/><path class="cls-2" d="M130,79.18h-2.22a24,24,0,0,1-.58,2.9h2.32V87.2H127.1v1h-.72v-4a6.4,6.4,0,0,1-.61,1.1,5.08,5.08,0,0,0-.46-.68,9.26,9.26,0,0,0,1.07-2.57,22.54,22.54,0,0,0,.58-2.9h-1.47v-.75H130Zm-1.2,7.3V82.79H127.1v3.69Zm3.48-6c0,.08-.09.12-.24.13a9.78,9.78,0,0,1-.32,1.21,9,9,0,0,1,1.07,1.08l-.48.52a10.39,10.39,0,0,0-.83-.94,5.61,5.61,0,0,1-1.21,1.83,3.44,3.44,0,0,0-.54-.44,6.44,6.44,0,0,0,1.65-3.58Zm4.34,4.86v.75h-3.1v2.85h-.81V86.09h-2.95v-.75h2.95V84.21a2.55,2.55,0,0,0-.39-.3,6.07,6.07,0,0,0,2.11-3.62l.91.17c0,.08-.1.13-.24.14a8,8,0,0,1-.4,1.2,16.06,16.06,0,0,1,1.85,1.86l-.54.49a15.5,15.5,0,0,0-1.59-1.7A6.05,6.05,0,0,1,133,84.19l.68,0c0,.09-.08.15-.23.17v.94Zm-.22-6v.74H130v-.74h2.65V77.81l1,.06c0,.08-.08.14-.23.16v1.29Z"/><path class="cls-2" d="M149,81.06h-8.2v.86c0,2.06-.16,5-1.42,7a3.81,3.81,0,0,0-.71-.4c1.22-1.94,1.33-4.63,1.33-6.59V78.36h9Zm-.82-2h-7.38v1.31h7.38Zm.55,4.24v4.79c0,.83-.36.88-2.17.88a2.42,2.42,0,0,0-.25-.68h.89c.67,0,.74,0,.74-.22V87h-5.19v2H142V83.48c-.18.12-.35.23-.52.32a4.09,4.09,0,0,0-.56-.45,8.6,8.6,0,0,0,2.39-1.93l.86.33a.24.24,0,0,1-.25.08,9.66,9.66,0,0,1-1.63,1.46h2.66V81.15l1,.06c0,.08-.07.15-.24.17v1.91Zm-.79.64h-5.19v.9H148Zm-5.19,2.44H148v-1h-5.19Zm6.45-2.68a12.07,12.07,0,0,0-2.55-1.9l.56-.42a12.18,12.18,0,0,1,2.6,1.87Z"/><path class="cls-2" d="M141.69,33.64c-6.08-8.3-11.49.5-11.49.5,5.84,8.7,10.37,2.51,11.55.54,2.35,4.8,3-.55,3-.55C144.08,28.87,142.3,32.28,141.69,33.64Zm-8.6.73a1,1,0,1,1,.74-.94A.86.86,0,0,1,133.09,34.37Z"/><path class="cls-2" d="M138.58,57.27c-9.73-13.26-18.38.79-18.38.79,9.35,13.92,16.58,4,18.47.88,3.75,7.66,4.79-.89,4.79-.89C142.39,49.65,139.55,55.09,138.58,57.27Zm-13.09,1.52a1.85,1.85,0,0,1-1.61-1l-.07-.12a.54.54,0,0,0,0-.11,2,2,0,0,1-.07-.23s0-.06,0-.09a2,2,0,0,1,0-.35,2.07,2.07,0,0,1,0-.35s0,0,0-.08a2.17,2.17,0,0,1,.07-.24,1.17,1.17,0,0,0,0-.11l.07-.12a1.85,1.85,0,1,1,1.61,2.76Z"/><path class="cls-2" d="M105.25,42.21s.83,6.83,3.84.7c1.51,2.52,7.29,10.44,14.77-.7,0,0-6.93-11.24-14.71-.63C108.38,39.84,106.11,35.48,105.25,42.21Zm13.64-.9a1.27,1.27,0,1,1,1.27,1.27A1.27,1.27,0,0,1,118.89,41.31Z"/></g></g></svg>