<svg xmlns="http://www.w3.org/2000/svg" viewBox="0 0 250 146"><defs><style>.cls-1{fill:#c1bd31;opacity:0.8;}.cls-2{fill:#fff;}</style></defs><title>height_detail</title><g id="圖層_2" data-name="圖層 2"><g id="height_detail"><path class="cls-1" d="M215,0H35A35.1,35.1,0,0,0,0,35V88a35.1,35.1,0,0,0,35,35h72.39A95,95,0,0,0,125,146a95,95,0,0,0,17.61-23H215a35.1,35.1,0,0,0,35-35V35A35.1,35.1,0,0,0,215,0Z"/><path class="cls-2" d="M121.34,99.28A1.73,1.73,0,0,1,122.8,101a2,2,0,0,1-2.28,2,3,3,0,0,1-1.6-.44l.23-.57a2.69,2.69,0,0,0,1.38.4A1.37,1.37,0,0,0,122,101c0-1-.84-1.44-1.72-1.44h-.44V99h.44a1.38,1.38,0,0,0,1.49-1.25,1,1,0,0,0-1.17-1.09,2.2,2.2,0,0,0-1.23.44l-.22-.55a2.81,2.81,0,0,1,1.6-.5,1.59,1.59,0,0,1,1.78,1.59,1.69,1.69,0,0,1-1.22,1.59Z"/><path class="cls-2" d="M124.85,99.58c0-2.36.91-3.5,2.17-3.5s2.07,1.2,2.07,3.41-.82,3.55-2.16,3.55S124.85,101.83,124.85,99.58Zm3.48-.06c0-1.68-.41-2.84-1.35-2.84s-1.37,1.07-1.37,2.84.5,2.9,1.34,2.9C128,102.42,128.33,101.13,128.33,99.52Z"/><line class="cls-2" x1="84.5" y1="85" x2="84.5" y2="97"/><path class="cls-2" d="M83.75,85V97a.75.75,0,0,0,1.5,0V85a.75.75,0,0,0-1.5,0Z"/><line class="cls-2" x1="167.5" y1="85" x2="167.5" y2="97"/><path class="cls-2" d="M166.75,85V97a.75.75,0,0,0,1.5,0V85a.75.75,0,0,0-1.5,0Z"/><line class="cls-2" x1="53" y1="91" x2="199" y2="91"/><path class="cls-2" d="M53,91.75H199a.75.75,0,0,0,0-1.5H53a.75.75,0,0,0,0,1.5Z"/><path class="cls-2" d="M217.46,93.15a3.86,3.86,0,0,1-1.63.34A2.79,2.79,0,0,1,213,90.43a3,3,0,0,1,3.07-3.2,3.31,3.31,0,0,1,1.44.32l-.23.73A2.46,2.46,0,0,0,216,88a2.15,2.15,0,0,0-2.11,2.4A2.11,2.11,0,0,0,216,92.74a2.92,2.92,0,0,0,1.3-.3Z"/><path class="cls-2" d="M228.14,93.37h-.9V89.9c0-1.16-.42-1.91-1.32-1.91a1.52,1.52,0,0,0-1.41,1.6v3.78h-.9v-3.7c0-1-.41-1.68-1.26-1.68a1.63,1.63,0,0,0-1.47,1.7v3.68H220V88.91c0-.61,0-1,0-1.55h.81l0,1h0a2,2,0,0,1,1.82-1.1,1.71,1.71,0,0,1,1.64,1.2h0a2.1,2.1,0,0,1,1.93-1.2c.74,0,1.9.47,1.9,2.53Z"/><circle class="cls-2" cx="31" cy="91" r="2"/><path class="cls-2" d="M167,30.65c-1.11-2-2.95-2.48-4.36-2.87l-.85-.21a4,4,0,0,1,.38-.64c1-1.29,1.41-2.48,2.44-3.34a3.25,3.25,0,0,0,1.2-2.23c0-.29,0-.4-.37-.72s-.55,0-.74.15a1.1,1.1,0,0,1-1.2.28,7.51,7.51,0,0,0-4.53,0l-.69.23a7.36,7.36,0,0,1,1.12-1.7,7.66,7.66,0,0,0,1.42-3.05c0-.6,0-.65-.42-.52a16.58,16.58,0,0,1-1.6.54,29.57,29.57,0,0,0-4.3,1.69,16.71,16.71,0,0,0-3.59,2.37,4.55,4.55,0,0,0-1.31,2.61c-.1.7-.1,1,.11,1.32a10.27,10.27,0,0,1,.48,1.07,53.17,53.17,0,0,0-9.57.69,38.35,38.35,0,0,0-9.23,2.94,12,12,0,0,0-4.66,4.07,4.38,4.38,0,0,0-.73,2A17.6,17.6,0,0,0,121,36.35c-2.31.94-6.27,4.33-7,5a1.88,1.88,0,0,1-.62.37,1.59,1.59,0,0,1-.69-.07,4,4,0,0,0-2-.13,1.83,1.83,0,0,1-1.89-.93,4.09,4.09,0,0,0-3.59-1.42c-1.67.13-1.24.56-2,.56a6.4,6.4,0,0,0-2.05.21,1.42,1.42,0,0,1-1.24,0,3.26,3.26,0,0,0-1.79.3,2.34,2.34,0,0,1-1.16.24,4.17,4.17,0,0,0-2.09.87c-.6.6-1.33,1.07-1.29,1.5s-.14.34-.1.6-.12.45-.24.37-.17-.09-.26.17-.24.44-.41.44-.32.19-.54.11-.26,0-.47-.18a.39.39,0,0,0-.67.11c-.16.34-.2.36-.3.42s0,.11-.08.2-.19-.11-.33,0,0,.15.06.34-.23.4-.42.48-.16.3.14.23a2.16,2.16,0,0,0,.89-.3,1.08,1.08,0,0,1,.31-.24c.14-.1-.24-.36,0-.37s.25-.23.38-.21a.79.79,0,0,0,.66,0,4.56,4.56,0,0,1,1-.46c.61-.2.61-.33.67-.63a5.3,5.3,0,0,1,.42-.95c.12-.3.55-1,1.13-1s.65-.31.9-.44.37-.31.83-.28.75,0,1.07-.23.5-.27,1-.36.55-.16,1-.2a9.92,9.92,0,0,1,2.29.09c.27.13.33.27.71.05a2.62,2.62,0,0,1,1.31-.54c.62,0,1.69-.07,2.07,0a1.45,1.45,0,0,1,1.33.85c.24.68.71.65,1,.77a5,5,0,0,0,1.38.6,5.15,5.15,0,0,0,1,0,17.57,17.57,0,0,1-2.8.22,25.61,25.61,0,0,0-7.73,1.79,33.64,33.64,0,0,0-6.64,3.54C92.76,48.86,92,50,91.19,50.34s-1.28.09-2.47-.88a2.52,2.52,0,0,0-3.23.08,3.75,3.75,0,0,0-1.28,2.82,3.48,3.48,0,0,0,.2,1.66c.2.11.26.71-.48,1.77a10.65,10.65,0,0,0-1.71,3.53,2.57,2.57,0,0,0,.48,2.79,2.33,2.33,0,0,0,1.34.43,4.77,4.77,0,0,1-.65.8c-.38.34-.12.6.39.45a4.13,4.13,0,0,1,1.11-.11c-.34,1,.35,2.65.92,3.62s-.09,1.48-.54,2.11,0,.83,1.14,1.25a6.18,6.18,0,0,0,2.59.23c-.23.14-.32.34,0,.49a10.6,10.6,0,0,0,2.37.62,9.65,9.65,0,0,0,2.13,0,10.9,10.9,0,0,0-2.62,2.82,1.39,1.39,0,0,0,0,1.65,3.07,3.07,0,0,0,2.28.88,11.06,11.06,0,0,0,1.78-.64c0,.13-.08.24-.1.3a2.06,2.06,0,0,1-.21.62,1.89,1.89,0,0,0-.39.59c0,.2.17.23.35.09a2.19,2.19,0,0,0,.35-.44,2.32,2.32,0,0,0,.33-.67c0-.13.18-.48.3-.77l.66-.33-.07,0a4.6,4.6,0,0,0-.11.73c0,.53.45.3.72.11s.41-.75.54-1a4,4,0,0,0,.21-.66h0c.4-.28.78-.56,1.06-.77l-.23.17c0,.19,0,.39,0,.53a3.7,3.7,0,0,1-.49,1.1c-.17.36.24.29.41.23s.28-.26.25-.64a.94.94,0,0,1,.33-.71,3.51,3.51,0,0,0,.18-1h0l0,0,1-.09a1.34,1.34,0,0,1-.35.59c-.23.21-.19.32,0,.38s.3,0,.56-.25a1.87,1.87,0,0,0,.33-.75l.25,0c.88-.06,1.71.14,2.87.14a4.66,4.66,0,0,0,1.83-.31s1.31-.12,2.48-.17,4.07-.32,5.56-.36a5.78,5.78,0,0,0,1.27-.13l0,0c-.26.19-.88.49-1.18.68s-.3.15-.53.11a1.71,1.71,0,0,0-.84.08c-.21.11-.4.17-.27.43s.79.15,1.06,0,.28-.28.62-.28a2,2,0,0,0,1.18-.38c.28-.26.41-.43.68-.36a.42.42,0,0,0,.44-.32l.5.1a7.22,7.22,0,0,0,3.3-.77c.8-.31,2.45-.91,3.78-1.39a2.47,2.47,0,0,0,.36.11,1.48,1.48,0,0,0,1.18-.36,2.49,2.49,0,0,0,.49-.48,6,6,0,0,1,3.89,0c1.54.64,3.85,0,5-.47s2.4-1.49,2.22-1.19,0,.85.35.55,3.93-3.5,4.83-4.1,5.38-4.28,7.27-6.12,2.43-5.43,2.43-5.43c2.48-.25,4.79-2.3,6.33-4a27,27,0,0,0,4.36-7.57c.3-1.41,1.84-3.63,2.27-4.87A7.3,7.3,0,0,1,167,34.32C167.51,33.94,168.06,32.66,167,30.65Zm-15.56-5h0Zm.38,0h0Zm1,.12.14,0Zm-2.49-2.24v0Zm.17-1,0,0Zm0,.09s0,0,0,.05S150.36,22.71,150.37,22.7Zm0,.09s0,.05,0,.07S150.33,22.81,150.34,22.79Zm0,.11s0,0,0,.06S150.31,22.92,150.31,22.9Zm0,.1v0Zm0,.12a.17.17,0,0,1,0,.07A.17.17,0,0,0,150.27,23.12Zm0,.11v0Zm0,.12v0Zm0,.12a.25.25,0,0,0,0,.08A.25.25,0,0,1,150.25,23.47Zm.18,1.71a3.64,3.64,0,0,0,.11.44h0A3.64,3.64,0,0,1,150.43,25.18Zm-.18-1.45v0Zm0,.12a.22.22,0,0,0,0,.08A.22.22,0,0,1,150.25,23.85Zm0,.13v0Zm0,.13v0Zm0,.13a.13.13,0,0,1,0,.06A.13.13,0,0,0,150.28,24.24Zm0,.13a.07.07,0,0,0,0,.05A.07.07,0,0,1,150.3,24.37Zm0,.13v0Zm0,.12a.08.08,0,0,1,0,0A.08.08,0,0,0,150.33,24.62Zm0,.14h0ZM129.28,61.69a30.87,30.87,0,0,0-4.11,1.74A30.87,30.87,0,0,1,129.28,61.69Zm-4.11,1.74-.18.1Zm-.19.1-.17.1Zm-.19.11-.14.09Zm5.7-2.3h0Zm-1.18.34.1,0Zm.21-.07.07,0Zm.19-.06.07,0Zm.19-.06h0Zm.17-.05h0Zm.16,0h0Zm.13,0h0Zm.21,0Zm-.89.15h0Zm-22.91-2.12.37-.27,1-.85c-.93.84-2.68,2.37-4.13,3.51,1-.82,2.23-1.84,3.17-2.66ZM103,62.49l.28-.21Zm.3-.23.3-.22Zm.32-.23.32-.25Zm21,1.72-.12.07Zm-.16.1-.1.07ZM102.17,63a.76.76,0,0,1-.18.09A.76.76,0,0,0,102.17,63Zm.78-.5-.26.18Zm-.27.19-.23.14Zm-.27.17-.2.12Zm32.64.73.07-.06-.07.06.15-.11-.15.11Zm-.31.2.13-.09Zm.3-.2,0,0ZM112.91,41.9l.07,0Zm-1.21.29-.23,0Zm1-.23-.09,0Zm-.31.08-.09,0Zm-.38.09-.19,0ZM96.34,76h0Zm.49.25a1.12,1.12,0,0,1-.42.49c-.11.11,0-.36,0-.55s0-.17.06-.27h0l.59-.36-.12.08A3.27,3.27,0,0,1,96.83,76.24Zm.32-.73.14-.1Zm38.07-12,.05,0Zm-.07,0,0,0Z"/></g></g></svg>