<svg xmlns="http://www.w3.org/2000/svg" viewBox="0 0 412.58 126.54"><defs><style>.cls-1{fill:#b4b039;}.cls-2{fill:#eee9cc;}</style></defs><title>detail_02</title><g id="圖層_2" data-name="圖層 2"><g id="detail_02"><path class="cls-1" d="M17,.61a.55.55,0,0,1,.63.62c0,.47-.21.7-.63.7H4.82c-.4,0-.6.22-.6.65v.94H16.54a.55.55,0,0,1,.63.62.55.55,0,0,1-.63.61H4.22V6.23H16.54a.57.57,0,0,1,.63.65.55.55,0,0,1-.63.62H4.22V9.06h14a.55.55,0,0,1,.63.62c0,.47-.21.71-.63.71H9.36a10.72,10.72,0,0,0,1.87,3,4.15,4.15,0,0,0,.51.43,31.86,31.86,0,0,0,4.12-2.38.86.86,0,0,1,.53-.32c.47,0,.7.24.7.73a.88.88,0,0,1-.29.62,30.5,30.5,0,0,1-4.07,2.13,10.07,10.07,0,0,0,1.84,1,16.81,16.81,0,0,0,3.61,1.2q.78.13.78.78c0,.47-.26.7-.78.7a20.57,20.57,0,0,1-4.37-1.48,11.57,11.57,0,0,1-4-3.07A10,10,0,0,1,8,10.39H4.3v5.8a3,3,0,0,0,.37-.08,28.79,28.79,0,0,0,4-1.09A1.24,1.24,0,0,1,9,14.94a.59.59,0,0,1,.63.61.77.77,0,0,1-.45.7,21.42,21.42,0,0,1-3.79,1.19,42.62,42.62,0,0,1-4.34.86.73.73,0,0,1-.72-.78A.7.7,0,0,1,1,16.74c.7-.08,1.32-.17,1.85-.28l0-6.07H.78c-.4,0-.6-.24-.6-.71a.54.54,0,0,1,.6-.62H2.89V1.8A1,1,0,0,1,4,.61Z"/><path class="cls-1" d="M27.17,4a.61.61,0,0,1,.7.69.62.62,0,0,1-.7.7h-1.8v.82l2.46,4.28a1.68,1.68,0,0,1,.2.68c0,.43-.24.65-.71.65a.58.58,0,0,1-.54-.45L25.37,8.52v9.19c0,.49-.26.73-.78.73s-.7-.24-.7-.73V8.32c-.06.14-.11.28-.16.41a23.7,23.7,0,0,1-1.11,2.44A8.2,8.2,0,0,1,21.54,13a.82.82,0,0,1-.6.25c-.52,0-.78-.23-.78-.7a1,1,0,0,1,.21-.57,24.86,24.86,0,0,0,2.19-3.86,17.19,17.19,0,0,0,.94-2.7H21.09a.63.63,0,0,1-.72-.7q0-.69.72-.69h2.8V1.15a.62.62,0,0,1,.7-.7c.52,0,.78.23.78.7V4Zm2.91-2.67h6.64A1.07,1.07,0,0,1,38,2.5V16.88c0,.76-.41,1.15-1.23,1.15H30.08a1,1,0,0,1-1.19-1.15V2.5A1.05,1.05,0,0,1,30.08,1.31ZM30.37,6h6.09V3.11c0-.27-.12-.4-.37-.4H30.68c-.2,0-.31.13-.31.4Zm0,5h6.09V7.34H30.37Zm5.72,5.62c.25,0,.37-.14.37-.41V12.34H30.37v3.89c0,.27.11.41.31.41Z"/><path class="cls-1" d="M58.18,7.5a.62.62,0,0,1,.71.7.62.62,0,0,1-.71.69h-2v7.5c0,1.31-.75,2-2.27,2a24,24,0,0,1-3.8-.41.7.7,0,0,1-.57-.7c0-.49.24-.74.64-.77l.63,0a28.71,28.71,0,0,0,3.18.36c.47,0,.71-.27.71-.81V8.89H40.86a.61.61,0,0,1-.7-.69.62.62,0,0,1,.7-.7Zm-1-6a.56.56,0,0,1,.64.62c0,.48-.21.71-.64.71H51a9.89,9.89,0,0,0,2,1.41,12.9,12.9,0,0,0,4,1,1,1,0,0,1,.47.16.61.61,0,0,1,.31.57.71.71,0,0,1-.23.54,1.62,1.62,0,0,1-.55.16,8.42,8.42,0,0,1-2.79-.55,11,11,0,0,1-2.52-1.19,12.63,12.63,0,0,1-2.15-1.87,2.26,2.26,0,0,1-.25.47A5.42,5.42,0,0,1,46.8,5.47,14.87,14.87,0,0,1,42,6.5h-.23a.55.55,0,0,1-.55-.62.53.53,0,0,1,.47-.57,13,13,0,0,0,4.16-.82A4.49,4.49,0,0,0,48,2.89L48,2.81H41.88c-.43,0-.65-.23-.65-.71s.22-.62.65-.62h6.69c.07-.31.12-.63.16-.95S49,0,49.45,0s.75.24.78.61-.08.61-.13.87ZM43.59,10.29h7.27a1.14,1.14,0,0,1,1.31,1.27V14c0,.82-.44,1.23-1.31,1.23H43.59c-.89,0-1.34-.41-1.34-1.23V11.56C42.25,10.72,42.7,10.29,43.59,10.29ZM50.37,14c.26,0,.39-.15.39-.46V12q0-.45-.39-.45H44c-.24,0-.37.15-.37.45v1.51c0,.31.13.46.37.46Z"/><path class="cls-1" d="M62,1.15a.64.64,0,0,1,.71.73c0,.71,0,1.41-.08,2.1H64v-3a.57.57,0,0,1,.63-.65c.47,0,.7.22.7.65V4H66.8a.54.54,0,0,1,.6.62c0,.48-.2.71-.6.71H65.37v4.4c.38-.25.77-.52,1.17-.82l.26-.08a.62.62,0,0,1,.68.6,1,1,0,0,1,.25,0h7.09V8.28a.62.62,0,0,1,.71-.7c.52,0,.78.23.78.7v1.1h1.8a.55.55,0,0,1,.62.62c0,.47-.21.7-.62.7h-1.8v5.69c0,1.31-.72,2-2.17,2a17,17,0,0,1-3.77-.57.69.69,0,0,1-.55-.7q0-.75.63-.78a3,3,0,0,1,.62.08,20.72,20.72,0,0,0,3.07.49c.46,0,.68-.29.68-.86V10.7H67.73c-.36,0-.57-.15-.62-.46a12.22,12.22,0,0,1-1.74,1.21v6.34c0,.43-.23.65-.7.65a.57.57,0,0,1-.63-.65V12.17a19.78,19.78,0,0,1-2.44,1.07,1,1,0,0,1-.43.12.63.63,0,0,1-.72-.7.72.72,0,0,1,.57-.78,21.74,21.74,0,0,0,2.65-1.14,2.22,2.22,0,0,0,.37-.21V5.31H62.46a29.53,29.53,0,0,1-.66,3.44.72.72,0,0,1-.78.64.5.5,0,0,1-.57-.56.67.67,0,0,1,.16-.45,30.9,30.9,0,0,0,.78-6.66A.51.51,0,0,1,62,1.15ZM77.87,2.42c.43,0,.65.21.65.62s-.22.71-.65.71H73.59V5.86H77a.56.56,0,0,1,.63.63c0,.47-.21.7-.63.7h-8.3c-.42,0-.62-.23-.62-.7a.55.55,0,0,1,.62-.63h3.36V3.75H68c-.42,0-.63-.24-.63-.71A.55.55,0,0,1,68,2.42h4.14V.94a.64.64,0,0,1,.72-.73c.52,0,.78.25.78.73V2.42Zm-8.49,8.89c.1,0,.22.08.37.25a16.34,16.34,0,0,1,2,2.17,1.16,1.16,0,0,1,.15.49c0,.47-.26.7-.78.7a.71.71,0,0,1-.41-.17,30,30,0,0,0-2-2.33,1.2,1.2,0,0,1-.14-.41C68.59,11.54,68.85,11.31,69.38,11.31Z"/><path class="cls-2" d="M90.94,8.26a4.21,4.21,0,0,1-1.17,2.58c-.37.46-.68.68-.94.68s-.37-.13-.37-.39a2.14,2.14,0,0,1,.41-.68,1.7,1.7,0,0,0,.43-.72c0-.12-.18-.3-.53-.55a1.14,1.14,0,0,1-.16-1.84,1.43,1.43,0,0,1,1-.37,1.26,1.26,0,0,1,.92.39A1.19,1.19,0,0,1,90.94,8.26Z"/><path class="cls-2" d="M104.3.21a.9.9,0,0,1,.5.16.57.57,0,0,1,.28.49,1.37,1.37,0,0,1-.08.37,24.82,24.82,0,0,1-1,3.54V17.71c0,.49-.23.73-.7.73s-.68-.24-.68-.73V7.81a16.35,16.35,0,0,1-1.12,1.78c-.19.22-.34.33-.44.33-.52,0-.79-.21-.79-.62a.88.88,0,0,1,.14-.49,19.83,19.83,0,0,0,1.93-3.46A22.47,22.47,0,0,0,103.81.7C103.87.38,104,.21,104.3.21Zm4.72,2A5.53,5.53,0,0,1,108,3a13.8,13.8,0,0,1-1.54.76.88.88,0,0,1-.45.16.58.58,0,0,1-.47-.24.91.91,0,0,1-.16-.54.63.63,0,0,1,.37-.53,15.32,15.32,0,0,0,1.45-.7,5.24,5.24,0,0,0,1-.71,8.54,8.54,0,0,0,1-1A.57.57,0,0,1,109.6,0a.64.64,0,0,1,.45.18.55.55,0,0,1,.2.43.57.57,0,0,1-.08.33h3.27q1.47,0,1.47,1c0,.07-.37.78-1.09,2.13h2.82c.78,0,1.17.37,1.17,1.1V7.09q0,1.11-1.17,1.11H112l-.33.32A6.87,6.87,0,0,1,113.07,11a.92.92,0,0,1,.06.25,11.56,11.56,0,0,0,3.18-2.36,1.22,1.22,0,0,1,.49-.16.74.74,0,0,1,.45,1.35A11.79,11.79,0,0,1,114,12.36a16.79,16.79,0,0,0,1.42,1.47,16.63,16.63,0,0,0,2.87,2,.74.74,0,0,1,.47.62.69.69,0,0,1-.78.77,1.13,1.13,0,0,1-.62-.24,14,14,0,0,1-3-2.56,5.65,5.65,0,0,1-.76-.95c0,.36,0,.73,0,1.09a5.33,5.33,0,0,1-.25,1.72,3.37,3.37,0,0,1-1,1.58,2.93,2.93,0,0,1-2,.63,4.43,4.43,0,0,1-2.1-.57.77.77,0,0,1-.39-.61.71.71,0,0,1,.72-.78.81.81,0,0,1,.39.16,3.29,3.29,0,0,0,1.38.45,1.35,1.35,0,0,0,.88-.29A1.71,1.71,0,0,0,112,16a3.09,3.09,0,0,0,.29-1.45q0-.57,0-1.05a13.77,13.77,0,0,1-2.11,1.54,12.46,12.46,0,0,1-2.79,1.27,5,5,0,0,1-1.62.45c-.45,0-.68-.24-.68-.73,0-.28.18-.46.53-.54A18.18,18.18,0,0,0,109.66,14a15.32,15.32,0,0,0,2.4-1.65,7.2,7.2,0,0,0-.21-1,1.67,1.67,0,0,1-.08-.2,13.82,13.82,0,0,1-2.19,1.51,11.57,11.57,0,0,1-2.49,1.07,4.72,4.72,0,0,1-1.47.37.62.62,0,0,1-.7-.7c0-.3.18-.49.55-.57a16.81,16.81,0,0,0,3.7-1.31,12.78,12.78,0,0,0,2.13-1.34,4.75,4.75,0,0,0-.57-.86c-.2.14-.41.26-.6.37a12.85,12.85,0,0,1-2.81,1.27,7.06,7.06,0,0,1-1.85.47c-.42,0-.63-.24-.63-.61s.26-.7.78-.78A16.11,16.11,0,0,0,108.84,9a6.55,6.55,0,0,0,1.46-.75h-3.56a1,1,0,0,1-1.12-1.11V5.16a1,1,0,0,1,1.12-1.1h5.38c.61-1,.92-1.53.92-1.56q0-.33-.45-.33Zm1.84,4.76V5.29h-3.54c-.24,0-.37.17-.37.49v.7c0,.3.13.45.37.45Zm5.17,0a.4.4,0,0,0,.45-.45v-.7c0-.32-.15-.49-.45-.49h-3.78V6.93Z"/><path class="cls-2" d="M123.52.16a.62.62,0,0,1,.7.7V2.79h1.39a.63.63,0,0,1,.7.71,5.65,5.65,0,0,1-.37,1.81,21.47,21.47,0,0,1-1.72,3.36v.76l2.3,2.29a.49.49,0,0,1,.2.35.62.62,0,0,1-.7.7,1,1,0,0,1-.67-.41L124.22,11v6.79a.71.71,0,1,1-1.41,0V10.64A15,15,0,0,1,121.56,12c-.17.22-.32.33-.47.33-.57,0-.86-.26-.86-.78a.72.72,0,0,1,.38-.7,16.12,16.12,0,0,0,2-2.27,16.42,16.42,0,0,0,1.7-2.81,5,5,0,0,0,.56-1.48c0-.11-.05-.16-.15-.16h-3.44q-.63,0-.63-.69a.56.56,0,0,1,.63-.64h1.5V.86A.62.62,0,0,1,123.52.16Zm3.2,6.64c.4,0,.6.2.6.62a1.19,1.19,0,0,1-.29.69,9.85,9.85,0,0,1-1.09,1.64.71.71,0,0,1-.41.17q-.63,0-.63-.54a.6.6,0,0,1,.18-.4,10.59,10.59,0,0,0,1.15-1.89A.54.54,0,0,1,126.72,6.8ZM132,2.58h.45V.78a.71.71,0,0,1,1.41,0v1.8h3.36c1,0,1.42.44,1.42,1.33a3.31,3.31,0,0,1-.11.74,13.52,13.52,0,0,1-.53,1.6.8.8,0,0,1-.63.33c-.52,0-.78-.21-.78-.62a.9.9,0,0,1,.1-.34,6.3,6.3,0,0,0,.39-1,1,1,0,0,0,.06-.27c0-.28-.15-.41-.45-.41h-2.83V7.34h3.07c.66,0,1,.4,1,1.19a4.57,4.57,0,0,1-.33,1.45A14.21,14.21,0,0,1,136,12.89c-.41.56-.8,1.06-1.19,1.5v0A16.26,16.26,0,0,0,138.18,17c.28.19.41.37.41.57a.81.81,0,0,1-.78.86,1.66,1.66,0,0,1-.78-.26,19.22,19.22,0,0,1-3.36-2.63l0,0a15,15,0,0,1-4.08,2.71,1.33,1.33,0,0,1-.51.16c-.52,0-.78-.29-.78-.86a.72.72,0,0,1,.47-.63,16.29,16.29,0,0,0,3.48-2.12c.17-.13.32-.26.45-.38a11.91,11.91,0,0,1-1.53-2.34,16,16,0,0,1-1.27-3.38h-.72a29.4,29.4,0,0,1-.39,4.08,14.92,14.92,0,0,1-.94,3.23,14.92,14.92,0,0,1-.93,1.91.81.81,0,0,1-.71.49.73.73,0,0,1-.72-.78,1.57,1.57,0,0,1,.14-.45,13.2,13.2,0,0,0,.93-1.9,13.69,13.69,0,0,0,.86-2.89,21.11,21.11,0,0,0,.35-4.06V4a1.25,1.25,0,0,1,1.41-1.41Zm-2.81,4.76h3.26V3.91h-2.65c-.41,0-.61.23-.61.7Zm2,1.33a18.56,18.56,0,0,0,1.51,3.09,11,11,0,0,0,1.13,1.54,11.52,11.52,0,0,0,.82-1,11.11,11.11,0,0,0,1.35-2.48,2.51,2.51,0,0,0,.23-.71c0-.27-.08-.41-.23-.41Z"/><path class="cls-2" d="M157.5.86c.4,0,.61.18.61.53s-.21.54-.61.54H143.44c-.52,0-.78.29-.78.86V7.66a42.45,42.45,0,0,1-.34,5.95,29.25,29.25,0,0,1-.6,3.64.61.61,0,0,1-.55.41c-.45,0-.69-.24-.72-.65a5.31,5.31,0,0,1,.16-.88c.07-.35.15-.73.23-1.15.12-.72.22-1.44.31-2.19q.24-2.4.24-5.13V1.88q0-1,1.11-1Zm-1.89,13.57c.41,0,.62.22.62.65a.55.55,0,0,1-.62.62h-4.85v1h6.74a.55.55,0,0,1,.61.62.54.54,0,0,1-.61.61H143.09a.54.54,0,0,1-.61-.61.54.54,0,0,1,.61-.62h6.34v-1H145a.54.54,0,0,1-.62-.62c0-.43.2-.65.62-.65h4.45v-.54c0-.41.22-.61.64-.61s.69.2.69.61v.54ZM144.38,7.09h5.21c.68,0,1,.29,1,.86V12c0,.8-.49,1.19-1.47,1.19a6.45,6.45,0,0,1-1.33-.17.55.55,0,0,1-.41-.53c0-.42.16-.62.47-.62h.29A4.57,4.57,0,0,0,149,12c.28,0,.41-.23.41-.7h-4.92v1.4c0,.38-.21.57-.64.57s-.53-.19-.53-.57V8C143.36,7.38,143.7,7.09,144.38,7.09Zm.07-4.51h5c.58,0,.86.23.86.7V5.7c0,.46-.28.69-.86.69h-5c-.57,0-.86-.23-.86-.69V3.28C143.59,2.81,143.88,2.58,144.45,2.58Zm.08,6.23h4.92V8.73c0-.42-.24-.62-.72-.62h-3.57a.55.55,0,0,0-.63.62Zm0,1.64h4.92V9.67h-4.92Zm.14-6.31h4.55V3.65c0-.19-.06-.29-.18-.29h-4.22c-.1,0-.15.1-.15.29ZM149,5.61c.12,0,.18-.11.18-.32V4.84h-4.55v.45c0,.21.05.32.15.32Zm8.36-.08a.55.55,0,0,1,.63.62.57.57,0,0,1-.63.65h-2.17c.06.28.13.61.22,1a9.1,9.1,0,0,0,.92,2.19,15.91,15.91,0,0,0,1.74,2.27.54.54,0,0,1,.07.27.65.65,0,0,1-.68.7.7.7,0,0,1-.62-.41A10.06,10.06,0,0,1,155.55,11a14,14,0,0,1-1-2.76,9.32,9.32,0,0,1-.83,2.8,7,7,0,0,1-1.29,1.87.75.75,0,0,1-.6.41.66.66,0,0,1-.71-.7.79.79,0,0,1,.16-.37,6.86,6.86,0,0,0,1-1A8,8,0,0,0,153.36,9a10.74,10.74,0,0,0,.43-2.15h-2.31c-.4,0-.6-.22-.6-.65a.54.54,0,0,1,.6-.62h2.35V3q0-.69.63-.69a.62.62,0,0,1,.7.69v2.5Zm-.94-2.74a.55.55,0,0,1,.34.16A9.2,9.2,0,0,1,158,4.14a1.18,1.18,0,0,1,.08.37c0,.33-.18.49-.53.49a.73.73,0,0,1-.33-.08c-.38-.4-.79-.8-1.23-1.19a.94.94,0,0,1-.16-.37Q155.86,2.79,156.46,2.79Z"/><path class="cls-2" d="M177.17,4.84a.61.61,0,0,1,.7.69c0,.52-.23.78-.7.78h-6.8v9.55h7.5a.7.7,0,0,1,.8.78.7.7,0,0,1-.8.78h-16.7a.7.7,0,0,1-.8-.78.7.7,0,0,1,.8-.78h7.64V6.31H162q-.72,0-.72-.78t.72-.69h6.86V1.07a.78.78,0,0,1,1.56,0V4.84Z"/><path class="cls-2" d="M185.45,4.38c.43,0,.64.2.64.62s-.21.61-.64.61h-1.23v.7L185.94,9a1.06,1.06,0,0,1,.15.45.5.5,0,0,1-.56.57.43.43,0,0,1-.41-.31l-.9-1.64v9.53a.55.55,0,0,1-.63.62c-.43,0-.64-.2-.64-.62V9l0,.08c-.27,1.19-.52,2.11-.74,2.78a13.23,13.23,0,0,1-.73,2,.68.68,0,0,1-.6.41c-.47,0-.7-.22-.7-.65a1.16,1.16,0,0,1,.15-.54,39.46,39.46,0,0,0,1.6-4.4,31.22,31.22,0,0,0,.71-3.1h-1.53c-.43,0-.64-.21-.64-.61s.21-.62.64-.62H183V.86a.64.64,0,1,1,1.27,0V4.38ZM195.23.53a.8.8,0,0,1,.47.15.4.4,0,0,1,.24.34,1.24,1.24,0,0,1-.08.37,14,14,0,0,1-1.56,2.5,12.42,12.42,0,0,1,1.07.91c.44-.75.89-1.55,1.35-2.38a.42.42,0,0,1,.45-.33,1,1,0,0,1,.51.14.43.43,0,0,1,.19.35,1.41,1.41,0,0,1-.06.37,30.18,30.18,0,0,1-2.95,4.57,12.27,12.27,0,0,0,2.21-.47c-.07-.27-.14-.53-.21-.76l-.06-.22c0-.31.17-.46.52-.46A.63.63,0,0,1,198,6a15.27,15.27,0,0,1,.57,2.34,2.14,2.14,0,0,1,.07.45c0,.38-.21.57-.64.57s-.53-.19-.55-.57-.08-.56-.13-.82a27.75,27.75,0,0,1-4,.82.42.42,0,0,1-.43-.24,16.36,16.36,0,0,0,.33,1.64h2.74l-.14-.05-.51-.51c-.13-.09-.27-.18-.43-.27a.66.66,0,0,1-.15-.4c0-.31.16-.46.49-.46a2.24,2.24,0,0,1,.37.05L196,9a4.93,4.93,0,0,1,.56.56.67.67,0,0,1,.18.33.37.37,0,0,1-.2.37h1.59c.41,0,.62.22.62.65a.55.55,0,0,1-.62.62h-4.59a8.62,8.62,0,0,0,.31.94,13.44,13.44,0,0,0,1,2,12.21,12.21,0,0,0,1.39-2,.49.49,0,0,1,.41-.25c.4,0,.61.18.61.54a1.14,1.14,0,0,1-.08.4,10.7,10.7,0,0,1-1.6,2.32c.2.23.4.44.58.62.56.59.95.88,1.17.88s.18-.24.22-.74l.12-1.27a.49.49,0,0,1,.52-.49.57.57,0,0,1,.63.65c0,.21,0,.52-.06.94a8.4,8.4,0,0,1-.37,1.85q-.3.57-.72.57a2.72,2.72,0,0,1-1.55-.65,10.07,10.07,0,0,1-1.46-1.46A12.24,12.24,0,0,1,192.07,18a1,1,0,0,1-.35.1q-.63,0-.63-.69a.65.65,0,0,1,.37-.54,12.47,12.47,0,0,0,2.47-1.55,4.66,4.66,0,0,1-.3-.47,17.43,17.43,0,0,1-1.44-3.38h-3.38a19.7,19.7,0,0,1-.41,3,6.34,6.34,0,0,1-1,2.37,5.35,5.35,0,0,1-1.87,1.52l-.12,0c-.52,0-.78-.29-.78-.86,0-.26.16-.45.49-.57a3.59,3.59,0,0,0,1.42-1.31,5.43,5.43,0,0,0,.69-1.81,18.55,18.55,0,0,0,.31-2.41h-1c-.4,0-.6-.2-.6-.62s.2-.65.6-.65h5.4a33.56,33.56,0,0,1-.75-5.8C191.05,2.9,191,1.72,191,.86c0-.43.2-.65.62-.65s.61.22.61.65c0,.86,0,1.66.07,2.4A.68.68,0,0,1,193,3c.09,0,.19.08.31.25l.18.1A20.48,20.48,0,0,0,194.75.86.46.46,0,0,1,195.23.53ZM188.44.37a.89.89,0,0,1,.47.14.44.44,0,0,1,.23.35.86.86,0,0,1-.1.37A15.68,15.68,0,0,1,187.87,4c.26.2.52.4.76.61.25-.55.5-1.12.75-1.72a.41.41,0,0,1,.44-.29,1,1,0,0,1,.51.12.4.4,0,0,1,.2.33,1.46,1.46,0,0,1-.08.41A28.36,28.36,0,0,1,188.12,8a9.63,9.63,0,0,0,1.72-.41,4.69,4.69,0,0,0-.31-.7l-.08-.2c0-.32.19-.49.55-.49a.55.55,0,0,1,.53.33,9.11,9.11,0,0,1,.84,2.13,1.91,1.91,0,0,1,.09.45.46.46,0,0,1-.52.53q-.52,0-.57-.45c-.06-.26-.13-.49-.19-.7h0a26.78,26.78,0,0,1-3.52.86c-.36,0-.55-.22-.55-.65s.19-.52.55-.54l.16,0a24.11,24.11,0,0,0,1.32-2.45q-.92-.79-1.89-1.5a.92.92,0,0,1-.14-.33c0-.4.24-.61.71-.61a.32.32,0,0,1,.23.14c.3-.73.61-1.61.92-2.64A.47.47,0,0,1,188.44.37ZM190,12.5a.58.58,0,0,1,.45.29,8.3,8.3,0,0,1,1.09,2,1.2,1.2,0,0,1,.1.46q0,.57-.78.57c-.22,0-.38-.16-.49-.49a9.72,9.72,0,0,0-.92-1.93.93.93,0,0,1-.07-.33C189.38,12.68,189.58,12.5,190,12.5Zm2.34-8.71q.12,2.38.36,4c0,.12,0,.24.05.36a.46.46,0,0,1,.51-.45l.18,0a21.38,21.38,0,0,0,1.35-1.9,29.21,29.21,0,0,0-2.39-1.85Z"/><path class="cls-2" d="M207,1a.62.62,0,0,1,.71.7.62.62,0,0,1-.71.7h-2.5a2.51,2.51,0,0,1,0,.51,21.25,21.25,0,0,1-.56,3.28,7.59,7.59,0,0,1-.24.8h2.15c.8,0,1.19.37,1.19,1.1V16.8c0,.71-.39,1.07-1.19,1.07h-2.09c-.78,0-1.17-.36-1.17-1.07V9.57c-.29.46-.61.91-1,1.37a.69.69,0,0,1-.45.13.71.71,0,0,1-.5-.19.67.67,0,0,1-.22-.51.65.65,0,0,1,.24-.53,14.63,14.63,0,0,0,1.21-2,11.54,11.54,0,0,0,.72-2.24A18.79,18.79,0,0,0,203,2.42h-1.37a.62.62,0,0,1-.7-.7.62.62,0,0,1,.7-.7Zm-1.79,15.62c.24,0,.37-.16.37-.49V8.73c0-.3-.13-.45-.37-.45h-.86c-.28,0-.41.15-.41.45v7.42c0,.33.13.49.41.49Zm4.43-11.19V7.54a.56.56,0,0,1,.23,0h1.57V6.64c0-.42.21-.62.64-.62a.55.55,0,0,1,.63.62V7.5h2.24V6.64a.55.55,0,0,1,.63-.62c.43,0,.64.2.64.62V7.5h1.33A.47.47,0,0,1,218,8c0,.41-.18.62-.53.62h-1.33v2.29H218a.56.56,0,0,1,.64.63c0,.46-.21.7-.64.7h-3a10.49,10.49,0,0,0,.51,1.6c.08.17.16.33.25.49A17.53,17.53,0,0,0,217,13.22c.17-.22.33-.33.47-.33.46,0,.68.22.68.65a.85.85,0,0,1-.31.62,13.82,13.82,0,0,1-1.58,1.15A11.32,11.32,0,0,0,218,17c.32.22.49.44.49.65,0,.46-.22.7-.65.7a1.26,1.26,0,0,1-.62-.26,8.64,8.64,0,0,1-1.78-1.73,7.62,7.62,0,0,1-1.15-2,9.07,9.07,0,0,1-.61-2.12H212v4a9.79,9.79,0,0,0,1.64-.67.72.72,0,0,1,.3-.07c.4,0,.61.19.64.54a.83.83,0,0,1-.49.73,9.68,9.68,0,0,1-1.93.86,16.32,16.32,0,0,1-2.19.62q-.58-.06-.6-.78c0-.42.17-.65.52-.7l.78-.16V12.27H209.5c-.05.83-.13,1.57-.23,2.22a22.6,22.6,0,0,1-.67,3.32.69.69,0,0,1-.65.41c-.44,0-.68-.23-.7-.62a3.6,3.6,0,0,1,.17-.8c.09-.33.18-.69.26-1.08.11-.65.22-1.31.31-2a38.26,38.26,0,0,0,.27-4.67V2.17A1.24,1.24,0,0,1,209.67.78h7.21c.71,0,1.07.34,1.07,1V4.43c0,.68-.36,1-1.07,1Zm1.8,5.49V8.65h-1.57a.47.47,0,0,1-.23,0v.45c0,.68,0,1.3,0,1.88ZM215.14,2h-4.83q-.72,0-.72.78V4.22h6.62a.37.37,0,0,0,.41-.41V2.42a.37.37,0,0,0-.41-.41Zm-.24,8.93V8.65h-2.24v2.29Z"/><path class="cls-2" d="M221.54,9.43h2.27c.73,0,1.09.34,1.09,1v3.93a1.75,1.75,0,0,0,1,1.48,6.15,6.15,0,0,0,3.18.7h9c.47,0,.7.26.7.78a.61.61,0,0,1-.7.69h-8.44a11.11,11.11,0,0,1-2.81-.33,5.77,5.77,0,0,1-2.15-1l-.25-.14a.49.49,0,0,0-.32.16A7.34,7.34,0,0,1,222,18a2.47,2.47,0,0,1-.84.29c-.51,0-.77-.26-.8-.7a.69.69,0,0,1,.57-.7,8.74,8.74,0,0,0,1.87-.88,1.86,1.86,0,0,0,.63-1.62V11.15c0-.19-.11-.29-.33-.29h-1.57a.61.61,0,0,1-.68-.7C220.86,9.67,221.09,9.43,221.54,9.43Zm.1-4.59a1,1,0,0,1,.45.16,9.48,9.48,0,0,1,1.09.66,6.85,6.85,0,0,1,1.41,1.06c.16.17.23.29.23.37,0,.47-.2.7-.6.7a1.1,1.1,0,0,1-.7-.21,11.73,11.73,0,0,0-1.33-.92,11.54,11.54,0,0,0-1-.59.79.79,0,0,1-.23-.54A.61.61,0,0,1,221.64,4.84Zm.61-4a1.1,1.1,0,0,1,.48.16,10.47,10.47,0,0,1,1,.66,8.06,8.06,0,0,1,1.39,1,.88.88,0,0,1,.21.4c0,.46-.21.7-.62.7a1.15,1.15,0,0,1-.71-.24,10.54,10.54,0,0,0-1.27-.89l-1-.59a.75.75,0,0,1-.26-.53A.62.62,0,0,1,222.25.86ZM228.81.7h6.5c.82,0,1.23.39,1.23,1.18V6.66h.1A1.23,1.23,0,0,1,238,8.05v6.56c0,1-.58,1.43-1.72,1.43a6.29,6.29,0,0,1-1.23-.16.67.67,0,0,1-.49-.65q0-.78.57-.78a1.24,1.24,0,0,1,.23,0,3.53,3.53,0,0,0,.78.12c.31,0,.47-.26.47-.78V8.59c0-.41-.18-.62-.55-.62H228c-.35,0-.53.21-.53.62v6.1a.62.62,0,0,1-.7.7.62.62,0,0,1-.71-.7V8.05c0-.93.5-1.39,1.49-1.39V1.88C227.58,1.09,228,.7,228.81.7Zm1.28,8.44h3.8c.84,0,1.27.38,1.27,1.15V12.5c0,.77-.43,1.15-1.27,1.15h-3.8a1,1,0,0,1-1.18-1.15V10.29A1,1,0,0,1,230.09,9.14ZM229,6.64h2.21v-2a1,1,0,0,1,1.15-1.15h2.84V2.51a.43.43,0,0,0-.49-.48h-5.22a.43.43,0,0,0-.49.49Zm4.42,5.78c.3,0,.45-.16.45-.49V10.86c0-.33-.15-.49-.45-.49h-2.77c-.25,0-.38.16-.38.49v1.07c0,.33.13.49.38.49Zm1.78-7.75h-2.29c-.25,0-.37.16-.37.49V6.64h2.66Z"/><path class="cls-2" d="M244.9.08a.66.66,0,0,1,.49.19.74.74,0,0,1,.22.51,1.05,1.05,0,0,1-.16.53,10.91,10.91,0,0,1-.76,1.44,4.86,4.86,0,0,1-.35.53H247c.88,0,1.31.41,1.31,1.23V16.58A1.16,1.16,0,0,1,247,17.89h-4.78a1.16,1.16,0,0,1-1.31-1.31V4.51c0-.82.44-1.23,1.31-1.23h.51a6.33,6.33,0,0,0,.58-.92,20.77,20.77,0,0,0,1-2A.7.7,0,0,1,244.9.08Zm-2.65,9.43h4.63V5.17a.5.5,0,0,0-.57-.56h-3.5a.49.49,0,0,0-.56.56Zm4.06,7c.38,0,.57-.21.57-.62v-5.1h-4.63v5.1c0,.41.18.62.56.62ZM251.23.16c.48,0,.72.2.72.62,0,.72-.1,1.36-.19,1.93H257c.94,0,1.41.53,1.41,1.57q0,4.65-.29,8.49c-.19,2.27-.58,3.75-1.18,4.46a3.42,3.42,0,0,1-2.75,1.11,9.17,9.17,0,0,1-3.61-.86.81.81,0,0,1-.53-.7c0-.58.25-.86.76-.86a9.27,9.27,0,0,0,3.28.94,1.93,1.93,0,0,0,1.86-1,9.77,9.77,0,0,0,.76-3.73c.14-2,.22-4.47.22-7.31,0-.52-.24-.78-.71-.78H251.5a9.61,9.61,0,0,1-1.13,2.74,1.07,1.07,0,0,1-.7.37c-.58,0-.86-.26-.86-.78,0-.08.08-.2.23-.37a8.43,8.43,0,0,0,1.1-2.44,15.46,15.46,0,0,0,.39-2.78C250.53.36,250.76.16,251.23.16Zm.65,6.77a.7.7,0,0,1,.52.32A30.52,30.52,0,0,1,253.81,12a2.51,2.51,0,0,1,.08.57c0,.47-.29.7-.86.7-.28,0-.48-.19-.63-.57A34.18,34.18,0,0,0,251.31,8a1.08,1.08,0,0,1-.14-.45C251.17,7.12,251.41,6.93,251.88,6.93Z"/><path class="cls-2" d="M277.81,16.31a.7.7,0,1,1,0,1.4h-16.5a.62.62,0,0,1-.7-.7.62.62,0,0,1,.7-.7h.23V2.5h-.37a.63.63,0,0,1-.72-.7.64.64,0,0,1,.72-.73h16.41c.45,0,.68.25.68.73a.61.61,0,0,1-.68.7H263v3h13.22c.89,0,1.33.4,1.33,1.19v4.73c0,.84-.44,1.27-1.33,1.27H263v3.67ZM263,6.78v4.53h12.58c.32,0,.49-.18.49-.53V7.23c0-.3-.17-.45-.49-.45Z"/><path class="cls-2" d="M297.58,5.08a.61.61,0,0,1,.68.7c0,.52-.23.78-.68.78h-7.17c.08.47.2,1,.35,1.53a11.89,11.89,0,0,0,1.66,3.3,17.92,17.92,0,0,0,2.79,3.06,24.47,24.47,0,0,0,3.23,2.48,1,1,0,0,1,.29.65.76.76,0,0,1-.78.78,1.27,1.27,0,0,1-.7-.33,26.79,26.79,0,0,1-3.83-3.13,19.85,19.85,0,0,1-2.37-3,13.63,13.63,0,0,1-1.52-3.06,14.53,14.53,0,0,1-1.52,3,19.53,19.53,0,0,1-2.42,3,24.41,24.41,0,0,1-3.79,3.23,1.06,1.06,0,0,1-.57.25.86.86,0,0,1-.86-.94c0-.17.16-.35.49-.54a25.52,25.52,0,0,0,3.38-2.8A17.82,17.82,0,0,0,287,10.86a11.84,11.84,0,0,0,1.35-2.93,12.57,12.57,0,0,0,.29-1.37h-7.09c-.45,0-.68-.26-.68-.78a.61.61,0,0,1,.68-.7h7.19V1.15a.7.7,0,0,1,.8-.78.69.69,0,0,1,.78.78V5.08Z"/><path class="cls-2" d="M303.52,8V9.84A21.47,21.47,0,0,1,303,15a9.46,9.46,0,0,1-1,2.69,1,1,0,0,1-.72.32q-.74,0-.78-.69a1.77,1.77,0,0,1,.17-.45,8.48,8.48,0,0,0,1-2.59,18,18,0,0,0,.49-4.46V2A1,1,0,0,1,303.18.94a92.49,92.49,0,0,0,13.7-.73.73.73,0,0,1,.78.73c0,.34-.21.57-.63.7a90.55,90.55,0,0,1-12.89.61c-.42,0-.62.23-.62.7v.41h13c.75,0,1.12.31,1.12.94V7c0,.68-.37,1-1.12,1Zm0-3.52V6.88H316c.24,0,.37-.17.37-.49V4.92c0-.27-.13-.41-.37-.41Zm2.42,4.55h10.94c.82,0,1.23.37,1.23,1.1V17c0,.9-.63,1.35-1.88,1.35a5.25,5.25,0,0,1-1.41-.25.64.64,0,0,1-.44-.61c0-.52.17-.78.52-.78a1.13,1.13,0,0,1,.3,0,3,3,0,0,0,.89.17q.63,0,.63-.78V14.06h-3v3.6c0,.41-.23.62-.7.62a.55.55,0,0,1-.63-.62v-3.6h-2.58v3.6c0,.41-.23.62-.69.62a.55.55,0,0,1-.63-.62v-3.6H306v3.73a.72.72,0,1,1-1.43,0V10.16C304.59,9.43,305,9.06,305.94,9.06Zm.08,3.81h2.48V10.29h-2.12q-.36,0-.36.57Zm3.8-2.58v2.58h2.58V10.29Zm3.91,0v2.58h3v-2c0-.38-.14-.57-.41-.57Z"/><path class="cls-2" d="M336.72,1a.61.61,0,0,1,.68.7.61.61,0,0,1-.68.7h-6.41v8H338a.63.63,0,0,1,.72.7.64.64,0,0,1-.72.73h-7.64v6a.69.69,0,0,1-.78.78.7.7,0,0,1-.8-.78v-6h-7.56a.64.64,0,0,1-.72-.73.63.63,0,0,1,.72-.7h7.56V2.42h-6.64a.62.62,0,0,1-.7-.7.62.62,0,0,1,.7-.7Zm-14.14,2.5a.75.75,0,0,1,.45.21A29.93,29.93,0,0,1,325.86,8a1.15,1.15,0,0,1,.16.49c0,.46-.27.7-.79.7a.88.88,0,0,1-.48-.16Q323.43,6.8,322,4.67a1,1,0,0,1-.15-.37A.69.69,0,0,1,322.58,3.52Zm14.06,0a.68.68,0,0,1,.76.78,1.67,1.67,0,0,1-.31.86,20.63,20.63,0,0,1-3.2,3.73.75.75,0,0,1-.53.25c-.52,0-.78-.23-.78-.7a1.25,1.25,0,0,1,.15-.57,20.69,20.69,0,0,0,3.36-4A.58.58,0,0,1,336.64,3.52Z"/><path class="cls-2" d="M347,1.39h6.08c.74,0,1.11.28,1.11.86a2,2,0,0,1-.59,1,7.64,7.64,0,0,1-1.56,1.29,2,2,0,0,1-.25.16h4.35c.89,0,1.33.42,1.33,1.26v6.06a1.18,1.18,0,0,1-1.33,1.35H343.59a1.19,1.19,0,0,1-1.34-1.35V6a1.27,1.27,0,0,1,.17-.74l-1,.5a.8.8,0,0,1-.45.16.61.61,0,0,1-.47-.21.88.88,0,0,1-.16-.51.68.68,0,0,1,.37-.55A14,14,0,0,0,343,3.47a8.55,8.55,0,0,0,1.6-1.26A13.63,13.63,0,0,0,346.09.53a.52.52,0,0,1,.45-.24.64.64,0,0,1,.45.18.71.71,0,0,1,.18.47A.77.77,0,0,1,347,1.39Zm-3.77,12.67a.61.61,0,0,1,.7.69,1.55,1.55,0,0,1-.29.86A15,15,0,0,1,342,18.2a1.06,1.06,0,0,1-.56.16c-.47,0-.71-.22-.71-.65a1,1,0,0,1,.18-.54,13.13,13.13,0,0,0,1.87-2.74A.58.58,0,0,1,343.26,14.06Zm.33-9.31h5.94A14,14,0,0,0,351,4.06a6.29,6.29,0,0,0,1.15-.82q.39-.32.39-.45c0-.09-.08-.13-.25-.13h-6.08l-.19,0-.55.54a10,10,0,0,1-1.66,1.31l-.45.28A1.37,1.37,0,0,1,343.59,4.75Zm.08,3.61H349V6.07h-4.82c-.37,0-.55.19-.55.57ZM349,12.09V9.69h-5.37v1.8c0,.4.18.6.55.6Zm-2.16,2.13c.18,0,.35.12.52.37A12.11,12.11,0,0,1,348.59,17a2.05,2.05,0,0,1,.08.57c0,.42-.28.62-.86.62-.26,0-.45-.18-.56-.54a11.51,11.51,0,0,0-1-2.45.82.82,0,0,1-.14-.37C346.09,14.43,346.35,14.22,346.88,14.22Zm3.57-8.15V8.36h5.64V6.64a.5.5,0,0,0-.56-.57Zm5.08,6c.38,0,.56-.2.56-.6V9.69h-5.64v2.4Zm-4,2.13a.66.66,0,0,1,.55.37,12.19,12.19,0,0,1,1.17,2.58,1.73,1.73,0,0,1,.1.54c0,.43-.29.65-.86.65-.25,0-.43-.19-.55-.57a13.46,13.46,0,0,0-1-2.58.68.68,0,0,1-.18-.37C350.76,14.43,351,14.22,351.54,14.22Zm4.32-.08a.75.75,0,0,1,.6.37,12.19,12.19,0,0,1,2,2.74,2.35,2.35,0,0,1,.08.54c0,.43-.29.65-.86.65q-.37,0-.57-.57a10.94,10.94,0,0,0-1.86-2.66,1,1,0,0,1-.15-.46C355.08,14.34,355.34,14.14,355.86,14.14Z"/><path class="cls-2" d="M366.88,11.23a.87.87,0,0,1,.52.16.49.49,0,0,1,.26.41,1.24,1.24,0,0,1-.08.37,24.83,24.83,0,0,1-1.43,3,15.1,15.1,0,0,0,1.72-.67.83.83,0,0,1,.31-.08.58.58,0,0,1,.63.57.8.8,0,0,1-.45.7,19.26,19.26,0,0,1-3.5,1.27,30.38,30.38,0,0,1-4,.9q-.6,0-.63-.78a.63.63,0,0,1,.53-.7,25,25,0,0,0,3.42-.65l.37-.1a.43.43,0,0,1,0-.11,29.9,29.9,0,0,0,1.72-4A.55.55,0,0,1,366.88,11.23Zm.78-10.16a.64.64,0,0,1,.7.73.62.62,0,0,1-.7.7h-6.49a.63.63,0,0,1-.72-.7.64.64,0,0,1,.72-.73Zm-5.41,3.07h4.63c.76,0,1.15.36,1.15,1.07V9.59a1,1,0,0,1-1.15,1.11h-4.63a1,1,0,0,1-1.08-1.11V5.21A1,1,0,0,1,362.25,4.14Zm-.37,7.09c.15,0,.3.11.44.33a11.25,11.25,0,0,1,1.35,2.58,1.86,1.86,0,0,1,.06.45c0,.42-.26.62-.78.62-.24,0-.42-.15-.55-.46a11.13,11.13,0,0,0-1.09-2.58.86.86,0,0,1-.14-.37C361.17,11.42,361.41,11.23,361.88,11.23Zm4.27-1.8a.48.48,0,0,0,.55-.54V5.94c0-.38-.18-.57-.55-.57H363q-.45,0-.45.57v3q0,.54.45.54ZM378,.86a.56.56,0,0,1,.64.63c0,.47-.21.7-.64.7h-3.64l-.6,1.87h3.09c.76,0,1.15.37,1.15,1.09v8.64A1,1,0,0,1,376.88,15h-1.39l.12.08a12.22,12.22,0,0,0,2.83,1.85.7.7,0,0,1,.45.65.69.69,0,0,1-.78.78,6.77,6.77,0,0,1-1.68-1,9.84,9.84,0,0,1-1.53-1.31.83.83,0,0,1-.31-.54.51.51,0,0,1,.27-.53h-2.54a.63.63,0,0,1,.34.61.61.61,0,0,1-.34.54,12,12,0,0,1-3.63,2.11,1.13,1.13,0,0,1-.33.1.69.69,0,0,1-.78-.78A.61.61,0,0,1,368,17a13.34,13.34,0,0,0,3.59-1.93l.18-.08h-1.19a1,1,0,0,1-1.15-1.19V5.15c0-.72.38-1.09,1.15-1.09h1.76l.62-1.87h-3.38c-.43,0-.64-.23-.64-.7a.56.56,0,0,1,.64-.63Zm-7.27,6.31h5.88V5.8a.37.37,0,0,0-.41-.41h-5.06a.37.37,0,0,0-.41.41Zm0,3.12h5.88V8.44h-5.88Zm5.47,3.36c.27,0,.41-.15.41-.45V11.56h-5.88V13.2c0,.3.14.45.41.45Z"/><path class="cls-2" d="M392.58,9.34a3.07,3.07,0,0,1-5.22,2.16,3.1,3.1,0,0,1,0-4.33,3.05,3.05,0,0,1,5.22,2.17Zm-1.06,0a2,2,0,0,0-2-2,1.94,1.94,0,0,0-1.41.59,2,2,0,0,0,0,2.81,2,2,0,0,0,2.82,0A1.91,1.91,0,0,0,391.52,9.34Z"/><path class="cls-2" d="M2.81,32.53v3.12a35.57,35.57,0,0,1-.38,5.69,19.78,19.78,0,0,1-.7,3.45.65.65,0,0,1-.62.41c-.45,0-.69-.23-.72-.62a4.34,4.34,0,0,1,.2-.84c.07-.34.16-.72.27-1.13.13-.67.25-1.35.35-2.06a41.72,41.72,0,0,0,.27-4.9v-6.4c0-.88.47-1.31,1.41-1.31H16.64c.73,0,1.09.31,1.09.94v2.63c0,.68-.36,1-1.09,1Zm8.51-3.44H3.52c-.47,0-.71.26-.71.78v1.51H16c.25,0,.38-.17.38-.49V29.5c0-.27-.13-.41-.38-.41Zm5.32,3.85c.4,0,.61.26.61.78,0,.32-.26.53-.79.62q-2.21.3-6,.51l-.2,0v1.76L17,36.3a.55.55,0,0,1,.63.62q0,.69-.63.69l-6.8.35v1.75l7.5-.37a.55.55,0,0,1,.63.61c0,.47-.21.7-.63.7l-7.5.41v1.47c0,.56.18.9.53,1a10.63,10.63,0,0,0,2.76.24c1.39,0,2.39,0,3-.1a1.07,1.07,0,0,0,.71-.27q.27-.2.27-1.35a.63.63,0,0,1,.68-.7c.45,0,.68.29.71.83a6.08,6.08,0,0,1-.16,1.35,1.63,1.63,0,0,1-1,1.29A11.28,11.28,0,0,1,14,45.2a12.82,12.82,0,0,1-4.12-.41,2.05,2.05,0,0,1-1-2V41.14l-4.59.24c-.42,0-.63-.25-.63-.73A.55.55,0,0,1,4.22,40l4.59-.24V38l-4.28.21c-.43,0-.64-.23-.64-.7s.21-.61.64-.61l4.28-.23V35c-1.95.1-3.36.16-4.22.16q-.78,0-.78-.69c0-.42.21-.62.64-.62,2.13,0,4.09-.1,5.9-.22Q13.71,33.39,16.64,32.94Z"/><path class="cls-2" d="M26.23,28.23h9.63c.87,0,1.31.4,1.31,1.19V36c0,.82-.44,1.23-1.31,1.23H23v5c0,.59.34,1,1,1.1a37.1,37.1,0,0,0,5.32.25A50.08,50.08,0,0,0,35,43.33a1.78,1.78,0,0,0,1.35-.57c.32-.28.49-1.3.49-3a.65.65,0,0,1,.7-.7c.48,0,.74.34.78.94a9.25,9.25,0,0,1-.29,2.28,2.81,2.81,0,0,1-1.72,2.23q-1.23.57-6.53.57a35.42,35.42,0,0,1-6.7-.39,2.15,2.15,0,0,1-1.66-2.11V29.34q0-1.11,1.2-1.11ZM23,32.52v3.37h5.72V29.56H23.44c-.33,0-.49.18-.49.53Zm7.21-3v6.33h4.92q.6,0,.6-.69v-5q0-.63-.6-.63Z"/><path class="cls-2" d="M42.73,27.16a1,1,0,0,1,.53.13.52.52,0,0,1,.26.41,1.12,1.12,0,0,1-.08.37c-.08.45-.17.87-.26,1.27h4.14a.7.7,0,1,1,0,1.39H45.53v3.93c0,.24,0,.48,0,.7h2.22a.7.7,0,1,1,0,1.39H45.41c0,.23-.06.45-.1.66a19.12,19.12,0,0,0,1.14,1.84,19.76,19.76,0,0,0,1.73,2.18,1,1,0,0,1,.34.78.76.76,0,0,1-.65.65,1.25,1.25,0,0,1-.78-.41A11.56,11.56,0,0,1,46,40.91a14.25,14.25,0,0,1-1-1.86c-.14.53-.31,1.05-.49,1.54A13.14,13.14,0,0,1,42,44.79c-.18.28-.37.41-.57.41a.71.71,0,0,1-.78-.7.65.65,0,0,1,.18-.41,14.57,14.57,0,0,0,2.71-5.23A13.65,13.65,0,0,0,44,36.75H41.23a.7.7,0,1,1,0-1.39H44.1a5.8,5.8,0,0,0,0-.7V30.73H42.89c-.25,1.15-.51,2.19-.8,3.15a.71.71,0,0,1-.55.29c-.52,0-.78-.18-.78-.53a.63.63,0,0,1,.1-.41c.42-1.5.85-3.42,1.31-5.78A.55.55,0,0,1,42.73,27.16ZM56.64,38.39a1,1,0,0,1,.59.19.55.55,0,0,1,.27.43,1,1,0,0,1-.1.41,27.12,27.12,0,0,1-1.79,4.06H58q.72,0,.72.69a.63.63,0,0,1-.72.7H48.73a.7.7,0,1,1,0-1.39H54a.41.41,0,0,1,0-.09,32.18,32.18,0,0,0,2.05-4.59A.51.51,0,0,1,56.64,38.39Zm1.09-10.16a.62.62,0,0,1,.71.7.64.64,0,0,1-.71.73H49.22c-.47,0-.7-.24-.7-.73a.62.62,0,0,1,.7-.7Zm-7.36,3.2h6.09c.9,0,1.35.43,1.35,1.27v3.68a1.18,1.18,0,0,1-1.35,1.32H50.37A1.17,1.17,0,0,1,49,36.38V32.7C49,31.86,49.49,31.43,50.37,31.43Zm0,7.21a.81.81,0,0,1,.57.29,17.19,17.19,0,0,1,1,2.74,1.73,1.73,0,0,1,.08.49c0,.41-.27.62-.8.62-.23,0-.42-.16-.55-.49a12.05,12.05,0,0,0-.86-2.63,1.16,1.16,0,0,1-.15-.49C49.67,38.82,49.9,38.64,50.37,38.64Zm5.49-2.26c.35,0,.53-.22.53-.65V33.29a.47.47,0,0,0-.53-.53H51c-.38,0-.57.18-.57.53v2.44c0,.43.19.65.57.65Z"/><path class="cls-2" d="M64.3,31.22a.83.83,0,0,1,.5.16.51.51,0,0,1,.28.46,1.3,1.3,0,0,1-.08.37,30.17,30.17,0,0,1-1.37,5.2,26.46,26.46,0,0,1-1.75,3.89,1.15,1.15,0,0,1-.57.29c-.57,0-.86-.23-.86-.7a.67.67,0,0,1,.16-.45,21,21,0,0,0,1.79-3.75,26.83,26.83,0,0,0,1.41-5A.48.48,0,0,1,64.3,31.22Zm5.29-3.52q.78,0,.78.69v15c0,1.31-.75,2-2.26,2a12.59,12.59,0,0,1-3.52-.7.73.73,0,0,1-.55-.73q0-.74.63-.78a2.13,2.13,0,0,1,.56.1,12.38,12.38,0,0,0,2.72.63c.62,0,.94-.34.94-1V28.39A.61.61,0,0,1,69.59,27.7Zm5.16,3.6a.72.72,0,0,1,.56.29,50.72,50.72,0,0,1,3,8.69,2.62,2.62,0,0,1,.08.61c0,.47-.32.7-.94.7-.29,0-.5-.18-.62-.53a51.54,51.54,0,0,0-2.66-8.77.87.87,0,0,1-.18-.45C74,31.48,74.28,31.3,74.75,31.3Z"/><path class="cls-2" d="M81.88,37.94h-.65c-.47,0-.7-.24-.7-.73a.62.62,0,0,1,.7-.7h2.5V30h-2a.62.62,0,0,1-.7-.7.61.61,0,0,1,.7-.69h2v-.78a.72.72,0,0,1,1.43,0v.78h8.51V27.7a.71.71,0,0,1,1.41,0v.86H97.5a.6.6,0,0,1,.68.69.61.61,0,0,1-.68.7H95.08v6.56h2.79a.63.63,0,0,1,.72.7.64.64,0,0,1-.72.73H93.36v2.17c0,.31.12.46.37.46H97c.47,0,.7.22.7.64a.61.61,0,0,1-.7.69H93.36A1.24,1.24,0,0,1,92,40.5V37.94H88.67a9.17,9.17,0,0,1-.17,2,2.35,2.35,0,0,1-.63,1.27,3.64,3.64,0,0,1-1.23.76,10.33,10.33,0,0,1-1.78.43,1.77,1.77,0,0,1-.33,0,.63.63,0,0,1-.72-.7.64.64,0,0,1,.57-.69,6.49,6.49,0,0,0,1.44-.31,2.55,2.55,0,0,0,.92-.51,1.69,1.69,0,0,0,.39-.74,6.78,6.78,0,0,0,.12-1.56h-4v4.51a1,1,0,0,0,1.12,1.11H97.5a.6.6,0,0,1,.68.69.61.61,0,0,1-.68.7H84a1.91,1.91,0,0,1-2.16-2.17Zm3.28-6.64h8.51V30H85.16Zm0,2.58h8.51V32.45H85.16Zm0,2.63h8.51V35H85.16Z"/><path class="cls-2" d="M116.72,38.48a.7.7,0,0,1,0,1.39h-6.56v3.61h7.65a.7.7,0,1,1,0,1.39H101.23a.7.7,0,1,1,0-1.39h7.44V39.87h-6.42a.7.7,0,1,1,0-1.39h6.42v-2a.62.62,0,0,1,.71-.7c.52,0,.78.23.78.7v2Zm.94-10.54a.7.7,0,1,1,0,1.4h-9.24l-3,4.44,8.48-.51c-.61-.64-1.27-1.3-2-2a.87.87,0,0,1-.24-.57.61.61,0,0,1,.68-.7,1.06,1.06,0,0,1,.49.17c.78.76,1.5,1.49,2.15,2.19a21.91,21.91,0,0,1,2.77,3.5.78.78,0,0,1,.22.41c0,.47-.21.7-.63.7a1,1,0,0,1-.68-.25c-.62-.82-1.17-1.53-1.64-2.11a1.14,1.14,0,0,1-.41.07l-13.28.81c-.47,0-.7-.27-.7-.81a.62.62,0,0,1,.7-.7l2.36-.13,3.11-4.54h-5.32a.7.7,0,0,1,0-1.4Z"/><path class="cls-2" d="M121.39,32.53a.79.79,0,0,1,.49.25,20.32,20.32,0,0,1,2.87,2.33,1.09,1.09,0,0,1,.15.46c0,.49-.25.73-.76.73a.76.76,0,0,1-.47-.16,35.11,35.11,0,0,0-3-2.34,1.6,1.6,0,0,1-.15-.49C120.53,32.79,120.81,32.53,121.39,32.53Zm3.36,5.62c.52,0,.78.26.78.73a2.19,2.19,0,0,1-.16.62,19.5,19.5,0,0,1-1.87,3.63,10.19,10.19,0,0,1-1.53,2,.86.86,0,0,1-.58.27.69.69,0,0,1-.78-.78.84.84,0,0,1,.23-.51,11.91,11.91,0,0,0,1.5-1.91,23.53,23.53,0,0,0,1.88-3.6A.57.57,0,0,1,124.75,38.15Zm-2-10.78a.71.71,0,0,1,.45.24,15.33,15.33,0,0,1,2.5,2.05.82.82,0,0,1,.18.45c0,.52-.29.78-.86.78a.81.81,0,0,1-.47-.16c-.78-.72-1.61-1.41-2.5-2.09a1.52,1.52,0,0,1-.15-.49C121.88,27.63,122.16,27.37,122.73,27.37Zm4.36,8.77h9.45c.8,0,1.19.34,1.19,1a2.49,2.49,0,0,1-.58,1.2,16.63,16.63,0,0,1-2.83,3,11.18,11.18,0,0,1-1.12.82A14.35,14.35,0,0,0,137.66,44a.8.8,0,0,1,.45.16.6.6,0,0,1,.33.57.81.81,0,0,1-.26.62,1.61,1.61,0,0,1-.6.16,7.33,7.33,0,0,1-3.42-1A11.38,11.38,0,0,1,131.91,43l-.8.41a24.08,24.08,0,0,1-4.51,1.74,4.92,4.92,0,0,1-1.15.27.76.76,0,0,1-.86-.86.66.66,0,0,1,.64-.7,26.34,26.34,0,0,0,3.56-1.08c.71-.27,1.39-.56,2-.86a22.76,22.76,0,0,1-3.05-4.41h-.66q-.63,0-.63-.72A.55.55,0,0,1,127.09,36.14Zm3.34-6.29a8.71,8.71,0,0,1-.57,1.33,11.17,11.17,0,0,1-1.36,2.23A6.86,6.86,0,0,1,127,35a.89.89,0,0,1-.49.16.63.63,0,0,1-.48-.24.74.74,0,0,1-.22-.53.67.67,0,0,1,.26-.54,9.27,9.27,0,0,0,1.38-1.43,14,14,0,0,0,1.25-2,14.57,14.57,0,0,0,.88-2.48.65.65,0,0,1,.7-.49.74.74,0,0,1,.47.16.56.56,0,0,1,.24.49,2.2,2.2,0,0,1-.08.46,1.23,1.23,0,0,1,0,.16h5.27c1,0,1.57.31,1.57.94S137.6,31,137.5,32a5,5,0,0,1-1,2.74,2.37,2.37,0,0,1-1.7.58,9.71,9.71,0,0,1-3.43-.57.69.69,0,0,1-.45-.62q0-.78.6-.78a20,20,0,0,0,3.13.57,1,1,0,0,0,.72-.18,1.51,1.51,0,0,0,.45-.86,7.36,7.36,0,0,0,.39-2.4c0-.38-.16-.57-.47-.57h-5.23Zm-1.09,7.62a19,19,0,0,0,2.73,3.71l.47-.31a14,14,0,0,0,2.93-2.72q.39-.46.39-.6s-.09-.08-.25-.08Z"/><path class="cls-2" d="M158,28.72a.56.56,0,0,1,.64.63c0,.47-.21.7-.64.7h-9.88a14.07,14.07,0,0,1-2,2.34l-.05.06h9.86a1.27,1.27,0,0,1,1.46,1.43v9.43c0,1.26-.95,1.89-2.87,1.89a12.18,12.18,0,0,1-2.91-.41.62.62,0,0,1-.45-.62c0-.58.19-.86.55-.86a2.38,2.38,0,0,1,.63.1,9.92,9.92,0,0,0,2,.31c1,0,1.56-.29,1.56-.86V40.57H145.31v4.09c0,.46-.26.7-.78.7a.63.63,0,0,1-.72-.7V34.16a21.11,21.11,0,0,1-2.27,1.29,1.44,1.44,0,0,1-.52.13c-.47,0-.71-.26-.71-.78a.71.71,0,0,1,.37-.54,15.88,15.88,0,0,0,4.71-3.2,7.87,7.87,0,0,0,.88-1h-5c-.42,0-.62-.23-.62-.7a.55.55,0,0,1,.62-.63h6c.26-.4.5-.83.74-1.27a.73.73,0,0,1,.57-.29c.52,0,.78.23.78.7a.8.8,0,0,1-.16.45l-.23.41ZM145.31,36h10.55V34.33c0-.37-.14-.55-.41-.55h-9.84c-.2,0-.3.18-.3.55Zm0,3.36h10.55V37.21H145.31Z"/><path class="cls-2" d="M170.94,35.26a4.21,4.21,0,0,1-1.17,2.58c-.37.46-.68.68-.94.68s-.37-.13-.37-.39a2.14,2.14,0,0,1,.41-.68,1.7,1.7,0,0,0,.43-.72c0-.12-.18-.3-.53-.55a1.14,1.14,0,0,1-.16-1.84,1.43,1.43,0,0,1,1-.37,1.26,1.26,0,0,1,.92.39A1.19,1.19,0,0,1,170.94,35.26Z"/><path class="cls-1" d="M187,28.39h6.08c.74,0,1.11.28,1.11.86a2,2,0,0,1-.59,1.05,7.64,7.64,0,0,1-1.56,1.29,2,2,0,0,1-.25.16h4.35c.89,0,1.33.42,1.33,1.26v6.06a1.18,1.18,0,0,1-1.33,1.35H183.59a1.19,1.19,0,0,1-1.34-1.35V33a1.27,1.27,0,0,1,.17-.74l-1,.5a.8.8,0,0,1-.45.16.61.61,0,0,1-.47-.21.88.88,0,0,1-.16-.51.68.68,0,0,1,.37-.55A14,14,0,0,0,183,30.47a8.55,8.55,0,0,0,1.6-1.26,13.63,13.63,0,0,0,1.54-1.68.52.52,0,0,1,.45-.24.64.64,0,0,1,.45.18.71.71,0,0,1,.18.47A.77.77,0,0,1,187,28.39Zm-3.77,12.67a.61.61,0,0,1,.7.69,1.55,1.55,0,0,1-.29.86A15,15,0,0,1,182,45.2a1.06,1.06,0,0,1-.56.16c-.47,0-.71-.22-.71-.65a1,1,0,0,1,.18-.54,13.13,13.13,0,0,0,1.87-2.74A.58.58,0,0,1,183.26,41.06Zm.33-9.31h5.94a14,14,0,0,0,1.43-.69,6.29,6.29,0,0,0,1.15-.82q.39-.31.39-.45c0-.09-.08-.13-.25-.13h-6.08l-.19,0-.55.54a10,10,0,0,1-1.66,1.31l-.45.28A1.37,1.37,0,0,1,183.59,31.75Zm.08,3.61H189V33.07h-4.82c-.37,0-.55.19-.55.57ZM189,39.09v-2.4h-5.37v1.8c0,.4.18.6.55.6Zm-2.16,2.13c.18,0,.35.12.52.37A12.11,12.11,0,0,1,188.59,44a2.05,2.05,0,0,1,.08.57c0,.42-.28.62-.86.62-.26,0-.45-.18-.56-.54a11.51,11.51,0,0,0-1-2.45.82.82,0,0,1-.14-.37C186.09,41.43,186.35,41.22,186.88,41.22Zm3.57-8.15v2.29h5.64V33.64a.5.5,0,0,0-.56-.57Zm5.08,6c.38,0,.56-.2.56-.6v-1.8h-5.64v2.4Zm-4,2.13a.66.66,0,0,1,.55.37,12.19,12.19,0,0,1,1.17,2.58,1.73,1.73,0,0,1,.1.54c0,.43-.29.65-.86.65-.25,0-.43-.19-.55-.57a13.46,13.46,0,0,0-1-2.58.68.68,0,0,1-.18-.37C190.76,41.43,191,41.22,191.54,41.22Zm4.32-.08a.75.75,0,0,1,.6.37,12.19,12.19,0,0,1,2,2.74,2.35,2.35,0,0,1,.08.54c0,.43-.29.65-.86.65q-.37,0-.57-.57a10.94,10.94,0,0,0-1.86-2.66,1,1,0,0,1-.15-.46C195.08,41.34,195.34,41.14,195.86,41.14Z"/><path class="cls-1" d="M203.59,27.78h12.09c.85,0,1.27.39,1.27,1.15v5a1.12,1.12,0,0,1-1.27,1.27H212.6a13.47,13.47,0,0,0,1.87,1.33,23.54,23.54,0,0,0,3.89,1.7.7.7,0,0,1,.37.57c0,.57-.26.86-.78.86a1.53,1.53,0,0,1-.78-.24A18.69,18.69,0,0,1,212.71,37a11.32,11.32,0,0,1-1.85-1.78h-3.15a.81.81,0,0,1-.13.45A10,10,0,0,1,205.12,38a16.2,16.2,0,0,1-3.62,1.68,1.46,1.46,0,0,1-.41.07.69.69,0,0,1-.78-.78.79.79,0,0,1,.45-.62,14.65,14.65,0,0,0,3.71-1.66,7.66,7.66,0,0,0,1.64-1.45h-2.52a1.12,1.12,0,0,1-1.27-1.27v-5C202.32,28.17,202.75,27.78,203.59,27.78Zm2.58,9.92q.78,0,.78.69V40.2a5.21,5.21,0,0,1-.35,2,4.61,4.61,0,0,1-1.27,1.75,8,8,0,0,1-2.44,1.47,1.67,1.67,0,0,1-.39.14.76.76,0,0,1-.86-.86q0-.63.45-.78a8.14,8.14,0,0,0,2.13-1.14,3.64,3.64,0,0,0,1-1.21,3.87,3.87,0,0,0,.25-1.33V38.39Q205.45,37.7,206.17,37.7Zm-2.44-7H209V29.11h-4.82a.36.36,0,0,0-.41.4ZM209,33.88V32h-5.23v1.39c0,.32.14.49.41.49Zm1.41-4.77v1.62h5.16V29.51c0-.27-.13-.4-.37-.4Zm4.79,4.77c.24,0,.37-.17.37-.49V32h-5.16v1.88Zm-2,3.82q.78,0,.78.69v6.32c0,.49-.26.73-.78.73s-.68-.24-.68-.73V38.39A.61.61,0,0,1,213.18,37.7Z"/><path class="cls-1" d="M224.9,27.08a.66.66,0,0,1,.49.19.74.74,0,0,1,.22.51,1.05,1.05,0,0,1-.16.53,10.91,10.91,0,0,1-.76,1.44,4.86,4.86,0,0,1-.35.53H227c.88,0,1.31.41,1.31,1.23V43.58A1.16,1.16,0,0,1,227,44.89h-4.78a1.16,1.16,0,0,1-1.31-1.31V31.51c0-.82.44-1.23,1.31-1.23h.51a6.33,6.33,0,0,0,.58-.92,20.77,20.77,0,0,0,1-2A.7.7,0,0,1,224.9,27.08Zm-2.65,9.43h4.63V32.17a.5.5,0,0,0-.57-.56h-3.5a.49.49,0,0,0-.56.56Zm4.06,7.05c.38,0,.57-.21.57-.62v-5.1h-4.63v5.1c0,.41.18.62.56.62Zm4.92-16.4c.48,0,.72.2.72.62,0,.72-.1,1.36-.19,1.93H237c.94,0,1.41.53,1.41,1.57q0,4.65-.29,8.49c-.19,2.27-.58,3.75-1.18,4.46a3.42,3.42,0,0,1-2.75,1.11,9.17,9.17,0,0,1-3.61-.86.81.81,0,0,1-.53-.7c0-.58.25-.86.76-.86a9.27,9.27,0,0,0,3.28.94,1.93,1.93,0,0,0,1.86-1,9.77,9.77,0,0,0,.76-3.73c.14-2,.22-4.47.22-7.31,0-.52-.24-.78-.71-.78H231.5a9.61,9.61,0,0,1-1.13,2.74,1.07,1.07,0,0,1-.7.37c-.58,0-.86-.26-.86-.78,0-.08.08-.2.23-.37a8.43,8.43,0,0,0,1.1-2.44,15.46,15.46,0,0,0,.39-2.78C230.53,27.36,230.76,27.16,231.23,27.16Zm.65,6.77a.7.7,0,0,1,.52.32A30.52,30.52,0,0,1,233.81,39a2.51,2.51,0,0,1,.08.57c0,.47-.29.7-.86.7-.28,0-.48-.19-.63-.57A34.18,34.18,0,0,0,231.31,35a1.08,1.08,0,0,1-.14-.45C231.17,34.12,231.41,33.93,231.88,33.93Z"/><path class="cls-1" d="M256.15,27.5c0,.45-.26.67-.8.67h-4a.45.45,0,0,0-.51.51v6.86c0,.53-.22.8-.66.8s-.67-.27-.67-.8V27.68a.77.77,0,0,1,.26-.58.83.83,0,0,1,.58-.26h5C255.89,26.84,256.15,27.06,256.15,27.5Z"/><path class="cls-1" d="M266.17,30.52a.7.7,0,1,1,0,1.4h-1.35v.67l2.31,4a1.42,1.42,0,0,1,.19.62c0,.49-.26.73-.78.73-.22,0-.38-.15-.49-.43l-1.23-2.66v9.86c0,.49-.22.73-.68.73s-.7-.24-.7-.73V35.26a1,1,0,0,0,0,.14c-.35,1.24-.67,2.21-.94,2.91a11,11,0,0,1-.92,2.13.69.69,0,0,1-.6.45.62.62,0,0,1-.71-.69,1.21,1.21,0,0,1,.14-.54,30.84,30.84,0,0,0,2-4.63,21,21,0,0,0,.82-3.11h-2.07a.7.7,0,1,1,0-1.4h2.35V27.86a.62.62,0,0,1,.7-.7c.46,0,.68.23.68.7v2.66Zm9.44-.94H267a.63.63,0,0,1-.72-.7.64.64,0,0,1,.72-.73h11.56a.64.64,0,0,1,.71.73.63.63,0,0,1-.71.7h-1.5V42.94c0,1.56-.91,2.34-2.71,2.34a12,12,0,0,1-3.29-.62.73.73,0,0,1-.56-.73c0-.49.24-.75.64-.78a3.24,3.24,0,0,1,.55.08,14.2,14.2,0,0,0,2.81.57c.72,0,1.08-.4,1.08-1.19Zm-6.38,1.72h3.35c.87,0,1.31.41,1.31,1.23v7.26a1.14,1.14,0,0,1-1.31,1.27h-3.35A1.12,1.12,0,0,1,268,39.79V32.53A1.1,1.1,0,0,1,269.23,31.3Zm2.71,8.49a.55.55,0,0,0,.62-.62v-6a.55.55,0,0,0-.62-.62h-2.12c-.35,0-.52.21-.52.62v6c0,.41.17.62.52.62Z"/><path class="cls-1" d="M297,28.64a.55.55,0,0,1,.63.61q0,.72-.63.72h-2.28v6.46h2.75a.56.56,0,0,1,.61.64c0,.46-.21.69-.61.69H294A8,8,0,0,0,295.86,39a9.77,9.77,0,0,0,2.09.76.68.68,0,0,1,.49.65c0,.52-.29.78-.86.78a1.76,1.76,0,0,1-.45-.1,10.29,10.29,0,0,1-2.6-1.29A8.32,8.32,0,0,1,293,38.46a1.19,1.19,0,0,1-.35-.7h-6.43a4.58,4.58,0,0,1-.66,1.1,5.39,5.39,0,0,1-1.35,1.23,14,14,0,0,1-2.62,1.19,1.78,1.78,0,0,1-.45.08.69.69,0,0,1-.47-.22.87.87,0,0,1-.17-.51.57.57,0,0,1,.49-.62,11.39,11.39,0,0,0,2.4-1,4.66,4.66,0,0,0,1.17-1,3.08,3.08,0,0,0,.2-.26h-3.07c-.42,0-.62-.23-.62-.69a.56.56,0,0,1,.62-.64h2.81V30h-2.36q-.63,0-.63-.72a.55.55,0,0,1,.63-.61h2.36v-.78a.71.71,0,0,1,1.41,0v.78h7.5v-.78a.61.61,0,0,1,.68-.7.62.62,0,0,1,.71.7v.78Zm-3.67,11.88c.4,0,.6.2.6.62s-.2.7-.6.7h-3.05v1.88H297a.56.56,0,0,1,.63.63c0,.47-.21.7-.63.7H282.17c-.42,0-.63-.23-.63-.7a.56.56,0,0,1,.63-.63h6.64V41.84h-3.36c-.42,0-.63-.23-.63-.7a.55.55,0,0,1,.63-.62h3.36V39.17q0-.69.72-.69t.78.69v1.35Zm-7.5-9.22h7.5V30h-7.5Zm0,2.58h7.5V32.53h-7.5Zm0,2.55h7.5V35.11h-7.5Z"/><path class="cls-1" d="M309.53,45a.81.81,0,0,1-.25.59.9.9,0,0,1-.59.24h-5c-.53,0-.8-.22-.8-.66s.27-.67.8-.67h4a.45.45,0,0,0,.5-.51V37.14c0-.54.22-.8.67-.8s.66.26.66.8Z"/><path class="cls-2" d="M332.58,36.34a3.07,3.07,0,0,1-5.22,2.16,3.1,3.1,0,0,1,0-4.33,3.05,3.05,0,0,1,5.22,2.17Zm-1.06,0a2,2,0,0,0-2-2,1.94,1.94,0,0,0-1.41.59,2,2,0,0,0,0,2.81,2,2,0,0,0,2.82,0A1.91,1.91,0,0,0,331.52,36.34Z"/><path class="cls-2" d="M4.22,61.71a1.34,1.34,0,0,1,.53.16c.49.34.94.67,1.34,1a9.15,9.15,0,0,1,1.66,1.46,13.43,13.43,0,0,0,1-2.6A14.61,14.61,0,0,0,9.3,58a.37.37,0,0,0-.41-.41H5c-.1.45-.22.89-.35,1.33a13.9,13.9,0,0,1-1.11,2.68A15.62,15.62,0,0,1,1.72,64a.94.94,0,0,1-.55.16.74.74,0,0,1-.56-.24.78.78,0,0,1-.24-.54.9.9,0,0,1,.24-.65A13.06,13.06,0,0,0,2.23,60.6a11.15,11.15,0,0,0,1-2.38,17.28,17.28,0,0,0,.67-3.77c0-.3.26-.45.64-.45a1,1,0,0,1,.59.18.5.5,0,0,1,.25.43,5.6,5.6,0,0,1,0,.74c0,.3-.06.57-.1.82h4.3c.72,0,1.08.42,1.08,1.27A17.09,17.09,0,0,1,10,62.16a16.75,16.75,0,0,1-2.27,5.08,18.91,18.91,0,0,1-5.54,5,1.08,1.08,0,0,1-.63.24.83.83,0,0,1-.93-.94.82.82,0,0,1,.33-.57,19.66,19.66,0,0,0,5.11-4,9.49,9.49,0,0,0,1.08-1.46.93.93,0,0,1-.41-.2c-.67-.59-1.22-1-1.68-1.39s-.83-.57-1.31-.86a.92.92,0,0,1-.21-.54C3.52,62,3.75,61.71,4.22,61.71Zm9.51-7.42c.53,0,.8.24.8.73v3.67a1.56,1.56,0,0,1,.22.23,27.24,27.24,0,0,1,3.69,6.31,1.73,1.73,0,0,1,.08.49c0,.42-.27.62-.79.62-.24,0-.43-.15-.56-.46a28.36,28.36,0,0,0-2.64-5.08v11c0,.48-.27.73-.8.73s-.7-.25-.7-.73V55C13,54.53,13.26,54.29,13.73,54.29Z"/><path class="cls-2" d="M21.31,59.94a.87.87,0,0,1,.49.21A15.42,15.42,0,0,1,24,62.2a.94.94,0,0,1,.18.45c0,.48-.26.73-.78.73a.92.92,0,0,1-.49-.16,27.62,27.62,0,0,0-2.19-2.13,1,1,0,0,1-.15-.37A.69.69,0,0,1,21.31,59.94Zm2.21,5c.46,0,.7.26.7.78a21.16,21.16,0,0,1-.7,3.08,18.64,18.64,0,0,1-1.35,3,.75.75,0,0,1-.71.49c-.52,0-.78-.23-.78-.7a.67.67,0,0,1,.18-.33,14.54,14.54,0,0,0,1.21-2.7,21.63,21.63,0,0,0,.8-3.16A.59.59,0,0,1,23.52,64.94Zm-.86-10.08a.75.75,0,0,1,.45.21A15.69,15.69,0,0,1,25.16,57a1.12,1.12,0,0,1,.15.49c0,.47-.26.7-.78.7A.91.91,0,0,1,24,58c-.66-.65-1.36-1.28-2.09-1.89a1.26,1.26,0,0,1-.15-.45C21.8,55.12,22.08,54.86,22.66,54.86Zm4.51,9.3h8.92c.88,0,1.31.41,1.31,1.23v5.17H38q.72,0,.72.69A.63.63,0,0,1,38,72H25.16a.63.63,0,0,1-.71-.7.62.62,0,0,1,.71-.69h.78V65.39A1.09,1.09,0,0,1,27.17,64.16Zm.55-9.09h7.65c.78,0,1.17.37,1.17,1.1v5.49c0,.71-.39,1.07-1.17,1.07H27.72a1,1,0,0,1-1.1-1.07V56.17A1,1,0,0,1,27.72,55.07ZM27.4,70.56h2.05v-5H27.81c-.27,0-.41.15-.41.45Zm7.33-9.06a.43.43,0,0,0,.48-.49V56.79q0-.45-.48-.45H28.36c-.28,0-.41.15-.41.45V61c0,.33.13.49.41.49Zm-3.09-4.92a.77.77,0,0,1,.45.13.61.61,0,0,1,.23.49,1.23,1.23,0,0,1-.07.37l-.32.61.16,0a11.44,11.44,0,0,1,1.09.62,7,7,0,0,1,1.41,1,.93.93,0,0,1,.16.37c0,.43-.18.65-.53.65a1.23,1.23,0,0,1-.63-.16,13.25,13.25,0,0,0-1.32-.92c-.3-.19-.65-.39-1-.59h0l-.16.17a10.52,10.52,0,0,1-1.52,1.35A.89.89,0,0,1,29,61c-.45,0-.68-.21-.68-.62a.47.47,0,0,1,.16-.37A10,10,0,0,0,30,58.71,6.92,6.92,0,0,0,31.17,57,.43.43,0,0,1,31.64,56.58Zm-.78,14h1.8v-5h-1.8Zm3.18,0h1.9V66c0-.3-.17-.45-.49-.45H34Z"/><path class="cls-2" d="M49.22,54.29q.6,0,.6.78c0,.34-.26.56-.78.65s-1.44.18-2.4.27v1.29h3.44a.53.53,0,0,1,.6.61.54.54,0,0,1-.6.62H46.64V59.7h2.58c.77,0,1.15.37,1.15,1.1v4.06c0,.72-.38,1.07-1.15,1.07H46.64v1.43h3a.56.56,0,0,1,.64.62c0,.41-.21.61-.64.61h-3v1.66c1.07-.12,2.08-.27,3-.47.43,0,.64.2.64.61s-.24.67-.72.7c-2.92.51-5.7.88-8.36,1.11-.47,0-.7-.28-.7-.86a.63.63,0,0,1,.7-.7c1.41,0,2.74-.1,4-.23V68.59H41.8c-.42,0-.63-.2-.63-.61a.55.55,0,0,1,.63-.62h3.43V65.93H42.42a1,1,0,0,1-1.09-1.07V60.8a1,1,0,0,1,1.09-1.1h2.81V58.51h-4a.55.55,0,0,1-.62-.62.54.54,0,0,1,.62-.61h4V56.09c-1.49.1-2.54.16-3.14.16s-.78-.23-.78-.69a.56.56,0,0,1,.64-.62c1.25,0,2.42-.07,3.5-.16A27.81,27.81,0,0,0,49.22,54.29ZM42.66,62.2h2.57V60.93H43c-.25,0-.37.17-.37.49Zm2.57,2.5V63.38H42.66v.83c0,.33.12.49.37.49Zm1.41-3.77V62.2H49v-.78c0-.32-.15-.49-.45-.49Zm2,3.77c.3,0,.45-.16.45-.49v-.83h-2.4V64.7Zm3.13-6.81h1.8c0-1,.07-2,.07-3,0-.43.24-.65.71-.65s.7.25.7.73c0,1,0,2-.1,3H57c.89,0,1.33.52,1.33,1.56,0,2.85-.07,5.46-.22,7.81a10,10,0,0,1-.8,4.08,2.1,2.1,0,0,1-1.89,1A5.11,5.11,0,0,1,53.59,72c-.32-.16-.48-.36-.48-.61,0-.57.23-.86.7-.86a4.3,4.3,0,0,0,1.56.45c.5,0,.84-.3,1-.89a14.34,14.34,0,0,0,.43-3.36q.1-2.78.11-6.66c0-.49-.21-.73-.64-.73H54.84q-.14,2-.39,3.93A27.29,27.29,0,0,1,51.54,72a.77.77,0,0,1-.6.33.69.69,0,0,1-.78-.78,2,2,0,0,1,.15-.49,26.24,26.24,0,0,0,2.76-8.38c.17-1.11.29-2.25.37-3.42H51.72a.7.7,0,0,1,0-1.4Z"/><path class="cls-2" d="M61.72,55.15c.45,0,.68.26.68.78,0,.84,0,1.62-.1,2.37h1.59V54.94c0-.48.23-.73.7-.73a.64.64,0,0,1,.72.73V58.3h1.23a.56.56,0,0,1,.63.63q0,.69-.63.69H65.31v4.56a12.1,12.1,0,0,0,1.08-.73l.33-.06c.45,0,.68.27.68.79a.87.87,0,0,1-.35.6A14.84,14.84,0,0,1,65.31,66v5.76a.64.64,0,0,1-.72.73c-.47,0-.7-.24-.7-.73v-5a18.12,18.12,0,0,1-2.37,1,1.14,1.14,0,0,1-.43.1q-.72,0-.72-.78a.76.76,0,0,1,.57-.78,16.67,16.67,0,0,0,2.61-1.08l.34-.15V59.62H62.17a20.57,20.57,0,0,1-.71,3.29.76.76,0,0,1-.85.62.46.46,0,0,1-.53-.53,1.5,1.5,0,0,1,.08-.54,25.45,25.45,0,0,0,.93-6.66C61.11,55.37,61.32,55.15,61.72,55.15Zm7.73-1c.47,0,.71.2.71.62a18.91,18.91,0,0,1-.26,2.09h7c1,0,1.49.42,1.49,1.25a81.3,81.3,0,0,1-.49,10,5.68,5.68,0,0,1-1.13,3.28,3.19,3.19,0,0,1-2.44.9,7.13,7.13,0,0,1-2.21-.49.75.75,0,0,1-.53-.78c0-.52.23-.78.68-.78a9.2,9.2,0,0,0,2.06.49,1.68,1.68,0,0,0,1.5-.69,6.3,6.3,0,0,0,.66-2.44A62.67,62.67,0,0,0,77,58.73c0-.35-.19-.53-.56-.53h-.63a7.48,7.48,0,0,1-.08.84,22.05,22.05,0,0,1-1.27,5.19,17.06,17.06,0,0,1-2,3.93,20.32,20.32,0,0,1-3.24,3.54.92.92,0,0,1-.55.15.69.69,0,0,1-.5-.21.83.83,0,0,1-.22-.57.65.65,0,0,1,.24-.53,21,21,0,0,0,3.1-3.28,15,15,0,0,0,1.93-3.65,21,21,0,0,0,1.27-5.41h-1.7a2.09,2.09,0,0,1,0,.21,22.76,22.76,0,0,1-1.25,4,18.41,18.41,0,0,1-1.74,3.3A10.52,10.52,0,0,1,67.73,68a.79.79,0,0,1-.48.16.63.63,0,0,1-.49-.24.78.78,0,0,1-.22-.54.64.64,0,0,1,.26-.49,12.79,12.79,0,0,0,1.83-2.15,19.13,19.13,0,0,0,1.62-3.12,17.69,17.69,0,0,0,1.06-3.46H69.65c0,.17-.08.32-.12.47A10.76,10.76,0,0,1,67.87,62a1,1,0,0,1-.7.41c-.58,0-.86-.26-.86-.78a.82.82,0,0,1,.23-.41,8.8,8.8,0,0,0,1.6-3,14.66,14.66,0,0,0,.59-3.46C68.73,54.36,69,54.16,69.45,54.16Z"/><path class="cls-2" d="M90.94,62.26a4.21,4.21,0,0,1-1.17,2.58c-.37.46-.68.68-.94.68s-.37-.13-.37-.39a2.14,2.14,0,0,1,.41-.68,1.7,1.7,0,0,0,.43-.72c0-.12-.18-.3-.53-.55a1.14,1.14,0,0,1-.16-1.84,1.43,1.43,0,0,1,1-.37,1.26,1.26,0,0,1,.92.39A1.19,1.19,0,0,1,90.94,62.26Z"/><path class="cls-1" d="M109.53,54.08c.52,0,.78.23.78.7V57.2h2.29c.23-.23.45-.45.64-.66a17.81,17.81,0,0,0,1.43-1.84.74.74,0,0,1,.64-.33.71.71,0,0,1,.49.22.67.67,0,0,1,.22.48,1.17,1.17,0,0,1-.16.57,14.49,14.49,0,0,1-1.21,1.29,3.84,3.84,0,0,0-.29.27h2.73a1.47,1.47,0,0,1,1.25.57,2.4,2.4,0,0,1,.33,1.39,12,12,0,0,1-.15,1.77.8.8,0,0,1-.86.57.62.62,0,0,1-.71-.7,12.11,12.11,0,0,0,.22-1.59.55.55,0,0,0-.63-.62H102.66a.55.55,0,0,0-.63.62v1.43a.63.63,0,0,1-.72.7.62.62,0,0,1-.7-.7V58.43a1.1,1.1,0,0,1,1.27-1.23h3a18.33,18.33,0,0,0-1.42-1.64,1,1,0,0,1-.18-.41.69.69,0,0,1,.78-.78.77.77,0,0,1,.49.24A12.82,12.82,0,0,1,106,56.5a.92.92,0,0,1,.15.45.69.69,0,0,1,0,.25h2.68V54.78A.63.63,0,0,1,109.53,54.08Zm-4.63,6h9.69c.85,0,1.27.39,1.27,1.18v1.81c0,.77-.42,1.15-1.27,1.15h-4.32a.61.61,0,0,1,0,.24v1.11h6a1.18,1.18,0,0,1,1.35,1.31v3.07c0,1.14-.6,1.72-1.8,1.72a7,7,0,0,1-2.13-.41.66.66,0,0,1-.47-.61c0-.57.18-.86.55-.86a1.92,1.92,0,0,1,.47.08,5.23,5.23,0,0,0,1.4.29c.37,0,.55-.28.55-.86V67.57c0-.41-.18-.62-.55-.62h-5.37v4.92c0,.47-.26.7-.78.7a.63.63,0,0,1-.72-.7V67H104c-.35,0-.52.21-.52.62V71A.71.71,0,0,1,102,71V66.87c0-.87.5-1.31,1.49-1.31h5.29V64.45a1.34,1.34,0,0,1,0-.24H104.9c-.82,0-1.23-.38-1.23-1.15V61.25C103.67,60.46,104.08,60.07,104.9,60.07ZM114,63c.28,0,.41-.15.41-.46v-.73c0-.3-.13-.45-.41-.45h-8.59c-.25,0-.37.15-.37.45v.73c0,.31.12.46.37.46Z"/><path class="cls-1" d="M123.89,66.79h-3c-.36,0-.55-.21-.55-.62a.48.48,0,0,1,.55-.53h7c.37,0,.55.18.55.53s-.18.62-.55.62h-2.65v4.14c0,.95-.4,1.43-1.2,1.43a3.66,3.66,0,0,1-1.64-.49.62.62,0,0,1-.52-.62c0-.45.21-.67.6-.69a6.14,6.14,0,0,0,1.27.45c.15,0,.22-.12.22-.37Zm-1.39.65c.4,0,.61.18.61.54a1.3,1.3,0,0,1-.24.69,12.32,12.32,0,0,1-1.56,2.21.6.6,0,0,1-.37.13c-.42,0-.63-.17-.63-.53a.72.72,0,0,1,.14-.41,10.37,10.37,0,0,0,1.64-2.34A.44.44,0,0,1,122.5,67.44ZM127.66,55c.35,0,.52.18.52.54s-.17.61-.52.61h-1.72v1.4H127c.61,0,.92.27.92.81v3.33c0,.58-.31.86-.92.86h-5.39a.77.77,0,0,1-.88-.86V58.38c0-.54.29-.81.88-.81h1.17v-1.4h-1.64c-.38,0-.56-.2-.56-.61s.18-.54.56-.54Zm-.49,8.49a.5.5,0,0,1,.56.57c0,.42-.18.62-.56.62h-5.45c-.37,0-.55-.2-.55-.62s.18-.57.55-.57Zm-4.36-1.93v-3h-.56c-.2,0-.3.14-.3.41v2.09c0,.33.1.49.3.49Zm2-4v-1.4h-.93v1.4Zm0,4v-3h-.93v3Zm1.49,5.86a.54.54,0,0,1,.41.29,9.61,9.61,0,0,1,1,1.88,1,1,0,0,1,.08.41q0,.54-.72.54c-.2,0-.34-.13-.45-.41a10.37,10.37,0,0,0-.78-1.85.81.81,0,0,1-.18-.41Q125.68,67.44,126.31,67.44Zm.08-5.86c.27,0,.41-.16.41-.49V59a.37.37,0,0,0-.41-.41h-.45v3Zm6-6.88H136a1.09,1.09,0,0,1,1.23,1.23v7c0,2.1.09,4.38.29,6.84q0,.57.12.57s0-.6.07-1.8q.06-.44.63-.45c.34,0,.51.22.53.61a11,11,0,0,1-.22,1.64,4.47,4.47,0,0,1-.53,1.62c-.16.23-.33.35-.48.35s-.46-.22-.63-.65a10,10,0,0,1-.64-2.65,51,51,0,0,1-.3-6.08v-6.4q0-.78-.72-.78h-4.76a.62.62,0,0,0-.71.7v6.88a30.63,30.63,0,0,1-.39,5.37,15.08,15.08,0,0,1-.78,3.28.48.48,0,0,1-.47.33q-.58,0-.6-.57a3.83,3.83,0,0,1,.19-.78q.14-.47.27-1.05c.15-.64.28-1.29.4-2a35.34,35.34,0,0,0,.29-4.62V55.93a1.1,1.1,0,0,1,1.27-1.23Zm2.42,1.72c.37,0,.55.2.55.61s-.23.54-.7.62a5.71,5.71,0,0,1-1.08.26V60h.71c.67,0,1,.3,1,.91v5.65a.89.89,0,0,1-1,1h-.71v2.52c.45-.07.84-.16,1.2-.25a7.61,7.61,0,0,0-.41-1,.86.86,0,0,1-.08-.33c0-.3.17-.45.52-.45a.53.53,0,0,1,.41.24,11,11,0,0,1,1.08,2.42,1,1,0,0,1,.08.37c0,.38-.24.57-.71.57-.2,0-.35-.14-.45-.41a2.66,2.66,0,0,0-.11-.39l0,0q-2.46.53-4.71.78c-.36,0-.55-.24-.55-.73a.49.49,0,0,1,.55-.54c.72,0,1.39-.07,2-.14V67.57h-.94q-.93,0-.93-1V60.93a.81.81,0,0,1,.93-.91h.94V58.1a9.23,9.23,0,0,1-1.17.12c-.47,0-.7-.22-.7-.65a.49.49,0,0,1,.56-.54,16.45,16.45,0,0,0,1.8-.14A10.09,10.09,0,0,0,134.82,56.42ZM132.4,66.58V61H132a.37.37,0,0,0-.41.41v4.67c0,.33.14.49.41.49Zm1.41,0a.43.43,0,0,0,.49-.49V61.42c0-.27-.17-.41-.49-.41h-.22v5.57Z"/><path class="cls-1" d="M141.31,59.7a.82.82,0,0,1,.49.24A14.5,14.5,0,0,1,144,61.87a1,1,0,0,1,.18.49c0,.47-.26.7-.78.7a.86.86,0,0,1-.49-.17,23.3,23.3,0,0,0-2.19-2,1.18,1.18,0,0,1-.15-.4A.69.69,0,0,1,141.31,59.7Zm2.42,5.24q.72,0,.72.78a17.06,17.06,0,0,1-2,6.07.76.76,0,0,1-.68.49c-.52,0-.78-.23-.78-.7a.73.73,0,0,1,.15-.33,15.27,15.27,0,0,0,1.21-2.7,21.55,21.55,0,0,0,.81-3.16A.56.56,0,0,1,143.73,64.94Zm-.92-10.41a.69.69,0,0,1,.45.25,13.84,13.84,0,0,1,2.05,1.8,1,1,0,0,1,.14.45c0,.47-.26.7-.78.7a.77.77,0,0,1-.45-.16q-1-.91-2.13-1.77a1.8,1.8,0,0,1-.14-.49C142,54.79,142.24,54.53,142.81,54.53Zm15.3,11.56a.55.55,0,0,1,.62.62c0,.47-.21.71-.62.71h-4.28A11.94,11.94,0,0,1,154,69.2a4.36,4.36,0,0,1-.35,1.71,2.11,2.11,0,0,1-.84,1.08,1.9,1.9,0,0,1-1.13.35,4.63,4.63,0,0,1-1.74-.41.77.77,0,0,1-.6-.7c0-.48.21-.74.6-.77a7.91,7.91,0,0,0,1.64.45.76.76,0,0,0,.45-.15,1.33,1.33,0,0,0,.41-.65,2.14,2.14,0,0,0,.18-.91,11.59,11.59,0,0,0-.12-1.78h-6.78c-.4,0-.6-.24-.6-.71s.2-.62.6-.62h6.43c-.09-.26-.2-.51-.31-.75a4.49,4.49,0,0,0-.75-1,.42.42,0,0,1-.11-.25c0-.46.28-.7.78-.71a.64.64,0,0,1,.37.22,5,5,0,0,1,.8,1.08.41.41,0,0,1,.06.11,9.71,9.71,0,0,0,1.11-.78,8.6,8.6,0,0,0,.94-1,1.58,1.58,0,0,0,.31-.51c0-.11-.08-.16-.23-.16h-8.2c-.43,0-.65-.23-.65-.69a.57.57,0,0,1,.65-.64h9.35q1,0,1,.78a1.83,1.83,0,0,1-.3.9,9.69,9.69,0,0,1-1.36,1.7,10.57,10.57,0,0,1-1.94,1.54l-.13.08s0,.07,0,.08Zm-.79-11.72q.63,0,.63.78c0,.34-.26.56-.78.65q-2.05.26-5.59.45c-2.6.17-4.41.25-5.41.25-.53,0-.8-.23-.8-.7a.58.58,0,0,1,.65-.65c2,0,3.78-.07,5.46-.17A57.06,57.06,0,0,0,157.32,54.37Zm-10.44,2.5a.91.91,0,0,1,.44.16q.39.47.69.9a7.66,7.66,0,0,1,.88,1.44,1,1,0,0,1,.15.41c0,.4-.17.61-.52.61a1.33,1.33,0,0,1-.65-.16c-.31-.57-.57-1-.78-1.33a7.66,7.66,0,0,0-.63-.84.92.92,0,0,1-.23-.54A.58.58,0,0,1,146.88,56.87Zm4.43-.08a.64.64,0,0,1,.41.24,16.18,16.18,0,0,1,1.09,2.13,1,1,0,0,1,.14.45c0,.41-.24.62-.7.62a.52.52,0,0,1-.37-.16c-.38-.74-.78-1.47-1.2-2.18a1.12,1.12,0,0,1-.15-.37C150.53,57,150.79,56.79,151.31,56.79Zm6.19-.37c.46,0,.68.2.68.61a1.3,1.3,0,0,1-.31.78,12.4,12.4,0,0,1-2.11,2.34.75.75,0,0,1-.45.16c-.48,0-.72-.2-.72-.61a.84.84,0,0,1,.16-.49,12.21,12.21,0,0,0,2.28-2.5A.51.51,0,0,1,157.5,56.42Z"/><path class="cls-1" d="M169.9,64.7a.62.62,0,0,1,.71.69c0,.52-.24.78-.71.78h-3.18v3.28c1.42-.22,2.66-.46,3.73-.7a.68.68,0,0,1,.31-.08c.44,0,.68.23.7.62a.85.85,0,0,1-.44.78,31,31,0,0,1-4.56,1c-1.41.26-3.16.49-5.23.68-.44,0-.68-.28-.7-.78a.76.76,0,0,1,.64-.86c1.69-.11,3.05-.24,4.06-.39V66.17h-3.35c-.47,0-.71-.26-.71-.78a.62.62,0,0,1,.71-.69h3.35V62.65c0-.41.24-.62.71-.62s.78.21.78.62V64.7Zm.63-9.84a.7.7,0,1,1,0,1.39H165.9l-2.07,4.25a33.56,33.56,0,0,0,4.82-.7,15.93,15.93,0,0,0-.92-1.5.9.9,0,0,1-.15-.41c0-.35.23-.53.68-.53a.6.6,0,0,1,.47.29A19,19,0,0,1,171.17,62a2.12,2.12,0,0,1,.06.49c0,.41-.26.62-.78.62-.24,0-.42-.16-.55-.49-.21-.57-.41-1.1-.62-1.6a.67.67,0,0,1-.24,0,78,78,0,0,1-7.73,1.19c-.47,0-.7-.31-.7-.94a.63.63,0,0,1,.7-.7l.84,0,2.11-4.35h-2.54a.7.7,0,1,1,0-1.39Zm6.64-.41c.52,0,.78.23.78.7V70.48c0,1.25-.73,1.88-2.19,1.88a10.31,10.31,0,0,1-2.89-.57.69.69,0,0,1-.55-.7q0-.75.63-.78a1.81,1.81,0,0,1,.47.08,11.68,11.68,0,0,0,2.26.49c.52,0,.78-.29.78-.86V55.15A.62.62,0,0,1,177.17,54.45Zm-3.81,1.11a.6.6,0,0,1,.68.69V67.57c0,.49-.22.73-.68.73s-.7-.24-.7-.73V56.25A.61.61,0,0,1,173.36,55.56Z"/><path class="cls-1" d="M181.46,57.81h5.26c.57,0,.86.4.86,1.19a6.18,6.18,0,0,1-.28,1.58,17.11,17.11,0,0,1-1.15,3.19,15.4,15.4,0,0,1-1.74,2.89,12.34,12.34,0,0,1-3,2.93.94.94,0,0,1-.37.19c-.58,0-.86-.31-.86-.94a.8.8,0,0,1,.52-.7,12.8,12.8,0,0,0,2.5-2.34,14.3,14.3,0,0,0,1.7-2.78,15.07,15.07,0,0,0,1-2.75,3.6,3.6,0,0,0,.18-.82c0-.16,0-.24-.08-.24h-4.48a.7.7,0,1,1,0-1.4Zm8.21-3.6q.78,0,.78.81v2.34a32.6,32.6,0,0,0,1.19,3.34A26,26,0,0,0,196.39,57a.61.61,0,0,1,.56-.37.62.62,0,0,1,.71.7,1.53,1.53,0,0,1-.34.86,27.09,27.09,0,0,1-5,3.81.14.14,0,0,1-.09,0,25.17,25.17,0,0,0,2.3,3.57,19.76,19.76,0,0,0,3.83,3.73.84.84,0,0,1-.41,1.59,1.73,1.73,0,0,1-.86-.32,21.71,21.71,0,0,1-4.26-4.78,16.12,16.12,0,0,1-2-3.87c-.14-.33-.27-.67-.39-1v9.6c0,1.31-.76,2-2.27,2a9.43,9.43,0,0,1-3.1-.73.68.68,0,0,1-.55-.7q0-.74.63-.78a1.57,1.57,0,0,1,.48.1,11.78,11.78,0,0,0,2.54.6c.52,0,.78-.28.78-.86V55C189,54.48,189.2,54.21,189.67,54.21Z"/><path class="cls-1" d="M217.87,55.39a.7.7,0,1,1,0,1.4h-8L209,59h7.58c.8,0,1.19.38,1.19,1.15V70.56c0,.77-.39,1.15-1.19,1.15h-14c-.8,0-1.19-.38-1.19-1.15V60.15c0-.77.39-1.15,1.19-1.15h4.8l1-2.21h-7.21a.7.7,0,1,1,0-1.4ZM205.53,70.31V60.39h-2.35c-.24,0-.37.13-.37.41v9.14a.33.33,0,0,0,.37.37ZM207,62.65h5.37V60.39H207Zm0,3.77h5.37V64H207Zm5.37,3.89V67.75H207v2.56Zm3.62,0a.33.33,0,0,0,.37-.37V60.8c0-.28-.13-.41-.37-.41h-2.21v9.92Z"/><path class="cls-1" d="M222,54.78h2.19c.73,0,1.09.34,1.09,1V69.94A1,1,0,0,1,224.22,71H222a1,1,0,0,1-1.09-1.07V55.8C220.94,55.12,221.3,54.78,222,54.78Zm.14,7.33H224V56.42c0-.32-.15-.49-.45-.49h-.93a.43.43,0,0,0-.49.49Zm1.42,7.75q.45,0,.45-.57v-6h-1.87v6c0,.38.16.57.49.57Zm9.48-3.28h-3.32v1.23h2.05c.35,0,.52.19.52.57s-.17.54-.52.54h-2.05v1.82l0,0a15.36,15.36,0,0,0,1.85-.57.83.83,0,0,1,.31-.08.54.54,0,0,1,.55.57.6.6,0,0,1-.41.53,8.76,8.76,0,0,1-1.8.68c-.57.17-1.27.34-2.11.51-.39,0-.59-.26-.6-.7a.59.59,0,0,1,.53-.65l.48-.06V66.58h-1a14.54,14.54,0,0,1-.39,3.26,9.47,9.47,0,0,1-.73,2.27.56.56,0,0,1-.52.41c-.46,0-.69-.25-.71-.65a1.93,1.93,0,0,1,.18-.53c.08-.22.16-.46.25-.72.15-.44.27-.89.38-1.35a17.78,17.78,0,0,0,.27-3.18V61.66c0-.73.4-1.1,1.19-1.1h4v-.62a.64.64,0,0,1,.71-.73.75.75,0,0,1,.41.1v-2c0-.43.23-.65.7-.65h4c.52,0,.79.22.79.65v1.85c0,.49-.21.73-.61.73s-.55-.24-.55-.73V58c0-.16-.07-.25-.23-.25H234c-.1,0-.15.09-.15.25v1.18c0,.46-.21.7-.63.7a.37.37,0,0,1-.23-.06v.76h4.78c.42,0,.63.18.63.53s-.21.57-.63.57h-3.14v1.15H237c.67,0,1,.31,1,.94v1.89c0,.63-.33.94-1,.94h-2.57v1.6a7.61,7.61,0,0,0,1.5-.31,6.94,6.94,0,0,0,1.52-.67.55.55,0,0,1,.63.61.62.62,0,0,1-.45.62,9.26,9.26,0,0,1-1.23.49,8.48,8.48,0,0,1-1.19.26l-.78.11v1.19c0,.36.35.53,1.07.53,1,0,1.48-.1,1.52-.29l.12-.57a.6.6,0,0,1,.64-.62.67.67,0,0,1,.71.7c0,1-.24,1.61-.71,1.76a6,6,0,0,1-2.28.29,3.55,3.55,0,0,1-1.92-.35,1.11,1.11,0,0,1-.48-1V66.66S233.05,66.59,233.07,66.58Zm-2-11.88c.37,0,.55.18.55.53s-.18.65-.55.65h-4.63c-.35,0-.52-.22-.52-.65a.46.46,0,0,1,.52-.53Zm-4.14,2h3.81c.52,0,.78.22.78.65v1.85c0,.49-.2.73-.6.73s-.57-.24-.57-.73V58c0-.16-.07-.25-.21-.25h-2.58c-.12,0-.18.09-.18.25v1.39c0,.47-.2.7-.6.7s-.57-.23-.57-.7v-2C226.23,56.93,226.47,56.71,227,56.71Zm3,6.1V61.66h-2c-.25,0-.37.15-.37.45v.7Zm-2.32,1.11v1.56h2.32V63.92Zm1.23-5.78a.63.63,0,0,1,.57.29,8.07,8.07,0,0,1,.19,1c0,.09,0,.16,0,.2a.48.48,0,0,1-.55.54c-.34,0-.51-.15-.52-.45a10.39,10.39,0,0,0-.16-1.09v-.1C228.36,58.26,228.51,58.14,228.81,58.14Zm4.55,4.67V61.66h-2.19v1.15Zm-2.19,1.11v1.56h2.19V63.92Zm6.56-9.22a.47.47,0,0,1,.53.53c0,.43-.17.65-.53.65H233c-.37,0-.55-.22-.55-.65s.18-.53.55-.53Zm-3.14,9.22v1.56h1.72c.27,0,.41-.15.41-.46v-.65c0-.3-.14-.45-.41-.45Zm.64-5.78a.55.55,0,0,1,.53.29,4.81,4.81,0,0,1,.29.92.54.54,0,0,1,0,.18c0,.36-.18.54-.56.54s-.52-.15-.53-.46a7.17,7.17,0,0,0-.23-1l0-.1C234.75,58.26,234.91,58.14,235.23,58.14Z"/><path class="cls-1" d="M257.87,57.89a.63.63,0,0,1,.72.7q0,.78-.72.78h-7.52a14.55,14.55,0,0,0,.45,2.15A11.93,11.93,0,0,0,252.52,65a17.8,17.8,0,0,0,2.89,3.32A27.27,27.27,0,0,0,258.73,71a.9.9,0,0,1,.31.65.75.75,0,0,1-.78.78,1.14,1.14,0,0,1-.68-.33,27.43,27.43,0,0,1-4-3.42,20.53,20.53,0,0,1-2.44-3.17,15.06,15.06,0,0,1-1.6-3.32A15.33,15.33,0,0,1,248,65.43a14.33,14.33,0,0,1-1.25,1.81,19.36,19.36,0,0,1,3,2.54.92.92,0,0,1,.15.45c0,.47-.26.7-.78.7a.6.6,0,0,1-.37-.13,35.39,35.39,0,0,0-2.81-2.54l-.39.41a25.35,25.35,0,0,1-3.93,3.53.94.94,0,0,1-.52.24.85.85,0,0,1-.86-.94q0-.25.45-.57a23.86,23.86,0,0,0,3.49-3,17.67,17.67,0,0,0,2.83-3.48,12.77,12.77,0,0,0,1.39-3.13,11,11,0,0,0,.37-2h-7.46c-.47,0-.7-.26-.7-.78a.62.62,0,0,1,.7-.7h7.5V55c0-.49.27-.73.8-.73s.78.24.78.73v2.87Z"/><path class="cls-1" d="M262.58,54.86h1.95a.82.82,0,0,1,.92.94,2.7,2.7,0,0,1-.14.68l-1.11,3.46a2.35,2.35,0,0,0-.06.54,1.45,1.45,0,0,0,.16.65,15.83,15.83,0,0,1,.84,2.19,8.75,8.75,0,0,1,.17,1.7,3.64,3.64,0,0,1-.58,2.09,2.18,2.18,0,0,1-1.92,1,2.46,2.46,0,0,1-.72-.12v3.77c0,.48-.23.73-.7.73s-.63-.25-.63-.73V56.09A1.1,1.1,0,0,1,262,54.86Zm-.49,11.8a2.08,2.08,0,0,0,.57.13,1.06,1.06,0,0,0,.95-.58,2.27,2.27,0,0,0,.35-1.27,6.25,6.25,0,0,0-.13-1.25,11,11,0,0,0-.9-2.35,1.67,1.67,0,0,1-.12-.62,3.37,3.37,0,0,1,.06-.68l1.09-3.7c0-.17-.07-.25-.23-.25H262.5c-.27,0-.41.16-.41.49Zm16.17-4.55a.55.55,0,0,1,.63.62c0,.47-.21.7-.63.7h-8a.91.91,0,0,1-.06.32,7.18,7.18,0,0,1-.39,1.11H277c.89,0,1.33.5,1.33,1.5a33.69,33.69,0,0,1-.18,3.64,3.09,3.09,0,0,1-.6,1.89,2.09,2.09,0,0,1-1.49.49,8,8,0,0,1-2.13-.33.7.7,0,0,1-.44-.61c0-.57.23-.86.7-.86A6.26,6.26,0,0,0,276,71a.58.58,0,0,0,.58-.33,2.76,2.76,0,0,0,.28-1.25c.05-.69.07-1.52.07-2.48,0-.47-.21-.7-.64-.7h-.88a10,10,0,0,1-.74,2.09,8.43,8.43,0,0,1-1.47,2.09,10.85,10.85,0,0,1-2.77,2,1.78,1.78,0,0,1-.45.08.59.59,0,0,1-.47-.24,1,1,0,0,1-.15-.54.6.6,0,0,1,.52-.65,10.45,10.45,0,0,0,2.56-1.83,7.93,7.93,0,0,0,1.23-1.8c.18-.42.35-.82.49-1.21h-1.82a7,7,0,0,1-1.07,2,9.31,9.31,0,0,1-2.11,2,18.13,18.13,0,0,1-4,2,2.14,2.14,0,0,1-.49.08.54.54,0,0,1-.43-.25.83.83,0,0,1-.2-.53.6.6,0,0,1,.55-.63,18.89,18.89,0,0,0,3.85-1.79,7.57,7.57,0,0,0,1.85-1.76,9.6,9.6,0,0,0,.73-1.15h-1.49a1.23,1.23,0,0,1-.31,0,7.71,7.71,0,0,1-.74,1,8.58,8.58,0,0,1-1.16,1,8.4,8.4,0,0,1-1.79.94,2.05,2.05,0,0,1-.53.16.72.72,0,0,1-.51-.22.77.77,0,0,1-.19-.51.58.58,0,0,1,.37-.62,7.31,7.31,0,0,0,1.68-.82,6,6,0,0,0,1-.86,7.07,7.07,0,0,0,.92-1.22,10,10,0,0,0,.63-1.5h-3c-.42,0-.63-.23-.63-.7a.55.55,0,0,1,.63-.62Zm-10.41-7.17h8.53q1.35,0,1.35,1.23v3.44c0,.84-.45,1.27-1.35,1.27h-8.53a1.11,1.11,0,0,1-1.23-1.27V56.17A1.09,1.09,0,0,1,267.85,54.94Zm.1,2.34h8.46v-.62c0-.33-.15-.49-.45-.49h-7.6c-.27,0-.41.16-.41.49Zm8,2.33a.4.4,0,0,0,.45-.45v-.73H268v.73c0,.3.14.45.41.45Z"/><path class="cls-1" d="M283.44,54.45a.62.62,0,0,1,.7.7V68.47c.29-.14.56-.28.82-.43a30.56,30.56,0,0,0,4-2.73l.34-.08c.4,0,.6.23.6.7a1.26,1.26,0,0,1-.45.86,18.39,18.39,0,0,1-3,2.09A29,29,0,0,1,282,71a1.62,1.62,0,0,1-.6.14c-.42,0-.63-.23-.63-.7a.67.67,0,0,1,.47-.69c.55-.2,1-.4,1.5-.58v-14A.62.62,0,0,1,283.44,54.45ZM287,55.72a1,1,0,0,1,.47.16c.61.59,1.17,1.18,1.66,1.75a18,18,0,0,1,2.15,2.85,1,1,0,0,1,.23.45c0,.52-.22.78-.68.78a1.1,1.1,0,0,1-.7-.21c-.81-1.18-1.49-2.12-2-2.79A22.36,22.36,0,0,0,286.54,57a.81.81,0,0,1-.23-.53A.63.63,0,0,1,287,55.72Zm6.62,11.66a9.91,9.91,0,0,1-.68,1A14.16,14.16,0,0,1,289,72a2,2,0,0,1-.66.33.69.69,0,0,1-.78-.78c0-.38.12-.61.37-.7a14,14,0,0,0,3.89-3.62,11.68,11.68,0,0,0,1.81-3.87,18.87,18.87,0,0,0,.49-4.31v-4a.61.61,0,0,1,.68-.7c.52,0,.79.24.79.7v4a22.15,22.15,0,0,1-.53,4.92,15.92,15.92,0,0,1-.72,2l3.9,4.94a1.27,1.27,0,0,1,.33.76.64.64,0,0,1-.72.73c-.32,0-.71-.29-1.17-.86Z"/><path class="cls-1" d="M305.61,57.81a.7.7,0,0,1,0,1.4h-1.23v3.46l.93-.72.22-.08c.47,0,.7.26.7.78a.87.87,0,0,1-.25.55,16.24,16.24,0,0,1-1.6,1.19v6.33c0,1.09-.66,1.64-2,1.64a3.42,3.42,0,0,1-1.23-.33.69.69,0,0,1-.56-.69c0-.45.2-.69.56-.7a.68.68,0,0,1,.2,0,5.08,5.08,0,0,0,1.13.25.4.4,0,0,0,.45-.45V65.19a14,14,0,0,1-1.29.59.89.89,0,0,1-.35.1c-.47,0-.7-.25-.7-.73a.74.74,0,0,1,.56-.78,13.51,13.51,0,0,0,1.78-.8V59.21h-1.56a.7.7,0,1,1,0-1.4H303v-3a.72.72,0,0,1,1.43,0v3Zm11.79,5a.7.7,0,1,1,0,1.4h-4.67v2.13h3.81a.55.55,0,0,1,.63.62c0,.47-.21.71-.63.71h-3.81v2.78a45.21,45.21,0,0,0,5.14.21.7.7,0,0,1,.72.78.77.77,0,0,1-.78.78q-5.3-.06-6.81-.66a6.21,6.21,0,0,1-2.07-1.31,3.63,3.63,0,0,1-.71-.88,7.27,7.27,0,0,1-1.83,2.6.83.83,0,0,1-1.49-.53,1.86,1.86,0,0,1,.18-.49A5.93,5.93,0,0,0,307,68.3a8.2,8.2,0,0,0,.37-2.49c0-.44.24-.65.71-.65a.63.63,0,0,1,.7.72,11.17,11.17,0,0,1-.18,2.05,4,4,0,0,0,.9,1.13,4.53,4.53,0,0,0,1.78,1v-5.9h-4.22a.7.7,0,1,1,0-1.4Zm-9-8.2h7.24c.85,0,1.27.39,1.27,1.19v4.43c0,.79-.42,1.19-1.27,1.19h-7.24c-.85,0-1.27-.4-1.27-1.19V55.8C307.17,55,307.59,54.61,308.44,54.61Zm.15,2.75h6.94v-.94q0-.54-.45-.54h-6q-.45,0-.45.54Zm6.49,2.79q.45,0,.45-.54v-1.1h-6.94v1.1q0,.54.45.54Z"/><path class="cls-1" d="M329.53,53.84a.69.69,0,0,1,.78.77v.87h7.56c.43,0,.65.21.65.62s-.22.71-.65.71H321.39c-.42,0-.63-.23-.63-.71a.55.55,0,0,1,.63-.62h7.34v-.87A.7.7,0,0,1,329.53,53.84Zm-7.13,9.59h14.4a1.23,1.23,0,0,1,1.38,1.41v5.7c0,1.25-.69,1.88-2.09,1.88a13.94,13.94,0,0,1-2.36-.24.68.68,0,0,1-.47-.62c0-.52.18-.78.55-.78a3.79,3.79,0,0,1,.53,0,10.63,10.63,0,0,0,1.6.17c.57,0,.86-.26.86-.78V65.37c0-.41-.19-.61-.57-.61H322.87c-.36,0-.55.2-.55.61v6.4c0,.48-.22.73-.68.73s-.7-.25-.7-.73V64.84A1.27,1.27,0,0,1,322.4,63.43Zm2-5.45h10.29c.79,0,1.19.37,1.19,1.1V61c0,.73-.4,1.1-1.19,1.1H324.38c-.8,0-1.2-.37-1.2-1.1V59.08C323.18,58.35,323.58,58,324.38,58Zm1.15,8h8c.71,0,1.07.34,1.07,1v2.21c0,.66-.36,1-1.07,1h-8a.88.88,0,0,1-1-1V67A.89.89,0,0,1,325.53,65.93ZM334,60.88c.28,0,.41-.17.41-.49V59.7c0-.32-.13-.49-.41-.49h-9c-.27,0-.41.17-.41.49v.69c0,.32.14.49.41.49Zm-1.23,8c.3,0,.45-.16.45-.49v-.78a.4.4,0,0,0-.45-.45h-6.58c-.25,0-.37.15-.37.45v.78c0,.33.12.49.37.49Z"/><path class="cls-1" d="M347.87,60.15c.54,0,.8.41.8,1.1a5.82,5.82,0,0,1-.23,1.48.64.64,0,0,1-.71.49.41.41,0,0,1-.21,0,1.59,1.59,0,0,1,.14.66v6.55c0,1.31-.52,2-1.57,2a4.26,4.26,0,0,1-1.5-.33c-.3-.11-.45-.28-.45-.53,0-.52.18-.78.53-.78a1,1,0,0,1,.31.06,3,3,0,0,0,1,.23q.45,0,.45-.78V68.84H343v2.87a.57.57,0,0,1-.63.65c-.4,0-.6-.22-.6-.65V63.84c0-.79.44-1.19,1.31-1.19h3.43a1.21,1.21,0,0,1,.81.24.53.53,0,0,1,0-.16c.1-.61.15-1,.15-1.07s-.12-.32-.37-.32h-4.86a.47.47,0,0,0-.53.53v1a.55.55,0,0,1-.62.62c-.43,0-.65-.21-.65-.62V61.42c0-.77.34-1.18,1-1.25v-4a1,1,0,0,1,1.11-1.1h4.3a1,1,0,0,1,1.07,1.1Zm-1.07-2.63v-.73a.55.55,0,0,0-.63-.62h-3.06a.54.54,0,0,0-.61.62v3.36H344V58.67c0-.77.43-1.15,1.27-1.15ZM343,65.15h3.44v-.94c0-.24-.06-.37-.16-.37h-3.12c-.11,0-.16.13-.16.37Zm0,2.58h3.44V66.25H343Zm2.21-7.58h1.64V58.43h-1c-.4,0-.6.24-.6.73Zm6,8.36c.11,0,.23.08.37.24a11.17,11.17,0,0,1,1.19,1.64.86.86,0,0,1,.08.33H355a.39.39,0,0,1,.08-.24,12.26,12.26,0,0,0,1-1.64.52.52,0,0,1,.55-.33.9.9,0,0,1,.53.16.52.52,0,0,1,.23.41,1,1,0,0,1-.08.37,6.66,6.66,0,0,1-.84,1.27H358a.56.56,0,0,1,.64.62c0,.41-.21.61-.64.61h-8.81c-.42,0-.63-.2-.63-.61a.55.55,0,0,1,.63-.62h2.21c-.26-.4-.54-.8-.82-1.19a1,1,0,0,1-.16-.37C350.45,68.73,350.69,68.51,351.17,68.51Zm6.94-6.64c.41,0,.62.22.62.65a.55.55,0,0,1-.62.62h-8.58a.56.56,0,0,1-.64-.62.57.57,0,0,1,.64-.65Zm-7.88-6.64h1.65V54.7c0-.36.17-.54.52-.54s.63.18.63.54v.53h1.35V54.7c0-.36.17-.54.52-.54s.63.18.63.54v.53H357c.67,0,1,.31,1,.94v3.77c0,.62-.33.94-1,.94h-6.8a.83.83,0,0,1-.93-.94V56.17A.83.83,0,0,1,350.23,55.23Zm.14,8.93H357a.81.81,0,0,1,.92.91v2.29a.83.83,0,0,1-.92.94h-6.66a.83.83,0,0,1-.92-.94V65.07A.81.81,0,0,1,350.37,64.16Zm.08-6.64h1.43V56.34h-.94c-.33,0-.49.18-.49.53Zm1.43,2.26V58.51h-1.43v.7c0,.38.16.57.49.57ZM356.23,67c.33,0,.49-.15.49-.45v-.7a.43.43,0,0,0-.49-.49h-5.06a.43.43,0,0,0-.49.49v.7c0,.3.17.45.49.45ZM353,56.34v1.18h1.35V56.34Zm1.35,3.44V58.51H353v1.27Zm1.15-3.44v1.18h1.35v-.65c0-.35-.19-.53-.57-.53Zm.78,3.44a.5.5,0,0,0,.57-.57v-.7h-1.35v1.27Z"/><path class="cls-1" d="M361.31,59.94a.87.87,0,0,1,.49.21A15.42,15.42,0,0,1,364,62.2a.94.94,0,0,1,.18.45c0,.48-.26.73-.78.73a.92.92,0,0,1-.49-.16,27.62,27.62,0,0,0-2.19-2.13,1,1,0,0,1-.15-.37A.69.69,0,0,1,361.31,59.94Zm2.21,5c.46,0,.7.26.7.78a21.16,21.16,0,0,1-.7,3.08,18.64,18.64,0,0,1-1.35,3,.75.75,0,0,1-.71.49c-.52,0-.78-.23-.78-.7a.67.67,0,0,1,.18-.33,14.54,14.54,0,0,0,1.21-2.7,21.63,21.63,0,0,0,.8-3.16A.59.59,0,0,1,363.52,64.94Zm-.86-10.08a.75.75,0,0,1,.45.21A15.69,15.69,0,0,1,365.16,57a1.12,1.12,0,0,1,.15.49c0,.47-.26.7-.78.7A.91.91,0,0,1,364,58c-.66-.65-1.36-1.28-2.09-1.89a1.26,1.26,0,0,1-.15-.45C361.8,55.12,362.08,54.86,362.66,54.86Zm4.51,9.3h8.92c.88,0,1.31.41,1.31,1.23v5.17H378q.72,0,.72.69a.63.63,0,0,1-.72.7H365.16a.63.63,0,0,1-.71-.7.62.62,0,0,1,.71-.69h.78V65.39A1.09,1.09,0,0,1,367.17,64.16Zm.55-9.09h7.65c.78,0,1.17.37,1.17,1.1v5.49c0,.71-.39,1.07-1.17,1.07h-7.65a1,1,0,0,1-1.1-1.07V56.17A1,1,0,0,1,367.72,55.07Zm-.32,15.49h2.05v-5h-1.64c-.27,0-.41.15-.41.45Zm7.33-9.06a.43.43,0,0,0,.48-.49V56.79q0-.45-.48-.45h-6.37c-.28,0-.41.15-.41.45V61c0,.33.13.49.41.49Zm-3.09-4.92a.77.77,0,0,1,.45.13.61.61,0,0,1,.23.49,1.23,1.23,0,0,1-.07.37l-.32.61.16,0a11.44,11.44,0,0,1,1.09.62,7,7,0,0,1,1.41,1,.93.93,0,0,1,.16.37c0,.43-.18.65-.53.65a1.23,1.23,0,0,1-.63-.16,13.25,13.25,0,0,0-1.32-.92c-.3-.19-.65-.39-1-.59h0l-.16.17a10.52,10.52,0,0,1-1.52,1.35A.89.89,0,0,1,369,61c-.45,0-.68-.21-.68-.62a.47.47,0,0,1,.16-.37A10,10,0,0,0,370,58.71,6.92,6.92,0,0,0,371.17,57,.43.43,0,0,1,371.64,56.58Zm-.78,14h1.8v-5h-1.8Zm3.18,0h1.9V66c0-.3-.17-.45-.49-.45H374Z"/><path class="cls-2" d="M392.58,63.34a3.07,3.07,0,0,1-5.22,2.16,3.1,3.1,0,0,1,0-4.33,3.05,3.05,0,0,1,5.22,2.17Zm-1.06,0a2,2,0,0,0-2-2,1.94,1.94,0,0,0-1.41.59,2,2,0,0,0,0,2.81,2,2,0,0,0,2.82,0A1.91,1.91,0,0,0,391.52,63.34Z"/><path class="cls-1" d="M1.17,81.86H4.75c1,0,1.42.44,1.42,1.31v3.12c0,.9-.47,1.35-1.42,1.35H2.66c-.33,0-.49,1-.49,3a.29.29,0,0,0,.33.33h3c.62,0,.93.46.93,1.39a20.21,20.21,0,0,1-.25,2.81,9,9,0,0,1-.84,3.13c-.32.74-1.08,1.11-2.26,1.11A7.19,7.19,0,0,1,1.23,99a.63.63,0,0,1-.55-.7.62.62,0,0,1,.71-.69,5.08,5.08,0,0,0,1.72.37c.75,0,1.22-.5,1.4-1.5a20.34,20.34,0,0,0,.39-3.55c0-.38-.12-.57-.37-.57H1.72c-.69,0-1-.41-1-1.23a23.7,23.7,0,0,1,.22-3.2c.13-1.11.43-1.67.9-1.67H4.3a.33.33,0,0,0,.37-.37V83.66c0-.28-.13-.41-.37-.41H1.17q-.72,0-.72-.69A.63.63,0,0,1,1.17,81.86ZM11.23,81a.8.8,0,0,1,.51.2.69.69,0,0,1,.21.5,1,1,0,0,1-.15.53c-.38.72-.78,1.4-1.21,2-.17.25-.35.48-.53.7,2-.09,3.92-.22,5.62-.39q-.6-.78-1.23-1.5a1,1,0,0,1-.15-.37.69.69,0,0,1,.78-.78.75.75,0,0,1,.45.21,27,27,0,0,1,2.83,3.6,1.14,1.14,0,0,1,.16.46c0,.49-.27.73-.79.73a.69.69,0,0,1-.41-.16c-.24-.36-.5-.71-.76-1h0c-1.12.14-2.21.26-3.28.35v2.07H16.8A1,1,0,0,1,18,89.29v3.52A1,1,0,0,1,16.8,94H13.26v3.24c1,0,2-.12,2.85-.19a8.73,8.73,0,0,0-.58-1,1,1,0,0,1-.16-.41.7.7,0,0,1,.8-.78.75.75,0,0,1,.47.25,24.12,24.12,0,0,1,1.72,3.11,1.15,1.15,0,0,1,.16.49c0,.46-.27.7-.79.7a.88.88,0,0,1-.48-.16c-.16-.35-.32-.68-.49-1a.78.78,0,0,1-.22,0c-3.24.32-6.34.56-9.29.7-.47,0-.71-.29-.71-.86a.63.63,0,0,1,.71-.7c1.6,0,3.11-.06,4.55-.12V94H8.44a1,1,0,0,1-1.19-1.16V89.29c0-.75.39-1.12,1.19-1.12H11.8v-2c-1.55.13-3.07.24-4.55.32-.41,0-.61-.29-.61-.86,0-.39.2-.59.61-.61s.79,0,1.17,0c.3-.39.57-.78.82-1.17a28.65,28.65,0,0,0,1.37-2.58A.75.75,0,0,1,11.23,81Zm.57,11.64V89.5H9a.33.33,0,0,0-.37.37v2.28c0,.33.13.49.37.49Zm4.37,0c.25,0,.37-.16.37-.49V89.87a.32.32,0,0,0-.37-.37H13.26v3.14Z"/><path class="cls-1" d="M37.58,86.08a.61.61,0,0,1,.68.7c0,.52-.23.78-.68.78H30.41c.08.47.2,1,.35,1.53a11.89,11.89,0,0,0,1.66,3.3,17.92,17.92,0,0,0,2.79,3.06,24.47,24.47,0,0,0,3.23,2.48,1,1,0,0,1,.29.65.76.76,0,0,1-.78.78,1.27,1.27,0,0,1-.7-.33,26.79,26.79,0,0,1-3.83-3.13,19.85,19.85,0,0,1-2.37-3,13.63,13.63,0,0,1-1.52-3.06,14.53,14.53,0,0,1-1.52,3,19.53,19.53,0,0,1-2.42,3,24.41,24.41,0,0,1-3.79,3.23,1.06,1.06,0,0,1-.57.25.86.86,0,0,1-.86-.94c0-.17.16-.35.49-.54a25.52,25.52,0,0,0,3.38-2.8A17.82,17.82,0,0,0,27,91.86a11.84,11.84,0,0,0,1.35-2.93,12.57,12.57,0,0,0,.29-1.37H21.54c-.45,0-.68-.26-.68-.78a.61.61,0,0,1,.68-.7h7.19V82.15a.7.7,0,0,1,.8-.78.69.69,0,0,1,.78.78v3.93Z"/><path class="cls-1" d="M44.9,81.08a.66.66,0,0,1,.49.19.74.74,0,0,1,.22.51,1.05,1.05,0,0,1-.16.53,10.91,10.91,0,0,1-.76,1.44,4.86,4.86,0,0,1-.35.53H47c.88,0,1.31.41,1.31,1.23V97.58A1.16,1.16,0,0,1,47,98.89H42.17a1.16,1.16,0,0,1-1.31-1.31V85.51c0-.82.44-1.23,1.31-1.23h.51a6.33,6.33,0,0,0,.58-.92,20.77,20.77,0,0,0,1-2A.7.7,0,0,1,44.9,81.08Zm-2.65,9.43h4.63V86.17a.5.5,0,0,0-.57-.56h-3.5a.49.49,0,0,0-.56.56Zm4.06,7c.38,0,.57-.21.57-.62v-5.1H42.25v5.1c0,.41.18.62.56.62Zm4.92-16.4c.48,0,.72.2.72.62,0,.72-.1,1.36-.19,1.93H57c.94,0,1.41.53,1.41,1.57q0,4.65-.29,8.49c-.19,2.27-.58,3.75-1.18,4.46a3.42,3.42,0,0,1-2.75,1.11,9.17,9.17,0,0,1-3.61-.86.81.81,0,0,1-.53-.7c0-.58.25-.86.76-.86a9.27,9.27,0,0,0,3.28.94,1.93,1.93,0,0,0,1.86-1,9.77,9.77,0,0,0,.76-3.73c.14-2,.22-4.47.22-7.31,0-.52-.24-.78-.71-.78H51.5a9.61,9.61,0,0,1-1.13,2.74,1.07,1.07,0,0,1-.7.37c-.58,0-.86-.26-.86-.78,0-.08.08-.2.23-.37a8.43,8.43,0,0,0,1.1-2.44,15.46,15.46,0,0,0,.39-2.78C50.53,81.36,50.76,81.16,51.23,81.16Zm.65,6.77a.7.7,0,0,1,.52.32A30.52,30.52,0,0,1,53.81,93a2.51,2.51,0,0,1,.08.57c0,.47-.29.7-.86.7-.28,0-.48-.19-.63-.57A34.18,34.18,0,0,0,51.31,89a1.08,1.08,0,0,1-.14-.45C51.17,88.12,51.41,87.93,51.88,87.93Z"/><path class="cls-1" d="M64.45,81.61a.77.77,0,0,1,.51.19.63.63,0,0,1,.27.51,1.64,1.64,0,0,1-.07.41c-.16.69-.34,1.33-.53,1.93H69V81.78a.62.62,0,0,1,.71-.7c.52,0,.78.23.78.7v2.87h6.72c.47,0,.7.24.7.73a.62.62,0,0,1-.7.7H70.45v4.67h6a.7.7,0,1,1,0,1.4h-6v5.16h7.42a.7.7,0,1,1,0,1.4H61.39a.7.7,0,1,1,0-1.4H69V92.15H63.11a.7.7,0,1,1,0-1.4H69V86.08H64.14c-.09.19-.17.37-.23.53a18.4,18.4,0,0,1-1.59,2.91,1.05,1.05,0,0,1-.52.29c-.52,0-.78-.24-.78-.7a.6.6,0,0,1,.15-.4A16.67,16.67,0,0,0,62.7,85.9a20.4,20.4,0,0,0,1.19-3.83A.53.53,0,0,1,64.45,81.61Z"/><path class="cls-1" d="M86.23,81.94a.57.57,0,0,1,.65.63c0,.46-.22.7-.65.7H83.89a1.67,1.67,0,0,1-.08.32c-.09.68-.19,1.32-.29,1.92h2.16c.75,0,1.12.42,1.12,1.27a19,19,0,0,1-.41,4A16.35,16.35,0,0,1,85,95.12a14.22,14.22,0,0,1-3.44,4.24,1.31,1.31,0,0,1-.52.16.71.71,0,0,1-.79-.81.83.83,0,0,1,.22-.46,13.79,13.79,0,0,0,3.09-3.42,14.18,14.18,0,0,0,.78-1.56.5.5,0,0,1-.18-.1,23.64,23.64,0,0,0-2.32-1.7c-.09.22-.19.42-.28.6s-.34.32-.45.32c-.52,0-.78-.21-.78-.61a.93.93,0,0,1,.14-.49,24.59,24.59,0,0,0,1.19-3.55,43.9,43.9,0,0,0,.9-4.47H81.17c-.43,0-.64-.24-.64-.7a.56.56,0,0,1,.64-.63Zm-4,8.49.31.06A23.08,23.08,0,0,1,84.75,92c.15-.51.28-1,.39-1.57a19.3,19.3,0,0,0,.31-3.16c0-.3-.12-.45-.37-.45H83.22c-.11.56-.24,1.09-.39,1.6C82.64,89.14,82.42,89.81,82.19,90.43ZM89,85.84h2.69a1.13,1.13,0,0,1,.14-.4c.12-.48.21-.92.29-1.32H87.89c-.42,0-.62-.23-.62-.69a.55.55,0,0,1,.62-.63h4.48c.09-.41.17-.77.22-1.1a.65.65,0,0,1,.6-.49c.52,0,.78.25.78.73a.92.92,0,0,1-.15.45,3.7,3.7,0,0,0-.06.41h4a.56.56,0,0,1,.63.63q0,.69-.63.69H93.5c-.11.56-.25,1.13-.41,1.72h3.3q1.11,0,1.11,1V97.48h.86a.54.54,0,0,1,.6.62c0,.47-.2.71-.6.71H86.25c-.42,0-.63-.24-.63-.71a.55.55,0,0,1,.63-.62H88V86.86A.9.9,0,0,1,89,85.84Zm.32,2.87h6.87V87.48a.36.36,0,0,0-.41-.41H89.59c-.2,0-.29.14-.29.41Zm0,2.82h6.87V89.89H89.3Zm0,2.91h6.87V92.72H89.3Zm0,3h6.87V95.59H89.3Z"/><path class="cls-1" d="M101.39,84.52h6.81q.17-1.35.24-2.82c0-.36.26-.54.7-.54s.76.23.76.7a26.64,26.64,0,0,1-.17,2.66h6.66c1,0,1.56.56,1.56,1.69q0,4.35-.27,7.9c-.2,2.1-.6,3.48-1.22,4.14a3.59,3.59,0,0,1-2.79,1,15.81,15.81,0,0,1-4.14-.62.89.89,0,0,1-.57-.78c0-.63.27-.94.79-.94a14.6,14.6,0,0,0,3.77.7,1.94,1.94,0,0,0,1.83-.9,7.82,7.82,0,0,0,.76-3.32q.19-2.74.2-6.56c0-.57-.26-.86-.78-.86h-6a29,29,0,0,1-1.07,5,16.9,16.9,0,0,1-2.62,4.78,15.13,15.13,0,0,1-4,3.34,1.32,1.32,0,0,1-.58.22c-.63,0-.94-.29-.94-.86a.63.63,0,0,1,.39-.62,16.41,16.41,0,0,0,4.06-3.56,13.76,13.76,0,0,0,2.35-4.43A22,22,0,0,0,108,86h-6.64a.69.69,0,0,1-.78-.78C100.61,84.75,100.87,84.52,101.39,84.52Z"/><path class="cls-2" d="M130.94,89.26a4.21,4.21,0,0,1-1.17,2.58c-.37.46-.68.68-.94.68s-.37-.13-.37-.39a2.14,2.14,0,0,1,.41-.68,1.7,1.7,0,0,0,.43-.72c0-.12-.18-.3-.53-.55a1.14,1.14,0,0,1-.16-1.84,1.43,1.43,0,0,1,1-.37,1.26,1.26,0,0,1,.92.39A1.19,1.19,0,0,1,130.94,89.26Z"/><path class="cls-2" d="M145.23,86.16a.7.7,0,1,1,0,1.4H144v6.49c.28-.19.56-.39.86-.63l.33-.08c.52,0,.79.29.79.86a.72.72,0,0,1-.28.49,8.4,8.4,0,0,1-1.66,1.23,13,13,0,0,1-2.44,1.23.88.88,0,0,1-.33.08.69.69,0,0,1-.78-.78.84.84,0,0,1,.56-.86,14.63,14.63,0,0,0,1.57-.68V87.56h-1.35a.7.7,0,0,1,0-1.4h1.35V82.07a.62.62,0,0,1,.7-.7.61.61,0,0,1,.68.7v4.09Zm8,6.32H152a7.76,7.76,0,0,1-.11.92,6.3,6.3,0,0,1-.34,1.31,3.83,3.83,0,0,1-.78,1.23,5.09,5.09,0,0,1-1.19.86.33.33,0,0,1-.15.06c-.53,0-.79-.24-.79-.7a.62.62,0,0,1,.3-.57,3.15,3.15,0,0,0,.91-.74,2.42,2.42,0,0,0,.53-.92,5.48,5.48,0,0,0,.26-1.45h-2.48v4c0,.69.31,1,.93,1h8.28a.55.55,0,0,1,.63.62c0,.47-.21.71-.63.71h-8.59a1.78,1.78,0,0,1-2-2V92.48h-1.27c-.42,0-.63-.23-.63-.7a.55.55,0,0,1,.63-.62h1.8V84.05h-1.31c-.42,0-.63-.23-.63-.7a.56.56,0,0,1,.63-.63h1.31v-.86a.62.62,0,0,1,.7-.7.63.63,0,0,1,.72.7v.86H155v-.86a.61.61,0,0,1,.68-.7.62.62,0,0,1,.71.7v.86h1.11a.55.55,0,0,1,.61.63c0,.47-.21.7-.61.7h-1.11v7.11h1.48c.43,0,.65.2.65.62s-.22.7-.65.7h-3.28v2.17c0,.22.08.33.23.33h2.35c.38,0,.56.21.56.61s-.18.62-.56.62h-2.64A1.1,1.1,0,0,1,153.26,95Zm-4.59-7H155V84.05h-6.33Zm0,2.66H155V86.7h-6.33Zm0,3.07H155v-1.8h-6.33Z"/><path class="cls-2" d="M165.94,81.37c.47,0,.7.26.7.78s-.29.63-.88.73c-.36.11-.83.22-1.38.33v3.16h1.48a.61.61,0,0,1,.68.7c0,.49-.22.73-.68.73h-1.48v.5l2.14,3.4a1.1,1.1,0,0,1,.2.53c0,.43-.24.65-.7.65a.54.54,0,0,1-.51-.36l-1.13-2.16v8.43a.72.72,0,1,1-1.43,0V91.06c-.24.82-.46,1.48-.66,2a9.18,9.18,0,0,1-.75,1.76.69.69,0,0,1-.6.41c-.47,0-.71-.22-.71-.65a1.31,1.31,0,0,1,.14-.54A27.21,27.21,0,0,0,162,90.18a21.55,21.55,0,0,0,.65-2.38h-1.74a.64.64,0,0,1-.71-.73.63.63,0,0,1,.71-.7h2V83.46a12.29,12.29,0,0,1-1.72.2c-.57,0-.86-.26-.86-.78s.24-.65.72-.65a17.07,17.07,0,0,0,2.35-.19A11.21,11.21,0,0,0,165.94,81.37Zm2.73,6.19h3.05v-.33a.61.61,0,0,1,.68-.7.62.62,0,0,1,.71.7v.33h3.35c.85,0,1.27.39,1.27,1.15v5.65h.79a.55.55,0,0,1,.62.62.54.54,0,0,1-.62.61h-.79v1.89q0,2-2.28,2a9.09,9.09,0,0,1-2.64-.49c-.32-.11-.49-.28-.49-.53,0-.52.19-.78.55-.78a2.2,2.2,0,0,1,.61.1,7,7,0,0,0,1.83.35c.67,0,1-.26,1-.78v-1.8h-7.64v3.2a.64.64,0,0,1-.72.73c-.47,0-.7-.25-.7-.73v-3.2h-.79a.53.53,0,0,1-.6-.61.54.54,0,0,1,.6-.62h.79V88.71C167.25,88,167.72,87.56,168.67,87.56Zm-1.27-3.77a.94.94,0,0,1,.47.16c.3.27.57.53.8.78a8.25,8.25,0,0,1,1,1.27.87.87,0,0,1,.15.37c0,.43-.17.65-.52.65a1.23,1.23,0,0,1-.63-.16c-.38-.5-.69-.89-.94-1.17L167,85a.9.9,0,0,1-.23-.54C166.8,84,167,83.79,167.4,83.79Zm9.32-2.58q.6,0,.6.81c0,.32-.26.53-.78.62a40.41,40.41,0,0,1-4.2.55c-2,.21-3.32.31-4.08.31-.51,0-.76-.23-.76-.7s.2-.65.61-.65c1.49,0,2.88-.08,4.16-.21A30.85,30.85,0,0,0,176.72,81.21Zm-8.05,9.71h3.05V88.79H169c-.24,0-.37.19-.37.57Zm0,3.44h3.05V92.15h-3.05ZM172,83.58a.57.57,0,0,1,.37.21,11.14,11.14,0,0,1,1.27,1.43,1.41,1.41,0,0,1,.06.37c0,.38-.21.57-.62.57a1,1,0,0,1-.38-.08c-.43-.5-.87-1-1.34-1.43a.89.89,0,0,1-.16-.37C171.23,83.81,171.5,83.58,172,83.58Zm1.08,5.21v2.13h3.2V89.36c0-.38-.13-.57-.37-.57Zm0,3.36v2.21h3.2V92.15Zm4.29-9.06c.47,0,.71.21.71.62a1.51,1.51,0,0,1-.3.81,12,12,0,0,1-1.5,2.09.72.72,0,0,1-.45.17c-.47,0-.7-.21-.7-.62a1,1,0,0,1,.15-.49A11.57,11.57,0,0,0,177,83.42.5.5,0,0,1,177.4,83.09Z"/><path class="cls-2" d="M197.87,89.73a.57.57,0,0,1,.65.64c0,.46-.22.69-.65.69h-7.79v2.28h6.38a.55.55,0,0,1,.63.62c0,.47-.21.71-.63.71h-6.38v2.6a70.3,70.3,0,0,0,8.1.31.7.7,0,0,1,.71.78.73.73,0,0,1-.78.76c-5.07,0-8.34-.26-9.81-.7a9.62,9.62,0,0,1-3-1.38,5.22,5.22,0,0,1-1.19-1.2,2.44,2.44,0,0,0-.1.24,9.35,9.35,0,0,1-1.89,3,1.31,1.31,0,0,1-.86.42c-.63,0-.94-.29-.94-.86,0-.1.11-.23.31-.41a7.61,7.61,0,0,0,1.9-2.66,11.47,11.47,0,0,0,.68-3.13.63.63,0,0,1,.7-.71c.53,0,.79.24.79.71a18.45,18.45,0,0,1-.24,1.88A5.31,5.31,0,0,0,186,95.84,7.81,7.81,0,0,0,188.59,97V91.06h-7.5c-.43,0-.64-.23-.64-.69a.56.56,0,0,1,.64-.64Zm-14.61-8h12.19c.85,0,1.27.39,1.27,1.18V87c0,.76-.42,1.15-1.27,1.15H183.26c-.82,0-1.23-.39-1.23-1.15V82.88C182,82.09,182.44,81.7,183.26,81.7Zm.18,2.58h11.87v-.86c0-.32-.13-.49-.41-.49H183.81c-.25,0-.37.17-.37.49Zm11.46,2.66c.28,0,.41-.17.41-.49v-1H183.44v1c0,.32.12.49.37.49Z"/><path class="cls-2" d="M201.31,86.78a.82.82,0,0,1,.49.24A15.19,15.19,0,0,1,203.59,89a1.23,1.23,0,0,1,.14.49c0,.47-.26.7-.78.7a.57.57,0,0,1-.37-.16,24.4,24.4,0,0,0-1.9-2,1,1,0,0,1-.15-.37A.69.69,0,0,1,201.31,86.78Zm1.87,4.92c.47,0,.71.26.71.78a20.85,20.85,0,0,1-.59,3.11,18.85,18.85,0,0,1-1.13,3.07.76.76,0,0,1-.71.45c-.46,0-.7-.21-.7-.61a.87.87,0,0,1,.1-.33A17.47,17.47,0,0,0,202,95.39a31.13,31.13,0,0,0,.71-3.24A.48.48,0,0,1,203.18,91.7Zm-.93-10a.77.77,0,0,1,.48.24,15,15,0,0,1,1.65,1.85,1.08,1.08,0,0,1,.15.49c0,.47-.27.7-.8.7a.54.54,0,0,1-.37-.17c-.55-.68-1.12-1.32-1.72-1.93a1.06,1.06,0,0,1-.18-.4A.7.7,0,0,1,202.25,81.7Zm5.62-.7a.78.78,0,0,1,.49.16.49.49,0,0,1,.23.45,1.72,1.72,0,0,1-.07.46c0,.15-.08.28-.12.41h9.47c.43,0,.65.21.65.62s-.22.71-.65.71h-10a1.79,1.79,0,0,1-.16.31,8.59,8.59,0,0,1-1.13,1.67A5.72,5.72,0,0,1,205.37,87a.85.85,0,0,1-.47.13.7.7,0,0,1-.49-.21.91.91,0,0,1-.19-.57.59.59,0,0,1,.23-.45,6,6,0,0,0,1.08-1,7.53,7.53,0,0,0,.95-1.53,7.45,7.45,0,0,0,.69-1.83A.66.66,0,0,1,207.87,81Zm.57,4.67h7.87a1,1,0,0,1,1.09,1.11c0,.38-.11,1.53-.33,3.46v.06h1.19a.7.7,0,1,1,0,1.4h-1.35c-.14,1.29-.32,2.52-.54,3.68h1.5c.48,0,.72.2.72.62a.63.63,0,0,1-.72.7h-1.74a5.22,5.22,0,0,1-.72,2.23,1.6,1.6,0,0,1-1.27.51,13.51,13.51,0,0,1-3.46-.41.75.75,0,0,1-.6-.78.61.61,0,0,1,.68-.69A20.36,20.36,0,0,0,214,98c.33,0,.54-.27.65-.82,0-.15.08-.32.12-.49H206c-.68,0-1-.28-1-.86a1.86,1.86,0,0,1,.14-.7c.5-1.44.88-2.59,1.11-3.44H204.9a.7.7,0,0,1,0-1.4h1.7a34.17,34.17,0,0,0,.57-3.44A1.19,1.19,0,0,1,208.44,85.67ZM215,95.38c.16-.92.3-1.92.43-3,0-.24,0-.46.08-.67h-7.85c-.28,1.15-.59,2.3-.94,3.44,0,.16.1.24.31.24Zm-7-5.08h7.69c.12-1,.21-2,.28-2.93,0-.25-.17-.37-.49-.37h-6.31c-.39,0-.6.18-.62.55C208.37,88.45,208.19,89.37,208,90.3Zm2.4,1.85a1.06,1.06,0,0,1,.49.16l.7.57a6.68,6.68,0,0,1,.94.91.78.78,0,0,1,.23.41c0,.41-.21.61-.64.61a1,1,0,0,1-.63-.24,9.92,9.92,0,0,0-.84-.76c-.18-.15-.39-.31-.62-.47a.83.83,0,0,1-.25-.54C209.75,92.37,210,92.15,210.37,92.15Zm.8-4.67a1.13,1.13,0,0,1,.47.16c.26.14.51.29.74.43a7.47,7.47,0,0,1,1,.72.78.78,0,0,1,.23.41c0,.41-.21.61-.64.61a.94.94,0,0,1-.63-.24c-.33-.23-.63-.42-.87-.56a5.53,5.53,0,0,0-.69-.35.91.91,0,0,1-.23-.57C210.53,87.69,210.74,87.48,211.17,87.48Z"/><path class="cls-2" d="M221.31,86.78a.82.82,0,0,1,.49.24A15.1,15.1,0,0,1,224,88.87a1,1,0,0,1,.18.49c0,.47-.26.7-.78.7a.86.86,0,0,1-.49-.17,27.72,27.72,0,0,0-2.19-2,1,1,0,0,1-.15-.37A.69.69,0,0,1,221.31,86.78Zm2.5,5.24q.72,0,.72.78a16.22,16.22,0,0,1-.72,3.08,15.51,15.51,0,0,1-1.31,3,.8.8,0,0,1-.7.49c-.52,0-.78-.24-.78-.7a.7.7,0,0,1,.15-.32,16.82,16.82,0,0,0,1.21-2.71,20.57,20.57,0,0,0,.8-3.15A.58.58,0,0,1,223.81,92ZM222.73,81.7a.71.71,0,0,1,.45.24,13.77,13.77,0,0,1,2,1.93,1.12,1.12,0,0,1,.14.49c0,.47-.26.7-.78.7a.59.59,0,0,1-.37-.17,28.79,28.79,0,0,0-2.13-2,1.33,1.33,0,0,1-.14-.4A.69.69,0,0,1,222.73,81.7Zm12.8-.41a1,1,0,0,1,.6.18.62.62,0,0,1,.26.47,1.18,1.18,0,0,1-.08.37,14,14,0,0,1-1.56,2.5,1.77,1.77,0,0,0-.14.17h2.64a.55.55,0,0,1,.62.62c0,.48-.21.71-.62.71h-4.59v3.21h4.06c.4,0,.6.2.6.62s-.2.7-.6.7h-4.06v3h5.21a.57.57,0,0,1,.65.64c0,.46-.22.69-.65.69h-5.21v3.65c0,.47-.26.7-.78.7a.62.62,0,0,1-.71-.7V95.2h-4.86q-.63,0-.63-.69a.56.56,0,0,1,.63-.64h4.86v-3H227.4c-.4,0-.6-.23-.6-.7s.2-.62.6-.62h3.77V86.31H227c-.43,0-.64-.23-.64-.71A.56.56,0,0,1,227,85h6.52a.62.62,0,0,1-.19-.46.77.77,0,0,1,.08-.41A15.78,15.78,0,0,0,235,81.7.51.51,0,0,1,235.53,81.29Zm-6.86,0c.11,0,.23.08.37.24a14.29,14.29,0,0,1,1.49,2,.92.92,0,0,1,.15.45c0,.42-.22.62-.68.62a.71.71,0,0,1-.41-.13,23.56,23.56,0,0,0-1.56-2,1,1,0,0,1-.16-.37C227.87,81.53,228.14,81.29,228.67,81.29Z"/><path class="cls-2" d="M243,84.81h5.64V82.07a.63.63,0,0,1,.71-.7c.52,0,.78.24.78.7v2.74h6.09c1.19,0,1.78.57,1.78,1.72v5.7c0,1.15-.59,1.72-1.78,1.72h-6.09v4.84c0,.48-.26.73-.78.73a.64.64,0,0,1-.71-.73V94H243a1.52,1.52,0,0,1-1.72-1.72v-5.7A1.52,1.52,0,0,1,243,84.81Zm5.64,7.75V86.21h-5.23c-.42,0-.63.25-.63.73v4.92c0,.47.21.7.63.7Zm7.17,0a.62.62,0,0,0,.7-.7V86.94c0-.48-.23-.73-.7-.73h-5.68v6.35Z"/><path class="cls-2" d="M278.44,88.09c.4,0,.6.2.6.62s-.2.71-.6.71h-9.63v9.35a.71.71,0,1,1-1.41,0v-1.5q-1.17.27-2.91.51c-1,.13-2.21.25-3.63.37q-.6,0-.63-.78a.62.62,0,0,1,.53-.69l1.12-.06v-7.2h-1.2c-.4,0-.6-.24-.6-.71s.2-.62.6-.62ZM263.59,81.7h11.86c.9,0,1.35.39,1.35,1.18v2.87c0,.84-.45,1.27-1.35,1.27H263.59c-.89,0-1.34-.43-1.34-1.27V82.88C262.25,82.09,262.7,81.7,263.59,81.7Zm-.33,9h4.14V89.42h-4.14Zm0,2.67h4.14V91.94h-4.14Zm0,3.11.59-.06c1.3-.12,2.41-.25,3.32-.39a.6.6,0,0,1,.23-.06V94.57h-4.14Zm.41-12.74h11.7v-.45c0-.31-.12-.46-.37-.46H264c-.24,0-.37.15-.37.46Zm11.33,2c.25,0,.37-.18.37-.54v-.49h-11.7v.49c0,.36.13.54.37.54Zm-4.77,4.59h6.23a.83.83,0,0,1,.94.94,3.53,3.53,0,0,1-.51,1.58,12.35,12.35,0,0,1-2.05,3l0,0a.94.94,0,0,0,.2.16A15.2,15.2,0,0,0,278.11,98c.27.2.41.39.41.57a.73.73,0,0,1-.71.78,1.75,1.75,0,0,1-.78-.25A19.12,19.12,0,0,1,273.81,97a13.53,13.53,0,0,1-3.09,2,1.76,1.76,0,0,1-.64.23c-.47,0-.7-.26-.7-.78a.77.77,0,0,1,.52-.7A15.33,15.33,0,0,0,272.71,96a9.23,9.23,0,0,1-1.21-1.58,10.09,10.09,0,0,1-1.19-2.68h-.08c-.46,0-.7-.2-.7-.62S269.77,90.43,270.23,90.43Zm1.41,1.27A15.28,15.28,0,0,0,273,94.07a9,9,0,0,0,.78.88,14.27,14.27,0,0,0,1.83-2.47,1.4,1.4,0,0,0,.24-.62c0-.11-.06-.16-.18-.16Z"/><path class="cls-2" d="M289.59,81a1.2,1.2,0,0,1,.61.21,20.4,20.4,0,0,0,4.45,2.31,25.6,25.6,0,0,0,3.94,1.13.64.64,0,0,1,.55.65.74.74,0,0,1-.7.78,5.87,5.87,0,0,1-1.12-.22,23.28,23.28,0,0,1-4.06-1.44.54.54,0,0,1,.1.31c0,.43-.18.65-.55.65h-6.5c-.37,0-.55-.22-.55-.65a.37.37,0,0,1,.1-.29l-.65.25a30.46,30.46,0,0,1-3.65,1.17,2.69,2.69,0,0,1-.88.22.7.7,0,0,1-.68-.78.63.63,0,0,1,.53-.65,37.12,37.12,0,0,0,4.68-1.44,24.28,24.28,0,0,0,3.74-2A1.26,1.26,0,0,1,289.59,81Zm-6.86,5.45h13.58c.79,0,1.19.34,1.19,1v3c0,.73-.4,1.1-1.19,1.1H282.73c-.79,0-1.19-.37-1.19-1.1v-3C281.54,86.79,281.94,86.45,282.73,86.45ZM284,92.88h11.12c.77,0,1.15.33,1.15,1v4.06c0,.73-.38,1.1-1.15,1.1H284c-.76,0-1.15-.37-1.15-1.1V93.87C282.81,93.21,283.2,92.88,284,92.88Zm4.85-2.5V87.64h-5.45c-.27,0-.41.15-.41.45v1.72c0,.38.14.57.41.57H286c-.33-.53-.66-1-1-1.51a.89.89,0,0,1-.18-.37c0-.42.24-.62.71-.62a.69.69,0,0,1,.41.21,12.74,12.74,0,0,1,1,1.56.9.9,0,0,1,.14.41.73.73,0,0,1-.06.32Zm-4.59,4.92h10.6v-.78c0-.33-.12-.49-.37-.49h-9.86c-.25,0-.37.16-.37.49Zm10.23,2.58c.25,0,.37-.19.37-.57v-.94h-10.6v.94c0,.38.12.57.37.57ZM286.37,84.2h6.4a23.72,23.72,0,0,1-2.52-1.42,1.65,1.65,0,0,0-.66-.3,1,1,0,0,0-.49.18A21.64,21.64,0,0,1,286.37,84.2Zm9.31,6.18c.28,0,.41-.19.41-.57V88.09c0-.3-.13-.45-.41-.45h-5.45v2.74h1.51a4.19,4.19,0,0,0,.45-.59,16,16,0,0,0,.92-1.54.73.73,0,0,1,1.13-.1.69.69,0,0,1,.21.51.81.81,0,0,1-.15.45c-.26.36-.54.71-.82,1l-.24.22Z"/><path class="cls-2" d="M304.45,81.61a.77.77,0,0,1,.51.19.63.63,0,0,1,.27.51,1.64,1.64,0,0,1-.07.41c-.16.69-.34,1.33-.53,1.93H309V81.78a.62.62,0,0,1,.71-.7c.52,0,.78.23.78.7v2.87h6.72c.47,0,.7.24.7.73a.62.62,0,0,1-.7.7h-6.72v4.67h6a.7.7,0,1,1,0,1.4h-6v5.16h7.42a.7.7,0,1,1,0,1.4H301.39a.7.7,0,1,1,0-1.4H309V92.15h-5.85a.7.7,0,1,1,0-1.4H309V86.08h-4.82c-.09.19-.17.37-.23.53a18.4,18.4,0,0,1-1.59,2.91,1.05,1.05,0,0,1-.52.29c-.52,0-.78-.24-.78-.7a.6.6,0,0,1,.15-.4,16.67,16.67,0,0,0,1.53-2.81,20.4,20.4,0,0,0,1.19-3.83A.53.53,0,0,1,304.45,81.61Z"/><path class="cls-2" d="M330,80.92c.51,0,.76.23.76.69v.7H338a.56.56,0,0,1,.64.62.57.57,0,0,1-.64.65h-2a.64.64,0,0,1-.39.53,23.2,23.2,0,0,1-3.19,1.54c1.08.35,2.12.7,3.11,1a.67.67,0,0,1,.33.53.55.55,0,0,1-.18.49h2.58c.47,0,.7.21.7.62s-.23.61-.7.61H323.18q-.45,0-.45.57v2.55a16,16,0,0,1-.46,4.22,9.79,9.79,0,0,1-.88,2.58.66.66,0,0,1-.63.49.7.7,0,0,1-.76-.7,2.35,2.35,0,0,1,.21-.63c.11-.23.21-.51.32-.82.15-.51.3-1,.43-1.52a18.22,18.22,0,0,0,.35-3.62v-3.2c0-.77.42-1.15,1.27-1.15h.68a.67.67,0,0,1-.31-.65q0-.48.57-.54c2-.24,3.62-.51,5-.82-1.29-.38-2.61-.76-4-1.14a.68.68,0,0,1-.39-.54.55.55,0,0,1,.18-.45h-2.78c-.4,0-.6-.22-.6-.65a.54.54,0,0,1,.6-.62h7.76v-.7A.61.61,0,0,1,330,80.92Zm-4.24,8.6a.81.81,0,0,1,.47.13.61.61,0,0,1,.23.49,1.23,1.23,0,0,1-.07.37c-.06.17-.11.33-.16.49h3.85V89.81a.69.69,0,1,1,1.38,0V91h5.86c.42,0,.63.2.63.61a.55.55,0,0,1-.63.62h-5.86v2.13h4.85c.38,0,.57.18.57.53s-.19.62-.57.62h-4.85v2.13H338c.43,0,.64.2.64.61a.56.56,0,0,1-.64.62H323.52c-.43,0-.65-.21-.65-.62s.22-.61.65-.61h6.56V95.51h-4.77c-.38,0-.56-.21-.56-.62s.18-.53.56-.53h4.77V92.23h-4.44a.63.63,0,0,1-.07.12,7.09,7.09,0,0,1-1,1.36c-.21.21-.37.32-.49.32-.52,0-.78-.2-.78-.61a.76.76,0,0,1,.18-.49,8.21,8.21,0,0,0,1.05-1.29,7.09,7.09,0,0,0,.82-1.75A.41.41,0,0,1,325.76,89.52Zm-1.4-1.8h10.39c-1.33-.47-2.73-.93-4.2-1.39a30,30,0,0,1-3.71.94C325.73,87.49,324.9,87.64,324.36,87.72Zm1-4.14c1.86.51,3.61,1,5.25,1.52a27.27,27.27,0,0,0,3.66-1.52Z"/><path class="cls-2" d="M344.9,81.08a.66.66,0,0,1,.49.19.74.74,0,0,1,.22.51,1.05,1.05,0,0,1-.16.53,10.91,10.91,0,0,1-.76,1.44,4.86,4.86,0,0,1-.35.53H347c.88,0,1.31.41,1.31,1.23V97.58A1.16,1.16,0,0,1,347,98.89h-4.78a1.16,1.16,0,0,1-1.31-1.31V85.51c0-.82.44-1.23,1.31-1.23h.51a6.33,6.33,0,0,0,.58-.92,20.77,20.77,0,0,0,1-2A.7.7,0,0,1,344.9,81.08Zm-2.65,9.43h4.63V86.17a.5.5,0,0,0-.57-.56h-3.5a.49.49,0,0,0-.56.56Zm4.06,7c.38,0,.57-.21.57-.62v-5.1h-4.63v5.1c0,.41.18.62.56.62Zm4.92-16.4c.48,0,.72.2.72.62,0,.72-.1,1.36-.19,1.93H357c.94,0,1.41.53,1.41,1.57q0,4.65-.29,8.49c-.19,2.27-.58,3.75-1.18,4.46a3.42,3.42,0,0,1-2.75,1.11,9.17,9.17,0,0,1-3.61-.86.81.81,0,0,1-.53-.7c0-.58.25-.86.76-.86a9.27,9.27,0,0,0,3.28.94,1.93,1.93,0,0,0,1.86-1,9.77,9.77,0,0,0,.76-3.73c.14-2,.22-4.47.22-7.31,0-.52-.24-.78-.71-.78H351.5a9.61,9.61,0,0,1-1.13,2.74,1.07,1.07,0,0,1-.7.37c-.58,0-.86-.26-.86-.78,0-.08.08-.2.23-.37a8.43,8.43,0,0,0,1.1-2.44,15.46,15.46,0,0,0,.39-2.78C350.53,81.36,350.76,81.16,351.23,81.16Zm.65,6.77a.7.7,0,0,1,.52.32A30.52,30.52,0,0,1,353.81,93a2.51,2.51,0,0,1,.08.57c0,.47-.29.7-.86.7-.28,0-.48-.19-.63-.57A34.18,34.18,0,0,0,351.31,89a1.08,1.08,0,0,1-.14-.45C351.17,88.12,351.41,87.93,351.88,87.93Z"/><path class="cls-2" d="M367,82.39h6.08c.74,0,1.11.28,1.11.86a2,2,0,0,1-.59,1,7.64,7.64,0,0,1-1.56,1.29,2,2,0,0,1-.25.16h4.35c.89,0,1.33.42,1.33,1.26v6.06a1.18,1.18,0,0,1-1.33,1.35H363.59a1.19,1.19,0,0,1-1.34-1.35V87a1.27,1.27,0,0,1,.17-.74l-1,.5a.8.8,0,0,1-.45.16.61.61,0,0,1-.47-.21.88.88,0,0,1-.16-.51.68.68,0,0,1,.37-.55A14,14,0,0,0,363,84.47a8.55,8.55,0,0,0,1.6-1.26,13.63,13.63,0,0,0,1.54-1.68.52.52,0,0,1,.45-.24.64.64,0,0,1,.45.18.71.71,0,0,1,.18.47A.77.77,0,0,1,367,82.39Zm-3.77,12.67a.61.61,0,0,1,.7.69,1.55,1.55,0,0,1-.29.86A15,15,0,0,1,362,99.2a1.06,1.06,0,0,1-.56.16c-.47,0-.71-.22-.71-.65a1,1,0,0,1,.18-.54,13.13,13.13,0,0,0,1.87-2.74A.58.58,0,0,1,363.26,95.06Zm.33-9.31h5.94a14,14,0,0,0,1.43-.69,6.29,6.29,0,0,0,1.15-.82q.39-.31.39-.45c0-.09-.08-.13-.25-.13h-6.08l-.19,0-.55.54a10,10,0,0,1-1.66,1.31l-.45.28A1.37,1.37,0,0,1,363.59,85.75Zm.08,3.61H369V87.07h-4.82c-.37,0-.55.19-.55.57ZM369,93.09v-2.4h-5.37v1.8c0,.4.18.6.55.6Zm-2.16,2.13c.18,0,.35.12.52.37A12.11,12.11,0,0,1,368.59,98a2.05,2.05,0,0,1,.08.57c0,.42-.28.62-.86.62-.26,0-.45-.18-.56-.54a11.51,11.51,0,0,0-1-2.45.82.82,0,0,1-.14-.37C366.09,95.43,366.35,95.22,366.88,95.22Zm3.57-8.15v2.29h5.64V87.64a.5.5,0,0,0-.56-.57Zm5.08,6c.38,0,.56-.2.56-.6v-1.8h-5.64v2.4Zm-4,2.13a.66.66,0,0,1,.55.37,12.19,12.19,0,0,1,1.17,2.58,1.73,1.73,0,0,1,.1.54c0,.43-.29.65-.86.65-.25,0-.43-.19-.55-.57a13.46,13.46,0,0,0-1-2.58.68.68,0,0,1-.18-.37C370.76,95.43,371,95.22,371.54,95.22Zm4.32-.08a.75.75,0,0,1,.6.37,12.19,12.19,0,0,1,2,2.74,2.35,2.35,0,0,1,.08.54c0,.43-.29.65-.86.65q-.37,0-.57-.57a10.94,10.94,0,0,0-1.86-2.66,1,1,0,0,1-.15-.46C375.08,95.34,375.34,95.14,375.86,95.14Z"/><path class="cls-2" d="M388.89,93.34c.43,0,.64.21.64.61s-.21.62-.64.62h-3l2.38,2.6a.73.73,0,0,1,.26.47.62.62,0,0,1-.71.7.7.7,0,0,1-.62-.31l-1.9-2.56,0,0a5.46,5.46,0,0,1-1.36,2,8.47,8.47,0,0,1-2.5,1.66,1.53,1.53,0,0,1-.41.16c-.47,0-.71-.26-.71-.78a.64.64,0,0,1,.37-.65,8.34,8.34,0,0,0,2.27-1.42,4.23,4.23,0,0,0,1.19-1.94h-2.75a.62.62,0,1,1,0-1.23h2.91V91.61c0-.46.2-.69.61-.69s.72.23.72.69v1.73Zm-.3-8.28c.42,0,.63.2.63.61a.55.55,0,0,1-.63.62h-2.46l2.52,2.39a.68.68,0,0,1,.24.43.55.55,0,0,1-.63.62.82.82,0,0,1-.66-.27l-1.92-2.15v2.58c0,.41-.23.62-.69.62a.55.55,0,0,1-.63-.62v-2l-.12.17A11.09,11.09,0,0,1,383,89.55a6.11,6.11,0,0,1-1.19,1.12.75.75,0,0,1-.57.25c-.42,0-.62-.18-.62-.54a1,1,0,0,1,.15-.49,15.4,15.4,0,0,0,2.5-2.41,7.06,7.06,0,0,0,.8-1.19h-2.67a.55.55,0,0,1-.63-.62c0-.41.21-.61.63-.61h3v-3.2a.57.57,0,0,1,.63-.65c.46,0,.69.22.69.65v3.2Zm-6.79-3.2a.55.55,0,0,1,.37.21,13.45,13.45,0,0,1,1.19,1.51,1.12,1.12,0,0,1,.08.37q0,.57-.63.57a.71.71,0,0,1-.31-.08,14.65,14.65,0,0,0-1.27-1.56,1.33,1.33,0,0,1-.14-.4C381.09,82.07,381.33,81.86,381.8,81.86Zm6.46-.08c.42,0,.63.2.63.61a1.14,1.14,0,0,1-.3.7,9.52,9.52,0,0,1-1,1.19.69.69,0,0,1-.41.16q-.63,0-.63-.57a.56.56,0,0,1,.18-.37,7.61,7.61,0,0,0,1.09-1.43A.51.51,0,0,1,388.26,81.78Zm-1.09,8.52a.61.61,0,0,1,.33.13c.29.47.57,1,.86,1.59a1.12,1.12,0,0,1,.08.37c0,.32-.19.49-.57.49a.67.67,0,0,1-.29-.08c-.29-.55-.58-1.08-.86-1.59a.89.89,0,0,1-.18-.37Q386.54,90.3,387.17,90.3ZM397.73,82a.62.62,0,1,1,0,1.23h-2.91l-.46,1.81h2.52c.71,0,1.07.34,1.07,1v8.65a1,1,0,0,1-1.07,1.11h-1a11.22,11.22,0,0,0,2.34,2.09.61.61,0,0,1,.47.57.69.69,0,0,1-.78.78,6.45,6.45,0,0,1-1.52-1.13,9.38,9.38,0,0,1-1.35-1.45,1,1,0,0,1-.33-.54.93.93,0,0,1,.05-.32h-2a.84.84,0,0,1,.12.45.76.76,0,0,1-.29.57,9.82,9.82,0,0,1-2.87,2.38.72.72,0,0,1-.26.12.63.63,0,0,1-.72-.7.6.6,0,0,1,.33-.57,9.93,9.93,0,0,0,2.66-2.25h-.57c-.72,0-1.07-.37-1.07-1.11V86.08c0-.68.35-1,1.07-1H393l.51-1.81h-3.44a.62.62,0,1,1,0-1.23Zm-6.34,6.15h5.33V86.7a.43.43,0,0,0-.49-.49h-4.35a.43.43,0,0,0-.49.49Zm0,3.2h5.33v-2h-5.33Zm4.84,3.28c.33,0,.49-.18.49-.54V92.56h-5.33v1.55c0,.36.16.54.49.54Z"/><path class="cls-2" d="M412.58,90.34a3.07,3.07,0,0,1-5.22,2.16,3.1,3.1,0,0,1,0-4.33,3.05,3.05,0,0,1,5.22,2.17Zm-1.06,0a2,2,0,0,0-2-2,1.94,1.94,0,0,0-1.41.59,2,2,0,0,0,0,2.81,2,2,0,0,0,2.82,0A1.91,1.91,0,0,0,411.52,90.34Z"/><path class="cls-1" d="M17.73,110.42a.55.55,0,0,1,.63.62c0,.47-.21.71-.63.71h-11A12.1,12.1,0,0,1,6.09,113a15.1,15.1,0,0,1-1.87,2.75v10.06a.64.64,0,0,1-.7.73.64.64,0,0,1-.71-.73v-8.53a10.38,10.38,0,0,1-1.64,1.27.83.83,0,0,1-.49.17.61.61,0,0,1-.48-.25.81.81,0,0,1-.2-.53.64.64,0,0,1,.23-.49,14.07,14.07,0,0,0,2.48-2.13,17.62,17.62,0,0,0,2.19-3.08,3.43,3.43,0,0,0,.28-.49H1.23c-.42,0-.62-.24-.62-.71a.55.55,0,0,1,.62-.62H5.8a18.19,18.19,0,0,0,.66-2,.66.66,0,0,1,.71-.45.67.67,0,0,1,.45.16.53.53,0,0,1,.19.45,1.26,1.26,0,0,1-.08.41c-.14.49-.3,1-.46,1.4Zm.38,8.73a.56.56,0,0,1,.62.64c0,.46-.21.69-.62.69H14.18a8.38,8.38,0,0,1,.27,2.09,4,4,0,0,1-.62,2.11A2.85,2.85,0,0,1,12.46,126a3.8,3.8,0,0,1-1.85.43,9.76,9.76,0,0,1-3.52-.78.9.9,0,0,1-.7-.78c0-.56.26-.85.7-.86a17.72,17.72,0,0,0,3.44.86,2.29,2.29,0,0,0,1-.24,2.15,2.15,0,0,0,1-.84,2.22,2.22,0,0,0,.35-1.21,7.58,7.58,0,0,0-.25-2.09H5.94q-.63,0-.63-.69a.56.56,0,0,1,.63-.64h6a2.56,2.56,0,0,0-.37-.47,4.42,4.42,0,0,0-1.25-1c-.13-.1-.19-.19-.19-.27a.79.79,0,0,1,.86-.81,1.2,1.2,0,0,1,.56.24,1.37,1.37,0,0,1,.24.17.68.68,0,0,1,.21-.17,6.34,6.34,0,0,0,1.19-.61,5.9,5.9,0,0,0,1-.79c.22-.2.33-.34.33-.41s-.07-.13-.21-.13H7.09q-.63,0-.63-.72c0-.41.21-.61.63-.61h8.52q1.11,0,1.11.78a1.4,1.4,0,0,1-.35.8,7.65,7.65,0,0,1-1.51,1.52,9.86,9.86,0,0,1-2,1.33,5,5,0,0,1,.82,1.19Z"/><path class="cls-1" d="M21.31,113.61a.79.79,0,0,1,.49.25,15.7,15.7,0,0,1,2.16,2,1,1,0,0,1,.18.49c0,.47-.26.7-.78.7a.86.86,0,0,1-.49-.17,25.55,25.55,0,0,0-2.19-2.09,1.21,1.21,0,0,1-.15-.41A.69.69,0,0,1,21.31,113.61Zm2.42,5.33q.72,0,.72.78a17.06,17.06,0,0,1-2.05,6.07.76.76,0,0,1-.68.49c-.52,0-.78-.23-.78-.7a.73.73,0,0,1,.15-.33,15.27,15.27,0,0,0,1.21-2.7,21.55,21.55,0,0,0,.81-3.16A.56.56,0,0,1,23.73,118.94Zm-.92-10.57a.71.71,0,0,1,.45.24,13.44,13.44,0,0,1,2,1.89,1,1,0,0,1,.14.45c0,.47-.26.7-.78.7a.89.89,0,0,1-.45-.13c-.68-.66-1.39-1.28-2.13-1.88a1.71,1.71,0,0,1-.14-.49C22,108.63,22.24,108.37,22.81,108.37Zm14.59.08c.47,0,.71.26.71.78s-.29.63-.86.7c-1.19.09-2.75.17-4.67.24v3h5.68c.47,0,.7.25.7.73a.62.62,0,0,1-.7.7H32.58v3.57h3.81a1.19,1.19,0,0,1,1.34,1.35v5a1.17,1.17,0,0,1-1.34,1.31H27.66a1.18,1.18,0,0,1-1.35-1.31v-5a1.19,1.19,0,0,1,1.35-1.35h3.51v-3.57H25.86a.62.62,0,0,1-.7-.7c0-.48.23-.73.7-.73h5.31v-3c-2,.09-3.47.13-4.29.13-.58,0-.86-.26-.86-.78s.23-.62.7-.62c1.86,0,3.59,0,5.17-.12C33.86,108.74,35.7,108.62,37.4,108.45Zm-1.79,16a.62.62,0,0,0,.7-.7v-3.44a.62.62,0,0,0-.7-.7H28.44a.63.63,0,0,0-.71.7v3.44a.62.62,0,0,0,.71.7Z"/><path class="cls-1" d="M58,121.2a.7.7,0,1,1,0,1.39H50.16v3.28c0,.43-.24.65-.7.65a.57.57,0,0,1-.63-.65v-3.28H41a.7.7,0,1,1,0-1.39h7.79v-.86a.55.55,0,0,1,.63-.62c.46,0,.7.21.7.62v.86ZM49.53,108a.69.69,0,0,1,.78.78v.94h7.56a.57.57,0,0,1,.65.63c0,.47-.22.7-.65.7H49.08a.7.7,0,0,1,.22.54.84.84,0,0,1-.34.65,12.46,12.46,0,0,1-1.6,2,12.77,12.77,0,0,1,1.37,1.29q1-1.19,1.8-2.4a.74.74,0,0,1,1.13-.12.69.69,0,0,1,.22.49.87.87,0,0,1-.16.49,33.8,33.8,0,0,1-2.46,2.91,16,16,0,0,1-1.55,1.38,31.56,31.56,0,0,0,3.81-.46l-.35-.47a.72.72,0,0,1-.23-.49.46.46,0,0,1,.52-.53,2.06,2.06,0,0,1,.49.08c.28.35.54.7.78,1a11.13,11.13,0,0,1,1,1.68,1.09,1.09,0,0,1,.16.41.47.47,0,0,1-.53.53,1,1,0,0,1-.55-.14c-.21-.39-.39-.71-.56-1a.53.53,0,0,1-.16,0q-3.8.65-7.27.93c-.4,0-.6-.28-.6-.85s.2-.64.6-.65l1.08,0a23,23,0,0,0,2-1.83,20.43,20.43,0,0,0-1.52-1.45q-.53-.43-1.17-.9a.6.6,0,0,1-.26-.45.55.55,0,0,1,.63-.62,1.7,1.7,0,0,1,.49.08l.29.21A18.21,18.21,0,0,0,48,111.22a.9.9,0,0,1,.17-.17h-7c-.43,0-.64-.23-.64-.7a.56.56,0,0,1,.64-.63h7.56v-.94A.7.7,0,0,1,49.53,108Zm-4.86,7.79c.47,0,.7.26.7.78,0,.19-.16.45-.49.79a13.48,13.48,0,0,1-1.42,1.36,12.12,12.12,0,0,1-1.37,1,1.08,1.08,0,0,1-.45.12c-.52,0-.78-.25-.78-.73a.64.64,0,0,1,.35-.56,8.65,8.65,0,0,0,1.52-1.12A13.68,13.68,0,0,0,44.22,116,.6.6,0,0,1,44.67,115.79Zm-3-3.9c.12,0,.24.08.37.25a15.36,15.36,0,0,1,2.21,1.93.83.83,0,0,1,.15.41c0,.41-.24.61-.72.61a.41.41,0,0,1-.29-.16c-.74-.66-1.53-1.31-2.35-1.93a1.14,1.14,0,0,1-.15-.41C40.94,112.12,41.2,111.89,41.72,111.89Zm15.37-.08a.63.63,0,0,1,.72.7.8.8,0,0,1-.31.65,11.07,11.07,0,0,1-3,1.72l-.29.05a.62.62,0,0,1-.7-.7.58.58,0,0,1,.29-.53A10.67,10.67,0,0,0,56.64,112,1.22,1.22,0,0,1,57.09,111.81Zm-2.79,4.06a1,1,0,0,1,.45.16c.5.34,1,.66,1.38,1a10.78,10.78,0,0,1,1.74,1.53.78.78,0,0,1,.24.41c0,.47-.21.7-.61.7a1,1,0,0,1-.7-.25A21.32,21.32,0,0,0,55.16,118a15.51,15.51,0,0,0-1.27-.9.9.9,0,0,1-.22-.54A.57.57,0,0,1,54.3,115.87Z"/><path class="cls-1" d="M65.37,112.14c.43,0,.65.21.65.61s-.22.72-.65.72H64.14v1.33L66,117.45a1,1,0,0,1,.17.49c0,.46-.24.68-.72.68a.48.48,0,0,1-.45-.31l-.86-1.6v9.1c0,.43-.23.65-.7.65a.57.57,0,0,1-.63-.65v-8.38c-.19,1-.38,1.79-.56,2.39a14.39,14.39,0,0,1-.61,2.09.74.74,0,0,1-.62.41c-.47,0-.71-.22-.71-.65a1.35,1.35,0,0,1,.14-.55,37,37,0,0,0,1.46-4.57,29.94,29.94,0,0,0,.61-3.08H61.23c-.42,0-.62-.24-.62-.72a.54.54,0,0,1,.62-.61h1.58v-3.28a.57.57,0,0,1,.63-.65c.47,0,.7.22.7.65v3.28Zm12.5,12.42q.72,0,.72.69a.63.63,0,0,1-.72.7H66.23a.62.62,0,0,1-.7-.7.61.61,0,0,1,.7-.69ZM77.4,109a.55.55,0,0,1,.63.62c0,.47-.21.7-.63.7H70.59l-.34,1.18c0,.19,0,.29.14.29h1c.83,0,1.25.49,1.25,1.46v8.52c0,1.31-.76,2-2.27,2a6.26,6.26,0,0,1-1.52-.19q-.75-.24-.75-.75a.59.59,0,0,1,.63-.62,14.18,14.18,0,0,0,1.64.21c.63,0,.94-.23.94-.7v-8.12a.4.4,0,0,0-.45-.45H69.55a.76.76,0,0,1-.86-.86l.59-1.94h-3c-.42,0-.63-.23-.63-.7a.55.55,0,0,1,.63-.62Zm-10.08,4.92h1.9c.68,0,1,.31,1,.94v5.21a.89.89,0,0,1-1,1h-1.9a.9.9,0,0,1-1-1v-5.21C66.31,114.25,66.65,113.94,67.32,113.94Zm1.41,6c.16,0,.23-.09.23-.29v-4.3c0-.17-.07-.25-.23-.25h-.92c-.15,0-.23.08-.23.25v4.3c0,.2.08.29.23.29Zm4.94-8.28h3c.73,0,1.09.4,1.09,1.19a17.4,17.4,0,0,1-.31,3.4,15.52,15.52,0,0,1-.78,3.09,21.18,21.18,0,0,0,1.62,3,.66.66,0,0,1,.33.54c0,.25,0,.41-.13.47a.66.66,0,0,1-.59.3,1.13,1.13,0,0,1-.7-.32A11.58,11.58,0,0,1,75.86,121a10.75,10.75,0,0,1-1.9,2.44.88.88,0,0,1-.44.16.69.69,0,0,1-.79-.77.64.64,0,0,1,.22-.41,11.17,11.17,0,0,0,2.11-2.81c0-.08.07-.16.1-.23-.34-.85-.67-1.8-1-2.85a19.72,19.72,0,0,1-.8-3.68.56.56,0,0,1-.33-.56A.57.57,0,0,1,73.67,111.65Zm1,1.27a29.69,29.69,0,0,0,1.23,4.51,13.63,13.63,0,0,0,.31-1.44,17.42,17.42,0,0,0,.22-2.62c0-.3-.13-.45-.37-.45Z"/><path class="cls-1" d="M84.75,108.37a.78.78,0,0,1,.52.18.69.69,0,0,1,.26.52,1.46,1.46,0,0,1-.08.41,24.63,24.63,0,0,1-1.31,4v12.34c0,.48-.23.73-.7.73a.64.64,0,0,1-.71-.73v-9.65a15.58,15.58,0,0,1-1.09,1.61,1.07,1.07,0,0,1-.55.33c-.52,0-.78-.24-.78-.7a.65.65,0,0,1,.14-.4,19.05,19.05,0,0,0,2.13-3.47,22.32,22.32,0,0,0,1.64-4.65A.51.51,0,0,1,84.75,108.37Zm12,.41c.47,0,.7.26.7.78s-.26.71-.78.78c-1.17.13-2.29.24-3.36.34,0,1.47,0,2.79.14,4h3.59a.63.63,0,0,1,.72.7q0,.69-.72.69H93.63c.07.53.14,1,.22,1.48a17.72,17.72,0,0,0,1,3.79,11.66,11.66,0,0,0,1.23,2.19c.24.39.44.58.61.58s.19-.17.25-.52a12.48,12.48,0,0,0,.2-2.19c0-.47.25-.7.64-.7a.79.79,0,0,1,.71.86A10.77,10.77,0,0,1,98,124.7c-.25.73-.63,1.09-1.15,1.09a2.25,2.25,0,0,1-1.61-.93,13.39,13.39,0,0,1-1.68-3.09,24.82,24.82,0,0,1-1.29-5.1c0-.22,0-.43-.07-.64H88.11v5.23l0,0a20.55,20.55,0,0,0,3-.9.64.64,0,0,1,.3-.09c.4,0,.61.19.64.54a.83.83,0,0,1-.49.73,15.12,15.12,0,0,1-2.79,1,26.24,26.24,0,0,1-3.22.7c-.41,0-.61-.28-.63-.78a.63.63,0,0,1,.55-.7c.47,0,.89-.11,1.27-.18V111a1.78,1.78,0,0,1,.35-1.21,1.6,1.6,0,0,1,1.11-.34A74.16,74.16,0,0,0,96.8,108.78Zm-3.13,15.61a.7.7,0,1,1,0,1.4H86.8a.7.7,0,1,1,0-1.4Zm-1.58-9.75c-.09-1.21-.14-2.5-.14-3.87-1.18.07-2.3.1-3.36.1q-.48,0-.48.57v3.2Z"/><path class="cls-2" d="M112.58,117.34a3.07,3.07,0,0,1-5.22,2.16,3.1,3.1,0,0,1,0-4.33,3.05,3.05,0,0,1,5.22,2.17Zm-1.06,0a2,2,0,0,0-2-2,1.94,1.94,0,0,0-1.41.59,2,2,0,0,0,0,2.81,2,2,0,0,0,2.82,0A1.91,1.91,0,0,0,111.52,117.34Z"/></g></g></svg>