<svg xmlns="http://www.w3.org/2000/svg" viewBox="0 0 250 146"><defs><style>.cls-1{fill:#c1bd31;opacity:0.8;}.cls-2{fill:#fff;}</style></defs><title>height_detail</title><g id="圖層_2" data-name="圖層 2"><g id="height_detail"><path class="cls-1" d="M215,0H35A35.1,35.1,0,0,0,0,35V88a35.1,35.1,0,0,0,35,35h72.39A95,95,0,0,0,125,146a95,95,0,0,0,17.61-23H215a35.1,35.1,0,0,0,35-35V35A35.1,35.1,0,0,0,215,0Z"/><path class="cls-2" d="M121.34,99.28A1.73,1.73,0,0,1,122.8,101a2,2,0,0,1-2.28,2,3,3,0,0,1-1.6-.44l.23-.57a2.69,2.69,0,0,0,1.38.4A1.37,1.37,0,0,0,122,101c0-1-.84-1.44-1.72-1.44h-.44V99h.44a1.38,1.38,0,0,0,1.49-1.25,1,1,0,0,0-1.17-1.09,2.2,2.2,0,0,0-1.23.44l-.22-.55a2.81,2.81,0,0,1,1.6-.5,1.59,1.59,0,0,1,1.78,1.59,1.69,1.69,0,0,1-1.22,1.59Z"/><path class="cls-2" d="M124.85,99.58c0-2.36.91-3.5,2.17-3.5s2.07,1.2,2.07,3.41-.82,3.55-2.16,3.55S124.85,101.83,124.85,99.58Zm3.48-.06c0-1.68-.41-2.84-1.35-2.84s-1.37,1.07-1.37,2.84.5,2.9,1.34,2.9C128,102.42,128.33,101.13,128.33,99.52Z"/><path class="cls-2" d="M130.82,99.58c0-2.36.92-3.5,2.18-3.5s2.06,1.2,2.06,3.41-.82,3.55-2.16,3.55S130.82,101.83,130.82,99.58Zm3.49-.06c0-1.68-.41-2.84-1.35-2.84s-1.37,1.07-1.37,2.84.49,2.9,1.34,2.9C133.93,102.42,134.31,101.13,134.31,99.52Z"/><line class="cls-2" x1="84.5" y1="85" x2="84.5" y2="97"/><path class="cls-2" d="M83.75,85V97a.75.75,0,0,0,1.5,0V85a.75.75,0,0,0-1.5,0Z"/><line class="cls-2" x1="167.5" y1="85" x2="167.5" y2="97"/><path class="cls-2" d="M166.75,85V97a.75.75,0,0,0,1.5,0V85a.75.75,0,0,0-1.5,0Z"/><line class="cls-2" x1="53" y1="91" x2="199" y2="91"/><path class="cls-2" d="M53,91.75H199a.75.75,0,0,0,0-1.5H53a.75.75,0,0,0,0,1.5Z"/><path class="cls-2" d="M217.46,93.15a3.86,3.86,0,0,1-1.63.34A2.79,2.79,0,0,1,213,90.43a3,3,0,0,1,3.07-3.2,3.31,3.31,0,0,1,1.44.32l-.23.73A2.46,2.46,0,0,0,216,88a2.15,2.15,0,0,0-2.11,2.4A2.11,2.11,0,0,0,216,92.74a2.92,2.92,0,0,0,1.3-.3Z"/><path class="cls-2" d="M228.14,93.37h-.9V89.9c0-1.16-.42-1.91-1.32-1.91a1.52,1.52,0,0,0-1.41,1.6v3.78h-.9v-3.7c0-1-.41-1.68-1.26-1.68a1.63,1.63,0,0,0-1.47,1.7v3.68H220V88.91c0-.61,0-1,0-1.55h.81l0,1h0a2,2,0,0,1,1.82-1.1,1.71,1.71,0,0,1,1.64,1.2h0a2.1,2.1,0,0,1,1.93-1.2c.74,0,1.9.47,1.9,2.53Z"/><circle class="cls-2" cx="31" cy="91" r="2"/><path class="cls-2" d="M147.63,52.44c-.26-.34.67-1.95.76-2.45s-.26-4.56-.93-4.82S147,44.33,147,44s-.42-1.77-.76-1.77a.82.82,0,0,1-.68-.76A7.73,7.73,0,0,0,143,39.08h0a13.45,13.45,0,0,0-1.75-1c-2.37-1.1-1.19-3.38-1.1-3.89s-.43-15-.43-16.3-.59-1.1-1.35,0-6.42,10.05-7.68,12.25-1.44,2-2.88,2.87A12.62,12.62,0,0,1,123,34.19a56.26,56.26,0,0,0-7.18,1.44,68.89,68.89,0,0,0-8.44,3.71,16.34,16.34,0,0,0-3,3.3,25.91,25.91,0,0,1-2.67,2.59,4.21,4.21,0,0,0,.07,3.25c.19.48-.1,1-.32,1.63-.65,1.85-.14,2.45,1.31,4.18,1.69,2,.65,1.52,1.67,5.39s11.15,6.4,14,7.35a66.42,66.42,0,0,0,9,2c.83,1.32,2.22,4.71,2.8,5.81l.12.24a.36.36,0,0,1,0,.09l.08.15,0,.1.06.13.07.15.06.13a.75.75,0,0,1,.06.13l.05.09a1.17,1.17,0,0,0,.05.11l0,.09a.47.47,0,0,0,.05.1.59.59,0,0,0,0,.08l.05.1,0,.07a.41.41,0,0,0,.05.09.43.43,0,0,1,0,.07l.06.07,0,.07.06.06,0,.06.06.06.05,0,.08.06,0,0,.11.06h.05l.07,0H132c.76,0,.82-.38,1.26-.88a48.2,48.2,0,0,0,2.9-5.07c.38-.89.6-1.59.6-1.59v-1.2c.28-.09.61-.68.84-1.17a2.81,2.81,0,0,1,.43,0,9.14,9.14,0,0,0,4.64-1.67h0c.69-.46,1.2-.89,1.49-1.08a3.33,3.33,0,0,0,1.61-2.36c0-.93,2.11-2,2.11-3s.25-.85.52-2.79A6.65,6.65,0,0,0,147.63,52.44Z"/></g></g></svg>