<svg xmlns="http://www.w3.org/2000/svg" xmlns:xlink="http://www.w3.org/1999/xlink" viewBox="0 0 1302 698.63"><defs><style>.cls-1{fill:#414852;}.cls-2{fill:url(#radial-gradient);}.cls-3{fill:url(#radial-gradient-2);}.cls-4{fill:url(#radial-gradient-3);}.cls-5{fill:#343a4b;}</style><radialGradient id="radial-gradient" cx="449.45" cy="296.98" r="201.55" gradientTransform="matrix(0.85, 0.54, -0.69, 1.18, 270.37, -312.94)" gradientUnits="userSpaceOnUse"><stop offset="0" stop-color="#404650"/><stop offset="1" stop-color="#cccfb0" stop-opacity="0"/></radialGradient><radialGradient id="radial-gradient-2" cx="818.38" cy="203.63" r="175.86" gradientTransform="matrix(1.14, -0.22, 0.39, 1.89, -198.56, -10.1)" xlink:href="#radial-gradient"/><radialGradient id="radial-gradient-3" cx="665.76" cy="409.53" r="499.49" gradientTransform="translate(-134 110.76) scale(1.18 0.65)" gradientUnits="userSpaceOnUse"><stop offset="0" stop-color="#fff" stop-opacity="0.5"/><stop offset="0.78" stop-color="#fff575" stop-opacity="0.02"/><stop offset="1" stop-color="#fff56e" stop-opacity="0"/></radialGradient></defs><title>about_bg</title><g id="圖層_2" data-name="圖層 2"><g id="about_bg"><path class="cls-1" d="M54.12,483.28,103.62,494H240.21l76.15-5.34,22.1,5.34h19.72l22.4,14.31,31.63,7.22s39.59,13.63,44.74,14,21.74-.36,26.19,0,34.86-.15,40.66.1,23.73,4.34,23.73,4.34,30.06-3.74,34.56,0,6.12,2.51,15.06,0,23.94-12.2,31.44-12.83,21,.22,31.5,8.39,23.67,14.09,23.67,14.09h19.83s1.5,4.36,6,0,14.41,0,14.41,0,9.7-13.39,13.39-9.65,25.2-.61,26.45,0,17.64-4.44,17.64-4.44,16-11.45,21.54-14,29.87-1,29.87-1l40.83,2.66s24.28-12.11,29.07-11.45,35.41,5.91,40.35,7.19,23.88,7.22,33.91,8.15,28-8.44,37-10,7-4.08,20.73-2.82,33.27-18.93,48.27-14.31,25.6-4.08,37.5,0,10.8-3.1,19.43,4.09a248.37,248.37,0,0,1,18.4,17.65l32.92,5.39h21.6l35.14-5.6,31.5,18.43H1302V685.34H0V483.28l30.12,22.47Z"/><path class="cls-1" d="M515.82,0s-2.63,15.31-9.69,23.27,0,12.25,0,12.25L487.9,59.41l-7.15,4.89L464.2,96.15v11s-7.12,3.88-10.81,4.29-6.1,6.53-6.27,9S438.32,136,436,137.18s-6.94,13.88-12.1,9.8-12.21-7.76-15.34-12.25-6.67-9-6.67-9a7.86,7.86,0,0,0-4.05,4.08c-1,2.86-3.4,8.17-4.57,8.17s-.39-7.35-2-10.21-9.8-16.74-9.8-16.74-15.29-11-22-13.47-12-.82-13.48-2.45-5.34-12.66-8.47-9.8-4.31,6.13-5.49,7.35l-7.45,7.76v11.84c0,4.49-2.74,13.88-2.74,13.88s2,6.94,0,9.39-2.75-4.9-6.28-6.94-2.74-6.94-2.74-12.66-3.13-16.33-3.13-16.33-3.14,10.62-7.45,17.56-8.23,14.68-6.67,30.61-2.35,31.85-3.52,33.08,0,18.78,0,18.78-7.1,56.55-8.55,72.06-4,32.09-4,32.09-3.13,15.07-4.31,19.15.78,20,2,20.6,6.35-2.58,6.35-2.58l3.45,6.3,5.87,82.25s8.32,9.75,14.13,14.63,7.64,8.23,7.15,11.09,3,13.47,5.78,15.92,15.29,39.72,14.89,39.67,14.11,27.7,14.11,27.7l10.2-4.49,10.58,7.88,9.63,3.14s6,5.31,6.83,6.54,16.07,22.86,16.07,22.86H91.62l-1.78-90.23,49.78-71.86,5.88-6.53,5.1,2.45s7.84-40,9-43.28,4.71-11,4.71-11,10.19-52.67,13.72-56.75,15.28-75.13,15.28-75.13,3.53-9.4,3.92-10.62,2-23.68,2-23.68l13.72-78-1.17-5.71L207,106.55,193.72,127l-3.53,7.76,2.35-15.52s-.78-7.76-3.14-8.16-5.09,6.12-5.09,6.12-11,18.78-12.55,21.64-4.7,9-6.66,11-2.35,13.07-3.92,18-5.88,22.45-5.88,22.45-3.14,21.64-4.7,24.91-3.14-3.68-3.92-11.43,2-44.51,2-44.51-3.92-26.13-4.71-27.35-16.07-18.79-18-22.06l-9.41-8.54s-7.84-.82-9,.41-2,4.49-3.14,3.67-5.09-10.21-6.27-10.21S89.84,89,89.84,89V0Z"/><path class="cls-2" d="M515.82,0s-2.63,15.31-9.69,23.27,0,12.25,0,12.25L487.9,59.4l-7.15,4.9L464.2,96.15v11s-7.12,3.88-10.81,4.29-6.09,6.53-6.27,9S438.32,136,436,137.18s-6.94,13.88-12.1,9.8-12.21-7.76-15.34-12.25-6.67-9-6.67-9a7.86,7.86,0,0,0-4.05,4.08c-1,2.86-3.4,8.17-4.57,8.17s-.39-7.35-2-10.21-9.8-16.74-9.8-16.74-15.29-11-22-13.47-12-.82-13.48-2.45-5.34-12.66-8.47-9.8-4.31,6.12-5.49,7.35l-7.45,7.76v11.84c0,4.49-2.74,13.88-2.74,13.88s2,6.94,0,9.39-2.75-4.9-6.28-6.94-2.74-6.94-2.74-12.66-3.13-16.33-3.13-16.33-3.14,10.62-7.45,17.56-8.23,14.68-6.67,30.61-2.35,31.85-3.52,33.08,0,18.78,0,18.78-7.1,56.55-8.55,72.06-4,32.09-4,32.09-3.13,15.07-4.31,19.15.78,20,2,20.6,6.35-2.58,6.35-2.58l3.45,6.3,5.87,82.25s8.32,9.75,14.13,14.63,7.64,8.23,7.15,11.09,3,13.47,5.78,15.92,15.29,39.72,14.89,39.66,14.11,27.71,14.11,27.71l10.2-4.49,10.58,7.88,9.63,3.14s6,5.31,6.83,6.54,16.07,22.86,16.07,22.86H91.62l-1.78-90.23,49.78-71.86,5.88-6.53,5.1,2.45s7.84-40,9-43.28,4.71-11,4.71-11,10.19-52.67,13.72-56.75,15.28-75.13,15.28-75.13,3.53-9.4,3.92-10.62,2-23.68,2-23.68l13.72-78-1.17-5.71L207,106.55,193.72,127l-3.53,7.76,2.35-15.52s-.78-7.76-3.14-8.16-5.09,6.12-5.09,6.12-11,18.78-12.55,21.64-4.7,9-6.66,11-2.35,13.07-3.92,18-5.88,22.45-5.88,22.45-3.14,21.64-4.7,24.91-3.14-3.68-3.92-11.43,2-44.51,2-44.51-3.92-26.13-4.71-27.35-16.07-18.79-18-22.06l-9.41-8.54s-7.84-.82-9,.4-2,4.49-3.14,3.68-5.09-10.21-6.27-10.21S89.84,89,89.84,89V0Z"/><path class="cls-1" d="M865.79,0s-1.14,12.39,2.05,15.35,2.77,2.36,5.13,6.5,6.68,15.36,9.76,15.36,6.07,7.68,5.81,10.64S887,62.62,892,66.75s13.25,14.19,18.64,20.1,6,11.22,10.93,14.77,6.78,22,25.88,27.25,28.33,8.79,31.41,13.52,1.85,5.91,0,10.64,2.47,33.68-.61,39-3.7,1.77-6.17,0-5.54,4.59-5.54,11.15,8,39.07-5.84,47.94-6.48,19.24-17.69,33.05,1.22,20.18-18,33-16.13,34.36-17.31,36.93-5.22,7-5,9.5-2.53,14.12-2.53,14.12.64-3.05-2.64,7.45-5.95,10.49-6.46,17-.36,11.77-2.28,17.11-10.78,8.89-9.13,13.62-.84,11.81-2.06,13.59-9.29,16.65-13.6,19.61-5.6,7.68-7.42,10-11.72,27.4-12.45,29.17-17.51,7.53-25.17,16.39-16,27.53-17.86,31.08a7.94,7.94,0,0,0,0,7s163.23,4.36,176.13,4.36,183.11-7.44,183.11-7.44-36-54.23-41-56a12.23,12.23,0,0,0-8.77,0l-9.24-16.55-12.32-8.86L1086,443.75v-8.86l-6.79-3.57a51.42,51.42,0,0,1-4.31-17.11c-.62-9.46-6.16-15.67-4.93-17s2.43-9.7,3.06-12.9-8.6-3.6-5.52-18.17,1.23-30.13,1.23-32.69-3.7-9.56-6.78-13.74-4.31-15.86-9.86-24.2-9.75-10.36-4.57-21.47a72.28,72.28,0,0,0,6.42-24.11c0-1.77-10.86-19-10.86-19s-9.46-8.15-3.92-24.1,3.79-14.77,8.36-20.09,7.66-11.82,10.12-20.68,4.28-15.37,15.38-19.5,17.88-16,22.81-20.09,2.6-12.41,11.46-13,20.57-1.35,28,5.53,10.47,11.16,12.93,9.9,13.55-1.7,14.78,0-.61,10,0,12.93-2.46,15.36-2.46,20.09,2.9,6.5,2.9,6.5l5.11-16.55s.62-12.35,3.08-13.85,8-8,8.62-13.33,4.93-10,9.24-12.41,20.33-8.86,20.33-8.86l16.63-11.23V0Z"/><path class="cls-3" d="M865.79,0s-1.14,12.39,2.05,15.35,2.77,2.36,5.13,6.5,6.68,15.36,9.76,15.36,6.07,7.68,5.81,10.64S887,62.62,892,66.75s13.25,14.19,18.64,20.1,6,11.22,10.93,14.77,6.78,22,25.88,27.25,28.33,8.79,31.41,13.52,1.85,5.91,0,10.64,2.47,33.68-.61,39-3.7,1.77-6.17,0-5.54,4.59-5.54,11.15,8,39.07-5.84,47.94-6.48,19.24-17.69,33.05,1.22,20.18-18,33-16.13,34.36-17.31,36.93-5.22,7-5,9.5-2.53,14.12-2.53,14.12.64-3.05-2.64,7.45-5.95,10.49-6.46,17-.36,11.77-2.28,17.11-10.78,8.89-9.13,13.62-.84,11.81-2.06,13.59-9.29,16.65-13.6,19.61-5.6,7.68-7.42,10-11.72,27.4-12.45,29.17-17.51,7.53-25.17,16.39-16,27.53-17.86,31.08a7.94,7.94,0,0,0,0,7s163.23,4.36,176.13,4.36,183.11-7.44,183.11-7.44-36-54.23-41-56a12.23,12.23,0,0,0-8.77,0l-9.24-16.55-12.32-8.86L1086,443.75v-8.86l-6.79-3.57a51.42,51.42,0,0,1-4.31-17.11c-.62-9.46-6.16-15.67-4.93-17s2.43-9.7,3.06-12.9-8.6-3.6-5.52-18.17,1.23-30.13,1.23-32.69-3.7-9.56-6.78-13.74-4.31-15.86-9.86-24.2-9.75-10.36-4.57-21.47a72.28,72.28,0,0,0,6.42-24.11c0-1.77-10.86-19-10.86-19s-9.46-8.15-3.92-24.1,3.79-14.77,8.36-20.09,7.66-11.82,10.12-20.68,4.28-15.37,15.38-19.5,17.88-16,22.81-20.09,2.6-12.41,11.46-13,20.57-1.35,28,5.53,10.47,11.16,12.93,9.9,13.55-1.7,14.78,0-.61,10,0,12.93-2.46,15.36-2.46,20.09,2.9,6.5,2.9,6.5l5.11-16.55s.62-12.35,3.08-13.85,8-8,8.62-13.33,4.93-10,9.24-12.41,20.33-8.86,20.33-8.86l16.63-11.23V0Z"/><ellipse class="cls-4" cx="651" cy="375.6" rx="588.93" ry="323.03"/><path class="cls-5" d="M927.78,0S922.49,3.86,932,5.51s20.7,7.17,20.7,7.17,5.23,6.06,9.47,11,6.88,15.43,10,22,5.83,8.54,4.77,19,2.64,16,3.17,16.81-2.91,13.78-1.85,16.27,1.91,12.4,1.91,12.4,1.53,1.65,2.32,0a23.38,23.38,0,0,0,2.12-7.72c0-2.2,4.24-7.44,4.24-7.44s.26-13.78,0-15.16,4.23-14.61,5.29-16.27,1.85-10.47,1.85-10.47,15.35-14.06,18.79-15.71,13.23-1.66,13.23-1.66,3.18,3.86,5,3.86,6.09-.27,6.09-.27l3.47,10.2s5.53,5.42,8.17,5.88,11.47,2.11,14.87,4.59,2.34,4.69,5.78,6.07a36.3,36.3,0,0,0,8.47,2.2h4.76s6.09,3.58,6.62,4.69.26,2.75,5.29,3.58,8.73,1.65,9.26,3.31,8.21,4.68,8.21,4.68a16.81,16.81,0,0,0,14.55.83c7.94-3.31,18.53-5.24,23.82-5s10.32.55,11.12.55c.45,0,4.94-1.73,8.66-3.2a12.76,12.76,0,0,0,4.67,1.53c3.18,0,20.12,2.76,20.12,2.76l9,8.44,9.53,14.16s-4.76,12.13-3.17,13.23,10,7.72,12.17,13.23,2.65,26.78,2.12,35.72-3.71,20.94-3.71,22.66,4.62,12.19,3.9,13.84.08,7.72.08,7.72-1.86,31.51-3.45,32.3-.53,2.43.53,9,1.06,35.84-1.06,39.69-5.82,20.73-5.82,22.22,1.06,44.39,1.06,44.16-5.29,27.34-5.29,32.3,3.17,45.21,3.17,46.86,10.86,21.5,10.86,21.5v25.92l-7.15,19.18L1197,549.47a47.2,47.2,0,0,1-5.83-6.81C1187,536,1182,524.28,1177.08,525s-17.64-8.08-19.76-9.55-14.82-16.91-23.29-8.82-17.64,33.08-17.64,33.08h-7.06l-13.41-5.89-12.7,8.09-25,28.74-20.12,8s-4.94,14-9.17,14-15.53,10.29-15.53,10.29l-3.8,13.23L995,619.1S982.3,633.8,982.3,636s-4.94,9.55-12,8.08-17.73,1.47-22.27,8.83-27.19,27.27-28.92,32.42H1302V0Z"/><path class="cls-5" d="M480.31,684.6c-8.77-1.65-13.46-11.21-23.25-20s-42.61-18.19-47.91-21-11.64-2.75-15.35,2.4-7.94,2-10.05,0-7.41-1.29-12.18-.19-7.94-2.76-11.11-6.07c0,0-6.35-5-30.17-6.06s-10.06-3.86-20-11.58-9.66-4.41-22.32-13.78-31.28-12.13-40.07-12.13-52.61-51.82-58.69-62.85-7.15-8.27-15.09-14.33-7.94-3.86-14.82-5.64-6.88-2.08-13.23-.42-22.76-1.66-25.94-8.27-4.76-15.44-6.35-15.44-12.7,0-14.82-3.31-5.82-5.51-12.7-4.41S72,470,72,467.21,73,435.78,67.22,427s2.12-22.6,0-28.41c-.88-2.42-4-3.06-7.49-2.91l-.4-9.15s-6.66-35.84-12.66-37.2-3.34-20.86-.67-26.1,4.67-30.17,4.67-30.06,6.66-24.25,6.66-24.25V258.56c0-1.82-4.66,0-4.66,0s-5.34-24.56-5.34-32.2-4-35.41-4.66-37.94-4-10.66-8-18.66,0-38.53,0-44.78,2-22.21,5.33-27.08S50.67,79.16,52,76.38s20-.7,23.33,0,28,3.47,36,.69,14,1.39,16,1.39H136c2,0,17.33-12.5,17.33-12.5l12,2.78S184.67,62.49,186,57.63,216.67,59,216.67,59L232,45.83l16.84-8.34L286,41l10,13.19-3.33,37.49s10.66,43.06,11.22,47.38S308,150.68,308,152.76s-5.33,17.36-3.85,17,13.21,13.54,13.21,13.54l5.73-18s11.58-29.86,10.56-31.94,8.35-23.61,9-29.86,4.66-20.83,6.66-23.61,5.34-16,5.34-16l3.51-16,13.61-17.44S390,24.3,392.84,25s4.49,3.47,6.5,4.86,6.06,0,6.06,0l14-17.36L435.89,0H0V684.6S489.08,686.26,480.31,684.6Z"/></g></g></svg>