<svg xmlns="http://www.w3.org/2000/svg" viewBox="0 0 445.62 456.09"><defs><style>.cls-1{fill:#4985a7;}.cls-2{fill:#e9cb4d;}.cls-3{fill:#182547;}.cls-4{fill:#f9d9b9;}.cls-5{fill:#0a1817;}.cls-6{opacity:0.4;}.cls-7{fill:none;stroke:#c13331;stroke-linecap:round;stroke-linejoin:round;}.cls-10,.cls-7{stroke-width:0.5px;}.cls-8{fill:#41b3a9;}.cls-9{fill:#5ab4a5;}.cls-10{fill:#081716;stroke:#081716;stroke-miterlimit:10;}.cls-11{fill:#162243;}</style></defs><title>chung</title><g id="圖層_2" data-name="圖層 2"><g id="chung"><path class="cls-1" d="M193.68,332.58s70.41-56.81,75.07-64.15,30-30,42.34-40.77c6.84-6,22.89-13,37.9-25.62,14.68-12.33,25.35-55.93,25.87-62.2s-16.73-8.36-16.73-8.36S340.81,171,325.2,175.91c-17,5.35-40.51,16.85-49.92,19.47s-19.62-9.35-3.53-23.59c14.64-12.94,19.13-19.22,21-29.86,2.95-17.12-16.65-39.72-16.65-39.72H260.39s9.4,22.47,1,37.63-34.12,17.77-47.19,18.82-31,12.46-44,26.09-46.7,64.86-46.7,64.86Z"/><path class="cls-2" d="M104.73,251s27-49,36.83-61.15,26.29-32.1,64.31-22.7,67.92,22,78,29.91c11.53,9.05,16,27,3.53,48.85-10.62,18.59-32.44,49.46-44.71,63.49C214.78,341.44,104.73,251,104.73,251Z"/><path class="cls-3" d="M374.87,138.26s7.83-4.45,10.7-9.15S418.51,87.3,429,76.84s20.91-24.28,14.9-24c-11.23.46-16.47-6.81-18.82-9.68s-20.13,1.82-23.52,1.3S398.38,53.06,396,63s-20.39,24-25.61,36.07-11.5,24.3-12,31.36S366.26,144.78,374.87,138.26Z"/><path class="cls-3" d="M275.67,104.33s6.64-6.08,8.39-11.31S306.8,44.9,314.65,32.37,329.59,4,323.79,5.61C313,8.58,306.22,2.66,303.28.38s-19.2,6.29-22.63,6.54-1.13,9.11-1.2,19.31-14.49,28-16.89,40.89-5.77,26.26-4.7,33.26S268.74,112.61,275.67,104.33Z"/><path class="cls-4" d="M131.15,430.91s-7.32,4.8-11.51,11.59-7.85,13.59-4.46,13.59,15.95-4.44,21.7-11.24,6.06-9,6.06-9S142.94,431.35,131.15,430.91Z"/><path class="cls-4" d="M20.19,398.26s-9.66,8.4-13.47,12.08C1.34,415.55-3.1,420.79,2.8,420.8c6.4,0,10.65-2,17.39-6.54a91.29,91.29,0,0,0,9.23-7.14S27.66,397.93,20.19,398.26Z"/><path class="cls-1" d="M57.37,338.34A154,154,0,0,0,34.5,366.06a132.05,132.05,0,0,0-14.31,32.2,18,18,0,0,0,2.22,3.21c1.6,1.92,7,5.65,7,5.65S47.49,394.8,60,383.94,86.23,361,91.88,355.33c11.17-11.28,17.19-20.53,19.29-29.12S96.07,315.63,85,322.76,57.37,338.34,57.37,338.34Z"/><path class="cls-1" d="M144.43,361.66A153.81,153.81,0,0,0,133,395.73a131.71,131.71,0,0,0-1.84,35.18,17.54,17.54,0,0,0,3.21,2.21c2.19,1.22,8.58,2.77,8.58,2.77s12.47-18,20.21-32.57,16.34-30.82,19.57-38.15c6.4-14.52,8.71-25.31,7.6-34.09s-17.89-4.48-25.71,6.15S144.43,361.66,144.43,361.66Z"/><path class="cls-4" d="M173.79,319.45c-8.85,34.53-40.27,56.31-70.18,48.65s-47-41.87-38.12-76.4,40.26-56.31,70.17-48.65S182.64,284.92,173.79,319.45Z"/><path class="cls-5" d="M88.23,315c-1,1.24-4.1.41-7-1.85s-4.48-5.1-3.52-6.33,4.1-.42,7,1.85S89.19,313.78,88.23,315Z"/><path class="cls-5" d="M128.32,321.18c-.44-1.51,2.07-3.57,5.61-4.59s6.75-.65,7.19.86-2.07,3.56-5.6,4.59S128.76,322.68,128.32,321.18Z"/><path class="cls-5" d="M78.32,309.44s-1-1.47-1.94-3a18.11,18.11,0,0,1-1.11-2.19,4.34,4.34,0,0,1-.26-.77l-.08-.28.2.22a4.48,4.48,0,0,0,.54.55,15,15,0,0,0,1.86,1.4c1.43,1,2.9,1.76,2.9,1.76Z"/><path class="cls-5" d="M138.94,316.35l.86-.25c.49-.16,1.17-.36,1.82-.63l1-.4.78-.44.8-.47s-.17.33-.44.81l-.5.85c-.21.29-.44.59-.67.89-.46.62-1,1.19-1.38,1.63s-.64.69-.64.69Z"/><g class="cls-6"><path class="cls-7" d="M133.45,333.39l.54-.31s-1.46.93-1.45.94,2.29-1.37,2.31-1.34-3,2.13-3,2.14l3.73-2.16s-3.62,3.08-3.62,3.08,6.8-4.09,6.87-4-7.46,4.71-7.46,4.71,7.19-4.21,7.22-4.17-7,4.79-7,4.8,8.72-5.24,8.81-5.08-8.23,5.16-8.23,5.16c.11.21,9.37-5.69,9.49-5.48,0,0-10.11,5.72-10.05,5.83s8.94-5.37,9-5.21-8.74,5.6-8.65,5.77c0,0,9.25-5.47,9.3-5.37s-8.8,5.06-8.76,5.12,9.76-5.64,9.76-5.64-8.93,5.77-8.85,5.92S144.07,332,144.07,332s-11.81,6.69-11.72,6.85,11.16-6.44,11.16-6.44-11,6.74-10.95,6.86l12.36-7.14c.13.22-12.43,7.11-12.31,7.31s12.26-7.09,12.27-7.08-11.21,7.16-11.1,7.36L145.42,333c.05.07-11.66,7.11-11.66,7.11l11.66-6.73-10.09,7c.12.21,12.38-7.51,12.54-7.24l-12.52,7.49,12.56-7.25s-12.68,7.92-12.54,8.16,12.49-7.21,12.49-7.21l-12.41,7.53s13.05-7.62,13.09-7.55-12.31,7.61-12.23,7.76S148.59,335,148.59,335c.1.18-10.52,6.91-10.44,7.05s11-6.36,11-6.36c.1.17-9.82,6.43-9.74,6.57s11.58-6.87,11.66-6.73-11,7.33-10.92,7.52l10.91-6.29s-9.76,6.12-9.67,6.26S152,336.75,152,336.87s-11.55,6.77-11.53,6.81c.14.23,11.78-6.81,11.78-6.8.11.18-9.78,6.2-9.68,6.37s9-5.45,9.12-5.26-7.51,4.92-7.45,5,7.36-4.31,7.38-4.26-7.61,4.82-7.52,5c0,0,7.77-4.51,7.78-4.5s-7.13,4-7.09,4.11,7.85-4.62,7.89-4.55-6.8,4.2-6.75,4.29,5.85-3.45,5.88-3.4-4.07,3.34-4,3.43,4.82-2.9,4.87-2.81-3.59,2.41-3.59,2.41l3.37-1.95s-1.48,1.36-1.46,1.38.58-.37.6-.35"/></g><path class="cls-8" d="M104.53,263.2S93.36,260.45,83,271.43s-17.88,20.36-19.82,38c0,0-10.56-16.84,6.69-41.15S111,241.52,111,241.52Z"/><path class="cls-9" d="M108.26,245.56s-6.64-13.72,11.38-18.82,45.85-5,64.67,12.18,43.54,23.89,63.53,23.89,26.4-4.05,41.56,0,25.09,12.93,14.11,17.64c0,0,8.62-6,0-7.84s-19.08-1.05-32.15,2.87-20.38,17.77-24.3,29S226,324.36,209.79,336.38s-29.53,15.42-37.11,12,12.9-68.47,3.44-74.23S108.26,245.56,108.26,245.56Z"/><path class="cls-8" d="M65.49,291.7c6.3-24.6,24.06-42.72,44.57-48.34.6-5.25.94-8.39.94-8.39s-18.28-2.09-30.57,8.89-24.05,29.28-25.88,42.86-6.53,22.74-9.93,41S48.36,360.68,60,365.13c10.78,4.13,21.72,4.63,29.29-3.32C68.56,348.5,58.18,320.22,65.49,291.7Z"/><g class="cls-6"><path class="cls-7" d="M62.3,319.87l.35-.2-1.5,1s2.46-1.47,2.48-1.43l-3.06,2.18,3.79-2.18s-3.74,3.14-3.74,3.14c.1.16,7-4.18,7-4S60,323.11,60,323.11s7.45-4.36,7.48-4.31-7.25,4.93-7.25,4.94,8.94-5.37,9-5.21-8.44,5.28-8.44,5.28c.12.21,9.61-5.83,9.73-5.62,0,0-10.35,5.85-10.28,6s9.17-5.52,9.27-5.35c0,0-9,5.75-8.92,5.92,0,0,9.49-5.61,9.55-5.51s-9,5.2-9,5.26,10-5.77,10-5.77-9.17,5.89-9.07,6,10.85-6.26,10.85-6.26-12.08,6.84-12,7,11.42-6.59,11.42-6.59-11.31,6.91-11.24,7,12.68-7.33,12.69-7.32c.13.22-12.75,7.29-12.63,7.49s12.55-7.26,12.56-7.25-11.49,7.31-11.37,7.52l11.91-6.88c0,.08-11.93,7.27-11.93,7.27s12-6.91,12-6.9L63.94,327c.13.22,12.62-7.66,12.79-7.38L64,327.24l12.81-7.4S63.85,327.91,64,328.15s12.77-7.38,12.77-7.38l-12.68,7.69s13.31-7.77,13.35-7.7-12.55,7.75-12.46,7.9,12.47-7.2,12.47-7.2c.11.19-10.69,7-10.61,7.15S78,322.14,78,322.14c.1.17-10,6.52-9.9,6.66S79.82,321.87,79.9,322s-11.09,7.36-11,7.56l11-6.35s-9.81,6.15-9.73,6.3,10.55-6.25,10.62-6.13-11.52,6.75-11.49,6.79c.13.23,11.74-6.79,11.74-6.78.11.18-9.69,6.15-9.59,6.32s8.94-5.41,9-5.22-7.39,4.85-7.33,5,7.11-4.17,7.14-4.12S73,330,73.09,330.14s7.5-4.35,7.51-4.33-6.85,3.89-6.82,3.95,7.58-4.47,7.62-4.4-6.44,4-6.39,4.08,5.43-3.2,5.46-3.15-3.33,2.93-3.29,3S81,327,81.08,327s-2.54,1.8-2.54,1.8l2-1.16s-1,.77-1,.78.4-.26.41-.24"/></g><path class="cls-10" d="M155.7,313c-2.07-1.46-6.43-2.95-11.67-4a72.1,72.1,0,0,0-9.32-1.21A36.72,36.72,0,0,0,121,309.19l-.14,0c-1.85.55-3.85,1.9-9.88.71s-7.13-3.06-10.81-5.63v0a39.35,39.35,0,0,0-10.85-5.48,70.35,70.35,0,0,0-9.08-2.41c-5.24-1-9.84-1.31-12.31-.74-2.78.64-7.94,1.83-8.25,10.12C59.52,311.29,60,321,65.62,325c4.44,3.12,9.14,4.12,14.11,5.19l.58.12.77.16c4.86,1,12,1.45,18-5.34a26,26,0,0,0,2.72-3.71v0l0-.07a22.64,22.64,0,0,0,1.46-2.85l1.47-2.8c1.35-2.5,3.21-2.22,5.33-1.8s3.51,1.34,3.82,2.59c.16.64.36,2.59.53,4.33a23,23,0,0,0,.28,3.11v0h0a25.28,25.28,0,0,0,1.11,4.44c3,8.54,9.76,10.81,14.61,11.76l.78.15.59.1c5,.9,9.73,1.74,15,.55,6.67-1.51,10.82-10.35,12.7-15.49C162.35,317.66,158,314.6,155.7,313ZM97.43,323.65c-5.45,6.2-11.85,5.54-16.67,4.5l-.57-.12c-5-1.07-9.25-2-13.33-4.84-3.48-2.44-5.29-8.74-5-17.29.25-6.63,3.9-7.47,6.57-8.09,2.15-.5,6.52-.21,11.4.75a69.31,69.31,0,0,1,8.8,2.35c7.57,2.57,12,6,13.44,8.24C103.33,311,102.8,317.55,97.43,323.65Zm60,1.05c-2.94,8-7,13.19-11.14,14.12-4.86,1.1-9.17.33-14.16-.56l-.59-.11c-4.85-.86-11-2.68-13.72-10.48s-.65-14,1.17-15.2c2.19-1.46,7.58-3,15.56-2.53a67.46,67.46,0,0,1,9,1.17c4.88.95,9,2.34,10.84,3.62C156.68,316.31,159.75,318.48,157.46,324.7Z"/><path class="cls-9" d="M104.53,263.2c3.33,0,6.86-4.51,18.82-2s20.58,9.6,27.83,19.4,10.39,15.1,10.78,21.17,2.36,13.53-6.27,22.35S135.9,354.93,138.94,363s12.24,10.19,12.24,10.19-7.7-3.72-7-14.5,6-15.88,6-15.88-3.83,11.4-2.3,15.89,7.79,13.32,20.73,13.12,12-1.57,23.52-4.7,17.64,2.15,23.33,6.07,4.51,24.31-9.22,21c0,0,4.32,5.88,10.59,2.55s24.72-7.85,25.5-13.14S227,365.52,214.5,360s-18.82-3.33-24.9-4.12-15.19-2.94-13.48-10,16.91-72.46,0-85.24S140.4,232.77,111,241.52,101.2,263.2,104.53,263.2Z"/><path class="cls-1" d="M114.09,345.91a11.11,11.11,0,1,1-11.1-11.1A11.1,11.1,0,0,1,114.09,345.91Z"/><path class="cls-11" d="M110.87,345.91A7.89,7.89,0,1,1,103,338,7.89,7.89,0,0,1,110.87,345.91Z"/><path class="cls-5" d="M73.76,292.33a8.73,8.73,0,0,1,1.95-1,11.9,11.9,0,0,1,2.16-.61,14.33,14.33,0,0,1,2.58-.22,11.57,11.57,0,0,1,2.6.38,6.68,6.68,0,0,1,1.14.41,6.75,6.75,0,0,1,1,.49,7,7,0,0,1,1.67,1.46l-.58-.19a13.82,13.82,0,0,0-1.44-.44c-.29-.1-.64-.12-1-.21s-.71-.09-1.07-.17-.77-.05-1.15-.11-.8,0-1.2-.05c-1.62,0-3.26.06-4.52.13Z"/><path class="cls-5" d="M148.64,308a23.2,23.2,0,0,0-2-1.46,22.83,22.83,0,0,0-2.06-1.24,18.68,18.68,0,0,0-2.48-1.12,22.16,22.16,0,0,0-2.61-.79l-1.24-.26c-.4-.09-.78-.11-1.14-.18-.71-.12-1.32-.15-1.75-.21l-.68-.1s.23-.09.65-.21a8.66,8.66,0,0,1,1.79-.38,7.9,7.9,0,0,1,1.22-.08,13,13,0,0,1,1.38.05c.47.08,1,.12,1.46.25s1,.25,1.47.44a12.28,12.28,0,0,1,2.66,1.42,10.45,10.45,0,0,1,1.08.86,10,10,0,0,1,.85.89A7.27,7.27,0,0,1,148.64,308Z"/><path class="cls-11" d="M294.48,276.7c-5.75-.18-10.43,7.59-16.84,18.41-6,10.16-12.84,21.68-21.23,26.89-9.24,5.74-33.23,8.24-38.83,7.71-1.25,1.27-2.67,2.57-4.28,3.91,7.39,2.36,33.45-.09,45.59-7.63,9.38-5.82,16.51-17.86,22.8-28.48,4.47-7.56,9.53-16.11,12.54-16.11h.06c1,0,2.4,1.59,3.71,4.27,5.83,11.86,5.9,28.23.19,43.79-6.17,16.85-18,30.14-32.47,36.45-32.4,14.13-107-11.31-113.47-14.25-12.65-5.76-33.18-10.35-45.61-8.06l.85,4.63c11.52-2.13,30.82,2.25,42.81,7.71,8.4,3.82,60.51,19,91.58,19,9.21,0,18.05-1.33,25.72-4.68,15.63-6.82,28.39-21.09,35-39.14,6.14-16.74,6-34.49-.39-47.49C300,279.07,297.47,276.81,294.48,276.7Z"/></g></g></svg>