<svg xmlns="http://www.w3.org/2000/svg" viewBox="0 0 786.55 254.52"><defs><style>.cls-1{fill:#e7e3e0;}.cls-2{fill:#d9ccc4;}.cls-3{fill:#745e57;stroke:#745e57;stroke-miterlimit:10;stroke-width:0.5px;}</style></defs><title>chung-i</title><g id="圖層_2" data-name="圖層 2"><g id="chung-i"><path class="cls-1" d="M13.64,175.14l660.06,79.3c8.06,1,15.59-6.51,15.59-6.51h0l94.38-62.86a7.54,7.54,0,0,0,1.27-10.58l-76.62-85h0s-5.54-9-13.6-10L34.65.19c-8.06-1-15,1.94-15.58,6.51L0,165.12C-.52,169.68,5.57,174.17,13.64,175.14ZM723,157.42a14.1,14.1,0,1,1-15.68,12.31A14.09,14.09,0,0,1,723,157.42Z"/><rect class="cls-2" x="342.57" y="-118.17" width="17.83" height="456.74" transform="translate(200.14 446.03) rotate(-83.15)"/><rect class="cls-2" x="334.93" y="-91.83" width="17.83" height="531.16" transform="translate(130.33 494.42) rotate(-83.15)"/><path class="cls-2" d="M661.6,224.76c-1.55,8.6-8.34,10-15.37,9.11L630.7,232l-61.3-7.36-90.28-10.85L372,200.92,261.63,187.67,160.49,175.51,81,166l-44.34-5.32c-4.06-.49-8.21-.52-11.28-3.72-1.07-1.11-1.45-2.54-2.32-3.72-.42-.57-.72-1.81-.58-.29a6,6,0,0,1,.1-.84c0-1.44.35-2.93.52-4.35l2.08-17.32L36.8,33.64c1-7.91,2.28-17.22,12.92-16.35,3.31.28,6.61.8,9.9,1.19l52,6.25,84.72,10.18,103.9,12.48,111.1,13.35L515.87,73.3l85.67,10.29,54.21,6.51c3.69.44,7.39.82,11.08,1.33,3.09.43,5.87,1.53,7.83,4.16a13.21,13.21,0,0,1,1.88,4c.07.2.17-1.41.21-.92a5.8,5.8,0,0,1-.12,1c-.11,1.54-.37,3.07-.55,4.6L664.6,199.8l-3,25c-.19,1.65.2,3.37,0,5l9.7-80.71,5-41.42c1-8.25,2-19.32-8.77-21.12-9.87-1.64-20-2.4-29.93-3.59l-70-8.41L470.32,62.82,360,49.57,249.46,36.29l-97.41-11.7L80.79,16C70.43,14.78,60,13.11,49.63,12.28c-11.23-.89-12,9.49-13,17.62L31.17,75.5l-6.32,52.58c-1,8.25-2.64,16.69-2.49,25s5.44,11.47,12.45,12.32l15.4,1.84,61.51,7.4,92,11,108.3,13,111.69,13.41,101.8,12.23,78.92,9.48,42,5c7,.84,13.66-.65,15.19-9.13C661.9,228.14,661.31,226.37,661.6,224.76Z"/><path class="cls-3" d="M157.72,55.38c.27-.83.52-1.7.75-2.62l-7.77-.94c-.82-.09-1.18-.6-1.07-1.5A1.11,1.11,0,0,1,151,49.23l5.14.62c-.53-.66-1-1.3-1.54-1.9a2.2,2.2,0,0,1-.29-.86c.13-1,.76-1.5,1.89-1.36a1.29,1.29,0,0,1,.83.61,21.24,21.24,0,0,1,2,2.87,2.57,2.57,0,0,1,.08.83.24.24,0,0,1-.07.16l5.65.68.72-.64c.73-.8,1.43-1.62,2.11-2.46a1.49,1.49,0,0,1,1.39-.52,1.39,1.39,0,0,1,.93.5,1.46,1.46,0,0,1,.27,1.06,2,2,0,0,1-.42.94,12.81,12.81,0,0,1-1.43,1.51l0,0,5,.6a1.07,1.07,0,0,1,1,1.37c-.11.91-.56,1.31-1.35,1.22l-7.17-.87-.32,2.68,5.3.64c1.56.18,2.25,1,2.07,2.48l-1.49,12.4A2.12,2.12,0,0,1,168.71,74l-8.58-1q-.3,1.47-.57,2.64l11.16,1.34A1.25,1.25,0,0,1,172,78.49a1.23,1.23,0,0,1-1.56,1.19l-9.89-1.19a35.75,35.75,0,0,0,3.38,3.08,32.75,32.75,0,0,0,4.2,3,1.31,1.31,0,0,1,.58,1.27c-.17,1-.69,1.45-1.54,1.41a3.48,3.48,0,0,1-1.2-.49,22.53,22.53,0,0,1-3.48-2.53A37.24,37.24,0,0,1,158,79.56a9.67,9.67,0,0,1-3.55,3.75,13.09,13.09,0,0,1-6.69,1.57l-.47-.06c-.9-.16-1.3-.78-1.19-1.86a1.37,1.37,0,0,1,1.39-1.25,10.2,10.2,0,0,0,5.36-1.21,7.52,7.52,0,0,0,2.72-2.6l-8.23-1a1.2,1.2,0,0,1-1.16-1.52c.12-.93.61-1.35,1.49-1.24l9.17,1.1c.23-.78.45-1.65.66-2.63l-7.26-.88A2.15,2.15,0,0,1,148.07,69l1.49-12.39c.18-1.47,1.07-2.11,2.68-1.92Zm4.91,3.22-3.23-.39a6.72,6.72,0,0,1-.87,1.53,15.36,15.36,0,0,1-3.92,3.92,2,2,0,0,1-1.09.17,1.21,1.21,0,0,1-1.2-1.52,1.19,1.19,0,0,1,.65-.74,14.79,14.79,0,0,0,3.43-3.42,3.08,3.08,0,0,0,.16-.28l-3.31-.4a.88.88,0,0,0-1.1.86l-.76,6.32,17.83,2.15.28-2.3a2.79,2.79,0,0,1-.56,0L164.7,64a2.38,2.38,0,0,1-2.36-3Zm6.31,10.57L151.11,67,151,68c-.09.79.19,1.22.84,1.3l15.78,1.9c.71.09,1.12-.27,1.21-1.06Zm-5.68-15.84L161,53.06c-.21,1-.43,1.88-.66,2.63l2.63.32Zm6.51,8.88.21-1.74c.08-.65-.23-1-.94-1.1l-3.91-.47-.2,1.7c-.08.65.17,1,.73,1.07l3.57.43A2.6,2.6,0,0,1,169.77,62.21Zm11-12.67,6.24.75c1.5.18,2.16,1,2,2.35a6,6,0,0,1-.65,1.77l-3.89,8.79a5.81,5.81,0,0,0-.34,1.38,3.37,3.37,0,0,0,.34,1.85,30.55,30.55,0,0,1,2.34,6.31,18,18,0,0,1,.05,4.57,8.77,8.77,0,0,1-2,4.8,5.23,5.23,0,0,1-4.82,1.79,7.68,7.68,0,0,1-2.69-1,1.45,1.45,0,0,1-.8-1.51c.15-1.08.66-1.59,1.51-1.54a.53.53,0,0,1,.29.16,5.79,5.79,0,0,0,1.71.81,2.64,2.64,0,0,0,2.5-1.12,5.68,5.68,0,0,0,1.22-3,14.42,14.42,0,0,0-.06-3.45,25.85,25.85,0,0,0-2.54-6.81,3.4,3.4,0,0,1-.26-1.75,6.89,6.89,0,0,1,.42-1.76l4.07-9.45c0-.34-.18-.54-.67-.6l-4.71-.57a.8.8,0,0,0-1,.79l-4,33.4A1.38,1.38,0,0,1,173.35,88c-1-.12-1.42-.7-1.29-1.75l4.1-34.12q.36-3.06,3.55-2.68Z"/><path class="cls-3" d="M202,61.78l20.42,2.45q2.67.31,2.37,2.82l-2.72,22.63,5.61.67c1,.13,1.51.68,1.39,1.68a1.38,1.38,0,0,1-1.76,1.33l-36.8-4.42a1.36,1.36,0,0,1-1.34-1.71,1.34,1.34,0,0,1,1.7-1.3l5.44.65L199,64C199.22,62.29,200.21,61.56,202,61.78Zm11.69-9.45a1.51,1.51,0,0,1,1.49,1.9l-.28,2.33L229,58.26a3.15,3.15,0,0,1,2.6,1.69,4.85,4.85,0,0,1,.43,3.19c-.12,1-.32,2.19-.59,3.5a1.8,1.8,0,0,1-2,1.14,1.51,1.51,0,0,1-1.5-1.9,29.71,29.71,0,0,0,.7-3c.13-1-.22-1.58-1-1.68l-29.67-3.57c-.82-.09-1.28.24-1.37,1l-.43,3.57c-.12,1-.75,1.46-1.88,1.32a1.36,1.36,0,0,1-1.35-1.71l.57-4.71c.25-2.07,1.4-3,3.47-2.73l14.56,1.75.28-2.33A1.53,1.53,0,0,1,213.68,52.33ZM201.4,69.58,221.09,72l.46-3.83c.09-.7-.2-1.09-.85-1.17L203,64.82a.92.92,0,0,0-1.14.94Zm-1,8.54,19.7,2.36.65-5.43L201,72.68ZM199.31,87,219,89.31l.7-5.81L200,81.13Z"/><path class="cls-3" d="M273.73,62.43a1.21,1.21,0,0,1,1.2,1.52c-.12,1-.64,1.47-1.54,1.37L258,63.47l-.29,2.37,13.54,1.63a1.11,1.11,0,0,1,1.09,1.38c-.11.9-.58,1.31-1.4,1.21l-13.54-1.63-.32,2.68,16.94,2a1.24,1.24,0,0,1,1.23,1.55c-.12,1-.64,1.45-1.58,1.34l-37.14-4.47c-.91-.11-1.3-.66-1.18-1.67a1.22,1.22,0,0,1,1.53-1.21l16.93,2,.32-2.67-13.92-1.67c-.76-.1-1.09-.59-1-1.5s.53-1.19,1.29-1.09l13.92,1.67.29-2.38L239.09,61.2c-.88-.11-1.25-.67-1.13-1.69a1.19,1.19,0,0,1,1.48-1.2l15.62,1.87.18-1.48A1.37,1.37,0,0,1,257,57.36c1.13.14,1.64.71,1.51,1.73l-.17,1.49ZM242.27,74.84l25.18,3c2.14.26,3.1,1.42,2.85,3.49l-1.7,14.09c-.31,2.61-2.11,3.71-5.39,3.32a31.82,31.82,0,0,1-6-1.46,1.42,1.42,0,0,1-.91-1.44c.15-1.25.64-1.82,1.46-1.73a10.38,10.38,0,0,1,1.3.29,26.73,26.73,0,0,0,4.22,1c1.36.16,2.12-.38,2.27-1.63l.26-2.16-25.17-3-.73,6.07c-.13,1-.75,1.46-1.88,1.33a1.36,1.36,0,0,1-1.35-1.71l2-16.77Q239,74.45,242.27,74.84Zm-.65,5.43,25.17,3,.19-1.56q.12-1-.39-1l-24.32-2.92c-.23,0-.38.29-.46,1ZM241,85.88l25.17,3,.34-2.84-25.17-3Z"/><path class="cls-3" d="M320.17,70.16a5.29,5.29,0,0,1-.7,1.51l-9.23,15.9L309,98.27c-.15,1.24-.74,1.8-1.76,1.68s-1.49-.81-1.34-2.06l1.28-10.69-5.2-17.64a5.07,5.07,0,0,1-.29-1.54c.13-1.1.69-1.59,1.69-1.47.65.07,1.15.69,1.5,1.85l4.36,14.91,7.73-13.45c.62-1,1.23-1.53,1.86-1.46A1.4,1.4,0,0,1,320.17,70.16Z"/><path class="cls-3" d="M335,72.2a2.41,2.41,0,0,1-.88,1.61,2.47,2.47,0,0,1-3.4-.41,2.42,2.42,0,0,1-.47-1.78,2.29,2.29,0,0,1,.88-1.61,2.37,2.37,0,0,1,3.4.41A2.35,2.35,0,0,1,335,72.2Zm-4.26,28.68c-.15,1.24-.74,1.8-1.75,1.68s-1.5-.81-1.35-2.06l2.26-18.8c.15-1.24.75-1.8,1.79-1.68s1.46.81,1.31,2Z"/><path class="cls-3" d="M360.31,99.05a6.85,6.85,0,0,1-2.66,4.25,7.82,7.82,0,0,1-6.34,2,8.33,8.33,0,0,1-6.55-4.28,12,12,0,0,1-1.51-7.89,13.48,13.48,0,0,1,3.16-7.67,8.42,8.42,0,0,1,7.6-2.7,8.21,8.21,0,0,1,5.9,3.55,5.66,5.66,0,0,1,1.44,3.83,1.21,1.21,0,0,1-.68,1,2.23,2.23,0,0,1-1.32.27c-.32,0-.61-.45-.89-1.23q-1.33-3.9-4.82-4.32a5.17,5.17,0,0,0-5,2.19,11,11,0,0,0-2,5.48,9.64,9.64,0,0,0,.84,5.57,5.46,5.46,0,0,0,4.4,3.12,4.83,4.83,0,0,0,3.46-.84,5.93,5.93,0,0,0,2.11-2.85c.34-.87.88-1.27,1.65-1.18A1.36,1.36,0,0,1,360.31,99.05Z"/><path class="cls-3" d="M380.52,106.86c-.15,1.25-.72,1.81-1.71,1.69s-1.45-.8-1.3-2l1.54-12.86a4.76,4.76,0,0,0-.87-3.51,4.26,4.26,0,0,0-3.06-1.74,5,5,0,0,0-3.82,1.3q-2.58,2.15-2.78,3.8l-1.41,11.76c-.15,1.25-.74,1.81-1.76,1.69s-1.49-.81-1.34-2.06l3.46-28.78c.14-1.22.74-1.76,1.78-1.63s1.46.79,1.31,2L369.18,88a7.19,7.19,0,0,1,6.48-2.67,6.82,6.82,0,0,1,5,2.89,8,8,0,0,1,1.37,5.8Z"/><path class="cls-3" d="M400.15,80a2.4,2.4,0,0,1-.89,1.61,2.3,2.3,0,0,1-1.78.48,2.35,2.35,0,0,1-1.61-.88,2.44,2.44,0,0,1-.48-1.78,2.36,2.36,0,0,1,.89-1.62,2.36,2.36,0,0,1,3.39.41A2.31,2.31,0,0,1,400.15,80Zm-4.27,28.68c-.15,1.24-.73,1.81-1.75,1.68s-1.49-.81-1.34-2L395,89.53q.22-1.86,1.8-1.68c1,.13,1.45.81,1.3,2.06Z"/><path class="cls-3" d="M424.45,112.14c-.15,1.25-.73,1.81-1.75,1.68s-1.46-.8-1.31-2l1.55-12.86a4.49,4.49,0,0,0-.95-3.56,4.64,4.64,0,0,0-3.24-1.72A5.81,5.81,0,0,0,415,94.72c-1.62,1-2.5,2.16-2.64,3.35l-1.5,12.43c-.14,1.25-.73,1.81-1.75,1.69s-1.49-.81-1.34-2.06L410,91.33c.16-1.25.75-1.81,1.8-1.68a1.28,1.28,0,0,1,1.25,1,6.2,6.2,0,0,1,0,1.81,8,8,0,0,1,6.13-2,7.55,7.55,0,0,1,5.25,2.91A7.63,7.63,0,0,1,426,99.28Z"/><path class="cls-3" d="M449.84,95.73a1.26,1.26,0,0,1-1.13,1.2,5,5,0,0,0-2.13.9,7.18,7.18,0,0,1,.53,3.43,6,6,0,0,1-3.22,4.65,9.07,9.07,0,0,1-5.7,1.17,9.61,9.61,0,0,1-2.62-.75,2.46,2.46,0,0,0-.77,1c-.06.54,1.65,1.45,5.15,2.73a19.21,19.21,0,0,1,4.66,2.37,4.9,4.9,0,0,1,2,4.63c-.21,1.67-1.41,2.87-3.62,3.61a14.42,14.42,0,0,1-6.31.49,16.46,16.46,0,0,1-6.27-1.91q-3.25-1.91-2.92-4.74c.28-2.27,2.44-3.67,6.49-4.22q-2.73-1.27-2.5-3.14a3.89,3.89,0,0,1,1.45-2.41,6.42,6.42,0,0,1-2.23-5.44,7.08,7.08,0,0,1,2.91-4.9A8.48,8.48,0,0,1,439.88,93a8,8,0,0,1,5,2.32,5.47,5.47,0,0,1,3.69-1.28A1.3,1.3,0,0,1,449.84,95.73Zm-6.58,20.74a3,3,0,0,0-1.44-3.06s-1.16-.5-3.4-1.4a34,34,0,0,0-4.4.42c-2,.45-3.08,1.27-3.22,2.45q-.32,2.55,6.18,3.33C441,118.69,443.07,118.11,443.26,116.47Zm.5-15.61a3.79,3.79,0,0,0-1.08-3.23,5.24,5.24,0,0,0-3.17-1.51,5.92,5.92,0,0,0-3.61.6,3.78,3.78,0,0,0-1.9,3,3.27,3.27,0,0,0,1.45,3,6.69,6.69,0,0,0,3.28,1.3,5.47,5.47,0,0,0,3.31-.64A3.31,3.31,0,0,0,443.76,100.86Z"/><path class="cls-3" d="M491.69,113.37a8.83,8.83,0,0,1-1.89,3.56,10.48,10.48,0,0,1-3.69,3.09,8.3,8.3,0,0,1-4.75.85q-5.26-.63-7.24-6.08a23.87,23.87,0,0,1-.8-10.86,27.35,27.35,0,0,1,3.19-10.46c2.21-3.82,5.13-5.5,8.75-5.07a8.67,8.67,0,0,1,6,3.44,8.26,8.26,0,0,1,1.91,6,1.45,1.45,0,0,1-1.81,1.46c-.65-.08-1.08-.7-1.28-1.88q-.86-5.48-5.22-6-3.82-.45-6.16,4.69a28,28,0,0,0-2.11,8.23,23.42,23.42,0,0,0,.24,8.34q1.22,4.67,4.86,5.1,4.71.57,7.06-5c.37-.91.88-1.32,1.53-1.24A1.44,1.44,0,0,1,491.69,113.37Z"/><path class="cls-3" d="M510.91,122.53c-.15,1.24-.72,1.81-1.71,1.69s-1.45-.81-1.3-2l1.54-12.87a4.75,4.75,0,0,0-.87-3.5,4.27,4.27,0,0,0-3.06-1.75,5,5,0,0,0-3.82,1.31q-2.58,2.15-2.78,3.8l-1.41,11.76c-.15,1.24-.73,1.8-1.75,1.68s-1.5-.81-1.35-2.06l3.46-28.77c.14-1.22.74-1.77,1.79-1.64s1.45.79,1.31,2l-1.39,11.5a7.2,7.2,0,0,1,6.48-2.66,6.88,6.88,0,0,1,5,2.88,8.07,8.07,0,0,1,1.37,5.81Z"/><path class="cls-3" d="M533.19,125.21c-.14,1.24-.73,1.8-1.75,1.68a1.35,1.35,0,0,1-1.3-1.32,12.26,12.26,0,0,1,.16-2.09A7.16,7.16,0,0,1,524,126a7.49,7.49,0,0,1-5.71-3.32,9.75,9.75,0,0,1-1.19-6.55l1.41-11.76c.15-1.25.73-1.81,1.75-1.69s1.45.81,1.3,2L520.1,117a5.49,5.49,0,0,0,.78,3.89,4.33,4.33,0,0,0,3.38,1.95,6.13,6.13,0,0,0,4.39-1.45c1.39-1,2.14-2,2.25-2.92L532.4,106c.15-1.25.73-1.81,1.75-1.69s1.45.81,1.3,2.05Z"/><path class="cls-3" d="M554.84,127.81c-.15,1.24-.73,1.8-1.75,1.68s-1.45-.81-1.3-2.05l1.54-12.86a4.48,4.48,0,0,0-1-3.56,4.6,4.6,0,0,0-3.24-1.72,5.81,5.81,0,0,0-3.79,1.09c-1.61,1-2.5,2.15-2.64,3.34l-1.49,12.44c-.15,1.24-.73,1.81-1.75,1.68s-1.5-.81-1.35-2L540.38,107c.15-1.24.75-1.8,1.79-1.68a1.3,1.3,0,0,1,1.26,1.06,6.65,6.65,0,0,1,0,1.8,8,8,0,0,1,6.14-2,7.51,7.51,0,0,1,5.24,2.91,7.61,7.61,0,0,1,1.63,5.83Z"/><path class="cls-3" d="M580.24,111.39a1.27,1.27,0,0,1-1.14,1.2,5.08,5.08,0,0,0-2.13.91,7.27,7.27,0,0,1,.54,3.42,6.08,6.08,0,0,1-3.23,4.65,9.07,9.07,0,0,1-5.7,1.17A9.61,9.61,0,0,1,566,122c-.48.46-.74.79-.76,1-.07.54,1.65,1.45,5.14,2.73a18.52,18.52,0,0,1,4.66,2.37,4.89,4.89,0,0,1,2,4.63q-.3,2.5-3.62,3.61a14.52,14.52,0,0,1-6.3.49,16.35,16.35,0,0,1-6.27-1.92q-3.27-1.89-2.92-4.74.4-3.39,6.49-4.22c-1.82-.84-2.66-1.89-2.51-3.13a3.88,3.88,0,0,1,1.45-2.42,6.4,6.4,0,0,1-2.23-5.43,7.1,7.1,0,0,1,2.91-4.9,8.48,8.48,0,0,1,6.28-1.36,8.07,8.07,0,0,1,5,2.32,5.43,5.43,0,0,1,3.68-1.27A1.3,1.3,0,0,1,580.24,111.39Zm-6.59,20.74a2.92,2.92,0,0,0-1.43-3s-1.16-.5-3.41-1.4a36.42,36.42,0,0,0-4.4.41c-2,.45-3.08,1.27-3.22,2.46-.21,1.7,1.86,2.81,6.19,3.33C571.37,134.36,573.46,133.77,573.65,132.13Zm.51-15.61a3.84,3.84,0,0,0-1.08-3.23,5.22,5.22,0,0,0-3.18-1.5,5.74,5.74,0,0,0-3.6.6,3.75,3.75,0,0,0-1.91,3,3.27,3.27,0,0,0,1.45,3,6.6,6.6,0,0,0,3.29,1.3,5.43,5.43,0,0,0,3.3-.63A3.34,3.34,0,0,0,574.16,116.52Z"/><path class="cls-3" d="M132.78,142.51a1.66,1.66,0,0,1-2.09,1.64l-3-.36q-3.9-.47-3.38-4.8L126,124.9l-3.27-.39c-1.24-.15-1.8-.73-1.68-1.75s.81-1.5,2-1.35l3.27.39.4-3.31c.15-1.27.75-1.85,1.8-1.72s1.45.82,1.3,2.09l-.4,3.32,3.44.41c1.24.15,1.8.75,1.68,1.79s-.81,1.46-2.05,1.31l-3.44-.42L127.48,139c-.13,1.11.21,1.71,1,1.81l2.63.31C132.33,141.25,132.88,141.72,132.78,142.51Z"/><path class="cls-3" d="M153.3,116.51a2.4,2.4,0,0,1-.88,1.62,2.36,2.36,0,0,1-1.78.47,2.3,2.3,0,0,1-1.61-.88,2.39,2.39,0,0,1-.48-1.78,2.35,2.35,0,0,1,.88-1.62,2.26,2.26,0,0,1,1.79-.52,2.31,2.31,0,0,1,1.61.93A2.28,2.28,0,0,1,153.3,116.51ZM149,145.19c-.15,1.25-.73,1.81-1.75,1.69s-1.5-.82-1.35-2.06L148.2,126c.15-1.25.75-1.81,1.79-1.68s1.46.8,1.31,2Z"/><path class="cls-3" d="M177.61,148.62c-.15,1.25-.74,1.81-1.76,1.69s-1.45-.81-1.3-2.05l1.54-12.87a4.42,4.42,0,0,0-1-3.55,4.61,4.61,0,0,0-3.23-1.73,5.81,5.81,0,0,0-3.79,1.1q-2.43,1.56-2.65,3.34L164,147c-.15,1.25-.73,1.81-1.75,1.69s-1.5-.81-1.35-2.06l2.26-18.8c.15-1.25.75-1.8,1.8-1.68a1.3,1.3,0,0,1,1.25,1.06,6.25,6.25,0,0,1-.05,1.8,8,8,0,0,1,6.14-2,7.81,7.81,0,0,1,6.87,8.75Z"/><path class="cls-3" d="M199.25,151.22c-.15,1.25-.73,1.81-1.75,1.69a1.39,1.39,0,0,1-1.34-1.41,13.9,13.9,0,0,1,.22-2.17q-4.4,2.91-7.5,2.54a6.53,6.53,0,0,1-4.32-2.37,6,6,0,0,1-1.37-4.68,6.52,6.52,0,0,1,5.54-6c2-.51,5-.52,8.92-.05.3-3.67-1.13-5.69-4.27-6.07a5.35,5.35,0,0,0-3.3.6,12.11,12.11,0,0,0-2,1.57q-.84.93-1.14.9c-1.25-.15-1.81-.72-1.69-1.71a4.69,4.69,0,0,1,1.85-2.5,8.29,8.29,0,0,1,6.61-2q8,1,6.92,9.75Zm-2.39-5.92.42-3.48-2.67-.33a11.92,11.92,0,0,0-4.91.36q-2.91.94-3.2,3.36a2.94,2.94,0,0,0,.71,2.33,2.91,2.91,0,0,0,2,1.23Q192.49,149.16,196.86,145.3Z"/><path class="cls-3" d="M222.33,146.2a9.77,9.77,0,0,1-3.25,6.33,7.89,7.89,0,0,1-6.55,2.18,8.43,8.43,0,0,1-6.22-3.46,9.84,9.84,0,0,1-1.59-7.17q.57-4.83,5.72-7.49-3.52-3.6-3.09-7.26a8,8,0,0,1,2.84-5.69,8.2,8.2,0,0,1,6.23-1.36,7.78,7.78,0,0,1,5.46,2.94,8,8,0,0,1,1.52,6q-.43,3.57-4.85,6.31Q222.9,141.49,222.33,146.2Zm-3.35-.4a8,8,0,0,0-.81-4.71,4.61,4.61,0,0,0-3.67-2.76,5,5,0,0,0-4.44,1.75,8.31,8.31,0,0,0-1.15,9.25,5.07,5.07,0,0,0,4,2.54,4.7,4.7,0,0,0,4.21-1.69A7.94,7.94,0,0,0,219,145.8Zm1.15-14.93a5.62,5.62,0,0,0-.83-3.85,4.13,4.13,0,0,0-3.21-1.93q-4.8-.59-5.43,4.64a6.15,6.15,0,0,0,.86,4,4.22,4.22,0,0,0,3.26,2.28,4.13,4.13,0,0,0,3.61-1.46A6.37,6.37,0,0,0,220.13,130.87Z"/><path class="cls-3" d="M243.9,147.33a13.39,13.39,0,0,1-2.85,7.19,7.49,7.49,0,0,1-11.45.39,11.61,11.61,0,0,1-2.68-7.12,45.06,45.06,0,0,1,.43-7.83q1.29-10.83,4.94-13.53a7.74,7.74,0,0,1,5.74-1.55,9.54,9.54,0,0,1,5.09,2.08,5.19,5.19,0,0,1,2,4.84c-.12,1-.77,1.42-2,1.27-.57-.06-.89-.49-1-1.27-.31-2.42-1.81-3.8-4.5-4.12-2.38-.29-4.14.87-5.28,3.46a26.92,26.92,0,0,0-1.46,6.75,7,7,0,0,1,6.07-2.15,7.13,7.13,0,0,1,5.88,4.15A13,13,0,0,1,243.9,147.33Zm-3.31-.4a12,12,0,0,0-.37-5.17,4.1,4.1,0,0,0-3.53-3.22,5.27,5.27,0,0,0-4.8,1.53,8,8,0,0,0-2,4.76,13.21,13.21,0,0,0,.5,5.87c.74,2.27,2.09,3.53,4.07,3.77,1.81.21,3.29-.6,4.43-2.45A11.87,11.87,0,0,0,240.59,146.93Z"/><path class="cls-3" d="M264.82,158.84c-.11.94-.79,1.33-2,1.18l-13.24-1.59c-1.39-.17-2-.76-1.9-1.78a11.15,11.15,0,0,1,1.8-3.1,27.92,27.92,0,0,1,4-4.59c3.74-3.49,5.87-5.5,6.36-6,2.51-2.75,3.9-5.19,4.16-7.34a4.54,4.54,0,0,0-.95-3.56,5,5,0,0,0-3.33-1.69,6.12,6.12,0,0,0-4.68,1.29c-1,.74-1.74,2.17-2.19,4.3-.25,1.12-.82,1.62-1.69,1.52s-1.42-.75-1.28-1.88a8.61,8.61,0,0,1,10.18-8,7.75,7.75,0,0,1,7.17,9.08c-.26,2.18-1.64,4.59-4.14,7.21q-.69.83-6.44,6a27.1,27.1,0,0,0-5.08,6.06l11.55,1.39C264.37,157.37,264.93,157.91,264.82,158.84Z"/><path class="cls-3" d="M280.18,161.12c-.14,1.13-.72,1.63-1.73,1.51s-1.46-.75-1.33-1.88l3.08-25.64c-2,1.06-3.33,1.54-4,1.46-1.13-.14-1.63-.73-1.51-1.78q.1-.79,1.38-1.08a9,9,0,0,0,5.07-2.75,1.78,1.78,0,0,1,1.59-.71c.77.09,1.11.48,1,1.16Z"/><path class="cls-3" d="M309.16,154.65a15.43,15.43,0,0,1-2.78,7.72,7.57,7.57,0,0,1-7.23,2.84,8.9,8.9,0,0,1-6.41-3.62,5.64,5.64,0,0,1-1.34-4c.13-1,.8-1.49,2-1.35q.72.09,1,1.32c.63,2.84,2.31,4.42,5,4.74a4.63,4.63,0,0,0,4.74-2.53,14,14,0,0,0,1.71-5.57q.82-7-3.58-7.49a6.89,6.89,0,0,0-6.17,2.62c-.57.65-1,1-1.32.92a1.3,1.3,0,0,1-1.31-1.62l1.7-14.19c.17-1.38,1-2,2.55-1.79l10.82,1.3c1.24.15,1.81.71,1.69,1.69s-.79,1.34-2,1.19l-9.38-1.12c-.45-.06-.7.06-.73.34L297,145.39a9.39,9.39,0,0,1,6.11-1.37,6.29,6.29,0,0,1,5.36,3.78A13,13,0,0,1,309.16,154.65Z"/><path class="cls-3" d="M328.37,166a1.66,1.66,0,0,1-2.09,1.65l-3-.36q-3.9-.47-3.38-4.8l1.69-14.09-3.27-.39c-1.25-.15-1.8-.74-1.68-1.75s.81-1.5,2.05-1.35l3.27.39.4-3.31c.15-1.27.75-1.85,1.8-1.72s1.45.82,1.3,2.09l-.4,3.31,3.44.42c1.24.15,1.8.75,1.68,1.79s-.81,1.45-2,1.3l-3.44-.41-1.65,13.71c-.13,1.11.21,1.71,1,1.81l2.63.31C327.92,164.74,328.47,165.21,328.37,166Z"/><path class="cls-3" d="M355.14,150.71s-.16.51-.47,1.44l-5.82,17.22a2.75,2.75,0,0,1-.8,1,1.41,1.41,0,0,1-1.1.51c-.88-.1-1.37-.74-1.49-1.9l-1-12.78-4.22,12.15a2.92,2.92,0,0,1-.67.95,1.53,1.53,0,0,1-1.19.55c-.93-.11-1.43-.75-1.49-1.9l-1.15-18.05a12.71,12.71,0,0,0-.11-1.53c.13-1.13.62-1.64,1.48-1.54s1.42.75,1.49,1.9l.76,13L343.9,149c.27-.86.78-1.24,1.52-1.16s1.15.59,1.24,1.49l1.27,13.41,4.24-12.36c.36-1.11,1-1.61,1.82-1.51S355.28,149.57,355.14,150.71Z"/><path class="cls-3" d="M376.2,155.34a25.53,25.53,0,0,1-2.59,8.69q-2.33,4.64-5,4.32c-1.16-.14-1.72-1.09-1.68-2.83q-2.27,2.35-3.54,2.2c-2.49-.3-3.45-2.77-2.9-7.41a34.08,34.08,0,0,1,2.05-8.45q2.19-5.64,5.58-5.23c1.22.14,2.07,1.22,2.54,3.23.1-.36.25-.89.45-1.58s.56-1.05,1.07-1,.79.41.78,1a11.06,11.06,0,0,1-.29,1.3l-3.91,14.68a2,2,0,0,0,0,.82c.07.38.23.59.49.62.65.08,1.47-1,2.46-3.28a25.51,25.51,0,0,0,2-7.42,23.7,23.7,0,0,0-.21-8.25c-.77-3.16-2.43-4.9-5-5.2q-4.34-.53-7,5.88a36.38,36.38,0,0,0-2.43,9.91,27.74,27.74,0,0,0,.27,8.86q1.13,6,4.86,6.49c2.15.25,4.21-.66,6.18-2.75a1.71,1.71,0,0,1,1.46-.64c.82.1,1.17.61,1.06,1.55a3.44,3.44,0,0,1-1.1,1.63,9.09,9.09,0,0,1-7.7,2.82q-5.17-.61-7-7.51a29.85,29.85,0,0,1-.56-11.09q1.14-9.51,4.85-14.19c2.09-2.59,4.53-3.72,7.34-3.38q4.92.58,6.64,6.31A23.27,23.27,0,0,1,376.2,155.34Zm-7.35-1.91c.3-2.49,0-3.8-1-3.92-.66-.07-1.33.51-2,1.74a24.59,24.59,0,0,0-2.64,9c-.37,3.11-.09,4.73.84,4.84q.9.1,2-2.25A29.48,29.48,0,0,0,368.85,153.43Z"/><path class="cls-3" d="M398.59,155.71a1.27,1.27,0,0,1-1.13,1.2,5.08,5.08,0,0,0-2.14.9,7.32,7.32,0,0,1,.54,3.43,6.06,6.06,0,0,1-3.23,4.65,9,9,0,0,1-5.69,1.16,9.29,9.29,0,0,1-2.63-.74c-.48.46-.74.79-.76,1q-.09.81,5.14,2.73a19.32,19.32,0,0,1,4.67,2.37,4.91,4.91,0,0,1,2,4.63q-.3,2.5-3.62,3.61a14.36,14.36,0,0,1-6.3.49,16.46,16.46,0,0,1-6.27-1.91q-3.27-1.91-2.92-4.74c.27-2.27,2.44-3.67,6.49-4.22-1.82-.85-2.66-1.9-2.5-3.14a3.84,3.84,0,0,1,1.45-2.41,6.43,6.43,0,0,1-2.24-5.44,7.13,7.13,0,0,1,2.92-4.9,8.47,8.47,0,0,1,6.27-1.35,8,8,0,0,1,5,2.32,5.45,5.45,0,0,1,3.69-1.28A1.3,1.3,0,0,1,398.59,155.71ZM392,176.45a3,3,0,0,0-1.44-3.06s-1.16-.5-3.41-1.4a34,34,0,0,0-4.4.42c-2,.45-3.08,1.26-3.22,2.45q-.3,2.55,6.19,3.33Q391.72,178.91,392,176.45Zm.5-15.62a3.78,3.78,0,0,0-1.08-3.22,5.24,5.24,0,0,0-3.18-1.51,5.9,5.9,0,0,0-3.6.6,3.76,3.76,0,0,0-1.91,3,3.29,3.29,0,0,0,1.45,3,6.73,6.73,0,0,0,3.29,1.3,5.44,5.44,0,0,0,3.3-.64A3.33,3.33,0,0,0,392.51,160.83Z"/><path class="cls-3" d="M418,177.5c-.15,1.24-.72,1.81-1.71,1.69s-1.46-.81-1.31-2.05l1.86-15.45c.15-1.28-.35-2-1.51-2.12a3.2,3.2,0,0,0-2.52.9,3.69,3.69,0,0,0-1.32,2.34l-1.64,13.71c-.15,1.25-.74,1.81-1.76,1.68s-1.49-.81-1.34-2l1.79-14.94c.21-1.75-.16-2.69-1.12-2.81a3.29,3.29,0,0,0-2.71,1.36,4.8,4.8,0,0,0-1.44,2.71l-1.57,13.07c-.15,1.25-.72,1.81-1.71,1.69s-1.5-.81-1.35-2l2.26-18.81c.15-1.24.75-1.8,1.79-1.68s1.4.92,1.22,2.39a5,5,0,0,1,4.05-1.76,4,4,0,0,1,3.36,2.86,6.18,6.18,0,0,1,4.83-1.87,3.92,3.92,0,0,1,2.88,1.85,5.18,5.18,0,0,1,.87,3.51Z"/><path class="cls-3" d="M438.31,179.94c-.15,1.25-.74,1.81-1.75,1.69a1.39,1.39,0,0,1-1.34-1.41,13.3,13.3,0,0,1,.21-2.17q-4.4,2.91-7.49,2.54a6.49,6.49,0,0,1-4.32-2.37,6,6,0,0,1-1.38-4.68,6.52,6.52,0,0,1,5.54-6c2-.51,5-.52,8.92-.05q.45-5.5-4.26-6.07a5.26,5.26,0,0,0-3.3.6,11.7,11.7,0,0,0-2,1.57q-.84.93-1.14.9c-1.24-.15-1.81-.72-1.69-1.72a4.72,4.72,0,0,1,1.85-2.48,8.26,8.26,0,0,1,6.61-2q8,1,6.92,9.75ZM435.92,174l.42-3.48-2.68-.33a11.92,11.92,0,0,0-4.91.36c-1.94.63-3,1.75-3.2,3.36a3,3,0,0,0,.71,2.33,3,3,0,0,0,2.05,1.23Q431.54,177.88,435.92,174Z"/><path class="cls-3" d="M457.56,153.06a2.45,2.45,0,0,1-.89,1.62,2.5,2.5,0,0,1-3.4-.41,2.43,2.43,0,0,1-.47-1.78,2.35,2.35,0,0,1,.88-1.62,2.29,2.29,0,0,1,1.79-.51,2.26,2.26,0,0,1,1.61.92A2.33,2.33,0,0,1,457.56,153.06Zm-4.27,28.68c-.15,1.25-.73,1.81-1.75,1.69s-1.5-.81-1.35-2.06l2.26-18.8q.23-1.87,1.8-1.68c1,.12,1.45.81,1.3,2.05Z"/><path class="cls-3" d="M475,184.35c-.15,1.24-.73,1.8-1.75,1.68s-1.5-.81-1.35-2.05l3.46-28.78c.14-1.22.74-1.76,1.79-1.64s1.45.8,1.31,2Z"/><path class="cls-3" d="M492.39,185.32a2.88,2.88,0,0,1-1.1,2,2.92,2.92,0,0,1-2.19.64,3,3,0,0,1,.72-5.94,3,3,0,0,1,2.57,3.32Z"/><path class="cls-3" d="M526.38,185.14a6.88,6.88,0,0,1-2.66,4.24,7.85,7.85,0,0,1-6.35,2,8.34,8.34,0,0,1-6.55-4.28,12.09,12.09,0,0,1-1.5-7.89,13.41,13.41,0,0,1,3.16-7.67,8.41,8.41,0,0,1,7.6-2.7,8.23,8.23,0,0,1,5.9,3.55,5.72,5.72,0,0,1,1.44,3.83,1.27,1.27,0,0,1-.68,1,2.26,2.26,0,0,1-1.33.27c-.31,0-.6-.45-.88-1.23-.9-2.6-2.5-4.05-4.82-4.32a5.19,5.19,0,0,0-5.05,2.19,11,11,0,0,0-2,5.48,9.56,9.56,0,0,0,.84,5.57,5.45,5.45,0,0,0,4.4,3.11,4.79,4.79,0,0,0,3.46-.83,5.93,5.93,0,0,0,2.11-2.85,1.51,1.51,0,0,1,1.64-1.18A1.36,1.36,0,0,1,526.38,185.14Z"/><path class="cls-3" d="M548.91,183.67a13.62,13.62,0,0,1-3.06,7.55,8.22,8.22,0,0,1-7.43,2.65,8.08,8.08,0,0,1-6.53-4.36,13.68,13.68,0,0,1-1.18-8.11,13.31,13.31,0,0,1,3-7.47,8.09,8.09,0,0,1,7.37-2.6,8.2,8.2,0,0,1,6.59,4.32A13.53,13.53,0,0,1,548.91,183.67Zm-3.36-.4a10.73,10.73,0,0,0-.66-5.55,5,5,0,0,0-8.91-1.11,10.78,10.78,0,0,0-1.92,5.19,11.19,11.19,0,0,0,.62,5.59,5,5,0,0,0,8.91,1.11A10.52,10.52,0,0,0,545.55,183.27Z"/><path class="cls-3" d="M570.1,195.78c-.15,1.24-.72,1.81-1.71,1.69s-1.45-.81-1.3-2.06L568.94,180c.16-1.28-.35-2-1.51-2.12a3.15,3.15,0,0,0-2.52.9,3.64,3.64,0,0,0-1.31,2.34L562,194.8c-.15,1.24-.73,1.8-1.75,1.68s-1.5-.81-1.35-2l1.8-15c.21-1.75-.17-2.69-1.13-2.8a3.25,3.25,0,0,0-2.7,1.35,4.88,4.88,0,0,0-1.45,2.71l-1.57,13.08c-.15,1.24-.72,1.81-1.71,1.69s-1.49-.81-1.34-2.06l2.26-18.8c.14-1.25.74-1.81,1.79-1.68s1.4.91,1.22,2.39a4.9,4.9,0,0,1,4-1.76,3.94,3.94,0,0,1,3.36,2.86,6.2,6.2,0,0,1,4.83-1.87,3.92,3.92,0,0,1,2.88,1.85A5.13,5.13,0,0,1,572,180Z"/></g></g></svg>