<svg xmlns="http://www.w3.org/2000/svg" viewBox="0 0 446.62 457.09"><defs><style>.cls-1,.cls-3,.cls-4{fill:none;stroke:#fff;}.cls-1,.cls-4{stroke-miterlimit:10;}.cls-2{opacity:0.4;}.cls-3{stroke-linecap:round;stroke-linejoin:round;}.cls-3,.cls-4{stroke-width:0.5px;}</style></defs><title>chung-line</title><g id="圖層_2" data-name="圖層 2"><g id="chung-line"><path class="cls-1" d="M194.18,333.08s70.41-56.81,75.07-64.15,30-30,42.34-40.77c6.84-6,22.89-13,37.9-25.62,14.68-12.33,25.35-55.93,25.87-62.2S358.63,132,358.63,132s-17.32,39.52-32.93,44.43c-17,5.35-40.51,16.85-49.92,19.47s-19.62-9.35-3.53-23.59c14.64-12.94,19.13-19.22,21-29.86,2.95-17.12-16.65-39.72-16.65-39.72H260.89s9.4,22.47,1,37.63-34.12,17.77-47.19,18.82-31,12.46-44,26.09-46.7,64.86-46.7,64.86Z"/><path class="cls-1" d="M105.23,251.54s27-49,36.83-61.15,26.29-32.1,64.31-22.7,67.92,22,78,29.91c11.53,9.05,16,27,3.53,48.85-10.62,18.59-32.44,49.46-44.71,63.49C215.28,341.94,105.23,251.54,105.23,251.54Z"/><path class="cls-1" d="M375.37,138.76s7.83-4.45,10.7-9.15S419,87.8,429.46,77.34s20.91-24.28,14.9-24c-11.23.46-16.47-6.81-18.82-9.68s-20.13,1.82-23.52,1.3-3.14,8.63-5.49,18.56-20.39,24-25.61,36.07-11.5,24.3-12,31.36S366.76,145.28,375.37,138.76Z"/><path class="cls-1" d="M276.17,104.83s6.64-6.08,8.39-11.31S307.3,45.4,315.15,32.87s14.94-28.35,9.14-26.76c-10.84,3-17.57-2.95-20.51-5.23s-19.2,6.29-22.63,6.54S280,16.53,280,26.73s-14.49,28-16.89,40.89-5.77,26.26-4.7,33.26S269.24,113.11,276.17,104.83Z"/><path class="cls-1" d="M131.65,431.41s-7.32,4.8-11.51,11.59-7.85,13.59-4.46,13.59,15.95-4.44,21.7-11.24,6.06-9,6.06-9S143.44,431.85,131.65,431.41Z"/><path class="cls-1" d="M20.69,398.76S11,407.16,7.22,410.84C1.84,416.05-2.6,421.29,3.3,421.3c6.4,0,10.65-2,17.39-6.54a91.29,91.29,0,0,0,9.23-7.14S28.16,398.43,20.69,398.76Z"/><path class="cls-1" d="M57.87,338.84A154,154,0,0,0,35,366.56a132.05,132.05,0,0,0-14.31,32.2A18,18,0,0,0,22.91,402c1.6,1.92,7,5.65,7,5.65S48,395.3,60.45,384.44s26.28-22.92,31.93-28.61c11.17-11.28,17.19-20.53,19.29-29.12s-15.1-10.58-26.21-3.45S57.87,338.84,57.87,338.84Z"/><path class="cls-1" d="M144.93,362.16a153.81,153.81,0,0,0-11.44,34.07,131.71,131.71,0,0,0-1.84,35.18,17.54,17.54,0,0,0,3.21,2.21c2.19,1.22,8.58,2.77,8.58,2.77s12.47-18,20.21-32.57S180,373,183.22,365.67c6.4-14.52,8.71-25.31,7.6-34.09s-17.89-4.48-25.71,6.15S144.93,362.16,144.93,362.16Z"/><path class="cls-1" d="M174.29,320c-8.85,34.53-40.27,56.31-70.18,48.65s-47-41.87-38.12-76.4,40.26-56.31,70.17-48.65S183.14,285.42,174.29,320Z"/><path class="cls-1" d="M88.73,315.52c-1,1.24-4.1.41-7-1.85s-4.48-5.1-3.52-6.33,4.1-.42,7,1.85S89.69,314.28,88.73,315.52Z"/><path class="cls-1" d="M128.82,321.68c-.44-1.51,2.07-3.57,5.61-4.59s6.75-.65,7.19.86-2.07,3.56-5.6,4.59S129.26,323.18,128.82,321.68Z"/><path class="cls-1" d="M78.82,309.94s-1-1.47-1.94-3a18.11,18.11,0,0,1-1.11-2.19,4.34,4.34,0,0,1-.26-.77l-.08-.28.2.22a4.48,4.48,0,0,0,.54.55,15,15,0,0,0,1.86,1.4c1.43,1,2.9,1.76,2.9,1.76Z"/><path class="cls-1" d="M139.44,316.85l.86-.25c.49-.16,1.17-.36,1.82-.63l1-.4.78-.44.8-.47s-.17.33-.44.81l-.5.85c-.21.29-.44.59-.67.89-.46.62-1,1.19-1.38,1.63s-.64.69-.64.69Z"/><g class="cls-2"><path class="cls-3" d="M137.53,332.33l.18-.1.61,0s.19-.12.19-.12l.75.08.28-.16s2,.07,2,.08l.71-.4s-1.28.75-1.28.75.81-.47.81-.47l-.16.24.44-.26.08.57s1.37-.81,1.38-.8l-.88.83s1.28-.77,1.29-.75.57.71.57.72.14-.08.14-.08,1.23,0,1.23,0,.06-.07.07-.05,0,.75,0,.75l1-.59-1,.6s1-.6,1-.59.12,1,.12,1,1-.61,1-.59l.5.78a2.5,2.5,0,0,0,.35-.21s.14.85.14.86.9-.52.91-.52,0,1,0,1,.84-.5.85-.49-.51.72-.5.73l.83-.48s-.3.86-.3.86l.81-.47s-.34.8-.33.82l.8-.47s-.58.7-.58.7.8-.46.8-.46l-.56.72s.78-.45.78-.45-.62.61-.61.63l.77-.45-.28,1s.75-.43.75-.43-.37,1.08-.37,1.08l0,0,0,.11.76-.44s-.11,1.08-.1,1.09.44-.25.44-.25-.45,1.33-.44,1.35.42-.27.43-.25-1.44,2-1.43,2,1.4-.81,1.4-.81-1.82,1.29-1.82,1.29l1.73-1-.75.51s.18-.13.19-.11"/><path class="cls-3" d="M133.86,333.38l.36-.21-1.5,1s2.39-1.42,2.41-1.39-3,2.15-3,2.15l3.78-2.18s-3.78,3.18-3.78,3.18.22-.16.23-.14-1.17,1.08-1.17,1.08,1.12-.66,1.13-.65-1.08,1.37-1.08,1.37.83-.49.84-.48-.81.88-.81.88.83-.51.84-.49-.85.51-.84.52.84-.5.85-.49-.71,1.15-.7,1.18.76-.45.77-.44l-.74.48.75-.43s-.47,1.06-.46,1.08l.78-.45s-.76.51-.75.52l.78-.45-.23.67.4-.23s-.36.4-.35.4.12-.07.12-.07.12.87.13.88l.8-.46-.59.72.82-.48,0,1.19s.84-.51.85-.49l-.66.63.86-.49s-.18,1-.17,1,.88-.51.88-.51l-.61.72.92-.53s-.27.85-.26.86.93-.54.93-.54,0,1,0,1,1-.55,1-.55,0,.93,0,.94,1-.6,1-.59.3,1,.31,1l1.06-.61-.28.84s1.16-.68,1.16-.67l-.91.68s.85-.49.86-.49.11.71.11.72,1.15-.69,1.16-.67-.22.84-.21.85,1.31-.77,1.32-.76-.4.84-.39.85l1.36-.78s-1.35.77-1.34.78,1.35-.79,1.36-.78l-.76.82s1.38-.81,1.39-.8,1.67.11,1.68.14.3-.21.31-.18.72-.08.72-.08l.18-.1s1.53-.05,1.54,0,4.59-2.75,4.63-2.67-2.91,2.44-2.88,2.48,1.53-.92,1.54-.89"/></g><path class="cls-1" d="M105,263.7S93.86,261,83.47,271.93s-17.88,20.36-19.82,38c0,0-10.56-16.84,6.69-41.15S111.5,242,111.5,242Z"/><path class="cls-1" d="M108.76,246.06s-6.64-13.72,11.38-18.82,45.85-5,64.67,12.18,43.54,23.89,63.53,23.89,26.4-4.05,41.56,0S315,276.24,304,281c0,0,8.62-6,0-7.84s-19.08-1.05-32.15,2.87-20.38,17.77-24.3,29-21.06,19.87-37.27,31.89-29.53,15.42-37.11,12,12.9-68.47,3.44-74.23S108.76,246.06,108.76,246.06Z"/><path class="cls-1" d="M66,292.2c6.3-24.6,24.06-42.72,44.57-48.34.6-5.25.94-8.39.94-8.39s-18.28-2.09-30.57,8.89-24.05,29.28-25.88,42.86-6.53,22.74-9.93,41,3.74,32.93,15.33,37.38c10.78,4.13,21.72,4.63,29.29-3.32C69.06,349,58.68,320.72,66,292.2Z"/><g class="cls-2"><path class="cls-3" d="M66.19,319l.23-.13s.7,0,.7,0,.2-.12.2-.12l.67.12s.42-.25.42-.24,1.92.11,1.93.12.77-.45.77-.44-1.35.79-1.35.79.88-.51.88-.51a2.78,2.78,0,0,1-.21.27l.51-.3.06.58s1.35-.8,1.36-.78l-.83.79s1.24-.75,1.26-.72l.59.71s.17-.1.17-.1,1.23,0,1.23,0,0,0,0,0,.87.25.87.25h0l-.84.52s1-.62,1.06-.61.12,1,.12,1,1-.62,1-.6l.44.81a3.07,3.07,0,0,0,.39-.23s.12.86.13.87l.94-.54s-.13,1-.12,1,.87-.52.88-.5-.53.73-.53.74l.87-.5s-.32.87-.32.87l.85-.49s-.43.86-.43.87.83-.48.83-.48-.6.71-.59.71l.81-.47-.56.73.79-.46s-.63.61-.63.63l.79-.46s-.37,1-.36,1l.79-.46s-.4,1.1-.4,1.1l0,0,0,.11.76-.44s-.22,1.14-.21,1.16.46-.27.46-.27-.66,1.45-.65,1.47.62-.38.63-.36-1.18,1.86-1.18,1.87.11-.06.11-.06"/><path class="cls-3" d="M62.36,320.11h0l-1,.67s2.46-1.47,2.48-1.44l-3.14,2.24,4.1-2.37s-4.11,3.36-4.11,3.36.26-.17.27-.15-1.18,1.08-1.18,1.08,1.1-.64,1.11-.64-1.08,1.38-1.08,1.38l.82-.48s-.78.87-.78.87.82-.5.83-.48l-.83.5s.82-.49.83-.48-.7,1.16-.69,1.18l.78-.45-.76.5.76-.44s-.46,1.06-.45,1.08.76-.44.76-.44-.73.49-.73.51l.77-.44-.21.65.38-.22s-.36.4-.35.41l.12-.08s.14.86.15.87l.77-.45s-.54.7-.54.7l.78-.45v1.16s.82-.49.83-.48l-.62.62.83-.48s-.13,1-.12,1,.86-.5.86-.5l-.58.7.89-.51s-.24.84-.23.85.92-.54.92-.54,0,1,0,1,.94-.54.94-.54,0,.92,0,.93l1-.6s.34,1,.35,1l1.09-.63-.28.84s1.19-.7,1.2-.68l-.94.7s.89-.52.89-.52.11.7.12.71,1.19-.71,1.2-.69-.22.85-.21.86,1.39-.82,1.39-.81-.42.85-.41.86l1.43-.82s-1.41.81-1.41.82,1.42-.83,1.43-.82-.8.83-.79.85,1.52-.89,1.52-.88,1.7.08,1.72.11a5,5,0,0,1,.59-.34l.47.07.51-.29s1.57-.08,1.58-.06,3.16-1.9,3.2-1.84-2.55,1.87-2.53,1.9,1.58-.95,1.6-.92"/></g><path class="cls-4" d="M156.2,313.46c-2.07-1.46-6.43-2.95-11.67-4a72.1,72.1,0,0,0-9.32-1.21,36.72,36.72,0,0,0-13.67,1.42l-.14,0c-1.85.55-3.85,1.9-9.88.71s-7.13-3.06-10.81-5.63v0a39.35,39.35,0,0,0-10.85-5.48,70.35,70.35,0,0,0-9.08-2.41c-5.24-1-9.84-1.31-12.31-.74-2.78.64-7.94,1.83-8.25,10.12-.21,5.47.28,15.22,5.89,19.14,4.44,3.12,9.14,4.12,14.11,5.19l.58.12.77.16c4.86,1,12,1.45,18-5.34a26,26,0,0,0,2.72-3.71v0l0-.07a22.64,22.64,0,0,0,1.46-2.85l1.47-2.8c1.35-2.5,3.21-2.22,5.33-1.8s3.51,1.34,3.82,2.59c.16.64.36,2.59.53,4.33a23,23,0,0,0,.28,3.11v0h0a25.28,25.28,0,0,0,1.11,4.44c3,8.54,9.76,10.81,14.61,11.76l.78.15.59.1c5,.9,9.73,1.74,15,.55C154,339.93,158.12,331.09,160,326,162.85,318.16,158.53,315.1,156.2,313.46ZM97.93,324.15c-5.45,6.2-11.85,5.54-16.67,4.5l-.57-.12c-5-1.07-9.25-2-13.33-4.84-3.48-2.44-5.29-8.74-5-17.29.25-6.63,3.9-7.47,6.57-8.09,2.15-.5,6.52-.21,11.4.75a69.31,69.31,0,0,1,8.8,2.35c7.57,2.57,12,6,13.44,8.24C103.83,311.47,103.3,318.05,97.93,324.15Zm60,1.05c-2.94,8-7,13.19-11.14,14.12-4.86,1.1-9.17.33-14.16-.56l-.59-.11c-4.85-.86-11-2.68-13.72-10.48s-.65-14,1.17-15.2c2.19-1.46,7.58-3,15.56-2.53a67.46,67.46,0,0,1,9,1.17c4.88.95,9,2.34,10.84,3.62C157.18,316.81,160.25,319,158,325.2Z"/><path class="cls-1" d="M105,263.7c3.33,0,6.86-4.51,18.82-2s20.58,9.6,27.83,19.4,10.39,15.1,10.78,21.17,2.36,13.53-6.27,22.35-19.79,30.77-16.75,38.81,12.24,10.19,12.24,10.19-7.7-3.72-7-14.5,6-15.88,6-15.88-3.83,11.4-2.3,15.89,7.79,13.32,20.73,13.12,12-1.57,23.52-4.7,17.64,2.15,23.33,6.07,4.51,24.31-9.22,21c0,0,4.32,5.88,10.59,2.55s24.72-7.85,25.5-13.14S227.54,366,215,360.53s-18.82-3.33-24.9-4.12-15.19-2.94-13.48-10,16.91-72.46,0-85.24S140.9,233.27,111.5,242,101.7,263.7,105,263.7Z"/><path class="cls-1" d="M114.59,346.41a11.11,11.11,0,1,1-11.1-11.1A11.1,11.1,0,0,1,114.59,346.41Z"/><path class="cls-1" d="M111.37,346.41a7.89,7.89,0,1,1-7.89-7.88A7.89,7.89,0,0,1,111.37,346.41Z"/><path class="cls-1" d="M74.26,292.83a8.73,8.73,0,0,1,1.95-1,11.9,11.9,0,0,1,2.16-.61A14.33,14.33,0,0,1,81,291a11.57,11.57,0,0,1,2.6.38,6.68,6.68,0,0,1,1.14.41,6.75,6.75,0,0,1,1,.49,7,7,0,0,1,1.67,1.46l-.58-.19a13.82,13.82,0,0,0-1.44-.44c-.29-.1-.64-.12-1-.21s-.71-.09-1.07-.17-.77-.05-1.15-.11-.8,0-1.2-.05c-1.62,0-3.26.06-4.52.13Z"/><path class="cls-1" d="M149.14,308.52a23.2,23.2,0,0,0-2-1.46,22.83,22.83,0,0,0-2.06-1.24,18.68,18.68,0,0,0-2.48-1.12,22.16,22.16,0,0,0-2.61-.79l-1.24-.26c-.4-.09-.78-.11-1.14-.18-.71-.12-1.32-.15-1.75-.21l-.68-.1s.23-.09.65-.21a8.66,8.66,0,0,1,1.79-.38,7.9,7.9,0,0,1,1.22-.08,13,13,0,0,1,1.38.05c.47.08,1,.12,1.46.25s1,.25,1.47.44a12.28,12.28,0,0,1,2.66,1.42,10.45,10.45,0,0,1,1.08.86,10,10,0,0,1,.85.89A7.27,7.27,0,0,1,149.14,308.52Z"/><path class="cls-1" d="M295,277.2c-5.75-.18-10.43,7.59-16.84,18.41-6,10.16-12.84,21.68-21.23,26.89-9.24,5.74-33.23,8.24-38.83,7.71-1.25,1.27-2.67,2.57-4.28,3.91,7.39,2.36,33.45-.09,45.59-7.63,9.38-5.82,16.51-17.86,22.8-28.48,4.47-7.56,9.53-16.11,12.54-16.11h.06c1,0,2.4,1.59,3.71,4.27,5.83,11.86,5.9,28.23.19,43.79-6.17,16.85-18,30.14-32.47,36.45-32.4,14.13-107-11.31-113.47-14.25-12.65-5.76-33.18-10.35-45.61-8.06l.85,4.63c11.52-2.13,30.82,2.25,42.81,7.71,8.4,3.82,60.51,19,91.58,19,9.21,0,18.05-1.33,25.72-4.68,15.63-6.82,28.39-21.09,35-39.14,6.14-16.74,6-34.49-.39-47.49C300.5,279.57,298,277.31,295,277.2Z"/></g></g></svg>