<svg xmlns="http://www.w3.org/2000/svg" viewBox="0 0 786.34 262.14"><defs><style>.cls-1{fill:#ded7d3;}.cls-2{fill:#d9ccc4;}.cls-3{fill:#745e57;stroke:#745e57;stroke-miterlimit:10;stroke-width:0.5px;}</style></defs><title>wu-i</title><g id="圖層_2" data-name="圖層 2"><g id="wu-i"><path class="cls-1" d="M772.81,87.22,113.73.1c-8-1.06-15.66,6.33-15.66,6.33h0L3,68.17A7.53,7.53,0,0,0,1.56,78.74l75.6,85.87h0s5.44,9.11,13.48,10.18l659.08,87.11c8,1.07,15.06-1.76,15.66-6.32L786.29,97.4C786.9,92.84,780.86,88.28,772.81,87.22ZM63.34,96.53A14.09,14.09,0,1,1,79.16,84.41,14.09,14.09,0,0,1,63.34,96.53Z"/><rect class="cls-2" x="430.73" y="-111.33" width="17.83" height="456.74" transform="translate(266 537.56) rotate(-82.47)"/><rect class="cls-2" x="422.34" y="-85.09" width="17.83" height="531.16" transform="translate(195.81 584.38) rotate(-82.47)"/><path class="cls-3" d="M278.09,59.1c1.13.14,1.63.73,1.5,1.75l-1.15,8.64q-.21,1.58,1.11,1.74L304,74.47c2,.26,2.93,1.36,2.67,3.28L306,82.63l3.56.47a1.34,1.34,0,0,1,1.28,1.72c-.14,1-.7,1.5-1.69,1.37l-15-2a11.77,11.77,0,0,0,1.2,2.66,15.33,15.33,0,0,0,3.11,3.52,30.36,30.36,0,0,0,3.93,2.89,25.48,25.48,0,0,0,4.25,2.11,3.77,3.77,0,0,1,2,1.26,1,1,0,0,1,.23.85,1.37,1.37,0,0,1-1.73,1.36,14,14,0,0,1-3.31-1.38,34.86,34.86,0,0,1-4.95-3,35.59,35.59,0,0,1-3.62-3,19,19,0,0,1-2.6-3.49,15.36,15.36,0,0,1-1.47-4.2l-.38,0a11.21,11.21,0,0,1-1.66,3.1A14.69,14.69,0,0,1,282.85,91a44,44,0,0,1-11.09,2.63,11.7,11.7,0,0,1-1.87.14c-1-.13-1.45-.77-1.3-1.9a1.36,1.36,0,0,1,1-1.29,49.75,49.75,0,0,0,11.23-2.14,13.3,13.3,0,0,0,5.51-3.19,10.14,10.14,0,0,0,1.29-1.9l-16.4-2.17a1.38,1.38,0,0,1-1.32-1.77,1.35,1.35,0,0,1,1.73-1.32L288.4,80.3l.62-4.71-11.57-1.53q-2.83-.37-2.45-3.3l1.36-10.34A1.36,1.36,0,0,1,278.09,59.1Zm8.83-1.9,19,2.52c1.93.25,2.76,1.33,2.51,3.22l-.79,6q-.37,2.85-3.26,2.46l-19-2.51a2.53,2.53,0,0,1-2.46-3.22l.79-6A2.53,2.53,0,0,1,286.92,57.2Zm16.49,11a1.08,1.08,0,0,0,1.39-1l.43-3.27a1.07,1.07,0,0,0-1.07-1.35l-16.28-2.15a1,1,0,0,0-1.3,1l-.43,3.26a1,1,0,0,0,1,1.34ZM292.07,76l-.62,4.71,11.36,1.5.43-3.22a1.35,1.35,0,0,0-1.33-1.69Z"/><path class="cls-3" d="M352.2,89.29a1.22,1.22,0,0,1,1.22,1.52c-.14,1-.67,1.48-1.6,1.36l-7.42-1a16.68,16.68,0,0,1-3.9,4.36,9.64,9.64,0,0,1-1.47,1c3.4,1.25,7.33,2.7,11.81,4.32a1.53,1.53,0,0,1,1.05,1.52c-.21,1.15-.82,1.7-1.82,1.66a4.55,4.55,0,0,1-1-.35q-6.92-2.86-13.55-5.46a16.47,16.47,0,0,1-2,.51,45,45,0,0,1-10.21.94,64.16,64.16,0,0,1-9.12-.56,1.54,1.54,0,0,1-1.47-1.92c.12-.91.69-1.29,1.71-1.16a79.78,79.78,0,0,0,14.46.54c.67-.06,1.28-.12,1.84-.19q-4-1.53-8-2.91c-1.75-.67-2.56-1.5-2.42-2.52.08-.62.59-1.15,1.54-1.57l2.11-.93-8.39-1.1c-.91-.12-1.29-.7-1.16-1.73a1.21,1.21,0,0,1,1.54-1.16l12.25,1.62A18.74,18.74,0,0,0,331.69,83a1.42,1.42,0,0,1,1.43-.72c1.07.2,1.57.74,1.51,1.62a1.82,1.82,0,0,1-.55.88,11.32,11.32,0,0,1-1.89,1.9ZM323.08,61.64l27.67,3.65c1.9.26,2.73,1.27,2.49,3l-1,7.46c-.24,1.83-1.31,2.63-3.2,2.38l-12.21-1.62-.37,2.84,14.41,1.91a3.07,3.07,0,0,1,2.47,1.58,4.58,4.58,0,0,1,.38,3,10.79,10.79,0,0,1-.39,1.63,1.8,1.8,0,0,1-2,.94A1.37,1.37,0,0,1,350,86.71a5.29,5.29,0,0,0,.49-1.1c.14-1-.26-1.59-1.19-1.71L319.49,80c-.71-.09-1.1.19-1.19.84l-.22,1.69a1.54,1.54,0,1,1-3.05-.4l.4-3a2.15,2.15,0,0,1,2.73-2.1l15,2,.37-2.84-12.21-1.61q-2.83-.37-2.47-3.13l1-7.46C320.12,62.15,321.19,61.39,323.08,61.64Zm-.52,5.23,27.34,3.61.19-1.48c.09-.7-.16-1.1-.75-1.18l-25.56-3.37c-.59-.08-.93.23-1,.94Zm25.79,8.41c.6.08.94-.2,1-.85l.21-1.53-27.34-3.61-.2,1.52c-.09.65.17,1,.76,1.09Zm-13,20a6.16,6.16,0,0,0,.87-.32,17.5,17.5,0,0,0,5.12-4.15L328.59,89.1a31.9,31.9,0,0,1-3.41,1.66c-.31.13-.47.29-.49.46s.17.34.58.5Q328.24,92.73,335.32,95.25Z"/><path class="cls-3" d="M372.25,66.75a1.37,1.37,0,0,1,.83.59,22.86,22.86,0,0,1,1.92,3.4,1.9,1.9,0,0,1,.21,1l0,.17,9.07,1.2c.38-.27.72-.52,1-.77a33,33,0,0,0,2.67-2.88,1.66,1.66,0,0,1,1.48-.45,1.6,1.6,0,0,1,1,.56,1.5,1.5,0,0,1,.32,1.16,2.19,2.19,0,0,1-.49,1.1,15.28,15.28,0,0,1-2.34,1.68l-.13.06L398.41,75a1.21,1.21,0,0,1,1.18,1.54c-.13,1-.65,1.46-1.56,1.34L360.78,73c-.91-.12-1.29-.69-1.15-1.71a1.2,1.2,0,0,1,1.53-1.17l11,1.45c-.51-.9-1-1.77-1.55-2.62a2.19,2.19,0,0,1-.23-.85C370.53,67,371.15,66.61,372.25,66.75ZM361.67,93.6a2,2,0,0,1,1.06.49,1.31,1.31,0,0,1,.45,1.14,2.18,2.18,0,0,1-.31.77,31.07,31.07,0,0,1-1.84,4.42,23.83,23.83,0,0,1-2.06,3.22,2.39,2.39,0,0,1-1.32.47c-1.24-.16-1.79-.75-1.66-1.77a1.49,1.49,0,0,1,.47-.93,17.12,17.12,0,0,0,2.15-2.91,22,22,0,0,0,1.87-4C360.71,93.84,361.11,93.53,361.67,93.6Zm6.67-19.13a2.12,2.12,0,0,1,1.14.54,1,1,0,0,1,.39.92,2.5,2.5,0,0,1-.27.78,28.56,28.56,0,0,1-4.13,4.5,26.46,26.46,0,0,1,2.7,2A63.37,63.37,0,0,0,373,78.37a1.54,1.54,0,0,1,1.4-.46,1.41,1.41,0,0,1,1,.56,1.5,1.5,0,0,1,.32,1.16,1.48,1.48,0,0,1-.46.93,55.23,55.23,0,0,1-6.26,5.6,37,37,0,0,1-3.73,2.44,59.44,59.44,0,0,0,7.72,0,15.62,15.62,0,0,0-.29-1.72,2.47,2.47,0,0,1-.07-.75c.1-.76.62-1.08,1.55-1a1.3,1.3,0,0,1,.89.77A34.39,34.39,0,0,1,376,91.7a3.36,3.36,0,0,1,0,1.09c-.1.76-.71,1.07-1.84.92-.46-.06-.74-.43-.85-1.11s-.07-1.1-.09-1.56q-7.42.31-14.06,0c-.91-.12-1.29-.71-1.15-1.75a1.23,1.23,0,0,1,1.53-1.18c.74.07,1.43.14,2.09.19A35.19,35.19,0,0,0,366,85.17a3.08,3.08,0,0,1-.47-.37c-1.2-.91-2.24-1.65-3.11-2.22-.72-.44-1.52-.91-2.4-1.4a2,2,0,0,1-.35-1.25c.12-.93.62-1.34,1.49-1.23a2.42,2.42,0,0,1,1,.48l.83.54A45.7,45.7,0,0,0,367,75,1.2,1.2,0,0,1,368.34,74.47Zm.2,19c1,.13,1.47.64,1.35,1.52l-.79,6a2,2,0,0,0,.83,2.22,24.66,24.66,0,0,0,5.5,1.16c3,.39,5.11.6,6.42.63a2,2,0,0,0,1.61-.39c.4-.23.72-1.22,1-3a1.45,1.45,0,0,1,1.7-1.37c.95.19,1.37.87,1.27,2.07a12.93,12.93,0,0,1-.72,2.88,3.53,3.53,0,0,1-2.49,2.51q-1.64.57-8.15-.3t-8.41-2c-1.32-.92-1.84-2.37-1.58-4.35l.85-6.48C367,93.76,367.55,93.39,368.54,93.52Zm7.84,1a1.58,1.58,0,0,1,1.06.79,20.15,20.15,0,0,1,2.32,5,4.08,4.08,0,0,1,0,1c-.12.93-.75,1.32-1.88,1.17-.5-.06-.85-.47-1-1.21a16.24,16.24,0,0,0-2-4.71,2.78,2.78,0,0,1-.16-1.09C374.81,94.73,375.37,94.42,376.38,94.55ZM387.29,77a1.91,1.91,0,0,1,1.13.54,1,1,0,0,1,.4.91,2.36,2.36,0,0,1-.28.79A29.27,29.27,0,0,1,384,83.79a26.61,26.61,0,0,1,2.43,2.56,64.8,64.8,0,0,0,5.29-5.16,1.7,1.7,0,0,1,1.48-.45,1.46,1.46,0,0,1,1,.56,1.41,1.41,0,0,1,.37,1.17,1.69,1.69,0,0,1-.47.93,64.38,64.38,0,0,1-6,5.2,29.81,29.81,0,0,1-3.5,2.29q4.46.3,8.17.22c-.09-.44-.18-.83-.28-1.15a2,2,0,0,1-.18-.89q.15-1.18,1.68-1a1.3,1.3,0,0,1,.89.77,24.48,24.48,0,0,1,1.36,5.35,2.93,2.93,0,0,1,.07,1.09c-.11.88-.74,1.24-1.86,1.09-.54-.07-.89-.45-1.06-1.13s-.13-1.15-.18-1.62a.23.23,0,0,1-.13,0q-7.81,0-14.78-.4c-.91-.12-1.29-.68-1.15-1.7a1.24,1.24,0,0,1,1.53-1.22q1.06.14,2.13.24,1.93-1.26,3.56-2.47a.8.8,0,0,1-.38-.35c-1.15-1.15-2.12-2.09-2.91-2.8s-1.48-1.2-2.34-1.86a1.74,1.74,0,0,1-.32-1.2,1.21,1.21,0,0,1,1.54-1.18,2.28,2.28,0,0,1,.93.42c.4.29.75.56,1.06.83a35.24,35.24,0,0,0,4.12-4.41A1.08,1.08,0,0,1,387.29,77Zm3.65,19.67a1.87,1.87,0,0,1,1.25,1,35.57,35.57,0,0,1,2.76,7.78,4.77,4.77,0,0,1,0,1.25q-.18,1.35-2,1.11c-.54-.07-.88-.52-1-1.34a31.86,31.86,0,0,0-2.66-7.64,2.44,2.44,0,0,1-.16-1.06C389.19,96.87,389.81,96.5,390.94,96.65Z"/><path class="cls-3" d="M443.31,81.19a5.62,5.62,0,0,1-.72,1.5l-9.42,15.79-1.41,10.68c-.16,1.24-.75,1.8-1.77,1.66s-1.49-.82-1.32-2.07l1.41-10.68-5-17.69a5,5,0,0,1-.28-1.55c.15-1.1.72-1.58,1.71-1.45.65.09,1.14.71,1.48,1.87l4.19,15,7.89-13.36c.62-1,1.24-1.52,1.86-1.43A1.4,1.4,0,0,1,443.31,81.19Z"/><path class="cls-3" d="M460.2,112.92c-.17,1.24-.75,1.8-1.77,1.66a1.37,1.37,0,0,1-1.32-1.42,12.66,12.66,0,0,1,.24-2.17c-3,1.91-5.46,2.73-7.52,2.46a6.53,6.53,0,0,1-4.3-2.42,6,6,0,0,1-1.32-4.71,6.53,6.53,0,0,1,5.62-5.94,26.31,26.31,0,0,1,8.91.06q.52-5.49-4.19-6.12a5.36,5.36,0,0,0-3.31.56,11.44,11.44,0,0,0-2,1.55c-.57.61-1,.91-1.15.88-1.24-.17-1.8-.74-1.67-1.73a4.68,4.68,0,0,1,1.88-2.47A8.24,8.24,0,0,1,455,91.23q8,1,6.81,9.82Zm-2.32-6,.46-3.48-2.67-.35a11.63,11.63,0,0,0-4.91.3q-2.92.9-3.24,3.32a3.37,3.37,0,0,0,2.71,3.59Q453.46,110.79,457.88,107Z"/><path class="cls-3" d="M482,115.8c-.16,1.24-.75,1.8-1.77,1.66s-1.44-.82-1.28-2.06l1.7-12.84a4.45,4.45,0,0,0-.91-3.57,4.66,4.66,0,0,0-3.22-1.77,5.86,5.86,0,0,0-3.8,1c-1.63,1-2.52,2.13-2.68,3.31L468.38,114c-.17,1.24-.76,1.8-1.77,1.67s-1.49-.83-1.33-2.08l2.49-18.77c.16-1.24.77-1.8,1.81-1.66a1.28,1.28,0,0,1,1.24,1.07,6.11,6.11,0,0,1-.07,1.8,8,8,0,0,1,6.16-1.9,7.81,7.81,0,0,1,6.77,8.83Z"/><path class="cls-3" d="M504.81,113.43a6.92,6.92,0,0,1-2.72,4.21,7.85,7.85,0,0,1-6.37,1.88,8.33,8.33,0,0,1-6.49-4.36,12.06,12.06,0,0,1-1.42-7.9,13.46,13.46,0,0,1,3.26-7.64A8.44,8.44,0,0,1,498.7,97a8.26,8.26,0,0,1,5.86,3.62,5.68,5.68,0,0,1,1.39,3.85,1.24,1.24,0,0,1-.69,1,2.18,2.18,0,0,1-1.33.25q-.46-.06-.87-1.23c-.87-2.62-2.45-4.08-4.77-4.39a5.19,5.19,0,0,0-5.07,2.14,11,11,0,0,0-2.1,5.45,9.59,9.59,0,0,0,.77,5.58,5.46,5.46,0,0,0,4.37,3.17,4.85,4.85,0,0,0,3.47-.79,6,6,0,0,0,2.14-2.82c.35-.88.9-1.27,1.66-1.17C504.52,111.79,504.94,112.38,504.81,113.43Z"/><path class="cls-3" d="M540.33,123.4c-.16,1.24-.74,1.8-1.73,1.67s-1.44-.83-1.28-2.07l1.7-12.84a4.73,4.73,0,0,0-.83-3.52,4.24,4.24,0,0,0-3-1.78,5,5,0,0,0-3.83,1.26c-1.74,1.41-2.68,2.66-2.83,3.77l-1.55,11.74c-.16,1.24-.76,1.79-1.77,1.66s-1.49-.83-1.32-2.07l3.79-28.74c.16-1.21.77-1.75,1.81-1.61s1.45.81,1.29,2l-1.52,11.49a7.17,7.17,0,0,1,6.51-2.59,6.84,6.84,0,0,1,5,2.94,8,8,0,0,1,1.3,5.82Z"/><path class="cls-3" d="M518.72,91.53a2.36,2.36,0,0,1-.9,1.61,2.49,2.49,0,0,1-3.39-.45,2.37,2.37,0,0,1-.45-1.78,2.29,2.29,0,0,1,.9-1.61,2.36,2.36,0,0,1,3.39.45A2.32,2.32,0,0,1,518.72,91.53Zm-4.6,28.63c-.16,1.25-.76,1.8-1.77,1.66s-1.49-.82-1.32-2.07L513.51,101c.16-1.25.77-1.8,1.81-1.66s1.44.82,1.28,2.07Z"/><path class="cls-3" d="M595.36,101.38a12.77,12.77,0,0,0-.49,1.74l-7.06,26.67a2.28,2.28,0,0,1-.61,1c-.35.47-.69.68-1,.64-.74-.1-1.11-.78-1.11-2.05l-.16-20.67-5.56,19.92c-.34,1.22-.87,1.78-1.61,1.69s-1.14-.79-1.15-2.06l-.06-27.6c0-1.09,0-1.7,0-1.81.14-1.1.68-1.59,1.61-1.47a1.32,1.32,0,0,1,1,.6,2.18,2.18,0,0,1,.39,1.26l-.37,20.48,5.48-19.63c.33-1.19.87-1.74,1.64-1.64s1.14.77,1.15,2l.16,20.37,4.74-19.9c.26-1.08.84-1.56,1.75-1.45S595.51,100.28,595.36,101.38Z"/><path class="cls-3" d="M612.27,133c-.17,1.25-.76,1.8-1.77,1.66a1.33,1.33,0,0,1-1.29-1.33,13.49,13.49,0,0,1,.18-2.09,7.13,7.13,0,0,1-6.31,2.44,7.48,7.48,0,0,1-5.68-3.38,9.76,9.76,0,0,1-1.11-6.57L597.84,112c.16-1.24.75-1.8,1.77-1.66s1.44.82,1.28,2.06l-1.62,12.29a5.48,5.48,0,0,0,.73,3.9,4.35,4.35,0,0,0,3.36,2,6.14,6.14,0,0,0,4.41-1.4c1.4-1,2.16-2,2.28-2.89l1.65-12.45c.16-1.25.75-1.8,1.77-1.67s1.44.82,1.28,2.07Z"/><path class="cls-3" d="M216.4,127.66s-.17.51-.5,1.44l-6,17.14a2.85,2.85,0,0,1-.82,1,1.42,1.42,0,0,1-1.1.5q-1.32-.18-1.47-1.92l-.9-12.8-4.36,12.1a3,3,0,0,1-.68,1,1.52,1.52,0,0,1-1.19.53c-.94-.13-1.43-.77-1.48-1.92L197,126.6a9.75,9.75,0,0,0-.1-1.53c.15-1.13.65-1.64,1.5-1.52s1.42.76,1.47,1.92l.61,13,4.74-12.65q.42-1.29,1.53-1.14c.73.1,1.14.6,1.22,1.5l1.12,13.43,4.38-12.31c.38-1.1,1-1.6,1.84-1.49S216.55,126.53,216.4,127.66Z"/><path class="cls-3" d="M234.28,149.3c-.16,1.24-.75,1.79-1.77,1.66a1.35,1.35,0,0,1-1.29-1.33,12.71,12.71,0,0,1,.19-2.09,7.15,7.15,0,0,1-6.32,2.44,7.48,7.48,0,0,1-5.67-3.38A9.85,9.85,0,0,1,218.3,140l1.55-11.74c.17-1.24.76-1.79,1.78-1.66s1.44.83,1.27,2.07L221.28,141a5.5,5.5,0,0,0,.73,3.89,4.36,4.36,0,0,0,3.36,2,6.22,6.22,0,0,0,4.41-1.4c1.4-1,2.16-2,2.28-2.89l1.65-12.46c.16-1.25.75-1.8,1.77-1.67s1.45.83,1.28,2.07Z"/><path class="cls-3" d="M259.8,133.39s-.17.51-.5,1.45l-6,17.14a2.83,2.83,0,0,1-.82,1,1.37,1.37,0,0,1-1.1.5q-1.32-.16-1.47-1.92l-.9-12.79-4.36,12.1a3.11,3.11,0,0,1-.68.94,1.54,1.54,0,0,1-1.19.54c-.94-.13-1.43-.77-1.48-1.92l-.93-18.07a12,12,0,0,0-.1-1.52q.23-1.69,1.5-1.53t1.47,1.92l.61,13,4.73-12.66c.29-.85.8-1.23,1.53-1.13s1.15.59,1.23,1.5l1.11,13.43L256.83,133c.38-1.1,1-1.6,1.84-1.48S260,132.26,259.8,133.39Z"/><path class="cls-3" d="M277.68,155c-.16,1.25-.76,1.8-1.77,1.67a1.35,1.35,0,0,1-1.29-1.34,12.79,12.79,0,0,1,.19-2.09,7.16,7.16,0,0,1-6.32,2.45,7.51,7.51,0,0,1-5.68-3.38,9.92,9.92,0,0,1-1.11-6.58L263.25,134c.16-1.24.76-1.8,1.77-1.66s1.45.82,1.28,2.06l-1.62,12.3a5.5,5.5,0,0,0,.73,3.89,4.35,4.35,0,0,0,3.36,2,6.13,6.13,0,0,0,4.41-1.4c1.4-1,2.16-1.95,2.28-2.89l1.65-12.46c.16-1.24.76-1.8,1.77-1.66s1.45.82,1.28,2.07Z"/><path class="cls-3" d="M299.9,153.92a5,5,0,0,1-3.22,4.14,10.57,10.57,0,0,1-5.77.62,9.84,9.84,0,0,1-7.29-4.54,3.31,3.31,0,0,1-.71-2.12,1.49,1.49,0,0,1,1.88-1.48,1.53,1.53,0,0,1,1.17.93,6.72,6.72,0,0,0,5.27,4.1q5,.66,5.37-2c.12-.9-.53-1.92-1.93-3.05a41.24,41.24,0,0,0-3.58-2.25,39.85,39.85,0,0,1-4.33-2.81,5,5,0,0,1-2-4.44,5.13,5.13,0,0,1,3.13-4.12,9.48,9.48,0,0,1,5.4-.75,8.92,8.92,0,0,1,6.09,3.22,5.35,5.35,0,0,1,1.5,4c-.13,1-.74,1.41-1.84,1.26-.54-.07-.93-.46-1.18-1.19a5.86,5.86,0,0,0-5-4.15,6.68,6.68,0,0,0-3,.26,2.45,2.45,0,0,0-1.9,2c-.11.85.47,1.72,1.73,2.6,1,.63,2.09,1.25,3.16,1.88a35.51,35.51,0,0,1,4.78,3.31C299.39,150.73,300.12,152.31,299.9,153.92Z"/><path class="cls-3" d="M320.53,160.7c-.17,1.24-.74,1.8-1.73,1.66s-1.45-.82-1.28-2.06l1.7-12.84a4.78,4.78,0,0,0-.83-3.52,4.26,4.26,0,0,0-3-1.78,5,5,0,0,0-3.84,1.26c-1.73,1.41-2.68,2.67-2.82,3.77l-1.55,11.74c-.17,1.24-.76,1.79-1.78,1.66s-1.48-.83-1.32-2.07l3.8-28.74c.16-1.21.76-1.75,1.81-1.61s1.44.81,1.28,2l-1.51,11.49a7.16,7.16,0,0,1,6.5-2.59,6.88,6.88,0,0,1,5,2.94,8.09,8.09,0,0,1,1.3,5.82Z"/><path class="cls-3" d="M342.61,163.61c-.17,1.25-.76,1.8-1.77,1.67a1.4,1.4,0,0,1-1.32-1.43,12.59,12.59,0,0,1,.24-2.16c-2.95,1.9-5.46,2.73-7.53,2.45a6.49,6.49,0,0,1-4.29-2.42,6,6,0,0,1-1.32-4.7,6.52,6.52,0,0,1,5.61-5.94c2-.49,5-.47,8.92,0,.34-3.66-1-5.7-4.19-6.11a5.3,5.3,0,0,0-3.31.55,12.4,12.4,0,0,0-2,1.55c-.57.61-.95.91-1.15.88-1.25-.16-1.8-.74-1.67-1.73a4.68,4.68,0,0,1,1.88-2.47,8.26,8.26,0,0,1,6.63-1.88q8,1.05,6.81,9.83Zm-2.32-6,.46-3.48-2.67-.35a11.63,11.63,0,0,0-4.91.3q-2.93.9-3.24,3.32a3.37,3.37,0,0,0,2.71,3.6Q335.87,161.47,340.29,157.66Z"/><path class="cls-3" d="M364.39,166.5c-.16,1.24-.75,1.79-1.77,1.66s-1.44-.82-1.28-2.07l1.7-12.84a4.47,4.47,0,0,0-.91-3.57,4.62,4.62,0,0,0-3.21-1.76,5.82,5.82,0,0,0-3.81,1.05q-2.44,1.53-2.68,3.31l-1.64,12.42c-.16,1.24-.76,1.79-1.77,1.66s-1.49-.83-1.33-2.07l2.49-18.78c.16-1.24.77-1.79,1.81-1.66a1.29,1.29,0,0,1,1.24,1.07,6.18,6.18,0,0,1-.07,1.81,8,8,0,0,1,6.16-1.91,7.81,7.81,0,0,1,6.77,8.83Z"/><path class="cls-3" d="M385.6,169.86a1.21,1.21,0,0,1-.54.83A1.51,1.51,0,0,1,384,171c-.42,0-.88-.43-1.36-1.13l-9-12.66-1.37,10.34c-.16,1.24-.75,1.8-1.77,1.67s-1.48-.83-1.32-2.08l3.8-28.73c.16-1.22.76-1.76,1.81-1.62s1.44.81,1.28,2l-2,15.42,8.67-5.54a2.51,2.51,0,0,1,1.59-.56c1,.13,1.42.63,1.3,1.51a2.23,2.23,0,0,1-1.24,1.56l-7.25,4.3c-.46.26-.7.44-.72.55s.14.55.51,1.06l8,10.93A3.08,3.08,0,0,1,385.6,169.86Z"/><path class="cls-3" d="M409.07,162.61a15.45,15.45,0,0,1-2.87,7.68,7.56,7.56,0,0,1-7.27,2.75,8.93,8.93,0,0,1-6.37-3.68,5.63,5.63,0,0,1-1.28-4c.13-1,.81-1.49,2-1.33.48.07.79.51.94,1.33.6,2.84,2.26,4.45,5,4.8a4.63,4.63,0,0,0,4.77-2.47,13.85,13.85,0,0,0,1.77-5.55q.92-6.94-3.49-7.53a6.85,6.85,0,0,0-6.2,2.54c-.58.65-1,.95-1.33.91a1.31,1.31,0,0,1-1.29-1.64l1.87-14.17c.18-1.38,1-2,2.56-1.76L408.69,142c1.25.16,1.8.73,1.67,1.71s-.81,1.34-2.05,1.17l-9.37-1.24c-.45-.06-.69,0-.73.34L397,153.21a9.4,9.4,0,0,1,6.12-1.31,6.29,6.29,0,0,1,5.32,3.85A13,13,0,0,1,409.07,162.61Z"/><path class="cls-3" d="M430.77,165.48a15.45,15.45,0,0,1-2.88,7.68,7.54,7.54,0,0,1-7.26,2.75,8.91,8.91,0,0,1-6.37-3.69,5.54,5.54,0,0,1-1.28-4c.13-1,.81-1.49,2-1.33.48.06.79.51.94,1.33a5.5,5.5,0,0,0,5,4.8,4.63,4.63,0,0,0,4.77-2.47,14,14,0,0,0,1.77-5.55c.61-4.63-.55-7.15-3.49-7.53a6.85,6.85,0,0,0-6.2,2.54c-.58.64-1,.95-1.33.91a1.31,1.31,0,0,1-1.29-1.64L417,145.15c.18-1.38,1-2,2.56-1.76l10.81,1.43c1.24.16,1.8.73,1.67,1.7s-.81,1.34-2.05,1.18l-9.37-1.24c-.45-.06-.69,0-.73.34l-1.23,9.28a9.43,9.43,0,0,1,6.13-1.31,6.29,6.29,0,0,1,5.31,3.85A13,13,0,0,1,430.77,165.48Z"/><path class="cls-3" d="M451.48,177.75c-.12.93-.81,1.31-2.05,1.15l-13.22-1.75c-1.39-.18-2-.78-1.88-1.8a11.67,11.67,0,0,1,1.83-3.08,28.43,28.43,0,0,1,4.1-4.54q5.69-5.16,6.43-6c2.54-2.71,4-5.14,4.24-7.29a4.53,4.53,0,0,0-.9-3.56,5,5,0,0,0-3.31-1.74,6.09,6.09,0,0,0-4.69,1.24q-1.53,1.09-2.25,4.27-.39,1.68-1.71,1.5c-1-.13-1.41-.76-1.25-1.89a8.59,8.59,0,0,1,10.27-7.91,7.78,7.78,0,0,1,7.07,9.17q-.44,3.25-4.23,7.16-.71.81-6.51,5.86a26.92,26.92,0,0,0-5.15,6l11.53,1.52C451,176.27,451.6,176.81,451.48,177.75Z"/><path class="cls-3" d="M476.1,164.1a25.88,25.88,0,0,1-2.7,8.65c-1.59,3.07-3.25,4.49-5,4.26q-1.74-.24-1.65-2.85-2.29,2.33-3.57,2.16-3.72-.49-2.81-7.44a33.72,33.72,0,0,1,2.15-8.43q2.25-5.61,5.64-5.17c1.22.17,2,1.25,2.5,3.27.11-.36.27-.89.47-1.58s.57-1,1.08-1,.79.42.77,1a9.76,9.76,0,0,1-.31,1.3L468.58,173a2,2,0,0,0,0,.81c.07.39.23.59.48.63q1,.12,2.5-3.25a25.48,25.48,0,0,0,2.14-7.39,23.79,23.79,0,0,0-.12-8.26c-.73-3.17-2.36-4.92-4.91-5.26q-4.32-.57-7,5.8a36.2,36.2,0,0,0-2.55,9.88,28.13,28.13,0,0,0,.16,8.86c.71,4,2.3,6.22,4.79,6.55,2.14.28,4.22-.61,6.22-2.67a1.67,1.67,0,0,1,1.46-.63c.82.11,1.16.63,1,1.56a3.34,3.34,0,0,1-1.12,1.62A9,9,0,0,1,463.9,184q-5.17-.69-6.89-7.6a29.78,29.78,0,0,1-.43-11.09q1.26-9.5,5-14.13c2.12-2.57,4.58-3.66,7.37-3.29q4.92.65,6.58,6.39A23.44,23.44,0,0,1,476.1,164.1Zm-7.33-2c.33-2.48,0-3.79-1-3.92q-1-.13-2,1.71a24.63,24.63,0,0,0-2.74,9q-.62,4.67.79,4.84c.59.08,1.27-.66,2.06-2.22A29.38,29.38,0,0,0,468.77,162.09Z"/><path class="cls-3" d="M498.48,164.73a1.27,1.27,0,0,1-1.15,1.18,5.15,5.15,0,0,0-2.14.88,7.38,7.38,0,0,1,.5,3.43,6.07,6.07,0,0,1-3.29,4.61,9,9,0,0,1-5.71,1.1,9.9,9.9,0,0,1-2.61-.77c-.49.45-.75.77-.78,1q-.1.81,5.11,2.79a18.75,18.75,0,0,1,4.64,2.43A4.9,4.9,0,0,1,495,186q-.33,2.49-3.66,3.57A14.65,14.65,0,0,1,485,190a16.49,16.49,0,0,1-6.25-2q-3.24-1.94-2.86-4.77.45-3.39,6.54-4.14-2.71-1.31-2.47-3.17a3.81,3.81,0,0,1,1.48-2.39,6.44,6.44,0,0,1-2.17-5.47,7.14,7.14,0,0,1,3-4.87,8.54,8.54,0,0,1,6.3-1.28,8.1,8.1,0,0,1,5,2.39,5.42,5.42,0,0,1,3.7-1.24A1.31,1.31,0,0,1,498.48,164.73Zm-6.83,20.65a2.93,2.93,0,0,0-1.4-3.07s-1.16-.51-3.39-1.44a36.86,36.86,0,0,0-4.4.36c-2,.43-3.1,1.24-3.26,2.42q-.33,2.55,6.15,3.4C489.34,187.58,491.44,187,491.65,185.38Zm.69-15.6a3.84,3.84,0,0,0-1-3.24,5.24,5.24,0,0,0-3.16-1.54,5.71,5.71,0,0,0-3.61.56,3.7,3.7,0,0,0-1.94,2.93,3.26,3.26,0,0,0,1.41,3,6.61,6.61,0,0,0,3.27,1.34,5.39,5.39,0,0,0,3.31-.6A3.34,3.34,0,0,0,492.34,169.78Z"/><path class="cls-3" d="M517.61,186.75c-.17,1.24-.75,1.8-1.73,1.66s-1.45-.82-1.28-2.06l2-15.43c.16-1.27-.33-2-1.49-2.13a3.13,3.13,0,0,0-2.53.87,3.64,3.64,0,0,0-1.34,2.32l-1.81,13.69c-.17,1.24-.76,1.8-1.77,1.66s-1.49-.82-1.33-2.07l2-14.92c.23-1.75-.14-2.69-1.1-2.82a3.29,3.29,0,0,0-2.72,1.33,4.85,4.85,0,0,0-1.47,2.69l-1.73,13.05c-.16,1.25-.74,1.8-1.73,1.67s-1.49-.83-1.32-2.07l2.48-18.78c.16-1.24.77-1.79,1.81-1.65s1.39.93,1.2,2.4a4.9,4.9,0,0,1,4.06-1.71,4,4,0,0,1,3.33,2.9,6.19,6.19,0,0,1,4.85-1.82,3.91,3.91,0,0,1,2.85,1.89,5.08,5.08,0,0,1,.83,3.52Z"/><path class="cls-3" d="M537.91,189.43c-.17,1.24-.76,1.8-1.78,1.66a1.39,1.39,0,0,1-1.32-1.42,14.44,14.44,0,0,1,.25-2.17q-4.44,2.87-7.53,2.46a6.5,6.5,0,0,1-4.29-2.43,5.94,5.94,0,0,1-1.32-4.7,6.52,6.52,0,0,1,5.61-5.94,26.37,26.37,0,0,1,8.92.06q.51-5.5-4.19-6.12a5.29,5.29,0,0,0-3.31.56,11.31,11.31,0,0,0-2,1.54c-.57.62-1,.91-1.15.89-1.25-.17-1.8-.74-1.67-1.73a4.62,4.62,0,0,1,1.88-2.47,8.19,8.19,0,0,1,6.63-1.88q8,1,6.81,9.82Zm-2.32-6,.46-3.47-2.67-.35a11.8,11.8,0,0,0-4.91.29q-2.93.92-3.25,3.33a3,3,0,0,0,.69,2.33,2.93,2.93,0,0,0,2,1.26C530.09,187.14,532.64,186,535.59,183.47Z"/><path class="cls-3" d="M557.47,162.78a2.4,2.4,0,0,1-.9,1.6,2.46,2.46,0,0,1-3.39-.45,2.43,2.43,0,0,1-.46-1.78,2.28,2.28,0,0,1,.91-1.6A2.37,2.37,0,0,1,557,161,2.34,2.34,0,0,1,557.47,162.78Zm-4.6,28.63c-.17,1.24-.76,1.79-1.77,1.66s-1.49-.83-1.33-2.07l2.48-18.78c.17-1.24.78-1.79,1.82-1.65s1.44.82,1.28,2.06Z"/><path class="cls-3" d="M574.52,194.27c-.16,1.24-.75,1.79-1.77,1.66s-1.48-.83-1.32-2.07l3.8-28.74c.16-1.21.76-1.75,1.81-1.61s1.44.81,1.28,2Z"/><path class="cls-3" d="M591.92,195.45a2.84,2.84,0,0,1-1.12,2,2.88,2.88,0,0,1-2.2.62,3,3,0,0,1-1.41-5.32,2.83,2.83,0,0,1,2.2-.62,2.92,2.92,0,0,1,2,1.17A2.84,2.84,0,0,1,591.92,195.45Z"/><path class="cls-3" d="M625.91,195.67a6.87,6.87,0,0,1-2.71,4.21,7.84,7.84,0,0,1-6.37,1.88,8.36,8.36,0,0,1-6.5-4.35,12.09,12.09,0,0,1-1.41-7.91,13.49,13.49,0,0,1,3.25-7.63,8.44,8.44,0,0,1,7.64-2.62,8.22,8.22,0,0,1,5.85,3.63,5.61,5.61,0,0,1,1.39,3.84,1.22,1.22,0,0,1-.69,1A2.15,2.15,0,0,1,625,188c-.32-.05-.61-.46-.88-1.24-.86-2.62-2.45-4.07-4.76-4.38a5.17,5.17,0,0,0-5.07,2.13,10.93,10.93,0,0,0-2.1,5.46,9.61,9.61,0,0,0,.77,5.58,5.45,5.45,0,0,0,4.37,3.16,4.81,4.81,0,0,0,3.47-.79,6,6,0,0,0,2.14-2.82,1.5,1.5,0,0,1,1.66-1.16A1.35,1.35,0,0,1,625.91,195.67Z"/><path class="cls-3" d="M648.45,194.47A13.52,13.52,0,0,1,645.3,202a8.19,8.19,0,0,1-7.45,2.56,8.07,8.07,0,0,1-6.48-4.44,13.76,13.76,0,0,1-1.09-8.12,13.33,13.33,0,0,1,3.14-7.43,8.12,8.12,0,0,1,7.41-2.52,8.22,8.22,0,0,1,6.53,4.4A13.47,13.47,0,0,1,648.45,194.47Zm-3.34-.44a10.69,10.69,0,0,0-.61-5.56,5,5,0,0,0-8.89-1.22,10.71,10.71,0,0,0-2,5.17,11,11,0,0,0,.56,5.6,5,5,0,0,0,8.89,1.21A10.61,10.61,0,0,0,645.11,194Z"/><path class="cls-3" d="M669.5,206.82c-.16,1.25-.74,1.8-1.73,1.67s-1.44-.82-1.28-2.06l2-15.43c.17-1.27-.32-2-1.48-2.14a3.2,3.2,0,0,0-2.53.87,3.72,3.72,0,0,0-1.35,2.33l-1.8,13.69c-.17,1.24-.76,1.8-1.78,1.66s-1.48-.83-1.32-2.07l2-14.92c.24-1.75-.13-2.69-1.09-2.82a3.29,3.29,0,0,0-2.72,1.32,5,5,0,0,0-1.48,2.7l-1.72,13c-.17,1.25-.74,1.8-1.73,1.67s-1.49-.83-1.32-2.07l2.48-18.78c.16-1.24.77-1.79,1.81-1.65s1.39.93,1.19,2.39a4.93,4.93,0,0,1,4.07-1.7,3.93,3.93,0,0,1,3.32,2.9,6.21,6.21,0,0,1,4.86-1.82,3.91,3.91,0,0,1,2.85,1.89,5.12,5.12,0,0,1,.83,3.51Z"/><path class="cls-2" d="M748.36,235.27c-1.66,8.58-8.47,9.85-15.48,8.93l-15.51-2-61.21-8.1L566,222.14,459,208,348.86,193.44l-101-13.35-79.38-10.5-44.27-5.85c-4.06-.53-8.21-.62-11.24-3.85-1-1.13-1.43-2.53-2.27-3.75-.45-.64-.61-1.78-.52-.29a6,6,0,0,1,.11-.84c.08-1.44.38-2.92.57-4.35l2.29-17.29,12.77-96.61c1-7.9,2.49-17.2,13.12-16.19,3.3.31,6.6.87,9.88,1.3l51.93,6.87,84.6,11.18L389.19,53.63,500.13,68.29l104.36,13.8L690,93.39l54.13,7.16c3.68.49,7.38.91,11.06,1.46,3.09.46,5.85,1.6,7.78,4.26a12.34,12.34,0,0,1,1.84,4c0,.19.13-1.41.16-.92a7,7,0,0,1-.13,1c-.18,1.53-.41,3.06-.61,4.59l-12.61,95.38-3.29,24.92c-.22,1.64.21,3.37,0,5L759,159.67l5.47-41.35c1.09-8.23,2.11-19.31-8.57-21.22-9.86-1.76-20-2.64-29.89-3.95l-69.9-9.24L559,71.08,448.83,56.51,338.48,41.93,241.22,29.07l-71.16-9.4c-10.34-1.37-20.73-3.17-31.12-4.12-11.21-1-12.11,9.35-13.19,17.46l-6,45.54L112.8,131c-1.09,8.24-2.87,16.66-2.75,25s5.3,11.53,12.32,12.46l15.38,2,61.42,8.12L291,190.79l108.14,14.29,111.52,14.74,101.65,13.44,78.8,10.41,41.94,5.55c7,.92,13.68-.49,15.31-8.95C748.67,238.66,748.05,236.87,748.36,235.27Z"/></g></g></svg>