<svg xmlns="http://www.w3.org/2000/svg" viewBox="0 0 415.22 431.25"><defs><style>.cls-1,.cls-3{fill:none;stroke:#fff;}.cls-1{stroke-miterlimit:10;}.cls-2{opacity:0.4;}.cls-3{stroke-linecap:round;stroke-linejoin:round;stroke-width:0.5px;}.cls-4{opacity:0.6;}</style></defs><title>wu-line</title><g id="圖層_2" data-name="圖層 2"><g id="wu-line"><path class="cls-1" d="M183.06,264.75h0c19.52-31.8,30.09-90.93,28.38-97.16L174.61,135s-53.76,69.86-63.45,99.5h0a25.35,25.35,0,0,0-1.49,7.6c.12,20.42,22,24.17,22,24.17s23,20.07,35,18.51C169.85,284.33,196.64,265.83,183.06,264.75Z"/><path class="cls-1" d="M126.39,377.14s-14.11,7.84-23.52,11a219.87,219.87,0,0,1-35.68,8.23c-14.21,2.24-33.84,1.32-32.54,4.32s.79,12.54-2,15.29,4.58,7.85,5.1,11,16.07,5.49,35.68,2.36S110.32,416,116.2,410.07s21.43-19.2,21.43-19.2Z"/><path class="cls-1" d="M82.09,307.75S68.37,310.69,51.9,284,30.54,247.57,28,248.55s-14.51,3.53-17.64,5.1-5.69,12.15-9,13.91,4.06,9.68,9.77,17.67c6.15,8.59,14.14,14.17,22.38,21.48s38.81,23.77,38.81,23.77Z"/><path class="cls-1" d="M341.89,125.89s1-.53,8.43-3.13c5-1.77,15.66-3.07,20,.48s5.39,17.11-8.13,17c-9.05,0-11.14-2.81-11.56-5Z"/><path class="cls-1" d="M136.19,212.48s-19.6,5.88-25.09,9.21-6.47,5.49-2,6.47,20.78,1.57,24.7,0a59.62,59.62,0,0,0,8.23-4.31Z"/><path class="cls-1" d="M162.19,229.36s22.64-29,31.45-37.66,5.81-24,5.81-24L213,148.26l63.38,10.91s3,6.44,2.95,22.23-6.17,40-14.06,60.48c-6.45,16.76-27.58,51.44-36.2,65.47-6.66,10.86-15.76,35.95-35.44,50.59s-56,32.93-56,32.93-16.34,1.95-11.24-13.73c0,0,11.37-12.16,21.56-25.49s21.17-31.36,25.48-40.38,2.75-18.42-11.37-9.8-17.24,17.25-39.2,24.31-49,4.7-50.57,4.7c0,0-7.45-16.07,9.8-22.73,0,0,10.19,2.35,21.17-7.84s19.21-27.45,28.62-39.21S159,233.43,162.19,229.36Z"/><path class="cls-1" d="M190.68,167.73a154.22,154.22,0,0,0-30.58,18.88,131.8,131.8,0,0,0-23.91,25.87,43.15,43.15,0,0,0,1.44,6.41,9,9,0,0,0,4.44,5s19.21-5.49,34.5-11.76,22.74-5.9,29.79-12.16,12.64-20.1,7.88-32.2S190.68,167.73,190.68,167.73Z"/><path class="cls-1" d="M281.34,162a153.67,153.67,0,0,1,28.11-22.39,131.64,131.64,0,0,1,32.44-13.75,17.45,17.45,0,0,1,3.17,2.27c1.89,1.64,5.54,7.11,5.54,7.11s-14.39,14.82-25.47,27.09-24.3,26.15-30.09,31.7c-11.46,11-18.13,19.6-26.75,21.56s-10.33-15.29-3-26.27S281.34,162,281.34,162Z"/><path class="cls-1" d="M414.72,201.65A54.76,54.76,0,1,1,360,146.89,54.76,54.76,0,0,1,414.72,201.65Z"/><path class="cls-1" d="M379.71,177.38V167H369.3V154.8c5.88-1.71,10.06-6,10.06-10.92,0-4-2.69-7.51-6.8-9.63a8.49,8.49,0,0,1-2.16,3.3c3,1.42,5,3.75,5,6.33,0,2.91-2.57,5.51-6.27,6.85-.38-1.17-2-2.56-9-2.56-5.41,0-7.6.84-8.49,1.76-2.71-1.44-4.48-3.64-4.48-6.05s1.87-4.74,4.72-6.18a4.42,4.42,0,0,1-1.34-2.43,6,6,0,0,1-.19-1.18c-4.28,2.1-7.11,5.7-7.11,9.79,0,4.31,3.14,8.07,7.81,10.11v13H340.7v10.41l-6.58,23.54L340.7,226v8.84h39V226l6.58-25.12Zm-27.22,39.33c-.76.32-.77.67-.77.9a.93.93,0,0,0,0,.23v6.63h-3.51l-6.17-23.55,6.58-23.54h3.85Zm12.64-.53c-1.19-.11-2.79-.18-4.92-.18s-3.74.07-4.93.18v-38.8h9.85Zm7.05,8.29h-3.51v-6.63a.93.93,0,0,0,0-.23c0-.23,0-.58-.77-.89V177.38h3.85l6.58,23.54Z"/><path class="cls-1" d="M206,274l-.78-4.64c4.52-.76-5.66-10.42,1.44-20.66,5.53-8,11.81-17,18.77-24.53,15.87-17,24.45-50.35,24.53-50.69l4.56,1.16c-.36,1.41-9,34.82-25.65,52.74-6.73,7.22-12.9,16.13-18.35,24C202.15,263.41,212.44,272.92,206,274Z"/><path class="cls-1" d="M164.81,225.81c2.66.8,20.25,30.07,43,43.79s35.33,11,36.66,14.15-8.34,21.21-14,22.74S209.71,300.17,192,287.9C174.84,276,150.86,252,147.52,244,145.56,239.25,162.15,225,164.81,225.81Z"/><path class="cls-1" d="M223.2,159.17s13.14,17.62,29,17.62c12,0,15.31-2.84,17.25-12.14S223.2,159.17,223.2,159.17Z"/><path class="cls-1" d="M311.24,101.76c.92,35.63-23.36,65.16-54.22,66s-56.63-27.46-57.54-63.09,23.36-65.17,54.22-66S310.33,66.12,311.24,101.76Z"/><path class="cls-1" d="M239.82,116.15l-.27-.15c-.15-.08-.44-.27-.76-.48a8.93,8.93,0,0,1-1-.73l-1-.92a5.67,5.67,0,0,1-.93-1c-.27-.33-.52-.63-.73-.9l-.69-.85,1,.47,1,.47a4.8,4.8,0,0,0,1.17.44l1.17.34a7.51,7.51,0,0,0,1,.17c.28,0,.48.07.69.08l.31,0Z"/><path class="cls-1" d="M292.08,110.26h.07s0,0,0,0,0,0,.09,0a.53.53,0,0,0,.24,0,2.51,2.51,0,0,0,.74-.27,6.51,6.51,0,0,0,.88-.57c.3-.23.57-.5.84-.75a6.56,6.56,0,0,0,.69-.75l.66-.78-.22,1a7.81,7.81,0,0,1-.28,1c-.13.37-.26.79-.44,1.19a8.61,8.61,0,0,1-.66,1.18,4.52,4.52,0,0,1-.86,1,2,2,0,0,1-.47.36,1.82,1.82,0,0,1-.5.26l-.5.16Z"/><path class="cls-1" d="M250.87,116.74a6.67,6.67,0,1,1-6.67-6.66A6.67,6.67,0,0,1,250.87,116.74Z"/><path class="cls-1" d="M294.62,114.26a6.67,6.67,0,1,1-6.67-6.67A6.67,6.67,0,0,1,294.62,114.26Z"/><path class="cls-1" d="M235.75,105.06a9.58,9.58,0,0,1,1.85-1.32,13.48,13.48,0,0,1,2.14-1c.41-.13.85-.24,1.29-.35s.92-.13,1.39-.2.92,0,1.37,0,.93.16,1.37.24.82.25,1.19.38.71.3,1,.45a8.73,8.73,0,0,1,1.9,1.25l-.58-.21c-.37-.14-.9-.31-1.53-.5l-1-.27-1.15-.24c-.39,0-.79-.07-1.2-.13s-.93,0-1.3,0-.85.08-1.27.14l-1.22.26-1.14.31-1,.33c-.63.23-1.15.42-1.52.57Z"/><path class="cls-1" d="M282.69,102.7a6.35,6.35,0,0,1,1.52-1.51,8.22,8.22,0,0,1,1.94-1.09,7.88,7.88,0,0,1,1.22-.38,8,8,0,0,1,1.3-.2,8.31,8.31,0,0,1,1.32,0,9.87,9.87,0,0,1,1.25.21,10.49,10.49,0,0,1,1.12.38,5.59,5.59,0,0,1,.95.46,6.48,6.48,0,0,1,1.28.87l.45.37-.55-.2-.61-.25a8.28,8.28,0,0,0-.8-.27c-.3-.08-.6-.21-.95-.28s-.7-.15-1.06-.22-.76-.09-1.15-.11a11.71,11.71,0,0,0-2.36.16c-.38.06-.75.17-1.12.26s-.71.23-1,.36-.63.26-.9.4A12.45,12.45,0,0,0,282.69,102.7Z"/><path class="cls-1" d="M276.39,146.09A11.11,11.11,0,1,1,265.28,135,11.1,11.1,0,0,1,276.39,146.09Z"/><path class="cls-1" d="M273.17,146.09a7.89,7.89,0,1,1-7.89-7.88A7.89,7.89,0,0,1,273.17,146.09Z"/><path class="cls-1" d="M289.46,62.73a97.31,97.31,0,0,1,9,14.11c4.32,8.23,12.79,28.15,11.36,41.4-.39,3.62,3.32-3.12,3.54-12.78.28-12.23-3.12-29.27-9.41-37.64-11.26-15-14.11-17.43-14.11-17.43Z"/><path class="cls-1" d="M306.57,64.43a28.22,28.22,0,0,0-16.72-14s-.05.78-.13,2.19c12.67,11.52,21,29.18,21.52,49.18.82,31.85-18.49,58.8-44.64,64.74-5.76,3.26-9,13.56-7.89,17.37,1.7,5.63,4.87,1.56,9.58,3.52s2.35,6.67,2.35,6.67c9.8,0,3.92-4.71,5.09-9.8s17.25-3.53,29.8-8.63,5.88-19.54,2.35-24.25,6.05-26.7,7.58-36.51C318.41,96,312.45,75.8,306.57,64.43Z"/><path class="cls-1" d="M233.41,69s-5,13.26-11,14.9-13.85,16.81-10.46,23.6,8.13,13.07,7.46,18.56,9.3,16.73,14,16.73,10.44,3.65,10.44,3.65,8.29,12-9.58,16.32-29.36,6.16-27,10.61,5.75,9.93-2.88,7.58-10.45-3.14-10.19-7.84c0,0,13.48,1.83,3.81-1.05s-19.86-.78-26.13-1-11-5.49-11-5.49,13.33,2.61,18.82.52,3.65-1.83-.79-5-18.82-16.73-18-26.14c0,0-1.31,1.57-10.46,1.57-7.62,0-12.52.36-13.64,2a1.45,1.45,0,0,0-.21,1.14c.53,2.62-4.18-5.75,6-8.88,0,0-2.87-7-.52-8.59,0,0-2.87.26-10.45-4.72s-8.11-10.48-5.75-17,3.39-10.62,16.46-16.55,22-1,23.52-3.84,5.75-8.75,13.6-8.16c0,0-1.83-5.43,7.05-14.31s9-12.29,19.19-13.33,11.76-4,17-4.43S233.41,69,233.41,69Z"/><path class="cls-1" d="M236.79,34.61a14.62,14.62,0,0,0-13.59,4c-6.27,6.16-13,11.72-7.16,18.35s3.24,10,16.05,11.85,15.42,3.4,21.69,2.09,16.47,2.27,19.34.48,12.29,0,16.34-1.52,7.44-3.14,7.44-3.14S293,52.32,291.68,50.39s-14.64-10-19.87-14.21-6.54-3.4-13.33-3.4S241,31.21,236.79,34.61Z"/><path class="cls-1" d="M255.36,36.7s6.26-5.48,9.14-12.8S262.41,3,250.38.9,231.3,5.34,225.55,11.35s-7.57,14.84-5,21.07,7.32,7.68,12,7.42S255.36,36.7,255.36,36.7Z"/><g class="cls-2"><path class="cls-3" d="M225.91,126.55l.59-.34.5.08s.39-.22.39-.22l.62.14s.41-.24.41-.23,2,0,2,.06.83-.49.83-.48-1.4.82-1.4.82.93-.54.93-.54a2.88,2.88,0,0,1-.22.27l.51-.29.08.56s1.35-.79,1.36-.78l-.86.82s1.33-.81,1.35-.79.63.67.63.69.11-.07.11-.07,1.24,0,1.24,0,0,0,0,0l.9.23s.07-.05.07,0l-.89.55s1.11-.65,1.11-.64.08,1,.09,1,.94-.56.95-.55.49.77.49.78a3,3,0,0,0,.39-.22s.13.84.14.86l.85-.49s-.12,1-.11,1,.86-.52.87-.51-.53.74-.52.75l.84-.49s-.33.88-.33.88l.75-.44s-.43.86-.42.87l.81-.47-.62.72s.83-.47.83-.47l-.61.75.77-.45s-.64.62-.63.63.74-.43.74-.43-.51,1.11-.5,1.12.84-.49.84-.49-.62,1.23-.62,1.23.09-.06.09,0l-.1.14.8-.46s-.69,1.4-.68,1.42.66-.37.66-.37-2.22,2.32-2.2,2.36,1.65-1,1.68-1-1.08.65-1.08.66.17-.1.17-.1"/><path class="cls-3" d="M222,127.74l.58-.33s-1.66,1-1.65,1.05,2.6-1.56,2.62-1.52-3.47,2.42-3.47,2.42l4.49-2.59s-4.59,3.64-4.59,3.64.49-.31.5-.29-1.35,1.19-1.35,1.19,1.07-.63,1.08-.63-1.2,1.44-1.2,1.45,1-.59,1-.58-.92.95-.92.95.8-.48.81-.47l-.81.5.8-.47s-.69,1.15-.67,1.17l.84-.49s-.84.54-.83.55l.85-.49s-.56,1.11-.55,1.13.72-.42.72-.42-.69.47-.68.48l.73-.42s-.16.62-.15.62l.39-.22-.38.42a1,1,0,0,0,.18-.1s.09.88.1.89l.76-.44-.53.69.79-.46,0,1.14s.85-.51.86-.5l-.66.64.86-.49s-.13,1-.12,1,.93-.54.93-.54l-.58.7,1-.55s-.25.84-.24.85.95-.55.95-.55.06,1,.07,1,1-.59,1-.59.05.9.06.91l1.11-.65.41,1,1.23-.71s-.31.84-.3.85,1.34-.79,1.35-.78-1.07.77-1.07.78,1-.61,1-.61.11.71.11.72,1.41-.85,1.43-.82-.3.88-.29.89,1.7-1,1.71-1l.05.59.13-.07.57-.32a2.2,2.2,0,0,1,.26-.15l.19.28s.35-.22.36-.21,2.78-.56,2.81-.51,4.35-2.62,4.4-2.54-3.05,2.09-3.05,2.09l2.35-1.35s-1.11.81-1.1.82.55-.35.57-.32"/></g><g class="cls-2"><path class="cls-3" d="M299.18,126.54l.55-.31.48.08a4.13,4.13,0,0,0,.58-.33l.48.23s.57-.34.58-.33,2,.05,2,.06l1-.55s-1.52.9-1.52.9,1.05-.61,1.05-.61L304,126l.63-.36.1.55s1.31-.77,1.32-.76l-.84.8s1.3-.78,1.32-.76.62.67.63.69.15-.09.15-.09l.37.46s1.06-.64,1.07-.62l.68.36,0,0-.85.53s1.06-.63,1.07-.62.1,1,.1,1,.91-.55.92-.53l.43.81a2.43,2.43,0,0,0,.35-.2s.05.89.06.91l.8-.47s-.2,1-.19,1.07.81-.48.81-.47-.53.74-.52.75l.75-.44s-.45.95-.45.95l.8-.47s-.61,1-.6,1l.81-.47-.69.76s.79-.45.79-.45l-.71.81s.81-.47.81-.47-.85.74-.84.75.91-.53.91-.53-1,1.39-1,1.4,1-.56,1-.56-1.53,1.75-1.53,1.75.65-.39.66-.38l-.76.52s1.41-.81,1.41-.81-2.5,2.07-2.48,2.11,2.06-1.19,2.06-1.19"/><path class="cls-3" d="M294.65,128.08l.52-.29s-1.66,1-1.65,1,3.18-1.89,3.21-1.85l-4.11,2.79,5.29-3.05s-5.64,4.24-5.64,4.24.54-.34.55-.31-1.56,1.3-1.56,1.3,1.31-.77,1.32-.76-1.42,1.57-1.42,1.57.92-.55.93-.54-.95,1-.95,1,.91-.55.92-.53-.93.54-.92.55.91-.54.92-.53-.86,1.25-.85,1.27l.78-.45s-.77.5-.76.5l.77-.44s-.56,1.11-.55,1.13l.81-.47s-.8.53-.79.54l.82-.47s-.24.66-.23.67l.36-.21-.33.39s.09,0,.09,0,.1.88.11.89l.84-.49-.59.73.84-.49v1.16s.88-.53.89-.52l-.71.67.94-.54s-.09.95-.08,1,.92-.53.92-.53l-.58.7,1-.55s-.23.84-.22.85,1.07-.62,1.07-.62l.13.95s1.07-.62,1.07-.62.06.89.07.9,1.31-.77,1.32-.76l.52.92,1.46-.84s.75.24.75.25.13-.1.14-.08l-.92.69s1.42-.82,1.42-.82.93.23.94.24.35-.25.37-.21,1.24,0,1.25,0,1.23-.73,1.24-.72.07.57.07.58,5.2-3,5.21-3-4.5,2.56-4.48,2.6,5.22-3.09,5.25-3-3.26,2.22-3.24,2.26a11.75,11.75,0,0,0,1.46-.84s-.89.66-.88.68,1.49-.91,1.51-.87"/></g><path class="cls-1" d="M300,203.21a131.19,131.19,0,0,1-2.44-17.54c-.86-9.34-1.68-18.17-6.09-25.26A34.22,34.22,0,0,0,271.83,146l-1.08,4.58c.11,0,10.67,2.64,16.71,12.36,3.82,6.14,4.55,14,5.4,23.2a134,134,0,0,0,2.54,18.16c3.73,16.25,2.75,28.11.27,32.24l-.11.18c-3.14,5.25-9.7,16.17-24.12,13.62a82.21,82.21,0,0,1-8.9-2.05c-.64,1.38-1.32,2.81-2.06,4.29a82.09,82.09,0,0,0,10.14,2.39,28.85,28.85,0,0,0,5,.45c14.21,0,21.17-11.61,24-16.28l.11-.18C303.43,232.72,303.54,218.7,300,203.21Z"/><g class="cls-4"><path class="cls-1" d="M207.54,204.76A10.67,10.67,0,1,1,221.45,199,10.67,10.67,0,0,1,207.54,204.76Zm7.58-18.3A9.14,9.14,0,1,0,220,198.39,9.14,9.14,0,0,0,215.12,186.46Z"/><path class="cls-1" d="M220.46,197.64l-5.53-2.29-6.48-2.68a3.12,3.12,0,0,1-.23,1.33,2.16,2.16,0,0,1-.17.34l1,.42,8.75,3.62,2,.83a.85.85,0,0,0,1.1-.46A.86.86,0,0,0,220.46,197.64Z"/><path class="cls-1" d="M208.21,194.07a3,3,0,0,1-3.26,1.81A6.63,6.63,0,0,0,217.7,198Zm1.49,3.79a1.28,1.28,0,1,1,1.66-.7A1.27,1.27,0,0,1,209.7,197.86Z"/><path class="cls-1" d="M207.1,191.31c-.1,1.78-1.3,3.16-2.67,3.09s-2.41-1.58-2.31-3.36,1.29-3.17,2.67-3.09S207.2,189.53,207.1,191.31Z"/></g></g></g></svg>