<svg xmlns="http://www.w3.org/2000/svg" xmlns:xlink="http://www.w3.org/1999/xlink" viewBox="0 0 414.22 430.25"><defs><style>.cls-1{fill:#ecd162;}.cls-2{fill:#182547;}.cls-3{fill:#f9d9b9;}.cls-4{fill:#4985a7;}.cls-5{fill:url(#radial-gradient);}.cls-6{fill:#4b493c;}.cls-7{fill:#162243;}.cls-8{fill:#242b60;}.cls-9{fill:#0c1b18;}.cls-10{fill:#abbe40;}.cls-11{fill:#abb836;}.cls-12{opacity:0.4;}.cls-13{fill:none;stroke:#c13331;stroke-linecap:round;stroke-linejoin:round;stroke-width:0.5px;}.cls-14{opacity:0.6;}.cls-15{fill:#fff;}</style><radialGradient id="radial-gradient" cx="359.46" cy="201.15" r="54.76" gradientUnits="userSpaceOnUse"><stop offset="0" stop-color="#fff"/><stop offset="1" stop-color="#fff56e" stop-opacity="0"/></radialGradient></defs><title>wu</title><g id="圖層_2" data-name="圖層 2"><g id="wu"><path class="cls-1" d="M182.56,264.25h0c19.52-31.8,30.09-90.93,28.38-97.16l-36.83-32.61s-53.76,69.86-63.45,99.5h0a25.35,25.35,0,0,0-1.49,7.6c.12,20.42,22,24.17,22,24.17s23,20.07,35,18.51C169.35,283.83,196.14,265.33,182.56,264.25Z"/><path class="cls-2" d="M125.89,376.64s-14.11,7.84-23.52,11a219.87,219.87,0,0,1-35.68,8.23c-14.21,2.24-33.84,1.32-32.54,4.32s.79,12.54-2,15.29,4.58,7.85,5.1,11,16.07,5.49,35.68,2.36,36.85-13.33,42.73-19.21,21.43-19.2,21.43-19.2Z"/><path class="cls-2" d="M81.59,307.25s-13.72,2.94-30.19-23.72S30,247.07,27.49,248.05,13,251.58,9.85,253.15s-5.69,12.15-9,13.91,4.06,9.68,9.77,17.67c6.15,8.59,14.14,14.17,22.38,21.48S71.79,330,71.79,330Z"/><path class="cls-3" d="M341.39,125.39s1-.53,8.43-3.13c5-1.77,15.66-3.07,20,.48s5.39,17.11-8.13,17c-9.05,0-11.14-2.81-11.56-5Z"/><path class="cls-3" d="M135.69,212s-19.6,5.88-25.09,9.21-6.47,5.49-2,6.47,20.78,1.57,24.7,0a59.62,59.62,0,0,0,8.23-4.31Z"/><path class="cls-4" d="M161.69,228.86s22.64-29,31.45-37.66,5.81-24,5.81-24l13.56-19.47,63.38,10.91s3,6.44,2.95,22.23-6.17,40-14.06,60.48c-6.45,16.76-27.58,51.44-36.2,65.47-6.66,10.86-15.76,35.95-35.44,50.59s-56,32.93-56,32.93-16.34,1.95-11.24-13.73c0,0,11.37-12.16,21.56-25.49s21.17-31.36,25.48-40.38,2.75-18.42-11.37-9.8-17.24,17.25-39.2,24.31-49,4.7-50.57,4.7c0,0-7.45-16.07,9.8-22.73,0,0,10.19,2.35,21.17-7.84S122,272,131.38,260.2,158.49,232.93,161.69,228.86Z"/><path class="cls-4" d="M190.18,167.23a154.22,154.22,0,0,0-30.58,18.88A131.8,131.8,0,0,0,135.69,212a43.15,43.15,0,0,0,1.44,6.41,9,9,0,0,0,4.44,5s19.21-5.49,34.5-11.76,22.74-5.9,29.79-12.16,12.64-20.1,7.88-32.2S190.18,167.23,190.18,167.23Z"/><path class="cls-4" d="M280.84,161.53A153.67,153.67,0,0,1,309,139.14a131.64,131.64,0,0,1,32.44-13.75,17.45,17.45,0,0,1,3.17,2.27c1.89,1.64,5.54,7.11,5.54,7.11s-14.39,14.82-25.47,27.09-24.3,26.15-30.09,31.7c-11.46,11-18.13,19.6-26.75,21.56s-10.33-15.29-3-26.27S280.84,161.53,280.84,161.53Z"/><path class="cls-5" d="M414.22,201.15a54.76,54.76,0,1,1-54.76-54.76A54.76,54.76,0,0,1,414.22,201.15Z"/><path class="cls-6" d="M379.21,176.88V166.47H368.8V154.3c5.88-1.71,10.06-6,10.06-10.92,0-4-2.69-7.51-6.8-9.63a8.49,8.49,0,0,1-2.16,3.3c3,1.42,5,3.75,5,6.33,0,2.91-2.57,5.51-6.27,6.85-.38-1.17-2-2.56-9-2.56-5.41,0-7.6.84-8.49,1.76-2.71-1.44-4.48-3.64-4.48-6.05s1.87-4.74,4.72-6.18a4.42,4.42,0,0,1-1.34-2.43,6,6,0,0,1-.19-1.18c-4.28,2.1-7.11,5.7-7.11,9.79,0,4.31,3.14,8.07,7.81,10.11v13H340.2v10.41l-6.58,23.54,6.58,25.12v8.84h39v-8.84l6.58-25.12ZM352,216.21c-.76.32-.77.67-.77.9a.93.93,0,0,0,0,.23V224h-3.51l-6.17-23.55,6.58-23.54H352Zm12.64-.53c-1.19-.11-2.79-.18-4.92-.18s-3.74.07-4.93.18v-38.8h9.85Zm7.05,8.29h-3.51v-6.63a.93.93,0,0,0,0-.23c0-.23,0-.58-.77-.89V176.88h3.85l6.58,23.54Z"/><path class="cls-7" d="M205.47,273.5l-.78-4.64c4.52-.76-5.66-10.42,1.44-20.66,5.53-8,11.81-17,18.77-24.53,15.87-17,24.45-50.35,24.53-50.69l4.56,1.16c-.36,1.41-9,34.82-25.65,52.74-6.73,7.22-12.9,16.13-18.35,24C201.65,262.91,211.94,272.42,205.47,273.5Z"/><path class="cls-7" d="M164.31,225.31c2.66.8,20.25,30.07,43,43.79s35.33,11,36.66,14.15-8.34,21.21-14,22.74-20.78-6.32-38.46-18.59c-17.19-11.94-41.17-35.94-44.51-43.95C145.06,238.75,161.65,224.51,164.31,225.31Z"/><path class="cls-8" d="M222.7,158.67s13.14,17.62,29,17.62c12,0,15.31-2.84,17.25-12.14S222.7,158.67,222.7,158.67Z"/><path class="cls-3" d="M310.74,101.26c.92,35.63-23.36,65.16-54.22,66S199.89,139.76,199,104.13s23.36-65.17,54.22-66S309.83,65.62,310.74,101.26Z"/><path class="cls-9" d="M239.32,115.65l-.27-.15c-.15-.08-.44-.27-.76-.48a8.93,8.93,0,0,1-1-.73l-1-.92a5.67,5.67,0,0,1-.93-1c-.27-.33-.52-.63-.73-.9l-.69-.85,1,.47,1,.47a4.8,4.8,0,0,0,1.17.44l1.17.34a7.51,7.51,0,0,0,1,.17c.28,0,.48.07.69.08l.31,0Z"/><path class="cls-9" d="M291.58,109.76h.07s0,0,0,0,0,0,.09,0a.53.53,0,0,0,.24,0,2.51,2.51,0,0,0,.74-.27,6.51,6.51,0,0,0,.88-.57c.3-.23.57-.5.84-.75a6.56,6.56,0,0,0,.69-.75l.66-.78-.22,1a7.81,7.81,0,0,1-.28,1c-.13.37-.26.79-.44,1.19a8.61,8.61,0,0,1-.66,1.18,4.52,4.52,0,0,1-.86,1,2,2,0,0,1-.47.36,1.82,1.82,0,0,1-.5.26l-.5.16Z"/><path class="cls-9" d="M250.37,116.24a6.67,6.67,0,1,1-6.67-6.66A6.67,6.67,0,0,1,250.37,116.24Z"/><path class="cls-9" d="M294.12,113.76a6.67,6.67,0,1,1-6.67-6.67A6.67,6.67,0,0,1,294.12,113.76Z"/><path class="cls-9" d="M235.25,104.56a9.58,9.58,0,0,1,1.85-1.32,13.48,13.48,0,0,1,2.14-1c.41-.13.85-.24,1.29-.35s.92-.13,1.39-.2.92,0,1.37,0,.93.16,1.37.24.82.25,1.19.38.71.3,1,.45a8.73,8.73,0,0,1,1.9,1.25l-.58-.21c-.37-.14-.9-.31-1.53-.5l-1-.27-1.15-.24c-.39,0-.79-.07-1.2-.13s-.93,0-1.3,0-.85.08-1.27.14l-1.22.26-1.14.31-1,.33c-.63.23-1.15.42-1.52.57Z"/><path class="cls-9" d="M282.19,102.2a6.35,6.35,0,0,1,1.52-1.51,8.22,8.22,0,0,1,1.94-1.09,7.88,7.88,0,0,1,1.22-.38,8,8,0,0,1,1.3-.2,8.31,8.31,0,0,1,1.32,0,9.87,9.87,0,0,1,1.25.21,10.49,10.49,0,0,1,1.12.38,5.59,5.59,0,0,1,.95.46,6.48,6.48,0,0,1,1.28.87l.45.37-.55-.2-.61-.25a8.28,8.28,0,0,0-.8-.27c-.3-.08-.6-.21-.95-.28s-.7-.15-1.06-.22-.76-.09-1.15-.11a11.71,11.71,0,0,0-2.36.16c-.38.06-.75.17-1.12.26s-.71.23-1,.36-.63.26-.9.4A12.45,12.45,0,0,0,282.19,102.2Z"/><path class="cls-4" d="M275.89,145.59a11.11,11.11,0,1,1-11.11-11.11A11.1,11.1,0,0,1,275.89,145.59Z"/><path class="cls-7" d="M272.67,145.59a7.89,7.89,0,1,1-7.89-7.88A7.89,7.89,0,0,1,272.67,145.59Z"/><path class="cls-10" d="M289,62.23a97.31,97.31,0,0,1,9,14.11c4.32,8.23,12.79,28.15,11.36,41.4-.39,3.62,3.32-3.12,3.54-12.78.28-12.23-3.12-29.27-9.41-37.64-11.26-15-14.11-17.43-14.11-17.43Z"/><path class="cls-11" d="M306.07,63.93a28.22,28.22,0,0,0-16.72-14s-.05.78-.13,2.19c12.67,11.52,21,29.18,21.52,49.18.82,31.85-18.49,58.8-44.64,64.74-5.76,3.26-9,13.56-7.89,17.37,1.7,5.63,4.87,1.56,9.58,3.52s2.35,6.67,2.35,6.67c9.8,0,3.92-4.71,5.09-9.8s17.25-3.53,29.8-8.63,5.88-19.54,2.35-24.25,6.05-26.7,7.58-36.51C317.91,95.52,312,75.3,306.07,63.93Z"/><path class="cls-11" d="M232.91,68.54s-5,13.26-11,14.9-13.85,16.81-10.46,23.6,8.13,13.07,7.46,18.56,9.3,16.73,14,16.73S243.35,146,243.35,146s8.29,12-9.58,16.32-29.36,6.16-27,10.61,5.75,9.93-2.88,7.58-10.45-3.14-10.19-7.84c0,0,13.48,1.83,3.81-1.05s-19.86-.78-26.13-1-11-5.49-11-5.49,13.33,2.61,18.82.52,3.65-1.83-.79-5-18.82-16.73-18-26.14c0,0-1.31,1.57-10.46,1.57-7.62,0-12.52.36-13.64,2a1.45,1.45,0,0,0-.21,1.14c.53,2.62-4.18-5.75,6-8.88,0,0-2.87-7-.52-8.59,0,0-2.87.26-10.45-4.72s-8.11-10.48-5.75-17,3.39-10.62,16.46-16.55,22-1,23.52-3.84,5.75-8.75,13.6-8.16c0,0-1.83-5.43,7.05-14.31s9-12.29,19.19-13.33,11.76-4,17-4.43S232.91,68.54,232.91,68.54Z"/><path class="cls-11" d="M236.29,34.11a14.62,14.62,0,0,0-13.59,4c-6.27,6.16-13,11.72-7.16,18.35s3.24,10,16.05,11.85,15.42,3.4,21.69,2.09,16.47,2.27,19.34.48,12.29,0,16.34-1.52,7.44-3.14,7.44-3.14-3.92-14.44-5.22-16.37-14.64-10-19.87-14.21-6.54-3.4-13.33-3.4S240.47,30.71,236.29,34.11Z"/><path class="cls-11" d="M254.86,36.2s6.26-5.48,9.14-12.8S261.91,2.49,249.88.4,230.8,4.84,225.05,10.85s-7.57,14.84-5,21.07,7.32,7.68,12,7.42S254.86,36.2,254.86,36.2Z"/><g class="cls-12"><path class="cls-13" d="M221.64,127.72l.25-.14-1.22.8s2.76-1.65,2.78-1.61-3.51,2.44-3.51,2.45l4.47-2.58s-4.5,3.59-4.5,3.59c.1.17,7.8-4.69,7.88-4.55s-8.51,5.32-8.51,5.32,8.24-4.83,8.27-4.78-8.14,5.44-8.14,5.45,10-6,10.09-5.82-9.47,5.87-9.47,5.87c.14.23,10.6-6.42,10.73-6.19,0,0-11.35,6.42-11.28,6.54s10.16-6.1,10.26-5.92c0,0-10.1,6.36-10,6.54,0,0,10.61-6.26,10.67-6.15s-10.17,5.84-10.13,5.9S231.43,126,231.43,126s-10.24,6.5-10.14,6.67,12-6.9,12-6.9-13.18,7.46-13.07,7.64,12.5-7.22,12.5-7.22-12.42,7.53-12.34,7.66,13.75-8,13.76-7.94c.14.24-13.87,7.9-13.74,8.13s13.68-7.91,13.69-7.9-12.55,7.9-12.43,8.12l13-7.51c0,.09-13,7.89-13,7.89s13-7.51,13-7.5l-11.39,7.73c.13.23,13.65-8.29,13.82-8l-13.78,8.21,13.81-8s-13.87,8.58-13.72,8.84S237,128.11,237,128.11l-13.55,8.18s14.17-8.26,14.21-8.2-13.32,8.19-13.23,8.35,13.23-7.63,13.23-7.63c.11.2-11.37,7.39-11.29,7.54s11.79-6.81,11.79-6.81c.1.18-10.41,6.76-10.33,6.91s12-7.14,12.11-7c0,0-11.23,7.44-11.12,7.64l11-6.33s-9.63,6-9.55,6.19,10.24-6.05,10.3-5.94-11.16,6.55-11.14,6.59c.13.22,11.35-6.57,11.36-6.56.1.17-9,5.78-8.95,5.95s8.11-4.92,8.21-4.74-6.3,4.25-6.25,4.34,5.76-3.38,5.79-3.34-5.49,3.65-5.43,3.75,5.34-3.09,5.35-3.08-4.66,2.65-4.64,2.69,5.38-3.18,5.41-3.13-4,2.62-3.93,2.67,2.62-1.56,2.64-1.53-1.16,1.1-1.15,1.12,1.25-.76,1.27-.72"/></g><g class="cls-12"><path class="cls-13" d="M294.44,128l.47-.27s-1.68,1-1.67,1.06,3.2-1.9,3.22-1.86-4,2.74-4,2.75l5.19-3s-5.49,4.15-5.49,4.15c.11.2,8.95-5.37,9-5.22s-9.77,6-9.77,6,9.51-5.56,9.54-5.5-9.44,6.19-9.44,6.2,11.34-6.81,11.46-6.61S292,132.44,292,132.44c.15.26,12.08-7.32,12.23-7.06,0,0-12.87,7.27-12.79,7.41s11.66-7,11.78-6.79c0,0-11.58,7.18-11.46,7.39,0,0,12.07-7.13,12.14-7s-11.65,6.69-11.61,6.76,12.62-7.28,12.62-7.28-11.88,7.4-11.76,7.6,13.58-7.84,13.58-7.84S291.93,134,292,134.2,306.18,126,306.18,126s-14,8.42-13.92,8.57c0,0,15.33-8.86,15.33-8.85.16.27-15.43,8.77-15.28,9s15.23-8.8,15.23-8.79c.1.17-14.22,8.83-14.07,9.08l14.61-8.44c.05.1-14.55,8.78-14.55,8.78s14.52-8.4,14.53-8.39l-12.9,8.61c.15.25,15-9.12,15.23-8.79l-15.2,9,15.21-8.78s-15.14,9.29-15,9.57,14.83-8.56,14.83-8.56S295.54,137,295.54,137s15.26-8.91,15.3-8.84-14.39,8.79-14.29,9,14.16-8.18,14.16-8.18c.12.21-12.09,7.8-12,8S311,129.74,311,129.74c.11.19-10.81,7-10.72,7.14s12.17-7.22,12.25-7.08-11,7.32-10.89,7.52L312,131.39s-8.64,5.5-8.57,5.63,9.07-5.37,9.13-5.27-9.92,5.84-9.9,5.87c.11.2,10-5.78,10-5.77s-7,4.67-7,4.8,5.52-3.36,5.59-3.23-2.46,2.1-2.43,2.14.76-.47.77-.45-1.51.93-1.49,1,1.16-.69,1.17-.68"/></g><path class="cls-7" d="M299.48,202.71A131.19,131.19,0,0,1,297,185.17c-.86-9.34-1.68-18.17-6.09-25.26a34.22,34.22,0,0,0-19.62-14.45L270.25,150c.11,0,10.67,2.64,16.71,12.36,3.82,6.14,4.55,14,5.4,23.2a134,134,0,0,0,2.54,18.16c3.73,16.25,2.75,28.11.27,32.24l-.11.18c-3.14,5.25-9.7,16.17-24.12,13.62a82.21,82.21,0,0,1-8.9-2.05c-.64,1.38-1.32,2.81-2.06,4.29a82.09,82.09,0,0,0,10.14,2.39,28.85,28.85,0,0,0,5,.45c14.21,0,21.17-11.61,24-16.28l.11-.18C302.93,232.22,303,218.2,299.48,202.71Z"/><g class="cls-14"><path class="cls-15" d="M207,204.26A10.67,10.67,0,1,1,221,198.47,10.67,10.67,0,0,1,207,204.26Zm7.58-18.3a9.14,9.14,0,1,0,4.92,11.93A9.14,9.14,0,0,0,214.62,186Z"/><path class="cls-15" d="M220,197.14l-5.53-2.29L208,192.17a3.12,3.12,0,0,1-.23,1.33,2.16,2.16,0,0,1-.17.34l1,.42,8.75,3.62,2,.83a.85.85,0,0,0,1.1-.46A.86.86,0,0,0,220,197.14Z"/><path class="cls-15" d="M207.71,193.57a3,3,0,0,1-3.26,1.81,6.63,6.63,0,0,0,12.75,2.12Zm1.49,3.79a1.28,1.28,0,1,1,1.66-.7A1.27,1.27,0,0,1,209.2,197.36Z"/><path class="cls-15" d="M206.6,190.81c-.1,1.78-1.3,3.16-2.67,3.09s-2.41-1.58-2.31-3.36,1.29-3.17,2.67-3.09S206.7,189,206.6,190.81Z"/></g></g></g></svg>