<svg xmlns="http://www.w3.org/2000/svg" viewBox="0 0 146.86 18.22"><defs><style>.cls-1{fill:#eee9cc;}</style></defs><title>detail_01</title><g id="圖層_2" data-name="圖層 2"><g id="detail_01"><path class="cls-1" d="M1.31,3.59H6.56c.58,0,.86.4.86,1.2a6.7,6.7,0,0,1-.27,1.58A17.47,17.47,0,0,1,6,9.55a15.08,15.08,0,0,1-1.74,2.89,12.2,12.2,0,0,1-3,2.93,1,1,0,0,1-.37.2c-.57,0-.86-.32-.86-.94a.8.8,0,0,1,.53-.7A13.42,13.42,0,0,0,3,11.58a14.93,14.93,0,0,0,1.7-2.77,14.37,14.37,0,0,0,.95-2.76,3.49,3.49,0,0,0,.18-.82c0-.15,0-.23-.08-.23H1.31a.62.62,0,0,1-.7-.7A.62.62,0,0,1,1.31,3.59ZM9.51,0a.7.7,0,0,1,.78.8V3.14a34.21,34.21,0,0,0,1.19,3.34,25.21,25.21,0,0,0,4.75-3.75.67.67,0,0,1,1.27.34,1.64,1.64,0,0,1-.33.86,27.22,27.22,0,0,1-5,3.8.16.16,0,0,1-.1,0,24,24,0,0,0,2.31,3.58,19.69,19.69,0,0,0,3.82,3.73c.3.21.45.42.45.64a.85.85,0,0,1-.86.94,1.73,1.73,0,0,1-.86-.31,22,22,0,0,1-4.25-4.79,15.92,15.92,0,0,1-2-3.86c-.14-.33-.27-.68-.39-1v9.61c0,1.3-.75,1.95-2.26,1.95a9.62,9.62,0,0,1-3.11-.72.69.69,0,0,1-.54-.7c0-.5.22-.76.62-.78a1.9,1.9,0,0,1,.49.09A11.29,11.29,0,0,0,8,16.72c.52,0,.78-.29.78-.86V.8C8.81.27,9,0,9.51,0Z"/><path class="cls-1" d="M21.15,5.64a.84.84,0,0,1,.49.22,15.08,15.08,0,0,1,1.88,1.87,1.23,1.23,0,0,1,.13.49c0,.47-.26.71-.78.71a.63.63,0,0,1-.37-.16,22.89,22.89,0,0,0-2-2,1,1,0,0,1-.16-.37A.7.7,0,0,1,21.15,5.64ZM23,10.49c.47,0,.7.26.7.78a19.87,19.87,0,0,1-.59,3.11A17.86,17.86,0,0,1,22,17.44a.74.74,0,0,1-.7.45c-.47,0-.7-.2-.7-.6A1.13,1.13,0,0,1,20.7,17a17.74,17.74,0,0,0,1.1-2.77,31.91,31.91,0,0,0,.7-3.24A.49.49,0,0,1,23,10.49ZM22.09.72a.81.81,0,0,1,.49.22A14.69,14.69,0,0,1,24.3,2.73a1.23,1.23,0,0,1,.13.49c0,.47-.26.71-.78.71a.65.65,0,0,1-.37-.16q-.86-1-1.8-1.89a1,1,0,0,1-.17-.38A.69.69,0,0,1,22.09.72ZM37.34,9.3c.41,0,.61.21.61.63s-.2.69-.61.69H32.11a15.46,15.46,0,0,0,2.48,2.45,26.42,26.42,0,0,0,3.52,2.4.69.69,0,0,1,.46.68,1,1,0,0,1-.15.51.63.63,0,0,1-.55.27,1.23,1.23,0,0,1-.62-.19,33.19,33.19,0,0,1-2.78-2A28.24,28.24,0,0,1,32,12.25v5.23q0,.72-.78.72a.63.63,0,0,1-.7-.72V12.21a19.33,19.33,0,0,1-1.7,1.85,19.71,19.71,0,0,1-3.54,2.66,1.68,1.68,0,0,1-.37.14c-.47,0-.7-.27-.7-.79a.71.71,0,0,1,.45-.7,19.4,19.4,0,0,0,3.75-2.71,11.9,11.9,0,0,0,1.78-2H25.7c-.41,0-.62-.23-.62-.69a.55.55,0,0,1,.62-.63h4.83V7.73a.62.62,0,0,1,.7-.7c.52,0,.78.24.78.7V9.3ZM26.31.64H36.39a1.5,1.5,0,0,1,1.25.56A2.38,2.38,0,0,1,38,2.52c0,.6,0,1.28-.08,2A.79.79,0,0,1,37,5.1a.62.62,0,0,1-.7-.71,17.68,17.68,0,0,0,.17-1.79A.55.55,0,0,0,35.86,2H34V6c0,.32.13.48.4.48h2.5c.46,0,.7.22.7.64a.62.62,0,0,1-.7.69H34a1.23,1.23,0,0,1-1.4-1.38V2H29.77a.6.6,0,0,1,.31.55A7.53,7.53,0,0,1,28.91,6a8.52,8.52,0,0,1-2.35,2.07,1,1,0,0,1-.54.15c-.43,0-.65-.24-.65-.72a.52.52,0,0,1,.24-.37,9.21,9.21,0,0,0,2.18-1.84,5.72,5.72,0,0,0,1-2.93A.43.43,0,0,1,29.06,2H26.93a.55.55,0,0,0-.62.63V4.47a.63.63,0,0,1-.7.71.62.62,0,0,1-.69-.71V2.05A1.24,1.24,0,0,1,26.31.64Z"/><path class="cls-1" d="M50.74,5.08a1.26,1.26,0,0,1-.41,1,1.32,1.32,0,0,1-1.91,0,1.26,1.26,0,0,1-.41-1,1.25,1.25,0,0,1,.41-1,1.32,1.32,0,0,1,1.91,0A1.25,1.25,0,0,1,50.74,5.08Zm0,7.32a1.25,1.25,0,0,1-.41,1,1.32,1.32,0,0,1-1.91,0,1.25,1.25,0,0,1-.41-1,1.23,1.23,0,0,1,.41-1,1.32,1.32,0,0,1,1.91,0A1.23,1.23,0,0,1,50.74,12.4Z"/><path class="cls-1" d="M70.16,8.93a12,12,0,0,1-.86,4.94,4.07,4.07,0,0,1-7.52,0,11.87,11.87,0,0,1-.86-4.94A11.82,11.82,0,0,1,61.78,4,4.07,4.07,0,0,1,69.3,4,12.06,12.06,0,0,1,70.16,8.93Zm-1.41,0q0-6.18-3.22-6.18T62.32,8.93q0,6.15,3.21,6.15T68.75,8.93Z"/><path class="cls-1" d="M82.09,8.28a1.59,1.59,0,0,1-.31.82,3,3,0,0,1-2.48,1.58,5,5,0,0,1-2.15-.82A6.42,6.42,0,0,0,75.31,9,1.73,1.73,0,0,0,74,9.86c-.41.55-.73.82-.93.82-.39,0-.59-.21-.59-.64a1.54,1.54,0,0,1,.25-.68,3.92,3.92,0,0,1,1.12-1.1,2.61,2.61,0,0,1,1.44-.55,2.66,2.66,0,0,1,1.27.38A14.93,14.93,0,0,0,79.3,9.38a1.82,1.82,0,0,0,1.29-.83c.43-.55.73-.84.89-.84C81.89,7.71,82.09,7.9,82.09,8.28Z"/><path class="cls-1" d="M90.12,15.59c0,.52-.24.78-.73.78s-.66-.26-.66-.78V3.73a4.33,4.33,0,0,1-2.17.9c-.47,0-.7-.21-.7-.63s.22-.52.66-.62a4.49,4.49,0,0,0,2.27-1.45c.32-.33.53-.5.62-.5a.63.63,0,0,1,.71.72Z"/><path class="cls-1" d="M105.86,11a5.65,5.65,0,0,1-1.23,3.75,4.33,4.33,0,0,1-3.54,1.58A4.25,4.25,0,0,1,98,15.12a3,3,0,0,1-1.12-1.86.63.63,0,0,1,.71-.72c.24,0,.45.17.6.51a3.16,3.16,0,0,0,5.41.76,4.55,4.55,0,0,0,.82-2.79,4.29,4.29,0,0,0-.64-2.41A2.38,2.38,0,0,0,101.7,7.5a3.76,3.76,0,0,0-2.93,1.33c-.16.18-.31.37-.47.56a.9.9,0,0,1-.59.38c-.4,0-.6-.32-.6-.94V2.41c0-.45.21-.67.64-.67h6.86c.55,0,.82.22.82.67s-.27.66-.82.66H99c-.35,0-.52.16-.52.48v4a3.93,3.93,0,0,1,3.18-1.39,3.75,3.75,0,0,1,3.12,1.47A5.38,5.38,0,0,1,105.86,11Z"/><path class="cls-1" d="M118.63,2.29a2,2,0,0,1-.43.54,18,18,0,0,0-3.67,5.39,22.58,22.58,0,0,0-.86,7.15c0,.7-.22,1.06-.66,1.06s-.69-.36-.69-1.06a25.9,25.9,0,0,1,.71-7,17.29,17.29,0,0,1,3.18-5.33h-6.44q-1,0-1-.69c0-.43.34-.64,1-.64h8C118.34,1.74,118.63,1.92,118.63,2.29Z"/><path class="cls-1" d="M130.64,8.93a12,12,0,0,1-.85,4.94,4.07,4.07,0,0,1-7.52,0,11.87,11.87,0,0,1-.86-4.94A11.82,11.82,0,0,1,122.27,4,3.87,3.87,0,0,1,126,1.46,3.91,3.91,0,0,1,129.79,4,12.07,12.07,0,0,1,130.64,8.93Zm-1.4,0c0-4.12-1.08-6.18-3.22-6.18s-3.21,2.06-3.21,6.18,1.07,6.15,3.21,6.15S129.24,13,129.24,8.93Z"/><path class="cls-1" d="M146.86,15.51c0,.57-.24.86-.71.86s-.72-.29-.72-.86V9.2A1.55,1.55,0,0,0,144.82,8a2,2,0,0,0-1.34-.53A2.69,2.69,0,0,0,141.7,8a2.12,2.12,0,0,0-1,1.46v6c0,.57-.24.86-.72.86s-.68-.29-.68-.86v-6a1.94,1.94,0,0,0-.73-1.38,2.15,2.15,0,0,0-1.46-.67,2.54,2.54,0,0,0-1.86.78,2.45,2.45,0,0,0-.88,1.55v5.76c0,.57-.22.86-.68.86s-.74-.29-.74-.86V6.86c0-.58.23-.86.7-.86a.66.66,0,0,1,.69.56,8.84,8.84,0,0,1,0,1,3.22,3.22,0,0,1,4.42-1.1A2.87,2.87,0,0,1,140,7.71,4,4,0,0,1,143.48,6a3.41,3.41,0,0,1,2.34.93,3,3,0,0,1,1,2.27Z"/></g></g></svg>