<svg xmlns="http://www.w3.org/2000/svg" viewBox="0 0 250 146"><defs><style>.cls-1{fill:#c1bd31;opacity:0.8;}.cls-2{fill:#fff;}</style></defs><title>food_detail</title><g id="圖層_2" data-name="圖層 2"><g id="food_detail"><path class="cls-1" d="M215,0H35A35.1,35.1,0,0,0,0,35V88a35.1,35.1,0,0,0,35,35h72.39A95,95,0,0,0,125,146a95,95,0,0,0,17.61-23H215a35.1,35.1,0,0,0,35-35V35A35.1,35.1,0,0,0,215,0Z"/><path class="cls-2" d="M41.44,86.42A6.23,6.23,0,0,1,39.67,89L39,88.56a5.47,5.47,0,0,0,1.73-2.36Zm-.95-.72V81.44a10.24,10.24,0,0,1-.88.68,3.78,3.78,0,0,0-.6-.6,11,11,0,0,0,3.52-3.76l1.06.18c0,.1-.1.17-.27.17L43,78.6H45.9l.13,0,.64.4a.26.26,0,0,1-.16.1,10,10,0,0,1-1,1.54h3.25v5.1Zm3.61-4.41H41.27v1.52H44.1Zm-2.83,2.18V85H44.1V83.47Zm3.21-2.87a8,8,0,0,0,.94-1.32h-2.9a14.49,14.49,0,0,1-1.13,1.32Zm-1.54,8.22a14.86,14.86,0,0,0-.25-2.31l.77-.06a13.94,13.94,0,0,1,.31,2.26Zm5-6V81.29h-3v1.52Zm0,2.19V83.47h-3V85ZM46,88.82a12,12,0,0,0-.83-2.3l.74-.15a12.24,12.24,0,0,1,.87,2.25Zm3.41.14a11.63,11.63,0,0,0-1.85-2.53l.72-.31a11.53,11.53,0,0,1,1.9,2.47Z"/><path class="cls-2" d="M54.65,83.31V81.42a7,7,0,0,1-1.9,1.88,3.5,3.5,0,0,0-.48-.54,6.46,6.46,0,0,0,2.11-2H52.45v-.68h2.2V77.82l1,.06c0,.07-.07.13-.23.15v2h2.19v.68H55.37v.16c.49.29,1.91,1.21,2.25,1.48l-.45.59c-.33-.3-1.19-1-1.8-1.39v1.71Zm.7,2.09a5.77,5.77,0,0,1-.08.58c.74.52,1.64,1.22,2.13,1.65l-.54.55A18.25,18.25,0,0,0,55,86.68a4.36,4.36,0,0,1-2.32,2,3,3,0,0,0-.44-.61c1.76-.79,2.22-1.79,2.33-2.72H52.43v-.72h2.2V83.57l1,.06c0,.09-.07.15-.23.17v.88H57.6v.72ZM53.3,78.19A4.92,4.92,0,0,1,54,79.58l-.61.26a5.42,5.42,0,0,0-.71-1.43ZM56,79.63a9.26,9.26,0,0,0,.72-1.49l.83.31c0,.08-.12.1-.24.1a10.51,10.51,0,0,1-.77,1.32Zm4,7.7a.3.3,0,0,1-.22.09A7.42,7.42,0,0,1,57.34,89a3.07,3.07,0,0,0-.54-.54,7.1,7.1,0,0,0,2.39-1.5Zm-1.91-7h1.63c.11-.39.22-.84.3-1.24H57.64v-.72h5.82v.72H60.82c-.09.36-.22.83-.36,1.24H63v6.31h-5Zm4.2,1.89V81H58.8v1.24Zm0,1.87V82.87H58.8v1.24Zm0,1.9V84.74H58.8V86Zm-.67,1a14.55,14.55,0,0,1,2.09,1.55l-.63.44A14,14,0,0,0,61,87.38Z"/><path class="cls-2" d="M90,86.28A4.56,4.56,0,0,1,89,89l-.55-.35a4,4,0,0,0,.89-2.46Zm-.69-.74V81.79l-.19.25a2.5,2.5,0,0,0-.58-.46,10.27,10.27,0,0,0,1.76-3.77l.92.1c0,.1-.09.15-.22.16-.07.26-.16.54-.25.83h1.63l.12,0,.55.35a.23.23,0,0,1-.17.08A12.58,12.58,0,0,1,92,80.88h1.5v4.66Zm2-4.66a12.46,12.46,0,0,0,.63-1.32H90.45a12.93,12.93,0,0,1-.62,1.32Zm-1.37,2h1.13V81.56H89.92Zm1.13.65H89.92v1.34h1.13ZM91,86.17a9.8,9.8,0,0,1,.21,2.21c-.09,0-.17,0-.6.09a11,11,0,0,0-.16-2.23Zm1.12,2a7.94,7.94,0,0,0-.52-2l.53-.11a8.79,8.79,0,0,1,.55,2Zm.74-5.32V81.56H91.66v1.32Zm0,2V83.53H91.66v1.34Zm.46,1A7.69,7.69,0,0,1,94,87.47l-.56.22a7.44,7.44,0,0,0-.66-1.6Zm3.87,1.73c0,.35,0,.39.37.39h1.1c.3,0,.34-.22.38-1.64a2.23,2.23,0,0,0,.68.32c-.06,1.61-.26,2-1,2H97.44c-.83,0-1-.22-1-1.11V84.55A9.2,9.2,0,0,1,94,89a2.87,2.87,0,0,0-.61-.53A9.56,9.56,0,0,0,96,81.81H93.8v-.75h2.25c0-.26,0-.5,0-.74V77.79l1,.06c0,.09-.07.15-.22.17v2.32c0,.24,0,.48,0,.72h2.86v.75H96.79c0,.23,0,.46-.05.69l.65,0c0,.07-.07.13-.23.16Zm.75-9.49a7.38,7.38,0,0,1,1.48,2l-.66.36a7.75,7.75,0,0,0-1.44-2Z"/><path class="cls-2" d="M104.37,86.42A6.25,6.25,0,0,1,102.59,89l-.71-.42a5.47,5.47,0,0,0,1.73-2.36Zm-1-.72V81.44c-.28.23-.58.47-.89.68a3.41,3.41,0,0,0-.6-.6,11,11,0,0,0,3.53-3.76l1.05.18c0,.1-.09.17-.26.17l-.31.49h2.89l.13,0,.63.4a.24.24,0,0,1-.15.1,10.15,10.15,0,0,1-1.06,1.54h3.25v5.1ZM107,81.29H104.2v1.52H107Zm-2.83,2.18V85H107V83.47Zm3.2-2.87a8.08,8.08,0,0,0,.95-1.32h-2.91a14.31,14.31,0,0,1-1.12,1.32Zm-1.54,8.22a13.73,13.73,0,0,0-.25-2.31l.77-.06a12.91,12.91,0,0,1,.31,2.26Zm5-6V81.29h-3v1.52Zm0,2.19V83.47h-3V85Zm-1.93,3.82a12.12,12.12,0,0,0-.84-2.3l.74-.15a13.11,13.11,0,0,1,.88,2.25Zm3.41.14a12,12,0,0,0-1.85-2.53l.72-.31a11.15,11.15,0,0,1,1.89,2.47Z"/><path class="cls-2" d="M146.28,86.58v.69H141.2V89h-.83V87.27h-5v-.69h5v-.8H136.9v-3.4h7.85v3.4H141.2v.8Zm0-5.61v.69H135.37V81h3.19a7.27,7.27,0,0,0-.56-1.26l.42-.13H136.1v-.67h4.27V77.79l1.07.08c0,.08-.07.14-.24.16v.88h4.35v.67H143.3l.58.22c0,.07-.1.09-.23.09-.16.3-.42.73-.65,1.08Zm-8.56,2v.83h6.23V83Zm0,1.39v.84h6.23v-.84ZM142.53,81l-.26-.11a10.91,10.91,0,0,0,.64-1.28h-4.16a4.64,4.64,0,0,1,.59,1.31l-.24.08Z"/><path class="cls-2" d="M151.08,86.42A6.25,6.25,0,0,1,149.3,89l-.71-.42a5.47,5.47,0,0,0,1.73-2.36Zm-1-.72V81.44c-.28.23-.58.47-.89.68a3.41,3.41,0,0,0-.6-.6,11,11,0,0,0,3.53-3.76l1.05.18c0,.1-.09.17-.26.17l-.31.49h2.89l.13,0,.64.4a.29.29,0,0,1-.16.1,10.15,10.15,0,0,1-1.06,1.54h3.25v5.1Zm3.61-4.41h-2.83v1.52h2.83Zm-2.83,2.18V85h2.83V83.47Zm3.2-2.87a8.08,8.08,0,0,0,.95-1.32h-2.9A16.27,16.27,0,0,1,151,80.6Zm-1.53,8.22a13.83,13.83,0,0,0-.26-2.31l.77-.06a12.91,12.91,0,0,1,.31,2.26Zm5-6V81.29h-3v1.52Zm0,2.19V83.47h-3V85Zm-1.93,3.82a12.12,12.12,0,0,0-.84-2.3l.74-.15a12.33,12.33,0,0,1,.88,2.25ZM159,89a12,12,0,0,0-1.85-2.53l.72-.31a11.15,11.15,0,0,1,1.89,2.47Z"/><path class="cls-2" d="M188.79,79.21a5.91,5.91,0,0,1,1.74.69l-.42.58a5.65,5.65,0,0,0-1.72-.74Zm2.1,8.27A3.44,3.44,0,0,1,189,89l-.61-.5a3.19,3.19,0,0,0,1.81-1.28Zm.57-4.7a3.54,3.54,0,0,0-.5-.6c2.62-.18,5.46-.62,6.34-2l.94.24c0,.08-.12.12-.26.14-.84,1.18-3,1.76-5.18,2l-.25.28h2.72l.12,0,.52.36a.19.19,0,0,1-.16.07,9.9,9.9,0,0,1-.86.84h2.86V87h-7.48V84.79c-.37.22-.77.45-1.19.66a2.06,2.06,0,0,0-.54-.52,10,10,0,0,0,3.16-2.17Zm-2.67-.24c.57-.46,1.45-1.28,2.29-2.07l.29.56c-.69.72-1.43,1.47-1.92,1.92a.23.23,0,0,1-.06.24Zm.87-4.75a6.7,6.7,0,0,1,1.74.83l-.45.55a6.43,6.43,0,0,0-1.74-.87ZM191,84.65v.68h2.51v-.68Zm0,1.17v.68h2.51v-.68Zm1-2.35c-.26.22-.52.45-.82.68H194a5.36,5.36,0,0,0,.75-.68Zm2.32-4.62c0,.07-.12.11-.25.11A6.68,6.68,0,0,1,192.33,81a4,4,0,0,0-.57-.42,5.78,5.78,0,0,0,1.66-2Zm-2,10a6.6,6.6,0,0,0-.35-1.47l.73-.1a6,6,0,0,1,.38,1.45Zm3.78-11c0,.1-.08.15-.23.16v2.47c0,.79-.34.84-2,.84a2.1,2.1,0,0,0-.25-.67h.79c.59,0,.64,0,.64-.18V77.79Zm-.88,11a7.65,7.65,0,0,0-.94-1.44l.69-.23a8.21,8.21,0,0,1,1,1.39ZM197,85.33v-.68h-2.65v.68Zm0,1.17v-.68h-2.65v.68ZM198.75,89a12.55,12.55,0,0,0-2-1.43l.69-.38a11.21,11.21,0,0,1,2,1.39Zm-1.3-10.46a8.89,8.89,0,0,1,2,2l-.64.4a9.71,9.71,0,0,0-2-2Z"/><path class="cls-2" d="M204.19,86.42A6.25,6.25,0,0,1,202.41,89l-.7-.42a5.54,5.54,0,0,0,1.72-2.36Zm-.95-.72V81.44c-.28.23-.58.47-.89.68a3.1,3.1,0,0,0-.6-.6,11,11,0,0,0,3.53-3.76l1.05.18c0,.1-.09.17-.26.17l-.31.49h2.89l.13,0,.64.4a.29.29,0,0,1-.16.1,10.82,10.82,0,0,1-1,1.54h3.25v5.1Zm3.61-4.41H204v1.52h2.83ZM204,83.47V85h2.83V83.47Zm3.2-2.87a7.52,7.52,0,0,0,.95-1.32h-2.9a16.27,16.27,0,0,1-1.13,1.32Zm-1.53,8.22a14.86,14.86,0,0,0-.25-2.31l.76-.06a12.91,12.91,0,0,1,.31,2.26Zm5-6V81.29h-3v1.52Zm0,2.19V83.47h-3V85Zm-1.93,3.82a12.12,12.12,0,0,0-.84-2.3l.75-.15a12.24,12.24,0,0,1,.87,2.25Zm3.41.14a12,12,0,0,0-1.85-2.53l.72-.31a11.53,11.53,0,0,1,1.9,2.47Z"/><path class="cls-2" d="M68.58,38.79c-6.09-8.3-11.5.5-11.5.5,5.85,8.71,10.37,2.51,11.55.54,2.35,4.8,3-.55,3-.55C71,34,69.18,37.43,68.58,38.79ZM60,39.52a1,1,0,1,1,.74-.94A.86.86,0,0,1,60,39.52Z"/><path class="cls-2" d="M65.46,62.42c-9.73-13.26-18.38.79-18.38.79,9.35,13.93,16.58,4,18.47.88,3.76,7.66,4.79-.89,4.79-.89C69.27,54.8,66.43,60.24,65.46,62.42ZM52.37,63.94A1.86,1.86,0,0,1,50.76,63l-.07-.13s0-.07,0-.11a1.55,1.55,0,0,1-.08-.23.29.29,0,0,0,0-.09,2,2,0,0,1,0-.35,1.87,1.87,0,0,1,0-.34.29.29,0,0,0,0-.09,1.55,1.55,0,0,1,.08-.23s0-.08,0-.11l.07-.13a1.85,1.85,0,1,1,1.61,2.76Z"/><path class="cls-2" d="M32.14,47.36s.82,6.83,3.83.71c1.51,2.51,7.29,10.43,14.77-.7,0,0-6.92-11.25-14.7-.64C35.26,45,33,40.63,32.14,47.36Zm13.63-.9A1.27,1.27,0,1,1,47,47.73,1.27,1.27,0,0,1,45.77,46.46Z"/><path class="cls-2" d="M102.07,72.55c1.36,0,2.53-2,4.43-3.2s-.63-2-3.79-1.74-5.52-.15-5.88.39,1.54,2.25,2.35,2.6S100.63,72.5,102.07,72.55Z"/><path class="cls-2" d="M98.61,50.5c-.79.3-3.31,4.4-3,9.19s2.11,7.24,6.42,7,6.57-.53,6.41-8.08-1.37-8.05-2-8.1-1.58.9-2.47.8-1.07-.45-1.64-.45-1.3.55-2,.5A4,4,0,0,1,98.61,50.5Z"/><path class="cls-2" d="M100.18,46c0,.29-.33.53-.73.53s-.72-.24-.72-.53.32-.54.72-.54S100.18,45.65,100.18,46Z"/><path class="cls-2" d="M105.69,46c0,.29-.33.53-.73.53s-.72-.24-.72-.53.32-.54.72-.54S105.69,45.65,105.69,46Z"/><path class="cls-2" d="M112.58,43.05c.27-1.55,1.83-3.2,1.83-4.6s-.68-4.44-5.15-5.19-5.63,1.8-5.83,3c-.15.82-.36,2.93-.47,4.07-.69-1.41-1.44-3.24-1.19-4.3.41-1.74-.12-1.54-.27-1.38a9,9,0,0,0-.54,2.9c.06.25.21.79.38,1.37h0a18.83,18.83,0,0,1-1.16-4.36c-.18-1.94-4.32-1.27-5.42-.88s-9,2.34-5.25,5.73,7,6.6,6,8.06-4.68,3-4.14,3.6,2.76.64,4.14-.82,2-3.11,1.28-4.24S93.58,41.22,92,40s-2.25-2.13-1.53-2.93,4.52-2.65,6.14-2.59,2.53.06,2.89,1.32.77,3.28.49,3.86A4.31,4.31,0,0,1,99,37.46a8.28,8.28,0,0,0-.08-2.18,2.89,2.89,0,0,0-.92,2,7.46,7.46,0,0,0,1.81,4c.82.7,1.14,1.67.7,1.49S98.83,41,98.48,41s-2.44-.93-2.56-1.53-1.06-2.09-1.14-1.67a4.84,4.84,0,0,0,3,4.46c2.9,1.26,2.62,1.6,2.74,2.27s1.23,1.41.23,2.3-2.11,1.65-2,1.95.38.92,1,.84c.9-.11,1.28-.28,2.42-.35a5.42,5.42,0,0,1,2.21.55c.19,0,2.84-.19,1.34-1.36s-2.35-1.41-2.26-2.51.85-2.91,2.06-3.44,6-4.35,4.33-6.17-.59-.09-.58.26a2.12,2.12,0,0,1-.58,2,25.57,25.57,0,0,0-2.81,2.07,36.58,36.58,0,0,0,1.55-3.53c.28-1-.67-1.8-.54-1.2s-2,2.79-2,2.54a11.33,11.33,0,0,1,.37-3.59c.4-.7,3.38-.9,4.92-.36s1.78,1.66,2.6,3-.82,3.8-1,4.21-.61,2.74-1.08,4.82.74,3.81,1.42,3.71.81-1.55.54-2.5A12.89,12.89,0,0,1,112.58,43.05Z"/><path class="cls-2" d="M143.18,51.81a1.6,1.6,0,0,1,0,2.06,1.16,1.16,0,0,1-1.8,0,1.6,1.6,0,0,1,0-2.06A1.16,1.16,0,0,1,143.18,51.81Z"/><path class="cls-2" d="M160.68,64.05a5,5,0,0,1-1.8,1.49c-1,.46,4.54,1.78,5.94.69s.53-1.55-.46-1.49A18.69,18.69,0,0,1,160.68,64.05Z"/><path class="cls-2" d="M166.61,56.39c-1.67-2-3.56-1.23-5.38.4s-4.44,2.62-5.66.6,1.78-2.16,5.3-5.07,1.73-8.22.8-12.24-3-5.23-9.92-5.57-7.58,4.57-8.81,7.93.37,4.61.77,5.83,2.37,5.12-.22,8.26-5.43.76-7-.69c-2.55-2.41-1.38-5.23-.49-6.69s0-2.69-1.25-2.44-2.33,2.76-2.68,5.3,1.86,6.14,5,8.25a7.1,7.1,0,0,0,1,.57,8.68,8.68,0,0,1-4.75,1.76c-3.07.08-5.27.54-4.57,1.29a5.83,5.83,0,0,0,5,1.06c1.58-.51,6.52-.93,8.14-1.71-.51,1-1.14,1.82-2,1.63-1.78-.41-3.42,1.08-4.52,2.21a1.14,1.14,0,0,0,.66,2c.39-.16.91-1.71,2.61-1.77s1.83,1.53,3.28,1.56,2.45-1.88,3.39-5.08a4,4,0,0,1,1.18-1.9c1.7-.3,2.63,2.27,2.75,3.07a14.36,14.36,0,0,0,1.52,3.67c.36.41,1,2.31,2.4,2.52a3.86,3.86,0,0,0,3.59-1.91c.3-.92-.3-.94-1.4-.65A2.68,2.68,0,0,1,151.88,67c-.76-1.89-1.53-4.21-.39-4.78a1.73,1.73,0,0,1,.87-.16c1.24,1.38,2.55,3.17,3.47,3.36,1.53.31,4.5-3.71,4.86-4.82s3-3.25,4.12-2.89,1.43,3.37,2.13,2.77S168.27,58.37,166.61,56.39Zm-23.39,4.45v0l.05,0Zm7.28-6.38a1.1,1.1,0,0,1-1.73.18,1.65,1.65,0,0,1-.16-2,1.09,1.09,0,0,1,1.72-.18A1.67,1.67,0,0,1,150.5,54.46Zm10.9-5.78a4.89,4.89,0,0,1-2,2.7c-.59.2-1-.45,0-1s.33-1.59.81-2.25C160.21,48.1,161.4,47.93,161.4,48.68Zm-8.59-11.17s.09-.91,1.92-1.08,4.33,2.67,5.08,3.25.25,3.17,0,4.17-.25-.84-1.06-3S154.15,37.68,152.81,37.51Z"/><path class="cls-2" d="M224.82,45s0,0,0,0c-.82.77-9.41,8.78-10.57,8.78a17,17,0,0,1-3.22-1s0,0,0,0V51h-4.31c-3.33-1.48-6.52-3.13-6.72-3.89-.38-1.46-.16-7.45-.14-8,0,0,0,0,0,0a56.9,56.9,0,0,0-6,8h0c-.1,0-12.42,4.3-16,8.72-.17.21.11.89.36,1a27.1,27.1,0,0,0,4.43.65.44.44,0,0,1-.08.86l-3.6.5s0,0,0,0c.75.42,10.33,5.69,14.21,4.59h0l6.19,3.27h4s0,0,0,0l-2.77-2.82a0,0,0,0,1,0,0c.26-.09,2.26-.79,4.66-1.68h0l2.81.37V61s0,0,0,0a50.06,50.06,0,0,0,6.08-2.62c2.15-1.34,4.57,6.73,5.65,6.92s0-8.16,0-8.26h0ZM185.64,56a1.13,1.13,0,1,1,1.13-1.13A1.13,1.13,0,0,1,185.64,56Zm5.67,3.3a5.81,5.81,0,0,1-2.33,1s1.91-1.33,1.91-2.25-1.58-2-1.58-2l1.67.71C192.64,57.36,191.81,58.66,191.31,59.25Zm4.08,0c-.5,1-3.41,1.82-2.91,1.57a5.48,5.48,0,0,0,2.25-2.73c.16-1.06-2.77-2.52-2.77-2.52a26.73,26.73,0,0,1,3.43,1.34C195.81,57.24,195.89,58.24,195.39,59.25Z"/></g></g></svg>