<svg xmlns="http://www.w3.org/2000/svg" viewBox="0 0 250 146"><defs><style>.cls-1{fill:#c1bd31;opacity:0.8;}.cls-2{fill:#fff;}</style></defs><title>height_detail</title><g id="圖層_2" data-name="圖層 2"><g id="height_detail"><path class="cls-1" d="M215,0H35A35.1,35.1,0,0,0,0,35V88a35.1,35.1,0,0,0,35,35h72.39A95,95,0,0,0,125,146a95,95,0,0,0,17.61-23H215a35.1,35.1,0,0,0,35-35V35A35.1,35.1,0,0,0,215,0Z"/><path class="cls-2" d="M120.85,102.93v-6h0l-1.1.64-.18-.56,1.39-.79h.64v6.75Z"/><path class="cls-2" d="M128.67,96.18v.63h-2.42l-.28,1.9c.15,0,.29,0,.52,0a2.07,2.07,0,0,1,2.27,2.07,2.24,2.24,0,0,1-2.32,2.29,3,3,0,0,1-1.55-.4l.22-.59a2.39,2.39,0,0,0,1.33.38,1.53,1.53,0,0,0,1.57-1.59c0-.93-.6-1.58-1.86-1.58a4.79,4.79,0,0,0-.86.07l.42-3.15Z"/><path class="cls-2" d="M130.82,99.58c0-2.36.92-3.5,2.18-3.5s2.06,1.2,2.06,3.41-.82,3.55-2.16,3.55S130.82,101.83,130.82,99.58Zm3.49-.06c0-1.68-.41-2.84-1.35-2.84s-1.37,1.07-1.37,2.84.49,2.9,1.34,2.9C133.93,102.42,134.31,101.13,134.31,99.52Z"/><line class="cls-2" x1="84.5" y1="85" x2="84.5" y2="97"/><path class="cls-2" d="M83.75,85V97a.75.75,0,0,0,1.5,0V85a.75.75,0,0,0-1.5,0Z"/><line class="cls-2" x1="167.5" y1="85" x2="167.5" y2="97"/><path class="cls-2" d="M166.75,85V97a.75.75,0,0,0,1.5,0V85a.75.75,0,0,0-1.5,0Z"/><line class="cls-2" x1="53" y1="91" x2="199" y2="91"/><path class="cls-2" d="M53,91.75H199a.75.75,0,0,0,0-1.5H53a.75.75,0,0,0,0,1.5Z"/><path class="cls-2" d="M217.46,93.15a3.86,3.86,0,0,1-1.63.34A2.79,2.79,0,0,1,213,90.43a3,3,0,0,1,3.07-3.2,3.31,3.31,0,0,1,1.44.32l-.23.73A2.46,2.46,0,0,0,216,88a2.15,2.15,0,0,0-2.11,2.4A2.11,2.11,0,0,0,216,92.74a2.92,2.92,0,0,0,1.3-.3Z"/><path class="cls-2" d="M228.14,93.37h-.9V89.9c0-1.16-.42-1.91-1.32-1.91a1.52,1.52,0,0,0-1.41,1.6v3.78h-.9v-3.7c0-1-.41-1.68-1.26-1.68a1.63,1.63,0,0,0-1.47,1.7v3.68H220V88.91c0-.61,0-1,0-1.55h.81l0,1h0a2,2,0,0,1,1.82-1.1,1.71,1.71,0,0,1,1.64,1.2h0a2.1,2.1,0,0,1,1.93-1.2c.74,0,1.9.47,1.9,2.53Z"/><circle class="cls-2" cx="31" cy="91" r="2"/><path class="cls-2" d="M167.59,74.72c-.07-.38-2.32-10.7-2.52-12.82s-1.87-2.64-3.48-3.68a7.51,7.51,0,0,1-2.71-4.64c-.12-1.09-1.22-1-3.86-1.22s-3.93-1.16-6.64-3.36A19.46,19.46,0,0,1,144,43.57h0c-.1-.74-.18-1.54-.23-2.36-.14-2.61-1.06-8.7-2.17-10.93a21,21,0,0,0-6.48-7.78,25.29,25.29,0,0,0-11.65-4.35,33.91,33.91,0,0,0-12.33.34c-3.53.77-6.19,2.61-8.94,4.74a22.38,22.38,0,0,0-4.62,5.85c0,.09-.1.17-.14.26a.16.16,0,0,0,0,.07l-.12.2,0,.05c-.09.17-.19.33-.27.49h0l-.12.22h0c-.2.38-.36.68-.46.89h0l0,.1v0a.59.59,0,0,0,0,.08A5.05,5.05,0,0,1,94.37,34c-.87.38-3.19.72-4.55,1.2a18.9,18.9,0,0,0-4.59,2.9,7.24,7.24,0,0,0-2.9,5,14.42,14.42,0,0,0,0,5.85,6.15,6.15,0,0,0,1.47,2.34,7.06,7.06,0,0,0,0,3,9.12,9.12,0,0,1,.45,2.65c.06.77.6,1.58,1,1.54s.63.32.63.86.42.75.55,1l0-.09c.1,1,.28,2.9.42,4,.19,1.6.53,3.1.62,4a3.44,3.44,0,0,0,1.21,2.41,11.51,11.51,0,0,0,6.19,2,6.12,6.12,0,0,0,4.45-1.65,27,27,0,0,0,4.3-4.69,60.16,60.16,0,0,1,4.2-4.53A28.33,28.33,0,0,0,110.17,59l-.31.25A14.5,14.5,0,0,1,111.48,58a13.92,13.92,0,0,0,5-3.72c1.79-2.17,2.79-3.05,2.88-6.13a.19.19,0,0,1,0,.08s3.07.34,4.91.44l5.27.29c.39,0,1.16,0,2,0l1,.52a40.33,40.33,0,0,1,1.25,4,10.29,10.29,0,0,0,1.94,4.11c.87,1.16,1.4,1.93,1,3.53s-1.21,4.15-1.16,5.46.15,2.27.15,2.27,0-.07,0-.19c-.28.18-.48.3-.56.37-.84.64-1.16,1.09-.46,1.54s1.87.78,2.25,1.68,2.4,1,3.56.84a3.63,3.63,0,0,1,2.19.58s3.61-1.1,2.9-.65-.26,1.1.32,1.68,3.42-.13,4.77-.64a7.7,7.7,0,0,0,2.71-1.36c.83-.71,1.48-1.61,1.74-1.61s.45,1.1.65,2.51.06,1.87,1,1.23,1.23.19.58.71-.9.77-.06,1a18.54,18.54,0,0,0,5-.33c.83-.26.45.39,1.93.32s2.77-.51,2.9-1.09S167.65,75.11,167.59,74.72ZM109.47,59.53l-.3.25Zm-23,.88,0,.09Zm21.09.87-.37.38Zm.11-.11.26-.25Zm1.46-1.35-.36.32Zm-.4.36-.31.28Zm-.43.38-.24.24Zm1.24-1.09.28-.23Zm53.33,4.74-.07,0Zm-.22,0h0Zm-7.75-1.68.22.09ZM145,47.14l0-.08Zm-.11-.24a.36.36,0,0,0,0-.09A.36.36,0,0,1,144.85,46.9Zm-.11-.26,0-.09Zm-.13-.36,0-.1Zm-.09-.3a.65.65,0,0,1,0-.13A.65.65,0,0,0,144.52,46Zm-.09-.31a.83.83,0,0,1,0-.15A.83.83,0,0,0,144.43,45.67Zm15.25,18,.58.1Zm-4.57-1.06.16.06Zm.16.06a37.66,37.66,0,0,0,4.41,1A37.66,37.66,0,0,1,155.27,62.63Zm-10.9-17.18c-.14-.56-.27-1.2-.37-1.88C144,43.59,144.15,44.31,144.37,45.45Zm-25,2.08v0Zm0-.44v0Zm0,.71v0Zm43,16.31h0Zm-2.08-.37.26,0Zm.3,0,.25,0Zm1,.19h0Zm.26,0h0Zm.24,0h0Zm.85.16.18,0Z"/></g></g></svg>