<svg xmlns="http://www.w3.org/2000/svg" viewBox="0 0 709.98 646.96"><defs><style>.cls-1{fill:#d2a475;}.cls-2{fill:#e5cda8;}.cls-3{fill:#9d9476;}.cls-4{fill:#696357;}.cls-5{fill:#70695d;opacity:0.7;}</style></defs><title>04_bg</title><g id="圖層_2" data-name="圖層 2"><g id="_04_bg" data-name="04_bg"><polygon class="cls-1" points="0.34 10.55 36.97 55.16 55.07 32.88 73.16 55.23 103.15 55.23 103.15 40.79 124.31 32.81 138.41 18.37 146.47 0 165.5 10.5 193.57 19.68 193.57 27.66 203.6 44.62 211.66 45.93 211.66 64.41 218.86 64.41 236.9 114.29 251.01 114.29 257.99 139.21 282.1 178.52 303.19 253.3 357.44 339.89 434.78 488.31 549.57 646.96 0.4 646.94 0.34 10.55"/><polygon class="cls-2" points="171.2 49.92 177.93 65.82 181.42 76.42 174.49 96.67 171.47 126.25 184.86 103.5 184.86 86.87 194.91 96.5 209.65 126.25 209.65 164.75 218.35 183.12 226.39 172.62 252.85 275 254.52 296.88 360.42 343.36 303.19 251.03 282.1 176.26 257.99 136.95 251.01 112.03 236.9 112.03 218.86 62.15 211.66 62.15 211.66 43.67 203.6 42.36 193.57 25.4 193.57 17.42 187.21 39.18 171.2 49.92"/><path class="cls-3" d="M252.85,277.26,226.39,174.88l-8,10.5L209.65,167v-38.5L194.91,98.76l-10-9.63v16.63l-13.39,22.75-6.7-24.5L152,67.26l6.15-23.63,7.38-4,5.56,12.52,16.05-10.74,6.37-21.76-9.7,14.76-13.46-3.12-15-7.83L146.47,0l-8.06,18.37-14.1,14.44-21.16,8V55.23L91.52,70.05,80,76,69.88,100.51,38.41,131.58l9.48,17.93,15.49,13.08,64.05,64.8,104.26,69.09,22.83,2.66Zm-84.46-74-13-13.12-31.16-7.4-5.6-11.64,1.51-18.93-13.07-19.13-9-5.26L110.11,95l8-2.63,26.62,17.07,16.58,20.34,2.51,35.45,12.06,8.53,35.67,69.57Z"/><polygon class="cls-4" points="120.16 152.19 107.09 133.06 98.05 127.81 110.11 94.99 118.14 92.36 144.77 109.43 131.11 85.06 129.6 65.51 138.41 18.37 128.94 38.38 124.31 32.81 127.28 60 119.65 41.94 115.63 52.28 118.55 61.13 110.11 70.32 107.84 85.63 108.86 89.85 98.46 93.6 93.44 78.5 69.88 100.51 38.41 131.58 47.89 149.51 51.91 145.88 58.58 155.59 65.31 145.88 60.28 142.95 88.62 135.09 94.14 139.03 106.2 141.99 95.15 152.19 93.44 177.41 100.13 168.32 104.15 177.59 112.86 182.66 114.87 201.17 118.55 180.57 124.25 182.76 118.65 171.12 120.16 152.19"/><polygon class="cls-2" points="4.02 101.38 28.27 125.15 32.15 119.76 47.89 149.51 51.91 145.88 63.38 162.59 72 154.32 127.43 227.39 148.86 226.95 179.44 242.01 231.69 296.48 216.62 323.59 201.04 299.11 174.92 293.22 162.86 286.01 135.8 286.01 130.2 276.14 95.03 250.44 82.47 256.45 79.46 232.82 69.92 239.38 64.39 226.25 46.26 225.41 44.8 214.04 32.15 209.31 35.86 203.32 16.07 182.66 4.02 101.38"/><polygon class="cls-4" points="4.05 101.38 16.09 182.66 35.87 203.32 32.15 209.31 44.8 214.04 46.26 225.41 64.39 226.25 69.92 239.38 38.41 259.07 15.15 298.45 0.34 308.3 0 109.77 4.05 101.38"/><polygon class="cls-1" points="69.92 239.38 79.46 232.82 75.94 264.32 97.05 286 94.53 297.17 81.05 297.17 82.47 307.67 57.94 307.67 27.21 339.14 0.4 380.75 0 299.14 4.02 290.39 8.04 273.76 22.44 286.11 33.81 266.86 23.19 229.69 43.29 250.44 52.52 250.25 69.92 239.38"/><polygon class="cls-4" points="82.47 307.67 57.94 307.67 27.21 339.14 0.4 380.75 0.38 431.7 14.4 435.2 79.71 354.7 97.05 345.63 102.14 311.83 81.91 335.84 82.47 307.67"/><polygon class="cls-3" points="97.05 345.63 112.53 325.83 131.62 307.67 133.96 314.45 123.58 360.39 133.96 646.96 0.4 646.94 0.38 431.7 14.4 435.2 11.72 404.58 23.44 406.77 31.1 390.5 28.47 380.75 45.88 374.39 30.14 362.58 45.55 363.89 48.52 356.45 56.93 360.39 49.75 350.33 58.61 345.63 72.34 355.14 79.71 354.7 97.05 345.63"/><polygon class="cls-4" points="131.62 307.67 133.96 314.45 123.58 360.39 133.96 646.96 223.04 646.96 216.62 323.59 201.04 299.11 174.92 293.22 162.86 286.01 131.62 307.67"/><polygon class="cls-3" points="55.07 32.88 51.24 72.85 69.88 100.51 38.41 131.58 32.15 119.76 28.27 125.15 4.02 101.38 0 109.77 0.34 10.55 36.97 55.16 55.07 32.88"/><polygon class="cls-3" points="0.34 10.55 19.42 72.84 36.97 55.16 55.07 32.88 30.81 93.6 44.95 125.13 38.41 131.58 32.15 119.76 28.27 125.15 4.02 101.38 0 109.77 0.34 10.55"/><polygon class="cls-5" points="286.95 245.29 254.52 251.76 237.56 270.63 208.05 275.14 178.53 303.45 122.32 299.14 97.05 345.63 30.14 362.58 0.47 345.63 0.14 646.94 445.25 646.96 286.95 245.29"/><polygon class="cls-4" points="268.36 255.79 286.95 245.29 305.64 257.14 343.61 255.79 343.44 275.51 352.78 276.53 355.16 289.92 366.83 301.74 367.48 314.89 380.4 312.24 420.13 390.34 420.13 414.62 429.86 417.27 434.67 425.13 457.89 413.37 470.83 422.5 493.64 494.71 503.48 497.98 520.57 492.07 558.33 519.66 622.62 583.96 709.98 646.96 0.34 646.94 0.34 462.54 29.22 444.8 41.78 415.94 67.17 398.17 80.19 400.24 89.52 384.28 102.14 380.73 133.96 345.63 152.52 334.63 173.31 335.94 203.75 314.95 213.79 313.63 223.04 287.47 248.95 275.58 268.36 255.79"/><polygon class="cls-1" points="274.95 259.07 286.95 245.29 305.64 257.14 343.61 255.79 318.6 275.48 298 280.07 274.95 267.6 274.95 259.07"/><polygon class="cls-1" points="343.55 262.68 322.07 286.01 326.19 297.61 318.6 304.14 301.52 340.24 317.09 348.77 301.55 391.43 313.63 406.53 313.63 424.92 319.61 434.1 345.33 422.98 397 478.07 408.57 481.35 408.57 499.08 431.18 501.93 445.2 539.11 442.32 508.94 434.7 478.74 443.62 461.35 434.7 444.23 420.13 438.95 434.67 425.13 429.86 417.27 420.13 414.62 420.13 390.34 380.4 312.24 367.48 314.89 366.83 301.74 355.16 289.92 352.78 276.53 343.44 275.51 343.55 262.68"/><polygon class="cls-3" points="158.84 335.03 167.38 345.63 177.43 351.62 185.97 345.63 201.54 339.8 210.59 323.48 213.79 313.63 203.75 314.95 173.31 335.94 158.84 335.03"/><polygon class="cls-2" points="367.55 312.63 380.43 309.98 420.13 388.08 420.13 412.36 407.24 379.4 392.98 378.47 369.06 356.38 365.83 336.25 367.55 312.63"/><polygon class="cls-1" points="152.55 334.63 158.91 335.03 167.38 345.63 177.43 351.67 185.97 345.73 201.54 339.8 217.18 351.67 223.04 377.24 254.52 400.9 254.52 419.89 290.13 435.2 301.52 456.67 309.28 484.22 321.27 509.14 309.28 509.14 265.81 459.3 236.83 451.42 223.04 446.13 205.76 427.79 192.7 435.2 180.64 414.62 171.2 395 156.06 377.01 139.46 371.44 120.96 359.96 133.96 345.63 152.55 334.63"/><polygon class="cls-3" points="171.2 394.95 192.7 435.18 205.76 427.78 223.04 446.12 236.79 451.48 265.81 459.3 309.28 509.14 321.33 509.14 321.33 530.16 339.38 551.17 337.35 577.4 352.92 629.46 324.79 594.03 312.66 574.91 304.76 582.76 309.28 595.77 283.61 588.78 274.95 573.02 275.36 555.73 265.53 543.05 258.73 557.31 261.29 572.17 245.61 563.18 237.94 558.77 231.69 539.11 217.31 534.96 213 513.84 199.23 524.46 183.18 515.29 189.89 500.83 189.89 481.8 171.13 481.8 168.75 430.42 160.68 414.62 158.84 400.9 139.46 371.44 156.06 377.01 171.2 394.95"/><polygon class="cls-3" points="345.33 422.98 397 478.07 408.57 481.35 408.57 499.08 431.18 501.93 445.2 539.11 445.25 559.02 425.74 539.11 405.61 539.11 392.98 523.6 378.53 518.35 373.36 491 357.37 473.39 338.63 440.92 319.61 434.1 345.33 422.98"/><polygon class="cls-3" points="318.6 304.14 326.19 297.61 322.07 286.01 306.1 301.76 292.17 308.3 270.04 328.4 274.95 339.61 283.16 339.61 281.09 350.76 265.74 350.76 265.81 361.92 274.95 361.92 274.95 374.39 274.95 387.73 301.55 391.43 317.09 348.77 301.52 340.24 318.6 304.14"/><polygon class="cls-3" points="503.48 497.98 493.66 494.71 470.87 422.5 466.31 454 475.35 463.85 477.88 475.01 473.84 486.16 479.87 506.95 493.64 516.36 511.02 514.39 527.8 530.14 536.51 539.11 549.82 571.27 578.7 563.4 586.07 571.27 586.07 580.9 600.81 591.4 622.62 583.96 558.33 519.66 520.57 492.07 503.48 497.98"/></g></g></svg>