<svg xmlns="http://www.w3.org/2000/svg" viewBox="0 0 230.25 42.99"><defs><style>.cls-1{fill:#f1ecce;}</style></defs><title>anglerfish_name</title><g id="圖層_2" data-name="圖層 2"><g id="anglerfish_name"><path class="cls-1" d="M206.61,2.57c-.86,3.16-2.57,6-3.43,9.16a1.5,1.5,0,0,0,2.89.8c.87-3.16,2.57-6,3.44-9.16a1.51,1.51,0,0,0-2.9-.8Z"/><path class="cls-1" d="M206.55,9.38A22.23,22.23,0,0,1,213,8.28l-1.5-1.5a10.26,10.26,0,0,1-2.23,7.76c-1.31,1.42.81,3.55,2.12,2.13a13.07,13.07,0,0,0,3.11-9.89,1.54,1.54,0,0,0-1.5-1.5,25.33,25.33,0,0,0-7.27,1.2c-1.83.59-1.05,3.48.8,2.9Z"/><path class="cls-1" d="M203.13,17.85V28.39a1.5,1.5,0,0,0,3,0V17.85a1.5,1.5,0,0,0-3,0Z"/><path class="cls-1" d="M205.38,19.53c2.17-1.52,4.79-2.92,7.52-2.77,4.73.25,5.09,5.32,2.3,8.25-1.32,1.4.79,3.53,2.13,2.13,3.37-3.57,4.16-9.58-.63-12.34-4.13-2.38-9.26-.35-12.83,2.14-1.57,1.1-.08,3.7,1.51,2.59Z"/><path class="cls-1" d="M207.31,25c2.43-.7,4.84-1.45,7.25-2.21,1.84-.58,1.05-3.48-.79-2.89-2.41.76-4.83,1.51-7.25,2.21a1.5,1.5,0,0,0,.79,2.89Z"/><path class="cls-1" d="M208.85,18.61a61.14,61.14,0,0,1,.2,8.77c-.06,1.93,2.94,1.93,3,0a61.14,61.14,0,0,0-.2-8.77c-.22-1.89-3.22-1.91-3,0Z"/><path class="cls-1" d="M205.55,30c3.68-.9,7.41-1.64,11.11-2.46,1.89-.42,1.09-3.31-.79-2.89-3.71.82-7.43,1.56-11.12,2.46-1.88.46-1.08,3.35.8,2.89Z"/><path class="cls-1" d="M201.8,31.21c-1.57,2.6-3.28,5.11-5,7.64-1.07,1.61,1.53,3.11,2.59,1.51,1.68-2.52,3.39-5,5-7.63,1-1.66-1.59-3.17-2.59-1.52Z"/><path class="cls-1" d="M206.38,32.35c1.09,1.51,2.35,3.8,1.76,5.71s2.32,2.64,2.89.8c.84-2.69-.49-5.85-2.06-8-1.12-1.55-3.72,0-2.59,1.52Z"/><path class="cls-1" d="M213.63,31.58c1.06,2.05,2.39,4.54,2.47,6.88.07,1.92,3.07,1.93,3,0-.1-2.9-1.57-5.85-2.88-8.39-.88-1.72-3.47-.2-2.59,1.51Z"/><path class="cls-1" d="M222.41,31.2A44.34,44.34,0,0,1,225.59,36c.77,1.39,2,3.4,1.63,5.07-.39,1.89,2.5,2.69,2.89.8.89-4.31-2.71-9-5.11-12.22-1.14-1.54-3.74,0-2.59,1.51Z"/><path class="cls-1" d="M5.33,14.57l5.52.08c1.93,0,1.93-3,0-3l-5.52-.08a1.5,1.5,0,0,0,0,3Z"/><path class="cls-1" d="M1.88,25.68,10.75,24c1.89-.36,1.09-3.25-.8-2.9L1.08,22.79c-1.89.36-1.09,3.25.8,2.89Z"/><path class="cls-1" d="M2.46,35.56C6.14,34,10.38,33.38,13.3,30.42c1.36-1.38-.76-3.5-2.12-2.12C8.54,31,4.3,31.53,1,33c-1.77.75-.25,3.34,1.51,2.59Z"/><path class="cls-1" d="M14.14,7.88c-.08,3.21.07,6.56-.28,9.74h3l.06-.55c.21-1.92-2.79-1.9-3,0l-.06.55c-.21,1.92,2.8,1.9,3,0,.35-3.18.2-6.53.28-9.74,0-1.93-3-1.93-3,0Z"/><path class="cls-1" d="M17.39,9c3.58-.87,7.26-2.18,11-2,5.21.27,5.06,4,4.2,8.06-.39,1.88,2.5,2.69,2.9.8.9-4.31,1.47-9.08-3.35-11.12S21.4,4.89,16.6,6.06c-1.88.45-1.08,3.35.79,2.89Z"/><path class="cls-1" d="M20.55,9.37a73.9,73.9,0,0,0-.09,8.15c.17,1.91,3.17,1.93,3,0a73.9,73.9,0,0,1,.09-8.15c0-1.93-3-1.93-3,0Z"/><path class="cls-1" d="M26.83,9.79c0,2.2.06,4.39.07,6.59a1.5,1.5,0,0,0,3,0c0-2.2,0-4.39-.07-6.59,0-1.92-3-1.93-3,0Z"/><path class="cls-1" d="M17.23,27.36c5.32-1.24,10.75-2.07,16.14-3,1.9-.32,1.09-3.21-.8-2.9-5.39.91-10.82,1.74-16.14,3-1.88.44-1.09,3.33.8,2.9Z"/><path class="cls-1" d="M24.1,20.29C24,26,24,31.56,22.54,37.08l2.51-.66c-2.06-2.54-3.75-6.14-7.66-4.55-3.46,1.4-5.91,5.64-8.3,8.31l2.13,2.12a13.61,13.61,0,0,0,1.47-2,1.5,1.5,0,0,0-2.59-1.52l-1,1.41c-1.23,1.45.82,3.57,2.13,2.12,1.63-1.83,3.09-3.83,4.84-5.56,1.44-1.44,2.38-3,4.71-1.15a21.35,21.35,0,0,1,2.16,2.95,1.5,1.5,0,0,0,2.5-.66C27,32.1,27,26.23,27.1,20.29a1.5,1.5,0,0,0-3,0Z"/><path class="cls-1" d="M26.12,27.93c3.24,2.19,8.32,6.19,7.84,10.54-.21,1.92,2.79,1.9,3,0,.6-5.5-5.24-10.37-9.32-13.13-1.6-1.08-3.11,1.51-1.52,2.59Z"/><path class="cls-1" d="M45.88,15.3,53,15c1.93-.08,1.94-3.08,0-3l-7.13.31c-1.93.08-1.94,3.08,0,3Z"/><path class="cls-1" d="M45.86,21.78l7.22-1.09c1.9-.29,1.09-3.18-.8-2.89l-7.22,1.09c-1.9.28-1.09,3.17.8,2.89Z"/><path class="cls-1" d="M44,33,54.44,26.3c1.62-1,.12-3.63-1.52-2.59L42.47,30.38C40.85,31.41,42.35,34,44,33Z"/><path class="cls-1" d="M57.87,5.59c-1.38,3.58-1.6,8.26,3.42,8.19,4.28,0,8.29-2.48,12.34-3.58a1.5,1.5,0,0,0-.79-2.89c-3,.82-5.88,2.18-8.91,3-.82.22-3,1-3.76.36-1-.79.26-3.41.59-4.27.7-1.8-2.2-2.58-2.89-.8Z"/><path class="cls-1" d="M58.76,17.26c-1.09,5-6.31,19,2.94,18.94,5.41,0,11-1.84,16.17-3.46,1.83-.58,1-3.48-.8-2.89A92.62,92.62,0,0,1,66,32.69c-1.51.28-5.1,1.29-6.27,0s0-5.27.22-6.43c.47-2.76,1.14-5.49,1.73-8.22.41-1.88-2.48-2.69-2.89-.8Z"/><path class="cls-1" d="M61,19c2.12-1.08,5.89-2.68,8.3-2.4C73,17,72.17,21.33,72,24.25c-.11,2.26-.25,4.5-.26,6.76,0,1.5.4,4.33-.32,5.66-1.63,3-3.82.36-5.44-.58a1.5,1.5,0,0,0-1.51,2.59c3.43,2,7.38,5.23,9.56-.22,1.7-4.26.8-10.19,1-14.73.13-3.07.69-8.56-3-10s-9.43.93-12.66,2.58c-1.72.88-.2,3.47,1.51,2.59Z"/><path class="cls-1" d="M65.05,19.9c-.28,3-.14,6-.92,9a1.5,1.5,0,0,0,2.89.79c.85-3.18.73-6.5,1-9.76.18-1.93-2.82-1.91-3,0Z"/><path class="cls-1" d="M55.1,29.06c7.5-1.8,15.18-3,22.8-4.21,1.9-.3,1.09-3.19-.8-2.89-7.62,1.21-15.29,2.4-22.8,4.2-1.88.45-1.08,3.35.8,2.9Z"/><path class="cls-1" d="M88.55,15.27c0,3.94-.25,7.9-.46,11.84C88,29,91,29,91.09,27.11c.21-3.94.44-7.9.46-11.84a1.5,1.5,0,0,0-3,0Z"/><path class="cls-1" d="M90.69,4.42A39.79,39.79,0,0,1,86.9,11c-1.07,1.61,1.52,3.11,2.59,1.51a43.79,43.79,0,0,0,4.1-7.32c.74-1.79-2.17-2.56-2.9-.8Z"/><path class="cls-1" d="M90.91,9.51a20.31,20.31,0,0,1,6.8-1.1l-1.5-1.5c0,1.81-.39,4.21-1.88,5.41s.63,3.32,2.12,2.12c2.09-1.68,2.72-5,2.76-7.53a1.52,1.52,0,0,0-1.5-1.5,22.88,22.88,0,0,0-7.59,1.21,1.5,1.5,0,0,0,.79,2.89Z"/><path class="cls-1" d="M91.69,17c2-.92,6.42-3.41,8.49-1.6,1.92,1.68.49,5.81,0,7.88-.41,1.88,2.48,2.68,2.9.79.76-3.48,2.13-8.39-1.13-11.06s-8.52-.15-11.8,1.4c-1.74.82-.22,3.41,1.51,2.59Z"/><path class="cls-1" d="M92.77,22.75c2.25-.75,4.48-1.57,6.74-2.32,1.82-.61,1-3.51-.8-2.89-2.25.75-4.49,1.56-6.74,2.32-1.82.61-1,3.51.8,2.89Z"/><path class="cls-1" d="M94.36,15.27a25.49,25.49,0,0,1-.65,6.8,1.5,1.5,0,0,0,2.89.79,28.46,28.46,0,0,0,.76-7.59,1.5,1.5,0,0,0-3,0Z"/><path class="cls-1" d="M90.28,28.61a25.57,25.57,0,0,0,11-2.53c1.72-.87.2-3.46-1.52-2.59a22,22,0,0,1-9.46,2.12c-1.93,0-1.93,3,0,3Z"/><path class="cls-1" d="M90.38,27.74c-2.28,4.36-4.43,8.79-7,13L86,42.26l.7-1.16a1.5,1.5,0,0,0-2.59-1.51l-.7,1.16A1.5,1.5,0,0,0,86,42.26c2.54-4.22,4.69-8.64,7-13,.89-1.71-1.69-3.23-2.59-1.52Z"/><path class="cls-1" d="M92.55,28.67A26.78,26.78,0,0,1,93.66,39c-.18,1.93,2.82,1.91,3,0a29,29,0,0,0-1.22-11.17c-.57-1.83-3.47-1.05-2.89.8Z"/><path class="cls-1" d="M97.66,27.74A29,29,0,0,1,99,37.09a1.5,1.5,0,0,0,3,0,31.73,31.73,0,0,0-1.45-10.15c-.61-1.82-3.51-1-2.89.8Z"/><path class="cls-1" d="M100.83,26.24c2.17,3.23,3.73,7.94,2.87,11.85-.42,1.88,2.47,2.68,2.89.79,1-4.68-.53-10.23-3.17-14.15-1.07-1.6-3.67-.1-2.59,1.51Z"/><path class="cls-1" d="M110.25,4.92a46.82,46.82,0,0,0,6.9-.51c1.9-.3,1.1-3.19-.8-2.9a40.08,40.08,0,0,1-6.1.41,1.5,1.5,0,0,0,0,3Z"/><path class="cls-1" d="M106.43,7.84c0,4.26-.46,8.51-.7,12.77-.11,1.93,2.89,1.92,3,0,.24-4.26.67-8.51.7-12.77a1.5,1.5,0,0,0-3,0Z"/><path class="cls-1" d="M109.44,13c3-.76,16-4.34,12.52,3.37-.78,1.75,1.81,3.27,2.59,1.51,1.62-3.64.39-8.17-3.74-9.25-4-1-8.34.5-12.17,1.48-1.86.48-1.07,3.37.8,2.89Z"/><path class="cls-1" d="M110.84,17.12c0,3.47-1.25,9,2.09,11.35,3,2.16,9.86.61,11.07-3,.61-1.84-2.28-2.63-2.89-.8-.34,1-2.91,1.59-3.83,1.74-1.34.21-2.67.12-3.24-1.25-1-2.33-.22-5.54-.2-8a1.5,1.5,0,0,0-3,0Z"/><path class="cls-1" d="M116.41,17.59c-.25,7.5-.45,15.07-1.39,22.52-.24,1.91,2.76,1.89,3,0,.94-7.45,1.14-15,1.39-22.52.07-1.93-2.93-1.93-3,0Z"/><path class="cls-1" d="M110,25.07c3.62-1.25,7.93-.42,11.28-2.47,1.64-1,.13-3.6-1.52-2.59-3,1.86-7.23,1-10.55,2.17-1.82.62-1,3.52.79,2.89Z"/><path class="cls-1" d="M132,20.62c1.14-.32,5.85-1.89,6.43-.35.33.85-.33,2.42-.59,3.23s-.45,1.36-.72,2c-.74,1.78,2.16,2.55,2.89.79.89-2.15,2.27-5.57.94-7.77-1.88-3.12-7-1.58-9.74-.81a1.5,1.5,0,0,0,.79,2.89Z"/><path class="cls-1" d="M131.88,18.75c-.46,2.56-.92,5.11-1.4,7.66a1.52,1.52,0,0,0,1.44,1.9c3.13.09,6.1-.83,9.15-1.37l-1.9-1.45c0,2.49-2.49,5.73-3.67,7.25s.94,3.64,2.12,2.12c2-2.62,4.52-5.92,4.55-9.37a1.52,1.52,0,0,0-1.9-1.44c-2.78.49-5.49,1.34-8.35,1.26l1.45,1.9c.49-2.55.95-5.11,1.41-7.66.34-1.89-2.55-2.7-2.9-.8Z"/><path class="cls-1" d="M141.88,13.86a21.64,21.64,0,0,1,2.58,3.31,12,12,0,0,1,1.67,3c.54,1.85,3.43,1.07,2.89-.79-.8-2.76-3-5.64-5-7.65-1.36-1.38-3.48.75-2.12,2.12Z"/><path class="cls-1" d="M160.55,3.9c-1.65,3.09-3.35,6.17-5,9.24-.93,1.69,1.66,3.21,2.59,1.52,1.69-3.08,3.39-6.15,5-9.25.91-1.7-1.68-3.22-2.59-1.51Z"/><path class="cls-1" d="M159.93,10.73c1.14-.19,2.23-.59,3.35-.84a10.78,10.78,0,0,0,1.54-.21c.48-.2.13.22.06-.1-.2-.87-.22-.36-.25-.31a7.63,7.63,0,0,0-.47,1.42c-.19.46-.43.92-.66,1.37-.32.61-.65,1.2-1,1.78-1,1.65,1.58,3.16,2.59,1.52a28.09,28.09,0,0,0,1.48-2.76c.58-1.23,1.36-2.82,1-4.22-.93-3.35-6.3-.9-8.4-.55-1.9.32-1.1,3.21.79,2.9Z"/><path class="cls-1" d="M156.77,16.84c-.22,3.44-.52,6.87-.84,10.29-.17,1.93,2.83,1.91,3,0,.32-3.42.62-6.85.84-10.29.13-1.93-2.87-1.92-3,0Z"/><path class="cls-1" d="M159.09,18.29c1.59-.56,4.59-2.19,6.26-1.15,2.1,1.32,1.38,5.33.55,7.14s1.79,3.27,2.59,1.51c1.44-3.15,2-7.82-.71-10.51s-6.53-.91-9.48.11c-1.82.63-1,3.53.79,2.9Z"/><path class="cls-1" d="M159.72,24a35.8,35.8,0,0,0,6.87-2.46,1.5,1.5,0,0,0-1.51-2.59,33,33,0,0,1-6.15,2.16c-1.84.56-1.06,3.46.79,2.89Z"/><path class="cls-1" d="M161.4,16.42c0,2.76,0,5.53,0,8.29a1.5,1.5,0,0,0,3,0c0-2.76,0-5.53,0-8.29a1.5,1.5,0,0,0-3,0Z"/><path class="cls-1" d="M158.69,28.42a31.22,31.22,0,0,0,8.91-1.94c1.77-.71,1-3.61-.8-2.89a28.18,28.18,0,0,1-8.11,1.83c-1.9.17-1.92,3.17,0,3Z"/><path class="cls-1" d="M157.19,28.06c-2.15,3.69-4.57,7.46-6,11.49-.67,1.82,2.23,2.6,2.89.8,1.37-3.77,3.71-7.32,5.73-10.78a1.5,1.5,0,0,0-2.59-1.51Z"/><path class="cls-1" d="M158.3,28.79a50,50,0,0,1,1.21,9.27c0,1.93,3,1.93,3,0A54.9,54.9,0,0,0,161.19,28c-.39-1.89-3.28-1.09-2.89.79Z"/><path class="cls-1" d="M161.87,28a33.87,33.87,0,0,1,1.63,10.53,1.5,1.5,0,0,0,3,0,36.81,36.81,0,0,0-1.74-11.32c-.61-1.83-3.51-1-2.89.79Z"/><path class="cls-1" d="M166.28,27.74c.91,3.41,2.52,7.67,1.47,11.18-.55,1.85,2.34,2.65,2.89.8,1.22-4.09-.41-8.82-1.47-12.78a1.5,1.5,0,0,0-2.89.8Z"/><path class="cls-1" d="M177,3.64a22.84,22.84,0,0,0,3-.34l1.37-.22c.21,0,1-.11.48-.08,1.92-.13,1.93-3.13,0-3-1.62.12-3.2.61-4.83.64-1.93,0-1.93,3,0,3Z"/><path class="cls-1" d="M173,9.31c3.86-.1,7.53-1.38,11.32-1.95,1.9-.28,1.1-3.17-.8-2.89C180,5,176.57,6.22,173,6.31c-1.93,0-1.94,3,0,3Z"/><path class="cls-1" d="M172.74,8.44c0,7-.28,13.85-2.05,20.61a1.5,1.5,0,0,0,2.9.79l.42-1.26c.61-1.83-2.29-2.62-2.9-.79l-.42,1.26,2.9.79c1.84-7,2.13-14.18,2.15-21.4a1.5,1.5,0,0,0-3,0Z"/><path class="cls-1" d="M176.53,15.77c1.82-.61,5.84-2.61,7.48-.79,1.26,1.39.42,4.07.09,5.68-.39,1.89,2.5,2.69,2.89.8.58-2.82,1.37-6.29-.86-8.6-2.77-2.88-7.24-1-10.4,0-1.82.62-1,3.51.8,2.9Z"/><path class="cls-1" d="M176.11,20.39a49.27,49.27,0,0,1,12-2.47c1.92-.12,1.94-3.13,0-3a52.81,52.81,0,0,0-12.79,2.58c-1.83.59-1,3.49.8,2.89Z"/><path class="cls-1" d="M177,24.8c3-.69,6-1.5,9-2.29a1.5,1.5,0,0,0-.79-2.89c-3,.78-6,1.6-9,2.29-1.88.42-1.08,3.32.8,2.89Z"/><path class="cls-1" d="M179.88,11.59q.08,6,.21,12.11c.07,2.91.14,5.83.25,8.74.08,2,1.49,6.81-1.35,5.06-1.65-1-3.16,1.58-1.52,2.59,7.15,4.38,6-3.91,5.83-8.71-.23-6.6-.34-13.2-.42-19.79a1.5,1.5,0,0,0-3,0Z"/><path class="cls-1" d="M174.24,29.68a19.88,19.88,0,0,1,4.43.16l-1-1.84c-.51,2.26-2.72,3.86-4.45,5.22-1.52,1.18.62,3.29,2.12,2.12,2.17-1.7,4.59-3.72,5.22-6.55A1.52,1.52,0,0,0,179.47,27a22.9,22.9,0,0,0-5.23-.27,1.5,1.5,0,0,0,0,3Z"/><path class="cls-1" d="M186.2,24c-1.42,1.64-2.9,3.21-4.22,4.93a1.49,1.49,0,0,0,.89,2.2,23.5,23.5,0,0,0,9.41.21c1.88-.45,1.09-3.34-.79-2.89a19.82,19.82,0,0,1-7.82-.21l.9,2.2c1.16-1.51,2.5-2.88,3.75-4.32s-.85-3.58-2.12-2.12Z"/></g></g></svg>