<svg xmlns="http://www.w3.org/2000/svg" viewBox="0 0 478.46 475"><defs><style>.cls-1{fill:#494c4e;}</style></defs><title>anglerfish-shadow</title><g id="圖層_2" data-name="圖層 2"><g id="anglerfish-shadow"><path class="cls-1" d="M472.65,374.35c-4.51-7.08-18.72-12.6-34-16.66-.3-.11-.64-.22-1-.34-22-6.48-46.19-8.48-46.19-8.48V347.3c16.64-1.41,41-4.6,53.75-11.64,12.17-6.73,5.18-27,.53-34.56s-11.09-27-28.4-38.51-17.21-20-27.1-31.57-8.16-11.59-20.82-15.6c-4.15-1.32-12.85-3.34-21.45-5.21-20.28-33-71-66.39-90.68-75.54-18.27-8.48-47.21-2.53-66.72,7.34-4-4.87-.57-13.31-.57-13.31s40.61-76.45,41.41-78.44,6.77-11.15,10.35-11.55S263,21.37,258.8,6.47s-17.92-.4-23.89,7.16-3.58,15.93-2.39,19.51-6.37,14.47-6.37,14.47-40.21,69.94-45.39,78.3-20.58,23-24.29,25.48c-1.92,1.28-13.13,4.78-13.13,4.78h0c-14.06.7-8.76,13.53-8.76,13.53v.13c-1.41,2.87-4.56,8.47-8.35,10.22-5.18,2.39-13.94,11.94-13.94,13.53s.8-1.19,5.57-4a28.06,28.06,0,0,1,12-3.58,9.11,9.11,0,0,1,3,.11,9.55,9.55,0,0,0-.9.82,12.79,12.79,0,0,0-2,3.72c0,.4,2.52-1.06,2.52-1.06l.52-.27c-.23,1.87-.49,3.6-.78,5,0,.21-.1.47-.15.75a12.07,12.07,0,0,0-3.48,2.44c-1.06,1.46-.17,2.12-.17,2.12l3-1.12c-.1.51-.21,1-.32,1.63a12,12,0,0,0-4.82.95c-2.39,1.33-7.17,3.05-8.9,6.77s1.33.93,2.79,0a12.43,12.43,0,0,1,6.64-2.39,24.53,24.53,0,0,1,3.23.07c-.17.84-.34,1.72-.51,2.63a4.39,4.39,0,0,0-3.25,1.57c-1.2,1.83,0,2.37,0,2.37l2.59-.56-.65,3.4c-3,.38-7.66,1-9,1.67-2,.93-3.58,2.39-5.71,4.78s-2.25,3.31,0,2.39,2-2.53,5-3.19,6.37-1.5,8.23-1.22l.54.09c-.11.59-.22,1.18-.34,1.78l-2.27.48s-4.45,3.38-4.45,4.84v1.19s2.24-2.65,4-2.78a8.67,8.67,0,0,1,2,.13c-.71,3.75-1.43,7.63-2.15,11.53h-3s-4,2.06-4.23,3.25a2.85,2.85,0,0,0,0,1.77,7,7,0,0,1,3.3-1l3.29-.39c-.41,2.2-.8,4.39-1.19,6.56-3.32-.31-10.63-.95-11.65-.64-1.33.39-6.11,2.25-6.77,4s.53.66,2.25,0,5-1.46,7.68-.53,5.9.77,7.6,2.18c-.26,1.47-.51,2.92-.75,4.34a7.83,7.83,0,0,0-3.52.38c-2,.93-4.06,1.72-4.32,2.52s-1.29,1.46,1,.8,3.5-1.33,6.16-.67l.18.05c-.66,3.94-1.26,7.61-1.75,10.85a5.54,5.54,0,0,0-2.76,1.12c-1.59,1.33,2.35,1,2.35,1H118c-.15,1-.28,2-.41,3a55.25,55.25,0,0,0-8.14,0c-4.25.4-6,2.52-5.92,2.52s-.56.53,2.89,0a15.13,15.13,0,0,1,7.55.24c1.45.35,2.5.56,3.2.67,0,.29-.06.56-.08.83l0,.22c-1.76,0-4.89.07-5.08.83-.28,1.06,3.14,1.32,3.14,1.32l1.64.49a67.09,67.09,0,0,1-1.31,7.15,47.67,47.67,0,0,0-6.17.06,4.52,4.52,0,0,0-1.23.66,7.46,7.46,0,0,0-.82.11,37.56,37.56,0,0,0-5.54,2.63l-4.06-4.55c.7-1.11,1.83-2.85,2.54-3.75,1.09-1.39,4.38-3.78,3-3.88-1.1-.08-6.59,2.75-8.86,3.95l-.44-.49a30.92,30.92,0,0,1,3.73-3c1.69-1,4.23-.13,3.88-1s-3.88-.75-6.37-.53a34.49,34.49,0,0,0-4.62.83c-.59-.64-1.18-1.29-1.79-1.94a13.8,13.8,0,0,1,2.13-2.7l4.88-3.51s-1.3-.07-3,0c-1.33.06-5.27,2.21-6.87,3.12l-4.21-4.53c.79-1,2-2.41,2.62-3,1-1,4.38-1.59,4.38-1.59s-.9-.8-3.68-.5a17.44,17.44,0,0,0-4.36,1.34c.2-.27.36-.5.48-.64.59-.8,8.16-6,10-6.44s6.47,0,6.47,0-.7-1.13-3.39-2a15.78,15.78,0,0,0-8.36,0c-1.78.5-8.06,4.79-10.32,6.37-.88-.94-1.77-1.87-2.66-2.8l2.68-2,5.92-2.14s-.59-.75-2.58-.85c-1.55-.08-6.27,1.76-8.3,2.59L67,255.66a16.37,16.37,0,0,1,3.92-2.24,12.51,12.51,0,0,0-3.85.26l.21-.26c1.07-1.43,8.22-7.17,10.11-8.07s6.07-1,6.07-1a24.1,24.1,0,0,0-5.47-1.12c-3.68-.42-6.67,1.52-8.06,2.21a82.23,82.23,0,0,0-6.93,5.3l.86-3.21-4.18.61-1-1c1.79-2.09,5.62-6.56,8.28-9.72,3.58-4.25,5.31-15.52,5.18-18.7a10.4,10.4,0,0,0-2.66-5.84A92,92,0,0,1,68.35,222c-.58,2.93-3.64,7.39-5.08,10a1.72,1.72,0,0,0-.69,0c-.67.24-8.43,1.59-12.57,6.34l-.77-3-1.57.48c-.36-1.42-.64-3.42.24-4.46,1.46-1.73,7.3-3.32,6.17-3.45s-6.43,0-6.43,0,7-5.58,11.68-8.4,13.27-1.82,6.5-3.15-14.2,3.15-14.2,3.15c.66-1.62,9.69-8.46,14.07-9.27s6.9-1.05,6.9-1.05-2.39-1.19-8.63-.94-14.46,6.78-18,9a78.62,78.62,0,0,0-7.58,5.89c.92-1.94,1.9-4,2.27-4.89.8-1.86,7.57-8.5,10.22-9.29s4.65-1.73,2-1.73S42.21,211,39.55,213.38a122.61,122.61,0,0,0-8.22,9.24,3.52,3.52,0,0,0-1.07-.36c-8-.79-13.54,13.54-13.54,20.71s-8,15.13-14.33,35,.8,38.22,12,38.22,25.48,13.54,25.48,13.54c.79,4.78,11.94,47.78,38.22,63.71s133.78,46.18,173.59,46.18c22.5,0,45-5.34,61.74-10.27,1.11,3.24,4.84,8.69,9.46,14.52h0l.21.26.5.62,0,0c9.05,11.3,21.06,23.65,23.63,23.91,4,.39,6-.8,17.52-4.38s14.73-18.72,14.73-18.72,4.38-2.78,3.58-4.38-9.16-5.57-12.74-6.77c-2.07-.69-9.36-3.25-17.13-6.59l-.14-.05-.75-.34a123,123,0,0,1-12.59-6.25c7.34-1.68,3.93-6.31,22.49-9.43l.23,0,.8-.09h.62c7,.18,13.78,9.73,20.1,21.64,9.41,17.78,18.27,40.21,28.49,41.35l.07,0a17.82,17.82,0,0,0,10.63-1.13c6.59-2.79,7.37-9.3,14.89-11.61,10.36-3.19,19.86-25.48,27-34.24.26-.31.47-.65.7-1l.29-.4q.35-.54.66-1.11l.25-.47c.21-.39.41-.8.59-1.21l.12-.28a29.08,29.08,0,0,0,1.45-4.4c0-.19.09-.38.14-.57.09-.43.19-.86.28-1.29s.11-.59.16-.88.14-.72.19-1.08a.64.64,0,0,0,0-.07h0c.76-4.73,1-9.75,1.49-14.3l0,0a39.2,39.2,0,0,1,1.53-8,8.87,8.87,0,0,1,2.9-4.43,1.2,1.2,0,0,0,.11-.12C478.82,385.91,480.85,387.25,472.65,374.35Zm-412.6-138c-2.08,2.25-4.77,4.85-6.11,6.13l-.85-.83A27.43,27.43,0,0,1,60.05,236.3Zm49.84,56.24c.54-.36,1.06-.69,1.52-1a31.32,31.32,0,0,1,3.32.67,43.86,43.86,0,0,1-2.33,6.27,44.07,44.07,0,0,0-5.37.73c-.66-.77-1.39-1.63-2.21-2.56A64.65,64.65,0,0,1,109.89,292.54Zm-1.07,8.83h0s1.73-.88,3-1.66a17.44,17.44,0,0,1-1.9,3C109.62,302.36,109.25,301.9,108.82,301.37Z"/></g></g></svg>