<svg xmlns="http://www.w3.org/2000/svg" xmlns:xlink="http://www.w3.org/1999/xlink" viewBox="0 0 478.46 475"><defs><style>.cls-1,.cls-3{fill:#f2f2f2;}.cls-2{fill:none;stroke:#f2f2f2;stroke-miterlimit:10;}.cls-3{opacity:0.5;}.cls-4{fill:url(#linear-gradient);}.cls-5{fill:#181612;}</style><linearGradient id="linear-gradient" x1="174.37" y1="144.72" x2="230.13" y2="42.88" gradientUnits="userSpaceOnUse"><stop offset="0" stop-color="#181612"/><stop offset="0.73" stop-color="#866347"/><stop offset="1" stop-color="#fff"/></linearGradient></defs><title>anglerfish</title><g id="圖層_2" data-name="圖層 2"><g id="anglerfish"><path class="cls-1" d="M135.37,168.11s-4,9.56-9.15,11.95S112.28,192,112.28,193.59s.8-1.19,5.57-4a28.06,28.06,0,0,1,12-3.58c3.59-.37,4.38.8,4.38.8C138.56,185.24,135.37,168.11,135.37,168.11Z"/><path class="cls-1" d="M132.45,189.62a14,14,0,0,1,3.32-1.33c.8,0,1.33-3.85,1.33-3.85a7.76,7.76,0,0,0-5.18,2.52,12.79,12.79,0,0,0-2,3.72C129.93,191.08,132.45,189.62,132.45,189.62Z"/><path class="cls-1" d="M134.31,200.23s-5.71-.4-8.09.93-7.17,3.05-8.9,6.77,1.33.93,2.79,0a12.43,12.43,0,0,1,6.64-2.39,31.56,31.56,0,0,1,6.77.53Z"/><path class="cls-1" d="M134.23,194.06s-4.6,2.06-5.67,3.52-.17,2.12-.17,2.12l3.45-1.3,2.39-.69Z"/><path class="cls-1" d="M130.81,214.7s-9.64,1.06-11.63,2-3.58,2.39-5.71,4.78-2.25,3.31,0,2.39,2-2.53,5-3.19,6.37-1.5,8.23-1.22,3.18.42,3.18.42Z"/><path class="cls-1" d="M130.81,208.19s-3.4-.22-4.59,1.62,0,2.37,0,2.37l3.71-.8Z"/><path class="cls-1" d="M128.18,221.07l-3.5.73s-4.45,3.38-4.45,4.84v1.19s2.24-2.65,4-2.78a14,14,0,0,1,4.24.66Z"/><path class="cls-1" d="M125.82,236.71H121s-4,2.06-4.23,3.25a2.85,2.85,0,0,0,0,1.77,7,7,0,0,1,3.3-1c2.39-.27,4.65-.56,4.65-.56Z"/><path class="cls-1" d="M123.85,247.07s-12-1.19-13.29-.79-6.11,2.25-6.77,4,.53.66,2.25,0,5-1.46,7.68-.53,5.9.77,7.6,2.18a3.92,3.92,0,0,0,3.44.87Z"/><path class="cls-1" d="M123.23,256.63s-4.17-.93-6.18,0-4.06,1.72-4.32,2.52-1.29,1.46,1,.8,3.5-1.33,6.16-.67,3.37.94,3.37.94Z"/><path class="cls-1" d="M119.84,270.18a5.88,5.88,0,0,0-4.31,1.12c-1.59,1.33,2.35,1,2.35,1l2.35.15v-1.76"/><path class="cls-1" d="M118.23,275.34a56.35,56.35,0,0,0-8.81,0c-4.25.4-6,2.52-5.92,2.52s-.56.53,2.89,0a15.13,15.13,0,0,1,7.55.24,30.57,30.57,0,0,0,4.29.82Z"/><path class="cls-1" d="M118.23,279.85s-6-.27-6.28.8,3.14,1.32,3.14,1.32l3.14.93Z"/><path class="cls-1" d="M117.23,289.67s-7.19-.27-8,0-3.24,1.59.34,1.72a30.25,30.25,0,0,1,7.64,1.6Z"/><path class="cls-1" d="M30.53,223.6s6.37-7.83,9-10.22,10.62-6.24,13.27-6.24.67.93-2,1.73-9.42,7.43-10.22,9.29-4.24,9-4.24,9l-5.84-3"/><path class="cls-1" d="M33.58,227.18s8.76-7.83,12.34-10,11.81-8.73,18-9,8.63.94,8.63.94-2.52.24-6.9,1.05-13.41,7.65-14.07,9.27c0,0,7.43-4.48,14.2-3.15s-1.86.34-6.5,3.15-11.68,8.4-11.68,8.4,5.29-.12,6.43,0-4.71,1.72-6.17,3.45.27,6.09.27,6.09l-14.6-9.54"/><polygon class="cls-1" points="45.39 236.47 49.24 235.28 50.1 238.66 45.39 236.47"/><path class="cls-1" d="M53.09,243.24s8.63-8.1,9.69-10.35,4.91-7.57,5.57-10.89a92,92,0,0,0,1.06-9.15,10.4,10.4,0,0,1,2.66,5.84c.13,3.18-1.6,14.45-5.18,18.7s-9.29,10.89-9.29,10.89Z"/><path class="cls-1" d="M52.29,242.44s5.78-6.59,11-7.16S67,233,67,233s-3.7-1.33-4.44-1.06-9.89,1.83-13.61,7.68S52.29,242.44,52.29,242.44Z"/><path class="cls-1" d="M61.52,251.92s7-5.77,8.36-6.47,4.38-2.63,8.06-2.21a24.1,24.1,0,0,1,5.47,1.12s-4.18.1-6.07,1-9,6.64-10.11,8.07-2.93,3.38-2.93,3.38l-3.38-4.58Z"/><polygon class="cls-1" points="58.73 248.28 63.81 247.54 62.58 252.12 58.73 248.28"/><path class="cls-1" d="M63.81,254.41s5.07-1.39,7.06-1c0,0-4.48,1.79-4.68,3.38S63.81,254.41,63.81,254.41Z"/><path class="cls-1" d="M74.66,265.16s9-6.32,11.14-6.94a15.78,15.78,0,0,1,8.36,0c2.69.87,3.39,2,3.39,2s-4.58-.47-6.47,0-9.46,5.64-10,6.44-2.79,3.86-2.79,3.86Z"/><path class="cls-1" d="M77.16,268.9s5-2.64,7.75-2.94,3.68.5,3.68.5-3.38.59-4.38,1.59-3.38,4-3.38,4Z"/><path class="cls-1" d="M69.58,259.79s7.27-3.09,9.26-3,2.58.85,2.58.85l-5.92,2.14-3.33,2.49Z"/><path class="cls-1" d="M85.11,276s5.87-3.43,7.56-3.51,3,0,3,0L90.78,276s-2.19,2.24-2.19,2.91S85.11,276,85.11,276Z"/><path class="cls-1" d="M93.27,285.37s8.46-4.58,9.85-4.48-1.89,2.49-3,3.88S97,289.55,97,289.55Z"/><path class="cls-1" d="M89.49,280.89a39.27,39.27,0,0,1,5.57-1.07c2.49-.22,6-.35,6.37.53s-2.19,0-3.88,1a40.11,40.11,0,0,0-4.68,3.86Z"/><path class="cls-1" d="M100.63,293.63s5.08-2.84,6.57-3.19a32.15,32.15,0,0,1,5.78,0c.4,0-1.3.9-3.09,2.1s-5.57,4.57-5.57,4.57Z"/><path class="cls-1" d="M106.11,299.4s6.69-1.29,6.93-.79-4.22,2.76-4.22,2.76Z"/><path class="cls-2" d="M345.73,233.41s33.71-4.08,40.88-2.69"/><path class="cls-2" d="M386.61,335.66s52.55-2.79,61.31-12.5"/><path class="cls-2" d="M386.61,329.76s42.6-2.06,47.38-6.6"/><path class="cls-2" d="M383,321s43-11.66,53.35-11.8,9.14,0,11.55,1.45"/><path class="cls-2" d="M380.63,316.39s46.19-12.9,53.36-12.91"/><path class="cls-2" d="M376.09,292.07s40.38-12.37,48.34-17.2"/><path class="cls-2" d="M376.09,297.38s26-8.51,34.2-12.55"/><path class="cls-2" d="M378.24,307.47s26.68-11.68,39-15.4,19.11-3.28,19.11-3.28"/><path class="cls-2" d="M371.08,280.13s21.34-5.84,29.18-11.15"/><path class="cls-2" d="M367.89,274s32.25-11.88,35.44-13.48"/><path class="cls-2" d="M356,243.76s35.29-5.75,37.25-4"/><path class="cls-2" d="M356,239.44s24.28-4,27.07-4"/><path class="cls-2" d="M363.91,255.94s22.21-8.82,29.29-9.47"/><path class="cls-2" d="M366.17,260.48a43.76,43.76,0,0,0,14.46-4.54c7.17-3.82,18-5.21,18.11-5"/><path class="cls-3" d="M391,348.87s70.51,8,81.66,25.48,3.4,8.76.22,18.32-.69,26.28-7.86,35S448.35,458.76,438,462s-7.93,14.33-25.45,12.74-31-66.09-50.15-62.91S391,348.87,391,348.87Z"/><path class="cls-4" d="M156.47,151.39c3.71-2.47,19.12-17.12,24.29-25.48s45.39-78.3,45.39-78.3,7.57-10.89,6.37-14.47-3.58-11.94,2.39-19.51S254.6-8.44,258.8,6.47s-13.54,31.85-17.12,32.24-9.56,9.56-10.35,11.55-41.41,78.44-41.41,78.44-5.57,13.93,6,16.32S167.22,163.73,164,163.73s-17.52-3.18-18.71-3.58-2-4-2-4S154.55,152.67,156.47,151.39Z"/><path class="cls-3" d="M324.89,205.4s34.71,6.93,44.45,10c12.66,4,10.93,4.08,20.82,15.6s9.79,20,27.1,31.57,23.76,30.93,28.4,38.51,11.64,27.83-.53,34.56C424.66,347,374,348.35,374,348.35Z"/><path class="cls-5" d="M145.72,156.17s15.93,6.37,33.45-7.17,55.74-24.68,78-14.33,84.2,51.76,97,88.39,37.22,106.7,37.22,116.26v9.55s24.21,2,46.19,8.48c10.35,3.06-13.14,3.2,8.09,10.63,14.7,5.15,33.17,17.87,30.14,20.26a8.87,8.87,0,0,0-2.9,4.43,39.2,39.2,0,0,0-1.53,8c-.29,2.58-64.06-37.8-64.06-25.74,0,3.71,62.88,38,62.55,40.08-.79,4.85-2.12,9.38-4.87,12.74-1,1.26-54.25-37.15-57.68-32.12-4,5.84,51.86,40.75,50.5,43-2,3.26-4.06,6.72-6.22,10-2,2.95-38.57-29.45-41.3-28-7,3.72-2.09,10.66,5.18,19.57,8.61,10.56,23.87,21.41,22.47,21.84-4,1.22-6.07,3.62-8.13,6-.73.85-20.84-20-21.84-19.43-7.43,4.09,17.88,23.47,16.84,24.11-2.64,1.63-6.36,3-12.34,2-3-.47-15.16-15.16-22.81-34.58-1-2.62-4.05-3.55-5.34-6-6.89-13.12-14.28-23.61-22-22.32-19.11,3.19-15.13,8-23.09,9.56s-47.77,18.31-87.59,18.31S104.32,409.39,78,393.47s-37.43-58.93-38.22-63.71c0,0-14.34-13.54-25.48-13.54S-4,297.91,2.39,278s14.33-27.87,14.33-35,5.58-21.5,13.54-20.71,72.46,70.95,79.63,80.47c0,0,5.58-6.41,7.17-23.13s13.54-77.25,15.13-85.21,2.39-24.68,2.39-24.68S128.69,155.47,145.72,156.17Z"/><path class="cls-3" d="M353.15,427.88c7.77,3.34,15.06,5.9,17.13,6.59,3.58,1.2,11.94,5.18,12.74,6.77s-3.58,4.38-3.58,4.38-3.19,15.13-14.73,18.72-13.54,4.77-17.52,4.38c-2.64-.27-15.23-13.28-24.36-24.81C318.18,438,347.5,425.44,353.15,427.88Z"/><path class="cls-5" d="M320.91,410.19c3.58,0,6,2.78,16.32,9.55a108.37,108.37,0,0,0,15,7.75c4.73,2.06,9.89,5.26,13.14,6.79,1.08.5,4.61,2.05,8.07,3.55,4,1.73,3.34,3.39-2,1.36-6.21-2.37-14.06-5.32-19.34-7-3.39-1.08-5.55.3-5.77.7s4.26,4.07,10.25,7.27c2.7,1.44,5.32,2.93,7.7,4.33,5.74,3.37,4.36,5.34-1.72,2.44-10-4.79-22.2-10.74-23.1-10s3.57,7,10.65,11.25c2,1.2,3.91,2.33,5.74,3.36,7.14,4,6,5.38-1,1.8-8.5-4.32-18-8.75-19.58-7.35-2.39,2.17,7.63,10.71,13.5,15.36,2,1.54,1.68,4.59-2.08,2.09a149.21,149.21,0,0,1-12-9.19c-3.92-3.25-8.44-6-11.21-9.49-5-6.21-9.07-12.1-10.19-15.49-3.19-9.56-6.37-15.13-4.38-16.72S320.91,410.19,320.91,410.19Z"/><path class="cls-3" d="M284.23,272.83s16.35-20.71,18.34-21.9,8.7-6,15.9-4,31.5,5.57,40.66,9.15,20.7,8.76,15.13,30.66-1.06,27.87,1.46,33.84-7.83,33.45-29.73,26.68-26.27-10.35-30.26-15.13-15.92-19.51-15.92-19.51l-6-2.39s11.52-2.39,9.53-15.53-8.14-19.9-19.14-20.7Z"/><path class="cls-2" d="M291.1,274.87s18.93-20,31.93-23.94"/><path class="cls-2" d="M295.79,278.32s29.1-23.41,58-22.35"/><path class="cls-2" d="M297.55,280.13s33.18-20.18,62.38-22.3"/><path class="cls-2" d="M301.53,284.37s45.66-21,69.55-20.83"/><path class="cls-2" d="M302.92,292.07s20.11-4.78,29.4-7.7,39.55-7.69,41.68-6.63"/><path class="cls-2" d="M303.62,297.38s22.07,1.86,32.69,1.06,34.24,2.39,34.77,2.92"/><path class="cls-2" d="M302.09,288.79s20.68-6.58,35.68-11.2S374,271.9,374,271.9"/><path class="cls-2" d="M311.24,305.61s29.05,10.88,34.09,12.74,22.56,9.55,27.34,8.76"/><path class="cls-2" d="M322,303.48s20.18,3.46,25.22,5.58,21.23,6.1,22.29,5.84"/><path class="cls-2" d="M313,310.65s35.3,17,40.87,21.5,15.66,3.39,15.66,3.39"/><path class="cls-2" d="M317.19,318.61s29.2,19.65,36.63,22.3"/><path class="cls-2" d="M314.28,323.16s14.59,15.63,30.25,21.47"/><path class="cls-1" d="M356,451.45c7.19,4,12.73,6.88,14.2,7.71,1.12.64,1.3,1.89-1.39,1.39-.51-.09-6.89-3.49-13.9-7.1C354.14,453.06,354.14,450.43,356,451.45Z"/><path class="cls-1" d="M364.65,444.66c5.59,3.27,9.77,6,10.31,6.34,2.33,1.32,1.49,1.78.5,1.59-1.48-.29-6.77-2.76-12.84-5.67C360.05,445.68,363.22,443.82,364.65,444.66Z"/><path class="cls-1" d="M373.47,437.83l7.86,3.41c1.64,1,1.79,1.86-.12,1.62A73.77,73.77,0,0,1,371.08,439C370,438.53,370,436.33,373.47,437.83Z"/><path class="cls-1" d="M348.91,461.43c1.92,1.52,3.39,2.61,3.81,2.91,1,.69,3.19,2.28,2.23,2.58-1.46.47-3.94-.5-8.19-3.44C343.31,461.08,346.45,459.49,348.91,461.43Z"/><path class="cls-1" d="M183.55,180.06A9.56,9.56,0,1,1,174,170.5,9.56,9.56,0,0,1,183.55,180.06Z"/></g></g></svg>