<svg xmlns="http://www.w3.org/2000/svg" viewBox="0 0 1000.56 717.93"><defs><style>.cls-1{fill:#a36950;}.cls-2{fill:#724b37;}.cls-3{fill:#e49669;}.cls-4{fill:#c16f4c;}.cls-5{fill:#f9ddd2;}.cls-6{fill:#994a2e;}.cls-7{fill:#8982b6;}.cls-8{fill:#edf9ff;}</style></defs><title>cuttlefish</title><g id="圖層_2" data-name="圖層 2"><g id="cuttlefish"><path class="cls-1" d="M172.3,399.94c18.25-12.5,57-32.5,88.75-35.5s39-5.75,50.75-7,22.75,4,29,3,3.25-.25,3.25-.25-20.75,27.5-38.75,40.75-41,36.25-51.5,43.25-55.75,35.75-63,39.75-40.5,32-49,41.25-17.5,14.25-21,16.75-21.25,14.25-30.25,34.25c0,0,1.51-13.92,4.84-22.92s7.67-11,14-18.33,7.33-10.67,8.33-22.33,14-50.33,18.67-60,19-34,24.66-40S172.3,399.94,172.3,399.94Z"/><path class="cls-2" d="M361.3,546.19c10.11-6.3,29.25-19.42,43.25-27.75s33.21-21.33,36.54-27S465,465.69,476.3,456.69s15.15-16.95,33.48-24.61,48.27-10.48,52.94-10.81c0,0-25.33,4.33-23,10s15.67,5,23,13.67,26.67,23.66,36.67,27.66,17,13.33,17.66,16-13.66,12.34-23.66,13.67-3,1.34-32.34,4.67-39,3-52,11.67-23,15.66-35.33,19.66-26,11.34-45,11-30.67-2-41.67,4.34-29,13.53-38,16.66c0,0-18.5,8.92-26.5,14.17s-38.5,26.5-51,36.25-40.25,32-46.75,37.5-26.08,22.42-26.08,22.42,19.08-20.42,22.58-24.54,19.75-18.63,27-24.88,40.5-34.5,49.5-40.75S351.89,552.06,361.3,546.19Z"/><path class="cls-2" d="M289.22,507.77c-2.17,1.67-10.67,4.84-14.83,5.84s-26.34,10.33-26.34,10.33c-12.25,9.75-48.75,29.25-71.75,38s-28.5,17.25-41.25,21-21.75,8.5-28,15.75-17.5,13.75-26.5,14.5-6.5-5-4.75-7,5.75-10,14.75-30c0,0,1.51-13.92,4.84-22.92s7.67-11,14-18.33,7.33-10.67,8.33-22.33,14-50.33,18.67-60,19-34,24.66-40,11.25-12.67,11.25-12.67c-18.25,12.5-27.25,23.33-38.25,29s-17,1-28,4.67-20.66,7.33-38.66,18-32,27.66-40.34,45-8,16.33-3.33,23,11,3.33,15,2.66,10-9,5,7.67-20.33,15-20.33,15a52.68,52.68,0,0,1-7.67,9.33c-4.33,4-1.33,7,4.67,5.33a47.71,47.71,0,0,1,13-1.33c-4,12,4,31,10.66,42.33s-1,17.34-6.33,24.67-.33,9.67,13.33,14.67,30.34,2.67,30.34,2.67c-2.67,1.66-3.67,4,0,5.66a125.73,125.73,0,0,0,27.66,7.34c10.67,1.33,25-.67,25-.67s6.67-6.65,9.34-9.65,7-11.67,17.33-19,18.67-22,29-36,29.67-32.33,43.64-38.67c11.45-5.18,40.62-29.84,60.14-47C293.48,504.61,291.38,506.11,289.22,507.77Z"/><path class="cls-2" d="M388.55,667.44s25.42-6.33,31.92-11.83,36.58-15.67,47.08-19.92,31.59-14.42,40.84-16.17,30.19-8.17,38.69-11.42,37.14-21.08,46.39-28.58,26.33-22.83,29.08-23.83L608.3,565c-2.66,1.75-17.66,13.09-19.41,14.34S555.47,599.77,549.3,602s-26,9.5-37.08,11.75-18.33,5.09-28.25,9.59-19.92,9.08-24.92,11.08-14.5,6.08-19.75,8.42-14.08,6.58-16.91,8.41-6.5,4.67-7.92,5.42-9.08,4.34-12.33,5.67S388.55,667.44,388.55,667.44Z"/><path class="cls-1" d="M293.5,504.6c4.31-3.79,8.15-7.22,11.22-10,17-15.34,45-40.33,53.33-48s53.34-50.67,60-60,35-44,35-44c-5.66,3.67-28.66,19-43,29.67s-26.66,30.66-40.66,45-41.59,41.92-59.34,58.67-49.75,38.25-62,48c0,0,22.17-9.33,26.34-10.33s12.66-4.17,14.83-5.84S293.5,504.6,293.5,504.6Z"/><path class="cls-2" d="M275.05,676.94s29.4-12.45,40.73-18.11,47.61-13.64,58.27-20,51.84-34.27,65.5-41.27,39.67-24.18,54-35.52,66.17-31.13,75.5-31.47a90.49,90.49,0,0,0-13.41,2.3c-5.59,1.59-26.09,7.92-31.42,9.84S501.64,552,498.14,553.9a110.8,110.8,0,0,0-12,7.85c-4.92,3.59-26.75,17.84-30.5,19.92s-20.17,11.67-23.92,13.59S411.49,607.77,407.9,610s-17.76,12-20.35,13.75-15.58,10.5-19.5,12.17-21.49,7.92-24.16,8.92-14.59,5.08-19.17,6.83a167.62,167.62,0,0,0-15.58,7.09Z"/><path class="cls-3" d="M993.05,171.94c-13-23.5-34.5-29-51-33.5s-76-17.5-121-23.5-110,1.5-136.5,6-80,19.5-108,34.5-46,33-54.5,47.5-8.5,23-8.5,23-30.49,1.68-57.49,12.68S382.72,289.28,374.39,297s-35.67,13-63.33,13-65,11.66-90.34,21-60,28.66-77.66,41.33-26.34,26-36,30-15,1-29-10.34-28.67-5.66-37.67,1-14.34,19.33-15,33,2.33,19.33,2.33,19.33c2.34,1.34,3,8.34-5.67,20.67s-15,24-20,41.32,0,27.67,5.67,32.67,15.67,5,15.67,5,15.33,1.67,20.33-15-1-8.33-5-7.67-10.33,4-15-2.66-5-5.67,3.33-23,22.34-34.34,40.34-45,27.66-14.34,38.66-18,17,1,28-4.67,20-16.5,38.25-29,57-32.5,88.75-35.5,39-5.75,50.75-7,22.75,4,29,3,3.25-.25,3.25-.25-20.75,27.5-38.75,40.75-41,36.25-51.5,43.25-55.75,35.75-63,39.75-40.5,32-49,41.25-17.5,14.25-21,16.75-21.25,14.25-30.25,34.25-13,28-14.75,30-4.25,7.75,4.75,7,20.25-7.25,26.5-14.5,15.25-12,28-15.75,18.25-12.25,41.25-21,59.5-28.25,71.75-38,44.25-31.25,62-48,45.34-44.33,59.34-58.67,26.33-34.33,40.66-45,37.34-26,43-29.67c0,0-28.33,34.67-35,44s-51.66,52.33-60,60-36.33,32.66-53.33,48-57.38,50.67-71.36,57-33.31,24.67-43.64,38.67-18.67,28.67-29,36-14.67,16-17.33,19-9.34,9.65-9.34,9.65c-9,5.33-26.33,25-30.66,33s-4,14.67,0,19.33,18,12.34,26.66,10.34,27-9.67,39-16.34,29.67-20.66,29.67-20.66,19.08-20.42,22.58-24.54,19.75-18.63,27-24.88,40.5-34.5,49.5-40.75,54.09-38.38,63.5-44.25c10.11-6.3,29.25-19.42,43.25-27.75s33.21-21.33,36.54-27S465,465.69,476.3,456.69s15.15-16.95,33.48-24.61,48.27-10.48,52.94-10.81c0,0-25.33,4.33-23,10s15.67,5,23,13.67,26.67,23.66,36.67,27.66,17,13.33,17.66,16-13.66,12.34-23.66,13.67-3,1.34-32.34,4.67-39,3-52,11.67-23,15.66-35.33,19.66-26,11.34-45,11-30.67-2-41.67,4.34-29,13.53-38,16.66c0,0-18.5,8.92-26.5,14.17s-38.5,26.5-51,36.25-40.25,32-46.75,37.5-26.08,22.42-26.08,22.42,11-1,21.33-1.67,20,1.67,33.67,1.67,21.33-3.67,21.33-3.67l34.09-18.16a167.62,167.62,0,0,1,15.58-7.09c4.58-1.75,16.5-5.83,19.17-6.83s20.25-7.26,24.16-8.92,16.92-10.42,19.5-12.17S404.3,612.27,407.9,610s20.07-12.84,23.82-14.76,20.17-11.51,23.92-13.59,25.58-16.33,30.5-19.92a110.8,110.8,0,0,1,12-7.85c3.5-1.91,20.75-9.25,26.08-11.16s25.83-8.25,31.42-9.84a83.11,83.11,0,0,1,12-2.14,13.54,13.54,0,0,1,1.45-.16s-.55,0-1.45.16c-12.3,1.88-60.33,20.47-74.05,31.31-14.33,11.34-40.33,28.52-54,35.52s-54.83,34.93-65.5,41.27-46.94,14.3-58.27,20-40.73,18.11-40.73,18.11,15.34-1.33,29-2,47.67-3.66,65-4.1,19.5-3.4,19.5-3.4,10.34-3.75,13.59-5.08,10.91-4.92,12.33-5.67,5.08-3.58,7.92-5.42,11.66-6.08,16.91-8.41,14.75-6.42,19.75-8.42,15-6.58,24.92-11.08,17.17-7.34,28.25-9.59,30.92-9.5,37.08-11.75,37.84-21.42,39.59-22.67S605.64,566.76,608.3,565l11.59-7.58a14.76,14.76,0,0,1,2.66-1.74l-2.66,1.74c-5.86,4.42-18.79,15.91-26.42,22.09-9.25,7.5-37.89,25.33-46.39,28.58s-29.44,9.67-38.69,11.42-30.34,11.92-40.84,16.17S427,650.11,420.47,655.61s-31.92,11.83-31.92,11.83,4,1,14.5,3,25.5-4,38.5-9,45-16.5,59.5-21.93,36-10.57,54-3.07,45-.5,58-5.5,28-17.5,26-14-.5,10,4,6.5,46-41,56.5-48,63-50,85-71.5,28.5-63.5,28.5-63.5c29-3,56-27,74-46.5s47.5-72,51-88.5,21.5-42.5,26.5-57,22-29,28.5-33.5S1006.05,195.44,993.05,171.94Z"/><path class="cls-3" d="M796.44,113c1,0,2.59.17,4.65.37,0,0-7-26.15-1-36.4,5.64-9.63,13.83-17.83,33.25-23.64,27.4-8.19,67.28-7.79,70.83-10.86,6.08-5.25,16.17-28.75,16.67-35.75s0-7.5-5-6-6.5,3-18.75,6.25S857.3,21.19,846.8,26.69s-31.25,17-42,27.75a52.9,52.9,0,0,0-15.25,30.5c-1.25,8.25-1.25,11.25,1.25,15.5A117,117,0,0,1,796.44,113Z"/><path class="cls-4" d="M800.05,76.94c-5.74,9.81.45,34.17,1,36.25,7,.35,13.68.91,20,1.75,16.94,2.26,35.92,5.51,53.89,8.92l14.61-58.67s8.5-17.5,14.58-22.75c-3.55,3.07-43.43,2.67-70.83,10.86C813.88,59.11,805.69,67.31,800.05,76.94Z"/><path class="cls-5" d="M93.72,352.44c3.5-.83,8.67-1.67,10.33-3.5s2-1.67,3.67-2.83-2.83-4.17-.17-4.34,3-2.66,4.5-2.5,3.34,2,7.67,0,4.33-3,11.5-5.33,7.17-3.83,7.83-7.33,3.34-7.67,4.84-11.17,6.5-11.33,13.33-11.17,7.5-3.66,10.5-5.16,4.34-3.67,9.67-3.33,8.83.66,12.5-2.67,5.83-3.17,11.83-4.17,6.5-1.83,11.67-2.33,23.66-.5,26.83,1,3.83,3.17,8.33.67,8.17-6.17,15.34-6.34,19.66-.83,24.16-.5,12.67,2.17,15.5,10,8.34,7.5,12,9,9.34,6,16.17,7c4,.59,8.76.2,12.17,0,9.35-1.5,17.49-3.62,23.36-6.17a20.5,20.5,0,0,1-8.2-.81c-12-3.5-13-2.07-23-1.53s-15-1.47-22-11-22.5-18-42-16.5-14.5,6.5-23.5,6.5-16.5,0-24,2.5-11.5,1-14.5-.5-14.5.5-21,3.5a29.42,29.42,0,0,1-13.5,2.88c-3,.12-17.5,3.12-24.5,10.12s-15.5,12.5-15,17.5-1.66,4-1.16,7-1.5,5.33-2.84,4.33-2-1-3,2-2.83,5.17-4.83,5.17-3.83,2.17-6.33,1.33-3,.17-5.5-2.16-6-2.67-7.84,1.33-2.33,4.17-3.5,4.83.34,1.34-1,2.34-2.16-1.17-3.83,0,.34,1.83.67,4-2.67,4.66-4.84,5.66S90.22,353.27,93.72,352.44Z"/><path class="cls-5" d="M390.05,411.9c-.83,4.83-5.83,13.17-7.5,16.17s-.33,7.33-.83,11.83-1,7.84-1.33,13.67-5.34,10.51-8.17,13.84-8.5,7-11.33,8.84-4.17,3-4.34,5-1.66,2.33-4,4-2.5,2.84-2.5,5,.84,5.18-2.16,6.51-1.84,3-1.5,4.33-2,3.67-3.84,5.84-2.16,5-.33,7.17,1.5,3.83-2.83,6.5-7.17,6.34-9,8.51-2.67,3.5-6.34,3.66-7.33.84-8.83,2.34-3,1.83-6.33,2.33-2.5,1.33-1,3.33-7.84,2-13.34,1.84-12.66,0-13.5.83,1.34,3.33,3.34,5.5-.84,3.17-4,3.5-5.17.5-4.34,3-1.33,4.67-3.66,7.17-1.5,2-5.17,2.83-6.67.33-8.5,1.83-4,3.5-1.33,3.34,6.33-.5,11.66-1,4.84-1.5,5.17-4.17,4.5-2.83,7.5-3,4.33,0,3-2.17-2.33-4.16,0-4.83,5.67.33,6.67-1.33-3.34-2.67-2.84-3.5,5.5,1.83,5.17,0-1.83-2.67-1.33-3.67,6.33-.33,9,0,6.33,1.67,7.66,0,6-2.67,11.34-4.33,7.33-3.67,17.66-10.34,11.67-20.33,13.67-29.33,11.67-23.33,18.33-28.33,9-10.67,14.67-15.34,3.67-18,2.33-23.66,1-12,6.07-18.34,4.93-12,2.6-16-3.33-7-2-11.33a16,16,0,0,1,2.19-4c-3.26,3.73-6.48,7.69-9.71,11.7a27.26,27.26,0,0,0,2.69,4C390.89,404.06,390.89,407.06,390.05,411.9Z"/><path class="cls-5" d="M107.3,632.44c5-1.25,13-8.5,18-12.25s6.5-10.5,6.75-17.5,2-6.75,4.25-12.25c1.49-3.62,6-8.86,8.91-12a44.62,44.62,0,0,1-10.16,4.52l-1.18.36c-1.07,1.69-2.16,3.49-3.07,5.14-2.75,5-3.5,6.5-2.25,10.25s-.5,5.5-1.75,9.25-11.25,13-14.5,16.25-6,3.75-8.75,2-3.25,1.25-4.5,4.25S102.3,633.69,107.3,632.44Z"/><path class="cls-5" d="M281.05,644.94c13.5-5,24-21.5,28.5-29.5s10.75-18.25,15.5-26C329,583,348.78,558.35,355.48,550,350,553.74,342.19,559.2,334,565c-6.18,9.1-19.8,29.24-22.68,34.23-3.75,6.5-5.75,8.5-6.25,13.75s-5,8.25-7,10.75-4,2.25-8.25,8-13,10-18,11.25-8.75,1.75-13,3.25-7.75.5-15.5-.5a49.55,49.55,0,0,0-11.34,0c-3.25,3-6.23,5.77-8.32,7.86,3.44.09,8.21.13,11.66-.16,6-.5,12-2.5,18.25-1.75S267.55,649.94,281.05,644.94Z"/><path class="cls-5" d="M522.34,611.15c-2.92,2.89-9.42,9.31-12.29,11.79-3.75,3.25-5.25,6.5-7.25,11.75s-6,4.75-10,5.5-10.25-6-13-11.75-12.25-10.25-18-11.25-17.25-1-23.75,5a110.47,110.47,0,0,1-17.25,13.25c-4.25,2.5-2.25,4-1,7.75s-2.5,4.5-6.25,7-5.5,2-10.5.75-3.25,1.25-7.25,2.72-4,5-2.25,6.78-.5,1.75-4,3-3,4-6,6.25-10.25,5.75-13.75,8-3.5,1.75-6.25,1.25-7.25-.25-9.75,1-4.75,2-3.25,5,9.25,1.75,12.5,0,3.25-3.25,7.25-3.25,10.5-1.5,13.75-4.5,4.75-5,8-4.25,6-3.5,5.23-6.25,3.77-4.25,8.77-6.5a172.81,172.81,0,0,0,16.75-8.25c5-3,4-7,4-11.75s1-2.25,3.5-5.5,3.5-3.75,15-9.11,26,3.61,31.25,11.11,9,8.75,13.5,9.75,9-.75,13.75-4.25,6.5-6.25,11-13.25,15-11.41,19.25-12.75c5-1.54,10.56-9.82,12-13C540.37,605.25,530.84,608.63,522.34,611.15Z"/><path class="cls-4" d="M763.05,483.94s-9-8.5,0-26.5,15-52.5,15.5-78-4.5-69-28-95.5-47.5-38-65-46.5-25.75-6.75-31.25-6-9.25.5-3.5,3.75,8.5,3,15,4.25a57.51,57.51,0,0,1,26.5,12.5c9.75,8.25,35.75,34,46.25,64.75s19.75,69.25,20.5,83.25,1.75,43-1,53.25-4,17.75-1.5,23A19.7,19.7,0,0,0,763.05,483.94Z"/><path class="cls-2" d="M813.05,440.44s3.5-12.75-7.25-18.25-18.75-9.25-21.25-16.5-17.4-15.52-17.4-15.52l-4.1-1.48,1.25,45.75-2.75,15.5s9.5-25.75,15.25-31.75,5.09-6.58,6.75-5.75,6.5,7.17,11.5,8.67,10.84,4.33,12.67,6.83S813.72,436.82,813.05,440.44Z"/><path class="cls-6" d="M763.05,483.94s-6.83-6.46-2.63-20c.62-2,2.84-8.41,3.26-11a302.87,302.87,0,0,0,2.71-73.67c-2.15-23.25-14.22-64.95-31.34-94-11-18.67-25.3-29.24-41.87-38.83-16.84-9.74-22.75-10.58-29.13-11.83-1.53-.3-15.89-2.34-16.09-1.91s.58,1.21,2.84,2.49c5.75,3.25,8.5,3,15,4.25a57.51,57.51,0,0,1,26.5,12.5c9.75,8.25,35.75,34,46.25,64.75s19.75,69.25,20.5,83.25,1.75,43-1,53.25-4,17.75-1.5,23A19.7,19.7,0,0,0,763.05,483.94Z"/><path class="cls-6" d="M763.05,483.94s-9-8.5,0-26.5c5.43-10.85,9.77-27.71,12.46-45,1.78-11.36-17.21-26.53-16.46-12.53s1.75,43-1,53.25-4,17.75-1.5,23A19.7,19.7,0,0,0,763.05,483.94Z"/><path class="cls-4" d="M663.72,281.73c8-1.62,25.58-.29,34.58,4.46s16.75,13.83,21,25.91,4,17.34,2.25,18.09-11.75-5.5-25.25-11-34.58-8.75-42.91-8.25-17.59.74-16.84-4.75,3.25-10.5,8.5-15.25S655.72,283.35,663.72,281.73Z"/><path class="cls-6" d="M663.72,281.73c8-1.62,25.58-.29,34.58,4.46s16.75,13.83,21,25.91c2.59,7.36,3.51,12.19,3.44,15,0,0-5.55-8.75-7.69-14.29-1.87-4.88-6.25-9.63-8.75-12.05-3.89-3.77-11.12-8.29-19-11.62-7.28-3.09-14.94-3.21-21.4-3.33-5-.1-12.62,2.29-9.54-.38A20,20,0,0,1,663.72,281.73Z"/><path class="cls-6" d="M648.72,325.44s-1.66,3.66,2.5,9.83,12,13,21.17,15.33,18.33,3.18,24.66-1.66c0,0-5.33,2.33-16.83-1.84s-20.11-8.34-22.64-10.59S649.22,329.44,648.72,325.44Z"/><path class="cls-7" d="M707.05,322.11a26.83,26.83,0,1,1-26.83-26.84A26.83,26.83,0,0,1,707.05,322.11Z"/><path class="cls-8" d="M690.22,307.77c0,3.87-4,4.33-8.92,4.33s-8.91-.46-8.91-4.33,4-7,8.91-7S690.22,303.9,690.22,307.77Z"/><path class="cls-4" d="M993.05,171.94c-13-23.5-34.5-29-51-33.5s-76-17.5-121-23.5-110,1.5-136.5,6c0,0,33.6,19.3,51.17,24.89,24.92,7.92,67,28.44,115.47,31.55,11,.89,23,6.07,27.86,7.56s31,2.84,43.5-2c9.51-3.67,10.74-11.59,12.34-14.67s12.64-5.08,17.66-5.08c6,0,11.51,1.42,26.5,6.23S993.05,171.94,993.05,171.94Z"/><path class="cls-3" d="M925.05,174.44c0-2.5,0-31,11.5-46s16.5-29,28.5-39,14-22.83,14-26.16,0-4.67-4.33-8.34-6.33-.33-8.67,1.67-5.66,5.66-14,3.33-29-8.33-53-.33-19.33,6.33-29,9.67-30.33,14.66-36.66,31.66-8,38,13.66,55,29,21.67,34,23c0,0,16.34,2.17,25.17,1S925.05,174.44,925.05,174.44Z"/><path class="cls-4" d="M405,326.32c7.78-10.48,15.76-21.15,24.88-30.51S450,279,460.77,271.92c.8-.53.05-1.83-.76-1.3-10.85,7.14-22.06,14.79-31.15,24.13S411.6,315,403.74,325.57c-.58.77.73,1.52,1.3.75Z"/><path class="cls-4" d="M399,326.32c8.2-11,16.37-21.08,28.54-28,.84-.47.08-1.77-.76-1.29-12.39,7-20.72,17.25-29.07,28.5-.58.77.72,1.52,1.29.75Z"/><path class="cls-4" d="M353.7,382.82q10.91-18,22.3-35.68c4.74-7.33,9.46-14.73,14.79-21.65,6.32-8.2,13.57-15.76,20.76-23.19s14.51-15.51,22.88-21.71c.77-.57,0-1.87-.75-1.3-6.88,5.11-12.93,11.53-18.93,17.6-7.83,7.9-15.55,16-22.64,24.57-11.52,14-20.78,30-30.31,45.32q-4.74,7.62-9.39,15.28a.75.75,0,0,0,1.29.76Z"/><path class="cls-4" d="M416.94,328.14c.74-1.78,1.49-4.07,2.81-5.5.66-.71-.4-1.77-1.06-1.06-1.52,1.64-2.35,4.12-3.19,6.16-.37.89,1.08,1.28,1.44.4Z"/><path class="cls-4" d="M339.2,383.82c3.9-5.07,7.88-10.35,10.79-16.06a96.27,96.27,0,0,1,7.82-13.41c4.28-5.93,8.81-11.67,13.37-17.38,2.33-2.92,5.15-5.76,7.14-8.93a.77.77,0,0,0-.45-1.11h0a.78.78,0,0,0-.73.19c-.32.3-.57.68-.91,1l1.18.91c2.79-4,7-7.91,10.36-11.62,3.67-4,7.53-9.64,12.17-12.62.81-.53.06-1.82-.75-1.3-4.78,3.07-8.7,8.7-12.48,12.86-3.5,3.85-7.6,7.65-10.59,11.92-.52.74.57,1.44,1.18.91.2-.17.7-.58.76-.82.45-1.75-1.37-.4-1.64-.25-1.51.81-3.09,3.83-4.15,5.15-4.65,5.79-9.27,11.62-13.7,17.58-7.69,10.35-12.76,22-20.65,32.25-.59.77.71,1.51,1.29.76Z"/><path class="cls-4" d="M518.58,289.81c12.08-10.26,25-20.45,40.67-24.48a.75.75,0,0,0-.39-1.44C543,268,529.79,278.32,517.52,288.75c-.73.62.33,1.68,1.06,1.06Z"/><path class="cls-4" d="M494.58,298.25a70.22,70.22,0,0,1,16.69-10.49c.88-.38.12-1.68-.76-1.3a71.37,71.37,0,0,0-17,10.73c-.74.61.32,1.67,1.06,1.06Z"/><path class="cls-4" d="M486.77,296.26c7.4-3.49,14.75-7,22-10.84.85-.45.09-1.74-.76-1.29-7.25,3.8-14.59,7.35-22,10.83-.87.41-.11,1.7.76,1.3Z"/><path class="cls-4" d="M489.39,287.19c1.35-.15,2.69-.34,4-.55a15.34,15.34,0,0,0,5-1.22c.85-.46.09-1.76-.75-1.29A15,15,0,0,1,493,285.2c-1.21.19-2.42.35-3.63.49-.95.11-1,1.61,0,1.5Z"/><path class="cls-4" d="M457.92,389.3c7-6.87,14.7-12.28,22.86-17.67,8-5.28,16.81-12.41,26.31-14.63.94-.22.54-1.67-.4-1.45C497,357.81,488.15,365,480,370.34c-8.3,5.47-16,10.92-23.17,17.9-.69.68.37,1.74,1.06,1.06Z"/><path class="cls-4" d="M463.42,374.3c5.71-6.68,13.36-10.92,20.16-16.33.76-.6-.31-1.65-1.06-1.06-6.81,5.42-14.44,9.63-20.16,16.33-.63.73.43,1.8,1.06,1.06Z"/><path class="cls-4" d="M452.54,379.65c11.1-15,27-24.87,42.23-35.23.79-.54,0-1.84-.76-1.29-15.43,10.51-31.5,20.57-42.77,35.77-.57.77.73,1.52,1.3.75Z"/><path class="cls-4" d="M525.92,326.48c2.94-2.87,6.15-6,9.85-7.89.86-.44.1-1.73-.76-1.3-3.81,1.91-7.12,5.18-10.15,8.12-.7.68.37,1.74,1.06,1.07Z"/><path class="cls-4" d="M657.43,413.25c4-1.93,8.41-4.54,12.82-5.26,1-.15.55-1.6-.39-1.44-4.52.73-9.1,3.44-13.18,5.41-.87.42-.11,1.71.75,1.29Z"/><path class="cls-4" d="M663.93,416a33.44,33.44,0,0,1,9-4c.94-.21.55-1.65-.4-1.44a34.47,34.47,0,0,0-9.34,4.12.75.75,0,0,0,.75,1.3Z"/><path class="cls-4" d="M663.75,420c3.68-1.5,7.57-3.33,11.5-4,1-.16.55-1.6-.39-1.44-3.94.66-7.83,2.49-11.5,4-.89.36-.5,1.81.39,1.45Z"/><path class="cls-4" d="M672.77,424.25a18.55,18.55,0,0,1,7.45-2.23c1,0,1-1.53,0-1.5A20.28,20.28,0,0,0,672,423c-.86.43-.11,1.72.76,1.29Z"/><path class="cls-4" d="M675.25,430.33l8.67-2.67c.92-.28.53-1.73-.4-1.45l-8.66,2.67c-.92.28-.53,1.73.39,1.45Z"/><path class="cls-4" d="M676.5,439.85c4.59-1.93,9.19-4,13.92-5.52.91-.3.52-1.75-.4-1.45-4.73,1.54-9.33,3.6-13.91,5.53-.88.36-.5,1.82.39,1.44Z"/><path class="cls-4" d="M759.43,199.59c9.71-6.66,19.28-14.17,29.64-19.77,6.43-3.47,13.19-6.41,19.84-9.42,5.33-2.41,10.75-5.28,16.34-7.07.92-.29.53-1.74-.39-1.44-5,1.6-9.91,4.16-14.71,6.32-7.14,3.2-14.33,6.38-21.26,10-10.61,5.57-20.34,13.31-30.21,20.08-.8.54,0,1.84.75,1.29Z"/><path class="cls-4" d="M750.58,178.81c17-14.28,37-23.31,56.85-32.89.87-.41.11-1.71-.75-1.29-20,9.64-40.06,18.75-57.16,33.12-.74.62.33,1.68,1.06,1.06Z"/><path class="cls-4" d="M750.58,184.81a128.24,128.24,0,0,1,24-17.42c9.18-5.14,18.89-10.42,29.48-11.7,1-.11,1-1.61,0-1.5-10.4,1.26-19.81,6.17-28.87,11.15a131.84,131.84,0,0,0-25.66,18.41c-.71.65.35,1.71,1.06,1.06Z"/><path class="cls-4" d="M764.58,190.14c6.34-5,13.58-11.57,21.34-14.14.91-.3.52-1.75-.4-1.45-8,2.67-15.42,9.34-22,14.53-.75.6.32,1.65,1.06,1.06Z"/><path class="cls-4" d="M747.92,192.81c5.76-5.23,12-11.8,19.78-13.81a.75.75,0,0,0-.4-1.45c-8,2.08-14.5,8.81-20.44,14.2-.72.65.34,1.71,1.06,1.06Z"/><path class="cls-4" d="M914.92,194c7.09-1.1,13.48-2.06,17.78-8.34.55-.8-.75-1.55-1.29-.76-4,5.85-10.37,6.64-16.89,7.65-.95.15-.54,1.6.4,1.45Z"/><path class="cls-4" d="M916.92,202c8.19-2.88,15.57-5.87,22-11.86.71-.66-.36-1.72-1.06-1.06-6.22,5.78-13.45,8.7-21.34,11.47-.9.32-.51,1.77.4,1.45Z"/><path class="cls-4" d="M916.92,189a35.34,35.34,0,0,0,15.67-8.19c.72-.63-.34-1.69-1.06-1.06a33.66,33.66,0,0,1-15,7.8c-.94.2-.54,1.64.4,1.45Z"/><path class="cls-4" d="M892.31,305.66a68.08,68.08,0,0,1-1.34,7.5c-.44,1.83-1.27,3.55-1.72,5.35-.19.75.44,1.93-.34.4-4.55-8.94-1.58-20.41,4.68-27.78.62-.73-.44-1.79-1.06-1.06a29.49,29.49,0,0,0-7.23,18.68c0,3.51.19,9.54,3.23,12.05a.75.75,0,0,0,1.17-.15c2.88-4.17,3.51-10.07,4.11-15,.11-1-1.39-1-1.5,0Z"/><path class="cls-4" d="M345.3,584.8a79.77,79.77,0,0,1,22.47-14.57c8.7-3.86,18.06-8.76,27.48-10.57.95-.18.55-1.62-.39-1.44-9.55,1.83-19,6.8-27.85,10.71a81,81,0,0,0-22.77,14.81c-.71.66.36,1.72,1.06,1.06Z"/><path class="cls-4" d="M359,583.92c5.8-3.39,11.68-7,17.9-9.59.88-.36.49-1.81-.4-1.45-6.35,2.63-12.34,6.28-18.26,9.75a.75.75,0,0,0,.76,1.29Z"/><path class="cls-4" d="M171.43,509.26a248.79,248.79,0,0,0,20.45-15c7.24-6.1,14.17-12.13,22.16-17.31.81-.52.06-1.82-.75-1.3a170.89,170.89,0,0,0-21,16.33c-6.64,5.95-14.2,11-21.56,16-.8.54-.05,1.84.75,1.3Z"/><path class="cls-4" d="M182.43,509.59c12-8.58,23.88-18.25,36.67-25.67a.75.75,0,0,0-.76-1.29c-12.79,7.41-24.63,17.09-36.66,25.66-.78.56,0,1.86.75,1.3Z"/><path class="cls-4" d="M198.08,508a95.92,95.92,0,0,1,10.67-9.27c3.4-2.46,7.35-4.18,10.5-7,.73-.64-.34-1.7-1.06-1.06-3.48,3.09-7.91,4.95-11.59,7.79a109.92,109.92,0,0,0-9.58,8.46.75.75,0,0,0,1.06,1.06Z"/><path class="cls-4" d="M637.18,537.59c5.21-3.65,11.33-7.43,15.4-12.37.62-.74-.44-1.8-1.06-1.06-4,4.86-10,8.54-15.09,12.13-.79.55,0,1.85.75,1.3Z"/><path class="cls-4" d="M631.58,539q3.64-2.82,7.17-5.78c2.92-2.45,6.28-5,8.45-8.12.55-.8-.75-1.55-1.29-.76-2.21,3.22-5.77,5.79-8.74,8.26-2.19,1.81-4.4,3.6-6.65,5.34-.76.59.31,1.65,1.06,1.06Z"/><path class="cls-4" d="M627.93,537.59q3.71-2.54,7.32-5.19c2.22-1.63,5.85-3.58,7.2-6.08.46-.85-.83-1.61-1.29-.76a9.91,9.91,0,0,1-2.62,2.46c-1.62,1.31-3.31,2.55-5,3.77q-3.16,2.3-6.37,4.5c-.8.55,0,1.85.75,1.3Z"/><path class="cls-4" d="M550.75,569.41c8.46-3.41,16.92-6.84,25.22-10.62,3.95-1.8,7.7-4,11.59-5.88,4.21-2.06,11-4.2,13.64-8.34.53-.81-.77-1.56-1.29-.76-2.78,4.27-10.76,6.64-15.13,8.8-3.48,1.73-6.81,3.65-10.36,5.24-7.93,3.57-16,6.86-24.06,10.12-.89.35-.5,1.81.39,1.44Z"/><path class="cls-4" d="M567.93,557.09c4.77-2.59,9.51-5.22,14.25-7.85s11.65-4.66,15.4-8.77c.66-.71-.4-1.77-1.06-1.06-3.76,4.12-10.84,6.15-15.67,8.86q-6.81,3.81-13.67,7.52c-.85.46-.1,1.76.75,1.3Z"/><path class="cls-4" d="M522.68,569.34c11.36-5.55,23.36-10.48,33.75-17.75.79-.55,0-1.85-.75-1.3-10.4,7.27-22.39,12.2-33.75,17.75-.87.43-.11,1.72.75,1.3Z"/></g></g></svg>