<svg xmlns="http://www.w3.org/2000/svg" viewBox="0 0 1000.56 717.93"><defs><style>.cls-1{fill:#494c4e;}</style></defs><title>cuttlefish-shadow</title><g id="圖層_2" data-name="圖層 2"><g id="cuttlefish-shadow"><path class="cls-1" d="M993.05,171.94c-13-23.5-34.5-29-51-33.5-2.43-.66-5.8-1.51-9.92-2.49a39.67,39.67,0,0,1,4.42-7.51c11.5-15,16.5-29,28.5-39s14-22.83,14-26.16,0-4.67-4.33-8.34-6.33-.33-8.67,1.67-5.66,5.66-14,3.33-29-8.33-53-.33l-8,2.67c2.69-5.2,8.57-15.92,13.1-19.84,6.08-5.25,16.17-28.75,16.67-35.75s0-7.5-5-6-6.5,3-18.75,6.25S857.3,21.19,846.8,26.69s-31.25,17-42,27.75a52.9,52.9,0,0,0-15.25,30.5c-1.25,8.25-1.25,11.25,1.25,15.5A117,117,0,0,1,796.44,113c-41.55-1.54-89.93,4.24-111.89,8-26.5,4.5-80,19.5-108,34.5s-46,33-54.5,47.5-8.5,23-8.5,23-30.49,1.68-57.49,12.68S382.72,289.28,374.39,297a26.45,26.45,0,0,1-7.14,4.3,20.5,20.5,0,0,1-8.2-.81c-12-3.5-13-2.07-23-1.53s-15-1.47-22-11-22.5-18-42-16.5-14.5,6.5-23.5,6.5-16.5,0-24,2.5-11.5,1-14.5-.5-14.5.5-21,3.5a29.42,29.42,0,0,1-13.5,2.88c-3,.12-17.5,3.12-24.5,10.12s-15.5,12.5-15,17.5-1.66,4-1.16,7-1.5,5.33-2.84,4.33-2-1-3,2-2.83,5.17-4.83,5.17-3.83,2.17-6.33,1.33-3,.17-5.5-2.16-6-2.67-7.84,1.33-2.33,4.17-3.5,4.83.34,1.34-1,2.34-2.16-1.17-3.83,0,.34,1.83.67,4-2.67,4.66-4.84,5.66-1.83,3.5,1.67,2.67,8.67-1.67,10.33-3.5,2-1.67,3.67-2.83-2.83-4.17-.17-4.34,3-2.66,4.5-2.5,3.34,2,7.67,0,4.33-3,11.5-5.33,7.17-3.83,7.83-7.33,3.34-7.67,4.84-11.17,6.5-11.33,13.33-11.17,7.5-3.66,10.5-5.16,4.34-3.67,9.67-3.33,8.83.66,12.5-2.67,5.83-3.17,11.83-4.17,6.5-1.83,11.67-2.33,23.66-.5,26.83,1,3.83,3.17,8.33.67,8.17-6.17,15.34-6.34,19.66-.83,24.16-.5,12.67,2.17,15.5,10,8.34,7.5,12,9,9.34,6,16.17,7c4,.59,8.75.2,12.17,0A209.64,209.64,0,0,1,311.06,310c-27.67,0-65,11.66-90.34,21s-60,28.66-77.66,41.33-26.34,26-36,30-15,1-29-10.34-28.67-5.66-37.67,1-14.34,19.33-15,33,2.33,19.33,2.33,19.33c2.34,1.34,3,8.34-5.67,20.67s-15,24-20,41.32,0,27.67,5.67,32.67,15.67,5,15.67,5a52.68,52.68,0,0,1-7.67,9.33c-4.33,4-1.33,7,4.67,5.33a47.71,47.71,0,0,1,13-1.33c-4,12,4,31,10.66,42.33s-1,17.34-6.33,24.67-.33,9.67,13.33,14.67,30.34,2.67,30.34,2.67c-2.67,1.66-3.67,4,0,5.66a125.73,125.73,0,0,0,27.66,7.34c10.67,1.33,25-.67,25-.67-9,5.33-26.33,25-30.66,33s-4,14.67,0,19.33,18,12.34,26.66,10.34,27-9.67,39-16.34,29.67-20.66,29.67-20.66,11-1,21.33-1.67,20,1.67,33.67,1.67,21.33-3.67,21.33-3.67,15.34-1.33,29-2,47.67-3.66,65-4.1a75.49,75.49,0,0,0,15-1.53,4.57,4.57,0,0,1-.47.38c-3,2.25-10.25,5.75-13.75,8s-3.5,1.75-6.25,1.25-7.25-.25-9.75,1-4.75,2-3.25,5,9.25,1.75,12.5,0,3.25-3.25,7.25-3.25,10.5-1.5,13.75-4.5,4.75-5,8-4.25c2.32.53,4.37-1.47,5.09-3.66,1.69.34,3.64.73,5.91,1.16,10.5,2,25.5-4,38.5-9,9.41-3.62,28.74-10.63,44.21-16.29a24.05,24.05,0,0,0,4.29,1.29c4.5,1,9-.75,13.75-4.25a27.52,27.52,0,0,0,5.77-5.53c13.67-4,30.75-6.36,45.48-.22,18,7.5,45-.5,58-5.5s28-17.5,26-14-.5,10,4,6.5,46-41,56.5-48,63-50,85-71.5,28.5-63.5,28.5-63.5c29-3,56-27,74-46.5s47.5-72,51-88.5,21.5-42.5,26.5-57,22-29,28.5-33.5S1006.05,195.44,993.05,171.94ZM797.64,89.71v0Zm18.29,24.62.39,0Zm11.55,1.5h0Zm-29-15.38v0ZM798.33,99a1.1,1.1,0,0,1,0-.18A1.1,1.1,0,0,0,798.33,99Zm-.18-1.44,0-.28ZM798,96.13l0-.33Zm-.13-1.48c0-.13,0-.26,0-.39C797.84,94.39,797.85,94.52,797.87,94.65Zm-.11-1.48,0-.43Zm-.08-1.49c0-.16,0-.31,0-.46C797.67,91.37,797.68,91.52,797.68,91.68Zm0-2.94c0-.17,0-.35,0-.52C797.64,88.39,797.64,88.57,797.64,88.74Zm0-1.45,0-.52Zm.08-1.42c0-.17,0-.35,0-.52C797.78,85.52,797.77,85.7,797.75,85.87Zm.13-1.38.06-.52Zm.18-1.34c0-.17.05-.35.08-.52C798.11,82.8,798.09,83,798.06,83.15Zm.24-1.3c0-.16.06-.33.1-.49C798.36,81.52,798.33,81.69,798.3,81.85Zm.29-1.24c0-.16.08-.32.13-.47C798.67,80.29,798.63,80.45,798.59,80.61Zm.36-1.19c0-.14.09-.29.15-.42C799,79.13,799,79.28,799,79.42Zm.45-1.15c.05-.12.09-.23.14-.34C799.49,78,799.45,78.15,799.4,78.27ZM567.6,530.76c-4.61.7-14.25,3.76-25.21,7.87,11-4.11,20.58-7.16,25.2-7.87h0l1.42-.15S568.5,530.65,567.6,530.76ZM290.08,507.6l1.28-1.13Zm2-1.78,1.32-1.16Zm6.33-5.59,2.4-2.14ZM301,498l.92-.82Zm1.66-1.48.72-.65Zm-8.38,7.44,2-1.78Zm2.54-2.24,1.2-1.07Zm-3.28,2.9s-2.12,1.52-4.28,3.17c2.16-1.66,4.27-3.16,4.28-3.17Zm-4.26,3.73-1.31,1.14Zm-9,7.8,1.2-1Zm2.31-2c.4-.34.81-.68,1.2-1C283.32,513.47,282.91,513.81,282.51,514.15Zm2.06-1.76c.85-.75,1.7-1.48,2.54-2.21C286.27,510.91,285.42,511.64,284.57,512.39Zm240.74,33.09-2.73,1.17Zm-2.8,1.21c-2.77,1.2-5.49,2.43-8.1,3.66C517,549.12,519.74,547.89,522.51,546.69Zm-8.22,3.71-2.44,1.16Zm-2.65,1.27c-.78.37-1.55.75-2.31,1.13C510.09,552.42,510.86,552,511.64,551.67Zm-2.56,1.25L506.9,554Zm-2.45,1.24-2.05,1.08Zm-2.34,1.23-1.93,1.06Zm-2.2,1.2-1.82,1Zm-2,1.18-1.71,1Zm-1.89,1.14q-.84.51-1.59,1Q497.31,559.42,498.15,558.91Zm70.17-28.25h0Zm-12.68,2.24,1-.25Zm1.24-.32.78-.19Zm1-.25,1-.22Zm1.1-.24,1-.19Zm1.23-.24.85-.16Zm1-.19,1-.17Zm1.17-.2.82-.13Zm1.12-.17.68-.1Zm.94-.14.79-.11Zm1.18-.16.36,0Zm.81-.1.11,0Zm-24.12,7.75c-.9.33-1.8.68-2.72,1C540.58,539.32,541.48,539,542.38,538.64Zm-2.8,1.06-2.69,1Zm-2.85,1.1-2.68,1.07Zm-2.85,1.13-2.7,1.09ZM531,543.1l-2.71,1.11Zm-2.85,1.17-2.72,1.15ZM276.61,519.2l-1.11.94Zm2.43-2.07-1.18,1Zm-6.59,5.58,1.22-1Zm-5.08,4.22,1.05-.87Zm2.43-2,1.05-.87Zm-10.23,8.36.71-.57Zm3-2.42.78-.64Zm2.38-1.94,1-.82Zm-7.89,6.34.87-.68Zm-6.91,5.34.17-.13Zm2.34-1.78.74-.56Zm2.25-1.74.86-.67Zm240.14,24c-.48.34-.92.68-1.34,1C494,561.75,494.41,561.41,494.89,561.07Zm1.53-1.05c-.51.33-1,.67-1.46,1C495.42,560.69,495.91,560.35,496.42,560Zm-248.2-18-.68.5Zm-2.07,1.51-.72.53Zm-2,1.45-.68.47Zm-2.1,1.45-.44.31Zm-2.2,1.47-.43.27ZM238.17,549l-.56.34Zm-1.58.95-.54.3Zm-1.51.84-.44.23Zm373.73,13.92-.16.1ZM367.24,301.25q-2.19.94-4.79,1.82Q365,302.2,367.24,301.25Zm-4.82,1.83c-1.72.58-3.56,1.12-5.5,1.64C358.86,304.2,360.7,303.66,362.42,303.08Zm-11.81,3.11c-2.14.44-4.38.85-6.68,1.23C346.23,307,348.47,306.63,350.61,306.19Zm6.23-1.45c-1.94.51-4,1-6.12,1.43C352.85,305.72,354.9,305.25,356.84,304.74ZM619.89,557.43c-3.75,2.83-10.41,8.56-16.71,13.94,6.3-5.38,13-11.11,16.71-13.94h0l2.66-1.74Zm-25.08,21,.27-.22Zm1.65-1.36.3-.25Zm1.69-1.42.12-.1Zm1.65-1.4.39-.32Zm1.85-1.56.59-.51Zm19.85-16.4,0,0ZM622,556l.11-.07Z"/></g></g></svg>