<svg xmlns="http://www.w3.org/2000/svg" viewBox="0 0 183.9 40.1"><defs><style>.cls-1{fill:#f1ecce;}</style></defs><title>cuttlefish_name</title><g id="圖層_2" data-name="圖層 2"><g id="cuttlefish_name"><path class="cls-1" d="M1.52,11.77C.9,16.36.29,21,0,25.6c-.12,1.93,2.89,1.92,3,0,.17-2.69.47-5.36.79-8,.14-1.16.28-2.31.43-3.47l.2-1.53c.25-1.89-2.64-2.71-2.9-.8Z"/><path class="cls-1" d="M4.22,14.93c1.14-.56,5.2-2.76,6.34-1.67.62.58-.39,3-.8,3.89a20.5,20.5,0,0,1-3.51,5.23A11.27,11.27,0,0,1,4.44,24c-.69.47-.47,0-.18.41-1-1.62-3.64-.11-2.59,1.51,3.39,5.23,9.83-5.29,10.92-7.75.92-2.06,2-5.2,0-7-2.61-2.49-7.38,0-9.92,1.26-1.73.85-.21,3.44,1.52,2.59Z"/><path class="cls-1" d="M22,7.08c6.22-.13,4.06,3.5,1.38,6.72a1.51,1.51,0,0,0,.3,2.35c1.28.76,3.15,1.66,4.06,2.91,2.63,3.62-.26,5.88-2.84,7.61s-5.83,3.47-9,3.54c-1.93,0-1.93,3,0,3,5.13-.12,12-3.57,14.83-8,3.37-5.27-1.19-9.1-5.53-11.69l.31,2.36c1.8-2.17,4.86-5.39,4.15-8.52C28.91,4,24.76,4,22,4.08c-1.93,0-1.94,3,0,3Z"/><path class="cls-1" d="M17.35,22.26c2.88,1.86,5.66,3.88,8.46,5.86,2,1.43,4.15,3.36,6.44,4.39,1.74.79,3.27-1.79,1.51-2.59-2.28-1-4.4-3-6.44-4.39-2.8-2-5.58-4-8.45-5.86-1.63-1.06-3.13,1.54-1.52,2.59Z"/><path class="cls-1" d="M17.64,12.5,7.87,38.14l2.9.8.33-.86c.75-1.76-1.84-3.29-2.59-1.51-.22.52-.45,1-.64,1.57-.65,1.84,2.22,2.58,2.9.8L20.53,13.3c.69-1.8-2.21-2.58-2.89-.8Z"/><path class="cls-1" d="M41.89,17.19c5.33-1.92,10.76-3.64,15.92-6,1.75-.81.23-3.4-1.52-2.6-4.92,2.27-10.11,3.88-15.2,5.72-1.8.65-1,3.55.8,2.89Z"/><path class="cls-1" d="M46.3,13.84a143.47,143.47,0,0,1-1.07,18.77l2.94.4.23-1.8c.24-1.91-2.76-1.89-3,0L45.17,33c-.2,1.66,2.73,2.07,2.95.4A150.53,150.53,0,0,0,49.3,13.84a1.5,1.5,0,0,0-3,0Z"/><path class="cls-1" d="M49,21c4-.67,8-2.08,12.08-1.71,2.54.23,3.47,1.3,3,3.82a21.18,21.18,0,0,1-2.73,7.75C60.35,32.52,63,34,64,32.42c2.37-3.62,5.88-12.5.65-15.25-4.77-2.51-11.52.14-16.42,1-1.9.32-1.09,3.21.8,2.89Z"/><path class="cls-1" d="M53.29,19.48c0,2.36-.45,4.73-.69,7.07-.17,1.6-.85,4.1.23,5.49s3.3-.61,2.12-2.12c.78,1,.22.83.36.07.08-.45,0-.95.09-1.41.09-1.09.21-2.17.33-3.25.21-1.94.52-3.9.56-5.85s-3-1.93-3,0Z"/><path class="cls-1" d="M59,20.66c-1.23,3.24-3,7.62-5.85,9.7-1.55,1.13-.05,3.73,1.52,2.59,3.63-2.62,5.67-7.42,7.23-11.49.69-1.81-2.21-2.59-2.9-.8Z"/><path class="cls-1" d="M43.07,35.7c9-.34,17.84-1.9,26.83-2a1.5,1.5,0,0,0,0-3c-9,.13-17.86,1.69-26.83,2-1.93.08-1.94,3.08,0,3Z"/><path class="cls-1" d="M79.86,7.34,94.08,3.52a1.5,1.5,0,0,0-.8-2.89L79.06,4.45a1.5,1.5,0,0,0,.8,2.89Z"/><path class="cls-1" d="M81.78,5.32,81.14,21c-.08,1.93,2.92,1.92,3,0l.64-15.71c.08-1.93-2.92-1.93-3,0Z"/><path class="cls-1" d="M84.07,10.59c2.6-.71,6-2.27,8.72-1.63,3.83.91,1,7.78-.19,9.82a1.5,1.5,0,0,0,2.59,1.52c2-3.39,4.34-10.5.3-13.4-3.43-2.45-8.66-.17-12.22.79a1.51,1.51,0,0,0,.8,2.9Z"/><path class="cls-1" d="M84.8,16.8,93,15.68c1.9-.26,1.09-3.15-.8-2.89L84,13.91c-1.91.26-1.1,3.15.79,2.89Z"/><path class="cls-1" d="M88.57,9.14a43.49,43.49,0,0,1-1.14,9.58c-.44,1.88,2.45,2.68,2.89.8A47.14,47.14,0,0,0,91.57,9.14a1.5,1.5,0,0,0-3,0Z"/><path class="cls-1" d="M83.68,22.47A83.75,83.75,0,0,1,93.9,21c1.91-.15,1.92-3.15,0-3a89.06,89.06,0,0,0-11,1.54c-1.89.39-1.09,3.29.8,2.89Z"/><path class="cls-1" d="M87.57,18.29c-2.23,6.85-6.42,12.7-9.83,19-.92,1.7,1.67,3.22,2.59,1.52,3.54-6.5,7.82-12.58,10.13-19.68.6-1.84-2.3-2.63-2.89-.8Z"/><path class="cls-1" d="M88.79,21.88c-.06,6.17-1,14.33,7,15.12,3.74.37,14.31.13,10.86-6.33-.9-1.7-3.5-.19-2.59,1.52,1.25,2.34-7.68,2-9.09,1.7-4.63-.93-3.21-8.56-3.18-12a1.5,1.5,0,0,0-3,0Z"/><path class="cls-1" d="M96.27,21.69a31.06,31.06,0,0,0-1.54,7.62,1.51,1.51,0,0,0,1.5,1.5c2.66-.18,3.9-2.11,5.85-3.6l-2.2-.9,1.27,3.82c.61,1.82,3.51,1,2.89-.8-.42-1.27-.84-2.54-1.27-3.82-.27-.81-1.38-1.52-2.2-.89-1.26.95-2.67,3.07-4.34,3.19l1.5,1.5a28,28,0,0,1,1.43-6.82,1.5,1.5,0,0,0-2.89-.8Z"/><path class="cls-1" d="M117,4.88c4.61-.46,9.19-1.26,13.77-2,1.9-.29,1.09-3.18-.8-2.89-4.31.66-8.63,1.43-13,1.86-1.91.18-1.93,3.19,0,3Z"/><path class="cls-1" d="M119.06,4.23a82.21,82.21,0,0,1-1.44,17.22c-.34,1.89,2.55,2.69,2.9.8a86.56,86.56,0,0,0,1.54-18c0-1.93-3-1.94-3,0Z"/><path class="cls-1" d="M122.65,8.22a14.42,14.42,0,0,1,3.84-.64c1.8.11,1,1.7-.39,2-1.89.4-1.09,3.29.8,2.9,3-.64,5.21-4.65,2.44-7-2-1.71-5.17-.71-7.48-.18-1.88.43-1.09,3.32.79,2.89Z"/><path class="cls-1" d="M122.23,13.32a18,18,0,0,1,2.7-.57l1.27-.19c.44-.06-.2,0,.11,0l.19,0A1.55,1.55,0,0,0,128,11a1.51,1.51,0,0,0-1.5-1.5,29.12,29.12,0,0,0-5.07.9c-1.83.58-1.05,3.48.8,2.9Z"/><path class="cls-1" d="M122,18c2-.41,4.1-.79,6.18-1,1.9-.2,1.92-3.21,0-3-2.35.25-4.67.65-7,1.11-1.89.38-1.09,3.27.8,2.9Z"/><path class="cls-1" d="M119.47,23.72a60.39,60.39,0,0,1,11.75-2.34c1.66-.11,5.82-.43,3.87,2.35-1.26,1.79-4.72,3.34-6.85,2.61-1.84-.62-2.62,2.28-.8,2.9,4.48,1.52,15.61-5,9.9-9.78-2.22-1.84-6.18-1.15-8.75-.79a80.47,80.47,0,0,0-9.92,2.16,1.5,1.5,0,0,0,.8,2.89Z"/><path class="cls-1" d="M117,25.48c-1.23,4-2.13,8-4.1,11.74l2.59,1.52.64-1.28c.86-1.72-1.73-3.24-2.59-1.51-.21.42-.42.85-.64,1.27-.86,1.72,1.68,3.23,2.59,1.52,2.09-3.94,3.1-8.23,4.4-12.46.57-1.85-2.32-2.64-2.89-.8Z"/><path class="cls-1" d="M120.75,25.86a32,32,0,0,1,.63,12.36c-.27,1.89,2.62,2.7,2.9.8a36.07,36.07,0,0,0-.64-14c-.46-1.88-3.36-1.08-2.89.8Z"/><path class="cls-1" d="M125.27,25.64c1.19,3.51,2.08,6.89.78,10.52-.65,1.82,2.25,2.6,2.9.79,1.46-4.09.56-8.12-.79-12.11-.62-1.81-3.51-1-2.89.8Z"/><path class="cls-1" d="M130.51,24.73c1.92,3.95,1.91,8.61,1.13,12.85-.35,1.89,2.54,2.7,2.89.8.94-5.1.87-10.43-1.43-15.17-.84-1.73-3.43-.21-2.59,1.52Z"/><path class="cls-1" d="M147.63,11.34a67.57,67.57,0,0,1-1.43,15.73c-.4,1.89,2.5,2.69,2.89.8a70.62,70.62,0,0,0,1.54-16.53c-.06-1.93-3.06-1.94-3,0Z"/><path class="cls-1" d="M150.59,12.78c1.83-.6,4.11-1.24,5.27.78a7.64,7.64,0,0,1,.69,4,30.41,30.41,0,0,1-.43,4,15.89,15.89,0,0,0-.42,2.12,8.46,8.46,0,0,1-.24.82c-.35.64.12.61,1.43-.09-1.65-1-3.15,1.58-1.51,2.59,3.72,2.3,4.14-8.06,4.18-9.69.06-2.34-.41-5-2.18-6.73-2.1-2-5.07-1.6-7.59-.76-1.82.61-1,3.51.8,2.89Z"/><path class="cls-1" d="M150.38,17.88a20.84,20.84,0,0,1,4.69-.8c1.93,0,1.94-3,0-3a25,25,0,0,0-5.49.91c-1.87.46-1.08,3.36.8,2.89Z"/><path class="cls-1" d="M150.8,23.19a26.71,26.71,0,0,1,4.46-1.28c1.89-.4,1.09-3.3-.8-2.89A26.68,26.68,0,0,0,150,20.29a1.55,1.55,0,0,0-1,1.85,1.5,1.5,0,0,0,1.84,1.05Z"/><path class="cls-1" d="M148,28.92a34.61,34.61,0,0,1,8.09-1.65c1.93,0,1.94-3,0-3A38.27,38.27,0,0,0,147.24,26a1.5,1.5,0,0,0,.8,2.89Z"/><path class="cls-1" d="M152.31,26.2a100.7,100.7,0,0,0-7.45,9.86c-1,1.63,1.56,3.14,2.59,1.51a93.45,93.45,0,0,1,7-9.25c1.22-1.48-.89-3.61-2.13-2.12Z"/><path class="cls-1" d="M152.31,28.75c1.73,1.59,3.78,4.19,4.29,6.55.4,1.89,3.3,1.09,2.89-.8a12.58,12.58,0,0,0-1.86-3.85,20.08,20.08,0,0,0-3.19-4c-1.42-1.31-3.55.81-2.13,2.13Z"/><path class="cls-1" d="M162.72,15.17c4.09-.51,8.18-1.1,12.27-1.67,1.9-.27,1.09-3.16-.8-2.9-3.82.54-7.65,1.09-11.47,1.57-1.89.24-1.92,3.25,0,3Z"/><path class="cls-1" d="M161.87,24.3c2.85-.38,6-.64,8.67-1.75,1.76-.73,1-3.64-.79-2.89a22,22,0,0,1-4.67,1.13c-.77.14-1.54.26-2.32.38-.22,0-1.66.23-.89.13-1.89.25-1.91,3.26,0,3Z"/><path class="cls-1" d="M164.45,18.37c-.29,1.77-.62,3.53-.91,5.3-.21,1.32-.9,3.28,0,4.44,1.22,1.5,3.33-.63,2.13-2.12,1,1.19.23,1.07.45.44a4.83,4.83,0,0,0,.12-.85c.12-.77.25-1.55.38-2.32.23-1.36.48-2.73.71-4.09.31-1.89-2.58-2.7-2.9-.8Z"/><path class="cls-1" d="M169.92,8.58c.09,7.37,1.23,15,4.66,21.56a1.53,1.53,0,0,0,2,.54,22.87,22.87,0,0,0,6.89-5.76c1.24-1.46-.87-3.59-2.12-2.12a21,21,0,0,1-6.28,5.29l2,.54c-3.18-6.12-4.17-13.23-4.25-20a1.5,1.5,0,0,0-3,0Z"/><path class="cls-1" d="M176.34,3c.43,2.93,1.38,5.78,1.65,8.73.17,1.91,3.17,1.93,3,0-.3-3.23-1.28-6.32-1.76-9.52-.28-1.91-3.17-1.1-2.89.79Z"/><path class="cls-1" d="M177.55,17.16a86.66,86.66,0,0,0-11.61,19.89c-.71,1.8,2.19,2.58,2.89.8,2.6-6.63,7-13.56,11.31-19.17,1.18-1.54-1.43-3-2.59-1.52Z"/></g></g></svg>