<svg xmlns="http://www.w3.org/2000/svg" viewBox="0 0 543.98 543.64"><defs><style>.cls-1{fill:none;stroke:#fff;stroke-miterlimit:10;}</style></defs><title>dumbooctopus-line</title><g id="圖層_2" data-name="圖層 2"><g id="dumbooctopus-line"><path class="cls-1" d="M102.22,106.56s-11.83,19.63-37.57,30.35-34.87,11.27-44.52,16.63-2.15,7,15,3.75,43.44-10.72,54.7-15.55S102.22,106.56,102.22,106.56Z"/><path class="cls-1" d="M41.31,245.52C54.37,207.77,75.1,152.2,98.44,112.78S158,33.13,193.37,21.06s90.91-33.79,146.42-9.65,66,56.31,74.82,90.91-24.14,106.19-35.4,123.89-19.31,26.55-17.7,58.73S377.6,352.52,372,385.51s-18.5,66.77-14.48,81.25-8.05,20.92-23.33,29-41,33-55.51,36.2-18.51-8.85-37.82-4.83-28.15-3.22-29-9.65,5.1-5.64,5.1-5.64,1.61-8,6.43-8,2-10.73,5.31-15,9.71-6.43,9.71-6.43c-8.31-10.73-9.71-32.18-9.71-32.18-7.72,17.7-37,26.55-45.53,25.2-3.18-.5-4.29-9.65-4.29-9.65s-13.95,12.87-13.95,18.23-1.61,11.8-4.29,11.8.54,17.17.54,22-5.9,23.07-8.58,25.21-4.83-12.33-5.37-21.45-14.48,2.68-15.55-5.9-5.9-5.9-8.58-9.66-.54-2.68-9.66-7-5.9-23.06-5.9-23.06S85,478.56,80.74,473.2c0,0-1.61,5.36,2.14,8.58s5.37,11.26-.54,10.73S56.6,495.72,53.92,492s-3.22-1.61-7.51-6.44-2.68,2.15-15-7-5.9-14.48-14.48-20.92S.28,433,1.89,411.52s-3.63-36.47-.2-57.39S37.43,256.75,41.31,245.52Z"/><path class="cls-1" d="M41.31,245.52C54.37,207.77,75.1,152.2,98.44,112.78S158,33.13,193.37,21.06s90.91-33.79,146.42-9.65,66,56.31,74.82,90.91-24.14,106.19-35.4,123.89-19.31,26.55-17.7,58.73S377.6,352.52,372,385.51s-18.5,66.77-14.48,81.25-8.05,20.92-23.33,29-41,33-55.51,36.2-18.51-8.85-37.82-4.83-28.15-3.22-29-9.65,5.1-5.64,5.1-5.64,1.61-8,6.43-8,2-10.73,5.31-15,9.71-6.43,9.71-6.43c-8.31-10.73-9.71-32.18-9.71-32.18-7.72,17.7-37,26.55-45.53,25.2-3.18-.5-4.29-9.65-4.29-9.65s-13.95,12.87-13.95,18.23-1.61,11.8-4.29,11.8.54,17.17.54,22-5.9,23.07-8.58,25.21-4.83-12.33-5.37-21.45-14.48,2.68-15.55-5.9-5.9-5.9-8.58-9.66-.54-2.68-9.66-7-5.9-23.06-5.9-23.06S85,478.56,80.74,473.2c0,0-1.61,5.36,2.14,8.58s5.37,11.26-.54,10.73S56.6,495.72,53.92,492s-3.22-1.61-7.51-6.44-2.68,2.15-15-7-5.9-14.48-14.48-20.92S.28,433,1.89,411.52s-3.63-36.47-.2-57.39S37.43,256.75,41.31,245.52Z"/><path class="cls-1" d="M41.31,245.52C54.37,207.77,75.1,152.2,98.44,112.78S158,33.13,193.37,21.06s90.91-33.79,146.42-9.65,66,56.31,74.82,90.91-24.14,106.19-35.4,123.89-19.31,26.55-17.7,58.73S377.6,352.52,372,385.51s-18.5,66.77-14.48,81.25-8.05,20.92-23.33,29-41,33-55.51,36.2-18.51-8.85-37.82-4.83-28.15-3.22-29-9.65,5.1-5.64,5.1-5.64,1.61-8,6.43-8,2-10.73,5.31-15,9.71-6.43,9.71-6.43c-8.31-10.73-9.71-32.18-9.71-32.18-7.72,17.7-37,26.55-45.53,25.2-3.18-.5-4.29-9.65-4.29-9.65s-13.95,12.87-13.95,18.23-1.61,11.8-4.29,11.8.54,17.17.54,22-5.9,23.07-8.58,25.21-4.83-12.33-5.37-21.45-14.48,2.68-15.55-5.9-5.9-5.9-8.58-9.66-.54-2.68-9.66-7-5.9-23.06-5.9-23.06S85,478.56,80.74,473.2c0,0-1.61,5.36,2.14,8.58s5.37,11.26-.54,10.73S56.6,495.72,53.92,492s-3.22-1.61-7.51-6.44-2.68,2.15-15-7-5.9-14.48-14.48-20.92S.28,433,1.89,411.52s-3.63-36.47-.2-57.39S37.43,256.75,41.31,245.52Z"/><path class="cls-1" d="M381.09,95.61s24.67,22,41.3,32.18S469.05,168,485.67,182.5s41.84,32.72,51,38.08,11.26,16.63-7,15.56S489.43,225.41,473.34,219s-37.55-11.26-59.54-21.45-34.86-26.82-40.22-41.84-9.66-18.23-14.48-30-10.19-32.18,0-34.86S374.36,89.78,381.09,95.61Z"/><ellipse class="cls-1" cx="343.59" cy="180.36" rx="9.7" ry="14.48"/></g></g></svg>