<svg xmlns="http://www.w3.org/2000/svg" xmlns:xlink="http://www.w3.org/1999/xlink" viewBox="0 0 542.98 544.25"><defs><style>.cls-1{fill:url(#radial-gradient);}.cls-2{fill:#d4c1d9;}.cls-3{fill:url(#未命名漸層_4);}.cls-4{fill:url(#radial-gradient-2);}.cls-5{fill:url(#radial-gradient-3);}.cls-6{fill:url(#未命名漸層_3);}.cls-7{fill:url(#未命名漸層_2);}.cls-8{fill:#292838;}</style><radialGradient id="radial-gradient" cx="88.31" cy="127.43" r="83.72" gradientUnits="userSpaceOnUse"><stop offset="0.35" stop-color="#a0928f"/><stop offset="0.45" stop-color="#aea19b"/><stop offset="0.63" stop-color="#c2b5ab"/><stop offset="0.82" stop-color="#cdc1b5"/><stop offset="1" stop-color="#d1c5b8"/></radialGradient><radialGradient id="未命名漸層_4" cx="284.23" cy="162.32" r="309.99" gradientTransform="translate(-30.66 398.21) rotate(-80.59) scale(1 1.68)" gradientUnits="userSpaceOnUse"><stop offset="0.21" stop-color="#a0928f" stop-opacity="0"/><stop offset="1" stop-color="#98737f"/></radialGradient><radialGradient id="radial-gradient-2" cx="237.97" cy="188.46" r="353.31" gradientTransform="matrix(0.34, 0.94, -1.02, 0.36, 350.21, -104.15)" gradientUnits="userSpaceOnUse"><stop offset="0.79" stop-color="#dcd8eb" stop-opacity="0"/><stop offset="0.84" stop-color="#745861" stop-opacity="0"/><stop offset="0.96" stop-color="#bdb29b" stop-opacity="0.5"/></radialGradient><radialGradient id="radial-gradient-3" cx="147.58" cy="174.81" r="319.87" gradientTransform="translate(308.53 -3.11) rotate(80.09) scale(1 1.08)" gradientUnits="userSpaceOnUse"><stop offset="0.87" stop-color="#dcd8eb" stop-opacity="0"/><stop offset="0.91" stop-color="#745861" stop-opacity="0"/><stop offset="0.91" stop-color="#755a62" stop-opacity="0.02"/><stop offset="0.93" stop-color="#8b7473" stop-opacity="0.28"/><stop offset="0.94" stop-color="#9d8a82" stop-opacity="0.5"/><stop offset="0.96" stop-color="#ab9c8d" stop-opacity="0.68"/><stop offset="0.97" stop-color="#b5a895" stop-opacity="0.8"/><stop offset="0.99" stop-color="#bbaf99" stop-opacity="0.87"/><stop offset="1" stop-color="#bdb29b" stop-opacity="0.9"/></radialGradient><radialGradient id="未命名漸層_3" cx="173.34" cy="-18.04" r="186.81" gradientTransform="matrix(0.17, 0.99, -1.93, 0.34, 108.66, -182.7)" gradientUnits="userSpaceOnUse"><stop offset="0" stop-color="#fff"/><stop offset="0.43" stop-color="#dccfd2"/><stop offset="0.51" stop-color="#daccd3" stop-opacity="0.82"/><stop offset="0.69" stop-color="#d7c7d4" stop-opacity="0.47"/><stop offset="0.83" stop-color="#d5c2d5" stop-opacity="0.22"/><stop offset="0.94" stop-color="#d4c0d6" stop-opacity="0.06"/><stop offset="1" stop-color="#d3bfd6" stop-opacity="0"/></radialGradient><radialGradient id="未命名漸層_2" cx="356.17" cy="93.59" fx="547.3061054469892" fy="-11.89144340306548" r="218.31" gradientUnits="userSpaceOnUse"><stop offset="0.51" stop-color="#c4adb8"/><stop offset="0.59" stop-color="#c8b4b8"/><stop offset="0.8" stop-color="#cfc1b8"/><stop offset="1" stop-color="#d2c5b8"/></radialGradient></defs><title>dumbooctopus</title><g id="圖層_2" data-name="圖層 2"><g id="dumbooctopus"><path class="cls-1" d="M101.72,107.67S89.89,127.3,64.15,138s-34.87,11.26-44.52,16.63-2.15,7,15,3.75,43.44-10.72,54.7-15.55S101.72,107.67,101.72,107.67Z"/><path class="cls-2" d="M40.81,246.63c13.06-37.75,33.79-93.32,57.13-132.74s59.53-79.65,94.93-91.72,90.91-33.79,146.42-9.65,66,56.31,74.82,90.91S390,209.62,378.71,227.32,359.4,253.87,361,286.05s16.09,67.58,10.46,100.57S353,453.39,357,467.87s-8.05,20.92-23.33,29-41,33-55.51,36.21-18.51-8.85-37.82-4.83-28.15-3.22-29-9.65,5.1-5.64,5.1-5.64,1.61-8,6.43-8,2-10.73,5.31-15,9.71-6.44,9.71-6.44c-8.31-10.72-9.71-32.18-9.71-32.18-7.72,17.71-37,26.56-45.53,25.21-3.18-.5-4.29-9.65-4.29-9.65S164.44,479.67,164.44,485s-1.61,11.8-4.29,11.8.54,17.17.54,22-5.9,23.07-8.58,25.21-4.83-12.34-5.37-21.45-14.48,2.68-15.55-5.9-5.9-5.9-8.58-9.66-.54-2.68-9.66-7-5.9-23.06-5.9-23.06-22.52,2.68-26.81-2.68c0,0-1.61,5.36,2.14,8.58s5.37,11.26-.54,10.72-25.74,3.22-28.42-.53-3.22-1.61-7.51-6.44-2.68,2.15-15-7S25,465.19,16.41,458.75s-16.63-24.67-15-46.12-3.63-36.47-.2-57.39S36.93,257.86,40.81,246.63Z"/><path class="cls-3" d="M40.81,246.63c13.06-37.75,33.79-93.32,57.13-132.74s59.53-79.65,94.93-91.72,90.91-33.79,146.42-9.65,66,56.31,74.82,90.91S390,209.62,378.71,227.32,359.4,253.87,361,286.05s16.09,67.58,10.46,100.57S353,453.39,357,467.87s-8.05,20.92-23.33,29-41,33-55.51,36.21-18.51-8.85-37.82-4.83-28.15-3.22-29-9.65,5.1-5.64,5.1-5.64,1.61-8,6.43-8,2-10.73,5.31-15,9.71-6.44,9.71-6.44c-8.31-10.72-9.71-32.18-9.71-32.18-7.72,17.71-37,26.56-45.53,25.21-3.18-.5-4.29-9.65-4.29-9.65S164.44,479.67,164.44,485s-1.61,11.8-4.29,11.8.54,17.17.54,22-5.9,23.07-8.58,25.21-4.83-12.34-5.37-21.45-14.48,2.68-15.55-5.9-5.9-5.9-8.58-9.66-.54-2.68-9.66-7-5.9-23.06-5.9-23.06-22.52,2.68-26.81-2.68c0,0-1.61,5.36,2.14,8.58s5.37,11.26-.54,10.72-25.74,3.22-28.42-.53-3.22-1.61-7.51-6.44-2.68,2.15-15-7S25,465.19,16.41,458.75s-16.63-24.67-15-46.12-3.63-36.47-.2-57.39S36.93,257.86,40.81,246.63Z"/><path class="cls-4" d="M40.81,246.63c13.06-37.75,33.79-93.32,57.13-132.74s59.53-79.65,94.93-91.72,90.91-33.79,146.42-9.65,66,56.31,74.82,90.91S390,209.62,378.71,227.32,359.4,253.87,361,286.05s16.09,67.58,10.46,100.57S353,453.39,357,467.87s-8.05,20.92-23.33,29-41,33-55.51,36.21-18.51-8.85-37.82-4.83-28.15-3.22-29-9.65,5.1-5.64,5.1-5.64,1.61-8,6.43-8,2-10.73,5.31-15,9.71-6.44,9.71-6.44c-8.31-10.72-9.71-32.18-9.71-32.18-7.72,17.71-37,26.56-45.53,25.21-3.18-.5-4.29-9.65-4.29-9.65S164.44,479.67,164.44,485s-1.61,11.8-4.29,11.8.54,17.17.54,22-5.9,23.07-8.58,25.21-4.83-12.34-5.37-21.45-14.48,2.68-15.55-5.9-5.9-5.9-8.58-9.66-.54-2.68-9.66-7-5.9-23.06-5.9-23.06-22.52,2.68-26.81-2.68c0,0-1.61,5.36,2.14,8.58s5.37,11.26-.54,10.72-25.74,3.22-28.42-.53-3.22-1.61-7.51-6.44-2.68,2.15-15-7S25,465.19,16.41,458.75s-16.63-24.67-15-46.12-3.63-36.47-.2-57.39S36.93,257.86,40.81,246.63Z"/><path class="cls-5" d="M40.81,245C53.87,207.27,74.6,151.7,97.94,112.28s59.53-79.65,94.93-91.72,90.91-33.79,146.42-9.65,66,56.31,74.82,90.91S390,208,378.71,225.71,359.4,252.26,361,284.44s-132.8,165.2-132.8,165.2c-7.72,17.7-37,26.55-45.53,25.2-3.18-.5-4.29-9.65-4.29-9.65S36.93,256.25,40.81,245Z"/><path class="cls-6" d="M40.81,245C53.87,207.27,74.6,151.7,97.94,112.28s59.53-79.65,94.93-91.72,90.91-33.79,146.42-9.65,66,56.31,74.82,90.91S390,208,378.71,225.71,359.4,252.26,361,284.44,36.93,256.25,40.81,245Z"/><path class="cls-7" d="M380.59,96.72s24.67,22,41.3,32.18,46.66,40.23,63.28,54.71,41.84,32.72,51,38.08,11.26,16.63-7,15.55-40.22-10.72-56.31-17.16-37.55-11.26-59.54-21.45-34.86-26.82-40.22-41.84-9.66-18.23-14.48-30-10.19-32.18,0-34.86S373.86,90.89,380.59,96.72Z"/><ellipse class="cls-8" cx="343.09" cy="181.46" rx="9.7" ry="14.48"/></g></g></svg>