<svg xmlns="http://www.w3.org/2000/svg" viewBox="0 0 158.75 42.92"><defs><style>.cls-1{fill:#f1ecce;}</style></defs><title>dumbooctopus_name</title><g id="圖層_2" data-name="圖層 2"><g id="dumbooctopus_name"><path class="cls-1" d="M17.06,9a49.24,49.24,0,0,1,1.26,18.76c-.11.84-.4,4.3-1.34,4.66-.34.13-1.14-1.43-1.65-2.46a40.54,40.54,0,0,1-3.42-9.5,1.52,1.52,0,0,0-2.5-.66C5.75,22.63.38,28,0,32.91c-.15,1.93,2.85,1.92,3,0,.29-3.94,5.58-8.71,8.52-11L9,21.25c.65,3.15,5.48,19.91,10.55,12.67,2.29-3.26,2.05-8.73,2-12.49A54.19,54.19,0,0,0,20,8.19a1.51,1.51,0,0,0-2.9.8Z"/><path class="cls-1" d="M22.78,20.74A20.47,20.47,0,0,1,30.53,31.3a1.5,1.5,0,0,0,2.89-.8c-1.35-5-5-9.33-9.13-12.35-1.56-1.14-3.06,1.46-1.51,2.59Z"/><path class="cls-1" d="M86.07,4.34l-3.21,6.43C82,12.49,84.58,14,85.45,12.28l3.21-6.43c.86-1.72-1.72-3.24-2.59-1.51Z"/><path class="cls-1" d="M87.09,9c1,0,2-.13,3-.13a3.75,3.75,0,0,0,.58,0c.24,0,.27.24.1,0s-.11.25-.1.23a7.24,7.24,0,0,1-2.09,3.42c-1.52,1.19.61,3.3,2.12,2.12a9,9,0,0,0,2-2.69,6.19,6.19,0,0,0,1-3.27C93.52,5.17,89.46,6,87.09,6c-1.93,0-1.94,3,0,3Z"/><path class="cls-1" d="M81.85,14.14c0,2.68-.1,5.36-.2,8-.07,1.93,2.93,1.93,3,0,.1-2.68.19-5.36.2-8a1.5,1.5,0,0,0-3,0Z"/><path class="cls-1" d="M85.11,16.84a18.69,18.69,0,0,1,6.71-1.72c.87,0,2.3-.21,2.7.68.26.6-.4,2.91-1.08,3.12-1.84.58-1,3.48.8,2.9,3.31-1,4.75-7.31,1.41-9.09s-8.84,0-12.05,1.52c-1.75.83-.23,3.42,1.51,2.59Z"/><path class="cls-1" d="M87.93,14.34l-1,5.13c-.37,1.89,2.52,2.7,2.89.8l1-5.13c.37-1.88-2.52-2.69-2.89-.8Z"/><path class="cls-1" d="M84.15,23.43l10.09-1.61c1.9-.31,1.09-3.2-.8-2.9L83.35,20.54c-1.9.3-1.09,3.19.8,2.89Z"/><path class="cls-1" d="M87.48,20c-2.21,3.18-4.71,6.17-7.2,9.14-1.23,1.47.88,3.6,2.12,2.12,2.65-3.16,5.31-6.36,7.67-9.75,1.11-1.59-1.49-3.09-2.59-1.51Z"/><path class="cls-1" d="M87,25.43c2.7.73,6,2.14,7.49,4.65,2,3.32-2.33,8.35-5.63,5.51-1.46-1.25-3.59.86-2.12,2.12,4.24,3.66,11,.31,11.34-5.18s-5.73-8.77-10.28-10a1.5,1.5,0,0,0-.8,2.89Z"/><path class="cls-1" d="M88.35,25.12c-2,2.83-4.14,5.59-5.89,8.56a1.5,1.5,0,0,0,2.59,1.52c1.75-3,3.91-5.74,5.89-8.56,1.11-1.58-1.49-3.09-2.59-1.52Z"/><path class="cls-1" d="M91.3,27.37c-1.47,3.25-3.36,6.28-4.82,9.53-.79,1.75,1.79,3.27,2.59,1.52,1.46-3.26,3.36-6.29,4.82-9.54.79-1.74-1.8-3.27-2.59-1.51Z"/><path class="cls-1" d="M97.33,20.42a54,54,0,0,0-4,6,1.52,1.52,0,0,0,.9,2.2c3.11,1,6.43,1.05,9.64,1.61,1.89.33,2.7-2.56.8-2.89-3.21-.56-6.53-.59-9.65-1.61l.9,2.2a55.92,55.92,0,0,1,4-6c1.12-1.58-1.48-3.08-2.59-1.51Z"/><path class="cls-1" d="M144,3.89a15.34,15.34,0,0,1-3.24,6.17c-1.32,1.4.79,3.53,2.13,2.12a18.51,18.51,0,0,0,4-7.49,1.5,1.5,0,0,0-2.89-.8Z"/><path class="cls-1" d="M144.38,10.16a18.48,18.48,0,0,1,3.3-.47h.7c.33,0-.14,0,.18,0l.24.06c.13.05.14.05,0,0s-.17-.16-.09-.05a1.33,1.33,0,0,1-.25-.6c0,.16,0,.13,0-.11a1.74,1.74,0,0,1,0,.22c-.2.34.17-.29-.06.11a6.26,6.26,0,0,1-.34.55,17.15,17.15,0,0,1-2.32,2.35c-1.44,1.29.68,3.4,2.12,2.12s4.74-4.06,3.28-6.39-5.52-1.16-7.55-.74-1.09,3.29.79,2.9Z"/><path class="cls-1" d="M139.87,16.15a76.61,76.61,0,0,1-.6,9.45c-.24,1.91,2.76,1.89,3,0a76.61,76.61,0,0,0,.6-9.45,1.5,1.5,0,0,0-3,0Z"/><path class="cls-1" d="M142.58,18.2c1.84-.72,4.67-2.11,6.67-1.34s2.05,4.13,1.08,5.77a1.5,1.5,0,0,0,2.59,1.51c1.62-2.71,1.4-7.13-1.1-9.22-2.87-2.39-7-.79-10,.38-1.78.69-1,3.6.8,2.9Z"/><path class="cls-1" d="M142.58,23c2.45-.65,4.95-1.14,7.43-1.63,1.9-.38,1.09-3.27-.79-2.9-2.49.49-5,1-7.44,1.64a1.5,1.5,0,0,0,.8,2.89Z"/><path class="cls-1" d="M145.1,16.78a19.58,19.58,0,0,1-.35,6.21c-.56,1.85,2.34,2.64,2.89.79a21.91,21.91,0,0,0,.46-7c-.08-1.92-3.08-1.93-3,0Z"/><path class="cls-1" d="M141.77,27.41c3.4-.81,6.89-1.18,10.25-2.18,1.85-.55,1.06-3.44-.79-2.89-3.36,1-6.85,1.37-10.26,2.18-1.87.45-1.08,3.34.8,2.89Z"/><path class="cls-1" d="M140.68,26.45c-2,4-4.45,7.69-6.83,11.45l2.59,1.52a4,4,0,0,1,.6-1c1.11-1.58-1.49-3.08-2.59-1.51a4.09,4.09,0,0,0-.6,1,1.5,1.5,0,0,0,2.59,1.52c2.38-3.76,4.81-7.49,6.83-11.46.88-1.72-1.71-3.24-2.59-1.51Z"/><path class="cls-1" d="M142.54,26.6c.89,2.8.49,6.16.15,9-.23,1.92,2.77,1.9,3,0,.37-3.15.72-6.77-.26-9.84-.58-1.83-3.48-1.05-2.89.8Z"/><path class="cls-1" d="M148.17,27.2a15.16,15.16,0,0,1,1.15,7c-.18,1.92,2.82,1.91,3,0a17.25,17.25,0,0,0-1.26-7.84c-.73-1.75-3.64-1-2.89.8Z"/><path class="cls-1" d="M152.17,25.65c2.68,3.2,3.54,7.12,3.58,11.2a1.5,1.5,0,0,0,3,0c-.05-4.92-1.25-9.5-4.46-13.32-1.24-1.48-3.35.65-2.12,2.12Z"/><path class="cls-1" d="M46.77,10.1,60,8.69l-1.5-1.5c.31,4-1.11,9.69,2.72,12.41,3,2.12,6.35.68,8.32-2C70.71,16,68.11,14.54,67,16.08q-5.48,2-5.37-2.19a22.26,22.26,0,0,1,0-2.31c0-1.47.08-2.92,0-4.39-.05-.74-.64-1.59-1.5-1.5L46.77,7.1c-1.9.2-1.92,3.2,0,3Z"/><path class="cls-1" d="M65.51,5.49c-1.63,1.25-3.11,2.7-4.83,3.82a1.53,1.53,0,0,0,0,2.59c2.26,1.62,5.17,1.93,7.8,2.57,1.87.45,2.67-2.44.8-2.89-2.38-.58-5-.81-7.08-2.27V11.9c1.72-1.13,3.19-2.56,4.82-3.81s0-3.77-1.51-2.6Z"/><path class="cls-1" d="M48.72,13.77l-5.63,4.82c-1.47,1.26.66,3.37,2.12,2.12l5.63-4.82c1.47-1.26-.66-3.37-2.12-2.12Z"/><path class="cls-1" d="M41.74,26.73A91.8,91.8,0,0,1,59,23.57l-1.45-1.1c.56,3.74-.51,12.33,4.66,13.48,3.16.7,8.76-2.37,8.74-5.85a1.5,1.5,0,0,0-3,0c0,1.16-3.13,2.82-4.1,2.77-2-.11-2.39-1.82-2.71-3.49-.48-2.54-.32-5.16-.69-7.71A1.51,1.51,0,0,0,59,20.57a96.85,96.85,0,0,0-18.09,3.26c-1.87.48-1.08,3.37.8,2.9Z"/><path class="cls-1" d="M65.91,21.57c-1.74.77-4.16,1.44-5.58,2.74a1.92,1.92,0,0,0,.51,3.12c2.69,1.68,6,1.28,8.84,2.31,1.83.65,2.61-2.24.8-2.89-2.77-1-6-.54-8.48-2.26l.74,1.29v-.4L62,26.78a49.16,49.16,0,0,1,5.42-2.62c1.77-.77.24-3.36-1.51-2.59Z"/><path class="cls-1" d="M47.08,18.65c0,4.43-.15,8.68-1.76,12.87-.69,1.8,2.21,2.58,2.89.79,1.7-4.41,1.86-9,1.87-13.66a1.5,1.5,0,0,0-3,0Z"/><path class="cls-1" d="M53.31,14.63c-.61,8.48-.5,17-.4,25.53a1.5,1.5,0,0,0,3,0c-.1-8.5-.21-17,.4-25.53.13-1.93-2.87-1.92-3,0Z"/><path class="cls-1" d="M113.82,2.92a39.66,39.66,0,0,0,7.23.26,1.5,1.5,0,0,0,0-3A36.44,36.44,0,0,1,114.61,0c-1.88-.34-2.69,2.55-.79,2.89Z"/><path class="cls-1" d="M111.8,8.4C116,8,120.12,7.34,124.26,6.74c1.91-.28,1.1-3.17-.8-2.89-3.87.56-7.76,1.2-11.66,1.55-1.9.17-1.92,3.18,0,3Z"/><path class="cls-1" d="M115,7.31c-.25,1.58-1.44,9.44,2.25,8.07,1.79-.66,1-3.56-.8-2.89.66,0,1.08.16,1.27.61a3,3,0,0,1-.07-.32c0,.08,0-.48,0-.43a14.78,14.78,0,0,1,0-1.63c0-.85.15-2,.24-2.62.3-1.88-2.59-2.7-2.89-.79Z"/><path class="cls-1" d="M121.16,7.55a16.72,16.72,0,0,1-2.58,4.32c-1.33,1.4.79,3.52,2.12,2.12a18.93,18.93,0,0,0,3-4.92c.86-1.73-1.73-3.25-2.59-1.52Z"/><path class="cls-1" d="M112.81,16.79c4.38-1.46,8.81-2.86,13.47-3,1.92-.05,1.93-3.05,0-3-4.93.11-9.63,1.53-14.27,3.07-1.83.6-1,3.5.8,2.89Z"/><path class="cls-1" d="M113.32,18.22l-.24,8.85c0,1.93,3,1.93,3,0l.24-8.85c.05-1.93-2.95-1.93-3,0Z"/><path class="cls-1" d="M115.58,20.25c2-.9,4.52-2.06,6.73-1.76a2,2,0,0,1,1.93,2.08c.1.88.14,2.71-.43,3.46-1.17,1.5.94,3.64,2.12,2.12,2-2.57,2.1-8-.9-9.85-3.27-2.06-7.85-.07-11,1.36-1.75.81-.23,3.4,1.52,2.59Z"/><path class="cls-1" d="M116.82,24.32l6.84-1.2c1.9-.34,1.09-3.23-.8-2.9L116,21.43c-1.9.34-1.1,3.23.79,2.89Z"/><path class="cls-1" d="M114.58,28.57a35.15,35.15,0,0,0,10.18-1.66c1.83-.59,1-3.49-.8-2.89a32.11,32.11,0,0,1-9.38,1.55,1.5,1.5,0,0,0,0,3Z"/><path class="cls-1" d="M111.8,33.47l15.28-3c1.89-.37,1.09-3.26-.8-2.89l-15.28,3c-1.89.38-1.09,3.27.8,2.9Z"/><path class="cls-1" d="M119.15,27.93l-.81,13.54c-.11,1.93,2.89,1.93,3,0l.81-13.54c.11-1.92-2.89-1.92-3,0Z"/></g></g></svg>