<svg xmlns="http://www.w3.org/2000/svg" viewBox="0 0 820.22 607.39"><defs><style>.cls-1{fill:none;stroke:#fff;stroke-miterlimit:10;}</style></defs><title>gulpereel-line</title><g id="圖層_2" data-name="圖層 2"><g id="gulpereel-line"><path class="cls-1" d="M449.13,448.92a209.3,209.3,0,0,0-30.41,10.13c-29.22,11.83-91.64,25.51-121,30.61-26.93,4.67-83.82,5.91-113.55,4.87S87.63,481,56.85,453.32,1,369.33.51,326.55s13.05-133,44.34-176.84,88.69-95,164.33-118.94,134.07-19.3,188.32-4.7,93.38,27.65,103.81,49.56c0,0,73.56,48.51,85.56,83.47,0,0,6.26,9.91,24.51,9.91s49.3,15.13,57,18.78c11.4,5.38,20.52,9,18.08,20.52s-5.21,8.95-4.17,21.21-5.48,30.26-11,42.52c-3.94,8.81-23.85,58.76-37.72,97.16-5.43,15.05-9.94,28.32-12.19,36.64-1.6,5.93-3.89,13.93-6.54,23-10.61,36.4-27.13,90.62-29.63,101.46-3.13,13.57-19.48,26.09-51.12,3.14s-70.6-64.34-90.77-83.47c-9.33-8.85-22.39-23.58-35.75-38-15.53-16.77-31.48-33.17-42.5-39.53-20.52-11.82-27.48-20.16-48.34-28.51S281,332.82,270.91,320s-17.74-26.09,3.83-38.26,71.64-31.64,77.2-39.29,9.05-23.3,7.31-32.7-4.87-11.47-19.83-11.82-36.17-1.74-57-15.3-38.26-25.74-38.26-25.74-53.9,4.18-83.81,25S94.24,243.79,81,273,62.59,366.9,91.11,398.54s47.65,44.17,47.65,44.17,61.66-.19,86.59,0c30.29.23,105.79-12.51,127.29-18.61,15.48-4.39,40.69-8.34,61-16.17Z"/><path class="cls-1" d="M819,437.67c-3.65-46.43-52.17-67.3-84.51-73.56-27.45-5.31-80.89,2-100.84,5.09-5.43,15.05-9.94,28.32-12.19,36.64-1.6,5.93-3.89,13.93-6.54,23h0c14-5.09,29.69-10.39,43.76-14.35,35.82-10.09,32.35-7.65,84.51-4.87s56.69,48.69,56.69,61.9-8.35,42.78-26.08,67.13-52.87,41-107.12,49-98.77-7.65-124.85-21.21S473,523.05,451.41,516.79s-58.08-8.7-79.64,10.43S361,563.91,361,563.91c-3.13-12,3.66-23.48,20.87-37s58.95-4.17,74.08,2.09,20.34,10.95,57.9,39.12S578.52,604.6,637,606.68s87.63-12,132-43.29S822.66,484.09,819,437.67Z"/><path class="cls-1" d="M669.81,233.7s-15.65,35.47-24.52,58.94-18.78,69.39-33.38,98.6-13,50.08-18.26,63.64-20.87,53.21-23,55.82-2.6,8.35-9.39,9.91-37.56-16.81-57.9-36.05-54.78-55.24-67.3-68.28-44.86-48.52-67.81-61-47-24.52-55.82-26.6-16.69-11-15.13-12.52.52-2.09,7.31-3.13,37.38-.52,53.64,1,18.35,5.74,48.6-6.26,71.47-24.63,84.51-27.7,24-12.47,37-11.43,28.34,11.55,37.73,11.43,24.7-7.42,33.74-14.38S611,254.91,619,254.56s19.82-3.83,32.34-10.43S669.81,233.7,669.81,233.7Z"/><path class="cls-1" d="M556.23,260l-.82-1c-.28-.33-.57-.65-.87-1s-.61-.6-.93-.87-.64-.55-1-.79a13.56,13.56,0,0,0-2.11-1.32,6.26,6.26,0,0,0-2.91-1.07c-1.25,0-3.42.47-3.54,1a8.28,8.28,0,0,0-.12,2.93,8.76,8.76,0,0,0,.95,2.8l.17.31.23.39a7.14,7.14,0,0,0,.43.64,9.15,9.15,0,0,0,1,1.22,8.67,8.67,0,0,0,2.43,1.88,8.22,8.22,0,0,0,3,.88,10.88,10.88,0,0,0,3.34-.22,20.46,20.46,0,0,0,3.29-1.15,23.74,23.74,0,0,0-1.12-2.39A16,16,0,0,0,556.23,260Z"/><path class="cls-1" d="M554.42,257.56c1.35,1.55,1.49,3.64.3,4.68s-3.24.63-4.6-.92-1.49-3.64-.3-4.68S553.06,256,554.42,257.56Z"/><path class="cls-1" d="M558.79,264.61a23.74,23.74,0,0,0-1.12-2.39,16,16,0,0,0-1.44-2.23l-.82-1c-.28-.33-.57-.65-.87-1s-.61-.6-.93-.87-.64-.55-1-.79a13.56,13.56,0,0,0-2.11-1.32,6.26,6.26,0,0,0-2.91-1.07c-1.25,0-3.42.47-3.54,1a8.28,8.28,0,0,0-.12,2.93,8.76,8.76,0,0,0,.95,2.8l.17.31.23.39a7.14,7.14,0,0,0,.43.64,9.15,9.15,0,0,0,1,1.22,8.67,8.67,0,0,0,2.43,1.88,8.22,8.22,0,0,0,3,.88,10.88,10.88,0,0,0,3.34-.22A20.46,20.46,0,0,0,558.79,264.61Zm.19.14a12.49,12.49,0,0,1-6.8,2.44,9.39,9.39,0,0,1-6.67-2.68,10.72,10.72,0,0,1-1.25-1.36,15.55,15.55,0,0,1-1-1.51,10,10,0,0,1-1.27-3.46,10.12,10.12,0,0,1,.09-3.68,10.7,10.7,0,0,1,1.36-3.43l.07-.11.12,0a22.93,22.93,0,0,1,2.73.48,17.49,17.49,0,0,1,2.63.84,16.07,16.07,0,0,1,4.71,2.89,16.41,16.41,0,0,1,3.45,4.29,16.8,16.8,0,0,1,1.92,5.17v.06Z"/><path class="cls-1" d="M583.89,261.87s5.3.24,6.8-3.83c1.41-3.81,2.33-7.91-1.48-13.21a22.58,22.58,0,0,0-4.52,7.47C583.49,256.07,583.89,261.87,583.89,261.87Z"/><path class="cls-1" d="M584.65,259.1c1.34.22,2.73-1.38,3.1-3.59s-.4-4.19-1.74-4.41a1.55,1.55,0,0,0-.92.13c-.15.35-.28.71-.4,1.07a24.81,24.81,0,0,0-.89,6.35A1.72,1.72,0,0,0,584.65,259.1Z"/><path class="cls-1" d="M583.86,260.83h0a8.66,8.66,0,0,0,1.23,0,8.31,8.31,0,0,0,1.23-.21,6.14,6.14,0,0,0,2.2-1,4.28,4.28,0,0,0,1.4-1.82c.17-.42.33-.87.48-1.28s.28-.85.4-1.28a11.9,11.9,0,0,0,.28-1.29,9.88,9.88,0,0,0,.15-1.32,11.47,11.47,0,0,0,0-1.31A11.31,11.31,0,0,0,591,250a11.72,11.72,0,0,0-.35-1.29,11.9,11.9,0,0,0-.5-1.24,17.17,17.17,0,0,0-1.33-2.36l.69,0a24.26,24.26,0,0,0-2.8,3.56,17.48,17.48,0,0,0-1.12,2,13.34,13.34,0,0,0-.86,2.11,18.33,18.33,0,0,0-.51,2.22c-.12.75-.21,1.51-.28,2.28C583.86,258.45,583.86,259.64,583.86,260.83Zm0,2.07-.07-1a41.89,41.89,0,0,1-.05-4.62c0-.77.1-1.54.2-2.31a16.31,16.31,0,0,1,.42-2.28,14.06,14.06,0,0,1,.76-2.21,19.52,19.52,0,0,1,1-2.1,24.08,24.08,0,0,1,2.7-3.83l.35-.42.34.46a17.49,17.49,0,0,1,1.54,2.43,12.23,12.23,0,0,1,.62,1.32,12.54,12.54,0,0,1,.45,1.39,11.65,11.65,0,0,1,.3,1.45,14.52,14.52,0,0,1,.09,1.48,14.32,14.32,0,0,1-.09,1.47,14.14,14.14,0,0,1-.24,1.45c-.1.48-.22.94-.36,1.41s-.27.91-.43,1.37a6,6,0,0,1-1.82,2.65,7.9,7.9,0,0,1-2.79,1.47,11.56,11.56,0,0,1-1.5.34A9.93,9.93,0,0,1,583.89,262.9Z"/><path class="cls-1" d="M565.26,267.91a1.5,1.5,0,1,1-1.5-1.61A1.56,1.56,0,0,1,565.26,267.91Z"/><path class="cls-1" d="M572.65,274.17a1.07,1.07,0,1,1-1.06-1.18A1.12,1.12,0,0,1,572.65,274.17Z"/><path class="cls-1" d="M404.11,54.94c1.39-1.74-2.78-8-6.61-10.43s-13.21-2.44-22.6-16S357.59,4.42,357.59,4.42,345.6.25,341.94.51s.53,2.35-10.43,3.91-11.21,5.48-19.82,5-13.83-5-25-3.13-27.13,6-36.52,5.48-36.78,1.56-50.08,5.48-59,11.47-71,17.73-15.91,21.39-22.95,24S87.63,72.24,76.42,80.33,42,114,39.64,118.93s-10.17,29.21-17.22,39.65S6.25,190.4,6,194.83,2.86,212.31,2.6,220.65s2.09,25,2.61,28.69l1,13.16C12.84,222,25.43,176.9,44.85,149.71c0,0,25.74-31.82,56-49.56s56.69-33,83.47-43.47,53.55-12.87,66.07-10.43,20.87-3.83,40.69-2.44,46.95.7,59.47,1.39,27.48,4.52,35.13,6.61A134.61,134.61,0,0,0,404.11,54.94Z"/><path class="cls-1" d="M70.64,340.2C69.13,314.64,73.92,288.7,81,273c13.22-29.21,49.39-70.25,79.3-91.12s83.81-25,83.81-25S241.7,161,241,162.4s1.39,14.95-10.78,25.39S217,193,205.53,200.31s-18.09,5.21-18.09,5.21-27,7.83-37.47,16.18S133,233.43,126.5,237.61s-21.91,18-31,34.95-12.26,18-14.61,31S70.64,340.2,70.64,340.2Z"/><path class="cls-1" d="M393.45,397c-5.18,1.26-10.24,4.34-19.94,4.34-12.18,0-25,7-34.09,12.53s-20.17,9-55.64,12.17-52.17-2.09-67.47-7.31-26.78-2.43-38.6,2.09-25,.35-25,.35-3.13,4.17-24,7.3S85.55,426,65.72,413.85A161.42,161.42,0,0,1,31.64,385c1.39,5.56,17.74,30.25,40.69,40.34s53.91,16,66.43,17.39c0,0,61.66-.19,86.59,0,30.29.23,105.79-12.51,127.29-18.61,13.66-3.87,34.89-7.41,53.67-13.56C402,405.9,397.68,401.31,393.45,397Z"/><path class="cls-1" d="M464,469.57s-13-.6-20.26-.86-22.48,6.78-32.13,10.17-27.65,6.78-40,13.56-24.95-1-48.43,6-41.73,3.65-51.9,8.09-35.74,2.86-42.78,4.69-7.82,6.78-20.69,2.09S176.84,502.87,130.48,493s-73.63-39.64-73.63-39.64c30.78,27.64,97.56,40.17,127.29,41.21s86.62-.2,113.55-4.87c29.39-5.1,91.81-18.78,121-30.61a234.44,234.44,0,0,1,25-8.74"/><path class="cls-1" d="M369,29.94s-.45-.26-1.23-.74-1.9-1.14-3.2-2l-2.1-1.38c-.76-.48-1.56-1-2.35-1.53-1.59-1.12-3.34-2.22-5.06-3.37-.84-.61-1.71-1.16-2.55-1.73L350,17.53c-1.64-1-3.12-2.06-4.43-2.91l-1.8-1.1-1.39-.87c-.78-.48-1.21-.79-1.21-.79l0-.09,1.29.63,1.47.72c.56.29,1.22.58,1.9,1,1.35.78,2.93,1.68,4.61,2.67L353,18.37c.86.55,1.76,1.09,2.61,1.68,1.7,1.2,3.44,2.34,5,3.5s3,2.21,4.29,3.15c2.5,1.87,4.13,3.16,4.13,3.16Z"/><path class="cls-1" d="M360.43,37.07l-1.69-1.22c-1.07-.77-2.65-1.82-4.53-3.08-.93-.64-2-1.28-3-2l-3.47-2.13c-2.39-1.48-5-3-7.66-4.38-1.29-.76-2.64-1.43-3.94-2.13s-2.64-1.29-3.9-1.92-2.51-1.16-3.68-1.72-2.29-1-3.34-1.47l-2.83-1.22-2.22-.88c-1.23-.5-1.93-.81-1.93-.81l0-.09,2,.63,2.28.73c.88.29,1.84.68,2.91,1.06s2.22.82,3.42,1.34,2.48,1,3.75,1.61,2.64,1.18,4,1.87,2.69,1.34,4,2.08,2.65,1.46,3.93,2.24,2.52,1.54,3.72,2.29c2.39,1.53,4.57,3,6.4,4.39C358.24,35,360.5,37,360.5,37Z"/><path class="cls-1" d="M358.61,39.16s-.85-.51-2.31-1.43c-.73-.46-1.65-.94-2.69-1.54s-2.25-1.18-3.53-1.89-2.73-1.4-4.23-2.17-3.13-1.49-4.76-2.33-3.37-1.64-5.12-2.45l-5.32-2.45c-3.55-1.7-7.12-3.32-10.48-4.83s-6.47-3-9.17-4.17L304.5,13c-1.58-.69-2.48-1.1-2.48-1.1l0-.09s.94.32,2.55.93,3.9,1.51,6.63,2.62c5.47,2.23,12.71,5.34,19.85,8.64,1.79.82,3.57,1.68,5.31,2.52s3.45,1.7,5.11,2.51l4.72,2.46c1.47.82,2.9,1.55,4.17,2.31s2.46,1.39,3.46,2.06,1.91,1.18,2.62,1.68l2.2,1.57Z"/><path class="cls-1" d="M337.48,37.07l-1.54-.75-1.76-.89c-.68-.34-1.45-.71-2.27-1.15s-1.72-.91-2.68-1.39-2-1-3-1.54-2.1-1.1-3.18-1.66L319.78,28l-3.29-1.71c-1.08-.55-2.13-1.14-3.19-1.62s-2.05-1-3-1.5-1.84-1-2.69-1.35c-1.69-.75-3.07-1.49-4.06-1.95s-1.53-.79-1.53-.79l0-.1,5.8,2.28c.88.33,1.78.78,2.76,1.21l3.07,1.38c1.08.46,2.14,1,3.25,1.57l3.32,1.66c1.11.56,2.2,1.17,3.28,1.75s2.15,1.14,3.16,1.72c2,1.17,3.93,2.22,5.53,3.19s2.94,1.76,3.87,2.34l1.45.9Z"/><path class="cls-1" d="M327.05,37.07s-.66-.29-1.79-.84-2.75-1.3-4.65-2.31-4.15-2.12-6.48-3.44l-7.34-4.11-7.22-4.32c-2.31-1.37-4.39-2.77-6.22-3.91S290.07,16,289,15.25s-1.62-1.13-1.62-1.13l.06-.09L307.3,25.46,327.1,37Z"/><path class="cls-1" d="M266.27,39.15s-.3-.15-.81-.45-1.22-.72-2-1.27-1.78-1.22-2.77-2c-.49-.38-1-.75-1.51-1.16s-1-.83-1.53-1.25c-1-.86-2-1.72-2.9-2.57s-1.7-1.69-2.41-2.39-1.22-1.36-1.62-1.79-.58-.71-.58-.71l.07-.08,8.11,6.74,8.06,6.82Z"/><path class="cls-1" d="M261.31,44.63s-.33-.22-.87-.64-1.33-1-2.22-1.77-1.93-1.66-3-2.66c-.52-.5-1.09-1-1.63-1.54l-1.65-1.64c-1.08-1.12-2.16-2.24-3.13-3.33s-1.84-2.15-2.6-3-1.32-1.7-1.75-2.24-.63-.88-.63-.88l.08-.07,8.77,8.83,8.7,8.91Z"/><path class="cls-1" d="M253.49,44.63s-.45-.29-1.2-.82-1.85-1.29-3.09-2.27-2.72-2.07-4.23-3.34-3.11-2.63-4.72-4l-4.56-4.16c-1.46-1.32-2.74-2.66-3.88-3.75s-2-2.1-2.65-2.76-1-1.08-1-1.08l.07-.08,12.68,11.05,12.62,11.12Z"/><path class="cls-1" d="M246.45,44.63s-.47-.29-1.25-.82-1.91-1.28-3.19-2.26-2.83-2.07-4.4-3.34-3.23-2.63-4.91-4l-4.76-4.17c-1.52-1.32-2.85-2.66-4-3.76s-2.1-2.1-2.78-2.76-1-1.08-1-1.08l.07-.08,13.2,11.05,13.14,11.12Z"/><path class="cls-1" d="M205,45.93s-.34-.26-.91-.73l-1-.86c-.39-.33-.85-.69-1.31-1.11l-1.53-1.35c-.55-.47-1.14-1-1.7-1.49-1.13-1.09-2.42-2.16-3.67-3.27-.59-.6-1.23-1.13-1.84-1.67s-1.21-1.09-1.8-1.6c-1.2-1-2.29-2-3.25-2.78-.48-.39-1-.71-1.34-1s-.76-.59-1.05-.82c-.58-.46-.9-.74-.9-.74l.05-.1,1,.6,1.14.68c.43.28,1,.54,1.47.92s1.05.78,1.64,1.2,1.21.88,1.82,1.37l1.86,1.57c.64.53,1.3,1,1.91,1.63,1.23,1.15,2.49,2.27,3.6,3.4s2.17,2.14,3,3c1.77,1.81,2.89,3.07,2.89,3.07Z"/><path class="cls-1" d="M199.76,48.54s-.47-.27-1.25-.79-1.93-1.25-3.22-2.2-2.86-2-4.44-3.26l-4.95-3.88-4.81-4.07c-1.54-1.29-2.89-2.6-4.09-3.68s-2.13-2.05-2.81-2.7-1-1.06-1-1.06l.07-.08L186.55,37.6l13.27,10.86Z"/><path class="cls-1" d="M158.28,60.54s-.34-.19-.91-.55-1.38-.88-2.31-1.55-2-1.46-3.14-2.34c-.56-.45-1.16-.89-1.73-1.38l-1.74-1.46c-1.15-1-2.3-2-3.33-3s-2-2-2.79-2.77-1.42-1.56-1.88-2.05-.69-.81-.69-.81l.07-.08,9.3,7.92,9.22,8Z"/><path class="cls-1" d="M151.5,68.37s-.32-.16-.86-.47-1.31-.75-2.19-1.34-1.9-1.26-3-2c-.52-.4-1.08-.78-1.62-1.22L142.21,62c-1.08-.9-2.16-1.79-3.14-2.67s-1.85-1.76-2.62-2.48-1.35-1.41-1.78-1.85-.64-.74-.64-.74l.06-.08,8.77,7,8.71,7.09Z"/><path class="cls-1" d="M130.89,70.45l-.6-.4c-.18-.13-.42-.27-.69-.44l-.88-.55-4.7-3c-.41-.29-.83-.58-1.26-.83s-.82-.55-1.22-.81-.76-.55-1.12-.8l-1-.7c-.64-.42-1.13-.87-1.5-1.14s-.55-.48-.55-.48l0-.09,2.29,1.17c.69.34,1.49.75,2.31,1.25s1.75,1,2.6,1.55l1.27.85c.43.27.82.6,1.21.88.78.56,1.47,1.14,2.06,1.64.3.24.55.5.78.71a8,8,0,0,1,.58.57c.32.32.48.52.48.52Z"/><path class="cls-1" d="M121.51,72a16.91,16.91,0,0,1-1.93-.71c-.55-.24-1.2-.52-1.86-.86-.32-.18-.68-.32-1-.52s-.68-.38-1-.56l-1-.58c-.34-.19-.65-.41-1-.59a10,10,0,0,1-.91-.56c-.29-.17-.55-.38-.81-.53a13.93,13.93,0,0,1-1.65-1.21l0-.1,1.87.73c.56.23,1.19.54,1.87.85s1.38.71,2.1,1.08c1.39.8,2.75,1.65,3.75,2.33s1.64,1.15,1.64,1.15Z"/><path class="cls-1" d="M115.91,79.85l-.76-.16c-.47-.13-1.16-.26-2-.48s-1.72-.48-2.7-.79l-3-1c-.5-.2-1-.33-1.53-.49s-1-.34-1.49-.5c-1-.28-1.86-.59-2.65-.84-.39-.1-.75-.17-1.07-.27l-.84-.23c-.48-.13-.75-.23-.75-.23v-.1l.76,0,.87.07c.33,0,.72,0,1.12.1.82.17,1.77.34,2.78.56l1.54.42c.52.15,1.06.28,1.58.46,1,.38,2.1.7,3.06,1.1s1.86.73,2.62,1.07c1.52.64,2.52,1.12,2.52,1.12Z"/><path class="cls-1" d="M107.51,87.16s-.29,0-.78,0-1.19-.08-2-.18-1.77-.23-2.78-.42c-.5-.08-1-.14-1.56-.24l-1.6-.3-1.6-.36c-.52-.12-1-.25-1.54-.33-1-.19-1.93-.47-2.73-.66S91.44,84.18,91,84s-.73-.27-.73-.27v-.1L93,84l2.8.37a12.93,12.93,0,0,1,1.58.25L99,85l3.17.66,2.74.71c.8.2,1.47.38,1.93.52l.73.21Z"/><path class="cls-1" d="M90.2,104.1,90,104c-.14-.09-.36-.2-.6-.35s-.61-.31-1-.49-.84-.34-1.3-.56-1-.44-1.54-.64-1.14-.43-1.73-.68-1.25-.42-1.88-.68L80,99.82l-2-.68c-.65-.22-1.27-.47-1.89-.7S75,98,74.44,97.77l-1.58-.59c-1-.36-1.78-.76-2.35-1s-.89-.43-.89-.43l0-.1,3.38.92c1,.3,2.21.56,3.45,1l3.91,1.28,2,.77c.63.27,1.28.49,1.87.77l1.71.82a14.88,14.88,0,0,1,1.5.8,14.24,14.24,0,0,1,1.23.74c.35.24.66.45.91.64l.55.46.17.19Z"/><path class="cls-1" d="M78.46,106.7s-.2-.22-.55-.57c-.17-.18-.36-.4-.62-.63s-.53-.49-.82-.78l-1-.9c-.34-.32-.69-.66-1.1-1s-.81-.65-1.19-1-.86-.65-1.29-1l-1.27-1c-.46-.29-.88-.6-1.31-.88s-.82-.59-1.2-.88A10.4,10.4,0,0,0,67,97.37c-.71-.41-1.28-.86-1.69-1.13s-.64-.48-.64-.48l0-.09,2.56,1.14a12.37,12.37,0,0,1,1.23.59c.42.25.85.51,1.31.77s.92.55,1.4.84l1.34,1c.43.36.91.66,1.3,1L75,102.19a13.24,13.24,0,0,1,1,1.1c.32.37.64.7.89,1s.49.65.69.93a8.08,8.08,0,0,1,.5.73c.27.41.4.66.4.66Z"/><path class="cls-1" d="M71.56,113.23s-.21-.07-.55-.21-.83-.32-1.37-.58c-.27-.12-.56-.26-.86-.42s-.65-.28-1-.46-.69-.33-1-.52l-1-.59a10.57,10.57,0,0,0-1-.61c-.34-.18-.67-.4-1-.59-.63-.4-1.21-.8-1.7-1.17a14,14,0,0,1-1.57-1.36l.05-.1,1.8.9,1.85.92a22.47,22.47,0,0,1,2.1,1.11l2,1.23c.32.21.64.38.92.59l.8.57c.48.36.91.63,1.18.86l.42.35Z"/><path class="cls-1" d="M64.65,115.32a12.47,12.47,0,0,1-2-.57,20.69,20.69,0,0,1-2-.81c-.35-.17-.72-.32-1.08-.52l-1.08-.59c-.71-.42-1.42-.84-2.06-1.29a20.84,20.84,0,0,1-1.7-1.28,13.92,13.92,0,0,1-1.54-1.46l0-.09L59,111.93l5.72,3.3Z"/><path class="cls-1" d="M58.92,120.37a17.54,17.54,0,0,1-2.32-.67c-.68-.23-1.45-.54-2.26-.9-.4-.19-.83-.36-1.24-.58l-1.25-.64c-.83-.46-1.65-.92-2.4-1.4s-1.43-1-2-1.38a19.21,19.21,0,0,1-1.84-1.56l0-.09,6.68,3.51L59,120.28Z"/><path class="cls-1" d="M224.1,162s0,.52-.19,1.4-.33,2.17-.68,3.67-.7,3.27-1.24,5.12-1.12,3.82-1.75,5.78c-.37,1-.7,1.94-1.09,2.88s-.72,1.87-1.11,2.76a25.78,25.78,0,0,1-1.19,2.53c-.4.8-.79,1.54-1.18,2.21a14.43,14.43,0,0,1-1.13,1.8,15.15,15.15,0,0,1-1,1.32c-.59.7-.95,1.06-.95,1.06l-.08-.06.8-1.15a14.83,14.83,0,0,0,.82-1.38c.32-.54.63-1.17,1-1.86s.69-1.44,1-2.25.71-1.66,1.06-2.55.69-1.82,1-2.77.67-1.91,1-2.88C221.94,169.88,224,162,224,162Z"/><path class="cls-1" d="M217.05,162s-.1.49-.33,1.31-.54,2-1,3.39-1,3-1.69,4.7-1.44,3.5-2.21,5.29-1.72,3.5-2.58,5.13c-.42.81-.87,1.58-1.32,2.29s-.86,1.4-1.27,2a15.72,15.72,0,0,1-1.18,1.63c-.38.47-.68.89-1,1.21-.6.63-.95,1-.95,1l-.08-.07.8-1.07c.26-.33.51-.78.84-1.27s.65-1.08,1-1.71c.73-1.26,1.51-2.77,2.32-4.4s1.63-3.39,2.44-5.16c3.26-7,6.11-14.28,6.11-14.28Z"/><path class="cls-1" d="M210.29,164.86s-.14.53-.42,1.43-.68,2.21-1.26,3.73-1.18,3.32-2,5.18-1.63,3.86-2.5,5.84-1.88,3.9-2.78,5.72c-.43.92-.92,1.77-1.39,2.58s-.89,1.58-1.3,2.29a19.53,19.53,0,0,1-1.17,1.89l-1,1.42c-.54.79-.87,1.22-.87,1.22l-.09,0,.71-1.3c.44-.84,1.14-2,1.83-3.46s1.58-3.14,2.42-5,1.78-3.79,2.66-5.76c3.61-7.85,7-15.8,7-15.8Z"/><path class="cls-1" d="M198.53,168.51s-.19.54-.57,1.47-.89,2.26-1.62,3.81-1.51,3.39-2.49,5.29-2,3.93-3.08,5.95-2.26,4-3.35,5.81-2.23,3.5-3.16,4.93c-.47.72-.91,1.37-1.35,1.92l-1.12,1.43c-.62.79-1,1.22-1,1.22l-.08-.06.85-1.32,1-1.5c.39-.58.76-1.27,1.2-2,.86-1.47,1.88-3.19,2.9-5.06s2.15-3.86,3.22-5.87c4.39-8,8.59-16.06,8.59-16.06Z"/><path class="cls-1" d="M183.4,175.94s-.15.51-.46,1.37-.75,2.11-1.38,3.55-1.31,3.16-2.18,4.92-1.8,3.64-2.76,5.51-2.08,3.65-3.11,5.33c-.5.85-1,1.65-1.55,2.39s-1,1.45-1.48,2.08a20.63,20.63,0,0,1-1.35,1.7c-.43.48-.78.92-1.11,1.24-.67.66-1.06,1-1.06,1l-.07-.07.91-1.11c.29-.35.59-.81,1-1.33s.76-1.12,1.19-1.78c.85-1.31,1.79-2.88,2.77-4.58s2-3.53,3-5.37c4-7.36,7.61-14.9,7.61-14.9Z"/><path class="cls-1" d="M168.8,180.51s-.19.58-.57,1.57-.9,2.43-1.64,4.09-1.53,3.64-2.54,5.68-2.05,4.23-3.14,6.4-2.34,4.26-3.45,6.24c-.54,1-1.12,1.94-1.7,2.82l-1.59,2.48a19.59,19.59,0,0,1-1.42,2.05l-1.17,1.54c-.65.84-1,1.3-1,1.3l-.09-.05.9-1.41,1-1.61c.41-.61.82-1.34,1.27-2.13.89-1.58,2-3.4,3-5.42s2.23-4.13,3.32-6.29c2.26-4.28,4.43-8.62,6.05-11.87l2.67-5.44Z"/><path class="cls-1" d="M145.59,202.68s-.08.43-.27,1.18-.43,1.83-.83,3.08-.81,2.74-1.39,4.28L141.28,216c-.7,1.61-1.42,3.21-2.11,4.71s-1.47,2.83-2.11,4a22.7,22.7,0,0,1-1.79,2.68,5.35,5.35,0,0,1-.64.67,2.31,2.31,0,0,1-.28.18l-.06-.08.23-.21a5.89,5.89,0,0,0,.51-.71,30,30,0,0,0,1.47-2.8c1.13-2.36,2.5-5.58,3.82-8.82,2.68-6.46,5.17-13,5.17-13Z"/><path class="cls-1" d="M134.37,209.46a6.86,6.86,0,0,1-.08.71c-.08.44-.15,1.09-.33,1.83s-.38,1.61-.67,2.52c-.15.45-.28.92-.47,1.38s-.35.95-.53,1.42-.4.93-.59,1.4-.44.89-.64,1.32a25,25,0,0,1-1.32,2.27,8.62,8.62,0,0,1-1.14,1.51c-.31.34-.5.52-.5.52l-.08-.07.34-.59.39-.69.43-.94c.65-1.37,1.4-3.24,2.14-5.12,1.53-3.73,3-7.51,3-7.51Z"/><path class="cls-1" d="M117.37,436.4s.41-.07,1.13-.16,1.74-.23,3-.32l2-.17c.7-.07,1.44-.15,2.21-.17,1.53-.05,3.16-.19,4.8-.28s3.26-.12,4.79-.19,3-.1,4.2-.15,2.25-.09,3-.13h1.14l0,.11-4.06.63-4.19.44c-1.54.11-3.18.23-4.82.33s-3.29.13-4.83.15-3,.05-4.21.05c-2.47,0-4.11,0-4.11,0Z"/><path class="cls-1" d="M141.35,431.18s.32-.16.89-.38,1.38-.55,2.36-.88,2.14-.71,3.38-1.06c.62-.18,1.26-.38,1.92-.53l2-.52c1.34-.32,2.68-.64,4-.87.63-.15,1.26-.21,1.83-.34l1.63-.32c1-.21,1.88-.29,2.48-.39s1-.1,1-.1l0,.1-3.31,1-1.6.48c-.57.17-1.18.31-1.8.47l-3.93,1c-2.68.67-5.37,1.24-7.39,1.71l-3.36.75Z"/><path class="cls-1" d="M149.35,439l1-.43c.62-.24,1.49-.65,2.55-1.08s2.28-.94,3.61-1.42c.67-.24,1.33-.55,2-.8s1.41-.51,2.11-.8l2.1-.81c.69-.27,1.39-.49,2-.78s1.3-.5,1.91-.72,1.2-.42,1.71-.66c1-.47,1.95-.76,2.57-1s1-.35,1-.35l.05.09-3.34,1.82c-.49.29-1.07.52-1.66.8l-1.87.87c-1.29.61-2.72,1.13-4.13,1.72-.7.29-1.43.52-2.14.77s-1.4.51-2.08.73c-1.36.42-2.62.85-3.72,1.16-2.19.65-3.67,1-3.67,1Z"/><path class="cls-1" d="M164.12,439l.77-.65c.51-.37,1.19-1,2.05-1.63s1.83-1.43,2.91-2.22c.56-.38,1.07-.84,1.65-1.25l1.7-1.27,1.68-1.29c.54-.44,1.14-.8,1.64-1.24s1-.81,1.51-1.19,1-.7,1.36-1.06c.78-.72,1.51-1.25,2-1.67s.8-.6.8-.6l.08.06-2.44,2.65c-.38.4-.83.77-1.28,1.19l-1.44,1.32c-.49.46-1.06.87-1.6,1.32l-1.68,1.35c-.59.41-1.17.84-1.75,1.25s-1.14.83-1.71,1.19c-1.13.74-2.17,1.44-3.1,2-1.83,1.14-3.1,1.83-3.1,1.83Z"/><path class="cls-1" d="M185.51,439l.72-.61c.48-.36,1.13-.92,1.93-1.54s1.74-1.34,2.76-2.08c.52-.35,1-.77,1.56-1.16l1.61-1.18c.54-.39,1.06-.81,1.58-1.2s1.07-.76,1.55-1.15c1-.81,1.92-1.48,2.71-2.11s1.4-1.19,1.85-1.59.75-.59.75-.59l.08.07-2.24,2.55-2.55,2.36c-.48.42-1,.82-1.52,1.24s-1.05.85-1.59,1.26c-1.12.77-2.2,1.58-3.28,2.27s-2.06,1.34-2.94,1.85c-1.73,1.06-2.93,1.7-2.93,1.7Z"/><path class="cls-1" d="M203.75,441.9l.34-.64c.24-.38.52-1,.91-1.62s.8-1.45,1.31-2.23c.23-.41.45-.85.72-1.26s.53-.84.75-1.29.49-.86.74-1.28.5-.84.7-1.26c.41-.83,1-1.55,1.26-2.25s.67-1.23.88-1.63a6.41,6.41,0,0,1,.38-.62l.1,0-.78,2.44c-.22.73-.64,1.53-1,2.42a11.52,11.52,0,0,1-.64,1.33l-.73,1.35c-.24.45-.53.87-.81,1.3l-.8,1.24c-.58.76-1.08,1.51-1.58,2.1-1,1.21-1.66,1.94-1.66,1.94Z"/><path class="cls-1" d="M232.61,441.3a15.57,15.57,0,0,1,.7-1.93c.24-.56.52-1.2.87-1.86.18-.33.33-.69.53-1l.58-1c.2-.34.4-.67.59-1s.43-.65.62-1c.38-.63.77-1.2,1.13-1.69a12.88,12.88,0,0,1,1.24-1.63l.09,0s-.3.75-.76,1.86l-.89,1.85c-.35.67-.74,1.37-1.12,2.08s-.82,1.37-1.23,2-.78,1.23-1.12,1.72c-.67,1-1.14,1.65-1.14,1.65Z"/><path class="cls-1" d="M218.93,441.3s0-.17.09-.45.17-.68.32-1.13a12.12,12.12,0,0,1,.56-1.48c.11-.27.2-.55.33-.82l.39-.82c.3-.54.61-1.06.87-1.57a11.71,11.71,0,0,1,.84-1.35,8.51,8.51,0,0,1,1.06-1.25l.1,0-.57,1.45c-.18.44-.38.94-.59,1.49-.12.27-.21.56-.36.83s-.27.56-.41.83l-.86,1.63c-.29.5-.59,1-.83,1.36-.48.81-.85,1.31-.85,1.31Z"/><path class="cls-1" d="M279.73,436.77s0-.18.09-.47.13-.72.26-1.19.31-1,.47-1.55a8.81,8.81,0,0,1,.28-.87l.33-.88.39-.85c.1-.3.23-.58.34-.85a11.36,11.36,0,0,1,.72-1.48,9.08,9.08,0,0,1,.94-1.41l.11,0-.45,1.56c-.13.47-.29,1-.46,1.6-.08.29-.17.59-.26.9l-.36.89c-.25.6-.51,1.19-.75,1.75s-.54,1.05-.75,1.48a12.68,12.68,0,0,1-.81,1.4Z"/><path class="cls-1" d="M287.55,434.69a3,3,0,0,1-.26-.85,3.08,3.08,0,0,1,0-.81,3.15,3.15,0,0,1,.05-.43l.1-.43a4.86,4.86,0,0,1,.36-.8,3.32,3.32,0,0,1,.48-.65,3,3,0,0,1,.71-.55l.09,0-.64,2.28-.75,2.25Z"/><path class="cls-1" d="M354.5,422.17a15.52,15.52,0,0,1,.47-2.27c.2-.66.34-1.41.58-2.2.13-.39.22-.8.32-1.21l.33-1.25c.17-.84.37-1.67.48-2.46.06-.4.13-.79.16-1.16s.1-.73.12-1.06c.07-.67.15-1.24.21-1.64s.11-.63.11-.63l.11,0s.11.9.2,2.25c0,.34,0,.71,0,1.1a10.14,10.14,0,0,1,0,1.22,9.88,9.88,0,0,1-.14,1.31l-.24,1.33c-.13.43-.25.87-.38,1.3a10,10,0,0,1-.42,1.24c-.31.78-.56,1.54-.86,2.14l-.95,2Z"/><path class="cls-1" d="M363.2,419.21s0-.21.12-.59.2-.88.36-1.49.34-1.31.59-2c.12-.36.2-.75.34-1.13s.27-.76.36-1.16l.36-1.15c.12-.38.28-.75.36-1.12s.22-.71.33-1.05.24-.64.31-.94a15.26,15.26,0,0,1,.69-2h.1s-.07.83-.17,2.09a7.58,7.58,0,0,1-.15,1c-.07.35-.14.73-.22,1.12-.12.77-.41,1.57-.61,2.38-.11.41-.28.79-.42,1.18s-.28.77-.42,1.13c-.32.72-.59,1.4-.88,2-.53,1.14-1,1.86-1,1.86Z"/><path class="cls-1" d="M371.54,417.31a5.18,5.18,0,0,1-.29-1.25c-.05-.37-.07-.8-.09-1.24,0-.22,0-.46,0-.68l.06-.7a10.94,10.94,0,0,1,.28-1.34,7.3,7.3,0,0,1,.42-1.15,5.69,5.69,0,0,1,.65-1.11h.11s-.22,1.88-.43,3.76c-.14.93-.24,1.87-.4,2.56s-.22,1.16-.22,1.16Z"/><path class="cls-1" d="M323.12,429.42a4.24,4.24,0,0,0,.19-.72c.1-.41.16-1,.25-1.57a2.07,2.07,0,0,0,0-.43,2.87,2.87,0,0,1,0-.42,2.54,2.54,0,0,1,.23-.72,2.5,2.5,0,0,1,.47-.68h.1a2.26,2.26,0,0,1,.26.78,3,3,0,0,1,0,.8,4.07,4.07,0,0,1-.29.85l-.35.84a4.58,4.58,0,0,1-.38.7,4,4,0,0,1-.43.61Z"/><path class="cls-1" d="M327.81,428.13s0-.37.06-.94.07-1.31.09-2.06c0-.37,0-.75,0-1.1a4.12,4.12,0,0,1,.2-.93,3.63,3.63,0,0,1,.44-.91h.1a3.14,3.14,0,0,1,.29,1,3.83,3.83,0,0,1,0,1,6.43,6.43,0,0,1-.25,1.1,20.26,20.26,0,0,1-.55,2c-.18.55-.32.9-.32.9Z"/><path class="cls-1" d="M258.61,438.71a3.87,3.87,0,0,1-.08-.71,7.24,7.24,0,0,1,.15-1.38,8.28,8.28,0,0,1,.46-1.31,2.85,2.85,0,0,1,.38-.6,2.55,2.55,0,0,1,.21.67,3.77,3.77,0,0,1,.07.7,3.39,3.39,0,0,1-.1.77,7.32,7.32,0,0,1-.25.75,4.13,4.13,0,0,1-.35.6A2,2,0,0,1,258.61,438.71Z"/><path class="cls-1" d="M262.65,437.8s0-.1,0-.26,0-.4.07-.65.08-.53.12-.86.13-.64.21-1,.14-.67.25-1a6.25,6.25,0,0,1,.3-.84,4.31,4.31,0,0,1,.45-.81,4.18,4.18,0,0,1,.14.9,5.57,5.57,0,0,1,0,.92,6.29,6.29,0,0,1-.13,1,6,6,0,0,1-.81,1.83,3.15,3.15,0,0,1-.44.51Z"/><path class="cls-1" d="M197.21,499.44s.32.14.85.4,1.3.64,2.18,1.14,1.9,1.1,3,1.76c.53.34,1.09.67,1.64,1l1.66,1.1c1.1.77,2.21,1.53,3.22,2.26.52.36,1,.74,1.45,1.09l1.3.95c.42.29.77.59,1.09.85s.63.42.87.59c.48.33.76.55.76.55l0,.1-.84-.4-1-.46-1.19-.69c-.88-.5-1.88-1.12-2.93-1.81s-2.19-1.42-3.31-2.17c-4.44-3-8.78-6.22-8.78-6.22Z"/><path class="cls-1" d="M211.82,499.44l.68.31c.41.22,1,.48,1.73.85s1.52.79,2.36,1.29c.42.24.88.46,1.32.73s.88.54,1.34.78l1.34.78c.44.26.86.55,1.29.77.85.46,1.59,1,2.28,1.4s1.24.76,1.64,1,.61.43.61.43l0,.1-2.46-1c-.74-.29-1.56-.72-2.46-1.14s-1.8-1-2.73-1.47c-.47-.25-.9-.55-1.35-.82l-1.29-.82c-.81-.57-1.59-1.07-2.23-1.54-1.29-.92-2.1-1.6-2.1-1.6Z"/><path class="cls-1" d="M245.47,499.44a15.26,15.26,0,0,1,2.05,1c.6.31,1.27.72,2,1.17.34.23.71.46,1,.72l1.08.77,1,.81c.35.26.67.55,1,.81s.61.54.9.79.55.49.79.72l1.16,1.12.45.45-.05.1-.53-.31a13.88,13.88,0,0,1-1.38-.84c-1.12-.72-2.56-1.76-4-2.82-2.83-2.15-5.59-4.39-5.59-4.39Z"/><path class="cls-1" d="M249.15,493.91a14.4,14.4,0,0,1,1.93,1.12,20.89,20.89,0,0,1,1.81,1.32c.31.27.66.51,1,.81l.94.91c.61.63,1.22,1.26,1.75,1.89s1,1.24,1.39,1.78a14,14,0,0,1,1.16,1.88l-.07.07-4.95-4.87c-1.2-1.26-2.49-2.43-3.43-3.33l-1.57-1.5Z"/><path class="cls-1" d="M264.12,498.77a5.52,5.52,0,0,1,1.26.4,7.45,7.45,0,0,1,1.13.61c.19.12.41.22.6.36l.59.41a12.06,12.06,0,0,1,1.05.94,8.47,8.47,0,0,1,.82,1,5.36,5.36,0,0,1,.67,1.15l-.05.09L267,501.36l-1.13-.88-.94-.83-.92-.8Z"/><path class="cls-1" d="M295.55,491.62a7.28,7.28,0,0,1,1.74.61,11.31,11.31,0,0,1,1.65.89c.28.19.58.37.86.59l.86.65.82.69c.27.23.49.5.73.74a15.62,15.62,0,0,1,1.21,1.42,9.76,9.76,0,0,1,1,1.56l-.07.07L303,497.68c-.82-.68-1.85-1.66-3-2.51l-1.62-1.32c-.51-.43-1-.78-1.45-1.11-.85-.64-1.44-1-1.44-1Z"/><path class="cls-1" d="M305.72,491.62a9.1,9.1,0,0,1,1.73.64,18.22,18.22,0,0,1,1.63.89,21.16,21.16,0,0,1,1.73,1.23c.54.46,1.1.92,1.58,1.4a17.44,17.44,0,0,1,1.21,1.43,9.21,9.21,0,0,1,1,1.56l-.07.07-1.34-1.16-1.38-1.2-1.64-1.29c-1.1-.91-2.23-1.77-3.08-2.42l-1.42-1.07Z"/><path class="cls-1" d="M341.19,482.75s.28.12.73.37,1.11.6,1.86,1.06,1.61,1,2.5,1.63c.44.32.92.61,1.38,1s.93.67,1.39,1l1.37,1.06c.45.34.86.74,1.29,1.06.86.67,1.6,1.37,2.27,1.93s1.17,1.12,1.55,1.47.56.6.56.6L356,494s-1-.67-2.4-1.65l-2.46-1.69c-.88-.64-1.81-1.35-2.74-2s-1.86-1.41-2.71-2.09l-2.33-1.86-2.26-1.84Z"/><path class="cls-1" d="M352.16,482.76s.22.13.57.39.87.63,1.44,1.11,1.23,1,1.9,1.67,1.37,1.33,2.06,2c.33.36.66.72,1,1.06s.64.71.95,1.05l1.63,1.91,1.14,1.38c.28.34.43.56.43.56l-.06.08-.54-.42c-.33-.28-.84-.62-1.38-1.13s-1.21-1.07-1.86-1.72-1.38-1.33-2.06-2.05c-2.73-2.85-5.3-5.84-5.3-5.84Z"/><path class="cls-1" d="M358.33,479.11s.19.1.49.3.72.5,1.2.87,1,.83,1.54,1.34c.27.26.57.5.84.78l.83.84.78.88c.26.29.49.6.75.87.48.55.91,1.1,1.26,1.59a13.55,13.55,0,0,1,1.09,1.75l-.07.08L365.59,487l-1.48-1.41c-.56-.5-1.08-1.1-1.64-1.67l-1.59-1.72-1.34-1.55c-.79-.89-1.29-1.52-1.29-1.52Z"/><path class="cls-1" d="M369.12,477.05s0,.05.07.11a1.11,1.11,0,0,0,.22.22c.11.1.21.22.36.34s.33.26.5.42.39.31.59.49.42.36.64.55a7.92,7.92,0,0,1,.69.61c.22.22.45.43.69.64.45.45.91.9,1.3,1.36a15.81,15.81,0,0,1,1.07,1.29,9.58,9.58,0,0,1,.9,1.44l-.07.08-1.24-1.05c-.76-.61-1.73-1.48-2.69-2.37-.47-.44-.9-.94-1.32-1.37s-.77-.91-1.07-1.29l-.37-.56a3.66,3.66,0,0,1-.25-.46,1.8,1.8,0,0,1-.11-.33.27.27,0,0,1,0-.12Z"/><path class="cls-1" d="M385.55,472.07a18.09,18.09,0,0,1,1.32,1.33c.38.41.79.89,1.22,1.4.2.27.45.51.65.79s.45.54.67.81l1.29,1.6c.23.23.41.5.61.73s.38.45.55.65c.37.39.65.75.88,1a4.89,4.89,0,0,1,.35.4l0,.09-.44-.24c-.13-.09-.32-.17-.5-.3l-.62-.43a15.84,15.84,0,0,1-1.42-1.23,20.55,20.55,0,0,1-1.46-1.59,30.56,30.56,0,0,1-2.27-3.33c-.55-1-.87-1.61-.87-1.61Z"/><path class="cls-1" d="M394.68,472.07l.42.33,1.07.8c.23.16.47.32.71.52s.53.36.79.56c.53.4,1.11.82,1.71,1.21a9,9,0,0,0,.86.63c.3.18.57.4.85.59s.53.41.78.61.5.35.73.51a12.11,12.11,0,0,1,1.44,1.26l0,.1-1.68-.79-.82-.39-.87-.51-.93-.54a9.39,9.39,0,0,1-.93-.62c-.3-.22-.6-.45-.9-.66s-.55-.48-.81-.71-.52-.45-.74-.69l-.62-.66c-.19-.21-.34-.41-.48-.59a4,4,0,0,1-.36-.47,4.35,4.35,0,0,1-.27-.44Z"/><path class="cls-1" d="M409.28,464.5a5.21,5.21,0,0,1,.49.25c.31.17.75.4,1.24.7s1,.69,1.62,1.08c.3.21.62.4.91.63l.89.68c.57.49,1.16,1,1.72,1.41a16.3,16.3,0,0,1,1.46,1.31,13.16,13.16,0,0,1,1.31,1.49l-.06.09-1.6-1.06L415.62,470a17,17,0,0,1-1.83-1.33L412,467.23c-.56-.45-1-.94-1.46-1.32-.86-.77-1.38-1.34-1.38-1.34Z"/><path class="cls-1" d="M429.36,460.06l.42.18a8.59,8.59,0,0,1,1,.45c.38.2.89.43,1.37.72a7.2,7.2,0,0,1,.73.45l.73.51a17.37,17.37,0,0,1,1.41,1.07,13.45,13.45,0,0,1,1.14,1.09,8.08,8.08,0,0,1,1,1.26l-.06.09-4.07-2.66-1.42-1.09c-.45-.35-.89-.65-1.22-1l-.84-.73-.28-.3Z"/><path class="cls-1" d="M435.15,452.92s.28.17.75.49,1.13.78,1.9,1.36,1.65,1.27,2.58,2l1.43,1.16,1.45,1.21c.47.43,1,.82,1.44,1.22s.94.82,1.39,1.21c.91.75,1.73,1.5,2.46,2.12.37.31.71.57,1,.83l.78.65c.43.37.67.6.67.6l-.05.09-.76-.45-.87-.52c-.33-.2-.72-.41-1.12-.69-.78-.55-1.7-1.19-2.67-1.91s-2-1.52-2.94-2.35-1.95-1.67-2.82-2.49-1.71-1.57-2.4-2.24c-1.4-1.32-2.29-2.24-2.29-2.24Z"/></g></g></svg>