<svg xmlns="http://www.w3.org/2000/svg" viewBox="0 0 75.62 43.06"><defs><style>.cls-1{fill:#f1ecce;}</style></defs><title>gulpereel_name</title><g id="圖層_2" data-name="圖層 2"><g id="gulpereel_name"><path class="cls-1" d="M7,8.9a91.24,91.24,0,0,0,15.43-2c1.89-.35,1.09-3.24-.8-2.89A86.88,86.88,0,0,1,7,5.9a1.5,1.5,0,0,0,0,3Z"/><path class="cls-1" d="M2.71,18.44c7.44-.57,14.77-2,22.18-2.87,1.9-.22,1.92-3.22,0-3-7.41.88-14.74,2.3-22.18,2.87-1.92.15-1.93,3.15,0,3Z"/><path class="cls-1" d="M12.71,7.47C9.75,16.39,5,24.36.22,32.4a1.5,1.5,0,0,0,2.59,1.52c4.87-8.27,9.75-16.5,12.79-25.65.61-1.83-2.28-2.62-2.89-.8Z"/><path class="cls-1" d="M12.8,18.86c5.8,1.15,11.05,4,16.34,6.53,1.74.83,3.26-1.76,1.52-2.59-5.51-2.62-11-5.64-17.06-6.83-1.88-.37-2.69,2.52-.8,2.89Z"/><path class="cls-1" d="M10.27,24.81c0,5-.13,10-.24,15.06,0,1.93,3,1.93,3,0,.11-5,.23-10,.24-15.06a1.5,1.5,0,0,0-3,0Z"/><path class="cls-1" d="M13.36,27.45c2.1-.5,6.3-2.1,7.93.05s1.08,7.07-.56,9.2c-1.17,1.53,1.43,3,2.59,1.51,2.39-3.1,2.75-9.35.34-12.56-2.59-3.46-7.61-1.92-11.09-1.09-1.88.44-1.09,3.34.79,2.89Z"/><path class="cls-1" d="M11.93,41.32c3.34-.56,6.68-1.15,10-1.7,1.9-.32,1.09-3.21-.8-2.9l-10,1.7c-1.9.32-1.09,3.21.8,2.9Z"/><path class="cls-1" d="M42.63,5c-1.47,3.17-3,6.38-4.11,9.69l2.9.8.19-.44c1.16-1.54-1.44-3-2.59-1.52a2.42,2.42,0,0,0-.5,1.16,1.51,1.51,0,0,0,2.9.8,97,97,0,0,1,3.8-9C46,4.74,43.44,3.21,42.63,5Z"/><path class="cls-1" d="M43.2,11.5c1-.23,2.08-.57,3.14-.75a3.25,3.25,0,0,0,.37,0s0-.13-.1-.07-.2-.15-.17-.18.06.61.05.5c.08,1.63-.78,3.38-1.36,4.88-.71,1.8,2.19,2.58,2.89.8.83-2.14,2-4.83,1.25-7.15-1-3-4.77-1.36-6.87-.89-1.88.41-1.08,3.31.8,2.89Z"/><path class="cls-1" d="M40,18.27a95.41,95.41,0,0,1-.21,10.29c-.12,1.93,2.88,1.93,3,0A95.41,95.41,0,0,0,43,18.27c-.09-1.92-3.09-1.93-3,0Z"/><path class="cls-1" d="M42.86,19.92c1.87-1.1,5.46-3.22,7.59-1.7,1,.71,1.15,2,1.28,3.16.07.62.41,3.06.18,3.35-1.18,1.5.93,3.64,2.12,2.12s.89-3.53.73-5.24c-.18-1.88-.46-3.77-1.83-5.2-3.16-3.3-8.34-1-11.58.92a1.5,1.5,0,0,0,1.51,2.59Z"/><path class="cls-1" d="M43.77,25.88a41.14,41.14,0,0,1,6.48-2.55c1.78-.68,1-3.58-.8-2.89-2.42.92-5,1.53-7.19,2.85a1.5,1.5,0,0,0,1.51,2.59Z"/><path class="cls-1" d="M45.44,18.36c.15,2.38.77,5.08-.1,7.37-.69,1.81,2.21,2.59,2.89.8,1-2.57.38-5.51.21-8.17-.12-1.92-3.12-1.93-3,0Z"/><path class="cls-1" d="M43.83,30.09c2.8-1.13,5.77-1.74,8.55-2.93,1.77-.76.24-3.34-1.52-2.59-2.53,1.08-5.27,1.59-7.83,2.62-1.77.72-1,3.62.8,2.9Z"/><path class="cls-1" d="M41.24,28.86a73.11,73.11,0,0,1-4,11.9L40,41.92l.2-.44c1.16-1.54-1.45-3-2.6-1.51a2.38,2.38,0,0,0-.49,1.15c-.32,1.55,2,2.81,2.74,1.16a77.37,77.37,0,0,0,4.33-12.62c.45-1.87-2.44-2.68-2.89-.8Z"/><path class="cls-1" d="M43,29.57a51.18,51.18,0,0,1,1.28,9.81c.15,1.91,3.16,1.92,3,0-.28-3.49-.42-7.23-1.39-10.61a1.5,1.5,0,0,0-2.89.8Z"/><path class="cls-1" d="M46.47,29.57c1.31,3.32,1.7,6.86,2.31,10.35.34,1.9,3.23,1.09,2.9-.8-.61-3.49-1-7-2.31-10.35-.7-1.77-3.6-1-2.9.8Z"/><path class="cls-1" d="M50.8,28.34a26.22,26.22,0,0,1,3.77,11.48h3l0-.42c-.1-1.92-3.1-1.93-3,0l0,.42c.1,1.92,3.09,1.94,3,0a29.38,29.38,0,0,0-4.17-13,1.5,1.5,0,0,0-2.6,1.51Z"/><path class="cls-1" d="M56.93,3.2c0,3.52-.13,7,0,10.55.09,1.92,3.09,1.93,3,0-.16-3.52,0-7,0-10.55a1.5,1.5,0,0,0-3,0Z"/><path class="cls-1" d="M59.19,4.5c2-1,6.2-2.77,7.79-.27,1.07,1.69.37,4.65.14,6.35-.26,1.89,2.63,2.7,2.89.8.43-3.14,1.26-7.1-1.19-9.65C65.88-1.33,60.9.27,57.68,1.91c-1.73.87-.21,3.46,1.51,2.59Z"/><path class="cls-1" d="M61.19,7.8l5.57-1.22c1.89-.41,1.09-3.3-.79-2.89L60.39,4.9c-1.89.41-1.09,3.31.8,2.9Z"/><path class="cls-1" d="M60.55,12.74l5.74-1.4c1.88-.46,1.09-3.35-.79-2.89l-5.75,1.4c-1.87.46-1.08,3.35.8,2.89Z"/><path class="cls-1" d="M55.83,16.37l.37,6.78c.11,1.92,3.11,1.93,3,0l-.37-6.78c-.1-1.92-3.1-1.94-3,0Z"/><path class="cls-1" d="M58.12,18.34A35.62,35.62,0,0,1,65.49,16c1.11-.2,2.77-.51,3.79.08,1.43.82,1.11,3.23,0,4.2-1.45,1.27.68,3.39,2.13,2.12,2.84-2.51,2.33-7.95-1.42-9.25-4-1.38-9,.83-12.67,2.33-1.77.73-1,3.63.79,2.9Z"/><path class="cls-1" d="M61.1,16.26l-.42,5.48c-.15,1.93,2.85,1.92,3,0l.42-5.48c.16-1.93-2.85-1.92-3,0Z"/><path class="cls-1" d="M65.23,15.13l.3,5.44c.1,1.92,3.1,1.93,3,0l-.3-5.44c-.11-1.92-3.11-1.94-3,0Z"/><path class="cls-1" d="M58.1,24.6c4.08-.64,8.16-1.32,12.26-1.8,1.89-.23,1.91-3.23,0-3C66,20.31,61.65,21,57.3,21.71c-1.9.29-1.09,3.19.8,2.89Z"/><path class="cls-1" d="M59.79,28.8a46.45,46.45,0,0,1,5.46-1.52c.56-.11,2-.5,2.6-.18s.45.41.19,1.25c-1.29,4.09-6.55,7.35-10,9.39a1.5,1.5,0,0,0,1.51,2.59,39.21,39.21,0,0,0,7.85-5.95c1.85-1.82,4.1-4.48,3.87-7.29C70.77,21.58,61.82,25,59,25.91c-1.83.58-1.05,3.48.8,2.89Z"/><path class="cls-1" d="M58.66,32.17C63.55,33.9,69.89,36.8,73.15,41c1.2,1.52,3.31-.62,2.13-2.12-3.6-4.58-10.45-7.66-15.82-9.57-1.82-.64-2.61,2.26-.8,2.9Z"/></g></g></svg>