<svg xmlns="http://www.w3.org/2000/svg" viewBox="0 0 250 146"><defs><style>.cls-1{fill:#c1bd31;opacity:0.8;}.cls-2{fill:#eee9cc;opacity:0.4;}.cls-3{fill:#fff;}</style></defs><title>area_detail</title><g id="圖層_2" data-name="圖層 2"><g id="area_detail"><path class="cls-1" d="M215,0H35A35.1,35.1,0,0,0,0,35V88a35.1,35.1,0,0,0,35,35h72.39A95,95,0,0,0,125,146a95,95,0,0,0,17.61-23H215a35.1,35.1,0,0,0,35-35V35A35.1,35.1,0,0,0,215,0Z"/><path class="cls-2" d="M132.43,17.33C85.3,17.33,47.1,37.87,47.1,63.2s38.2,45.88,85.33,45.88,85.33-20.54,85.33-45.88S179.55,17.33,132.43,17.33Zm-6.64,37.58c-6.51.62-12-1.53-12.35-4.81s4.71-6.43,11.22-7.05,12,1.53,12.35,4.8S132.3,54.29,125.79,54.91Z"/><path class="cls-3" d="M121.59,34.43c.26-.28.4-1,.85-1.2s.17-.57.49-.89a8.68,8.68,0,0,1,1.93-1.8c.65-.26,1.43,0,1.81-.08s.68-.51,1.44-.16.88.49,1.27.42a3,3,0,0,1,1.51.42,16,16,0,0,0,2.24.21c.21.09-.13.63-.44.63s0,.41-.25.66-1,.24-1.39.13c-.79-.22-.86.55-.38.71s.44.38.25.79,1.58.36,1.35-.1a.76.76,0,0,1,.6-1c.61,0,.37-.86,1.19-.63s.61.18.79-.26.59-1.07,1.06-.61c.22.21.57,0,1.5-.44a16.64,16.64,0,0,1,2.82-.71,1.93,1.93,0,0,1,1.49.28c.08.34.61-.52.26-.48s-.56-.93-.18-1.09a.43.43,0,0,0-.07-.83c-.41-.08.55-1.09,1.06-.87s.59,0,.9-.07.55.56.34,1-.3,1-.11.95.34.88,0,1.09-.08.37-.13.61-.48.3-.33.57.62.05.81-.21.28.22.59,0,.29-.46.74-.36.87-.59.68-.8-.46-.22-.7-.43-.48-.1-.86-.41a.49.49,0,0,1,0-.82c.19-.1.14-.17.39-.33.4-.25.53,0,.89.25.52.33.6-.42.93-.35.54.12.22-.66.58-1.39s1.16-.71,2-.71a3.4,3.4,0,0,0,2.19-.8,2.09,2.09,0,0,1,2.13.05,3.56,3.56,0,0,0,1.54-.26c.52-.15.66.42.28.89a2.24,2.24,0,0,0-.58,1.58c.11.37,1.45.56,1.77.11a1.1,1.1,0,0,1,1.58-.07c.53.45.93.58,1.42.32s1-.18,2.09.13,2.83.42,3.12.11,1.17-1.26,2.1-.34,1.49-.36,2-.83c.22-.2.9-.12,1.31-.14a3.54,3.54,0,0,0,1.16-.22c.38-.16.94.37,1.4,0s.65-.69,1.21-.65a1.24,1.24,0,0,0,1-.3c.36-.28.43-.38,1.51,0a2,2,0,0,0,2-.1,1.68,1.68,0,0,1,2.1,0c.36.32,1,.27,1.1.4a2.21,2.21,0,0,0,2.43,0,2.18,2.18,0,0,1,3,.26c1.12,1,1.59,1.22,2.15,1.24s.68.55,1.1,1,2.23,1.15,1,1.05-1.61-.33-2,.06-.33,1-.67,1.18-.74-.63-1.07-.75a13.25,13.25,0,0,0-1.45,0c-.52,0-1.65.17-1.22.85s1.12.19,1.46,1.29c.41,1.31.1,2.52-.33,2.42s-.11-.58-.83-.71c-.34-.07-.45-.42-.64-.68s-.73-.37-.95-.49-.46-.31-.08-1.41-.52-.83-.52-.67-.37.3-.51-.1a.62.62,0,0,0-1,0c-.26.38,0,1.39-.53,1.69-.3.17-1.34.29-1.59,0s-.2-.54-1.24-.12a2.29,2.29,0,0,1-2.23,0c-.52-.36-1,.5-1,1.07s.06,1-.37,1.24-.38.7.15.46.43.4.67.76,1,0,1.57,0,2,2.53,1.43,3.68-.76,1.19-.76,1.19c0,.62-.57,1-.9.9s-.32-.66-.61-.66-.68.56-.92.19-.75.32-.61.85-.56.65-.28,1.05,0,1,.38,1.22,1.56,1,1.41,1.87c-.21,1.1-1.14,2.1-1.57,2.09-.66,0-.34-1.39-.34-1.39a2.36,2.36,0,0,1-.25-1.26c.09-.47-.15-.47-.44-.45-.52,0-1-.11-.78-1,.18-.57-.89-1.59-1.14-1.53s-.16.15-.4.73c-.38.9-.74.68-1,0-.13-.32,0-1.43-.47-.82a4.42,4.42,0,0,0-.5,1.42c-.08.62-.78,1.39.11,1.37,1.15,0,1.4.08,1.64-.18s.5-.59.49.4c0,.79.18.93,1.19,1.4s.71,4.69.33,5.43a12.89,12.89,0,0,1-2.74,3.06c-.59.33-1.17.32-1.25.56s.15.95-.11,1c-.47.16-1.19-.94-1.19-.94a7.76,7.76,0,0,1-1.57-.32c-.24-.15-.61,0-.94.58s-.65,1.24-.47,1.44,1.13,1.11,1.41,1.41a2.58,2.58,0,0,1,.23,2.18c-.35.8.26,1.16-.14,1.47-.66.54-1.13,1.46-1.65,1.48s-.38-1-1-1c-.75,0-.92-.79-1.09-1s-.58-.23-.59-.37c-.06-.68-.79-.58-.76-.15.06.74.27,2.64.47,2.62s.23,1,.48,1.56a1.93,1.93,0,0,0,.95.93c.53.21,1.32,2.28.95,2.66s-1.37-1.12-1.51-1.74c-.18-.81-.94-.57-1-1.62s.13-1.26-.49-1.79-.08-1.1-.54-1.62a2.61,2.61,0,0,1-.36-1.69s-.24-.64-.34-.08-.87.36-.92-.38-.19-.73-.41-.89-.43-1.38-.81-1-.17.91-.56,1-.53-.38-.72-.68,0-.7-.14-1-.08-.14-.48-.35-.19-1.17-.44-1.31-.51-.52-1.37,2.1-1.47,2.28-1.64,2.62.05,1.55-.07,1.94a18.53,18.53,0,0,0-.81,3.15c-.05.81-.39,2.15-.76,2.2s-.29-.94-.67-1a8.18,8.18,0,0,1-2.1-1.94c-.07-.24-.64-2.07-.76-2.57s.43-1.42,0-1.84-.31-1.21-.43-1.54a4.12,4.12,0,0,1-.25-1.58c.07-.64,0-1.17-.48-1.11a2.62,2.62,0,0,1-1.32-.06c-.4-.21.24-.74-.32-.84-.3-.06-.28-.73-.49-.91s-1.71.31-2.14.22-.29-.75-.68-.83-.51,0-.9-.11-.77-.61-1.1-.51-1.08-.72-1-.93-.07-1.07-.34-1-1,.71-.69.78.17,1,.47,1.26.38.82.63.85.33,1.19.61,1.13.9-1.35,1.36-1.25.28,1,.28,1,.31.33.51.57.34,1.16,0,1.42-.13.56-.27,1a14.37,14.37,0,0,1-2.39,2,1.43,1.43,0,0,1-.33.74c-.27.25-1,.11-.93.53s-1.23,1-1.75,1.09-.37.79-.83.77-.51-2.28-1.06-2.65A15.39,15.39,0,0,1,133,58.7c-.15-.6-.43-.82-.62-1.41-.63-2-1.45-1.86-1.54-2.5,0-.26,0-1.53-.2-1.51s0,.68-.31.8-.33-.23-.52,0,.16.28.3.75.77,3.74,1.27,4,.63,2.08.91,2.3a2,2,0,0,1,1,1.42c.1.85.4.46.63,1.19s.4,1.18.62,1.23,1.13-.34,1.32,0c0,0,.37-.61.57-.65.72-.16.86.88.48,2.14A7.44,7.44,0,0,1,135.46,69c-.29.27-1.22,1.18-1,1.65.36.66-.55,2.08-1.17,2.81S132,77,131.5,77.33s-.53,1.88-.43,2.46c.16,1-1.4,1.85-1.62,1.94-.38.15-1.61.76-1.75,1.86a6.13,6.13,0,0,1-1.19,2.87,1.76,1.76,0,0,0-.73,2c.28,1.26-1.66,1.89-1.66,1.89l-1.58.1s-.87,1.1-1.25.05a13.46,13.46,0,0,1-.34-2.71c-.15-.59-.72-.67-1-1.48a7.93,7.93,0,0,1,.26-3,10.27,10.27,0,0,0-.47-4.5,2.2,2.2,0,0,1-.49-2.22,22.6,22.6,0,0,0,.45-3.17c.18-.77.59-1.49.11-1.8s-.23-1.58-.34-1.75c-.22-.33-1.08-1-.89-1.92s-.12-1-.93-.69-1.59,1-2,.88-2.94.89-3.8,0c-.69-.69-1.11-1-1.3-.63S109.1,67.33,109,66s-.49-1.37-.72-1.37-.12-1.08-.13-1.6-1-.42-.37-1.43c.38-.57,0-1.43.12-1.87a2.1,2.1,0,0,1,.48-.79s0-1.72.69-1.71c.29,0,.63-1.1,1.13-1.14s.58-.33.82-.7c.46-.71.65-.52,1.06-.78a5.11,5.11,0,0,0,1.18-1.19c.24-.37.2-1.12.35-1.45a.52.52,0,0,1,.49-.31.49.49,0,0,1,.76-.47,1.44,1.44,0,0,0,1.67-.21c.38-.37,2.06-1,2.44.06s.44.67.79.75.15.5.44.66a3.88,3.88,0,0,0,2-.14c.5-.22.18-.63.31-1a.62.62,0,0,1,1.08-.15,2.63,2.63,0,0,0,1.62.58c.24,0,.38-.26.62-.37a4.34,4.34,0,0,1,2,0,2.87,2.87,0,0,0,1.74.43c.71-.1,1.27-1.87,1.26-2.3a1,1,0,0,0-1.52-.85c-1.06.54-2.81,1.49-3.18.54-.29-.74.23-1-.29-1.27-.27-.15,0-.64.46-.64a5.87,5.87,0,0,0,1.11-.2c.4-.07.31-.43.79-.45s2-.07,2.07-.4-.2-.51-.47-.71-.16-1-.1-1.43-.06-.79-.49-.53a2.78,2.78,0,0,1-1.1.47c-.52.12-1,.72-1.38.77s-.85.86-.83,1.2-.92,1-.81,1.18.55,2,.17,2-.66-.45-1-.73.06-.89-.27-.94-.38-.09-.4-.47a1.44,1.44,0,0,0-.68-1.05c-.36-.15-.72-.09-.87-.31-.44-.65-.59-.06-.72-.44s-.86-1.25-1-.51a2.82,2.82,0,0,0,.48,1.67s.23.66.34.9.45-.06.58.46.11.78-.14.73,0-.61-.2-.45-.66,1.18-1,1,.35-1.13.26-1.44a1.52,1.52,0,0,0-.91-.84c-.36-.06-.43-.56-.66-.58s-.23.46-.6.56-.64-.06-1,0-.25.57-.52.63c-.44.1-.56.69-.79,1s0,1.58-.43,1.78a2.17,2.17,0,0,1-1.54-.05c-.52-.18-.69-1.3-1.12-1.32s-.33-.61-.16-.83l.82-1.09s-.18-.25.12-.67.92-.29,1.3-.13.4.38.49-.24-.07-1.27-.69-1.27-1-.72-.5-.79a9.26,9.26,0,0,1,1-.1s.53.32.79.22.09-.55.37-.6a1.77,1.77,0,0,0,.91-.38c.25-.23.33-1,.57-1a5.46,5.46,0,0,0,1.32-.62c.33-.19.7.12,1.26-.33.14-.11-.27-1.6.21-1.94.22-.15.43-.36.6-.14s-.05,1.4-.05,1.4h1.05l.23.43.43-.43.46-.15s.4.25.6.18.54-.87.54-.87a2.27,2.27,0,0,1,.64-.5,1.41,1.41,0,0,1,1-.08c.27.09.12.58.34.54s-.18-.9.06-1,1.46.4,1.55.25a1.17,1.17,0,0,0,0-.51s.56-.78-.25-.78-.51.16-.74.32a1.68,1.68,0,0,1-.83.44c-.28,0-.24-1.19-.24-1.19l-.4-.32a1.14,1.14,0,0,1,.66-1c.67-.26,1.26-1.74,1.07-2s-1.1-.53-1.33.59c0,0,.08.21-.23.59s-.33,0-.46.33-.07.81-.42,1.11.29.39.26.71a2.69,2.69,0,0,1-.67,1.16c-.22.17-.62,0-.9.15s-.49,1.12-.83,1.17-.74.12-.74-.4c0-.29-.22-.32-.3-.55s.28-.34.21-.64-.88-.48-1.25,0-.5,1-.86.92-.15-.22-.33-.58-.08-.35-.29-.57.09-.44,0-.62-.1,0-.3-.09-.25-.55,0-1S121.34,34.72,121.59,34.43Z"/><path class="cls-3" d="M114.6,42.64c0,.2,2.53.17,3-.38a1.18,1.18,0,0,0,.24-.95c-.06-.41-.34-.83-.24-1.06.2-.43-.2-.36-.25-.65s.22-.53.32-.78-.19-.28,0-.57,0-.36-.28-.51c-.12-.06,0-.28-.09-.48a.7.7,0,0,0-.72-.22c-.16.1-.4,1.19-.71,1.23s-.31.37-.31.37l.57,0v.17l-.13.25.13.35v.24s.17.69-.06.94-.13.77-.37,1S114.57,42.45,114.6,42.64Z"/><path class="cls-3" d="M114.92,41.91s.53-.34.37-.51-.11-.26-.11-.26l0-.39s-.43-.39-.55-.28a3.65,3.65,0,0,0-.4.79S114.41,41.94,114.92,41.91Z"/><path class="cls-3" d="M70.18,40.15c.78-.86.67-2.47-.54-2.42-1.56.06-.58.25-2.78.66a2,2,0,0,0-1.3.53c-.34.35-.49.22-.49.22l-.33-.66L64,38.1v-.53s1.84-.18,2.22-.65,1.24-.24,1.81-.52a4,4,0,0,0,1.33-.92,1.79,1.79,0,0,1,2-.16,3.66,3.66,0,0,0,2.13.07l1.14,0,1.13-.82H77.8l1,.71s2.37.15,2.54.19,1,.4,1.28.45a3.3,3.3,0,0,0,1.79-.67c.48-.42,2-.15,2.7.24a1.88,1.88,0,0,0,2.16-.42c.53-.47.56.34.94-.18a4.38,4.38,0,0,1,.69-.77s1.17,0,1.27.28-.25,1.08-.25,1.08a6.33,6.33,0,0,1,0,2,2.71,2.71,0,0,0-1.47.31c-.48.37-.91.33-1.09.8a1.27,1.27,0,0,1-1,.7s-.62.49-.57.7.48.74.09,1-.08.84.11.79.57.28.35.81,0,1.1.22,1.1.38-.28.53.28.86-.5.86-.5l.19-.73,1.46-1.15a11.1,11.1,0,0,0,.73-1.47c0-.29.88-1.6,1.17-1.6.58,0,.36.4.62,1s1.18-.19,1.18-.19l.81,0-.06,1,.42.45.12,1.36-1.31,1.27L94,44.12l-.91,0a9,9,0,0,1-1.23,1.25c-.23.14-.37-.09-.94.22a5,5,0,0,0-1.22.88c-.14.14-1.12,1-.31.74a1.41,1.41,0,0,0,.91-.84l1.24-.29L92.89,45s.66-.31.78-.21,0,.6,0,.6a2,2,0,0,1,0,.59c-.05.33-.88.9-.88.9s-.93.09-.84.52-.71.86-1.05.86a2.21,2.21,0,0,0-1.58.67,8.39,8.39,0,0,0-.63,1.33s-.39,1-.93,1a.81.81,0,0,0-.82.71.69.69,0,0,1-.94.51c-.48-.16-.72.52-.68,1.15s0,1.73,0,1.73-.19,1-.71-.43A6.05,6.05,0,0,1,84.12,53s.14-.82-.8-.46a8.35,8.35,0,0,1-2.45.22c-.4,0-1.12.55-1.62.42s-1.8,2.54-2.08,3.17a2.87,2.87,0,0,0-.24,1.17l-.55,1.78L77,60.48l1,0,.61-1.22s0-.63.31-.68a1.86,1.86,0,0,1,1.13.1s1.22-.22,1.31.18-.73.91-.73.91-.25.86-.78,1.11-.82,1.43-.82,1.43a1.4,1.4,0,0,1,.58-.16c.56-.06.59,1.84.59,1.84l.14.62.35,0,.16.64s.15.21.38-.2.5,0,.66.14.51.23.57.35l.23.54s.39-1.29.63-1.34a2.24,2.24,0,0,0,.49-.18l.23-.58.74,0s.34-.73.62-.79.2.52.2.52v.4l.07.12s1-.32,1.36.31.94.39,1.36.59a5.75,5.75,0,0,1,1.21,1.35s1.79-.2,2.13.19,1.06.32,1.39.32a1.16,1.16,0,0,1,1.07,1c0,.68.74,1.31,1.31,1.15s1,.5,1.29.34,1.4.06,1.64-.52a2.75,2.75,0,0,1,1.64,1.13c.71,1,1.37,2.24.84,2.87a3.11,3.11,0,0,0-.89,1.81,2.07,2.07,0,0,1-.81,1.56,3,3,0,0,0-.82,2,4.69,4.69,0,0,1-.93,2.36,2,2,0,0,0-.67,1.4c0,.42-.94,1.37-1.41,1.57a1.48,1.48,0,0,0-1,1,2.5,2.5,0,0,1-.63.93,5.42,5.42,0,0,1-.25,1.91,15,15,0,0,0-1.85,3c-.24.6-1.09,1.17-1.29,1.84-.15.51-.79.79-.74,1.89s-.6,2.66-.36,3.55.34,3.39,1.48,4.18.81.84.81.84a2.84,2.84,0,0,1-1.88-.29c-1.14-.52-1.39-1.78-2-1.84-.37,0-1.21-1-1.06-1.32s-.69,0-.69-1.09a2.14,2.14,0,0,0-.45-1.47,2.36,2.36,0,0,1,0-.92l-.2-.78-.1-2.52A1.57,1.57,0,0,1,85,91.33a2.08,2.08,0,0,0-.23-1.73,2.28,2.28,0,0,1-.28-2.15c.38-1,.81-3.15.53-3.62A4.68,4.68,0,0,1,85,81.47c.09-.84-1.91-2.58-2.67-2.63a1.35,1.35,0,0,1-1-.88l-.69-.21-.77-1.13s-.63-.65-.11-1.07l-.11-2.27a4.21,4.21,0,0,0,.42-1c0-.26-.23-.77,0-1.25s1.51-1.16,1.51-1.16.62-.78.43-1.21.18-1.05.18-1.05.44-.68.2-.86a2.7,2.7,0,0,1-.49-.83s-.7.12-.89.17-1,.11-1,.11l-.81-1s-.1-.84-.53-.89-1.58.26-1.39-.83c.28-1.66-.41-1-1.05-.74a2.39,2.39,0,0,1-2.46-.85c-.29-.42-1.66-.52-1.87-1.08s-.59-.86-1.67-1.31c-.28-.11-.52-.53-.11-1.92a5.29,5.29,0,0,0-.23-3.27c-.59-1.11-.92-1.38-.92-.7A9.08,9.08,0,0,0,69,54.74a3.38,3.38,0,0,1,.51,1.39c-.05.48.42,1,.29,1.17s-1-1.31-1-1.31-.12-.92-.41-.92-.39-.92-.34-1.13-.42-.56-.57-.56a3.18,3.18,0,0,1-.85-2.22,1,1,0,0,0-.39-1.23,3.21,3.21,0,0,1,.19-2.13c.39-.89.18-1.41.38-1.71s1.37-2.33,2.32-2.64.52-.65.52-1A1.61,1.61,0,0,1,70.13,41C70.39,40.79,70.18,40.15,70.18,40.15Z"/><path class="cls-3" d="M132.27,80.66a1.49,1.49,0,0,0,1-.67c.38-.6.38-.71.63-.56s.16.41,0,.66a7.44,7.44,0,0,0-.18,1.48,2.72,2.72,0,0,1-.56,1.18,2.46,2.46,0,0,0-.61,1.27c0,.42-1.08.81-1.08.81s-.65.19-.55-.16-.13-.79,0-1.3.36-.66.52-1.07,0-.77.12-1.11C131.58,81.06,131.67,80.48,132.27,80.66Z"/><path class="cls-3" d="M187.45,95.32a2.3,2.3,0,0,0,.39-.88c.22-.47.9-1.19,1-1.58s-.29-.2-.49.09-.07.38-.28.31-.23-.64-.44-.62-.21-.17-.37.26-.09.42-.29.6-.48.35-.5.6-.18.55.25.51.05.45,0,.71C186.7,95.73,186.94,95.85,187.45,95.32Z"/><path class="cls-3" d="M186,95.56c.07-.36.56.16.45.43a3.51,3.51,0,0,1-.29.74,3,3,0,0,1-.85.79c-.32.26-.63.65-.91.73s-.83.88-1.1.89-.28.32-.54.66a1.12,1.12,0,0,1-1.5,0c-.27-.43,1.19-1.16,1.37-1.48s.21-.76.63-1,1.69-.57,2-.81A1.94,1.94,0,0,0,186,95.56Z"/><path class="cls-3" d="M178,75.82c.1.34.57.22.45.71s-.08,1.28.3,1.39a1.06,1.06,0,0,1,.74,1,1.55,1.55,0,0,0,.47,1.27,5.26,5.26,0,0,1,1.55,2c.38,1,.36,3.07-.15,3.67S179.76,87,179.83,88a3.32,3.32,0,0,1-1.19,2.36c-.35.24-1.71,1.66-1.71,1.66s-.87.81-1.22.36-1.21-.13-1.21-.13a5.56,5.56,0,0,1-.54.64c-.22.2-1.68-.16-1.68-.16a2.33,2.33,0,0,0-1.09.22c-.36.3-.47-.67-.2-1s1.37-1.9,1.55-2.24.13-.68,0-.73a2.9,2.9,0,0,0-.78.31c-.22.19-.88.56-.88-.35s.09-1.11-.63-1.27a5.65,5.65,0,0,0-2,.09c-.53-.05-.79.46-1.14.72-.53.4-2.18.08-2.42.3a5.47,5.47,0,0,1-2.77.12c-.38-.24-.43-.28-.52-.14s-1.5.4-.78-.59a4.19,4.19,0,0,0,.72-1,16.93,16.93,0,0,0,1-4.13,3,3,0,0,1,1.1-2.14c.28-.28,1-.08,1.62-.71a2.36,2.36,0,0,1,1.87-.73c.7,0,.81,0,.95-.44.27-.87,1.09-1.41,1.16-1.13s.59.16.77-.22a.86.86,0,0,1,1-.53c.45,0,.7-.22,1.13-.5s.43-.4.8-.57.71-.26.88,0-.31.29-.41.47-.25.17-.19.54-.23.63-.48.91,1,.36,1.49.5a1.22,1.22,0,0,0,1.34-.44c.15-.31,0-.3.34-.6s.24-.71.34-1,.35-.37.45-.61.45-1.16.62-1.5.66-.38.66.39A1.57,1.57,0,0,0,178,75.82Z"/><path class="cls-3" d="M151.89,66.8c.19.22-.19.71.1,1a.54.54,0,0,0,.9-.42,3.27,3.27,0,0,0-.07-1.07s-.33-.84-.61-.82-.41.42-.41.77S151.69,66.59,151.89,66.8Z"/><path class="cls-3" d="M161.89,68.81c.4,0,1.27.18,1.46.55.31.58.5,1.18.78,1.37s.55,1.63.83,1.6.23.57,0,.69a2.47,2.47,0,0,1-1.45-.2c-.65-.23-.5-.63-.62-.94a1.22,1.22,0,0,0-.52-.58c-.48-.34-.61-1.84-.83-1.8s-.69,0-.7-.4.18-.5-.29-.5-1-.51-.46-.84.89.08,1.35.37S161.59,68.81,161.89,68.81Z"/><path class="cls-3" d="M164.93,73.37c.38-.1.71-.25,1,0s.59,0,1,.27c.66.4-.28.54-.54.58s-.86,0-1-.24,0-.12-.31-.17S164.38,73.52,164.93,73.37Z"/><path class="cls-3" d="M167.76,68.89c.42-.14.28.18.76,0s.28-.21.47-.57c.31-.58.58-.49.92-.42s.56-.5.69-.66c.34-.44.69-1.2,1-1.2a.66.66,0,0,1,.65.26c.25.25.09.49,0,.77s-.16.42,0,.49.39.12.29.58a2.23,2.23,0,0,1-.81,1.11c-.36.3-.71.73-.5,1.15s.06.93-.18.63-.36-.43-.33,0a2.6,2.6,0,0,1-.09.83c0,.28-.51.84-.88.83s-.37-.59-.61-.63-.19.22-.56.12-.21-1-.54-1.14a1.31,1.31,0,0,1-.79-1.08A.87.87,0,0,1,167.76,68.89Z"/><path class="cls-3" d="M172.34,71.15c.13-.26.92-.1,1.2-.1s.07.85.2,1.07.31.83.09,1-.52-.67-.7-.63,0-.51-.11-.61-.38,0-.5.24-.44.39-.15.89-.43.59-.48-.1c0-.53-.21-.28-.29-.7s0-1,.27-1S172.21,71.42,172.34,71.15Z"/><path class="cls-3" d="M173.27,74a4.61,4.61,0,0,1,1.32.15c.1.13-.07.22-.35.33S172.92,74.22,173.27,74Z"/><path class="cls-3" d="M168.77,74.16c0-.31,1.32-.14,1.7,0s1,0,1.31.07,0,.41-.37.46a5,5,0,0,1-1.88-.21C169.33,74.36,168.74,74.46,168.77,74.16Z"/><path class="cls-3" d="M176.72,69.82c.47-.16.81-.38,1.13-.06s.42.45.7.4.55.51.92.51.82.1.95.42c.22.49.31.55.14.89s-.32.1-.64-.1a.92.92,0,0,0-.94-.06c-.21.15-.24.58-.47.85-.08.11-.88.19-1-.2s-.33-.21-.27-.75,0-.45-.42-.58a6.74,6.74,0,0,1-1.17-.49c-.39-.21-.1-.38.19-.44C176.49,70.09,176.37,69.94,176.72,69.82Z"/><path class="cls-3" d="M175.72,69.36c-.46-.21-.58-.25-.39-.53a.73.73,0,0,1,1.1-.16c.34.38.38.68.12.92S176,69.46,175.72,69.36Z"/><path class="cls-3" d="M169.47,57.08c.19.21,0,.63-.22.79s-.17.87-.91.82c-.36,0-.07.21-.33.21s-.18-1,.33-1.27S169.29,56.87,169.47,57.08Z"/><path class="cls-3" d="M173.82,58.29l.24.23s.15,1.69-.17,1.9.11.48,0,.85a.27.27,0,0,1-.53,0c0-.15.25-.17.1-.41a1.41,1.41,0,0,1-.39-.88c0-.25-.32-.44-.26-1.24S173.45,58,173.82,58.29Z"/><path class="cls-3" d="M175.56,62.55a6.47,6.47,0,0,0,.69.22,1.64,1.64,0,0,1,.81.85,1.7,1.7,0,0,1-.22,1.31c-.31.68-.54.34-.58-.1a3.23,3.23,0,0,0-.62-1.42c-.17-.13.26,0,.12-.39-.06-.16-.77,0-.92-.35S175.09,62.29,175.56,62.55Z"/><path class="cls-3" d="M175.76,63.59c.12.16,0,.84,0,.84s0,.41.11.48.09.53-.05.56.27.47-.4.85c-.37.2-1.06.2-.83-.3,0-.07.4-.2,0-.44s-.19-.89-.1-1,.19.06.41,0-.11-.32,0-.6S175.64,63.43,175.76,63.59Z"/><path class="cls-3" d="M173.6,53.79a2.25,2.25,0,0,1-.56.9c-.18.17-.33-.07-.33-.07a.8.8,0,0,1,0-.62c.15-.26.18-.51.32-.54s.14-.38.34-.44S173.6,53.6,173.6,53.79Z"/><path class="cls-3" d="M183.25,42.89c.34-.15.29.6.88.42.32-.1.41.36.69.53s-.13.61.2.77.32.4.07.8-.15.64.18.71.58,1.42.43,2a1.45,1.45,0,0,1-1.53.8c-.3-.19-.52-.12-.63.31-.06.26-.72.65-1,.45s-.1-.85-.48-.41.18,1.25-.34,1.25c-.33,0-.57-.06-.7-.71s-1.35-.12-1.63.32-.42.23-.93-.16c-.15-.12-.24.35-.51.14s.08-.87.42-1.31a.93.93,0,0,1,1.23-.28,1.7,1.7,0,0,0,1.46-.12,2,2,0,0,0,.69-1.15c0-.31,0-1.07.28-.93a.57.57,0,0,1,.24.65,1.15,1.15,0,0,0,.78-.65c.17-.5.42-.83.26-1.17s0-1.05-.41-1.25c-.53-.29-.55-1.27-.31-1.36C183.05,42.36,182.91,43.05,183.25,42.89Z"/><path class="cls-3" d="M177.94,50.54c.12-.3.45-.1.66.11s.52-.19.62.21.5.7.45,1c-.1.52-.23.09-.54.12s-.32.12-.6,0-.12-.73-.29-.73A.49.49,0,0,1,177.94,50.54Z"/><path class="cls-3" d="M179.71,50.87c0-.21-.33-.4,0-.75a.93.93,0,0,1,1.07-.23c.24.16.38.78,0,.91s-.23-.18-.51-.11,0,.58-.3.76S179.67,51.08,179.71,50.87Z"/><path class="cls-3" d="M178.05,34.77c.34-.06.46.44.82.55s.46.53.53.83.53.45.63.76a4.94,4.94,0,0,1,.16,1.46c-.11.5-.11.5.26.81.2.17.43.85-.23.65-.27-.08-.26-1.16-.62-1.13a2.31,2.31,0,0,1-.8-1.28c0-.36-.21-.33-.42-1.06-.12-.4-.4-.32-.43-.58S177.71,34.83,178.05,34.77Z"/><path class="cls-3" d="M183.45,40.63c.32.44,1,.3,1.05.08s.11-.63.33-.1c.12.27.71.36.54.73-.07.16,0,.31-.25.29s-.11.76-.31,1a.5.5,0,0,1-.66.12c-.25-.12-.55-1-1.14-.56-.23.16-.53,0-.68.09s-.27.87-.45.54-.16-1.09.11-1.18.22-.2.22-.57a.79.79,0,0,0-.24-.59c-.09-.18.16-.75.52-.59A2.14,2.14,0,0,1,183.45,40.63Z"/><path class="cls-3" d="M124.33,28.29a2.16,2.16,0,0,1,.5-.34c.16-.05.57-.18.45-.34a.69.69,0,0,0-.6-.3c-.27,0-1.3-.17-1.3.24,0,.19.42.31.52.26s.09.38.07.45S124.33,28.29,124.33,28.29Z"/><path class="cls-3" d="M105.3,27.13c.73,0,1.54.33,2.11.26a6.73,6.73,0,0,0,2.18-.42,2.62,2.62,0,0,1,1.7,0l.55.29,1.57-.06s1.13.22,1.18.4-.25.37-.59.44-.78-.58-.78-.58a1.86,1.86,0,0,1-.07.78,2.71,2.71,0,0,1-.34.65,1.63,1.63,0,0,0-.3,1.15c0,.53-.57.57-.71,1a3.72,3.72,0,0,1-1.06,2,2.73,2.73,0,0,1-2.13,1c-1.14.11-1.24.18-1.25.5s-.83.35-1.23,0a.64.64,0,0,0-1.1.45c0,.85-.36.85-.79.85s-1.24-.22-.88-.81-.14-.58-.26-1.3a2.19,2.19,0,0,1,1.53-1.53c.77-.08,1.48-.69,1.25-1.25s-.4-.93-1.07-.93-2-.25-2.24-1-.78-.57-1-.63-.44-.26-.14-.37.45-.49.89-.48a3.55,3.55,0,0,0,1.26,0A6.49,6.49,0,0,1,105.3,27.13Z"/><path class="cls-3" d="M94.19,33.7l.73.11.65-.24.59.07s1.23-.26,1.43.47c.14.48-.45,1-.09.91a5.49,5.49,0,0,1,2.17.25s.45.3-.19.93,0,1.17,0,1.43a3.14,3.14,0,0,1-.24,1.15c-.1.16,0,.45-.48.5s0,.42-.33.6-.43,0-.43,0l-.43.28.05.39-.81-.43a.77.77,0,0,1-.32-.45c-.07-.29.59-.53.65-.79s-.51-.06-.63-.33a1.1,1.1,0,0,1,.63-1.22c.53-.12.44-1.31-.13-1.41a13.58,13.58,0,0,0-2.26-.16c-.38,0-.58-.88-.81-.94s-.76.19-1-.09.22-.81.22-.81,0-.21.41-.35A.51.51,0,0,1,94.19,33.7Z"/><path class="cls-3" d="M93.38,35.81a.29.29,0,0,1,.23.23s.64-.21.76,0c.4.72-.58,1-.58,1s.32.26.21.56a.91.91,0,0,1-.82.45c-.33,0-.64.21-.74-.09s.41-.39.49-.6a6.25,6.25,0,0,1,.29-.63s-.58-.16-.62-.38S93.18,35.78,93.38,35.81Z"/><path class="cls-3" d="M85.92,34.26c.24-.3.61-.13,1-.29s.38-.39.81-.39.83-.33,1.3-.32a8.55,8.55,0,0,0,1.05,0c.19,0,.63.29.26.31a1.4,1.4,0,0,0-.63.18s.21.18-.14.42-.42,0-.66.14-.11.1-.31.37a.92.92,0,0,1-.52.33h-.79l-.58-.39h-.57S85.68,34.56,85.92,34.26Z"/><path class="cls-3" d="M92.35,29.45c-.23-.11.65-.69,1.26-.69s1.28.42,1.85.21,1.82-.4,2-.75.27-.89.65-1.09a11.94,11.94,0,0,1,1.87-.24,3.77,3.77,0,0,0,1.48-.21c.67-.33,1.78.06,2.16-.06s.6.07.24.18a6.77,6.77,0,0,1-1.16.09c-.43,0-.24.65-.67.55s-.23,0-.9,0-.91-.42-1,0,.48.59-.19.77-.86.33-1.33.44-.67.57-1.1,1-.55.75-1.38.81-.71-.13-1.52-.34-.86-.46-1.28-.62S92.59,29.55,92.35,29.45Z"/><path class="cls-3" d="M99.24,31a3.22,3.22,0,0,1,1.4-.85,1.52,1.52,0,0,1,1.41.19c.38.35.69.16.66.46-.07.53-.23.41-.42.47a5.52,5.52,0,0,0-.77.23c-.43.16-.58.23-1,.37-.68.21-.43-.08-1,.08s-.52.38-1.19.45-.7-.51-1.26-.41c-.34.06,0-.42.5-.7s.48-.22,1-.06S98.89,31.43,99.24,31Z"/><path class="cls-3" d="M98.59,33c.12-.21.91,0,1.62-.29a3.6,3.6,0,0,1,2-.28c.16.12-.24.71-.47.88a1.48,1.48,0,0,1-.91.24c-.55,0-1.24.22-1.44-.06S98.3,33.54,98.59,33Z"/><path class="cls-3" d="M112.5,34c.28-.13.32-.66.46-.71s.7-.27.76,0-.33.25-.28.71.18.6-.14.86a1.24,1.24,0,0,1-1.42.18c-.09-.09,0-.42-.16-.44-.4,0-.5-.05-.43-.41S112.22,34.1,112.5,34Z"/><path class="cls-3" d="M91.42,33.22a5.94,5.94,0,0,0,1.47-.85,4.63,4.63,0,0,1,1.53-.74,1,1,0,0,1,.78.16c.27.13.67.08.52.29s-.75.05-.84.29-.26.33-.69.33-.38.09-.49.27.29.12-.14.45-.22.33-.47.27,0,.1-.5.29a.59.59,0,0,1-.82-.37C91.72,33.4,91.23,33.52,91.42,33.22Z"/><path class="cls-3" d="M89.85,31a.58.58,0,0,1,.46-.31c.31,0,1,.1,1.15.1s1.54-.68,1.77-.49-1.12.79-1.12.79l.3.71s-.19.44-.57.28-.29-.34-.29-.34,0-.24-.46-.25-.45,0-.45.16-.42.67-.51.51S90.18,31,89.85,31Z"/><path class="cls-3" d="M85.9,32.87s1.27-1.17,1.65-1.17,1-.42,1.24-.18-.68.74-.68.74h-.4l-.18.34-.79.61-.51.39a2.94,2.94,0,0,1-1,0C84.9,33.54,85.42,32.89,85.9,32.87Z"/><path class="cls-3" d="M83.67,33.34c.14-.05,1.08,0,1,.29s-.48.6-.62.49L83.89,34a.7.7,0,0,0-.38.26c-.14.21-.18.31-.73.31s-.8-.3-1.36.14c-.37.29-1.2-.12-.82-.27a2.08,2.08,0,0,1,.76-.06s.15-.27.39-.27.27-.54.93-.6c.3,0-.4.44-.21.55l.78-.18Z"/><path class="cls-3" d="M76.28,70s.11-.29.3-.29.43.09.43.29-.62.39-.73.12"/><path class="cls-3" d="M83.11,57.25c0-.13.28-.43.74-.34a5.75,5.75,0,0,0,.85.12.93.93,0,0,1,.5.45c0,.09.48,0,.62.1s.42.44.53.45a1.67,1.67,0,0,1,1,.55c.08.24-.78.37-1,.24s-.3-.42-.43-.45-.4.07-.45,0a1,1,0,0,0-.8-.47c-.27,0-.28-.5-.52-.53S83.21,57.69,83.11,57.25Z"/><path class="cls-3" d="M88,54.68c0-.11-.62.33-.53.45S88.1,55.23,88,54.68Z"/><path class="cls-3" d="M88.57,54.66c-.08.05-.32.55,0,.49S88.65,54.62,88.57,54.66Z"/><path class="cls-3" d="M88.07,58.24c.22.15.34.28.5.16s.29,0,.64.11a.56.56,0,0,0,.67-.14c.08-.06.59.33.54.5S90,59,90,59s-.09.34-.2.34h-.46a.31.31,0,0,0-.37.27c-.07.67-.35.29-.62.11s-.7-.06-1-.06.1-.37.32-.37a.32.32,0,0,0,.23-.48C87.73,58.52,87.45,57.81,88.07,58.24Z"/><path class="cls-3" d="M86.57,59.83c-.29.11-.29.47-.16.47C86.87,60.3,86.57,59.83,86.57,59.83Z"/><path class="cls-3" d="M89.36,56c-.34.14.13.45.4.66s.39.12.57.15.54.08.43-.15-.32-.38-.57-.25-.2-.07-.47-.14A.55.55,0,0,1,89.36,56Z"/><path class="cls-3" d="M91.11,58.52c.22-.06.57.15.24.3S90.9,58.58,91.11,58.52Z"/><path class="cls-3" d="M93.7,59c-.08,0,0-.57.25-.53S93.79,59.08,93.7,59Z"/><path class="cls-3" d="M94.05,61l-.38.42a.54.54,0,0,0,0,.6c.2.29.2.41.19,0s-.15-.48.19-.72S94.43,60.63,94.05,61Z"/><path class="cls-3" d="M82.58,35.12c0-.18.43-.34.73-.33s.29-.29.54-.23.48.56.27.56-.25-.15-.38-.15a.3.3,0,0,0-.3.15C83.36,35.24,82.63,35.3,82.58,35.12Z"/><path class="cls-3" d="M93.8,97.71c-.16.08-.41.3-.3.54s.29.27.43.13S94.1,97.58,93.8,97.71Z"/><path class="cls-3" d="M129.55,27.06a1.11,1.11,0,0,1,.92-.1,2.41,2.41,0,0,0,.92.18c.27,0,.36.23.88,0s1.19,0,.83.11-.63,0-.7.14-.82.28-1,.1a3,3,0,0,0-1.73.08C129.48,27.73,128.73,27.45,129.55,27.06Z"/><path class="cls-3" d="M117.89,47.88c-.22.14-.33.35-.18.73s.46.85.57.64a1,1,0,0,0,0-.92C118.09,48.1,118,47.79,117.89,47.88Z"/><path class="cls-3" d="M119.27,49a.23.23,0,0,1,.18-.41c.31,0,.49.15.36.33S119.62,49.26,119.27,49Z"/><path class="cls-3" d="M117.94,47.54c.22.06.34-.57.08-.51S117.62,47.46,117.94,47.54Z"/><path class="cls-3" d="M185.93,40.47a2.53,2.53,0,0,0,.69-.89c0-.22-.15-.47-.35-.14s.1.26,0,.34-.49.36-.49.48S185.68,40.51,185.93,40.47Z"/><path class="cls-3" d="M186.82,35.16c0,.14,0,.89.18.6s0-.85-.09-.78A.26.26,0,0,0,186.82,35.16Z"/><path class="cls-3" d="M186.47,38.45c.14-.06.8-.37.47-.41s-.58,0-.61.2S186.27,38.55,186.47,38.45Z"/><path class="cls-3" d="M174.57,63c.17,0,.58.35.42.57s-.35.27-.27,0-.13-.33-.26-.19.14.27-.05.29-.35-.26-.31-.47-.16-.4-.07-.48S174.34,63,174.57,63Z"/><path class="cls-3" d="M173.67,62.39c.15-.07.58.08.65-.31s-.49-.16-.65,0S173,62.7,173.67,62.39Z"/><path class="cls-3" d="M175.17,61.58c.13.17.36.46,0,.46s-.74-.34-.44-.55S175.09,61.47,175.17,61.58Z"/><path class="cls-3" d="M173.83,63.54c.08.26.2.5-.07.72a1.44,1.44,0,0,0-.42.47c0,.08-.4,0,0-.47s.28-.48.28-.62-.29-.44,0-.44S173.81,63.46,173.83,63.54Z"/><path class="cls-3" d="M172.09,64c0,.18-.29.67-.31.42s0-.64.15-.76.47-.2.4,0A.78.78,0,0,1,172.09,64Z"/><path class="cls-3" d="M171.6,63.2c-.07.15-.5.4-.25-.09s.38-.68.42-.43-.06.52-.12.52"/><path class="cls-3" d="M173.24,70.16c.17,0,.58-.2.58,0s-.06.37-.43.41a.65.65,0,0,1-.64-.26C172.63,70.18,172.82,70.12,173.24,70.16Z"/><path class="cls-3" d="M171.53,65.7c.09-.14.35-.38.14-.39s-.35,0-.4.19S171.3,66,171.53,65.7Z"/><path class="cls-3" d="M178.05,67.88c.23,0,.52-.14.29-.36a.35.35,0,0,0-.56.18C177.79,67.84,178.05,67.88,178.05,67.88Z"/><path class="cls-3" d="M179.2,68.48c.18,0,.63-.11.47.09s-.09.26-.47.16-.56-.21-.49-.28S179.2,68.48,179.2,68.48Z"/><path class="cls-3" d="M180.89,69.08c.12-.07.54-.2.33-.31s-.69,0-.57.16S180.76,69.15,180.89,69.08Z"/><path class="cls-3" d="M181.28,70.32c-.23.19-.59.61-.1.59s.2-.31.57-.33.4-.64,0-.42S181.28,70.32,181.28,70.32Z"/><path class="cls-3" d="M182.94,68.72a.93.93,0,0,1,.54.48c.17.26.4.07.56.16a3.43,3.43,0,0,1,1,1.15c.17.42.31.53.09.49s-.43-.39-.61-.68-.47-.71-.61-.65-.61-.19-.67-.43a.35.35,0,0,0-.41-.32c-.22,0-.59-.23-.23-.32S182.94,68.72,182.94,68.72Z"/><path class="cls-3" d="M184.76,73.72c.18-.14.58-.53.31-.59s-.43.31-.72.39-.16.87.07.56S184.76,73.72,184.76,73.72Z"/><path class="cls-3" d="M186.73,72.67c.19-.1.66-.52.23-.48s-.22,0-.45.24-.33.7-.15.54Z"/><path class="cls-3" d="M173.08,94.29c.21,0,.45,0,.39-.46s-.2-.31-.48-.19-.76.41-1,.47-.82-.22-1,.18-.34.4-.36.57a.73.73,0,0,1-.34.52c-.2.1-.09.28.18.44a.75.75,0,0,0,.77,0c.16-.14.23-.28.59-.22a1,1,0,0,0,.91-.68C172.88,94.53,173,94.31,173.08,94.29Z"/><path class="cls-3" d="M187.67,92.42c.12-.13.28-.43.11-.61s-.45-.16-.43.12S187.39,92.72,187.67,92.42Z"/><path class="cls-3" d="M175.71,60.5c.1,0,.39.41.13.46s-.71-.21-.48-.38S175.71,60.5,175.71,60.5Z"/><path class="cls-3" d="M176.52,61.72c0,.18,0,.44-.14.46s-.28-.18-.15-.46S176.51,61.63,176.52,61.72Z"/><path class="cls-3" d="M174.33,61.13c0,.08,0,.33-.16.36s-.41-.19-.07-.41S174.33,61.13,174.33,61.13Z"/><path class="cls-3" d="M172.94,62c0,.11-.12.41-.29.35s0-.34.06-.52.2-.39.23-.3A3.63,3.63,0,0,1,172.94,62Z"/><path class="cls-3" d="M175.11,48.38c.08,0,.35.28,0,.39s-.36-.3-.24-.39A.21.21,0,0,1,175.11,48.38Z"/></g></g></svg>