<svg xmlns="http://www.w3.org/2000/svg" viewBox="0 0 250 146"><defs><style>.cls-1{fill:#c1bd31;opacity:0.8;}.cls-2{fill:#fff;}</style></defs><title>food_detail</title><g id="圖層_2" data-name="圖層 2"><g id="food_detail"><path class="cls-1" d="M215,0H35A35.1,35.1,0,0,0,0,35V88a35.1,35.1,0,0,0,35,35h72.39A95,95,0,0,0,125,146a95,95,0,0,0,17.61-23H215a35.1,35.1,0,0,0,35-35V35A35.1,35.1,0,0,0,215,0Z"/><path class="cls-2" d="M73.08,86.42A6.16,6.16,0,0,1,71.3,89l-.7-.42a5.54,5.54,0,0,0,1.72-2.36Zm-1-.72V81.44a9,9,0,0,1-.89.68,3.1,3.1,0,0,0-.6-.6,11,11,0,0,0,3.53-3.76l1.06.18c0,.1-.1.16-.27.16l-.31.5h2.89l.13,0,.64.4a.25.25,0,0,1-.16.1A10.82,10.82,0,0,1,77.1,80.6h3.25v5.1Zm3.61-4.41H72.91v1.52h2.83Zm-2.83,2.18V85h2.83V83.47Zm3.2-2.87a7.52,7.52,0,0,0,1-1.32h-2.9A16.27,16.27,0,0,1,73,80.6Zm-1.53,8.22a14.86,14.86,0,0,0-.25-2.31l.76-.06a14,14,0,0,1,.32,2.26Zm5-6V81.29h-3v1.52Zm0,2.19V83.47h-3V85Zm-1.93,3.82a12.12,12.12,0,0,0-.84-2.3l.75-.15a12.24,12.24,0,0,1,.87,2.25ZM81,89a12,12,0,0,0-1.85-2.53l.72-.31a11.53,11.53,0,0,1,1.9,2.47Z"/><path class="cls-2" d="M86.29,83.31V81.42a7.08,7.08,0,0,1-1.91,1.88,2.7,2.7,0,0,0-.48-.54,6.39,6.39,0,0,0,2.12-2H84.08v-.68h2.21V77.82l.95.06c0,.07-.07.13-.23.15v2h2.18v.68H87v.16c.49.29,1.91,1.21,2.24,1.48l-.44.59c-.34-.3-1.19-1-1.8-1.39v1.71ZM87,85.4a5.81,5.81,0,0,1-.09.58c.75.52,1.65,1.22,2.14,1.65l-.54.55a18.75,18.75,0,0,0-1.83-1.5,4.29,4.29,0,0,1-2.31,2,3.39,3.39,0,0,0-.44-.61c1.76-.79,2.22-1.79,2.32-2.72H84.07v-.72h2.2V83.57l1,.06c0,.09-.07.15-.23.17v.88h2.23v.72Zm-2-7.21a4.92,4.92,0,0,1,.73,1.39l-.61.26a5.42,5.42,0,0,0-.71-1.43Zm2.67,1.44a10.19,10.19,0,0,0,.72-1.49l.83.31a.25.25,0,0,1-.24.1,11.89,11.89,0,0,1-.77,1.32Zm4,7.7a.26.26,0,0,1-.21.09A7.42,7.42,0,0,1,89,89a3.07,3.07,0,0,0-.54-.54,7,7,0,0,0,2.38-1.5Zm-1.9-7h1.63c.11-.39.21-.84.3-1.24H89.28v-.72h5.81v.72H92.46c-.09.36-.22.83-.36,1.24h2.56v6.31h-5Zm4.2,1.89V81H90.44v1.24Zm0,1.87V82.87H90.44v1.24Zm0,1.9V84.74H90.44V86Zm-.68,1a14.13,14.13,0,0,1,2.1,1.55l-.63.44a14.64,14.64,0,0,0-2.07-1.58Z"/><path class="cls-2" d="M157,86.57c-.13-.48-.3-1-.46-1.38l.55-.14a11.06,11.06,0,0,1,.8,2.75l-.6.15a5.4,5.4,0,0,0-.14-.8l-2.93.67a.22.22,0,0,1-.15.18l-.3-.81,1.77-.33V84.38h-.77v.53h-.58V80.05h1.35V77.81l.85,0c0,.08-.07.14-.21.16v2h1.39v4.33h-1.39v2.36Zm-2.23-5.84v3h.82v-3Zm2.2,3v-3h-.85v3Zm4.27,2.83h-2.29V89h-.73V78.46h3V82.1h-2.32v1.44h2.16v.68h-2.16v1.6h2.29Zm-.67-7.36h-1.62V81.4h1.62Zm3.71,4.08.45.13a.37.37,0,0,1-.07.14,8.59,8.59,0,0,1-1.26,3.33,4.48,4.48,0,0,0,1.71,1.54,3.62,3.62,0,0,0-.5.59,5.05,5.05,0,0,1-1.67-1.56A6.23,6.23,0,0,1,160.75,89a2.85,2.85,0,0,0-.43-.6,5.28,5.28,0,0,0,2.2-1.58,10.76,10.76,0,0,1-1-2.64l.61-.16a9.1,9.1,0,0,0,.82,2.17,7.26,7.26,0,0,0,.86-2.19h-2.48v-.69h2.79Zm.24-4.78v3.69h-2.87v-.7h2.13V79.16h-2.13v-.7Z"/><path class="cls-2" d="M169.5,83.31V81.42a7.08,7.08,0,0,1-1.91,1.88,3,3,0,0,0-.48-.54,6.36,6.36,0,0,0,2.11-2h-1.93v-.68h2.21V77.82l.95.06c0,.07-.08.13-.23.15v2h2.18v.68h-2.18v.16c.49.29,1.9,1.21,2.24,1.48L172,83c-.34-.3-1.19-1-1.8-1.39v1.71Zm.69,2.09a3.85,3.85,0,0,1-.08.58c.74.52,1.64,1.22,2.14,1.65l-.54.55a18.75,18.75,0,0,0-1.83-1.5,4.37,4.37,0,0,1-2.31,2,3,3,0,0,0-.45-.61c1.77-.79,2.22-1.79,2.33-2.72h-2.17v-.72h2.19V83.57l1,.06c0,.09-.08.15-.23.17v.88h2.23v.72Zm-2.05-7.21a4.73,4.73,0,0,1,.74,1.39l-.62.26a5.08,5.08,0,0,0-.7-1.43Zm2.68,1.44a10.19,10.19,0,0,0,.72-1.49l.82.31c0,.07-.11.1-.24.1a11.79,11.79,0,0,1-.76,1.32Zm4,7.7a.28.28,0,0,1-.21.09A7.53,7.53,0,0,1,172.19,89a3.07,3.07,0,0,0-.54-.54,7,7,0,0,0,2.38-1.5Zm-1.91-7h1.64c.1-.39.21-.84.3-1.24h-2.36v-.72h5.82v.72h-2.64a10.42,10.42,0,0,1-.36,1.24h2.57v6.31h-5Zm4.2,1.89V81h-3.45v1.24Zm0,1.87V82.87h-3.45v1.24Zm0,1.9V84.74h-3.45V86Zm-.67,1a14.13,14.13,0,0,1,2.1,1.55l-.64.44a14,14,0,0,0-2.06-1.58Z"/><path class="cls-2" d="M100.21,33.64c-6.08-8.3-11.49.5-11.49.5,5.84,8.7,10.37,2.51,11.55.54,2.35,4.8,3-.55,3-.55C102.6,28.87,100.82,32.28,100.21,33.64Zm-8.6.73a1,1,0,1,1,.74-.94A.86.86,0,0,1,91.61,34.37Z"/><path class="cls-2" d="M97.1,57.27c-9.73-13.26-18.38.79-18.38.79,9.35,13.92,16.58,4,18.47.88,3.76,7.66,4.79-.89,4.79-.89C100.91,49.65,98.07,55.09,97.1,57.27ZM84,58.79a1.86,1.86,0,0,1-1.61-.95c0-.05-.05-.09-.07-.13s0-.07,0-.11a1,1,0,0,1-.08-.23.29.29,0,0,0,0-.09,2,2,0,0,1,0-.35,1.87,1.87,0,0,1,0-.34.29.29,0,0,0,0-.09.9.9,0,0,1,.08-.23.56.56,0,0,1,0-.12L82.4,56A1.85,1.85,0,1,1,84,58.79Z"/><path class="cls-2" d="M63.77,42.21s.83,6.83,3.84.7c1.51,2.52,7.29,10.44,14.77-.7,0,0-6.92-11.24-14.71-.63C66.9,39.84,64.63,35.48,63.77,42.21Zm13.64-.9a1.27,1.27,0,1,1,1.27,1.27A1.27,1.27,0,0,1,77.41,41.31Z"/><path class="cls-2" d="M151.41,47.67c.84-.83,2.34,1.9,4.68,2.34s5.91.15,6.5.51-1.47,1.17-2,2A26.5,26.5,0,0,0,159.37,56c-.22.51-7.37,1.39-8.62,0S150.32,48.77,151.41,47.67Z"/><path class="cls-2" d="M162.57,62.08c-.83.74-3.82,2.19-5.85.9s-4.31-2.79-4.24-3.76c.14-1.77,1.52-.45,2.63-.59s4.4-1.32,4.9-1.08.15,1.32.58,1.92S163.4,61.34,162.57,62.08Z"/><path class="cls-2" d="M170,66.47a7,7,0,0,1-6.65-2.79c-.3-.56,1.07-1.39,2.06-1.7s3.25-.39,4.52-.74,3.08-1.44,3.66-.19A4.29,4.29,0,0,1,170,66.47Z"/><path class="cls-2" d="M168,55.5c.18.35.43,1.13-.15,1s-3.15-1.39-3.42-2.36.19-3,1.12-2.89c.58.09,0,1.82-.06,2.35S167.79,55.15,168,55.5Z"/><path class="cls-2" d="M172,52.12c.28.28.75.94.15,1s-3.41-.4-4-1.25-.7-3,.23-3.09c.58-.09.52,1.74.63,2.27S171.72,51.83,172,52.12Z"/><path class="cls-2" d="M170,46.12c.43-.16.69,1.24.86,1.63s2.18.17,2.44.34.72.6.27.73-2.67.25-3.22-.3S169.3,46.38,170,46.12Z"/><path class="cls-2" d="M180.53,44.35c-3.4,1.1-9.09-1-10.95,0s-1.65,4.06-4,4.28-12.92.33-13.14-3.84,7.77-8.21,7.77-8.21c6.25-1.65,8.44.54,9.86,2.3a9.66,9.66,0,0,0,4.28,3c1,.28,3.51,2,5.42.43s3.23-6.79-2.47-9.2S163.11,30,162.67,29s13.09,2.46,14.52,3,3.89,1.31,5.31,3.34C183.76,37.16,183.93,43.26,180.53,44.35Z"/><circle class="cls-2" cx="172.43" cy="37.82" r="0.96"/></g></g></svg>