<svg xmlns="http://www.w3.org/2000/svg" viewBox="0 0 250 146"><defs><style>.cls-1{fill:#c1bd31;opacity:0.8;}.cls-2,.cls-3{fill:#fff;}.cls-3{opacity:0.5;}</style></defs><title>height_detail</title><g id="圖層_2" data-name="圖層 2"><g id="height_detail"><path class="cls-1" d="M215,0H35A35.1,35.1,0,0,0,0,35V88a35.1,35.1,0,0,0,35,35h72.39A95,95,0,0,0,125,146a95,95,0,0,0,17.61-23H215a35.1,35.1,0,0,0,35-35V35A35.1,35.1,0,0,0,215,0Z"/><path class="cls-2" d="M120.85,102.93v-6h0l-1.11.64-.18-.56,1.4-.78h.64v6.74Z"/><path class="cls-2" d="M124.85,99.58c0-2.36.91-3.5,2.17-3.5s2.07,1.2,2.07,3.41-.82,3.55-2.16,3.55S124.85,101.83,124.85,99.58Zm3.48-.06c0-1.68-.41-2.84-1.35-2.84s-1.37,1.07-1.37,2.84.5,2.9,1.34,2.9C128,102.42,128.33,101.13,128.33,99.52Z"/><path class="cls-2" d="M130.82,99.58c0-2.36.92-3.5,2.18-3.5s2.06,1.2,2.06,3.41-.82,3.55-2.16,3.55S130.82,101.83,130.82,99.58Zm3.49-.06c0-1.68-.41-2.84-1.35-2.84s-1.37,1.07-1.37,2.84.49,2.9,1.34,2.9C133.93,102.42,134.31,101.13,134.31,99.52Z"/><line class="cls-2" x1="84.5" y1="85" x2="84.5" y2="97"/><path class="cls-2" d="M83.75,85V97a.75.75,0,0,0,1.5,0V85a.75.75,0,0,0-1.5,0Z"/><line class="cls-2" x1="167.5" y1="85" x2="167.5" y2="97"/><path class="cls-2" d="M166.75,85V97a.75.75,0,0,0,1.5,0V85a.75.75,0,0,0-1.5,0Z"/><line class="cls-2" x1="53" y1="91" x2="199" y2="91"/><path class="cls-2" d="M53,91.75H199a.75.75,0,0,0,0-1.5H53a.75.75,0,0,0,0,1.5Z"/><path class="cls-2" d="M217.46,93.15a3.86,3.86,0,0,1-1.63.34A2.79,2.79,0,0,1,213,90.43a3,3,0,0,1,3.07-3.2,3.31,3.31,0,0,1,1.44.32l-.23.73A2.46,2.46,0,0,0,216,88a2.15,2.15,0,0,0-2.11,2.39A2.12,2.12,0,0,0,216,92.74a2.84,2.84,0,0,0,1.29-.3Z"/><path class="cls-2" d="M228.14,93.37h-.9V89.9c0-1.16-.42-1.91-1.32-1.91a1.52,1.52,0,0,0-1.41,1.6v3.78h-.9v-3.7c0-1-.41-1.68-1.26-1.68a1.63,1.63,0,0,0-1.47,1.7v3.68H220V88.91c0-.61,0-1.06,0-1.55h.81l0,1h0a2,2,0,0,1,1.82-1.1,1.71,1.71,0,0,1,1.64,1.2h0a2.1,2.1,0,0,1,1.93-1.2c.74,0,1.9.47,1.9,2.53Z"/><circle class="cls-2" cx="31" cy="91" r="2"/><path class="cls-2" d="M111.63,38.34s-.5,1.21-1.16,1.51a5.25,5.25,0,0,0-1.77,1.72c0,.2.1-.15.71-.5a3.55,3.55,0,0,1,1.52-.46c.45,0,.55.1.55.1C112,40.51,111.63,38.34,111.63,38.34Z"/><path class="cls-2" d="M111.26,41.07a1.79,1.79,0,0,1,.42-.17c.11,0,.17-.49.17-.49a1,1,0,0,0-.65.32,1.75,1.75,0,0,0-.26.47S111.26,41.07,111.26,41.07Z"/><path class="cls-2" d="M111.5,42.42a2.5,2.5,0,0,0-1,.11c-.3.17-.91.39-1.13.86s.17.12.36,0a1.51,1.51,0,0,1,.84-.3,4,4,0,0,1,.86.07Z"/><path class="cls-2" d="M111.52,41.63a2.71,2.71,0,0,0-.74.45c-.13.18,0,.27,0,.27l.45-.17.32-.09Z"/><path class="cls-2" d="M111.06,44.25a11.05,11.05,0,0,0-1.48.25,2.41,2.41,0,0,0-.73.61c-.27.3-.28.42,0,.3s.26-.32.64-.4a3.88,3.88,0,0,1,1.05-.16l.4.06Z"/><path class="cls-2" d="M111.06,43.43s-.44,0-.59.2,0,.3,0,.3l.47-.1Z"/><path class="cls-2" d="M110.72,45.06l-.46.09s-.59.43-.59.62v.15s.31-.34.53-.36a2.1,2.1,0,0,1,.55.09Z"/><path class="cls-2" d="M110.42,47h-.61s-.5.28-.53.43a.37.37,0,0,0,0,.24,1,1,0,0,1,.42-.12c.3,0,.59-.09.59-.09Z"/><path class="cls-2" d="M110.17,48.36a15.86,15.86,0,0,0-1.69-.1c-.16.05-.77.29-.86.5s.07.09.29,0a1.58,1.58,0,0,1,1-.06c.34.12.74.1,1,.27a.52.52,0,0,0,.44.12Z"/><path class="cls-2" d="M110,49.57a1.58,1.58,0,0,0-.74,0c-.26.12-.5.22-.53.32s-.15.19.13.1a1.18,1.18,0,0,1,.75-.08A1.4,1.4,0,0,1,110,50Z"/><path class="cls-2" d="M109.64,51.29a.68.68,0,0,0-.53.14c-.21.17.28.13.28.13l.28,0v-.24"/><path class="cls-2" d="M109.11,52a4.81,4.81,0,0,0-.94,0c-.54,0-.68.32-.67.32s0,.07.41,0a1.38,1.38,0,0,1,.81,0l.39.1Z"/><path class="cls-2" d="M109.34,52.52s-.7,0-.74.1.37.17.37.17l.37.12Z"/><path class="cls-2" d="M109.34,53.77a8.63,8.63,0,0,0-1,0c-.1,0-.41.2.05.22a3.6,3.6,0,0,1,1,.2Z"/><path class="cls-2" d="M98.33,45.38s.8-1,1.14-1.3a4.31,4.31,0,0,1,1.69-.79c.33,0,.08.12-.26.22a4,4,0,0,0-1.29,1.18l-.54,1.15-.74-.38"/><path class="cls-2" d="M98.71,45.84a17.86,17.86,0,0,1,1.57-1.28,6.15,6.15,0,0,1,2.29-1.14,2.58,2.58,0,0,1,1.1.12s-.32,0-.88.14A4.47,4.47,0,0,0,101,44.85a3.07,3.07,0,0,1,1.81-.4c.86.17-.24,0-.83.4s-1.48,1.07-1.48,1.07.67,0,.81,0-.59.22-.78.44,0,.77,0,.77l-1.86-1.21"/><polygon class="cls-2" points="100.21 47.01 100.7 46.86 100.81 47.29 100.21 47.01"/><path class="cls-2" d="M101.19,47.87a11,11,0,0,0,1.23-1.31,8.45,8.45,0,0,0,.71-1.38c.08-.42.13-1.16.13-1.16a1.3,1.3,0,0,1,.34.74,4.8,4.8,0,0,1-.66,2.37c-.45.54-1.18,1.38-1.18,1.38Z"/><path class="cls-2" d="M101.09,47.77a3,3,0,0,1,1.4-.91c.66-.07.47-.28.47-.28a2.15,2.15,0,0,0-.57-.14,2.93,2.93,0,0,0-1.72,1C100.2,48.16,101.09,47.77,101.09,47.77Z"/><path class="cls-2" d="M102.26,49a12.64,12.64,0,0,1,1.06-.82,1.77,1.77,0,0,1,1-.29,3.25,3.25,0,0,1,.7.15,2.67,2.67,0,0,0-.77.12,7.78,7.78,0,0,0-1.29,1,4.45,4.45,0,0,1-.37.42l-.43-.58Z"/><polygon class="cls-2" points="101.91 48.52 102.55 48.42 102.39 49 101.91 48.52"/><path class="cls-2" d="M102.55,49.29a3.15,3.15,0,0,1,.9-.12s-.57.22-.6.42S102.55,49.29,102.55,49.29Z"/><path class="cls-2" d="M103.93,50.66a10.22,10.22,0,0,1,1.41-.88,1.91,1.91,0,0,1,1.06,0,.81.81,0,0,1,.43.25,3.57,3.57,0,0,0-.82,0,6.06,6.06,0,0,0-1.27.82l-.36.49Z"/><path class="cls-2" d="M104.24,51.13a4,4,0,0,1,1-.37c.35,0,.47.06.47.06a1.64,1.64,0,0,0-.56.2c-.13.13-.43.51-.43.51Z"/><path class="cls-2" d="M103.28,50a5.84,5.84,0,0,1,1.18-.38.51.51,0,0,1,.33.11L104,50l-.42.32Z"/><path class="cls-2" d="M105.25,52a4.67,4.67,0,0,1,1-.44c.22,0,.38,0,.38,0L106,52s-.27.29-.27.37S105.25,52,105.25,52Z"/><path class="cls-2" d="M106.29,53.22a7.47,7.47,0,0,1,1.25-.57c.18,0-.24.32-.38.5s-.4.6-.4.6Z"/><path class="cls-2" d="M105.81,52.65a4.08,4.08,0,0,1,.71-.13c.31,0,.76-.05.81.07s-.28,0-.5.12a5.42,5.42,0,0,0-.59.49Z"/><path class="cls-2" d="M107.22,54.27a6.19,6.19,0,0,1,.84-.4,3.49,3.49,0,0,1,.73,0s-.16.11-.39.26a9.08,9.08,0,0,0-.71.58Z"/><path class="cls-2" d="M107.92,55a4.16,4.16,0,0,1,.88-.1c0,.06-.54.35-.54.35Z"/><path class="cls-2" d="M138.34,46.69v-.13a37.84,37.84,0,0,1,5.21-.34l0,.13A36.09,36.09,0,0,0,138.34,46.69Z"/><path class="cls-2" d="M143.53,59.67v-.13c.07,0,6.66-.36,7.74-1.56l.09.08C150.24,59.3,143.8,59.65,143.53,59.67Z"/><path class="cls-2" d="M143.53,58.92v-.13c1.86-.09,5.51-.37,6-.82l.09.09C149,58.65,143.75,58.91,143.53,58.92Z"/><path class="cls-2" d="M143.08,57.81l0-.13a58.08,58.08,0,0,1,6.79-1.5c1.14,0,1.19,0,1.41.14l.09.06-.07.11-.09-.07c-.18-.11-.21-.13-1.34-.11A59,59,0,0,0,143.08,57.81Z"/><path class="cls-2" d="M142.36,57.22l-.24-.12a59.74,59.74,0,0,1,6.57-1.64v.12A55.32,55.32,0,0,0,142.36,57.22Z"/><path class="cls-2" d="M142.21,54.13l0-.12a55.48,55.48,0,0,0,6.12-2.18l.07.11A56.27,56.27,0,0,1,142.21,54.13Z"/><path class="cls-2" d="M142.21,54.81l0-.12s3.31-1.09,4.33-1.59l.06.11C145.53,53.72,142.24,54.8,142.21,54.81Z"/><path class="cls-2" d="M142.49,56.08l-.05-.11s3.4-1.49,5-2a7.77,7.77,0,0,1,2.44-.42v.13a7.78,7.78,0,0,0-2.41.41C145.89,54.6,142.52,56.07,142.49,56.08Z"/><path class="cls-2" d="M141.57,52.62l0-.12a18.56,18.56,0,0,0,3.68-1.41l.07.1A17.54,17.54,0,0,1,141.57,52.62Z"/><path class="cls-2" d="M141.17,51.83l0-.12s4.09-1.51,4.49-1.7l0,.11C145.27,50.32,141.34,51.77,141.17,51.83Z"/><path class="cls-2" d="M139.64,48l0-.12c.75-.13,4.53-.73,4.78-.49l-.08.09A26.55,26.55,0,0,0,139.64,48Z"/><path class="cls-2" d="M139.46,47.45l-.12-.12a24.51,24.51,0,0,1,3.35-.51v.12A22.45,22.45,0,0,0,139.46,47.45Z"/><path class="cls-2" d="M140.67,49.54l0-.11a23.7,23.7,0,0,1,3.73-1.21l0,.13A25,25,0,0,0,140.67,49.54Z"/><path class="cls-2" d="M140.94,50.12l0-.12a5.61,5.61,0,0,0,1.82-.57,6.4,6.4,0,0,1,2.34-.64h0v0l-.12,0,.06,0v.06a6.84,6.84,0,0,0-2.25.63A5.56,5.56,0,0,1,140.94,50.12Z"/><path class="cls-3" d="M144.08,61.28s8.95,1,10.36,3.24.44,1.11,0,2.32-.08,3.34-1,4.45-2.12,3.94-3.43,4.34-1,1.82-3.23,1.62-3.94-8.39-6.37-8S144.08,61.28,144.08,61.28Z"/><path class="cls-2" d="M114.31,36.22A17.75,17.75,0,0,0,117.4,33c.65-1.06,5.76-9.94,5.76-9.94s1-1.38.81-1.83a2.53,2.53,0,0,1,.3-2.48c.76-1,2.5-2.8,3-.91s-1.72,4-2.17,4.09-1.22,1.22-1.32,1.47-5.25,10-5.25,10-.71,1.76.76,2.07-3.64,2.37-4,2.37a20.17,20.17,0,0,1-2.37-.45c-.15,0-.26-.51-.26-.51A14.92,14.92,0,0,0,114.31,36.22Z"/><path class="cls-3" d="M135.69,43.07s4.41.88,5.64,1.27c1.61.51,1.39.52,2.64,2s1.25,2.55,3.45,4,3,3.93,3.6,4.89,1.48,3.53-.07,4.39c-2.6,1.43-9,1.61-9,1.61Z"/><path class="cls-2" d="M113,36.82a4.5,4.5,0,0,0,4.24-.91c2.23-1.72,7.08-3.13,9.91-1.82s10.69,6.57,12.3,11.22,4.73,13.55,4.73,14.76v1.21A34.21,34.21,0,0,1,150,62.36c1.32.39-1.67.41,1,1.35,1.87.65,4.21,2.27,3.83,2.57a1.11,1.11,0,0,0-.37.56,4.75,4.75,0,0,0-.2,1c0,.33-8.13-4.8-8.13-3.27,0,.48,8,4.83,7.94,5.09a3.38,3.38,0,0,1-.62,1.62c-.13.16-6.88-4.72-7.32-4.08s6.58,5.17,6.41,5.46-.51.85-.79,1.26-4.89-3.74-5.24-3.55c-.88.47-.26,1.35.66,2.48,1.09,1.34,3,2.72,2.85,2.77a2.19,2.19,0,0,0-1,.77c-.1.11-2.65-2.54-2.77-2.47-1,.52,2.27,3,2.13,3.06a2.12,2.12,0,0,1-1.56.26c-.38-.06-1.93-1.92-2.9-4.39-.13-.33-.51-.45-.68-.76-.87-1.66-1.81-3-2.79-2.83-2.43.4-1.92,1-2.93,1.21s-6.07,2.32-11.12,2.32-18.7-3.84-22-5.86-4.75-7.48-4.86-8.08c0,0-1.81-1.72-3.23-1.72S94,54.81,94.75,52.29s1.82-3.54,1.82-4.45.71-2.73,1.72-2.63,9.2,9,10.11,10.22a5.51,5.51,0,0,0,.91-2.94c.2-2.12,1.72-9.81,1.92-10.82a30.19,30.19,0,0,0,.3-3.13S110.79,36.73,113,36.82Z"/><path class="cls-3" d="M139.28,71.31c1,.42,1.91.75,2.17.84a5,5,0,0,1,1.62.86c.1.2-.46.55-.46.55s-.4,1.92-1.87,2.38-1.71.6-2.22.55a14.64,14.64,0,0,1-3.09-3.14C134.84,72.6,138.56,71,139.28,71.31Z"/><path class="cls-2" d="M135.18,69.06c.46,0,.76.36,2.08,1.22a14,14,0,0,0,1.9,1c.6.26,1.26.67,1.67.86l1,.45c.5.22.42.44-.25.18s-1.79-.68-2.46-.89a.74.74,0,0,0-.73.08,4,4,0,0,0,1.3.93c.34.18.68.37,1,.55.73.43.55.68-.22.31a16.14,16.14,0,0,0-2.93-1.27c-.11.1.45.89,1.35,1.43l.73.43c.9.51.76.68-.13.23-1.08-.55-2.29-1.11-2.48-.94s1,1.36,1.71,2c.25.2.21.59-.26.27s-1-.72-1.53-1.17a9.63,9.63,0,0,1-1.42-1.2,8.92,8.92,0,0,1-1.3-2c-.4-1.21-.8-1.92-.55-2.12A5.36,5.36,0,0,1,135.18,69.06Z"/><path class="cls-3" d="M129.69,51.63s2.5-2.63,2.75-2.78a3.23,3.23,0,0,1,2.23-.51c.91.26,4.1.71,5.26,1.17s2.68,1.11,2,3.89-.1,3.54.22,4.29-1,4.25-3.76,3.39-3.33-1.31-3.84-1.92l-2-2.48-.75-.3s1-.3.79-2-.85-2.53-2.85-2.63Z"/><path class="cls-2" d="M131.45,51.93l-.1-.09c.1-.1,2.44-2.55,4.09-3.05l0,.12C133.86,49.41,131.47,51.91,131.45,51.93Z"/><path class="cls-2" d="M132,52.38l-.08-.1s3.75-3,7.4-2.85v.12C135.75,49.42,132.07,52.35,132,52.38Z"/><path class="cls-2" d="M132.25,52.61l-.06-.11s4.26-2.57,7.94-2.84v.13C136.49,50.05,132.29,52.58,132.25,52.61Z"/><path class="cls-2" d="M132.75,53l-.05-.14c.06,0,5.8-2.68,8.82-2.68h0C138.53,50.15,132.81,52.94,132.75,53Z"/><path class="cls-2" d="M132.92,54.13l0-.12s2.56-.61,3.72-1A25.82,25.82,0,0,1,142,52.2l0,.11a27.32,27.32,0,0,0-5.25.85C135.48,53.52,132.94,54.13,132.92,54.13Z"/><path class="cls-2" d="M141.52,55.3a25.38,25.38,0,0,0-4.38-.36,38.87,38.87,0,0,1-4.16-.13v-.13a35.27,35.27,0,0,0,4.14.14,21.14,21.14,0,0,1,4.47.39l-.09.09,0,0Z"/><path class="cls-2" d="M132.81,53.72l0-.12s2.64-.85,4.53-1.43a22.9,22.9,0,0,1,4.61-.72v.13a23.25,23.25,0,0,0-4.59.71C135.46,52.87,132.84,53.71,132.81,53.72Z"/><path class="cls-2" d="M141.66,58.59a11.8,11.8,0,0,1-2.86-.91c-.22-.09-.41-.17-.54-.21l-4.33-1.62,0-.12,4.33,1.62.54.21a10.86,10.86,0,0,0,2.89.9l0,.12Z"/><path class="cls-2" d="M141.34,57a17.41,17.41,0,0,1-2.84-.74,28.72,28.72,0,0,0-3.19-.71l0-.12a26.91,26.91,0,0,1,3.21.71,17.15,17.15,0,0,0,2.8.74l0,.12Z"/><path class="cls-2" d="M141,59.67a2.79,2.79,0,0,1-1.66-.46c-.69-.56-5.13-2.7-5.17-2.72l0-.12c.18.09,4.5,2.17,5.2,2.74a3.12,3.12,0,0,0,1.94.42l0,.12S141.2,59.67,141,59.67Z"/><path class="cls-2" d="M139.34,60.33a44,44,0,0,1-4.66-2.84l.07-.1a50,50,0,0,0,4.63,2.82Z"/><path class="cls-2" d="M138.16,60.8a12.24,12.24,0,0,1-3.86-2.74l.09-.09a12,12,0,0,0,3.82,2.71Z"/><path class="cls-2" d="M139.64,74.3c.91.51,1.61.88,1.8,1s.16.24-.18.18c-.06,0-.87-.45-1.76-.9C139.4,74.51,139.4,74.17,139.64,74.3Z"/><path class="cls-2" d="M140.74,73.44c.71.41,1.24.77,1.31.81.29.16.18.22.06.2a14.47,14.47,0,0,1-1.63-.72C140.15,73.57,140.55,73.33,140.74,73.44Z"/><path class="cls-2" d="M141.86,72.57l1,.44c.21.13.23.23,0,.2a8.39,8.39,0,0,1-1.29-.48C141.41,72.66,141.42,72.38,141.86,72.57Z"/><path class="cls-2" d="M138.74,75.57l.48.37c.13.09.41.29.29.33s-.5-.07-1-.44S138.43,75.32,138.74,75.57Z"/><path class="cls-2" d="M117.75,39.85a1.22,1.22,0,1,1-1.21-1.21A1.22,1.22,0,0,1,117.75,39.85Z"/></g></g></svg>