<svg xmlns="http://www.w3.org/2000/svg" xmlns:xlink="http://www.w3.org/1999/xlink" viewBox="0 0 328.65 581.6"><defs><style>.cls-1{fill:none;}.cls-2{fill:#eedfd2;}.cls-3{fill:#e9d1ab;}.cls-4{fill:#f0e2d5;}.cls-5{fill:#dac19d;opacity:0.7;}.cls-22,.cls-6{fill:#c4c02e;}.cls-6,.cls-7,.cls-9{opacity:0.5;}.cls-23,.cls-7{fill:#867d4b;}.cls-8{fill:#efe6c0;}.cls-9{fill:#deae35;}.cls-10{fill:#cc8464;}.cls-11{fill:#a74e68;}.cls-11,.cls-20{opacity:0.3;}.cls-12{fill:#d69479;}.cls-13{fill:#cd7254;}.cls-14{fill:#be5f41;}.cls-15{clip-path:url(#clip-path);}.cls-16{fill:#ac523b;}.cls-17{fill:#6f9595;opacity:0.4;}.cls-18{fill:#e4ab90;}.cls-19{clip-path:url(#clip-path-2);}.cls-20{fill:#30466b;}.cls-21{clip-path:url(#clip-path-3);}.cls-24{fill:#95cccf;}.cls-25{fill:#8ab8b4;}.cls-26{fill:#7ea6ac;}.cls-27{fill:#877e69;}.cls-28{fill:#9d9476;}.cls-29{fill:#b8ad8f;}.cls-30{fill:#f0e8bf;}.cls-31{fill:#e7d68f;}.cls-32{fill:#d6c26b;}.cls-33{fill:#574862;}.cls-34{fill:#9c878e;}.cls-35{fill:#e8dde6;}.cls-36{clip-path:url(#clip-path-4);}.cls-37{fill:#d2ced1;}.cls-38{fill:#95d2d4;}.cls-39{fill:#7bc7c4;}.cls-40{clip-path:url(#clip-path-5);}.cls-41{fill:#558f8d;}.cls-42{fill:#e2cddf;}.cls-43{clip-path:url(#clip-path-6);}.cls-44{fill:#beb5bd;}</style><clipPath id="clip-path"><path class="cls-1" d="M93.88,323.93s-2.07,6.78,2.43,6.72,6.12.76,6.12.76L92,335.22l-2.55-4.57Z"/></clipPath><clipPath id="clip-path-2"><path class="cls-1" d="M194,332.21s3.1,5.48-2.32,7,3.93,2.25,3.93,2.25l4.91-5.39-1.1-4.23Z"/></clipPath><clipPath id="clip-path-3"><path class="cls-1" d="M138.83,320.43s6.89,9.82-1.46,14.8,13.08-3.7,13.08-3.7l.73-9.21Z"/></clipPath><clipPath id="clip-path-4"><path class="cls-1" d="M73.84,107.24s-13.43,11.2.78,21.31S63,124.68,63,124.68l-1.86-14Z"/></clipPath><clipPath id="clip-path-5"><path class="cls-1" d="M247.54,200.51s-64.11,38.07-116.91,27.27-76.26-19.07-76.07-43.69,28.06-31.56,50.89-36.34,72.35-12.37,92.37-6.53,47.44,12.78,46.33,26S247.54,200.51,247.54,200.51Z"/></clipPath><clipPath id="clip-path-6"><path class="cls-1" d="M.5,121.64s31.93-7.34,55.89,5.92c21.71,12,36.7,34.7,31.45,51.83s-42.77,19.58-59.9,18S.5,192.44.5,192.44Z"/></clipPath></defs><title>01_bg</title><g id="圖層_2" data-name="圖層 2"><g id="_01_bg" data-name="01_bg"><polygon class="cls-2" points="0.41 0 22.83 4.37 25.94 16.73 42.11 16.73 64.36 52.33 76.4 63.53 121.2 164.33 0.29 164.33 0.41 0"/><polygon class="cls-3" points="0.41 0 15.68 13.88 20.33 50.69 78.46 102.73 95.92 161 0.5 156.95 0.41 0"/><polygon class="cls-4" points="14.26 164.33 35.44 188.46 35.44 208.62 53.2 219.25 53.2 234.18 60.74 245.99 47 259.62 66.31 271.85 83.93 265.73 144.84 373.86 110.25 444.33 0.41 476.5 0.29 164.33 14.26 164.33"/><polygon class="cls-2" points="34.29 499 88.45 526 92.2 543.33 116.09 550.36 145.67 572.55 159.79 562.96 179.68 581.6 0.41 581.6 0 500.04 34.29 499"/><polygon class="cls-5" points="14.26 175.42 27.31 220.74 14.26 241.83 34.29 250.25 34.29 269.14 61.09 286.97 64.36 318.03 140.28 363.86 146.07 429.11 0 466.86 0.5 175.42 14.26 175.42"/><path class="cls-6" d="M91,272.13C86.6,288.77,62.65,295.94,51,297S.29,283.55.29,283.55V227.88S33.71,210,63.4,222.49,91,272.13,91,272.13Z"/><path class="cls-7" d="M36.45,279.92c-12.23-5-36.16-2.78-36.16-2.78v45s36.62,7,45.44-13.92S36.45,279.92,36.45,279.92Z"/><path class="cls-8" d="M153.41,256.26c-21.27-24.21-70.78-12.77-76.34,4.21s-11.14,43.08,5.56,46,86.3,19,93.26-9.22S153.41,256.26,153.41,256.26Z"/><path class="cls-9" d="M91,412.59c-4.4,16.65-28.34,23.81-40,24.87S.29,424,.29,424V368.34S33.71,350.5,63.41,363,91,412.59,91,412.59Z"/><path class="cls-8" d="M83.49,367.41c16.33-13.07,46.68-.17,48.32,11.31s2.26,28.79-8.75,28.8-57.29,2.39-58.56-16.41S83.49,367.41,83.49,367.41Z"/><path class="cls-9" d="M63.38,118.37c-3.06,11.57-19.71,16.55-27.84,17.29S.29,126.31.29,126.31V87.59s23.25-12.41,43.9-3.75S63.38,118.37,63.38,118.37Z"/><path class="cls-10" d="M159.79,396.37s-71.26-83.32-58.52-103.89,33.78-16,38.52-5.71,33.7,98,33.7,98Z"/><path class="cls-11" d="M105.34,318s16.66.9,18.58,5.89-5.81,7.56-5.81,7.56Z"/><path class="cls-12" d="M140.28,363.86s-21-51.43-38.12-45.33-17.9,3.94-15,20.82c2.79,16.13,53.24,68.81,53.24,68.81Z"/><path class="cls-13" d="M94,326.73c4.76-3.58,8.5-6.36,11.34-3.88s-5.7,9.79-10.06,10.71S89.56,330.08,94,326.73Z"/><path class="cls-14" d="M111.26,290.66c7.27-6.47,15.81-6.66,16-4.57s-8.22,8.57-12.47,11.05-12.24,4.19-11.15,1.33S111.26,290.66,111.26,290.66Z"/><g class="cls-15"><path class="cls-16" d="M94,326.66c4.76-3.59,8.5-6.36,11.34-3.88s-5.7,9.79-10.06,10.7S89.56,330,94,326.66Z"/></g><path class="cls-17" d="M227.4,297s4.49,28.85-11.49,66.95-13.42-9.14-13.42-9.14Z"/><path class="cls-10" d="M184.94,384.77s-21.26-109,6.95-109.95c32.21-1.11,28.39-2.59,35.51,13,6.85,15-21.29,88.08-21.29,88.08Z"/><path class="cls-14" d="M210.1,282c-9.78-3-19.26.24-19.08,2.28s4.85,7.08,16.5,8.25,13.72,1,14.28-2.84S210.1,282,210.1,282Z"/><path class="cls-11" d="M186.91,269.14s7,47.76,5.56,57.59-11.63,6.15-11.63,6.15Z"/><path class="cls-12" d="M153.82,436.36s-32.57-139.79-17.67-167.22,48.84-22.85,50.76,0-3.45,147.09-3.45,147.09Z"/><path class="cls-13" d="M162.31,259.62c13.81,0,17.9,7.1,16.58,9.07s-11.82,2.36-19.1,2.36-19.28,2.91-17.46-2.36S162.31,259.62,162.31,259.62Z"/><path class="cls-11" d="M154.79,326.73s16.74,42.55,13.59,58-12.49,2.2-12.49,2.2Z"/><path class="cls-11" d="M199.76,333.56c.4,1.21,6.11,21.29,3.11,28.78s-7.25,3.17-7.25,3.17Z"/><path class="cls-18" d="M174.63,408.34S169.21,341,182,331s18.4-.83,19.14,9.12-5.6,57.8-5.6,57.8Z"/><path class="cls-13" d="M190.29,332.88c13.13,0,7.27,7.27,0,6.17S177.45,332.88,190.29,332.88Z"/><g class="cls-19"><path class="cls-14" d="M190.25,332.9c13.14,0,7.27,7.27,0,6.18S177.42,332.9,190.25,332.9Z"/></g><path class="cls-18" d="M143.84,416.23s-34.26-66.93-28.65-82.42S142,312.69,152.9,324,165,413.5,165,413.5Z"/><path class="cls-13" d="M128.68,326.73c12.56-6.17,24.55-.83,18.37,3.36s-25.43,12.72-25.8,7.12S128.68,326.73,128.68,326.73Z"/><path class="cls-20" d="M122.71,395.07s24.64-3.15,37.93.95-2.33,15.89-2.33,15.89Z"/><g class="cls-21"><path class="cls-14" d="M128.72,326.77c12.55-6.17,24.54-.84,18.37,3.35s-25.44,12.72-25.8,7.13S128.72,326.77,128.72,326.77Z"/></g><path class="cls-17" d="M151.76,457.14s-38.08,28.82,19,34.71,90.76-3.91,93.15-12.72S151.76,457.14,151.76,457.14Z"/><path class="cls-17" d="M69.18,502.56l-4,13s79.51,21.85,100.76-3.46c22.37-26.64-22-26-22-26Z"/><path class="cls-17" d="M.41,519.41v14.72s64.81,25.35,88-8.13S.41,519.41.41,519.41Z"/><path class="cls-22" d="M62.36,455c-5.89-12.15-11.93-25.62-8.52-38.68,1.32-5.07,4-9.68,5.63-14.66,4.07-12.49,1.1-26.42-5.1-38S39,342.38,30,332.86c0,0,20.15,31.11,19.41,45.63s-11,26.27-9.57,41C41.27,435,62.36,455,62.36,455Z"/><path class="cls-23" d="M60.37,464A53.58,53.58,0,0,1,56,424.79a23.67,23.67,0,0,1,3.63-8.05c3.71-4.92,10.27-7.44,13-13,2.15-4.38,1.33-9.59.23-14.35a157.78,157.78,0,0,0-10-29.62s33,34.55,24.19,49.07c-7.66,12.65-8.13,7.19-16.42,17.43S60.37,464,60.37,464Z"/><path class="cls-3" d="M54.1,471.51c1.7-7.33,3.42-14.76,3.13-22.28s-2.82-15.27-8.42-20.3c-10.14-9.11-27.75-7.57-35.75-18.61C9.51,405.43,8.76,399,9,393c.46-10.95,3.82-21.53,7.15-32,0,0-1.76,29.84,5.81,38.64s35.19,8.06,38.17,25.71S54.1,471.51,54.1,471.51Z"/><path class="cls-24" d="M57.87,472.93s-4.82-72,53.34-77.12,97.05,40.68,101.11,61-40.71,41.68-56.59,44.52S68.15,533.25,57.87,472.93Z"/><path class="cls-25" d="M57.87,472.93s-2.47-57.07,55.69-62.23,94.7,25.79,98.76,46.09-40.71,41.68-56.59,44.52S68.15,533.25,57.87,472.93Z"/><path class="cls-26" d="M63.55,480.8s9.58-18.43,32.17-20.33,38.59,13.63,53.68,10.16S192.2,483,192.2,483s-22.26,22.29-76.14,27.1S63.55,480.8,63.55,480.8Z"/><path class="cls-26" d="M77.07,457.31s9.41-4.49,10.09-2-4.62,6.27-6.5,6.63S65.78,464.84,77.07,457.31Z"/><path class="cls-26" d="M100.16,454.57s3.6,3.28,5.31,2.92,2.22-2.92,2.22-2.92A5.88,5.88,0,0,0,100.16,454.57Z"/><path class="cls-24" d="M130.76,461.62a31,31,0,0,0,20.51,5.05c12-1.35,3.33-5.92-4.64-7.53S132.35,459,130.76,461.62Z"/><path class="cls-17" d="M151.18,448.33s6.37,49.14,19,50.6,38-19.1,38-19.1Z"/><path class="cls-27" d="M146.07,429.11s17.1-68.18,85.32-53.07S329.73,446.82,328,467s-59.71,24.63-78.8,21.82S138.88,488.39,146.07,429.11Z"/><path class="cls-28" d="M146.07,429.11s14.81-50.8,84.7-39.81c69,10.84,99,57.52,97.23,77.67s-59.71,24.63-78.8,21.82S132.78,486.58,146.07,429.11Z"/><path class="cls-23" d="M146.07,429.11s32.17,30.45,59.47,23.71,60.22-13.47,81.9-2.52,28.45,12.06,39.52,7.29c0,0,23.1,42.62-101.36,29C225.6,486.62,133.18,482.85,146.07,429.11Z"/><path class="cls-23" d="M184.82,448c2.5,1,7.41-.37,7.67-2.06s-2.85-2.15-5.35-2.43-4.82.47-4.91,1.4S183.21,447.33,184.82,448Z"/><path class="cls-29" d="M201.19,446.14a25.3,25.3,0,0,0,17.4,0c9.37-3.45,1.6-5.41-5.09-5.13S202,443.7,201.19,446.14Z"/><path class="cls-23" d="M167.33,405.36c-5,5.88-6.15,11.51-3.75,11.51s8.74-6.17,10.71-10.38S171.88,400,167.33,405.36Z"/><ellipse class="cls-27" cx="313.61" cy="452.4" rx="2.89" ry="3.03"/><path class="cls-28" d="M274.13,445.88s-21,41.45-66.42,38.76c0,0,24.92,2.48,33.21,3.32s35.29-10.56,46.52-37.66C287.44,450.3,281.71,444.25,274.13,445.88Z"/><path class="cls-30" d="M.41,444.09s61.81-9.34,80.28,20.08,1,57.4-21.55,61.7S.41,528.31.41,521.17Z"/><path class="cls-31" d="M.41,444.09s53.62-3.35,72.1,26.07,9.21,51.41-13.37,55.71S.41,528.31.41,521.17Z"/><path class="cls-32" d="M59.14,525.87s33.46-5.52,20.73-39.8-47.11.47-58.06,3.34S.41,476.5.41,476.5v44.67S2,535.07,59.14,525.87Z"/><path class="cls-32" d="M77.55,472.25s1.76,8.82,5.62,8.25S83.76,472.38,77.55,472.25Z"/><path class="cls-32" d="M64.69,466.1s3.36,4.36,7.1,2.95.72-2.19.72-2.19-2.32-3.14-4.33-2.37A29.38,29.38,0,0,0,64.69,466.1Z"/><path class="cls-30" d="M33.88,473.6s-5.82,7.34-3.43,6.6,8.9-4.92,10.27-6.6S38.32,472.41,33.88,473.6Z"/><path class="cls-32" d="M4,476.38s5.82,8,8.55,7.11,1.71-3.22,0-4.12S6.41,472.86,4,476.38Z"/><path class="cls-17" d="M0,200.07s33.73,15.13,53.2,6.21c0,0,39.93,39.31,97.09,35.25s81.88-36.87,81.88-36.87L.5,175.42Z"/><polygon class="cls-33" points="71.03 110.3 64.36 52.33 78.46 102.73 71.03 110.3"/><polygon class="cls-33" points="86.37 106.33 110.25 39.34 98.31 110.3 86.37 106.33"/><polygon class="cls-33" points="109.6 108.14 147.38 86.78 110.29 118.38 109.6 108.14"/><polygon class="cls-34" points="80.86 107.24 83.67 60.27 87.01 104.87 80.86 107.24"/><path class="cls-34" d="M98.31,106.47l30.18-34.36s-23.37,36-24.38,36.21S98.31,106.47,98.31,106.47Z"/><polygon class="cls-34" points="75.85 120.72 47 83.54 78.91 114.88 75.85 120.72"/><path class="cls-34" d="M102.1,116.86l45.73-.26s-42.4,6.42-43.26,5.82S102.1,116.86,102.1,116.86Z"/><polygon class="cls-33" points="71.17 124.68 22.83 92 70.26 114.11 71.17 124.68"/><polygon class="cls-33" points="110.37 124.08 152.85 133.03 104.13 132.22 110.37 124.08"/><path class="cls-33" d="M53.2,116.57S59.67,88.77,99,96.68,114.84,157,114.84,157L68,151.89Z"/><circle class="cls-35" cx="74.42" cy="117.46" r="9.23"/><circle class="cls-35" cx="101.43" cy="121.47" r="9.23"/><circle class="cls-33" cx="76.4" cy="118.54" r="4.33"/><circle class="cls-33" cx="99.92" cy="122.87" r="4.33"/><g class="cls-36"><circle class="cls-37" cx="74.42" cy="117.46" r="9.23"/></g><path class="cls-38" d="M249.28,198.88s-64.11,38.06-116.91,27.26S56.11,207.07,56.3,182.46s26.66-39.62,49.48-44.4,72.84-15.3,92.86-9.46,48.36,23.77,47.25,37S249.28,198.88,249.28,198.88Z"/><path class="cls-39" d="M249.28,198.88s-64.11,38.06-116.91,27.26S56.11,207.07,56.3,182.46s28.06-31.56,50.89-36.35,72.35-12.36,92.37-6.52,47.44,12.78,46.33,26S249.28,198.88,249.28,198.88Z"/><g class="cls-40"><path class="cls-41" d="M252.9,166.69s-54.12-19.12-93.28-2.6-32.05,29.15-52.43,27.73S65.36,171,65.36,171L33.77,177.6l6.77,52.11,169.3,23.09,58.48-61Z"/></g><path class="cls-41" d="M157,156.85s7.07,2.18,11.69,0,1.9-4.62-2.72-4.62S157,156.85,157,156.85Z"/><path class="cls-41" d="M148.13,164.81c3.47-2.52,2.24-4.36,0-4.36s-3.47.36-3.88,2.42S148.13,164.81,148.13,164.81Z"/><path class="cls-38" d="M123.91,175.48c-5.3,3.88-12.85,9.38-10,9.79s12.23-5.19,14.68-7.79S123.91,175.48,123.91,175.48Z"/><path class="cls-35" d="M.41,113.31s42.94-7.18,61.7,9,30.89,39.9,25.64,57S45,199,27.85,197.34.41,192.44.41,192.44Z"/><path class="cls-42" d="M.41,121.64s31.93-7.34,55.89,5.92c21.71,12,36.7,34.7,31.45,51.83S45,199,27.85,197.34.41,192.44.41,192.44Z"/><g class="cls-43"><path class="cls-44" d="M.41,143.26s8.68-7.75,27,0,19.17,26.89,34.67,26.09,23.66-7.33,29.37-6.72,2.17,35.13,2.17,35.13l-93.24,4Z"/></g><path class="cls-44" d="M54.56,163.65c1.44,1.23,2.66,2.25,3.88,1.63S58,161,56.5,161,54.56,163.65,54.56,163.65Z"/><path class="cls-44" d="M69,165.9c2.94-.59,6.57-1.45,5.47-2.67s-6-.09-7.51.73S67.07,166.27,69,165.9Z"/><path class="cls-35" d="M26,139.1c3.05,1.51,6.93,5,8.15,3.75s-7.34-7.55-10.4-7.55-4.08,1.27-3.06,2.17S26,139.1,26,139.1Z"/><path class="cls-12" d="M108.31,99s-5.74-6.93-3.52-10.73,8.11,7.89,9.27,8.06,3.8-3.87,4.85-4.78,3.06.75,2.75,3.18-2.2,4.3-2.35,5.86,3.76,1.9,5.22,2.33,2.74,2.94,1.77,3.79c-1.56,1.38-8.39-2.4-9.59-1.93-1.45.57-2.45,3.91-1.62,6.15s-.08,4.26-1.14,4.54-3.49-1.29-3.76-5.09-.77-3.44-2.63-3.81-9,.95-9.14-2,3-2.41,5.76-2.79S108.09,100.83,108.31,99Z"/></g></g></svg>