<svg xmlns="http://www.w3.org/2000/svg" viewBox="0 0 106.5 50.5"><defs><style>.cls-1{fill:#f1ecce;stroke:#f1ecce;stroke-miterlimit:10;stroke-width:0.5px;opacity:0.85;}</style></defs><title>area</title><g id="圖層_2" data-name="圖層 2"><g id="area"><path class="cls-1" d="M.25.25v50h106V.25Zm38.49,37a11.79,11.79,0,0,1-3-.43,1.37,1.37,0,0,1-1-1.39,1.5,1.5,0,0,1,1.45-1.57,2.42,2.42,0,0,1,.46.06,9.35,9.35,0,0,0,2.36.36c2.11,0,3.63-1,3.63-8.5v-.45c0-.85-.43-1.18-1.06-1.18H38.23C36.66,35,28.1,37.4,27.13,37.4a1.49,1.49,0,0,1-1.51-1.48,1.42,1.42,0,0,1,1.15-1.36c5.65-1.76,7.77-5.78,8.44-10.38-1,0-1.91,0-2.73,0A1.22,1.22,0,0,1,31.18,23v-.18c-1.36,1.57-3.51,3.69-4.84,3.69a1.61,1.61,0,0,1-1.63-1.54,1.53,1.53,0,0,1,.82-1.3,16.17,16.17,0,0,0,6-6.78,1.58,1.58,0,0,1,1.39-.94,1.64,1.64,0,0,1,1.63,1.55c0,1-2.3,4.05-2.45,4.23a1.52,1.52,0,0,1,.39-.06c1.27,0,2.7,0,4.15,0,2,0,4,0,5.77,0A3,3,0,0,1,45.61,25C45.61,30.84,45.43,37.28,38.74,37.28ZM49.6,25.94c-1.69,0-6.26-4.33-9.1-10.26a1.65,1.65,0,0,0-1.73-.94h-.15l-4.32.16h-.06a1.43,1.43,0,0,1,0-2.85l5-.09h.12a3.54,3.54,0,0,1,3.51,1.88,20.09,20.09,0,0,0,7.68,8.86,1.64,1.64,0,0,1,.88,1.45A1.83,1.83,0,0,1,49.6,25.94Zm29.73-7.87H66.87A43.7,43.7,0,0,1,64.6,22c.94,0,2-.06,3.23-.06l0-1.42a1.36,1.36,0,0,1,1.43-1.39,1.34,1.34,0,0,1,1.42,1.39v1.42c1.6,0,3.14,0,4.35.06C77,22,78.18,23,78.21,25v4.32c0,.49.06,1.06.09,2.12v.09c0,1.94-1.45,3.48-4,3.48-1.88,0-2.91-.51-2.91-1.63a1.1,1.1,0,0,1,1.09-1.21c.09,0,.15,0,.24,0a7.23,7.23,0,0,0,1.15.12c.85,0,1.58-.27,1.58-1.3V29.66c0-1.21,0-2.94-.06-4.21a1,1,0,0,0-1.06-1.09c-.94,0-2.21-.06-3.54-.06V36.16a1.46,1.46,0,0,1-2.91,0V24.33c-1.24,0-2.39,0-3.23,0s-1,.37-1,1.09c0,1.24,0,2.66,0,4.15s0,3,0,4.53v0a1.27,1.27,0,0,1-1.42,1.21,1.25,1.25,0,0,1-1.39-1.21V31.93c0-1.79,0-3.54,0-5.27-2.72,2.82-3.72,2.88-4,2.88A1.41,1.41,0,0,1,56,26.9a25.35,25.35,0,0,0,7.59-8.83H57a1.36,1.36,0,0,1-1.46-1.36A1.34,1.34,0,0,1,57,15.38H64.9a35,35,0,0,0,1.27-3.48,1.38,1.38,0,0,1,1.39-1,1.62,1.62,0,0,1,1.7,1.39,21.64,21.64,0,0,1-1.12,3.12H79.33a1.3,1.3,0,0,1,1.42,1.33A1.34,1.34,0,0,1,79.33,18.07Z"/></g></g></svg>