<svg xmlns="http://www.w3.org/2000/svg" viewBox="0 0 106.5 50.5"><defs><style>.cls-1{fill:#f1ecce;stroke:#f1ecce;stroke-miterlimit:10;stroke-width:0.5px;opacity:0.85;}</style></defs><title>food</title><g id="圖層_2" data-name="圖層 2"><g id="food"><path class="cls-1" d="M72.83,25.65h-9v2c1.09,0,2.06,0,2.94,0,1.75,0,3.23,0,4.9-.13C72.19,27.49,72.83,27.37,72.83,25.65Z"/><path class="cls-1" d="M.25.25v50h106V.25ZM34.66,11.86c.52,0,6.72,1.48,6.72,3.75a1.67,1.67,0,0,1-1.57,1.66,1.55,1.55,0,0,1-1-.39,11.8,11.8,0,0,0-4.72-2.39,1.19,1.19,0,0,1-1-1.15A1.52,1.52,0,0,1,34.66,11.86ZM49.48,37h-23A1.29,1.29,0,0,1,25,35.72a1.41,1.41,0,0,1,1.43-1.45l10.07,0V28.19l-6.53,0A1.28,1.28,0,0,1,28.58,27,1.35,1.35,0,0,1,30,25.56l6.53,0V20.72l-8.26,0a1.27,1.27,0,0,1-1.39-1.27,1.34,1.34,0,0,1,1.39-1.39H47.58a1.33,1.33,0,1,1,0,2.66l-8.08,0v4.87l6.35,0a1.33,1.33,0,1,1,0,2.66l-6.35,0V34.3l10,0a1.37,1.37,0,0,1,1.37,1.42A1.3,1.3,0,0,1,49.48,37ZM56.16,19.6a42.2,42.2,0,0,0,9.44-6.68A3.38,3.38,0,0,1,68,11.8a4.06,4.06,0,0,1,2.63,1.12,49.47,49.47,0,0,0,9.59,5.89,1.43,1.43,0,0,1,.91,1.27,1.64,1.64,0,0,1-1.73,1.55c-1.84,0-9-5.36-10.43-6.66a1.26,1.26,0,0,0-.79-.39,1.24,1.24,0,0,0-.79.42,57.58,57.58,0,0,1-9.49,7,1.89,1.89,0,0,1-1,.27,1.59,1.59,0,0,1-1.67-1.45A1.38,1.38,0,0,1,56.16,19.6ZM79.81,38c-.12,0-9.64-.3-12.91-8.17H63.78V34c1.18-.28,2.27-.55,3.18-.85a2,2,0,0,1,.57-.09,1.28,1.28,0,0,1,1.4,1.18c0,.45-.37,1-1.21,1.24A72.06,72.06,0,0,1,57,38.08a1.36,1.36,0,1,1-.24-2.69c1.45-.21,2.9-.49,4.29-.76,0-4.17,0-9.43.06-12.28a3,3,0,0,1,3.15-3.23c.87,0,1.69-.09,2.48-.09V17c0-.73.72-1.09,1.42-1.09s1.42.36,1.42,1.09v2c3.21,0,5.57.12,5.81,2.45.06.87.09,2.17.09,3.35,0,4.36-.21,5-5.66,5a9.44,9.44,0,0,0,1.45,1.94c1.27-.52,3.57-1.42,5-2.18a1.61,1.61,0,0,1,.78-.21,1.47,1.47,0,0,1,1.54,1.33c0,.79-.39,1.15-5,2.75a16.48,16.48,0,0,0,6.75,1.76,1.22,1.22,0,0,1,1.21,1.27A1.57,1.57,0,0,1,79.81,38Z"/><path class="cls-1" d="M71.59,21.44c-.73,0-1.45,0-2.24,0-1.27,0-2.63,0-4.24.06-.84,0-1.24.54-1.27,1.45,0,.18,0,.39,0,.6l9,0C72.8,22.2,72.71,21.48,71.59,21.44Z"/></g></g></svg>