<svg xmlns="http://www.w3.org/2000/svg" viewBox="0 0 435.88 275.05"><defs><style>.cls-1{fill:#fefdec;}.cls-2{fill:#e7d5b4;}.cls-3{fill:#decbb7;}.cls-4{fill:#b94133;}.cls-5{fill:#d9ac5c;}.cls-6{fill:#baae9f;stroke:#baae9f;stroke-miterlimit:10;}.cls-7{fill:#796f63;}.cls-8{fill:#33211a;}</style></defs><title>frogfishes</title><g id="圖層_2" data-name="圖層 2"><g id="frogfishes"><path class="cls-1" d="M15,124.72s-1.48-16.44,2.73-17.84,4.41-1.41,4.41-1.41v-2s-5.38.28-5.66-5.89,6.63-10.37,10.28-9c0,0,2.16-12.62,6.37-19.63S46.54,49.39,50.75,46.31s15.68-10.66,17.08,0a154.84,154.84,0,0,1,1.4,18.5L74,72.11s8.41-5.89,12.89-10.38,7.29-13.18,7.29-17.67,10.1-18.22,16-23,14.3-11.22,20.19-4.77,5.32,29.73,4.76,33.37,4.49,7.85,7,9.54,7.58-2.81,11.22,2.52,13.18,1.68,16.55-4.77,9.53-35.15,14.58-43.37S198.49-.52,203.26,0,211.11,12.66,217,12.66s32.81,5.88,42.34,26.92,10.38,27.2,22.15,31.12,18.23,15.42,20.76,33.65-11.78,20.75-21,24.68-11.49,7.85-6.73,11.78,10.4,8.41,28.06,3.36S318,137.44,318,137.44s24.11-55.24,36.17-62,31.69-1.12,41.5,4.2,37,29.73,39.82,60-8.13,53-29.16,65.62S372.35,221,372.35,221s-28.6-18.79-33.37-21-12.34-7.85-23-4.76-27.48,6.73-29.16,8.41,26.92-1.68,26.92-1.68,12.34,10.37,10.94,21.87S309,251.29,294.39,254.66a226.81,226.81,0,0,1-30,4.48s-39-31.68-46-33.09-12.62-2-13.18-4.76S186.15,219,185,219.88s0,1.13,2.52,2.53,7.85,6.73,4.49,10.93-6.45,2-5.61,6.73-.56,7.29-3.92,11.22-8.14,13.18,1.12,15.7,11.77,7.76,4.2,7.76-29.72,1.22-36.45-1.31-4.77-1.4-12.9-1.12-33.93,3.37-37.58-1.12-2.24-6.17,5.33-9S127,236.15,127.82,231.1c0,0-10.93-.28-16.26-.84,0,0-34.77,16.54-42.62,17.38s-39.54,2-45.43-1.12-9-7.57-4.21-7.57,15.42,1.12,15.42,1.12-16-7.57-12.33-14.58,13.45-5.05,13.45-5.05-6.73-9-14.58-12.89S6.12,190.44,3.88,181.75s-5-33.21-3.37-44.23S7.87,121,15,124.72Z"/><path class="cls-2" d="M26.57,88.65S28.82,76,33,69,46.49,49.39,50.7,46.31s15.71-10.66,17.11,0a157.45,157.45,0,0,1,1.4,18.5L74,72.11s4.67,8.31-5.3,13.57C57.7,91.47,22.92,87.25,26.57,88.65Z"/><path class="cls-2" d="M279.36,105c-3.08-8.84-7.9-6-17.42-8.33s-4.11,5.81-7.79,12-7.67.77-14.66-.88c-4.49-1.06-8.32-3.84-11.4-6.54,2.37-7,4-17.19.89-21.46-5.32-7.27-10-16.81-11-20.2-1.72-5.68-.16-27.18.54-31.54s-2.92-9.46-11.16-14.46-14,0-14,0l3.28,48.14s-8.57,25.53,5.78,33c5.75,3,16.88,7,26.5,14,12.5,9.08,25.1,19.08,25.1,19.08l14.51,4.36,14.19-8.59A70.29,70.29,0,0,0,279.36,105Z"/><path class="cls-2" d="M53.88,231.39c5.62.79,24.13,3.6,35.88,3a99.67,99.67,0,0,0,21.8-4.11S76.79,246.8,68.94,247.64s-39.54,2-45.43-1.12-9-7.57-4.21-7.57,15.42,1.12,15.42,1.12-16-7.57-12.33-14.58,13.45-5.05,13.45-5.05S45.23,230.18,53.88,231.39Z"/><path class="cls-2" d="M220.36,217.5c4.51-.43,39-5.72,51.32-9.27,8.28-2.39,15.82-5.29,15.14-4.61-1.68,1.68,26.92-1.68,26.92-1.68s12.34,10.37,10.94,21.87S309,251.29,294.39,254.66a226.81,226.81,0,0,1-30,4.48s-39-31.68-46-33.09-12.62-2-13.18-4.76c-.36-1.78-7.94-2.21-13.72-2.06C189.82,219.27,209.23,218.57,220.36,217.5Z"/><path class="cls-2" d="M116.33,32.14c-4,2-12.06-6.3-6.17-11.07s14.3-11.22,20.19-4.77c3.8,4.16,4.91,15.32,5.07,23.7C135.51,44.61,127,26.84,116.33,32.14Z"/><path class="cls-3" d="M14.91,124.54s1.25,11.13,3.55,13c1.89,1.58,1.16,7,1.26,14.09,0,0-2.92-12.2-5.89-15.14s-2.73-3.42-4.62-5.26C5.74,127.91,7,122.33,14.91,124.54Z"/><path class="cls-3" d="M48.6,113.61c-1.56,4.28-2.15,12.47,3.7,16.56s14.62,2.34,17.35-1-2.73-4.29-2.73-4.29-6.43,4.87-11.69,2.34S48.6,113.61,48.6,113.61Z"/><path class="cls-4" d="M26.57,88.65S28.82,76,33,69,46.49,49.39,50.7,46.31s15.71-10.66,17.11,0c0,0-2.45-.85-6.66.42-3.21,1-9.36,2.58-3.57,5.88,4.41,2.53,2.9,3.23-.42,6.1-4.63,4-8.07,9.49-9.94,12.62C42.07,80,42.78,81.57,41.69,87.77c-.22,1.25-3.5,2.68-4.72,2.7C31.92,90.53,29,88.85,26.57,88.65Z"/><path class="cls-4" d="M101.46,46.44c-5.67-2.83-7.29-2.38-7.29-2.38,0-4.48,10.1-18.22,16-23s14.3-11.22,20.19-4.77-3.93,10.24-8.42,10.8c-3.66.45-4,4.17-7.29,6.45-2.49,1.73-5.89,3.92-5.6,11.77C109.22,50.4,107.63,49.53,101.46,46.44Z"/><path class="cls-4" d="M44.75,98c-1.41-5.27-7.35-9.67-4-9.67C48.67,88.37,74,72.11,74,72.11s8.41-5.89,12.9-10.38c0,0,2.55-.29,9.19,5.4,4.41,3.78-1.7,1.18-4.65,5.6-2,3.06-3.57,4.45-2.73,8.07.68,3-2.79,7-.62,13,2.11,5.88-2.94,5.88-5,3.15-1-1.35-3.79-2.14-4.63-.1-1.26,3-8.83,4.1-11.4,8.14a5.57,5.57,0,0,1-9.63,0C52.11,96.57,45.9,102.33,44.75,98Z"/><path class="cls-5" d="M291.45,114.45c5.05-5.89.58-9.26-2.54-23.87-1.25-5.83-12.18-10.63-20.6-14.41-6.91-3.11-15.53-17.05-16.4-21.45-1.46-7.34-8.74-15.73-22.71-28.18-4.89-4.36-13.47,1.26-19.78-6.31-4.65-5.59-30,1.58-24.95-6.64S198.49-.52,203.26,0,211.11,12.66,217,12.66s32.81,5.88,42.34,26.92,10.38,27.2,22.15,31.12,18.23,15.42,20.76,33.65-11.78,20.75-21,24.68S286.4,120.34,291.45,114.45Z"/><path class="cls-4" d="M380.83,143.89c-.63-13.24-15.76-9.77-16.18-21.07s-9.69-.45-18.1-3.49c-5.14-1.86-3.85-30.95-10.16-19.52C326.76,117.26,318,137.44,318,137.44s2.24,1.68-15.41,6.73-22.93.08-28.06-3.36q-7.14-5.9,6.73-11.78c2.7-1.15,5.83-2.17,8.85-3.51,0,0,1.53-2.43.34-7.08-1-4.09-2.18,1.19-6.94.63s-6-.51-12.83,4.63c-3.37,2.52-4.69,3.79-11.36,2.1-4-1-10,3-7.22,4,4.71,1.71,7.69,5.6,10.71,7.75,3.49,2.49,5.33,2.08,7.76,4s4.49,8.62,9,14.82c4.2,5.79-.53,26.23,14.05,22.86s12.76-10.12,19.77-19.35c8-10.51,19.5-7.49,24.4-15.56,7.15-11.78,8-5.47,9.67,5.05.81,5,10.52,16.82,2.95,27.34C343,187,336.77,198.94,339,200c3.13,1.48,16.58,10.11,25.41,15.85,4.61,3-5.63-29,3-35.09C380.13,171.73,381.46,157.14,380.83,143.89Z"/><path class="cls-4" d="M94.17,172.49c-.28-6.17-19.77-14-15.56-21s-2-15.31-6.24-18.37c-15.21-11.07,4.21-11,8.69-11.17,7.61-.39,22,10.57,41.72,13.32,16.4,2.28,9.05-30.94,28.6-38.56,8-3.12-1.68-40.28,2-35s13.18,1.68,16.55-4.77,9.53-35.15,14.58-43.37S198.49-.52,203.26,0s-7.2,13.52-4.93,19c2.1,5,6.51,4.74,6.89,12.27S191.13,50.06,202.91,54,219.1,60,221.62,78.27s-5,14.48-14.3,18.41-2.94,7.67-13.88,4.73c-6-1.61-27.29,21.45-9.63,16.4s10.61,23.7,5.85,21.45,4.8,24.68-5.85,27.77S181,177.4,179.56,188.9s31,17.24,16.4,20.61-35.89-12.48-42.9-13.88-21.31,13.74-23.55,5.05-24.82-.76-23.14-11.78S94.45,178.66,94.17,172.49Z"/><path class="cls-4" d="M300.75,203.31c6.58-.62,13-1.37,13-1.37s12.34,10.37,10.94,21.87S309,251.29,294.39,254.66c-6.45,1.49-13.07,2.54-18.45,3.24-2.16.29,13.22-2.72,24.28-9.55s17.83-17.48,18.57-23.7c.84-7,.31-9.44-4.21-16.27C311.43,203.62,300.75,203.31,300.75,203.31Z"/><path class="cls-4" d="M183.63,267c9.25,2.53,11.77,7.76,4.2,7.76-3.64,0-10.65.29-17.69.3,0,0,6.39-4,11.73-4C185.69,271,183.63,267,183.63,267Z"/><path class="cls-4" d="M107.35,267.92c5.29,0,7.69,3.84,10.85,2.43s7.63-.19,9.62.84c3.1,1.62,10.66,1.13,10.66,1.13-8.13.28-33.93,3.37-37.58-1.12s-2.24-6.17,5.33-9C106.23,262.23,104.65,267.92,107.35,267.92Z"/><path class="cls-4" d="M29,232.65a17.14,17.14,0,0,1,5.72,7.42s-16-7.57-12.33-14.58a8.88,8.88,0,0,1,3.53-3.69,24.91,24.91,0,0,1,.53,3.69C26.55,227,26.45,230.94,29,232.65Z"/><path class="cls-4" d="M24.35,242.46c2.92,1.31,5.22,5.82,1.44,4.82a11.59,11.59,0,0,1-2.28-.76c-5.89-3.08-9-7.57-4.21-7.57A20,20,0,0,0,24.35,242.46Z"/><line class="cls-6" x1="276.04" y1="85.21" x2="251.02" y2="117.11"/><line class="cls-6" x1="213.65" y1="16.15" x2="204.6" y2="27.7"/><line class="cls-6" x1="229.62" y1="22.33" x2="212.82" y2="43.74"/><line class="cls-6" x1="243.54" y1="34.87" x2="229.62" y2="52.62"/><line class="cls-6" x1="257.15" y1="51.26" x2="229.62" y2="86.37"/><line class="cls-6" x1="268.08" y1="68.82" x2="251.33" y2="90.19"/><line class="cls-6" x1="293.97" y1="81.64" x2="264.41" y2="119.33"/><line class="cls-6" x1="298.18" y1="90.47" x2="278.22" y2="115.92"/><line class="cls-6" x1="373.89" y1="83.74" x2="357.49" y2="103.09"/><line class="cls-6" x1="362.11" y1="83.32" x2="333.09" y2="125.94"/><line class="cls-6" x1="348.65" y1="126.37" x2="382.73" y2="92.57"/><line class="cls-6" x1="348.65" y1="140.55" x2="399.13" y2="106.03"/><line class="cls-6" x1="369.69" y1="144.21" x2="410.91" y2="125.38"/><line class="cls-6" x1="390.72" y1="145.89" x2="417.64" y2="136.32"/><line class="cls-6" x1="421.84" y1="145.89" x2="357.4" y2="164.89"/><line class="cls-6" x1="363.22" y1="175.65" x2="421.84" y2="170.81"/><line class="cls-6" x1="348.65" y1="186.62" x2="417.64" y2="184.55"/><line class="cls-6" x1="407.96" y1="196.86" x2="352.44" y2="192.12"/><line class="cls-6" x1="358.51" y1="201.94" x2="382.76" y2="212.45"/><line class="cls-7" x1="316.48" y1="236.43" x2="256.18" y2="220.53"/><line class="cls-7" x1="320.47" y1="220.53" x2="292.29" y2="218.31"/><line class="cls-7" x1="316.48" y1="210.77" x2="292.29" y2="212.03"/><line class="cls-7" x1="303.23" y1="244.42" x2="264.35" y2="229.28"/><line class="cls-7" x1="286.33" y1="253.2" x2="251.05" y2="232.22"/><path class="cls-7" d="M232.56,105.61c.25-6.3,0-16.4,7.15-14.72s10.71,9.68,11.88,14.72,5.14,7.5,0,11.32-7.25,2.49-11,0S232.28,112.73,232.56,105.61Z"/><path class="cls-7" d="M268.63,168.31c1.27-.6,3.25-1.71,3.66-.12s-.8,3.13-1.67,3.89-.95,1.8-2.24,1.18-1.25-1.17-1.15-2.18S267.19,169,268.63,168.31Z"/><path class="cls-7" d="M229.62,72c-3.79-2.52-7.15-8.41-7.15-14.3s.62-4.62-2.43-7.15-1.64-4.63,4.18-4.21,8.33,3.53,9.59,7.16c1.05,3,1.69.78,3.38,5.65s4.2,11.59,0,12.85A12.86,12.86,0,0,1,229.62,72Z"/><path class="cls-7" d="M268.78,106.24c-3.48-3.91-9.44-12.82-10.84-17.87s-1.64-5.47,5.42,2.52,13.79,11.76,12.52,15.35S271.35,109.11,268.78,106.24Z"/><path class="cls-7" d="M265,227c-3.71-3.06-7.57.63-2.53-8.2s6.94-10.09,13.25-8.2,3.16,11,0,11.52S268.16,229.63,265,227Z"/><path class="cls-7" d="M221.28,205.56c-4.45-1.26-13.91-6.31-7-14.51s11.35-6.94,16.4,0,7.57,13.88,0,16.4S221.28,205.56,221.28,205.56Z"/><path class="cls-7" d="M201.88,154.67s-10.13,3.78-8.31-4.42,8.74-8.83,12.22-4.41S205.9,153.81,201.88,154.67Z"/><path class="cls-7" d="M356.65,96.82s4.79-2,6.56,3.49,2.32,6.34,5.81,5.82,2.76,3.61.7,4.8-6.91,1.74-8.23-1.32-.59-6-3.67-4.79S353.92,97.13,356.65,96.82Z"/><path class="cls-7" d="M377.21,203c-3.14-3.69-4.93-9.24-1.27-11s-.06-7-.15-10.61,4.27-9.13,8-1-3.64,6.9-1.4,9.77,5.37,7.48,0,12S378.72,204.72,377.21,203Z"/><path class="cls-7" d="M397.67,125.2c-1.11,1.83-7-1.39-6.4-5.07s-1.59-6.63.12-8.83,1.11.6,3.5,3.06S401.68,118.57,397.67,125.2Z"/><path class="cls-7" d="M407.91,190.18c2-.44,6.72-20.17,6.72-24s-1.11-13.68-3.3-15.13.42,6.94,0,10-2,3.17-3.5,9.5S405.89,190.63,407.91,190.18Z"/><path class="cls-7" d="M371.37,212.45s-3.79-5.47,0-5S371.37,212.45,371.37,212.45Z"/><path class="cls-7" d="M395.34,198.57c-2.52,0-2.94-2.94,0-3.36S395.34,198.57,395.34,198.57Z"/><path class="cls-7" d="M394.63,161.88c-1.68-2.27-6.76-8.46,0-8.46S396.06,163.82,394.63,161.88Z"/><path class="cls-7" d="M395,177.54c-3,0-5-.9-1.68-2.34S395,177.54,395,177.54Z"/><path class="cls-7" d="M389.47,137.16s-5.48,2.52-3.8,0,2.62-5.89,5.52-4.63S389.47,137.16,389.47,137.16Z"/><path class="cls-7" d="M417.32,146s-4.53-5.46,0-4.41S417.32,146,417.32,146Z"/><path class="cls-7" d="M305.39,182.34s3.62-6.1,4.16-1.49S305.39,182.34,305.39,182.34Z"/><path class="cls-7" d="M414.67,121.25c-2.5-.49-4.23-3.86,0-4.28S417.17,121.75,414.67,121.25Z"/><path class="cls-7" d="M382.75,116.13c-1.71.42-2.91-2.52,0-2.95S382.75,116.13,382.75,116.13Z"/><path class="cls-7" d="M380.36,93.42c-1,0-3-6.31-.95-5S380.36,93.42,380.36,93.42Z"/><path class="cls-7" d="M311.16,192.21c-.21-1,5.56-4.23,4.74-2S311.16,192.21,311.16,192.21Z"/><path class="cls-7" d="M358.33,90.3c-2.11,1-4.63-3.61-1.68-4S360.43,89.3,358.33,90.3Z"/><path class="cls-7" d="M177.46,226.08c3.53,1.4,10.51,4,7.15,7.83s-9.26,2.52-10.52,0S171.49,223.73,177.46,226.08Z"/><path class="cls-7" d="M175.35,260.69c0,.85-1.16,1.54-2.61,1.54s-2.6-.69-2.6-1.54,1.17-1.55,2.6-1.55S175.35,259.83,175.35,260.69Z"/><path class="cls-7" d="M160.63,260.69a1.93,1.93,0,1,1-1.89-1.55A1.74,1.74,0,0,1,160.63,260.69Z"/><path class="cls-7" d="M237.19,148a1.93,1.93,0,1,1-1.9-1.55A1.75,1.75,0,0,1,237.19,148Z"/><path class="cls-7" d="M121.88,257.18c1.27-1.67,1.47-3.65.45-4.42s-2.87,0-4.13,1.62-1.46,3.64-.45,4.41S120.62,258.84,121.88,257.18Z"/><path class="cls-7" d="M134.55,259.14c0,.93-1.6,1.69-3.57,1.69s-3.58-.76-3.58-1.69,1.6-1.68,3.58-1.68S134.55,258.21,134.55,259.14Z"/><path class="cls-7" d="M167.78,252.41a2.32,2.32,0,1,1-2.31-2.52A2.42,2.42,0,0,1,167.78,252.41Z"/><path class="cls-7" d="M156.85,239.12c0,2.7-.95,4.88-2.11,4.88s-2.1-2.18-2.1-4.88.94-4.87,2.1-4.87S156.85,236.43,156.85,239.12Z"/><ellipse class="cls-7" cx="144.23" cy="223.23" rx="2.52" ry="3.2"/><path class="cls-7" d="M75,166.32a2.53,2.53,0,1,1-2.52-2.8A2.68,2.68,0,0,1,75,166.32Z"/><path class="cls-7" d="M78.05,185.39c-1.4.56-3.51,2.88,0,4.56s2.66-.77,2.66-2.28,1.68-2.56,1.26-3.61S78.05,185.39,78.05,185.39Z"/><path class="cls-7" d="M84.71,173.76c1,.78,3.15-1.48,2.1-2.53s-2.52-3.36-3.57-2.1S82.61,172.07,84.71,173.76Z"/><path class="cls-7" d="M215,133.69c-.62,1.1,2,2.88,2.83,1.68s2.92-3,1.5-3.87S216.3,131.35,215,133.69Z"/><path class="cls-7" d="M60.94,177.54c-1.26.63-.42,4.84,1.69,4.63S62.2,176.91,60.94,177.54Z"/><path class="cls-7" d="M75,197a1.29,1.29,0,1,1-1.26-1.58A1.44,1.44,0,0,1,75,197Z"/><path class="cls-7" d="M211.25,166.29a1.3,1.3,0,1,1-1.26-1.58A1.45,1.45,0,0,1,211.25,166.29Z"/><path class="cls-7" d="M260.46,159.14a1.29,1.29,0,1,1-1.26-1.58A1.45,1.45,0,0,1,260.46,159.14Z"/><path class="cls-7" d="M68.33,205.19c.85,1.1.88,2.51,0,3.16s-2.19.27-3-.83-.88-2.52-.06-3.16S67.47,204.09,68.33,205.19Z"/><path class="cls-7" d="M54.19,161.24c-.42-.63-1.23-3.84,1.29-2.36s2.19,2.26,2.19,2.26v1.68s-.68,1-1.31.84S54.19,161.24,54.19,161.24Z"/><path class="cls-7" d="M62.84,149a1.28,1.28,0,1,1-1.25-1A1.14,1.14,0,0,1,62.84,149Z"/><path class="cls-7" d="M216.43,147c.34-.68,2.69-3,2.67-.1s-.89,3-.89,3l-1.46.83s-1.13-.07-1.35-.67S216.43,147,216.43,147Z"/><path class="cls-7" d="M201.09,173.61a1.28,1.28,0,1,1,.23-1.56A1.14,1.14,0,0,1,201.09,173.61Z"/><path class="cls-7" d="M265.87,184.13a1.14,1.14,0,0,1-1.48-.59,1,1,0,1,1,1.71-1A1.14,1.14,0,0,1,265.87,184.13Z"/><path class="cls-7" d="M125,120.78c-.42,1-2.41,1.1-4.44.24s-3.34-2.37-2.92-3.36,2.42-1.1,4.45-.24S125.4,119.79,125,120.78Z"/><path class="cls-7" d="M115.65,96.59a2.44,2.44,0,1,1-2.41-2A2.24,2.24,0,0,1,115.65,96.59Z"/><path class="cls-7" d="M133.46,107.81c0,.58-1.2,1-2.68,1s-2.69-.46-2.69-1,1.2-1,2.69-1S133.46,107.24,133.46,107.81Z"/><path class="cls-7" d="M108.24,81c-.34,2.29-1.45,4-2.48,3.87s-1.58-2.14-1.23-4.43,1.45-4,2.48-3.87S108.59,78.74,108.24,81Z"/><path class="cls-7" d="M143,93.23c0,1.93-1.1,3.5-2.46,3.5s-2.46-1.57-2.46-3.5,1.1-3.51,2.46-3.51S143,91.29,143,93.23Z"/><path class="cls-7" d="M144.58,75.28c-.35.46-1.46.19-2.47-.6s-1.53-1.79-1.18-2.25,1.47-.19,2.48.6S144.94,74.83,144.58,75.28Z"/><path class="cls-7" d="M122.64,52.47a1.55,1.55,0,1,1-1.55-1.4A1.49,1.49,0,0,1,122.64,52.47Z"/><path class="cls-7" d="M130.81,59.7c-.41.84-1.72,1-2.94.46s-1.87-1.74-1.46-2.58,1.71-1,2.93-.45S131.21,58.87,130.81,59.7Z"/><path class="cls-7" d="M126.29,89c2.83-1.38,4.2-4.36,3.64-5.73s.55-5.5.13-6.94a4.16,4.16,0,0,0-6.3-1.65c-2.81,2.17-7.29,5.19-4.21,8.59S124.44,89.92,126.29,89Z"/><path class="cls-7" d="M108.26,64c1.76-.28,6.8,1.68,7.08,0s3.09-5.61,0-5.33-8.66,1-9,3A2.07,2.07,0,0,0,108.26,64Z"/><path class="cls-7" d="M216.56,120c-.61,1-1.66,1.47-2.35,1s-.75-1.57-.14-2.56,1.67-1.47,2.36-1S217.18,119,216.56,120Z"/><path class="cls-7" d="M203.5,130.22a1.5,1.5,0,1,1-.52-2.28A1.67,1.67,0,0,1,203.5,130.22Z"/><path class="cls-7" d="M194.61,165.12c-1,.87-2.34,1-3,.25s-.29-2,.73-2.89,2.35-1,3-.24S195.64,164.26,194.61,165.12Z"/><path class="cls-7" d="M232.49,139.18c-1,1.1-2.23,1.61-2.75,1.13s-.12-1.74.88-2.84,2.23-1.61,2.75-1.14S233.5,138.08,232.49,139.18Z"/><path class="cls-7" d="M299.09,191.47a1.4,1.4,0,1,1,.27-2.26A1.67,1.67,0,0,1,299.09,191.47Z"/><path class="cls-7" d="M253.82,149.09c-.91,1-2.22,1.29-2.92.65s-.53-2,.38-3,2.22-1.29,2.92-.65S254.73,148.09,253.82,149.09Z"/><path class="cls-7" d="M247.43,133.8a2,2,0,1,1-1.64-2.52A2.14,2.14,0,0,1,247.43,133.8Z"/><path class="cls-7" d="M272,156.93a2.22,2.22,0,1,1-2.27-1.8A2.06,2.06,0,0,1,272,156.93Z"/><path class="cls-7" d="M280.87,184.91a2,2,0,1,1,.22-3.2A2.31,2.31,0,0,1,280.87,184.91Z"/><path class="cls-7" d="M324.08,179.79a1.41,1.41,0,1,1,.22-2.24A1.63,1.63,0,0,1,324.08,179.79Z"/><path class="cls-7" d="M290.44,199.43a1.2,1.2,0,1,1-.13-1.63A1.16,1.16,0,0,1,290.44,199.43Z"/><path class="cls-7" d="M262.89,145.4c-1.1-.19-1.88-1-1.74-1.79a1.82,1.82,0,0,1,2.24-1.1c1.1.19,1.88,1,1.74,1.79S264,145.59,262.89,145.4Z"/><path class="cls-8" d="M57.21,119.77c-2,0-2.63-3.59.34-4.77s4.8-.16,5.31.64.7,1.67,0,2.23-1.45.48-2.39.76S58.53,119.75,57.21,119.77Z"/></g></g></svg>