<svg xmlns="http://www.w3.org/2000/svg" viewBox="0 0 651 411.16"><defs><style>.cls-1{fill:none;stroke:#fff;stroke-miterlimit:10;}</style></defs><title>frogfishes-line</title><g id="圖層_2" data-name="圖層 2"><g id="frogfishes-line"><path class="cls-1" d="M22.85,186.49s-2.2-24.52,4.07-26.61,6.58-2.09,6.58-2.09v-2.93s-8,.42-8.43-8.78S35,130.61,40.39,132.7c0,0,3.22-18.82,9.5-29.27s20-29.28,26.29-33.88,23.39-15.89,25.48,0a231.72,231.72,0,0,1,2.07,27.6l7.1,10.88s12.54-8.79,19.24-15.48,10.87-19.65,10.87-26.34S156,39,164.77,31.92s21.33-16.73,30.11-7.11,7.94,44.33,7.11,49.76,6.69,11.71,10.45,14.22,11.29-4.18,16.73,3.76,19.65,2.51,24.67-7.11S268.06,33,275.59,20.76s20.91-21,28-20.21,11.71,18.82,20.5,18.82S373,28.16,387.24,59.52s15.47,40.56,33,46.41,27.18,23,30.94,50.18-17.56,30.95-31.36,36.8-17.15,11.71-10,17.57,15.51,12.54,41.84,5,23-10,23-10,36-82.38,53.94-92.42,47.26-1.67,61.89,6.28,55.2,44.32,59.38,89.48-12.12,79-43.49,97.86-50.6,23.41-50.6,23.41-42.65-28-49.76-31.36S487.6,287,471.71,291.6s-41,10-43.49,12.55,40.15-2.51,40.15-2.51,18.39,15.47,16.31,32.62-23.42,41-45.17,46A339.18,339.18,0,0,1,394.77,387s-58.13-47.26-68.58-49.35-18.82-2.93-19.66-7.11-28.43-3.34-30.11-2.09,0,1.67,3.77,3.77,11.71,10,6.69,16.3-9.62,2.93-8.37,10-.83,10.87-5.85,16.73-12.13,19.65,1.67,23.41,17.57,11.58,6.28,11.58-44.33,1.81-54.37-2-7.11-2.09-19.23-1.67-50.6,5-56-1.67-3.34-9.2,7.95-13.38,30.94-38.9,32.2-46.42c0,0-16.31-.42-24.26-1.26,0,0-51.85,24.68-63.56,25.93s-59,2.93-67.75-1.67-13.38-11.29-6.27-11.29,23,1.67,23,1.67-23.83-11.29-18.4-21.75S54,329.24,54,329.24s-10-13.38-21.74-19.24S9.63,284.49,6.28,271.53s-7.52-49.52-5-65.95S12.24,180.91,22.85,186.49Z"/><path class="cls-1" d="M40.12,132.7s3.36-18.82,9.63-29.27S69.84,74.15,76.11,69.55s23.42-15.89,25.51,0a234.76,234.76,0,0,1,2.09,27.6L110.82,108s7,12.39-7.9,20.24C86.54,136.91,34.68,130.61,40.12,132.7Z"/><path class="cls-1" d="M417.09,157.1c-4.59-13.18-11.77-9-26-12.41s-6.12,8.66-11.61,17.86-11.44,1.15-21.86-1.31c-6.7-1.58-12.41-5.73-17-9.75,3.54-10.51,6-25.63,1.33-32C334,108.65,327,94.41,325.5,89.36c-2.57-8.47-.24-40.53.8-47S322,28.22,309.67,20.76s-20.84,0-20.84,0l4.9,71.79s-12.79,38.07,8.62,49.14c8.57,4.42,25.16,10.43,39.52,20.86C360.5,176.09,379.3,191,379.3,191l21.64,6.51,21.15-12.81S421.69,170.29,417.09,157.1Z"/><path class="cls-1" d="M80.85,345.56c8.38,1.18,36,5.37,53.5,4.45,16-.84,32.51-6.14,32.51-6.14S115,368.55,103.3,369.8s-59,2.93-67.75-1.67-13.38-11.29-6.27-11.29,23,1.67,23,1.67-23.83-11.29-18.4-21.75S54,329.24,54,329.24,68,343.76,80.85,345.56Z"/><path class="cls-1" d="M329.12,324.85c6.71-.65,58.19-8.53,76.52-13.82,12.34-3.57,23.59-7.89,22.58-6.88-2.51,2.51,40.15-2.51,40.15-2.51s18.39,15.47,16.31,32.62-23.42,41-45.17,46A339.18,339.18,0,0,1,394.77,387s-58.13-47.26-68.58-49.35-18.82-2.93-19.66-7.11c-.53-2.65-11.84-3.28-20.46-3.07C283.57,327.48,312.51,326.44,329.12,324.85Z"/><path class="cls-1" d="M174,48.43c-6,3-18-9.4-9.2-16.51s21.33-16.73,30.11-7.11c5.66,6.2,7.33,22.85,7.57,35.34C202.58,67,189.84,40.52,174,48.43Z"/><path class="cls-1" d="M22.73,186.22s1.87,16.59,5.3,19.45c2.82,2.35,1.72,10.5,1.88,21,0,0-4.35-18.19-8.78-22.58s-4.08-5.11-6.9-7.84C9.05,191.24,10.94,182.93,22.73,186.22Z"/><path class="cls-1" d="M73,169.91c-2.33,6.4-3.2,18.61,5.52,24.71s21.8,3.49,25.87-1.45-4.07-6.4-4.07-6.4-9.59,7.27-17.44,3.49S73,169.91,73,169.91Z"/><path class="cls-1" d="M40.12,132.7s3.36-18.82,9.63-29.27S69.84,74.15,76.11,69.55s23.42-15.89,25.51,0c0,0-3.65-1.25-9.93.63-4.78,1.44-14,3.85-5.33,8.78,6.59,3.76,4.33,4.81-.62,9.1-6.9,6-12,14.14-14.82,18.81-7.69,12.87-6.62,15.27-8.25,24.52-.33,1.86-5.23,4-7,4C48.1,135.5,43.72,133,40.12,132.7Z"/><path class="cls-1" d="M151.81,69.76c-8.47-4.23-10.88-3.55-10.88-3.55,0-6.69,15.06-27.18,23.84-34.29s21.33-16.73,30.11-7.11S189,40.07,182.33,40.91c-5.45.68-6,6.23-10.87,9.61-3.71,2.59-8.78,5.86-8.36,17.57C163.37,75.66,161,74.36,151.81,69.76Z"/><path class="cls-1" d="M67.23,146.71c-2.1-7.86-11-14.43-6-14.43,11.82,0,49.55-24.25,49.55-24.25s12.55-8.79,19.24-15.48c0,0,3.81-.42,13.7,8,6.58,5.65-2.54,1.77-6.93,8.35-3.05,4.58-5.33,6.64-4.07,12,1,4.41-4.16,10.38-.92,19.44,3.14,8.78-4.39,8.78-7.53,4.71-1.55-2-5.64-3.2-6.9-.15-1.88,4.54-13.17,6.11-17,12.13a8.3,8.3,0,0,1-14.36-.07C78.21,144.51,68.94,153.09,67.23,146.71Z"/><path class="cls-1" d="M435.12,171.17c7.53-8.78.87-13.8-3.79-35.6-1.85-8.68-18.16-15.84-30.71-21.48-10.31-4.64-23.16-25.43-24.46-32-2.17-10.94-13-23.46-33.87-42C335,33.58,322.21,42,312.8,30.66c-6.94-8.33-44.74,2.36-37.21-9.9s20.91-21,28-20.21,11.71,18.82,20.5,18.82S373,28.16,387.24,59.52s15.47,40.56,33,46.41,27.18,23,30.94,50.18-17.56,30.95-31.36,36.8S427.59,180,435.12,171.17Z"/><path class="cls-1" d="M568.42,215.08c-.94-19.76-23.5-14.57-24.13-31.42-.62-16.64-14.45-.68-27-5.21-7.66-2.77-5.75-46.15-15.15-29.11-14.36,26-27.5,56.12-27.5,56.12s3.35,2.51-23,10-34.2.12-41.84-5q-10.67-8.79,10-17.57c4-1.7,8.69-3.23,13.19-5.22,0,0,2.28-3.63.5-10.56-1.56-6.11-3.24,1.78-10.35.94s-8.92-.76-19.13,6.9c-5,3.76-7,5.64-16.93,3.13-6-1.5-15,4.4-10.77,5.92,7,2.56,11.46,8.36,16,11.56,5.21,3.71,8,3.1,11.57,6s6.7,12.86,13.4,22.11c6.25,8.64-.8,39.12,20.95,34.1s19-15.11,29.48-28.86c11.92-15.68,29.08-11.18,36.38-23.21,10.66-17.56,11.92-8.15,14.43,7.53,1.2,7.5,15.68,25.09,4.39,40.77-11,15.29-20.23,33.16-16.94,34.71,4.68,2.2,24.72,15.07,37.9,23.63,6.86,4.45-8.4-43.26,4.44-52.32C567.37,256.59,569.36,234.83,568.42,215.08Z"/><path class="cls-1" d="M140.93,257.73c-.41-9.2-29.48-20.91-23.2-31.36s-3-22.83-9.3-27.4c-22.69-16.51,6.27-16.32,12.95-16.66,11.35-.59,32.74,15.77,62.21,19.87,24.46,3.4,13.5-46.15,42.65-57.51,11.92-4.65-2.51-60.06,2.93-52.12s19.65,2.51,24.67-7.11S268.06,33,275.59,20.76s20.91-21,28-20.21-10.72,20.17-7.35,28.28c3.14,7.53,9.72,7.07,10.28,18.29s-21,28-3.45,33.88,24.15,9,27.92,36.22-7.53,21.59-21.33,27.45-4.39,11.44-20.7,7.05c-8.89-2.39-40.69,32-14.37,24.47s15.83,35.33,8.72,32,7.17,36.8-8.72,41.4-4.24,15.47-6.33,32.61,46.21,25.72,24.46,30.74-53.52-18.61-64-20.7-31.78,20.49-35.12,7.53-37-1.14-34.5-17.57S141.35,266.93,140.93,257.73Z"/><path class="cls-1" d="M449,303.68c9.8-.92,19.37-2,19.37-2s18.39,15.47,16.31,32.62-23.42,41-45.17,46C429.89,382.48,420,384,412,385.1c-3.22.42,19.7-4.07,36.21-14.25s26.58-26.07,27.68-35.34c1.25-10.49.47-14.08-6.27-24.26C464.92,304.15,449,303.68,449,303.68Z"/><path class="cls-1" d="M274.33,398.65c13.8,3.77,17.57,11.58,6.28,11.58-5.43,0-15.89.42-26.39.43,0,0,9.52-6,17.5-6C277.41,404.66,274.33,398.65,274.33,398.65Z"/><path class="cls-1" d="M160.59,400c7.89,0,11.46,5.72,16.18,3.62s11.37-.29,14.35,1.26c4.62,2.4,15.89,1.68,15.89,1.68-12.13.42-50.6,5-56-1.67s-3.34-9.2,7.95-13.38C158.92,391.55,156.56,400,160.59,400Z"/><path class="cls-1" d="M43.75,347.45c5.91,4,8.53,11.06,8.53,11.06s-23.83-11.29-18.4-21.75a13.38,13.38,0,0,1,5.28-5.5,37.36,37.36,0,0,1,.79,5.51C40.09,339,40,344.89,43.75,347.45Z"/><path class="cls-1" d="M36.81,362.06c4.35,1.95,7.79,8.68,2.14,7.2a18.13,18.13,0,0,1-3.4-1.13c-8.78-4.6-13.38-11.29-6.27-11.29A29.61,29.61,0,0,0,36.81,362.06Z"/><line class="cls-1" x1="412.14" y1="127.57" x2="374.83" y2="175.15"/><line class="cls-1" x1="319.11" y1="24.58" x2="305.61" y2="41.8"/><line class="cls-1" x1="342.92" y1="33.8" x2="317.87" y2="65.73"/><line class="cls-1" x1="363.67" y1="52.5" x2="342.92" y2="78.96"/><line class="cls-1" x1="383.98" y1="76.94" x2="342.92" y2="129.3"/><line class="cls-1" x1="400.28" y1="103.12" x2="375.29" y2="134.99"/><line class="cls-1" x1="438.89" y1="122.24" x2="394.81" y2="178.45"/><line class="cls-1" x1="445.16" y1="135.41" x2="415.4" y2="173.36"/><line class="cls-1" x1="558.06" y1="125.38" x2="533.6" y2="154.23"/><line class="cls-1" x1="540.5" y1="124.75" x2="497.22" y2="188.3"/><line class="cls-1" x1="520.43" y1="188.95" x2="571.24" y2="138.55"/><line class="cls-1" x1="520.43" y1="210.09" x2="595.7" y2="158.62"/><line class="cls-1" x1="551.79" y1="215.55" x2="613.26" y2="187.48"/><line class="cls-1" x1="583.16" y1="218.06" x2="623.3" y2="203.79"/><line class="cls-1" x1="629.57" y1="218.06" x2="533.47" y2="246.39"/><line class="cls-1" x1="542.16" y1="262.44" x2="629.57" y2="255.22"/><line class="cls-1" x1="520.43" y1="278.8" x2="623.3" y2="275.71"/><line class="cls-1" x1="608.87" y1="294.06" x2="526.08" y2="287"/><line class="cls-1" x1="535.13" y1="301.64" x2="571.29" y2="317.32"/><line class="cls-1" x1="472.44" y1="353.07" x2="382.52" y2="329.37"/><line class="cls-1" x1="478.4" y1="329.37" x2="436.38" y2="326.06"/><line class="cls-1" x1="472.44" y1="314.81" x2="436.38" y2="316.69"/><line class="cls-1" x1="452.68" y1="364.99" x2="394.71" y2="342.41"/><line class="cls-1" x1="427.48" y1="378.08" x2="374.88" y2="346.8"/><path class="cls-1" d="M347.3,158c.37-9.41,0-24.47,10.67-22s16,14.43,17.71,22,7.67,11.18,0,16.88-10.81,3.71-16.46,0S346.89,168.61,347.3,158Z"/><path class="cls-1" d="M401.1,251.5c1.89-.91,4.83-2.56,5.45-.18s-1.18,4.66-2.49,5.79-1.41,2.69-3.34,1.76-1.86-1.75-1.72-3.25S399,252.52,401.1,251.5Z"/><path class="cls-1" d="M342.92,107.82c-5.65-3.77-10.67-12.55-10.67-21.33s.93-6.9-3.62-10.66-2.44-6.9,6.24-6.28,12.42,5.26,14.3,10.67c1.57,4.5,2.52,1.17,5,8.42s6.28,17.29,0,19.18A19.14,19.14,0,0,1,342.92,107.82Z"/><path class="cls-1" d="M401.32,158.92c-5.2-5.82-14.08-19.11-16.17-26.64s-2.44-8.16,8.09,3.76,20.56,17.54,18.67,22.88S405.16,163.22,401.32,158.92Z"/><path class="cls-1" d="M395.67,339c-5.53-4.56-11.3.94-3.77-12.23s10.35-15.05,19.76-12.23,4.7,16.48,0,17.18S400.39,342.93,395.67,339Z"/><path class="cls-1" d="M330.49,307c-6.64-1.88-20.76-9.41-10.41-21.64s16.94-10.34,24.47,0,11.29,20.7,0,24.47S330.49,307,330.49,307Z"/><path class="cls-1" d="M301.55,231.15s-15.1,5.64-12.39-6.59,13-13.17,18.22-6.58S307.55,229.87,301.55,231.15Z"/><path class="cls-1" d="M532.36,144.88s7.14-3,9.77,5.21,3.47,9.45,8.67,8.68,4.11,5.38,1.05,7.15-10.31,2.6-12.27-2-.9-8.88-5.48-7.13S528.28,145.34,532.36,144.88Z"/><path class="cls-1" d="M563,303.15c-4.68-5.5-7.35-13.77-1.89-16.38S561,276.4,560.9,271s6.37-13.62,12-1.51-5.43,10.28-2.08,14.56,8,11.16,0,17.93S565.26,305.8,563,303.15Z"/><path class="cls-1" d="M593.52,187.21c-1.65,2.72-10.49-2.08-9.54-7.57s-2.37-9.89.18-13.16,1.65.88,5.22,4.56S599.51,177.31,593.52,187.21Z"/><path class="cls-1" d="M608.79,284.11c3-.66,10-30.09,10-35.73s-1.65-20.4-4.92-22.57.63,10.35,0,15S611,245.53,608.68,255,605.79,284.77,608.79,284.11Z"/><path class="cls-1" d="M554.3,317.32s-5.64-8.15,0-7.53S554.3,317.32,554.3,317.32Z"/><path class="cls-1" d="M590.06,296.62c-3.77,0-4.39-4.39,0-5S590.06,296.62,590.06,296.62Z"/><path class="cls-1" d="M589,241.9c-2.5-3.38-10.08-12.61,0-12.61S591.13,244.79,589,241.9Z"/><path class="cls-1" d="M589.5,265.26c-4.46,0-7.45-1.35-2.51-3.5S589.5,265.26,589.5,265.26Z"/><path class="cls-1" d="M581.3,205s-8.18,3.76-5.67,0,3.91-8.78,8.23-6.9S581.3,205,581.3,205Z"/><path class="cls-1" d="M622.82,218.21s-6.75-8.15,0-6.58S622.82,218.21,622.82,218.21Z"/><path class="cls-1" d="M455.91,272.42s5.4-9.11,6.2-2.23S455.91,272.42,455.91,272.42Z"/><path class="cls-1" d="M618.87,181.32c-3.72-.74-6.3-5.76,0-6.39S622.6,182.06,618.87,181.32Z"/><path class="cls-1" d="M571.28,173.68c-2.55.62-4.34-3.77,0-4.39S571.28,173.68,571.28,173.68Z"/><path class="cls-1" d="M567.72,139.81c-1.5,0-4.49-9.41-1.43-7.53S567.72,139.81,567.72,139.81Z"/><path class="cls-1" d="M464.51,287.13c-.3-1.46,8.29-6.31,7.08-2.93S464.51,287.13,464.51,287.13Z"/><path class="cls-1" d="M534.86,135.17c-3.14,1.5-6.9-5.4-2.51-6S538,133.66,534.86,135.17Z"/><path class="cls-1" d="M265.13,337.65c5.27,2.07,15.68,6,10.67,11.66s-13.8,3.76-15.68,0S256.23,334.14,265.13,337.65Z"/><path class="cls-1" d="M262,389.25c0,1.26-1.75,2.3-3.89,2.3s-3.89-1-3.89-2.3,1.74-2.3,3.89-2.3S262,388,262,389.25Z"/><path class="cls-1" d="M240,389.25a2.88,2.88,0,1,1-2.82-2.3A2.61,2.61,0,0,1,240,389.25Z"/><path class="cls-1" d="M354.2,221.14a2.88,2.88,0,1,1-2.82-2.3A2.6,2.6,0,0,1,354.2,221.14Z"/><path class="cls-1" d="M182.26,384c1.88-2.48,2.18-5.43.66-6.58s-4.27-.07-6.16,2.41-2.18,5.43-.66,6.59S180.38,386.5,182.26,384Z"/><path class="cls-1" d="M201.15,387c0,1.38-2.39,2.51-5.33,2.51s-5.33-1.13-5.33-2.51,2.39-2.51,5.33-2.51S201.15,385.56,201.15,387Z"/><path class="cls-1" d="M250.71,376.91a3.46,3.46,0,1,1-3.45-3.76A3.62,3.62,0,0,1,250.71,376.91Z"/><path class="cls-1" d="M234.4,357.09c0,4-1.41,7.27-3.14,7.27s-3.14-3.25-3.14-7.27,1.41-7.27,3.14-7.27S234.4,353.07,234.4,357.09Z"/><ellipse class="cls-1" cx="215.58" cy="333.39" rx="3.76" ry="4.78"/><path class="cls-1" d="M112.29,248.53a3.79,3.79,0,1,1-3.76-4.18A4,4,0,0,1,112.29,248.53Z"/><path class="cls-1" d="M116.89,277c-2.09.83-5.23,4.28,0,6.79s4-1.15,4-3.4,2.51-3.81,1.88-5.38S116.89,277,116.89,277Z"/><path class="cls-1" d="M126.82,259.61c1.47,1.18,4.71-2.19,3.14-3.76s-3.77-5-5.33-3.14S123.68,257.1,126.82,259.61Z"/><path class="cls-1" d="M321.08,199.87c-.93,1.64,2.92,4.29,4.22,2.49s4.34-4.52,2.24-5.76S323.05,196.37,321.08,199.87Z"/><path class="cls-1" d="M91.38,265.26c-1.88.94-.63,7.21,2.51,6.9S93.26,264.32,91.38,265.26Z"/><path class="cls-1" d="M112.29,294.27a1.93,1.93,0,1,1-1.88-2.35A2.15,2.15,0,0,1,112.29,294.27Z"/><path class="cls-1" d="M315.52,248.48a1.93,1.93,0,1,1-1.88-2.35A2.15,2.15,0,0,1,315.52,248.48Z"/><path class="cls-1" d="M388.91,237.81a1.93,1.93,0,1,1-1.88-2.35A2.16,2.16,0,0,1,388.91,237.81Z"/><path class="cls-1" d="M102.39,306.49c1.28,1.64,1.31,3.75.08,4.71s-3.26.4-4.54-1.24-1.31-3.75-.08-4.71S101.11,304.85,102.39,306.49Z"/><path class="cls-1" d="M81.31,241c-.63-.94-1.83-5.72,1.93-3.53s3.26,3.37,3.26,3.37v2.51s-1,1.42-2,1.26S81.31,241,81.31,241Z"/><path class="cls-1" d="M94.2,222.66a1.9,1.9,0,1,1-1.85-1.47A1.7,1.7,0,0,1,94.2,222.66Z"/><path class="cls-1" d="M323.25,219.71c.5-1,4-4.5,4-.14s-1.33,4.45-1.33,4.45l-2.17,1.25s-1.7-.11-2-1S323.25,219.71,323.25,219.71Z"/><path class="cls-1" d="M300.37,259.4a1.9,1.9,0,1,1,.35-2.34A1.69,1.69,0,0,1,300.37,259.4Z"/><path class="cls-1" d="M397,275.08a1.9,1.9,0,1,1,.35-2.33A1.69,1.69,0,0,1,397,275.08Z"/><path class="cls-1" d="M186.88,180.62c-.63,1.48-3.6,1.64-6.63.35s-5-3.53-4.34-5,3.59-1.64,6.62-.36S187.51,179.13,186.88,180.62Z"/><path class="cls-1" d="M173,144.55a3.64,3.64,0,1,1-3.59-3A3.33,3.33,0,0,1,173,144.55Z"/><path class="cls-1" d="M199.52,161.28c0,.85-1.79,1.55-4,1.55s-4-.7-4-1.55,1.79-1.55,4-1.55S199.52,160.42,199.52,161.28Z"/><path class="cls-1" d="M161.92,121.34c-.52,3.42-2.17,6-3.71,5.78s-2.35-3.19-1.83-6.61,2.17-6,3.7-5.77S162.43,117.93,161.92,121.34Z"/><path class="cls-1" d="M213.7,139.52c0,2.89-1.64,5.23-3.66,5.23s-3.67-2.34-3.67-5.23,1.64-5.23,3.67-5.23S213.7,136.63,213.7,139.52Z"/><path class="cls-1" d="M216.11,112.77c-.53.68-2.18.28-3.69-.9s-2.29-2.68-1.75-3.36,2.18-.28,3.69.89S216.64,112.08,216.11,112.77Z"/><path class="cls-1" d="M183.38,78.75a2.31,2.31,0,1,1-2.3-2.09A2.2,2.2,0,0,1,183.38,78.75Z"/><path class="cls-1" d="M195.56,89.53c-.6,1.25-2.56,1.55-4.37.68s-2.79-2.59-2.19-3.84,2.56-1.55,4.37-.68S196.16,88.29,195.56,89.53Z"/><path class="cls-1" d="M188.83,133.25c4.22-2.05,6.26-6.5,5.42-8.54s.83-8.21.21-10.36-5.22-5.7-9.41-2.46-10.87,7.75-6.27,12.82S186.06,134.59,188.83,133.25Z"/><path class="cls-1" d="M162,95.9c2.61-.42,10.14,2.51,10.56,0s4.6-8.37,0-8-12.92,1.43-13.36,4.48S162,95.9,162,95.9Z"/><path class="cls-1" d="M323.45,179.45c-.91,1.49-2.48,2.18-3.51,1.56s-1.11-2.35-.2-3.83,2.48-2.19,3.51-1.56S324.36,178,323.45,179.45Z"/><path class="cls-1" d="M304,194.69a2.23,2.23,0,1,1-3.92-1.92,2.24,2.24,0,1,1,3.92,1.92Z"/><path class="cls-1" d="M290.72,246.74c-1.52,1.29-3.5,1.45-4.43.36s-.43-3,1.09-4.3,3.51-1.45,4.43-.36S292.24,245.45,290.72,246.74Z"/><path class="cls-1" d="M347.21,208.05c-1.5,1.64-3.34,2.4-4.11,1.69s-.18-2.6,1.31-4.24,3.33-2.4,4.1-1.7S348.7,206.41,347.21,208.05Z"/><path class="cls-1" d="M446.51,286c-1,1.12-2.51,1.44-3.32.71s-.62-2.24.41-3.37,2.51-1.45,3.31-.71S447.54,284.9,446.51,286Z"/><path class="cls-1" d="M379,222.83c-1.35,1.49-3.3,1.92-4.35,1s-.79-2.94.57-4.43,3.31-1.92,4.35-1S380.36,221.34,379,222.83Z"/><path class="cls-1" d="M369.48,200a2.95,2.95,0,1,1-2.44-3.76A3.18,3.18,0,0,1,369.48,200Z"/><path class="cls-1" d="M406.18,234.52a3.32,3.32,0,1,1-3.38-2.68A3.07,3.07,0,0,1,406.18,234.52Z"/><path class="cls-1" d="M419.35,276.25c-1.4,1.52-3.52,1.87-4.73.76s-1.07-3.24.33-4.77,3.51-1.88,4.73-.77S420.74,274.71,419.35,276.25Z"/><path class="cls-1" d="M483.78,268.61c-1,1.1-2.47,1.38-3.29.63s-.68-2.24.32-3.34,2.48-1.38,3.3-.63S484.78,267.51,483.78,268.61Z"/><path class="cls-1" d="M433.62,297.9a1.79,1.79,0,1,1-.2-2.43A1.73,1.73,0,0,1,433.62,297.9Z"/><path class="cls-1" d="M392.54,217.33c-1.64-.29-2.8-1.48-2.6-2.67s1.7-1.92,3.34-1.64,2.8,1.48,2.59,2.67S394.17,217.61,392.54,217.33Z"/><path class="cls-1" d="M85.82,179.11c-3,0-3.93-5.35.51-7.12s7.15-.24,7.92,1,1,2.49,0,3.33-2.16.71-3.55,1.12S87.78,179.07,85.82,179.11Z"/></g></g></svg>