<svg xmlns="http://www.w3.org/2000/svg" viewBox="0 0 157.9 42.96"><defs><style>.cls-1{fill:#f1ecce;}</style></defs><title>frogfishes_name</title><g id="圖層_2" data-name="圖層 2"><g id="frogfishes_name"><path class="cls-1" d="M141.55,3.51c-.86,3-1.92,6-2.94,8.9-.64,1.82,2.26,2.61,2.89.79,1-2.95,2.08-5.9,2.95-8.9a1.5,1.5,0,0,0-2.9-.79Z"/><path class="cls-1" d="M142.71,10.62q1-.1,1.92-.27c.29,0,1.14-.33,1.45-.18s.09.9-.06,1.34a25.49,25.49,0,0,1-2,4.23c-.93,1.69,1.66,3.21,2.59,1.52,1.06-1.91,2.59-4.34,2.65-6.58a3.41,3.41,0,0,0-2.09-3.33c-1.44-.48-3,.12-4.47.27-1.91.19-1.93,3.2,0,3Z"/><path class="cls-1" d="M140.66,17.07a63,63,0,0,1-1.38,8.86c-.44,1.88,2.46,2.68,2.9.8a68.51,68.51,0,0,0,1.48-9.66c.16-1.93-2.84-1.92-3,0Z"/><path class="cls-1" d="M143.23,19.14c1.55-.87,3.91-2.21,5.77-1.63,2.26.71,1.4,4.23.13,5.46s.74,3.47,2.13,2.12c2.46-2.4,3.1-7.3.21-9.6s-7-.49-9.76,1.06c-1.68.94-.17,3.53,1.52,2.59Z"/><path class="cls-1" d="M143,23.85l6.27-2c1.84-.57,1.05-3.47-.8-2.89l-6.27,2c-1.84.57-1.05,3.47.8,2.89Z"/><path class="cls-1" d="M145.48,18.38a15,15,0,0,1-.74,5.5c-.75,1.75,1.83,3.28,2.59,1.51a18.54,18.54,0,0,0,1.15-7c.05-1.93-2.95-1.93-3,0Z"/><path class="cls-1" d="M141.91,28.2l8.68-2.73c1.84-.57,1.06-3.47-.79-2.89l-8.69,2.73c-1.84.58-1.05,3.47.8,2.89Z"/><path class="cls-1" d="M139.88,27.11a73,73,0,0,1-5.68,12.5l2.6,1.51c.27-.53.58-1,.85-1.55.89-1.72-1.7-3.23-2.59-1.52-.27.53-.58,1-.86,1.56a1.5,1.5,0,0,0,2.6,1.51,77.33,77.33,0,0,0,6-13.21c.68-1.81-2.22-2.59-2.89-.8Z"/><path class="cls-1" d="M143.12,28.12a23.79,23.79,0,0,1,.46,10.28l2.95.4.09-.85c.27-1.89-2.62-2.7-2.9-.8-.08.56-.14,1.09-.19,1.65-.14,1.67,2.67,2.07,2.95.4A27.49,27.49,0,0,0,146,27.33a1.5,1.5,0,0,0-2.89.79Z"/><path class="cls-1" d="M148.16,26.21a22.59,22.59,0,0,1,1.78,9.32c-.07,1.93,2.93,1.92,3,0a24.74,24.74,0,0,0-1.89-10.12c-.7-1.78-3.6-1-2.89.8Z"/><path class="cls-1" d="M152.73,26.51c1.19,1.44,1.47,3.93,1.75,5.71.25,1.53.71,3.7.18,5.22-.64,1.83,2.25,2.61,2.89.8.72-2.06.16-4.74-.17-6.82-.4-2.42-.94-5.1-2.53-7-1.23-1.49-3.34.65-2.12,2.13Z"/><path class="cls-1" d="M1.83,22.08a188.17,188.17,0,0,0,21.45-8.29L21.77,11.2l-1.12.59c-1.75.74-1,3.64.8,2.89a12.9,12.9,0,0,0,1.83-.89,1.5,1.5,0,0,0-1.51-2.59C15.13,14.43,8,16.8,1,19.19c-1.81.62-1,3.52.8,2.89Z"/><path class="cls-1" d="M12.57,9.87C10.89,19.05,8.9,28.24,3.1,35.79c-1.18,1.53,1.43,3,2.59,1.52,5.94-7.74,8.05-17.22,9.77-26.64.35-1.89-2.54-2.7-2.89-.8Z"/><path class="cls-1" d="M12.58,19.11c4.65,5.06,10.27,10.35,13.09,16.72.78,1.76,3.37.23,2.59-1.52C25.35,27.73,19.5,22.21,14.71,17c-1.31-1.42-3.43.7-2.13,2.13Z"/><path class="cls-1" d="M37.28,20.22l6.41-3.84a1.5,1.5,0,0,0-1.52-2.59l-6.4,3.84a1.5,1.5,0,0,0,1.51,2.59Z"/><path class="cls-1" d="M39.3,27.25l5.55-4.7c1.47-1.25-.66-3.36-2.13-2.12l-5.55,4.7c-1.47,1.24.66,3.36,2.13,2.12Z"/><path class="cls-1" d="M38.44,19.36l.86,13.23c.12,1.92,3.12,1.93,3,0l-.86-13.23c-.12-1.92-3.12-1.93-3,0Z"/><path class="cls-1" d="M39.85,35.59,45,31.75a1.55,1.55,0,0,0,.54-2.05,1.53,1.53,0,0,0-2.06-.54L38.33,33a1.56,1.56,0,0,0-.54,2.06,1.51,1.51,0,0,0,2.06.53Z"/><path class="cls-1" d="M46.44,10.4a6.14,6.14,0,0,1,2.3,3.38,1.51,1.51,0,0,0,2.9-.8A9.45,9.45,0,0,0,48,7.81a1.5,1.5,0,0,0-1.52,2.59Z"/><path class="cls-1" d="M47.6,18.67a40.58,40.58,0,0,0,7.19-3.14c1.73-.87.21-3.45-1.51-2.59a36.88,36.88,0,0,1-6.48,2.83,1.51,1.51,0,0,0,.8,2.9Z"/><path class="cls-1" d="M50.82,16a49.28,49.28,0,0,1-1.61,9.79c-.36,1.56-1.12,7.3-2.34,8.11-1.61,1-.1,3.65,1.52,2.59,2.19-1.45,2.73-5.93,3.31-8.22A57.54,57.54,0,0,0,53.82,16c0-1.93-3-1.93-3,0Z"/><path class="cls-1" d="M46,23.42a41.52,41.52,0,0,1,8,8c1.15,1.52,3.76,0,2.59-1.52a46.72,46.72,0,0,0-9.08-9.07c-1.54-1.17-3,1.44-1.51,2.59Z"/><path class="cls-1" d="M58.7,14.82,66,12.26c1.81-.63,1-3.53-.8-2.89L57.9,11.93c-1.81.64-1,3.54.8,2.89Z"/><path class="cls-1" d="M59.56,23.16l7.25-2.34c1.83-.59,1-3.49-.8-2.9l-7.25,2.34c-1.83.59-1,3.49.8,2.9Z"/><path class="cls-1" d="M60.27,14.41c.88,5.65,2,11.44.85,17.13-.37,1.89,2.52,2.7,2.9.8,1.23-6.25.11-12.52-.86-18.73-.29-1.9-3.18-1.09-2.89.8Z"/><path class="cls-1" d="M60,35.1l9.82-2.56a1.51,1.51,0,0,0-.8-2.9L59.18,32.2a1.51,1.51,0,0,0,.8,2.9Z"/><path class="cls-1" d="M112.48,31.86a58.58,58.58,0,0,0,8.21-1.68,1.5,1.5,0,0,0-.8-2.89,54.83,54.83,0,0,1-7.41,1.57c-1.89.21-1.91,3.21,0,3Z"/><path class="cls-1" d="M122.44,26.58A14,14,0,0,1,126.29,33a1.5,1.5,0,0,0,2.89-.79,17,17,0,0,0-4.62-7.79c-1.4-1.33-3.52.79-2.12,2.12Z"/><path class="cls-1" d="M113.24,9.56c-.55,1.94-.77,4-1.25,5.91a1.52,1.52,0,0,0,2.21,1.7c1.78-1,3.86-1.29,5.77-2l-1.9-1.44a15.8,15.8,0,0,1-.34,4.85c-.56,2-1.55,2.24-3.4,1.46s-2.56,2.16-.8,2.89c6.38,2.67,7.72-4.49,7.54-9.2a1.51,1.51,0,0,0-1.9-1.45c-2.16.82-4.46,1.14-6.49,2.32l2.21,1.69c.48-2,.69-4,1.24-5.91a1.5,1.5,0,0,0-2.89-.8Z"/><path class="cls-1" d="M82.71,9.15a8.41,8.41,0,0,1,4.75-.41,2.43,2.43,0,0,1,.6.25.08.08,0,0,1,.06.09c0-.07,0,.11-.05.14a3.65,3.65,0,0,1-.18.41,6.33,6.33,0,0,1-1.15,1.48c-1.32,1.4.8,3.53,2.12,2.12,1.79-1.9,3.6-5.21.55-6.93-2.15-1.21-5.27-.82-7.5,0-1.81.63-1,3.53.8,2.9Z"/><path class="cls-1" d="M83.05,15.24a15.62,15.62,0,0,1,4.75-1.57c1.92-.14,1.93-3.14,0-3a17.54,17.54,0,0,0-5.55,1.67,1.57,1.57,0,0,0-1,1.85,1.52,1.52,0,0,0,1.85,1.05Z"/><path class="cls-1" d="M81.21,8.1a31.62,31.62,0,0,1-3.58,13.54c-.94,1.69,1.65,3.21,2.59,1.52a35,35,0,0,0,4-15.06c.1-1.93-2.9-1.93-3,0Z"/><path class="cls-1" d="M82.1,17.18a22.14,22.14,0,0,1,0,4.95c-.33,1.89,2.57,2.7,2.89.8a25.14,25.14,0,0,0,.14-5.75c-.1-1.92-3.1-1.94-3,0Z"/><path class="cls-1" d="M84.52,19.49a39.4,39.4,0,0,1,4.81-.75l-1.5-1.5c0,1.63-1.59,3.35-3.26,2.45s-3.22,1.68-1.51,2.59c3.63,1.95,7.85-1.06,7.77-5a1.5,1.5,0,0,0-1.5-1.5,46.35,46.35,0,0,0-5.61.86c-1.89.36-1.09,3.26.8,2.89Z"/><path class="cls-1" d="M92.72,3.63A26.93,26.93,0,0,1,97.63,3c1.92-.1,1.93-3.1,0-3a31.31,31.31,0,0,0-5.71.73c-1.87.47-1.08,3.36.8,2.9Z"/><path class="cls-1" d="M92.55,7.45l7.17-1.54c1.88-.41,1.09-3.3-.8-2.89L91.75,4.56c-1.89.41-1.09,3.3.8,2.89Z"/><path class="cls-1" d="M92.21,6.69a8.89,8.89,0,0,0,1.56,4.5,1.54,1.54,0,0,0,2,.53,1.51,1.51,0,0,0,.54-2.05,5.89,5.89,0,0,1-1.15-3,1.53,1.53,0,0,0-1.5-1.5,1.51,1.51,0,0,0-1.5,1.5Z"/><path class="cls-1" d="M96.34,5.31a5.28,5.28,0,0,1-1.19,4c-1.25,1.46.86,3.59,2.12,2.13a8.4,8.4,0,0,0,2.07-6.12c-.08-1.92-3.08-1.93-3,0Z"/><path class="cls-1" d="M93.67,13.88l7.17-1.54c1.89-.4,1.09-3.3-.8-2.89L92.87,11c-1.89.41-1.09,3.3.8,2.89Z"/><path class="cls-1" d="M94.66,18l6.77-1.9a1.5,1.5,0,0,0-.8-2.89l-6.77,1.9a1.5,1.5,0,0,0,.8,2.89Z"/><path class="cls-1" d="M94.86,13l.91,9.5c.18,1.9,3.18,1.92,3,0L97.86,13c-.18-1.9-3.19-1.92-3,0Z"/><path class="cls-1" d="M86.67,23.8l.28,5c.11,1.92,3.11,1.93,3,0l-.28-5c-.11-1.92-3.11-1.93-3,0Z"/><path class="cls-1" d="M88.45,25.28a13.8,13.8,0,0,1,4.84.1l.55.18c.07,0,.59.34.34.18.22.14.17.12.06,0,.15.22,0,.07,0,0s0,.05,0,.05-.06.1,0,0A1.37,1.37,0,0,1,94,26a3.42,3.42,0,0,1-1.07.7,11.51,11.51,0,0,1-4.22.93c-1.91.13-1.93,3.13,0,3,2.73-.17,8.4-1.05,8.52-4.78.13-4.09-6.25-3.82-8.81-3.55a1.55,1.55,0,0,0-1.5,1.5,1.5,1.5,0,0,0,1.5,1.5Z"/><path class="cls-1" d="M90.77,28.92l.32,5.71c.11,1.92,3.11,1.93,3,0l-.32-5.71c-.1-1.92-3.1-1.93-3,0Z"/><path class="cls-1" d="M94,33A24.64,24.64,0,0,0,99.18,31c1.7-.93.19-3.53-1.51-2.59a21.51,21.51,0,0,1-4.51,1.64A1.51,1.51,0,0,0,94,33Z"/><path class="cls-1" d="M85.57,31.5a43.09,43.09,0,0,1-1.3,9.6c-.55,1.86,2.35,2.65,2.89.8a46.68,46.68,0,0,0,1.41-10.4c.11-1.93-2.89-1.93-3,0Z"/><path class="cls-1" d="M87.88,36.24c5.33.53,12.69.62,17.24,3.77,1.59,1.1,3.09-1.5,1.52-2.59-5-3.47-12.87-3.6-18.76-4.18-1.92-.19-1.9,2.81,0,3Z"/></g></g></svg>