<svg xmlns="http://www.w3.org/2000/svg" viewBox="0 0 106.5 50.5"><defs><style>.cls-1{fill:#f1ecce;stroke:#f1ecce;stroke-miterlimit:10;stroke-width:0.5px;opacity:0.85;}</style></defs><title>height</title><g id="圖層_2" data-name="圖層 2"><g id="height"><path class="cls-1" d="M33.5,27.74c3.51-.4,7-.91,10.07-1.43V24.77H33.47C33.47,25.8,33.5,26.8,33.5,27.74Z"/><rect class="cls-1" x="33.44" y="20.75" width="10.1" height="1.91"/><path class="cls-1" d="M43.48,17.6c-.06-1.06-.3-1.06-5.08-1.06-4.63,0-4.93,0-4.93,1.12,0,.31,0,.64,0,1H43.51C43.51,18.27,43.48,17.91,43.48,17.6Z"/><path class="cls-1" d="M.25.25v50h106V.25Zm51.1,21.83a39.14,39.14,0,0,1-5.08,5.41V30c0,.87,0,2.54,0,3.62s0,4.51-4.69,4.51c-2.91,0-3.57-.72-3.57-1.72a1.3,1.3,0,0,1,1.33-1.36.83.83,0,0,1,.27,0,13,13,0,0,0,2,.21c1.09,0,1.81-.33,1.84-1.58,0-.78.06-2.26.06-4-7.5,5.75-15.42,8-16.06,8a1.52,1.52,0,0,1-1.54-1.51,1.42,1.42,0,0,1,1.21-1.34,41.2,41.2,0,0,0,13.1-5.71A119.25,119.25,0,0,1,27.54,31a1.3,1.3,0,0,1-1.39-1.33,1.34,1.34,0,0,1,1.3-1.36c1.06-.06,2.15-.15,3.27-.24,0-2.39-.06-5.2-.06-7.71,0-1.15,0-2.21,0-3.18.06-2.72,2.3-2.78,5.32-2.78a22.27,22.27,0,0,0,.61-2.57c.09-.64.75-.94,1.45-.94s1.75.42,1.75,1.3a9.52,9.52,0,0,1-.69,2.21c1.45,0,2.9,0,4.08.06,1.91.06,3.06,1.15,3.09,2.75v6.69a31.2,31.2,0,0,0,2.63-3.54,1.18,1.18,0,0,1,1-.64,1.79,1.79,0,0,1,1.66,1.63A1.22,1.22,0,0,1,51.35,22.08Zm28.91,16A15.62,15.62,0,0,1,67,27H63.92v6.9c1.36-.43,2.63-.88,3.63-1.3a1.94,1.94,0,0,1,.67-.15,1.35,1.35,0,0,1,1.42,1.26A1.51,1.51,0,0,1,68.55,35a49.63,49.63,0,0,1-10.89,3.2A1.48,1.48,0,0,1,56,36.75a1.45,1.45,0,0,1,1.36-1.42c1.18-.18,2.42-.39,3.57-.67V27H56.81a1.2,1.2,0,0,1-1.3-1.21,1.28,1.28,0,0,1,1.3-1.3H61c0-1,0-2,0-3,0-1.7,0-3.42.06-4.9.06-2.58,1.12-3.91,3.9-3.94,2.21,0,4.75-.06,7.23-.06,1.6,0,3.21,0,4.63.06a1.32,1.32,0,0,1,1.42,1.27,1.3,1.3,0,0,1-1.39,1.3h-.06c-1.64,0-3.45-.06-5.24-.06-2.17,0-4.32,0-6.14.06-1,0-1.39.61-1.42,1.49v.09H75.81a1.1,1.1,0,1,1,0,2.2h-12V20.6h12A1.06,1.06,0,0,1,77,21.69a1.07,1.07,0,0,1-1.15,1.12h-12v1.66H80.44a1.19,1.19,0,0,1,1.24,1.24A1.2,1.2,0,0,1,80.44,27H69.94a11.58,11.58,0,0,0,1.63,3.15,24.2,24.2,0,0,0,4.66-2.45,1.29,1.29,0,0,1,.79-.25A1.58,1.58,0,0,1,78.53,29c0,.54,0,1.36-5.17,3.05a14.81,14.81,0,0,0,7.29,3,1.39,1.39,0,0,1,1.21,1.45A1.58,1.58,0,0,1,80.26,38.08Z"/></g></g></svg>