<svg xmlns="http://www.w3.org/2000/svg" viewBox="0 0 114.1 42.97"><defs><style>.cls-1{fill:#f1ecce;}</style></defs><title>mantabirostris_name</title><g id="圖層_2" data-name="圖層 2"><g id="mantabirostris_name"><path class="cls-1" d="M2.25,10.29l13.5-7.5c1.69-.94.18-3.53-1.51-2.59L.74,7.7c-1.69.94-.18,3.53,1.51,2.59Z"/><path class="cls-1" d="M3.49,10.5l1,17.5c.11,1.92,3.11,1.93,3,0l-1-17.5c-.11-1.92-3.11-1.93-3,0Z"/><path class="cls-1" d="M6.43,15.68c2.92-2.78,7.24-3.93,10.67-1.28,3.13,2.41,2.72,6.06-.36,8.3-1.55,1.12,0,3.73,1.51,2.59,4.41-3.19,5.64-8.76,1.35-12.7C15,8.39,8.54,9.54,4.31,13.56,2.91,14.89,5,17,6.43,15.68Z"/><path class="cls-1" d="M6.75,23.79l10.5-4.5c1.77-.76.24-3.34-1.51-2.59L5.24,21.2C3.47,22,5,24.55,6.75,23.79Z"/><path class="cls-1" d="M9.49,15V25.5a1.5,1.5,0,0,0,3,0V15a1.5,1.5,0,0,0-3,0Z"/><path class="cls-1" d="M6.39,29.44a77.14,77.14,0,0,0,11.86-4.15c1.74-.84.22-3.42-1.51-2.59A74.06,74.06,0,0,1,5.6,26.55c-1.85.55-1.07,3.44.79,2.89Z"/><path class="cls-1" d="M9.05,26.1C8,31.46,5.47,36.09,2.7,40.74a1.5,1.5,0,0,0,2.59,1.51c2.9-4.85,5.53-9.77,6.65-15.35.38-1.89-2.51-2.7-2.89-.8Z"/><path class="cls-1" d="M9,26.5c.36,5.34,2.14,11,6.93,14,5.21,3.24,11.34,1.56,16.33-1.19,1.69-.93.18-3.52-1.51-2.59-4,2.22-9.06,3.87-13.3,1.19C13.6,35.47,12.28,30.75,12,26.5c-.12-1.92-3.13-1.93-3,0Z"/><path class="cls-1" d="M19,25.5c-.24,2.49-.47,5-.5,7.5a1.51,1.51,0,0,0,2.26,1.29c2.15-1.54,4.6-2.65,6.3-4.73l-2.5-.66a15.47,15.47,0,0,1,.5,6.2c-.31,1.89,2.58,2.7,2.89.8a19.38,19.38,0,0,0-.5-7.8,1.51,1.51,0,0,0-2.51-.66c-1.54,1.88-3.75,2.87-5.69,4.26L21.49,33c0-2.51.26-5,.5-7.5.2-1.92-2.81-1.91-3,0Z"/><path class="cls-1" d="M37.44,20.42A62.3,62.3,0,0,1,37.8,29a1.5,1.5,0,0,0,3,0v-.24a1.5,1.5,0,0,0-3,0V29h3a69.32,69.32,0,0,0-.46-9.34c-.29-1.9-3.18-1.09-2.9.8Z"/><path class="cls-1" d="M39.71,21.92c1.84-.68,6.41-1.9,6,1.53-.33,2.74-3.07,4.17-5.59,4-1.93-.14-1.92,2.86,0,3,4.21.32,8.45-2.77,8.6-7.19a4.81,4.81,0,0,0-2.37-4.44c-2.27-1.28-5.15-.62-7.44.22-1.79.67-1,3.57.8,2.9Z"/><path class="cls-1" d="M41,14.83l.4,20.55a1.52,1.52,0,0,0,1.9,1.45C47,36,48.76,33.5,50,30.14H47.14a19.72,19.72,0,0,1,1.15,7.66,1.5,1.5,0,0,0,3,0A21.5,21.5,0,0,0,50,29.34a1.51,1.51,0,0,0-2.89,0c-.89,2.35-1.94,3.95-4.6,4.6l1.9,1.44L44,14.83c0-1.93-3-1.94-3,0Z"/><path class="cls-1" d="M54.62,7l8.46-1.62C65,5,64.18,2.14,62.29,2.5L53.83,4.11c-1.9.36-1.1,3.26.79,2.9Z"/><path class="cls-1" d="M54.39,11.2c.36,1.86.56,3.76.75,5.64s3.19,1.93,3,0c-.22-2.15-.45-4.32-.86-6.44-.36-1.89-3.25-1.09-2.89.8Z"/><path class="cls-1" d="M57,12.9a16.38,16.38,0,0,1,3.32-1,6.16,6.16,0,0,1,1.9,0c.07,0,.59.2.27.06a1.17,1.17,0,0,1,.31.17c.32.22-.23-.21.05,0s.2.18,0,0c0,0,.35.48.08.09a.74.74,0,0,1,.08.29c0-.59-.07.53,0,.24s-.27.7-.1.33a3.85,3.85,0,0,1-.41.71c-.07.09-.06.07,0,0-.05.07-.12.14-.18.21l-.3.3a2.18,2.18,0,0,1-.6.45,6.55,6.55,0,0,1-4.39.75,1.5,1.5,0,0,0-1.5,1.5,1.53,1.53,0,0,0,1.5,1.5c3.11.39,6.77-.72,8.34-3.65a3.87,3.87,0,0,0-2.75-5.92c-2.46-.41-4.93.5-7.16,1.45A1.5,1.5,0,1,0,57,12.9Z"/><path class="cls-1" d="M51.52,24.48l1.2,15.83c.15,1.91,3.15,1.93,3,0l-1.2-15.83c-.15-1.92-3.15-1.93-3,0Z"/><path class="cls-1" d="M54.12,26.34c3.29-1.52,9.21-4.51,12.5-1.53,3.57,3.22.71,9.54-.14,13.4-.42,1.88,2.48,2.68,2.89.8,1.18-5.35,4.13-12.58-1.13-16.75-4.53-3.6-11.13-.59-15.64,1.48-1.75.81-.23,3.4,1.52,2.6Z"/><path class="cls-1" d="M57.23,33.6l11.09-2.41c1.89-.42,1.09-3.31-.79-2.9L56.44,30.71c-1.89.41-1.09,3.3.79,2.89Z"/><path class="cls-1" d="M58.77,24.5V35.8a1.5,1.5,0,0,0,3,0V24.5a1.5,1.5,0,0,0-3,0Z"/><path class="cls-1" d="M54.19,41.31l13.74-1.2c1.9-.17,1.92-3.17,0-3l-13.74,1.2c-1.9.17-1.92,3.17,0,3Z"/><path class="cls-1" d="M84.47,4a94.7,94.7,0,0,1-4.07,9.37c-.82,1.73,1.77,3.26,2.59,1.51A103.32,103.32,0,0,0,87.37,4.75C88,2.92,85.1,2.13,84.47,4Z"/><path class="cls-1" d="M85,10.29c1.05-.47,3.81-1.44,4.19.37S87.35,13.94,86,14.59c-1.73.85-.22,3.44,1.51,2.59,2.75-1.34,5.56-4.39,4.44-7.7-1.26-3.71-5.7-3-8.49-1.78-1.75.8-.23,3.38,1.52,2.59Z"/><path class="cls-1" d="M80.62,17.46l-.43,11.41c-.07,1.93,2.93,1.93,3,0l.43-11.41c.07-1.93-2.93-1.93-3,0Z"/><path class="cls-1" d="M82.87,18.75c3-1.41,6.93-2.56,7.12,1.85a14,14,0,0,1-.5,4.13,15,15,0,0,1-.56,1.76s-.16.21-.15.34c0,.42-.41,0,.55-.25-1.88.45-1.08,3.34.79,2.89,1.35-.32,1.82-2.36,2.13-3.48a16.38,16.38,0,0,0,.68-6.18,5.77,5.77,0,0,0-3-4.92c-2.74-1.29-6,.09-8.54,1.27-1.75.82-.22,3.41,1.51,2.59Z"/><path class="cls-1" d="M83.17,24.81a24,24,0,0,0,6.11-1.1,1.5,1.5,0,0,0-.8-2.89,20.92,20.92,0,0,1-5.31,1c-1.93,0-1.93,3,0,3Z"/><path class="cls-1" d="M84.42,18.72a28.92,28.92,0,0,1-.37,8.91c-.48,1.87,2.41,2.67,2.89.8a31,31,0,0,0,.48-9.71c-.12-1.91-3.12-1.93-3,0Z"/><path class="cls-1" d="M82.52,30.32a51.29,51.29,0,0,1,7.21-.79c1.92,0,1.93-3,0-3a56.75,56.75,0,0,0-8,.9c-1.9.29-1.1,3.18.8,2.89Z"/><path class="cls-1" d="M79.82,30.59c-1.22,3.25-2.51,6.49-3.8,9.72-.72,1.8,2.18,2.57,2.89.8,1.29-3.23,2.58-6.47,3.81-9.73.68-1.8-2.22-2.59-2.9-.79Z"/><path class="cls-1" d="M80.82,32.59a15.62,15.62,0,0,1,1.91,5.58c.08,1.93,3.08,1.94,3,0-.1-2.42-1.27-5-2.32-7.1-.84-1.73-3.43-.21-2.59,1.52Z"/><path class="cls-1" d="M85.32,31.81a66.92,66.92,0,0,1,2.11,6.76,1.5,1.5,0,0,0,2.9-.79A66.37,66.37,0,0,0,88.21,31c-.69-1.78-3.59-1-2.89.8Z"/><path class="cls-1" d="M89.7,32.17a10.7,10.7,0,0,1,1.91,5.16c.07,1.92,3.07,1.93,3,0a13.35,13.35,0,0,0-2.32-6.68c-1.11-1.56-3.71-.06-2.59,1.52Z"/><path class="cls-1" d="M97.27,16.63c3.82-.52,7.68-.77,11.52-1,1.91-.12,1.93-3.13,0-3-4.11.28-8.23.58-12.31,1.14-1.91.26-1.1,3.15.79,2.89Z"/><path class="cls-1" d="M101.07,15.73c0,5.06.5,10.1.54,15.16a1.5,1.5,0,0,0,3,0c0-5.06-.51-10.1-.54-15.16a1.5,1.5,0,0,0-3,0Z"/><path class="cls-1" d="M95.81,33.47c5.69.47,11.57-.34,17.2-1.13,1.91-.27,1.1-3.16-.79-2.89-5.37.75-11,1.47-16.41,1-1.93-.15-1.92,2.85,0,3Z"/></g></g></svg>