<svg xmlns="http://www.w3.org/2000/svg" viewBox="0 0 538.76 476"><defs><style>.cls-1{fill:none;stroke:#fff;stroke-miterlimit:10;}</style></defs><title>mantabirostris-line</title><g id="圖層_2" data-name="圖層 2"><g id="mantabirostris-line"><path class="cls-1" d="M537.05,92.43c1.59,1.07,1.62,4,.07,8.65-3.09,9.23-26.21,36.35-31.59,42,0,0,.29,11,3.64,14.37s5.94,13.1-3.94,20.17c-7.29,5.21-14.09,14.34-18.11,23.75,0,0-21,.59-21.61,3.85a304.12,304.12,0,0,0-4.5,43c-.08,5.63,20.72,44.37,20.72,44.37,1.66,16.76,2.77,34.39.87,44.74-4,21.67-10.34,49.06-27,75.1s-41.8,47.69-47.6,48.26c0,0,17.4-18,5.85-31.35S357,411.14,341.07,411.06s-72.95-4.54-92.41-8.64-36.15-7.35-41.53-9.83-22.21-3.11-31.42-2.87-31.77-2.78-31.77-2.78L11,475.37s-5.29,1.2,1.75-3.73L143,377.89s-3.23-17.43.18-25.25-5.33-41.42-7.45-49.09-17.18-65.78-15.85-82.76-9-67.28-11.51-76.71S94.14,96.16,78,82.05,47.88,57.38,39.35,54.13,9,41.36,1.75,28.94c0,0,36.48,28.4,90.46,26.14s108.43-2.42,142.46,5.41c0,0,6.49,10.52,13.17,10.68,18,.43,60.34-4.07,78-8,5.28-1.18-1.15-10.86-1.15-10.86,9.83-2.82,17.1-5.69,19.76-7.88,9.38-7.69,17.19-20.59,25.37-17.26s13.62,11,24.16,1.92,24.25-27,34.54-28.24A44.15,44.15,0,0,1,433.88.5h0c-1.53,0-2.76,5.6-10,13.94-9.46,10.87-20.52,21.89-26.74,32.2-5,8.32-8.67,26.55-3.82,37.66,6.77,15.53,5.77,4.35,29.74,29.75,17,18.06,21.65,27.3,42.4,28.91,12.31,1,16.94.33,25.59-3.84,5.59-2.69,14.88-12.23,17-14.91,5.54-6.95,12.52-16.3,17.38-21.38,4-4.17,11.65-10.4,11.65-10.4"/><path class="cls-1" d="M423,114.05c-24-25.4-23-14.22-29.74-29.75-4.85-11.11-1.21-29.34,3.82-37.66,6.22-10.31,17.28-21.33,26.74-32.2,7.28-8.34,8.51-14,10-13.94,6.2.06,7.92,2.43,2.62,8.55-6.61,7.61-31.27,28.79-36.72,43.93s3.51,32.57,3.51,32.57,40.6,39.14,45.86,45.17c0,0,12.37,5.71,21.05,6.71s16.31-3,23.23-6.77,24.75-29.72,34.17-35.57c4.71-2.92,7.87-3.73,9.45-2.66,0,0-7.66,6.23-11.65,10.4-4.86,5.08-11.84,14.43-17.38,21.38-2.13,2.68-11.42,12.22-17,14.91-8.65,4.17-13.28,4.8-25.59,3.84C444.67,141.35,440.06,132.11,423,114.05Z"/><path class="cls-1" d="M234.67,60.49a73.12,73.12,0,0,0,8.68,1.43c24.57,2.69,59.35-3.31,81.34-9.61,9.83-2.82,14.53,26.12,30.55,37.85,2.94,2.16,37.87,19.14,36.49,29.84-2.68,20.84-41.5-14.89-39.71,2.55s2.27,19-9.16,31.45c-10.77,11.77-23.52,20.62-43.65,27.71-18.77,6.6-21.15-15.59-1.88-27.66,14.17-8.86,14.23-19.94,11.72-29.38s-2.37-34.06-45.3-42.17C208.62,72.09,234.67,60.49,234.67,60.49Z"/><path class="cls-1" d="M418.07,181.31c21.42,2.38-18.29-29.08.68-37.25,9.39-4,23,20.85,29.69,29.79,14.43,19.29,42.7,18.14,38.68,27.55a49.08,49.08,0,0,0-3.13,10c-2.37,12.4-6.33,29.23-6.48,40-.07,5.63,2.4,22.9,4.22,41.21,0,0-10.64,27.21-22.19-24.1-9.84-43.71-32.53-43.87-41-45.66-10.66-2.26-22.93-.39-28.89,13.42-8.14,18.84-32.72,20.15-28,.26,3.34-13.95,12.54-32.11,24.83-43.26S400.86,179.39,418.07,181.31Z"/><path class="cls-1" d="M162.6,373c14.55-10.12,76.84-68.63,85.25-78.58Z"/></g></g></svg>