<svg xmlns="http://www.w3.org/2000/svg" viewBox="0 0 357.89 316.85"><defs><style>.cls-1{fill:#020a13;}.cls-2{fill:#f2f2f2;}.cls-3{fill:#4e4d4d;}</style></defs><title>mantabirostris</title><g id="圖層_2" data-name="圖層 2"><g id="mantabirostris"><path class="cls-1" d="M357.08,61.32c1.06.72,1.08,2.69.05,5.77-2.06,6.16-17.48,24.25-21.07,28,0,0,.19,7.37,2.42,9.58s4,8.75-2.63,13.46c-4.86,3.48-9.39,9.57-12.08,15.84,0,0-14,.4-14.41,2.57a204,204,0,0,0-3,28.68c-.05,3.76,13.83,29.6,13.83,29.6,1.11,11.18,1.85,22.94.58,29.85-2.65,14.45-6.9,32.72-18,50.09S274.84,306.61,271,307c0,0,11.6-12,3.9-20.92S237,273.92,226.35,273.87s-48.66-3-61.64-5.77-24.12-4.9-27.71-6.55-14.81-2.08-21-1.92-21.2-1.85-21.2-1.85l-88.71,59s-3.53.8,1.17-2.49l86.91-62.54s-2.15-11.63.13-16.84-3.56-27.63-5-32.75S77.91,158.27,78.8,146.94s-6-44.87-7.68-51.17-9.49-32-20.29-41.37S30.77,37.94,25.09,35.77,4.85,27.26,0,19c0,0,24.34,19,60.34,17.44s72.34-1.61,95,3.61c0,0,4.32,7,8.78,7.12,12,.29,40.25-2.71,52-5.34,3.52-.78-.77-7.24-.77-7.24,6.56-1.88,11.41-3.8,13.19-5.26,6.25-5.13,11.46-13.73,16.91-11.51s9.09,7.33,16.12,1.28,16.18-18,23-18.84A28.89,28.89,0,0,1,288.26,0h0c-1,0-1.84,3.73-6.7,9.3-6.31,7.25-13.68,14.6-17.84,21.48-3.35,5.55-5.78,17.71-2.54,25.12C265.69,66.26,265,58.8,281,75.74,292.38,87.79,295.45,94,309.3,95c8.21.64,11.3.22,17.07-2.56,3.73-1.79,9.92-8.16,11.35-10,3.69-4.63,8.35-10.87,11.59-14.26,2.66-2.78,7.77-6.94,7.77-6.94"/><path class="cls-2" d="M281,75.74c-16-16.94-15.32-9.48-19.83-19.84-3.24-7.41-.81-19.57,2.54-25.12,4.16-6.88,11.53-14.23,17.84-21.48,4.86-5.57,5.68-9.31,6.7-9.3,4.13,0,5.28,1.62,1.74,5.7-4.4,5.08-20.85,19.21-24.49,29.31s2.35,21.72,2.35,21.72,27.07,26.11,30.58,30.13c0,0,8.26,3.82,14.05,4.48s10.88-2,15.5-4.51S344.49,67,350.78,63.1c3.14-2,5.25-2.49,6.3-1.78,0,0-5.11,4.16-7.77,6.94-3.24,3.39-7.9,9.63-11.59,14.26-1.43,1.79-7.62,8.16-11.35,10-5.77,2.78-8.86,3.2-17.07,2.56C295.45,94,292.38,87.79,281,75.74Z"/><path class="cls-2" d="M155.38,40a50.34,50.34,0,0,0,5.79.95c16.38,1.79,39.59-2.21,54.25-6.41C222,32.68,225.12,52,235.8,59.81c2,1.44,25.26,12.77,24.34,19.9-1.79,13.9-27.68-9.93-26.49,1.7s1.52,12.65-6.11,21c-7.18,7.85-15.68,13.75-29.12,18.48-12.51,4.4-14.1-10.4-1.24-18.45,9.45-5.92,9.49-13.3,7.81-19.6s-1.58-22.72-30.21-28.13C138,47.75,155.38,40,155.38,40Z"/><path class="cls-2" d="M277.71,120.61c14.29,1.59-12.2-19.4.46-24.84,6.26-2.7,15.34,13.9,19.8,19.87,9.63,12.86,28.49,12.1,25.8,18.37a33.26,33.26,0,0,0-2.09,6.67c-1.58,8.27-4.22,19.5-4.31,26.69-.05,3.76,1.6,15.28,2.81,27.49,0,0-7.1,18.15-14.81-16.07-6.56-29.16-21.69-29.26-27.36-30.46-7.11-1.51-15.29-.26-19.27,8.95-5.43,12.57-21.82,13.44-18.65.17,2.22-9.3,8.36-21.42,16.56-28.85S266.24,119.33,277.71,120.61Z"/><path class="cls-3" d="M107.3,248.46c9.7-6.75,51.25-45.78,56.87-52.42Z"/></g></g></svg>