<svg xmlns="http://www.w3.org/2000/svg" viewBox="0 0 124.12 42.89"><defs><style>.cls-1{fill:#f1ecce;}</style></defs><title>nautilus_name</title><g id="圖層_2" data-name="圖層 2"><g id="nautilus_name"><path class="cls-1" d="M.65,2.33A75.8,75.8,0,0,1,0,14.84c-.31,1.88,2.58,2.7,2.9.79a81,81,0,0,0,.73-13.3,1.5,1.5,0,0,0-3,0Z"/><path class="cls-1" d="M3.55,4.51c.87-.5,2-1.17,2.88-.38s.86,2.08.94,3c.17,2,.1,4.67-1.08,6.35S7.77,16.54,8.88,15c1.82-2.58,1.91-7,1.17-10-1-4.1-4.5-5.08-8-3A1.5,1.5,0,0,0,3.55,4.51Z"/><path class="cls-1" d="M3.57,8.87l4.07-.68A1.5,1.5,0,1,0,6.85,5.3L2.77,6a1.51,1.51,0,0,0-1,1.84,1.55,1.55,0,0,0,1.85,1Z"/><path class="cls-1" d="M3.91,11.93l4.24-.68a1.52,1.52,0,0,0,1-1.85A1.53,1.53,0,0,0,7.36,8.35L3.11,9a1.52,1.52,0,0,0-1,1.85,1.55,1.55,0,0,0,1.85,1Z"/><path class="cls-1" d="M2.21,17c2-.35,3.82-1,5.77-1.36s1.1-3.23-.79-2.89-3.83,1-5.78,1.36S.32,17.36,2.21,17Z"/><path class="cls-1" d="M4.1,14.63a13.56,13.56,0,0,1-3,4.64c-1.33,1.4.79,3.52,2.12,2.12a17.14,17.14,0,0,0,3.78-6c.65-1.82-2.25-2.61-2.89-.8Z"/><path class="cls-1" d="M5.15,16.48A7.94,7.94,0,0,1,7.7,18.57c.36.38.7.77,1,1.17l.32.4c.22.26-.12-.15-.05-.07a1.55,1.55,0,0,0,2.05.54,1.53,1.53,0,0,0,.54-2.06c-1.49-1.95-3.29-4.09-5.65-5-1.82-.67-2.6,2.22-.8,2.89Z"/><path class="cls-1" d="M11.18,2c0,4.06.44,8.49-.25,12.51-.32,1.88,2.57,2.7,2.89.79.74-4.3.36-8.95.36-13.3a1.5,1.5,0,0,0-3,0Z"/><path class="cls-1" d="M13.78,4.3c2.39-1.23,3.09.57,3.33,2.76a11.27,11.27,0,0,1-.63,5.84c-.88,1.71,1.71,3.23,2.59,1.51,2.56-5,1.08-16.76-6.81-12.7-1.72.88-.2,3.47,1.52,2.59Z"/><path class="cls-1" d="M13.76,8.87l4.78-.68a1.51,1.51,0,0,0,1.05-1.85,1.53,1.53,0,0,0-1.84-1L13,6a1.51,1.51,0,0,0-1.05,1.84,1.55,1.55,0,0,0,1.85,1Z"/><path class="cls-1" d="M14.44,11.93l3.39-.68A1.5,1.5,0,0,0,17,8.35L13.64,9a1.5,1.5,0,1,0,.8,2.9Z"/><path class="cls-1" d="M13.08,16.34a34,34,0,0,1,5.09-1.24c1.9-.32,1.1-3.21-.79-2.89a34.47,34.47,0,0,0-5.1,1.24c-1.82.6-1,3.5.8,2.89Z"/><path class="cls-1" d="M14.44,13.8a78.39,78.39,0,0,1-3.39,7.47,1.5,1.5,0,0,0,2.59,1.52A78.56,78.56,0,0,0,17,15.31c.75-1.75-1.83-3.28-2.59-1.51Z"/><path class="cls-1" d="M15,17.7a8.49,8.49,0,0,1,4.09,2.67,1.5,1.5,0,0,0,2.12,0,1.53,1.53,0,0,0,0-2.12,11.33,11.33,0,0,0-5.41-3.44c-1.83-.63-2.62,2.26-.8,2.89Z"/><path class="cls-1" d="M6.76,24.41c-.07,2.86-2.13,8.3,1.17,10.08,2.84,1.54,7.57-.66,9.92-2.33,1.56-1.11.07-3.72-1.51-2.59a14.41,14.41,0,0,1-3.15,1.61c-.72.27-3.13,1.32-3.85.67-.56-.5-.11-2.61,0-3.25.15-1.4.43-2.79.46-4.19.05-1.93-2.95-1.93-3,0Z"/><path class="cls-1" d="M11.86,24.75A78.7,78.7,0,0,1,10.21,40c-.39,1.89,2.51,2.69,2.9.8a83,83,0,0,0,1.75-16,1.5,1.5,0,0,0-3,0Z"/><path class="cls-1" d="M6,30.27c3.3-1.06,7-2,10.47-1.65,1.92.18,1.91-2.82,0-3-3.73-.34-7.75.62-11.27,1.76C3.32,28,4.1,30.86,6,30.27Z"/><path class="cls-1" d="M24,6.15A58.66,58.66,0,0,0,33.8,3.77C35.63,3.18,34.85.29,33,.88a58.66,58.66,0,0,1-9.85,2.38c-1.9.26-1.09,3.15.8,2.89Z"/><path class="cls-1" d="M25.11,6.06l-.68,18.69c-.07,1.93,2.93,1.92,3,0l.68-18.69c.07-1.93-2.93-1.92-3,0Z"/><path class="cls-1" d="M28,10.23a10.88,10.88,0,0,1,5.57.48c.35.15,1,.53,1,.74.21.83-.95,1.89-1.43,2.38-1.34,1.39.77,3.52,2.12,2.13,2.09-2.16,3.55-5.47.45-7.49C33.36,6.9,30,6.94,27.23,7.33c-1.91.28-1.1,3.17.8,2.9Z"/><path class="cls-1" d="M28,13.62c2.14-.35,4.3-.66,6.45-1,1.9-.31,1.09-3.2-.8-2.89-2.15.36-4.3.67-6.45,1-1.9.31-1.1,3.21.8,2.89Z"/><path class="cls-1" d="M27.29,17.07a47.81,47.81,0,0,0,6.85-.73c1.9-.29,1.09-3.18-.8-2.89a44,44,0,0,1-6.05.62c-1.93,0-1.94,3,0,3Z"/><path class="cls-1" d="M27.69,21.1l6.11-1c1.9-.32,1.09-3.21-.8-2.89l-6.11,1c-1.9.32-1.1,3.21.8,2.9Z"/><path class="cls-1" d="M26.33,26.19c2.9-.71,6.54-2.69,9.58-2.09,2.16.43,2.37,3.17,1.29,4.8C36,30.71,33.71,31,31.76,30.43a1.51,1.51,0,0,0-.8,2.9c5.57,1.56,12.29-3.35,9.22-9.48-2.72-5.44-10.5-1.57-14.65-.55-1.87.46-1.08,3.36.8,2.89Z"/><path class="cls-1" d="M22.61,27.4c-1,3.81-1.68,7.68-2.38,11.55-.34,1.89,2.55,2.7,2.9.8.7-3.87,1.37-7.74,2.38-11.55a1.51,1.51,0,0,0-2.9-.8Z"/><path class="cls-1" d="M25.28,28.65A55.92,55.92,0,0,1,25,37.43c-.3,1.88,2.59,2.7,2.89.79a59.92,59.92,0,0,0,.4-9.57,1.5,1.5,0,0,0-3,0Z"/><path class="cls-1" d="M28.9,29.22A43.68,43.68,0,0,1,29.52,38a1.5,1.5,0,0,0,3,0,47.22,47.22,0,0,0-.73-9.57c-.39-1.89-3.28-1.09-2.89.8Z"/><path class="cls-1" d="M32.8,28.88a41.46,41.46,0,0,1,1.31,10.81,1.5,1.5,0,0,0,3,0A45,45,0,0,0,35.7,28.08a1.51,1.51,0,0,0-2.9.8Z"/><path class="cls-1" d="M48.51,12.51A44.58,44.58,0,0,0,55,11.7c1.9-.32,1.09-3.21-.8-2.9a39.11,39.11,0,0,1-5.7.71c-1.93,0-1.94,3,0,3Z"/><path class="cls-1" d="M48.13,17.09c4.23-.42,8.63-.7,12.6-2.34,1.76-.73,1-3.63-.8-2.9-3.74,1.55-7.81,1.85-11.8,2.24-1.91.19-1.93,3.19,0,3Z"/><path class="cls-1" d="M49.68,16.73v12.4a1.5,1.5,0,0,0,3,0V16.73a1.5,1.5,0,0,0-3,0Z"/><path class="cls-1" d="M52.34,23.14a27,27,0,0,0,4.94-2.06c1.72-.86.21-3.45-1.52-2.59a22.26,22.26,0,0,1-4.22,1.76,1.5,1.5,0,0,0,.8,2.89Z"/><path class="cls-1" d="M46.24,21.69v9.92a1.52,1.52,0,0,0,1.9,1.45c2.89-.84,5.94-1.77,8.37-3.59,1.53-1.14,0-3.74-1.51-2.59a23.56,23.56,0,0,1-7.65,3.29l1.89,1.44V21.69a1.5,1.5,0,0,0-3,0Z"/><path class="cls-1" d="M56.16,11c.49,6,1.88,12,2.73,18,.17,1.23,1.75,1.29,2.5.66A26,26,0,0,0,66.59,24c1.07-1.62-1.53-3.12-2.59-1.52a23.58,23.58,0,0,1-4.73,5l2.51.66C61,22.43,59.63,16.79,59.16,11,59,9.1,56,9.08,56.16,11Z"/><path class="cls-1" d="M61.18,6.45c.87,2.25,1.42,4.62,2.29,6.87.68,1.78,3.58,1,2.89-.8C65.49,10.27,65,7.9,64.07,5.65c-.69-1.78-3.6-1-2.89.8Z"/><path class="cls-1" d="M66.44,4.88c3.65-.08,7.13-1.31,10.7-2C79,2.58,78.23-.32,76.34,0c-3.3.6-6.52,1.77-9.9,1.85-1.93.05-1.94,3.05,0,3Z"/><path class="cls-1" d="M67.61,4.53l-.19,18.4a1.5,1.5,0,0,0,3,0l.19-18.4a1.5,1.5,0,0,0-3,0Z"/><path class="cls-1" d="M71,7.88c1.37-.27,6-2,6.9-.33.64,1.15-.76,3.6-1.34,4.61a1.5,1.5,0,0,0,2.59,1.52c1.21-2.12,2.74-5.57,1.23-7.88C78.29,2.59,73.18,4.4,70.23,5c-1.89.37-1.09,3.27.8,2.89Z"/><path class="cls-1" d="M71.8,11.5l6.86-1.14c1.9-.32,1.1-3.21-.8-2.89L71,8.61c-1.9.32-1.1,3.21.8,2.89Z"/><path class="cls-1" d="M70.16,15.89a26.85,26.85,0,0,1,7.72-1.47c1.93,0,1.94-3,0-3A29.09,29.09,0,0,0,69.37,13c-1.83.59-1.05,3.49.79,2.89Z"/><path class="cls-1" d="M70.93,20.62A24.14,24.14,0,0,1,77.5,19c1.93-.06,1.93-3.06,0-3a26.47,26.47,0,0,0-7.37,1.73c-1.83.6-1,3.5.8,2.89Z"/><path class="cls-1" d="M68.92,24.43c3.37-.37,6.77-1.28,10.18-1,1.62.12,3.35.48,2.71,2.51-.81,2.55-4.3,3.41-6.64,3.23-1.92-.14-1.91,2.86,0,3a10,10,0,0,0,8.49-3.42c1.41-1.85,1.91-4.8.2-6.63-3.37-3.61-10.79-1.13-14.94-.67-1.9.22-1.92,3.22,0,3Z"/><path class="cls-1" d="M66,26.49c-1.41,4.14-3.11,8.18-4.78,12.21-.74,1.78,2.16,2.56,2.89.8,1.67-4,3.38-8.08,4.78-12.21.62-1.83-2.27-2.62-2.89-.8Z"/><path class="cls-1" d="M69,28.42a60.79,60.79,0,0,1-.71,11c-.37,1.89,2.52,2.7,2.89.8A64.31,64.31,0,0,0,72,28.42a1.5,1.5,0,0,0-3,0Z"/><path class="cls-1" d="M73.22,28.42c0,3,.29,6.2-.33,9.13-.39,1.89,2.5,2.69,2.9.8.67-3.22.44-6.66.43-9.93a1.5,1.5,0,0,0-3,0Z"/><path class="cls-1" d="M77.85,28.05a32.88,32.88,0,0,1,.7,5.94c.06,1.27.45,3.54-.16,4.73-.88,1.72,1.7,3.24,2.59,1.52s.65-3.88.59-5.67a38.35,38.35,0,0,0-.82-7.32c-.44-1.88-3.33-1.08-2.9.8Z"/><path class="cls-1" d="M89,13.26v8.18a1.5,1.5,0,0,0,3,0V21a1.5,1.5,0,0,0-3,0v.44a1.5,1.5,0,0,0,3,0V13.26a1.5,1.5,0,0,0-3,0Z"/><path class="cls-1" d="M92.1,15.12c1.77-.66,4.06-1.28,5.93-.64s.5,2.6-.29,3.73c-1.12,1.58,1.48,3.08,2.59,1.51,1.62-2.3,2.77-5.8-.22-7.58-2.58-1.53-6.16-.89-8.81.08-1.79.67-1,3.57.8,2.9Z"/><path class="cls-1" d="M90.88,22.86c2.81-.93,5.69-1.68,8.55-2.45a1.5,1.5,0,0,0-.8-2.89C95.77,18.28,92.9,19,90.08,20c-1.83.6-1,3.5.8,2.9Z"/><path class="cls-1" d="M92.65,10a79.28,79.28,0,0,1,0,16.3C92.48,27.54,94,28,94.9,27.59a22.82,22.82,0,0,0,6-4.31l-2.51-.66a37.1,37.1,0,0,1-.09,9.59c-.23,1.91,2.77,1.9,3,0a39.64,39.64,0,0,0,0-10.38c-.17-1.18-1.77-1.36-2.5-.67A20.44,20.44,0,0,1,93.39,25l2.26,1.3a79.28,79.28,0,0,0,0-16.3c-.15-1.91-3.15-1.93-3,0Z"/><path class="cls-1" d="M104.07,1.55c-.41,3.93-.74,7.87-.77,11.82a1.5,1.5,0,0,0,3,0c0-3.95.36-7.89.77-11.82.2-1.91-2.8-1.9-3,0Z"/><path class="cls-1" d="M106.73,4.48c2.25-1,6.93-2.83,8,.61a7.48,7.48,0,0,1-.89,5.89c-1.07,1.61,1.53,3.12,2.59,1.52a10.19,10.19,0,0,0,.81-9.21c-2.29-4.8-8.27-3.06-12-1.4-1.76.77-.24,3.36,1.51,2.59Z"/><path class="cls-1" d="M106.86,10.33l7.26-1.63c1.88-.42,1.08-3.31-.8-2.89l-7.26,1.63c-1.88.42-1.08,3.32.8,2.89Z"/><path class="cls-1" d="M109.36,2.78c0,2.91.32,5.78-.76,8.56-.69,1.8,2.2,2.58,2.9.8,1.17-3,.89-6.2.86-9.36a1.5,1.5,0,0,0-3,0Z"/><path class="cls-1" d="M105.2,14.81c3.46-.5,6.91-1.06,10.36-1.63,1.9-.3,1.09-3.2-.8-2.89-3.45.56-6.9,1.13-10.36,1.63-1.9.28-1.09,3.17.8,2.89Z"/><path class="cls-1" d="M109.8,12.71c-1.67,2.14-3.21,4.38-4.88,6.52A1.52,1.52,0,0,0,106,21.79a55.79,55.79,0,0,0,8.14-.87l-1.7-2.2c-1.36,2.45-3.49,4.27-5.47,6.22A1.52,1.52,0,0,0,108,27.5c3.53.27,6.81-.81,10.18-1.69l-1.9-1.44a27.56,27.56,0,0,1-.35,2.86c-.31,1.89,2.58,2.7,2.89.79a32.22,32.22,0,0,0,.46-3.65,1.52,1.52,0,0,0-1.9-1.45c-3.11.81-6.12,1.83-9.38,1.58l1.06,2.56c2.17-2.13,4.45-4.14,5.94-6.83a1.52,1.52,0,0,0-1.69-2.2,49,49,0,0,1-7.34.76L107,21.35c1.67-2.14,3.21-4.37,4.89-6.51,1.17-1.51-.94-3.65-2.13-2.13Z"/><path class="cls-1" d="M110.59,26a20.27,20.27,0,0,1-.76,7.74l1.44-1.1c-.33,0-.27,0,.16-.14-.26-.23-.53-.44-.8-.65-.73-.79-2-1.32-2.78-2a1.52,1.52,0,0,0-2.35.31c-2.37,3.34-3.75,7.24-6.11,10.59-1.12,1.58,1.48,3.08,2.59,1.51,2.36-3.34,3.74-7.24,6.11-10.59l-2.36.3c1.2,1,2.54,2.07,3.82,3a2.46,2.46,0,0,0,1.72.73,1.52,1.52,0,0,0,1.45-1.1,22.67,22.67,0,0,0,.87-8.54c-.21-1.9-3.21-1.92-3,0Z"/><path class="cls-1" d="M112.91,31.92c3.72.92,7.53,3.68,8.29,7.62.36,1.89,3.25,1.09,2.89-.8-.94-4.92-5.72-8.57-10.38-9.71-1.88-.46-2.68,2.43-.8,2.89Z"/></g></g></svg>