<svg xmlns="http://www.w3.org/2000/svg" viewBox="0 0 673.35 476"><defs><style>.cls-1,.cls-2{fill:none;}.cls-1,.cls-3{stroke:#fff;stroke-miterlimit:10;}.cls-3{fill:#fbf5cf;}</style></defs><title>nautilus-line</title><g id="圖層_2" data-name="圖層 2"><g id="nautilus-line"><path class="cls-1" d="M508.49,199.6s-5.05,7.69-12.78,18.07c-12.87,17.3-33.2,42.09-50,51.26-26.91,14.68-51.38,31-68.51,56.28s-27.73,83.19-79.93,60.35c0,0-8.9-137.24,35.35-188.94,29.23-34.16,142.26-16.64,149.52-18.49Z"/><path class="cls-1" d="M456.63,230.8s45.61-22.77,51.86-31.2-44.53,78-64.79,73.75S456.63,230.8,456.63,230.8Z"/><path class="cls-1" d="M377.18,325.21c-17.12,25.28-35.88,110.1-88.08,87.26,0,0-60.88-45.33,19.57-93C331,306.31,394.31,299.92,377.18,325.21Z"/><path class="cls-1" d="M416.94,290.68c12.17,1.36,39.28-25,46-52.47s-3.63-45.4-32.45-45.67-51.93,1.36-49.21,29.63S395.25,288.26,416.94,290.68Z"/><path class="cls-1" d="M418.23,276.77s11.69-13.34,10.31-27.78c0,0,13.06-9.46,4.81-16.41s-12.13-.08-11.22,6.79S423.73,271.56,418.23,276.77Z"/><path class="cls-1" d="M416.94,290.68c12.17,1.36,39.28-25,46-52.47,3.71-15.21,2.19-27.5-4.79-35.48,0,0,4.79,24.86-1.5,44C447.05,275.86,416.94,290.68,416.94,290.68Z"/><path class="cls-1" d="M397.57,219.88c2.11-8.65,70.81-5.19,70.81-5.19-2.86-14.15-19-22.78-38.73-23-28.82-.27-51.92,1.36-49.21,29.63,0,0,7,16.52,11.15,19.46S394.22,233.61,397.57,219.88Z"/><path class="cls-1" d="M154.12,196.07s-55.94,4.35-68.44,4.35-14.1,3.1-13,7.53c0,0-25-1.63-37.5-5.94s-22.83.58-20.65,9.55S45,232,59.1,232.5s38.06,2.72,50.57,0c0,0-34.8,16.9-57.64,18.51s-41.9.52-37.8,13,43.78,9.78,64.45,2.17a5,5,0,0,0,0,6.46S72.39,289.15,84,290.73c0,0-52.59,26.43-67.27,31.95s-26.16,24.55-3,19.11,60.11-23.41,60.11-23.41a5.25,5.25,0,0,0,1.09,4.3l1.63,1.71S44.42,337.44,39,338.26s-5.44,18.89,4.89,14.2,57.09-26,63.07-29.78c0,0,19.57-9.77,31-4.3,0,0-57.09,25.79-75.58,29.93S32.46,363.54,39,368.43s44-6,76.66-19c0,0-35.89,22.84-32.08,34.8,0,0-28.27,16.31-25.56,29.9s13.6,7.62,24.47,0,7.07-6.52,15.77-10.33c0,0,32.08-14.69,41.87-11.42,0,0-18,8.41-18,17.53s2.72,16.62,12.51,7.16,13-15.44,15.23-15.44l12,1.09s-13.05,9.49-2.72,14.17,21.75-7.65,26.64-9.65h7.88s-6.25,5.52,2.45,9.65,26.64.09,26.64.09-58.17,22.4-79.92,23.89-30.45,5.32-25.56,10.22,28.27,8.16,48.39,2.18S179.81,450,179.81,450A16.4,16.4,0,0,0,195,452.71c9.25-2.72,15.77-4.35,15.77-4.35S189.05,469,192.32,472.83s13.59,4.89,21.2-6,21.75-27.51,21.75-27.51,29.36-8.92,48.94-24.69S392.74,351,402.36,335.79s12.88-40.12,2.55-45.06a22.33,22.33,0,0,0-4.35-19.63C393,261.32,381,258.6,381,258.6s11.32-6.23,7.27-17-10.58-11.72-10.58-11.72,5.43-3.38,0-9.09c0,0-.32,1.28.27-2,.72-4.08,1.36-8.67-5.17-10.76s-11.42-10.55-58.18-5.25S154.12,196.07,154.12,196.07Z"/><path class="cls-1" d="M151.73,270.71s-50.7,27.73-48,32.55,14.1-2.79,14.1-2.79l48.19-27Z"/><path class="cls-1" d="M94.44,303.18S64,314,56.93,318.38s-24.43,10-30.43,12.1-28.08,5.85-17.42,7.78S46.24,327.11,48.59,326s32.05-12,32.05-12,15.78-.54,19.68-.54-16.1,3.2-12.07,4.86,29.68-5.91,37.29-8.08,57.57-33.53,57.57-33.53S112.39,307.53,94.44,303.18Z"/><path class="cls-1" d="M124.29,224.89s-33,1.87-48.83,1.48-27.23-1.81-34.3-4.37-23-8-9.24,0,25.75,9.14,37.89,8.73,48.56,0,48.56,0l11.25-1Z"/><path class="cls-1" d="M100.32,253.23S70,261.86,56.38,264s-21.08,5.15-29.9,4.69,12.87,4.68,33.89,0S94.44,262,94.44,262s6.94-6.12,12.89-7.31S100.32,253.23,100.32,253.23Z"/><path class="cls-1" d="M372.83,273.28c-4.44,2.56-71.23,40.24-82.64,48.39s-85.37,42.41-104.94,44-81.56,25.56-81.56,25.56S76,406,101.51,397.79s69.06-19.57,76.67-19.57,58.18-8.7,81-22.29,65.25-38.61,65.25-38.61S337.49,313,342.38,313c0,0-43.49,45.13-53.83,56s-52.19,52.74-78.29,59.26-73.4,18.49-78.3,18.49-27.73,6,1.63,4.89,21.21-7.07,44.59-8.7,62-13.59,87-33.71,57.64-47.35,76.13-73.42,22.83-40.76,36.43-48.92,15.76-7.61,14.68-13.59S383.23,267.28,372.83,273.28Z"/><path class="cls-1" d="M203.73,237.12c-20.67,9.84-45.67,9.52-63.61,13.32-12.88,2.73,24.41,3.37,47.3-1.63,15.23-3.33,48.39-14.41,58.18-10.87,0,0-74.49,41.86-90.8,46.76-8.31,2.49-44.75,16-60.36,18.48-9,1.43,12.81,4.05,26.1,1.09,7.34-1.63,80.07-27,91.35-31,9.67-3.43,93.73-44.17,115.54-46.76,22.84-2.72,49.87-6.72,41.6,0-8.63,7-116.91,49.49-136.18,54.6-17.76,4.7-55.76,21-96.54,41.64C87.7,347.39,45.51,360.27,48.77,363c7.94,6.63,120.42-46.05,125.6-48.93,19.58-10.88,57.35-19,83.19-30.45,23-10.17,74.58-24.89,90.26-33.71,16.32-9.18,40.49-8.28,40.49-8.28-4.06-10.75-10.58-11.72-10.58-11.72s5.43-3.38,0-9.09c0,0-.32,1.28.27-2,.72-4.08-16.59-9.39-63.35-4.08C265.46,220.27,226,226.52,203.73,237.12Z"/><path class="cls-1" d="M392.65,288S356,323.85,341.3,347.23s-51.66,47.84-54.92,50.56,56-38,74.49-54.89,36.07-27.16,42.41-37S401.05,288.07,392.65,288Z"/><path class="cls-2" d="M212.43,441.43s-17.12,3.67-24.87,6.11-4.9,4.08,4.89,2.45S212.43,441.43,212.43,441.43Z"/><path class="cls-1" d="M318.46,326s-34.25,37.52-69.73,48.12c0,0-23.25,11.42-40.78,11.42s-26.51,6.93-38.34,7.34-26.91,6.37-11,5,42-5.43,51.79-5.84,40.38-11.82,49.75-15.9,27.74-17.54,33-22.84S318.46,326,318.46,326Z"/><path class="cls-1" d="M183.07,400.21H168.39s-6.93,5.71-6.12,6.93S166.15,415.21,183.07,400.21Z"/><path class="cls-1" d="M157,244.06s.95.4,9,0c0,0,6.87-6.53,27.66-10.2s30.18-6.53,30.18-6.53l-13-2.44S168.39,231.82,157,244.06Z"/><path class="cls-1" d="M126.8,268.79s-7.75.67-9.38,0-18,4.22-20,6.26-13.86,3.26-13.86,3.26-9,5.3,4.49,3.67S112.93,271.09,126.8,268.79Z"/><path class="cls-1" d="M197.77,326c-12.15,3-48.87,21.76-65.81,32.62-15.27,9.79-35.2,20.38-43.71,31,0,0,17.2-6.8,25.9-10.61,0,0,36.06-21.76,42.82-23.24,15.67-3.42,45.55-18,50.16-20,8-3.41,31.72-12.53,54.65-22.84,24.47-11,44.46-20.53,60.76-28.14,20-9.32,58.5-26.23,58.5-26.23s5.75-3.17,7.59-8.88c.74-2.3-16.07,7.67-63.1,19.07C279.79,279.87,215.7,321.67,197.77,326Z"/><path class="cls-1" d="M80.64,397.92s-12.3,6.47-11.21,12.68,8.28-3.26,11.21-4.77S78.25,400.23,80.64,397.92Z"/><path class="cls-1" d="M125.67,244.24s-16,6.27-26.89,5.15-8.42,7,.28,7.58c0,0,12.91-4.36,19-3.74,0,0,.74-3.81,6.44-3.84s1.14,0,1.14,0Z"/><path class="cls-1" d="M128.21,214.69s-42.19,1.62-50.35,0-13,3.44,0,6,44.42.7,50.35,0S128.21,214.69,128.21,214.69Z"/><path class="cls-1" d="M134.57,222s-12.18.44-11.4,5.74,16.68,1.94,16.68,1.94Z"/><path class="cls-1" d="M139.85,230.8s-12.24,1.61-13,3.76-.83,3.51,6.92,3.65a13.31,13.31,0,0,0,3.88-.57c-2.39,1.31-4,2.69-3.87,4,.41,4.88.81,2.87,9.38,0S181,226.37,181,226.37Z"/><path class="cls-1" d="M188,286.84s-28.43,11.45-36.23,12.54c0,0-8.89,4.05-6.18,8.55s4.41,1.48,8.19,0S177.84,295.57,188,286.84Z"/><path class="cls-1" d="M188,260.23s-35.07,8.43-48.11,8.5-13.33,9.36-2.45,8,21.39-3.27,21.39-3.27-23,8.42-18.94,13.34c0,0,41.05-15.74,48.11-22.8C188,264,193.53,258.94,188,260.23Z"/><path class="cls-1" d="M218.45,446s.25-1.59,10-4.61c0,0-18.25,29.22-25.54,29.22S215.22,454.59,218.45,446Z"/><path class="cls-1" d="M202.87,405.83s55.68-16.74,64.16-24.35c0,0-32.72,28.72-43.11,31.22S190.59,413.32,202.87,405.83Z"/><path class="cls-1" d="M139.85,394.75s-1.85,1.41,5.19,6.31c0,0-16.1,12.57-15.42,16S117.77,408.32,139.85,394.75Z"/><path class="cls-1" d="M508.49,199.6s-35.88,54.65-62.8,69.33-51.38,31-68.51,56.28-35.88,110.1-88.08,87.26c0,0,44.52,33.57,137.83,27.73,78.3-4.89,137.18-26.68,178-69.1S670,275.62,672.43,220.16,667.53,96,628.81,54.85C591.55,15.23,524.8-5.92,473.42,2.23S373.1,59.32,368.21,68.29s90.53,131.31,125.6,122.34Z"/><path class="cls-1" d="M508.49,199.6s-1.06,4.17-5.48,14c-5.83,12.92,16.9,66.68,68.83,16.27,15.25-14.81,25.36-49.24,20.88-70.33-5.38-25.25-36.11-51-67.64-46.08-15.36,2.38-38.61,13-47.92,31C467,164,458.74,199.6,493.81,190.63Z"/><path class="cls-1" d="M410.89,84.75c12.11-7.5,47.85-34.94,88.22-41.19,41.91-6.49,89.56,18.35,95.15,20.93s-48.8-48.35-101.79-39.15c-47.44,8.23-91.91,37-95.71,44.59Z"/><path class="cls-1" d="M435.81,14.83S466.29,39.24,473.86,64c5.81,19,2.57,34.31,22.5,54,15.92,15.75,18.21,39.26,18.21,39.26"/><path class="cls-1" d="M416.94,70.4s21.69,28,33.65,53.76c12.85,27.73,38,42.18,41.88,44.1"/><path class="cls-1" d="M490.61,170s-23.71-8.9-40.84-35.71"/><path class="cls-1" d="M531.08,4s18.31,37.93,14.38,66.42,14.41,45.4,5.85,63.86-12.64,26.6-12.64,26.6"/><path class="cls-1" d="M494.9,30.79s11.55,36.62,14,52.36-1.72,36.85,5.67,47.7,4.49,25.64,4.49,25.64"/><path class="cls-1" d="M584.8,22.51s15.87,45.4.57,70.88"/><path class="cls-1" d="M648.39,82.42s.65,38.29-26.53,54.77-67.56,36.87-72.66,38.9"/><path class="cls-1" d="M665.2,136.25s-20.11,38.07-115.73,45.14"/><path class="cls-1" d="M672.85,211.56s-45.72,28.77-127.11-18.75"/><path class="cls-1" d="M663.9,271.15s-83.54-40.79-116.44-77.35"/><path class="cls-1" d="M565.9,233.59s28.36,22.83,30.38,42.67c3.4,33.37,34.56,58.5,23,78.6"/><path class="cls-1" d="M460.64,276.77C454.9,281.83,449,286,443,288.5c-26.92,11.44-46.55,37.78-56.66,60.84-5,11.42-5.32,24.53-20,34.86"/><path class="cls-1" d="M514.57,216.13s-22.1,55-51.65,78.09c-24,18.74-53.2,52.85-61.27,81.82-9.24,33.17-28.82,44.59-28.82,44.59"/><path class="cls-1" d="M534.05,208s9,48.47-3,76.75,14,43.73-7.09,73.4-64.58,46.61-67.36,79.31"/><path class="cls-1" d="M542.35,199.48s30.19,42.81,16.52,82.5-33.81,100.31-13.41,131.17"/><path class="cls-1" d="M567.69,266.32s22,90,5.72,131.12"/><path class="cls-1" d="M519.62,423.44s9.11-9.12,9.46-42"/><path class="cls-1" d="M392.41,440.89s31.35-12.26,43.4-43.45,18.85-49.67,39.38-70.33,35.65-46.22,39.38-63.07"/><path class="cls-1" d="M506.74,216.13S484,264,462.92,280.89s-54.74,30.45-70.51,76.67"/><path class="cls-1" d="M324.37,429s25.63-3.87,53.36-38.19"/><path class="cls-1" d="M392.41,366.26s12-12.13,18.48-25.91,9.25-17.05,22.3-30.1"/><path class="cls-1" d="M363.79,438s31.34-16.26,43.3-56.54,45.33-62.53,55.83-71.23,41.77-46.76,46-72"/><path class="cls-1" d="M521.11,214.69s-1.76,32.49-13.85,54.24"/><path class="cls-1" d="M507.26,301.88s-38.71,51.87-43.62,74.71-48.11,59-40.64,64.3"/><path class="cls-1" d="M454.7,394.75S428.23,433,438.59,439.34"/><path class="cls-1" d="M377.73,439.64s33.16-15.37,41.86-42.2,9.3-37.71,25.86-52.39"/><path class="cls-1" d="M498.3,165.35c6.78,3.94,12.59,8.05,4.48,0-15.2-15.11-31.2-34.38-33.42-42.93-4.91-18.94-6.05-25.84-19.59-42.3-20.32-24.7-44.89-46.27-44.89-46.27-6.14,4.51-11.72,9-16.57,13.31,0,0,20.86,19.5,37,28.48,15.84,8.8,23.51,34,35.89,54.23C471.16,146.19,485.74,158.06,498.3,165.35Z"/><path class="cls-1" d="M490.31,132.87h0a136.1,136.1,0,0,1-2.82-28.7c.3-11.71,3.25-17.91,3.71-31.17,6-13.66,4.92-45.82,1.17-56.52C488.56,5.59,477.48,1.65,477.48,1.65c-1.36.18-2.72.37-4.06.58-2.72.43-5.43,1-8.12,1.63,0,0,11.6,3.74,17.09,14,2.64,4.9,1.64,7.26.2,8.83-8.32-12.41-22.15-21.51-23.33-21.16a143.83,143.83,0,0,0-19.93,7.65s13.79,3.69,20.23,7.86c3,1.94,14.46,10.21,20.79,20.39,10.38,16.67,1.93,32.7,1.64,42-.4,12.38-2.66,20.12-3.52,26.26a14.48,14.48,0,0,1-.75-3c-1.44-15.36-10.31-41.18-22.24-59.5A156,156,0,0,0,430,17.81c-4.51,2.45-8.9,5.05-13.1,7.75a201.26,201.26,0,0,1,26.32,26.66c14.48,17.91,14.48,17.91,24.11,45.23,9,25.48,17.47,40.17,37.51,66.81l4-1.36S499,147.73,490.31,132.87Z"/><path class="cls-1" d="M531.74,164.26c3.88-20.52-7.75-62.35-.82-85.77,7.51-25.36,4.66-34.77.82-52.61-2.71-12.56-11-23.64-11-23.64A181.51,181.51,0,0,0,499.11.52s14.7,13.27,18.25,30.67C522,53.61,514.45,72,515.73,91.54c1.6,24.44-.71,54.64,6.63,66.47C522.36,158,530.67,169.87,531.74,164.26Z"/><path class="cls-1" d="M578.63,26.29c-5.68-5.68-13-12.36-13-12.36-1.32-.51-2.65-1-4-1.49h0c-1.2-.43-2.4-.85-3.61-1.26l-.36-.13h0a207.15,207.15,0,0,0-20.6-5.82S549.15,14,550.42,35.61c1.71,29-13.8,63-14.8,82.84-1.26,24.86-.69,30.09-1.57,43.21l3.8,2.6s2.1-19.49,4.08-37.65c1.29-11.78,3-21,3.67-24.47a84.27,84.27,0,0,1,3.6-12.27c7.87-8.62,14-18.72,20.88-26.31C583.16,49.13,588.42,36.08,578.63,26.29Zm-20.3,39.52a69.53,69.53,0,0,0,3.58-14.23c1.19-10.75.43-27.64,0-35.22,2.37,3.06,5.51,7.26,8.85,12.07,4.18,6,5,18.25-2.31,27.22A123.87,123.87,0,0,1,558.33,65.81Z"/><path class="cls-1" d="M623.49,49.51q-5.31-5-11.21-9.62s8.63,19.73,4.69,28.4c-3.48,7.65-6.47,6.17-12.22,13.42a60.64,60.64,0,0,0,5.47-14.23c4.08-17.61-7.14-34.29-10.64-36.52q-7.14-4.53-14.78-8.45s24.32,16.72,15,44.56c-4.08,12.24-22,36.6-29.77,51.79-9.15,17.94-22.78,37.71-31.4,42.41l4.39,3c1.63-1.68,21.56-10.77,33.13-35.61,4.11-8.85,9.44-17,14.7-24.81C609.81,88.9,619.81,86,623.5,75.23,626.91,65.28,623.49,49.51,623.49,49.51Z"/><path class="cls-1" d="M549.27,175.54c6.12-11.28,31.39-23.48,49.84-41.21C617,117.18,626.6,110.71,636.27,98s6.13-25.76,6.13-25.76a124.65,124.65,0,0,0-8.67-11.83s6.48,25.94-13.5,43.1c-24.8,21.3-43.64,43.87-74.77,66.43Z"/><path class="cls-1" d="M667.12,137.36h0c0-.26-.11-.52-.16-.78l-.45-2.18c-.19-.91-.38-1.83-.59-2.74l-.15-.74v0c-1-4.34-2-8.65-3.25-12.9l-4.8,5.48,1-17.4a175.32,175.32,0,0,0-7-17.11s5.69,30.1-15.19,46.51c-11.53,9.07-16.68,15.65-32.22,22.87-24.87,11.55-48.53,15.21-55.74,17.9l-.2,1.91-.92.15.61,2.77-.43,4.18c2.61-.45,5.63-1.14,9-2,15.31.62,35.58.65,53.89.54,23.19-.14,37,0,50.1-7.48,5.87-3.39,8.86-25.27,8.86-25.27C668.8,146.49,668,141.91,667.12,137.36ZM648.37,170c-13,6.67-22.12.5-43.23,4.76-8.51,1.72-18.53,2.07-28.26,2.22,11.36-3.95,23.85-8.79,35.6-13.63a107,107,0,0,0,40-29c6.84,0,10.72,1,12.76,1.89C663.88,145.48,659.85,164.1,648.37,170Z"/><path class="cls-1" d="M648.5,240.11c-10.87-3-13.53-10.74-21.2-16-8.56-5.9-18.8-12.52-27-18.76,17.62-.14,38.51,2,52.26-.48,16-2.86,20.2-14.22,20.2-14.22-.19-7.38-.6-14.86-1.27-22.35,0,0-3.36,20-21.85,25.64-26.47,8.09-80.06,5.76-104.13-8.57v7a136.44,136.44,0,0,0,26.36,9.33h0c9,4.23,21.61,8.23,32.13,17.84,11.82,10.8,28.27,30.66,40.77,34.8,15.77,5.23,22.42,4.67,22.42,4.67a214.07,214.07,0,0,0,5.32-38.76S661.93,243.81,648.5,240.11Z"/><path class="cls-1" d="M643.06,269.47c-8.57-2.54-7.88-12.77-22.1-15.44a62.14,62.14,0,0,1-14.19-4.67c-12.51-5.13-11.53-6.73-24.93-14.66-20.39-13.83-24.34-26-36.38-42.41v2.44c13.41,23.09,10.74,31,24.2,42.39,20.05,17,24,20.55,35.24,39.3,4.52,7.51,7.92,23.66,12.47,35.74a220.24,220.24,0,0,0,12.91,28.19q4.76-6.78,9-13.79s-14.29-28.81-20.7-47.3a75.4,75.4,0,0,0-5.93-13l0,0c13.78,2.34,18.35,15.32,26.6,18.62,11.79,4.72,20.07,0,20.07,0q2.5-6.82,4.53-13.79S656.66,273.52,643.06,269.47Z"/><path class="cls-1" d="M595.07,315.69c-6.94-7.88-7.19-10.59-7.19-24,0-17.32-12.93-26.25-18.49-35.77-9.12-15.61-6.66-26-30.72-52.11,3.61,5.73,6.46,10.48,8.79,14.69-2,35.25-11.29,54.81-3.9,72.34,11.42,27.06,5,44.33,1.9,68.93-4.71,37.71,27.95,37.71,27.95,37.71a190.82,190.82,0,0,0,18.43-14c1.73-1.48-31.77-9.7-29.52-34.58,2.18-23.93-2.89-53.88-11.48-78.93-5.45-15.9,2.45-38-2.05-49a113.47,113.47,0,0,1,9.45,23.56c6.68,22.75,19.11,31.49,21.21,54.92,2.39,26.64,11.42,29.36,14.81,45.13,4.5,20.94,3.84,33.31,3.84,33.31q3.48-3.27,6.79-6.72t6.3-6.78S616.15,339.61,595.07,315.69Z"/><path class="cls-1" d="M528.52,211.56c-1.81,14.69-6.64,44.2-15.95,70.42-9.53,26.85-9.79,59.21-8.7,90.8,1.63,47.31-40.23,63.67-40.23,63.67a330.09,330.09,0,0,0,49-10.76s5.56-34.91,2.4-63.78c-3-27.07-6.07-43.26,3.16-70.14,9.89-28.82,12.12-68.7,10.34-80.21Z"/><path class="cls-1" d="M508.49,199.6h0l-33.3,21.09c6.73-17.63,6.93-42.56,6.93-42.56s17.33-20.5,38.61-21.79c17.94-1.08,29.18,7.65,28.74,25-.31,12-10.31,24-19.5,29.36-11,6.45-24.36,7.34-22.29,2.18C509.85,207.49,508.49,199.6,508.49,199.6Z"/><path class="cls-1" d="M283.12,136.26c-17.95-4.35-59.81-3.26-100.59,20.12s-40.24,45.13-40.24,45.13-40.78,25.55-7.07,20.66c0,0-11.41,11.42,13.05,11.42s41.33-8.7,64.71-7.07,56-.54,70.14-4.89,50-20.12,68-20.12,15.23-.55,2.18-12.51S283.12,136.26,283.12,136.26Z"/><path class="cls-1" d="M283.12,136.26c-17.95-4.35-59.81-3.26-100.59,20.12s-40.24,45.13-40.24,45.13-14.47,9.07-19,15.37c-1.56,2.13,20.13.44,21.81,1.48s-16.65,4.8-9.84,3.81c0,0-4.46,4.46-1.83,7.81,1.58,2,11.69-.3,20.86-.3,24.47,0,35.89-14,59.27-12.36s52.74-.59,66.88-4.94,43.5-17.76,61.44-17.76S366.31,201,353.26,189,283.12,136.26,283.12,136.26Z"/><path class="cls-1" d="M276.34,191.54c2.18-.82,3.57-2.49,3.11-3.73s-2.61-1.59-4.79-.77-3.58,2.48-3.11,3.72S274.16,192.35,276.34,191.54Z"/><path class="cls-1" d="M247,190.72c2.19-.81,3.58-2.48,3.12-3.72s-2.61-1.59-4.8-.78-3.57,2.49-3.11,3.73S244.79,191.54,247,190.72Z"/><path class="cls-1" d="M260.84,200.51c2.18-.82,3.57-2.48,3.11-3.73s-2.61-1.58-4.79-.77-3.57,2.48-3.11,3.73S258.66,201.32,260.84,200.51Z"/><path class="cls-1" d="M170.22,190.29c1.77-1.53,2.49-3.58,1.62-4.58s-3-.58-4.76.95-2.48,3.57-1.61,4.57S168.47,191.81,170.22,190.29Z"/><path class="cls-1" d="M229.05,196.58c2.46-.92,4.16-2.42,3.81-3.36s-2.62-1-5.08,0-4.17,2.42-3.82,3.36S226.59,197.5,229.05,196.58Z"/><path class="cls-1" d="M199.67,198.06c2.18-.81,3.58-2.48,3.11-3.72s-2.61-1.59-4.79-.78-3.57,2.49-3.11,3.73S197.49,198.88,199.67,198.06Z"/><path class="cls-1" d="M189.07,212.74c2.18-.81,3.57-2.48,3.11-3.72s-2.61-1.59-4.79-.77-3.58,2.48-3.11,3.72S186.89,213.56,189.07,212.74Z"/><path class="cls-1" d="M201.34,160.12a2.06,2.06,0,1,0-3-.41A2.16,2.16,0,0,0,201.34,160.12Z"/><path class="cls-1" d="M192.24,168.1c1.39-.95,2-2.48,1.35-3.41s-2.28-.92-3.67,0-2,2.49-1.35,3.42S190.85,169.06,192.24,168.1Z"/><path class="cls-1" d="M173.61,177.25a2.06,2.06,0,1,0-3-.42A2.16,2.16,0,0,0,173.61,177.25Z"/><path class="cls-1" d="M213.57,208.24a2.06,2.06,0,1,0-3-.42A2.16,2.16,0,0,0,213.57,208.24Z"/><path class="cls-3" d="M217.65,154.41a2.06,2.06,0,1,0-3-.41A2.16,2.16,0,0,0,217.65,154.41Z"/><path class="cls-1" d="M173.57,206.22c2.18-.82,3.58-2.49,3.11-3.73s-2.61-1.58-4.79-.77-3.57,2.48-3.11,3.72S171.39,207,173.57,206.22Z"/><path class="cls-1" d="M156.79,206.27c1.55-.58,2.46-2,2-3.14s-2-1.62-3.59-1-2.46,2-2,3.14S155.24,206.85,156.79,206.27Z"/><path class="cls-1" d="M272.79,133.54S342,59.26,357.06,50.9C389,33.22,373.21,51,387,60.14c9.79,6.52,36-3.67,36.26,31.58.22,30.27,22.89,43.05,25.18,47.26,3.26,6,14.68,16.31,29.91,27.73s14.13,20.66,14.13,28.82-12,26.1-32.08,16.31-27.18-27.19-72.31-26.1-156.73-.4-172.91,5.44c-21.9,7.9-45.67,10.87-50.56,10.33S181.44,176,193.4,167.8,228.75,139.52,272.79,133.54Z"/><path class="cls-1" d="M272.79,133.54s69-74.49,84.27-82.64a33.89,33.89,0,0,0,6.41,13c7.6,9.68,31.71,0,38,31.6,6.11,30.58,19.37,47.81,34.59,59.23S477.5,180.85,477.5,189s3,19.17-17.13,9.38-27.46-18.21-72.59-17.13-157.13-1.75-173.31,4.08c-21.9,7.9-50.49,13.83-48.34,10.59,5.29-8,18.76-22.32,27.27-28.12C205.37,159.64,228.75,139.52,272.79,133.54Z"/><path class="cls-1" d="M323.43,112.76c4.25-4,5.75-9.31,3.36-11.86s-7.79-1.38-12.05,2.61-5.75,9.31-3.35,11.86S319.18,116.75,323.43,112.76Z"/><path class="cls-1" d="M349.29,112c2.73-2.57,3.72-6,2.2-7.57s-5-.84-7.69,1.72-3.72,6-2.2,7.57S346.56,114.51,349.29,112Z"/><path class="cls-1" d="M350.92,73.61c2.74-2.56,3.72-6,2.2-7.57s-5-.84-7.69,1.73-3.71,6-2.2,7.57S348.19,76.18,350.92,73.61Z"/><path class="cls-1" d="M341.87,146.61a3.67,3.67,0,1,0-5.09-.24A3.6,3.6,0,0,0,341.87,146.61Z"/><path class="cls-1" d="M329.53,131.29c2-1.89,2.74-4.4,1.62-5.59s-3.67-.63-5.69,1.27-2.74,4.41-1.62,5.6S327.51,133.19,329.53,131.29Z"/><path class="cls-1" d="M365.3,122.32a2.14,2.14,0,0,0-.09-3,2,2,0,1,0-2.92,2.74A2.14,2.14,0,0,0,365.3,122.32Z"/><path class="cls-1" d="M354,93c2-1.9,2.75-4.4,1.63-5.6s-3.67-.62-5.69,1.28-2.75,4.41-1.62,5.6S352,94.86,354,93Z"/><path class="cls-1" d="M349.81,124.77a2.29,2.29,0,1,0-3-.28A2.15,2.15,0,0,0,349.81,124.77Z"/><path class="cls-1" d="M358,148.42a2.14,2.14,0,0,0-.09-3,2,2,0,1,0,.09,3Z"/><path class="cls-1" d="M379.17,95.41a2.29,2.29,0,1,0-3-.28A2.15,2.15,0,0,0,379.17,95.41Z"/><path class="cls-1" d="M236.44,150.05a2.29,2.29,0,1,0-3-.28A2.15,2.15,0,0,0,236.44,150.05Z"/><path class="cls-1" d="M379.17,155.76a2.29,2.29,0,1,0-3-.28A2.14,2.14,0,0,0,379.17,155.76Z"/><path class="cls-1" d="M274.77,153.32a2.29,2.29,0,1,0-3-.28A2.15,2.15,0,0,0,274.77,153.32Z"/><path class="cls-1" d="M374.28,109.28a2.3,2.3,0,1,0-3-.29A2.16,2.16,0,0,0,374.28,109.28Z"/><path class="cls-1" d="M384.88,130.48a2.29,2.29,0,1,0-3-.28A2.15,2.15,0,0,0,384.88,130.48Z"/><path class="cls-1" d="M367.75,136.19a2.29,2.29,0,1,0-3-.28A2.16,2.16,0,0,0,367.75,136.19Z"/><path class="cls-1" d="M393.85,146a2.29,2.29,0,1,0-3-.29A2.15,2.15,0,0,0,393.85,146Z"/><path class="cls-1" d="M239.7,159a2.29,2.29,0,1,0-3-.29A2.15,2.15,0,0,0,239.7,159Z"/><path class="cls-1" d="M220.13,161.47a2.29,2.29,0,1,0-3-.28A2.14,2.14,0,0,0,220.13,161.47Z"/><path class="cls-1" d="M320.45,93.78a2.29,2.29,0,1,0-3-.28A2.16,2.16,0,0,0,320.45,93.78Z"/><path class="cls-1" d="M333.5,156.58a2.29,2.29,0,1,0-3-.28A2.16,2.16,0,0,0,333.5,156.58Z"/><path class="cls-1" d="M365.3,84a2.29,2.29,0,0,0-3.11-3.31A2.29,2.29,0,0,0,365.3,84Z"/><path class="cls-1" d="M291.09,141.9a2.29,2.29,0,1,0-3-.28A2.16,2.16,0,0,0,291.09,141.9Z"/><path class="cls-1" d="M309.84,127.22a2.29,2.29,0,1,0-3-.28A2.15,2.15,0,0,0,309.84,127.22Z"/><path class="cls-1" d="M252.77,151.45c2.57-1,4.14-3.13,3.52-4.65s-3.21-1.89-5.77-.84-4.14,3.14-3.52,4.65S250.21,152.5,252.77,151.45Z"/><path class="cls-1" d="M305.56,147.82c1.38-1.29,1.87-3,1.11-3.82s-2.5-.42-3.88.87-1.87,3-1.11,3.82S304.18,149.11,305.56,147.82Z"/><path class="cls-1" d="M297.91,128.26c2.73-2.57,3.72-6,2.2-7.57s-5-.84-7.69,1.72-3.72,6-2.2,7.58S295.18,130.83,297.91,128.26Z"/><path class="cls-1" d="M270.65,144.15c1.76-.68,2.87-2.07,2.46-3.11s-2.15-1.34-3.92-.66-2.86,2.08-2.46,3.12S268.89,144.83,270.65,144.15Z"/></g></g></svg>