<svg xmlns="http://www.w3.org/2000/svg" viewBox="0 0 432.95 305.68"><defs><style>.cls-1{fill:#131317;}.cls-2{fill:#ecd0b8;}.cls-3{fill:#ddaa87;}.cls-4{fill:#d89d7c;}.cls-5{fill:#f5e7b9;}.cls-6{fill:#b13e23;}.cls-7{fill:#c9845f;}.cls-8{fill:#f8f2cd;}.cls-9{fill:none;stroke:#d89d7c;stroke-miterlimit:10;}</style></defs><title>nautilus</title><g id="圖層_2" data-name="圖層 2"><g id="nautilus"><path class="cls-1" d="M326.91,128.13s-3.24,5-8.22,11.63c-8.29,11.13-21.37,27.08-32.19,33-17.32,9.44-33.07,19.94-44.09,36.21S224.57,262.5,191,247.8c0,0-5.73-88.32,22.75-121.59,18.81-22,91.55-10.7,96.22-11.9Z"/><path class="cls-2" d="M293.54,148.21s29.35-14.65,33.37-20.08-28.65,50.16-41.69,47.46S293.54,148.21,293.54,148.21Z"/><path class="cls-3" d="M242.41,209c-11,16.27-23.09,70.86-56.68,56.16,0,0-39.18-29.17,12.59-59.82C212.67,196.81,253.43,192.69,242.41,209Z"/><path class="cls-2" d="M268,186.74c7.83.88,25.28-16.09,29.59-33.76s-2.34-29.22-20.89-29.4-33.41.88-31.66,19.07S254,185.19,268,186.74Z"/><path class="cls-1" d="M268.83,177.79s7.52-8.59,6.63-17.87c0,0,8.41-6.09,3.1-10.56s-7.81-.06-7.22,4.36S272.37,174.44,268.83,177.79Z"/><path class="cls-4" d="M268,186.74c7.83.88,25.28-16.09,29.59-33.76,2.38-9.79,1.41-17.7-3.08-22.84,0,0,3.08,16-1,28.32C287.37,177.21,268,186.74,268,186.74Z"/><path class="cls-1" d="M255.53,141.18c1.36-5.57,45.57-3.34,45.57-3.34-1.84-9.11-12.22-14.66-24.92-14.78-18.55-.18-33.42.87-31.67,19.07,0,0,4.52,10.63,7.17,12.52S253.38,150,255.53,141.18Z"/><path class="cls-5" d="M98.86,125.86s-36,2.8-44,2.8-9.08,2-8.38,4.84c0,0-16.09-1.05-24.13-3.82S7.62,130.05,9,135.83,28.61,149,37.71,149.3s24.5,1.75,32.54,0c0,0-22.39,10.88-37.09,11.91s-27,.34-24.33,8.39S37,175.9,50.31,171a3.22,3.22,0,0,0,0,4.15s-4.05,10.61,3.4,11.63c0,0-33.84,17-43.29,20.56s-16.84,15.79-1.95,12.29,38.69-15.06,38.69-15.06a3.37,3.37,0,0,0,.7,2.77l1,1.1s-20.64,8.4-24.14,8.92-3.5,12.16,3.15,9.14,36.74-16.77,40.59-19.16c0,0,12.59-6.29,19.94-2.77,0,0-36.74,16.6-48.64,19.26s-19.24,9.8-15,12.95,28.34-3.85,49.33-12.25c0,0-23.09,14.7-20.64,22.4,0,0-18.2,10.5-16.45,19.24s8.75,4.9,15.75,0,4.55-4.2,10.15-6.65c0,0,20.64-9.45,26.94-7.35,0,0-11.55,5.41-11.55,11.28s1.75,10.7,8,4.61,8.4-9.93,9.8-9.93l7.7.69s-8.4,6.12-1.75,9.12,14-4.92,17.14-6.21h5.08s-4,3.55,1.57,6.21S143,268,143,268,105.6,282.42,91.6,283.38,72,286.8,75.15,290s18.2,5.26,31.15,1.41,9.09-2.1,9.09-2.1a10.57,10.57,0,0,0,9.8,1.75c5.95-1.74,10.15-2.79,10.15-2.79s-14,13.29-11.9,15.74,8.75,3.15,13.65-3.85,14-17.7,14-17.7,18.9-5.74,31.5-15.89,69.84-41,76-50.75,8.3-25.81,1.65-29a14.36,14.36,0,0,0-2.8-12.63,24.56,24.56,0,0,0-12.56-8.05s7.28-4,4.67-10.93-6.81-7.54-6.81-7.54,3.5-2.18,0-5.85c0,0-.2.83.18-1.31.46-2.63.87-5.58-3.33-6.93s-7.35-6.79-37.44-3.38S98.86,125.86,98.86,125.86Z"/><path class="cls-3" d="M97.32,173.89s-32.62,17.85-30.89,21S75.5,193,75.5,193l31-17.4Z"/><path class="cls-3" d="M60.46,194.79s-19.6,7-24.15,9.78S20.59,211,16.73,212.36s-18.07,3.76-11.21,5,23.92-7.17,25.43-7.87,20.62-7.7,20.62-7.7,10.16-.35,12.67-.35-10.36,2.06-7.77,3.13,19.1-3.8,24-5.2,37.05-21.58,37.05-21.58S72,197.59,60.46,194.79Z"/><path class="cls-3" d="M79.66,144.4s-21.25,1.21-31.42,1-17.53-1.17-22.07-2.81-14.8-5.17-6,0,16.57,5.88,24.38,5.61,31.25,0,31.25,0l7.25-.67Z"/><path class="cls-3" d="M64.24,162.64s-19.53,5.56-28.28,7-13.57,3.31-19.24,3,8.28,3,21.81,0,21.93-4.34,21.93-4.34,4.46-3.94,8.29-4.71S64.24,162.64,64.24,162.64Z"/><path class="cls-6" d="M239.61,175.55c-2.86,1.64-45.84,25.89-53.18,31.14S131.49,234,118.89,235s-52.48,16.45-52.48,16.45-17.85,9.44-1.4,4.2,44.43-12.6,49.33-12.6,37.44-5.6,52.14-14.35,42-24.84,42-24.84,8.4-2.8,11.55-2.8c0,0-28,29-34.64,36s-33.6,33.94-50.39,38.14-47.24,11.9-50.39,11.9-17.84,3.85,1.05,3.15,13.65-4.55,28.69-5.6,39.89-8.75,56-21.7,37.09-30.47,49-47.25,14.69-26.23,23.44-31.48,10.15-4.9,9.45-8.74S246.3,171.69,239.61,175.55Z"/><path class="cls-6" d="M130.79,152.28c-13.3,6.32-29.39,6.12-40.94,8.57-8.29,1.76,15.71,2.17,30.44-1,9.8-2.14,31.14-9.27,37.44-7,0,0-47.93,26.94-58.43,30.09-5.35,1.61-28.8,10.32-38.84,11.9-5.8.92,8.24,2.6,16.79.7,4.73-1.05,51.53-17.37,58.79-19.94,6.22-2.21,60.32-28.43,74.35-30.1,14.7-1.75,32.1-4.32,26.77,0-5.55,4.51-75.23,31.85-87.63,35.14-11.43,3-35.89,13.5-62.13,26.8C56.12,223.24,29,231.53,31.06,233.28c5.11,4.26,77.5-29.64,80.83-31.49,12.6-7,36.91-12.24,53.54-19.6,14.79-6.54,48-16,58.09-21.69,10.5-5.91,26-5.33,26-5.33-2.61-6.92-6.81-7.54-6.81-7.54s3.5-2.18,0-5.85c0,0-.2.83.18-1.31.46-2.63-10.68-6-40.77-2.63C170.51,141.43,145.14,145.45,130.79,152.28Z"/><path class="cls-6" d="M252.37,185s-23.6,23.06-33.05,38.1-33.24,30.8-35.34,32.55,36-24.46,47.93-35.33,23.21-17.48,27.3-23.81S257.77,185.06,252.37,185Z"/><path class="cls-6" d="M136.39,283.76s-11,2.36-16,3.93-3.15,2.63,3.15,1.58S136.39,283.76,136.39,283.76Z"/><path class="cls-6" d="M204.62,209.49s-22,24.14-44.88,31c0,0-15,7.35-26.24,7.35s-17.06,4.46-24.67,4.73-17.32,4.1-7.08,3.23,27-3.5,33.33-3.76,26-7.61,32-10.23,17.85-11.29,21.26-14.7S204.62,209.49,204.62,209.49Z"/><path class="cls-6" d="M117.49,257.23h-9.44s-4.47,3.67-3.94,4.46S106.6,266.88,117.49,257.23Z"/><path class="cls-6" d="M100.7,156.74s.61.26,5.81,0c0,0,4.42-4.2,17.81-6.56a186.17,186.17,0,0,0,19.42-4.2l-8.4-1.58S108.05,148.87,100.7,156.74Z"/><path class="cls-6" d="M81.28,172.65s-5,.44-6,0-11.55,2.72-12.86,4-8.92,2.1-8.92,2.1-5.77,3.41,2.89,2.36S72.35,174.14,81.28,172.65Z"/><path class="cls-6" d="M127,209.49c-7.82,1.9-31.45,14-42.35,21-9.83,6.3-22.65,13.11-28.13,20,0,0,11.07-4.38,16.67-6.83,0,0,23.21-14,27.56-15,10.08-2.19,29.31-11.59,32.28-12.85,5.13-2.2,20.41-8.06,35.16-14.7,15.75-7.09,28.61-13.21,39.11-18.11,12.85-6,37.65-16.88,37.65-16.88a11.41,11.41,0,0,0,4.88-5.71c.47-1.49-10.34,4.93-40.61,12.26C179.74,179.79,138.49,206.69,127,209.49Z"/><path class="cls-6" d="M51.57,255.76s-7.91,4.16-7.21,8.16,5.33-2.1,7.21-3.07S50,257.24,51.57,255.76Z"/><path class="cls-6" d="M80.56,156.86s-10.32,4-17.31,3.31-5.42,4.53.18,4.88c0,0,8.31-2.81,12.25-2.41,0,0,.47-2.45,4.14-2.47s.74,0,.74,0Z"/><path class="cls-6" d="M82.19,137.84s-27.16,1-32.41,0-8.39,2.21,0,3.86,28.59.45,32.41,0S82.19,137.84,82.19,137.84Z"/><path class="cls-6" d="M86.28,142.55s-7.84.28-7.34,3.69,10.74,1.25,10.74,1.25Z"/><path class="cls-6" d="M89.68,148.21s-7.88,1-8.4,2.42-.53,2.26,4.46,2.35a8.54,8.54,0,0,0,2.49-.37c-1.54.85-2.56,1.73-2.49,2.56.26,3.14.52,1.85,6,0s24.41-9.81,24.41-9.81Z"/><path class="cls-6" d="M120.64,184.28s-18.3,7.36-23.32,8.06c0,0-5.72,2.61-4,5.5s2.83,1,5.27,0S114.13,189.89,120.64,184.28Z"/><path class="cls-6" d="M120.64,167.15s-22.57,5.42-31,5.46-8.58,6-1.58,5.18,13.77-2.11,13.77-2.11-14.82,5.43-12.19,8.6c0,0,26.41-10.13,31-14.68C120.64,169.6,124.22,166.32,120.64,167.15Z"/><path class="cls-3" d="M140.26,286.72s.16-1,6.41-3c0,0-11.74,18.8-16.44,18.8S138.18,292.23,140.26,286.72Z"/><path class="cls-3" d="M130.23,260.85s35.84-10.77,41.29-15.67c0,0-21.05,18.48-27.74,20.09S122.33,265.67,130.23,260.85Z"/><path class="cls-7" d="M89.68,253.72s-1.2.91,3.34,4.06c0,0-10.37,8.09-9.92,10.28S75.47,262.45,89.68,253.72Z"/><path class="cls-8" d="M326.91,128.13s-23.09,35.17-40.41,44.62S253.43,192.69,242.41,209s-23.09,70.86-56.68,56.16c0,0,28.65,21.6,88.7,17.85,50.39-3.15,88.28-17.18,114.52-44.47s41.89-61.45,43.46-97.14S429.26,61.47,404.35,35c-24-25.5-66.94-39.11-100-33.87s-64.56,36.75-67.71,42.52,58.26,84.5,80.83,78.73Z"/><path class="cls-3" d="M326.91,128.13a63.81,63.81,0,0,1-3.52,9c-3.76,8.31,10.87,42.91,44.29,10.47,9.81-9.53,16.32-31.68,13.44-45.26-3.46-16.25-23.24-32.81-43.53-29.66-9.88,1.54-24.85,8.4-30.84,20-6.53,12.58-11.85,35.51,10.72,29.74Z"/><path class="cls-3" d="M264.11,54.22c7.79-4.82,30.79-22.49,56.77-26.51,27-4.18,57.64,11.81,61.23,13.47S350.7,10.07,316.6,16C286.07,21.28,257.46,39.78,255,44.68Z"/><path class="cls-9" d="M280.14,9.22s19.61,15.71,24.49,31.63c3.74,12.21,1.65,22.08,14.48,34.76,10.25,10.13,11.71,25.26,11.71,25.26"/><path class="cls-9" d="M268,45s14,18,21.65,34.6c8.27,17.85,24.46,27.14,27,28.38"/><path class="cls-9" d="M315.4,109.06s-15.25-5.73-26.28-23"/><path class="cls-9" d="M341.45,2.24S353.23,26.65,350.7,45s9.28,29.22,3.77,41.1-8.13,17.12-8.13,17.12"/><path class="cls-9" d="M318.17,19.49s7.43,23.57,9,33.7-1.11,23.71,3.64,30.69,2.9,16.5,2.9,16.5"/><path class="cls-9" d="M376,14.17s10.22,29.21.37,45.61"/><path class="cls-9" d="M416.94,52.72s.43,24.64-17.07,35.24-43.47,23.74-46.75,25"/><path class="cls-9" d="M427.76,87.36s-12.94,24.5-74.48,29.05"/><path class="cls-9" d="M432.69,135.83s-29.43,18.51-81.81-12.07"/><path class="cls-9" d="M426.93,174.18S373.16,147.92,352,124.4"/><path class="cls-9" d="M363.86,150s18.25,14.7,19.55,27.46c2.19,21.48,22.24,37.65,14.8,50.58"/><path class="cls-9" d="M296.12,177.79a43.13,43.13,0,0,1-11.37,7.55c-17.33,7.36-30,24.31-36.47,39.15-3.22,7.36-3.42,15.79-12.87,22.44"/><path class="cls-9" d="M330.82,138.77S316.6,174.18,297.59,189c-15.45,12.06-34.24,34-39.43,52.66-6,21.34-18.55,28.69-18.55,28.69"/><path class="cls-9" d="M343.36,133.5s5.81,31.2-1.91,49.39,9,28.15-4.56,47.24-41.56,30-43.35,51"/><path class="cls-9" d="M348.7,128.05s19.44,27.55,10.63,53.1-21.75,64.55-8.63,84.41"/><path class="cls-9" d="M365,171.06s14.15,57.92,3.69,84.39"/><path class="cls-9" d="M334.08,272.18s5.86-5.87,6.08-27"/><path class="cls-9" d="M252.21,283.41s20.17-7.89,27.93-28,12.13-32,25.34-45.26,22.95-29.75,25.34-40.59"/><path class="cls-9" d="M325.78,138.77s-14.66,30.83-28.19,41.67-35.23,19.6-45.38,49.34"/><path class="cls-9" d="M208.43,275.74s16.49-2.49,34.33-24.57"/><path class="cls-9" d="M252.21,235.38s7.7-7.81,11.9-16.67,5.94-11,14.34-19.37"/><path class="cls-9" d="M233.8,281.56S254,271.1,261.66,245.18s29.17-40.24,35.93-45.84,26.88-30.09,29.59-46.36"/><path class="cls-9" d="M335,137.84s-1.14,20.91-8.92,34.91"/><path class="cls-9" d="M326.12,194S301.21,227.33,298.05,242s-31,38-26.15,41.38"/><path class="cls-9" d="M292.3,253.72s-17,24.63-10.37,28.69"/><path class="cls-9" d="M242.76,282.61s21.35-9.89,26.94-27.16,6-24.27,16.64-33.72"/><path class="cls-6" d="M320.35,106.09c4.37,2.53,8.11,5.18,2.89,0-9.78-9.72-20.08-22.13-21.51-27.63-3.16-12.19-3.89-16.63-12.61-27.22a293.75,293.75,0,0,0-28.88-29.78c-3.95,2.9-7.54,5.82-10.67,8.57,0,0,13.43,12.55,23.81,18.32,10.19,5.67,15.13,21.87,23.09,34.91C302.89,93.76,312.27,101.4,320.35,106.09Z"/><path class="cls-6" d="M315.21,85.18h0a88,88,0,0,1-1.81-18.47c.19-7.54,2.09-11.53,2.39-20.06,3.87-8.79,3.16-29.49.75-36.37S307,.74,307,.74c-.88.11-1.75.24-2.61.37-1.75.28-3.5.63-5.23,1.05,0,0,7.46,2.41,11,9,1.69,3.15,1.05,4.67.13,5.68C304.89,8.83,296,3,295.23,3.2a92.33,92.33,0,0,0-12.82,4.93s8.87,2.37,13,5.06c1.93,1.24,9.31,6.57,13.39,13.12,6.68,10.73,1.24,21.05,1.05,27-.26,8-1.71,12.94-2.27,16.9a9.77,9.77,0,0,1-.48-2c-.93-9.89-6.63-26.51-14.31-38.3a100.51,100.51,0,0,0-16.37-18.84c-2.91,1.57-5.73,3.25-8.43,5a129.48,129.48,0,0,1,16.94,17.15c9.32,11.53,9.32,11.53,15.51,29.11,5.77,16.4,11.24,25.85,24.14,43l2.59-.88S320.78,94.75,315.21,85.18Z"/><path class="cls-6" d="M341.87,105.39c2.5-13.21-5-40.13-.52-55.2,4.83-16.32,3-22.38.52-33.85-1.74-8.09-7.08-15.22-7.08-15.22A114.21,114.21,0,0,0,320.88,0s9.45,8.53,11.74,19.73c3,14.43-1.87,26.23-1.05,38.84,1,15.72-.46,35.16,4.27,42.77C335.84,101.36,341.19,109,341.87,105.39Z"/><path class="cls-6" d="M372.05,16.6c-3.65-3.66-8.37-8-8.37-8-.85-.33-1.7-.65-2.56-1h0l-2.32-.82-.23-.08h0a131.92,131.92,0,0,0-13.25-3.75s7.76,5.66,8.58,19.54c1.1,18.68-8.88,40.56-9.53,53.32-.81,16-.44,19.36-1,27.8l2.45,1.68s1.35-12.55,2.62-24.23c.83-7.59,1.95-13.52,2.37-15.75a52.36,52.36,0,0,1,2.32-7.9c5.05-5.54,9-12,13.43-16.93C375,31.29,378.35,22.9,372.05,16.6ZM359,42a44.93,44.93,0,0,0,2.3-9.16c.77-6.92.28-17.79,0-22.67,1.53,2,3.55,4.68,5.7,7.77,2.69,3.89,3.24,11.75-1.49,17.52A80.16,80.16,0,0,1,359,42Z"/><path class="cls-6" d="M400.92,31.54a93.79,93.79,0,0,0-7.21-6.19s5.55,12.69,3,18.28c-2.23,4.92-4.16,4-7.86,8.63a39.29,39.29,0,0,0,3.52-9.16C395,31.77,387.79,21,385.53,19.6c-3.06-1.94-6.23-3.76-9.51-5.43,0,0,15.65,10.75,9.68,28.67-2.62,7.87-14.17,23.55-19.16,33.33-5.89,11.55-14.65,24.27-20.2,27.29l2.82,1.93c1-1.09,13.88-6.93,21.32-22.92a119.13,119.13,0,0,1,9.46-16c12.18-9.62,18.62-11.5,21-18.42C403.12,41.69,400.92,31.54,400.92,31.54Z"/><path class="cls-6" d="M353.16,112.65c3.93-7.26,20.2-15.12,32.07-26.52,11.49-11,17.69-15.21,23.91-23.37a20.13,20.13,0,0,0,3.95-16.57,80.46,80.46,0,0,0-5.58-7.62s4.17,16.7-8.69,27.74c-16,13.71-28.08,28.23-48.12,42.75Z"/><path class="cls-6" d="M429,88.07h0c0-.17-.07-.33-.1-.5-.1-.47-.2-.94-.29-1.4s-.25-1.18-.38-1.76c0-.16-.06-.32-.1-.48v0c-.62-2.79-1.31-5.56-2.09-8.3L423,79.19l.65-11.2a112.4,112.4,0,0,0-4.52-11s3.66,19.37-9.78,29.93c-7.42,5.84-10.73,10.07-20.73,14.72-16,7.43-31.23,9.79-35.88,11.52l-.13,1.23-.59.09.4,1.79-.28,2.69c1.68-.29,3.62-.74,5.77-1.31,9.85.4,22.9.42,34.68.35,14.92-.09,23.85,0,32.24-4.82,3.78-2.18,5.71-16.26,5.71-16.26C430.08,94,429.57,91,429,88.07Zm-12.07,21c-8.39,4.3-14.24.32-27.82,3.06-5.47,1.11-11.92,1.33-18.18,1.43,7.31-2.54,15.35-5.66,22.91-8.77a69,69,0,0,0,25.71-18.64c4.4,0,6.9.66,8.21,1.22C426.91,93.3,424.32,105.28,416.93,109.06Z"/><path class="cls-6" d="M417,154.2c-7-1.92-8.71-6.91-13.65-10.32-5.51-3.8-12.09-8.06-17.41-12.07,11.34-.09,24.79,1.27,33.63-.31,10.28-1.85,13-9.15,13-9.15-.13-4.75-.39-9.57-.82-14.39,0,0-2.16,12.86-14.06,16.5-17,5.21-51.52,3.71-67-5.51v4.47a87.57,87.57,0,0,0,17,6h0c5.78,2.72,13.91,5.3,20.67,11.48,7.62,7,18.2,19.73,26.24,22.4,10.16,3.37,14.43,3,14.43,3a136.71,136.71,0,0,0,3.42-24.94S425.66,156.58,417,154.2Z"/><path class="cls-6" d="M413.51,173.1c-5.51-1.64-5.07-8.23-14.22-9.95a39.51,39.51,0,0,1-9.13-3c-8.05-3.3-7.42-4.33-16-9.43-13.12-8.9-15.67-16.72-23.42-27.3V125c8.63,14.86,6.92,19.93,15.58,27.28,12.9,10.94,15.42,13.22,22.68,25.29,2.91,4.83,5.1,15.22,8,23a141.35,141.35,0,0,0,8.3,18.15q3.06-4.36,5.81-8.87s-9.2-18.55-13.33-30.44a48.31,48.31,0,0,0-3.81-8.35h0c8.87,1.51,11.8,9.86,17.12,12,7.58,3,12.91,0,12.91,0,1.07-2.93,2.05-5.89,2.92-8.87C426.93,174.18,422.27,175.7,413.51,173.1Z"/><path class="cls-6" d="M382.63,202.84c-4.46-5.07-4.63-6.82-4.63-15.47,0-11.15-8.31-16.9-11.89-23-5.88-10-4.29-16.76-19.77-33.53,2.32,3.68,4.16,6.74,5.65,9.44-1.29,22.69-7.26,35.28-2.51,46.56,7.35,17.42,3.2,28.53,1.22,44.36-3,24.27,18,24.27,18,24.27a126.24,126.24,0,0,0,11.86-9c1.11-1-20.45-6.24-19-22.26,1.4-15.39-1.87-34.67-7.39-50.79-3.51-10.23,1.58-24.45-1.32-31.55A73.19,73.19,0,0,1,358.93,157c4.3,14.64,12.3,20.26,13.65,35.34,1.54,17.15,7.35,18.9,9.53,29,2.9,13.48,2.47,21.44,2.47,21.44q2.24-2.1,4.37-4.32c1.38-1.44,2.73-2.89,4.06-4.37C393,234.13,396.2,218.24,382.63,202.84Z"/><path class="cls-6" d="M339.8,135.83c-1.16,9.45-4.27,28.44-10.26,45.31-6.13,17.29-6.3,38.11-5.6,58.44,1.05,30.44-25.89,41-25.89,41a213.45,213.45,0,0,0,31.52-6.93s3.58-22.46,1.54-41c-1.9-17.42-3.9-27.84,2-45.14,6.36-18.54,7.8-44.2,6.65-51.61Z"/><path class="cls-1" d="M326.91,128.13h0L305.48,141.7c4.34-11.34,4.46-27.39,4.46-27.39s11.15-13.19,24.85-14c11.55-.7,18.78,4.92,18.49,16.12-.19,7.7-6.63,15.41-12.54,18.9-7.05,4.15-15.68,4.72-14.35,1.4C327.79,133.21,326.91,128.13,326.91,128.13Z"/><path class="cls-8" d="M181.88,87.37c-11.55-2.8-38.49-2.1-64.74,12.94s-25.89,29.05-25.89,29.05S65,145.8,86.7,142.65c0,0-7.35,7.35,8.4,7.35s26.59-5.6,41.64-4.55,36-.35,45.14-3.15,32.19-12.94,43.74-12.94,9.79-.35,1.4-8.05S181.88,87.37,181.88,87.37Z"/><path class="cls-3" d="M181.88,87.37c-11.55-2.8-38.49-2.1-64.74,12.94s-25.89,29.05-25.89,29.05-9.31,5.83-12.26,9.89c-1,1.37,13,.28,14,.95s-10.71,3.09-6.33,2.45c0,0-2.87,2.87-1.18,5,1,1.29,7.52-.19,13.43-.19,15.74,0,23.09-9,38.14-8s33.94-.38,43-3.18,28-11.43,39.54-11.43,15.74,4.09,7.35-3.61S181.88,87.37,181.88,87.37Z"/><path class="cls-8" d="M177.51,122.94c1.41-.52,2.3-1.6,2-2.4s-1.68-1-3.08-.49-2.3,1.59-2,2.39S176.11,123.47,177.51,122.94Z"/><path class="cls-8" d="M158.62,122.42c1.4-.53,2.3-1.6,2-2.4s-1.68-1-3.08-.5-2.3,1.6-2,2.4S157.21,122.94,158.62,122.42Z"/><path class="cls-8" d="M167.54,128.71c1.4-.52,2.3-1.59,2-2.39s-1.68-1-3.08-.5-2.3,1.6-2,2.4S166.14,129.24,167.54,128.71Z"/><path class="cls-8" d="M109.23,122.14c1.13-1,1.59-2.3,1-3s-1.93-.37-3.07.61-1.6,2.3-1,3S108.09,123.12,109.23,122.14Z"/><path class="cls-8" d="M147.08,126.19c1.58-.59,2.68-1.56,2.46-2.17s-1.7-.61-3.28,0-2.68,1.56-2.45,2.16S145.5,126.78,147.08,126.19Z"/><path class="cls-8" d="M128.17,127.14c1.41-.53,2.31-1.6,2-2.4s-1.68-1-3.09-.49-2.3,1.59-2,2.39S126.77,127.66,128.17,127.14Z"/><path class="cls-8" d="M121.35,136.59c1.41-.53,2.3-1.6,2-2.4s-1.68-1-3.08-.5-2.3,1.6-2,2.4S120,137.11,121.35,136.59Z"/><path class="cls-8" d="M129.25,102.72a1.33,1.33,0,1,0-2-.26A1.39,1.39,0,0,0,129.25,102.72Z"/><path class="cls-8" d="M123.39,107.86c.9-.61,1.29-1.6.87-2.2s-1.47-.59-2.36,0-1.28,1.6-.87,2.2S122.5,108.47,123.39,107.86Z"/><path class="cls-8" d="M111.4,113.74a1.32,1.32,0,1,0-1.94-.26A1.38,1.38,0,0,0,111.4,113.74Z"/><path class="cls-8" d="M137.12,133.69a1.33,1.33,0,1,0-1.49-2.18,1.33,1.33,0,1,0,1.49,2.18Z"/><path class="cls-8" d="M139.74,99.05a1.39,1.39,0,0,0,.46-1.91,1.46,1.46,0,1,0-.46,1.91Z"/><path class="cls-8" d="M111.38,132.39c1.4-.53,2.3-1.6,2-2.4s-1.68-1-3.08-.5-2.3,1.6-2,2.4S110,132.91,111.38,132.39Z"/><path class="cls-8" d="M100.58,132.42a1.5,1.5,0,1,0-1-2.69c-1,.38-1.59,1.28-1.31,2A1.74,1.74,0,0,0,100.58,132.42Z"/><path class="cls-5" d="M175.23,85.62s44.51-47.81,54.23-53.19c20.56-11.37,10.39,0,19.25,6C255,42.58,271.87,36,272,58.71c.15,19.47,14.73,27.7,16.21,30.41,2.1,3.85,9.45,10.5,19.24,17.84s9.1,13.3,9.1,18.55S308.9,142.31,296,136s-17.5-17.5-46.54-16.8-100.86-.26-111.27,3.5c-14.1,5.09-29.39,7-32.54,6.65s10.84-16.45,18.54-21.7S146.89,89.47,175.23,85.62Z"/><path class="cls-6" d="M175.23,85.62s44.44-47.94,54.23-53.19a21.79,21.79,0,0,0,4.12,8.38c4.9,6.23,20.41,0,24.47,20.34,3.94,19.68,12.47,30.77,22.27,38.11s26.65,16.8,26.65,22,1.93,12.33-11,6-17.67-11.73-46.72-11S148.11,115.19,137.7,119c-14.09,5.08-32.49,8.9-31.11,6.81,3.41-5.14,12.07-14.36,17.55-18.1C131.84,102.41,146.89,89.47,175.23,85.62Z"/><path class="cls-8" d="M207.82,72.24c2.74-2.57,3.7-6,2.16-7.63s-5-.89-7.75,1.68-3.7,6-2.16,7.64S205.08,74.81,207.82,72.24Z"/><path class="cls-8" d="M224.46,71.72c1.76-1.65,2.39-3.83,1.42-4.87s-3.19-.54-4.95,1.11-2.39,3.83-1.42,4.87S222.71,73.37,224.46,71.72Z"/><path class="cls-8" d="M225.51,47.05c1.76-1.65,2.39-3.83,1.42-4.87s-3.19-.54-5,1.11-2.39,3.83-1.42,4.87S223.76,48.7,225.51,47.05Z"/><path class="cls-8" d="M219.69,94a2.36,2.36,0,1,0-3.28-.16A2.33,2.33,0,0,0,219.69,94Z"/><path class="cls-8" d="M211.74,84.17c1.3-1.22,1.77-2.83,1-3.6s-2.36-.4-3.66.82-1.77,2.84-1,3.6S210.44,85.39,211.74,84.17Z"/><path class="cls-8" d="M234.77,78.4a1.47,1.47,0,1,0-1.94-.18A1.39,1.39,0,0,0,234.77,78.4Z"/><path class="cls-8" d="M227.49,59.5c1.3-1.22,1.77-2.83,1-3.6s-2.37-.4-3.67.82-1.76,2.84-1,3.61S226.19,60.72,227.49,59.5Z"/><path class="cls-8" d="M224.79,80a1.37,1.37,0,0,0-.06-1.94,1.3,1.3,0,1,0,.06,1.94Z"/><path class="cls-8" d="M230,95.2A1.48,1.48,0,1,0,228.1,95,1.39,1.39,0,0,0,230,95.2Z"/><path class="cls-8" d="M243.69,61.08a1.47,1.47,0,1,0-1.94-.18A1.39,1.39,0,0,0,243.69,61.08Z"/><path class="cls-8" d="M151.84,96.24a1.38,1.38,0,0,0-.06-1.94,1.3,1.3,0,1,0,.06,1.94Z"/><path class="cls-8" d="M243.69,99.92a1.47,1.47,0,1,0-1.94-.18A1.39,1.39,0,0,0,243.69,99.92Z"/><path class="cls-8" d="M176.51,98.34a1.38,1.38,0,0,0-.06-1.94,1.3,1.3,0,1,0-1.88,1.76A1.38,1.38,0,0,0,176.51,98.34Z"/><path class="cls-8" d="M240.54,70a1.47,1.47,0,1,0-1.94-.18A1.39,1.39,0,0,0,240.54,70Z"/><path class="cls-8" d="M247.36,83.65a1.47,1.47,0,1,0-1.94-.18A1.38,1.38,0,0,0,247.36,83.65Z"/><path class="cls-8" d="M236.34,87.32a1.47,1.47,0,1,0-1.94-.18A1.39,1.39,0,0,0,236.34,87.32Z"/><path class="cls-8" d="M253.14,93.62a1.47,1.47,0,1,0-1.94-.18A1.39,1.39,0,0,0,253.14,93.62Z"/><path class="cls-8" d="M153.94,102a1.47,1.47,0,1,0-1.94-.18A1.39,1.39,0,0,0,153.94,102Z"/><path class="cls-8" d="M141.34,103.59a1.47,1.47,0,1,0-1.94-.18A1.38,1.38,0,0,0,141.34,103.59Z"/><path class="cls-8" d="M205.9,60a1.47,1.47,0,1,0-1.94-.18A1.39,1.39,0,0,0,205.9,60Z"/><path class="cls-8" d="M214.3,100.44a1.38,1.38,0,0,0-.06-1.94,1.3,1.3,0,1,0-1.88,1.76A1.38,1.38,0,0,0,214.3,100.44Z"/><path class="cls-8" d="M234.77,53.73a1.47,1.47,0,1,0-1.94-.18A1.39,1.39,0,0,0,234.77,53.73Z"/><path class="cls-8" d="M187,91a1.47,1.47,0,1,0-1.94-.18A1.4,1.4,0,0,0,187,91Z"/><path class="cls-8" d="M199.08,81.55a1.48,1.48,0,1,0-1.94-.18A1.38,1.38,0,0,0,199.08,81.55Z"/><path class="cls-8" d="M162.35,97.14c1.65-.67,2.66-2,2.26-3s-2.06-1.21-3.71-.54-2.67,2-2.27,3S160.7,97.82,162.35,97.14Z"/><path class="cls-8" d="M196.32,94.81c.89-.84,1.21-1.94.71-2.46s-1.61-.27-2.49.56-1.21,1.93-.72,2.46S195.43,95.64,196.32,94.81Z"/><path class="cls-8" d="M191.4,82.22c1.75-1.65,2.39-3.83,1.41-4.87s-3.19-.54-4.95,1.11-2.39,3.83-1.41,4.87S189.64,83.87,191.4,82.22Z"/><path class="cls-8" d="M173.85,92.45c1.14-.44,1.85-1.34,1.59-2s-1.39-.86-2.52-.42-1.85,1.34-1.59,2S172.72,92.89,173.85,92.45Z"/></g></g></svg>