<svg xmlns="http://www.w3.org/2000/svg" viewBox="0 0 135.18 41.88"><defs><style>.cls-1{fill:#f1ecce;}</style></defs><title>seaslugs_name</title><g id="圖層_2" data-name="圖層 2"><g id="seaslugs_name"><path class="cls-1" d="M1.45,16.76c4,0,8-.5,11.93-.54a1.5,1.5,0,0,0,0-3c-4,0-8,.51-11.93.54a1.5,1.5,0,0,0,0,3Z"/><path class="cls-1" d="M2.39,25.93l10.93-2.17c1.89-.38,1.09-3.27-.8-2.89L1.59,23c-1.89.37-1.09,3.26.8,2.89Z"/><path class="cls-1" d="M2.75,37.67a95.87,95.87,0,0,0,11.54-7.31c1.55-1.12.05-3.72-1.52-2.59A94.32,94.32,0,0,1,1.23,35.08C-.48,36,1,38.57,2.75,37.67Z"/><path class="cls-1" d="M16.3,1.62c.05,3.49.49,8.71,4.92,9.14,3.61.36,7.25-2.21,10.54-3.35,1.81-.63,1-3.53-.8-2.9-2.62.91-5.1,2.39-7.8,3.06-3.79.94-3.82-3.06-3.86-5.95,0-1.93-3-1.93-3,0Z"/><path class="cls-1" d="M17.39,16.89c-.07,4.84-2.74,14.63,2.16,18,2.3,1.59,5.5.63,8,.12a74.58,74.58,0,0,0,12.88-3.68c1.77-.71,1-3.61-.79-2.89A65.51,65.51,0,0,1,31.44,31c-2.38.62-7.42,2.59-9.72,1.49-3.8-1.8-1.38-12.18-1.33-15.64a1.5,1.5,0,0,0-3,0Z"/><path class="cls-1" d="M19.29,18.34c3.14-1.2,12.25-5.11,14.2-1.46,1.51,2.86,1,8.12,1.14,11.28.12,3.48.11,7,.11,10.42l1.5-1.5a7.74,7.74,0,0,1-3.4-.49C31,36,30.23,38.86,32,39.49a12.63,12.63,0,0,0,4.2.59,1.52,1.52,0,0,0,1.5-1.5c0-4.86,0-9.72-.3-14.57-.2-2.88,0-8-2.18-10.25-3.65-3.72-12.84.18-16.77,1.68-1.79.68-1,3.59.8,2.9Z"/><path class="cls-1" d="M25.78,18.85c.11,3.57.26,7.14.28,10.71a1.5,1.5,0,0,0,3,0c0-3.57-.17-7.14-.28-10.71-.05-1.93-3.05-1.94-3,0Z"/><path class="cls-1" d="M16.18,27.61c8.85-1,17.64-3.23,26.34-5.16,1.88-.42,1.08-3.31-.8-2.89-8.42,1.87-17,4.08-25.54,5.05-1.9.21-1.92,3.22,0,3Z"/><path class="cls-1" d="M49.56,13.81c.73,3.34.47,7.07.49,10.47a1.5,1.5,0,0,0,3,0v0a1.5,1.5,0,0,0-3,0v0h3c0-3.68.2-7.65-.6-11.26-.42-1.89-3.31-1.09-2.89.79Z"/><path class="cls-1" d="M52.85,16.88A7.52,7.52,0,0,1,60,16c2.1.87,2.54,2.31.58,3.69-1.56,1.11-.07,3.71,1.51,2.59,3-2.15,4-5.77.65-8.18a10.29,10.29,0,0,0-11.38.17c-1.58,1.08-.08,3.68,1.52,2.59Z"/><path class="cls-1" d="M52.49,25.71a29.15,29.15,0,0,0,9.57-3.41,1.5,1.5,0,0,0-1.51-2.59,26.59,26.59,0,0,1-8.86,3.1c-1.9.34-1.09,3.23.8,2.9Z"/><path class="cls-1" d="M71.89,7.15A110.6,110.6,0,0,1,83.57,4.56c1.89-.38,1.09-3.27-.79-2.9A112.62,112.62,0,0,0,71.1,4.26c-1.84.58-1.06,3.48.79,2.89Z"/><path class="cls-1" d="M68.9,16.94c5.72-.73,11.83-1.29,17.27-3.3,1.79-.66,1-3.56-.8-2.89-5.18,1.92-11,2.5-16.47,3.19-1.89.24-1.91,3.24,0,3Z"/><path class="cls-1" d="M76.48,5.71c-.27,5.32-.16,11-1.31,16.25-.42,1.88,2.47,2.68,2.89.79,1.22-5.49,1.13-11.44,1.42-17,.1-1.93-2.9-1.93-3,0Z"/><path class="cls-1" d="M70.64,22.36V36.77a1.5,1.5,0,0,0,3,0V35.33a1.5,1.5,0,0,0-3,0v1.44a1.5,1.5,0,0,0,3,0V22.36a1.5,1.5,0,0,0-3,0Z"/><path class="cls-1" d="M73.84,25.1c3.36-1.28,8.22-1.9,9.86,2.21a5.45,5.45,0,0,1-3.31,7.23c-1.82.61-1,3.51.8,2.89a8.48,8.48,0,0,0,5.4-10.93C84.53,20.7,78,20.31,73,22.21c-1.79.68-1,3.58.8,2.89Z"/><path class="cls-1" d="M72.14,38.27l8.65-.79c1.91-.17,1.93-3.17,0-3l-8.65.79c-1.9.17-1.92,3.17,0,3Z"/><path class="cls-1" d="M55.36,7.36V31.8a1.52,1.52,0,0,0,2.26,1.3,31.48,31.48,0,0,0,8.05-6.2l-2.5-.66c.9,4.57.4,9.54.54,14.19a1.5,1.5,0,0,0,3,0v-.88a1.5,1.5,0,0,0-3,0v.88h3c-.15-4.93.31-10.13-.65-15a1.51,1.51,0,0,0-2.51-.66,29.56,29.56,0,0,1-7.45,5.73l2.26,1.29V7.36a1.5,1.5,0,0,0-3,0Z"/><path class="cls-1" d="M93.55,16v8.85a1.5,1.5,0,0,0,3,0v-.11a1.5,1.5,0,0,0-3,0v.11a1.5,1.5,0,0,0,3,0V16a1.5,1.5,0,0,0-3,0Z"/><path class="cls-1" d="M96.62,18.61c2-.75,4.55-1.66,6.51-1a.85.85,0,0,1,.45.58,2.47,2.47,0,0,1,0,.55c0-.36,0,0,0,.11a4.91,4.91,0,0,1-.15.51,6.81,6.81,0,0,1-.83,1.38,5.59,5.59,0,0,1-1.76,1.4,5,5,0,0,1-4.44.12c-1.74-.78-3.27,1.8-1.51,2.59A8.33,8.33,0,0,0,105,22.52c2-2.47,2.45-6.56-1.15-7.81-2.57-.89-5.62.1-8,1-1.79.68-1,3.58.8,2.89Z"/><path class="cls-1" d="M97.63,11.92v21a1.52,1.52,0,0,0,2.26,1.3c3-1.5,5.28-4,7.88-6.06l-2.56-1.06V38.91a1.5,1.5,0,0,0,3,0v-.76a1.5,1.5,0,0,0-3,0v.76a1.5,1.5,0,0,0,3,0V27.08A1.52,1.52,0,0,0,105.65,26c-2.4,1.95-4.45,4.2-7.27,5.59l2.25,1.29v-21a1.5,1.5,0,0,0-3,0Z"/><path class="cls-1" d="M117.66.67c-3.22,4.69-7,9-10.57,13.46-1.19,1.5.92,3.63,2.13,2.12,3.7-4.62,7.67-9.17,11-14.06,1.09-1.6-1.51-3.1-2.59-1.52Z"/><path class="cls-1" d="M117.65,4.68c4.08.13,10.06,1.92,13.15,4.69,1.43,1.29,3.56-.82,2.12-2.12-3.71-3.33-10.37-5.41-15.27-5.57-1.93-.06-1.93,2.94,0,3Z"/><path class="cls-1" d="M114.1,14,125.18,11a1.51,1.51,0,0,0-.8-2.9l-11.07,2.92A1.5,1.5,0,0,0,114.1,14Z"/><path class="cls-1" d="M111.62,20.08c.47,5.65-.28,11.5-1.11,17.09-.28,1.89,2.61,2.7,2.89.8.87-5.86,1.71-12,1.22-17.89-.15-1.91-3.16-1.93-3,0Z"/><path class="cls-1" d="M113.12,21.58a68.33,68.33,0,0,1,7-.58l-1.5-1.5c.57,5.8,1.12,11.65,1.16,17.48l1.1-1.44a5.93,5.93,0,0,1-4.67-1c-1.65-1-3.16,1.59-1.51,2.59a9.3,9.3,0,0,0,7,1.32,1.49,1.49,0,0,0,1.1-1.45c0-5.83-.59-11.68-1.16-17.48a1.53,1.53,0,0,0-1.5-1.5,68.33,68.33,0,0,0-7,.58c-1.89.23-1.91,3.24,0,3Z"/><path class="cls-1" d="M114.1,26.77l6.42-1.16c1.89-.35,1.09-3.24-.8-2.89l-6.41,1.16c-1.9.35-1.1,3.24.79,2.89Z"/><path class="cls-1" d="M114.1,32c2.64-.66,5.23-1.39,7.26-3.3,1.41-1.33-.72-3.44-2.12-2.12-1.63,1.53-3.83,2-5.93,2.53-1.88.46-1.08,3.36.79,2.89Z"/><path class="cls-1" d="M124.5,20.48l1.17,8.16c.27,1.9,3.16,1.09,2.89-.8l-1.17-8.16c-.27-1.9-3.16-1.09-2.89.8Z"/><path class="cls-1" d="M131,17c.67,3.5,3.66,23.27-3.52,20.17-1.75-.75-3.28,1.83-1.51,2.59,12.4,5.35,9.07-17.53,7.93-23.56-.36-1.89-3.26-1.09-2.9.8Z"/></g></g></svg>