<svg xmlns="http://www.w3.org/2000/svg" viewBox="0 0 629.14 475"><defs><style>.cls-1{fill:#eef7f9;}.cls-2{fill:#080714;}.cls-3{fill:#e7bb1d;}.cls-4{fill:#d07e14;}</style></defs><title>seaslugs</title><g id="圖層_2" data-name="圖層 2"><g id="seaslugs"><path class="cls-1" d="M.81,380.09s18.61-26.61,42.39-35.27c0,0,39.8-41.23,67.46-54.41s148.44-34,208.62-20.9,143.93-65.17,182.7-58.2,60.48,56.61,55,71.34S545.4,306.53,522.14,314s-49.63,37.69-54.28,59.4S435.29,477.28,353.1,475,257.73,454,219,423.77s-117.85-57.38-173.3-44.19S.81,380.09.81,380.09Z"/><path class="cls-2" d="M70.11,319.42c12.75-11.12,27.92-23,40.55-29l37.28,52.34c-36.76,2.07-44.78-17.4-57.76-16.18-16.48,1.55-14.93,10.62-22.67,4.92C61.81,327.29,70.11,319.42,70.11,319.42Z"/><path class="cls-2" d="M353.1,361s6.82-19.65,23.83-23.65-24.35-14.86-31.58,2.72S352.65,362.13,353.1,361Z"/><path class="cls-2" d="M382.47,340.4s-11.73,9.71-15.8,15.91-4.72,13.42-8.14,14.74-4.54,4.17,1.16,1.74c7.76-3.29,9.78-9.05,15.12-14.15,4.82-4.6,11.07-6.33,21.71-12.91C400.94,343,382.47,340.4,382.47,340.4Z"/><path class="cls-2" d="M456.43,293.71s3.63-5.47,11.92-8.65,17.34,3,17.34,3A153.6,153.6,0,0,0,466,300.37C461.83,303.44,456.37,296.5,456.43,293.71Z"/><path class="cls-2" d="M99.16,357.09c-8.85-2-74.28-1.86-74.28-1.86A70.18,70.18,0,0,1,43.2,344.82s52.89-.75,82.32,2.19c42.65,4.26,68.24,19.77,110.11,47.84a153.56,153.56,0,0,0,100,25C369,416.63,412.36,390.38,422.5,366c18.58-44.65,60.82-73.37,92.66-89.95,4.51-2.35,18.61,2.71,18.61,2.71-5.16,9.16-13.57,18.15-36.83,25.59s-50.35,43.12-58.55,60.48c-22.87,48.47-64,74.44-129,69.4-43-3.33-79-30.78-96-40.28-27.82-15.57-35.55-26.4-57-26C130.65,368.41,124.75,362.91,99.16,357.09Z"/><path class="cls-2" d="M165.39,340.4s8.59,2.73,15.18-2.31,19.91-2.32,18.48,5.82,9.44,5.43,11-5.82S186,306.14,179,314,165.39,340.4,165.39,340.4Z"/><path class="cls-2" d="M123.6,346.83s64.73-9.95,98.46,14.31,72,27,94.36,26.58,17.68-6.59,43.66-10.47,35.7-27,43.49-28.63S428,340.4,428,340.4s-15.22,14.32-19.1,20.74-25.79,47.36-99.55,40.54-79-18.85-79-18.85-35.49-22.69-54.1-21.69S123.6,346.83,123.6,346.83Z"/><path class="cls-3" d="M.81,380.09a128.56,128.56,0,0,1,19.83-21.43c6.49-5.54,60.88,11.75,69.24,8.71,0,0,38.74-4.46,91.86,19.57C213.86,401.48,224,411.76,255,430.37c15.42,9.25,67.46,30.24,115.15,23.26,24.67-3.61,64-26,74.1-54.63,9.69-27.57,15.17-53,43.76-77.58,17.83-15.35,35.39-17.91,45.75-24.81a40.48,40.48,0,0,0,13.57-15.51c1.42-3.52,15.12-13.18,9.69,1.55S545.4,306.53,522.14,314s-49.63,37.69-54.28,59.4S435.29,477.28,353.1,475,257.73,454,219,423.77s-117.85-57.38-173.3-44.19S.81,380.09.81,380.09Z"/><path class="cls-1" d="M38.29,295.06s30.24-55.83,65.91-58.93c0,0,14,6.2,19.38,12.4,0,0,18.61-4.65,36.45-.77s36.44-17.84,48.07-25.59,65.13-10.08,99.25,6.2,62.81,31.8,95.38-.77S480.27,140,534.54,153.93s74.44,66,79.1,69.45,15.5,23.6,15.5,23.6l-8.52,4.65s-9.31,42.65-63.59,31-60.74-9-55,5.43c0,0,4.65,6.2-14,0s-45.49-2.59-26.88,7,6.2,22-2.07,29.2-61,35.16-71.85,20.68-47-16.54-34.89,14-17.84,23.26-29.73,22.23-26.36-1.55-53.24,10.85-66.17-17.57-70.31-48.07S184.58,325.3,167,339.26s-54.79-7.76-56.34-48.85c0,0-17.06,8-30,20.41,0,0-32.83-15.5-39.29-12.66S38.29,295.06,38.29,295.06Z"/><path class="cls-2" d="M585.68,184.64a165.85,165.85,0,0,1,22.07,29.74s-2.93.87-10.26-3.84c-7-4.49-5.25-13-5.82-14.73C590.18,191.29,590.51,191.08,585.68,184.64Z"/><path class="cls-2" d="M174,288.08c5.73,4.38,13.71,17.06,27,13.57s40.06,15.9,43.93,17.83,23.65,12.8,58.16,0,60.09-26.36,90.33-25.59,32.18-2.55,51.18-31.71,39.16-46.21,66.29-46.6c0,0,19.39-41.87,48.86-36.83s10.46,28.3,0,30.24a153.39,153.39,0,0,0,19.39-5.43c8.13-3.1,34.11,12.79,4.64,27.53s-32.56,4.65-42.64,2.71-38-7.36-56.05,7.95-37,18.54-40.49,32.05-3.1,24-29.08,30.95S362.79,317,357.37,325.62s-51.57,23.72-63.59,17.9-29.85,7.37-46.91-7S220.51,315.06,205.39,314s-21.71.09-31.41-10S139.73,261.9,174,288.08Z"/><path class="cls-2" d="M331.58,265.77c3.1-6.53,7.82-4.12,7.56,7s-1.83,9-8.48,10.92c-12,3.51-15.52,1.42-13.84-3.9.39-1.25,4.24-3,2.46-4.31-3.49-2.59.39-10.07,2.41-9.57C326.86,267.2,330.17,268.76,331.58,265.77Z"/><path class="cls-2" d="M287.58,276.45c-6.2,1.16-8.82-12.54-2-13.7s10.36.77,11.65-1.16,11.12-5.71,11.89,4.18-.52,9.39-3.62,12-10.34,2.84-13.7,0S287.58,276.45,287.58,276.45Z"/><path class="cls-2" d="M545.1,157.27a101.87,101.87,0,0,0-10.56-3.34c-17.48-4.49-34-1.83-49.45,4.94A55.47,55.47,0,0,0,514,163.76c16.61-1.63,18.17-4.68,23.65-4.66S545.1,157.27,545.1,157.27Z"/><path class="cls-2" d="M402.73,227.6s22.89-24,36.26-36.38a74.75,74.75,0,0,0,13.1-1.62c12.93-2.84,20.68-10.34,33-11.89,10.39-1.31,19.21-.77,33.52-9.82,11.89-7.52,29.09-9.61,29.09-9.61a107.32,107.32,0,0,1,31.44,20s-8.64-3.14-27.27-5.36c-9.57-1.14-21.43,4-30.25,8.68s-15.11,11.14-25.15,11c-10.23-.16-6.57,3.36-18.27,5-22.42,3.2-31.79,0-50.66,14.74C405.26,229.74,402.73,227.6,402.73,227.6Z"/><path class="cls-2" d="M210.43,281.88c5,2.71,16.06,10.08,29.74,2.32s19.88-6.28,36.94,3.45,64.36,15.16,97.7-10.43,60.1-55.44,84.13-63.58,28.69-8.92,20.94-4.26S427.93,252,419.4,265.77,373.26,309,356.59,308.24s-27.14,1.94-31,3.1-28.11,7.37-46.23-4.65-29-7.37-36.73-4.65-29.86,12-43.81-7.76-20.85-20.55-28.26-22.1-27.57-7.39-4.7-6.41,22.88-1.34,27.92,2.92S210.43,281.88,210.43,281.88Z"/><path class="cls-2" d="M302.68,226.31q2.38,1,4.67,2.06c30.27,14.45,56.27,28.28,84.49,8.48,0,0-14.7,17.11-33.7,19.83s-21.32-5.05-31.4-9.7-14.35,6.21-16.67,0-8.15,3.2-13.57-2.47-17.43-19.08,6.18-18.2Z"/><path class="cls-2" d="M202.67,253.35s-7.75,14.18,10.08,12.24,16.29-9.94,32.57-5.74,37.57-26.71,33.52-32.39-29.64-5.57-42.82,0S204.24,245.88,202.67,253.35Z"/><path class="cls-3" d="M130.65,253.59a316.87,316.87,0,0,1,39.89-2.73c20.89,0,29.42-18.22,38.34-22.1s1.94,7,1.94,7-11.25,10.08-13.57,13.57-7.37,17.83-28.31,14.34S139.87,262,139.87,262Z"/><path class="cls-3" d="M120.09,246.06l-.17-.87a215.5,215.5,0,0,1,19.76,16.44.56.56,0,0,1,.19.34c.18,8.26,2.72,44,32.7,56,0,0,11.88-12.79,26.23-10.47s17.44,17.06,22.87,33.73,13.18,29.86,32.57,27.14,31.4-10.46,49.24-7.75S336,358.64,338,342s13.57-29.85,43.42-22.49,68.24-8.53,75.22-17.06c0,0-16.29-11.63-12.8-25.2s19-14.81,27.53-13,23.65,5,26.36-4.35,8.14-11.7,28.69-7.05,76.25,15.64,86.39-30.32c0,0,1.79,1.71,2.31,2.29,3.64,4,9,13.33,9.94,14.92,0,0-7.86,9.23-7.69,15.05s-29.69,36.76-74.66,20.93-45-.38-43.81,1.17,5,14-22.88,5.81-31.79,7-22.87,14.52,13.57,8.74,8.91,18.44-46.52,40.7-71.33,25.58-24.43-13.18-31-12-19.38,15.5-14.34,32.95,8.14,20.94-13.19,19.39-41.58-2.22-53.5,3.87c-23.52,12-71.85-.9-78.31-43.55-3.64-24,7.36-41-38.77-4.52,0,0-39.94-17.06-39.94-46.91S120.09,246.06,120.09,246.06Z"/><path class="cls-3" d="M104.39,246.06s1.36-1,6.79,5.19c0,0-5.85,11.4-13.57,17.83-11.64,9.69-9.7,18-21.08,31.67-1.58,1.89-6.41,5.39-6.41,5.39S62.54,303,58.59,301.6a168.48,168.48,0,0,0,15.07-21.87A93.88,93.88,0,0,1,104.39,246.06Z"/><path class="cls-3" d="M38.29,295.06s20-36.86,46.58-52.34c0,0-13,9.51-27.25,33.35-4.22,7.06-12,21.9-12,21.9a8.62,8.62,0,0,0-4.27.19C34.93,301,38.29,295.06,38.29,295.06Z"/><path class="cls-4" d="M254.62,251.89a92.09,92.09,0,0,0,24.82-25.33c10.85-16.54,17.65-53.18,0-70.82C262.72,139.05,252,134,246.87,126.8s-1,12.14,4.14,15.76,5.17,11.63,5.17,11.63-8.39-9.1-17.58-13.44c-10.68-5-17.06-8.19-23.78-15.72s7,19.08,18.09,26.68c7.27,5,22,26.78,22,38.67S253.07,209,253.07,209s-11.14-8.82-10.33-14.48c1-7.23-1.56-23.26-6-24.55-2.22-.65,1.16,7.53-1.81,12.15a63.48,63.48,0,0,0-5.17,10.34s-6.46-2.07-5.94-12.93-7.76-26.52-10.34-29.2.26,23-3.36,26.62-7.24,20.68-6.21,23.26c0,0-6.46-17.06-18.6-26.88-8-6.45-11.64-5.43-14.22-9s3.49,9.75,11.63,17.32c1.74,1.62,4.76,18.47,5.69,27.14.33,3.08,3.62,22.49,22.23,35.41S248.42,252.93,254.62,251.89Z"/><path class="cls-4" d="M501.85,154.84s12.15,12.28,26.88,1.94V109s-1.68-6.46,2.45-11.11S540,60.11,519.81,41s-26.75-17.71-29.46-30.5-5-12.8-5.82-5.82,1.16,24.42,4.27,32.57S502.37,64,506.24,77.17s4.73,27.14,3.34,37.22Z"/><path class="cls-4" d="M550.83,184.56S552.38,195,569.05,197c0,0,15.51-23.26,16.28-39.16s4.27-16.28,4.27-16.28S620.23,121,617.13,96.94s-12.41-33.73-12.41-43-1.16-11.63-.39-18.22,0-7-7,3.49-15.51,41.09-15.89,58.93,0,31-4.66,36.83S552,178.36,550.83,184.56Z"/></g></g></svg>