<svg xmlns="http://www.w3.org/2000/svg" xmlns:xlink="http://www.w3.org/1999/xlink" viewBox="0 0 330.98 586.92"><defs><style>.cls-1{fill:none;}.cls-2{fill:#ebe4cb;}.cls-3{fill:#d3b475;}.cls-28,.cls-3{opacity:0.5;}.cls-4,.cls-5{fill:#d6a93a;}.cls-5{opacity:0.7;}.cls-6{fill:#837c4b;}.cls-7{fill:#c4c02e;}.cls-8{fill:#f3efdf;opacity:0.8;}.cls-9{fill:#cfb38e;}.cls-10{fill:#9d9476;}.cls-11{fill:#bfb99c;}.cls-12{fill:#e4ab90;}.cls-13{fill:#cc8464;}.cls-14{fill:#d6c26b;}.cls-15{fill:#95d2d4;}.cls-16{fill:#7bc7c4;}.cls-17{clip-path:url(#clip-path);}.cls-18{fill:#558f8d;}.cls-19{fill:#e8dde6;}.cls-20{fill:#e2cddf;}.cls-21{clip-path:url(#clip-path-2);}.cls-22{fill:#beb5bd;}.cls-23{fill:#d7d9d9;}.cls-24{fill:#bdcfce;}.cls-25{clip-path:url(#clip-path-3);}.cls-26{fill:#9ea9a8;}.cls-27,.cls-28{fill:#867d4b;}</style><clipPath id="clip-path"><path class="cls-1" d="M183,508.78S135.52,537,96.42,529,40,514.85,40.1,496.62s20.77-23.37,37.68-26.91,53.57-9.16,68.4-4.84,35.12,9.47,34.3,19.27S183,508.78,183,508.78Z"/></clipPath><clipPath id="clip-path-2"><path class="cls-1" d="M.07,450.38s23.64-5.44,41.38,4.38c16.07,8.9,27.17,25.69,23.29,38.38s-31.67,14.49-44.36,13.29A107.7,107.7,0,0,1,.07,502.8Z"/></clipPath><clipPath id="clip-path-3"><path class="cls-1" d="M153,499.38c7.41-38.2,28.72-50.54,71.45-42.08s92,43.14,85.68,74.06-18,31.58-55.65,28.48S142.58,553.26,153,499.38Z"/></clipPath></defs><title>02_bg</title><g id="圖層_2" data-name="圖層 2"><g id="_02_bg" data-name="02_bg"><path class="cls-2" d="M331,586.92c-9.65-40.42-9.87-46-46.07-55.54s-21.86-35.91-6.14-68.69c13.77-28.71,14.92-62.76-26.1-74.67s-47-51.88-51.87-61.4-4.59-37.79-9.41-54.46,6.21-64.27,1.39-85.7-74.8-9.52-96.51-19,14.48-47.62,14.48-47.62,67.55,7.14,60.31-14.67-98.92,5.14-118.22,0-24.13-21,2.41-23.43,111-7.14,101.34-15.71S36,65,48,44.63,130.67,31.3,140.32,0H0V586.92Z"/><path class="cls-3" d="M14.1,0l3,16.24s-4.69,6.54-1.52,9.27,18.15,10.9,18.15,10.9V54.68L23.38,62s13.78,4.09,13.72,4.9-3.86,14.55-3.86,14.55l-9.86,37.83,24.94,13.13L52,154.9l23.1,13.89,8.14,31.49s24,2.46,27.06,16.56-1.45,39.44-1.45,39.44l25.28,17.63-36.83,41,3.61,26.76L71.65,364.9l14.72,19.31,45.71,11.86,0,61.9L96.59,513,111,541.48l-10.62,13.24L133.17,567l64.94,19.93H0V0Z"/><path class="cls-4" d="M89.41,156.07c1.76-3.95,2.11-3.28,3.68-6.44s2.11-7.66,4.12-11.46,5.06-4.64,6.16-6.48.74-4.37,2.77-7.93,4-3.91,5.72-6.07,1.9-3.87,3.58-6.26,4.8-3,6.46-4.22a57.24,57.24,0,0,0,4.42-4c.91-.91,1.33-.26.73,1.15a32.66,32.66,0,0,0-2,5.54c-.42,2.51-.74,5.53-1.67,7.71s-3.67,5.06-5,7.67-1.33,4.93-2.59,7.13-4.52,4.51-6.09,7-1.88,4.81-2.72,6.81-3.57,4.89-5.68,6.55a21.35,21.35,0,0,0-5,5.57,20.08,20.08,0,0,1-5.47,5.77c-2.13,1.41-3.11,1.49-4.75,4.37s-3,5.08-3,5.08-1,.31-.25-.93,4.66-7.35,5-8.24S87.65,160,89.41,156.07Z"/><path class="cls-5" d="M68,161.13c-3.48-3.07-2.62-3.34-5.33-6s-7.32-4.33-10.53-7.67-2.8-7.3-4.31-9.06-4.38-1.9-7.33-5.21-2.46-5.86-4-8.44-3.34-3.21-5.19-5.83-1.1-6.6-1.75-8.93a55.25,55.25,0,0,0-2.37-6.36c-.58-1.33.31-1.7,1.56-.65a27.88,27.88,0,0,0,5.11,3.66c2.51,1.08,5.62,2.15,7.56,3.79s3.85,5.67,6.08,7.91,4.72,2.75,6.54,4.8,2.9,6.61,4.88,9.09,4.35,3.41,6.15,4.89,3.71,5.51,4.58,8.5a20.94,20.94,0,0,0,3.81,7.5,19.84,19.84,0,0,1,3.83,8.05c.61,3,.26,4.18,2.65,6.86s4.15,4.89,4.15,4.89-.07,1.25-1.1.1-5.89-7.42-6.71-8S71.5,164.19,68,161.13Z"/><path class="cls-4" d="M64.25,145.21c-4-6.87-2.23-6.87-5.13-12.65s-9.78-11-13.06-18.15.23-13.48-1.17-17.18-6.34-5.42-9.17-12.41-.21-10.93-1.16-16-3.6-7-5-12.32S32.28,45,32.79,40.87a89.81,89.81,0,0,0,.32-11.71c-.08-2.5,1.74-2.65,3.2-.26,2.11,3.47,4.61,7.21,6.38,8.71,3.64,3.08,8.33,6.49,10.57,10.2S56,59.16,58.36,64s6.34,7,8.09,11.32.43,12.4,2.15,17.54,5.22,7.88,7.32,11.27,2.63,11,2.06,16.39a32.32,32.32,0,0,0,1.39,14.33,31,31,0,0,1,1,15.28c-1,5.18-2.49,7-.2,12.68S84.06,173,84.06,173s-1,2-2-.41S77,157.34,75.91,156,68.21,152.09,64.25,145.21Z"/><path class="cls-6" d="M80.15,138.56c-.05-8.07,1.78-7,2.19-13.56s-3.78-15-2.93-22.92,8.38-11,9.12-14.89-3.46-8.33-2.26-15.83,6.38-9.14,8.43-13.91.44-8,2.13-13.21,9.8-7.8,12.86-10.92a78.68,78.68,0,0,0,7.42-9.47c1.41-2.12,3.44-1.13,3.54,1.73.16,4.15.56,8.76,1.53,11.07,2,4.76,4.94,10.42,5.08,14.85s-3.91,11-4.36,16.48,2.51,9.63,1.76,14.27-7,10.49-8.3,15.77.79,9.69,1,13.76-3.86,10.7-7.72,14.78a26.91,26.91,0,0,0-7.16,12.68,26.21,26.21,0,0,1-8.11,13.24c-4.22,3.65-6.89,4.28-7.86,10.34s-2.09,10.77-2.09,10.77-2.31,1.06-1.88-1.56,3.81-15.72,3.52-17.48S80.2,146.65,80.15,138.56Z"/><path class="cls-7" d="M66.37,150.12c-3-5.66-.47-5.74-2.4-10.52s-10.09-8.88-12-14.83,6-11.48,5.44-14.56-7.24-4.32-8.57-10.13,4.28-9.29,5-13.56-2.45-5.83-2.34-10.25,8.88-9.86,11.41-13.42a66.23,66.23,0,0,0,5.4-10,2.73,2.73,0,0,1,4.9-.36c1.72,2.85,3.91,5.92,5.93,7.11,4.18,2.46,9.8,5.14,11.61,8.2s-.61,9.52.86,13.55S98.17,87,99,90.62s-4.55,10.53-4.13,14.81,4.53,6.47,6.28,9.25-.67,9.25-3.8,13.85-4.41,8.73-3.91,12.12-1.13,8.48-4.84,12.93-6.68,6.09-5.61,10.79a79.85,79.85,0,0,1,1.48,8.51s-2.38,1.78-2.84-.26-1.25-12.76-2.24-13.88S69.43,155.79,66.37,150.12Z"/><path class="cls-8" d="M79.69,154.36c-.62-4.38.1-4-.24-7.61S77,139,76.73,134.61s2.11-6.89,2.08-9.09-1.82-4.15-2-8.35,1.55-5.67,1.91-8.49-.44-4.39-.23-7.41,2.84-5.31,3.68-7.34a55.85,55.85,0,0,0,1.88-6c.34-1.31,1.12-1,1.37.55a30.15,30.15,0,0,0,1.35,5.84c1,2.37,2.49,5.13,2.87,7.52s-.55,6.44-.3,9.44,1.58,5,1.67,7.56-1.68,6.47-1.73,9.48,1,5.18,1.36,7.37-.56,6.23-1.6,8.88a21.13,21.13,0,0,0-1.56,7.67,19.93,19.93,0,0,1-1.85,8.08c-1.2,2.45-2.08,3.08-2,6.49s.07,6.08.07,6.08-.72.82-.77-.64.17-9-.06-9.89S80.3,158.75,79.69,154.36Z"/><path class="cls-9" d="M67.73,160.22c9.1,2.83,19.06,12.19,19.1,20.54S63.62,198.29,55.37,195s-18-13.35-11.25-21.7S58.89,157.47,67.73,160.22Z"/><path class="cls-10" d="M109.57,161.63c20.55.71,30.63,21,30.63,26.39s-6.38,13.77-25.72,15.3-46.22-6.11-44.76-22.18S109.57,161.63,109.57,161.63Z"/><path class="cls-11" d="M111.53,397.63c20.62-.71,24.89,14.22,25.6,24.88S111,439.58,99.52,439.58s-29.94-21.38-20.7-30.25S111.53,397.63,111.53,397.63Z"/><path class="cls-12" d="M165.88,411c-5.43,1.75-13.19-5.83-14.08-12.57s-6.11-18.11-14.8-18.23-10.65,6.87-13.89,7.41-4.76-3.21-6.12-6.1-7.93-8.92-12.11-8.67S84,373.17,87,361.35s21.74-.26,24.51.39,20.3,4.43,21.93-.51-4.42-11.94-8.64-11.91-6.78,3.34-9.74,2.94-10.27-5.64-13.4-7.12-10.78-6-14.46-5.39-12.62,3-14.53.85S71.11,330,67.59,326.1s-9.52-6.44-13.91-6.15a23,23,0,0,1-13-3.19,31.39,31.39,0,0,0-10-3.69c-2.31-.51-4.42-7.94,2.32-8.83s1.75-11,.7-14.57,1.6-7.82,5.89-3.42S51.1,304.37,55,306.61s11.06,6.39,13.84,5.71,5.95-.31,8.93,3,7.06,6.39,7.21,1.92-.4-10.16,3.3-10.77,7.13,7.94,9.5,14.21,10.55,11.38,15.53,11.89,11.93.91,10.28-9-10.85-30.66-15-39.54-6.59-38.48-3.62-43.42,11.25-5.86,11,4.41-.86,23.05,1.12,25.61,5.92-4.54,8-5.11,4.18,2.42,3.78,9.38,1,8.51,1.93,7.68,6-9.44,4.68-18.78,6.72-14.45,11.19-10.3.23,14.86-1,18.39-11.17,23.86-10.42,29.74,3.81,35.16,7.84,40.72,10.55,12.7,18.56,6S172.33,329,167.22,325s-16.87-9.21-17.55-13.33,8.45-5.39,11.26-5.86,3.16-13.19,3.85-17.09,5.09-6.84,8-5.11,1.47,8.88,1,14.29,1.83,25.48,7.2,28.59,8.3.63,8.74-3.44.81-12.58-1.49-18.43-6.42-24.06-2.09-31.44,7.26-4.54,7.65.51S193,284,196.73,290.74s8.39,5.28,7.71,1.17-6.47-17.61,3.37-17.23c0,0-2.08-11.22,1.53-12.26a8.25,8.25,0,0,1,7.57,1.42c1.51,1.08,2.75-4.9,5.31-8.22s6.79-4.68,8.19-.24-1.49,11.14-1.49,11.14,5.22,2.47,4.67,7.67-8.52,12.08-12.13,17.13-8.49,10.52-8.14,18,.67,9.45.67,9.45,8.15-.46,11.73-4.39,7.43-6.12,9.31-4.21-1.61,13.16-10.45,16.18.28,7.07,2.08,8.55,3.17,5.7-.48,7.86-10.88-2.65-14.88-2.65-16.2.68-19.41,2.54-18.81,19.12-21.17,31.73S174.32,408.27,165.88,411Z"/><path class="cls-13" d="M120.81,415.57c6.75,2.26,16.53-7.1,17.72-15.51s7.84-22.52,18.68-22.56,13.2,8.7,17.24,9.41,6-4,7.71-7.54,10-11,15.21-10.67,26,.67,22.47-14.12-27.12-.58-30.59.2-25.37,5.28-27.35-.9,5.66-14.85,10.92-14.76,8.43,4.25,12.12,3.79,12.88-6.91,16.81-8.72,13.51-7.36,18.09-6.56,15.71,3.87,18.12,1.23,2-13.25,6.49-18,11.94-7.91,17.43-7.5a28.68,28.68,0,0,0,16.23-3.83A39.64,39.64,0,0,1,290.56,295c2.88-.61,5.61-9.85-2.79-11s-2-13.69-.7-18.18-1.9-9.77-7.3-4.33-14.49,22.46-19.42,25.21-13.87,7.85-17.33,7-7.42-.47-11.19,3.59-8.88,7.89-9,2.31.63-12.67-4-13.48-9,9.82-12,17.62-13.3,14.06-19.51,14.64-14.9,1-12.73-11.4,13.91-38.12,19.17-49.14,8.68-47.93,5-54.12-14-7.45-13.72,5.37.79,28.75-1.71,31.93-7.33-5.73-10-6.47-5.25,3-4.83,11.65-1.3,10.61-2.5,9.56-7.37-11.84-5.61-23.48-8.22-18.11-13.84-13-.47,18.53,1,22.95,13.65,29.89,12.65,37.22-5.18,43.82-10.28,50.7-13.31,15.73-23.22,7.32-13-24.22-6.56-29.2,21.15-11.3,22-16.42-10.47-6.83-14-7.45-3.78-16.49-4.6-21.36-6.27-8.6-10-6.47-1.94,11.05-1.46,17.8-2.58,31.77-9.33,35.59-10.36.69-10.85-4.4-.86-15.71,2.08-23,8.3-29.94,3-39.2-9-5.75-9.54.55.94,12.94-3.79,21.28-10.52,6.49-9.62,1.37,8.28-21.89-4-21.54c0,0,2.73-14-1.76-15.31a10.3,10.3,0,0,0-9.46,1.68c-1.9,1.33-3.37-6.15-6.53-10.31s-8.41-5.92-10.21-.4,1.73,13.91,1.73,13.91-6.55,3-5.93,9.52,10.5,15.17,14.94,21.51,10.47,13.22,9.94,22.57-1,11.78-1,11.78-10.17-.67-14.58-5.61-9.2-7.72-11.56-5.36,1.84,16.44,12.83,20.31-.43,8.81-2.7,10.64-4,7.07.51,9.81S60,326.58,65,326.62s20.21,1,24.18,3.4,23.24,24.08,26,39.84S110.32,412.07,120.81,415.57Z"/><path class="cls-14" d="M148.44,401.78c27.9-5.37,55.7,26.52,59.24,37.13s-23.88,26.53-47.75,29.18-61-8-53.05-28.29S125.45,406.2,148.44,401.78Z"/><path class="cls-15" d="M184.28,507.57s-47.48,28.18-86.57,20.19-56.47-14.12-56.33-32.35S61.12,466.07,78,462.53s53.94-11.33,68.76-7,35.81,17.6,35,27.4S184.28,507.57,184.28,507.57Z"/><path class="cls-16" d="M184.28,507.57s-47.48,28.18-86.57,20.19-56.47-14.12-56.33-32.35S62.16,472,79.07,468.5s53.57-9.16,68.39-4.84,35.13,9.47,34.31,19.27S184.28,507.57,184.28,507.57Z"/><g class="cls-17"><path class="cls-18" d="M187,483.73s-40.07-14.15-69.07-1.92-23.73,21.58-38.82,20.53-31-15.43-31-15.43l-23.39,4.9,5,38.58L155.08,547.5l43.3-45.16Z"/></g><path class="cls-18" d="M116,476.45s5.24,1.61,8.66,0,1.41-3.42-2-3.42S116,476.45,116,476.45Z"/><path class="cls-18" d="M109.38,482.34c2.57-1.87,1.66-3.22,0-3.22s-2.57.26-2.87,1.79S109.38,482.34,109.38,482.34Z"/><path class="cls-15" d="M91.45,490.24c-3.93,2.87-9.52,6.95-7.4,7.25s9.06-3.84,10.87-5.77S91.45,490.24,91.45,490.24Z"/><path class="cls-19" d="M0,444.21s31.79-5.32,45.69,6.7,22.87,29.54,19,42.23S33,507.63,20.32,506.43A107.71,107.71,0,0,1,0,502.8Z"/><path class="cls-20" d="M0,450.38s23.64-5.44,41.38,4.38c16.08,8.9,27.18,25.69,23.29,38.38S33,507.63,20.32,506.43A107.71,107.71,0,0,1,0,502.8Z"/><g class="cls-21"><path class="cls-22" d="M0,466.38s6.42-5.74,20,0S34.21,486.3,45.69,485.7s17.52-5.42,21.74-5,1.61,26,1.61,26L0,509.68Z"/></g><path class="cls-22" d="M40.1,481.48c1.06.91,2,1.67,2.87,1.21s-.31-3.17-1.44-3.17S40.1,481.48,40.1,481.48Z"/><path class="cls-22" d="M50.75,483.15c2.18-.44,4.86-1.08,4-2s-4.43-.06-5.56.54S49.36,483.42,50.75,483.15Z"/><path class="cls-19" d="M19,463.3c2.26,1.12,5.13,3.69,6,2.78s-5.44-5.59-7.7-5.59-3,.94-2.27,1.61S19,463.3,19,463.3Z"/><path class="cls-23" d="M153.11,499.38c7.42-38.2,28.73-50.54,71.45-42.08s92,43.14,85.68,74.06-18,31.58-55.64,28.48S142.65,553.26,153.11,499.38Z"/><path class="cls-24" d="M153.11,499.38c7.42-38.2,52.6-36.73,73.19-32.09,19.78,4.45,90.24,33.15,83.94,64.07s-18,31.58-55.64,28.48S142.65,553.26,153.11,499.38Z"/><g class="cls-25"><path class="cls-26" d="M153.74,493.26s13.59-7.85,35.94-4.53,31.41,32.32,56.18,34.74,77.32,0,77.32,0l-8.76,47.72L152,563.64,127.16,498.7Z"/></g><path class="cls-26" d="M197.51,487.52s3.18,4.48,5.72,2.64,1.28-4.65-.91-4.45A13.76,13.76,0,0,0,197.51,487.52Z"/><path class="cls-23" d="M250.06,519c5.44,1,14.5,2.21,16.11,1.41s-8.87-4.56-13.7-5.4-9.86-2.18-8.65,0S250.06,519,250.06,519Z"/><path class="cls-26" d="M288.12,519.34c1,1.41,2.21,2.74,7.05,1.47s0-2.76-2.22-3.42S288.12,519.34,288.12,519.34Z"/><path class="cls-24" d="M203.22,494.38s4.22,49.93-30,48.57c0,0,10.45,5.72,13.64,6.11s31.86-17.75,27.94-44.62S203.22,494.38,203.22,494.38Z"/><path class="cls-26" d="M211.83,498.06c3,2.11,4.89,3.91,6.62,2.66s-5.29-6-6.23-6.67-3.08-1.71-3.21-.3S211.83,498.06,211.83,498.06Z"/><path class="cls-26" d="M166.45,474s-6.36,8.75-3.28,8.55,4.33-3.9,4.33-3.9S169.16,473.12,166.45,474Z"/><path class="cls-27" d="M63.15,487.23c-2.95-1.33-3.34-7.48-1.15-10.66s4.32-9.95.71-13.31-7.1-1.15-8.68-2.16-.77-3.17-.25-4.9.06-6.77-1.8-8.26-8.91-7.79-3.17-11.66,9.26,8.17,10.18,9.5,6.86,9.59,9.43,8.13,2.68-6.71.89-8.31-4.13-1.17-5.22-2.46-2.18-6.29-2.94-8.1-2.25-6.63-4-7.78-6.45-3.55-6.45-5.17,3.41-5.07,3.39-8a11,11,0,0,0-3.52-7.88,13.08,13.08,0,0,1-4.25-6.28,18.1,18.1,0,0,0-2.79-5.35c-.78-1.09,1.16-5,4.34-2.83s4.91-3.95,5.84-5.87,3.65-2.69,3.78.8-2.07,12-1.27,14.42,2.22,6.91,3.65,7.68a4.88,4.88,0,0,1,2.64,4.65c0,2.52.54,5.38,2.3,3.55s3.7-4.43,5.49-3.28,0,6.06-1.41,9.6.12,8.81,2,10.92,4.68,4.93,7.77.11,7.1-17.05,8.74-22.36,11.87-18.72,15-19.67,7,1.82,2.93,6-9.13,9.38-9.27,11.21,4.22.34,5.34.91.84,2.61-2,5.39-2.84,3.95-2.11,4a15.63,15.63,0,0,0,9.12-6.13c3-4.44,8.33-3.53,8.63-.08s-5.56,6.35-7.4,7.38-13.79,5.8-15.71,8.56-11.78,16.26-12.2,20.14-.39,9.37,5.52,9.61,11.81-4.1,11.2-7.76-3.6-10.3-2.32-12.29,5.61.94,7,1.82,6.35-4.36,8.12-5.74,4.75-.94,5.33.92-2.76,4.29-5,6.4-8.93,11.43-7.85,14.79,3.26,3.42,5,1.87,5.13-5,6.39-8.33,6.45-12.57,11.09-14,4.78.86,3,3.13-4.3,4-5.29,8.29,1.52,5.42,2.8,3.43,4-9.88,8-6c0,0,3.39-5.51,5.31-4.58a4.74,4.74,0,0,1,2.65,3.48c.22,1,3-1,5.36-1.44s4.64.61,3.54,3-4.87,4.12-4.87,4.12,1.26,3-.95,5-8.19,1.85-11.63,2.6-7.58,1.2-10.28,4.49-3.32,4.24-3.32,4.24,3.61,2.9,6.61,2.61,5.46.25,5.52,1.77S125,476,120.09,473.92s-2.58,3.09-2.38,4.4a2.73,2.73,0,0,1-3.19,3.12c-2.36-.47-3.58-5.25-5.27-6.78s-7.08-5.88-9.14-6.32-15.2.9-21,5.32S67.75,489.29,63.15,487.23Z"/><path class="cls-28" d="M61.81,486.26c1.64,2,6.48,1,8.48-1.35s6.79-5.43,10.15-3.34,2.38,5.25,3.49,6.26,2.62-.07,3.85-.83,5.22-1.47,6.76-.35,7.9,5.26,9.69,0-8.27-5.45-9.49-5.88-8.86-3.3-8.27-5.59,4.63-3.49,6.24-2.44,1.77,2.95,3,3.53,5.32.36,6.89.57,5.6.35,6.86,1.49,4.1,4.24,5.35,3.89,3.21-3.69,5.51-4.3a8.82,8.82,0,0,1,6.84,1.06,10.42,10.42,0,0,0,5.75,2,14.24,14.24,0,0,1,4.72,1c1,.37,3.64-1.95,1.28-3.95s2-4.63,3.31-5.76,1.32-3.38-1.41-2.75-8.83,4.12-10.89,4-5.81-.27-6.7-1.21a3.92,3.92,0,0,0-4.16-1.06c-2,.52-4.27.71-3.23-1s2.66-3.79,1.39-4.94-4.68,1.29-7.13,3.11-6.84,1.76-8.87.73-4.8-2.58-1.72-6,11.7-9.07,15.46-11.45S127,438.58,127,436s-2.87-5-5.28-1-5.34,9-6.73,9.53-1.15-3.19-1.82-3.94-2.2-.1-3.75,2.67-2.47,3-2.64,2.46a12.53,12.53,0,0,1,2.83-8.34c2.81-3.25,1-7.19-1.75-6.69s-3.74,5.63-4.15,7.27-1.59,11.88-3.33,13.95-10.1,12.53-13,13.66-7.17,2.27-8.6-2.25.7-10,3.65-10.29,8.72.62,10-.79-1.91-4.14-2.87-5,2-5.83,2.73-7.49-.27-3.87-1.83-3.93-2.74,3-3.9,5.21-7,9.31-9.79,9.18-3.34-1.8-2.5-3.47,2.78-5,5.1-6.69,8.38-7.63,8.53-11.52-1.66-3.52-3-1.69-2.22,4.18-5.3,5.84-4.51,0-3.24-1.45,6.8-5.15,2.94-7.42c0,0,3.56-3.79,2.43-5.07a3.72,3.72,0,0,0-3.24-1.32c-.85,0,.15-2.55,0-4.45s-1.45-3.46-3.07-2.11-2.17,4.63-2.17,4.63-2.61-.34-3.68,1.79.29,6.72.44,9.54.66,6.12-1.32,8.9-2.58,3.45-2.58,3.45-3-2.18-3.41-4.56-1.34-4.17-2.53-3.9-2.62,5.44,0,8.76-1.84,2.64-2.9,2.77a2.19,2.19,0,0,0-1.75,3.12c.87,1.73,4.82,1.67,6.35,2.65s6,4.24,6.81,5.74,2.5,11.95.3,17.36S59.25,483.14,61.81,486.26Z"/><path class="cls-27" d="M70.86,458.49c-1.14.57-1.66,3.84-2.3,4.84s-5.43,6.81-4.29,10.73,5.9,9.1,3.9,11.09c-1.29,1.28-4.59.24-5.81-1.54s-4.34-4.27-6.83-3.05-2,3.49-2.88,4.1-1.81-.22-2.61-.85-3.54-1.39-4.69-.72-5.87,3.1-6.74-.68,6.14-3.2,7-3.42,6.4-1.66,6.15-3.3-3-2.75-4.16-2.14-1.45,1.93-2.35,2.24-3.72-.12-4.83-.09-3.92-.15-4.88.55-3.15,2.66-4,2.33-2-2.8-3.53-3.39a6.16,6.16,0,0,0-4.83.26,7.36,7.36,0,0,1-4.15,1,10,10,0,0,0-3.35.39,1.52,1.52,0,0,1-.62-2.84c1.79-1.23-1.08-3.37-1.89-4.24s-.68-2.45,1.18-1.82,5.85,3.5,7.29,3.57,4.06.22,4.75-.37a2.74,2.74,0,0,1,3-.45c1.32.51,2.92.8,2.32-.49s-1.58-2.83-.61-3.53,3.16,1.22,4.74,2.67A6.91,6.91,0,0,0,42,470.43c1.49-.57,3.52-1.45,1.62-4s-7.5-7.15-10-9.07-7.41-10-7.28-11.81,2.36-3.28,3.75-.32,3.07,6.66,4,7.1,1-2.14,1.55-2.6,1.54.08,2.42,2.12,1.5,2.27,1.66,1.9a8.7,8.7,0,0,0-1.38-6c-1.72-2.46-.17-5.07,1.7-4.53s2.21,4.18,2.37,5.36.27,8.38,1.33,9.94,6.14,9.43,8.09,10.43S56.65,471,58,468s.22-7-1.81-7.42Z"/><path class="cls-28" d="M63.15,481.46c-1.42,1-4.47-.9-5.42-3.06s-3.63-5.5-6.19-4.87-2.44,3.08-3.34,3.5-1.72-.69-2.42-1.54-3.23-2.33-4.43-1.93-6.1,1.71-6.43-2.41,6.36-1.75,7.25-1.75,6.41-.1,6.39-1.85-2.51-3.6-3.75-3.27-1.65,1.63-2.56,1.72-3.59-1.07-4.66-1.32-3.78-1.15-4.8-.67-3.41,1.95-4.19,1.4-1.53-3.39-3-4.4a5.85,5.85,0,0,0-4.71-1,6.59,6.59,0,0,1-4.14-.05,9.27,9.27,0,0,0-3.3-.46c-.73,0-2.1-2.28-.21-3.09s-.6-3.74-1.27-4.85-.32-2.7,1.39-1.58,5.2,5.09,6.58,5.53,3.9,1.26,4.65.82a2.51,2.51,0,0,1,2.92.3c1.22.85,2.73,1.56,2.32.08s-1.15-3.32-.12-3.81,2.9,2.07,4.23,4a7.19,7.19,0,0,0,5.77,2.73c1.51-.21,3.6-.61,2.11-3.77s-6.3-9.27-8.41-11.88-5.84-12.18-5.47-14,2.72-2.79,3.67.62,2.08,7.66,2.92,8.35,1.28-2,1.85-2.3,1.48.48,2.06,2.8,1.15,2.73,1.35,2.39a10.11,10.11,0,0,0-.53-6.55c-1.33-3,.52-5.28,2.25-4.26s1.57,4.88,1.58,6.14-.87,8.72-.05,10.6,4.68,11.3,6.43,12.82,4.39,3.38,6.07.57,1.16-7.18-.76-8.12-5.89-1.74-6.51-3.05,1.94-2.42,2.72-2.79-.41-4.59-.6-5.93.8-2.65,1.85-2.3,1.33,2.81,1.75,4.63,3.12,8.26,5,8.87,2.51-.43,2.22-1.8a17.24,17.24,0,0,0-2.3-6c-1.27-1.75-4.33-7.44-3.8-10.21s1.67-2,2.3-.41.8,3.48,2.57,5.41,3,1.1,2.39-.21-3.69-5.3-.76-5.94c0,0-1.74-3.53-.79-4.15a2.36,2.36,0,0,1,2.37-.12c.56.24.31-1.82.73-3.11s1.52-2.06,2.38-.71A7.65,7.65,0,0,1,67,429a3,3,0,0,1,2.16,2.17c.36,1.76-1.29,4.63-1.84,6.57s-1.43,4.12-.56,6.57S68,447.38,68,447.38s2.35-.78,3-2.34,1.57-2.59,2.31-2.1.87,4.46-1.43,6.13.8,2.31,1.48,2.66a1.79,1.79,0,0,1,.66,2.62c-.86,1-3.47,0-4.65.27s-4.69,1.47-5.45,2.33-3.59,7.74-3,12.08S65.35,479.92,63.15,481.46Z"/></g></g></svg>