<svg xmlns="http://www.w3.org/2000/svg" viewBox="0 0 630 382.25"><defs><style>.cls-1{fill:#4b4b4d;}</style></defs><title>blobfish-shadow</title><g id="圖層_2" data-name="圖層 2"><g id="blobfish-shadow"><path class="cls-1" d="M622.51,211.57c-4.15-10.38-40.85-52.62-54.7-53.18s-27-25.75-39.46-44.44-49.86-54.47-49.86-54.47c-16.61-16.62-13.84-24.92-74.78-49.85S273.54,14.24,246.77,29.94,192.3,52.1,175.68,60.4s-26,25.77-34.15,38.78c-3.81,6-15.7,28.62-45.24,33.23s-48.93,42.47-54.47,58.72-9.23,38.22-27.69,59.45-15.7,27.7-9.24,51.7,12.93,10.15,17.54,18.46,6.47,5.54,59.09,26.78,108.94,12.92,132.94,13.84,53.54,7.39,82.63,7.39,73.39,8.31,114,12.93,70.16-19.39,87.7-35.09,1.85-17.54,1.85-17.54,39.7-6.46,78.47-21.23,43.39-38.77,43.39-51.7C637.05,250.81,626.67,222,622.51,211.57Z"/></g></g></svg>