<svg xmlns="http://www.w3.org/2000/svg" viewBox="0 0 116.49 43.48"><defs><style>.cls-1{fill:#f1ecce;}</style></defs><title>blobfish_name</title><g id="圖層_2" data-name="圖層 2"><g id="blobfish_name"><path class="cls-1" d="M97.11,2.27A42.91,42.91,0,0,1,93,13c-.86,1.73,1.73,3.25,2.59,1.52A46.25,46.25,0,0,0,100,3.07c.38-1.89-2.51-2.69-2.89-.8Z"/><path class="cls-1" d="M97.52,9.65a14.06,14.06,0,0,1,5.63.18L102.1,8a13.38,13.38,0,0,1-4.48,6.08c-1.54,1.14-.05,3.74,1.51,2.59A17.12,17.12,0,0,0,105,8.78a1.51,1.51,0,0,0-1-1.84,17.45,17.45,0,0,0-7.23-.18c-1.88.4-1.09,3.3.8,2.89Z"/><path class="cls-1" d="M92.05,17c0,3.51,0,7,0,10.53a1.5,1.5,0,0,0,3,0c0-3.51,0-7,0-10.53a1.5,1.5,0,0,0-3,0Z"/><path class="cls-1" d="M94,18.4c2.09-.67,9.62-3.42,11.14-.17.7,1.49-.64,3.53-1.94,4.22-1.71.9-.19,3.49,1.52,2.59,2.69-1.43,4.49-5.27,3.1-8.15-2.48-5.11-10.69-2.65-14.62-1.38-1.83.59-1.05,3.49.8,2.89Z"/><path class="cls-1" d="M95,23.76c2.63-1.1,5.44-1.83,7.86-3.37,1.63-1,.12-3.62-1.51-2.59-2.21,1.4-4.75,2.07-7.15,3.07-1.75.73-1,3.63.8,2.89Z"/><path class="cls-1" d="M98.12,16.6c-.31,3.61-.33,7.79-3.9,9.77a1.51,1.51,0,0,0-.74,1.3V28a1.5,1.5,0,0,0,3,0v-.36L95.74,29c2.87-1.54,6.1-2.26,8.93-3.92a1.5,1.5,0,0,0-1.52-2.59c-2.82,1.66-6.05,2.38-8.93,3.92a1.5,1.5,0,0,0-.74,1.3V28a1.5,1.5,0,0,0,3,0v-.36L95.74,29c4.62-2.56,5-7.62,5.38-12.36.17-1.93-2.83-1.91-3,0Z"/><path class="cls-1" d="M92.48,27.67c-2.55,4.4-4.87,8.92-7,13.53-.81,1.73,1.78,3.26,2.59,1.51,2.15-4.61,4.46-9.13,7-13.53a1.5,1.5,0,0,0-2.59-1.51Z"/><path class="cls-1" d="M93.92,29.09c2.84,2.37,3.51,5.77,3.84,9.29.19,1.91,3.19,1.93,3,0C100.35,34.11,99.5,29.85,96,27c-1.47-1.22-3.61.89-2.12,2.13Z"/><path class="cls-1" d="M100.11,26.64a41.36,41.36,0,0,1,3.07,8.93c.43,1.88,3.32,1.08,2.89-.8a45,45,0,0,0-3.37-9.64c-.84-1.74-3.43-.22-2.59,1.51Z"/><path class="cls-1" d="M106.78,24.09c3.83,3.71,5.32,9,6.75,14a1.5,1.5,0,0,0,2.89-.8c-1.57-5.49-3.31-11.22-7.52-15.3-1.39-1.35-3.51.77-2.12,2.12Z"/><path class="cls-1" d="M17.12,9.16c.88,9.66,1.6,19.51-.52,29.06l2.2-.89c-2.12-1.12-4.27-2.17-6.4-3.28-1.71-.89-3.22,1.7-1.51,2.59,2.12,1.11,4.28,2.16,6.4,3.28a1.52,1.52,0,0,0,2.2-.9c2.19-9.83,1.53-19.91.63-29.86-.17-1.91-3.17-1.93-3,0Z"/><path class="cls-1" d="M1.45,20.82c2.57,0,12-.51,9.14,4.19C8.3,28.78,4,31.67.63,34.35l2.12,2.12A9.71,9.71,0,0,1,4.8,34.86a1.5,1.5,0,0,0-1.51-2.59A16.15,16.15,0,0,0,.63,34.35c-1.46,1.33.64,3.28,2.12,2.12,3.78-3,10.67-7.32,11.5-12.57,1-6.25-9.11-6.07-12.8-6.08a1.5,1.5,0,0,0,0,3Z"/><path class="cls-1" d="M26.17,14.12a73.31,73.31,0,0,1-7.5,7,1.51,1.51,0,0,0,0,2.12c4.31,3.81,11,5.21,16.55,6.27,1.89.36,2.69-2.53.8-2.9-4.93-.94-11.38-2.09-15.23-5.49v2.12a72.22,72.22,0,0,0,7.5-7c1.32-1.41-.8-3.54-2.12-2.12Z"/><path class="cls-1" d="M43.34,18.15l9.43,1.45c1.89.29,2.7-2.6.8-2.9l-9.44-1.45c-1.88-.29-2.7,2.6-.79,2.9Z"/><path class="cls-1" d="M44.5,27.22l8.34-2.91c1.81-.63,1-3.53-.79-2.89L43.7,24.33c-1.81.63-1,3.53.8,2.89Z"/><path class="cls-1" d="M44.13,36.14l12-8.35c1.57-1.09.07-3.7-1.52-2.59l-12,8.35c-1.57,1.09-.07,3.7,1.52,2.59Z"/><path class="cls-1" d="M61,2.63c.91,1.09,1.92,2.08,2.85,3.15.62.71,1.91,2,1.66,3.06-.43,1.88,2.46,2.68,2.9.8C69.28,5.93,65.2,3,63.14.51,61.91-1,59.79,1.15,61,2.63Z"/><path class="cls-1" d="M59.3,13.07l12-3c1.87-.47,1.08-3.36-.8-2.89l-12,3c-1.87.47-1.08,3.36.8,2.89Z"/><path class="cls-1" d="M61.14,11a31.85,31.85,0,0,0,1.67,8.23c.56,1.84,3.46,1,2.89-.8A29.2,29.2,0,0,1,64.14,11c-.07-1.93-3.07-1.93-3,0Z"/><path class="cls-1" d="M69.52,10.81c-1.37,2.32-2.63,4.79-5,6.22A1.5,1.5,0,0,0,66,19.62c2.85-1.71,4.43-4.51,6.08-7.29a1.5,1.5,0,0,0-2.59-1.52Z"/><path class="cls-1" d="M58,22.55l-.85,17.77c-.09,1.93,2.91,1.93,3,0L61,22.55c.09-1.93-2.91-1.93-3,0Z"/><path class="cls-1" d="M60.58,25.71c4.36-2.77,15.31-8.4,16.35.44a28.8,28.8,0,0,1-.18,7.42c-.37,2.42-.91,5.4-3.69,3.29-1.54-1.16-3,1.44-1.52,2.59,8,6,8.79-8.74,8.39-13.3-1.05-11.93-14.34-7.17-20.86-3-1.63,1-.12,3.63,1.51,2.6Z"/><path class="cls-1" d="M63.39,31.8c3.26-1.54,6.62-2.81,10-4.07,1.8-.66,1-3.56-.79-2.89-3.62,1.34-7.22,2.72-10.71,4.37-1.75.83-.23,3.42,1.51,2.59Z"/><path class="cls-1" d="M66.58,24.86l0,7.36a1.5,1.5,0,0,0,3,0l0-7.36a1.5,1.5,0,0,0-3,0Z"/><path class="cls-1" d="M63.91,34.11l.33,4.35c.14,1.92,3.14,1.93,3,0l-.33-4.35c-.14-1.92-3.14-1.93-3,0Z"/><path class="cls-1" d="M66.17,35.4a8.83,8.83,0,0,1,1.92-.89,3.19,3.19,0,0,1,1.42-.18c.39,0-.27-.08.09,0l.28.08c.19,0,.16.06,0,0a1.35,1.35,0,0,1,.26.15c-.15-.12-.2-.06,0,0s-.14,0,0,0a.86.86,0,0,1,.11.19c0-.21-.14-.23,0,0s0-.25,0-.08a.45.45,0,0,1,0,.23c0-.24,0-.27,0-.11l0,.1s-.24.47,0,0c0,.1-.35.53-.16.29a3.91,3.91,0,0,1-.58.57c.11-.08-.36.23-.48.3a7,7,0,0,1-.73.35,10,10,0,0,1-2.41.59,1.54,1.54,0,0,0-1.5,1.5c0,.73.69,1.61,1.5,1.5a10.61,10.61,0,0,0,5.85-2.21A4,4,0,0,0,73,33.9a3.47,3.47,0,0,0-2.88-2.49,8.4,8.4,0,0,0-5.51,1.4,1.5,1.5,0,0,0,1.52,2.59Z"/></g></g></svg>