<svg xmlns="http://www.w3.org/2000/svg" viewBox="0 0 500.65 303.77"><defs><style>.cls-1{fill:#e1ba87;}.cls-2{fill:#e58161;}.cls-3{fill:#1b0804;}.cls-4{fill:#80513d;}.cls-5{fill:#381a08;}</style></defs><title>blobfish</title><g id="圖層_2" data-name="圖層 2"><g id="blobfish"><path class="cls-1" d="M494.7,168.13c-3.3-8.25-32.46-41.81-43.47-42.26s-21.46-20.46-31.36-35.32-39.62-43.28-39.62-43.28c-13.21-13.21-11-19.81-59.42-39.62S217.38,11.32,196.1,23.79,152.82,41.4,139.61,48,119,68.48,112.47,78.82c-3,4.8-12.47,22.74-35.95,26.41S37.64,139,33.23,151.88s-7.33,30.38-22,47.25-12.48,22-7.34,41.09,10.27,8.07,13.94,14.67,5.13,4.4,47,21.28,86.57,10.27,105.65,11S213,293,236.09,293s58.32,6.6,90.6,10.27,55.76-15.41,69.7-27.88,1.47-13.94,1.47-13.94,31.55-5.13,62.36-16.87,34.48-30.81,34.48-41.09C506.25,199.32,498,176.39,494.7,168.13Z"/><path class="cls-2" d="M191.34,201.33c8.43,6.6,34.48,38.15,30.08,49.16s-14.31,31.18-35.22,15.77-22.38-33-42.92-35.58-66.39-8.07-73.73,1.1S49,244.62,43.14,241.32,25.9,219.67,40.2,210.14,75.79,184.46,95.6,183s62-1.83,70.42,2.57S191.34,201.33,191.34,201.33Z"/><path class="cls-3" d="M59.28,213.07c4.77-3.3,23.11-17.61,37.05-18s64.93.36,76.66,12.47,32.6,35.21,33.91,40.72-2.73,15.77-15.2,4S161.26,216,136,214.9s-50.26-10.63-63.1-2.2S49,225.91,51.94,220,59.28,213.07,59.28,213.07Z"/><path class="cls-1" d="M196.28,158.64c-.69,1.33-3,.7-4.49,1.22-6,2.18-4.67,1.4-16.5,16S149.7,195.1,126,193.72,88.63,172.81,85.6,163.46c-1-3,.58-7.87,3.13-13.16a105.33,105.33,0,0,1,15.58-24.53s23.29-13.21,46.31-9C184.53,123.05,205.16,141.44,196.28,158.64Z"/><path class="cls-4" d="M104.31,125.77S82.57,154.1,85.6,163.46s16.78,28.88,40.44,30.26,37.42-3.3,49.25-17.88,10.45-13.8,16.5-16,14.31-2.73,8.81,2.77-7.43-.82-13.48,9.36-17.34,23.93-28.06,27-55.58,6.05-68-12.38-11.55-22.29-8.53-31.64S104.31,125.77,104.31,125.77Z"/><path class="cls-5" d="M260,108.71c-1.79.44-11,9.08-4.4,13.21s22.56,4.12,25.86,3.85,8-2.48,0-9.91S270.2,106.23,260,108.71Z"/></g></g></svg>