<svg xmlns="http://www.w3.org/2000/svg" viewBox="0 0 631 383.25"><defs><style>.cls-1{fill:none;stroke:#fff;stroke-miterlimit:10;}</style></defs><title>blobfish-line</title><g id="圖層_2" data-name="圖層 2"><g id="blobfish-line"><path class="cls-1" d="M623,212.07c-4.15-10.38-40.85-52.62-54.7-53.18s-27-25.75-39.46-44.44S479,60,479,60c-16.61-16.62-13.84-24.92-74.78-49.85S274,14.74,247.27,30.44,192.8,52.6,176.18,60.9s-26,25.77-34.15,38.78c-3.81,6-15.7,28.62-45.24,33.23s-48.93,42.47-54.47,58.72-9.23,38.22-27.69,59.45-15.7,27.7-9.24,51.7,12.93,10.16,17.54,18.46S29.4,326.78,82,348,191,360.94,215,361.86s53.54,7.39,82.63,7.39,73.39,8.31,114,12.93,70.16-19.39,87.7-35.09,1.85-17.54,1.85-17.54,39.7-6.46,78.47-21.23S623,269.55,623,256.62C637.55,251.31,627.17,222.46,623,212.07Z"/><path class="cls-1" d="M241.27,253.85c10.62,8.31,43.39,48,37.85,61.85s-18,39.24-44.31,19.85-28.16-41.54-54-44.77S97.25,280.62,88,292.16s-25.85,16.16-33.24,12-21.69-27.23-3.69-39.23,44.78-32.31,69.7-34.16,78-2.31,88.63,3.23S241.27,253.85,241.27,253.85Z"/><path class="cls-1" d="M75.09,268.62c6-4.15,29.09-22.16,46.63-22.62s81.7.46,96.47,15.7,41,44.31,42.67,51.23-3.43,19.85-19.13,5.08-38.31-45.7-70.16-47.08-63.24-13.39-79.4-2.77-30,16.62-26.31,9.23S75.09,268.62,75.09,268.62Z"/><path class="cls-1" d="M247.49,200.13c-.87,1.67-3.83.88-5.64,1.53-7.62,2.74-5.89,1.76-20.77,20.11s-32.2,24.23-62,22.5S112,218,108.21,206.19c-1.21-3.74.73-9.9,3.94-16.56,0,0,7.25-16.81,19.61-30.87,0,0,29.3-16.62,58.27-11.28C232.71,155.34,258.67,178.48,247.49,200.13Z"/><path class="cls-1" d="M131.76,158.76s-27.35,35.66-23.55,47.43,21.12,36.35,50.9,38.08,47.08-4.15,62-22.5,13.15-17.37,20.77-20.11,18-3.43,11.08,3.49-9.35-1-17,11.77S214.15,247,200.65,250.85s-69.93,7.62-85.51-15.58-14.54-28-10.73-39.81S131.76,158.76,131.76,158.76Z"/><path class="cls-1" d="M327.7,137.3c-2.25.55-13.84,11.42-5.53,16.61s28.38,5.2,32.54,4.85,10-3.12,0-12.46S340.51,134.18,327.7,137.3Z"/></g></g></svg>