<svg xmlns="http://www.w3.org/2000/svg" xmlns:xlink="http://www.w3.org/1999/xlink" viewBox="0 0 704.46 557.04"><defs><style>.cls-1{fill:url(#radial-gradient);}.cls-2{fill:url(#radial-gradient-2);}.cls-3{fill:url(#radial-gradient-3);}.cls-4{fill:url(#radial-gradient-4);}.cls-5{fill:url(#radial-gradient-5);}.cls-6{fill:url(#radial-gradient-6);}.cls-7{fill:url(#radial-gradient-7);}.cls-8{fill:url(#radial-gradient-8);}.cls-9{fill:url(#radial-gradient-9);}.cls-10{fill:url(#radial-gradient-10);}.cls-11{fill:url(#radial-gradient-11);}.cls-12{fill:url(#radial-gradient-12);}.cls-13{fill:url(#radial-gradient-13);}.cls-14{fill:url(#radial-gradient-14);}.cls-15{fill:url(#radial-gradient-15);}.cls-16{fill:url(#radial-gradient-16);}.cls-17{fill:url(#radial-gradient-17);}.cls-18{fill:url(#radial-gradient-18);}.cls-19{fill:url(#radial-gradient-19);}.cls-20{fill:url(#radial-gradient-20);}.cls-21{fill:url(#radial-gradient-21);}.cls-22{fill:url(#radial-gradient-22);}.cls-23{fill:url(#radial-gradient-23);}.cls-24{fill:url(#radial-gradient-24);}.cls-25{fill:url(#radial-gradient-25);}.cls-26{fill:url(#radial-gradient-26);}.cls-27{fill:url(#radial-gradient-27);}.cls-28{fill:url(#radial-gradient-28);}.cls-29{fill:url(#radial-gradient-29);}.cls-30{fill:url(#radial-gradient-30);}.cls-31{fill:url(#radial-gradient-31);}.cls-32{fill:url(#radial-gradient-32);}.cls-33{fill:url(#radial-gradient-33);}.cls-34{fill:url(#radial-gradient-34);}.cls-35{fill:url(#radial-gradient-35);}.cls-36{fill:url(#radial-gradient-36);}.cls-37{fill:url(#radial-gradient-37);}.cls-38{fill:url(#radial-gradient-38);}.cls-39{fill:url(#radial-gradient-39);}.cls-40{fill:url(#radial-gradient-40);}.cls-41{fill:url(#radial-gradient-41);}.cls-42{fill:url(#radial-gradient-42);}.cls-43{fill:url(#radial-gradient-43);}.cls-44{fill:#3c3b50;}.cls-44,.cls-84{opacity:0.9;}.cls-45,.cls-61,.cls-62,.cls-63{fill:#fff;}.cls-45{opacity:0.6;}.cls-46{fill:url(#radial-gradient-44);}.cls-47{fill:url(#radial-gradient-45);}.cls-48,.cls-49,.cls-63{opacity:0.5;}.cls-48{fill:url(#linear-gradient);}.cls-49{fill:url(#linear-gradient-2);}.cls-50{fill:#c4c3c5;opacity:0.4;}.cls-51{fill:url(#radial-gradient-46);}.cls-52{fill:url(#radial-gradient-47);}.cls-53{fill:url(#radial-gradient-48);}.cls-54{fill:url(#radial-gradient-50);}.cls-55{fill:url(#radial-gradient-52);}.cls-56{fill:url(#radial-gradient-54);}.cls-57{fill:url(#radial-gradient-56);}.cls-58{fill:url(#radial-gradient-58);}.cls-59{fill:url(#radial-gradient-60);}.cls-60{fill:#26192a;opacity:0.7;}.cls-61{opacity:0.16;}.cls-62{opacity:0.2;}.cls-64{fill:url(#linear-gradient-3);}.cls-65{fill:url(#linear-gradient-4);}.cls-66{fill:url(#linear-gradient-5);}.cls-67{fill:url(#linear-gradient-6);}.cls-68{fill:url(#linear-gradient-7);}.cls-69{fill:url(#linear-gradient-8);}.cls-70{fill:url(#linear-gradient-9);}.cls-71{fill:url(#linear-gradient-10);}.cls-72{fill:url(#linear-gradient-11);}.cls-73{fill:url(#linear-gradient-12);}.cls-74{fill:url(#linear-gradient-13);}.cls-75{fill:url(#linear-gradient-14);}.cls-76{fill:url(#linear-gradient-15);}.cls-77{fill:url(#linear-gradient-16);}.cls-78{fill:url(#linear-gradient-17);}.cls-79{fill:url(#linear-gradient-18);}.cls-80{fill:url(#linear-gradient-19);}.cls-81{fill:url(#linear-gradient-20);}.cls-82{fill:url(#linear-gradient-21);}.cls-83{fill:url(#linear-gradient-22);}.cls-84{fill:#3f3f53;}</style><radialGradient id="radial-gradient" cx="538.28" cy="124.89" r="128.62" gradientTransform="translate(372.38 639.49) rotate(-77.53) scale(1 0.41)" gradientUnits="userSpaceOnUse"><stop offset="0" stop-color="#fff" stop-opacity="0.4"/><stop offset="0.99" stop-color="#fff" stop-opacity="0"/></radialGradient><radialGradient id="radial-gradient-2" cx="556.62" cy="94.8" r="102.47" gradientTransform="matrix(0.18, -0.98, 0.43, 0.08, 414.99, 634.73)" gradientUnits="userSpaceOnUse"><stop offset="0" stop-color="#fff" stop-opacity="0.6"/><stop offset="0.99" stop-color="#fff" stop-opacity="0"/></radialGradient><radialGradient id="radial-gradient-3" cx="518.06" cy="106.8" fx="503.4594637406836" r="14.6" gradientTransform="matrix(1, 0, 0, 1, 0, 0)" xlink:href="#radial-gradient-2"/><radialGradient id="radial-gradient-4" cx="523.61" cy="117.71" r="41.82" gradientTransform="matrix(1, 0, 0, 1, 0, 0)" xlink:href="#radial-gradient-2"/><radialGradient id="radial-gradient-5" cx="527.62" cy="122.27" r="61.25" gradientTransform="matrix(1, 0, 0, 1, 0, 0)" xlink:href="#radial-gradient-2"/><radialGradient id="radial-gradient-6" cx="530.81" cy="123.12" r="31.85" gradientTransform="matrix(1, 0, 0, 1, 0, 0)" xlink:href="#radial-gradient-2"/><radialGradient id="radial-gradient-7" cx="532.86" cy="124.47" r="63.09" gradientTransform="matrix(1, 0, 0, 1, 0, 0)" xlink:href="#radial-gradient-2"/><radialGradient id="radial-gradient-8" cx="536.28" cy="125.22" r="50.78" gradientTransform="matrix(1, 0, 0, 1, 0, 0)" xlink:href="#radial-gradient-2"/><radialGradient id="radial-gradient-9" cx="539.61" cy="127.93" r="25.54" gradientTransform="matrix(1, 0, 0, 1, 0, 0)" xlink:href="#radial-gradient-2"/><radialGradient id="radial-gradient-10" cx="542.73" cy="129.2" r="19.54" gradientTransform="matrix(1, 0, 0, 1, 0, 0)" xlink:href="#radial-gradient-2"/><radialGradient id="radial-gradient-11" cx="544.65" cy="131.65" r="32.14" gradientTransform="matrix(1, 0, 0, 1, 0, 0)" xlink:href="#radial-gradient-2"/><radialGradient id="radial-gradient-12" cx="548.25" cy="133.96" r="27.24" gradientTransform="matrix(1, 0, 0, 1, 0, 0)" xlink:href="#radial-gradient-2"/><radialGradient id="radial-gradient-13" cx="557" cy="433.06" r="24.7" gradientTransform="translate(0 -57.13) scale(1 0.44)" xlink:href="#radial-gradient-2"/><radialGradient id="radial-gradient-14" cx="558.33" cy="147.12" r="37.04" gradientTransform="matrix(1, 0, 0, 1, 0, 0)" xlink:href="#radial-gradient-2"/><radialGradient id="radial-gradient-15" cx="562.25" cy="149.94" r="38.6" gradientTransform="matrix(1, 0, 0, 1, 0, 0)" xlink:href="#radial-gradient-2"/><radialGradient id="radial-gradient-16" cx="561.15" cy="161.55" r="116.86" gradientTransform="matrix(1, 0, 0, 1, 0, 0)" xlink:href="#radial-gradient-2"/><radialGradient id="radial-gradient-17" cx="561.09" cy="152.08" r="73.78" gradientTransform="matrix(1, 0, 0, 1, 0, 0)" xlink:href="#radial-gradient-2"/><radialGradient id="radial-gradient-18" cx="561.91" cy="154.65" r="97.81" gradientTransform="matrix(1, 0, 0, 1, 0, 0)" xlink:href="#radial-gradient-2"/><radialGradient id="radial-gradient-19" cx="561.23" cy="156.75" r="115.54" gradientTransform="matrix(1, 0, 0, 1, 0, 0)" xlink:href="#radial-gradient-2"/><radialGradient id="radial-gradient-20" cx="558.33" cy="155.86" r="145.91" gradientTransform="matrix(1, 0, 0, 1, 0, 0)" xlink:href="#radial-gradient"/><radialGradient id="radial-gradient-21" cx="613" cy="157.81" r="97.92" gradientTransform="matrix(1, 0.02, -0.01, 0.4, 1.67, 80.44)" xlink:href="#radial-gradient"/><radialGradient id="radial-gradient-22" cx="269.74" cy="201.96" r="47.11" gradientUnits="userSpaceOnUse"><stop offset="0" stop-color="#fff" stop-opacity="0.2"/><stop offset="0.99" stop-color="#fff" stop-opacity="0"/></radialGradient><radialGradient id="radial-gradient-23" cx="275.92" cy="204.31" r="22.06" gradientUnits="userSpaceOnUse"><stop offset="0" stop-color="#fff" stop-opacity="0.2"/><stop offset="1" stop-color="#fff" stop-opacity="0"/></radialGradient><radialGradient id="radial-gradient-24" cx="284.54" cy="206.94" r="63.55" xlink:href="#radial-gradient-22"/><radialGradient id="radial-gradient-25" cx="295.07" cy="209.22" r="62.03" xlink:href="#radial-gradient-22"/><radialGradient id="radial-gradient-26" cx="299.34" cy="211.71" r="73.02" xlink:href="#radial-gradient-22"/><radialGradient id="radial-gradient-27" cx="309.31" cy="214.35" r="62.42" xlink:href="#radial-gradient-22"/><radialGradient id="radial-gradient-28" cx="320.6" cy="227.06" r="71.18" gradientTransform="matrix(1, 0, 0, 1, 0, 0)" xlink:href="#radial-gradient"/><radialGradient id="radial-gradient-29" cx="312.8" cy="192.18" r="73.76" gradientTransform="matrix(1, 0, 0, 1, 0, 0)" xlink:href="#radial-gradient"/><radialGradient id="radial-gradient-30" cx="404.88" cy="303.29" r="32.84" xlink:href="#radial-gradient-22"/><radialGradient id="radial-gradient-31" cx="398.58" cy="306.85" r="38.18" xlink:href="#radial-gradient-22"/><radialGradient id="radial-gradient-32" cx="390.85" cy="313.11" r="42.61" xlink:href="#radial-gradient-22"/><radialGradient id="radial-gradient-33" cx="381.12" cy="317.31" r="42.73" xlink:href="#radial-gradient-22"/><radialGradient id="radial-gradient-34" cx="374.39" cy="322.79" r="37.35" xlink:href="#radial-gradient-22"/><radialGradient id="radial-gradient-35" cx="369.43" cy="377.18" r="79.81" gradientTransform="matrix(1, 0, 0, 1, 0, 0)" xlink:href="#radial-gradient"/><radialGradient id="radial-gradient-36" cx="407.95" cy="333.31" r="55.57" gradientTransform="matrix(1, 0, 0, 1, 0, 0)" xlink:href="#radial-gradient"/><radialGradient id="radial-gradient-37" cx="355.73" cy="395.41" r="27.09" gradientTransform="translate(-241.49 -331.95) rotate(-17.18) scale(1 2.2)" xlink:href="#radial-gradient"/><radialGradient id="radial-gradient-38" cx="366.34" cy="393.66" r="34.36" gradientTransform="translate(-52.36 -261.02) rotate(-4.47) scale(1 1.74)" xlink:href="#radial-gradient"/><radialGradient id="radial-gradient-39" cx="354.28" cy="378.29" r="15.48" gradientTransform="matrix(1, 0, 0, 1, 0, 0)" xlink:href="#radial-gradient"/><radialGradient id="radial-gradient-40" cx="353.42" cy="385.12" r="20.61" gradientTransform="matrix(1, 0, 0, 1, 0, 0)" xlink:href="#radial-gradient"/><radialGradient id="radial-gradient-41" cx="354.56" cy="397.64" r="27.12" gradientTransform="matrix(1, 0, 0, 1, 0, 0)" xlink:href="#radial-gradient"/><radialGradient id="radial-gradient-42" cx="356.84" cy="425.25" r="46.21" gradientTransform="matrix(1, 0, 0, 1, 0, 0)" xlink:href="#radial-gradient"/><radialGradient id="radial-gradient-43" cx="355.13" cy="415.01" r="24.48" gradientTransform="matrix(1, 0, 0, 1, 0, 0)" xlink:href="#radial-gradient"/><radialGradient id="radial-gradient-44" cx="362.16" cy="247.61" r="341.06" gradientTransform="translate(17.8 360.64) rotate(-20.41) scale(1 0.06)" gradientUnits="userSpaceOnUse"><stop offset="0" stop-color="#fff" stop-opacity="0.6"/><stop offset="0.09" stop-color="#fff" stop-opacity="0.58"/><stop offset="0.19" stop-color="#fff" stop-opacity="0.53"/><stop offset="0.3" stop-color="#fff" stop-opacity="0.44"/><stop offset="0.41" stop-color="#fff" stop-opacity="0.32"/><stop offset="0.52" stop-color="#fff" stop-opacity="0.17"/><stop offset="0.62" stop-color="#fff" stop-opacity="0"/></radialGradient><radialGradient id="radial-gradient-45" cx="478.96" cy="188.45" r="734.95" gradientTransform="translate(85.42 461.49) rotate(-35.33) scale(1 0.03)" xlink:href="#radial-gradient-44"/><linearGradient id="linear-gradient" x1="502.29" y1="174.31" x2="541.9" y2="144.12" gradientUnits="userSpaceOnUse"><stop offset="0" stop-color="#fff" stop-opacity="0"/><stop offset="0.02" stop-color="#e0dfe3" stop-opacity="0.14"/><stop offset="0.1" stop-color="#767182" stop-opacity="0.61"/><stop offset="0.18" stop-color="#352e47" stop-opacity="0.9"/><stop offset="0.24" stop-color="#1f1733"/><stop offset="1" stop-color="#1e1633"/></linearGradient><linearGradient id="linear-gradient-2" x1="429.46" y1="288.99" x2="402.06" y2="249.11" gradientUnits="userSpaceOnUse"><stop offset="0" stop-color="#fff" stop-opacity="0"/><stop offset="0.06" stop-color="#8f8b99" stop-opacity="0.1"/><stop offset="0.19" stop-color="#1f1733" stop-opacity="0.2"/><stop offset="0.22" stop-color="#1f1733" stop-opacity="0.37"/><stop offset="0.31" stop-color="#1e1633" stop-opacity="0.68"/><stop offset="0.37" stop-color="#1e1633" stop-opacity="0.79"/><stop offset="0.39" stop-color="#1e1633" stop-opacity="0.86"/><stop offset="0.43" stop-color="#1e1633" stop-opacity="0.9"/><stop offset="0.5" stop-color="#211936" stop-opacity="0.86"/><stop offset="0.63" stop-color="#261d3a" stop-opacity="0.75"/><stop offset="0.76" stop-color="#332a44" stop-opacity="0.44"/><stop offset="0.77" stop-color="#352c46" stop-opacity="0.4"/><stop offset="0.88" stop-color="#868190" stop-opacity="0.24"/><stop offset="1" stop-color="#fff" stop-opacity="0"/></linearGradient><radialGradient id="radial-gradient-46" cx="221.09" cy="474.17" r="80.93" xlink:href="#radial-gradient-22"/><radialGradient id="radial-gradient-47" cx="243.63" cy="452.43" r="43.44" gradientTransform="translate(-427.68 248.04) rotate(-52.75) scale(1 1.45)" xlink:href="#radial-gradient-22"/><radialGradient id="radial-gradient-48" cx="213.39" cy="461.69" r="51.12" xlink:href="#radial-gradient-22"/><radialGradient id="radial-gradient-50" cx="215.95" cy="464.53" r="56.38" xlink:href="#radial-gradient-22"/><radialGradient id="radial-gradient-52" cx="223.63" cy="466.24" r="56.28" xlink:href="#radial-gradient-22"/><radialGradient id="radial-gradient-54" cx="230.46" cy="469.37" r="38.38" xlink:href="#radial-gradient-22"/><radialGradient id="radial-gradient-56" cx="233.59" cy="473.36" r="38.33" xlink:href="#radial-gradient-22"/><radialGradient id="radial-gradient-58" cx="239.28" cy="474.21" r="21.83" xlink:href="#radial-gradient-22"/><radialGradient id="radial-gradient-60" cx="239.28" cy="477.91" r="25.14" xlink:href="#radial-gradient-22"/><linearGradient id="linear-gradient-3" x1="314.54" y1="263.43" x2="342.61" y2="226.59" gradientUnits="userSpaceOnUse"><stop offset="0" stop-color="#fff" stop-opacity="0.6"/><stop offset="0.25" stop-color="#fff" stop-opacity="0.39"/><stop offset="0.48" stop-color="#fff" stop-opacity="0.22"/><stop offset="0.7" stop-color="#fff" stop-opacity="0.1"/><stop offset="0.88" stop-color="#fff" stop-opacity="0.03"/><stop offset="1" stop-color="#fff" stop-opacity="0"/></linearGradient><linearGradient id="linear-gradient-4" x1="340.22" y1="258.89" x2="355.4" y2="220.18" xlink:href="#linear-gradient-3"/><linearGradient id="linear-gradient-5" x1="466.13" y1="198.51" x2="468.04" y2="175.65" gradientUnits="userSpaceOnUse"><stop offset="0" stop-color="#fff" stop-opacity="0.3"/><stop offset="1" stop-color="#fff" stop-opacity="0"/></linearGradient><linearGradient id="linear-gradient-6" x1="474.25" y1="189.1" x2="477.95" y2="170.88" gradientUnits="userSpaceOnUse"><stop offset="0" stop-color="#fff" stop-opacity="0.3"/><stop offset="0.39" stop-color="#fff" stop-opacity="0.16"/><stop offset="0.78" stop-color="#fff" stop-opacity="0.04"/><stop offset="1" stop-color="#fff" stop-opacity="0"/></linearGradient><linearGradient id="linear-gradient-7" x1="322.28" y1="266.66" x2="366.23" y2="305.91" xlink:href="#linear-gradient-3"/><linearGradient id="linear-gradient-8" x1="336.63" y1="259.92" x2="375.67" y2="298.49" xlink:href="#linear-gradient-3"/><linearGradient id="linear-gradient-9" x1="355.87" y1="250.03" x2="400.28" y2="290" gradientUnits="userSpaceOnUse"><stop offset="0" stop-color="#fff" stop-opacity="0.4"/><stop offset="0.01" stop-color="#fff" stop-opacity="0.39"/><stop offset="0.32" stop-color="#fff" stop-opacity="0.22"/><stop offset="0.6" stop-color="#fff" stop-opacity="0.1"/><stop offset="0.84" stop-color="#fff" stop-opacity="0.03"/><stop offset="1" stop-color="#fff" stop-opacity="0"/></linearGradient><linearGradient id="linear-gradient-10" x1="432.52" y1="233.05" x2="426.54" y2="209.99" gradientTransform="matrix(1.05, 0.1, -0.1, 1.03, -1.39, -61.32)" xlink:href="#linear-gradient-9"/><linearGradient id="linear-gradient-11" x1="429.46" y1="223" x2="454.22" y2="243.78" xlink:href="#linear-gradient-9"/><linearGradient id="linear-gradient-12" x1="411.16" y1="230.86" x2="410.88" y2="202.11" gradientUnits="userSpaceOnUse"><stop offset="0" stop-color="#fff" stop-opacity="0.4"/><stop offset="1" stop-color="#fff" stop-opacity="0"/></linearGradient><linearGradient id="linear-gradient-13" x1="396.83" y1="245.48" x2="393.99" y2="216.74" gradientTransform="matrix(1, 0.08, -0.08, 1, 22.76, -39.77)" xlink:href="#linear-gradient-9"/><linearGradient id="linear-gradient-14" x1="387.85" y1="239.41" x2="388.8" y2="208.02" gradientUnits="userSpaceOnUse"><stop offset="0" stop-color="#fff" stop-opacity="0.4"/><stop offset="0.11" stop-color="#fff" stop-opacity="0.35"/><stop offset="0.51" stop-color="#fff" stop-opacity="0.16"/><stop offset="0.82" stop-color="#fff" stop-opacity="0.04"/><stop offset="1" stop-color="#fff" stop-opacity="0"/></linearGradient><linearGradient id="linear-gradient-15" x1="444.76" y1="212.28" x2="466.7" y2="233.93" gradientUnits="userSpaceOnUse"><stop offset="0" stop-color="#fff" stop-opacity="0.2"/><stop offset="0.27" stop-color="#fff" stop-opacity="0.18"/><stop offset="0.57" stop-color="#fff" stop-opacity="0.13"/><stop offset="0.89" stop-color="#fff" stop-opacity="0.04"/><stop offset="1" stop-color="#fff" stop-opacity="0"/></linearGradient><linearGradient id="linear-gradient-16" x1="359.37" y1="246.45" x2="373.61" y2="215.42" gradientUnits="userSpaceOnUse"><stop offset="0" stop-color="#fff" stop-opacity="0.6"/><stop offset="0.35" stop-color="#fff" stop-opacity="0.35"/><stop offset="0.65" stop-color="#fff" stop-opacity="0.16"/><stop offset="0.87" stop-color="#fff" stop-opacity="0.04"/><stop offset="1" stop-color="#fff" stop-opacity="0"/></linearGradient><linearGradient id="linear-gradient-17" x1="379.66" y1="242.94" x2="403.57" y2="263.43" xlink:href="#linear-gradient-14"/><linearGradient id="linear-gradient-18" x1="412.4" y1="232.52" x2="430.9" y2="257.28" xlink:href="#linear-gradient-14"/><linearGradient id="linear-gradient-19" x1="443.23" y1="214.57" x2="439.39" y2="190.89" xlink:href="#linear-gradient-6"/><linearGradient id="linear-gradient-20" x1="456.21" y1="206.41" x2="453.08" y2="184.78" xlink:href="#linear-gradient-6"/><linearGradient id="linear-gradient-21" x1="454.04" y1="208.61" x2="477.09" y2="220.56" gradientUnits="userSpaceOnUse"><stop offset="0" stop-color="#fff" stop-opacity="0.2"/><stop offset="0.17" stop-color="#fff" stop-opacity="0.16"/><stop offset="0.7" stop-color="#fff" stop-opacity="0.04"/><stop offset="1" stop-color="#fff" stop-opacity="0"/></linearGradient><linearGradient id="linear-gradient-22" x1="466.25" y1="196.9" x2="484.87" y2="209.82" xlink:href="#linear-gradient-21"/></defs><title>lighthouse</title><g id="圖層_2" data-name="圖層 2"><g id="lighthouse"><path class="cls-1" d="M587.58,90.44c3.41-8.35,20.49-42.13,20.49-42.13-3-33-44.78-52-49.71-46.3s-31.5,79.7-31.5,79.7c-8,4.55-2.66,6.07-12.33,17.83s-.09,30,0,30.1c.17-.37,5,4.83,15.49,10.42,9.73,5.16,20.41,5.4,27.51,3.16,9.16-9.81,24.83-26.85,28.53-32.67C591.38,102.2,584.16,98.79,587.58,90.44Z"/><path class="cls-2" d="M557.44,143.14c6.27-6.8,12.51-13.64,18.57-20.62,1.53-1.74,3-3.52,4.49-5.29.75-.87,1.45-1.8,2.17-2.69s1.44-1.81,2.08-2.75l1-1.41.84-1.49c.21-.52.45-1,.62-1.55a9,9,0,0,0,.37-1.62c.38-2.22-.28-4.43-.83-6.69a13.76,13.76,0,0,1-.16-7.07c.16-.58.37-1.12.57-1.72l.71-1.58,1.43-3.16c1-2.1,1.89-4.22,2.89-6.31l3-6.26c4-8.36,8.13-16.64,12.25-24.93l-.07.38a43.89,43.89,0,0,0-6.29-18.47A60.85,60.85,0,0,0,588.2,15.08c-5-4.23-9.51-7.83-15.53-10.43-3-1.26-7.29-3.49-10.4-3.74a7.28,7.28,0,0,0-2.17.14,16.18,16.18,0,0,0-1.92,1.47.86.86,0,0,0-.21.22l-.37.51a44.47,44.47,0,0,0-2.18,4.26c-2.73,6-5.16,12.24-7.61,18.42l-7.17,18.66-7.06,18.7-7,18.73-.12.32-.29.17c-.93.55-.73,1.11-1.51,1.78a6.61,6.61,0,0,0-1.86,2.32c-.45.91-.8,2-1.23,3a33.1,33.1,0,0,1-1.46,3.14l-.87,1.49-.94,1.43c-.66.93-1.32,1.87-2,2.75l-1.07,1.32c-.29.36-.64.88-1,1.32a9.82,9.82,0,0,0-.93,1.38l-.72,1.41a7.86,7.86,0,0,0-.61,1.5c-.17.52-.37,1-.51,1.55a23.77,23.77,0,0,0-.58,3.23c-.05.55-.13,1.09-.16,1.64v1.65a15.26,15.26,0,0,0,.06,1.66c.05.55.07,1.11.14,1.66.16,1.1.3,2.2.55,3.29s.51,2.16.8,3.24.67,2.13,1.06,3.18.81,2.09,1.3,3.09l-.2.1c-.54-1-1-2-1.44-3.06s-.83-2.09-1.19-3.16-.69-2.15-.94-3.25-.49-2.21-.7-3.33c-.09-.55-.14-1.12-.2-1.69a13.6,13.6,0,0,1-.14-1.7l-.06-1.71c0-.57.07-1.14.1-1.71a24.47,24.47,0,0,1,.51-3.4c.13-.56.33-1.11.5-1.66a9.71,9.71,0,0,1,.61-1.63l.77-1.6a13,13,0,0,1,.91-1.44c.34-.47.59-.89,1-1.42l1-1.32c.68-.87,1.29-1.8,1.9-2.71l.87-1.4.79-1.44a28.58,28.58,0,0,0,1.3-3c.39-1,.69-2.1,1.21-3.21a8.39,8.39,0,0,1,2.27-2.93,19.88,19.88,0,0,1,2.9-2l-.42.49,6.71-18.85c2.24-6.28,4.57-12.53,6.91-18.78s4.73-12.47,7.2-18.67,5-12.39,7.83-18.48A43,43,0,0,1,557.08,2l.37-.51a2.71,2.71,0,0,1,.66-.65,4.11,4.11,0,0,1,1.5-.66,9,9,0,0,1,2.8-.16A32.62,32.62,0,0,1,572.3,2.9a70.09,70.09,0,0,1,17,10.87,62.11,62.11,0,0,1,13.1,15.34,45.25,45.25,0,0,1,6.34,19.14l0,.2-.09.18c-4.18,8.24-8.38,16.5-12.45,24.79l-3.07,6.21c-1,2.07-2,4.19-3,6.28l-1.46,3.14L588,90.63c-.17.5-.38,1-.54,1.57a13,13,0,0,0,.1,6.64c.51,2.21,1.2,4.59.77,7a11.44,11.44,0,0,1-.42,1.75c-.2.57-.46,1.12-.7,1.67l-.88,1.52-1,1.42c-.67,1-1.4,1.86-2.14,2.76s-1.44,1.81-2.21,2.68c-1.51,1.75-3,3.52-4.56,5.24-6.14,6.92-12.45,13.7-18.8,20.43Z"/><path class="cls-3" d="M517.37,123.55s0-.51,0-1.4,0-2.17,0-3.7.09-3.31.21-5.22.3-3.93.5-6,.49-4,.81-5.94.7-3.64,1.08-5.13a18.2,18.2,0,0,1,.58-2c.2-.59.35-1.11.53-1.52l.58-1.28-.36,1.35c-.14.42-.21,1-.35,1.56s-.22,1.29-.36,2c-.27,1.49-.47,3.25-.71,5.14-.13.94-.2,1.92-.34,2.9l-.33,3c-.44,4-.87,8.08-1.2,11.1-.16,1.52-.34,2.78-.44,3.67S517.37,123.55,517.37,123.55Z"/><path class="cls-4" d="M523.06,121.66s.43-2.83,1.26-7c.43-2.1.9-4.55,1.5-7.17s1.27-5.39,2-8.16L529,95.19c.38-1.36.89-2.68,1.31-4,1-2.49,2.06-4.75,2.91-6.72s1.63-3.58,2.13-4.72l.85-1.78s-.24.67-.64,1.86-1,2.87-1.74,4.88-1.61,4.36-2.57,6.83c-.39,1.27-.82,2.57-1.19,3.92s-.75,2.72-1.12,4.09l-4,15.18c-.53,2.08-1,3.79-1.34,5S523.06,121.66,523.06,121.66Z"/><path class="cls-5" d="M527.62,122.7l.8-2.73c.53-1.73,1.25-4.21,2.21-7.17s2-6.4,3.29-10.07,2.59-7.58,4-11.47c.72-1.94,1.43-3.89,2.2-5.78s1.43-3.77,2.3-5.55c.41-.88.81-1.8,1.21-2.59s.86-1.64,1.2-2.45.65-1.6,1-2.36.54-1.54.8-2.27c.5-1.46.92-2.82,1.29-4s.67-2.26.9-3.13c.46-1.75.73-2.75.73-2.75s-.15,1-.51,2.8c-.18.89-.42,2-.71,3.19s-.63,2.62-1.09,4.1l-.72,2.33c-.3.79-.6,1.61-.91,2.46s-.73,1.65-1.11,2.51l-1.16,2.6c-.81,1.72-1.46,3.63-2.2,5.51s-1.42,3.85-2.12,5.79c-1.46,3.86-2.83,7.76-4.15,11.41s-2.58,7-3.62,10l-2.61,7C528,121.73,527.62,122.7,527.62,122.7Z"/><path class="cls-6" d="M530,123.55s.74-1.88,2-4.65c.63-1.38,1.33-3,2.15-4.71s1.69-3.52,2.56-5.34,1.79-3.61,2.66-5.29c.44-.83.87-1.64,1.27-2.41l1.1-2.18c.67-1.35,1.3-2.45,1.71-3.23l.67-1.22-.47,1.3c-.32.82-.74,2-1.33,3.42s-1.23,3.05-2.05,4.76-1.66,3.54-2.54,5.36-1.8,3.61-2.69,5.28-1.75,3.21-2.47,4.55-1.39,2.4-1.83,3.17S530,123.55,530,123.55Z"/><path class="cls-7" d="M532.83,125a.41.41,0,0,1,.06-.17c.05-.12.13-.28.23-.49.21-.42.52-1,.94-1.82.84-1.55,2-3.77,3.51-6.4s3.2-5.7,5.11-9,3.93-6.73,6-10.21c1.07-1.76,2.24-3.36,3.34-5l1.65-2.43,1.72-2.32c2.27-3,4.42-5.84,6.31-8.19,3.76-4.73,6.38-7.78,6.38-7.78l-1.61,2.25c-1,1.41-2.47,3.49-4.26,5.92-.9,1.21-1.87,2.53-2.85,3.94s-2,2.9-3.15,4.42L554.48,90l-1.62,2.46c-1.06,1.66-2.25,3.33-3.25,5l-6.08,10.13c-1.95,3.24-3.83,6.21-5.41,8.79s-2.93,4.69-3.87,6.18l-1.07,1.74A2.83,2.83,0,0,0,532.83,125Z"/><path class="cls-8" d="M535.35,126.41l1.13-2c.74-1.26,1.78-3.09,3.09-5.24s2.89-4.63,4.6-7.27c.85-1.34,1.8-2.66,2.76-4l2.9-4.1c1.08-1.34,2.16-2.59,3.22-3.86s2.08-2.54,3.16-3.69,2.09-2.29,3.08-3.35,1.91-2.06,2.8-3c1.74-1.81,3.24-3.28,4.28-4.32L568,84l-1.5,1.76c-1,1.1-2.3,2.72-4,4.6s-3.5,4.16-5.58,6.51c-1.06,1.16-2.05,2.46-3.1,3.73s-2.12,2.58-3.14,3.88l-2.94,4c-1,1.33-1.94,2.62-2.8,3.94-1.75,2.61-3.49,5-4.88,7.07s-2.63,3.79-3.45,5Z"/><path class="cls-9" d="M538.57,128.4s.22-.35.63-.94,1-1.45,1.71-2.43,1.6-2.12,2.57-3.31,2-2.44,3.1-3.68,2.21-2.42,3.27-3.52c.52-.57,1.08-1.06,1.58-1.55l1.45-1.36c.44-.43.91-.77,1.29-1.08l1-.81c.57-.45.9-.69.9-.69s-.27.32-.75.85c-.24.27-.53.59-.87,1s-.72.77-1.11,1.24l-5.92,6.72-3.19,3.57-2.83,3.09-2,2.14Z"/><path class="cls-10" d="M541.05,130s.2-.26.57-.68.9-1,1.56-1.73c1.31-1.41,3.12-3.21,5-5s3.82-3.4,5.33-4.59c.75-.6,1.4-1.07,1.85-1.41s.72-.51.72-.51-.2.25-.57.68-.9,1-1.56,1.73c-1.31,1.4-3.13,3.21-5,4.94s-3.83,3.4-5.33,4.59c-.75.6-1.41,1.07-1.85,1.41S541.05,130,541.05,130Z"/><path class="cls-11" d="M544.12,132.13s.36-.39,1-1,1.56-1.61,2.72-2.69,2.48-2.36,4-3.67c.74-.65,1.49-1.34,2.28-2l2.41-2c1.61-1.35,3.29-2.64,4.86-3.84s3.13-2.21,4.41-3.13a18.41,18.41,0,0,1,1.83-1.15l1.45-.84,1.26-.71-1.15.9c-.72.57-1.79,1.32-3,2.32s-2.66,2.13-4.17,3.4-3.16,2.56-4.76,3.93l-4.76,3.92-4.19,3.39c-1.23,1-2.27,1.8-3,2.37Z"/><path class="cls-12" d="M547.32,134.47s.32-.34.89-.91,1.39-1.38,2.41-2.31,2.18-2,3.49-3.17,2.71-2.32,4.13-3.49,2.87-2.31,4.26-3.34,2.72-1.94,3.85-2.73c.57-.39,1.09-.76,1.59-1l1.26-.73c.7-.4,1.11-.61,1.11-.61l-1,.8-1.14.89c-.45.33-.91.77-1.45,1.2L559,125.47l-4.21,3.38L551,131.74c-1.09.84-2,1.51-2.67,2Z"/><path class="cls-13" d="M557.22,134.47s.2-.34.59-.92,1-1.41,1.68-2.37,1.58-2.05,2.55-3.19,2.05-2.33,3.17-3.47,2.29-2.24,3.46-3.2c.56-.49,1.14-.93,1.7-1.34a19.4,19.4,0,0,1,1.62-1.1,10.58,10.58,0,0,1,1.44-.8,9.16,9.16,0,0,1,1.15-.53c.66-.24,1-.36,1-.36s-.34.22-.94.56a8.06,8.06,0,0,0-1,.69c-.39.28-.82.6-1.28,1-.92.73-2,1.64-3,2.66-.55.49-1.09,1-1.65,1.57s-1.11,1.11-1.66,1.67c-1.12,1.11-2.2,2.27-3.24,3.34L560,131.6Z"/><path class="cls-14" d="M557.22,147.46l5.31-2.56c1.59-.75,3.42-1.69,5.39-2.68s4.06-2.06,6.1-3.2q1.56-.83,3.06-1.71c1-.57,2-1.15,2.9-1.73s1.82-1.16,2.67-1.7,1.59-1.13,2.31-1.64,1.31-1,1.88-1.48l.77-.64.6-.59,1.17-1.13s-.37.46-1,1.28l-.54.66-.72.72a19.27,19.27,0,0,1-1.76,1.68c-.69.56-1.4,1.22-2.23,1.81s-1.66,1.29-2.6,1.87-1.88,1.26-2.9,1.84-2,1.19-3.06,1.76-2.09,1.1-3.13,1.63-2.09,1-3.09,1.47c-2,.93-3.93,1.7-5.57,2.36s-3,1.13-4,1.48S557.22,147.46,557.22,147.46Z"/><path class="cls-15" d="M559.15,149.45l6.43-2.4c1-.36,2-.72,3.11-1.16l3.45-1.34c1.21-.44,2.43-1,3.68-1.46l3.79-1.51c1.27-.51,2.51-1.08,3.75-1.61l3.63-1.56c2.3-1.12,4.48-2.11,6.34-3,3.57-2,6-3.28,6-3.28l-1.55,1.08c-1,.66-2.41,1.65-4.16,2.77s-3.92,2.15-6.21,3.34c-1.17.55-2.38,1.11-3.62,1.66s-2.48,1.13-3.76,1.65c-2.57,1-5.11,2.05-7.56,2.85L569,146.67c-1.12.37-2.19.68-3.17,1-2,.61-3.65,1-4.8,1.34S559.15,149.45,559.15,149.45Z"/><path class="cls-16" d="M558.82,161.12l5.32.62,6.1.66c2.36.27,5,.48,7.93.78s6.06.54,9.38.81,6.86.46,10.49.7,7.4.35,11.23.47l2.88.09c1,0,1.92,0,2.88,0l5.82-.09,11.62-.18c3.85.09,7.63.15,11.28.28s7.18.36,10.52.6,6.49.49,9.41.76c5.82.53,10.65,1.11,14,1.51l5.31.7-5.33-.48-6.12-.51-7.94-.58c-2.92-.21-6.07-.36-9.41-.57l-10.5-.45c-3.64-.1-7.4-.13-11.22-.2l-11.61.25-5.85.06c-1,0-1.94,0-2.91,0l-2.89-.11c-3.84-.15-7.61-.24-11.26-.54s-7.17-.5-10.49-.87-6.49-.63-9.39-1-5.56-.65-7.91-1l-6.08-.86Z"/><path class="cls-17" d="M559.27,152l12.5-2.09,6.05-1,6.75-1.16,7.22-1.19c2.45-.43,4.91-1,7.39-1.47l3.71-.71c.61-.12,1.26-.23,1.82-.36l1.8-.54a45.4,45.4,0,0,0,6.58-2.94c2.08-1.11,4-2.27,5.9-3.4s3.56-2.28,5.12-3.35c3.13-2.15,5.7-4,7.47-5.33l2.77-2.11s-.94.86-2.64,2.28-4.15,3.44-7.23,5.68c-1.53,1.13-3.22,2.31-5,3.53s-3.77,2.44-5.88,3.57a46.71,46.71,0,0,1-6.74,3.09l-1.8.55c-.65.17-1.24.26-1.87.4l-3.73.75c-2.5.47-5,1-7.46,1.4l-7.24,1.12c-4.69.75-9.09,1.32-12.86,1.79C564.32,151.52,559.27,152,559.27,152Z"/><path class="cls-18" d="M561.77,154.29l4.34-.21,11.45-.6c4.74-.24,10.26-.62,16.16-1.08,2.95-.22,6-.45,9.09-.82l4.66-.51,4.65-.74c.77-.14,1.57-.21,2.31-.38l2.31-.54,4.58-1,4.51-1,2.21-.51,2.16-.58c5.71-1.56,11.08-2.85,15.65-4.14l15.26-4.16L657,139.29c-2.63.83-6.4,2-10.94,3.42-2.27.71-4.75,1.4-7.36,2.15l-8.24,2.33-2.17.6-2.21.53-4.5,1.07-4.57,1.1-2.3.55c-.8.19-1.57.27-2.36.41l-4.71.71-4.69.48c-3.1.34-6.17.54-9.13.75s-5.82.33-8.54.45-5.29.21-7.66.28-4.55.12-6.48.13l-5,.05Z"/><path class="cls-19" d="M559.27,157.42l5.11.27,13.46.65c2.79.15,5.81.23,9,.35s6.56.13,10,.24c1.74.06,3.51,0,5.3,0s3.6.05,5.42-.09l11.06-.61,11.09-.53,10.76-.22c7-.17,13.5-.19,19.08-.19,11.15,0,18.59.11,18.59.11l-18.59.53-9,.22-10,.32-10.73.29-11.08.6-11.1.53c-1.84.13-3.66,0-5.46.06s-3.58,0-5.32-.05c-3.49-.12-6.87-.2-10.06-.4s-6.21-.33-9-.54c-5.57-.36-10.2-.79-13.45-1.07Z"/><path class="cls-20" d="M557.61,143.3s23.8-19.42,29.21-21.72,5.41-.3,10.25-2.87,16.22-4.84,28.74,1.42,13.1.22,23.06,1.53,16.51,13,21.63,15.27,13.66-1.93,22.2,6.29,10.25,23.59,11.1,27.29S701,179.9,701,179.9s-33.58.29-48.1,1.71-42.41,1.71-52.37,0-19-11.1-24.86-12-21.44-4.08-21.44-4.08S547.85,151.09,557.61,143.3Z"/><path class="cls-21" d="M557.61,143.3c6.16-5.06,12.37-10.05,18.71-14.87,1.59-1.2,3.2-2.4,4.82-3.55a45.78,45.78,0,0,1,5.06-3.24,8.8,8.8,0,0,1,1.38-.61,11.32,11.32,0,0,1,1.42-.49,13.55,13.55,0,0,1,3-.55,10,10,0,0,0,2.84-.6,8.45,8.45,0,0,0,1.35-.58l1.34-.64a28,28,0,0,1,11.76-2.37,36.69,36.69,0,0,1,11.84,2c3.84,1.25,7.24,3.51,11,4.41a13.38,13.38,0,0,0,5.77.22c1.91-.34,3.84-1,5.87-1.21a18.13,18.13,0,0,1,11.73,2.47,48.6,48.6,0,0,1,9.16,7.79,41.71,41.71,0,0,0,4.34,4,8.11,8.11,0,0,0,1.19.78l.31.16.12.07.18.06.7.25a12.22,12.22,0,0,0,2.82.41c1.95.1,3.95,0,6,.15a20.78,20.78,0,0,1,6,1.2,19.32,19.32,0,0,1,5.31,3l1.16,1,.28.25.28.29.51.55a25.11,25.11,0,0,1,2,2.33,39.6,39.6,0,0,1,5.36,10.82,80.47,80.47,0,0,1,2.8,11.69l.28,1.45.07.36c0,.2,0,.26.06.4a3.84,3.84,0,0,1,.08.79,10.31,10.31,0,0,1-.48,3.13,20.55,20.55,0,0,1-2.59,5.12l-.14-.18H701c-6.25,0-12.51.6-18.77.7l-9.37.5c-3.13.11-6.26.25-9.37.48l-9.35.63c-3.14.18-6.24.56-9.38.67l-4.7.25-4.69.15c-3.13.12-6.26.11-9.39.16s-6.27,0-9.4-.09-6.26-.18-9.39-.43c-.78-.05-1.57-.09-2.35-.16l-2.34-.29c-.79-.11-1.55-.16-2.35-.32s-1.53-.31-2.29-.57a38.31,38.31,0,0,1-8.55-4c-2.7-1.6-5.27-3.39-7.95-5a23,23,0,0,0-4.16-2.07,43,43,0,0,0-4.56-1l-9.23-1.75-9.19-1.9,9.22,1.78,9.24,1.63a42,42,0,0,1,4.62.94,23.06,23.06,0,0,1,4.25,2c2.71,1.58,5.31,3.33,8,4.89A39.65,39.65,0,0,0,598,180.7a21.46,21.46,0,0,0,2.27.55c.74.15,1.54.2,2.3.31l2.32.27c.77.07,1.55.1,2.33.16,3.11.23,6.24.3,9.37.38s6.25.06,9.37,0,6.25-.06,9.38-.2l4.68-.16,4.68-.25c3.11-.13,6.24-.5,9.35-.69l9.38-.62c3.13-.25,6.26-.3,9.39-.42l9.38-.33c6.26-.13,12.52-.3,18.78-.37l-.43.24a22.48,22.48,0,0,0,2.43-5.27,9.63,9.63,0,0,0,.42-2.75,3.61,3.61,0,0,0-.06-.7l-.06-.33-.07-.37-.29-1.48a86.62,86.62,0,0,0-2.79-11.54A38.31,38.31,0,0,0,695,146.65a21.65,21.65,0,0,0-1.87-2.25l-.51-.55-.24-.25-.27-.24-1.1-1a18.25,18.25,0,0,0-5-2.9,19.53,19.53,0,0,0-5.69-1.16c-2-.14-3.94-.07-6-.18a13.94,13.94,0,0,1-3.08-.47l-.7-.26-.18-.06a1.11,1.11,0,0,1-.2-.11l-.35-.19a7.75,7.75,0,0,1-1.31-.85,42.23,42.23,0,0,1-4.42-4.11,47.74,47.74,0,0,0-9-7.7,17.29,17.29,0,0,0-11.2-2.4c-1.94.2-3.82.82-5.83,1.17a14.34,14.34,0,0,1-6.08-.25c-4-1-7.35-3.26-11.1-4.49a35.86,35.86,0,0,0-11.61-2,27.39,27.39,0,0,0-11.5,2.25l-1.35.65a9,9,0,0,1-1.4.59,10.32,10.32,0,0,1-3,.6,13.14,13.14,0,0,0-2.88.49,12.2,12.2,0,0,0-1.41.46,9.12,9.12,0,0,0-1.35.57,49.2,49.2,0,0,0-5,3.15c-1.63,1.13-3.25,2.3-4.85,3.48C570.11,133.41,563.83,138.32,557.61,143.3Z"/><path class="cls-22" d="M267.18,204.1s.48-.66,1.37-1.77,2.21-2.67,3.9-4.45c.87-.86,1.78-1.82,2.81-2.79s2.09-2,3.33-2.91a38.75,38.75,0,0,1,3.86-2.77l2.05-1.3a21.94,21.94,0,0,0,2-1.32c.65-.45,1.29-.91,1.91-1.42s1.25-1,1.84-1.53c1.2-1,2.34-2.12,3.41-3.19s2.1-2.11,3.06-3.12,1.85-2,2.67-2.89c1.62-1.81,3-3.33,3.89-4.42l1.45-1.7s-.45.68-1.27,1.84-2,2.81-3.58,4.7c-.78.95-1.62,2-2.54,3s-1.9,2.17-3,3.26-2.2,2.21-3.41,3.28c-.59.55-1.21,1.09-1.85,1.6s-1.29,1-2,1.51-1.39.88-2.08,1.31L283,190.31A37.35,37.35,0,0,0,279.2,193c-.62.43-1.18.92-1.74,1.39l-1.65,1.36c-1.05.9-2,1.81-2.91,2.63l-2.39,2.3-1.79,1.83Z"/><path class="cls-23" d="M274.87,206.09a30.13,30.13,0,0,1,2.06-3c.33-.44.71-.89,1.12-1.36s.82-1,1.29-1.48c1-1,1.94-2.05,3-3l1.64-1.42a19.54,19.54,0,0,1,1.66-1.29l1.59-1.15a12.7,12.7,0,0,1,1.49-.95c.94-.55,1.75-1,2.3-1.28l.88-.46-.76.65c-.5.39-1.19,1-2.05,1.62s-1.77,1.52-2.82,2.35-2.09,1.83-3.17,2.77c-.54.46-1.06.95-1.57,1.45L280.06,201c-1,.95-1.87,1.81-2.64,2.57s-1.42,1.38-1.85,1.84Z"/><path class="cls-24" d="M283.4,207.51s.7-.77,2-2c.66-.63,1.44-1.42,2.39-2.26s2-1.84,3.23-2.79,2.51-2.07,4-3.11l2.23-1.63c.78-.53,1.61-1,2.43-1.56s1.65-1.09,2.54-1.56l2.7-1.45,5.46-2.93c.94-.46,1.83-1,2.71-1.51l2.64-1.57c1.76-1,3.41-2.17,5.05-3.2s3.18-2.12,4.67-3.1,2.87-1.95,4.15-2.85c2.56-1.77,4.69-3.27,6.16-4.33l2.32-1.67s-.78.69-2.19,1.84l-2.55,2.06c-1,.8-2.11,1.69-3.36,2.62s-2.59,2-4.05,3-3,2.19-4.6,3.24S318,185,316.25,186l-2.66,1.62c-.89.56-1.78,1.09-2.71,1.56l-5.5,2.86-2.68,1.4c-.88.46-1.7,1-2.53,1.51l-2.44,1.49L295.47,198c-1.49,1-2.83,2-4.07,2.93s-2.34,1.84-3.34,2.61-1.82,1.52-2.52,2.1C284.17,206.81,283.4,207.51,283.4,207.51Z"/><path class="cls-25" d="M291.94,210.93l2.43-1.4,6.36-3.73,4.21-2.56c1.5-.9,3.08-1.85,4.65-2.91l10-6.55,5.12-3.29,5-3c1.64-1,3.24-1.92,4.75-2.8s3-1.68,4.29-2.44c5.33-3,9-4.87,9-4.87l-2.37,1.5-6.25,3.92c-1.29.81-2.72,1.65-4.19,2.6s-3,1.93-4.65,2.92l-5,3.1-5.07,3.34-10.09,6.45c-1.6,1.06-3.23,1.93-4.76,2.78l-4.31,2.41c-1.33.75-2.6,1.35-3.71,1.92l-2.87,1.45Z"/><path class="cls-26" d="M297.35,213.78l3.1-1.22c2-.75,4.79-1.86,8.2-3.12s7.36-2.77,11.63-4.31c2.14-.77,4.34-1.54,6.56-2.4s4.41-1.83,6.62-2.81l13-5.68c4.16-1.81,8.11-3.37,11.51-4.66,1.69-.65,3.28-1.18,4.68-1.64s2.64-.82,3.69-1l1.38-.32,1-.15.87-.12-.86.18-1,.22-1.35.4c-1,.27-2.22.74-3.61,1.23s-2.91,1.14-4.59,1.84c-3.35,1.37-7.2,3.12-11.35,5l-13,5.81c-2.22,1-4.46,1.89-6.7,2.76s-4.47,1.59-6.6,2.34c-4.29,1.5-8.31,2.81-11.75,4s-6.33,2.06-8.34,2.73Z"/><path class="cls-27" d="M304.75,216.62l2.8-.85,3.22-1c1.23-.4,2.66-.7,4.21-1.08,3.11-.73,6.73-1.63,10.63-2.51l3-.67,3-.73,3.07-.75,3-.93,3-.91c1-.3,2-.67,3-1,2-.69,3.93-1.31,5.8-2l5.4-1.94,4.82-1.8,9.94-3.78L367,198c-1.69.77-4.11,1.88-7.05,3.12s-6.38,2.69-10.12,4.08c-1.86.74-3.82,1.38-5.8,2.09s-4,1.37-6.06,2l-3.07.9-3.08.72-3.05.69-3,.64c-3.89.83-7.55,1.52-10.67,2.15-1.56.34-3,.55-4.26.88l-3.28.76Z"/><path class="cls-28" d="M312.45,220.37c20.21-3.56,60.25-15.12,85.75-22.16-8.73-14.05-44.4-41-64.13-44.4s-23.15-1.89-26.19,0-16.7,19-28.46,26.57-21.24,20.38-21.24,20.38h0C280,203.69,307.13,213.58,312.45,220.37Z"/><path class="cls-29" d="M398.16,198.24a47.92,47.92,0,0,0-3.28-4.34c-1.13-1.42-2.42-2.71-3.66-4s-2.61-2.53-3.91-3.8l-4.06-3.63-4.2-3.47-4.3-3.35-4.4-3.21-4.49-3.08c-1.51-1-3.05-2-4.58-3s-3.11-1.86-4.67-2.79-3.18-1.74-4.77-2.62-3.25-1.59-4.87-2.39-3.35-1.4-5-2.1l-2.57-.85a19.63,19.63,0,0,0-2.59-.75l-2.63-.61c-.88-.16-1.79-.28-2.69-.43-1.79-.26-3.59-.6-5.39-.78s-3.58-.49-5.39-.57l-2.7-.17h-2.69a25.83,25.83,0,0,0-2.65.24,9.43,9.43,0,0,0-1.28.28,5.9,5.9,0,0,0-1.23.4,10.35,10.35,0,0,0-2.26,1.25,20.38,20.38,0,0,0-1.93,1.8c-2.54,2.57-5,5.27-7.51,7.89s-5.08,5.23-7.73,7.73a89.86,89.86,0,0,1-8.43,7l-4.49,3.11-2.24,1.56c-.72.54-1.4,1.13-2.11,1.7L271.36,187l-2,1.85c-1.35,1.2-2.62,2.5-3.89,3.79a98.76,98.76,0,0,0-7.24,7.93l0-.29h0l0,.31h0l-.06.07h0a99.22,99.22,0,0,1,7-8.39c1.24-1.33,2.49-2.64,3.84-3.88l2-1.89,2.09-1.78c.7-.58,1.39-1.2,2.11-1.76l2.2-1.6,4.43-3.18a88.91,88.91,0,0,0,8.19-7.09c2.64-2.49,5.19-5.07,7.7-7.69s5-5.3,7.53-7.91a22.14,22.14,0,0,1,2.08-1.89,10.88,10.88,0,0,1,2.51-1.35,6.71,6.71,0,0,1,1.36-.43,11.35,11.35,0,0,1,1.38-.3,26.23,26.23,0,0,1,2.78-.22l2.77,0,2.74.2c1.83.09,3.63.42,5.44.62s3.6.56,5.4.84c.9.15,1.79.28,2.7.45l2.68.64a21,21,0,0,1,2.63.78l2.6.89c1.69.72,3.39,1.39,5,2.16s3.3,1.56,4.9,2.44,3.21,1.72,4.77,2.67,3.14,1.85,4.67,2.84,3.06,2,4.57,3l4.47,3.13,4.38,3.27,4.27,3.4,4.17,3.52,4,3.68c1.29,1.29,2.62,2.52,3.87,3.85a60,60,0,0,1,6.87,8.47Z"/><path class="cls-30" d="M405.1,303.72s.41.38,1.09,1.07,1.68,1.67,2.8,2.9,2.48,2.63,3.85,4.2,2.84,3.24,4.27,4.95,2.82,3.44,4.08,5.1,2.4,3.25,3.35,4.62c.48.69.93,1.31,1.27,1.9l.88,1.53.74,1.34-.93-1.22-1-1.41c-.4-.54-.92-1.1-1.43-1.76l-1.69-2.08-1.93-2.29-4.18-5c-1.41-1.71-2.82-3.43-4.15-5l-3.57-4.43C406.43,305.5,405.1,303.72,405.1,303.72Z"/><path class="cls-31" d="M398.2,306.56l1,1.38c.62.89,1.56,2.13,2.61,3.67s2.31,3.31,3.61,5.25,2.64,4,4,6.11,2.66,4.2,3.87,6.19,2.3,3.87,3.23,5.49,1.68,3,2.17,4,.75,1.54.75,1.54l-.95-1.43C418,337.8,417,336.55,416,335l-3.54-5.29c-1.28-1.94-2.63-4-4-6.12s-2.66-4.19-3.88-6.18-2.32-3.85-3.29-5.45-1.72-2.95-2.27-3.89Z"/><path class="cls-32" d="M388.15,312.54l1.14,1.46c.71.95,1.75,2.27,2.95,3.9s2.62,3.52,4.08,5.57,3,4.26,4.58,6.46,3.07,4.43,4.48,6.53,2.68,4.09,3.83,5.74,2,3.08,2.69,4.07l1,1.57-1.18-1.43c-.72-.93-1.81-2.22-3-3.83s-2.65-3.5-4.13-5.55-3-4.24-4.6-6.45-3.06-4.43-4.46-6.54-2.67-4.09-3.78-5.77-2-3.14-2.61-4.14Z"/><path class="cls-33" d="M380.18,317.52l1.21,1.54c.75,1,1.86,2.4,3.12,4.13s2.75,3.73,4.28,5.92,3.15,4.53,4.75,6.9,3.13,4.76,4.54,7,2.67,4.43,3.73,6.29c.55.92,1,1.81,1.38,2.58s.7,1.48,1,2a8.52,8.52,0,0,1,.51,1.36l.17.48-.22-.46a12.39,12.39,0,0,0-.66-1.28c-.32-.54-.66-1.21-1.14-1.93l-1.56-2.46c-1.14-1.8-2.55-3.86-4-6.08l-4.65-6.95-4.63-7c-1.45-2.24-2.81-4.33-4-6.12s-2.09-3.31-2.77-4.36S380.18,317.52,380.18,317.52Z"/><path class="cls-34" d="M371.64,321.08l1,1.43c.62.92,1.54,2.21,2.57,3.8s2.27,3.44,3.54,5.45,2.6,4.16,3.9,6.33,2.57,4.37,3.74,6.44,2.23,4,3.16,5.67,1.64,3.08,2.16,4.05l.8,1.55-1-1.44c-.61-.93-1.51-2.23-2.52-3.84s-2.24-3.46-3.47-5.48-2.56-4.19-3.86-6.36l-3.77-6.4c-1.21-2-2.28-4-3.23-5.63s-1.68-3.06-2.22-4Z"/><path class="cls-35" d="M411.85,302.38c-18.15,11-39.16,20.09-48.2,23.81,2.2,11.6,28.48,43.94,31.52,45.46s19.73,14.8,23.15,15.18S446,355,446,351.16s-8-15.18-14.39-23.15C426.93,322.17,416.89,309,411.85,302.38Z"/><path class="cls-36" d="M363.7,326.17l.63,2a40.62,40.62,0,0,0,2.55,5.38c1.24,2.26,2.88,4.93,4.85,7.93s4.3,6.31,7,9.84,5.59,7.33,8.77,11.27c1.62,1.94,3.27,4,5,5.92.44.5.88,1,1.36,1.46l.7.71.72.58c1.19.69,2.33,1.53,3.45,2.33,4.46,3.28,9,6.75,13.85,10,1.21.79,2.45,1.57,3.73,2.24a8.37,8.37,0,0,0,2,.79s.18,0,.23,0a1.21,1.21,0,0,0,.2-.07,2.54,2.54,0,0,0,.46-.24,8.6,8.6,0,0,0,.86-.63,58.88,58.88,0,0,0,6-6.41c3.78-4.53,7.34-9.24,10.71-14,1.69-2.36,3.34-4.72,4.89-7.09.77-1.19,1.52-2.39,2.21-3.59.35-.6.68-1.2,1-1.81.15-.31.29-.61.4-.91a2.51,2.51,0,0,0,.2-.73,6.66,6.66,0,0,0-.44-1.87c-.22-.61-.5-1.22-.78-1.82-.59-1.2-1.23-2.36-1.91-3.5-1.36-2.26-2.8-4.42-4.25-6.49-2.89-4.16-5.86-7.89-8.53-11.44L416.63,309l-4.82-6.53.09-.07,5.09,6.32,13.28,16.79,4.31,5.4c1.49,1.88,2.95,3.88,4.42,6s2.93,4.25,4.32,6.55c.7,1.15,1.36,2.34,2,3.59a18.86,18.86,0,0,1,.83,1.94,7.8,7.8,0,0,1,.48,2.15,3,3,0,0,1-.28,1.27c-.14.35-.29.68-.45,1-.32.64-.67,1.26-1,1.88-.72,1.22-1.49,2.41-2.28,3.61q-2.39,3.57-5,7.08c-3.48,4.66-7.15,9.31-11,13.77A60,60,0,0,1,420.3,386a9,9,0,0,1-.92.66,2.81,2.81,0,0,1-.52.26.93.93,0,0,1-.32.1.66.66,0,0,1-.31,0,8.46,8.46,0,0,1-2.1-.84c-1.3-.7-2.53-1.5-3.75-2.29-4.86-3.2-9.44-6.64-14-9.76-1.15-.78-2.25-1.55-3.42-2.19l-.9-.66-.74-.71c-.51-.47-1-1-1.42-1.44-1.86-1.94-3.54-3.94-5.18-5.88-3.26-3.91-6.16-7.74-8.77-11.33s-4.89-7-6.83-10-3.51-5.77-4.65-8.11a41.33,41.33,0,0,1-2.33-5.55c-.35-1.34-.54-2.05-.54-2.05Z"/><path class="cls-37" d="M402.38,391.1c-8.26-10.25-16.22-9.11-23.63-12.77s-15.36-27.93-17.07-30.49c-1.14-1.71-5.79-1.15-8.79-.58.63,13.11,4.67,66.61,8.56,87.75,1.27-.08,2.74-.12,4.5-.08,11.1.29,25.9-9.39,32.25-13.38a50.45,50.45,0,0,0,9.3-7.11S410.63,401.35,402.38,391.1Z"/><path class="cls-38" d="M361.45,435l6.44-.32c.54-.05,1.05-.16,1.58-.22a12.21,12.21,0,0,0,1.56-.29c.52-.12,1-.22,1.56-.35l1.53-.45c1-.3,2-.68,3-1s2-.77,3-1.22,1.95-.87,2.91-1.34,1.91-1,2.86-1.46c1.89-1,3.75-2.07,5.6-3.15s3.67-2.21,5.5-3.32c.94-.55,1.81-1.13,2.72-1.72s1.81-1.16,2.69-1.78l2.55-1.92c.81-.68,1.66-1.35,2.41-2.1l-.06.11a29.85,29.85,0,0,0,0-11.91,25.2,25.2,0,0,0-1.8-5.68,22.85,22.85,0,0,0-1.41-2.63,20.58,20.58,0,0,0-1.7-2.45c-.58-.77-1.3-1.51-2-2.25s-1.39-1.4-2.17-2a23.12,23.12,0,0,0-4.91-3.28,34.54,34.54,0,0,0-5.52-2.16c-1.91-.58-3.87-1.08-5.8-1.72a25.74,25.74,0,0,1-2.87-1.11l-.74-.33-.65-.38a10.05,10.05,0,0,1-1.28-1,23.85,23.85,0,0,1-3.84-4.83,77.43,77.43,0,0,1-5.53-10.8c-1.62-3.7-3.07-7.46-4.53-11.2a21.91,21.91,0,0,0-1.2-2.66,3.64,3.64,0,0,0-2.54-1,25,25,0,0,0-6,.37l0-.11a24.77,24.77,0,0,1,6-.69,6.81,6.81,0,0,1,1.54.22,3.8,3.8,0,0,1,.76.31,2.34,2.34,0,0,1,.64.54,17.93,17.93,0,0,1,1.39,2.77c1.63,3.69,3.15,7.4,4.83,11A95.28,95.28,0,0,0,373.65,372a23.53,23.53,0,0,0,3.66,4.58,11.45,11.45,0,0,0,1.08.85l.65.38.64.29a24.1,24.1,0,0,0,2.74,1.1c3.74,1.28,7.78,2.13,11.41,4.09a24.11,24.11,0,0,1,5,3.52A27.77,27.77,0,0,1,401,389c.66.78,1.32,1.5,1.92,2.35a22.47,22.47,0,0,1,1.67,2.56A23.07,23.07,0,0,1,406,396.6a29.44,29.44,0,0,1,1.74,5.81,34.86,34.86,0,0,1,.55,6,30,30,0,0,1-.54,6.05v.06l0,0c-.76.8-1.58,1.49-2.38,2.23l-2.53,2c-.86.65-1.75,1.24-2.63,1.87s-1.77,1.25-2.68,1.83c-1.79,1.17-3.63,2.31-5.47,3.42s-3.74,2.16-5.66,3.16c-1,.47-1.92,1-2.9,1.43s-2,.9-3,1.31-2,.81-3,1.18-2.06.69-3.11,1l-1.57.4c-.53.12-1.07.21-1.6.31a25.35,25.35,0,0,1-3.24.39c-2.15,0-4.31,0-6.46-.05Z"/><path class="cls-39" d="M352.88,378.33s.69-.73,1.82-1.69,2.69-2.2,4.32-3.32a41.87,41.87,0,0,1,4.66-2.83c1.34-.67,2.27-1,2.27-1s-.76.69-1.93,1.58l-2,1.52c-.74.56-1.55,1.12-2.35,1.69s-1.64,1.11-2.42,1.6-1.52.94-2.17,1.31C353.79,377.91,352.88,378.33,352.88,378.33Z"/><path class="cls-40" d="M352.89,385.12l.72-.62c.47-.37,1.12-.94,1.94-1.56,1.63-1.26,3.87-2.85,6.19-4.32,1.16-.72,2.33-1.43,3.46-2.06s2.21-1.17,3.15-1.59a17.05,17.05,0,0,1,2.35-.89,3,3,0,0,1,.7-.14l.24,0-.23.1a5.46,5.46,0,0,0-.63.28c-.53.27-1.25.72-2.12,1.26-1.72,1.11-4,2.57-6.31,4s-4.65,2.87-6.44,3.89c-.89.52-1.65.91-2.18,1.2S352.89,385.12,352.89,385.12Z"/><path class="cls-41" d="M354.85,397.64s1.25-1,3.25-2.46c1-.72,2.18-1.51,3.47-2.34s2.7-1.64,4.1-2.48c.7-.4,1.43-.77,2.14-1.15s1.42-.73,2.1-1.09c1.39-.65,2.7-1.22,3.83-1.7s2.13-.73,2.81-1,1.07-.34,1.07-.34-.36.21-1,.54-1.53.8-2.62,1.35-2.3,1.29-3.64,2c-.66.38-1.33.78-2,1.16s-1.41.77-2.11,1.19l-4.15,2.34-3.64,2-2.6,1.4Z"/><path class="cls-42" d="M357.12,424.12s2.68-1.05,6.66-2.68l3.21-1.33,3.55-1.55c1.24-.51,2.47-1.16,3.75-1.73s2.56-1.22,3.82-1.89a40.53,40.53,0,0,0,3.73-2c1.18-.74,2.4-1.4,3.54-2.14l3.3-2c1.07-.63,2-1.28,3-1.77s1.83-1,2.61-1.38,1.48-.71,2.06-1a13.47,13.47,0,0,1,1.84-.72l-.46.22c-.31.13-.73.41-1.28.7s-1.23.65-1.95,1.13-1.57,1-2.49,1.56-1.86,1.23-2.89,1.92l-3.21,2.18c-1.11.75-2.3,1.47-3.52,2.23a39.48,39.48,0,0,1-3.77,2.1c-1.28.67-2.57,1.32-3.88,1.88s-2.56,1.16-3.82,1.65l-3.63,1.4L364,422c-1,.37-2,.64-2.8.9s-1.58.48-2.18.66C357.82,424,357.12,424.12,357.12,424.12Z"/><path class="cls-43" d="M354.85,415.58l1-.5,2.54-1.25c2.12-1,5-2.27,7.83-3.52l4.21-1.8c1.35-.55,2.58-1.12,3.67-1.57s1.95-.87,2.57-1.16l1-.45s-.31.24-.87.63a24.88,24.88,0,0,1-2.4,1.56c-1,.58-2.21,1.27-3.54,1.9s-2.74,1.31-4.18,1.93-2.88,1.22-4.26,1.73-2.66,1-3.77,1.36-2.06.64-2.71.85Z"/><path class="cls-44" d="M22.12,382.85S32.36,375.44,35.21,372s4-6.83,2.84-11.39,8-9.67,8-14.8S58,335,63.1,329.9s43.26-35.86,47.25-41.55-1.71-5.69,3.42-10.82,46.67-46.11,52.94-54.08,13.66-9.67,25.61-15.94,36.43-9.11,59.77-7.4S309,213.78,313,221.18s56.92,94.49,50.09,107c0,0-10.81,4.55-10.25,18.21s6.34,89.94,10.86,96.78,18.17,19.35,27.85,26.18c0,0-15.94.57-30.74,8.54s-26.18,8-44.4,20.49S237.86,534.27,215.66,536,169,557,169,557s-18.78-23.34-29.6-25.62-32.45-5.69-34.72-10.25S91,514.91,82.46,506.94,55.13,486.45,50,485.88s-8-.57-18.79-8-5.69-9.68-9.1-17.08S7.31,437.49,2.19,435.22c-3-5.69-3.2-11.33,1.38-13,4-1.42,10.7-2.63,18.67,1.92s10.69,5.35,10.69,5.35Z"/><path class="cls-45" d="M301.81,221.37a53.18,53.18,0,0,0,4.93,41.36c12.15,20.88,20.5,36.43,31.12,41.75s14.8,11.38,17.84,14.42,3.41,9.11,3.41,9.11,41.37-15.94,66-34.54,24.29-22,25.43-29.6-1.9-12.14,12.9-22.39,53.51-39.85,65.65-52,21.26-23.91,25-23.91,11.76-5.32,8.73-14.8-30.36-27.32-35.29-28.08-9.49-3.42-12.15,4.55-7.21,9.87-19,19S438.05,188,413.76,194.05,314.71,222.88,301.81,221.37Z"/><path class="cls-46" d="M297.35,237.11c7.12-2.27,110.41-38.13,118.48-34.43s31.24,32.16,13,45.82-96.27,41.92-105,43.76C310.73,274.49,297.35,237.11,297.35,237.11Z"/><path class="cls-47" d="M562.91,150.78c-3-9.49-30.36-27.32-35.29-28.08s-9.49-3.42-12.15,4.55-7.21,9.87-19,19S438.05,188,413.76,194.05c-7.26,1.81-19,5.12-32.31,8.82-12.72,3.55-11.27,5.86-4.27,8.78,13.23-3.65,36.17-10.11,38.65-9,8.06,3.69,31.24,32.16,13,45.82-.4.3-.84.61-1.29.92,10.81,12.52,22.19,20,23,14.45,1.13-7.59-1.9-12.14,12.9-22.39s53.51-39.85,65.65-52,21.26-23.91,25-23.91S565.94,160.26,562.91,150.78Z"/><path class="cls-48" d="M503.71,174.31c8.81,14.42,15.82,23.86,15.82,23.86,4-3.36,7.27-6.34,9.6-8.68,12.15-12.15,21.26-23.91,25-23.91s-.71-4.78-3.75-14.27S528,136.7,523.06,136s-7.59-8.7-7.59-8.7c-2.66,8-7.21,9.87-19,19-1.52,1.18-3.63,2.76-6.2,4.62C490.29,150.85,491.11,153.7,503.71,174.31Z"/><path class="cls-49" d="M378,256.66c4.59,10.29,16.35,19.55,22.54,28.08,7.5,10.35,9.21,18.92,10.57,18.1a160.2,160.2,0,0,0,14-9.37C439,283,445,277.38,447.71,273.09c2.16-3.36-23.48-14.8-24.84-32.75Z"/><path class="cls-50" d="M120,307.13c1.57,3.92,3,7.88,4.49,11.86.71,2,1.41,4,2.08,6s1.32,4,1.9,6.06c.31,1,.57,2,.84,3.07a27.29,27.29,0,0,1,.59,3.17c.15,1,.24,2.1.44,3.12s.39,2,.66,3.05c1,4.08,2.2,8.12,3.54,12.1l.14.4-.37.23a20.4,20.4,0,0,0-3.63,3c-.54.58-1.11,1.13-1.61,1.75l-1.47,1.88a38.32,38.32,0,0,0-2.45,4.08L124.05,369a19,19,0,0,1-1.2,2.14,32,32,0,0,1-2.87,4,45.26,45.26,0,0,1-3.29,3.63c-1.16,1.16-2.36,2.26-3.62,3.3-.62.54-1.26,1-1.91,1.52s-1.3,1-2,1.44a44.52,44.52,0,0,1-4.17,2.58,43.43,43.43,0,0,1-4.41,2.11,35.25,35.25,0,0,1-4.66,1.53c-.8.17-1.59.37-2.41.5l-2.39.37c-1.59.28-3.22.42-4.84.59a44,44,0,0,1-4.87.12,59.69,59.69,0,0,1-9.6-1.47,66.57,66.57,0,0,0,9.61,1.11,43,43,0,0,0,4.81-.27c1.6-.23,3.19-.39,4.79-.7l2.39-.41c.78-.14,1.55-.36,2.33-.53a36.16,36.16,0,0,0,4.52-1.59,43,43,0,0,0,4.29-2.16c.7-.37,1.37-.82,2.05-1.25s1.34-.87,2-1.33,1.31-.92,1.93-1.42,1.27-1,1.87-1.51a47.47,47.47,0,0,0,3.53-3.26,46.88,46.88,0,0,0,3.2-3.57,32.24,32.24,0,0,0,2.75-3.89,21,21,0,0,0,1.16-2.1l1.11-2.16a34.17,34.17,0,0,1,2.55-4.21l1.54-1.94c.51-.63,1.12-1.2,1.67-1.81a22,22,0,0,1,3.88-3.13l-.24.63c-1.33-4-2.54-8.08-3.5-12.22-.26-1-.42-2.11-.63-3.15s-.24-2.09-.38-3.17a25.41,25.41,0,0,0-.52-3.06c-.24-1-.48-2-.76-3-1.1-4.07-2.41-8.08-3.7-12.1S121.41,311.12,120,307.13Z"/><path class="cls-51" d="M202.79,454.57s26.07-30.17,34.61-37,24.14-8.54,33.82,0,30.85,38.71,26,42.13-66.15,29-66.15,29l-28.3-31.88Z"/><path class="cls-52" d="M203.14,454.57s2.61-2.56,6.26-7c1.82-2.21,4.1-4.83,6.71-7.86s5.58-6.39,8.92-10c1.67-1.8,3.36-3.72,5.24-5.6l2.83-2.88c1-1,2.05-1.87,3.09-2.83.54-.47,1-1,1.63-1.42s1.13-.86,1.77-1.24a28.06,28.06,0,0,1,4-2,29.91,29.91,0,0,1,8.86-2.12,29,29,0,0,1,9.35.74,23.66,23.66,0,0,1,8.63,4.16,29.45,29.45,0,0,1,3.62,3.26c1.13,1.16,2.23,2.37,3.3,3.61,2.15,2.45,4.21,5,6.21,7.6a152.59,152.59,0,0,1,10.93,16.23,38.59,38.59,0,0,1,3.9,8.87,6.43,6.43,0,0,1,.18,2.57,2.31,2.31,0,0,1-.7,1.34l-.15.13c-.11.08-.11.06-.16.1l-.26.15-.5.29c-1.34.78-2.81,1.48-4.18,2.15-5.55,2.66-11,5-16.14,7.29s-10,4.33-14.57,6.22l-12.37,5.16L240,485.43l-8.36,3.35,0-.1,29.93-13.21L276,469.05c5.14-2.26,10.55-4.7,16.09-7.29,1.39-.66,2.73-1.28,4.09-2.05l.51-.29.25-.14s.13-.07.09-.06l.07-.05a1.2,1.2,0,0,0,.35-.71,5.49,5.49,0,0,0-.14-2.11,38.54,38.54,0,0,0-3.72-8.63A148.53,148.53,0,0,0,283,431.37c-1.94-2.63-3.94-5.21-6-7.7-1.05-1.23-2.13-2.44-3.25-3.61a30.35,30.35,0,0,0-3.55-3.26,24.59,24.59,0,0,0-17.71-4.56,29.43,29.43,0,0,0-8.6,2.28,26,26,0,0,0-3.76,2c-.61.35-1.17.83-1.75,1.23s-1,.93-1.55,1.39c-1,.95-2.07,1.83-3,2.81L231,424.85c-1.88,1.85-3.59,3.75-5.28,5.53s-3.26,3.51-4.77,5.17l-4.27,4.69-6.91,7.67-6,6.7Z"/><path class="cls-53" d="M213.1,461.69s20.78-17.08,24.76-19.36,15.94-12.24,15.94-12.24"/><path class="cls-53" d="M213.1,461.69l1.64-1.49c1.07-.93,2.56-2.28,4.41-3.85s4-3.41,6.33-5.3c1.18-.95,2.4-1.92,3.63-2.92s2.5-2,3.8-3,2.58-1.93,4-2.8l3.85-2.59c1.27-.83,2.39-1.74,3.51-2.54l3.12-2.3c1.91-1.48,3.55-2.66,4.67-3.51l1.78-1.33s-.59.55-1.64,1.5-2.56,2.27-4.41,3.83l-3,2.49c-1.08.86-2.19,1.86-3.45,2.68l-3.83,2.67c-1.29.85-2.56,1.84-3.84,2.81S231,448,229.77,449l-3.68,2.85-6.55,5c-1.9,1.48-3.54,2.66-4.65,3.52Z"/><path class="cls-54" d="M215.66,464.82s21.63-16.51,25.9-18.93,20.21-13.52,20.21-13.52"/><path class="cls-54" d="M215.66,464.82s2.69-2.29,6.84-5.57c2.09-1.62,4.49-3.57,7.15-5.54l4.08-3c1.38-1.06,2.85-2.06,4.31-3.07s2.92-2,4.41-2.9,2.93-1.8,4.32-2.7c2.74-1.83,5.36-3.43,7.56-4.9s4.09-2.6,5.39-3.44l2-1.29s-2.79,2.16-7.08,5.26c-2.15,1.54-4.67,3.34-7.41,5.21-1.37.92-2.82,1.82-4.28,2.77s-2.9,2-4.34,2.94-2.91,1.93-4.31,3l-4.12,3-7.34,5.25c-2.15,1.55-4,2.78-5.23,3.68Z"/><path class="cls-55" d="M223.06,466.53s16.8-10,25.05-15.94,22.77-15.66,22.77-15.66"/><path class="cls-55" d="M223.06,466.53l2.06-1.36c1.32-.85,3.17-2.12,5.43-3.56s4.85-3.23,7.68-5l2.15-1.38,2.16-1.48,4.39-3,8.72-5.9c2.78-1.88,5.42-3.57,7.67-5.06s4.15-2.65,5.46-3.5l2.1-1.31-2,1.49c-1.26.92-3,2.29-5.23,3.85s-4.71,3.42-7.47,5.34l-8.62,6-4.46,3-2.19,1.45-2.18,1.36c-2.86,1.76-5.54,3.39-7.87,4.73C226.23,464.85,223.06,466.53,223.06,466.53Z"/><path class="cls-56" d="M229.89,469.66s10-5.13,17.08-9.11a151.73,151.73,0,0,0,14.8-9.82"/><path class="cls-56" d="M229.89,469.66l1.36-.85c.87-.52,2.1-1.3,3.61-2.17s3.26-1.9,5.16-2.95,3.94-2.17,6-3.27c1-.5,2-1.16,3-1.72l2.9-1.7,5-3.14c1.45-1,2.69-1.71,3.55-2.27l1.34-.86-1.21,1c-.8.63-1.92,1.56-3.31,2.62s-3.06,2.24-4.87,3.47l-2.84,1.78c-1,.58-1.92,1.22-3,1.78-2,1.08-4.1,2.17-6,3.15s-3.78,1.86-5.34,2.64-2.89,1.36-3.81,1.79Z"/><path class="cls-57" d="M233.45,472.5c1.57-.28,16.94-8.25,22.34-10.81a65.81,65.81,0,0,0,9.68-5.7"/><path class="cls-57" d="M233.45,472.5l.37-.17c.24-.12.6-.26,1-.49l3.6-1.92,5.09-2.71c1.87-1,3.88-2,5.89-3l3-1.48c1-.5,2-.94,2.95-1.39l2.73-1.32,1.28-.6,1.14-.63c.73-.42,1.42-.77,2-1.09l1.54-.89c.86-.49,1.34-.79,1.34-.79l-.31.26a11.43,11.43,0,0,1-.9.71,40.8,40.8,0,0,1-3.38,2.35l-1.11.73-1.23.69c-.86.48-1.72,1-2.68,1.49l-5.91,3c-2,1-4,2-5.95,2.9s-3.72,1.71-5.27,2.39-2.89,1.19-3.8,1.56a10,10,0,0,1-1.09.34Z"/><path class="cls-58" d="M238.72,474.78s16.51-6.55,19.92-8.25"/><path class="cls-58" d="M238.72,474.78l.81-.45c.54-.26,1.28-.67,2.19-1.11s2-.94,3.15-1.45l3.63-1.56c2.47-1,5-2,6.9-2.67,1-.33,1.77-.57,2.34-.75s.9-.26.9-.26l-.8.46c-.52.27-1.26.69-2.16,1.15-1.8.92-4.26,2.06-6.75,3.12s-5,1.93-7,2.57c-1,.31-1.78.53-2.34.71Z"/><path class="cls-59" d="M238.72,478.19s19.92-4.55,24.76-7.54"/><path class="cls-59" d="M238.72,478.19l1.06-.36,2.8-.89c2.33-.73,5.44-1.62,8.55-2.49l4.57-1.29c1.46-.41,2.81-.8,4-1.16.57-.19,1.12-.33,1.58-.49s.87-.3,1.2-.43c.64-.28,1-.43,1-.43s-.33.24-.93.63-1.52.85-2.65,1.34-2.45,1-3.9,1.5-3,1-4.56,1.42c-3.13.87-6.31,1.59-8.7,2-1.2.23-2.21.36-2.91.48S238.72,478.19,238.72,478.19Z"/><path class="cls-60" d="M165.19,258.18s.11.74.37,2.12.69,3.41,1.21,6,1.29,5.67,2.28,9.19c.24.88.46,1.79.74,2.72s.59,1.88.89,2.86c.61,1.95,1.19,4,2,6.13.38,1.06.76,2.14,1.15,3.24s.78,2.22,1.27,3.32c.95,2.23,1.88,4.54,2.92,6.88,2.17,4.69,4.57,9.55,7,14.66,4.83,10.17,10,21,15,32,2.44,5.5,4.77,11.06,7,16.57a168.51,168.51,0,0,1,5.74,16.5c.34,1.39.78,2.73,1,4.14.13.7.26,1.4.38,2.09s.13,1.38.2,2.07c.13,1.34.16,2.72.18,4.07s0,2.67-.05,4a112.27,112.27,0,0,1-1.56,14.55,111.13,111.13,0,0,1-2.69,12.05,84.34,84.34,0,0,1-3,9,36.47,36.47,0,0,1-2.67,5.5c-.37.6-.72,1-.92,1.32l-.32.45.3-.46c.18-.32.5-.75.83-1.37a40.88,40.88,0,0,0,2.37-5.6,82.2,82.2,0,0,0,2.61-9.07c.84-3.55,1.59-7.6,2.24-12a111.48,111.48,0,0,0,1.17-14.39c0-1.28,0-2.59,0-3.87s-.11-2.6-.28-4c-.09-.66-.12-1.4-.24-2s-.25-1.31-.38-2a39.37,39.37,0,0,0-1-4,167,167,0,0,0-5.8-16.24c-2.23-5.46-4.6-11-7.07-16.43-4.82-11-9.92-21.87-14.67-32.08-2.38-5.1-4.64-10.08-6.68-14.82-1-2.39-1.89-4.77-2.78-7-.48-1.13-.84-2.27-1.2-3.4s-.72-2.21-1.07-3.29c-.74-2.14-1.29-4.24-1.82-6.23l-.77-2.91c-.24-.94-.42-1.87-.63-2.77-.84-3.57-1.41-6.72-1.89-9.3C165.47,261.17,165.19,258.18,165.19,258.18Z"/><path class="cls-60" d="M173.16,267.29l9.73,23.78c3,7.12,6.37,15.45,10.35,24.18.49,1.1,1,2.18,1.54,3.28s1.06,2.19,1.65,3.26a35.46,35.46,0,0,0,1.81,3.13c.7,1.06,1.41,2.08,2.08,3.19,2.73,4.35,5.18,8.88,7.53,13.49s4.45,9.33,6.34,14.07A88.16,88.16,0,0,1,218.68,370c.29,1.19.39,2.43.58,3.63s.18,2.36.26,3.53c.2,2.31.25,4.6.32,6.82s.12,4.38.12,6.46,0,4.09,0,6-.06,3.78-.09,5.54-.13,3.43-.19,5c-.12,3.13-.32,5.86-.46,8.11-.1,1.12-.19,2.12-.28,3a19.66,19.66,0,0,1-.28,2.21c-.22,1.18-.33,1.82-.33,1.82l.2-1.84c.18-1.19.13-3,.25-5.21s.09-5,0-8.1-.08-6.66-.18-10.51c0-1.92-.12-3.93-.2-6s-.14-4.21-.29-6.4-.24-4.44-.49-6.75c-.11-1.15-.22-2.3-.34-3.47s-.3-2.29-.61-3.44a92.73,92.73,0,0,0-4.56-13.93c-1.89-4.65-4-9.29-6.34-13.86s-4.72-9.09-7.34-13.33c-.63-1.05-1.36-2.11-2-3.15a34.47,34.47,0,0,1-1.89-3.37c-.59-1.12-1.13-2.24-1.63-3.36s-1-2.23-1.51-3.34c-2-4.42-3.68-8.76-5.31-12.88s-3.1-8-4.43-11.64c-2.69-7.23-4.78-13.32-6.26-17.56S173.16,267.29,173.16,267.29Z"/><path class="cls-61" d="M196.57,536.74s-2.54-10.25,2-13.28,9.3-2.28,14.52,2.65,2.56,6.83,2.56,6.83Z"/><path class="cls-61" d="M216,529.2s-3.41-11.06,0-14.09,12.14-3.8,13.85,0,1,8.35,0,11.76-6.07,5.26-10,3.8"/><path class="cls-61" d="M231.89,514.81s-4.08-9.19,1.61-9.95,10.06-2.37,13.47,5,6,8.49,0,11.05-11.1,7.12-13.09,1.71S231.89,514.81,231.89,514.81Z"/><path class="cls-61" d="M250,510s-2.7-5.88,2.71-7,12,2.37,14.23,7-1.87,9.73-6.27,9.77-9.39-2.66-9.39-2.66Z"/><path class="cls-61" d="M267.75,507.7s.15-8.73,2.07-11.29,7.89-1.71,11.59,0,4.84,7.75,4.84,7.75-13.22,9.33-16.43,9.33S267.75,507.7,267.75,507.7Z"/><path class="cls-61" d="M288.53,503.24s-7.12-4.84-5.41-11.95,5.12-7.69,7.4-7.4,9.39.85,12,6.54-3.7,12-7.4,12.81A13.82,13.82,0,0,1,288.53,503.24Z"/><path class="cls-61" d="M309.87,496.7s-6.26-9.11-6.54-13.95,2.28-6,6.54-6,10.53,5.41,10.25,8.26S315.74,496.33,309.87,496.7Z"/><path class="cls-61" d="M323.55,487.3s-6-12.52-5.71-16.5,5.13-5.55,10.25-1.5,8.82,8,4,12.31S327,488.73,323.55,487.3Z"/><path class="cls-61" d="M331.79,470.8s-4.87-9.68-1.15-11,9.4,2.13,11.68,5.26,4.74,8.69,0,8.83S331.79,470.8,331.79,470.8Z"/><path class="cls-62" d="M349.72,470.44a31,31,0,0,1-4-11.6c-.55-6,1.74-9.68,6.14-6.55s9.87,10.25,7.85,13.95S353.42,471.79,349.72,470.44Z"/><path class="cls-61" d="M193.15,526.16s-.26-9.25,2.59-11-7.06-5.63-9.36-8.51-14.27-13.09-21.67-13-10,.69-7.68,6.95,10.34,23.16,12.71,28.52,8.43,13.13,16.64,10.19,7.65-3.13,8.22-5.41S193.15,526.16,193.15,526.16Z"/><path class="cls-61" d="M156.23,510.08s-2.62-4.37-5.46-6.46-5.13-5.94-5.7-1.73-2.84,3.06-1.7,9.32,3.16,18,6.27,18,7.1,5.7,11.94,7.54,7.12,5,8.83,0S156.23,510.08,156.23,510.08Z"/><path class="cls-61" d="M133.94,508.37s-3.95-9-6.51-6.48-7.41,4.48-5.13,9.32,2.74,9.94,8.54,10.64,10.54,1.83,11.67,0S133.94,508.37,133.94,508.37Z"/><path class="cls-63" d="M329.24,373.9s-19.38-12.69-17.52-26.06-.63-23.25,6.11-14.14,13.26,22.77,19.3,29.22,12.49,7.54,8.51,11S329.24,373.9,329.24,373.9Z"/><path class="cls-63" d="M329.24,346.7s-3.52-12.85-1.62-16.53,6.51,5.66,9.51,6.49,14,18.92,4.15,16.14S329.24,346.7,329.24,346.7Z"/><path class="cls-45" d="M339.76,333.7s-5.69-16.42,3-16.18,13.36,8.78,10.09,12.67S347.73,343.19,339.76,333.7Z"/><path class="cls-64" d="M325.27,263.79c4.44-11.67,8.53-23.94,9.93-36.38.29-2.53-3.66-2.5-3.94,0-1.36,12.05-5.49,24-9.8,35.33-.91,2.38,2.91,3.4,3.81,1.05Z"/><path class="cls-65" d="M341,259c6.59-11.94,12.82-24.87,15.83-38.22.48-2.15-2.81-3.06-3.3-.91-2.94,13.1-9,25.69-15.48,37.41-1.07,1.92,1.89,3.65,2.95,1.72Z"/><path class="cls-66" d="M468.52,196.27a100.86,100.86,0,0,1,1.21-18.22c.44-2.41-3.23-3.43-3.68-1a106.79,106.79,0,0,0-1.34,19.24,1.91,1.91,0,0,0,3.81,0Z"/><path class="cls-67" d="M476.38,188.73a111.58,111.58,0,0,1,2.79-16.34c.53-2.14-2.76-3-3.3-.91A118.35,118.35,0,0,0,473,188.73c-.2,2.19,3.21,2.17,3.42,0Z"/><path class="cls-68" d="M322.89,265.73c7.85,6.15,15.74,12.27,23.72,18.25a42.27,42.27,0,0,1,12.48,14.56c2.41,4.41,6.34,10.86,6.39,16.07,0,2.48,3.87,2.48,3.84,0,0-4.18-2.52-8.66-4.17-12.4-2.79-6.35-6.3-12.94-11.46-17.69-8.55-7.87-18.91-14.32-28.09-21.5-1.92-1.51-4.66,1.18-2.71,2.71Z"/><path class="cls-69" d="M338.61,260.43c9.29,5.46,18.94,11.46,26.23,19.23,6.83,7.28,7.69,20.95,8.34,30.23.19,2.68,4.62,2.7,4.43,0-.73-10.45-2-22.91-8.42-31.74s-18.72-15.68-28.34-21.33c-2.43-1.43-4.66,2.19-2.24,3.61Z"/><path class="cls-70" d="M358.39,251.61c16.62,8.14,28.82,25.22,35.62,42,1.06,2.62,5.36,1.48,4.28-1.18-7.21-17.77-20-36-37.66-44.62-2.56-1.26-4.81,2.57-2.24,3.83Z"/><path class="cls-71" d="M432.47,220.79c-2.75-6.64-5-14-5-21.2,0-2.26-3.61-2.62-3.58-.33.08,7.86,2.36,15.77,5.36,23,.88,2.12,4.13.62,3.26-1.5Z"/><path class="cls-72" d="M430,224a55.87,55.87,0,0,0,23.36,20.11c2,.91,3.72-2,1.72-2.95a52.87,52.87,0,0,1-22.14-18.88c-1.17-1.85-4.13-.14-2.94,1.72Z"/><path class="cls-73" d="M413.13,228.41c-1.12-7.78-1.56-16.13,0-23.86.44-2.15-2.85-3.06-3.29-.91-1.7,8.39-1.22,17.24,0,25.67.31,2.18,3.6,1.25,3.29-.9Z"/><path class="cls-74" d="M401.1,233.88c-2.83-6.76-1.06-16.76-.17-23.79.28-2.18-3.13-2.44-3.41-.27-1,7.7-2.65,18,.5,25.54.84,2,3.92.55,3.08-1.48Z"/><path class="cls-75" d="M391,237.05c-2.64-8.41-1.62-18,.17-26.36.51-2.39-3.61-3.42-4.13-1-1.94,9.12-3,19.28-.18,28.38.74,2.36,4.88,1.36,4.14-1Z"/><path class="cls-76" d="M444.77,214.44c6.25,7,12.84,14.7,20.72,19.94,1.89,1.26,3.64-1.78,1.77-3-7.6-5.06-14-12.61-20-19.4-1.51-1.69-4,.8-2.48,2.49Z"/><path class="cls-77" d="M360.89,246.18c6.51-8.48,11.56-19,12.45-29.7.19-2.19-3.23-2.18-3.41,0-.84,10.11-5.86,20-12,28-1.34,1.75,1.63,3.44,2.95,1.72Z"/><path class="cls-78" d="M379.32,245.79c7.77,5,15.82,10.72,21.64,18,1.38,1.72,3.78-.72,2.42-2.41C397.4,253.9,389,248,381,242.84c-1.86-1.2-3.57,1.76-1.72,2.95Z"/><path class="cls-79" d="M411.44,233.77c5.39,7.67,10.68,15.75,17,22.67,1.5,1.62,3.91-.8,2.42-2.42-6.16-6.7-11.27-14.54-16.51-22-1.25-1.78-4.22-.08-2.94,1.72Z"/><path class="cls-80" d="M445.23,212.3c-1.7-5.88-3.4-12.25-3.14-18.4.1-2.48-3.74-2.47-3.84,0-.27,6.48,1.48,13.23,3.28,19.42.68,2.37,4.39,1.37,3.7-1Z"/><path class="cls-81" d="M457.57,205.64c-1.4-6.09-2.8-12.87-1.93-19.11.3-2.16-3-3.08-3.3-.91-.95,6.88.39,14.2,1.94,20.92.5,2.15,3.79,1.24,3.29-.9Z"/><path class="cls-82" d="M454.46,209.17c4.11,7,13.7,10.07,21.18,11.16,2.15.32,3.08-3,.91-3.29-6.56-1-15.49-3.34-19.15-9.59a1.7,1.7,0,0,0-2.94,1.72Z"/><path class="cls-83" d="M467.08,198.79A33.88,33.88,0,0,0,483,210c2.23.7,3.17-2.78,1-3.48a30.53,30.53,0,0,1-14.35-10.23c-1.44-1.82-4,.75-2.55,2.55Z"/><path class="cls-84" d="M113.2,317.51c5,11.2-1.65,25.06-14.86,31s-28,1.6-33-9.59S67,313.83,80.23,307.93,108.2,306.32,113.2,317.51Z"/><path class="cls-45" d="M99.62,318.7c3.48,7.78-.71,17.22-9.36,21.09s-18.48.68-22-7.1.71-17.21,9.36-21.08S96.15,310.92,99.62,318.7Z"/></g></g></svg>