<svg xmlns="http://www.w3.org/2000/svg" viewBox="0 0 170.5 42.9"><defs><style>.cls-1{fill:#f1ecce;}</style></defs><title>lighthouse_name</title><g id="圖層_2" data-name="圖層 2"><g id="lighthouse_name"><path class="cls-1" d="M154.91,1.45c-.1,2.72-1.49,5.66-2.49,8.17-.71,1.79,2.19,2.57,2.9.8,1.11-2.8,2.48-5.93,2.59-9,.07-1.93-2.93-1.93-3,0Z"/><path class="cls-1" d="M155.86,8.61a15.09,15.09,0,0,1,4.59-.32l-1-1.84A13,13,0,0,1,156,13.36a1.5,1.5,0,0,0,2.13,2.12,15.73,15.73,0,0,0,4.19-8.24c.11-.71-.17-1.72-1.05-1.84a19.82,19.82,0,0,0-6.19.32c-1.9.31-1.09,3.21.8,2.89Z"/><path class="cls-1" d="M150.15,15.1a71,71,0,0,1-1.22,11.35c-.32,1.89,2.57,2.7,2.89.79a77.34,77.34,0,0,0,1.33-12.14,1.5,1.5,0,0,0-3,0Z"/><path class="cls-1" d="M152.37,17.5c2.33-.74,5.26-2.07,7.76-1.61,3.4.64,3.12,5.28,2,7.66-.84,1.73,1.74,3.25,2.59,1.51,1.68-3.45,1.93-8.64-1.56-11.11s-8.09-.44-11.56.65c-1.84.58-1,3.48.8,2.9Z"/><path class="cls-1" d="M153.32,22.89l8.25-1.58c1.9-.37,1.09-3.26-.8-2.9L152.52,20c-1.89.37-1.09,3.26.8,2.89Z"/><path class="cls-1" d="M156.23,16.92c-.32,2.11-.31,4.25-.63,6.35-.29,1.89,2.6,2.7,2.89.8.32-2.11.31-4.25.64-6.35.29-1.89-2.6-2.7-2.9-.8Z"/><path class="cls-1" d="M151.73,28c4-.65,8.17-1,12.06-2.22,1.84-.57,1.06-3.47-.79-2.89-3.9,1.22-8.05,1.57-12.07,2.22-1.9.31-1.09,3.2.8,2.89Z"/><path class="cls-1" d="M148.77,27.36A54.55,54.55,0,0,1,142,38.48c-1.2,1.49.91,3.63,2.12,2.12a57.63,57.63,0,0,0,7.22-11.73c.81-1.74-1.77-3.26-2.59-1.51Z"/><path class="cls-1" d="M153.38,27.56c.6,4,1,7.74-.32,11.58-.64,1.83,2.26,2.62,2.89.8,1.51-4.35,1-8.71.32-13.18-.29-1.9-3.18-1.09-2.89.8Z"/><path class="cls-1" d="M157.89,27.59C159.94,29.85,160,34.1,160,37a1.5,1.5,0,0,0,3,0c0-3.79-.32-8.6-3-11.54-1.3-1.43-3.41.7-2.12,2.13Z"/><path class="cls-1" d="M166.39,26.92a23.19,23.19,0,0,1,0,14.13c-.56,1.85,2.33,2.64,2.89.8a26,26,0,0,0,0-15.72c-.62-1.82-3.52-1-2.89.79Z"/><path class="cls-1" d="M122.77,3c-2.88,3.16-5.69,6.39-8.49,9.62-1.26,1.45.85,3.58,2.12,2.12,2.8-3.23,5.61-6.46,8.49-9.62,1.3-1.43-.82-3.55-2.12-2.12Z"/><path class="cls-1" d="M127.32,4.89a44.22,44.22,0,0,1,8.49,4.82c1.59,1.1,3.09-1.5,1.52-2.59A47.43,47.43,0,0,0,128.12,2c-1.79-.72-2.57,2.18-.8,2.89Z"/><path class="cls-1" d="M129.49,5.8l-17,14.59c-1.47,1.26.66,3.37,2.12,2.12l17-14.59c1.47-1.26-.66-3.37-2.12-2.12Z"/><path class="cls-1" d="M119.58,12.09c5.77.42,12.56,1.56,17.65,4.45a1.5,1.5,0,0,0,1.51-2.6c-5.6-3.17-12.81-4.39-19.16-4.85-1.92-.14-1.91,2.86,0,3Z"/><path class="cls-1" d="M121,19.48c4-.95,8.28-.89,12.34-.88a1.5,1.5,0,0,0,0-3c-4.33,0-8.9,0-13.13,1-1.88.45-1.08,3.34.79,2.89Z"/><path class="cls-1" d="M121,17.63c-.7,4.77-1.1,9.57-1.47,14.37-.15,1.93,2.85,1.92,3,0,.35-4.53.7-9.07,1.36-13.57.28-1.89-2.61-2.7-2.89-.8Z"/><path class="cls-1" d="M122.11,25.07c4.58-1,9.73-2.18,14.41-1.24,1.89.37,2.69-2.52.8-2.9-5.23-1.05-10.87.14-16,1.24-1.89.41-1.09,3.3.8,2.9Z"/><path class="cls-1" d="M128.7,23c0,5.48.33,11,.35,16.45a1.5,1.5,0,0,0,3,0c0-5.49-.33-11-.35-16.45a1.5,1.5,0,0,0-3,0Z"/><path class="cls-1" d="M3,7.37a26,26,0,0,1,1.57,6.91c.25,1.89,3.26,1.91,3,0a31.13,31.13,0,0,0-2-8.42C4.82,4.09,2.23,5.62,3,7.37Z"/><path class="cls-1" d="M15.78,5.52C14.41,8.09,13,11,10.28,12.32c-1.72.87-.21,3.46,1.51,2.59,3.18-1.61,5-4.85,6.58-7.87.91-1.7-1.68-3.22-2.59-1.52Z"/><path class="cls-1" d="M3.93,17.78a81.09,81.09,0,0,0,15-1.72c1.89-.38,1.09-3.27-.8-2.89A75.86,75.86,0,0,1,3.93,14.78a1.5,1.5,0,0,0,0,3Z"/><path class="cls-1" d="M1.44,25.45c6.32-.41,13.13-.19,19.23-2.06,1.85-.56,1.06-3.46-.79-2.89C14,22.29,7.49,22.06,1.44,22.45c-1.91.12-1.93,3.12,0,3Z"/><path class="cls-1" d="M8.83,3.61l.35,35.67a1.5,1.5,0,0,0,3,0L11.83,3.61a1.5,1.5,0,0,0-3,0Z"/><path class="cls-1" d="M33.65,4.51a10.75,10.75,0,0,1,1.74,4.82c.37,1.9,3.27,1.1,2.9-.79a13.62,13.62,0,0,0-2.52-6.15,1.51,1.51,0,0,0-2.12,0,1.53,1.53,0,0,0,0,2.12Z"/><path class="cls-1" d="M31.66,12.87c2.88-.33,5.84-1.14,8.74-.66L39.74,9.7c-3.84,4.31-7.38,8.9-11,13.42-1.19,1.49.92,3.63,2.12,2.12,3.59-4.52,7.13-9.11,11-13.42a1.51,1.51,0,0,0-.66-2.5c-3.24-.54-6.33.18-9.54.55-1.9.22-1.92,3.23,0,3Z"/><path class="cls-1" d="M35.34,17.17c0,4.32-.35,8.82-2.54,12.65a1.5,1.5,0,0,0,2.59,1.52c2.45-4.29,2.93-9.32,3-14.17a1.5,1.5,0,0,0-3,0Z"/><path class="cls-1" d="M40.58,15.24a20.15,20.15,0,0,1-1,2.94c-.24.51-.67,1.64-1.26,1.81a1.5,1.5,0,0,0,.8,2.89c2.69-.77,3.71-4.49,4.4-6.84a1.5,1.5,0,0,0-2.89-.8Z"/><path class="cls-1" d="M35.54,17.92c1.41,2.49,2.69,5.06,4,7.62.86,1.73,3.45.21,2.59-1.51-1.28-2.56-2.56-5.13-4-7.62a1.5,1.5,0,0,0-2.59,1.51Z"/><path class="cls-1" d="M45.15,7.2c.73,3.65.05,7.77-.61,11.4-.35,1.88,2.54,2.69,2.89.79.77-4.19,1.45-8.77.61-13-.38-1.89-3.27-1.09-2.89.8Z"/><path class="cls-1" d="M48.27,8.4c2.3-1,6.36-3.08,8.31-.44,1.35,1.83.91,5.9-.15,7.76A1.5,1.5,0,0,0,59,17.24c1.79-3.14,2.08-8.74-.43-11.56-3.2-3.59-8.19-1.43-11.84.13-1.77.75-.24,3.34,1.52,2.59Z"/><path class="cls-1" d="M49.74,14.34l7.31-1.52c1.89-.39,1.09-3.29-.79-2.89l-7.32,1.52c-1.89.39-1.09,3.29.8,2.89Z"/><path class="cls-1" d="M47.6,20.14c3.53-.66,7-1.43,10.52-2.21,1.88-.42,1.09-3.32-.8-2.9-3.49.78-7,1.56-10.51,2.21-1.9.35-1.1,3.25.79,2.9Z"/><path class="cls-1" d="M45.47,26.23c4.66-1.34,10.15-1.27,14.38-3.81a1.5,1.5,0,0,0-1.51-2.59c-4,2.37-9.3,2.25-13.67,3.51a1.5,1.5,0,0,0,.8,2.89Z"/><path class="cls-1" d="M51.5,7.71c.43,7.8.78,16-.56,23.69L53.68,31c-2-3-5.25-6.79-8.76-3.52-1.12,1.05-4.7,10.43-5,10.4-1.92-.19-1.91,2.81,0,3,5.92.58,4.44-18.71,11.2-8.36.64,1,2.51,1,2.74-.36,1.39-8,1.11-16.39.67-24.49-.11-1.92-3.11-1.93-3,0Z"/><path class="cls-1" d="M52.85,26.46A34.52,34.52,0,0,1,61.61,38.6c.73,1.75,3.64,1,2.89-.8A37.63,37.63,0,0,0,55,24.34c-1.44-1.27-3.57.84-2.12,2.12Z"/><path class="cls-1" d="M92.34,9.24c2-.26,5-.53,6.52,1.18,1.88,2.08.2,5.64-.81,7.69-.86,1.72,1.73,3.24,2.59,1.51,1.58-3.19,3.19-7.51.82-10.75-2.06-2.8-6-3-9.12-2.63-1.89.24-1.91,3.24,0,3Z"/><path class="cls-1" d="M92.67,15.57,99,14.91c1.9-.2,1.92-3.21,0-3l-6.34.66c-1.9.2-1.92,3.2,0,3Z"/><path class="cls-1" d="M92,21.91a16.41,16.41,0,0,0,7.06-1.06c1.83-.59,1.05-3.49-.79-2.89a14.35,14.35,0,0,1-6.27.95c-1.91-.26-1.89,2.74,0,3Z"/><path class="cls-1" d="M89.84,7.62c.33,9.14,0,18.3.33,27.45a1.53,1.53,0,0,0,1.9,1.45c4.42-1,7.53-5.08,9.9-8.69,1.06-1.62-1.53-3.12-2.59-1.51-1.9,2.88-4.54,6.49-8.1,7.31l1.89,1.44c-.33-9.15,0-18.31-.33-27.45-.07-1.93-3.07-1.94-3,0Z"/><path class="cls-1" d="M103.05,20c-.8,1.58-1.61,3.17-3.41,3.73s-1,3.47.8,2.89c2.6-.8,4-2.77,5.2-5.1.86-1.72-1.73-3.24-2.59-1.52Z"/><path class="cls-1" d="M96.28,24.47c4.54,3.64,7.15,9.27,12,12.57,1.6,1.09,3.1-1.51,1.51-2.6-4.56-3.11-7-8.62-11.36-12.09-1.49-1.2-3.63.91-2.12,2.12Z"/><path class="cls-1" d="M80.27,6.4c-3.56,6.45-7.51,12.71-11.34,19-1,1.65,1.59,3.16,2.59,1.51,3.83-6.29,7.78-12.55,11.34-19,.93-1.69-1.66-3.2-2.59-1.51Z"/><path class="cls-1" d="M80.83,11.6c2.26.89,5.08,2.56,6.44,4.65,1,1.61,3.64.11,2.59-1.52-1.82-2.79-5.2-4.82-8.23-6-1.8-.71-2.58,2.19-.8,2.89Z"/><path class="cls-1" d="M79.63,17.6a37.39,37.39,0,0,1,5.6-.28,1.5,1.5,0,0,0,0-3,41.51,41.51,0,0,0-6.4.39c-1.9.29-1.09,3.18.8,2.89Z"/><path class="cls-1" d="M75.9,23c3.22,0,6.45,0,9.66-.33,1.91-.2,1.93-3.2,0-3-3.21.32-6.44.33-9.66.33a1.5,1.5,0,0,0,0,3Z"/><path class="cls-1" d="M80.4,18.16a75.58,75.58,0,0,1-.24,7.67c-.11,1.09-.39,2.17-.42,3.26a6,6,0,0,0,.05,1.12c0,.3-.17,1,.14.43l2.36-.3-.1-.27c-.8-1.76-3.39-.23-2.59,1.51a2.9,2.9,0,0,0,.57.88,1.51,1.51,0,0,0,2.35-.3c.7-1.36.3-3.53.49-5a72.68,72.68,0,0,0,.39-9,1.5,1.5,0,0,0-3,0Z"/><path class="cls-1" d="M74.17,25.55c1.72,2.17,2,5.06,5,6.05,1.84.62,2.63-2.28.8-2.89-.93-.31-1.37-1.34-1.78-2.16a18,18,0,0,0-1.89-3.12c-1.2-1.51-3.31.62-2.12,2.12Z"/><path class="cls-1" d="M85.93,24.4a15.11,15.11,0,0,1-4.79,4.79,1.5,1.5,0,0,0,1.51,2.59,18.49,18.49,0,0,0,5.87-5.87c1.09-1.6-1.51-3.1-2.59-1.51Z"/><path class="cls-1" d="M76.23,34.32c4-.07,8-1,12-1.33,1.9-.18,1.92-3.19,0-3-4,.38-8,1.26-12,1.33-1.93,0-1.94,3,0,3Z"/></g></g></svg>