<svg xmlns="http://www.w3.org/2000/svg" viewBox="0 0 372.41 475"><defs><style>.cls-1{fill:#4a4b4d;}</style></defs><title>sunfish-shadow</title><g id="圖層_2" data-name="圖層 2"><g id="sunfish-shadow"><path class="cls-1" d="M365.89,279.18c-2-2.66,5.33-15.31,6-19.3s-2-35.93-7.32-37.93-3.32-6.66-4-9.32-3.33-14-6-14-5.32-3.33-5.32-6c0-1.79-6.87-9.24-17-16.56h0l0,0a105.22,105.22,0,0,0-16.91-10c-18.64-8.65-9.32-26.62-8.65-30.61S303.34,17,303.34,7s-4.66-8.65-10.65,0-50.58,79.19-60.56,96.49-11.31,16-22.63,22.63-26.62,8-37.26,9.32a437.44,437.44,0,0,0-56.57,11.31c-21.3,6-66.55,29.28-66.55,29.28-4.18,2.12-22.46,22-24,25.95s-19,18-21,20.47c-1.6,2-4.41,13.09.55,25.59,1.49,3.78-.78,7.85-2.55,12.84-5.15,14.57-1.08,19.26,10.32,32.94,13.31,16,5.16,12,13.14,42.43S113.51,386.66,136,394.14c13.91,4.64,44.31,11.58,70.76,15.59,6.5,10.43,17.5,37.14,22,45.81l1,1.88c.11.22.21.43.31.65.2.4.41.81.6,1.21s.25.51.37.77.35.71.51,1.07l.48,1,.58,1.24c.16.32.32.65.47,1s.24.49.35.74l.43.86c.11.24.23.47.34.7l.41.8c.12.21.23.43.34.64l.41.74c.12.2.23.4.34.6l.42.68c.11.18.22.36.34.53s.28.42.43.62l.33.47.46.56.33.39c.17.18.35.34.52.51s.2.2.31.29a7.11,7.11,0,0,0,.72.54,1.21,1.21,0,0,0,.14.1,5.67,5.67,0,0,0,.91.48l.33.1c.19.07.38.14.57.19h.09l.14,0a6.51,6.51,0,0,0,1,.09c6,0,6.43-3,9.93-7s19.84-32.94,22.83-39.93,4.74-12.47,4.74-12.47v-9.49c2.19-.73,4.79-5.37,6.61-9.25,1.07-.1,2.18-.18,3.37-.23,15.12-.62,27.75-7.21,36.61-13.09h0l0,0c5.46-3.63,9.49-7,11.78-8.52,6-4,12.64-11.31,12.64-18.63s16.64-15.31,16.64-23.29,2-6.66,4.09-22S367.89,281.84,365.89,279.18Z"/></g></g></svg>