<svg xmlns="http://www.w3.org/2000/svg" viewBox="0 0 241.71 308.29"><defs><style>.cls-1{fill:#bdbbb4;}.cls-2{fill:#afaba3;}.cls-3{fill:#e6e6e5;}.cls-4{fill:#f2f2f2;}.cls-5{fill:#333;}.cls-6{fill:#666767;}</style></defs><title>sunfish</title><g id="圖層_2" data-name="圖層 2"><g id="sunfish"><path class="cls-1" d="M187.21,255.17c-1,2.39-3.4,7.77-5.34,8.42v6.16s-1.13,3.56-3.08,8.09S166.24,301.17,164,303.76s-2.55,4.53-6.44,4.53-5.48-5.83-9.05-12.63S135.21,264.89,132,263.27s16.12-10,22.6-10S187.21,255.17,187.21,255.17Z"/><path class="cls-2" d="M157.53,308.29a3.42,3.42,0,0,1-.79-.08c-3.33-.75-5-6.23-8.26-12.55-3.56-6.8-13.27-30.77-16.51-32.39s16.12-10,22.6-10,32.64,1.95,32.64,1.95-15.87,17.33-26.4,19.76-7.13,7.77-4.7,11S157.53,308.29,157.53,308.29Z"/><path class="cls-3" d="M31.88,114.25s89.73-10.72,133.4-8.26c25.37,1.44,49.74,18.42,50.85,34.21.77,11.06-13,101.89-28.92,102.54S153,268,148.34,267.66c-18.78-1.55-48.4-8-60.09-11.84C73.67,251,21.84,238,16.66,218.24s.1-17.17-8.54-27.54c-7.39-8.88-10-11.92-6.69-21.38,1.15-3.24,2.62-5.88,1.65-8.33-3.21-8.12-1.39-15.32-.36-16.61,1.3-1.62,12.64-10.69,13.61-13.28S29.17,115.63,31.88,114.25Z"/><path class="cls-1" d="M145.54,267.4a74.52,74.52,0,0,0,14.3.4c14.58-1.62,12.63-9.72,28.51-10.36s27.53-11.45,31.42-14,8.21-7.35,8.21-12.1,10.8-9.93,10.8-15.11,1.29-4.32,2.65-14.26-2.65-19-4-20.73,3.46-9.93,3.89-12.53-1.3-23.32-4.75-24.62-2.16-4.32-2.6-6-2.15-9.07-3.88-9.07-3.46-2.16-3.46-3.89-9.93-11.66-22-17.28-6-17.27-5.61-19.87S196.88,11,196.88,4.54s-3-5.61-6.91,0-32.83,51.4-39.31,62.63S143.32,77.54,136,81.86s-17.28,5.18-24.19,6a285.55,285.55,0,0,0-36.72,7.35c-13.82,3.88-43.19,19-43.19,19a8.5,8.5,0,0,0,1.73,10.8c5.4,5.18,3.89,6.48,3.45,7.13s.87,3.21,4.76,1.82,3.24-9,9.28-8.09,5.4-2.31,10.8,3.27a6.28,6.28,0,0,0,8-2.4c3.24-4.76,7.13-6.7,9-5.19s2.49,6.7,7.78,2.81,1-7.56,5.42-5,2.46.65,5.7,6,5.89,12,7.59,5.57-.46-9.24,3.64-8.16,8,.43,6.26,5-2.16,7.66-1.94,7.61,2.59,1,2.81-1.47,2.59-2.26,3.88-3.34,3.46-2.16,3.68.87-4.75,5.07-2.38,5.88,4.75,1.57,5.18,0-2.16-.72.65-3.41,5.18-2.9,6.48-2,3.89,3.24,6.05,0-2.38-5.4-1.51-7.78,6.69-4.32,7.34-.86-3.46,5,.21,5.86,2.16-5.64,4.54-4.78,1.51,3.3,3.45,4.78,3,6.34,4.76,6.29,4.75.16,1.72-2.86-4.53-3.67-5-5.83-3.89-8.64-1.08-6.7,3,2.38,2.8,3,8,4.54,8.86.44,4.75-5.19,5.18-1.3-4.32,8.21-1.51,8.21,3.46,4.81,4.75-1.27.65-13.42,3.46-7.8,7.12,2.87,3.67,7.8-5.37,1.16-5.92,6.29-4.63,6.64,0,6.21,3.33.21,3.33-2.81-2.81-4.54,0-3,4.32,3.34,5.4,1.56,4.32-5.34,4.75,0-1.51,8.59-.87,10.53,2.16,6.05,2.81,1.3a32.74,32.74,0,0,0,.22-9.07c-.22-1.52.86-.22,3,0s-1.29,1-.65,3-2.37,9.63.65,6.77,6.7-9.6,7.34-4.83,1.3,2.08-3.24,6.24-9.07,7.67-6.26,10.12.87,7.42-2.16,10.87,2.81,5.19,0,9.07-3.24,9.72-5.18,4.11-2.38-7.94-3.89-5.27.43,9.8,2.59,12,10.15,1.52,6.48,4.32-8,2.81-6.91,5-.86,3.67-1.51,5.61-3,2.16-3.46,4.11,3.68,5.4,3.89,2.16,2.81-7.56,2.59-8.21,1.62-3.46,2.86-.22-1.13,1.08-1.13,4.32,4.32,3-2.59,5.83-8.42-.21-10.58,4.32,0,6.05-3.24,8.86-5.18,7.55-10.26,10.79-4.64,7.35-3.35,9.29-.21,4.32-2.59,2.38.21-5.83-2.38-7.35-4.1-1.94-3.67,0,2.81,3.46,2.59,5.83-1.29,2.81-3.23,2.6-5.62,1.72-2.38,2.59,8-.43,5.61,2.16-8,.86-5,3.24,8.2,5.4,3,4.75S145.54,267.4,145.54,267.4Z"/><path class="cls-4" d="M24.81,149.94c0,2.29-1.42,4.16-3.16,4.16s-3.16-1.87-3.16-4.16,1.41-4.16,3.16-4.16S24.81,147.64,24.81,149.94Z"/><path class="cls-5" d="M24.86,149.94a5.86,5.86,0,0,1-.75,2.79,3,3,0,0,1-2.46,1.62,3.25,3.25,0,0,1-2.65-1.5,5.38,5.38,0,0,1-.91-2.91,5.48,5.48,0,0,1,.77-3A3.91,3.91,0,0,1,20,145.75a3.13,3.13,0,0,1,1.64-.47,3.1,3.1,0,0,1,2.59,1.78A6,6,0,0,1,24.86,149.94Zm-.11,0a4.16,4.16,0,0,0-.95-2.59,2.75,2.75,0,0,0-2.15-1.07,2.57,2.57,0,0,0-2,1.2,4.56,4.56,0,0,0-.8,2.46,4.63,4.63,0,0,0,.65,2.55,2.68,2.68,0,0,0,2.11,1.36,2.81,2.81,0,0,0,2.28-1.24A4.29,4.29,0,0,0,24.75,149.94Z"/><path class="cls-5" d="M24.81,149.94c0,2-1.23,3.59-2.73,3.59s-2.73-1.61-2.73-3.59,1.22-3.59,2.73-3.59S24.81,148,24.81,149.94Z"/><path class="cls-1" d="M65.79,162c1.25-4.89,4.75-16.63,10.15-22.89s15.55-13.18,19-8.21,9.94,24.19,10.37,29.59-4.1,11.66-11,14.9-14.68.43-20.94-3S64.35,167.56,65.79,162Z"/><path class="cls-1" d="M52.83,168.24a9,9,0,0,1-1.62-6.59c.54-3.67,1.84-7,3.89-8.12s3.56-1.05,4.21,1.32,1.29,10,0,12.74S54.4,171.33,52.83,168.24Z"/><path class="cls-6" d="M52.79,168.26a25.25,25.25,0,0,1-1.32-2.34,8.34,8.34,0,0,1-.68-2.66,10.5,10.5,0,0,1,.17-2.75,15,15,0,0,1,.7-2.63,8.71,8.71,0,0,1,3.2-4.39,5,5,0,0,1,2.61-.85,2,2,0,0,1,1.3.64,3.59,3.59,0,0,1,.72,1.23,23.06,23.06,0,0,1,1,5.35,26.74,26.74,0,0,1,0,5.44,7.75,7.75,0,0,1-.8,2.73A4.66,4.66,0,0,1,57.5,170a3.66,3.66,0,0,1-2.79.17A3.77,3.77,0,0,1,52.79,168.26Zm.08,0a3.13,3.13,0,0,0,1.93,1.64,3.07,3.07,0,0,0,2.38-.48,4.54,4.54,0,0,0,1.59-1.81,7.17,7.17,0,0,0,.59-2.4,35.27,35.27,0,0,0,.15-5.25,33.59,33.59,0,0,0-.54-5.24c-.2-.8-.68-1.62-1.53-1.69a4.06,4.06,0,0,0-2.4.77,5.15,5.15,0,0,0-1.65,2,12.26,12.26,0,0,0-.94,2.42c-.25.84-.44,1.69-.63,2.54a19.29,19.29,0,0,0-.4,2.57,7.49,7.49,0,0,0,.3,2.57A11.75,11.75,0,0,0,52.87,168.22Z"/><path class="cls-6" d="M74,152.81a16.66,16.66,0,0,1,.32-3.45A21.65,21.65,0,0,1,75.2,146a19.25,19.25,0,0,1,1.46-3.16,11.63,11.63,0,0,1,2.19-2.69c-.55,1-1,2-1.49,3.05s-.85,2.07-1.22,3.13C75.38,148.47,74.74,150.62,74,152.81Z"/><path class="cls-6" d="M77.23,152.81a40.56,40.56,0,0,1,2.44-8.23,33,33,0,0,1,1.91-3.86,10.44,10.44,0,0,1,2.78-3.31,17.82,17.82,0,0,0-2.09,3.67c-.58,1.28-1.14,2.58-1.67,3.89C79.51,147.58,78.46,150.21,77.23,152.81Z"/><path class="cls-6" d="M80.8,157.33a70.33,70.33,0,0,1,3.72-11.49,51.57,51.57,0,0,1,2.62-5.46,20.4,20.4,0,0,1,3.54-4.91,36.27,36.27,0,0,0-2.85,5.27c-.83,1.81-1.64,3.64-2.39,5.49C83.89,149.92,82.42,153.64,80.8,157.33Z"/><path class="cls-6" d="M82.74,159.53A76.12,76.12,0,0,1,87.38,151c.87-1.37,1.74-2.73,2.68-4a33.5,33.5,0,0,1,3-3.79c-.81,1.4-1.57,2.83-2.39,4.22s-1.64,2.77-2.49,4.14A93.65,93.65,0,0,1,82.74,159.53Z"/><path class="cls-6" d="M82.58,165.6a80,80,0,0,1,6.4-8.33c1.15-1.32,2.32-2.62,3.56-3.87a27.29,27.29,0,0,1,4-3.46c-1.2,1.28-2.26,2.66-3.39,4s-2.25,2.67-3.39,4C87.43,160.55,85.11,163.16,82.58,165.6Z"/><path class="cls-6" d="M86.63,167.38a87.94,87.94,0,0,1,6.3-6.91c1.1-1.09,2.22-2.18,3.36-3.23s2.3-2.09,3.46-3.14a51.59,51.59,0,0,1-6.11,7.08A71.24,71.24,0,0,1,86.63,167.38Z"/><path class="cls-6" d="M84.36,171.26A59.72,59.72,0,0,1,91.77,167c1.28-.62,2.57-1.21,3.9-1.75a20.42,20.42,0,0,1,4.08-1.3c-1.29.61-2.49,1.37-3.75,2s-2.52,1.31-3.79,1.94A72.46,72.46,0,0,1,84.36,171.26Z"/><path class="cls-6" d="M89.54,171.26a28.7,28.7,0,0,1,10.21-2.75,28,28,0,0,1-10.21,2.75Z"/><path class="cls-3" d="M124.31,100c0,1.19-1.25,2.16-2.8,2.16s-2.81-1-2.81-2.16,1.26-2.16,2.81-2.16S124.31,98.8,124.31,100Z"/><path class="cls-3" d="M106.28,113.6a1.2,1.2,0,1,1-1.19-1.4A1.31,1.31,0,0,1,106.28,113.6Z"/><path class="cls-3" d="M147.1,115.22a1.42,1.42,0,1,1-1.41-1.62A1.52,1.52,0,0,1,147.1,115.22Z"/><path class="cls-3" d="M155.09,110.53a1.19,1.19,0,1,1-1.19-1.14A1.16,1.16,0,0,1,155.09,110.53Z"/><ellipse class="cls-3" cx="74.21" cy="110.53" rx="1.19" ry="1.13"/><path class="cls-3" d="M148.72,103.13A1.68,1.68,0,1,1,147,101.4,1.7,1.7,0,0,1,148.72,103.13Z"/><path class="cls-3" d="M152.21,98.46c-.08.5-.83.8-1.67.66s-1.45-.65-1.37-1.15.83-.79,1.67-.66S152.29,98,152.21,98.46Z"/><path class="cls-3" d="M143.75,91.52a1.31,1.31,0,1,1-1.29-1.13A1.22,1.22,0,0,1,143.75,91.52Z"/><path class="cls-3" d="M136.19,95.63a.71.71,0,1,1-.7-.6A.66.66,0,0,1,136.19,95.63Z"/><path class="cls-3" d="M66.86,106a.71.71,0,1,1-.7-.59A.65.65,0,0,1,66.86,106Z"/><path class="cls-3" d="M136.76,103.07c-.27.54-1.19.61-2.06.17s-1.35-1.23-1.08-1.76,1.2-.61,2.06-.17S137,102.54,136.76,103.07Z"/><path class="cls-3" d="M75.93,99.69c.22.56-.34,1.3-1.25,1.65s-1.81.19-2-.37.34-1.29,1.25-1.64S75.71,99.14,75.93,99.69Z"/><path class="cls-3" d="M134.66,114a1.4,1.4,0,1,1-.46-2.19A1.61,1.61,0,0,1,134.66,114Z"/><path class="cls-3" d="M121,94.68a1.15,1.15,0,0,1-2.27,0,1.16,1.16,0,0,1,2.27,0Z"/><path class="cls-3" d="M122.69,104.57a1.08,1.08,0,0,1-2.15,0,1.08,1.08,0,0,1,2.15,0Z"/><ellipse class="cls-3" cx="107.58" cy="104.79" rx="1.4" ry="1.26"/><path class="cls-3" d="M108.33,99.43a1.85,1.85,0,1,1-1.83-1.59A1.73,1.73,0,0,1,108.33,99.43Z"/><path class="cls-3" d="M101.53,93.56a1.08,1.08,0,1,1-1.08-1.12A1.1,1.1,0,0,1,101.53,93.56Z"/><path class="cls-3" d="M96.37,100.82a2.16,2.16,0,1,1-2.5-.72A1.88,1.88,0,0,1,96.37,100.82Z"/><path class="cls-3" d="M112.87,91.9c0,.3-.39.54-.87.54s-.86-.24-.86-.54.39-.54.86-.54S112.87,91.6,112.87,91.9Z"/><path class="cls-3" d="M83.71,115.23c0,.29-.38.54-.86.54s-.86-.25-.86-.54.38-.54.86-.54S83.71,114.93,83.71,115.23Z"/><path class="cls-3" d="M116.43,120a1.14,1.14,0,1,1-1.13-1.13A1.14,1.14,0,0,1,116.43,120Z"/><path class="cls-3" d="M127,119.84a1.22,1.22,0,0,1-1.57.64c-.72-.19-1.19-.79-1-1.34a1.4,1.4,0,0,1,2.61.7Z"/><path class="cls-3" d="M127,125.62a1.37,1.37,0,1,1-.88-1.92A1.5,1.5,0,0,1,127,125.62Z"/><path class="cls-3" d="M84.71,104c.16.55-.56,1.25-1.62,1.56s-2,.12-2.21-.43.56-1.26,1.62-1.57S84.55,103.45,84.71,104Z"/><path class="cls-3" d="M196.45,121.17c.16-.76.48-3.46,2.75-1.14s1.62,1.71,0,3.64S196.45,121.17,196.45,121.17Z"/><path class="cls-3" d="M195.48,132.23c-.81,0-3.08-1.94-3.57,0s1.46,3.72,2.59,2.91,1-1.14,1-1.14,2.92-.47,3.08-1.28-.16-1.95,0-2.43a8.77,8.77,0,0,0,0-1.95s1.9,1.46,1.57,0-.31-1.64-1.61-1.47-1.14,1.63-1.14,1.63.65,1.3,0,1.79A19.9,19.9,0,0,0,195.48,132.23Z"/><path class="cls-3" d="M168.43,115c1.61-.27,5.18-.81,3.72-2.81s-5-3.45-5.83-2.81-.49,3.41,0,4A9.62,9.62,0,0,0,168.43,115Z"/><path class="cls-3" d="M185.76,121.17c.16-1.41.32-2.91-1.3-2.73s-2.43.42-1.62,1.36A6.59,6.59,0,0,0,185.76,121.17Z"/><path class="cls-3" d="M213.61,112.88c-.67-.45-3.07-1.22-3.07.56s-.65,2.92,1.53,3.4,1.55,2.11,3,2.27,3.34-.18,2.27-2.27a7.76,7.76,0,0,0-1.7-2.54Z"/><path class="cls-3" d="M219.77,120c-.73.24-.83,1.06-2.11,4.12s-2.26,4.84-.8,4.35.64-.32,2.91.08,3.08.28,2.43-1.76S221.88,119.33,219.77,120Z"/><path class="cls-3" d="M212.64,120c-.81.54-1.62-.74-.81,1.6s1,4.62,2.22,3.64a10.82,10.82,0,0,0,2.08-2.5,1.76,1.76,0,0,0-1.06-1.6C213.94,120.57,212.64,120,212.64,120Z"/><path class="cls-3" d="M209.1,125.59a1.23,1.23,0,1,1-1.23-1.22A1.23,1.23,0,0,1,209.1,125.59Z"/><path class="cls-3" d="M205.94,131.44a1.82,1.82,0,0,1-3.44.91,1.81,1.81,0,0,1,3.44-.91Z"/><path class="cls-3" d="M214.05,157.77a16.88,16.88,0,0,1,3.61,1.76c2.27,1.37,4.81.72,4.76,1.21a3.12,3.12,0,0,1-.87,2.26c-.81.65-1.94,2.92.17,2.6s2.42-2.76,2.75,0-2.05,5.66-2.05,5.66a1.9,1.9,0,0,1-3.15.81c-2.25-1.62-3.06-3.07-3.14-3.56s1.53-2.91,1.53-2.91,2.09-2.6,1.61-3.41,1.94-1-1.61-1.45S212.63,157.18,214.05,157.77Z"/><path class="cls-3" d="M224.5,145.83c-.84-1.29-1.71-1.78-2.08-1.78s-2.33-1.78-1-1.94,1.14,0,2.27,1.06.48.18,1.94.78.81-.37,1.78-.78l1-.41a19.19,19.19,0,0,1,0,3.07c-.17.65-2,.49-2.6,1s-1.82,1.13-1.07,2.1,2.53,1.63,1.88,2.44A3.48,3.48,0,0,1,224.5,153c-1.33.46-1.71.46-2.08,1.75s1,2.92-1.47,1.95-2.06-1.3-1.94-2.59a4.51,4.51,0,0,1,1.9-2.75c.32-.17-.17-.06-.17-1.41s.76-1.35,1.68-1.84,1.25-2.1,1.25-2.1Z"/><path class="cls-3" d="M176.69,250.47a3.82,3.82,0,0,1,1.62-4.86c1.94-1.3,2.26-2.92,5.66-3.08s6.65.81,7.13,2.59,1.62,5.51,0,6.16-2.43,2.43-5.51,3.08-6,2.91-6.64,2.59-1.57.49-2.57-1.3S176.69,250.47,176.69,250.47Z"/><path class="cls-3" d="M167.62,250.63c2.59-2.1,3.72-1.62,4.21-3.56s-2.11-3.24-2.11-3.57-1.46-1.65-2.1-1a4.19,4.19,0,0,0-1.62,3.25c0,1.78-1.62,3.09,0,4Z"/><path class="cls-3" d="M175.41,241.4c-2-.65-2.61-.16-2.13-2.11s-2.08,0,1-2.91,1.93-8.59,3.06-9.23a6.24,6.24,0,0,1,4.54,0c1.13.48,3.89,1.13,2.1,2.43s-3.56,1.13-4,2.75,4.21.81,5.34-1,5.18-4.64,5.18-4.64,1.78,3.83,0,4.64-4.21,2.43-4.53,3.88.16,2.6-1.95,3.24a18.52,18.52,0,0,0-4.21,1.62A11.44,11.44,0,0,1,175.41,241.4Z"/><path class="cls-3" d="M212.11,248.94c-.28-2,.33-2.52,1.4-3.49s2.05-2.63.92-2.93-3.41.34-4.22-1.12,1.62-1.62-.32-3.08S205,236.6,206,234.06s3.8-6.8,6.44-7.34,7.82-2.53,7.65,0-2.75,6.32-2.75,7.34,3.57,1.67,4.21,1.67,2.88-.58,1.78,2.59S212.11,248.94,212.11,248.94Z"/><path class="cls-3" d="M204.87,219.37c-1.34-1.19-3.89,1.3-2.75-1.46a10.08,10.08,0,0,1,3.69-4.86c1.33-1,1.17-5.5,3.59-2.75s2.6,3.9,2.43,4.22,4.95-.17,0,2.26S206.33,220.67,204.87,219.37Z"/><path class="cls-3" d="M226.65,225V227s-.36.81,1.09,0,1.22-.77,1-1.52S226.65,225,226.65,225Z"/><path class="cls-3" d="M234.35,216.94c.16-1.62-5-6.06-4.37-2.3a7.6,7.6,0,0,0,3.07,5.21s-4.7,1.3-3.16,2.76,1.17,1.22,4.3-.81,2.75-1.73,3.07-3.62-.11-4.7-1.29-3.54"/><path class="cls-3" d="M218,218.36c-.61,1.62-2.11,3.28,0,3.44s3.08-1.18,3.08-1.72,2.1-1.93,0-1.72S218.27,217.62,218,218.36Z"/><path class="cls-3" d="M226.25,219.05c-.86,1.07-1.94,2.94-1,2.76a6.52,6.52,0,0,0,3.15-1.37c.74-.75,2,.55.74-.75S226.94,218.18,226.25,219.05Z"/><path class="cls-3" d="M223.63,223.54c-1.1.2-3.93,1.2-1.63,1.43l2.31.23Z"/><path class="cls-3" d="M200.33,235.57a2.48,2.48,0,0,0,0,2.43c.33.48,2.11.48,2.27,0s.49-2.27,0-2.43A10.5,10.5,0,0,0,200.33,235.57Z"/><path class="cls-3" d="M196.12,207.39c-2,3.44-1.29,3.79-2.1,5.78s-.81,1.5-.81,4.1a5.17,5.17,0,0,1-2.59,4.54c-.65.15,1.29,2.66,2.75,1.73a4.31,4.31,0,0,0,1.94-3.36c0-.81,1.46-.65.81-3.24s.65-2.2,2.11-3.77,2.3-2.19,1.8-3.74S196.59,206.59,196.12,207.39Z"/><path class="cls-3" d="M222.72,201.07a31.7,31.7,0,0,0-4.73,3.24c-1.62,1.29-4.59.48-3.27,4.21s.12,6.87,4.29,4.65,5.94-.12,5.3-2.87-1.7-3.4-2.31-4.53,1.51-4.05,1.67-4.7S222.72,201.07,222.72,201.07Z"/><path class="cls-3" d="M233.47,210.61c-.74-1.29.07-1.69-2.52-2.34s-3.41-3.36-4.7-3.52-2.39-1.44-1.36-1.44,1,.34,2.55,1a19.21,19.21,0,0,1,3.51,1.78c1.29.81,2.26-.24,3.24.89s2.26,3.64,1.29,3.64Z"/><path class="cls-3" d="M209.89,194.43c-2.24.59-.55.81-4.08,1.13s-5.15.65-6.93,1.62l-1.79,1a1.54,1.54,0,0,0,0,1.95c.81,1,4,1.62,4.35,3.24s-1,4.37,1.87,2.59,1.34-2.76,2.5-4.38-1.48-1.78,2.11-2.43,4.72-.23,4.72,1.35,1.08,1.48,2.08.31,2-2.47,1.49-4.25-.69-1.45-2.7-2.1A5,5,0,0,0,209.89,194.43Z"/><path class="cls-3" d="M202.86,166.57a15.27,15.27,0,0,0-2.65,6.06c0,1.23,1.55,4,1.32,6.09s-.51,3.88-1.5,4.69a15.84,15.84,0,0,0-2.61,3.4c-1.14,1.62-4.09,2.43-1.4,3.89s3.62,2.43,5.42,2.27,3.43-.81,3.59-2.43a36.84,36.84,0,0,0,0-4.21c0-2-1.13-3.08-.81-4.7a5.63,5.63,0,0,1,1.76-3.4c.83-.65,3.75-1.73,4.56-1.43s3.67-1.49,4.18-2.62,0-2-1.21-1.55a11.91,11.91,0,0,0-2.81,1.55,5.15,5.15,0,0,1-2.78,1c-.62,0-1.82,0-2.11-1s-.36-2.92,0-2.92,1.12.81,2.11,0,4.56-2.75,2-3.64a24.34,24.34,0,0,0-5-1.05A8.3,8.3,0,0,0,202.86,166.57Z"/><path class="cls-3" d="M190.49,187.14c1.74-2.59,1.42-2.76,3-4s2.84-1.3,3.2-.81-.48-1.3-.71,1.13,1.43,2.76-.69,3.08-3.74-.49-3.42,0-1.42,1.94-1.42,1.3"/><path class="cls-3" d="M194.92,177.74c-1.23-2.1-.49-.32-1.27-2.91s-1.9-.81-.77-2.59a14.79,14.79,0,0,1,3.14-3.73,6.53,6.53,0,0,1,2.53,0s2.11.65,0,1.38a3.4,3.4,0,0,0-2.6,2.74,17.4,17.4,0,0,0,0,2.85Z"/><path class="cls-3" d="M230.16,189.73c1.76-.81,2.08-1.46,4.19,0a8.32,8.32,0,0,1,3,4.36c.22.66,2.81,5.11,3,6.69s-.32,6-2.1,5.73-1.41-2.36-3-3.17-2.37,1.13-3.18-1.14-2.43-4.16,0-4.51,5,2.45,4.54,0-.13-2.64-.79-3.6l-.67-1s-1.1-1.46-1.69-1.46a4,4,0,0,0-3.31.65c-1.32,1.14-3.79,2.63-2.72.67A12.08,12.08,0,0,1,230.16,189.73Z"/><path class="cls-3" d="M220.26,195.24c0-1,.25-2.07,1.74-2.25s2.35-.17,2.89,1.12a3.86,3.86,0,0,0,2.29,1.78s2.71,1.61,0,1.29-3.92.41-5.18,0S220.26,195.24,220.26,195.24Z"/><path class="cls-3" d="M216.13,183.25c-1.7.49-2.51-.78-3.65,1.71s-2.75,4,0,3.8,3.5-.33,4.42-1.46,1.31-1.43,2-2.34S216.13,183.25,216.13,183.25Z"/><path class="cls-3" d="M217.67,177.74c1.45-1.62,2.21-3.24,3.45-2.43a3.28,3.28,0,0,1,1.3,2.43s-1.7,2.22-3.15,2-3.22-.21-1.6-1.35"/><path class="cls-3" d="M231.11,154.1c-1.07.47-3,.64-2.47,1.94s1.21.17,1.52,3.49-2.58,7.38,0,7a3.84,3.84,0,0,0,3.31-4.31c-.26-1.62.7-7,.3-8.09s-.56-3.07-1.37-2.75S232,153.68,231.11,154.1Z"/><path class="cls-3" d="M207.92,159.53c2.29.4,3,.72,3.05,2s1.39,4-1.87,2.43-3.42-2.43-4.88-3.24,2.24-2.66,3.53-1.82"/><path class="cls-3" d="M200.67,154.74c-1.71,1-3,1.35-3.85,3s-3.33,4.83-.8,3.82,2.54-1.41,2.54-2.67.73-1.32.93-1.94,3-.78,3-.78S202.86,153.45,200.67,154.74Z"/><path class="cls-3" d="M209.1,142.06c-2.61-.44-3.78-.11-3.12,1.83s1,3.4,1.94,2.27.06-1,1.18-1.94,3.73-2.5,1.87-2.33Z"/><path class="cls-3" d="M214.92,146.56c-1.63.89-3.84,1.79-3.3,3s1.44,2.79,2.77,1.17a13.47,13.47,0,0,0,2-3.24C216.69,146.81,214.92,146.56,214.92,146.56Z"/><path class="cls-3" d="M222.7,132.88c-1.95.66-1.63.88-1.63,2.46a4,4,0,0,0,1.35,2.72s2.07-1.47,1.9-2a12.71,12.71,0,0,1,0-2.65Z"/><path class="cls-1" d="M149.81,139.28c-.3,1-2,1.34-3.72.8s-2.93-1.77-2.62-2.75,2-1.35,3.72-.81S150.12,138.3,149.81,139.28Z"/><path class="cls-1" d="M170.85,147.78s3.28,1.94,1.64,2.91-3.58.81-3.9-1.45S168.93,146.08,170.85,147.78Z"/><path class="cls-1" d="M180.74,151.35c0,1.94.66,2.91,1.78,2.75a2.06,2.06,0,0,0,1.67-2.84c-.7-1.38-1.65-2.64.2-3.71s2.7.08,1.46-2.44-.73-5.58-3.33-4.78.5,2.43,0,3.89-2.76.7-2.59,2.94A19.24,19.24,0,0,0,180.74,151.35Z"/><path class="cls-1" d="M172.49,160.74c1-.17,1.28-1.45,2.25-1.21s2.27,3.47,0,3.8-4.53-1-4.7-1.54S172.49,160.74,172.49,160.74Z"/><path class="cls-1" d="M179.92,161.79c.64,1.17,1,3.42,3.26,1.59s3.61-3.46,3.25-1.59-.19,3.83,1.92,2.68.32-6.49,1.29-7.94,2.59-2.6,0-2.43-3.79,1.13-4.16,3.23S179.19,160.46,179.92,161.79Z"/><path class="cls-1" d="M185.85,173.05c1.69,2.59,3,3.72,2.34,4.69l-.65,1s-.59,3.12-1.11,3.26,0,.08-.58-2.24-1.29-2.16-1.66-3.94,2.24-2.75,2.24-2.75"/><path class="cls-1" d="M174.58,170.13c1.94-.81,2.43-3.72,3.73-1.62s3.26,3.08,1.55,3.89-1.88.48-3,1.62-2.11,2.27-2.27,0A25.53,25.53,0,0,1,174.58,170.13Z"/><path class="cls-1" d="M178.63,193c1,1.41,1.12,1.6,1.29,2.73s-.48,2.11-1.29,2.11-.77-1.6-1.11-2.42S177.59,191.47,178.63,193Z"/><path class="cls-1" d="M177.4,204.31c.26,1.13,1,1.48,0,2.2a3.35,3.35,0,0,1-2,.63s-1.78.59-.9-.63A9.09,9.09,0,0,1,177.4,204.31Z"/></g></g></svg>