<svg xmlns="http://www.w3.org/2000/svg" viewBox="0 0 122.22 42.85"><defs><style>.cls-1{fill:#f1ecce;}</style></defs><title>sunfishh_name</title><g id="圖層_2" data-name="圖層 2"><g id="sunfishh_name"><path class="cls-1" d="M59.87,8.6c3.21-1,6.43-1.88,9.66-2.79L73.7,4.67a7.14,7.14,0,0,0,1.48-.38c1.16-.61.7.7-.36-.6C76,5.19,78.15,3.06,77,1.57,75.89.27,72.12,2,71,2.3q-6,1.64-11.9,3.41c-1.84.55-1.06,3.45.8,2.89Z"/><path class="cls-1" d="M59.72,11.8A59.08,59.08,0,0,1,60.8,23.29a1.5,1.5,0,0,0,3,0V21a1.5,1.5,0,0,0-3,0v2.26h3A62.42,62.42,0,0,0,62.61,11c-.38-1.89-3.27-1.09-2.89.79Z"/><path class="cls-1" d="M63.34,15a39.06,39.06,0,0,1,7.85-3.42c1.14-.29,2.91-.71,3.91.19,1.54,1.37.46,4.81-1.1,5.74a1.5,1.5,0,0,0,1.51,2.59c3.9-2.31,4.85-9.87-.11-11.54C71,7,65.63,10.45,61.83,12.37c-1.73.87-.21,3.46,1.51,2.59Z"/><path class="cls-1" d="M63.34,19.77c3.32-1.88,7.23-3.65,11.13-3.47,1.93.09,1.92-2.91,0-3-4.41-.2-8.88,1.75-12.64,3.88a1.5,1.5,0,0,0,1.51,2.59Z"/><path class="cls-1" d="M62.21,25.43a92.34,92.34,0,0,1,12.94-5.22c1.84-.58,1-3.48-.8-2.89a97.8,97.8,0,0,0-13.66,5.52c-1.73.86-.21,3.45,1.52,2.59Z"/><path class="cls-1" d="M57.32,30.68c8.55-2.58,17.05-5.33,25.76-7.36,1.88-.44,1.08-3.33-.8-2.89-8.71,2-17.2,4.77-25.76,7.36-1.84.55-1.05,3.45.8,2.89Z"/><path class="cls-1" d="M66.18,1.78C67,15,67.83,28.17,67.88,41.4a1.5,1.5,0,0,0,3,0V39.14a1.5,1.5,0,0,0-3,0V41.4h3c0-13.23-.86-26.42-1.7-39.62-.13-1.92-3.13-1.93-3,0Z"/><path class="cls-1" d="M101.59.65a28.68,28.68,0,0,0-4.4,8.28c-.58,1.84,2.31,2.63,2.9.8a26.31,26.31,0,0,1,4.09-7.57C105.33.6,102.73-.89,101.59.65Z"/><path class="cls-1" d="M102.23,7.23c1.81-.79,3.91-1.9,5.92-1.27l-.9-2.2c-1.21,2.16-2.28,4.49-4,6.3-1.33,1.39.79,3.52,2.12,2.12,1.92-2,3.13-4.52,4.48-6.91a1.51,1.51,0,0,0-.89-2.2c-2.87-.9-5.65.45-8.24,1.57C99,5.4,100.47,8,102.23,7.23Z"/><path class="cls-1" d="M96,13.86c.36,4.31,1.12,8.69.57,13-.25,1.9,2.76,1.89,3,0,.55-4.33-.21-8.71-.57-13-.16-1.91-3.16-1.93-3,0Z"/><path class="cls-1" d="M98.83,16.07c3-1.43,6.64-4.46,10.09-4.42,2.15,0,2.44,2.23,2.36,4,0,.87-.69,5.41-1.6,5.45-1.92.08-1.93,3.08,0,3,5.25-.21,5.77-11.25,2.86-14.15-4.07-4.05-11.41,1.67-15.22,3.5-1.74.83-.22,3.42,1.51,2.59Z"/><path class="cls-1" d="M99.4,21.38l9.34-4c1.77-.75.24-3.34-1.52-2.59l-9.34,4c-1.77.75-.24,3.33,1.52,2.59Z"/><path class="cls-1" d="M103.37,12.26l.14,11.51a1.5,1.5,0,0,0,3,0l-.14-11.51a1.5,1.5,0,0,0-3,0Z"/><path class="cls-1" d="M98.48,28.32c3.9-1.31,7.75-2.78,11.6-4.24,1.79-.68,1-3.58-.8-2.9-3.85,1.46-7.7,2.93-11.6,4.25-1.82.61-1,3.51.8,2.89Z"/><path class="cls-1" d="M97.64,26.12A61.36,61.36,0,0,0,91,38.93c-.73,1.79,2.17,2.56,2.89.8a59.19,59.19,0,0,1,6.36-12.1c1.13-1.57-1.47-3.07-2.59-1.51Z"/><path class="cls-1" d="M100,29c.72,1.82,1.33,3.67,1.91,5.53.27.86.54,1.72.78,2.59.09.32.18.65.26,1,0,.1.15.81.12.42.16,1.91,3.16,1.93,3,0A21.52,21.52,0,0,0,105,34.17c-.62-2-1.28-4-2-6-.7-1.77-3.6-1-2.9.8Z"/><path class="cls-1" d="M108.1,29.05c1,2,1.6,4.1,2.4,6.15.69,1.78,3.59,1,2.89-.8-.89-2.29-1.62-4.65-2.7-6.87-.84-1.73-3.43-.21-2.59,1.52Z"/><path class="cls-1" d="M113.75,25.92c2.2,4.53,5,9.75,5.46,14.81.18,1.91,3.18,1.93,3,0-.53-5.63-3.42-11.28-5.87-16.32-.84-1.74-3.43-.22-2.59,1.51Z"/><path class="cls-1" d="M3.37,11.85A152,152,0,0,1,19.43,4.64c1.77-.71,1-3.61-.8-2.89A157.35,157.35,0,0,0,1.86,9.26c-1.7.92-.19,3.51,1.51,2.59Z"/><path class="cls-1" d="M6.55,9.54A40.21,40.21,0,0,0,9.81,19c.85,1.74,3.44.22,2.59-1.51a37.23,37.23,0,0,1-3-8.7c-.4-1.89-3.29-1.09-2.89.8Z"/><path class="cls-1" d="M17.17,7.82c-2.75,3.83-5.6,7.66-9.65,10.21A1.5,1.5,0,0,0,9,20.62l11.89-5.09c1.77-.76.24-3.35-1.51-2.59L7.52,18,9,20.62c4.5-2.83,7.68-7,10.73-11.29,1.13-1.57-1.47-3.07-2.59-1.51Z"/><path class="cls-1" d="M11,8c.48,5.31,1,11.49-.79,16.58l2.5-.66c-5.14-4.11-10,.65-12.54,5.4-.9,1.7,1.68,3.22,2.59,1.51,1.33-2.53,4.52-7.43,7.83-4.79a1.53,1.53,0,0,0,2.51-.66C15,20,14.52,13.59,14,8c-.17-1.91-3.17-1.93-3,0Z"/><path class="cls-1" d="M13.46,18.64c1.82,1.27,5.42,2.6,5.82,5.05.32,1.9,3.21,1.09,2.9-.8-.57-3.42-4.68-5.08-7.2-6.84-1.59-1.11-3.09,1.49-1.52,2.59Z"/><path class="cls-1" d="M7.34,27.82A96.93,96.93,0,0,0,7.06,40c.11,1.92,3.11,1.93,3,0a96.93,96.93,0,0,1,.28-12.17c.14-1.93-2.86-1.92-3,0Z"/><path class="cls-1" d="M9.88,31.1c2.23-1.48,5.18-3.67,8-3.72a1.42,1.42,0,0,1,1,.27A2.07,2.07,0,0,1,19.2,29a11.24,11.24,0,0,1-1,4.19,12,12,0,0,1-.87,1.66c-.19.31-.24.17-.25.34s.07-.14.51-.11c-1.93-.13-1.92,2.87,0,3,2.53.17,3.9-4.84,4.28-6.61.7-3.22,0-7.22-4.12-7.1-3.38.11-6.7,2.34-9.41,4.12-1.61,1.06-.11,3.66,1.51,2.6Z"/><path class="cls-1" d="M11.86,34.21,16.39,32c1.73-.86.21-3.45-1.51-2.59l-4.53,2.26c-1.73.86-.21,3.45,1.51,2.59Z"/><path class="cls-1" d="M10,40.48,18,38c1.85-.56,1.06-3.45-.79-2.89L9.15,37.58c-1.84.56-1.06,3.46.8,2.9Z"/><path class="cls-1" d="M25.45,17.51c.86-.48,3.9-2.67,5-2.14.92.45.69,3,.68,4a24.81,24.81,0,0,1-.31,4.39,4.32,4.32,0,0,1-.59,1.92c-.42.47-.35.29-1.08-.25-1.55-1.15-3.05,1.45-1.52,2.59,5.57,4.12,6.48-5.28,6.5-8.65,0-2.27,0-5.74-2.55-6.73S26,13.77,23.93,14.92c-1.68.93-.17,3.53,1.52,2.59Z"/><path class="cls-1" d="M24.62,23.22a33.49,33.49,0,0,1,5.92-4c1.64-1,.14-3.61-1.51-2.59A37,37,0,0,0,22.5,21.1c-1.39,1.34.73,3.46,2.12,2.12Z"/><path class="cls-1" d="M25.19,28.31c2.6-3.13,5.6-5.9,8.49-8.77a1.5,1.5,0,0,0-2.12-2.12c-2.89,2.87-5.89,5.64-8.5,8.77-1.22,1.48.89,3.61,2.13,2.12Z"/><path class="cls-1" d="M36.49,12.42c1.64-.76,4-1.94,5,.11.76,1.53.56,3.77.62,5.42a50.84,50.84,0,0,1,0,5.79c-.05.61,0,2.53-.57,2.9s-1.66-1.29-2.15-1.86c-1.27-1.47-3.38.66-2.12,2.12,1.62,1.87,4.55,4.46,6.63,1.65,1.9-2.58,1.34-7.25,1.24-10.23-.09-2.7.13-6.43-1.82-8.59C41,7.27,37.49,8.67,35,9.83c-1.75.8-.23,3.38,1.52,2.59Z"/><path class="cls-1" d="M33.94,20.34c2.06-1.17,4.17-2.23,6.23-3.4a1.5,1.5,0,0,0-1.52-2.59c-2.06,1.17-4.17,2.23-6.22,3.4a1.5,1.5,0,0,0,1.51,2.59Z"/><path class="cls-1" d="M36.23,23.78l5.94-5.09c1.47-1.26-.66-3.37-2.12-2.12L34.1,21.66c-1.46,1.26.67,3.38,2.13,2.12Z"/><path class="cls-1" d="M11.87,27.94l.43,8.16c.1,1.92,3.1,1.93,3,0l-.43-8.16c-.1-1.92-3.1-1.93-3,0Z"/></g></g></svg>