<svg xmlns="http://www.w3.org/2000/svg" viewBox="0 0 373.41 476"><defs><style>.cls-1{fill:none;stroke:#fff;stroke-miterlimit:10;}.cls-2{fill:#fff;}</style></defs><title>sunfish-line</title><g id="圖層_2" data-name="圖層 2"><g id="sunfish-line"><path class="cls-1" d="M289,393.64c-1.49,3.69-5.24,12-8.24,13v9.49S279,421.6,276,428.58s-19.34,35.94-22.83,39.93-3.94,7-9.93,7-8.45-9-13.94-19.46-20.45-47.42-25.44-49.92,24.84-15.47,34.82-15.47S289,393.64,289,393.64Z"/><path class="cls-1" d="M243.21,475.5a5.49,5.49,0,0,1-1.22-.13c-5.13-1.15-7.62-9.6-12.72-19.33-5.49-10.49-20.45-47.42-25.44-49.92s24.84-15.47,34.82-15.47,50.3,3,50.3,3-24.46,26.71-40.68,30.45-11,12-7.24,17S243.21,475.5,243.21,475.5Z"/><path class="cls-1" d="M49.62,176.53S187.88,160,255.15,163.81c39.1,2.21,76.64,28.37,78.34,52.71,1.2,17-20.09,157-44.54,158s-52.75,39-59.89,38.4c-28.95-2.38-74.58-12.24-92.59-18.25C114,387.16,34.15,367.19,26.16,336.75s.17-26.46-13.14-42.43C1.62,280.64-2.45,276,2.7,261.38c1.77-5,4-9.06,2.55-12.84C.29,236,3.1,224.94,4.7,223c2-2.5,19.47-16.48,21-20.47S45.44,178.65,49.62,176.53Z"/><path class="cls-1" d="M224.74,412.49c9,.91,16.71,1.21,22,.62,22.46-2.49,19.47-15,43.92-16s42.43-17.64,48.42-21.63,12.64-11.31,12.64-18.63,16.64-15.31,16.64-23.29,2-6.66,4.09-22-4.09-29.28-6.09-31.94,5.33-15.31,6-19.3-2-35.93-7.32-37.93-3.32-6.66-4-9.32-3.33-14-6-14-5.32-3.33-5.32-6-15.31-18-33.94-26.62-9.32-26.62-8.65-30.61S303.84,17.48,303.84,7.5s-4.66-8.65-10.65,0S242.61,86.69,232.63,104,221.32,120,210,126.62s-26.62,8-37.26,9.32a437.44,437.44,0,0,0-56.57,11.31c-21.3,6-66.55,29.28-66.55,29.28s-5.66,8.65,2.66,16.64,6,10,5.33,11,1.33,4.95,7.32,2.81,5-13.79,14.3-12.46,8.32-3.57,16.64,5a9.68,9.68,0,0,0,12.31-3.7c5-7.32,11-10.32,13.81-8s3.83,10.32,12,4.33,1.58-11.65,8.36-7.66,3.79,1,8.78,9.32,9.07,18.49,11.69,8.58-.71-14.23,5.61-12.57,12.31.66,9.65,7.65-3.33,11.81-3,11.73,4,1.55,4.33-2.26,4-3.48,6-5.14,5.33-3.33,5.66,1.33-7.32,7.82-3.66,9.06,7.32,2.42,8,0-3.32-1.11,1-5.25,8-4.48,10-3.15,6,5,9.32,0-3.66-8.32-2.33-12,10.32-6.65,11.31-1.33-5.32,7.75.34,9,3.32-8.69,7-7.36,2.33,5.08,5.33,7.36,4.66,9.77,7.32,9.69,7.32.25,2.66-4.41-7-5.66-7.65-9-6-13.31-1.66-10.32,4.65,3.66,4.32,4.66,12.31,7,13.64.67,7.32-8,8-2-6.66,12.64-2.33,12.64,5.32,7.42,7.32-1.95,1-20.67,5.32-12,11,4.42,5.66,12-8.27,1.79-9.13,9.69-7.12,10.23,0,9.57,5.14.33,5.14-4.33-4.33-7,0-4.66,6.65,5.16,8.32,2.41,6.65-8.23,7.32,0-2.33,13.23-1.34,16.23,3.33,9.31,4.33,2,.67-11.64.33-14,1.34-.33,4.66,0-2,1.59-1,4.62-3.66,14.84,1,10.43,10.32-14.79,11.32-7.43,2,3.21-5,9.6-14,11.83-9.65,15.6,1.34,11.43-3.32,16.76,4.32,8,0,14-5,15-8,6.32-3.66-12.22-6-8.11.67,15.1,4,18.43,15.63,2.33,10,6.65-12.32,4.33-10.65,7.66-1.33,5.65-2.33,8.65-4.66,3.32-5.32,6.32,5.65,8.32,6,3.32,4.32-11.64,4-12.64,2.49-5.32,4.41-.33-1.75,1.66-1.75,6.65,6.65,4.66-4,9-13-.34-16.31,6.65,0,9.32-5,13.64-8,11.65-15.8,16.64S239,380.16,241,383.16s-.33,6.65-4,3.66.33-9-3.67-11.31-6.32-3-5.65,0,4.32,5.32,4,9-2,4.32-5,4-8.65,2.66-3.66,4,12.31-.66,8.65,3.33-12.31,1.33-7.65,5,12.64,8.32,4.66,7.32S224.74,412.49,224.74,412.49Z"/><path class="cls-2" d="M38.77,231.51a8.34,8.34,0,0,1-1.17,4.27,4.63,4.63,0,0,1-3.75,2.39,4.79,4.79,0,0,1-3.92-2.26,8.09,8.09,0,0,1-1.34-4.39A8.23,8.23,0,0,1,29.78,227a5.84,5.84,0,0,1,1.7-1.73,4.49,4.49,0,0,1,2.37-.69,4.22,4.22,0,0,1,2.32.78,5.34,5.34,0,0,1,1.56,1.76A8.74,8.74,0,0,1,38.77,231.51Zm-.1,0a6.94,6.94,0,0,0-1.38-4.06,4.36,4.36,0,0,0-3.44-1.84,4.17,4.17,0,0,0-3.24,2,7.22,7.22,0,0,0-1.22,3.94,7.33,7.33,0,0,0,1.08,4,4.23,4.23,0,0,0,3.38,2.12,4.39,4.39,0,0,0,3.57-2A7.13,7.13,0,0,0,38.67,231.51Z"/><path class="cls-1" d="M38.72,231.51c0,3.06-1.88,5.54-4.2,5.54s-4.2-2.48-4.2-5.54S32.2,226,34.52,226,38.72,228.46,38.72,231.51Z"/><path class="cls-1" d="M101.86,250.06c1.93-7.52,7.32-25.62,15.64-35.27s24-20.29,29.28-12.64,15.31,37.27,16,45.58-6.32,18-17,23-22.62.66-32.27-4.66S99.65,258.66,101.86,250.06Z"/><path class="cls-2" d="M81.85,259.74a33.4,33.4,0,0,1-2-3.63,12.33,12.33,0,0,1-.94-4.07,16.64,16.64,0,0,1,.32-4.18,26.7,26.7,0,0,1,1.07-4c1-2.59,2.35-5.22,4.75-6.77a11,11,0,0,1,1.89-.91,4.86,4.86,0,0,1,2.08-.36,3,3,0,0,1,1.93,1,5.42,5.42,0,0,1,1,1.87,23.47,23.47,0,0,1,.9,4.08c.2,1.37.37,2.75.46,4.13a43,43,0,0,1-.07,8.33,11.44,11.44,0,0,1-1.19,4.11A7.17,7.17,0,0,1,89,262.21a5.48,5.48,0,0,1-4.18.34A5.63,5.63,0,0,1,81.85,259.74Zm.09-.05a5,5,0,0,0,3,2.6,4.92,4.92,0,0,0,3.78-.66,7,7,0,0,0,2.59-2.82,11.62,11.62,0,0,0,1-3.8,36.24,36.24,0,0,0,.25-4c0-1.36,0-2.72-.06-4.09s-.17-2.72-.3-4.08a27.93,27.93,0,0,0-.64-4,4.94,4.94,0,0,0-.86-1.75,2.34,2.34,0,0,0-1.63-.9,6.38,6.38,0,0,0-3.76,1.21,8.18,8.18,0,0,0-2.62,3,19.33,19.33,0,0,0-1.53,3.74,37.83,37.83,0,0,0-1,3.94,23.89,23.89,0,0,0-.55,4,11.6,11.6,0,0,0,.56,4A19.29,19.29,0,0,0,81.94,259.69Z"/><path class="cls-2" d="M114.5,235.94a37.38,37.38,0,0,1,2.12-10.38,34.56,34.56,0,0,1,2.18-4.85,20.2,20.2,0,0,1,3.19-4.25,45.54,45.54,0,0,0-2.49,4.6q-1.06,2.38-1.94,4.84c-.59,1.64-1.11,3.3-1.61,5S115,234.23,114.5,235.94Z"/><path class="cls-2" d="M119.5,235.94c.46-2.16,1.07-4.27,1.74-6.37s1.44-4.16,2.26-6.2a59.43,59.43,0,0,1,2.88-6,17.3,17.3,0,0,1,4.1-5.2c-.34.45-.73.83-1,1.29s-.62.89-.87,1.38-.55.94-.8,1.42l-.72,1.46c-.92,2-1.81,4-2.64,6Z"/><path class="cls-2" d="M125,242.91c.76-3,1.7-6,2.69-8.9s2.11-5.83,3.29-8.7a92.29,92.29,0,0,1,4-8.42c.73-1.37,1.54-2.7,2.37-4l1.36-1.89c.49-.61,1-1.18,1.53-1.76l-1.31,1.91-1.16,2c-.74,1.36-1.46,2.71-2.11,4.11-1.3,2.79-2.57,5.6-3.74,8.46s-2.34,5.71-3.49,8.58Z"/><path class="cls-2" d="M128,246.29c1.11-2.24,2.32-4.41,3.56-6.58s2.51-4.29,3.82-6.41,2.66-4.2,4.09-6.25a63.43,63.43,0,0,1,4.5-6c-.66,1.06-1.32,2.11-1.94,3.19l-1.92,3.2c-1.27,2.13-2.57,4.25-3.88,6.36s-2.64,4.21-4,6.29S129.45,244.27,128,246.29Z"/><path class="cls-2" d="M127.73,255.64c1.56-2.21,3.22-4.33,4.9-6.44S136,245,137.79,243s3.56-4,5.45-6a50.74,50.74,0,0,1,5.95-5.49c-.95,1-1.87,1.93-2.73,3s-1.78,2-2.65,3l-5.26,6.12c-1.78,2-3.53,4.06-5.34,6.05S129.61,253.7,127.73,255.64Z"/><path class="cls-2" d="M134,258.38c1.58-1.82,3.22-3.56,4.87-5.3s3.34-3.44,5-5.14,3.4-3.38,5.14-5l2.58-2.49c.89-.81,1.73-1.66,2.59-2.5a62.64,62.64,0,0,1-4.62,5.53c-1.61,1.78-3.3,3.49-5,5.2s-3.42,3.36-5.2,5S135.83,256.86,134,258.38Z"/><path class="cls-2" d="M130.48,264.37c1.86-1.17,3.77-2.23,5.69-3.28s3.88-2,5.84-3,4-1.89,6-2.73a37.73,37.73,0,0,1,6.19-2.22c-1,.4-2,.92-3,1.42l-2.92,1.49c-1.94,1-3.9,2-5.86,2.94s-3.94,1.9-5.94,2.79S132.52,263.57,130.48,264.37Z"/><path class="cls-2" d="M138.46,264.37a66.88,66.88,0,0,1,15.72-4.24,57.55,57.55,0,0,1-7.73,2.6A56.31,56.31,0,0,1,138.46,264.37Z"/><ellipse class="cls-1" cx="187.71" cy="154.57" rx="4.33" ry="3.33"/><path class="cls-1" d="M164.25,175.53a1.86,1.86,0,1,1-1.83-2.16A2,2,0,0,1,164.25,175.53Z"/><path class="cls-1" d="M227.14,178a2.19,2.19,0,1,1-2.16-2.5A2.34,2.34,0,0,1,227.14,178Z"/><path class="cls-1" d="M239.45,170.79a1.83,1.83,0,1,1-1.83-1.74A1.79,1.79,0,0,1,239.45,170.79Z"/><ellipse class="cls-1" cx="114.84" cy="170.79" rx="1.83" ry="1.75"/><path class="cls-1" d="M229.64,159.4a2.58,2.58,0,1,1-2.58-2.66A2.62,2.62,0,0,1,229.64,159.4Z"/><path class="cls-1" d="M235,152.2c-.12.78-1.27,1.23-2.56,1s-2.24-1-2.12-1.78,1.27-1.23,2.57-1S235.14,151.43,235,152.2Z"/><path class="cls-1" d="M222,141.51a2,2,0,1,1-2-1.74A1.88,1.88,0,0,1,222,141.51Z"/><path class="cls-1" d="M210.33,147.84a1.09,1.09,0,1,1-1.08-.92A1,1,0,0,1,210.33,147.84Z"/><path class="cls-1" d="M103.51,163.81a1.09,1.09,0,1,1-1.07-.92A1,1,0,0,1,103.51,163.81Z"/><path class="cls-1" d="M211.21,159.31c-.41.82-1.83.93-3.17.26s-2.08-1.89-1.66-2.71,1.83-.94,3.17-.26S211.63,158.49,211.21,159.31Z"/><path class="cls-1" d="M117.49,154.1c.33.86-.53,2-1.92,2.54s-2.8.29-3.13-.57.52-2,1.92-2.53S117.15,153.25,117.49,154.1Z"/><path class="cls-1" d="M208,176.17c-.64,1.37-2,2.09-3.05,1.6s-1.36-2-.71-3.38,2-2.08,3.06-1.59S208.62,174.8,208,176.17Z"/><path class="cls-1" d="M186.88,146.38a1.78,1.78,0,1,1-1.75-1.46A1.63,1.63,0,0,1,186.88,146.38Z"/><path class="cls-1" d="M189.54,161.62a1.67,1.67,0,1,1-1.66-1.61A1.64,1.64,0,0,1,189.54,161.62Z"/><ellipse class="cls-1" cx="166.25" cy="161.95" rx="2.16" ry="1.94"/><path class="cls-1" d="M167.41,153.7a2.85,2.85,0,1,1-2.83-2.46A2.66,2.66,0,0,1,167.41,153.7Z"/><path class="cls-1" d="M156.93,144.65a1.67,1.67,0,1,1-1.66-1.72A1.7,1.7,0,0,1,156.93,144.65Z"/><path class="cls-1" d="M149,155.84c.48,1.25-.48,2.77-2.13,3.4s-3.38.13-3.85-1.12.48-2.76,2.13-3.39S148.51,154.6,149,155.84Z"/><path class="cls-1" d="M174.4,142.1c0,.46-.6.83-1.33.83s-1.33-.37-1.33-.83.59-.84,1.33-.84S174.4,141.64,174.4,142.1Z"/><path class="cls-1" d="M129.48,178c0,.46-.6.84-1.33.84s-1.33-.38-1.33-.84.59-.83,1.33-.83S129.48,177.57,129.48,178Z"/><path class="cls-1" d="M179.89,185.44a1.75,1.75,0,1,1-1.75-1.75A1.74,1.74,0,0,1,179.89,185.44Z"/><path class="cls-1" d="M196.12,185.14a2.16,2.16,0,1,1-1.6-2.06C195.63,183.37,196.35,184.3,196.12,185.14Z"/><path class="cls-1" d="M196.1,194a2.1,2.1,0,1,1-4-1.07,2.1,2.1,0,1,1,4,1.07Z"/><path class="cls-1" d="M131,160.75c.25.85-.87,1.93-2.5,2.41s-3.16.18-3.41-.67.87-1.94,2.5-2.42S130.77,159.89,131,160.75Z"/><path class="cls-1" d="M303.17,187.18c.25-1.17.75-5.31,4.24-1.74s2.5,2.64,0,5.6S303.17,187.18,303.17,187.18Z"/><path class="cls-1" d="M301.67,204.23c-1.24,0-4.74-3-5.49,0s2.25,5.74,4,4.49,1.49-1.76,1.49-1.76,4.51-.73,4.75-2-.24-3,0-3.75a12.55,12.55,0,0,0,.08-3s2.91,2.25,2.41,0-.48-2.53-2.49-2.26-1.75,2.51-1.75,2.51,1,2,0,2.74A32.35,32.35,0,0,0,301.67,204.23Z"/><path class="cls-1" d="M260,177.7c2.49-.42,8-1.25,5.74-4.33s-7.74-5.32-9-4.32-.75,5.24,0,6.23A14.77,14.77,0,0,0,260,177.7Z"/><path class="cls-1" d="M286.7,187.18c.25-2.17.5-4.47-2-4.19s-3.74.65-2.49,2.08S286.7,187.18,286.7,187.18Z"/><path class="cls-1" d="M329.62,174.41c-1-.69-4.74-1.87-4.74.87s-1,4.5,2.37,5.24,2.37,3.25,4.62,3.5,5.14-.28,3.5-3.5-2.62-3.92-2.62-3.92Z"/><path class="cls-1" d="M339.11,185.44c-1.13.37-1.28,1.63-3.26,6.34s-3.48,7.46-1.23,6.71,1-.51,4.49.12,4.74.42,3.74-2.72S342.35,184.36,339.11,185.44Z"/><path class="cls-1" d="M328.13,185.44c-1.25.82-2.5-1.14-1.25,2.46s1.59,7.11,3.42,5.61a16.76,16.76,0,0,0,3.19-3.86,2.72,2.72,0,0,0-1.62-2.47C330.13,186.26,328.13,185.44,328.13,185.44Z"/><path class="cls-1" d="M322.67,194a1.89,1.89,0,1,1-1.89-1.89A1.89,1.89,0,0,1,322.67,194Z"/><path class="cls-1" d="M317.8,203a2.8,2.8,0,1,1-3.22-1.47A2.52,2.52,0,0,1,317.8,203Z"/><path class="cls-1" d="M330.3,243.58a26.39,26.39,0,0,1,5.55,2.71c3.51,2.11,7.42,1.11,7.33,1.86s-.08,2.5-1.33,3.5-3,4.49.25,4,3.75-4.24,4.25,0-3.17,8.73-3.17,8.73-1.37,3.75-4.84,1.25-4.72-4.74-4.84-5.49,2.35-4.49,2.35-4.49,3.22-4,2.49-5.24,3-1.5-2.49-2.25S328.1,242.68,330.3,243.58Z"/><path class="cls-1" d="M346.39,225.19c-1.29-2-2.62-2.74-3.21-2.74s-3.57-2.75-1.58-3,1.75,0,3.5,1.63.75.29,3,1.2,1.25-.57,2.75-1.2l1.5-.63a30.47,30.47,0,0,1,0,4.74c-.25,1-3,.75-4,1.5s-2.81,1.75-1.65,3.24,3.9,2.51,2.9,3.75-1.15,1.83-3.2,2.54-2.62.7-3.21,2.7,1.56,4.49-2.25,3-3.18-2-3-4,2.43-4,2.93-4.24-.25-.09-.25-2.17,1.16-2.07,2.57-2.82,1.93-3.25,1.93-3.25Z"/><path class="cls-1" d="M272.72,386.41a5.92,5.92,0,0,1,2.5-7.49c3-2,3.49-4.49,8.74-4.74s10.23,1.25,11,4,2.49,8.49,0,9.48-3.75,3.75-8.49,4.75-9.23,4.49-10.23,4-2.43.75-4-2S272.72,386.41,272.72,386.41Z"/><path class="cls-1" d="M258.75,386.66c4-3.25,5.74-2.5,6.49-5.49s-3.25-5-3.25-5.49-2.24-2.55-3.24-1.53-2.5,2.27-2.5,5-2.49,4.76,0,6.12Z"/><path class="cls-1" d="M270.75,372.43c-3-1-4-.25-3.27-3.24s-3.2,0,1.52-4.49,3-13.23,4.72-14.23,5.24-.75,7,0,6,1.75,3.25,3.74-5.49,1.75-6.24,4.25,6.49,1.25,8.23-1.5,8-7.15,8-7.15,2.74,5.9,0,7.15-6.49,3.74-7,6,.25,4-3,5a27.51,27.51,0,0,0-6.49,2.5C273.23,372.43,270.75,372.43,270.75,372.43Z"/><path class="cls-1" d="M327.3,384.05c-.42-3.13.51-3.88,2.17-5.38s3.15-4.05,1.4-4.52-5.24.53-6.49-1.72,2.5-2.49-.5-4.74-7.48-2.65-6-6.57,5.84-10.47,9.91-11.31,12.05-3.9,11.8,0-4.24,9.73-4.24,11.31,5.49,2.58,6.48,2.58,4.43-.89,2.75,4S327.3,384.05,327.3,384.05Z"/><path class="cls-1" d="M316.15,338.49c-2.06-1.83-6,2-4.24-2.24a15.42,15.42,0,0,1,5.69-7.49c2-1.5,1.79-8.48,5.54-4.24s4,6,3.74,6.5,7.63-.26.07,3.48S318.39,340.49,316.15,338.49Z"/><path class="cls-1" d="M349.71,347.23v3s-.56,1.25,1.68,0,1.88-1.19,1.52-2.34S349.71,347.23,349.71,347.23Z"/><path class="cls-1" d="M361.57,334.75c.25-2.5-7.74-9.34-6.74-3.55s4.74,8,4.74,8-7.24,2-4.87,4.24,1.8,1.88,6.62-1.24,4.24-2.67,4.74-5.58-.17-7.25-2-5.46"/><path class="cls-1" d="M336.36,336.93c-.94,2.5-3.24,5.06,0,5.31s4.74-1.82,4.74-2.66,3.25-3,0-2.65S336.79,335.8,336.36,336.93Z"/><path class="cls-1" d="M349.08,338c-1.32,1.65-3,4.54-1.49,4.27a10.05,10.05,0,0,0,4.86-2.13c1.13-1.14,3.13.86,1.13-1.14S350.15,336.66,349.08,338Z"/><path class="cls-1" d="M345.06,344.92c-1.71.31-6.06,1.84-2.51,2.2l3.55.36Z"/><path class="cls-1" d="M309.16,363.45c-.75,2-.5,3,0,3.74s3.25.75,3.5,0,.74-3.49,0-3.74A16,16,0,0,0,309.16,363.45Z"/><path class="cls-1" d="M302.67,320c-3.14,5.3-2,5.84-3.24,8.91s-1.25,2.31-1.25,6.31-3,6.78-4,7,2,4.1,4.24,2.66a6.66,6.66,0,0,0,3-5.19c0-1.24,2.25-1,1.25-5s1-3.39,3.25-5.81,3.54-3.38,2.77-5.77S303.4,318.8,302.67,320Z"/><path class="cls-1" d="M343.64,310.29a50.56,50.56,0,0,0-7.28,5c-2.49,2-7.07.75-5,6.49s.18,10.59,6.6,7.17,9.16-.18,8.17-4.42-2.61-5.24-3.55-7,2.33-6.24,2.56-7.24S343.64,310.29,343.64,310.29Z"/><path class="cls-1" d="M360.22,325c-1.15-2,.1-2.61-3.89-3.61s-5.26-5.17-7.25-5.42-3.67-2.22-2.08-2.22,1.52.52,3.93,1.52a29.68,29.68,0,0,1,5.4,2.75c2,1.25,3.49-.38,5,1.37s3.49,5.61,2,5.61Z"/><path class="cls-1" d="M323.88,300.06c-3.45.91-.84,1.25-6.28,1.75s-7.94,1-10.68,2.49l-2.75,1.5a2.35,2.35,0,0,0,0,3c1.25,1.5,6.16,2.5,6.7,5s-1.51,6.73,2.88,4,2.05-4.24,3.85-6.74-2.28-2.75,3.25-3.74,7.28-.36,7.28,2.07,1.66,2.28,3.2.48,3-3.8,2.29-6.55-1.06-2.24-4.15-3.24A7.75,7.75,0,0,0,323.88,300.06Z"/><path class="cls-1" d="M313.05,257.13c-2.14,3-4,7.46-4.08,9.35s2.39,6.13,2,9.37-.8,6-2.32,7.24-2.27,2.75-4,5.24-6.3,3.74-2.15,6,5.57,3.74,8.35,3.49,5.28-1.24,5.53-3.74a56,56,0,0,0,0-6.49c0-3-1.75-4.74-1.25-7.23a8.57,8.57,0,0,1,2.72-5.25c1.27-1,5.76-2.66,7-2.2s5.65-2.29,6.45-4,0-3-1.86-2.39a17.91,17.91,0,0,0-4.34,2.39,8,8,0,0,1-4.28,1.49c-1,0-2.8,0-3.25-1.49s-.55-4.5,0-4.5,1.72,1.25,3.25,0,7-4.24,3-5.61a39.1,39.1,0,0,0-7.65-1.63A13.18,13.18,0,0,0,313.05,257.13Z"/><path class="cls-1" d="M294,288.83c2.69-4,2.19-4.24,4.69-6.24s4.38-2,4.94-1.25-.76-2-1.1,1.75,2.2,4.24-1.07,4.74-5.77-.75-5.27,0-2.19,3-2.19,2"/><path class="cls-1" d="M300.82,274.36c-1.89-3.25-.76-.5-1.95-4.5s-2.93-1.24-1.19-4,3.93-5.24,4.84-5.74,3.9,0,3.9,0,3.24,1,0,2.12-3.79,3.09-4,4.23a26.79,26.79,0,0,0,0,4.38Z"/><path class="cls-1" d="M355.11,292.82c2.71-1.24,3.22-2.24,6.46,0a12.78,12.78,0,0,1,4.65,6.72c.34,1,4.33,7.87,4.58,10.31s-.5,9.21-3.24,8.82-2.17-3.64-4.58-4.88-3.66,1.74-4.9-1.75-3.75-6.42,0-7,7.73,3.78,7,0-.18-4.07-1.21-5.55l-1-1.48s-1.7-2.24-2.6-2.24-3.09-.75-5.11,1-5.84,4-4.18,1A18.36,18.36,0,0,1,355.11,292.82Z"/><path class="cls-1" d="M339.86,301.31c0-1.5.38-3.19,2.69-3.47s3.61-.25,4.45,1.73,3.52,2.74,3.52,2.74,4.17,2.49,0,2-6,.63-8,.07S339.86,301.31,339.86,301.31Z"/><path class="cls-1" d="M333.49,282.84c-2.62.75-3.87-1.21-5.61,2.64s-4.25,6.1,0,5.85,5.38-.5,6.81-2.25,2-2.21,3.09-3.6S333.49,282.84,333.49,282.84Z"/><path class="cls-1" d="M335.86,274.36c2.25-2.5,3.42-5,5.33-3.75a5,5,0,0,1,2,3.75s-2.62,3.41-4.84,3.07-5-.33-2.48-2.08"/><path class="cls-1" d="M356.58,237.92c-1.65.73-4.62,1-3.81,3s1.87.27,2.34,5.38-4,11.37,0,10.74a5.91,5.91,0,0,0,5.11-6.63c-.4-2.5,1.07-10.73.46-12.48s-.86-4.73-2.11-4.24S358,237.28,356.58,237.92Z"/><path class="cls-1" d="M320.85,246.29c3.53.61,4.6,1.11,4.69,3.11s2.15,6.24-2.87,3.74-5.27-3.74-7.52-5,3.45-4.08,5.44-2.8"/><path class="cls-1" d="M309.68,238.92c-2.64,1.56-4.6,2.08-5.93,4.66s-5.13,7.45-1.23,5.89,3.91-2.18,3.9-4.12,1.13-2,1.44-3,4.57-1.21,4.57-1.21S313.05,236.92,309.68,238.92Z"/><path class="cls-1" d="M322.67,219.37c-4-.67-5.83-.17-4.8,2.83s1.45,5.24,3,3.49.1-1.48,1.82-3,5.75-3.86,2.87-3.6Z"/><path class="cls-1" d="M331.63,226.3c-2.5,1.39-5.92,2.76-5.08,4.57s2.21,4.31,4.27,1.81a20.6,20.6,0,0,0,3-5C334.37,226.69,331.63,226.3,331.63,226.3Z"/><path class="cls-1" d="M343.62,205.23c-3,1-2.52,1.36-2.52,3.8a6.12,6.12,0,0,0,2.08,4.18s3.21-2.26,2.94-3.12a20.18,20.18,0,0,1,0-4.09Z"/><path class="cls-1" d="M231.32,215.09c-.46,1.52-3,2.07-5.73,1.24s-4.51-2.73-4.05-4.24,3-2.07,5.74-1.25S231.79,213.58,231.32,215.09Z"/><path class="cls-1" d="M263.74,228.19s5.05,3,2.53,4.49-5.52,1.25-6-2.25S260.77,225.56,263.74,228.19Z"/><path class="cls-1" d="M279,233.68c0,3,1,4.49,2.76,4.24s3.64-2.26,2.57-4.37-2.54-4.06.31-5.71,4.15.11,2.25-3.76-1.13-8.6-5.13-7.36.76,3.73,0,6-4.25,1.08-4,4.53A30.09,30.09,0,0,0,279,233.68Z"/><path class="cls-1" d="M266.27,248.15c1.47-.25,2-2.23,3.46-1.86s3.5,5.36,0,5.85-7-1.5-7.24-2.37S266.27,248.15,266.27,248.15Z"/><path class="cls-1" d="M277.71,249.77c1,1.8,1.54,5.28,5,2.45s5.57-5.33,5-2.45-.3,5.9,2.94,4.14.5-10,2-12.25,4-4,0-3.74-5.84,1.75-6.41,5S276.58,247.72,277.71,249.77Z"/><path class="cls-1" d="M286.85,267.13c2.6,4,4.59,5.73,3.59,7.23l-1,1.49s-.91,4.82-1.7,5,0,.13-.9-3.45-2-3.32-2.56-6.07,3.46-4.23,3.46-4.23"/><path class="cls-1" d="M269.48,262.63c3-1.25,3.75-5.74,5.74-2.5s5,4.74,2.39,6-2.89.75-4.63,2.5-3.25,3.49-3.5,0A38.72,38.72,0,0,1,269.48,262.63Z"/><path class="cls-1" d="M275.72,297.84c1.49,2.17,1.72,2.47,2,4.22s-.74,3.24-2,3.24-1.18-2.47-1.72-3.73S274.12,295.51,275.72,297.84Z"/><path class="cls-1" d="M273.82,315.28c.4,1.75,1.6,2.28,0,3.39a5.07,5.07,0,0,1-3.07,1s-2.74.91-1.38-1A14.14,14.14,0,0,1,273.82,315.28Z"/></g></g></svg>