<svg xmlns="http://www.w3.org/2000/svg" viewBox="0 0 141.92 42.93"><defs><style>.cls-1{fill:#f1ecce;}</style></defs><title>swordfish_name</title><g id="圖層_2" data-name="圖層 2"><g id="swordfish_name"><path class="cls-1" d="M6.82,4.35c.24,5-.46,10.05-.93,15-.18,1.92,2.82,1.91,3,0,.47-4.93,1.17-10,.93-15-.1-1.92-3.1-1.93-3,0Z"/><path class="cls-1" d="M9.1,7.35A24.78,24.78,0,0,1,20.23,4.63c2.05,0,4.63.37,5.86,2.25,1.7,2.63-.41,7-2.66,8.62-1.53,1.14,0,3.75,1.51,2.59,4.89-3.63,7.14-12.33.57-15.44C20.15.11,12.57,2.22,7.58,4.76c-1.72.88-.2,3.47,1.52,2.59Z"/><path class="cls-1" d="M11,9.21c.18,2.76.15,6.16,3.4,7a1.5,1.5,0,0,0,.8-2.89c-1.46-.39-1.12-3-1.2-4.14-.12-1.92-3.12-1.93-3,0Z"/><path class="cls-1" d="M21,7.33c-.65,3.15-2.92,5.41-5,7.75-1.27,1.45.85,3.58,2.12,2.12,2.39-2.72,5-5.41,5.76-9.07.39-1.89-2.5-2.69-2.9-.8Z"/><path class="cls-1" d="M7.79,20.77c5.28-1.59,10.92-2.05,16.4-2.47,1.91-.15,1.92-3.15,0-3-5.73.44-11.67.91-17.2,2.58-1.84.56-1.06,3.46.8,2.89Z"/><path class="cls-1" d="M9.8,25.49l12.36-2.14c1.9-.32,1.09-3.22-.8-2.89L9,22.59c-1.89.33-1.09,3.22.8,2.9Z"/><path class="cls-1" d="M14.86,8,13.71,28c-.11,1.93,2.89,1.93,3,0L17.86,8C18,6,15,6,14.86,8Z"/><path class="cls-1" d="M4.62,30.61l22.21-2.42c1.9-.21,1.92-3.21,0-3L4.62,27.61c-1.9.21-1.92,3.21,0,3Z"/><path class="cls-1" d="M6.64,29.54C4.55,33.29,2.38,37,.22,40.69a1.5,1.5,0,0,0,2.59,1.52C5,38.5,7.14,34.8,9.23,31.06c.94-1.69-1.65-3.21-2.59-1.52Z"/><path class="cls-1" d="M8.33,31.06c1.87,2.77,2.89,6.27,3.9,9.44.58,1.83,3.48,1,2.89-.8-1.08-3.39-2.19-7.19-4.2-10.16C9.84,28,7.24,29.45,8.33,31.06Z"/><path class="cls-1" d="M15.76,30a46.51,46.51,0,0,1,4.58,9.44c.67,1.79,3.57,1,2.89-.8a50.18,50.18,0,0,0-4.88-10.15c-1.06-1.6-3.66-.1-2.59,1.51Z"/><path class="cls-1" d="M24.21,29.37c.74,1.53,1.43,3.1,2.07,4.69.48,1.21.94,2.43,1.3,3.68.16.54.27,1.08.4,1.62.07.31-.08,1,.18.69-1.32,1.41.8,3.53,2.12,2.12,1.78-1.9.17-5.49-.57-7.51-.85-2.31-1.84-4.59-2.91-6.81-.84-1.74-3.43-.22-2.59,1.52Z"/><path class="cls-1" d="M44.47,14.15c2.59-2.7,8.14-3.56,11.69-3.75,1.15-.05,5.74-.17,6.1,1.35s-4.11,3.22-5,3.55c-1.8.65-1,3.55.8,2.9,2.52-.91,6.11-2.38,7-5.22.79-2.43-1.08-4.11-3.21-4.86-3.4-1.19-7.16-.77-10.6,0-3,.66-6.71,1.63-8.91,3.93-1.34,1.39.78,3.52,2.12,2.12Z"/><path class="cls-1" d="M45.11,12.3l-4,25.2c-.3,1.89,2.59,2.7,2.89.8l4-25.2c.3-1.89-2.59-2.7-2.89-.8Z"/><path class="cls-1" d="M53.6,1.45a61.64,61.64,0,0,1-3.54,19,1.5,1.5,0,0,0,1.84,1.84c1-.32,6.67-2.58,7.34-1.07.54,1.24-2.41,4.48-3,5.23A37.45,37.45,0,0,1,45.8,35.25l2.25,1.3A6,6,0,0,0,47.4,34c-.77-1.77-3.36-.24-2.59,1.51l.24,1a1.52,1.52,0,0,0,2.26,1.29c5.4-3,12.33-8.57,14.46-14.6,2.59-7.3-7-5.11-10.66-3.89L53,21.2A64.39,64.39,0,0,0,56.6,1.45c0-1.93-3-1.93-3,0Z"/><path class="cls-1" d="M47.15,24.79c7.13,4.52,14.44,9.14,20.09,15.5,1.29,1.45,3.4-.68,2.12-2.12-5.81-6.54-13.37-11.32-20.7-16-1.63-1-3.14,1.56-1.51,2.59Z"/><path class="cls-1" d="M79.39,10.28c1.92.33,4.34.65,6,1.67a1.5,1.5,0,0,0,1.52-2.59c-1.94-1.17-4.56-1.59-6.75-2-1.89-.32-2.7,2.57-.8,2.9Z"/><path class="cls-1" d="M78.58,17c3.3-.44,6.57-1.17,9.82-1.88,1.89-.41,1.09-3.3-.79-2.89-3,.65-6,1.37-9,1.77-1.89.26-1.92,3.26,0,3Z"/><path class="cls-1" d="M81.08,15.43C79.54,22,77.44,28.48,75.3,34.89c-.61,1.84,2.29,2.63,2.9.8,2.13-6.41,4.23-12.88,5.78-19.47.44-1.87-2.46-2.68-2.9-.79Z"/><path class="cls-1" d="M82.32,23.66c1.64-.36,3.22-.91,4.87-1.22l-1.85-1c.45,1.54-.07,3.5-.52,5-.23.79-.79,1.53-1,2.29,0,.17-.17.26-.17.23s.58,0,.54.09-.41-.61-.38-.55A1.5,1.5,0,0,0,81.23,30c1.68,2.92,4.43,2,5.69-.69,1.17-2.45,2.1-6,1.31-8.68a1.53,1.53,0,0,0-1.84-1.05c-1.65.31-3.23.86-4.87,1.22-1.88.41-1.08,3.3.8,2.89Z"/><path class="cls-1" d="M92.34,2.16C92,4.3,91.46,6.4,91.12,8.54a1.53,1.53,0,0,0,1,1.85c3.49.55,6.69-.75,10.13-.86,1.93-.06,1.93-3.06,0-3-3.11.1-6.21,1.46-9.33,1l1,1.84c.34-2.14.88-4.24,1.22-6.39.3-1.89-2.59-2.7-2.89-.79Z"/><path class="cls-1" d="M90.84,18.6l13.68-2.13c1.91-.29,1.1-3.18-.79-2.89L90,15.71c-1.9.29-1.1,3.19.8,2.89Z"/><path class="cls-1" d="M93.2,15.22c-.29,5-.59,10-2,15a1.5,1.5,0,0,0,2.89.8c1.43-5.17,1.75-10.44,2.06-15.76.11-1.93-2.89-1.93-3,0Z"/><path class="cls-1" d="M98.67,12.9c.64,4.87,1.22,9.93.36,14.81-.33,1.88,2.56,2.7,2.89.79.91-5.18.43-10.42-.25-15.6-.24-1.89-3.25-1.91-3,0Z"/><path class="cls-1" d="M95.7,22l5.48-.91c1.9-.32,1.09-3.21-.8-2.9l-5.47.91c-1.9.32-1.1,3.21.79,2.9Z"/><path class="cls-1" d="M94.7,26.26l5.47-.61a1.54,1.54,0,0,0,1.5-1.5,1.5,1.5,0,0,0-1.5-1.5l-5.47.61a1.55,1.55,0,0,0-1.5,1.5,1.5,1.5,0,0,0,1.5,1.5Z"/><path class="cls-1" d="M89.92,32.59l15.21-2.73c1.9-.35,1.1-3.24-.79-2.9L89.13,29.7c-1.9.34-1.1,3.23.79,2.89Z"/><path class="cls-1" d="M96.68,28.87c-3,3-5.39,6.55-8.52,9.43-1.42,1.31.7,3.43,2.12,2.12C93.41,37.54,95.84,34,98.8,31c1.35-1.38-.77-3.5-2.12-2.12Z"/><path class="cls-1" d="M96.37,31.9A19.47,19.47,0,0,1,100,35.81c.65.9,2,2.53,2,3.55.08,1.92,3.08,1.93,3,0-.08-1.71-1.24-3.35-2.19-4.71a22.62,22.62,0,0,0-4.34-4.87c-1.5-1.18-3.64.93-2.12,2.12Z"/><path class="cls-1" d="M126.41,2.65c-1.58,3.72-3.51,7.42-6.49,10.22-1.41,1.32.72,3.44,2.12,2.12a31.42,31.42,0,0,0,7-10.82c.74-1.76-1.84-3.29-2.59-1.52Z"/><path class="cls-1" d="M126,9.88c1.25-.14,2.51-.45,3.76-.5.74,0,1,0,.79.8A10.64,10.64,0,0,1,128,13.71c-1.34,1.39.78,3.51,2.12,2.12,1.48-1.54,3.55-3.81,3.52-6.1a3.27,3.27,0,0,0-2.42-3.23c-1.68-.44-3.55.19-5.23.38-1.9.22-1.92,3.22,0,3Z"/><path class="cls-1" d="M122.75,15.87c-1.11,3.08-1.3,6.69-1.75,9.93-.26,1.88,2.63,2.7,2.89.79.45-3.23.64-6.84,1.75-9.93.66-1.82-2.24-2.6-2.89-.79Z"/><path class="cls-1" d="M125,17.56c1.78-.95,7.15-3.17,8.58-.66.55,1,.06,2.82-.17,3.81a12.32,12.32,0,0,1-.68,2.16c-.13.31-.76,1.11-.42,1-1.83.6-1.05,3.49.8,2.9s2.47-2.77,3-4.36c.6-2,1.14-4.6.29-6.59-2.08-4.88-9.43-2.68-12.87-.85-1.7.91-.19,3.5,1.52,2.59Z"/><path class="cls-1" d="M124,22.3l9.06-1.38c1.9-.28,1.09-3.18-.8-2.89l-9.06,1.38c-1.9.29-1.09,3.18.8,2.89Z"/><path class="cls-1" d="M128.25,16c-.13,2-.29,4.43-1.26,6.25s1.69,3.23,2.59,1.52c1.23-2.32,1.51-5.19,1.67-7.77.12-1.93-2.88-1.92-3,0Z"/><path class="cls-1" d="M123.61,27.4c1.66,0,3.32-.22,5-.38,1-.09,3-.48,3.69-.25,1.85.57,2.64-2.32.8-2.9-1.22-.38-2.83,0-4,.11-1.8.17-3.6.4-5.41.42s-1.93,3,0,3Z"/><path class="cls-1" d="M124.89,25.72c-3.5,4.41-6.73,9-10.22,13.44-1.19,1.49.92,3.63,2.12,2.12,3.5-4.41,6.72-9,10.22-13.44,1.19-1.5-.92-3.63-2.12-2.12Z"/><path class="cls-1" d="M126.26,26.59c.8,3.42,1.07,7-.3,10.31-.73,1.78,2.17,2.56,2.9.79,1.55-3.77,1.21-8,.29-11.89-.44-1.88-3.34-1.09-2.89.79Z"/><path class="cls-1" d="M132.1,26.89a15.78,15.78,0,0,1-.59,8.26c-.69,1.8,2.21,2.58,2.9.79a18.93,18.93,0,0,0,.58-9.85c-.34-1.9-3.23-1.09-2.89.8Z"/><path class="cls-1" d="M135.7,28.13a9.63,9.63,0,0,1,2.49,4.36c.21.62,1.17,3.84.73,4.09a1.51,1.51,0,0,0,1.52,2.6C142.49,38,142,35,141.5,33.11c-.6-2.44-1.69-5.43-3.68-7.1-1.47-1.23-3.61.88-2.12,2.12Z"/></g></g></svg>