<svg xmlns="http://www.w3.org/2000/svg" viewBox="0 0 451.25 317.99"><defs><style>.cls-1{fill:#494b4d;}</style></defs><title>swordfish-shadow</title><g id="圖層_2" data-name="圖層 2"><g id="swordfish-shadow"><path class="cls-1" d="M445.28,264.86c.19-3.17-8.57-28.52-13.79-35.23s-14.17-13.42-14.17-13.42c-1.86-2.42-10.06-26.28-12.86-33.92s-.74-11.55,1.12-14.35,7.83-18.08,11.93-27.77,6.9-20.32,5.78-21.44-3.73.19-3.73.19,15.66-34.48,17-38,.19-4.85.93-8.58.19-3.54-1.49-2.61-3.16,1.5-9.32,7.27-25.72,32.62-30.75,43.81a207.8,207.8,0,0,0-11.56,35.78,128.63,128.63,0,0,0-2.36,15.8c-4.09,4.3-7.86,10.8-12.27,12.9-4.14,2-17.3,10.46-34.4,17.66l0-.08a24.52,24.52,0,0,1,2.78-3.6c1.4-1.4,15.24-15,15.24-15s-3.5,2.24-5.46,3.47-9.92,8.13-11.18,7.3-1.54-.78.14-4.83-1.52-1.89-1.52-1.89-3.65,2.22-9.38,8.79-6.84,11.64-6.84,11.64l.05,0c-2.32.7-4.67,1.35-7.05,1.92a157.52,157.52,0,0,1-27.68-1.58c-15.66-2.24-29.82-8.95-50.33-19.76s-34.29-38.77-38.39-50.32-3-48.46-3-48.46-6,1.11-18.64,6.7-26.52,27.3-26.53,27.31l-1.25-2c-4.75-7.54-14-8.38-20.4-9.5a53.84,53.84,0,0,0-14.26,0C104.38,106.62,85.37,101,85.37,101L0,0,84.43,116.87h0s2.24,5.78,3.55,8.57,2.6,8.95,4.47,10.63c1.31,1.17,1.88,4.46,2.1,6.31.1.79.14,1.33.14,1.33-.75-2.42-6.53-11-12.68-16.78s-25.35-22.55-31.5-25.53-8.76-2.05-8.76-2.05c7.46,3.17,17.71,18.82,24.42,26.09s14.16,19.38,14.16,19.38,3.36,9.88,4.85,13.8,10.62,22,14.72,28.14,9.51,14.54,12.49,18.83,3.17,2,3.17,2,3.6,9.31,13,21.48l-.1-.12-3,4.36c-.56,2.51,1.39,20.83,1.81,23.2s6.43,31.46,7.83,36.35c1.13,4,4.65,13.6,5.94,17.13-2.08-7.12-6.26-36.28-6.78-39.5-.56-3.49-.7-15.93-.7-15.93.28,2.37,5.18,16.49,6.71,19.85S150,291.37,150,291.37s-4.89-13.14-6.85-17.61-7.41-23.21-8.67-28a51.65,51.65,0,0,1-1.26-11,105,105,0,0,0,16.85,15c4,8.82,9.07,19,12.14,22.92C167.38,279.4,179.49,288.9,181,290s5,5.22,7.46,6.71,3-.56,1.86-.93-2.42-4.29-6.52-9.69-12.3-20.88-13.61-23.49a3.69,3.69,0,0,1-.17-.41,141.55,141.55,0,0,0,41.18,14.48,113,113,0,0,0,28.58,1.05l-1.75.14s6.53,11.58,10.63,15.68,21.27,15.47,29,19.95,10.53,4.84,11.27,4.28,0-.18-3-4.1-7.46-13.42-5.41-18.82,6.16-15.66,9.32-19.39,11.56-13.42,16.22-17S317.26,249,317.26,249l-.54.33c3.93-2.45,7.72-4.84,11.41-7.22l-.24.15-.46.3.15-.1s-.15.1,2,2.55,7.55,3.22,9.79,3.22a72,72,0,0,1,7.27.77s-.28-1.61-2.8-3.43.56-4.19,1.54-4.61,11.46-7.83,16.21-11.19a46.5,46.5,0,0,0,9-9.08s-7.41,4.75-11.46,7.13-6.15,2.09-9.79,3.07,0-3.07,0-3.07c12.83-9.13,31.67-27.05,35.95-31.15.53.81,8.83,13.45,10.28,19.4,1.49,6.15,11.93,22.56,17.33,28.15s5.41,2.8,9.13,7.27,12.49,10.06,12.49,10.06c1.68,2.24,16.78,22,16.78,22C451.06,281.39,445.28,264.86,445.28,264.86Z"/><path class="cls-1" d="M141.07,310a7.28,7.28,0,0,0,.49,1.32Z"/></g></g></svg>