<svg xmlns="http://www.w3.org/2000/svg" viewBox="0 0 631.06 444.78"><defs><style>.cls-1,.cls-2{fill:none;stroke:#fff;stroke-miterlimit:10;}.cls-2{stroke-width:2px;}</style></defs><title>swordfish-line (2)</title><g id="圖層_2" data-name="圖層 2"><g id="swordfish-line"><path class="cls-1" d="M161.74,290.21s6.64,17.18,24.59,37.86S248,378.43,295.24,386.62s99.92-9.36,125.68-25,46.85-28.88,67.14-43.32,51.43-44.7,51.43-44.7l-2.5-3.7c-2.61-3.52,4.16-18.22,0-17.7s-8.85,10.93-8.85,10.93-25.5,16.65-74.95,41.11-97.84,18.74-140,9.37-63-27.58-81.46-44.24-43.44-63-46.57-69.74-18.73-14.57-25.5-15.09-41.37-21.07-41.37-21.07,3.12,8.06,4.94,12,3.64,12.49,6.25,14.83S132.6,201,132.6,201c-1-3.38-9.11-15.35-17.7-23.42s-35.39-31.49-44-35.65S58.7,139,58.7,139c10.4,4.42,24.72,26.28,34.08,36.43s19.78,27.06,19.78,27.06l11.71,17.69s14.31,10.93,18.22,16.13,19,18.48,23.42,23.69l4.42,5.2s3.9.26,6.25,1.82,6.76,6.77,5.72,8.33a4.85,4.85,0,0,1-4.94,1.56c-1-.52-13,9.37-13,9.37s2.34,1.82-2.61,3.9Z"/><path class="cls-1" d="M161.74,290.21s-.26,3.12-4.42-2.86-11.71-17.7-17.44-26.28-18.47-33.83-20.55-39.3-6.77-19.25-6.77-19.25,11.19,15.61,11.71,17.69c0,0,14.31,10.93,18.22,16.13s19,18.48,23.42,23.69l4.42,5.2s3.9.26,6.25,1.82,6.76,6.77,5.72,8.33a4.85,4.85,0,0,1-4.94,1.56c-1-.52-13,9.37-13,9.37S166.69,288.13,161.74,290.21Z"/><path class="cls-1" d="M622.08,370.1c.26-4.42-12-39.82-19.26-49.18S583,302.18,583,302.18c-2.6-3.38-14-36.69-17.95-47.36s-1-16.13,1.56-20,10.93-25.24,16.66-38.77,9.62-28.37,8.06-29.93-5.2.26-5.2.26,21.86-48.14,23.68-53.08.26-6.77,1.3-12,.26-5-2.08-3.65-4.43,2.08-13,10.15S560.15,153.34,553.12,169s-13.53,37.74-16.13,50A178.52,178.52,0,0,0,533.68,241c-5.71,6-11,15.08-17.12,18-5.78,2.76-24.16,14.61-48,24.66a1.17,1.17,0,0,1,.05-.11,34.21,34.21,0,0,1,3.88-5c1.95-1.95,21.27-20.88,21.27-20.88s-4.88,3.12-7.61,4.84-13.86,11.36-15.61,10.19-2.15-1.08.19-6.74-2.12-2.64-2.12-2.64-5.1,3.11-13.1,12.28-9.54,16.24-9.54,16.24l.06,0c-3.24,1-6.52,1.88-9.84,2.68a218.3,218.3,0,0,1-38.65-2.21c-21.85-3.12-41.63-12.49-70.25-27.58s-47.89-54.13-53.61-70.26-4.16-67.66-4.16-67.66-8.33,1.56-26,9.37-37,38.11-37,38.12c-.65-1-1.25-1.94-1.74-2.73C198,161,185.16,159.84,176.19,158.28s-19.91,0-19.91,0c-10.15-9.11-36.69-16.92-36.69-16.92L.41.32,118.29,163.49S152.9,184,159.66,184.56s22.38,8.33,25.5,15.09,28.08,53.09,46.57,69.74,39.31,34.87,81.46,44.24,90.56,15.09,140-9.37,74.95-41.11,74.95-41.11,4.68-10.41,8.85-10.93-2.61,14.18,0,17.7l2.6,3.51-1.38,1.33s12.31,18.57,14.39,27.16,16.65,31.49,24.2,39.29,7.55,3.91,12.75,10.15S607,365.42,607,365.42c2.34,3.12,23.42,30.66,23.42,30.66C630.15,393.18,622.08,370.1,622.08,370.1Z"/><path class="cls-1" d="M528.14,263.15s-25.5,16.65-74.95,41.11-97.84,18.74-140,9.37-63-27.58-81.46-44.24-43.44-63-46.57-69.74-18.73-14.57-25.5-15.09c0,0,12.49,44.2,25,61.91s30.71,42.7,68.18,65.08,94.2,31.23,143.12,20.82,76-30.19,88-37.47S528.14,263.15,528.14,263.15Z"/><path class="cls-1" d="M443.34,347.89c-7.11,4.43-14.54,9-22.42,13.75-19,11.55-52.82,24.16-88.22,26.63,0,0,9.12,16.18,14.84,21.9S377.23,431.77,388,438s14.69,6.76,15.73,6,0-.26-4.16-5.72S389.18,419.54,392,412s8.59-21.85,13-27.06,16.14-18.74,22.64-23.68S443.34,347.89,443.34,347.89Z"/><path class="cls-1" d="M457.55,338.89l.64-.41c9.57-6.19,28.68-19.32,29.87-20.16,0,0-5.07,5.66,0,4.29s8-1,13.66-4.29,16-10,16-10-5.86,8-12.49,12.69-21.28,15-22.64,15.61-5.66,3.9-2.15,6.44,3.9,4.79,3.9,4.79a99.5,99.5,0,0,0-10.14-1.08c-3.13,0-10.67-1.06-13.67-4.49s-2.79-3.56-2.79-3.56"/><path class="cls-1" d="M179.76,320c2,2.6,4.18,5.29,6.57,8,0,0,0,8.79,1.76,15.42s9.37,32.79,12.1,39,9.56,24.59,9.56,24.59-11.32-18.93-13.46-23.62-9-24.39-9.37-27.71c0,0,.19,17.37,1,22.25s7.61,52.5,10.14,57c0,0-7-18.94-9-25.77s-10.35-47.42-10.93-50.74-3.32-28.89-2.54-32.4Z"/><path class="cls-2" d="M207.8,188.73c3.13,3.51,3.91,18.73,2.34,28.88s-9.75,19.13-12.49,25.37-6.24,19.13-9,22.64-12.1,1.43-12.1,1.43"/><path class="cls-1" d="M216.65,305.83c0,2,7.55,3.38,10.41,15.87S236.17,363.33,238,367s13.27,25.24,19,32.79,7.55,13,9.11,13.53.78,3.38-2.6,1.3-8.33-7.81-10.41-9.37-19-14.83-26.28-24.2-22.64-43.72-25-51.52-5.47-26.05-5.21-29.94,4.17-7,7.29-7.54,7.81-1.3,9.37,1.56S216.65,302.7,216.65,305.83Z"/><path class="cls-1" d="M155.5,175.52a7.75,7.75,0,1,1-7.74-7.74A7.75,7.75,0,0,1,155.5,175.52Z"/><path class="cls-1" d="M148.78,167.85a2.05,2.05,0,0,0-1-.07,7.74,7.74,0,0,0-7.75,7.74,8.08,8.08,0,0,0,.24,1.92,7.39,7.39,0,0,0,5.23,3.22c3.38.26,8-1.69,7.81-6.44C153.14,170,151,169.08,148.78,167.85Z"/></g></g></svg>