<svg xmlns="http://www.w3.org/2000/svg" viewBox="0 0 427.25 301.08"><defs><style>.cls-1{fill:#d0c6b8;}.cls-2{fill:#c5b9aa;}.cls-3{fill:#1f2331;}.cls-4{fill:#8fb1cb;}.cls-5{fill:#828787;}.cls-6{fill:#1a1a1a;}.cls-7{fill:#f2f2f2;}.cls-8{fill:#040000;}</style></defs><title>swordfish</title><g id="圖層_2" data-name="圖層 2"><g id="swordfish"><path class="cls-1" d="M109.42,196.6s4.5,11.64,16.67,25.67S167.92,256.42,200,262s67.77-6.35,85.24-16.94,31.76-19.59,45.53-29.38,34.88-30.31,34.88-30.31l-1.7-2.52c-1.77-2.38,2.82-12.35,0-12s-6,7.41-6,7.41-17.3,11.3-50.83,27.89-66.36,12.7-94.94,6.35-42.71-18.71-55.25-30-29.46-42.71-31.58-47.3S112.59,125.3,108,125s-28.06-14.3-28.06-14.3,2.12,5.48,3.36,8.12,2.47,8.47,4.23,10.06,2.12,7.24,2.12,7.24c-.71-2.3-6.18-10.41-12-15.89S53.65,98.83,47.83,96s-8.3-1.94-8.3-1.94c7.06,3,16.77,17.82,23.12,24.7s13.41,18.35,13.41,18.35l7.94,12s9.71,7.42,12.36,10.95,12.88,12.52,15.88,16.05l3,3.53a10.36,10.36,0,0,1,4.23,1.24c1.59,1.06,4.59,4.59,3.89,5.65A3.31,3.31,0,0,1,120,187.6c-.7-.36-8.82,6.35-8.82,6.35s1.59,1.23-1.76,2.65Z"/><path class="cls-2" d="M109.42,196.6s-.18,2.11-3-1.94-8-12-11.83-17.83-12.53-22.94-13.94-26.65-4.59-13.06-4.59-13.06,7.59,10.59,7.94,12c0,0,9.71,7.42,12.36,10.95s12.88,12.52,15.88,16.05l3,3.53a10.36,10.36,0,0,1,4.23,1.24c1.59,1.06,4.59,4.59,3.89,5.65A3.31,3.31,0,0,1,120,187.6c-.7-.36-8.82,6.35-8.82,6.35S112.77,195.18,109.42,196.6Z"/><path class="cls-3" d="M421.61,250.77c.17-3-8.12-27-13.06-33.35s-13.42-12.71-13.42-12.71c-1.76-2.29-9.53-24.88-12.17-32.11S382.25,161.66,384,159s7.41-17.12,11.29-26.29,6.53-19.24,5.47-20.3-3.53.18-3.53.18,14.83-32.65,16.06-36,.18-4.59.88-8.12.18-3.35-1.41-2.47-3,1.41-8.82,6.88-24.36,30.88-29.12,41.47a195.39,195.39,0,0,0-10.94,33.88,120.62,120.62,0,0,0-2.24,15c-3.87,4.07-7.45,10.22-11.62,12.21-3.91,1.86-16.38,9.91-32.57,16.72l0-.08a23.8,23.8,0,0,1,2.63-3.41c1.32-1.32,14.43-14.16,14.43-14.16l-5.16,3.29c-1.86,1.16-9.4,7.7-10.59,6.9s-1.46-.73.13-4.57-1.44-1.79-1.44-1.79-3.46,2.11-8.89,8.33-6.47,11-6.47,11h.05c-2.2.67-4.42,1.28-6.68,1.83A148.44,148.44,0,0,1,269.3,198c-14.82-2.12-28.23-8.47-47.64-18.71s-32.48-36.71-36.36-47.65-2.82-45.88-2.82-45.88-5.65,1.06-17.65,6.35S139.72,118,139.72,118c-.45-.69-.85-1.31-1.19-1.85-4.5-7.14-13.23-7.94-19.32-9a51,51,0,0,0-13.5,0C98.83,101,80.83,95.65,80.83,95.65L0,0,79.94,110.66S103.42,124.59,108,125s15.18,5.64,17.3,10.23,19,36,31.58,47.3,26.66,23.65,55.25,30,61.41,10.24,94.94-6.35,50.83-27.89,50.83-27.89,3.17-7.06,6-7.41-1.77,9.62,0,12l1.76,2.38s-.33.33-.94.91c0,0,8.35,12.59,9.77,18.42s11.29,21.35,16.41,26.65,5.12,2.64,8.65,6.88,11.82,9.53,11.82,9.53c1.59,2.12,15.88,20.8,15.88,20.8C427.08,266.43,421.61,250.77,421.61,250.77Z"/><path class="cls-4" d="M357.9,178.24s-17.3,11.3-50.83,27.89-66.36,12.7-94.94,6.35-42.71-18.71-55.25-30-29.46-42.71-31.58-47.3S112.59,125.3,108,125c0,0,8.48,30,17,42s20.82,29,46.23,44.14,63.89,21.18,97.07,14.12,51.53-20.48,59.65-25.42S357.9,178.24,357.9,178.24Z"/><path class="cls-5" d="M376,146c1.7-5.31,3.45-10.59,5.3-15.85q1.37-3.93,2.83-7.85a80,80,0,0,1,3.21-7.72c2.49-5,5.11-9.89,7.81-14.76,1.35-2.44,2.73-4.86,4.16-7.24.72-1.2,1.45-2.38,2.22-3.54a19.52,19.52,0,0,1,2.54-3.31,19.34,19.34,0,0,0-2.49,3.34c-.75,1.17-1.46,2.37-2.16,3.57-1.42,2.39-2.78,4.82-4.12,7.26-2.67,4.88-5.27,9.8-7.74,14.79-1.25,2.48-2.24,5.08-3.24,7.68s-1.94,5.22-2.87,7.84Q378.66,138.13,376,146Z"/><path class="cls-5" d="M380.66,141.89q1.27-2.43,2.64-4.8c.91-1.58,1.82-3.16,2.76-4.72s1.94-3.1,3-4.6a22,22,0,0,1,3.46-4.24,12.43,12.43,0,0,0-1.76,2.08c-.55.74-1.06,1.49-1.56,2.25-1,1.52-2,3.08-2.9,4.64C384.34,135.59,382.54,138.76,380.66,141.89Z"/><path class="cls-5" d="M374.84,185.12c1.16,3,2.39,6,3.66,8.92s2.62,5.87,4.06,8.74,2.91,5.74,4.59,8.47c.81,1.39,1.72,2.71,2.65,4l1.45,1.93,1.59,1.81a41.06,41.06,0,0,1-5.83-7.67c-1.71-2.73-3.24-5.57-4.67-8.45s-2.74-5.82-4-8.78S375.91,188.16,374.84,185.12Z"/><path class="cls-5" d="M386.84,200.12c3.8,5.87,7.56,11.76,11.45,17.56,1.93,2.92,3.86,5.83,5.86,8.69,1,1.43,2,2.86,3.07,4.25a47.62,47.62,0,0,0,3.27,4.09,77.91,77.91,0,0,1-6.47-8.24c-2-2.85-4-5.75-5.94-8.65C394.26,212,390.46,206.1,386.84,200.12Z"/><path class="cls-3" d="M300.39,235.71c-4.82,3-9.86,6.09-15.2,9.33-12.92,7.83-35.83,16.38-59.83,18.06,0,0,6.18,11,10.06,14.85s20.14,14.65,27.45,18.89,10,4.58,10.67,4.05,0-.17-2.82-3.88-7.06-12.71-5.12-17.82,5.82-14.83,8.82-18.36,10.94-12.7,15.36-16.06S300.39,235.71,300.39,235.71Z"/><path class="cls-3" d="M310,229.61l.44-.28c6.49-4.2,19.45-13.1,20.26-13.67,0,0-3.44,3.83,0,2.91s5.43-.66,9.26-2.91,10.86-6.75,10.86-6.75a44.4,44.4,0,0,1-8.47,8.6c-4.5,3.18-14.43,10.19-15.36,10.59s-3.84,2.64-1.45,4.37,2.64,3.24,2.64,3.24a67.65,67.65,0,0,0-6.88-.73c-2.12,0-7.23-.72-9.26-3s-1.9-2.42-1.9-2.42"/><path class="cls-3" d="M121.63,216.82c1.36,1.76,2.84,3.59,4.46,5.45a49.09,49.09,0,0,0,1.19,10.46c1.2,4.5,6.36,22.24,8.21,26.47S142,275.88,142,275.88s-7.68-12.84-9.14-16-6.09-16.54-6.35-18.79c0,0,.13,11.78.66,15.09s5.16,35.6,6.88,38.65c0,0-4.76-12.84-6.08-17.48s-7-32.16-7.42-34.41-2.25-19.59-1.72-22Z"/><path class="cls-6" d="M140.65,127.77a9,9,0,0,1,1.69,3.67,30.44,30.44,0,0,1,.75,4,50.14,50.14,0,0,1,.33,8.13,35.45,35.45,0,0,1-.35,4.09,21,21,0,0,1-1.07,4.07,41.87,41.87,0,0,1-3.8,7.28,43.76,43.76,0,0,0-3.93,6.81c-1,2.43-1.87,5-2.85,7.49-.49,1.26-1,2.52-1.55,3.76-.28.62-.58,1.24-.92,1.85a6,6,0,0,1-1.34,1.76,6.68,6.68,0,0,1-4.14.89,18.61,18.61,0,0,1-4-.69,22.36,22.36,0,0,0,4,.13,6.1,6.1,0,0,0,3.52-1.09,5.47,5.47,0,0,0,.94-1.53c.26-.59.51-1.2.73-1.82.45-1.24.88-2.5,1.28-3.78.81-2.55,1.61-5.1,2.57-7.67a18,18,0,0,1,.85-1.93c.32-.62.66-1.22,1-1.81.71-1.17,1.43-2.3,2.14-3.43a42.84,42.84,0,0,0,3.73-6.91,19.14,19.14,0,0,0,1.11-3.67c.21-1.28.4-2.59.52-3.9a66,66,0,0,0,.25-8,35.21,35.21,0,0,0-.32-4A9.35,9.35,0,0,0,140.65,127.77Z"/><path class="cls-6" d="M119.47,123.8a47.6,47.6,0,0,1-.62,6.94,39.14,39.14,0,0,1-1.68,6.83c-.2.56-.45,1.11-.67,1.67s-.53,1.08-.84,1.61a11.26,11.26,0,0,1-1.09,1.53c-.21.23-.43.5-.63.7l-.6.61a56.82,56.82,0,0,1-5.11,4.87,9.66,9.66,0,0,1-3.43,1.69,8.2,8.2,0,0,1-3.88,0c-.31-.06-.6-.18-.9-.26a4.69,4.69,0,0,1-.89-.35c-.29-.15-.6-.27-.87-.44l-.79-.54A11.92,11.92,0,0,1,94.93,146a32.48,32.48,0,0,1-3.36-6.2l-1.36-3.19a10.73,10.73,0,0,0-1.71-3,9.75,9.75,0,0,1,2.2,2.71c.62,1,1.17,2,1.75,3A39.21,39.21,0,0,0,96.16,145a12.5,12.5,0,0,0,2.34,2.21l.65.41c.22.13.46.2.69.31l.34.15.39.1c.25.06.51.15.76.19a6.42,6.42,0,0,0,3,0A7.68,7.68,0,0,0,107,147a60.17,60.17,0,0,0,5-4.61l.64-.6c.21-.2.36-.38.54-.57a8.88,8.88,0,0,0,1-1.25c.29-.45.55-.94.82-1.41s.5-1,.72-1.51A70.7,70.7,0,0,0,119.47,123.8Z"/><path class="cls-3" d="M146.65,207.19c0,1.37,5.12,2.29,7.06,10.76s6.18,28.24,7.41,30.71,9,17.12,12.89,22.23,5.11,8.83,6.17,9.18.53,2.29-1.76.88-5.65-5.29-7.06-6.35-12.88-10.06-17.82-16.41-15.36-29.65-16.95-34.95-3.7-17.66-3.53-20.3,2.83-4.76,4.95-5.11,5.29-.88,6.35,1.06A23.3,23.3,0,0,1,146.65,207.19Z"/><path class="cls-5" d="M142,212.21c1,4.59,2,9.18,3.08,13.74.52,2.28,1.07,4.56,1.67,6.83.31,1.13.62,2.26,1,3.38a30.2,30.2,0,0,0,1.16,3.31,44.25,44.25,0,0,1-2.29-6.65c-.63-2.26-1.2-4.54-1.76-6.82C143.79,221.42,142.78,216.84,142,212.21Z"/><path class="cls-5" d="M145.42,216.82c1.83,6.3,3.68,12.59,5.77,18.81,1,3.11,2.09,6.21,3.26,9.27.61,1.53,1.22,3,1.9,4.54a33.19,33.19,0,0,0,2.3,4.33A46,46,0,0,1,154.3,245c-1.2-3.05-2.3-6.14-3.35-9.25C149,229.46,147,223.18,145.42,216.82Z"/><path class="cls-5" d="M233.66,263.4c1.35,2.34,2.85,4.59,4.42,6.79a74.91,74.91,0,0,0,5.1,6.29,56.08,56.08,0,0,0,5.85,5.58,37.69,37.69,0,0,0,6.86,4.28,32.68,32.68,0,0,1-7-4.15,55.67,55.67,0,0,1-5.94-5.55,73.76,73.76,0,0,1-5.05-6.36A61.7,61.7,0,0,1,233.66,263.4Z"/><path class="cls-5" d="M238.77,263.4c1,1.84,2.18,3.62,3.37,5.36a54.93,54.93,0,0,0,3.88,5,37.66,37.66,0,0,0,4.5,4.43,24,24,0,0,0,5.37,3.29,21,21,0,0,1-5.48-3.16,37.18,37.18,0,0,1-4.57-4.39,52.19,52.19,0,0,1-3.84-5.06A49.74,49.74,0,0,1,238.77,263.4Z"/><path class="cls-5" d="M245.83,262.6c.61.8,1.23,1.59,1.85,2.38s1.25,1.56,1.91,2.32,1.32,1.5,2,2.2a12.39,12.39,0,0,0,2.33,1.88,10.07,10.07,0,0,1-2.46-1.74,26.9,26.9,0,0,1-2.09-2.18A41.28,41.28,0,0,1,245.83,262.6Z"/><path class="cls-5" d="M255.89,260c.35.4.7.78,1.05,1.16s.71.76,1.08,1.12a12.56,12.56,0,0,0,1.16,1,6.29,6.29,0,0,0,1.3.84,6.34,6.34,0,0,1-2.63-1.69A13.24,13.24,0,0,1,255.89,260Z"/><path class="cls-5" d="M260.48,258l2,1.69c.32.29.66.55,1,.81a4.74,4.74,0,0,0,1.09.68,5.48,5.48,0,0,1-2.25-1.3A12.87,12.87,0,0,1,260.48,258Z"/><path class="cls-5" d="M142.77,122.31a77,77,0,0,1,5.6-6.12c2-1.94,4-3.81,6.17-5.55a60.12,60.12,0,0,1,6.83-4.72,33.78,33.78,0,0,1,7.61-3.3,38.42,38.42,0,0,0-7.52,3.44,60.1,60.1,0,0,0-6.76,4.77c-2.17,1.71-4.22,3.57-6.21,5.48S144.59,120.23,142.77,122.31Z"/><path class="cls-5" d="M146.08,127.59a45.47,45.47,0,0,1,3.18-3.9c1.14-1.24,2.3-2.44,3.55-3.57a25.46,25.46,0,0,1,8.49-5.32,24.3,24.3,0,0,0-4.41,2.37A38,38,0,0,0,153,120.3a49.55,49.55,0,0,0-3.59,3.51C148.25,125,147.14,126.29,146.08,127.59Z"/><path class="cls-5" d="M148.86,131.69a66.77,66.77,0,0,1,12.34-11,55.77,55.77,0,0,1,7.17-4.17,43.16,43.16,0,0,1,7.75-2.93c-1.3.47-2.64.82-3.9,1.39-.63.27-1.28.51-1.91.79l-1.87.89a56.52,56.52,0,0,0-7.09,4.24,71.29,71.29,0,0,0-6.55,5A75.22,75.22,0,0,0,148.86,131.69Z"/><path class="cls-5" d="M153.69,136.65a44.88,44.88,0,0,1,3.2-3.7c1.13-1.18,2.31-2.31,3.55-3.37a31.13,31.13,0,0,1,4-2.84A14,14,0,0,1,169,125a16,16,0,0,0-4.45,1.94,29.14,29.14,0,0,0-3.93,2.88,46.61,46.61,0,0,0-3.59,3.3C155.87,134.23,154.75,135.42,153.69,136.65Z"/><path class="cls-5" d="M155.87,139.42a44,44,0,0,1,4.15-4.59,42,42,0,0,1,4.71-4,28.34,28.34,0,0,1,5.38-3.07,15.55,15.55,0,0,1,6-1.29,17,17,0,0,0-6,1.45,27,27,0,0,0-5.29,3.12,42.52,42.52,0,0,0-4.75,3.93C158.65,136.37,157.21,137.85,155.87,139.42Z"/><path class="cls-5" d="M159.07,146.2a34.48,34.48,0,0,1,3.08-3.94,39.54,39.54,0,0,1,3.56-3.53,26.57,26.57,0,0,1,4.12-2.86,14.65,14.65,0,0,1,4.71-1.67,17.29,17.29,0,0,0-4.63,1.81,26.88,26.88,0,0,0-4,2.91,39.06,39.06,0,0,0-3.6,3.45C161.16,143.6,160.07,144.87,159.07,146.2Z"/><path class="cls-5" d="M166,154.56a29,29,0,0,1,4.65-5.67,16.71,16.71,0,0,1,2.92-2.23,8.69,8.69,0,0,1,3.44-1.24,9.57,9.57,0,0,0-3.34,1.4,18.2,18.2,0,0,0-2.85,2.25,31.55,31.55,0,0,0-2.53,2.64C167.49,152.63,166.72,153.57,166,154.56Z"/><path class="cls-5" d="M169,157.91a25.83,25.83,0,0,1,3.54-4.14,22.06,22.06,0,0,1,2.11-1.73,12.92,12.92,0,0,1,2.38-1.33,21.08,21.08,0,0,0-4.32,3.25c-.66.61-1.29,1.26-1.91,1.92S169.56,157.21,169,157.91Z"/><path class="cls-5" d="M171.94,161.06a31.37,31.37,0,0,1,3-3.35,39.37,39.37,0,0,1,3.33-3,27.24,27.24,0,0,1,3.76-2.45,15.78,15.78,0,0,1,4.19-1.55,19.65,19.65,0,0,0-4.11,1.69,29.88,29.88,0,0,0-3.69,2.5,40.62,40.62,0,0,0-3.36,2.92C174,158.87,172.92,159.94,171.94,161.06Z"/><path class="cls-5" d="M184.14,172.37a27.75,27.75,0,0,1,4.58-5.62,23.78,23.78,0,0,1,2.86-2.25,15.87,15.87,0,0,1,3.25-1.61,21.3,21.3,0,0,0-5.93,4.05,30.81,30.81,0,0,0-2.51,2.6C185.6,170.45,184.84,171.38,184.14,172.37Z"/><path class="cls-5" d="M186.18,174a22.41,22.41,0,0,1,3.35-4.41,21.33,21.33,0,0,1,2-1.88,18.57,18.57,0,0,1,2.29-1.57,27.6,27.6,0,0,0-2.16,1.72,25.52,25.52,0,0,0-2,1.9c-.65.66-1.25,1.35-1.84,2S186.71,173.26,186.18,174Z"/><path class="cls-7" d="M105.18,118.81a5.25,5.25,0,1,1-5.25-5.25A5.25,5.25,0,0,1,105.18,118.81Z"/><path class="cls-8" d="M100.62,113.61a1.44,1.44,0,0,0-.69,0,5.25,5.25,0,0,0-5.25,5.25,5.59,5.59,0,0,0,.16,1.31,5,5,0,0,0,3.55,2.18c2.29.18,5.4-1.15,5.29-4.37C103.58,115,102.16,114.45,100.62,113.61Z"/></g></g></svg>