<svg xmlns="http://www.w3.org/2000/svg" viewBox="0 0 250 146"><defs><style>.cls-1{fill:#c1bd31;opacity:0.8;}.cls-2{fill:#fff;}</style></defs><title>food_detail</title><g id="圖層_2" data-name="圖層 2"><g id="food_detail"><path class="cls-1" d="M215,0H35A35.1,35.1,0,0,0,0,35V88a35.1,35.1,0,0,0,35,35h72.39A95,95,0,0,0,125,146a95,95,0,0,0,17.61-23H215a35.1,35.1,0,0,0,35-35V35A35.1,35.1,0,0,0,215,0Z"/><path class="cls-2" d="M95.38,81.06c0,.09-.11.14-.27.14a13.51,13.51,0,0,1-2.17,5.11,5.59,5.59,0,0,0-.75-.43,11.56,11.56,0,0,0,2.08-5ZM97.47,78l1.11.07c0,.09-.09.15-.25.16v9.57c0,.63-.17.88-.58,1a9,9,0,0,1-2.3.16,3.63,3.63,0,0,0-.35-.85l1.44,0c.84,0,.93,0,.93-.33Zm5.28,8.53a20,20,0,0,0-2.35-5.45l.77-.3a19.6,19.6,0,0,1,2.43,5.39Z"/><path class="cls-2" d="M109.5,81.6h-1.67a4,4,0,0,1-1.71,2.83,3,3,0,0,0-.55-.57,3.34,3.34,0,0,0,1.51-2.26h-1.33v-.74h1.4V79H106v-.72h5.37V79h-1.12v1.83h1.3v.74h-1.3v2.65h-.77Zm2.09,6.21h5.13v.76h-11v-.76h5.07V86.13H107v-.74h3.79V83.85l1,.07c0,.09-.07.15-.22.17v1.3h3.83v.74h-3.83ZM107.89,79v1.83h1.61V79Zm5.46-.55c0,.08-.07.13-.24.15v4h-.76V78.4Zm3-.58c0,.08-.08.15-.23.17v5.36c0,.86-.49.91-2.14.91a2.61,2.61,0,0,0-.26-.72h.75c.87,0,.87,0,.87-.2V77.84Z"/><path class="cls-2" d="M119.81,78.62h9v7.17H128v-.62h-3.31V89h-.83V85.17H120.6v.67h-.79Zm4,.78H120.6v2.12h3.25Zm-3.25,5h3.25v-2.1H120.6ZM128,81.52V79.4h-3.31v2.12Zm-3.31,2.87H128v-2.1h-3.31Z"/><path class="cls-2" d="M136.34,87l1.13-.36.1.64-2.21.78a.23.23,0,0,1-.13.18l-.37-.82.75-.2v-2h-1.83V86a3.29,3.29,0,0,1-1.29,2.83,3,3,0,0,0-.55-.52A2.6,2.6,0,0,0,133,86V84.55h3.3Zm-2-6.63v-.94H132V78.8h2.3v-1l1,.06c0,.08-.07.14-.23.16v.77h2.23v.62h-2.23v.94H137V81h-4.55v-.61Zm-2.28,1.38h5.24v1.74h-.7V82.36h-3.87v1.12h-.67Zm4.22,2h-3.18v-.61h3.18Zm5.88-.58.48.21s0,.08-.09.12a7.76,7.76,0,0,1-1.87,3.39,6.75,6.75,0,0,0,2.56,1.42,3.19,3.19,0,0,0-.53.68,7.32,7.32,0,0,1-2.59-1.57A8.36,8.36,0,0,1,137.35,89a2.77,2.77,0,0,0-.43-.66,7.57,7.57,0,0,0,2.66-1.44,8.33,8.33,0,0,1-1.52-2.69l.71-.19a6.94,6.94,0,0,0,1.37,2.36,6.89,6.89,0,0,0,1.48-2.42h-3.93v-.73H142Zm-3.12-4v.94a3.4,3.4,0,0,1-1.2,2.86,3,3,0,0,0-.54-.53,2.69,2.69,0,0,0,1-2.34V78.4h3.46v3c0,.47,0,.47.22.47.52,0,.57,0,.6-.31,0-.16,0-.54,0-1a1.79,1.79,0,0,0,.6.31c-.06,1.23-.09,1.65-.91,1.65h-.5c-.8,0-.8-.54-.8-1.18V79.14Z"/><path class="cls-2" d="M147.56,83.31v-1.9a7,7,0,0,1-1.9,1.89,3.5,3.5,0,0,0-.48-.54,6.46,6.46,0,0,0,2.11-2h-1.93v-.68h2.2V77.82l.95.06c0,.07-.07.13-.23.15v2h2.19v.68h-2.19v.16c.5.29,1.91,1.22,2.25,1.48l-.45.59c-.33-.3-1.19-1-1.8-1.39v1.71Zm.7,2.09a5.77,5.77,0,0,1-.08.58c.74.52,1.64,1.22,2.13,1.65l-.54.55a17.16,17.16,0,0,0-1.82-1.5,4.36,4.36,0,0,1-2.32,2,3,3,0,0,0-.44-.61c1.76-.79,2.22-1.79,2.33-2.72h-2.17v-.72h2.19V83.57l1,.06c0,.09-.07.15-.23.17v.88h2.23v.72Zm-2-7.21a4.92,4.92,0,0,1,.73,1.39l-.61.26a5.63,5.63,0,0,0-.71-1.44Zm2.67,1.44a9.26,9.26,0,0,0,.72-1.49l.83.31c0,.08-.12.1-.24.1a10.51,10.51,0,0,1-.77,1.32Zm4,7.7a.3.3,0,0,1-.22.09A7.42,7.42,0,0,1,150.25,89a3.07,3.07,0,0,0-.54-.54,7.1,7.1,0,0,0,2.39-1.5Zm-1.91-7h1.63c.11-.39.22-.84.3-1.24h-2.35v-.72h5.82v.72h-2.64c-.09.36-.22.83-.36,1.24h2.57v6.31h-5Zm4.2,1.89V81h-3.46v1.25Zm0,1.87V82.87h-3.46v1.24Zm0,1.9V84.74h-3.46V86Zm-.67,1a14.67,14.67,0,0,1,2.1,1.55A6.55,6.55,0,0,0,156,89a14,14,0,0,0-2.06-1.58Z"/><path class="cls-2" d="M104.62,34.34c1.13-1.87,5.79-2.55,9.77-1,2.23.87,5,7.25,3.79,8.77s-4,0-7.39,0-5.44-2.77-5.12-3,4.39-.08,4.39-.7S103.48,36.21,104.62,34.34Z"/><path class="cls-2" d="M103,43.06a1,1,0,1,1-1,1A1,1,0,0,1,103,43.06Z"/><path class="cls-2" d="M91.77,43.06a1,1,0,1,1-1,1A1,1,0,0,1,91.77,43.06Z"/><path class="cls-2" d="M79.7,33.63c4-1.54,8.63-.86,9.77,1S84,38.07,84,38.69s4.06.47,4.39.7-1.71,3-5.12,3-6.18,1.52-7.4,0S77.47,34.49,79.7,33.63Z"/><path class="cls-2" d="M74.9,45.85c.66-2.45,4.52-1.2,5.09-.73a32,32,0,0,1,3.33,4.15c.21.49.83,2,0,2.08s-4.75-.33-6-1.25S74.57,47.1,74.9,45.85Z"/><path class="cls-2" d="M80.67,56.86c-.33.13-1,.31-.87-.2s1.44-2.7,2.32-2.88,2.68.37,2.5,1.19c-.12.51-1.61-.14-2.09-.22S81,56.72,80.67,56.86Z"/><path class="cls-2" d="M82.51,62.48c-1,.14-1.43-2-1.14-3s3-2.3,3.61-2.43.33.66.14,1-2.7,1.41-2.65,2S83.12,62.39,82.51,62.48Z"/><path class="cls-2" d="M87.3,66.32c-.73.66-2.31-.88-2.63-1.89s1.22-3.57,1.66-4,.64.37.69.78-1.47,2.67-1.11,3.11S87.76,65.91,87.3,66.32Z"/><path class="cls-2" d="M105,61.69c-2.25,1.37-3.63.12-4.75,1s-1,1.62-2.88,1.5-2.5-1.63-3.75-2-4,.62-4.75-.63-4.75-8.75-3.5-12.75c1-3.32,7.38-1.25,8.63-2.12s1.87-2.25,3.5-2.25,2.5,1.62,3.75,2.18,6.75.69,7.87,2.19S107.24,60.31,105,61.69Z"/><path class="cls-2" d="M109.89,64.59c-.31,1-1.9,2.55-2.63,1.9-.46-.41,1-1.59,1.4-2s-1.15-2.69-1.11-3.1.26-1.24.69-.79S110.21,63.59,109.89,64.59Z"/><path class="cls-2" d="M112.05,62.65c-.61-.09,0-1.9,0-2.47s-2.46-1.6-2.65-2-.47-1.17.14-1,3.31,1.42,3.6,2.43S113,62.78,112.05,62.65Z"/><path class="cls-2" d="M113.9,57c-.33-.14-1.39-2.18-1.86-2.1s-2,.72-2.09.21c-.19-.81,1.61-1.36,2.49-1.19s2.16,2.38,2.33,2.88S114.22,57.16,113.9,57Z"/><path class="cls-2" d="M116.77,49.8c-1.25.92-5.17,1.33-6,1.25s-.21-1.59,0-2.08a31.21,31.21,0,0,1,3.33-4.15c.56-.47,4.43-1.72,5.08.73C119.52,46.8,118,48.88,116.77,49.8Z"/><path class="cls-2" d="M143.23,47.56c.83-.83,2.33,1.9,4.67,2.34s5.92.14,6.5.51-1.46,1.16-2,2a25.93,25.93,0,0,0-1.24,3.5c-.22.52-7.38,1.39-8.62,0S142.13,48.65,143.23,47.56Z"/><path class="cls-2" d="M154.38,62c-.83.74-3.82,2.2-5.84.9s-4.31-2.79-4.24-3.76c.13-1.77,1.51-.44,2.62-.59s4.4-1.32,4.91-1.07.15,1.32.57,1.92S155.21,61.23,154.38,62Z"/><path class="cls-2" d="M161.77,66.36a7,7,0,0,1-6.64-2.79c-.3-.57,1.06-1.39,2.06-1.7s3.24-.39,4.51-.75,3.09-1.43,3.67-.19A4.3,4.3,0,0,1,161.77,66.36Z"/><path class="cls-2" d="M159.78,55.39c.18.35.44,1.12-.14,1S156.49,55,156.21,54s.19-3,1.12-2.89c.58.09,0,1.81-.06,2.35S159.6,55,159.78,55.39Z"/><path class="cls-2" d="M163.81,52c.27.28.74,1,.15,1s-3.42-.41-4-1.26-.71-2.95.22-3.08c.58-.09.52,1.73.63,2.26S163.53,51.72,163.81,52Z"/><path class="cls-2" d="M161.8,46c.43-.16.68,1.24.85,1.63s2.18.17,2.44.34.73.6.28.73-2.67.26-3.23-.3S161.11,46.26,161.8,46Z"/><path class="cls-2" d="M172.34,44.24c-3.39,1.09-9.09-1-11,0s-1.64,4-3.94,4.27-12.93.33-13.15-3.83,7.78-8.22,7.78-8.22c6.24-1.64,8.43.55,9.86,2.3a9.56,9.56,0,0,0,4.27,3c1,.28,3.51,2.05,5.42.44s3.23-6.79-2.46-9.2-14.24-3.07-14.68-4.06,13.09,2.47,14.51,3,3.89,1.31,5.32,3.34C175.57,37,175.74,43.14,172.34,44.24Z"/><path class="cls-2" d="M163.29,37.7a1,1,0,1,1,1,1A1,1,0,0,1,163.29,37.7Z"/></g></g></svg>