<svg xmlns="http://www.w3.org/2000/svg" viewBox="0 0 250 146"><defs><style>.cls-1{fill:#c1bd31;opacity:0.8;}.cls-2{fill:#fff;}</style></defs><title>height_detail</title><g id="圖層_2" data-name="圖層 2"><g id="height_detail"><path class="cls-1" d="M215,0H35A35.1,35.1,0,0,0,0,35V88a35.1,35.1,0,0,0,35,35h72.39A95,95,0,0,0,125,146a95,95,0,0,0,17.61-23H215a35.1,35.1,0,0,0,35-35V35A35.1,35.1,0,0,0,215,0Z"/><path class="cls-2" d="M122.94,102.93h-4v-.46l.66-.69c1.6-1.63,2.41-2.61,2.41-3.71a1.22,1.22,0,0,0-1.29-1.38,2.28,2.28,0,0,0-1.35.56l-.25-.52a2.64,2.64,0,0,1,1.75-.66,1.8,1.8,0,0,1,1.9,1.91c0,1.27-.9,2.35-2.29,3.76l-.53.56v0h3Z"/><path class="cls-2" d="M124.85,99.58c0-2.36.91-3.5,2.17-3.5s2.07,1.2,2.07,3.41-.82,3.55-2.16,3.55S124.85,101.83,124.85,99.58Zm3.48-.06c0-1.68-.41-2.84-1.35-2.84s-1.37,1.07-1.37,2.84.5,2.9,1.34,2.9C128,102.42,128.33,101.13,128.33,99.52Z"/><line class="cls-2" x1="84.5" y1="85" x2="84.5" y2="97"/><path class="cls-2" d="M83.75,85V97a.75.75,0,0,0,1.5,0V85a.75.75,0,0,0-1.5,0Z"/><line class="cls-2" x1="167.5" y1="85" x2="167.5" y2="97"/><path class="cls-2" d="M166.75,85V97a.75.75,0,0,0,1.5,0V85a.75.75,0,0,0-1.5,0Z"/><line class="cls-2" x1="53" y1="91" x2="199" y2="91"/><path class="cls-2" d="M53,91.75H199a.75.75,0,0,0,0-1.5H53a.75.75,0,0,0,0,1.5Z"/><path class="cls-2" d="M217.46,93.15a3.86,3.86,0,0,1-1.63.34A2.79,2.79,0,0,1,213,90.43a3,3,0,0,1,3.07-3.2,3.31,3.31,0,0,1,1.44.32l-.23.73A2.46,2.46,0,0,0,216,88a2.15,2.15,0,0,0-2.11,2.4A2.11,2.11,0,0,0,216,92.74a3,3,0,0,0,1.29-.3Z"/><path class="cls-2" d="M228.14,93.37h-.9V89.9c0-1.17-.42-1.91-1.32-1.91a1.52,1.52,0,0,0-1.41,1.6v3.78h-.9v-3.7c0-1-.41-1.68-1.26-1.68a1.63,1.63,0,0,0-1.47,1.7v3.68H220V88.91c0-.61,0-1,0-1.55h.81l0,1h0a2,2,0,0,1,1.82-1.1,1.71,1.71,0,0,1,1.64,1.2h0a2.1,2.1,0,0,1,1.93-1.2c.73,0,1.9.47,1.9,2.53Z"/><circle class="cls-2" cx="31" cy="91" r="2"/><path class="cls-2" d="M106,28.93a9.34,9.34,0,0,1-4.16,3.36C99,33.48,98,33.54,96.92,34.13s-.24.77,1.66.42a37.55,37.55,0,0,0,6.06-1.73C105.89,32.29,106,28.93,106,28.93Z"/><path class="cls-2" d="M99.26,44.32a88.44,88.44,0,0,1,6.33-14.7c2.59-4.37,6.6-8.83,10.52-10.16s10.07-3.75,16.22-1.07,7.31,6.23,8.29,10.07-2.68,11.76-3.92,13.72-2.14,2.94-2,6.51,1.79,7.49,1.16,11.14-2,7.4-1.6,9-.89,2.32-2.59,3.21-4.54,3.65-6.15,4-2-1-4.18-.53-3.12-.36-3.21-1.07.56-.63.56-.63.18-.89.72-.89.22-1.19.58-1.66a2.49,2.49,0,0,1,1.08-.71A8.08,8.08,0,0,1,120,67c-.85,2-4.09,2.94-5,2.79-.35,0-.48-1.07-.48-1.07s-1.54,1.43-1.54,2-.18,1.31-.48,1.31.06,1.9.06,2.44a7.73,7.73,0,0,1-1,2.79c-.3.24-.53-1.37-.59-2.38s-1.61.3-1.73-.65-.65-.65-1-1.07-.06-.3-1.07-.77-.65-2.56-.65-2.56-2.49.3-3-.3a1,1,0,0,0,.24,1c.41.35.59,1.24-.06,1.18s-2.86.36-3.15-.06-.36-.17-.83-.71-.3.24-1.67-.77-.65-1.61-1.6-2.32-1.84-2.73-1.67-5.11-.4-4,0-6.36S98.83,45.57,99.26,44.32Z"/><path class="cls-2" d="M99.26,44.32a88.44,88.44,0,0,1,6.33-14.7c2.59-4.37,6.6-8.83,10.52-10.16s10.07-3.75,16.22-1.07,7.31,6.23,8.29,10.07-2.68,11.76-3.92,13.72-2.14,2.94-2,6.51,1.79,7.49,1.16,11.14-2,7.4-1.6,9-.89,2.32-2.59,3.21-4.54,3.65-6.15,4-2-1-4.18-.53-3.12-.36-3.21-1.07.56-.63.56-.63.18-.89.72-.89.22-1.19.58-1.66a2.49,2.49,0,0,1,1.08-.71A8.08,8.08,0,0,1,120,67c-.85,2-4.09,2.94-5,2.79-.35,0-.48-1.07-.48-1.07s-1.54,1.43-1.54,2-.18,1.31-.48,1.31.06,1.9.06,2.44a7.73,7.73,0,0,1-1,2.79c-.3.24-.53-1.37-.59-2.38s-1.61.3-1.73-.65-.65-.65-1-1.07-.06-.3-1.07-.77-.65-2.56-.65-2.56-2.49.3-3-.3a1,1,0,0,0,.24,1c.41.35.59,1.24-.06,1.18s-2.86.36-3.15-.06-.36-.17-.83-.71-.3.24-1.67-.77-.65-1.61-1.6-2.32-1.84-2.73-1.67-5.11-.4-4,0-6.36S98.83,45.57,99.26,44.32Z"/><path class="cls-2" d="M99.26,44.32a88.44,88.44,0,0,1,6.33-14.7c2.59-4.37,6.6-8.83,10.52-10.16s10.07-3.75,16.22-1.07,7.31,6.23,8.29,10.07-2.68,11.76-3.92,13.72-2.14,2.94-2,6.51,1.79,7.49,1.16,11.14-2,7.4-1.6,9-.89,2.32-2.59,3.21-4.54,3.65-6.15,4-2-1-4.18-.53-3.12-.36-3.21-1.07.56-.63.56-.63.18-.89.72-.89.22-1.19.58-1.66a2.49,2.49,0,0,1,1.08-.71A8.08,8.08,0,0,1,120,67c-.85,2-4.09,2.94-5,2.79-.35,0-.48-1.07-.48-1.07s-1.54,1.43-1.54,2-.18,1.31-.48,1.31.06,1.9.06,2.44a7.73,7.73,0,0,1-1,2.79c-.3.24-.53-1.37-.59-2.38s-1.61.3-1.73-.65-.65-.65-1-1.07-.06-.3-1.07-.77-.65-2.56-.65-2.56-2.49.3-3-.3a1,1,0,0,0,.24,1c.41.35.59,1.24-.06,1.18s-2.86.36-3.15-.06-.36-.17-.83-.71-.3.24-1.67-.77-.65-1.61-1.6-2.32-1.84-2.73-1.67-5.11-.4-4,0-6.36S98.83,45.57,99.26,44.32Z"/><path class="cls-2" d="M99.26,44.14a88.44,88.44,0,0,1,6.33-14.7c2.59-4.37,6.6-8.83,10.52-10.16s10.07-3.75,16.22-1.07,7.31,6.24,8.29,10.07S137.94,40,136.7,42s-2.14,3-2,6.51S120,66.81,120,66.81c-.85,2-4.09,2.94-5,2.79-.35,0-.48-1.07-.48-1.07S98.83,45.39,99.26,44.14Z"/><path class="cls-2" d="M99.26,44.14a88.44,88.44,0,0,1,6.33-14.7c2.59-4.37,6.6-8.83,10.52-10.16s10.07-3.75,16.22-1.07,7.31,6.24,8.29,10.07S137.94,40,136.7,42s-2.14,3-2,6.51S98.83,45.39,99.26,44.14Z"/><path class="cls-2" d="M136.9,27.71a43.3,43.3,0,0,0,4.58,3.57c1.84,1.13,5.17,4.46,7,6.06a53.58,53.58,0,0,0,5.64,4.22c1,.59,1.25,1.84-.77,1.72a22.58,22.58,0,0,1-6.24-1.9c-1.78-.71-4.16-1.25-6.59-2.38a8.34,8.34,0,0,1-4.46-4.63c-.59-1.66-1.07-2-1.6-3.33s-1.13-3.56,0-3.86A2.24,2.24,0,0,1,136.9,27.71Z"/><path class="cls-2" d="M133.82,37.1c0,.89-.48,1.61-1.07,1.61s-1.08-.72-1.08-1.61.49-1.6,1.08-1.6S133.82,36.22,133.82,37.1Z"/></g></g></svg>