<svg xmlns="http://www.w3.org/2000/svg" viewBox="0 0 250 146"><defs><style>.cls-1{fill:#c1bd31;opacity:0.8;}.cls-2{fill:#fff;}</style></defs><title>food_detail</title><g id="圖層_2" data-name="圖層 2"><g id="food_detail"><path class="cls-1" d="M215,0H35A35.1,35.1,0,0,0,0,35V88a35.1,35.1,0,0,0,35,35h72.39A95,95,0,0,0,125,146a95,95,0,0,0,17.61-23H215a35.1,35.1,0,0,0,35-35V35A35.1,35.1,0,0,0,215,0Z"/><path class="cls-2" d="M73.08,86.42A6.16,6.16,0,0,1,71.3,89l-.7-.42a5.54,5.54,0,0,0,1.72-2.36Zm-1-.72V81.44a9,9,0,0,1-.89.68,3.1,3.1,0,0,0-.6-.6,11,11,0,0,0,3.53-3.76l1.06.18c0,.1-.1.17-.27.17l-.31.49h2.89l.13,0,.64.4a.29.29,0,0,1-.16.1A10.82,10.82,0,0,1,77.1,80.6h3.25v5.1Zm3.61-4.41H72.91v1.52h2.83Zm-2.83,2.18V85h2.83V83.47Zm3.2-2.87a7.52,7.52,0,0,0,1-1.32h-2.9A16.27,16.27,0,0,1,73,80.6Zm-1.53,8.22a14.86,14.86,0,0,0-.25-2.31l.76-.06a14,14,0,0,1,.32,2.26Zm5-6V81.29h-3v1.52Zm0,2.19V83.47h-3V85Zm-1.93,3.82a12.12,12.12,0,0,0-.84-2.3l.75-.15a12.24,12.24,0,0,1,.87,2.25ZM81,89a12,12,0,0,0-1.85-2.53l.72-.31a11.53,11.53,0,0,1,1.9,2.47Z"/><path class="cls-2" d="M86.29,83.31V81.42a7.08,7.08,0,0,1-1.91,1.88,2.7,2.7,0,0,0-.48-.54,6.39,6.39,0,0,0,2.12-2H84.08v-.68h2.21V77.82l.95.06c0,.07-.07.13-.23.15v2h2.18v.68H87v.16c.49.29,1.91,1.21,2.24,1.48l-.44.59c-.34-.3-1.19-1-1.8-1.39v1.71ZM87,85.4a5.81,5.81,0,0,1-.09.58c.75.52,1.65,1.22,2.14,1.65l-.54.55a17.4,17.4,0,0,0-1.83-1.5,4.29,4.29,0,0,1-2.31,2,3.39,3.39,0,0,0-.44-.61c1.76-.79,2.22-1.79,2.32-2.72H84.07v-.72h2.2V83.57l1,.06c0,.09-.07.15-.23.17v.88h2.23v.72Zm-2-7.21a4.92,4.92,0,0,1,.73,1.39l-.61.26a5.42,5.42,0,0,0-.71-1.43Zm2.67,1.44a10.19,10.19,0,0,0,.72-1.49l.83.31c0,.08-.12.1-.24.1a11.89,11.89,0,0,1-.77,1.32Zm4,7.7a.26.26,0,0,1-.21.09A7.42,7.42,0,0,1,89,89a3.07,3.07,0,0,0-.54-.54,7,7,0,0,0,2.38-1.5Zm-1.9-7h1.63c.11-.39.21-.84.3-1.24H89.28v-.72h5.81v.72H92.46c-.09.36-.22.83-.36,1.24h2.56v6.31h-5Zm4.19,1.89V81H90.44v1.24Zm0,1.87V82.87H90.44v1.24Zm0,1.9V84.74H90.44V86Zm-.67,1a14.13,14.13,0,0,1,2.1,1.55l-.63.44a14.64,14.64,0,0,0-2.07-1.58Z"/><path class="cls-2" d="M100.21,33.64c-6.08-8.3-11.49.5-11.49.5,5.84,8.7,10.37,2.51,11.55.54,2.35,4.8,3-.55,3-.55C102.6,28.87,100.82,32.28,100.21,33.64Zm-8.6.73a1,1,0,1,1,.74-.94A.86.86,0,0,1,91.61,34.37Z"/><path class="cls-2" d="M97.1,57.27c-9.73-13.26-18.38.79-18.38.79,9.35,13.92,16.58,4,18.47.88,3.76,7.66,4.79-.89,4.79-.89C100.91,49.65,98.07,55.09,97.1,57.27ZM84,58.79a1.85,1.85,0,0,1-1.61-1l-.07-.12s0-.07,0-.11a1,1,0,0,1-.08-.23.29.29,0,0,0,0-.09,2,2,0,0,1,0-.35,1.87,1.87,0,0,1,0-.34.29.29,0,0,0,0-.09.9.9,0,0,1,.08-.23.56.56,0,0,1,0-.12L82.4,56A1.85,1.85,0,1,1,84,58.79Z"/><path class="cls-2" d="M63.77,42.21s.83,6.83,3.84.7c1.51,2.52,7.29,10.44,14.77-.7,0,0-6.92-11.24-14.71-.63C66.9,39.84,64.63,35.48,63.77,42.21Zm13.64-.9a1.27,1.27,0,1,1,1.27,1.27A1.27,1.27,0,0,1,77.41,41.31Z"/><path class="cls-2" d="M148.18,78.62h9v7.17h-.83v-.62h-3.31V89h-.83V85.17H149v.67h-.79Zm4,.78H149v2.12h3.25Zm-3.25,5h3.25v-2.1H149Zm7.39-2.87V79.4h-3.31v2.12Zm-3.31,2.87h3.31v-2.1h-3.31Z"/><path class="cls-2" d="M164.72,87l1.12-.36.1.64-2.21.78a.23.23,0,0,1-.13.18l-.37-.82.75-.2v-2h-1.83V86a3.31,3.31,0,0,1-1.28,2.83,3.09,3.09,0,0,0-.56-.52A2.62,2.62,0,0,0,161.42,86V84.55h3.3Zm-2-6.63v-.94h-2.3V78.8h2.3v-1l1,.06c0,.08-.07.14-.22.16v.77h2.23v.62h-2.23v.94h1.88V81h-4.55v-.61Zm-2.28,1.38h5.24v1.74H165V82.36h-3.88v1.12h-.67Zm4.22,2h-3.17v-.61h3.17Zm5.88-.58.48.21s-.05.08-.08.12A7.88,7.88,0,0,1,169,86.87a6.82,6.82,0,0,0,2.56,1.42,3.19,3.19,0,0,0-.53.68,7.41,7.41,0,0,1-2.59-1.57A8.26,8.26,0,0,1,165.72,89a2.49,2.49,0,0,0-.43-.66A7.57,7.57,0,0,0,168,86.85a8.52,8.52,0,0,1-1.52-2.69l.71-.19a7,7,0,0,0,1.38,2.36A6.87,6.87,0,0,0,170,83.91h-3.93v-.73h4.32Zm-3.12-4v.94a3.4,3.4,0,0,1-1.2,2.86,2.71,2.71,0,0,0-.54-.53,2.69,2.69,0,0,0,1-2.34V78.41h3.47v3c0,.47,0,.47.21.47.52,0,.58,0,.6-.31a9.09,9.09,0,0,0,.05-1,1.89,1.89,0,0,0,.6.31c-.06,1.23-.08,1.65-.91,1.65h-.49c-.81,0-.81-.54-.81-1.19V79.14Z"/><path class="cls-2" d="M175.94,83.31V81.42A7.08,7.08,0,0,1,174,83.3a3,3,0,0,0-.48-.54,6.36,6.36,0,0,0,2.11-2h-1.93v-.68h2.21V77.82l.94.06c0,.07-.07.13-.22.15v2h2.18v.68h-2.18v.16c.49.29,1.9,1.21,2.24,1.48l-.44.59c-.34-.3-1.19-1-1.8-1.39v1.71Zm.69,2.09a5.77,5.77,0,0,1-.08.58c.74.52,1.64,1.22,2.13,1.65l-.54.55a17.16,17.16,0,0,0-1.82-1.5,4.37,4.37,0,0,1-2.31,2,3,3,0,0,0-.45-.61c1.76-.79,2.22-1.79,2.33-2.72h-2.17v-.72h2.19V83.57l1,.06c0,.09-.07.15-.22.17v.88h2.23v.72Zm-2-7.21a4.46,4.46,0,0,1,.73,1.39l-.61.26a5.13,5.13,0,0,0-.71-1.43Zm2.68,1.44a10.19,10.19,0,0,0,.72-1.49l.82.31c0,.08-.12.1-.24.1a11.79,11.79,0,0,1-.76,1.32Zm4,7.7a.3.3,0,0,1-.22.09A7.42,7.42,0,0,1,178.62,89a3.07,3.07,0,0,0-.54-.54,7.1,7.1,0,0,0,2.39-1.5Zm-1.91-7H181c.11-.39.22-.84.3-1.24h-2.35v-.72h5.82v.72H182.1a10.42,10.42,0,0,1-.36,1.24h2.57v6.31h-5Zm4.2,1.89V81h-3.45v1.24Zm0,1.87V82.87h-3.45v1.24Zm0,1.9V84.74h-3.45V86Zm-.67,1a14.13,14.13,0,0,1,2.1,1.55c-.07,0-.15.09-.64.44a14,14,0,0,0-2.06-1.58Z"/><path class="cls-2" d="M151.41,46.87c.84-.84,2.34,1.9,4.68,2.33s5.91.15,6.5.51-1.47,1.17-2,2a25.93,25.93,0,0,0-1.24,3.5c-.22.51-7.37,1.39-8.61,0S150.32,48,151.41,46.87Z"/><path class="cls-2" d="M162.57,61.27c-.83.74-3.82,2.2-5.85.9s-4.31-2.79-4.24-3.76c.13-1.77,1.52-.45,2.63-.59s4.4-1.32,4.9-1.08.15,1.33.58,1.93S163.4,60.53,162.57,61.27Z"/><path class="cls-2" d="M170,65.66a7,7,0,0,1-6.65-2.79c-.3-.56,1.07-1.38,2.06-1.7s3.25-.38,4.52-.74,3.08-1.44,3.66-.19A4.29,4.29,0,0,1,170,65.66Z"/><path class="cls-2" d="M168,54.69c.18.36.43,1.13-.15,1s-3.14-1.38-3.42-2.35.19-3,1.12-2.89c.58.09,0,1.81-.06,2.35S167.79,54.34,168,54.69Z"/><path class="cls-2" d="M172,51.31c.28.28.75.95.15,1s-3.41-.4-3.95-1.25-.71-2.95.22-3.09c.58-.08.52,1.74.62,2.27S171.72,51,172,51.31Z"/><path class="cls-2" d="M170,45.31c.44-.16.69,1.24.86,1.63s2.18.17,2.44.34.72.6.27.73-2.67.25-3.22-.3S169.3,45.57,170,45.31Z"/><path class="cls-2" d="M180.53,43.55c-3.4,1.09-9.09-1-10.95,0s-1.65,4.05-4,4.27-12.92.33-13.14-3.84,7.78-8.21,7.78-8.21c6.24-1.64,8.43.55,9.85,2.3a9.66,9.66,0,0,0,4.28,3c1,.28,3.51,2,5.42.44s3.23-6.8-2.47-9.21-14.24-3.06-14.67-4,13.09,2.47,14.51,3,3.89,1.32,5.31,3.34C183.76,36.35,183.93,42.45,180.53,43.55Z"/><path class="cls-2" d="M171.47,37a1,1,0,1,1,1,1A1,1,0,0,1,171.47,37Z"/></g></g></svg>