<svg xmlns="http://www.w3.org/2000/svg" viewBox="0 0 250 146"><defs><style>.cls-1{fill:#c1bd31;opacity:0.8;}.cls-2{fill:#fff;}</style></defs><title>height_detail</title><g id="圖層_2" data-name="圖層 2"><g id="height_detail"><path class="cls-1" d="M215,0H35A35.1,35.1,0,0,0,0,35V88a35.1,35.1,0,0,0,35,35h72.39A95,95,0,0,0,125,146a95,95,0,0,0,17.61-23H215a35.1,35.1,0,0,0,35-35V35A35.1,35.1,0,0,0,215,0Z"/><path class="cls-2" d="M121.34,99.28A1.73,1.73,0,0,1,122.8,101a2,2,0,0,1-2.28,2,3,3,0,0,1-1.6-.44l.23-.57a2.69,2.69,0,0,0,1.38.4A1.37,1.37,0,0,0,122,101c0-1-.84-1.44-1.72-1.44h-.44V99h.44a1.38,1.38,0,0,0,1.49-1.25,1,1,0,0,0-1.17-1.09,2.2,2.2,0,0,0-1.23.44l-.22-.55a2.81,2.81,0,0,1,1.6-.5,1.59,1.59,0,0,1,1.78,1.59,1.69,1.69,0,0,1-1.22,1.59Z"/><path class="cls-2" d="M128.67,96.18v.63h-2.42l-.28,1.9c.14,0,.29,0,.52,0a2.07,2.07,0,0,1,2.27,2.07,2.24,2.24,0,0,1-2.32,2.29,3,3,0,0,1-1.55-.4l.22-.59a2.39,2.39,0,0,0,1.33.38,1.53,1.53,0,0,0,1.57-1.59c0-.93-.6-1.58-1.86-1.58a4.79,4.79,0,0,0-.86.07l.42-3.15Z"/><line class="cls-2" x1="84.5" y1="85" x2="84.5" y2="97"/><path class="cls-2" d="M83.75,85V97a.75.75,0,0,0,1.5,0V85a.75.75,0,0,0-1.5,0Z"/><line class="cls-2" x1="167.5" y1="85" x2="167.5" y2="97"/><path class="cls-2" d="M166.75,85V97a.75.75,0,0,0,1.5,0V85a.75.75,0,0,0-1.5,0Z"/><line class="cls-2" x1="53" y1="91" x2="199" y2="91"/><path class="cls-2" d="M53,91.75H199a.75.75,0,0,0,0-1.5H53a.75.75,0,0,0,0,1.5Z"/><path class="cls-2" d="M217.46,93.15a3.86,3.86,0,0,1-1.63.34A2.79,2.79,0,0,1,213,90.43a3,3,0,0,1,3.07-3.2,3.31,3.31,0,0,1,1.44.32l-.23.73A2.46,2.46,0,0,0,216,88a2.15,2.15,0,0,0-2.11,2.4A2.11,2.11,0,0,0,216,92.74a2.84,2.84,0,0,0,1.29-.3Z"/><path class="cls-2" d="M228.14,93.37h-.9V89.9c0-1.16-.42-1.91-1.32-1.91a1.52,1.52,0,0,0-1.41,1.6v3.78h-.9v-3.7c0-1-.41-1.68-1.26-1.68a1.63,1.63,0,0,0-1.47,1.7v3.68H220V88.91c0-.61,0-1,0-1.55h.81l0,1h0a2,2,0,0,1,1.82-1.1,1.71,1.71,0,0,1,1.64,1.2h0a2.1,2.1,0,0,1,1.93-1.2c.74,0,1.9.47,1.9,2.53Z"/><circle class="cls-2" cx="31" cy="91" r="2"/><polygon class="cls-2" points="151.53 41.72 151.53 41.71 151.53 41.72 151.53 41.72 151.53 41.72"/><path class="cls-2" d="M164.41,32.45c-3.51-4.5-6.85-6.7-10.36-7.8a26.45,26.45,0,0,0-12.34-.41c-4,.83-8.48,2-10.36,1.41l-.57-.19.57.19.33-.37a19.27,19.27,0,0,1,1.59-1.39,6.17,6.17,0,0,1,1.38-.61s.15-.18,0-.21-.63.14-.46,0a13,13,0,0,1,1.42-.59,2.44,2.44,0,0,1-.37-.11c-.1-.05.17-.37.14-.49s-.26,0-.26,0a.65.65,0,0,1-.46.16c-.2-.05,0-.26.14-.38a8.67,8.67,0,0,1,.89-.4v-.33l0,0s-.07,0-.13,0,.16-.25.16-.25a.22.22,0,0,1-.21-.12l-.07,0-.05,0-.16.07a1,1,0,0,1-.35.1c-.31,0,0-.31.19-.48a10.38,10.38,0,0,1,1.13-.6l0-.17a.92.92,0,0,0-.19.07c-.11,0-.12-.15-.12-.15l.1-.22-.16.1a1.33,1.33,0,0,1-.29.12c-.3.07,0-.34.22-.47s2.51-1.67,2.8-1.83a1.51,1.51,0,0,0,.49-.54c.64-.28,4.25-1.54,5.08-1.81s3.37-1,4.08-1.13a10.45,10.45,0,0,1,1.69-.26c.56-.05.54-.07.54-.07s-.14-.21-1.91,0a60.32,60.32,0,0,0-9.87,3,32.84,32.84,0,0,0-7.05,4.22,29.24,29.24,0,0,0-3.41,3.84.92.92,0,0,0-.18.82,8,8,0,0,1-4.13-.16,14,14,0,0,1-1.62-.63,2.69,2.69,0,0,0-1.1-.89c-.78-.36-2-.83-2-.83s0-.26-1-1.05a8.51,8.51,0,0,0-3-1.72c-.21,0-.52-.12-.86-.22a2.1,2.1,0,0,0-1.79-1,2,2,0,0,0-.91.23l0,0a7.37,7.37,0,0,0-2-.68,8.28,8.28,0,0,0-1.78,0,22.81,22.81,0,0,0-1.57,1.8c-.5.68-1.18,1.89-1.57,2.54a16.88,16.88,0,0,0-1.39,3.27c-.1.63.15.37.24.25s.82-1.25,1.27-1.86c.3-.4,1.18-1.6,1.86-2.49a4.66,4.66,0,0,0,.35,1.21A22,22,0,0,0,105.52,25c-.11.32-.1.56,0,.43s.54-.77.79-1.1.44-.56.75-.92a6.79,6.79,0,0,1,.37,1.77c-.26.36-.53.76-.53.76s-.12.29,0,.29.5-.52.5-.52l.1-.11a4.85,4.85,0,0,1-.15,1.62,9.27,9.27,0,0,0-.55,1.87,1.1,1.1,0,0,0,0,.4c.15,1.17,1,4.22,1.15,5.26a2,2,0,0,0,.47.91l.14.18c.11.13.71.68.72.68l-.72.15a1.15,1.15,0,0,0-.2-.3,4.32,4.32,0,0,1-.52-1,9.94,9.94,0,0,1-.24-1.53c0-.38-.21-.67-.27-1.06s-.15-.57-.16-.51a5.18,5.18,0,0,0,0,1.2,11,11,0,0,1,.07,1.63,3,3,0,0,0,.23,1.09c.11.18.46.62.46.62l-1.29.17h0s-.2-.33-.24-.37-.14-.41-.25-.39-.13.17-.18.39a.62.62,0,0,0,.11.44l.17,0-.62.09.09,0a2.88,2.88,0,0,0-.21-.66c-.1-.17-.32-1.4-.4-1.71s.23-1,.27-1.3-.13,0-.13,0a4.52,4.52,0,0,0-.4,1,5.11,5.11,0,0,0,0,1.61,9.12,9.12,0,0,0,.31,1.16h.1a6.47,6.47,0,0,0-1,.23h0a4.59,4.59,0,0,0-.49-.7c-.11-.07-.2-.86-.27-.91a7.22,7.22,0,0,1-.43-.8,3.61,3.61,0,0,0,.2.8,9.82,9.82,0,0,1,.13,1c0,.16.39.79.39.79l-.6.35s-.67-1.06-.88-1.42a17.43,17.43,0,0,1-.86-1.6,3.13,3.13,0,0,1,0-1.41,4.83,4.83,0,0,0-.14-1,13,13,0,0,1-.17-1.29c0-.2,0-1.1,0-1.1a5,5,0,0,0-.1,2.13,6.48,6.48,0,0,1-.13,1.81,3,3,0,0,0,0,1.42c.11.28.6,1.33.75,1.79a9.86,9.86,0,0,0,.63,1.24l-1.4.73.37-.2s-.7-.85-1-1.3A11.56,11.56,0,0,1,99.42,36a7.79,7.79,0,0,1-.3-1.34c0-.3.3-.94.18-.91s-.39.48-.44.62a4.65,4.65,0,0,0,0,1.57,10.81,10.81,0,0,0,.92,2.27c.21.33.74,1.08.74,1.08l.25-.14a4,4,0,0,0-.57.35c-.47.37-.63,1.36,0,.94A17.15,17.15,0,0,1,105,38.52c1.62-.27,5.13-1.21,7-1.05a30.59,30.59,0,0,0,4.36-.19l-.07,0h.21a8,8,0,0,1,.84,0,7,7,0,0,1,1.29.18l.47.12.38.09.16,0,.37,0,.17,0a5.53,5.53,0,0,0,.61,0c.52,0,1.56,0,2.83.07h.53l1.63,0h.25a6,6,0,0,0,1.11.52A11.86,11.86,0,0,1,129.47,40a1.54,1.54,0,0,0,.42.28l.15,0h0l.08,0,.15,0,.12,0,.19.06.13,0,.21.08.12,0-.12,0,.14,0h0l.21.09.1,0-.09,0,.14,0,0,0,0,0,.2.09,0,0,0,0,.13.06-.08,0,.08,0,.19.1h0l.09.05-.07-.05.07.05a1,1,0,0,1,.21.13l.11.08,0,0,.11.06h0v0a3.2,3.2,0,0,0,1.34.36.42.42,0,0,0,.2,0h0a.5.5,0,0,0,.19-.17l.18-.2.16-.18.23-.21.09-.08.16-.14,0,0,0,0,.1-.07-.07.05.07-.05.15-.1.08-.05a.52.52,0,0,1,.19-.06c.23,0,.91-.23,1.07-.23h.06l.06,0h0l0,0v0l0,0h0l0,0s0,0,0,0l0,0a1,1,0,0,0,.15-.49h0a.34.34,0,0,0,0-.1s0-.08,0-.12v-.06h0c0-.08,0-.16,0-.26,0-.6,0-.84-.19-1.15a4.48,4.48,0,0,0-.82-.79c3-.44,6-.89,7.81-1a15.86,15.86,0,0,1,5.72.56,10.62,10.62,0,0,0-.77,2.47,23,23,0,0,0,.17,7.17,26.4,26.4,0,0,0,3.14,7.09,32.79,32.79,0,0,1-11.61,4.41c-5.44.74-10.78,1.26-15.53.32-2.23-.44-5.37-1.1-8.47-1.65l.58.11a6,6,0,0,0-.54-.62,8.75,8.75,0,0,0-2.44-1.12,42.06,42.06,0,0,0-6-.94c-1.1,0-3.09.1-3.4.17s-1,.25,0,.56c.6.19,1.7.56,2.58.89l.17,0c-3.82.27-6.48.63-9.41,2.41a10.78,10.78,0,0,0-1.5,1.1h0a21,21,0,0,0-4.24,1.82,32.58,32.58,0,0,0-6.53,6.28,29.74,29.74,0,0,0-3.51,6.75c-.52,1.78-.26,3.3,0,3.35a.36.36,0,0,0,.18-.06l0,0a2.92,2.92,0,0,0,.31-.18l.07,0,.11-.07h0l.84-.57h0l0,0,0,0,0,0h0l.74-.55h0a1.66,1.66,0,0,0,.21-.16l.26-.19.07-.06h0l.83-.69a3.12,3.12,0,0,1,1.38-.7,1.66,1.66,0,0,1,.22,0,3,3,0,0,1,.85,0,2.28,2.28,0,0,1,.52.1,3.05,3.05,0,0,1,.68.28h0a3.7,3.7,0,0,1,.53.38A11.19,11.19,0,0,1,91.66,76l.15.2a18.4,18.4,0,0,1,1.27,2l.08.12.17.32a5.18,5.18,0,0,0,.58.91h0l.15.19h0a8.82,8.82,0,0,1,.74,1c.26.52.84.26,1.15-.68s.58-2.56.91-4.2a45.59,45.59,0,0,0,.35-5.65c0-1.16.1-4,.94-5.06a5.72,5.72,0,0,0,.8-3.12,12.42,12.42,0,0,1,3.59-1.27l.76-.09h.11c.63-.06,1.35-.11,2.12-.11-.36.42-1,1.22-1.45,1.62a5.47,5.47,0,0,1-1.32.91c-.1,0-.1,0-.06.08a.59.59,0,0,0,.22.15h0c.19.09.42.17.42.17a2,2,0,0,0,.47,0c.12,0,.07.11,0,.19l0,.07.33.18h0l.61.32h.42l.3.53s0-.41.29,0,.22.43.22.43v.19h.14a3.93,3.93,0,0,1,.5,0c.37,0,.54.2.5.34l-.15.13c-.09,0-.08.06,0,.1a.76.76,0,0,0,.23.15l0,0a3,3,0,0,0,.34.12s.42-.25.61,0a.37.37,0,0,0,.25.11h0a3.19,3.19,0,0,0,.84,0v0h0l0,.07h0a.41.41,0,0,0,0,.09l0,0a.41.41,0,0,0,0,.09h0c.09.14.21.27.34.27.29,0,.79-.39.94,0s.11.65-.17.8c0,0-.05,0,0,.06s0,0,0,0a.12.12,0,0,0,0,.05l0,0,.09,0,.06,0,.11,0,0,0h0l.35.09s0-.33.24-.29l.2,0v.47a2.07,2.07,0,0,0,.32.08h.32a.89.89,0,0,0,.31-.11,5.57,5.57,0,0,1,.31-1.48,12.66,12.66,0,0,1,2.05-2.4,2.22,2.22,0,0,1,1.19-.59c1,.48,2.07,1,3.23,1.63a40.81,40.81,0,0,0,8,3h.06l.44.11h0a29.58,29.58,0,0,0,4,.79h0l.6.06h.09a21.35,21.35,0,0,0,3.55,0h0l.67-.06v0c1.2-.13,2.45-.33,3.72-.59h0l.65-.14h0c1.21-.27,2.41-.59,3.57-.94h0l.5-.16h0c.67-.21,1.33-.44,1.95-.67a51,51,0,0,0,6.11-2.78h0l.56-.31h0c1-.55,1.9-1.15,2.81-1.79v0l.54-.39h0c.5-.37,1-.77,1.45-1.18a6,6,0,0,0,1,.74.94.94,0,0,0,.34,0h0l.31,0,.12,0a1.27,1.27,0,0,1-.24-.36c0-.06,0-.1.1-.1l-.51-.38.51.36c.28,0,.55.48.55.48H161l0,0h.3a3.46,3.46,0,0,0-.47-.5l-1.28-1.11h0l1.28,1.09a3.72,3.72,0,0,1,.47.48h.26a7.55,7.55,0,0,1-.67-.71l0,0c-.1-.14-.15-.24-.06-.24.28,0,1.29,1,1.29,1l.81-.11s-1.32-.94-2.78-2.09h0c1.46,1.15,2.78,2.09,2.78,2.09l.28,0h0s-.55-.52-.27-.52.52.67.52.67l1.15-.34,0,0,0,0-.29-.19-.05,0-.15-.12a.44.44,0,0,1-.13-.18c0-.21.69.31.69.31l.87-.14s-2.53-1.81-3.94-3l.09-.11a1.46,1.46,0,0,1,.16-.19l.23-.3h0c.12-.14.23-.29.34-.44h0c.13-.16.25-.33.37-.5s.12-.15.17-.23q.47-.65.9-1.29l.12-.19c.3-.45.59-.91.86-1.37h0a17.85,17.85,0,0,0,2.73-7.49C167.7,41.24,167.91,37,164.41,32.45Zm-61.26,5.47-.89.47Zm48.38-.5a6.54,6.54,0,0,0-.59-.3A6.54,6.54,0,0,1,151.53,37.42ZM154,39.14a14.75,14.75,0,0,1,3.94,4.91,5.91,5.91,0,0,1,.24.61v0a5.54,5.54,0,0,1,.17.6l0,.11c0,.18.07.36.1.54s0,.07,0,.1,0,.36.05.53a15.72,15.72,0,0,1-3,4.49,25.07,25.07,0,0,1-3.68-9.88c-.19-2-.17-3.64-.17-3.68A13,13,0,0,1,154,39.14Zm-2.65.57a17.17,17.17,0,0,0,.18,2l.37,2-.37-2A17.17,17.17,0,0,1,151.35,39.71ZM150.7,37c-.25-.11-.49-.2-.73-.29C150.21,36.81,150.45,36.9,150.7,37ZM128.85,25h0Zm.74.11h0l-.31-.07Zm-.66-.1.26,0Zm.79.14h0l.35.1Zm.52.14.19.06h0l.15.05ZM128.38,25l-.13,0ZM109.55,36.39h0l-.27.07Zm.09,0,.11,0-.18,0Zm-1.24.28-.44.07Zm1.49-.36a3.54,3.54,0,0,0,.49-.18A3.54,3.54,0,0,1,109.89,36.29Zm16.54,1.6s0,0,.06.06h0Zm3.85,2.53.08,0Zm.3.1.12,0Zm3.62,1,.18-.2Zm.57-.59.09-.08Zm.5-.39.08-.05Zm14.63-3.87h0Zm-.5,2.24a13.91,13.91,0,0,1,.41-1.88,13.91,13.91,0,0,0-.41,1.88,14.2,14.2,0,0,0-.16,2.75A14.2,14.2,0,0,1,149.4,38.93ZM107.14,60.66h0Zm.57.05.29,0-.3,0Zm-.17,0h0Zm2.41.46.12,0,.64.23h0c-.28-.1-.56-.2-.84-.28Zm-.53-.13-.28-.06h0Zm-.63-.13-.29-.06.3,0Zm.57-5.42h.15l.24,0Zm5.16.61L114,56l.26,0Zm-1.22-.18-.54-.08Zm-2.9-.35.46,0Zm1.65.18-.51-.06Zm1,6.63.52.22-.52-.22Zm-1.89-.78,1.21.5Zm2.88,1.2.49.21h0Zm-7.73-2.18h0Zm9,2.75.21.09-.18-.08Zm0-7.13.56.09Zm-7-.78h0Z"/></g></g></svg>