<svg xmlns="http://www.w3.org/2000/svg" viewBox="0 0 250 146"><defs><style>.cls-1{fill:#c1bd31;opacity:0.8;}.cls-2{fill:#fff;}</style></defs><title>food_detail</title><g id="圖層_2" data-name="圖層 2"><g id="food_detail"><path class="cls-1" d="M215,0H35A35.1,35.1,0,0,0,0,35V88a35.1,35.1,0,0,0,35,35h72.39A95,95,0,0,0,125,146a95,95,0,0,0,17.61-23H215a35.1,35.1,0,0,0,35-35V35A35.1,35.1,0,0,0,215,0Z"/><path class="cls-2" d="M220.33,38.21a8.88,8.88,0,0,0-2,7.92c.35,2.06.53,3.35-1.07,4.75-2,1.7-1.63,2.42-1.91,4.82-.19,1.58-1.19,1.46-2.3,2.34-1.39,1.09-.46,1.71-.71,3.11-.22,1.15-1.48,1.84-2.26,2.75a28.05,28.05,0,0,1-2.21,2.4c.66-.59,1.36-.9,2.11-1.48a27.67,27.67,0,0,0,2.61-1.46,4.72,4.72,0,0,0,1.4-2.61c.41-1.29.38-1,1.63-1.65,2.24-1.17,1.38-2.45,1.45-4.46,0-2.26,2.65-2.46,3.61-4.19,1.19-2.22-.44-4.76-.78-6.91a12.76,12.76,0,0,1,.38-5.33"/><path class="cls-2" d="M209.9,39.07c-2.94,3.62-3.84,10-3.39,14.24.68,4.3,3.22,9.61.91,14.25,2.8-5.71,3.16-9.72,1.81-15.83a24.17,24.17,0,0,1,.67-12.66"/><path class="cls-2" d="M197.51,29.92A7.35,7.35,0,0,1,202,36.76c.09,1.66-.55,3.51-.15,5.3s1.81,2.61,2.66,4.22c1.87,3.67-.25,6.06-.35,9.69s3.91,4.6,4.54,8c.22,1.2-.46,2.23-1.26,3.55.73-1.85-.52-3.14-1.65-4.28s-3-1.5-4.09-2.94c-2.44-3-1-6.14-.08-9.21,1.13-4-2.23-4.55-3.19-8.12-1.09-3.26,1.93-5.85,1.14-9.13a12.5,12.5,0,0,0-2-4"/><path class="cls-2" d="M210.82,32c1.64,5.15,6,12,4.55,19-.74,3.29-3.67,4.61-4.56,7.59s.05,4.87-3.39,9c2.2-3.59.73-6,.9-9.48.16-3.25,3-5.11,4.06-8s.31-6.81-.27-9.66c-.5-2.64-.49-5.93-1.29-8.35"/><path class="cls-2" d="M193.74,50.35c.57,1.6,1.33,2.19,1.56,3.38.3,1.74-.51,4.28,1,5.64s3.53.37,4.55,2.67c1,2,1.51,2.33,3.81,2.6,1.23.09,3,.78,3.14,2.3-.08-1.28-.83-3.32-2.35-3.77-1.77-.51-2.59,0-2.95-2.23s-1.13-2.53-3.4-3.14a4.25,4.25,0,0,1-3.43-3.38c-.37-1-1-3.21-1.89-4.07"/><path class="cls-2" d="M207.57,67.35a4,4,0,0,1,1.13-2.27,8.94,8.94,0,0,1,4.64-2c3.23-.75,6.52-4,9.67-3.7-1.91.09-2.56,2-3.65,3a10.32,10.32,0,0,1-4.48,2.31c-2,.51-4.29.28-5.9,1.18a3.4,3.4,0,0,0-1.41,1.49"/><path class="cls-2" d="M30.89,86.42A6.25,6.25,0,0,1,29.11,89l-.71-.42a5.47,5.47,0,0,0,1.73-2.36Zm-.95-.72V81.44c-.28.23-.58.47-.89.68a3.41,3.41,0,0,0-.6-.6A11,11,0,0,0,32,77.76l1.05.18c0,.1-.09.17-.26.17l-.31.49h2.89l.13,0,.64.4a.29.29,0,0,1-.16.1A10.15,10.15,0,0,1,34.9,80.6h3.25v5.1Zm3.61-4.41H30.72v1.52h2.83Zm-2.83,2.18V85h2.83V83.47Zm3.2-2.87a8.08,8.08,0,0,0,.95-1.32H32a16.27,16.27,0,0,1-1.13,1.32Zm-1.53,8.22a13.83,13.83,0,0,0-.26-2.31l.77-.06a12.91,12.91,0,0,1,.31,2.26Zm5-6V81.29h-3v1.52Zm0,2.19V83.47h-3V85Zm-1.93,3.82a12.12,12.12,0,0,0-.84-2.3l.74-.15a12.33,12.33,0,0,1,.88,2.25Zm3.41.14A12,12,0,0,0,37,86.43l.72-.31a11.15,11.15,0,0,1,1.89,2.47Z"/><path class="cls-2" d="M44.1,83.31v-1.9a7,7,0,0,1-1.91,1.89,3,3,0,0,0-.48-.54,6.36,6.36,0,0,0,2.11-2H41.89v-.68H44.1V77.82l.95.06c0,.07-.08.13-.23.15v2H47v.68H44.82v.16c.49.29,1.9,1.21,2.24,1.48l-.44.59c-.34-.3-1.19-1-1.8-1.39v1.71Zm.69,2.09a3.85,3.85,0,0,1-.08.58c.74.52,1.64,1.22,2.14,1.65l-.55.55a16.19,16.19,0,0,0-1.82-1.5,4.37,4.37,0,0,1-2.31,2,3,3,0,0,0-.45-.61c1.77-.79,2.22-1.79,2.33-2.72H41.88v-.72h2.19V83.57l1,.06c0,.09-.08.15-.23.17v.88h2.23v.72Zm-2-7.21a4.46,4.46,0,0,1,.73,1.39l-.61.26a5.08,5.08,0,0,0-.7-1.43Zm2.68,1.44a10.19,10.19,0,0,0,.72-1.49l.82.31c0,.08-.11.1-.24.1A11.79,11.79,0,0,1,46,79.87Zm4,7.7a.28.28,0,0,1-.21.09A7.53,7.53,0,0,1,46.79,89a3.07,3.07,0,0,0-.54-.54,7.15,7.15,0,0,0,2.38-1.5Zm-1.91-7h1.64c.1-.39.21-.84.3-1.24H47.08v-.72H52.9v.72H50.26a10.42,10.42,0,0,1-.36,1.24h2.57v6.31h-5Zm4.2,1.89V81H48.25v1.24Zm0,1.87V82.87H48.25v1.24Zm0,1.9V84.74H48.25V86ZM51,87a14.13,14.13,0,0,1,2.1,1.55l-.64.44a14,14,0,0,0-2.06-1.58Z"/><path class="cls-2" d="M73.49,81.19a9.24,9.24,0,0,1,2.24,1.23l-.46.67a10.4,10.4,0,0,0-2.22-1.29Zm-.12,7.07a38,38,0,0,0,2.14-4l.61.5a38,38,0,0,1-1.94,3.75.25.25,0,0,1,.06.17.22.22,0,0,1,0,.13Zm.76-10.35a9.4,9.4,0,0,1,2.19,1.32l-.47.66a9.23,9.23,0,0,0-2.17-1.39ZM84.18,85v.72H80.69V88c0,.93-.45,1-2.46,1a2.92,2.92,0,0,0-.26-.77h1c.8,0,.88,0,.88-.22V85.73H76.32V85h3.57V84l.48,0A12.17,12.17,0,0,0,82,82.88H77v-.72h5.85l.15,0,.64.4a.45.45,0,0,1-.18.1,13.22,13.22,0,0,1-2.81,1.88V85Zm-.61-6.53a.23.23,0,0,1-.13,0h-.11a34.73,34.73,0,0,1-6.59,1,3.32,3.32,0,0,0-.23-.67,32.7,32.7,0,0,0,6.39-1Zm-6,1.33a8.94,8.94,0,0,1,1,1.93l-.74.3a8.13,8.13,0,0,0-.93-2ZM80,79.4a8.38,8.38,0,0,1,.77,2.09l-.75.24a8.38,8.38,0,0,0-.72-2.11Zm3.85.4a.25.25,0,0,1-.25.09,18.82,18.82,0,0,1-1.49,2.23l-.61-.3a14.42,14.42,0,0,0,1.4-2.41Z"/><path class="cls-2" d="M86.85,81.2a8.61,8.61,0,0,1,2,1.14l-.47.66a8.41,8.41,0,0,0-2-1.2Zm-.23,7.16a36.63,36.63,0,0,0,1.55-3.91l.65.42c-.41,1.26-1,2.75-1.38,3.66a.27.27,0,0,1,.07.18.35.35,0,0,1,0,.13Zm.76-10.42a7.36,7.36,0,0,1,1.92,1.27l-.48.63a8.83,8.83,0,0,0-1.91-1.33Zm5.05,4.49.41,0a2.35,2.35,0,0,1,0,.26c-.08,4.1-.17,5.45-.46,5.84s-.59.39-1.12.39l-.8,0a2,2,0,0,0-.2-.73c.48,0,.93,0,1.1,0s.28,0,.36-.16.29-1.46.36-4.89H90.91c-.17,2.2-.59,4.36-1.78,5.76a2.25,2.25,0,0,0-.6-.5c1.49-1.71,1.68-4.85,1.74-7.8H89.13v-.77h1.68V77.79l1,.06c0,.09-.07.15-.23.17v1.85h1.68v.77H91c0,.58,0,1.18-.07,1.79Zm5.16,2.18v.73H95.68V88c0,.89-.39.93-2.07.93a3.91,3.91,0,0,0-.24-.76h.85c.63,0,.7,0,.7-.19V85.34H93.11v-.73h1.81V83.38h.37a6.9,6.9,0,0,0,.88-1H93.64v-.56c-.07.11-.13.23-.2.32a4.12,4.12,0,0,0-.64-.41,12,12,0,0,0,1.43-4l1,.23c0,.09-.1.12-.25.12a11,11,0,0,1-.35,1.34h3v.76H94.36a10.44,10.44,0,0,1-.62,1.42h3l.12,0,.59.37a.29.29,0,0,1-.18.1,9.23,9.23,0,0,1-1.63,1.82v.68Z"/><path class="cls-2" d="M105.76,87.76h5v.79H100v-.79h5V84.55h-3.66v-.78h3.66V81H102a9.6,9.6,0,0,1-1.44,2.21,5.78,5.78,0,0,0-.67-.49,11.63,11.63,0,0,0,2.32-4.7l1.05.29c0,.08-.12.13-.28.13a18.37,18.37,0,0,1-.62,1.76h2.58V77.81l1.07.06c0,.08-.08.14-.25.16V80.2h4.48V81h-4.48v2.77h4v.78h-4Z"/><path class="cls-2" d="M117.83,84.46l-1.69.37V89h-.79V85c-.66.15-1.26.28-1.74.37a.23.23,0,0,1-.15.19l-.31-.93c.6-.09,1.36-.24,2.2-.41V81.14h-1.18a12.42,12.42,0,0,1-.45,1.88,3.84,3.84,0,0,0-.6-.33,19.72,19.72,0,0,0,.64-4.23l.93.21c0,.08-.11.12-.25.13,0,.5-.1,1-.15,1.56h1.06V77.82l1,.06c0,.08-.07.14-.23.16v2.32h1.53v.78h-1.53v3l1.62-.32Zm5.73-4.29.43,0a1.33,1.33,0,0,1,0,.28c-.22,5.61-.43,7.46-.88,8-.23.33-.48.46-1.28.46l-.86,0a1.83,1.83,0,0,0-.23-.81c.54,0,1,.05,1.24.05a.45.45,0,0,0,.43-.2c.35-.41.59-2.16.78-7h-.94c-.34,2.9-1.17,6.32-2.45,8a3.37,3.37,0,0,0-.7-.4c1.32-1.58,2.12-4.79,2.48-7.62h-1c-.45,2.45-1.38,5.37-2.58,6.86a3.12,3.12,0,0,0-.72-.4c1.21-1.37,2.14-4.07,2.59-6.46h-1a9.87,9.87,0,0,1-1.17,2.63,5.08,5.08,0,0,0-.61-.45,13.86,13.86,0,0,0,1.71-5.35l1,.22c0,.08-.11.13-.27.13-.12.69-.26,1.39-.44,2.06h4.49Z"/><path class="cls-2" d="M148.42,81.06c0,.09-.1.14-.26.14A13.51,13.51,0,0,1,146,86.31a5.13,5.13,0,0,0-.76-.43,11.46,11.46,0,0,0,2.09-5Zm2.1-3.07,1.11.05c0,.1-.09.16-.26.17v9.57c0,.63-.16.88-.57,1a9,9,0,0,1-2.3.16,3.63,3.63,0,0,0-.35-.85l1.44,0c.84,0,.93,0,.93-.33Zm5.28,8.52a19.83,19.83,0,0,0-2.35-5.45l.77-.3a19.6,19.6,0,0,1,2.43,5.39Z"/><path class="cls-2" d="M161.88,86.57c-.14-.48-.3-1-.47-1.38l.55-.14a11.06,11.06,0,0,1,.8,2.75l-.6.15a5.4,5.4,0,0,0-.14-.8l-2.93.67a.22.22,0,0,1-.15.18l-.3-.82,1.77-.32V84.38h-.77v.53h-.58V80.05h1.35V77.81l.85.06c0,.07-.07.13-.21.15v2h1.39v4.33h-1.39v2.36Zm-2.24-5.84v3h.82v-3Zm2.2,3v-3H161v3Zm4.27,2.83h-2.29V89h-.73V78.46h3V82.1h-2.32v1.44H166v.68h-2.16v1.6h2.29Zm-.67-7.36h-1.62V81.4h1.62Zm3.72,4.08.44.13a.37.37,0,0,1-.07.14,8.43,8.43,0,0,1-1.26,3.33A4.55,4.55,0,0,0,170,88.38a3.62,3.62,0,0,0-.5.59,5.05,5.05,0,0,1-1.67-1.56A6.23,6.23,0,0,1,165.63,89a2.85,2.85,0,0,0-.43-.6,5.22,5.22,0,0,0,2.2-1.59,10.68,10.68,0,0,1-1-2.63L167,84a9.1,9.1,0,0,0,.82,2.17,7.26,7.26,0,0,0,.86-2.19h-2.48v-.69H169Zm.24-4.78v3.69h-2.88v-.7h2.13V79.16h-2.13v-.7Z"/><path class="cls-2" d="M196.3,81.19a8.47,8.47,0,0,1,2.08,1.24l-.48.65a8,8,0,0,0-2.05-1.3Zm-.15,7.12a32.88,32.88,0,0,0,1.92-3.93l.64.45a36.38,36.38,0,0,1-1.74,3.7.32.32,0,0,1,.07.19.17.17,0,0,1,0,.12Zm2.32-8.41a9,9,0,0,0-2-1.4l.47-.58A8.38,8.38,0,0,1,199,79.27ZM207,84.55H206c0,.78-.07,1.42-.12,1.94H207v.72h-1.19c-.22,1.68-.62,1.73-1.77,1.73-.29,0-.63,0-1,0a1.92,1.92,0,0,0-.22-.69c.66,0,1.25,0,1.52,0s.53-.31.64-1.05h-4.56l-.09.6-.77-.07c.14-.84.31-2,.47-3.19h-1.25V83.8h1.33c.11-.89.2-1.77.27-2.54h5.27l.43,0c0,.08,0,.18,0,.26L206,83.8h1ZM207,80.08h-6.16a9.29,9.29,0,0,1-1.36,2.28,7.61,7.61,0,0,0-.61-.48,11.06,11.06,0,0,0,2-4.09l1,.27c0,.08-.11.13-.27.13-.12.38-.25.77-.39,1.15H207Zm-4.58,6.41c.06-.57.12-1.24.19-1.94h-1.79c-.08.68-.17,1.34-.25,1.94Zm.25-2.69c0-.62.08-1.25.12-1.82h-1.68c-.06.59-.13,1.2-.2,1.82Zm.63.75c-.06.7-.12,1.39-.18,1.94h2c0-.51.08-1.14.12-1.94Zm.2-2.57c0,.57-.09,1.2-.14,1.82h1.92c0-.54,0-1.15.06-1.82Z"/><path class="cls-2" d="M209.69,82.52a9.3,9.3,0,0,1,2,1.23l-.48.62a9,9,0,0,0-2-1.31Zm2.64-2.21v-.83h-2.92v-.7h2.92v-1l1,.06c0,.08-.08.14-.24.16v.75h3.29v-1l1,.06c0,.09-.07.14-.23.16v.75h3v.7h-3v.83h-.8v-.83h-3.29v.83Zm-2.8,8.07a33.53,33.53,0,0,0,1.71-3l.55.47c-.46,1-1.06,2.07-1.49,2.78a.27.27,0,0,1,0,.16.22.22,0,0,1,0,.13Zm.79-8.21a8.39,8.39,0,0,1,2,1.26l-.5.6a8.09,8.09,0,0,0-1.92-1.33Zm9.94,6.19h-3.07a7.19,7.19,0,0,0,3.25,1.81,3.43,3.43,0,0,0-.51.63,7.69,7.69,0,0,1-3.4-2.3V89h-.8V86.51a8.68,8.68,0,0,1-3.58,2.35,3.3,3.3,0,0,0-.51-.61,8.56,8.56,0,0,0,3.4-1.89h-2.95V85.7h3.64V85h-3.21V83h3.24v1.88l.74,0V83h3.36v2h-3.11c0,.07-.08.13-.22.16v.6h3.73ZM215,84.45v-1h-1.83v1Zm-1.29-2v-2h4.75v2ZM214.5,81v.92h3.24V81Zm2.7,2.48v1h1.93v-1Z"/><path class="cls-2" d="M142.94,48.73c.83-.83,2.34,1.9,4.67,2.34s5.92.14,6.5.51-1.46,1.17-2,2a25.54,25.54,0,0,0-1.24,3.51c-.22.51-7.38,1.38-8.62,0S141.84,49.83,142.94,48.73Z"/><path class="cls-2" d="M154.09,63.13c-.82.74-3.81,2.2-5.84.91s-4.31-2.79-4.24-3.77c.13-1.76,1.51-.44,2.62-.59s4.4-1.31,4.91-1.07.15,1.32.57,1.92S154.92,62.4,154.09,63.13Z"/><path class="cls-2" d="M161.49,67.53a7,7,0,0,1-6.65-2.79c-.3-.57,1.06-1.39,2.06-1.7s3.24-.39,4.51-.74,3.09-1.44,3.67-.2A4.29,4.29,0,0,1,161.49,67.53Z"/><path class="cls-2" d="M159.49,56.56c.18.35.44,1.12-.14,1s-3.15-1.38-3.42-2.35.19-3,1.11-2.89c.58.09,0,1.81-.06,2.35S159.31,56.21,159.49,56.56Z"/><path class="cls-2" d="M163.52,53.17c.27.29.75.95.15,1s-3.42-.41-4-1.25-.7-3,.22-3.09c.59-.09.52,1.73.63,2.26S163.24,52.89,163.52,53.17Z"/><path class="cls-2" d="M161.51,47.18c.43-.16.68,1.24.86,1.62s2.17.17,2.43.34.73.6.28.73-2.67.26-3.23-.3S160.82,47.43,161.51,47.18Z"/><path class="cls-2" d="M172.06,45.41c-3.4,1.1-9.1-1-11,0s-1.64,4.05-3.94,4.27S144.23,50,144,45.85s7.78-8.22,7.78-8.22c6.25-1.64,8.43.55,9.86,2.3a9.47,9.47,0,0,0,4.27,3c1,.28,3.52,2.06,5.42.44s3.24-6.79-2.46-9.2-14.24-3.07-14.68-4.06,13.09,2.47,14.51,3,3.89,1.31,5.32,3.34C175.28,38.21,175.45,44.31,172.06,45.41Z"/><path class="cls-2" d="M163,38.87a1,1,0,1,1,1,1A1,1,0,0,1,163,38.87Z"/><polygon class="cls-2" points="96.84 38.84 96.36 38.94 95.32 35.51 94.28 32.83 94.76 32.73 95.35 34.79 96.84 38.84"/><polygon class="cls-2" points="96.53 38.85 96.2 39.2 93.72 36.49 91.59 34.48 91.92 34.13 93.39 35.79 96.53 38.85"/><polygon class="cls-2" points="96.29 39.04 96.2 39.55 92.94 38.27 90.31 37.48 90.39 36.97 92.35 37.77 96.29 39.04"/><polygon class="cls-2" points="96.19 39.34 96.38 39.87 93.21 40.37 90.77 41.01 90.59 40.48 92.5 40.21 96.19 39.34"/><polygon class="cls-2" points="96.27 39.68 96.67 40.09 94.44 42.23 92.86 44.13 92.46 43.72 93.82 42.45 96.27 39.68"/><polygon class="cls-2" points="96.49 39.96 97 40.14 96.32 43.36 96 46 95.49 45.82 95.94 43.9 96.49 39.96"/><polygon class="cls-2" points="96.8 40.11 97.28 40.02 98.32 43.44 99.37 46.12 98.89 46.22 98.29 44.16 96.8 40.11"/><polygon class="cls-2" points="97.12 40.09 97.45 39.74 99.93 42.46 102.06 44.47 101.73 44.81 100.25 43.16 97.12 40.09"/><polygon class="cls-2" points="97.36 39.91 97.44 39.4 100.7 40.68 103.34 41.47 103.25 41.98 101.3 41.18 97.36 39.91"/><polygon class="cls-2" points="97.45 39.61 97.27 39.08 100.43 38.58 102.88 37.94 103.06 38.47 101.14 38.74 97.45 39.61"/><polygon class="cls-2" points="97.38 39.27 96.98 38.86 99.2 36.72 100.79 34.82 101.19 35.23 99.83 36.49 97.38 39.27"/><polygon class="cls-2" points="97.15 38.99 96.64 38.81 97.33 35.59 97.64 32.95 98.15 33.13 97.71 35.05 97.15 38.99"/><path class="cls-2" d="M114.36,41c-.33.84.59,2.81-1.09,2.79s-5.14,2.24-7.44,4.44-3.3,4.63-3.1,4.69-.09.24,2.16-2.63,6.9-4.85,6.9-4.85c-1.06.92-2.45,4.89-2.23,5s.57-.65.75-1.2,2-3.69,3-2.18S111,50.87,110.68,51s-.78.78,1,0a6.56,6.56,0,0,0,2.73-2.76c.47,4.51-6,10.78-5.91,10.88s1.14-.17,4.3-3.91a14.62,14.62,0,0,0,3.1-8.73c.27-.91.59-1.12,1.87-1.42a1.64,1.64,0,0,0,1.38-1.56c-.11,0-.55.41-1,.54s-1.11-.06-1.14-.44.39-1.25.11-1.5-.37-.25-.65-.16-.8.58-1.3,0,.56-1.84.41-1.88A1.53,1.53,0,0,0,114.36,41Zm.2,6c-.32-2-1.89-1.82-1.89-1.82C117.1,42.16,114.56,47.07,114.56,47.07Z"/><path class="cls-2" d="M106.3,30.8c.13-.15,1.78,1.21,2.16,1.83a6.34,6.34,0,0,1,.85,4.34c-.44,1.83-.89,1.74-1,1.64a10.47,10.47,0,0,0,.16-2,15.56,15.56,0,0,0-1-3.67C107,32.27,106.3,30.8,106.3,30.8Z"/><path class="cls-2" d="M95,60c1.35.68,1.32.22,1.45-.26s.44-2.2-.59-2.29-2.1.65-1.86,1.26A4.46,4.46,0,0,0,95,60Z"/><path class="cls-2" d="M95.91,55.4c.47-1.57.1-1.57-.32-1.78s-1.86-.77-1.86.47.68,2.62,1.17,2.39A3.44,3.44,0,0,0,95.91,55.4Z"/><path class="cls-2" d="M98.73,59.33c1.35.68,1.32.22,1.45-.26s.44-2.2-.59-2.29-2.1.65-1.86,1.26A4.46,4.46,0,0,0,98.73,59.33Z"/><path class="cls-2" d="M92.27,58.83c-.84.94-1,.58-1.32.24s-1.32-1.56-.5-2,2-.16,2.09.39A3.14,3.14,0,0,1,92.27,58.83Z"/><path class="cls-2" d="M89.8,55.17c-1.26.24-1.19-.14-1.27-.58s-.24-2,.69-1.8,1.84,1.07,1.58,1.53A2.94,2.94,0,0,1,89.8,55.17Z"/><path class="cls-2" d="M88,59c-.83.94-1,.58-1.32.25s-1.32-1.57-.5-2,2-.15,2.1.4A3.23,3.23,0,0,1,88,59Z"/><path class="cls-2" d="M95.26,65.73c-.84.94-1,.58-1.32.24s-1.32-1.57-.5-2,2-.16,2.09.39A3.14,3.14,0,0,1,95.26,65.73Z"/><path class="cls-2" d="M93,62.46c-1.26.24-1.2-.14-1.28-.58s-.23-2,.7-1.8,1.84,1.07,1.57,1.53A2.94,2.94,0,0,1,93,62.46Z"/><path class="cls-2" d="M91.28,65.72c-.83.94-1,.58-1.32.24s-1.32-1.56-.5-1.95,2-.16,2.09.39A3.14,3.14,0,0,1,91.28,65.72Z"/><path class="cls-2" d="M87.6,42.22c-.2.23-1.51,2.06-1.42,1.47A29,29,0,0,0,87,40.84c-.18,0-.62.66-.67,1.06s-.77,2.36-.55.46-.66-2.7-.58-2a7,7,0,0,1-.39,2.88,4.15,4.15,0,0,0-2.2,3.8,21.06,21.06,0,0,1-.89,2.12c-.17.19-.41.65.13.44s1.3-1.88,1.46-1.77a1.14,1.14,0,0,1,0,1.25c-.27.61-.41,2.07-.2,1.77s.84-2.42,1-2.26-.23,1.14-.24,1.88.41,1.26.38.11a2.89,2.89,0,0,1,.54-1.84c1.79-.92,1.77-3.91,1.88-4.5s1.5-1.92,1.49-2.06S87.8,42,87.6,42.22Zm-4.46,5.07c-.11,0-.21-.09-.22-.17s.08-.14.2-.14.21.09.22.17S83.26,47.29,83.14,47.29Zm.1-.84c.1-.88.48-1.9,1.06-2.06S83.24,46.45,83.24,46.45Zm2.35.84a1.5,1.5,0,0,1-1.11.71c-.37,0-.4-.32-.63-.69a1.23,1.23,0,0,1,.6.29C84.76,47.86,85.73,46.92,85.59,47.29Zm.2-1.49c-.19.2-.2.44-.52.83s-.84,0-1.17-.1.46-.49.71-1.17.25-1,.41-1.15a1.88,1.88,0,0,1,.7.31C86.23,44.76,86,45.61,85.79,45.8Z"/><path class="cls-2" d="M85.45,44.75a4.17,4.17,0,0,1-.39,1.06c-.15.22-.31.42,0,.35s.57-.63.58-1.07S85.45,44.75,85.45,44.75Z"/><path class="cls-2" d="M82,40.3c.51,1,1.91,1.17,1.85.91s-.31-1.2-1.08-1.06Z"/><path class="cls-2" d="M79.55,41.29c0,.39.51,1,.84.72a.53.53,0,0,0,0-.88C80.13,40.9,79.51,40.87,79.55,41.29Z"/><path class="cls-2" d="M81,38.66c0,.15,0,.28-.14.3a.27.27,0,0,1-.28-.23.23.23,0,0,1,.14-.3A.27.27,0,0,1,81,38.66Z"/><path class="cls-2" d="M103.22,62.34c.32.12,1.06-.24,1,.4a5.94,5.94,0,0,0,1.7,2.79,3.57,3.57,0,0,0,1.78,1.15c0-.07.09,0-1-.8a7.74,7.74,0,0,1-1.85-2.59,4.44,4.44,0,0,0,1.89.83c0-.09-.24-.22-.45-.28s-1.4-.74-.83-1.12,1.42.87,1.46,1,.3.29,0-.37a2.43,2.43,0,0,0-1-1c1.7-.2,4.08,2.22,4.12,2.19s-.07-.43-1.48-1.61a5.56,5.56,0,0,0-3.31-1.14c-.34-.1-.42-.22-.54-.7a.62.62,0,0,0-.59-.52s.16.21.21.38,0,.42-.17.43-.46-.14-.56,0a.18.18,0,0,0-.06.24c0,.11.22.3,0,.49s-.69-.2-.71-.15S102.89,62.21,103.22,62.34Zm2.27-.1c-.74.13-.68.72-.68.72C103.63,61.3,105.49,62.24,105.49,62.24Z"/><path class="cls-2" d="M58,34.69c-6.08-8.29-11.5.5-11.5.5,5.85,8.71,10.37,2.52,11.56.55,2.35,4.79,3-.56,3-.56C60.41,29.93,58.63,33.33,58,34.69Zm-8.6.73a1,1,0,0,1,0-1.87,1,1,0,0,1,0,1.87Z"/><path class="cls-2" d="M54.91,58.32c-9.73-13.26-18.38.8-18.38.8C45.88,73,53.1,63.14,55,60c3.75,7.67,4.79-.88,4.79-.88C58.72,50.7,55.88,56.14,54.91,58.32ZM41.82,59.84a1.83,1.83,0,0,1-1.61-1,.75.75,0,0,1-.07-.12,1.17,1.17,0,0,0,0-.11,2.17,2.17,0,0,1-.07-.24.29.29,0,0,1,0-.09A1.86,1.86,0,0,1,40,58a2,2,0,0,1,0-.35.29.29,0,0,1,0-.09,2,2,0,0,1,.07-.23l0-.11a.83.83,0,0,1,.07-.13,1.85,1.85,0,1,1,1.61,2.76Z"/><path class="cls-2" d="M21.58,43.26s.83,6.84,3.83.71c1.52,2.51,7.29,10.43,14.77-.7,0,0-6.92-11.24-14.7-.64C24.71,40.89,22.44,36.54,21.58,43.26Zm13.63-.89a1.28,1.28,0,1,1,1.28,1.27A1.28,1.28,0,0,1,35.21,42.37Z"/></g></g></svg>