<svg xmlns="http://www.w3.org/2000/svg" viewBox="0 0 250 146"><defs><style>.cls-1{fill:#c1bd31;opacity:0.8;}.cls-2{fill:#fff;}</style></defs><title>height_detail</title><g id="圖層_2" data-name="圖層 2"><g id="height_detail"><path class="cls-1" d="M215,0H35A35.1,35.1,0,0,0,0,35V88a35.1,35.1,0,0,0,35,35h72.39A95,95,0,0,0,125,146a95,95,0,0,0,17.61-23H215a35.1,35.1,0,0,0,35-35V35A35.1,35.1,0,0,0,215,0Z"/><path class="cls-2" d="M120.2,99.35a1.68,1.68,0,0,1-1-1.52,1.77,1.77,0,0,1,1.91-1.75,1.65,1.65,0,0,1,1.81,1.63,1.78,1.78,0,0,1-1.11,1.6v0a1.93,1.93,0,0,1,1.34,1.77A2,2,0,0,1,121,103a1.88,1.88,0,0,1-2.08-1.8,2,2,0,0,1,1.3-1.85Zm2.14,1.84c0-.85-.57-1.28-1.46-1.57a1.6,1.6,0,0,0-1.22,1.51,1.28,1.28,0,0,0,1.33,1.35A1.26,1.26,0,0,0,122.34,101.19Zm-2.48-3.43c0,.72.5,1.12,1.25,1.34a1.43,1.43,0,0,0,1-1.32A1.06,1.06,0,0,0,121,96.63,1.09,1.09,0,0,0,119.86,97.76Z"/><path class="cls-2" d="M124.85,99.58c0-2.36.91-3.5,2.17-3.5s2.07,1.2,2.07,3.41-.82,3.55-2.16,3.55S124.85,101.83,124.85,99.58Zm3.48-.06c0-1.68-.41-2.84-1.35-2.84s-1.37,1.07-1.37,2.84.5,2.9,1.34,2.9C128,102.42,128.33,101.13,128.33,99.52Z"/><path class="cls-2" d="M130.82,99.58c0-2.36.92-3.5,2.18-3.5s2.06,1.2,2.06,3.41-.82,3.55-2.16,3.55S130.82,101.83,130.82,99.58Zm3.49-.06c0-1.68-.41-2.84-1.35-2.84s-1.37,1.07-1.37,2.84.49,2.9,1.34,2.9C133.93,102.42,134.31,101.13,134.31,99.52Z"/><line class="cls-2" x1="84.5" y1="85" x2="84.5" y2="97"/><path class="cls-2" d="M83.75,85V97a.75.75,0,0,0,1.5,0V85a.75.75,0,0,0-1.5,0Z"/><line class="cls-2" x1="167.5" y1="85" x2="167.5" y2="97"/><path class="cls-2" d="M166.75,85V97a.75.75,0,0,0,1.5,0V85a.75.75,0,0,0-1.5,0Z"/><line class="cls-2" x1="53" y1="91" x2="199" y2="91"/><path class="cls-2" d="M53,91.75H199a.75.75,0,0,0,0-1.5H53a.75.75,0,0,0,0,1.5Z"/><path class="cls-2" d="M217.46,93.15a3.86,3.86,0,0,1-1.63.34A2.79,2.79,0,0,1,213,90.43a3,3,0,0,1,3.07-3.2,3.31,3.31,0,0,1,1.44.32l-.23.73A2.46,2.46,0,0,0,216,88a2.15,2.15,0,0,0-2.11,2.4A2.11,2.11,0,0,0,216,92.74a2.92,2.92,0,0,0,1.3-.3Z"/><path class="cls-2" d="M228.14,93.37h-.9V89.9c0-1.16-.42-1.91-1.32-1.91a1.52,1.52,0,0,0-1.41,1.6v3.78h-.9v-3.7c0-1-.41-1.68-1.26-1.68a1.63,1.63,0,0,0-1.47,1.7v3.68H220V88.91c0-.61,0-1,0-1.55h.81l0,1h0a2,2,0,0,1,1.82-1.1,1.71,1.71,0,0,1,1.64,1.2h0a2.1,2.1,0,0,1,1.93-1.2c.74,0,1.9.47,1.9,2.53Z"/><circle class="cls-2" cx="31" cy="91" r="2"/><path class="cls-2" d="M167.46,51.83h0c-.27-1.13-1.94-1.6-2.24-2.25-.78-1.7-2.81-3.66-6.21-5.88s-10.27-4.91-13.67-5.89-3.53.52-7.59-2-9-2.82-12.62-4.06a26.64,26.64,0,0,0-7.78-1.18s-1.18-1.26-2-2a35,35,0,0,1-2.94-3.64A14.29,14.29,0,0,0,108.32,22c-.65-.32-1.44-.52-1.57.66a5.6,5.6,0,0,0,.52,3.14,6.16,6.16,0,0,1,1.12,3.2c0,1.51-.33,4.35-.33,4.35a.6.6,0,0,1-.39.69c-.53.26-1.77,1.57-2.23,1.7s-4.84.13-5.75.13-1.18,0-1.31.52-.07,5.43-.07,5.43.07.39-1.11.39-3.73-1.83-5.1-2.68-6.34-4.31-8.5-5.62-1.7,0-.85.72S90.66,44.81,92.3,47s2.74,4.19,2.81,5.24S98.58,61.69,98.77,63s.66,1.31,1.12.4.45-4.78.38-8.18a42,42,0,0,0-1.1-7.65c.6-.35,9.85,0,10.77.46l0,0c.61.39,2.3,1.52,2.3,1.52a11.18,11.18,0,0,0-2,2.5c-.74,1.37.25,1.13,1.23,1.13s3.73-.39,3.73-.39l.64.73s-.45-.19-1.43.25S110.18,58,108.91,59,99.1,65.81,97.82,67,95,69.53,95.66,70.81,98,72,100,71.5s6.28-3,8.83-3.93c2.13-.74,8.47-3.72,8.72-3.84A13.2,13.2,0,0,0,120,66.88c2.65,2.56,17.36,6.58,26.09,5.5s12.17-3.93,16.29-8.24a11.92,11.92,0,0,0,3.43-9.22C167.65,54.12,167.78,52.67,167.46,51.83Z"/></g></g></svg>