<svg xmlns="http://www.w3.org/2000/svg" viewBox="0 0 250 146"><defs><style>.cls-1{fill:#cac529;opacity:0.8;}.cls-2{font-size:12px;font-family:TsukuBRdGothic-Bold-83pv-RKSJ-H, Tsukushi B Round Gothic;font-weight:700;letter-spacing:0.11em;}.cls-2,.cls-3{fill:#fff;}</style></defs><title>food_detail</title><g id="圖層_2" data-name="圖層 2"><g id="food_detail"><path class="cls-1" d="M215,0H35A35.1,35.1,0,0,0,0,35V88a35.1,35.1,0,0,0,35,35h72.39A95,95,0,0,0,125,146a95,95,0,0,0,17.61-23H215a35.1,35.1,0,0,0,35-35V35A35.1,35.1,0,0,0,215,0Z"/><text class="cls-2" transform="translate(79.51 87.93)">小蟹</text><text class="cls-2" transform="translate(142.51 87.93)">小蝦</text><path class="cls-3" d="M100.49,36.56c1.13-1.87,5.8-2.54,9.77-1,2.23.86,5,7.25,3.8,8.77s-4,0-7.4,0-5.44-2.77-5.12-3,4.39-.08,4.39-.71S99.35,38.43,100.49,36.56Z"/><circle class="cls-3" cx="98.86" cy="46.32" r="1.03"/><circle class="cls-3" cx="87.64" cy="46.32" r="1.03"/><path class="cls-3" d="M75.57,35.85c4-1.53,8.64-.86,9.77,1s-5.43,3.43-5.44,4.06,4.06.46,4.39.7-1.71,3-5.12,3-6.18,1.52-7.4,0S73.34,36.71,75.57,35.85Z"/><path class="cls-3" d="M70.77,48.08c.66-2.46,4.52-1.21,5.09-.73a31.79,31.79,0,0,1,3.33,4.14c.21.5.83,2,0,2.09s-4.75-.34-6-1.25S70.44,49.33,70.77,48.08Z"/><path class="cls-3" d="M76.54,59.08c-.33.14-1,.31-.87-.19S77.12,56.18,78,56s2.69.37,2.5,1.18c-.12.51-1.61-.13-2.09-.21S76.86,59,76.54,59.08Z"/><path class="cls-3" d="M78.38,64.71c-1,.13-1.43-2-1.14-3s3-2.29,3.61-2.43.33.67.14,1-2.69,1.41-2.65,2S79,64.62,78.38,64.71Z"/><path class="cls-3" d="M83.17,68.55c-.73.65-2.31-.89-2.63-1.9s1.22-3.56,1.66-4,.64.37.69.78-1.46,2.66-1.11,3.1S83.63,68.14,83.17,68.55Z"/><path class="cls-3" d="M100.86,63.91c-2.25,1.38-3.63.13-4.75,1s-1,1.63-2.88,1.5-2.5-1.62-3.75-2-4,.63-4.75-.62S80,55,81.23,51c1-3.32,7.38-1.25,8.63-2.13s1.87-2.25,3.5-2.25,2.5,1.63,3.75,2.19,6.75.69,7.87,2.19S103.11,62.54,100.86,63.91Z"/><path class="cls-3" d="M105.77,66.82c-.32,1-1.9,2.55-2.63,1.89-.47-.41,1-1.58,1.39-2s-1.15-2.7-1.11-3.11.26-1.23.69-.78S106.08,65.81,105.77,66.82Z"/><path class="cls-3" d="M107.93,64.87c-.61-.09,0-1.9,0-2.46s-2.46-1.61-2.65-2-.47-1.17.14-1,3.31,1.42,3.6,2.43S108.9,65,107.93,64.87Z"/><path class="cls-3" d="M109.77,59.24c-.32-.13-1.39-2.18-1.86-2.1s-2,.73-2.09.22c-.19-.82,1.61-1.37,2.49-1.19s2.17,2.37,2.33,2.88S110.09,59.38,109.77,59.24Z"/><path class="cls-3" d="M112.64,52c-1.25.92-5.17,1.34-6,1.25s-.21-1.59,0-2.08A31.79,31.79,0,0,1,110,47.05c.57-.48,4.43-1.73,5.09.72C115.39,49,113.89,51.11,112.64,52Z"/><path class="cls-3" d="M142.1,51.78c.83-.83,2.33,1.9,4.67,2.34s5.92.15,6.5.51-1.46,1.17-2,2a26.5,26.5,0,0,0-1.24,3.51c-.22.51-7.38,1.39-8.62,0S141,52.88,142.1,51.78Z"/><path class="cls-3" d="M153.25,66.19c-.83.74-3.82,2.19-5.84.9s-4.31-2.79-4.24-3.76c.13-1.77,1.51-.45,2.62-.59s4.4-1.32,4.91-1.08.15,1.32.57,1.92S154.08,65.45,153.25,66.19Z"/><path class="cls-3" d="M160.65,70.58A7,7,0,0,1,154,67.79c-.3-.57,1.06-1.39,2.06-1.7s3.24-.39,4.51-.74,3.09-1.44,3.67-.19A4.29,4.29,0,0,1,160.65,70.58Z"/><path class="cls-3" d="M158.65,59.61c.18.35.44,1.13-.14,1s-3.15-1.39-3.42-2.36.19-3,1.11-2.89c.58.09,0,1.82-.06,2.35S158.47,59.26,158.65,59.61Z"/><path class="cls-3" d="M162.68,56.23c.27.28.75.94.15,1s-3.42-.4-4-1.25-.7-3,.22-3.09c.59-.09.52,1.74.63,2.27S162.4,55.94,162.68,56.23Z"/><path class="cls-3" d="M160.67,50.23c.43-.16.68,1.24.85,1.63s2.18.17,2.44.34.73.6.28.72-2.67.26-3.23-.29S160,50.49,160.67,50.23Z"/><path class="cls-3" d="M171.21,48.46c-3.39,1.1-9.09-1-11,0s-1.64,4.06-3.94,4.28-12.93.32-13.15-3.84S151,40.69,151,40.69c6.24-1.65,8.43.54,9.86,2.3a9.52,9.52,0,0,0,4.27,2.95c1,.29,3.52,2.06,5.42.44s3.23-6.79-2.46-9.2-14.24-3.07-14.68-4,13.09,2.46,14.51,3,3.89,1.31,5.32,3.34C174.44,41.27,174.61,47.37,171.21,48.46Z"/><circle class="cls-3" cx="163.12" cy="41.93" r="0.96"/></g></g></svg>