<svg xmlns="http://www.w3.org/2000/svg" viewBox="0 0 250 146"><defs><style>.cls-1{fill:#cac529;opacity:0.8;}.cls-2{font-size:9px;letter-spacing:0.11em;}.cls-2,.cls-3,.cls-4{fill:#fff;}.cls-2,.cls-4{font-family:TsukuBRdGothic-Bold-83pv-RKSJ-H, Tsukushi B Round Gothic;font-weight:700;}.cls-4{font-size:11px;letter-spacing:0.11em;}</style></defs><title>height_detail</title><g id="圖層_2" data-name="圖層 2"><g id="height_detail"><path class="cls-1" d="M215,0H35A35.1,35.1,0,0,0,0,35V88a35.1,35.1,0,0,0,35,35h72.39A95,95,0,0,0,125,146a95,95,0,0,0,17.61-23H215a35.1,35.1,0,0,0,35-35V35A35.1,35.1,0,0,0,215,0Z"/><text class="cls-2" transform="translate(118.51 102.93)">20</text><line class="cls-3" x1="84.5" y1="85" x2="84.5" y2="97"/><path class="cls-3" d="M83.75,85V97a.75.75,0,0,0,1.5,0V85a.75.75,0,0,0-1.5,0Z"/><line class="cls-3" x1="167.5" y1="85" x2="167.5" y2="97"/><path class="cls-3" d="M166.75,85V97a.75.75,0,0,0,1.5,0V85a.75.75,0,0,0-1.5,0Z"/><line class="cls-3" x1="53" y1="91" x2="199" y2="91"/><path class="cls-3" d="M53,91.75H199a.75.75,0,0,0,0-1.5H53a.75.75,0,0,0,0,1.5Z"/><text class="cls-4" transform="translate(212.51 93.37)">cm</text><circle class="cls-3" cx="31" cy="91" r="2"/><path class="cls-3" d="M167.62,51a2.74,2.74,0,0,1,0-.28l.06-.35a2.74,2.74,0,0,0,.05-.28l.06-.35c0-.1,0-.19,0-.29s0-.24.05-.36l0-.27c0-.13,0-.26,0-.38l0-.26,0-.43c0-.07,0-.14,0-.21s0-.43,0-.64l0-1.08h0c0-.87,0-1.76,0-2.66h0V43c0-.12,0-.25,0-.38s0-.22,0-.33,0-.25,0-.37,0-.23,0-.34,0-.25,0-.37,0-.22,0-.34,0-.25,0-.38a1,1,0,0,0,0-.17h0c-.06-.73-.15-1.46-.25-2.18h0s0-.07,0-.11c0-.23-.07-.46-.11-.69v-.09c0-.28-.1-.57-.16-.85h0a.44.44,0,0,0,0-.1,2.56,2.56,0,0,0,0-.27l0-.08-.06-.29s0-.05,0-.07h0c-.05-.25-.11-.5-.17-.74a1.94,1.94,0,0,1,0-.2l-.15-.53a1,1,0,0,0,0-.17h0c-.15-.52-.3-1-.48-1.52h0l0,0a1.07,1.07,0,0,0-.07-.19l-.15-.42-.09-.22c-.05-.13-.1-.26-.16-.39s-.06-.15-.1-.23l-.16-.37a2.14,2.14,0,0,1-.1-.22s0-.05,0-.08h0c-.14-.29-.28-.57-.43-.85h0q-.34-.66-.75-1.29h0l0-.06-.07-.11-.28-.41-.08-.12-.36-.47-.06-.08-.21-.25h0c-.21-.24-.41-.48-.63-.71s-.44-.46-.68-.68h0l-.18-.17-.1-.1-.44-.38-.09-.08-.38-.31-.13-.1-.1-.08h0c-.5-.39-1-.76-1.59-1.12h0l-.45-.28h0c-.18-.11-.36-.22-.55-.32l-.15-.09-.41-.22-.17-.09-.15-.08h0a23.07,23.07,0,0,0-2.43-1.09h0l-.51-.19h0l-.44-.16h0l-.05,0-.43-.14-.23-.07-.4-.12-.27-.08-.36-.09-.32-.09-.32-.07-.23-.06h0l-.76-.16h0c-.43-.08-.87-.16-1.31-.22h-.08l-.36,0-.32,0-.36,0-.32,0-.36,0-.32,0h-.62a19.1,19.1,0,0,0-2.75.15h0l-.51.07-.47.08-.08,0-.45.1h0l-.77.2h0l-.63.2h0l-.6.22-.05,0-.57.23-.07,0-.55.25h0l-.45.22h0c-.25.12-.49.25-.73.38h0l-.37.21-.07,0-.33.19-.07,0-.36.21L136,22l-.33.2,0,0h0c-.54.34-1.05.7-1.53,1.05h0l0,0-.21.15-.08.06-.18.14-.08.06-.23.18,0,0a2.43,2.43,0,0,0-.25.2l-.06,0-.19.15-.07.06-.17.15-.06.05-.44.38h0c-.31.28-.61.55-.87.8-.46-1.08.09-2.08-3.09-.32-1.94,1-10.7,10.49-10.7,10.49l-.67.1a20.83,20.83,0,0,0-10.79,2.8c-3.74,2.14-4.74,4.17-5,5.14-2.15.16-6.14.45-7.28.45-1.59,0-1.79.39-1.65.95a25.22,25.22,0,0,1-4.76-.75c-1.59-.55-2.9.07-2.63,1.21s3.87,2.59,5.66,2.66a33.56,33.56,0,0,0,6.42,0s-4.41,2.14-7.31,2.35-5.32.06-4.8,1.65,5.56,1.24,8.18.28a.63.63,0,0,0,0,.82s-.8,2.09.67,2.29c0,0-6.68,3.35-8.54,4S81.56,63,84.5,62.32a49.35,49.35,0,0,0,7.63-3,.64.64,0,0,0,.14.54l.2.22s-4.07,1.66-4.76,1.76-.69,2.4.62,1.8,7.25-3.3,8-3.78c0,0,2.48-1.24,3.93-.54,0,0-7.25,3.27-9.59,3.8s-3.8,1.93-3,2.55,5.59-.76,9.73-2.41c0,0-4.55,2.89-4.07,4.41,0,0-3.59,2.07-3.24,3.8s1.72,1,3.1,0,.9-.83,2-1.31c0,0,4.08-1.87,5.32-1.45,0,0-2.28,1.06-2.28,2.22s.35,2.11,1.59.91,1.65-2,1.93-2l1.52.14s-1.66,1.21-.35,1.8,2.76-1,3.39-1.23h1s-.8.7.31,1.23,3.38,0,3.38,0-7.39,2.84-10.15,3-3.86.68-3.24,1.3,3.59,1,6.14.28,1.8-.42,1.8-.42a2.09,2.09,0,0,0,1.93.35c1.17-.35,2-.55,2-.55s-2.76,2.62-2.35,3.1,1.73.62,2.7-.76,2.76-3.49,2.76-3.49a21.64,21.64,0,0,0,6.21-3.13c.14-.11.3-.24.5-.38a.71.71,0,0,0,.12.1s3.09,2.33,9.48,3.24h0c.56.09,1.15.15,1.77.21h0q.9.09,1.89.12l0,0,.08,0c1.17,0,2.42,0,3.75,0l.06.06,0-.06.46,0,1.48-.11h0c.77-.07,1.54-.15,2.28-.24h0l.9-.13h0l.39-.06.35-.06.49-.08.34-.06.49-.09.32-.06.51-.11.29-.06.53-.12.25-.06.6-.15.17,0,.76-.21h.06l.67-.2h0l.89-.29h0a32,32,0,0,0,3.28-1.3h0a25.9,25.9,0,0,0,3.54-2h0l.12-.08.33-.23a2.48,2.48,0,0,0,.26-.19l.32-.23.26-.2.31-.24.25-.2a3.88,3.88,0,0,0,.31-.26l.18-.14h0c.27-.23.53-.47.79-.71h0l.25-.23.15-.15.46-.47.45-.47.15-.17a2.09,2.09,0,0,0,.2-.22h0c.36-.4.7-.8,1-1.2h0c.49-.6.95-1.22,1.39-1.84h0l.18-.27.09-.13.34-.5.09-.15.24-.37.11-.19.09-.14h0a30.26,30.26,0,0,0,2.55-5.29h0c.06-.15.11-.31.16-.46l0-.09c.06-.16.11-.32.16-.48s0-.1.05-.15.12-.38.17-.57h0c.15-.51.29-1,.41-1.55h0a1.29,1.29,0,0,0,0-.19l.07-.28C167.57,51.21,167.59,51.1,167.62,51Z"/></g></g></svg>